<svg xmlns="http://www.w3.org/2000/svg" xmlns:xlink="http://www.w3.org/1999/xlink" width="180" zoomAndPan="magnify" viewBox="0 0 135 161.249994" height="215" preserveAspectRatio="xMidYMid meet" version="1.0"><defs><g/><clipPath id="0af733b96c"><path d="M 21.652344 18.4375 L 113.476562 18.4375 L 113.476562 47.550781 L 21.652344 47.550781 Z M 21.652344 18.4375 " clip-rule="nonzero"/></clipPath></defs><g fill="#0661aa" fill-opacity="1"><g transform="translate(27.03148, 74.248538)"><g><path d="M 0.09375 0 L 4.171875 -12.765625 L 7.96875 -12.765625 L 12.0625 0 L 8.921875 0 L 8.203125 -2.515625 L 3.921875 -2.515625 L 3.1875 0 Z M 4.390625 -4.671875 L 7.71875 -4.671875 L 6.109375 -10.28125 L 6.078125 -10.28125 Z M 4.390625 -4.671875 "/></g></g></g><g fill="#0661aa" fill-opacity="1"><g transform="translate(41.293115, 74.248538)"><g><path d="M 0.6875 0 L 0.6875 -13.296875 L 3.40625 -13.296875 L 3.40625 0 Z M 0.6875 0 "/></g></g></g><g fill="#0661aa" fill-opacity="1"><g transform="translate(47.49227, 74.248538)"><g><path d="M 4.90625 0.28125 C 3.851562 0.28125 3.039062 -0.00390625 2.46875 -0.578125 C 1.90625 -1.148438 1.625 -1.925781 1.625 -2.90625 L 1.609375 -7.09375 L 0.078125 -7.09375 L 0.078125 -9.171875 L 1.625 -9.171875 L 1.625 -11.609375 L 4.359375 -12.21875 L 4.359375 -9.171875 L 7.484375 -9.171875 L 7.484375 -7.09375 L 4.359375 -7.09375 L 4.375 -3.390625 C 4.375 -2.929688 4.476562 -2.570312 4.6875 -2.3125 C 4.90625 -2.0625 5.195312 -1.9375 5.5625 -1.9375 C 6.238281 -1.9375 6.734375 -2.3125 7.046875 -3.0625 L 7.9375 -1.390625 C 7.65625 -0.859375 7.25 -0.445312 6.71875 -0.15625 C 6.1875 0.132812 5.582031 0.28125 4.90625 0.28125 Z M 4.90625 0.28125 "/></g></g></g><g fill="#0661aa" fill-opacity="1"><g transform="translate(57.668916, 74.248538)"><g><path d="M 2.109375 -10.4375 C 1.617188 -10.4375 1.226562 -10.578125 0.9375 -10.859375 C 0.644531 -11.148438 0.5 -11.523438 0.5 -11.984375 C 0.5 -12.460938 0.644531 -12.84375 0.9375 -13.125 C 1.226562 -13.414062 1.617188 -13.5625 2.109375 -13.5625 C 2.597656 -13.5625 2.988281 -13.414062 3.28125 -13.125 C 3.582031 -12.84375 3.734375 -12.460938 3.734375 -11.984375 C 3.734375 -11.523438 3.582031 -11.148438 3.28125 -10.859375 C 2.988281 -10.578125 2.597656 -10.4375 2.109375 -10.4375 Z M 0.734375 0 L 0.734375 -9.171875 L 3.484375 -9.171875 L 3.484375 0 Z M 0.734375 0 "/></g></g></g><g fill="#0661aa" fill-opacity="1"><g transform="translate(64.011406, 74.248538)"><g><path d="M 4.90625 0.28125 C 3.851562 0.28125 3.039062 -0.00390625 2.46875 -0.578125 C 1.90625 -1.148438 1.625 -1.925781 1.625 -2.90625 L 1.609375 -7.09375 L 0.078125 -7.09375 L 0.078125 -9.171875 L 1.625 -9.171875 L 1.625 -11.609375 L 4.359375 -12.21875 L 4.359375 -9.171875 L 7.484375 -9.171875 L 7.484375 -7.09375 L 4.359375 -7.09375 L 4.375 -3.390625 C 4.375 -2.929688 4.476562 -2.570312 4.6875 -2.3125 C 4.90625 -2.0625 5.195312 -1.9375 5.5625 -1.9375 C 6.238281 -1.9375 6.734375 -2.3125 7.046875 -3.0625 L 7.9375 -1.390625 C 7.65625 -0.859375 7.25 -0.445312 6.71875 -0.15625 C 6.1875 0.132812 5.582031 0.28125 4.90625 0.28125 Z M 4.90625 0.28125 "/></g></g></g><g fill="#0661aa" fill-opacity="1"><g transform="translate(74.152215, 74.248538)"><g><path d="M 3.375 0.234375 C 2.53125 0.234375 1.859375 -0.0195312 1.359375 -0.53125 C 0.867188 -1.039062 0.625 -1.75 0.625 -2.65625 L 0.625 -9.171875 L 3.375 -9.171875 L 3.375 -3.34375 C 3.375 -2.914062 3.484375 -2.582031 3.703125 -2.34375 C 3.921875 -2.101562 4.21875 -1.984375 4.59375 -1.984375 C 5.082031 -1.984375 5.472656 -2.144531 5.765625 -2.46875 C 6.066406 -2.789062 6.21875 -3.226562 6.21875 -3.78125 L 6.21875 -9.171875 L 8.9375 -9.171875 L 8.9375 0 L 6.6875 0 L 6.3125 -1.5625 L 6.296875 -1.5625 C 6.015625 -0.988281 5.617188 -0.546875 5.109375 -0.234375 C 4.597656 0.078125 4.019531 0.234375 3.375 0.234375 Z M 3.375 0.234375 "/></g></g></g><g fill="#0661aa" fill-opacity="1"><g transform="translate(85.887598, 74.248538)"><g><path d="M 4 0.25 C 3.269531 0.25 2.628906 0.0507812 2.078125 -0.34375 C 1.535156 -0.738281 1.113281 -1.300781 0.8125 -2.03125 C 0.519531 -2.757812 0.375 -3.613281 0.375 -4.59375 C 0.375 -5.582031 0.519531 -6.4375 0.8125 -7.15625 C 1.113281 -7.882812 1.535156 -8.441406 2.078125 -8.828125 C 2.628906 -9.222656 3.265625 -9.421875 3.984375 -9.421875 C 4.597656 -9.421875 5.144531 -9.265625 5.625 -8.953125 C 6.101562 -8.648438 6.472656 -8.203125 6.734375 -7.609375 L 6.75 -7.609375 L 6.75 -13.296875 L 9.5 -13.296875 L 9.5 0 L 7.171875 0 L 6.828125 -1.59375 L 6.8125 -1.59375 C 6.550781 -1 6.175781 -0.539062 5.6875 -0.21875 C 5.195312 0.09375 4.632812 0.25 4 0.25 Z M 5 -2.09375 C 5.5625 -2.09375 6.007812 -2.316406 6.34375 -2.765625 C 6.6875 -3.222656 6.859375 -3.832031 6.859375 -4.59375 C 6.859375 -5.34375 6.6875 -5.941406 6.34375 -6.390625 C 6.007812 -6.847656 5.5625 -7.078125 5 -7.078125 C 4.4375 -7.078125 3.984375 -6.847656 3.640625 -6.390625 C 3.296875 -5.941406 3.125 -5.34375 3.125 -4.59375 C 3.125 -3.832031 3.296875 -3.222656 3.640625 -2.765625 C 3.984375 -2.316406 4.4375 -2.09375 5 -2.09375 Z M 5 -2.09375 "/></g></g></g><g fill="#0661aa" fill-opacity="1"><g transform="translate(98.178399, 74.248538)"><g><path d="M 5.359375 0.296875 C 4.367188 0.296875 3.492188 0.0976562 2.734375 -0.296875 C 1.984375 -0.703125 1.398438 -1.28125 0.984375 -2.03125 C 0.578125 -2.78125 0.375 -3.648438 0.375 -4.640625 C 0.375 -5.617188 0.5625 -6.46875 0.9375 -7.1875 C 1.3125 -7.914062 1.835938 -8.484375 2.515625 -8.890625 C 3.203125 -9.296875 4.003906 -9.5 4.921875 -9.5 C 5.804688 -9.5 6.570312 -9.300781 7.21875 -8.90625 C 7.863281 -8.519531 8.367188 -7.976562 8.734375 -7.28125 C 9.097656 -6.582031 9.28125 -5.765625 9.28125 -4.828125 C 9.28125 -4.628906 9.269531 -4.441406 9.25 -4.265625 C 9.238281 -4.097656 9.210938 -3.953125 9.171875 -3.828125 L 3.125 -3.828125 C 3.175781 -3.160156 3.40625 -2.632812 3.8125 -2.25 C 4.21875 -1.863281 4.738281 -1.671875 5.375 -1.671875 C 5.863281 -1.671875 6.296875 -1.789062 6.671875 -2.03125 C 7.046875 -2.269531 7.332031 -2.597656 7.53125 -3.015625 L 9.4375 -2.171875 C 9.175781 -1.398438 8.671875 -0.796875 7.921875 -0.359375 C 7.171875 0.078125 6.316406 0.296875 5.359375 0.296875 Z M 3.125 -5.390625 L 6.5625 -5.390625 C 6.519531 -6.054688 6.351562 -6.578125 6.0625 -6.953125 C 5.78125 -7.328125 5.394531 -7.515625 4.90625 -7.515625 C 4.394531 -7.515625 3.984375 -7.320312 3.671875 -6.9375 C 3.359375 -6.5625 3.175781 -6.046875 3.125 -5.390625 Z M 3.125 -5.390625 "/></g></g></g><g fill="#0661aa" fill-opacity="1"><g transform="translate(26.891507, 95.897842)"><g><path d="M 3.640625 0 L 3.640625 -10.140625 L 0.265625 -10.140625 L 0.265625 -12.765625 L 10.078125 -12.765625 L 10.078125 -10.140625 L 6.703125 -10.140625 L 6.703125 0 Z M 3.640625 0 "/></g></g></g><g fill="#0661aa" fill-opacity="1"><g transform="translate(38.626889, 95.897842)"><g><path d="M 5.625 -9.421875 C 6.375 -9.421875 6.976562 -9.140625 7.4375 -8.578125 C 7.894531 -8.023438 8.144531 -7.234375 8.1875 -6.203125 L 5.875 -5.578125 C 5.863281 -6.171875 5.753906 -6.617188 5.546875 -6.921875 C 5.347656 -7.234375 5.082031 -7.390625 4.75 -7.390625 C 4.34375 -7.390625 4.015625 -7.1875 3.765625 -6.78125 C 3.523438 -6.375 3.40625 -5.8125 3.40625 -5.09375 L 3.40625 0 L 0.6875 0 L 0.6875 -9.171875 L 2.890625 -9.171875 L 3.265625 -7.59375 L 3.28125 -7.59375 C 3.476562 -8.164062 3.785156 -8.613281 4.203125 -8.9375 C 4.628906 -9.257812 5.101562 -9.421875 5.625 -9.421875 Z M 5.625 -9.421875 "/></g></g></g><g fill="#0661aa" fill-opacity="1"><g transform="translate(49.143947, 95.897842)"><g><path d="M 3.171875 0.21875 C 2.296875 0.21875 1.585938 -0.015625 1.046875 -0.484375 C 0.515625 -0.953125 0.25 -1.578125 0.25 -2.359375 C 0.25 -3.203125 0.566406 -3.878906 1.203125 -4.390625 C 1.847656 -4.910156 2.785156 -5.238281 4.015625 -5.375 L 5.4375 -5.53125 C 5.632812 -5.5625 5.796875 -5.632812 5.921875 -5.75 C 6.046875 -5.875 6.109375 -6.046875 6.109375 -6.265625 C 6.109375 -6.671875 5.984375 -6.984375 5.734375 -7.203125 C 5.484375 -7.421875 5.15625 -7.53125 4.75 -7.53125 C 4.28125 -7.53125 3.898438 -7.367188 3.609375 -7.046875 C 3.328125 -6.722656 3.175781 -6.316406 3.15625 -5.828125 L 0.5625 -6.203125 C 0.582031 -6.847656 0.769531 -7.414062 1.125 -7.90625 C 1.476562 -8.40625 1.960938 -8.796875 2.578125 -9.078125 C 3.191406 -9.359375 3.910156 -9.5 4.734375 -9.5 C 5.984375 -9.5 6.972656 -9.171875 7.703125 -8.515625 C 8.429688 -7.859375 8.796875 -6.96875 8.796875 -5.84375 L 8.796875 -2.296875 C 8.796875 -1.890625 8.945312 -1.6875 9.25 -1.6875 C 9.488281 -1.6875 9.710938 -1.804688 9.921875 -2.046875 L 10.515625 -0.578125 C 10.234375 -0.296875 9.890625 -0.09375 9.484375 0.03125 C 9.078125 0.164062 8.675781 0.234375 8.28125 0.234375 C 7.726562 0.234375 7.265625 0.09375 6.890625 -0.1875 C 6.515625 -0.46875 6.28125 -0.820312 6.1875 -1.25 L 6.140625 -1.484375 L 6.125 -1.484375 C 5.851562 -0.960938 5.457031 -0.546875 4.9375 -0.234375 C 4.425781 0.0664062 3.835938 0.21875 3.171875 0.21875 Z M 4.296875 -1.703125 C 4.816406 -1.703125 5.242188 -1.882812 5.578125 -2.25 C 5.910156 -2.613281 6.078125 -3.085938 6.078125 -3.671875 L 6.078125 -4.109375 L 4.734375 -3.953125 C 4.109375 -3.890625 3.660156 -3.742188 3.390625 -3.515625 C 3.128906 -3.285156 3 -3.015625 3 -2.703125 C 3 -2.410156 3.117188 -2.171875 3.359375 -1.984375 C 3.609375 -1.796875 3.921875 -1.703125 4.296875 -1.703125 Z M 4.296875 -1.703125 "/></g></g></g><g fill="#0661aa" fill-opacity="1"><g transform="translate(61.77516, 95.897842)"><g><path d="M 2.109375 -10.4375 C 1.617188 -10.4375 1.226562 -10.578125 0.9375 -10.859375 C 0.644531 -11.148438 0.5 -11.523438 0.5 -11.984375 C 0.5 -12.460938 0.644531 -12.84375 0.9375 -13.125 C 1.226562 -13.414062 1.617188 -13.5625 2.109375 -13.5625 C 2.597656 -13.5625 2.988281 -13.414062 3.28125 -13.125 C 3.582031 -12.84375 3.734375 -12.460938 3.734375 -11.984375 C 3.734375 -11.523438 3.582031 -11.148438 3.28125 -10.859375 C 2.988281 -10.578125 2.597656 -10.4375 2.109375 -10.4375 Z M 0.734375 0 L 0.734375 -9.171875 L 3.484375 -9.171875 L 3.484375 0 Z M 0.734375 0 "/></g></g></g><g fill="#0661aa" fill-opacity="1"><g transform="translate(68.11765, 95.897842)"><g><path d="M 6.25 -9.40625 C 7.101562 -9.40625 7.773438 -9.148438 8.265625 -8.640625 C 8.753906 -8.140625 9 -7.4375 9 -6.53125 L 9 0 L 6.25 0 L 6.25 -5.828125 C 6.25 -6.253906 6.140625 -6.585938 5.921875 -6.828125 C 5.710938 -7.066406 5.414062 -7.1875 5.03125 -7.1875 C 4.539062 -7.1875 4.144531 -7.023438 3.84375 -6.703125 C 3.550781 -6.390625 3.40625 -5.953125 3.40625 -5.390625 L 3.40625 0 L 0.6875 0 L 0.6875 -9.171875 L 2.9375 -9.171875 L 3.3125 -7.609375 L 3.328125 -7.609375 C 3.609375 -8.191406 4.003906 -8.632812 4.515625 -8.9375 C 5.023438 -9.25 5.601562 -9.40625 6.25 -9.40625 Z M 6.25 -9.40625 "/></g></g></g><g fill="#0661aa" fill-opacity="1"><g transform="translate(79.853032, 95.897842)"><g><path d="M 2.109375 -10.4375 C 1.617188 -10.4375 1.226562 -10.578125 0.9375 -10.859375 C 0.644531 -11.148438 0.5 -11.523438 0.5 -11.984375 C 0.5 -12.460938 0.644531 -12.84375 0.9375 -13.125 C 1.226562 -13.414062 1.617188 -13.5625 2.109375 -13.5625 C 2.597656 -13.5625 2.988281 -13.414062 3.28125 -13.125 C 3.582031 -12.84375 3.734375 -12.460938 3.734375 -11.984375 C 3.734375 -11.523438 3.582031 -11.148438 3.28125 -10.859375 C 2.988281 -10.578125 2.597656 -10.4375 2.109375 -10.4375 Z M 0.734375 0 L 0.734375 -9.171875 L 3.484375 -9.171875 L 3.484375 0 Z M 0.734375 0 "/></g></g></g><g fill="#0661aa" fill-opacity="1"><g transform="translate(86.195522, 95.897842)"><g><path d="M 6.25 -9.40625 C 7.101562 -9.40625 7.773438 -9.148438 8.265625 -8.640625 C 8.753906 -8.140625 9 -7.4375 9 -6.53125 L 9 0 L 6.25 0 L 6.25 -5.828125 C 6.25 -6.253906 6.140625 -6.585938 5.921875 -6.828125 C 5.710938 -7.066406 5.414062 -7.1875 5.03125 -7.1875 C 4.539062 -7.1875 4.144531 -7.023438 3.84375 -6.703125 C 3.550781 -6.390625 3.40625 -5.953125 3.40625 -5.390625 L 3.40625 0 L 0.6875 0 L 0.6875 -9.171875 L 2.9375 -9.171875 L 3.3125 -7.609375 L 3.328125 -7.609375 C 3.609375 -8.191406 4.003906 -8.632812 4.515625 -8.9375 C 5.023438 -9.25 5.601562 -9.40625 6.25 -9.40625 Z M 6.25 -9.40625 "/></g></g></g><g fill="#0661aa" fill-opacity="1"><g transform="translate(97.930904, 95.897842)"><g><path d="M 4.359375 4.0625 C 3.460938 4.0625 2.613281 3.910156 1.8125 3.609375 C 1.019531 3.316406 0.382812 2.914062 -0.09375 2.40625 L 0.96875 0.4375 C 1.332031 0.851562 1.789062 1.1875 2.34375 1.4375 C 2.90625 1.695312 3.472656 1.828125 4.046875 1.828125 C 4.867188 1.828125 5.523438 1.597656 6.015625 1.140625 C 6.503906 0.679688 6.75 0.0546875 6.75 -0.734375 L 6.75 -1.65625 L 6.734375 -1.65625 C 6.472656 -1.132812 6.09375 -0.71875 5.59375 -0.40625 C 5.09375 -0.101562 4.546875 0.046875 3.953125 0.046875 C 3.242188 0.046875 2.625 -0.140625 2.09375 -0.515625 C 1.5625 -0.898438 1.144531 -1.441406 0.84375 -2.140625 C 0.550781 -2.835938 0.40625 -3.660156 0.40625 -4.609375 C 0.40625 -5.597656 0.546875 -6.453125 0.828125 -7.171875 C 1.117188 -7.898438 1.523438 -8.457031 2.046875 -8.84375 C 2.578125 -9.238281 3.195312 -9.4375 3.90625 -9.4375 C 4.53125 -9.4375 5.097656 -9.269531 5.609375 -8.9375 C 6.117188 -8.601562 6.5 -8.15625 6.75 -7.59375 L 6.78125 -7.59375 L 7.09375 -9.171875 L 9.5 -9.171875 L 9.5 -0.703125 C 9.5 0.285156 9.289062 1.140625 8.875 1.859375 C 8.457031 2.578125 7.863281 3.125 7.09375 3.5 C 6.320312 3.875 5.410156 4.0625 4.359375 4.0625 Z M 5.015625 -2.1875 C 5.578125 -2.1875 6.023438 -2.410156 6.359375 -2.859375 C 6.691406 -3.304688 6.859375 -3.90625 6.859375 -4.65625 C 6.859375 -5.40625 6.691406 -6.007812 6.359375 -6.46875 C 6.023438 -6.925781 5.578125 -7.15625 5.015625 -7.15625 C 4.453125 -7.15625 4 -6.929688 3.65625 -6.484375 C 3.320312 -6.035156 3.15625 -5.425781 3.15625 -4.65625 C 3.15625 -3.894531 3.320312 -3.289062 3.65625 -2.84375 C 4 -2.40625 4.453125 -2.1875 5.015625 -2.1875 Z M 5.015625 -2.1875 "/></g></g></g><g clip-path="url(#0af733b96c)"><path fill="#0661aa" d="M 34.210938 37.277344 C 33.566406 37.554688 32.855469 37.855469 32.128906 38.164062 C 32.191406 38.277344 32.25 38.496094 32.390625 38.601562 C 32.585938 38.75 32.824219 38.792969 32.714844 39.136719 C 32.628906 39.402344 32.621094 39.691406 32.570312 40.03125 C 33.140625 39.074219 33.683594 38.160156 34.210938 37.277344 Z M 61.183594 28.324219 C 60.578125 28.53125 59.972656 28.726562 59.375 28.949219 C 59.027344 29.082031 58.695312 29.414062 58.324219 28.878906 C 58.46875 28.507812 58.59375 28.058594 58.8125 27.65625 C 59.109375 27.105469 59.480469 26.589844 59.8125 26.054688 C 59.847656 26 59.832031 25.910156 59.835938 25.835938 C 59.847656 25.660156 59.820312 25.464844 59.878906 25.304688 C 60.03125 24.902344 60.21875 24.515625 60.394531 24.121094 C 60.359375 24.101562 60.324219 24.085938 60.289062 24.066406 C 59.957031 24.207031 59.625 24.359375 59.285156 24.492188 C 59.179688 24.53125 59.058594 24.527344 58.941406 24.53125 C 58.835938 24.539062 58.699219 24.488281 58.628906 24.539062 C 58.371094 24.730469 58.097656 24.921875 57.894531 25.167969 C 57.734375 25.367188 57.46875 25.472656 57.410156 25.777344 C 57.378906 25.929688 57.164062 26.039062 57.054688 26.183594 C 56.921875 26.351562 56.742188 26.53125 56.71875 26.722656 C 56.691406 26.921875 56.824219 27.140625 56.894531 27.367188 C 56.839844 27.414062 56.726562 27.464844 56.707031 27.539062 C 56.59375 27.996094 56.488281 28.457031 56.40625 28.917969 C 56.222656 29.960938 56.054688 31.003906 55.875 32.046875 C 55.839844 32.257812 55.785156 32.46875 55.726562 32.675781 C 55.707031 32.746094 55.601562 32.859375 55.585938 32.851562 C 55.167969 32.636719 55.144531 33.085938 54.960938 33.1875 C 55.101562 33.433594 55.226562 33.652344 55.351562 33.871094 C 55.527344 34.183594 55.734375 34.484375 55.875 34.8125 C 55.976562 35.054688 55.957031 35.074219 56.167969 34.9375 C 56.339844 34.832031 56.523438 34.742188 56.710938 34.664062 C 56.984375 34.550781 57.296875 34.5 57.542969 34.34375 C 58.355469 33.824219 58.917969 33.046875 59.40625 32.25 C 59.847656 31.519531 60.265625 30.769531 60.394531 29.867188 C 60.472656 29.332031 60.902344 28.847656 61.183594 28.324219 Z M 102.621094 41.066406 C 102.28125 41 101.941406 40.933594 101.582031 40.863281 C 101.699219 41.074219 101.796875 41.246094 101.902344 41.433594 C 101.738281 41.46875 101.601562 41.496094 101.550781 41.507812 C 101.320312 41.257812 101.144531 40.992188 100.902344 40.816406 C 100.449219 40.488281 99.957031 40.214844 99.480469 39.914062 C 99.402344 39.863281 99.324219 39.800781 99.253906 39.730469 C 98.59375 39.066406 97.824219 38.476562 97.316406 37.710938 C 96.964844 37.179688 96.582031 37.136719 96.089844 37.09375 C 95.546875 37.046875 94.996094 37.015625 94.453125 36.9375 C 94.191406 36.902344 93.945312 36.769531 93.6875 36.691406 C 93.550781 36.648438 93.398438 36.578125 93.269531 36.605469 C 92.933594 36.675781 92.777344 36.488281 92.59375 36.261719 C 92.207031 35.773438 91.804688 35.300781 91.386719 34.839844 C 91.074219 34.492188 90.734375 34.164062 90.394531 33.839844 C 89.8125 33.28125 89.160156 33.257812 88.464844 33.597656 C 87.78125 33.933594 87.097656 34.273438 86.417969 34.613281 C 86.152344 34.746094 85.847656 34.640625 85.722656 34.355469 C 85.363281 33.539062 85.007812 32.726562 84.652344 31.910156 C 84.617188 31.835938 84.589844 31.753906 84.578125 31.671875 C 84.457031 30.984375 83.796875 30.550781 83.109375 30.730469 C 83.019531 30.753906 82.921875 30.847656 82.871094 30.933594 C 82.550781 31.472656 82.285156 32.050781 81.925781 32.558594 C 81.382812 33.316406 81.125 34.230469 80.558594 34.972656 C 80.445312 35.125 80.359375 35.296875 80.3125 35.371094 C 81.007812 35.339844 81.867188 35.296875 82.726562 35.25 C 83.007812 35.238281 83.289062 35.226562 83.5625 35.171875 C 83.835938 35.121094 83.949219 35.324219 84.09375 35.464844 C 84.117188 35.488281 83.949219 35.695312 83.882812 35.824219 C 83.777344 36.015625 83.667969 36.203125 83.589844 36.40625 C 83.316406 37.136719 83.039062 37.871094 82.792969 38.613281 C 82.476562 39.574219 82.191406 40.542969 81.882812 41.507812 C 81.800781 41.769531 81.785156 41.972656 82.023438 42.1875 C 82.167969 42.320312 82.191406 42.582031 82.316406 42.75 C 82.652344 43.199219 82.992188 43.652344 83.367188 44.066406 C 84.292969 45.09375 85.550781 45.625 86.714844 46.296875 C 87.175781 46.5625 87.644531 46.820312 88.101562 47.097656 C 88.164062 47.136719 88.191406 47.289062 88.183594 47.382812 C 88.179688 47.441406 88.066406 47.539062 88.015625 47.53125 C 87.851562 47.507812 87.675781 47.472656 87.53125 47.390625 C 86.730469 46.941406 85.960938 46.433594 85.132812 46.039062 C 84.855469 45.90625 84.652344 45.851562 84.609375 45.511719 C 84.601562 45.425781 84.351562 45.308594 84.21875 45.3125 C 83.777344 45.332031 83.542969 45.027344 83.25 44.789062 C 82.921875 44.527344 82.5625 44.304688 82.214844 44.0625 C 82.167969 44.027344 82.105469 44.003906 82.074219 43.957031 C 81.832031 43.632812 81.601562 43.300781 81.359375 42.980469 C 81.125 42.671875 81.105469 42.59375 81.207031 42.160156 C 81.21875 42.097656 81.195312 42.011719 81.164062 41.953125 C 80.953125 41.574219 81.144531 41.230469 81.234375 40.871094 C 81.335938 40.464844 81.371094 40.042969 81.46875 39.636719 C 81.582031 39.136719 81.707031 38.640625 81.863281 38.152344 C 82.054688 37.546875 82.277344 36.953125 82.5 36.320312 C 82.03125 36.355469 81.578125 36.394531 81.125 36.429688 C 80.007812 36.511719 79.078125 37 78.253906 37.71875 C 78.199219 37.765625 78.136719 37.828125 78.074219 37.835938 C 77.957031 37.855469 77.835938 37.835938 77.714844 37.832031 C 77.746094 37.707031 77.746094 37.558594 77.8125 37.457031 C 77.992188 37.183594 78.195312 36.929688 78.394531 36.671875 C 78.554688 36.457031 78.742188 36.257812 78.875 36.027344 C 79.132812 35.589844 79.351562 35.128906 79.605469 34.6875 C 80.007812 33.980469 80.464844 33.304688 80.816406 32.578125 C 81.125 31.929688 81.558594 31.332031 81.632812 30.574219 C 81.664062 30.261719 81.867188 29.964844 81.992188 29.65625 C 81.96875 29.636719 81.945312 29.617188 81.921875 29.597656 C 81.675781 29.753906 81.441406 29.9375 81.179688 30.070312 C 80.5625 30.375 79.917969 30.621094 79.316406 30.949219 C 78.660156 31.316406 78.003906 31.699219 77.417969 32.164062 C 76.800781 32.65625 76.4375 33.367188 76.039062 34.042969 C 75.597656 34.789062 75.109375 35.503906 74.625 36.226562 C 74.191406 36.875 73.773438 37.542969 73.28125 38.152344 C 72.757812 38.804688 72.167969 39.410156 71.59375 40.019531 C 71.335938 40.289062 71.058594 40.550781 70.761719 40.773438 C 70.46875 40.996094 70.144531 41.1875 69.816406 41.351562 C 69.351562 41.585938 68.851562 41.75 68.398438 42 C 68.023438 42.207031 67.710938 42.136719 67.34375 41.917969 C 67.824219 41.582031 68.277344 41.269531 68.722656 40.960938 C 68.617188 40.890625 68.480469 40.796875 68.34375 40.699219 C 67.867188 40.347656 67.882812 40.363281 67.4375 40.761719 C 67.253906 40.925781 66.996094 41.003906 66.78125 41.132812 C 66.082031 41.558594 65.386719 42 64.679688 42.410156 C 64.398438 42.574219 64.078125 42.667969 63.785156 42.8125 C 63.191406 43.101562 62.609375 43.410156 62.015625 43.695312 C 61.222656 44.074219 60.425781 44.441406 59.625 44.804688 C 59.164062 45.011719 58.707031 45.238281 58.226562 45.394531 C 57.941406 45.488281 57.621094 45.671875 57.300781 45.414062 C 57.261719 45.382812 57.144531 45.449219 57.066406 45.46875 C 56.632812 45.570312 56.519531 45.507812 56.34375 45.027344 C 56.636719 44.957031 56.960938 44.953125 57.203125 44.804688 C 57.824219 44.429688 58.515625 44.339844 59.203125 44.214844 C 59.480469 44.164062 59.753906 44.042969 60.015625 43.917969 C 61.429688 43.257812 62.867188 42.648438 64.144531 41.730469 C 65.09375 41.042969 66.085938 40.414062 67.050781 39.75 C 67.25 39.613281 67.425781 39.441406 67.609375 39.28125 C 68.03125 38.90625 68.132812 38.882812 68.558594 39.230469 C 68.921875 39.527344 69.242188 39.871094 69.597656 40.175781 C 69.667969 40.238281 69.820312 40.269531 69.910156 40.238281 C 70.394531 40.085938 70.726562 39.742188 71.015625 39.335938 C 71.167969 39.128906 71.382812 38.972656 71.570312 38.792969 C 71.714844 38.648438 71.867188 38.507812 72.003906 38.351562 C 72.265625 38.058594 72.53125 37.765625 72.769531 37.457031 C 73.105469 37.019531 73.421875 36.570312 73.746094 36.125 C 73.777344 36.078125 73.78125 35.984375 73.824219 35.96875 C 74.488281 35.726562 74.667969 35.097656 74.949219 34.550781 C 75.269531 33.921875 75.554688 33.265625 75.886719 32.640625 C 76.046875 32.339844 76.375 32.113281 76.476562 31.800781 C 76.65625 31.242188 77.070312 31.066406 77.546875 30.859375 C 78.332031 30.523438 79.082031 30.097656 79.847656 29.722656 C 80.074219 29.613281 80.3125 29.535156 80.554688 29.441406 C 79.734375 28.769531 78.925781 28.109375 78.117188 27.445312 C 78.101562 27.464844 78.082031 27.484375 78.066406 27.503906 C 78.238281 27.855469 78.429688 28.199219 78.578125 28.5625 C 78.640625 28.714844 78.613281 28.90625 78.632812 29.15625 C 78.433594 29.363281 78.257812 29.328125 78.097656 29.003906 C 77.824219 28.441406 77.585938 27.851562 77.230469 27.34375 C 76.738281 26.652344 76.152344 26.023438 75.59375 25.375 C 75.523438 25.292969 75.375 25.246094 75.257812 25.238281 C 74.945312 25.21875 74.628906 25.230469 74.234375 25.230469 C 74.363281 25.4375 74.457031 25.59375 74.550781 25.746094 C 74.972656 26.414062 75.378906 27.085938 75.8125 27.742188 C 76.167969 28.277344 76.5625 28.792969 76.921875 29.328125 C 76.980469 29.417969 76.992188 29.578125 76.960938 29.683594 C 76.898438 29.894531 76.769531 29.875 76.648438 29.714844 C 76.386719 29.355469 76.152344 28.972656 75.851562 28.652344 C 75.542969 28.324219 75.171875 28.058594 74.765625 27.808594 C 74.867188 28.074219 75 28.332031 75.066406 28.605469 C 75.207031 29.144531 75.34375 29.6875 75.410156 30.238281 C 75.429688 30.398438 75.203125 30.585938 75.089844 30.761719 C 75.039062 30.75 74.992188 30.738281 74.941406 30.726562 C 74.867188 30.378906 74.808594 30.03125 74.714844 29.6875 C 74.519531 28.980469 74.398438 28.230469 74.078125 27.585938 C 73.804688 27.039062 73.296875 26.605469 72.882812 26.136719 C 72.472656 25.671875 72.003906 25.257812 71.640625 24.765625 C 71.328125 24.335938 70.984375 24.101562 70.453125 24.121094 C 70.011719 24.136719 69.566406 24.125 69.070312 24.125 C 69.101562 24.3125 69.085938 24.488281 69.15625 24.625 C 69.433594 25.171875 69.699219 25.730469 70.035156 26.242188 C 70.332031 26.695312 70.710938 27.089844 71.0625 27.503906 C 71.246094 27.726562 71.457031 27.925781 71.636719 28.148438 C 71.703125 28.230469 71.71875 28.351562 71.753906 28.453125 C 71.722656 28.484375 71.691406 28.515625 71.65625 28.550781 C 71.253906 28.300781 70.835938 28.074219 70.449219 27.800781 C 69.585938 27.195312 69.175781 26.238281 68.644531 25.382812 C 68.183594 24.644531 67.769531 23.875 67.316406 23.132812 C 67.015625 22.644531 66.589844 22.355469 65.984375 22.261719 C 65.292969 22.160156 64.765625 21.707031 64.289062 21.214844 C 64.023438 20.9375 63.773438 20.644531 63.457031 20.292969 C 63.140625 20.855469 62.832031 21.367188 62.558594 21.898438 C 62.386719 22.242188 62.253906 22.609375 62.121094 22.972656 C 62.003906 23.289062 61.96875 23.65625 61.789062 23.925781 C 61.347656 24.578125 61.175781 25.332031 60.847656 26.027344 C 60.617188 26.511719 60.417969 27.011719 60.203125 27.507812 C 60.449219 27.507812 60.707031 27.566406 60.921875 27.496094 C 61.628906 27.253906 62.320312 26.96875 62.863281 26.414062 C 63.273438 25.996094 63.316406 26.015625 63.75 26.464844 C 64.09375 26.824219 64.457031 27.171875 64.796875 27.535156 C 64.902344 27.644531 64.980469 27.785156 65.042969 27.925781 C 65.269531 28.402344 65.757812 28.480469 66.164062 28.679688 C 66.414062 28.796875 66.6875 28.878906 66.910156 29.03125 C 67.4375 29.390625 68.023438 29.496094 68.640625 29.546875 C 68.851562 29.5625 69.058594 29.632812 69.261719 29.695312 C 70.042969 29.9375 70.824219 30.183594 71.605469 30.433594 C 71.75 30.480469 71.894531 30.546875 72.03125 30.597656 C 71.925781 31.125 71.90625 31.121094 71.390625 31.039062 C 71.03125 30.984375 70.660156 31.007812 70.296875 30.953125 C 69.328125 30.816406 68.363281 30.652344 67.394531 30.503906 C 67.324219 30.492188 67.246094 30.507812 67.03125 30.519531 C 67.292969 30.835938 67.480469 31.085938 67.699219 31.3125 C 67.941406 31.558594 68.332031 31.683594 68.308594 32.136719 C 68.308594 32.183594 68.441406 32.234375 68.5 32.292969 C 68.847656 32.652344 69.230469 32.984375 69.519531 33.386719 C 69.644531 33.566406 69.554688 33.890625 69.597656 34.144531 C 69.652344 34.472656 69.730469 34.796875 69.820312 35.117188 C 69.960938 35.621094 70.121094 36.117188 70.273438 36.617188 C 70.234375 36.648438 70.195312 36.679688 70.15625 36.710938 C 70.015625 36.582031 69.855469 36.464844 69.738281 36.316406 C 69.53125 36.054688 69.335938 35.777344 69.152344 35.496094 C 68.878906 35.082031 68.628906 34.652344 68.34375 34.246094 C 68.230469 34.085938 68.058594 33.964844 67.898438 33.84375 C 67.757812 33.738281 67.558594 33.695312 67.453125 33.566406 C 67.03125 33.054688 66.472656 32.734375 65.878906 32.515625 C 65.191406 32.261719 64.570312 32.542969 64.035156 32.972656 C 63.820312 33.144531 63.742188 33.179688 63.582031 32.921875 C 63.390625 32.613281 63.089844 32.371094 62.910156 32.058594 C 62.589844 31.503906 62.328125 30.921875 62.039062 30.351562 C 62.023438 30.316406 61.992188 30.277344 62 30.25 C 62.105469 29.875 62.222656 29.496094 62.253906 29.085938 C 62.222656 29.148438 62.203125 29.222656 62.160156 29.28125 C 61.957031 29.570312 61.75 29.855469 61.546875 30.144531 C 61.5 30.210938 61.46875 30.289062 61.4375 30.363281 C 61.097656 31.183594 61.082031 32.058594 60.984375 32.925781 C 60.941406 33.304688 60.773438 33.667969 60.980469 34.050781 C 61 34.082031 60.957031 34.15625 60.925781 34.199219 C 60.503906 34.746094 60.058594 35.277344 59.667969 35.839844 C 59.398438 36.226562 59.226562 36.679688 58.96875 37.074219 C 58.5625 37.6875 58.109375 38.269531 57.695312 38.878906 C 57.460938 39.222656 57.273438 39.59375 57.046875 39.945312 C 57.011719 40.003906 56.910156 40.050781 56.835938 40.054688 C 56.390625 40.09375 55.945312 40.117188 55.5 40.144531 C 55.125 40.167969 54.742188 40.164062 54.371094 40.21875 C 54.21875 40.242188 54.0625 40.363281 53.941406 40.472656 C 53.722656 40.675781 53.535156 40.914062 53.320312 41.117188 C 52.484375 41.90625 51.589844 42.644531 50.820312 43.492188 C 50.3125 44.050781 49.699219 44.410156 49.089844 44.804688 C 48.691406 45.0625 48.289062 45.320312 47.910156 45.613281 C 47.601562 45.847656 47.222656 45.949219 46.878906 45.769531 C 47.242188 45.492188 47.578125 45.214844 47.933594 44.972656 C 48.160156 44.816406 48.441406 44.726562 48.664062 44.566406 C 48.832031 44.441406 48.9375 44.234375 49.09375 44.085938 C 50.085938 43.136719 51.101562 42.214844 52.066406 41.242188 C 52.5 40.804688 52.839844 40.273438 53.214844 39.78125 C 53.320312 39.644531 53.378906 39.621094 53.59375 39.632812 C 54.554688 39.695312 55.507812 39.601562 56.300781 38.949219 C 56.347656 38.910156 56.386719 38.855469 56.441406 38.832031 C 56.777344 38.679688 57.011719 38.464844 57.222656 38.136719 C 57.640625 37.488281 58.175781 36.917969 58.644531 36.304688 C 59.035156 35.792969 59.410156 35.265625 59.765625 34.730469 C 59.859375 34.59375 59.867188 34.390625 59.890625 34.21875 C 59.929688 33.914062 59.949219 33.609375 59.984375 33.195312 C 59.597656 33.8125 59.257812 34.328125 58.953125 34.863281 C 58.664062 35.367188 58.417969 35.894531 58.152344 36.410156 C 57.839844 37.019531 57.257812 37.351562 56.75 37.761719 C 56.570312 37.910156 56.382812 38.042969 56.171875 38.199219 C 55.90625 37.953125 55.648438 38.101562 55.371094 38.328125 C 55.304688 38.199219 55.25 38.097656 55.230469 38.0625 C 55.847656 37.5625 56.511719 37.164062 56.976562 36.601562 C 57.429688 36.050781 57.679688 35.332031 57.960938 34.625 C 57.757812 34.792969 57.570312 34.988281 57.34375 35.121094 C 57.058594 35.289062 56.746094 35.410156 56.4375 35.539062 C 55.90625 35.765625 55.335938 35.925781 54.847656 36.222656 C 54.175781 36.632812 53.519531 37.097656 52.9375 37.628906 C 52.5 38.03125 52.195312 38.578125 51.820312 39.050781 C 51.59375 39.332031 51.238281 39.550781 51.117188 39.863281 C 50.917969 40.378906 50.511719 40.675781 50.183594 41.0625 C 49.761719 41.554688 49.335938 42.042969 48.902344 42.527344 C 48.28125 43.21875 47.636719 43.890625 47.023438 44.589844 C 46.601562 45.070312 46.25 45.613281 45.8125 46.070312 C 45.433594 46.464844 44.988281 46.796875 44.546875 47.117188 C 44.378906 47.238281 44.136719 47.261719 43.925781 47.308594 C 43.882812 47.320312 43.78125 47.257812 43.777344 47.226562 C 43.773438 47.167969 43.8125 47.089844 43.859375 47.046875 C 44.316406 46.671875 44.789062 46.316406 45.226562 45.917969 C 45.511719 45.65625 45.746094 45.335938 45.992188 45.035156 C 46.53125 44.378906 47.074219 43.726562 47.59375 43.058594 C 48 42.53125 48.359375 41.964844 48.765625 41.4375 C 49.140625 40.957031 49.574219 40.523438 49.9375 40.035156 C 50.363281 39.460938 50.738281 38.847656 51.144531 38.261719 C 51.273438 38.082031 51.285156 37.832031 51.632812 37.777344 C 51.820312 37.75 51.949219 37.335938 52.101562 37.089844 C 52.140625 37.027344 52.144531 36.914062 52.199219 36.886719 C 52.757812 36.605469 53.324219 36.34375 53.886719 36.066406 C 53.96875 36.023438 54.078125 35.9375 54.09375 35.855469 C 54.183594 35.292969 54.28125 34.730469 54.320312 34.164062 C 54.332031 33.925781 54.199219 33.679688 54.074219 33.441406 C 54.566406 32.453125 55.277344 31.507812 55.355469 30.328125 C 55.429688 29.226562 55.910156 28.167969 55.773438 26.9375 C 55.375 27.222656 55.191406 27.476562 55.1875 27.882812 C 55.183594 28.183594 55.144531 28.507812 55.019531 28.773438 C 54.703125 29.429688 54.703125 30.121094 54.6875 30.816406 C 54.679688 31.132812 54.628906 31.445312 54.597656 31.757812 C 54.242188 31.675781 53.964844 31.355469 53.960938 31.035156 C 53.960938 30.515625 53.960938 30 53.960938 29.460938 C 52.753906 29.691406 51.886719 30.589844 50.730469 31.167969 C 51.433594 31.386719 51.75 31.808594 52.003906 32.386719 C 52.222656 32.882812 52.660156 33.285156 53.007812 33.738281 C 52.773438 34.121094 52.671875 34.121094 52.367188 33.765625 C 51.835938 33.152344 51.335938 32.507812 50.75 31.960938 C 50.503906 31.730469 50.066406 31.703125 49.714844 31.605469 C 49.363281 31.511719 49.007812 31.445312 48.65625 31.371094 C 48.078125 31.253906 47.496094 31.136719 46.914062 31.023438 C 46.675781 30.980469 46.523438 31.203125 46.589844 31.464844 C 46.605469 31.53125 46.5625 31.609375 46.550781 31.648438 C 46.550781 31.929688 46.550781 32.1875 46.554688 32.449219 C 46.558594 32.769531 46.597656 33.09375 46.566406 33.414062 C 46.554688 33.542969 46.390625 33.65625 46.28125 33.769531 C 46.378906 33.839844 46.574219 33.945312 46.328125 34.199219 C 46.285156 34.242188 46.40625 34.445312 46.484375 34.675781 C 46.351562 34.867188 46.167969 35.175781 45.941406 35.449219 C 45.859375 35.550781 45.679688 35.578125 45.464844 35.679688 C 45.53125 35.71875 45.617188 35.773438 45.785156 35.875 C 45.550781 35.96875 45.371094 36.039062 45.195312 36.109375 C 45.226562 36.128906 45.28125 36.160156 45.410156 36.230469 C 45.203125 36.359375 45.007812 36.445312 44.863281 36.585938 C 44.648438 36.78125 44.480469 37.027344 44.273438 37.234375 C 44.105469 37.398438 43.921875 37.558594 43.722656 37.675781 C 43.300781 37.917969 43.398438 38.28125 43.445312 38.644531 C 43.464844 38.796875 43.417969 38.957031 43.445312 39.109375 C 43.457031 39.179688 43.574219 39.234375 43.722656 39.363281 C 43.417969 39.617188 43.082031 39.816406 42.855469 40.101562 C 42.578125 40.453125 42.210938 40.679688 41.886719 40.960938 C 41.511719 41.292969 41.101562 41.585938 40.722656 41.917969 C 40.167969 42.40625 39.632812 42.914062 39.085938 43.414062 C 39.03125 43.464844 38.945312 43.542969 38.898438 43.53125 C 38.539062 43.429688 38.300781 43.640625 38.09375 43.855469 C 37.902344 44.054688 37.734375 44.152344 37.429688 44.179688 C 37.136719 44.207031 36.867188 44.480469 36.585938 44.644531 C 36.492188 44.699219 36.402344 44.757812 36.316406 44.808594 C 36.074219 44.5625 36.113281 44.292969 36.398438 44.070312 C 37.019531 43.585938 37.65625 43.113281 38.257812 42.601562 C 38.714844 42.210938 39.1875 41.8125 39.535156 41.332031 C 39.992188 40.703125 40.351562 39.996094 40.722656 39.300781 C 40.976562 38.824219 41.199219 38.324219 41.402344 37.820312 C 41.519531 37.527344 41.566406 37.207031 41.671875 36.78125 C 41.273438 37.109375 40.976562 37.609375 40.480469 37.058594 C 41.113281 36.953125 41.511719 36.519531 41.9375 36.125 C 42.410156 35.691406 42.753906 35.203125 42.84375 34.539062 C 42.535156 34.707031 42.246094 34.863281 41.957031 35.019531 C 41.933594 35.03125 41.894531 35.03125 41.890625 35.046875 C 41.710938 35.667969 41.023438 35.664062 40.648438 36.042969 C 40.414062 36.277344 40.1875 36.527344 39.929688 36.726562 C 39.753906 36.863281 39.523438 36.925781 39.316406 37.023438 C 39.144531 37.101562 38.96875 37.183594 38.800781 37.332031 C 39.207031 37.378906 39.613281 37.417969 40.015625 37.480469 C 40.375 37.539062 40.703125 37.65625 40.734375 38.140625 C 40.652344 38.132812 40.574219 38.128906 40.5 38.121094 C 40.324219 38.097656 40.125 37.863281 39.992188 38.183594 C 39.984375 38.195312 39.945312 38.207031 39.921875 38.203125 C 39.648438 38.160156 39.351562 38.171875 39.105469 38.0625 C 38.761719 37.90625 38.445312 37.765625 38.058594 37.949219 C 38.089844 38.015625 38.125 38.089844 38.167969 38.179688 C 38.109375 38.191406 38.066406 38.214844 38.039062 38.203125 C 37.324219 37.859375 36.601562 38.058594 35.878906 38.171875 C 35.855469 38.175781 35.832031 38.203125 35.8125 38.199219 C 34.992188 38 34.734375 38.699219 34.308594 39.136719 C 33.914062 39.542969 33.535156 39.96875 33.113281 40.351562 C 32.894531 40.546875 32.792969 40.675781 33.117188 40.859375 C 32.605469 41.164062 32.101562 41.433594 31.632812 41.75 C 31.191406 42.046875 30.78125 42.398438 30.351562 42.71875 C 30.238281 42.800781 30.113281 42.875 29.980469 42.929688 C 29.773438 43.019531 29.539062 43.054688 29.351562 43.175781 C 28.808594 43.527344 28.15625 43.464844 27.582031 43.691406 C 27.15625 43.859375 26.710938 43.988281 26.269531 44.101562 C 26.164062 44.128906 26.03125 44.035156 25.910156 44 C 25.984375 43.898438 26.035156 43.746094 26.132812 43.710938 C 26.992188 43.414062 27.804688 42.992188 28.726562 42.84375 C 29.0625 42.789062 29.371094 42.5 29.675781 42.292969 C 30.085938 42.011719 30.527344 41.753906 30.867188 41.398438 C 31.253906 41.003906 31.550781 40.519531 31.871094 40.066406 C 31.953125 39.949219 31.988281 39.800781 32.03125 39.660156 C 32.082031 39.507812 32.1875 39.238281 32.144531 39.210938 C 31.953125 39.089844 31.71875 38.988281 31.492188 38.976562 C 31.398438 38.96875 31.289062 39.199219 31.136719 39.378906 C 30.949219 39.40625 30.617188 39 30.390625 39.46875 C 29.933594 39.105469 29.941406 39.117188 29.433594 39.417969 C 28.800781 39.789062 28.152344 40.128906 27.523438 40.503906 C 27.253906 40.664062 27.019531 40.886719 26.75 41.054688 C 26.59375 41.152344 26.402344 41.207031 26.222656 41.25 C 25.605469 41.402344 24.984375 41.546875 24.363281 41.683594 C 24.285156 41.703125 24.167969 41.703125 24.117188 41.660156 C 23.730469 41.339844 23.265625 41.285156 22.796875 41.242188 C 22.726562 41.238281 22.660156 41.179688 22.59375 41.144531 C 22.371094 41.03125 22.148438 40.921875 21.933594 40.800781 C 21.835938 40.746094 21.746094 40.667969 21.652344 40.597656 C 21.671875 40.554688 21.691406 40.511719 21.710938 40.472656 C 22.015625 40.527344 22.320312 40.574219 22.625 40.644531 C 23.152344 40.765625 23.671875 40.980469 24.203125 41.007812 C 24.636719 41.03125 25.097656 40.890625 25.507812 40.730469 C 26.214844 40.449219 26.925781 40.152344 27.570312 39.757812 C 28.296875 39.308594 28.964844 38.757812 29.640625 38.226562 C 30.015625 37.929688 30.339844 37.570312 30.714844 37.273438 C 30.894531 37.132812 31.117188 37.027344 31.351562 37.257812 C 31.449219 37.351562 31.632812 37.414062 31.773438 37.40625 C 32.980469 37.335938 33.9375 36.644531 34.929688 36.066406 C 35.5625 35.699219 36.128906 35.53125 36.75 36.0625 C 36.976562 36.253906 37.238281 36.425781 37.511719 36.542969 C 37.65625 36.601562 37.867188 36.539062 38.039062 36.5 C 38.214844 36.460938 38.375 36.355469 38.550781 36.328125 C 38.996094 36.253906 39.207031 35.863281 39.539062 35.640625 C 40.078125 35.285156 40.632812 34.957031 41.164062 34.59375 C 41.296875 34.503906 41.371094 34.335938 41.472656 34.203125 C 41.484375 34.191406 41.484375 34.15625 41.492188 34.15625 C 42.003906 34.113281 42.046875 33.597656 42.332031 33.332031 C 42.488281 33.1875 42.675781 33.082031 42.847656 32.957031 C 43.140625 32.742188 43.375 32.515625 43.460938 32.117188 C 43.507812 31.890625 43.769531 31.691406 43.972656 31.527344 C 44.429688 31.152344 44.925781 30.828125 45.371094 30.441406 C 45.570312 30.265625 45.726562 30.007812 45.832031 29.761719 C 45.972656 29.433594 46.328125 29.472656 46.445312 29.539062 C 46.738281 29.703125 47.09375 29.675781 47.359375 30.019531 C 47.578125 30.304688 48.109375 30.355469 48.511719 30.496094 C 48.851562 30.613281 49.195312 30.71875 49.546875 30.8125 C 49.644531 30.839844 49.789062 30.832031 49.863281 30.777344 C 50.433594 30.324219 51.019531 29.886719 51.542969 29.382812 C 51.910156 29.027344 52.175781 28.574219 52.5 28.175781 C 52.664062 27.976562 52.859375 27.800781 53.042969 27.617188 C 53.082031 27.578125 53.125 27.542969 53.160156 27.5 C 53.457031 27.160156 53.804688 26.851562 54.027344 26.46875 C 54.230469 26.121094 54.691406 26.003906 54.757812 25.546875 C 54.78125 25.378906 55.234375 25.355469 55.402344 25.457031 C 55.503906 25.519531 55.652344 25.554688 55.769531 25.539062 C 56.410156 25.449219 56.886719 25.117188 57.324219 24.632812 C 57.738281 24.175781 58.285156 23.847656 58.75 23.4375 C 59.074219 23.152344 59.335938 22.796875 59.671875 22.527344 C 60.015625 22.25 60.203125 21.859375 60.503906 21.558594 C 60.929688 21.128906 61.378906 20.722656 61.792969 20.28125 C 62.074219 19.980469 62.296875 19.628906 62.5625 19.3125 C 62.84375 18.976562 63.09375 18.597656 63.578125 18.441406 C 64.042969 18.953125 64.496094 19.523438 65.023438 20.015625 C 65.511719 20.46875 66.070312 20.851562 66.613281 21.246094 C 67.074219 21.578125 67.566406 21.875 68.03125 22.210938 C 68.324219 22.421875 68.628906 22.367188 68.941406 22.316406 C 69.167969 22.277344 69.394531 22.238281 69.621094 22.207031 C 69.839844 22.183594 70.039062 22.210938 70.128906 22.464844 C 70.144531 22.511719 70.214844 22.5625 70.269531 22.570312 C 70.832031 22.667969 71.21875 23.113281 71.722656 23.308594 C 72.164062 23.480469 72.65625 23.546875 73.132812 23.609375 C 73.675781 23.675781 74.214844 23.734375 74.71875 23.976562 C 74.859375 24.042969 75.078125 24.027344 75.234375 23.972656 C 75.601562 23.839844 75.734375 24.148438 75.910156 24.320312 C 76.335938 24.734375 76.691406 25.222656 77.136719 25.609375 C 77.828125 26.207031 78.570312 26.746094 79.296875 27.304688 C 79.859375 27.742188 80.433594 28.167969 80.992188 28.605469 C 81.183594 28.753906 81.355469 28.769531 81.570312 28.652344 C 82.019531 28.40625 82.484375 28.1875 82.941406 27.949219 C 83.046875 27.894531 83.144531 27.816406 83.230469 27.734375 C 83.539062 27.449219 83.933594 27.464844 84.308594 27.394531 C 84.375 27.382812 84.441406 27.351562 84.527344 27.324219 C 84.636719 27.476562 84.726562 27.652344 84.859375 27.789062 C 85 27.929688 85.207031 28.015625 85.347656 28.160156 C 85.5625 28.390625 85.730469 28.667969 85.953125 28.890625 C 86.410156 29.351562 86.878906 29.792969 87.359375 30.230469 C 88.261719 31.054688 89.398438 31.515625 90.425781 32.148438 C 90.625 32.269531 90.925781 32.304688 91.164062 32.269531 C 92.15625 32.117188 93.074219 31.742188 93.921875 31.207031 C 94.085938 31.105469 94.285156 31.058594 94.4375 30.941406 C 94.660156 30.773438 94.84375 30.554688 95.058594 30.371094 C 95.144531 30.296875 95.261719 30.257812 95.367188 30.210938 C 95.621094 30.101562 95.871094 29.9375 96.132812 29.90625 C 96.546875 29.863281 96.976562 29.878906 97.390625 29.925781 C 97.925781 29.984375 98.464844 30.054688 98.976562 30.207031 C 99.621094 30.394531 100.234375 30.695312 100.878906 30.890625 C 101.546875 31.09375 102.226562 31.257812 102.910156 31.386719 C 103.21875 31.445312 103.425781 31.527344 103.589844 31.828125 C 103.734375 32.09375 103.839844 32.425781 104.195312 32.554688 C 104.300781 32.59375 104.339844 32.792969 104.433594 32.902344 C 104.621094 33.136719 104.820312 33.363281 105.027344 33.582031 C 105.191406 33.753906 105.378906 33.898438 105.542969 34.070312 C 105.789062 34.332031 105.980469 34.652344 106.371094 34.757812 C 106.480469 34.785156 106.550781 34.949219 106.65625 35.027344 C 107.027344 35.308594 107.410156 35.578125 107.785156 35.851562 C 107.824219 35.878906 107.871094 35.90625 107.902344 35.941406 C 108.339844 36.492188 108.992188 36.675781 109.585938 36.976562 C 110.308594 37.335938 111.078125 37.515625 111.839844 37.730469 C 112.199219 37.835938 112.570312 37.894531 112.929688 38.003906 C 113.078125 38.050781 113.199219 38.183594 113.335938 38.277344 C 113.324219 38.316406 113.308594 38.359375 113.292969 38.398438 C 113.179688 38.40625 113.058594 38.445312 112.953125 38.417969 C 111.644531 38.121094 110.351562 37.777344 109.113281 37.246094 C 108.539062 37.003906 107.921875 36.863281 107.332031 36.640625 C 106.859375 36.464844 106.410156 36.21875 105.933594 36.035156 C 105.101562 35.714844 104.5 35.089844 103.839844 34.53125 C 103.46875 34.21875 103.117188 33.871094 102.722656 33.578125 C 102.457031 33.378906 102.117188 33.28125 101.84375 33.082031 C 101.3125 32.695312 100.789062 32.933594 100.253906 33.039062 C 100.132812 33.0625 99.996094 33.058594 99.871094 33.035156 C 99.625 32.992188 99.378906 32.945312 99.144531 32.863281 C 99.011719 32.816406 98.902344 32.699219 98.730469 32.574219 C 99.335938 32.460938 99.847656 32.371094 100.359375 32.277344 C 100.363281 32.246094 100.371094 32.214844 100.375 32.183594 C 100.257812 32.117188 100.144531 32.019531 100.015625 31.988281 C 99.300781 31.808594 98.585938 31.621094 97.863281 31.484375 C 97.433594 31.40625 97.007812 31.4375 96.597656 31.6875 C 95.84375 32.140625 95.070312 32.566406 94.285156 32.96875 C 93.859375 33.1875 93.402344 33.339844 92.914062 33.539062 C 93.125 33.625 93.304688 33.742188 93.488281 33.757812 C 94.242188 33.824219 94.835938 34.261719 95.484375 34.570312 C 95.65625 34.65625 95.8125 34.777344 95.992188 34.851562 C 96.765625 35.167969 97.007812 35.949219 97.46875 36.535156 C 98.039062 37.261719 98.503906 38.066406 99.253906 38.652344 C 99.777344 39.066406 100.234375 39.5625 100.71875 40.03125 C 101.148438 40.449219 101.714844 40.558594 102.25 40.75 C 102.390625 40.800781 102.703125 40.726562 102.621094 41.066406 " fill-opacity="1" fill-rule="nonzero"/></g><g fill="#2d6d5e" fill-opacity="1"><g transform="translate(14.971349, 126.499996)"><g><path d="M 1.65625 0 L 0.8125 0 L 0.8125 -7.8125 L 3.875 -7.8125 L 3.875 -7.046875 L 1.65625 -7.046875 L 1.65625 -4.140625 L 3.75 -4.140625 L 3.75 -3.359375 L 1.65625 -3.359375 Z M 1.65625 0 "/></g></g></g><g fill="#2d6d5e" fill-opacity="1"><g transform="translate(20.628561, 126.499996)"><g><path d="M 4.359375 -2.9375 C 4.359375 -2.476562 4.316406 -2.0625 4.234375 -1.6875 C 4.160156 -1.3125 4.039062 -0.988281 3.875 -0.71875 C 3.71875 -0.457031 3.515625 -0.253906 3.265625 -0.109375 C 3.023438 0.0351562 2.734375 0.109375 2.390625 0.109375 C 2.078125 0.109375 1.796875 0.0351562 1.546875 -0.109375 C 1.304688 -0.253906 1.101562 -0.457031 0.9375 -0.71875 C 0.78125 -0.976562 0.660156 -1.296875 0.578125 -1.671875 C 0.503906 -2.054688 0.46875 -2.476562 0.46875 -2.9375 C 0.46875 -3.582031 0.535156 -4.128906 0.671875 -4.578125 C 0.804688 -5.035156 1.019531 -5.378906 1.3125 -5.609375 C 1.601562 -5.847656 1.96875 -5.96875 2.40625 -5.96875 C 2.820312 -5.96875 3.175781 -5.851562 3.46875 -5.625 C 3.757812 -5.394531 3.976562 -5.054688 4.125 -4.609375 C 4.28125 -4.160156 4.359375 -3.601562 4.359375 -2.9375 Z M 1.296875 -2.9375 C 1.296875 -2.425781 1.332031 -2 1.40625 -1.65625 C 1.488281 -1.3125 1.613281 -1.050781 1.78125 -0.875 C 1.945312 -0.695312 2.160156 -0.609375 2.421875 -0.609375 C 2.671875 -0.609375 2.875 -0.691406 3.03125 -0.859375 C 3.195312 -1.035156 3.316406 -1.296875 3.390625 -1.640625 C 3.472656 -1.984375 3.515625 -2.414062 3.515625 -2.9375 C 3.515625 -3.445312 3.472656 -3.875 3.390625 -4.21875 C 3.316406 -4.5625 3.195312 -4.816406 3.03125 -4.984375 C 2.875 -5.160156 2.664062 -5.25 2.40625 -5.25 C 2.019531 -5.25 1.738281 -5.054688 1.5625 -4.671875 C 1.382812 -4.285156 1.296875 -3.707031 1.296875 -2.9375 Z M 1.296875 -2.9375 "/></g></g></g><g fill="#2d6d5e" fill-opacity="1"><g transform="translate(26.980289, 126.499996)"><g><path d="M 2.671875 -5.96875 C 2.753906 -5.96875 2.835938 -5.957031 2.921875 -5.9375 C 3.003906 -5.925781 3.085938 -5.910156 3.171875 -5.890625 L 3.046875 -5.046875 C 2.984375 -5.066406 2.914062 -5.082031 2.84375 -5.09375 C 2.769531 -5.101562 2.691406 -5.109375 2.609375 -5.109375 C 2.453125 -5.109375 2.304688 -5.054688 2.171875 -4.953125 C 2.035156 -4.847656 1.921875 -4.703125 1.828125 -4.515625 C 1.734375 -4.328125 1.660156 -4.109375 1.609375 -3.859375 C 1.554688 -3.609375 1.53125 -3.34375 1.53125 -3.0625 L 1.53125 0 L 0.71875 0 L 0.71875 -5.859375 L 1.359375 -5.859375 L 1.46875 -4.828125 L 1.515625 -4.828125 C 1.597656 -5.046875 1.691406 -5.238281 1.796875 -5.40625 C 1.910156 -5.582031 2.039062 -5.71875 2.1875 -5.8125 C 2.332031 -5.914062 2.492188 -5.96875 2.671875 -5.96875 Z M 2.671875 -5.96875 "/></g></g></g><g fill="#2d6d5e" fill-opacity="1"><g transform="translate(31.793397, 126.499996)"><g/></g></g><g fill="#2d6d5e" fill-opacity="1"><g transform="translate(35.356376, 126.499996)"><g><path d="M 2.28125 -5.96875 C 2.820312 -5.96875 3.207031 -5.796875 3.4375 -5.453125 C 3.675781 -5.109375 3.796875 -4.609375 3.796875 -3.953125 L 3.796875 0 L 3.171875 0 L 3.046875 -0.828125 L 3.015625 -0.828125 C 2.929688 -0.628906 2.820312 -0.457031 2.6875 -0.3125 C 2.5625 -0.175781 2.414062 -0.0703125 2.25 0 C 2.09375 0.0703125 1.90625 0.109375 1.6875 0.109375 C 1.382812 0.109375 1.132812 0.03125 0.9375 -0.125 C 0.75 -0.289062 0.609375 -0.503906 0.515625 -0.765625 C 0.421875 -1.023438 0.375 -1.304688 0.375 -1.609375 C 0.375 -2.191406 0.539062 -2.640625 0.875 -2.953125 C 1.21875 -3.273438 1.695312 -3.453125 2.3125 -3.484375 L 2.96875 -3.53125 L 2.96875 -3.9375 C 2.96875 -4.40625 2.90625 -4.742188 2.78125 -4.953125 C 2.65625 -5.171875 2.445312 -5.28125 2.15625 -5.28125 C 2 -5.28125 1.828125 -5.25 1.640625 -5.1875 C 1.460938 -5.132812 1.269531 -5.046875 1.0625 -4.921875 L 0.796875 -5.546875 C 1.015625 -5.691406 1.25 -5.796875 1.5 -5.859375 C 1.757812 -5.929688 2.019531 -5.96875 2.28125 -5.96875 Z M 2.984375 -2.921875 L 2.4375 -2.890625 C 2.03125 -2.867188 1.722656 -2.753906 1.515625 -2.546875 C 1.316406 -2.335938 1.21875 -2.035156 1.21875 -1.640625 C 1.21875 -1.265625 1.28125 -0.988281 1.40625 -0.8125 C 1.539062 -0.644531 1.722656 -0.5625 1.953125 -0.5625 C 2.285156 -0.5625 2.539062 -0.71875 2.71875 -1.03125 C 2.894531 -1.34375 2.984375 -1.773438 2.984375 -2.328125 Z M 2.984375 -2.921875 "/></g></g></g><g fill="#2d6d5e" fill-opacity="1"><g transform="translate(41.382216, 126.499996)"><g><path d="M 2.171875 0.109375 C 1.609375 0.109375 1.179688 -0.144531 0.890625 -0.65625 C 0.609375 -1.175781 0.46875 -1.929688 0.46875 -2.921875 C 0.46875 -3.898438 0.613281 -4.648438 0.90625 -5.171875 C 1.195312 -5.703125 1.609375 -5.96875 2.140625 -5.96875 C 2.335938 -5.96875 2.519531 -5.929688 2.6875 -5.859375 C 2.851562 -5.785156 3 -5.679688 3.125 -5.546875 C 3.257812 -5.410156 3.375 -5.25 3.46875 -5.0625 L 3.515625 -5.0625 C 3.503906 -5.226562 3.492188 -5.375 3.484375 -5.5 C 3.484375 -5.632812 3.484375 -5.757812 3.484375 -5.875 L 3.484375 -8.3125 L 4.296875 -8.3125 L 4.296875 0 L 3.640625 0 L 3.53125 -0.796875 L 3.484375 -0.796875 C 3.378906 -0.609375 3.265625 -0.445312 3.140625 -0.3125 C 3.015625 -0.175781 2.875 -0.0703125 2.71875 0 C 2.5625 0.0703125 2.378906 0.109375 2.171875 0.109375 Z M 2.359375 -0.59375 C 2.722656 -0.59375 3 -0.765625 3.1875 -1.109375 C 3.382812 -1.453125 3.484375 -1.960938 3.484375 -2.640625 L 3.484375 -3.046875 C 3.484375 -3.785156 3.390625 -4.332031 3.203125 -4.6875 C 3.023438 -5.050781 2.738281 -5.234375 2.34375 -5.234375 C 1.988281 -5.234375 1.722656 -5.035156 1.546875 -4.640625 C 1.378906 -4.242188 1.296875 -3.671875 1.296875 -2.921875 C 1.296875 -2.148438 1.378906 -1.566406 1.546875 -1.171875 C 1.722656 -0.785156 1.992188 -0.59375 2.359375 -0.59375 Z M 2.359375 -0.59375 "/></g></g></g><g fill="#2d6d5e" fill-opacity="1"><g transform="translate(47.920929, 126.499996)"><g><path d="M 1.515625 0 L 0.046875 -5.859375 L 0.890625 -5.859375 L 1.6875 -2.296875 C 1.738281 -2.085938 1.785156 -1.867188 1.828125 -1.640625 C 1.867188 -1.421875 1.90625 -1.1875 1.9375 -0.9375 L 1.984375 -0.9375 C 2.003906 -1.082031 2.03125 -1.25 2.0625 -1.4375 C 2.101562 -1.632812 2.148438 -1.851562 2.203125 -2.09375 L 3.078125 -5.859375 L 3.921875 -5.859375 L 2.421875 0 Z M 1.515625 0 "/></g></g></g><g fill="#2d6d5e" fill-opacity="1"><g transform="translate(53.412526, 126.499996)"><g><path d="M 2.28125 -5.96875 C 2.820312 -5.96875 3.207031 -5.796875 3.4375 -5.453125 C 3.675781 -5.109375 3.796875 -4.609375 3.796875 -3.953125 L 3.796875 0 L 3.171875 0 L 3.046875 -0.828125 L 3.015625 -0.828125 C 2.929688 -0.628906 2.820312 -0.457031 2.6875 -0.3125 C 2.5625 -0.175781 2.414062 -0.0703125 2.25 0 C 2.09375 0.0703125 1.90625 0.109375 1.6875 0.109375 C 1.382812 0.109375 1.132812 0.03125 0.9375 -0.125 C 0.75 -0.289062 0.609375 -0.503906 0.515625 -0.765625 C 0.421875 -1.023438 0.375 -1.304688 0.375 -1.609375 C 0.375 -2.191406 0.539062 -2.640625 0.875 -2.953125 C 1.21875 -3.273438 1.695312 -3.453125 2.3125 -3.484375 L 2.96875 -3.53125 L 2.96875 -3.9375 C 2.96875 -4.40625 2.90625 -4.742188 2.78125 -4.953125 C 2.65625 -5.171875 2.445312 -5.28125 2.15625 -5.28125 C 2 -5.28125 1.828125 -5.25 1.640625 -5.1875 C 1.460938 -5.132812 1.269531 -5.046875 1.0625 -4.921875 L 0.796875 -5.546875 C 1.015625 -5.691406 1.25 -5.796875 1.5 -5.859375 C 1.757812 -5.929688 2.019531 -5.96875 2.28125 -5.96875 Z M 2.984375 -2.921875 L 2.4375 -2.890625 C 2.03125 -2.867188 1.722656 -2.753906 1.515625 -2.546875 C 1.316406 -2.335938 1.21875 -2.035156 1.21875 -1.640625 C 1.21875 -1.265625 1.28125 -0.988281 1.40625 -0.8125 C 1.539062 -0.644531 1.722656 -0.5625 1.953125 -0.5625 C 2.285156 -0.5625 2.539062 -0.71875 2.71875 -1.03125 C 2.894531 -1.34375 2.984375 -1.773438 2.984375 -2.328125 Z M 2.984375 -2.921875 "/></g></g></g><g fill="#2d6d5e" fill-opacity="1"><g transform="translate(59.438365, 126.499996)"><g><path d="M 2.828125 -5.96875 C 3.285156 -5.96875 3.632812 -5.804688 3.875 -5.484375 C 4.113281 -5.160156 4.234375 -4.664062 4.234375 -4 L 4.234375 0 L 3.40625 0 L 3.40625 -3.828125 C 3.40625 -4.304688 3.34375 -4.660156 3.21875 -4.890625 C 3.101562 -5.128906 2.914062 -5.25 2.65625 -5.25 C 2.269531 -5.25 1.984375 -5.078125 1.796875 -4.734375 C 1.617188 -4.390625 1.53125 -3.84375 1.53125 -3.09375 L 1.53125 0 L 0.71875 0 L 0.71875 -5.859375 L 1.375 -5.859375 L 1.46875 -5.015625 L 1.515625 -5.015625 C 1.597656 -5.210938 1.703125 -5.378906 1.828125 -5.515625 C 1.960938 -5.660156 2.113281 -5.769531 2.28125 -5.84375 C 2.445312 -5.925781 2.628906 -5.96875 2.828125 -5.96875 Z M 2.828125 -5.96875 "/></g></g></g><g fill="#2d6d5e" fill-opacity="1"><g transform="translate(65.902284, 126.499996)"><g><path d="M 2.40625 0.109375 C 1.976562 0.109375 1.617188 0 1.328125 -0.21875 C 1.046875 -0.445312 0.832031 -0.785156 0.6875 -1.234375 C 0.539062 -1.679688 0.46875 -2.234375 0.46875 -2.890625 C 0.46875 -3.535156 0.539062 -4.085938 0.6875 -4.546875 C 0.832031 -5.003906 1.050781 -5.351562 1.34375 -5.59375 C 1.632812 -5.84375 2 -5.96875 2.4375 -5.96875 C 2.65625 -5.96875 2.851562 -5.941406 3.03125 -5.890625 C 3.207031 -5.847656 3.375 -5.785156 3.53125 -5.703125 L 3.265625 -5.03125 C 3.140625 -5.09375 3.007812 -5.140625 2.875 -5.171875 C 2.75 -5.210938 2.625 -5.234375 2.5 -5.234375 C 2.238281 -5.234375 2.019531 -5.144531 1.84375 -4.96875 C 1.675781 -4.789062 1.546875 -4.53125 1.453125 -4.1875 C 1.359375 -3.84375 1.3125 -3.414062 1.3125 -2.90625 C 1.3125 -2.394531 1.351562 -1.96875 1.4375 -1.625 C 1.53125 -1.289062 1.664062 -1.035156 1.84375 -0.859375 C 2.019531 -0.691406 2.238281 -0.609375 2.5 -0.609375 C 2.65625 -0.609375 2.8125 -0.628906 2.96875 -0.671875 C 3.132812 -0.722656 3.300781 -0.789062 3.46875 -0.875 L 3.46875 -0.1875 C 3.3125 -0.09375 3.132812 -0.0195312 2.9375 0.03125 C 2.75 0.0820312 2.570312 0.109375 2.40625 0.109375 Z M 2.40625 0.109375 "/></g></g></g><g fill="#2d6d5e" fill-opacity="1"><g transform="translate(71.190869, 126.499996)"><g><path d="M 2.328125 -5.953125 C 2.722656 -5.953125 3.050781 -5.835938 3.3125 -5.609375 C 3.570312 -5.378906 3.765625 -5.066406 3.890625 -4.671875 C 4.015625 -4.285156 4.078125 -3.851562 4.078125 -3.375 L 4.078125 -2.78125 L 1.28125 -2.78125 C 1.289062 -2.050781 1.40625 -1.503906 1.625 -1.140625 C 1.84375 -0.773438 2.171875 -0.59375 2.609375 -0.59375 C 2.828125 -0.59375 3.035156 -0.625 3.234375 -0.6875 C 3.441406 -0.75 3.648438 -0.851562 3.859375 -1 L 3.859375 -0.265625 C 3.660156 -0.140625 3.453125 -0.046875 3.234375 0.015625 C 3.015625 0.078125 2.78125 0.109375 2.53125 0.109375 C 2.039062 0.109375 1.644531 -0.0195312 1.34375 -0.28125 C 1.039062 -0.539062 0.816406 -0.898438 0.671875 -1.359375 C 0.535156 -1.816406 0.46875 -2.332031 0.46875 -2.90625 C 0.46875 -3.550781 0.535156 -4.101562 0.671875 -4.5625 C 0.816406 -5.019531 1.023438 -5.363281 1.296875 -5.59375 C 1.578125 -5.832031 1.921875 -5.953125 2.328125 -5.953125 Z M 2.328125 -5.28125 C 2.015625 -5.28125 1.769531 -5.128906 1.59375 -4.828125 C 1.425781 -4.535156 1.328125 -4.070312 1.296875 -3.4375 L 3.3125 -3.4375 C 3.3125 -3.769531 3.273438 -4.078125 3.203125 -4.359375 C 3.140625 -4.640625 3.035156 -4.863281 2.890625 -5.03125 C 2.742188 -5.195312 2.554688 -5.28125 2.328125 -5.28125 Z M 2.328125 -5.28125 "/></g></g></g><g fill="#2d6d5e" fill-opacity="1"><g transform="translate(77.248763, 126.499996)"><g><path d="M 2.171875 0.109375 C 1.609375 0.109375 1.179688 -0.144531 0.890625 -0.65625 C 0.609375 -1.175781 0.46875 -1.929688 0.46875 -2.921875 C 0.46875 -3.898438 0.613281 -4.648438 0.90625 -5.171875 C 1.195312 -5.703125 1.609375 -5.96875 2.140625 -5.96875 C 2.335938 -5.96875 2.519531 -5.929688 2.6875 -5.859375 C 2.851562 -5.785156 3 -5.679688 3.125 -5.546875 C 3.257812 -5.410156 3.375 -5.25 3.46875 -5.0625 L 3.515625 -5.0625 C 3.503906 -5.226562 3.492188 -5.375 3.484375 -5.5 C 3.484375 -5.632812 3.484375 -5.757812 3.484375 -5.875 L 3.484375 -8.3125 L 4.296875 -8.3125 L 4.296875 0 L 3.640625 0 L 3.53125 -0.796875 L 3.484375 -0.796875 C 3.378906 -0.609375 3.265625 -0.445312 3.140625 -0.3125 C 3.015625 -0.175781 2.875 -0.0703125 2.71875 0 C 2.5625 0.0703125 2.378906 0.109375 2.171875 0.109375 Z M 2.359375 -0.59375 C 2.722656 -0.59375 3 -0.765625 3.1875 -1.109375 C 3.382812 -1.453125 3.484375 -1.960938 3.484375 -2.640625 L 3.484375 -3.046875 C 3.484375 -3.785156 3.390625 -4.332031 3.203125 -4.6875 C 3.023438 -5.050781 2.738281 -5.234375 2.34375 -5.234375 C 1.988281 -5.234375 1.722656 -5.035156 1.546875 -4.640625 C 1.378906 -4.242188 1.296875 -3.671875 1.296875 -2.921875 C 1.296875 -2.148438 1.378906 -1.566406 1.546875 -1.171875 C 1.722656 -0.785156 1.992188 -0.59375 2.359375 -0.59375 Z M 2.359375 -0.59375 "/></g></g></g><g fill="#2d6d5e" fill-opacity="1"><g transform="translate(83.787476, 126.499996)"><g/></g></g><g fill="#2d6d5e" fill-opacity="1"><g transform="translate(87.350455, 126.499996)"><g><path d="M 1.53125 -8.3125 L 1.53125 -5.859375 C 1.53125 -5.742188 1.523438 -5.613281 1.515625 -5.46875 C 1.515625 -5.332031 1.515625 -5.1875 1.515625 -5.03125 L 1.546875 -5.03125 C 1.691406 -5.34375 1.875 -5.570312 2.09375 -5.71875 C 2.3125 -5.875 2.5625 -5.953125 2.84375 -5.953125 C 3.40625 -5.953125 3.832031 -5.695312 4.125 -5.1875 C 4.414062 -4.675781 4.5625 -3.925781 4.5625 -2.9375 C 4.5625 -2.28125 4.492188 -1.722656 4.359375 -1.265625 C 4.234375 -0.816406 4.039062 -0.472656 3.78125 -0.234375 C 3.53125 -0.00390625 3.226562 0.109375 2.875 0.109375 C 2.582031 0.109375 2.328125 0.0351562 2.109375 -0.109375 C 1.890625 -0.253906 1.703125 -0.476562 1.546875 -0.78125 L 1.5 -0.78125 L 1.390625 0 L 0.71875 0 L 0.71875 -8.3125 Z M 2.671875 -5.234375 C 2.367188 -5.234375 2.132812 -5.140625 1.96875 -4.953125 C 1.8125 -4.765625 1.695312 -4.503906 1.625 -4.171875 C 1.5625 -3.835938 1.53125 -3.457031 1.53125 -3.03125 L 1.53125 -2.78125 C 1.53125 -2.039062 1.625 -1.492188 1.8125 -1.140625 C 2.007812 -0.785156 2.296875 -0.609375 2.671875 -0.609375 C 3.023438 -0.609375 3.285156 -0.796875 3.453125 -1.171875 C 3.628906 -1.554688 3.71875 -2.148438 3.71875 -2.953125 C 3.71875 -3.703125 3.632812 -4.269531 3.46875 -4.65625 C 3.300781 -5.039062 3.035156 -5.234375 2.671875 -5.234375 Z M 2.671875 -5.234375 "/></g></g></g><g fill="#2d6d5e" fill-opacity="1"><g transform="translate(93.889168, 126.499996)"><g><path d="M 2.671875 -5.96875 C 2.753906 -5.96875 2.835938 -5.957031 2.921875 -5.9375 C 3.003906 -5.925781 3.085938 -5.910156 3.171875 -5.890625 L 3.046875 -5.046875 C 2.984375 -5.066406 2.914062 -5.082031 2.84375 -5.09375 C 2.769531 -5.101562 2.691406 -5.109375 2.609375 -5.109375 C 2.453125 -5.109375 2.304688 -5.054688 2.171875 -4.953125 C 2.035156 -4.847656 1.921875 -4.703125 1.828125 -4.515625 C 1.734375 -4.328125 1.660156 -4.109375 1.609375 -3.859375 C 1.554688 -3.609375 1.53125 -3.34375 1.53125 -3.0625 L 1.53125 0 L 0.71875 0 L 0.71875 -5.859375 L 1.359375 -5.859375 L 1.46875 -4.828125 L 1.515625 -4.828125 C 1.597656 -5.046875 1.691406 -5.238281 1.796875 -5.40625 C 1.910156 -5.582031 2.039062 -5.71875 2.1875 -5.8125 C 2.332031 -5.914062 2.492188 -5.96875 2.671875 -5.96875 Z M 2.671875 -5.96875 "/></g></g></g><g fill="#2d6d5e" fill-opacity="1"><g transform="translate(98.702276, 126.499996)"><g><path d="M 2.328125 -5.953125 C 2.722656 -5.953125 3.050781 -5.835938 3.3125 -5.609375 C 3.570312 -5.378906 3.765625 -5.066406 3.890625 -4.671875 C 4.015625 -4.285156 4.078125 -3.851562 4.078125 -3.375 L 4.078125 -2.78125 L 1.28125 -2.78125 C 1.289062 -2.050781 1.40625 -1.503906 1.625 -1.140625 C 1.84375 -0.773438 2.171875 -0.59375 2.609375 -0.59375 C 2.828125 -0.59375 3.035156 -0.625 3.234375 -0.6875 C 3.441406 -0.75 3.648438 -0.851562 3.859375 -1 L 3.859375 -0.265625 C 3.660156 -0.140625 3.453125 -0.046875 3.234375 0.015625 C 3.015625 0.078125 2.78125 0.109375 2.53125 0.109375 C 2.039062 0.109375 1.644531 -0.0195312 1.34375 -0.28125 C 1.039062 -0.539062 0.816406 -0.898438 0.671875 -1.359375 C 0.535156 -1.816406 0.46875 -2.332031 0.46875 -2.90625 C 0.46875 -3.550781 0.535156 -4.101562 0.671875 -4.5625 C 0.816406 -5.019531 1.023438 -5.363281 1.296875 -5.59375 C 1.578125 -5.832031 1.921875 -5.953125 2.328125 -5.953125 Z M 2.328125 -5.28125 C 2.015625 -5.28125 1.769531 -5.128906 1.59375 -4.828125 C 1.425781 -4.535156 1.328125 -4.070312 1.296875 -3.4375 L 3.3125 -3.4375 C 3.3125 -3.769531 3.273438 -4.078125 3.203125 -4.359375 C 3.140625 -4.640625 3.035156 -4.863281 2.890625 -5.03125 C 2.742188 -5.195312 2.554688 -5.28125 2.328125 -5.28125 Z M 2.328125 -5.28125 "/></g></g></g><g fill="#2d6d5e" fill-opacity="1"><g transform="translate(104.760171, 126.499996)"><g><path d="M 2.28125 -5.96875 C 2.820312 -5.96875 3.207031 -5.796875 3.4375 -5.453125 C 3.675781 -5.109375 3.796875 -4.609375 3.796875 -3.953125 L 3.796875 0 L 3.171875 0 L 3.046875 -0.828125 L 3.015625 -0.828125 C 2.929688 -0.628906 2.820312 -0.457031 2.6875 -0.3125 C 2.5625 -0.175781 2.414062 -0.0703125 2.25 0 C 2.09375 0.0703125 1.90625 0.109375 1.6875 0.109375 C 1.382812 0.109375 1.132812 0.03125 0.9375 -0.125 C 0.75 -0.289062 0.609375 -0.503906 0.515625 -0.765625 C 0.421875 -1.023438 0.375 -1.304688 0.375 -1.609375 C 0.375 -2.191406 0.539062 -2.640625 0.875 -2.953125 C 1.21875 -3.273438 1.695312 -3.453125 2.3125 -3.484375 L 2.96875 -3.53125 L 2.96875 -3.9375 C 2.96875 -4.40625 2.90625 -4.742188 2.78125 -4.953125 C 2.65625 -5.171875 2.445312 -5.28125 2.15625 -5.28125 C 2 -5.28125 1.828125 -5.25 1.640625 -5.1875 C 1.460938 -5.132812 1.269531 -5.046875 1.0625 -4.921875 L 0.796875 -5.546875 C 1.015625 -5.691406 1.25 -5.796875 1.5 -5.859375 C 1.757812 -5.929688 2.019531 -5.96875 2.28125 -5.96875 Z M 2.984375 -2.921875 L 2.4375 -2.890625 C 2.03125 -2.867188 1.722656 -2.753906 1.515625 -2.546875 C 1.316406 -2.335938 1.21875 -2.035156 1.21875 -1.640625 C 1.21875 -1.265625 1.28125 -0.988281 1.40625 -0.8125 C 1.539062 -0.644531 1.722656 -0.5625 1.953125 -0.5625 C 2.285156 -0.5625 2.539062 -0.71875 2.71875 -1.03125 C 2.894531 -1.34375 2.984375 -1.773438 2.984375 -2.328125 Z M 2.984375 -2.921875 "/></g></g></g><g fill="#2d6d5e" fill-opacity="1"><g transform="translate(110.78601, 126.499996)"><g><path d="M 2.09375 -0.625 C 2.1875 -0.625 2.273438 -0.628906 2.359375 -0.640625 C 2.453125 -0.660156 2.535156 -0.691406 2.609375 -0.734375 L 2.609375 -0.0625 C 2.503906 -0.0078125 2.382812 0.03125 2.25 0.0625 C 2.125 0.09375 1.984375 0.109375 1.828125 0.109375 C 1.578125 0.109375 1.367188 0.0507812 1.203125 -0.0625 C 1.046875 -0.175781 0.925781 -0.34375 0.84375 -0.5625 C 0.769531 -0.789062 0.734375 -1.078125 0.734375 -1.421875 L 0.734375 -5.171875 L 0.1875 -5.171875 L 0.1875 -5.625 L 0.78125 -5.84375 L 1 -7.1875 L 1.5625 -7.1875 L 1.5625 -5.859375 L 2.546875 -5.859375 L 2.546875 -5.171875 L 1.5625 -5.171875 L 1.5625 -1.515625 C 1.5625 -1.210938 1.597656 -0.988281 1.671875 -0.84375 C 1.742188 -0.695312 1.882812 -0.625 2.09375 -0.625 Z M 2.09375 -0.625 "/></g></g></g><g fill="#2d6d5e" fill-opacity="1"><g transform="translate(115.091588, 126.499996)"><g><path d="M 1.53125 -8.3125 L 1.53125 -5.890625 C 1.53125 -5.734375 1.523438 -5.582031 1.515625 -5.4375 C 1.515625 -5.300781 1.503906 -5.164062 1.484375 -5.03125 L 1.53125 -5.03125 C 1.601562 -5.226562 1.703125 -5.394531 1.828125 -5.53125 C 1.960938 -5.664062 2.113281 -5.769531 2.28125 -5.84375 C 2.445312 -5.925781 2.625 -5.96875 2.8125 -5.96875 C 3.144531 -5.96875 3.414062 -5.890625 3.625 -5.734375 C 3.832031 -5.585938 3.984375 -5.367188 4.078125 -5.078125 C 4.179688 -4.785156 4.234375 -4.421875 4.234375 -3.984375 L 4.234375 0 L 3.40625 0 L 3.40625 -3.828125 C 3.40625 -4.328125 3.34375 -4.6875 3.21875 -4.90625 C 3.101562 -5.125 2.910156 -5.234375 2.640625 -5.234375 C 2.390625 -5.234375 2.179688 -5.15625 2.015625 -5 C 1.859375 -4.851562 1.738281 -4.617188 1.65625 -4.296875 C 1.570312 -3.972656 1.53125 -3.566406 1.53125 -3.078125 L 1.53125 0 L 0.71875 0 L 0.71875 -8.3125 Z M 1.53125 -8.3125 "/></g></g></g><g fill="#2d6d5e" fill-opacity="1"><g transform="translate(15.834522, 139.190968)"><g><path d="M 2.40625 0.109375 C 1.976562 0.109375 1.617188 0 1.328125 -0.21875 C 1.046875 -0.445312 0.832031 -0.785156 0.6875 -1.234375 C 0.539062 -1.679688 0.46875 -2.234375 0.46875 -2.890625 C 0.46875 -3.535156 0.539062 -4.085938 0.6875 -4.546875 C 0.832031 -5.003906 1.050781 -5.351562 1.34375 -5.59375 C 1.632812 -5.84375 2 -5.96875 2.4375 -5.96875 C 2.65625 -5.96875 2.851562 -5.941406 3.03125 -5.890625 C 3.207031 -5.847656 3.375 -5.785156 3.53125 -5.703125 L 3.265625 -5.03125 C 3.140625 -5.09375 3.007812 -5.140625 2.875 -5.171875 C 2.75 -5.210938 2.625 -5.234375 2.5 -5.234375 C 2.238281 -5.234375 2.019531 -5.144531 1.84375 -4.96875 C 1.675781 -4.789062 1.546875 -4.53125 1.453125 -4.1875 C 1.359375 -3.84375 1.3125 -3.414062 1.3125 -2.90625 C 1.3125 -2.394531 1.351562 -1.96875 1.4375 -1.625 C 1.53125 -1.289062 1.664062 -1.035156 1.84375 -0.859375 C 2.019531 -0.691406 2.238281 -0.609375 2.5 -0.609375 C 2.65625 -0.609375 2.8125 -0.628906 2.96875 -0.671875 C 3.132812 -0.722656 3.300781 -0.789062 3.46875 -0.875 L 3.46875 -0.1875 C 3.3125 -0.09375 3.132812 -0.0195312 2.9375 0.03125 C 2.75 0.0820312 2.570312 0.109375 2.40625 0.109375 Z M 2.40625 0.109375 "/></g></g></g><g fill="#2d6d5e" fill-opacity="1"><g transform="translate(21.123106, 139.190968)"><g><path d="M 4.359375 -2.9375 C 4.359375 -2.476562 4.316406 -2.0625 4.234375 -1.6875 C 4.160156 -1.3125 4.039062 -0.988281 3.875 -0.71875 C 3.71875 -0.457031 3.515625 -0.253906 3.265625 -0.109375 C 3.023438 0.0351562 2.734375 0.109375 2.390625 0.109375 C 2.078125 0.109375 1.796875 0.0351562 1.546875 -0.109375 C 1.304688 -0.253906 1.101562 -0.457031 0.9375 -0.71875 C 0.78125 -0.976562 0.660156 -1.296875 0.578125 -1.671875 C 0.503906 -2.054688 0.46875 -2.476562 0.46875 -2.9375 C 0.46875 -3.582031 0.535156 -4.128906 0.671875 -4.578125 C 0.804688 -5.035156 1.019531 -5.378906 1.3125 -5.609375 C 1.601562 -5.847656 1.96875 -5.96875 2.40625 -5.96875 C 2.820312 -5.96875 3.175781 -5.851562 3.46875 -5.625 C 3.757812 -5.394531 3.976562 -5.054688 4.125 -4.609375 C 4.28125 -4.160156 4.359375 -3.601562 4.359375 -2.9375 Z M 1.296875 -2.9375 C 1.296875 -2.425781 1.332031 -2 1.40625 -1.65625 C 1.488281 -1.3125 1.613281 -1.050781 1.78125 -0.875 C 1.945312 -0.695312 2.160156 -0.609375 2.421875 -0.609375 C 2.671875 -0.609375 2.875 -0.691406 3.03125 -0.859375 C 3.195312 -1.035156 3.316406 -1.296875 3.390625 -1.640625 C 3.472656 -1.984375 3.515625 -2.414062 3.515625 -2.9375 C 3.515625 -3.445312 3.472656 -3.875 3.390625 -4.21875 C 3.316406 -4.5625 3.195312 -4.816406 3.03125 -4.984375 C 2.875 -5.160156 2.664062 -5.25 2.40625 -5.25 C 2.019531 -5.25 1.738281 -5.054688 1.5625 -4.671875 C 1.382812 -4.285156 1.296875 -3.707031 1.296875 -2.9375 Z M 1.296875 -2.9375 "/></g></g></g><g fill="#2d6d5e" fill-opacity="1"><g transform="translate(27.474834, 139.190968)"><g><path d="M 2.828125 -5.96875 C 3.285156 -5.96875 3.632812 -5.804688 3.875 -5.484375 C 4.113281 -5.160156 4.234375 -4.664062 4.234375 -4 L 4.234375 0 L 3.40625 0 L 3.40625 -3.828125 C 3.40625 -4.304688 3.34375 -4.660156 3.21875 -4.890625 C 3.101562 -5.128906 2.914062 -5.25 2.65625 -5.25 C 2.269531 -5.25 1.984375 -5.078125 1.796875 -4.734375 C 1.617188 -4.390625 1.53125 -3.84375 1.53125 -3.09375 L 1.53125 0 L 0.71875 0 L 0.71875 -5.859375 L 1.375 -5.859375 L 1.46875 -5.015625 L 1.515625 -5.015625 C 1.597656 -5.210938 1.703125 -5.378906 1.828125 -5.515625 C 1.960938 -5.660156 2.113281 -5.769531 2.28125 -5.84375 C 2.445312 -5.925781 2.628906 -5.96875 2.828125 -5.96875 Z M 2.828125 -5.96875 "/></g></g></g><g fill="#2d6d5e" fill-opacity="1"><g transform="translate(33.938753, 139.190968)"><g><path d="M 2.09375 -0.625 C 2.1875 -0.625 2.273438 -0.628906 2.359375 -0.640625 C 2.453125 -0.660156 2.535156 -0.691406 2.609375 -0.734375 L 2.609375 -0.0625 C 2.503906 -0.0078125 2.382812 0.03125 2.25 0.0625 C 2.125 0.09375 1.984375 0.109375 1.828125 0.109375 C 1.578125 0.109375 1.367188 0.0507812 1.203125 -0.0625 C 1.046875 -0.175781 0.925781 -0.34375 0.84375 -0.5625 C 0.769531 -0.789062 0.734375 -1.078125 0.734375 -1.421875 L 0.734375 -5.171875 L 0.1875 -5.171875 L 0.1875 -5.625 L 0.78125 -5.84375 L 1 -7.1875 L 1.5625 -7.1875 L 1.5625 -5.859375 L 2.546875 -5.859375 L 2.546875 -5.171875 L 1.5625 -5.171875 L 1.5625 -1.515625 C 1.5625 -1.210938 1.597656 -0.988281 1.671875 -0.84375 C 1.742188 -0.695312 1.882812 -0.625 2.09375 -0.625 Z M 2.09375 -0.625 "/></g></g></g><g fill="#2d6d5e" fill-opacity="1"><g transform="translate(38.24433, 139.190968)"><g><path d="M 2.671875 -5.96875 C 2.753906 -5.96875 2.835938 -5.957031 2.921875 -5.9375 C 3.003906 -5.925781 3.085938 -5.910156 3.171875 -5.890625 L 3.046875 -5.046875 C 2.984375 -5.066406 2.914062 -5.082031 2.84375 -5.09375 C 2.769531 -5.101562 2.691406 -5.109375 2.609375 -5.109375 C 2.453125 -5.109375 2.304688 -5.054688 2.171875 -4.953125 C 2.035156 -4.847656 1.921875 -4.703125 1.828125 -4.515625 C 1.734375 -4.328125 1.660156 -4.109375 1.609375 -3.859375 C 1.554688 -3.609375 1.53125 -3.34375 1.53125 -3.0625 L 1.53125 0 L 0.71875 0 L 0.71875 -5.859375 L 1.359375 -5.859375 L 1.46875 -4.828125 L 1.515625 -4.828125 C 1.597656 -5.046875 1.691406 -5.238281 1.796875 -5.40625 C 1.910156 -5.582031 2.039062 -5.71875 2.1875 -5.8125 C 2.332031 -5.914062 2.492188 -5.96875 2.671875 -5.96875 Z M 2.671875 -5.96875 "/></g></g></g><g fill="#2d6d5e" fill-opacity="1"><g transform="translate(43.057438, 139.190968)"><g><path d="M 4.359375 -2.9375 C 4.359375 -2.476562 4.316406 -2.0625 4.234375 -1.6875 C 4.160156 -1.3125 4.039062 -0.988281 3.875 -0.71875 C 3.71875 -0.457031 3.515625 -0.253906 3.265625 -0.109375 C 3.023438 0.0351562 2.734375 0.109375 2.390625 0.109375 C 2.078125 0.109375 1.796875 0.0351562 1.546875 -0.109375 C 1.304688 -0.253906 1.101562 -0.457031 0.9375 -0.71875 C 0.78125 -0.976562 0.660156 -1.296875 0.578125 -1.671875 C 0.503906 -2.054688 0.46875 -2.476562 0.46875 -2.9375 C 0.46875 -3.582031 0.535156 -4.128906 0.671875 -4.578125 C 0.804688 -5.035156 1.019531 -5.378906 1.3125 -5.609375 C 1.601562 -5.847656 1.96875 -5.96875 2.40625 -5.96875 C 2.820312 -5.96875 3.175781 -5.851562 3.46875 -5.625 C 3.757812 -5.394531 3.976562 -5.054688 4.125 -4.609375 C 4.28125 -4.160156 4.359375 -3.601562 4.359375 -2.9375 Z M 1.296875 -2.9375 C 1.296875 -2.425781 1.332031 -2 1.40625 -1.65625 C 1.488281 -1.3125 1.613281 -1.050781 1.78125 -0.875 C 1.945312 -0.695312 2.160156 -0.609375 2.421875 -0.609375 C 2.671875 -0.609375 2.875 -0.691406 3.03125 -0.859375 C 3.195312 -1.035156 3.316406 -1.296875 3.390625 -1.640625 C 3.472656 -1.984375 3.515625 -2.414062 3.515625 -2.9375 C 3.515625 -3.445312 3.472656 -3.875 3.390625 -4.21875 C 3.316406 -4.5625 3.195312 -4.816406 3.03125 -4.984375 C 2.875 -5.160156 2.664062 -5.25 2.40625 -5.25 C 2.019531 -5.25 1.738281 -5.054688 1.5625 -4.671875 C 1.382812 -4.285156 1.296875 -3.707031 1.296875 -2.9375 Z M 1.296875 -2.9375 "/></g></g></g><g fill="#2d6d5e" fill-opacity="1"><g transform="translate(49.409166, 139.190968)"><g><path d="M 1.53125 0 L 0.71875 0 L 0.71875 -8.3125 L 1.53125 -8.3125 Z M 1.53125 0 "/></g></g></g><g fill="#2d6d5e" fill-opacity="1"><g transform="translate(53.185843, 139.190968)"><g/></g></g><g fill="#2d6d5e" fill-opacity="1"><g transform="translate(56.748822, 139.190968)"><g><path d="M 4.21875 -5.859375 L 4.21875 0 L 3.5625 0 L 3.46875 -0.828125 L 3.40625 -0.828125 C 3.332031 -0.640625 3.226562 -0.472656 3.09375 -0.328125 C 2.96875 -0.191406 2.820312 -0.0820312 2.65625 0 C 2.5 0.0703125 2.316406 0.109375 2.109375 0.109375 C 1.773438 0.109375 1.503906 0.0234375 1.296875 -0.140625 C 1.085938 -0.316406 0.929688 -0.5625 0.828125 -0.875 C 0.734375 -1.195312 0.6875 -1.578125 0.6875 -2.015625 L 0.6875 -5.859375 L 1.515625 -5.859375 L 1.515625 -2.171875 C 1.515625 -1.640625 1.578125 -1.25 1.703125 -1 C 1.828125 -0.75 2.015625 -0.625 2.265625 -0.625 C 2.535156 -0.625 2.753906 -0.695312 2.921875 -0.84375 C 3.085938 -1 3.207031 -1.234375 3.28125 -1.546875 C 3.351562 -1.859375 3.390625 -2.25 3.390625 -2.71875 L 3.390625 -5.859375 Z M 4.21875 -5.859375 "/></g></g></g><g fill="#2d6d5e" fill-opacity="1"><g transform="translate(63.212741, 139.190968)"><g><path d="M 2.828125 -5.96875 C 3.285156 -5.96875 3.632812 -5.804688 3.875 -5.484375 C 4.113281 -5.160156 4.234375 -4.664062 4.234375 -4 L 4.234375 0 L 3.40625 0 L 3.40625 -3.828125 C 3.40625 -4.304688 3.34375 -4.660156 3.21875 -4.890625 C 3.101562 -5.128906 2.914062 -5.25 2.65625 -5.25 C 2.269531 -5.25 1.984375 -5.078125 1.796875 -4.734375 C 1.617188 -4.390625 1.53125 -3.84375 1.53125 -3.09375 L 1.53125 0 L 0.71875 0 L 0.71875 -5.859375 L 1.375 -5.859375 L 1.46875 -5.015625 L 1.515625 -5.015625 C 1.597656 -5.210938 1.703125 -5.378906 1.828125 -5.515625 C 1.960938 -5.660156 2.113281 -5.769531 2.28125 -5.84375 C 2.445312 -5.925781 2.628906 -5.96875 2.828125 -5.96875 Z M 2.828125 -5.96875 "/></g></g></g><g fill="#2d6d5e" fill-opacity="1"><g transform="translate(69.67666, 139.190968)"><g><path d="M 2.171875 0.109375 C 1.609375 0.109375 1.179688 -0.144531 0.890625 -0.65625 C 0.609375 -1.175781 0.46875 -1.929688 0.46875 -2.921875 C 0.46875 -3.898438 0.613281 -4.648438 0.90625 -5.171875 C 1.195312 -5.703125 1.609375 -5.96875 2.140625 -5.96875 C 2.335938 -5.96875 2.519531 -5.929688 2.6875 -5.859375 C 2.851562 -5.785156 3 -5.679688 3.125 -5.546875 C 3.257812 -5.410156 3.375 -5.25 3.46875 -5.0625 L 3.515625 -5.0625 C 3.503906 -5.226562 3.492188 -5.375 3.484375 -5.5 C 3.484375 -5.632812 3.484375 -5.757812 3.484375 -5.875 L 3.484375 -8.3125 L 4.296875 -8.3125 L 4.296875 0 L 3.640625 0 L 3.53125 -0.796875 L 3.484375 -0.796875 C 3.378906 -0.609375 3.265625 -0.445312 3.140625 -0.3125 C 3.015625 -0.175781 2.875 -0.0703125 2.71875 0 C 2.5625 0.0703125 2.378906 0.109375 2.171875 0.109375 Z M 2.359375 -0.59375 C 2.722656 -0.59375 3 -0.765625 3.1875 -1.109375 C 3.382812 -1.453125 3.484375 -1.960938 3.484375 -2.640625 L 3.484375 -3.046875 C 3.484375 -3.785156 3.390625 -4.332031 3.203125 -4.6875 C 3.023438 -5.050781 2.738281 -5.234375 2.34375 -5.234375 C 1.988281 -5.234375 1.722656 -5.035156 1.546875 -4.640625 C 1.378906 -4.242188 1.296875 -3.671875 1.296875 -2.921875 C 1.296875 -2.148438 1.378906 -1.566406 1.546875 -1.171875 C 1.722656 -0.785156 1.992188 -0.59375 2.359375 -0.59375 Z M 2.359375 -0.59375 "/></g></g></g><g fill="#2d6d5e" fill-opacity="1"><g transform="translate(76.215373, 139.190968)"><g><path d="M 2.328125 -5.953125 C 2.722656 -5.953125 3.050781 -5.835938 3.3125 -5.609375 C 3.570312 -5.378906 3.765625 -5.066406 3.890625 -4.671875 C 4.015625 -4.285156 4.078125 -3.851562 4.078125 -3.375 L 4.078125 -2.78125 L 1.28125 -2.78125 C 1.289062 -2.050781 1.40625 -1.503906 1.625 -1.140625 C 1.84375 -0.773438 2.171875 -0.59375 2.609375 -0.59375 C 2.828125 -0.59375 3.035156 -0.625 3.234375 -0.6875 C 3.441406 -0.75 3.648438 -0.851562 3.859375 -1 L 3.859375 -0.265625 C 3.660156 -0.140625 3.453125 -0.046875 3.234375 0.015625 C 3.015625 0.078125 2.78125 0.109375 2.53125 0.109375 C 2.039062 0.109375 1.644531 -0.0195312 1.34375 -0.28125 C 1.039062 -0.539062 0.816406 -0.898438 0.671875 -1.359375 C 0.535156 -1.816406 0.46875 -2.332031 0.46875 -2.90625 C 0.46875 -3.550781 0.535156 -4.101562 0.671875 -4.5625 C 0.816406 -5.019531 1.023438 -5.363281 1.296875 -5.59375 C 1.578125 -5.832031 1.921875 -5.953125 2.328125 -5.953125 Z M 2.328125 -5.28125 C 2.015625 -5.28125 1.769531 -5.128906 1.59375 -4.828125 C 1.425781 -4.535156 1.328125 -4.070312 1.296875 -3.4375 L 3.3125 -3.4375 C 3.3125 -3.769531 3.273438 -4.078125 3.203125 -4.359375 C 3.140625 -4.640625 3.035156 -4.863281 2.890625 -5.03125 C 2.742188 -5.195312 2.554688 -5.28125 2.328125 -5.28125 Z M 2.328125 -5.28125 "/></g></g></g><g fill="#2d6d5e" fill-opacity="1"><g transform="translate(82.273267, 139.190968)"><g><path d="M 2.671875 -5.96875 C 2.753906 -5.96875 2.835938 -5.957031 2.921875 -5.9375 C 3.003906 -5.925781 3.085938 -5.910156 3.171875 -5.890625 L 3.046875 -5.046875 C 2.984375 -5.066406 2.914062 -5.082031 2.84375 -5.09375 C 2.769531 -5.101562 2.691406 -5.109375 2.609375 -5.109375 C 2.453125 -5.109375 2.304688 -5.054688 2.171875 -4.953125 C 2.035156 -4.847656 1.921875 -4.703125 1.828125 -4.515625 C 1.734375 -4.328125 1.660156 -4.109375 1.609375 -3.859375 C 1.554688 -3.609375 1.53125 -3.34375 1.53125 -3.0625 L 1.53125 0 L 0.71875 0 L 0.71875 -5.859375 L 1.359375 -5.859375 L 1.46875 -4.828125 L 1.515625 -4.828125 C 1.597656 -5.046875 1.691406 -5.238281 1.796875 -5.40625 C 1.910156 -5.582031 2.039062 -5.71875 2.1875 -5.8125 C 2.332031 -5.914062 2.492188 -5.96875 2.671875 -5.96875 Z M 2.671875 -5.96875 "/></g></g></g><g fill="#2d6d5e" fill-opacity="1"><g transform="translate(87.086375, 139.190968)"><g/></g></g><g fill="#2d6d5e" fill-opacity="1"><g transform="translate(90.649355, 139.190968)"><g><path d="M 2.328125 -5.953125 C 2.722656 -5.953125 3.050781 -5.835938 3.3125 -5.609375 C 3.570312 -5.378906 3.765625 -5.066406 3.890625 -4.671875 C 4.015625 -4.285156 4.078125 -3.851562 4.078125 -3.375 L 4.078125 -2.78125 L 1.28125 -2.78125 C 1.289062 -2.050781 1.40625 -1.503906 1.625 -1.140625 C 1.84375 -0.773438 2.171875 -0.59375 2.609375 -0.59375 C 2.828125 -0.59375 3.035156 -0.625 3.234375 -0.6875 C 3.441406 -0.75 3.648438 -0.851562 3.859375 -1 L 3.859375 -0.265625 C 3.660156 -0.140625 3.453125 -0.046875 3.234375 0.015625 C 3.015625 0.078125 2.78125 0.109375 2.53125 0.109375 C 2.039062 0.109375 1.644531 -0.0195312 1.34375 -0.28125 C 1.039062 -0.539062 0.816406 -0.898438 0.671875 -1.359375 C 0.535156 -1.816406 0.46875 -2.332031 0.46875 -2.90625 C 0.46875 -3.550781 0.535156 -4.101562 0.671875 -4.5625 C 0.816406 -5.019531 1.023438 -5.363281 1.296875 -5.59375 C 1.578125 -5.832031 1.921875 -5.953125 2.328125 -5.953125 Z M 2.328125 -5.28125 C 2.015625 -5.28125 1.769531 -5.128906 1.59375 -4.828125 C 1.425781 -4.535156 1.328125 -4.070312 1.296875 -3.4375 L 3.3125 -3.4375 C 3.3125 -3.769531 3.273438 -4.078125 3.203125 -4.359375 C 3.140625 -4.640625 3.035156 -4.863281 2.890625 -5.03125 C 2.742188 -5.195312 2.554688 -5.28125 2.328125 -5.28125 Z M 2.328125 -5.28125 "/></g></g></g><g fill="#2d6d5e" fill-opacity="1"><g transform="translate(96.707249, 139.190968)"><g><path d="M 2.5625 -5.171875 L 1.640625 -5.171875 L 1.640625 0 L 0.8125 0 L 0.8125 -5.171875 L 0.09375 -5.171875 L 0.09375 -5.609375 L 0.8125 -5.890625 L 0.8125 -6.28125 C 0.8125 -6.726562 0.847656 -7.101562 0.921875 -7.40625 C 1.003906 -7.71875 1.140625 -7.957031 1.328125 -8.125 C 1.523438 -8.289062 1.789062 -8.375 2.125 -8.375 C 2.28125 -8.375 2.421875 -8.359375 2.546875 -8.328125 C 2.679688 -8.296875 2.820312 -8.253906 2.96875 -8.203125 L 2.75 -7.53125 C 2.65625 -7.570312 2.5625 -7.597656 2.46875 -7.609375 C 2.382812 -7.628906 2.300781 -7.640625 2.21875 -7.640625 C 2 -7.640625 1.847656 -7.539062 1.765625 -7.34375 C 1.679688 -7.15625 1.640625 -6.8125 1.640625 -6.3125 L 1.640625 -5.859375 L 2.5625 -5.859375 Z M 2.5625 -5.171875 "/></g></g></g><g fill="#2d6d5e" fill-opacity="1"><g transform="translate(100.959402, 139.190968)"><g><path d="M 2.5625 -5.171875 L 1.640625 -5.171875 L 1.640625 0 L 0.8125 0 L 0.8125 -5.171875 L 0.09375 -5.171875 L 0.09375 -5.609375 L 0.8125 -5.890625 L 0.8125 -6.28125 C 0.8125 -6.726562 0.847656 -7.101562 0.921875 -7.40625 C 1.003906 -7.71875 1.140625 -7.957031 1.328125 -8.125 C 1.523438 -8.289062 1.789062 -8.375 2.125 -8.375 C 2.28125 -8.375 2.421875 -8.359375 2.546875 -8.328125 C 2.679688 -8.296875 2.820312 -8.253906 2.96875 -8.203125 L 2.75 -7.53125 C 2.65625 -7.570312 2.5625 -7.597656 2.46875 -7.609375 C 2.382812 -7.628906 2.300781 -7.640625 2.21875 -7.640625 C 2 -7.640625 1.847656 -7.539062 1.765625 -7.34375 C 1.679688 -7.15625 1.640625 -6.8125 1.640625 -6.3125 L 1.640625 -5.859375 L 2.5625 -5.859375 Z M 2.5625 -5.171875 "/></g></g></g><g fill="#2d6d5e" fill-opacity="1"><g transform="translate(105.211555, 139.190968)"><g><path d="M 4.359375 -2.9375 C 4.359375 -2.476562 4.316406 -2.0625 4.234375 -1.6875 C 4.160156 -1.3125 4.039062 -0.988281 3.875 -0.71875 C 3.71875 -0.457031 3.515625 -0.253906 3.265625 -0.109375 C 3.023438 0.0351562 2.734375 0.109375 2.390625 0.109375 C 2.078125 0.109375 1.796875 0.0351562 1.546875 -0.109375 C 1.304688 -0.253906 1.101562 -0.457031 0.9375 -0.71875 C 0.78125 -0.976562 0.660156 -1.296875 0.578125 -1.671875 C 0.503906 -2.054688 0.46875 -2.476562 0.46875 -2.9375 C 0.46875 -3.582031 0.535156 -4.128906 0.671875 -4.578125 C 0.804688 -5.035156 1.019531 -5.378906 1.3125 -5.609375 C 1.601562 -5.847656 1.96875 -5.96875 2.40625 -5.96875 C 2.820312 -5.96875 3.175781 -5.851562 3.46875 -5.625 C 3.757812 -5.394531 3.976562 -5.054688 4.125 -4.609375 C 4.28125 -4.160156 4.359375 -3.601562 4.359375 -2.9375 Z M 1.296875 -2.9375 C 1.296875 -2.425781 1.332031 -2 1.40625 -1.65625 C 1.488281 -1.3125 1.613281 -1.050781 1.78125 -0.875 C 1.945312 -0.695312 2.160156 -0.609375 2.421875 -0.609375 C 2.671875 -0.609375 2.875 -0.691406 3.03125 -0.859375 C 3.195312 -1.035156 3.316406 -1.296875 3.390625 -1.640625 C 3.472656 -1.984375 3.515625 -2.414062 3.515625 -2.9375 C 3.515625 -3.445312 3.472656 -3.875 3.390625 -4.21875 C 3.316406 -4.5625 3.195312 -4.816406 3.03125 -4.984375 C 2.875 -5.160156 2.664062 -5.25 2.40625 -5.25 C 2.019531 -5.25 1.738281 -5.054688 1.5625 -4.671875 C 1.382812 -4.285156 1.296875 -3.707031 1.296875 -2.9375 Z M 1.296875 -2.9375 "/></g></g></g><g fill="#2d6d5e" fill-opacity="1"><g transform="translate(111.563283, 139.190968)"><g><path d="M 2.671875 -5.96875 C 2.753906 -5.96875 2.835938 -5.957031 2.921875 -5.9375 C 3.003906 -5.925781 3.085938 -5.910156 3.171875 -5.890625 L 3.046875 -5.046875 C 2.984375 -5.066406 2.914062 -5.082031 2.84375 -5.09375 C 2.769531 -5.101562 2.691406 -5.109375 2.609375 -5.109375 C 2.453125 -5.109375 2.304688 -5.054688 2.171875 -4.953125 C 2.035156 -4.847656 1.921875 -4.703125 1.828125 -4.515625 C 1.734375 -4.328125 1.660156 -4.109375 1.609375 -3.859375 C 1.554688 -3.609375 1.53125 -3.34375 1.53125 -3.0625 L 1.53125 0 L 0.71875 0 L 0.71875 -5.859375 L 1.359375 -5.859375 L 1.46875 -4.828125 L 1.515625 -4.828125 C 1.597656 -5.046875 1.691406 -5.238281 1.796875 -5.40625 C 1.910156 -5.582031 2.039062 -5.71875 2.1875 -5.8125 C 2.332031 -5.914062 2.492188 -5.96875 2.671875 -5.96875 Z M 2.671875 -5.96875 "/></g></g></g><g fill="#2d6d5e" fill-opacity="1"><g transform="translate(116.376391, 139.190968)"><g><path d="M 2.09375 -0.625 C 2.1875 -0.625 2.273438 -0.628906 2.359375 -0.640625 C 2.453125 -0.660156 2.535156 -0.691406 2.609375 -0.734375 L 2.609375 -0.0625 C 2.503906 -0.0078125 2.382812 0.03125 2.25 0.0625 C 2.125 0.09375 1.984375 0.109375 1.828125 0.109375 C 1.578125 0.109375 1.367188 0.0507812 1.203125 -0.0625 C 1.046875 -0.175781 0.925781 -0.34375 0.84375 -0.5625 C 0.769531 -0.789062 0.734375 -1.078125 0.734375 -1.421875 L 0.734375 -5.171875 L 0.1875 -5.171875 L 0.1875 -5.625 L 0.78125 -5.84375 L 1 -7.1875 L 1.5625 -7.1875 L 1.5625 -5.859375 L 2.546875 -5.859375 L 2.546875 -5.171875 L 1.5625 -5.171875 L 1.5625 -1.515625 C 1.5625 -1.210938 1.597656 -0.988281 1.671875 -0.84375 C 1.742188 -0.695312 1.882812 -0.625 2.09375 -0.625 Z M 2.09375 -0.625 "/></g></g></g><g fill="#0661aa" fill-opacity="1"><g transform="translate(56.702734, 109.056677)"><g><path d="M 0.59375 0 L 0.59375 -7.015625 L 3.125 -7.015625 C 3.582031 -7.015625 3.984375 -6.925781 4.328125 -6.75 C 4.679688 -6.570312 4.957031 -6.320312 5.15625 -6 C 5.363281 -5.6875 5.46875 -5.320312 5.46875 -4.90625 C 5.46875 -4.5 5.363281 -4.132812 5.15625 -3.8125 C 4.957031 -3.5 4.679688 -3.253906 4.328125 -3.078125 C 3.984375 -2.898438 3.582031 -2.8125 3.125 -2.8125 L 1.40625 -2.8125 L 1.40625 0 Z M 1.40625 -3.546875 L 3.0625 -3.546875 C 3.519531 -3.546875 3.894531 -3.671875 4.1875 -3.921875 C 4.488281 -4.179688 4.640625 -4.507812 4.640625 -4.90625 C 4.640625 -5.3125 4.492188 -5.640625 4.203125 -5.890625 C 3.910156 -6.148438 3.53125 -6.28125 3.0625 -6.28125 L 1.40625 -6.28125 Z M 1.40625 -3.546875 "/></g></g></g><g fill="#0661aa" fill-opacity="1"><g transform="translate(63.538721, 109.056677)"><g><path d="M 5.109375 0.1875 C 4.847656 0.1875 4.640625 0.113281 4.484375 -0.03125 C 4.335938 -0.1875 4.226562 -0.378906 4.15625 -0.609375 L 3.75 -2.109375 C 3.6875 -2.378906 3.5625 -2.59375 3.375 -2.75 C 3.195312 -2.914062 2.992188 -3 2.765625 -3 L 1.421875 -3 L 1.421875 0 L 0.59375 0 L 0.59375 -7.015625 L 3.3125 -7.015625 C 3.769531 -7.015625 4.171875 -6.925781 4.515625 -6.75 C 4.867188 -6.582031 5.144531 -6.347656 5.34375 -6.046875 C 5.539062 -5.742188 5.640625 -5.390625 5.640625 -4.984375 C 5.640625 -4.535156 5.484375 -4.132812 5.171875 -3.78125 C 4.867188 -3.4375 4.445312 -3.21875 3.90625 -3.125 L 3.90625 -3.109375 C 4.09375 -3.015625 4.238281 -2.890625 4.34375 -2.734375 C 4.457031 -2.578125 4.539062 -2.394531 4.59375 -2.1875 L 4.921875 -0.921875 C 4.953125 -0.796875 4.992188 -0.691406 5.046875 -0.609375 C 5.097656 -0.535156 5.175781 -0.5 5.28125 -0.5 C 5.457031 -0.5 5.617188 -0.640625 5.765625 -0.921875 L 6.1875 -0.421875 C 6.0625 -0.234375 5.90625 -0.0859375 5.71875 0.015625 C 5.53125 0.128906 5.328125 0.1875 5.109375 0.1875 Z M 1.421875 -3.734375 L 3.28125 -3.734375 C 3.726562 -3.734375 4.09375 -3.847656 4.375 -4.078125 C 4.664062 -4.316406 4.8125 -4.625 4.8125 -5 C 4.8125 -5.382812 4.664062 -5.691406 4.375 -5.921875 C 4.09375 -6.160156 3.726562 -6.28125 3.28125 -6.28125 L 1.421875 -6.28125 Z M 1.421875 -3.734375 "/></g></g></g><g fill="#0661aa" fill-opacity="1"><g transform="translate(70.902047, 109.056677)"><g><path d="M 3.6875 0.21875 C 3.019531 0.21875 2.429688 0.0664062 1.921875 -0.234375 C 1.421875 -0.546875 1.03125 -0.976562 0.75 -1.53125 C 0.476562 -2.09375 0.34375 -2.75 0.34375 -3.5 C 0.34375 -4.257812 0.476562 -4.914062 0.75 -5.46875 C 1.03125 -6.03125 1.421875 -6.460938 1.921875 -6.765625 C 2.429688 -7.078125 3.019531 -7.234375 3.6875 -7.234375 C 4.363281 -7.234375 4.953125 -7.078125 5.453125 -6.765625 C 5.953125 -6.460938 6.335938 -6.03125 6.609375 -5.46875 C 6.890625 -4.914062 7.03125 -4.265625 7.03125 -3.515625 C 7.03125 -2.753906 6.890625 -2.09375 6.609375 -1.53125 C 6.335938 -0.976562 5.953125 -0.546875 5.453125 -0.234375 C 4.953125 0.0664062 4.363281 0.21875 3.6875 0.21875 Z M 3.6875 -0.53125 C 4.195312 -0.53125 4.640625 -0.648438 5.015625 -0.890625 C 5.390625 -1.140625 5.679688 -1.488281 5.890625 -1.9375 C 6.097656 -2.382812 6.203125 -2.90625 6.203125 -3.5 C 6.203125 -4.101562 6.097656 -4.628906 5.890625 -5.078125 C 5.679688 -5.523438 5.390625 -5.875 5.015625 -6.125 C 4.640625 -6.375 4.195312 -6.5 3.6875 -6.5 C 3.1875 -6.5 2.742188 -6.375 2.359375 -6.125 C 1.984375 -5.875 1.691406 -5.523438 1.484375 -5.078125 C 1.273438 -4.628906 1.171875 -4.101562 1.171875 -3.5 C 1.171875 -2.90625 1.273438 -2.382812 1.484375 -1.9375 C 1.691406 -1.488281 1.984375 -1.140625 2.359375 -0.890625 C 2.742188 -0.648438 3.1875 -0.53125 3.6875 -0.53125 Z M 3.6875 -0.53125 "/></g></g></g></svg>