<svg xmlns="http://www.w3.org/2000/svg" xmlns:xlink="http://www.w3.org/1999/xlink" width="180" zoomAndPan="magnify" viewBox="0 0 135 161.249994" height="215" preserveAspectRatio="xMidYMid meet" version="1.2"><defs><clipPath id="653873dc5d"><path d="M 35.5 22.046875 L 99.699219 22.046875 L 99.699219 63 L 35.5 63 Z M 35.5 22.046875 "/></clipPath></defs><g id="8ebc4cc161"><g style="fill:#0661aa;fill-opacity:1;"><g transform="translate(13.314839, 82.139038)"><path style="stroke:none" d="M 4.046875 0 L 4.046875 -11.265625 L 0.296875 -11.265625 L 0.296875 -14.171875 L 11.1875 -14.171875 L 11.1875 -11.265625 L 7.4375 -11.265625 L 7.4375 0 Z M 4.046875 0 "/></g></g><g style="fill:#0661aa;fill-opacity:1;"><g transform="translate(27.145958, 82.139038)"><path style="stroke:none" d="M 6.25 -10.46875 C 7.082031 -10.46875 7.75 -10.15625 8.25 -9.53125 C 8.757812 -8.90625 9.039062 -8.023438 9.09375 -6.890625 L 6.53125 -6.1875 C 6.519531 -6.851562 6.398438 -7.351562 6.171875 -7.6875 C 5.941406 -8.03125 5.644531 -8.203125 5.28125 -8.203125 C 4.820312 -8.203125 4.457031 -7.972656 4.1875 -7.515625 C 3.914062 -7.066406 3.78125 -6.445312 3.78125 -5.65625 L 3.78125 0 L 0.75 0 L 0.75 -10.1875 L 3.203125 -10.1875 L 3.625 -8.4375 L 3.640625 -8.4375 C 3.867188 -9.070312 4.210938 -9.566406 4.671875 -9.921875 C 5.140625 -10.285156 5.664062 -10.46875 6.25 -10.46875 Z M 6.25 -10.46875 "/></g></g><g style="fill:#0661aa;fill-opacity:1;"><g transform="translate(38.867728, 82.139038)"><path style="stroke:none" d="M 5.953125 0.34375 C 4.847656 0.34375 3.878906 0.117188 3.046875 -0.328125 C 2.210938 -0.785156 1.566406 -1.425781 1.109375 -2.25 C 0.648438 -3.082031 0.421875 -4.050781 0.421875 -5.15625 C 0.421875 -6.238281 0.628906 -7.179688 1.046875 -7.984375 C 1.460938 -8.796875 2.046875 -9.425781 2.796875 -9.875 C 3.554688 -10.320312 4.445312 -10.546875 5.46875 -10.546875 C 6.457031 -10.546875 7.304688 -10.328125 8.015625 -9.890625 C 8.734375 -9.460938 9.296875 -8.859375 9.703125 -8.078125 C 10.109375 -7.304688 10.3125 -6.398438 10.3125 -5.359375 C 10.3125 -5.140625 10.300781 -4.929688 10.28125 -4.734375 C 10.257812 -4.546875 10.226562 -4.390625 10.1875 -4.265625 L 3.46875 -4.265625 C 3.53125 -3.515625 3.785156 -2.921875 4.234375 -2.484375 C 4.691406 -2.054688 5.269531 -1.84375 5.96875 -1.84375 C 6.507812 -1.84375 6.988281 -1.972656 7.40625 -2.234375 C 7.832031 -2.503906 8.148438 -2.875 8.359375 -3.34375 L 10.484375 -2.40625 C 10.191406 -1.5625 9.628906 -0.890625 8.796875 -0.390625 C 7.960938 0.0976562 7.015625 0.34375 5.953125 0.34375 Z M 3.46875 -5.984375 L 7.28125 -5.984375 C 7.238281 -6.734375 7.054688 -7.3125 6.734375 -7.71875 C 6.421875 -8.132812 5.992188 -8.34375 5.453125 -8.34375 C 4.878906 -8.34375 4.421875 -8.132812 4.078125 -7.71875 C 3.734375 -7.300781 3.53125 -6.722656 3.46875 -5.984375 Z M 3.46875 -5.984375 "/></g></g><g style="fill:#0661aa;fill-opacity:1;"><g transform="translate(52.081961, 82.139038)"><path style="stroke:none" d="M 2.34375 -11.578125 C 1.800781 -11.578125 1.367188 -11.738281 1.046875 -12.0625 C 0.722656 -12.382812 0.5625 -12.800781 0.5625 -13.3125 C 0.5625 -13.84375 0.722656 -14.265625 1.046875 -14.578125 C 1.367188 -14.898438 1.800781 -15.0625 2.34375 -15.0625 C 2.894531 -15.0625 3.332031 -14.898438 3.65625 -14.578125 C 3.976562 -14.265625 4.140625 -13.84375 4.140625 -13.3125 C 4.140625 -12.800781 3.976562 -12.382812 3.65625 -12.0625 C 3.332031 -11.738281 2.894531 -11.578125 2.34375 -11.578125 Z M 0.8125 0 L 0.8125 -10.1875 L 3.859375 -10.1875 L 3.859375 0 Z M 0.8125 0 "/></g></g><g style="fill:#0661aa;fill-opacity:1;"><g transform="translate(59.127328, 82.139038)"><path style="stroke:none" d="M 6.953125 -10.453125 C 7.890625 -10.453125 8.628906 -10.171875 9.171875 -9.609375 C 9.722656 -9.046875 10 -8.257812 10 -7.25 L 10 0 L 6.953125 0 L 6.953125 -6.46875 C 6.953125 -6.945312 6.832031 -7.316406 6.59375 -7.578125 C 6.351562 -7.847656 6.019531 -7.984375 5.59375 -7.984375 C 5.050781 -7.984375 4.613281 -7.804688 4.28125 -7.453125 C 3.945312 -7.097656 3.78125 -6.609375 3.78125 -5.984375 L 3.78125 0 L 0.75 0 L 0.75 -10.1875 L 3.265625 -10.1875 L 3.6875 -8.453125 L 3.703125 -8.453125 C 4.003906 -9.097656 4.441406 -9.59375 5.015625 -9.9375 C 5.585938 -10.28125 6.234375 -10.453125 6.953125 -10.453125 Z M 6.953125 -10.453125 "/></g></g><g style="fill:#0661aa;fill-opacity:1;"><g transform="translate(72.162459, 82.139038)"><path style="stroke:none" d="M 5.59375 0.34375 C 4.539062 0.34375 3.625 0.117188 2.84375 -0.328125 C 2.070312 -0.773438 1.472656 -1.40625 1.046875 -2.21875 C 0.628906 -3.03125 0.421875 -3.988281 0.421875 -5.09375 C 0.421875 -6.207031 0.628906 -7.171875 1.046875 -7.984375 C 1.472656 -8.804688 2.070312 -9.4375 2.84375 -9.875 C 3.625 -10.320312 4.539062 -10.546875 5.59375 -10.546875 C 6.644531 -10.546875 7.550781 -10.320312 8.3125 -9.875 C 9.082031 -9.4375 9.679688 -8.804688 10.109375 -7.984375 C 10.535156 -7.171875 10.75 -6.207031 10.75 -5.09375 C 10.75 -3.988281 10.535156 -3.03125 10.109375 -2.21875 C 9.679688 -1.40625 9.082031 -0.773438 8.3125 -0.328125 C 7.550781 0.117188 6.644531 0.34375 5.59375 0.34375 Z M 5.59375 -2.203125 C 6.257812 -2.203125 6.78125 -2.457031 7.15625 -2.96875 C 7.53125 -3.488281 7.71875 -4.195312 7.71875 -5.09375 C 7.71875 -6 7.53125 -6.707031 7.15625 -7.21875 C 6.78125 -7.726562 6.257812 -7.984375 5.59375 -7.984375 C 4.925781 -7.984375 4.398438 -7.726562 4.015625 -7.21875 C 3.628906 -6.707031 3.4375 -6 3.4375 -5.09375 C 3.4375 -4.195312 3.628906 -3.488281 4.015625 -2.96875 C 4.398438 -2.457031 4.925781 -2.203125 5.59375 -2.203125 Z M 5.59375 -2.203125 "/></g></g><g style="fill:#0661aa;fill-opacity:1;"><g transform="translate(85.695085, 82.139038)"><path style="stroke:none" d=""/></g></g><g style="fill:#0661aa;fill-opacity:1;"><g transform="translate(91.745472, 82.139038)"><path style="stroke:none" d="M 5.953125 0.34375 C 4.847656 0.34375 3.878906 0.117188 3.046875 -0.328125 C 2.210938 -0.785156 1.566406 -1.425781 1.109375 -2.25 C 0.648438 -3.082031 0.421875 -4.050781 0.421875 -5.15625 C 0.421875 -6.238281 0.628906 -7.179688 1.046875 -7.984375 C 1.460938 -8.796875 2.046875 -9.425781 2.796875 -9.875 C 3.554688 -10.320312 4.445312 -10.546875 5.46875 -10.546875 C 6.457031 -10.546875 7.304688 -10.328125 8.015625 -9.890625 C 8.734375 -9.460938 9.296875 -8.859375 9.703125 -8.078125 C 10.109375 -7.304688 10.3125 -6.398438 10.3125 -5.359375 C 10.3125 -5.140625 10.300781 -4.929688 10.28125 -4.734375 C 10.257812 -4.546875 10.226562 -4.390625 10.1875 -4.265625 L 3.46875 -4.265625 C 3.53125 -3.515625 3.785156 -2.921875 4.234375 -2.484375 C 4.691406 -2.054688 5.269531 -1.84375 5.96875 -1.84375 C 6.507812 -1.84375 6.988281 -1.972656 7.40625 -2.234375 C 7.832031 -2.503906 8.148438 -2.875 8.359375 -3.34375 L 10.484375 -2.40625 C 10.191406 -1.5625 9.628906 -0.890625 8.796875 -0.390625 C 7.960938 0.0976562 7.015625 0.34375 5.953125 0.34375 Z M 3.46875 -5.984375 L 7.28125 -5.984375 C 7.238281 -6.734375 7.054688 -7.3125 6.734375 -7.71875 C 6.421875 -8.132812 5.992188 -8.34375 5.453125 -8.34375 C 4.878906 -8.34375 4.421875 -8.132812 4.078125 -7.71875 C 3.734375 -7.300781 3.53125 -6.722656 3.46875 -5.984375 Z M 3.46875 -5.984375 "/></g></g><g style="fill:#0661aa;fill-opacity:1;"><g transform="translate(104.959706, 82.139038)"><path style="stroke:none" d="M 0.75 0 L 0.75 -10.1875 L 3.1875 -10.1875 L 3.609375 -8.359375 L 3.625 -8.359375 C 3.882812 -9.023438 4.300781 -9.539062 4.875 -9.90625 C 5.445312 -10.28125 6.09375 -10.46875 6.8125 -10.46875 C 7.550781 -10.46875 8.164062 -10.28125 8.65625 -9.90625 C 9.144531 -9.539062 9.5 -9.015625 9.71875 -8.328125 L 9.734375 -8.328125 C 10.066406 -9.023438 10.523438 -9.554688 11.109375 -9.921875 C 11.691406 -10.285156 12.34375 -10.46875 13.0625 -10.46875 C 14 -10.46875 14.726562 -10.164062 15.25 -9.5625 C 15.769531 -8.957031 16.03125 -8.117188 16.03125 -7.046875 L 16.03125 0 L 12.984375 0 L 12.984375 -6.40625 C 12.984375 -6.875 12.863281 -7.238281 12.625 -7.5 C 12.382812 -7.757812 12.046875 -7.890625 11.609375 -7.890625 C 11.078125 -7.890625 10.660156 -7.703125 10.359375 -7.328125 C 10.054688 -6.953125 9.90625 -6.445312 9.90625 -5.8125 L 9.90625 0 L 6.875 0 L 6.875 -6.40625 C 6.875 -6.875 6.753906 -7.238281 6.515625 -7.5 C 6.273438 -7.757812 5.9375 -7.890625 5.5 -7.890625 C 4.96875 -7.890625 4.546875 -7.703125 4.234375 -7.328125 C 3.929688 -6.953125 3.78125 -6.445312 3.78125 -5.8125 L 3.78125 0 Z M 0.75 0 "/></g></g><g style="fill:#0661aa;fill-opacity:1;"><g transform="translate(22.529791, 106.027925)"><path style="stroke:none" d="M 0.09375 0 L 4.640625 -14.171875 L 8.859375 -14.171875 L 13.390625 0 L 9.90625 0 L 9.109375 -2.78125 L 4.359375 -2.78125 L 3.546875 0 Z M 4.875 -5.203125 L 8.578125 -5.203125 L 6.78125 -11.421875 L 6.75 -11.421875 Z M 4.875 -5.203125 "/></g></g><g style="fill:#0661aa;fill-opacity:1;"><g transform="translate(38.370768, 106.027925)"><path style="stroke:none" d="M 0.75 0 L 0.75 -14.765625 L 3.78125 -14.765625 L 3.78125 0 Z M 0.75 0 "/></g></g><g style="fill:#0661aa;fill-opacity:1;"><g transform="translate(45.256944, 106.027925)"><path style="stroke:none" d="M 5.453125 0.3125 C 4.285156 0.3125 3.382812 -0.00390625 2.75 -0.640625 C 2.125 -1.273438 1.8125 -2.132812 1.8125 -3.21875 L 1.796875 -7.890625 L 0.078125 -7.890625 L 0.078125 -10.1875 L 1.8125 -10.1875 L 1.8125 -12.90625 L 4.84375 -13.578125 L 4.84375 -10.1875 L 8.328125 -10.1875 L 8.328125 -7.890625 L 4.84375 -7.890625 L 4.859375 -3.765625 C 4.859375 -3.253906 4.976562 -2.859375 5.21875 -2.578125 C 5.457031 -2.296875 5.773438 -2.15625 6.171875 -2.15625 C 6.929688 -2.15625 7.484375 -2.570312 7.828125 -3.40625 L 8.8125 -1.546875 C 8.5 -0.953125 8.046875 -0.492188 7.453125 -0.171875 C 6.859375 0.148438 6.191406 0.3125 5.453125 0.3125 Z M 5.453125 0.3125 "/></g></g><g style="fill:#0661aa;fill-opacity:1;"><g transform="translate(56.56082, 106.027925)"><path style="stroke:none" d="M 2.34375 -11.578125 C 1.800781 -11.578125 1.367188 -11.738281 1.046875 -12.0625 C 0.722656 -12.382812 0.5625 -12.800781 0.5625 -13.3125 C 0.5625 -13.84375 0.722656 -14.265625 1.046875 -14.578125 C 1.367188 -14.898438 1.800781 -15.0625 2.34375 -15.0625 C 2.894531 -15.0625 3.332031 -14.898438 3.65625 -14.578125 C 3.976562 -14.265625 4.140625 -13.84375 4.140625 -13.3125 C 4.140625 -12.800781 3.976562 -12.382812 3.65625 -12.0625 C 3.332031 -11.738281 2.894531 -11.578125 2.34375 -11.578125 Z M 0.8125 0 L 0.8125 -10.1875 L 3.859375 -10.1875 L 3.859375 0 Z M 0.8125 0 "/></g></g><g style="fill:#0661aa;fill-opacity:1;"><g transform="translate(63.606187, 106.027925)"><path style="stroke:none" d="M 5.453125 0.3125 C 4.285156 0.3125 3.382812 -0.00390625 2.75 -0.640625 C 2.125 -1.273438 1.8125 -2.132812 1.8125 -3.21875 L 1.796875 -7.890625 L 0.078125 -7.890625 L 0.078125 -10.1875 L 1.8125 -10.1875 L 1.8125 -12.90625 L 4.84375 -13.578125 L 4.84375 -10.1875 L 8.328125 -10.1875 L 8.328125 -7.890625 L 4.84375 -7.890625 L 4.859375 -3.765625 C 4.859375 -3.253906 4.976562 -2.859375 5.21875 -2.578125 C 5.457031 -2.296875 5.773438 -2.15625 6.171875 -2.15625 C 6.929688 -2.15625 7.484375 -2.570312 7.828125 -3.40625 L 8.8125 -1.546875 C 8.5 -0.953125 8.046875 -0.492188 7.453125 -0.171875 C 6.859375 0.148438 6.191406 0.3125 5.453125 0.3125 Z M 5.453125 0.3125 "/></g></g><g style="fill:#0661aa;fill-opacity:1;"><g transform="translate(74.910062, 106.027925)"><path style="stroke:none" d="M 3.75 0.265625 C 2.8125 0.265625 2.066406 -0.015625 1.515625 -0.578125 C 0.972656 -1.148438 0.703125 -1.941406 0.703125 -2.953125 L 0.703125 -10.1875 L 3.75 -10.1875 L 3.75 -3.71875 C 3.75 -3.238281 3.867188 -2.863281 4.109375 -2.59375 C 4.359375 -2.332031 4.6875 -2.203125 5.09375 -2.203125 C 5.632812 -2.203125 6.070312 -2.378906 6.40625 -2.734375 C 6.738281 -3.097656 6.90625 -3.585938 6.90625 -4.203125 L 6.90625 -10.1875 L 9.9375 -10.1875 L 9.9375 0 L 7.421875 0 L 7 -1.734375 L 6.984375 -1.734375 C 6.679688 -1.097656 6.242188 -0.601562 5.671875 -0.25 C 5.097656 0.09375 4.457031 0.265625 3.75 0.265625 Z M 3.75 0.265625 "/></g></g><g style="fill:#0661aa;fill-opacity:1;"><g transform="translate(87.945193, 106.027925)"><path style="stroke:none" d="M 4.4375 0.28125 C 3.625 0.28125 2.914062 0.0625 2.3125 -0.375 C 1.707031 -0.8125 1.238281 -1.4375 0.90625 -2.25 C 0.582031 -3.0625 0.421875 -4.007812 0.421875 -5.09375 C 0.421875 -6.195312 0.582031 -7.148438 0.90625 -7.953125 C 1.238281 -8.753906 1.707031 -9.375 2.3125 -9.8125 C 2.914062 -10.25 3.617188 -10.46875 4.421875 -10.46875 C 5.109375 -10.46875 5.71875 -10.296875 6.25 -9.953125 C 6.78125 -9.609375 7.191406 -9.109375 7.484375 -8.453125 L 7.5 -8.453125 L 7.5 -14.765625 L 10.546875 -14.765625 L 10.546875 0 L 7.96875 0 L 7.578125 -1.765625 L 7.5625 -1.765625 C 7.269531 -1.109375 6.851562 -0.601562 6.3125 -0.25 C 5.769531 0.101562 5.144531 0.28125 4.4375 0.28125 Z M 5.546875 -2.328125 C 6.171875 -2.328125 6.671875 -2.578125 7.046875 -3.078125 C 7.429688 -3.585938 7.625 -4.257812 7.625 -5.09375 C 7.625 -5.925781 7.429688 -6.59375 7.046875 -7.09375 C 6.671875 -7.601562 6.171875 -7.859375 5.546875 -7.859375 C 4.929688 -7.859375 4.429688 -7.601562 4.046875 -7.09375 C 3.660156 -6.59375 3.46875 -5.925781 3.46875 -5.09375 C 3.46875 -4.257812 3.660156 -3.585938 4.046875 -3.078125 C 4.429688 -2.578125 4.929688 -2.328125 5.546875 -2.328125 Z M 5.546875 -2.328125 "/></g></g><g style="fill:#0661aa;fill-opacity:1;"><g transform="translate(101.597221, 106.027925)"><path style="stroke:none" d="M 5.953125 0.34375 C 4.847656 0.34375 3.878906 0.117188 3.046875 -0.328125 C 2.210938 -0.785156 1.566406 -1.425781 1.109375 -2.25 C 0.648438 -3.082031 0.421875 -4.050781 0.421875 -5.15625 C 0.421875 -6.238281 0.628906 -7.179688 1.046875 -7.984375 C 1.460938 -8.796875 2.046875 -9.425781 2.796875 -9.875 C 3.554688 -10.320312 4.445312 -10.546875 5.46875 -10.546875 C 6.457031 -10.546875 7.304688 -10.328125 8.015625 -9.890625 C 8.734375 -9.460938 9.296875 -8.859375 9.703125 -8.078125 C 10.109375 -7.304688 10.3125 -6.398438 10.3125 -5.359375 C 10.3125 -5.140625 10.300781 -4.929688 10.28125 -4.734375 C 10.257812 -4.546875 10.226562 -4.390625 10.1875 -4.265625 L 3.46875 -4.265625 C 3.53125 -3.515625 3.785156 -2.921875 4.234375 -2.484375 C 4.691406 -2.054688 5.269531 -1.84375 5.96875 -1.84375 C 6.507812 -1.84375 6.988281 -1.972656 7.40625 -2.234375 C 7.832031 -2.503906 8.148438 -2.875 8.359375 -3.34375 L 10.484375 -2.40625 C 10.191406 -1.5625 9.628906 -0.890625 8.796875 -0.390625 C 7.960938 0.0976562 7.015625 0.34375 5.953125 0.34375 Z M 3.46875 -5.984375 L 7.28125 -5.984375 C 7.238281 -6.734375 7.054688 -7.3125 6.734375 -7.71875 C 6.421875 -8.132812 5.992188 -8.34375 5.453125 -8.34375 C 4.878906 -8.34375 4.421875 -8.132812 4.078125 -7.71875 C 3.734375 -7.300781 3.53125 -6.722656 3.46875 -5.984375 Z M 3.46875 -5.984375 "/></g></g><g clip-rule="nonzero" clip-path="url(#653873dc5d)"><path style=" stroke:none;fill-rule:nonzero;fill:#0661aa;fill-opacity:1;" d="M 35.539062 62.921875 C 39.746094 56.730469 44.160156 50.652344 48.597656 44.625 C 48.597656 44.625 48.726562 44.453125 48.726562 44.453125 C 48.726562 44.453125 48.742188 44.429688 48.742188 44.429688 C 49.09375 43.941406 49.808594 43.773438 50.339844 44.050781 C 50.542969 44.140625 50.703125 44.324219 50.859375 44.46875 C 51.25 44.820312 53.554688 47.023438 54 47.433594 C 54 47.433594 52.078125 47.695312 52.078125 47.695312 C 52.636719 46.648438 54.019531 44.09375 54.558594 43.089844 C 58.160156 36.464844 61.890625 29.730469 65.609375 23.183594 C 65.992188 22.441406 66.917969 22.046875 67.714844 22.300781 C 68.179688 22.4375 68.585938 22.78125 68.804688 23.21875 C 68.839844 23.292969 69.273438 24.074219 69.324219 24.175781 C 72.90625 30.757812 76.519531 37.527344 79.972656 44.175781 C 80.507812 45.207031 81.046875 46.234375 81.578125 47.269531 L 79.28125 47.195312 C 80.050781 46.03125 81.863281 43.296875 82.617188 42.171875 C 82.617188 42.171875 82.757812 41.960938 82.757812 41.960938 L 82.847656 41.824219 C 83.351562 41.066406 84.503906 41.03125 85.054688 41.757812 C 85.054688 41.757812 85.207031 41.972656 85.207031 41.972656 C 86.960938 44.421875 88.703125 46.894531 90.425781 49.363281 C 93.480469 53.746094 96.546875 58.203125 99.457031 62.683594 C 95.046875 57.652344 90.757812 52.464844 86.53125 47.28125 C 85.433594 45.929688 84.3125 44.546875 83.222656 43.1875 C 83.648438 43.746094 84.472656 43.632812 84.789062 43.136719 C 84.390625 43.8125 83.996094 44.492188 83.59375 45.164062 C 82.855469 46.402344 81.105469 49.335938 80.390625 50.539062 C 78.316406 46.941406 76.121094 43.066406 74.09375 39.433594 C 71.425781 34.679688 68.707031 29.722656 66.105469 24.929688 C 66.105469 24.929688 66 24.738281 66 24.738281 L 65.972656 24.6875 C 66.011719 24.753906 66.085938 24.878906 66.15625 24.949219 C 66.75 25.628906 67.890625 25.546875 68.371094 24.769531 C 68.386719 24.742188 68.414062 24.695312 68.40625 24.710938 L 68.378906 24.757812 C 64.347656 31.804688 60.171875 38.949219 55.996094 45.914062 C 55.453125 46.824219 53.882812 49.421875 53.355469 50.304688 C 52.648438 49.5625 50.636719 47.421875 49.902344 46.648438 C 49.792969 46.546875 49.257812 45.960938 49.160156 45.867188 C 49.160156 45.867188 49.140625 45.84375 49.140625 45.84375 C 49.140625 45.84375 49.132812 45.835938 49.132812 45.835938 C 49.125 45.832031 49.132812 45.835938 49.140625 45.84375 C 49.4375 46.136719 49.941406 46.171875 50.273438 45.921875 C 50.328125 45.878906 50.417969 45.800781 50.449219 45.75 C 50.449219 45.75 50.445312 45.757812 50.445312 45.757812 L 50.4375 45.765625 C 50.4375 45.765625 50.417969 45.789062 50.417969 45.789062 C 50.417969 45.789062 50.277344 45.953125 50.277344 45.953125 C 45.457031 51.671875 40.578125 57.382812 35.539062 62.921875 Z M 35.539062 62.921875 "/></g><g style="fill:#2d6d5e;fill-opacity:1;"><g transform="translate(22.051698, 132.917335)"><path style="stroke:none" d="M 2.46875 0 L 1.625 0 L 1.625 -7.03125 L 0.09375 -7.03125 L 0.09375 -7.8125 L 4 -7.8125 L 4 -7.03125 L 2.46875 -7.03125 Z M 2.46875 0 "/></g></g><g style="fill:#2d6d5e;fill-opacity:1;"><g transform="translate(27.698225, 132.917335)"><path style="stroke:none" d="M 2.671875 -5.96875 C 2.753906 -5.96875 2.835938 -5.957031 2.921875 -5.9375 C 3.003906 -5.925781 3.085938 -5.910156 3.171875 -5.890625 L 3.046875 -5.046875 C 2.984375 -5.066406 2.914062 -5.082031 2.84375 -5.09375 C 2.769531 -5.101562 2.691406 -5.109375 2.609375 -5.109375 C 2.453125 -5.109375 2.304688 -5.054688 2.171875 -4.953125 C 2.035156 -4.847656 1.921875 -4.703125 1.828125 -4.515625 C 1.734375 -4.328125 1.660156 -4.109375 1.609375 -3.859375 C 1.554688 -3.609375 1.53125 -3.34375 1.53125 -3.0625 L 1.53125 0 L 0.71875 0 L 0.71875 -5.859375 L 1.359375 -5.859375 L 1.46875 -4.828125 L 1.515625 -4.828125 C 1.597656 -5.046875 1.691406 -5.238281 1.796875 -5.40625 C 1.910156 -5.582031 2.039062 -5.71875 2.1875 -5.8125 C 2.332031 -5.914062 2.492188 -5.96875 2.671875 -5.96875 Z M 2.671875 -5.96875 "/></g></g><g style="fill:#2d6d5e;fill-opacity:1;"><g transform="translate(32.511333, 132.917335)"><path style="stroke:none" d="M 2.28125 -5.96875 C 2.820312 -5.96875 3.207031 -5.796875 3.4375 -5.453125 C 3.675781 -5.109375 3.796875 -4.609375 3.796875 -3.953125 L 3.796875 0 L 3.171875 0 L 3.046875 -0.828125 L 3.015625 -0.828125 C 2.929688 -0.628906 2.820312 -0.457031 2.6875 -0.3125 C 2.5625 -0.175781 2.414062 -0.0703125 2.25 0 C 2.09375 0.0703125 1.90625 0.109375 1.6875 0.109375 C 1.382812 0.109375 1.132812 0.03125 0.9375 -0.125 C 0.75 -0.289062 0.609375 -0.503906 0.515625 -0.765625 C 0.421875 -1.023438 0.375 -1.304688 0.375 -1.609375 C 0.375 -2.191406 0.539062 -2.640625 0.875 -2.953125 C 1.21875 -3.273438 1.695312 -3.453125 2.3125 -3.484375 L 2.96875 -3.53125 L 2.96875 -3.9375 C 2.96875 -4.40625 2.90625 -4.742188 2.78125 -4.953125 C 2.65625 -5.171875 2.445312 -5.28125 2.15625 -5.28125 C 2 -5.28125 1.828125 -5.25 1.640625 -5.1875 C 1.460938 -5.132812 1.269531 -5.046875 1.0625 -4.921875 L 0.796875 -5.546875 C 1.015625 -5.691406 1.25 -5.796875 1.5 -5.859375 C 1.757812 -5.929688 2.019531 -5.96875 2.28125 -5.96875 Z M 2.984375 -2.921875 L 2.4375 -2.890625 C 2.03125 -2.867188 1.722656 -2.753906 1.515625 -2.546875 C 1.316406 -2.335938 1.21875 -2.035156 1.21875 -1.640625 C 1.21875 -1.265625 1.28125 -0.988281 1.40625 -0.8125 C 1.539062 -0.644531 1.722656 -0.5625 1.953125 -0.5625 C 2.285156 -0.5625 2.539062 -0.71875 2.71875 -1.03125 C 2.894531 -1.34375 2.984375 -1.773438 2.984375 -2.328125 Z M 2.984375 -2.921875 "/></g></g><g style="fill:#2d6d5e;fill-opacity:1;"><g transform="translate(38.537173, 132.917335)"><path style="stroke:none" d="M 1.875 2.625 C 1.3125 2.625 0.867188 2.476562 0.546875 2.1875 C 0.234375 1.90625 0.078125 1.507812 0.078125 1 C 0.078125 0.601562 0.171875 0.273438 0.359375 0.015625 C 0.554688 -0.242188 0.804688 -0.414062 1.109375 -0.5 C 0.953125 -0.570312 0.828125 -0.675781 0.734375 -0.8125 C 0.640625 -0.957031 0.59375 -1.128906 0.59375 -1.328125 C 0.59375 -1.523438 0.640625 -1.703125 0.734375 -1.859375 C 0.828125 -2.023438 0.960938 -2.1875 1.140625 -2.34375 C 0.910156 -2.476562 0.726562 -2.691406 0.59375 -2.984375 C 0.46875 -3.285156 0.40625 -3.628906 0.40625 -4.015625 C 0.40625 -4.421875 0.46875 -4.765625 0.59375 -5.046875 C 0.726562 -5.335938 0.914062 -5.5625 1.15625 -5.71875 C 1.40625 -5.882812 1.703125 -5.96875 2.046875 -5.96875 C 2.148438 -5.96875 2.242188 -5.960938 2.328125 -5.953125 C 2.410156 -5.941406 2.484375 -5.925781 2.546875 -5.90625 C 2.609375 -5.894531 2.664062 -5.875 2.71875 -5.84375 L 4.171875 -5.84375 L 4.171875 -5.3125 L 3.375 -5.21875 C 3.476562 -5.0625 3.550781 -4.878906 3.59375 -4.671875 C 3.644531 -4.472656 3.671875 -4.265625 3.671875 -4.046875 C 3.671875 -3.453125 3.523438 -2.984375 3.234375 -2.640625 C 2.953125 -2.296875 2.550781 -2.125 2.03125 -2.125 C 1.875 -2.125 1.75 -2.140625 1.65625 -2.171875 C 1.550781 -2.078125 1.460938 -1.972656 1.390625 -1.859375 C 1.316406 -1.742188 1.28125 -1.601562 1.28125 -1.4375 C 1.28125 -1.332031 1.304688 -1.238281 1.359375 -1.15625 C 1.410156 -1.082031 1.476562 -1.023438 1.5625 -0.984375 C 1.65625 -0.941406 1.769531 -0.921875 1.90625 -0.921875 L 2.75 -0.921875 C 3.1875 -0.921875 3.523438 -0.796875 3.765625 -0.546875 C 4.003906 -0.296875 4.125 0.0859375 4.125 0.609375 C 4.125 1.242188 3.929688 1.738281 3.546875 2.09375 C 3.160156 2.445312 2.601562 2.625 1.875 2.625 Z M 1.9375 1.96875 C 2.25 1.96875 2.507812 1.921875 2.71875 1.828125 C 2.925781 1.734375 3.082031 1.585938 3.1875 1.390625 C 3.289062 1.203125 3.34375 0.96875 3.34375 0.6875 C 3.34375 0.457031 3.304688 0.28125 3.234375 0.15625 C 3.160156 0.03125 3.054688 -0.0507812 2.921875 -0.09375 C 2.785156 -0.144531 2.625 -0.171875 2.4375 -0.171875 L 1.734375 -0.171875 C 1.566406 -0.171875 1.414062 -0.132812 1.28125 -0.0625 C 1.15625 0.0078125 1.050781 0.125 0.96875 0.28125 C 0.894531 0.445312 0.859375 0.660156 0.859375 0.921875 C 0.859375 1.273438 0.953125 1.535156 1.140625 1.703125 C 1.335938 1.878906 1.601562 1.96875 1.9375 1.96875 Z M 2.046875 -2.734375 C 2.296875 -2.734375 2.488281 -2.84375 2.625 -3.0625 C 2.769531 -3.28125 2.84375 -3.601562 2.84375 -4.03125 C 2.84375 -4.476562 2.769531 -4.8125 2.625 -5.03125 C 2.476562 -5.257812 2.28125 -5.375 2.03125 -5.375 C 1.78125 -5.375 1.582031 -5.253906 1.4375 -5.015625 C 1.300781 -4.773438 1.234375 -4.441406 1.234375 -4.015625 C 1.234375 -3.609375 1.300781 -3.289062 1.4375 -3.0625 C 1.570312 -2.84375 1.773438 -2.734375 2.046875 -2.734375 Z M 2.046875 -2.734375 "/></g></g><g style="fill:#2d6d5e;fill-opacity:1;"><g transform="translate(44.290548, 132.917335)"><path style="stroke:none" d="M 2.28125 -5.96875 C 2.820312 -5.96875 3.207031 -5.796875 3.4375 -5.453125 C 3.675781 -5.109375 3.796875 -4.609375 3.796875 -3.953125 L 3.796875 0 L 3.171875 0 L 3.046875 -0.828125 L 3.015625 -0.828125 C 2.929688 -0.628906 2.820312 -0.457031 2.6875 -0.3125 C 2.5625 -0.175781 2.414062 -0.0703125 2.25 0 C 2.09375 0.0703125 1.90625 0.109375 1.6875 0.109375 C 1.382812 0.109375 1.132812 0.03125 0.9375 -0.125 C 0.75 -0.289062 0.609375 -0.503906 0.515625 -0.765625 C 0.421875 -1.023438 0.375 -1.304688 0.375 -1.609375 C 0.375 -2.191406 0.539062 -2.640625 0.875 -2.953125 C 1.21875 -3.273438 1.695312 -3.453125 2.3125 -3.484375 L 2.96875 -3.53125 L 2.96875 -3.9375 C 2.96875 -4.40625 2.90625 -4.742188 2.78125 -4.953125 C 2.65625 -5.171875 2.445312 -5.28125 2.15625 -5.28125 C 2 -5.28125 1.828125 -5.25 1.640625 -5.1875 C 1.460938 -5.132812 1.269531 -5.046875 1.0625 -4.921875 L 0.796875 -5.546875 C 1.015625 -5.691406 1.25 -5.796875 1.5 -5.859375 C 1.757812 -5.929688 2.019531 -5.96875 2.28125 -5.96875 Z M 2.984375 -2.921875 L 2.4375 -2.890625 C 2.03125 -2.867188 1.722656 -2.753906 1.515625 -2.546875 C 1.316406 -2.335938 1.21875 -2.035156 1.21875 -1.640625 C 1.21875 -1.265625 1.28125 -0.988281 1.40625 -0.8125 C 1.539062 -0.644531 1.722656 -0.5625 1.953125 -0.5625 C 2.285156 -0.5625 2.539062 -0.71875 2.71875 -1.03125 C 2.894531 -1.34375 2.984375 -1.773438 2.984375 -2.328125 Z M 2.984375 -2.921875 "/></g></g><g style="fill:#2d6d5e;fill-opacity:1;"><g transform="translate(50.316388, 132.917335)"><path style="stroke:none" d=""/></g></g><g style="fill:#2d6d5e;fill-opacity:1;"><g transform="translate(53.879368, 132.917335)"><path style="stroke:none" d="M 2.28125 -5.96875 C 2.820312 -5.96875 3.207031 -5.796875 3.4375 -5.453125 C 3.675781 -5.109375 3.796875 -4.609375 3.796875 -3.953125 L 3.796875 0 L 3.171875 0 L 3.046875 -0.828125 L 3.015625 -0.828125 C 2.929688 -0.628906 2.820312 -0.457031 2.6875 -0.3125 C 2.5625 -0.175781 2.414062 -0.0703125 2.25 0 C 2.09375 0.0703125 1.90625 0.109375 1.6875 0.109375 C 1.382812 0.109375 1.132812 0.03125 0.9375 -0.125 C 0.75 -0.289062 0.609375 -0.503906 0.515625 -0.765625 C 0.421875 -1.023438 0.375 -1.304688 0.375 -1.609375 C 0.375 -2.191406 0.539062 -2.640625 0.875 -2.953125 C 1.21875 -3.273438 1.695312 -3.453125 2.3125 -3.484375 L 2.96875 -3.53125 L 2.96875 -3.9375 C 2.96875 -4.40625 2.90625 -4.742188 2.78125 -4.953125 C 2.65625 -5.171875 2.445312 -5.28125 2.15625 -5.28125 C 2 -5.28125 1.828125 -5.25 1.640625 -5.1875 C 1.460938 -5.132812 1.269531 -5.046875 1.0625 -4.921875 L 0.796875 -5.546875 C 1.015625 -5.691406 1.25 -5.796875 1.5 -5.859375 C 1.757812 -5.929688 2.019531 -5.96875 2.28125 -5.96875 Z M 2.984375 -2.921875 L 2.4375 -2.890625 C 2.03125 -2.867188 1.722656 -2.753906 1.515625 -2.546875 C 1.316406 -2.335938 1.21875 -2.035156 1.21875 -1.640625 C 1.21875 -1.265625 1.28125 -0.988281 1.40625 -0.8125 C 1.539062 -0.644531 1.722656 -0.5625 1.953125 -0.5625 C 2.285156 -0.5625 2.539062 -0.71875 2.71875 -1.03125 C 2.894531 -1.34375 2.984375 -1.773438 2.984375 -2.328125 Z M 2.984375 -2.921875 "/></g></g><g style="fill:#2d6d5e;fill-opacity:1;"><g transform="translate(59.905207, 132.917335)"><path style="stroke:none" d=""/></g></g><g style="fill:#2d6d5e;fill-opacity:1;"><g transform="translate(63.468187, 132.917335)"><path style="stroke:none" d="M 5.3125 -5.96875 C 5.78125 -5.96875 6.125 -5.800781 6.34375 -5.46875 C 6.5625 -5.132812 6.671875 -4.628906 6.671875 -3.953125 L 6.671875 0 L 5.859375 0 L 5.859375 -3.8125 C 5.859375 -4.320312 5.789062 -4.6875 5.65625 -4.90625 C 5.53125 -5.132812 5.34375 -5.25 5.09375 -5.25 C 4.738281 -5.25 4.484375 -5.078125 4.328125 -4.734375 C 4.179688 -4.398438 4.109375 -3.921875 4.109375 -3.296875 L 4.109375 0 L 3.296875 0 L 3.296875 -3.8125 C 3.296875 -4.164062 3.265625 -4.445312 3.203125 -4.65625 C 3.148438 -4.863281 3.066406 -5.015625 2.953125 -5.109375 C 2.835938 -5.203125 2.695312 -5.25 2.53125 -5.25 C 2.257812 -5.25 2.050781 -5.15625 1.90625 -4.96875 C 1.769531 -4.789062 1.671875 -4.539062 1.609375 -4.21875 C 1.554688 -3.90625 1.53125 -3.546875 1.53125 -3.140625 L 1.53125 0 L 0.71875 0 L 0.71875 -5.859375 L 1.375 -5.859375 L 1.46875 -5.03125 L 1.515625 -5.03125 C 1.585938 -5.226562 1.679688 -5.394531 1.796875 -5.53125 C 1.921875 -5.675781 2.0625 -5.785156 2.21875 -5.859375 C 2.382812 -5.929688 2.566406 -5.96875 2.765625 -5.96875 C 3.109375 -5.96875 3.375 -5.875 3.5625 -5.6875 C 3.757812 -5.507812 3.890625 -5.28125 3.953125 -5 L 4.015625 -5 C 4.148438 -5.332031 4.316406 -5.578125 4.515625 -5.734375 C 4.722656 -5.890625 4.988281 -5.96875 5.3125 -5.96875 Z M 5.3125 -5.96875 "/></g></g><g style="fill:#2d6d5e;fill-opacity:1;"><g transform="translate(72.373596, 132.917335)"><path style="stroke:none" d="M 4.359375 -2.9375 C 4.359375 -2.476562 4.316406 -2.0625 4.234375 -1.6875 C 4.160156 -1.3125 4.039062 -0.988281 3.875 -0.71875 C 3.71875 -0.457031 3.515625 -0.253906 3.265625 -0.109375 C 3.023438 0.0351562 2.734375 0.109375 2.390625 0.109375 C 2.078125 0.109375 1.796875 0.0351562 1.546875 -0.109375 C 1.304688 -0.253906 1.101562 -0.457031 0.9375 -0.71875 C 0.78125 -0.976562 0.660156 -1.296875 0.578125 -1.671875 C 0.503906 -2.054688 0.46875 -2.476562 0.46875 -2.9375 C 0.46875 -3.582031 0.535156 -4.128906 0.671875 -4.578125 C 0.804688 -5.035156 1.019531 -5.378906 1.3125 -5.609375 C 1.601562 -5.847656 1.96875 -5.96875 2.40625 -5.96875 C 2.820312 -5.96875 3.175781 -5.851562 3.46875 -5.625 C 3.757812 -5.394531 3.976562 -5.054688 4.125 -4.609375 C 4.28125 -4.160156 4.359375 -3.601562 4.359375 -2.9375 Z M 1.296875 -2.9375 C 1.296875 -2.425781 1.332031 -2 1.40625 -1.65625 C 1.488281 -1.3125 1.613281 -1.050781 1.78125 -0.875 C 1.945312 -0.695312 2.160156 -0.609375 2.421875 -0.609375 C 2.671875 -0.609375 2.875 -0.691406 3.03125 -0.859375 C 3.195312 -1.035156 3.316406 -1.296875 3.390625 -1.640625 C 3.472656 -1.984375 3.515625 -2.414062 3.515625 -2.9375 C 3.515625 -3.445312 3.472656 -3.875 3.390625 -4.21875 C 3.316406 -4.5625 3.195312 -4.816406 3.03125 -4.984375 C 2.875 -5.160156 2.664062 -5.25 2.40625 -5.25 C 2.019531 -5.25 1.738281 -5.054688 1.5625 -4.671875 C 1.382812 -4.285156 1.296875 -3.707031 1.296875 -2.9375 Z M 1.296875 -2.9375 "/></g></g><g style="fill:#2d6d5e;fill-opacity:1;"><g transform="translate(78.725324, 132.917335)"><path style="stroke:none" d="M 2.828125 -5.96875 C 3.285156 -5.96875 3.632812 -5.804688 3.875 -5.484375 C 4.113281 -5.160156 4.234375 -4.664062 4.234375 -4 L 4.234375 0 L 3.40625 0 L 3.40625 -3.828125 C 3.40625 -4.304688 3.34375 -4.660156 3.21875 -4.890625 C 3.101562 -5.128906 2.914062 -5.25 2.65625 -5.25 C 2.269531 -5.25 1.984375 -5.078125 1.796875 -4.734375 C 1.617188 -4.390625 1.53125 -3.84375 1.53125 -3.09375 L 1.53125 0 L 0.71875 0 L 0.71875 -5.859375 L 1.375 -5.859375 L 1.46875 -5.015625 L 1.515625 -5.015625 C 1.597656 -5.210938 1.703125 -5.378906 1.828125 -5.515625 C 1.960938 -5.660156 2.113281 -5.769531 2.28125 -5.84375 C 2.445312 -5.925781 2.628906 -5.96875 2.828125 -5.96875 Z M 2.828125 -5.96875 "/></g></g><g style="fill:#2d6d5e;fill-opacity:1;"><g transform="translate(85.189243, 132.917335)"><path style="stroke:none" d="M 2.09375 -0.625 C 2.1875 -0.625 2.273438 -0.628906 2.359375 -0.640625 C 2.453125 -0.660156 2.535156 -0.691406 2.609375 -0.734375 L 2.609375 -0.0625 C 2.503906 -0.0078125 2.382812 0.03125 2.25 0.0625 C 2.125 0.09375 1.984375 0.109375 1.828125 0.109375 C 1.578125 0.109375 1.367188 0.0507812 1.203125 -0.0625 C 1.046875 -0.175781 0.925781 -0.34375 0.84375 -0.5625 C 0.769531 -0.789062 0.734375 -1.078125 0.734375 -1.421875 L 0.734375 -5.171875 L 0.1875 -5.171875 L 0.1875 -5.625 L 0.78125 -5.84375 L 1 -7.1875 L 1.5625 -7.1875 L 1.5625 -5.859375 L 2.546875 -5.859375 L 2.546875 -5.171875 L 1.5625 -5.171875 L 1.5625 -1.515625 C 1.5625 -1.210938 1.597656 -0.988281 1.671875 -0.84375 C 1.742188 -0.695312 1.882812 -0.625 2.09375 -0.625 Z M 2.09375 -0.625 "/></g></g><g style="fill:#2d6d5e;fill-opacity:1;"><g transform="translate(89.49482, 132.917335)"><path style="stroke:none" d="M 2.28125 -5.96875 C 2.820312 -5.96875 3.207031 -5.796875 3.4375 -5.453125 C 3.675781 -5.109375 3.796875 -4.609375 3.796875 -3.953125 L 3.796875 0 L 3.171875 0 L 3.046875 -0.828125 L 3.015625 -0.828125 C 2.929688 -0.628906 2.820312 -0.457031 2.6875 -0.3125 C 2.5625 -0.175781 2.414062 -0.0703125 2.25 0 C 2.09375 0.0703125 1.90625 0.109375 1.6875 0.109375 C 1.382812 0.109375 1.132812 0.03125 0.9375 -0.125 C 0.75 -0.289062 0.609375 -0.503906 0.515625 -0.765625 C 0.421875 -1.023438 0.375 -1.304688 0.375 -1.609375 C 0.375 -2.191406 0.539062 -2.640625 0.875 -2.953125 C 1.21875 -3.273438 1.695312 -3.453125 2.3125 -3.484375 L 2.96875 -3.53125 L 2.96875 -3.9375 C 2.96875 -4.40625 2.90625 -4.742188 2.78125 -4.953125 C 2.65625 -5.171875 2.445312 -5.28125 2.15625 -5.28125 C 2 -5.28125 1.828125 -5.25 1.640625 -5.1875 C 1.460938 -5.132812 1.269531 -5.046875 1.0625 -4.921875 L 0.796875 -5.546875 C 1.015625 -5.691406 1.25 -5.796875 1.5 -5.859375 C 1.757812 -5.929688 2.019531 -5.96875 2.28125 -5.96875 Z M 2.984375 -2.921875 L 2.4375 -2.890625 C 2.03125 -2.867188 1.722656 -2.753906 1.515625 -2.546875 C 1.316406 -2.335938 1.21875 -2.035156 1.21875 -1.640625 C 1.21875 -1.265625 1.28125 -0.988281 1.40625 -0.8125 C 1.539062 -0.644531 1.722656 -0.5625 1.953125 -0.5625 C 2.285156 -0.5625 2.539062 -0.71875 2.71875 -1.03125 C 2.894531 -1.34375 2.984375 -1.773438 2.984375 -2.328125 Z M 2.984375 -2.921875 "/></g></g><g style="fill:#2d6d5e;fill-opacity:1;"><g transform="translate(95.52066, 132.917335)"><path style="stroke:none" d="M 2.828125 -5.96875 C 3.285156 -5.96875 3.632812 -5.804688 3.875 -5.484375 C 4.113281 -5.160156 4.234375 -4.664062 4.234375 -4 L 4.234375 0 L 3.40625 0 L 3.40625 -3.828125 C 3.40625 -4.304688 3.34375 -4.660156 3.21875 -4.890625 C 3.101562 -5.128906 2.914062 -5.25 2.65625 -5.25 C 2.269531 -5.25 1.984375 -5.078125 1.796875 -4.734375 C 1.617188 -4.390625 1.53125 -3.84375 1.53125 -3.09375 L 1.53125 0 L 0.71875 0 L 0.71875 -5.859375 L 1.375 -5.859375 L 1.46875 -5.015625 L 1.515625 -5.015625 C 1.597656 -5.210938 1.703125 -5.378906 1.828125 -5.515625 C 1.960938 -5.660156 2.113281 -5.769531 2.28125 -5.84375 C 2.445312 -5.925781 2.628906 -5.96875 2.828125 -5.96875 Z M 2.828125 -5.96875 "/></g></g><g style="fill:#2d6d5e;fill-opacity:1;"><g transform="translate(101.984579, 132.917335)"><path style="stroke:none" d="M 1.53125 -8.3125 L 1.53125 -5.890625 C 1.53125 -5.734375 1.523438 -5.582031 1.515625 -5.4375 C 1.515625 -5.300781 1.503906 -5.164062 1.484375 -5.03125 L 1.53125 -5.03125 C 1.601562 -5.226562 1.703125 -5.394531 1.828125 -5.53125 C 1.960938 -5.664062 2.113281 -5.769531 2.28125 -5.84375 C 2.445312 -5.925781 2.625 -5.96875 2.8125 -5.96875 C 3.144531 -5.96875 3.414062 -5.890625 3.625 -5.734375 C 3.832031 -5.585938 3.984375 -5.367188 4.078125 -5.078125 C 4.179688 -4.785156 4.234375 -4.421875 4.234375 -3.984375 L 4.234375 0 L 3.40625 0 L 3.40625 -3.828125 C 3.40625 -4.328125 3.34375 -4.6875 3.21875 -4.90625 C 3.101562 -5.125 2.910156 -5.234375 2.640625 -5.234375 C 2.390625 -5.234375 2.179688 -5.15625 2.015625 -5 C 1.859375 -4.851562 1.738281 -4.617188 1.65625 -4.296875 C 1.570312 -3.972656 1.53125 -3.566406 1.53125 -3.078125 L 1.53125 0 L 0.71875 0 L 0.71875 -8.3125 Z M 1.53125 -8.3125 "/></g></g><g style="fill:#2d6d5e;fill-opacity:1;"><g transform="translate(108.448498, 132.917335)"><path style="stroke:none" d="M 2.28125 -5.96875 C 2.820312 -5.96875 3.207031 -5.796875 3.4375 -5.453125 C 3.675781 -5.109375 3.796875 -4.609375 3.796875 -3.953125 L 3.796875 0 L 3.171875 0 L 3.046875 -0.828125 L 3.015625 -0.828125 C 2.929688 -0.628906 2.820312 -0.457031 2.6875 -0.3125 C 2.5625 -0.175781 2.414062 -0.0703125 2.25 0 C 2.09375 0.0703125 1.90625 0.109375 1.6875 0.109375 C 1.382812 0.109375 1.132812 0.03125 0.9375 -0.125 C 0.75 -0.289062 0.609375 -0.503906 0.515625 -0.765625 C 0.421875 -1.023438 0.375 -1.304688 0.375 -1.609375 C 0.375 -2.191406 0.539062 -2.640625 0.875 -2.953125 C 1.21875 -3.273438 1.695312 -3.453125 2.3125 -3.484375 L 2.96875 -3.53125 L 2.96875 -3.9375 C 2.96875 -4.40625 2.90625 -4.742188 2.78125 -4.953125 C 2.65625 -5.171875 2.445312 -5.28125 2.15625 -5.28125 C 2 -5.28125 1.828125 -5.25 1.640625 -5.1875 C 1.460938 -5.132812 1.269531 -5.046875 1.0625 -4.921875 L 0.796875 -5.546875 C 1.015625 -5.691406 1.25 -5.796875 1.5 -5.859375 C 1.757812 -5.929688 2.019531 -5.96875 2.28125 -5.96875 Z M 2.984375 -2.921875 L 2.4375 -2.890625 C 2.03125 -2.867188 1.722656 -2.753906 1.515625 -2.546875 C 1.316406 -2.335938 1.21875 -2.035156 1.21875 -1.640625 C 1.21875 -1.265625 1.28125 -0.988281 1.40625 -0.8125 C 1.539062 -0.644531 1.722656 -0.5625 1.953125 -0.5625 C 2.285156 -0.5625 2.539062 -0.71875 2.71875 -1.03125 C 2.894531 -1.34375 2.984375 -1.773438 2.984375 -2.328125 Z M 2.984375 -2.921875 "/></g></g><g style="fill:#2d6d5e;fill-opacity:1;"><g transform="translate(46.687113, 145.608306)"><path style="stroke:none" d="M 2.28125 -5.96875 C 2.820312 -5.96875 3.207031 -5.796875 3.4375 -5.453125 C 3.675781 -5.109375 3.796875 -4.609375 3.796875 -3.953125 L 3.796875 0 L 3.171875 0 L 3.046875 -0.828125 L 3.015625 -0.828125 C 2.929688 -0.628906 2.820312 -0.457031 2.6875 -0.3125 C 2.5625 -0.175781 2.414062 -0.0703125 2.25 0 C 2.09375 0.0703125 1.90625 0.109375 1.6875 0.109375 C 1.382812 0.109375 1.132812 0.03125 0.9375 -0.125 C 0.75 -0.289062 0.609375 -0.503906 0.515625 -0.765625 C 0.421875 -1.023438 0.375 -1.304688 0.375 -1.609375 C 0.375 -2.191406 0.539062 -2.640625 0.875 -2.953125 C 1.21875 -3.273438 1.695312 -3.453125 2.3125 -3.484375 L 2.96875 -3.53125 L 2.96875 -3.9375 C 2.96875 -4.40625 2.90625 -4.742188 2.78125 -4.953125 C 2.65625 -5.171875 2.445312 -5.28125 2.15625 -5.28125 C 2 -5.28125 1.828125 -5.25 1.640625 -5.1875 C 1.460938 -5.132812 1.269531 -5.046875 1.0625 -4.921875 L 0.796875 -5.546875 C 1.015625 -5.691406 1.25 -5.796875 1.5 -5.859375 C 1.757812 -5.929688 2.019531 -5.96875 2.28125 -5.96875 Z M 2.984375 -2.921875 L 2.4375 -2.890625 C 2.03125 -2.867188 1.722656 -2.753906 1.515625 -2.546875 C 1.316406 -2.335938 1.21875 -2.035156 1.21875 -1.640625 C 1.21875 -1.265625 1.28125 -0.988281 1.40625 -0.8125 C 1.539062 -0.644531 1.722656 -0.5625 1.953125 -0.5625 C 2.285156 -0.5625 2.539062 -0.71875 2.71875 -1.03125 C 2.894531 -1.34375 2.984375 -1.773438 2.984375 -2.328125 Z M 2.984375 -2.921875 "/></g></g><g style="fill:#2d6d5e;fill-opacity:1;"><g transform="translate(52.712952, 145.608306)"><path style="stroke:none" d="M 2.09375 -0.625 C 2.1875 -0.625 2.273438 -0.628906 2.359375 -0.640625 C 2.453125 -0.660156 2.535156 -0.691406 2.609375 -0.734375 L 2.609375 -0.0625 C 2.503906 -0.0078125 2.382812 0.03125 2.25 0.0625 C 2.125 0.09375 1.984375 0.109375 1.828125 0.109375 C 1.578125 0.109375 1.367188 0.0507812 1.203125 -0.0625 C 1.046875 -0.175781 0.925781 -0.34375 0.84375 -0.5625 C 0.769531 -0.789062 0.734375 -1.078125 0.734375 -1.421875 L 0.734375 -5.171875 L 0.1875 -5.171875 L 0.1875 -5.625 L 0.78125 -5.84375 L 1 -7.1875 L 1.5625 -7.1875 L 1.5625 -5.859375 L 2.546875 -5.859375 L 2.546875 -5.171875 L 1.5625 -5.171875 L 1.5625 -1.515625 C 1.5625 -1.210938 1.597656 -0.988281 1.671875 -0.84375 C 1.742188 -0.695312 1.882812 -0.625 2.09375 -0.625 Z M 2.09375 -0.625 "/></g></g><g style="fill:#2d6d5e;fill-opacity:1;"><g transform="translate(57.018529, 145.608306)"><path style="stroke:none" d="M 2.328125 -5.953125 C 2.722656 -5.953125 3.050781 -5.835938 3.3125 -5.609375 C 3.570312 -5.378906 3.765625 -5.066406 3.890625 -4.671875 C 4.015625 -4.285156 4.078125 -3.851562 4.078125 -3.375 L 4.078125 -2.78125 L 1.28125 -2.78125 C 1.289062 -2.050781 1.40625 -1.503906 1.625 -1.140625 C 1.84375 -0.773438 2.171875 -0.59375 2.609375 -0.59375 C 2.828125 -0.59375 3.035156 -0.625 3.234375 -0.6875 C 3.441406 -0.75 3.648438 -0.851562 3.859375 -1 L 3.859375 -0.265625 C 3.660156 -0.140625 3.453125 -0.046875 3.234375 0.015625 C 3.015625 0.078125 2.78125 0.109375 2.53125 0.109375 C 2.039062 0.109375 1.644531 -0.0195312 1.34375 -0.28125 C 1.039062 -0.539062 0.816406 -0.898438 0.671875 -1.359375 C 0.535156 -1.816406 0.46875 -2.332031 0.46875 -2.90625 C 0.46875 -3.550781 0.535156 -4.101562 0.671875 -4.5625 C 0.816406 -5.019531 1.023438 -5.363281 1.296875 -5.59375 C 1.578125 -5.832031 1.921875 -5.953125 2.328125 -5.953125 Z M 2.328125 -5.28125 C 2.015625 -5.28125 1.769531 -5.128906 1.59375 -4.828125 C 1.425781 -4.535156 1.328125 -4.070312 1.296875 -3.4375 L 3.3125 -3.4375 C 3.3125 -3.769531 3.273438 -4.078125 3.203125 -4.359375 C 3.140625 -4.640625 3.035156 -4.863281 2.890625 -5.03125 C 2.742188 -5.195312 2.554688 -5.28125 2.328125 -5.28125 Z M 3.75 -8.375 L 3.75 -8.28125 C 3.675781 -8.164062 3.578125 -8.03125 3.453125 -7.875 C 3.335938 -7.726562 3.210938 -7.578125 3.078125 -7.421875 C 2.941406 -7.265625 2.800781 -7.117188 2.65625 -6.984375 C 2.519531 -6.847656 2.398438 -6.726562 2.296875 -6.625 L 1.765625 -6.625 L 1.765625 -6.75 C 1.910156 -6.945312 2.039062 -7.132812 2.15625 -7.3125 C 2.28125 -7.5 2.390625 -7.679688 2.484375 -7.859375 C 2.585938 -8.035156 2.679688 -8.207031 2.765625 -8.375 Z M 3.75 -8.375 "/></g></g><g style="fill:#2d6d5e;fill-opacity:1;"><g transform="translate(63.076424, 145.608306)"><path style="stroke:none" d=""/></g></g><g style="fill:#2d6d5e;fill-opacity:1;"><g transform="translate(66.639403, 145.608306)"><path style="stroke:none" d="M 1.515625 0 L 0.046875 -5.859375 L 0.890625 -5.859375 L 1.6875 -2.296875 C 1.738281 -2.085938 1.785156 -1.867188 1.828125 -1.640625 C 1.867188 -1.421875 1.90625 -1.1875 1.9375 -0.9375 L 1.984375 -0.9375 C 2.003906 -1.082031 2.03125 -1.25 2.0625 -1.4375 C 2.101562 -1.632812 2.148438 -1.851562 2.203125 -2.09375 L 3.078125 -5.859375 L 3.921875 -5.859375 L 2.421875 0 Z M 1.515625 0 "/></g></g><g style="fill:#2d6d5e;fill-opacity:1;"><g transform="translate(72.131, 145.608306)"><path style="stroke:none" d="M 4.359375 -2.9375 C 4.359375 -2.476562 4.316406 -2.0625 4.234375 -1.6875 C 4.160156 -1.3125 4.039062 -0.988281 3.875 -0.71875 C 3.71875 -0.457031 3.515625 -0.253906 3.265625 -0.109375 C 3.023438 0.0351562 2.734375 0.109375 2.390625 0.109375 C 2.078125 0.109375 1.796875 0.0351562 1.546875 -0.109375 C 1.304688 -0.253906 1.101562 -0.457031 0.9375 -0.71875 C 0.78125 -0.976562 0.660156 -1.296875 0.578125 -1.671875 C 0.503906 -2.054688 0.46875 -2.476562 0.46875 -2.9375 C 0.46875 -3.582031 0.535156 -4.128906 0.671875 -4.578125 C 0.804688 -5.035156 1.019531 -5.378906 1.3125 -5.609375 C 1.601562 -5.847656 1.96875 -5.96875 2.40625 -5.96875 C 2.820312 -5.96875 3.175781 -5.851562 3.46875 -5.625 C 3.757812 -5.394531 3.976562 -5.054688 4.125 -4.609375 C 4.28125 -4.160156 4.359375 -3.601562 4.359375 -2.9375 Z M 1.296875 -2.9375 C 1.296875 -2.425781 1.332031 -2 1.40625 -1.65625 C 1.488281 -1.3125 1.613281 -1.050781 1.78125 -0.875 C 1.945312 -0.695312 2.160156 -0.609375 2.421875 -0.609375 C 2.671875 -0.609375 2.875 -0.691406 3.03125 -0.859375 C 3.195312 -1.035156 3.316406 -1.296875 3.390625 -1.640625 C 3.472656 -1.984375 3.515625 -2.414062 3.515625 -2.9375 C 3.515625 -3.445312 3.472656 -3.875 3.390625 -4.21875 C 3.316406 -4.5625 3.195312 -4.816406 3.03125 -4.984375 C 2.875 -5.160156 2.664062 -5.25 2.40625 -5.25 C 2.019531 -5.25 1.738281 -5.054688 1.5625 -4.671875 C 1.382812 -4.285156 1.296875 -3.707031 1.296875 -2.9375 Z M 1.296875 -2.9375 "/></g></g><g style="fill:#2d6d5e;fill-opacity:1;"><g transform="translate(78.482728, 145.608306)"><path style="stroke:none" d="M 2.40625 0.109375 C 1.976562 0.109375 1.617188 0 1.328125 -0.21875 C 1.046875 -0.445312 0.832031 -0.785156 0.6875 -1.234375 C 0.539062 -1.679688 0.46875 -2.234375 0.46875 -2.890625 C 0.46875 -3.535156 0.539062 -4.085938 0.6875 -4.546875 C 0.832031 -5.003906 1.050781 -5.351562 1.34375 -5.59375 C 1.632812 -5.84375 2 -5.96875 2.4375 -5.96875 C 2.65625 -5.96875 2.851562 -5.941406 3.03125 -5.890625 C 3.207031 -5.847656 3.375 -5.785156 3.53125 -5.703125 L 3.265625 -5.03125 C 3.140625 -5.09375 3.007812 -5.140625 2.875 -5.171875 C 2.75 -5.210938 2.625 -5.234375 2.5 -5.234375 C 2.238281 -5.234375 2.019531 -5.144531 1.84375 -4.96875 C 1.675781 -4.789062 1.546875 -4.53125 1.453125 -4.1875 C 1.359375 -3.84375 1.3125 -3.414062 1.3125 -2.90625 C 1.3125 -2.394531 1.351562 -1.96875 1.4375 -1.625 C 1.53125 -1.289062 1.664062 -1.035156 1.84375 -0.859375 C 2.019531 -0.691406 2.238281 -0.609375 2.5 -0.609375 C 2.65625 -0.609375 2.8125 -0.628906 2.96875 -0.671875 C 3.132812 -0.722656 3.300781 -0.789062 3.46875 -0.875 L 3.46875 -0.1875 C 3.3125 -0.09375 3.132812 -0.0195312 2.9375 0.03125 C 2.75 0.0820312 2.570312 0.109375 2.40625 0.109375 Z M 2.40625 0.109375 "/></g></g><g style="fill:#2d6d5e;fill-opacity:1;"><g transform="translate(83.771312, 145.608306)"><path style="stroke:none" d="M 2.328125 -5.953125 C 2.722656 -5.953125 3.050781 -5.835938 3.3125 -5.609375 C 3.570312 -5.378906 3.765625 -5.066406 3.890625 -4.671875 C 4.015625 -4.285156 4.078125 -3.851562 4.078125 -3.375 L 4.078125 -2.78125 L 1.28125 -2.78125 C 1.289062 -2.050781 1.40625 -1.503906 1.625 -1.140625 C 1.84375 -0.773438 2.171875 -0.59375 2.609375 -0.59375 C 2.828125 -0.59375 3.035156 -0.625 3.234375 -0.6875 C 3.441406 -0.75 3.648438 -0.851562 3.859375 -1 L 3.859375 -0.265625 C 3.660156 -0.140625 3.453125 -0.046875 3.234375 0.015625 C 3.015625 0.078125 2.78125 0.109375 2.53125 0.109375 C 2.039062 0.109375 1.644531 -0.0195312 1.34375 -0.28125 C 1.039062 -0.539062 0.816406 -0.898438 0.671875 -1.359375 C 0.535156 -1.816406 0.46875 -2.332031 0.46875 -2.90625 C 0.46875 -3.550781 0.535156 -4.101562 0.671875 -4.5625 C 0.816406 -5.019531 1.023438 -5.363281 1.296875 -5.59375 C 1.578125 -5.832031 1.921875 -5.953125 2.328125 -5.953125 Z M 2.328125 -5.28125 C 2.015625 -5.28125 1.769531 -5.128906 1.59375 -4.828125 C 1.425781 -4.535156 1.328125 -4.070312 1.296875 -3.4375 L 3.3125 -3.4375 C 3.3125 -3.769531 3.273438 -4.078125 3.203125 -4.359375 C 3.140625 -4.640625 3.035156 -4.863281 2.890625 -5.03125 C 2.742188 -5.195312 2.554688 -5.28125 2.328125 -5.28125 Z M 2.6875 -8.375 C 2.757812 -8.207031 2.851562 -8.023438 2.96875 -7.828125 C 3.082031 -7.640625 3.203125 -7.445312 3.328125 -7.25 C 3.460938 -7.0625 3.582031 -6.890625 3.6875 -6.734375 L 3.6875 -6.625 L 3.234375 -6.625 C 3.078125 -6.769531 2.921875 -6.9375 2.765625 -7.125 C 2.609375 -7.3125 2.453125 -7.503906 2.296875 -7.703125 C 2.128906 -7.503906 1.960938 -7.304688 1.796875 -7.109375 C 1.628906 -6.921875 1.476562 -6.757812 1.34375 -6.625 L 0.890625 -6.625 L 0.890625 -6.734375 C 1.015625 -6.898438 1.140625 -7.082031 1.265625 -7.28125 C 1.390625 -7.476562 1.503906 -7.671875 1.609375 -7.859375 C 1.722656 -8.046875 1.816406 -8.21875 1.890625 -8.375 Z M 2.6875 -8.375 "/></g></g><g style="fill:#0661aa;fill-opacity:1;"><g transform="translate(54.545606, 118.962247)"><path style="stroke:none" d="M 0.71875 0 L 0.71875 -8.421875 L 3.75 -8.421875 C 4.300781 -8.421875 4.785156 -8.3125 5.203125 -8.09375 C 5.628906 -7.875 5.957031 -7.570312 6.1875 -7.1875 C 6.425781 -6.8125 6.546875 -6.378906 6.546875 -5.890625 C 6.546875 -5.390625 6.425781 -4.953125 6.1875 -4.578125 C 5.957031 -4.203125 5.628906 -3.90625 5.203125 -3.6875 C 4.785156 -3.46875 4.300781 -3.359375 3.75 -3.359375 L 1.6875 -3.359375 L 1.6875 0 Z M 1.6875 -4.265625 L 3.671875 -4.265625 C 4.222656 -4.265625 4.675781 -4.414062 5.03125 -4.71875 C 5.382812 -5.019531 5.5625 -5.410156 5.5625 -5.890625 C 5.5625 -6.367188 5.390625 -6.757812 5.046875 -7.0625 C 4.703125 -7.375 4.242188 -7.53125 3.671875 -7.53125 L 1.6875 -7.53125 Z M 1.6875 -4.265625 "/></g></g><g style="fill:#0661aa;fill-opacity:1;"><g transform="translate(62.751476, 118.962247)"><path style="stroke:none" d="M 6.140625 0.234375 C 5.816406 0.234375 5.5625 0.140625 5.375 -0.046875 C 5.195312 -0.234375 5.066406 -0.460938 4.984375 -0.734375 L 4.5 -2.53125 C 4.414062 -2.851562 4.265625 -3.109375 4.046875 -3.296875 C 3.835938 -3.492188 3.59375 -3.59375 3.3125 -3.59375 L 1.703125 -3.59375 L 1.703125 0 L 0.71875 0 L 0.71875 -8.421875 L 3.96875 -8.421875 C 4.519531 -8.421875 5.003906 -8.316406 5.421875 -8.109375 C 5.835938 -7.898438 6.160156 -7.613281 6.390625 -7.25 C 6.628906 -6.882812 6.75 -6.460938 6.75 -5.984375 C 6.75 -5.441406 6.566406 -4.960938 6.203125 -4.546875 C 5.835938 -4.128906 5.332031 -3.863281 4.6875 -3.75 L 4.6875 -3.734375 C 4.90625 -3.617188 5.078125 -3.46875 5.203125 -3.28125 C 5.335938 -3.09375 5.4375 -2.875 5.5 -2.625 L 5.890625 -1.09375 C 5.929688 -0.957031 5.984375 -0.84375 6.046875 -0.75 C 6.109375 -0.65625 6.203125 -0.609375 6.328125 -0.609375 C 6.546875 -0.609375 6.742188 -0.769531 6.921875 -1.09375 L 7.421875 -0.515625 C 7.273438 -0.285156 7.085938 -0.101562 6.859375 0.03125 C 6.628906 0.164062 6.390625 0.234375 6.140625 0.234375 Z M 1.703125 -4.484375 L 3.921875 -4.484375 C 4.460938 -4.484375 4.90625 -4.625 5.25 -4.90625 C 5.59375 -5.1875 5.765625 -5.550781 5.765625 -6 C 5.765625 -6.46875 5.59375 -6.835938 5.25 -7.109375 C 4.90625 -7.390625 4.460938 -7.53125 3.921875 -7.53125 L 1.703125 -7.53125 Z M 1.703125 -4.484375 "/></g></g><g style="fill:#0661aa;fill-opacity:1;"><g transform="translate(71.590407, 118.962247)"><path style="stroke:none" d="M 4.421875 0.265625 C 3.617188 0.265625 2.914062 0.0820312 2.3125 -0.28125 C 1.707031 -0.65625 1.238281 -1.175781 0.90625 -1.84375 C 0.582031 -2.519531 0.421875 -3.304688 0.421875 -4.203125 C 0.421875 -5.109375 0.582031 -5.894531 0.90625 -6.5625 C 1.238281 -7.226562 1.707031 -7.742188 2.3125 -8.109375 C 2.914062 -8.484375 3.617188 -8.671875 4.421875 -8.671875 C 5.234375 -8.671875 5.941406 -8.488281 6.546875 -8.125 C 7.148438 -7.757812 7.613281 -7.242188 7.9375 -6.578125 C 8.269531 -5.910156 8.4375 -5.125 8.4375 -4.21875 C 8.4375 -3.3125 8.269531 -2.519531 7.9375 -1.84375 C 7.613281 -1.175781 7.148438 -0.65625 6.546875 -0.28125 C 5.941406 0.0820312 5.234375 0.265625 4.421875 0.265625 Z M 4.421875 -0.625 C 5.035156 -0.625 5.566406 -0.769531 6.015625 -1.0625 C 6.472656 -1.363281 6.820312 -1.78125 7.0625 -2.3125 C 7.3125 -2.851562 7.4375 -3.484375 7.4375 -4.203125 C 7.4375 -4.921875 7.3125 -5.550781 7.0625 -6.09375 C 6.820312 -6.632812 6.472656 -7.050781 6.015625 -7.34375 C 5.566406 -7.644531 5.035156 -7.796875 4.421875 -7.796875 C 3.816406 -7.796875 3.285156 -7.644531 2.828125 -7.34375 C 2.378906 -7.050781 2.03125 -6.632812 1.78125 -6.09375 C 1.53125 -5.550781 1.40625 -4.921875 1.40625 -4.203125 C 1.40625 -3.484375 1.53125 -2.851562 1.78125 -2.3125 C 2.03125 -1.78125 2.378906 -1.363281 2.828125 -1.0625 C 3.285156 -0.769531 3.816406 -0.625 4.421875 -0.625 Z M 4.421875 -0.625 "/></g></g></g></svg>