<svg xmlns="http://www.w3.org/2000/svg" xmlns:xlink="http://www.w3.org/1999/xlink" width="180" zoomAndPan="magnify" viewBox="0 0 135 119.999999" height="160" preserveAspectRatio="xMidYMid meet" version="1.0"><defs><clipPath id="e24b2f0747"><path d="M 68 2 L 125.53125 2 L 125.53125 118.867188 L 68 118.867188 Z M 68 2 " clip-rule="nonzero"/></clipPath><clipPath id="d65acd7173"><path d="M 87 87 L 113 87 L 113 118.867188 L 87 118.867188 Z M 87 87 " clip-rule="nonzero"/></clipPath><clipPath id="a7294c6f67"><path d="M 60 82 L 83 82 L 83 118.867188 L 60 118.867188 Z M 60 82 " clip-rule="nonzero"/></clipPath><clipPath id="d3081becd3"><path d="M 9.28125 75 L 13 75 L 13 79 L 9.28125 79 Z M 9.28125 75 " clip-rule="nonzero"/></clipPath></defs><rect x="-13.5" width="162" fill="#ffffff" y="-12" height="143.999998" fill-opacity="1"/><rect x="-13.5" width="162" fill="#ffffff" y="-12" height="143.999998" fill-opacity="1"/><g clip-path="url(#e24b2f0747)"><path fill="#0661aa" d="M 119.546875 91.953125 C 115.886719 85.5 110.398438 79.503906 102.78125 73.632812 L 100.539062 65.753906 C 105.082031 54.445312 107.238281 43.078125 106.765625 32.839844 C 106.34375 23.5625 103.796875 15.769531 99.601562 10.898438 C 96.378906 7.160156 92.414062 5.46875 88.335938 6.058594 C 84.085938 1.617188 77.949219 1.117188 69.617188 4.523438 C 68.6875 4.902344 68.242188 5.964844 68.621094 6.894531 C 69 7.824219 70.0625 8.269531 70.992188 7.890625 C 78.242188 4.925781 83.09375 5.339844 86.253906 9.191406 C 86.699219 9.734375 87.414062 9.972656 88.09375 9.808594 C 92.023438 8.84375 95.023438 11.160156 96.84375 13.273438 C 100.457031 17.464844 102.75 24.660156 103.132812 33.003906 C 103.570312 42.515625 101.601562 53.097656 97.445312 63.691406 C 93.191406 63.097656 89.710938 61.398438 86.839844 58.507812 C 86.132812 57.796875 84.980469 57.792969 84.269531 58.503906 C 83.558594 59.210938 83.554688 60.363281 84.261719 61.074219 C 87.726562 64.558594 92.078125 66.65625 97.207031 67.324219 L 99.144531 74.152344 C 96.535156 76.59375 87.613281 84.527344 77.710938 88.65625 C 76.785156 89.042969 76.34375 90.105469 76.730469 91.03125 C 77.023438 91.730469 77.699219 92.152344 78.410156 92.152344 C 78.644531 92.152344 78.882812 92.109375 79.109375 92.011719 C 89.296875 87.769531 98.207031 79.996094 101.316406 77.109375 C 115.835938 88.535156 122.058594 100.507812 122.058594 116.878906 C 122.058594 117.882812 122.871094 118.699219 123.875 118.699219 C 124.882812 118.699219 125.695312 117.882812 125.695312 116.878906 C 125.695312 107.402344 123.683594 99.246094 119.542969 91.953125 Z M 119.546875 91.953125 " fill-opacity="1" fill-rule="nonzero"/></g><path fill="#0661aa" d="M 88.6875 51.6875 C 89.492188 49.488281 89.484375 46.792969 88.660156 43.902344 C 87.066406 38.292969 82.96875 36.28125 79.742188 37.199219 C 76.882812 38.011719 74.648438 41.171875 75.917969 45.632812 C 76.191406 46.597656 77.199219 47.160156 78.164062 46.886719 C 79.128906 46.609375 79.691406 45.605469 79.417969 44.640625 C 78.769531 42.363281 79.613281 41.019531 80.738281 40.699219 C 82.175781 40.289062 84.175781 41.429688 85.160156 44.898438 C 85.773438 47.050781 85.8125 48.964844 85.273438 50.445312 C 84.730469 51.933594 83.625 52.898438 81.902344 53.386719 C 80.933594 53.664062 80.375 54.667969 80.648438 55.632812 C 80.875 56.433594 81.605469 56.957031 82.398438 56.957031 C 82.558594 56.957031 82.726562 56.933594 82.894531 56.886719 C 85.742188 56.078125 87.742188 54.28125 88.6875 51.6875 Z M 88.6875 51.6875 " fill-opacity="1" fill-rule="nonzero"/><path fill="#0661aa" d="M 73.460938 76.917969 L 75.453125 83.917969 C 75.679688 84.71875 76.410156 85.238281 77.199219 85.238281 C 77.363281 85.238281 77.53125 85.21875 77.699219 85.167969 C 78.664062 84.894531 79.226562 83.890625 78.949219 82.921875 L 76.464844 74.175781 C 76.191406 73.210938 75.183594 72.648438 74.21875 72.921875 L 61.097656 76.652344 C 59.929688 76.984375 58.699219 76.839844 57.640625 76.25 C 56.578125 75.65625 55.8125 74.6875 55.480469 73.519531 L 53.246094 65.648438 C 53.070312 65.042969 52.597656 64.566406 51.988281 64.394531 L 47.261719 63.0625 L 50.113281 56.019531 C 50.265625 55.644531 50.285156 55.230469 50.175781 54.839844 L 47.449219 45.234375 C 47.941406 45.277344 48.445312 45.304688 48.953125 45.304688 C 50.644531 45.304688 52.394531 45.0625 54.203125 44.582031 C 54.210938 44.582031 54.222656 44.578125 54.230469 44.574219 L 70.523438 39.945312 C 71.488281 39.671875 72.050781 38.664062 71.773438 37.699219 C 71.5 36.734375 70.496094 36.171875 69.527344 36.445312 L 53.253906 41.070312 C 49.101562 42.171875 45.355469 41.71875 42.125 39.730469 C 37.023438 36.59375 34.105469 30.304688 32.679688 26.242188 C 34.09375 26.53125 35.851562 26.550781 37.945312 25.960938 C 42.574219 24.644531 48.308594 21.027344 54.382812 17.195312 C 55.714844 16.355469 57.089844 15.488281 58.460938 14.640625 C 59.316406 14.113281 59.578125 12.992188 59.050781 12.140625 C 58.523438 11.285156 57.402344 11.019531 56.546875 11.546875 C 55.164062 12.402344 53.785156 13.277344 52.445312 14.121094 C 46.601562 17.808594 41.078125 21.289062 36.953125 22.460938 C 33.210938 23.523438 31.300781 21.765625 31.121094 21.585938 C 30.582031 20.960938 29.707031 20.800781 28.964844 21.164062 C 28.21875 21.53125 27.835938 22.378906 28.003906 23.191406 C 28.121094 23.757812 31.003906 37.148438 40.203125 42.820312 C 41.242188 43.460938 42.3125 43.972656 43.421875 44.367188 L 46.507812 55.234375 L 43.136719 63.582031 C 42.941406 64.0625 42.960938 64.601562 43.1875 65.0625 C 43.414062 65.527344 43.828125 65.875 44.328125 66.015625 L 50.027344 67.621094 L 51.988281 74.515625 C 52.585938 76.621094 53.964844 78.363281 55.875 79.425781 C 57.785156 80.492188 59.996094 80.746094 62.097656 80.152344 L 73.46875 76.921875 Z M 73.460938 76.917969 " fill-opacity="1" fill-rule="nonzero"/><g clip-path="url(#d65acd7173)"><path fill="#0661aa" d="M 100.175781 87.734375 C 100.160156 87.734375 100.140625 87.734375 100.121094 87.734375 C 96.722656 87.746094 93.53125 89.085938 91.136719 91.5 C 88.742188 93.914062 87.429688 97.117188 87.445312 100.515625 L 87.503906 116.886719 C 87.507812 117.886719 88.320312 118.699219 89.324219 118.699219 L 89.332031 118.699219 C 90.335938 118.691406 91.148438 117.875 91.140625 116.871094 L 91.082031 100.503906 C 91.070312 98.074219 92.007812 95.785156 93.71875 94.0625 C 95.425781 92.335938 97.707031 91.382812 100.136719 91.375 C 100.152344 91.375 100.164062 91.375 100.175781 91.375 C 105.171875 91.375 109.25 95.425781 109.269531 100.429688 L 109.332031 116.796875 C 109.335938 117.800781 110.148438 118.609375 111.148438 118.609375 L 111.15625 118.609375 C 112.160156 118.605469 112.972656 117.789062 112.96875 116.785156 L 112.90625 100.414062 C 112.878906 93.414062 107.175781 87.734375 100.175781 87.734375 Z M 100.175781 87.734375 " fill-opacity="1" fill-rule="nonzero"/></g><g clip-path="url(#a7294c6f67)"><path fill="#0661aa" d="M 76.59375 95.054688 C 74.390625 95.054688 72.164062 96.394531 71.40625 98.980469 L 71.226562 98.550781 L 73.394531 89.878906 C 73.851562 88.050781 73.449219 86.148438 72.292969 84.664062 C 71.132812 83.179688 69.386719 82.324219 67.5 82.324219 C 66.742188 82.324219 66.0625 82.796875 65.796875 83.503906 L 60.339844 98.054688 C 60.222656 98.375 60.191406 98.714844 60.261719 99.050781 L 63.898438 117.238281 C 64.070312 118.101562 64.828125 118.699219 65.679688 118.699219 C 65.796875 118.699219 65.917969 118.6875 66.039062 118.664062 C 67.023438 118.464844 67.664062 117.507812 67.46875 116.523438 L 63.933594 98.847656 L 68.65625 86.25 C 68.953125 86.410156 69.214844 86.625 69.425781 86.902344 C 69.894531 87.496094 70.054688 88.261719 69.871094 88.996094 L 67.554688 98.253906 C 67.460938 98.632812 67.488281 99.03125 67.640625 99.390625 L 71.28125 108.136719 C 71.613281 108.9375 72.464844 109.390625 73.3125 109.21875 C 74.164062 109.050781 74.777344 108.304688 74.777344 107.433594 L 74.777344 100.964844 C 74.777344 99.289062 75.714844 98.691406 76.59375 98.691406 C 77.476562 98.691406 78.414062 99.289062 78.414062 100.964844 L 78.414062 105.964844 C 78.414062 111.746094 78.414062 112.488281 75.308594 115.59375 C 74.597656 116.300781 74.597656 117.453125 75.308594 118.164062 C 76.015625 118.871094 77.171875 118.871094 77.878906 118.164062 C 82.046875 113.992188 82.046875 111.96875 82.046875 105.964844 L 82.046875 100.964844 C 82.046875 97.082031 79.304688 95.050781 76.59375 95.050781 Z M 76.59375 95.054688 " fill-opacity="1" fill-rule="nonzero"/></g><path fill="#0661aa" d="M 58.40625 60.5 C 58.40625 60.738281 58.359375 60.972656 58.265625 61.195312 C 58.175781 61.417969 58.042969 61.613281 57.871094 61.785156 C 57.703125 61.957031 57.503906 62.085938 57.28125 62.179688 C 57.058594 62.269531 56.828125 62.316406 56.585938 62.316406 C 56.34375 62.316406 56.113281 62.269531 55.890625 62.179688 C 55.667969 62.085938 55.472656 61.957031 55.300781 61.785156 C 55.128906 61.613281 55 61.417969 54.90625 61.195312 C 54.8125 60.972656 54.769531 60.738281 54.769531 60.5 C 54.769531 60.257812 54.8125 60.027344 54.90625 59.804688 C 55 59.578125 55.128906 59.382812 55.300781 59.210938 C 55.472656 59.042969 55.667969 58.910156 55.890625 58.820312 C 56.113281 58.726562 56.34375 58.679688 56.585938 58.679688 C 56.828125 58.679688 57.058594 58.726562 57.28125 58.820312 C 57.503906 58.910156 57.703125 59.042969 57.871094 59.210938 C 58.042969 59.382812 58.175781 59.578125 58.265625 59.804688 C 58.359375 60.027344 58.40625 60.257812 58.40625 60.5 Z M 58.40625 60.5 " fill-opacity="1" fill-rule="nonzero"/><g clip-path="url(#d3081becd3)"><path fill="#0661aa" d="M 12.9375 76.867188 C 12.9375 77.109375 12.890625 77.339844 12.800781 77.5625 C 12.707031 77.785156 12.574219 77.984375 12.40625 78.152344 C 12.234375 78.324219 12.039062 78.457031 11.816406 78.546875 C 11.59375 78.640625 11.359375 78.6875 11.117188 78.6875 C 10.878906 78.6875 10.644531 78.640625 10.421875 78.546875 C 10.199219 78.457031 10.003906 78.324219 9.832031 78.152344 C 9.664062 77.984375 9.53125 77.785156 9.4375 77.5625 C 9.347656 77.339844 9.300781 77.109375 9.300781 76.867188 C 9.300781 76.625 9.347656 76.394531 9.4375 76.171875 C 9.53125 75.949219 9.664062 75.75 9.832031 75.582031 C 10.003906 75.410156 10.199219 75.277344 10.421875 75.1875 C 10.644531 75.09375 10.878906 75.046875 11.117188 75.046875 C 11.359375 75.046875 11.59375 75.09375 11.816406 75.1875 C 12.039062 75.277344 12.234375 75.410156 12.40625 75.582031 C 12.574219 75.75 12.707031 75.949219 12.800781 76.171875 C 12.890625 76.394531 12.9375 76.625 12.9375 76.867188 Z M 12.9375 76.867188 " fill-opacity="1" fill-rule="nonzero"/></g><path fill="#0661aa" d="M 20.210938 76.867188 C 20.210938 77.109375 20.167969 77.339844 20.074219 77.5625 C 19.980469 77.785156 19.851562 77.984375 19.679688 78.152344 C 19.507812 78.324219 19.3125 78.457031 19.089844 78.546875 C 18.867188 78.640625 18.636719 78.6875 18.394531 78.6875 C 18.152344 78.6875 17.921875 78.640625 17.699219 78.546875 C 17.476562 78.457031 17.277344 78.324219 17.109375 78.152344 C 16.9375 77.984375 16.804688 77.785156 16.714844 77.5625 C 16.621094 77.339844 16.574219 77.109375 16.574219 76.867188 C 16.574219 76.625 16.621094 76.394531 16.714844 76.171875 C 16.804688 75.949219 16.9375 75.75 17.109375 75.582031 C 17.277344 75.410156 17.476562 75.277344 17.699219 75.1875 C 17.921875 75.09375 18.152344 75.046875 18.394531 75.046875 C 18.636719 75.046875 18.867188 75.09375 19.089844 75.1875 C 19.3125 75.277344 19.507812 75.410156 19.679688 75.582031 C 19.851562 75.75 19.980469 75.949219 20.074219 76.171875 C 20.167969 76.394531 20.210938 76.625 20.210938 76.867188 Z M 20.210938 76.867188 " fill-opacity="1" fill-rule="nonzero"/><path fill="#0661aa" d="M 27.488281 76.867188 C 27.488281 77.109375 27.441406 77.339844 27.347656 77.5625 C 27.257812 77.785156 27.125 77.984375 26.953125 78.152344 C 26.785156 78.324219 26.585938 78.457031 26.363281 78.546875 C 26.140625 78.640625 25.910156 78.6875 25.667969 78.6875 C 25.425781 78.6875 25.195312 78.640625 24.972656 78.546875 C 24.75 78.457031 24.554688 78.324219 24.382812 78.152344 C 24.210938 77.984375 24.082031 77.785156 23.988281 77.5625 C 23.894531 77.339844 23.851562 77.109375 23.851562 76.867188 C 23.851562 76.625 23.894531 76.394531 23.988281 76.171875 C 24.082031 75.949219 24.210938 75.75 24.382812 75.582031 C 24.554688 75.410156 24.75 75.277344 24.972656 75.1875 C 25.195312 75.09375 25.425781 75.046875 25.667969 75.046875 C 25.910156 75.046875 26.140625 75.09375 26.363281 75.1875 C 26.585938 75.277344 26.785156 75.410156 26.953125 75.582031 C 27.125 75.75 27.257812 75.949219 27.347656 76.171875 C 27.441406 76.394531 27.488281 76.625 27.488281 76.867188 Z M 27.488281 76.867188 " fill-opacity="1" fill-rule="nonzero"/><path fill="#0661aa" d="M 49.3125 84.140625 C 49.3125 84.382812 49.265625 84.617188 49.171875 84.839844 C 49.082031 85.0625 48.949219 85.257812 48.777344 85.429688 C 48.609375 85.597656 48.410156 85.730469 48.1875 85.824219 C 47.964844 85.914062 47.734375 85.960938 47.492188 85.960938 C 47.25 85.960938 47.019531 85.914062 46.796875 85.824219 C 46.574219 85.730469 46.378906 85.597656 46.207031 85.429688 C 46.035156 85.257812 45.90625 85.0625 45.8125 84.839844 C 45.71875 84.617188 45.675781 84.382812 45.675781 84.140625 C 45.675781 83.902344 45.71875 83.667969 45.8125 83.445312 C 45.90625 83.222656 46.035156 83.027344 46.207031 82.855469 C 46.378906 82.683594 46.574219 82.554688 46.796875 82.460938 C 47.019531 82.371094 47.25 82.324219 47.492188 82.324219 C 47.734375 82.324219 47.964844 82.371094 48.1875 82.460938 C 48.410156 82.554688 48.609375 82.683594 48.777344 82.855469 C 48.949219 83.027344 49.082031 83.222656 49.171875 83.445312 C 49.265625 83.667969 49.3125 83.902344 49.3125 84.140625 Z M 49.3125 84.140625 " fill-opacity="1" fill-rule="nonzero"/><path fill="#0661aa" d="M 65.679688 60.5 C 65.679688 60.738281 65.632812 60.972656 65.542969 61.195312 C 65.449219 61.417969 65.316406 61.613281 65.148438 61.785156 C 64.976562 61.957031 64.78125 62.085938 64.558594 62.179688 C 64.335938 62.269531 64.101562 62.316406 63.863281 62.316406 C 63.621094 62.316406 63.386719 62.269531 63.164062 62.179688 C 62.941406 62.085938 62.746094 61.957031 62.574219 61.785156 C 62.40625 61.613281 62.273438 61.417969 62.179688 61.195312 C 62.089844 60.972656 62.042969 60.738281 62.042969 60.5 C 62.042969 60.257812 62.089844 60.027344 62.179688 59.804688 C 62.273438 59.578125 62.40625 59.382812 62.574219 59.210938 C 62.746094 59.042969 62.941406 58.910156 63.164062 58.820312 C 63.386719 58.726562 63.621094 58.679688 63.863281 58.679688 C 64.101562 58.679688 64.335938 58.726562 64.558594 58.820312 C 64.78125 58.910156 64.976562 59.042969 65.148438 59.210938 C 65.316406 59.382812 65.449219 59.578125 65.542969 59.804688 C 65.632812 60.027344 65.679688 60.257812 65.679688 60.5 Z M 65.679688 60.5 " fill-opacity="1" fill-rule="nonzero"/><path fill="#0661aa" d="M 87.503906 76.867188 C 87.503906 77.109375 87.457031 77.339844 87.367188 77.5625 C 87.273438 77.785156 87.144531 77.984375 86.972656 78.152344 C 86.800781 78.324219 86.605469 78.457031 86.382812 78.546875 C 86.160156 78.640625 85.925781 78.6875 85.6875 78.6875 C 85.445312 78.6875 85.214844 78.640625 84.988281 78.546875 C 84.765625 78.457031 84.570312 78.324219 84.398438 78.152344 C 84.230469 77.984375 84.097656 77.785156 84.003906 77.5625 C 83.914062 77.339844 83.867188 77.109375 83.867188 76.867188 C 83.867188 76.625 83.914062 76.394531 84.003906 76.171875 C 84.097656 75.949219 84.230469 75.75 84.398438 75.582031 C 84.570312 75.410156 84.765625 75.277344 84.988281 75.1875 C 85.214844 75.09375 85.445312 75.046875 85.6875 75.046875 C 85.925781 75.046875 86.160156 75.09375 86.382812 75.1875 C 86.605469 75.277344 86.800781 75.410156 86.972656 75.582031 C 87.144531 75.75 87.273438 75.949219 87.367188 76.171875 C 87.457031 76.394531 87.503906 76.625 87.503906 76.867188 Z M 87.503906 76.867188 " fill-opacity="1" fill-rule="nonzero"/><path fill="#0661aa" d="M 83.867188 71.410156 C 83.867188 71.652344 83.820312 71.882812 83.730469 72.105469 C 83.636719 72.328125 83.503906 72.527344 83.335938 72.695312 C 83.164062 72.867188 82.96875 73 82.746094 73.089844 C 82.523438 73.183594 82.289062 73.230469 82.046875 73.230469 C 81.808594 73.230469 81.574219 73.183594 81.351562 73.089844 C 81.128906 73 80.933594 72.867188 80.761719 72.695312 C 80.59375 72.527344 80.460938 72.328125 80.367188 72.105469 C 80.277344 71.882812 80.230469 71.652344 80.230469 71.410156 C 80.230469 71.167969 80.277344 70.9375 80.367188 70.714844 C 80.460938 70.492188 80.59375 70.296875 80.761719 70.125 C 80.933594 69.953125 81.128906 69.824219 81.351562 69.730469 C 81.574219 69.636719 81.808594 69.59375 82.046875 69.59375 C 82.289062 69.59375 82.523438 69.636719 82.746094 69.730469 C 82.96875 69.824219 83.164062 69.953125 83.335938 70.125 C 83.503906 70.296875 83.636719 70.492188 83.730469 70.714844 C 83.820312 70.9375 83.867188 71.167969 83.867188 71.410156 Z M 83.867188 71.410156 " fill-opacity="1" fill-rule="nonzero"/><path fill="#0661aa" d="M 78.410156 65.953125 C 78.410156 66.195312 78.363281 66.429688 78.273438 66.652344 C 78.179688 66.875 78.050781 67.070312 77.878906 67.242188 C 77.707031 67.410156 77.511719 67.542969 77.289062 67.636719 C 77.066406 67.726562 76.832031 67.773438 76.59375 67.773438 C 76.351562 67.773438 76.121094 67.726562 75.898438 67.636719 C 75.671875 67.542969 75.476562 67.410156 75.304688 67.242188 C 75.136719 67.070312 75.003906 66.875 74.914062 66.652344 C 74.820312 66.429688 74.773438 66.195312 74.773438 65.953125 C 74.773438 65.714844 74.820312 65.480469 74.914062 65.257812 C 75.003906 65.035156 75.136719 64.839844 75.304688 64.667969 C 75.476562 64.5 75.671875 64.367188 75.898438 64.273438 C 76.121094 64.183594 76.351562 64.136719 76.59375 64.136719 C 76.832031 64.136719 77.066406 64.183594 77.289062 64.273438 C 77.511719 64.367188 77.707031 64.5 77.878906 64.667969 C 78.050781 64.839844 78.179688 65.035156 78.273438 65.257812 C 78.363281 65.480469 78.410156 65.714844 78.410156 65.953125 Z M 78.410156 65.953125 " fill-opacity="1" fill-rule="nonzero"/><path fill="#0661aa" d="M 72.957031 62.316406 C 72.957031 62.558594 72.910156 62.789062 72.816406 63.011719 C 72.722656 63.234375 72.59375 63.433594 72.421875 63.605469 C 72.25 63.773438 72.054688 63.90625 71.832031 63.996094 C 71.609375 64.089844 71.378906 64.136719 71.136719 64.136719 C 70.894531 64.136719 70.664062 64.089844 70.441406 63.996094 C 70.21875 63.90625 70.019531 63.773438 69.851562 63.605469 C 69.679688 63.433594 69.546875 63.234375 69.457031 63.011719 C 69.363281 62.789062 69.316406 62.558594 69.316406 62.316406 C 69.316406 62.078125 69.363281 61.84375 69.457031 61.621094 C 69.546875 61.398438 69.679688 61.203125 69.851562 61.03125 C 70.019531 60.859375 70.21875 60.730469 70.441406 60.636719 C 70.664062 60.546875 70.894531 60.5 71.136719 60.5 C 71.378906 60.5 71.609375 60.546875 71.832031 60.636719 C 72.054688 60.730469 72.25 60.859375 72.421875 61.03125 C 72.59375 61.203125 72.722656 61.398438 72.816406 61.621094 C 72.910156 61.84375 72.957031 62.078125 72.957031 62.316406 Z M 72.957031 62.316406 " fill-opacity="1" fill-rule="nonzero"/><path fill="#0661aa" d="M 65.679688 9.574219 C 65.679688 9.816406 65.632812 10.046875 65.542969 10.269531 C 65.449219 10.492188 65.316406 10.691406 65.148438 10.859375 C 64.976562 11.03125 64.78125 11.164062 64.558594 11.253906 C 64.335938 11.347656 64.101562 11.394531 63.863281 11.394531 C 63.621094 11.394531 63.386719 11.347656 63.164062 11.253906 C 62.941406 11.164062 62.746094 11.03125 62.574219 10.859375 C 62.40625 10.691406 62.273438 10.492188 62.179688 10.269531 C 62.089844 10.046875 62.042969 9.816406 62.042969 9.574219 C 62.042969 9.332031 62.089844 9.101562 62.179688 8.878906 C 62.273438 8.65625 62.40625 8.460938 62.574219 8.289062 C 62.746094 8.117188 62.941406 7.988281 63.164062 7.894531 C 63.386719 7.800781 63.621094 7.757812 63.863281 7.757812 C 64.101562 7.757812 64.335938 7.800781 64.558594 7.894531 C 64.78125 7.988281 64.976562 8.117188 65.148438 8.289062 C 65.316406 8.460938 65.449219 8.65625 65.542969 8.878906 C 65.632812 9.101562 65.679688 9.332031 65.679688 9.574219 Z M 65.679688 9.574219 " fill-opacity="1" fill-rule="nonzero"/><path fill="#0661aa" d="M 23.851562 71.410156 L 40.21875 71.410156 C 41.222656 71.410156 42.035156 70.597656 42.035156 69.59375 C 42.035156 68.585938 41.222656 67.773438 40.21875 67.773438 L 23.851562 67.773438 C 21.84375 67.773438 20.210938 66.140625 20.210938 64.136719 C 20.210938 62.132812 21.84375 60.5 23.851562 60.5 C 25.855469 60.5 27.488281 62.132812 27.488281 64.136719 C 27.488281 65.140625 28.300781 65.953125 29.304688 65.953125 C 30.3125 65.953125 31.125 65.140625 31.125 64.136719 C 31.125 60.125 27.863281 56.863281 23.851562 56.863281 C 19.835938 56.863281 16.574219 60.125 16.574219 64.136719 C 16.574219 68.148438 19.835938 71.410156 23.851562 71.410156 Z M 23.851562 71.410156 " fill-opacity="1" fill-rule="nonzero"/><path fill="#0661aa" d="M 40.21875 82.324219 L 23.851562 82.324219 C 19.835938 82.324219 16.574219 85.585938 16.574219 89.597656 C 16.574219 93.609375 19.835938 96.875 23.851562 96.875 C 27.863281 96.875 31.125 93.609375 31.125 89.597656 C 31.125 88.59375 30.3125 87.78125 29.304688 87.78125 C 28.300781 87.78125 27.488281 88.59375 27.488281 89.597656 C 27.488281 91.601562 25.855469 93.234375 23.851562 93.234375 C 21.84375 93.234375 20.210938 91.601562 20.210938 89.597656 C 20.210938 87.59375 21.84375 85.960938 23.851562 85.960938 L 40.21875 85.960938 C 41.222656 85.960938 42.035156 85.148438 42.035156 84.140625 C 42.035156 83.136719 41.222656 82.324219 40.21875 82.324219 Z M 40.21875 82.324219 " fill-opacity="1" fill-rule="nonzero"/><path fill="#0661aa" d="M 47.492188 75.046875 L 32.945312 75.046875 C 31.9375 75.046875 31.125 75.863281 31.125 76.867188 C 31.125 77.871094 31.9375 78.6875 32.945312 78.6875 L 47.492188 78.6875 C 48.496094 78.6875 49.3125 77.871094 49.3125 76.867188 C 49.3125 75.863281 48.496094 75.046875 47.492188 75.046875 Z M 47.492188 75.046875 " fill-opacity="1" fill-rule="nonzero"/></svg>