<svg xmlns="http://www.w3.org/2000/svg" xmlns:xlink="http://www.w3.org/1999/xlink" width="180" zoomAndPan="magnify" viewBox="0 0 135 161.249994" height="215" preserveAspectRatio="xMidYMid meet" version="1.0"><defs><g/><clipPath id="3d0337daf5"><path d="M 76 21.480469 L 81 21.480469 L 81 26 L 76 26 Z M 76 21.480469 " clip-rule="nonzero"/></clipPath><clipPath id="bcfcae288f"><path d="M 68 25 L 90.726562 25 L 90.726562 69.257812 L 68 69.257812 Z M 68 25 " clip-rule="nonzero"/></clipPath></defs><path fill="#0661aa" d="M 84.320312 46.296875 C 84.316406 45.652344 84.253906 45.019531 84.128906 44.386719 C 84.003906 43.757812 83.820312 43.144531 83.574219 42.550781 C 83.332031 41.957031 83.03125 41.394531 82.675781 40.859375 C 82.320312 40.324219 81.914062 39.828125 81.464844 39.371094 C 81.011719 38.917969 80.519531 38.507812 79.988281 38.148438 C 79.453125 37.789062 78.894531 37.484375 78.300781 37.234375 C 77.710938 36.984375 77.097656 36.796875 76.46875 36.664062 C 75.839844 36.535156 75.207031 36.464844 74.5625 36.460938 L 56.335938 36.460938 C 55.746094 36.460938 55.15625 36.511719 54.578125 36.617188 C 53.996094 36.722656 53.425781 36.882812 52.875 37.089844 C 52.320312 37.296875 51.789062 37.554688 51.28125 37.855469 C 50.773438 38.160156 50.300781 38.507812 49.855469 38.898438 C 49.410156 39.285156 49.003906 39.710938 48.636719 40.175781 C 48.265625 40.636719 47.945312 41.128906 47.664062 41.652344 C 47.386719 42.171875 47.15625 42.714844 46.972656 43.277344 C 46.792969 43.839844 46.660156 44.414062 46.582031 45 C 46.503906 45.585938 46.480469 46.175781 46.507812 46.765625 C 46.535156 47.355469 46.617188 47.9375 46.75 48.515625 C 46.882812 49.089844 47.066406 49.648438 47.300781 50.191406 C 47.535156 50.734375 47.816406 51.253906 48.144531 51.746094 C 48.472656 52.238281 48.839844 52.699219 49.25 53.125 C 49.660156 53.550781 50.105469 53.933594 50.585938 54.28125 C 51.066406 54.625 51.570312 54.925781 52.105469 55.179688 C 52.640625 55.433594 53.191406 55.640625 53.761719 55.792969 C 54.332031 55.949219 54.914062 56.050781 55.5 56.101562 C 56.089844 56.152344 56.679688 56.148438 57.269531 56.09375 C 57.855469 56.035156 58.433594 55.929688 59.003906 55.765625 C 59.574219 55.605469 60.125 55.398438 60.65625 55.136719 C 61.1875 54.878906 61.691406 54.574219 62.167969 54.222656 C 62.640625 53.871094 63.082031 53.480469 63.488281 53.050781 C 63.894531 52.621094 64.257812 52.160156 64.582031 51.664062 C 64.902344 51.167969 65.179688 50.648438 65.410156 50.101562 C 65.625 50.621094 65.886719 51.121094 66.191406 51.59375 C 66.496094 52.070312 66.835938 52.515625 67.21875 52.933594 C 67.597656 53.347656 68.011719 53.730469 68.457031 54.074219 C 68.902344 54.421875 69.375 54.726562 69.871094 54.988281 C 70.371094 55.253906 70.886719 55.472656 71.421875 55.648438 C 71.960938 55.824219 72.507812 55.953125 73.066406 56.03125 C 73.621094 56.113281 74.183594 56.148438 74.746094 56.132812 C 75.3125 56.117188 75.867188 56.054688 76.421875 55.941406 C 76.976562 55.832031 77.515625 55.671875 78.039062 55.46875 C 78.566406 55.265625 79.070312 55.019531 79.554688 54.726562 C 80.035156 54.4375 80.492188 54.105469 80.917969 53.738281 C 81.34375 53.367188 81.734375 52.964844 82.09375 52.53125 C 82.449219 52.09375 82.769531 51.628906 83.046875 51.140625 C 83.324219 50.648438 83.554688 50.136719 83.746094 49.605469 C 83.9375 49.074219 84.078125 48.53125 84.175781 47.976562 C 84.269531 47.421875 84.320312 46.859375 84.320312 46.296875 Z M 66.175781 46.296875 C 66.175781 46.085938 66.097656 45.90625 65.949219 45.753906 C 65.800781 45.605469 65.621094 45.53125 65.410156 45.53125 C 65.195312 45.53125 65.015625 45.605469 64.867188 45.753906 C 64.71875 45.90625 64.644531 46.085938 64.644531 46.296875 C 64.644531 46.84375 64.589844 47.382812 64.484375 47.917969 C 64.375 48.453125 64.21875 48.972656 64.011719 49.476562 C 63.800781 49.980469 63.546875 50.457031 63.242188 50.910156 C 62.941406 51.363281 62.59375 51.785156 62.210938 52.171875 C 61.824219 52.554688 61.40625 52.898438 60.949219 53.203125 C 60.496094 53.507812 60.019531 53.761719 59.515625 53.972656 C 59.011719 54.179688 58.492188 54.335938 57.957031 54.445312 C 57.421875 54.550781 56.882812 54.601562 56.335938 54.601562 C 55.789062 54.601562 55.25 54.550781 54.714844 54.445312 C 54.179688 54.335938 53.660156 54.179688 53.15625 53.972656 C 52.652344 53.761719 52.175781 53.507812 51.722656 53.203125 C 51.265625 52.898438 50.847656 52.554688 50.460938 52.171875 C 50.078125 51.785156 49.730469 51.363281 49.429688 50.910156 C 49.125 50.457031 48.871094 49.980469 48.660156 49.476562 C 48.453125 48.972656 48.296875 48.453125 48.1875 47.917969 C 48.082031 47.382812 48.027344 46.84375 48.027344 46.296875 C 48.027344 45.75 48.082031 45.210938 48.1875 44.675781 C 48.296875 44.140625 48.453125 43.621094 48.660156 43.117188 C 48.871094 42.613281 49.125 42.136719 49.429688 41.679688 C 49.730469 41.226562 50.078125 40.808594 50.460938 40.421875 C 50.847656 40.035156 51.265625 39.691406 51.722656 39.390625 C 52.175781 39.085938 52.652344 38.832031 53.15625 38.621094 C 53.660156 38.414062 54.179688 38.253906 54.714844 38.148438 C 55.25 38.042969 55.789062 37.988281 56.335938 37.988281 L 74.480469 37.988281 C 75.027344 37.988281 75.566406 38.042969 76.101562 38.148438 C 76.636719 38.253906 77.15625 38.414062 77.660156 38.621094 C 78.164062 38.832031 78.644531 39.085938 79.097656 39.390625 C 79.550781 39.691406 79.96875 40.035156 80.355469 40.421875 C 80.742188 40.808594 81.085938 41.226562 81.386719 41.679688 C 81.691406 42.136719 81.949219 42.613281 82.15625 43.117188 C 82.363281 43.621094 82.523438 44.140625 82.628906 44.675781 C 82.734375 45.210938 82.789062 45.75 82.789062 46.296875 C 82.789062 46.84375 82.734375 47.382812 82.628906 47.917969 C 82.523438 48.453125 82.363281 48.972656 82.15625 49.476562 C 81.949219 49.980469 81.691406 50.457031 81.386719 50.910156 C 81.085938 51.363281 80.742188 51.785156 80.355469 52.171875 C 79.96875 52.554688 79.550781 52.898438 79.097656 53.203125 C 78.644531 53.507812 78.164062 53.761719 77.660156 53.972656 C 77.15625 54.179688 76.636719 54.335938 76.101562 54.445312 C 75.566406 54.550781 75.027344 54.601562 74.480469 54.601562 C 73.9375 54.601562 73.394531 54.550781 72.859375 54.445312 C 72.328125 54.335938 71.808594 54.179688 71.304688 53.972656 C 70.800781 53.761719 70.320312 53.507812 69.867188 53.203125 C 69.414062 52.898438 68.992188 52.554688 68.609375 52.171875 C 68.222656 51.785156 67.878906 51.363281 67.574219 50.910156 C 67.273438 50.457031 67.015625 49.980469 66.808594 49.476562 C 66.597656 48.972656 66.441406 48.453125 66.335938 47.917969 C 66.226562 47.382812 66.175781 46.84375 66.175781 46.296875 Z M 66.175781 46.296875 " fill-opacity="1" fill-rule="nonzero"/><path fill="#0661aa" d="M 81.316406 46.296875 C 81.316406 45.847656 81.273438 45.402344 81.183594 44.964844 C 81.097656 44.523438 80.964844 44.097656 80.792969 43.683594 C 80.621094 43.265625 80.410156 42.875 80.164062 42.5 C 79.914062 42.128906 79.628906 41.78125 79.3125 41.464844 C 78.996094 41.148438 78.648438 40.863281 78.277344 40.617188 C 77.902344 40.367188 77.511719 40.15625 77.097656 39.984375 C 76.683594 39.8125 76.253906 39.679688 75.816406 39.59375 C 75.375 39.503906 74.929688 39.460938 74.480469 39.460938 L 56.335938 39.460938 C 55.886719 39.460938 55.441406 39.503906 55.003906 39.589844 C 54.5625 39.679688 54.136719 39.808594 53.71875 39.980469 C 53.304688 40.152344 52.910156 40.363281 52.539062 40.609375 C 52.164062 40.859375 51.820312 41.144531 51.503906 41.460938 C 51.183594 41.777344 50.902344 42.125 50.652344 42.496094 C 50.402344 42.871094 50.191406 43.261719 50.019531 43.679688 C 49.847656 44.09375 49.71875 44.519531 49.632812 44.960938 C 49.542969 45.398438 49.5 45.84375 49.5 46.292969 C 49.5 46.742188 49.542969 47.1875 49.628906 47.625 C 49.71875 48.066406 49.847656 48.496094 50.019531 48.910156 C 50.191406 49.324219 50.398438 49.71875 50.648438 50.089844 C 50.898438 50.464844 51.179688 50.808594 51.5 51.128906 C 51.816406 51.445312 52.160156 51.730469 52.535156 51.976562 C 52.90625 52.226562 53.300781 52.4375 53.714844 52.609375 C 54.128906 52.78125 54.554688 52.914062 54.996094 53 C 55.4375 53.089844 55.882812 53.132812 56.328125 53.132812 C 56.777344 53.132812 57.222656 53.089844 57.664062 53.003906 C 58.105469 52.914062 58.53125 52.785156 58.945312 52.617188 C 59.359375 52.445312 59.753906 52.234375 60.128906 51.984375 C 60.5 51.734375 60.847656 51.453125 61.164062 51.136719 C 61.484375 50.820312 61.765625 50.472656 62.015625 50.101562 C 62.265625 49.726562 62.476562 49.335938 62.648438 48.921875 C 62.820312 48.507812 62.953125 48.078125 63.039062 47.640625 C 63.128906 47.199219 63.171875 46.753906 63.171875 46.304688 C 63.175781 46.128906 63.289062 43.4375 65.488281 43.4375 C 66.128906 43.4375 66.613281 43.625 66.96875 44.003906 C 67.730469 44.816406 67.648438 46.25 67.644531 46.265625 C 67.644531 46.277344 67.644531 46.289062 67.644531 46.300781 C 67.640625 46.75 67.679688 47.199219 67.765625 47.644531 C 67.847656 48.089844 67.972656 48.519531 68.144531 48.941406 C 68.3125 49.359375 68.523438 49.757812 68.769531 50.136719 C 69.019531 50.511719 69.300781 50.863281 69.621094 51.183594 C 69.9375 51.503906 70.285156 51.792969 70.660156 52.046875 C 71.035156 52.296875 71.429688 52.511719 71.847656 52.6875 C 72.265625 52.859375 72.695312 52.992188 73.140625 53.082031 C 73.582031 53.171875 74.03125 53.214844 74.480469 53.214844 C 74.933594 53.214844 75.382812 53.171875 75.824219 53.082031 C 76.269531 52.992188 76.699219 52.859375 77.117188 52.6875 C 77.535156 52.511719 77.929688 52.296875 78.304688 52.046875 C 78.679688 51.792969 79.027344 51.503906 79.34375 51.183594 C 79.664062 50.863281 79.945312 50.511719 80.195312 50.136719 C 80.441406 49.757812 80.652344 49.359375 80.820312 48.941406 C 80.992188 48.519531 81.117188 48.089844 81.199219 47.644531 C 81.285156 47.199219 81.324219 46.75 81.320312 46.300781 Z M 68.636719 46.3125 C 68.648438 46.097656 68.707031 44.410156 67.695312 43.328125 C 67.148438 42.742188 66.40625 42.445312 65.488281 42.445312 C 62.941406 42.445312 62.210938 44.957031 62.183594 46.285156 L 62.183594 46.296875 C 62.183594 46.679688 62.144531 47.058594 62.070312 47.4375 C 61.996094 47.8125 61.882812 48.179688 61.738281 48.535156 C 61.589844 48.886719 61.410156 49.226562 61.195312 49.542969 C 60.984375 49.863281 60.742188 50.160156 60.46875 50.429688 C 60.199219 50.703125 59.902344 50.945312 59.582031 51.15625 C 59.265625 51.371094 58.925781 51.550781 58.574219 51.699219 C 58.21875 51.84375 57.851562 51.957031 57.476562 52.03125 C 57.101562 52.105469 56.71875 52.140625 56.335938 52.140625 C 55.953125 52.140625 55.570312 52.105469 55.195312 52.03125 C 54.820312 51.957031 54.453125 51.84375 54.097656 51.699219 C 53.746094 51.550781 53.40625 51.371094 53.089844 51.15625 C 52.769531 50.945312 52.472656 50.703125 52.203125 50.429688 C 51.929688 50.160156 51.6875 49.863281 51.476562 49.542969 C 51.261719 49.226562 51.082031 48.886719 50.933594 48.535156 C 50.789062 48.179688 50.675781 47.8125 50.601562 47.4375 C 50.527344 47.058594 50.488281 46.679688 50.488281 46.296875 C 50.488281 45.914062 50.527344 45.53125 50.601562 45.15625 C 50.675781 44.78125 50.789062 44.414062 50.933594 44.058594 C 51.082031 43.703125 51.261719 43.367188 51.476562 43.046875 C 51.6875 42.730469 51.929688 42.433594 52.203125 42.164062 C 52.472656 41.890625 52.769531 41.648438 53.089844 41.4375 C 53.40625 41.222656 53.746094 41.042969 54.097656 40.894531 C 54.453125 40.75 54.820312 40.636719 55.195312 40.5625 C 55.570312 40.488281 55.953125 40.449219 56.335938 40.449219 L 74.480469 40.449219 C 74.867188 40.449219 75.246094 40.488281 75.621094 40.5625 C 75.996094 40.636719 76.363281 40.75 76.71875 40.894531 C 77.074219 41.042969 77.410156 41.222656 77.726562 41.433594 C 78.046875 41.648438 78.34375 41.890625 78.613281 42.160156 C 78.886719 42.433594 79.128906 42.726562 79.339844 43.046875 C 79.554688 43.363281 79.734375 43.703125 79.882812 44.054688 C 80.027344 44.410156 80.140625 44.777344 80.214844 45.152344 C 80.289062 45.527344 80.328125 45.910156 80.328125 46.292969 C 80.328125 46.675781 80.289062 47.054688 80.214844 47.433594 C 80.140625 47.808594 80.03125 48.171875 79.886719 48.527344 C 79.738281 48.882812 79.558594 49.21875 79.347656 49.539062 C 79.132812 49.859375 78.890625 50.152344 78.621094 50.425781 C 78.347656 50.695312 78.054688 50.941406 77.734375 51.152344 C 77.417969 51.367188 77.082031 51.546875 76.726562 51.695312 C 76.371094 51.839844 76.007812 51.953125 75.628906 52.027344 C 75.253906 52.105469 74.875 52.140625 74.492188 52.140625 C 74.105469 52.144531 73.726562 52.105469 73.351562 52.03125 C 72.972656 51.957031 72.609375 51.847656 72.253906 51.703125 C 71.898438 51.554688 71.5625 51.375 71.242188 51.164062 C 70.921875 50.949219 70.628906 50.707031 70.355469 50.4375 C 70.085938 50.167969 69.839844 49.871094 69.628906 49.554688 C 69.414062 49.234375 69.234375 48.898438 69.085938 48.546875 C 68.9375 48.191406 68.828125 47.824219 68.75 47.449219 C 68.675781 47.074219 68.636719 46.695312 68.636719 46.308594 Z M 68.636719 46.3125 " fill-opacity="1" fill-rule="nonzero"/><path fill="#0661aa" d="M 74.847656 48.679688 C 75.054688 48.679688 75.199219 48.585938 75.292969 48.402344 C 75.382812 48.214844 75.363281 48.042969 75.234375 47.878906 L 73.28125 45.382812 C 73.199219 45.277344 73.089844 45.21875 72.953125 45.203125 C 72.820312 45.1875 72.699219 45.222656 72.59375 45.304688 C 72.484375 45.386719 72.425781 45.496094 72.40625 45.632812 C 72.390625 45.765625 72.421875 45.886719 72.503906 45.992188 L 74.457031 48.488281 C 74.554688 48.617188 74.683594 48.679688 74.847656 48.679688 Z M 74.847656 48.679688 " fill-opacity="1" fill-rule="nonzero"/><path fill="#0661aa" d="M 74.0625 31.816406 C 74.0625 32.136719 74.125 32.449219 74.246094 32.75 C 74.371094 33.046875 74.546875 33.3125 74.777344 33.539062 C 75.007812 33.769531 75.269531 33.945312 75.570312 34.066406 C 75.871094 34.191406 76.179688 34.253906 76.503906 34.253906 C 76.828125 34.253906 77.140625 34.191406 77.4375 34.066406 C 77.738281 33.941406 78 33.765625 78.230469 33.535156 C 78.457031 33.308594 78.632812 33.042969 78.757812 32.746094 C 78.882812 32.445312 78.945312 32.132812 78.941406 31.8125 C 78.941406 31.488281 78.882812 31.175781 78.757812 30.875 C 78.632812 30.578125 78.457031 30.3125 78.226562 30.085938 C 78 29.855469 77.734375 29.679688 77.433594 29.554688 C 77.136719 29.433594 76.824219 29.371094 76.5 29.371094 C 76.175781 29.371094 75.867188 29.433594 75.566406 29.558594 C 75.269531 29.683594 75.003906 29.859375 74.777344 30.089844 C 74.546875 30.316406 74.371094 30.582031 74.246094 30.878906 C 74.121094 31.179688 74.0625 31.492188 74.0625 31.816406 Z M 76.5 30.363281 C 76.695312 30.363281 76.878906 30.398438 77.054688 30.472656 C 77.234375 30.546875 77.390625 30.648438 77.527344 30.785156 C 77.664062 30.921875 77.769531 31.078125 77.84375 31.257812 C 77.914062 31.433594 77.953125 31.621094 77.953125 31.8125 C 77.953125 32.003906 77.914062 32.1875 77.84375 32.367188 C 77.769531 32.542969 77.664062 32.703125 77.527344 32.835938 C 77.390625 32.972656 77.234375 33.078125 77.058594 33.152344 C 76.878906 33.226562 76.695312 33.261719 76.5 33.261719 C 76.308594 33.261719 76.125 33.226562 75.945312 33.152344 C 75.769531 33.078125 75.613281 32.972656 75.476562 32.835938 C 75.339844 32.699219 75.234375 32.542969 75.160156 32.367188 C 75.089844 32.1875 75.050781 32.003906 75.050781 31.8125 C 75.050781 31.621094 75.089844 31.433594 75.164062 31.257812 C 75.238281 31.078125 75.339844 30.921875 75.476562 30.785156 C 75.613281 30.652344 75.769531 30.546875 75.945312 30.472656 C 76.125 30.398438 76.308594 30.363281 76.5 30.363281 Z M 76.5 30.363281 " fill-opacity="1" fill-rule="nonzero"/><path fill="#0661aa" d="M 72.898438 29.21875 C 73.148438 29.21875 73.390625 29.171875 73.625 29.074219 C 73.859375 28.976562 74.0625 28.839844 74.242188 28.664062 C 74.417969 28.484375 74.558594 28.277344 74.652344 28.046875 C 74.75 27.8125 74.796875 27.570312 74.796875 27.320312 C 74.796875 27.066406 74.75 26.824219 74.652344 26.59375 C 74.558594 26.359375 74.421875 26.15625 74.242188 25.976562 C 74.0625 25.796875 73.859375 25.660156 73.625 25.566406 C 73.394531 25.46875 73.152344 25.421875 72.898438 25.421875 C 72.648438 25.421875 72.40625 25.46875 72.171875 25.566406 C 71.941406 25.660156 71.734375 25.796875 71.554688 25.976562 C 71.378906 26.15625 71.242188 26.359375 71.144531 26.59375 C 71.046875 26.824219 71 27.066406 71 27.320312 C 71 27.570312 71.050781 27.8125 71.144531 28.046875 C 71.242188 28.277344 71.378906 28.484375 71.558594 28.660156 C 71.734375 28.839844 71.941406 28.976562 72.171875 29.074219 C 72.40625 29.167969 72.648438 29.21875 72.898438 29.21875 Z M 72.898438 26.414062 C 73.148438 26.410156 73.363281 26.5 73.539062 26.675781 C 73.71875 26.855469 73.808594 27.070312 73.808594 27.320312 C 73.808594 27.570312 73.71875 27.785156 73.542969 27.960938 C 73.363281 28.140625 73.148438 28.226562 72.898438 28.226562 C 72.648438 28.226562 72.433594 28.140625 72.257812 27.960938 C 72.078125 27.785156 71.992188 27.570312 71.992188 27.320312 C 71.992188 27.070312 72.082031 26.855469 72.257812 26.679688 C 72.433594 26.5 72.648438 26.414062 72.898438 26.414062 Z M 72.898438 26.414062 " fill-opacity="1" fill-rule="nonzero"/><g clip-path="url(#3d0337daf5)"><path fill="#0661aa" d="M 78.636719 25.457031 C 78.890625 25.457031 79.132812 25.40625 79.363281 25.3125 C 79.597656 25.214844 79.804688 25.078125 79.980469 24.898438 C 80.160156 24.722656 80.296875 24.515625 80.394531 24.285156 C 80.488281 24.050781 80.539062 23.808594 80.539062 23.558594 C 80.539062 23.304688 80.488281 23.0625 80.394531 22.832031 C 80.296875 22.597656 80.160156 22.390625 79.980469 22.214844 C 79.804688 22.035156 79.597656 21.898438 79.367188 21.800781 C 79.132812 21.707031 78.890625 21.65625 78.640625 21.65625 C 78.386719 21.65625 78.144531 21.707031 77.914062 21.800781 C 77.679688 21.898438 77.472656 22.035156 77.296875 22.214844 C 77.117188 22.390625 76.980469 22.597656 76.882812 22.828125 C 76.789062 23.0625 76.738281 23.304688 76.738281 23.558594 C 76.742188 23.808594 76.789062 24.050781 76.886719 24.28125 C 76.980469 24.515625 77.117188 24.71875 77.296875 24.898438 C 77.472656 25.078125 77.679688 25.214844 77.910156 25.308594 C 78.144531 25.40625 78.386719 25.453125 78.636719 25.457031 Z M 78.636719 22.648438 C 78.890625 22.648438 79.101562 22.738281 79.28125 22.914062 C 79.457031 23.09375 79.546875 23.304688 79.546875 23.558594 C 79.546875 23.808594 79.457031 24.023438 79.28125 24.199219 C 79.101562 24.378906 78.890625 24.464844 78.636719 24.464844 C 78.386719 24.464844 78.171875 24.375 77.996094 24.199219 C 77.820312 24.023438 77.730469 23.808594 77.730469 23.558594 C 77.730469 23.304688 77.820312 23.09375 77.996094 22.914062 C 78.175781 22.738281 78.386719 22.648438 78.636719 22.648438 Z M 78.636719 22.648438 " fill-opacity="1" fill-rule="nonzero"/></g><path fill="#0661aa" d="M 77.113281 47.617188 C 77.199219 47.730469 77.308594 47.792969 77.445312 47.8125 C 77.585938 47.832031 77.707031 47.796875 77.816406 47.710938 C 77.925781 47.625 77.988281 47.511719 78.003906 47.375 C 78.019531 47.234375 77.984375 47.113281 77.894531 47.003906 L 74.460938 42.636719 C 74.375 42.53125 74.265625 42.472656 74.132812 42.457031 C 73.996094 42.441406 73.878906 42.476562 73.773438 42.5625 C 73.667969 42.644531 73.605469 42.75 73.585938 42.886719 C 73.570312 43.019531 73.601562 43.140625 73.679688 43.246094 Z M 77.113281 47.617188 " fill-opacity="1" fill-rule="nonzero"/><g clip-path="url(#bcfcae288f)"><path fill="#0661aa" d="M 90.148438 25.019531 L 87.570312 25.019531 C 87.386719 25.019531 87.226562 25.085938 87.09375 25.214844 C 86.960938 25.347656 86.894531 25.507812 86.894531 25.695312 L 86.894531 59.328125 C 86.898438 59.703125 86.863281 60.074219 86.796875 60.445312 C 86.726562 60.8125 86.628906 61.171875 86.492188 61.523438 C 86.355469 61.871094 86.191406 62.207031 85.996094 62.523438 C 85.796875 62.84375 85.574219 63.140625 85.320312 63.417969 C 85.066406 63.695312 84.792969 63.945312 84.492188 64.171875 C 84.191406 64.398438 83.875 64.59375 83.539062 64.757812 C 83.203125 64.925781 82.855469 65.058594 82.496094 65.160156 C 82.132812 65.261719 81.765625 65.328125 81.394531 65.363281 C 81.019531 65.394531 80.648438 65.394531 80.273438 65.359375 C 79.902344 65.320312 79.535156 65.25 79.175781 65.144531 C 78.8125 65.042969 78.46875 64.902344 78.132812 64.734375 C 77.796875 64.566406 77.484375 64.367188 77.1875 64.136719 C 76.886719 63.910156 76.613281 63.65625 76.363281 63.375 C 76.113281 63.097656 75.894531 62.796875 75.699219 62.476562 C 75.503906 62.15625 75.339844 61.820312 75.210938 61.46875 C 75.078125 61.117188 74.980469 60.757812 74.914062 60.390625 C 75.539062 60.28125 76.144531 60.109375 76.734375 59.878906 C 76.90625 59.8125 77.03125 59.691406 77.109375 59.523438 C 77.183594 59.351562 77.1875 59.179688 77.117188 59.003906 C 77.050781 58.828125 76.929688 58.703125 76.757812 58.628906 C 76.589844 58.554688 76.414062 58.550781 76.242188 58.621094 C 72.953125 59.90625 69.585938 58.632812 69.554688 58.621094 C 69.378906 58.550781 69.207031 58.554688 69.035156 58.632812 C 68.863281 58.707031 68.746094 58.832031 68.675781 59.003906 C 68.609375 59.179688 68.613281 59.351562 68.6875 59.523438 C 68.761719 59.695312 68.886719 59.8125 69.0625 59.878906 C 69.652344 60.09375 70.253906 60.253906 70.875 60.355469 C 70.9375 60.972656 71.054688 61.574219 71.226562 62.167969 C 71.402344 62.761719 71.628906 63.332031 71.910156 63.882812 C 72.191406 64.433594 72.519531 64.957031 72.894531 65.445312 C 73.273438 65.933594 73.691406 66.386719 74.152344 66.796875 C 74.613281 67.210938 75.105469 67.578125 75.636719 67.898438 C 76.164062 68.21875 76.71875 68.488281 77.296875 68.707031 C 77.875 68.921875 78.46875 69.085938 79.074219 69.195312 C 79.683594 69.300781 80.296875 69.351562 80.914062 69.347656 C 81.535156 69.339844 82.144531 69.277344 82.75 69.160156 C 83.359375 69.039062 83.949219 68.867188 84.523438 68.636719 C 85.097656 68.40625 85.644531 68.128906 86.167969 67.796875 C 86.6875 67.46875 87.175781 67.09375 87.628906 66.671875 C 88.082031 66.25 88.492188 65.792969 88.859375 65.292969 C 89.226562 64.796875 89.546875 64.269531 89.816406 63.714844 C 90.085938 63.160156 90.300781 62.582031 90.464844 61.988281 C 90.628906 61.390625 90.734375 60.785156 90.785156 60.167969 C 90.808594 60.097656 90.820312 60.027344 90.820312 59.953125 L 90.820312 25.695312 C 90.820312 25.507812 90.753906 25.347656 90.625 25.21875 C 90.492188 25.085938 90.332031 25.019531 90.148438 25.019531 Z M 89.472656 26.371094 L 89.472656 33.082031 L 88.246094 33.082031 L 88.246094 26.371094 Z M 72.253906 60.527344 C 72.503906 60.542969 72.761719 60.554688 73.027344 60.554688 C 73.207031 60.554688 73.386719 60.550781 73.574219 60.539062 C 73.859375 62.25 74.652344 63.679688 75.945312 64.832031 L 75.144531 65.863281 C 74.355469 65.179688 73.710938 64.378906 73.214844 63.457031 C 72.714844 62.539062 72.394531 61.5625 72.253906 60.527344 Z M 80.820312 67.980469 C 79.03125 67.984375 77.398438 67.480469 75.921875 66.46875 L 76.722656 65.441406 C 77.277344 65.816406 77.871094 66.113281 78.507812 66.328125 C 79.144531 66.542969 79.796875 66.667969 80.464844 66.707031 C 81.136719 66.742188 81.796875 66.6875 82.453125 66.546875 C 83.109375 66.402344 83.734375 66.171875 84.324219 65.859375 C 84.917969 65.542969 85.457031 65.15625 85.945312 64.695312 C 86.429688 64.230469 86.847656 63.714844 87.191406 63.136719 C 87.539062 62.5625 87.800781 61.953125 87.976562 61.304688 C 88.15625 60.660156 88.246094 60 88.242188 59.328125 L 88.242188 34.070312 L 89.46875 34.070312 L 89.46875 59.328125 C 89.46875 59.898438 89.410156 60.460938 89.300781 61.015625 C 89.1875 61.574219 89.023438 62.113281 88.808594 62.636719 C 88.589844 63.160156 88.324219 63.660156 88.007812 64.132812 C 87.691406 64.605469 87.332031 65.039062 86.933594 65.441406 C 86.53125 65.84375 86.09375 66.203125 85.621094 66.515625 C 85.152344 66.832031 84.652344 67.101562 84.128906 67.316406 C 83.605469 67.535156 83.0625 67.699219 82.507812 67.8125 C 81.949219 67.921875 81.390625 67.980469 80.820312 67.980469 Z M 80.820312 67.980469 " fill-opacity="1" fill-rule="nonzero"/></g><g fill="#2d6d5e" fill-opacity="1"><g transform="translate(28.305395, 123.456672)"><g><path d="M 0.8125 0 L 0.8125 -7.8125 L 1.65625 -7.8125 L 1.65625 0 Z M 0.8125 0 "/></g></g></g><g fill="#2d6d5e" fill-opacity="1"><g transform="translate(32.285084, 123.456672)"><g><path d="M 2.828125 -5.96875 C 3.285156 -5.96875 3.632812 -5.804688 3.875 -5.484375 C 4.113281 -5.160156 4.234375 -4.664062 4.234375 -4 L 4.234375 0 L 3.40625 0 L 3.40625 -3.828125 C 3.40625 -4.304688 3.34375 -4.660156 3.21875 -4.890625 C 3.101562 -5.128906 2.914062 -5.25 2.65625 -5.25 C 2.269531 -5.25 1.984375 -5.078125 1.796875 -4.734375 C 1.617188 -4.390625 1.53125 -3.84375 1.53125 -3.09375 L 1.53125 0 L 0.71875 0 L 0.71875 -5.859375 L 1.375 -5.859375 L 1.46875 -5.015625 L 1.515625 -5.015625 C 1.597656 -5.210938 1.703125 -5.378906 1.828125 -5.515625 C 1.960938 -5.660156 2.113281 -5.769531 2.28125 -5.84375 C 2.445312 -5.925781 2.628906 -5.96875 2.828125 -5.96875 Z M 2.828125 -5.96875 "/></g></g></g><g fill="#2d6d5e" fill-opacity="1"><g transform="translate(38.749003, 123.456672)"><g><path d="M 2.40625 0.109375 C 1.976562 0.109375 1.617188 0 1.328125 -0.21875 C 1.046875 -0.445312 0.832031 -0.785156 0.6875 -1.234375 C 0.539062 -1.679688 0.46875 -2.234375 0.46875 -2.890625 C 0.46875 -3.535156 0.539062 -4.085938 0.6875 -4.546875 C 0.832031 -5.003906 1.050781 -5.351562 1.34375 -5.59375 C 1.632812 -5.84375 2 -5.96875 2.4375 -5.96875 C 2.65625 -5.96875 2.851562 -5.941406 3.03125 -5.890625 C 3.207031 -5.847656 3.375 -5.785156 3.53125 -5.703125 L 3.265625 -5.03125 C 3.140625 -5.09375 3.007812 -5.140625 2.875 -5.171875 C 2.75 -5.210938 2.625 -5.234375 2.5 -5.234375 C 2.238281 -5.234375 2.019531 -5.144531 1.84375 -4.96875 C 1.675781 -4.789062 1.546875 -4.53125 1.453125 -4.1875 C 1.359375 -3.84375 1.3125 -3.414062 1.3125 -2.90625 C 1.3125 -2.394531 1.351562 -1.96875 1.4375 -1.625 C 1.53125 -1.289062 1.664062 -1.035156 1.84375 -0.859375 C 2.019531 -0.691406 2.238281 -0.609375 2.5 -0.609375 C 2.65625 -0.609375 2.8125 -0.628906 2.96875 -0.671875 C 3.132812 -0.722656 3.300781 -0.789062 3.46875 -0.875 L 3.46875 -0.1875 C 3.3125 -0.09375 3.132812 -0.0195312 2.9375 0.03125 C 2.75 0.0820312 2.570312 0.109375 2.40625 0.109375 Z M 2.40625 0.109375 "/></g></g></g><g fill="#2d6d5e" fill-opacity="1"><g transform="translate(44.037587, 123.456672)"><g><path d="M 2.671875 -5.96875 C 2.753906 -5.96875 2.835938 -5.957031 2.921875 -5.9375 C 3.003906 -5.925781 3.085938 -5.910156 3.171875 -5.890625 L 3.046875 -5.046875 C 2.984375 -5.066406 2.914062 -5.082031 2.84375 -5.09375 C 2.769531 -5.101562 2.691406 -5.109375 2.609375 -5.109375 C 2.453125 -5.109375 2.304688 -5.054688 2.171875 -4.953125 C 2.035156 -4.847656 1.921875 -4.703125 1.828125 -4.515625 C 1.734375 -4.328125 1.660156 -4.109375 1.609375 -3.859375 C 1.554688 -3.609375 1.53125 -3.34375 1.53125 -3.0625 L 1.53125 0 L 0.71875 0 L 0.71875 -5.859375 L 1.359375 -5.859375 L 1.46875 -4.828125 L 1.515625 -4.828125 C 1.597656 -5.046875 1.691406 -5.238281 1.796875 -5.40625 C 1.910156 -5.582031 2.039062 -5.71875 2.1875 -5.8125 C 2.332031 -5.914062 2.492188 -5.96875 2.671875 -5.96875 Z M 2.671875 -5.96875 "/></g></g></g><g fill="#2d6d5e" fill-opacity="1"><g transform="translate(48.850695, 123.456672)"><g><path d="M 2.328125 -5.953125 C 2.722656 -5.953125 3.050781 -5.835938 3.3125 -5.609375 C 3.570312 -5.378906 3.765625 -5.066406 3.890625 -4.671875 C 4.015625 -4.285156 4.078125 -3.851562 4.078125 -3.375 L 4.078125 -2.78125 L 1.28125 -2.78125 C 1.289062 -2.050781 1.40625 -1.503906 1.625 -1.140625 C 1.84375 -0.773438 2.171875 -0.59375 2.609375 -0.59375 C 2.828125 -0.59375 3.035156 -0.625 3.234375 -0.6875 C 3.441406 -0.75 3.648438 -0.851562 3.859375 -1 L 3.859375 -0.265625 C 3.660156 -0.140625 3.453125 -0.046875 3.234375 0.015625 C 3.015625 0.078125 2.78125 0.109375 2.53125 0.109375 C 2.039062 0.109375 1.644531 -0.0195312 1.34375 -0.28125 C 1.039062 -0.539062 0.816406 -0.898438 0.671875 -1.359375 C 0.535156 -1.816406 0.46875 -2.332031 0.46875 -2.90625 C 0.46875 -3.550781 0.535156 -4.101562 0.671875 -4.5625 C 0.816406 -5.019531 1.023438 -5.363281 1.296875 -5.59375 C 1.578125 -5.832031 1.921875 -5.953125 2.328125 -5.953125 Z M 2.328125 -5.28125 C 2.015625 -5.28125 1.769531 -5.128906 1.59375 -4.828125 C 1.425781 -4.535156 1.328125 -4.070312 1.296875 -3.4375 L 3.3125 -3.4375 C 3.3125 -3.769531 3.273438 -4.078125 3.203125 -4.359375 C 3.140625 -4.640625 3.035156 -4.863281 2.890625 -5.03125 C 2.742188 -5.195312 2.554688 -5.28125 2.328125 -5.28125 Z M 2.328125 -5.28125 "/></g></g></g><g fill="#2d6d5e" fill-opacity="1"><g transform="translate(54.908589, 123.456672)"><g><path d="M 2.28125 -5.96875 C 2.820312 -5.96875 3.207031 -5.796875 3.4375 -5.453125 C 3.675781 -5.109375 3.796875 -4.609375 3.796875 -3.953125 L 3.796875 0 L 3.171875 0 L 3.046875 -0.828125 L 3.015625 -0.828125 C 2.929688 -0.628906 2.820312 -0.457031 2.6875 -0.3125 C 2.5625 -0.175781 2.414062 -0.0703125 2.25 0 C 2.09375 0.0703125 1.90625 0.109375 1.6875 0.109375 C 1.382812 0.109375 1.132812 0.03125 0.9375 -0.125 C 0.75 -0.289062 0.609375 -0.503906 0.515625 -0.765625 C 0.421875 -1.023438 0.375 -1.304688 0.375 -1.609375 C 0.375 -2.191406 0.539062 -2.640625 0.875 -2.953125 C 1.21875 -3.273438 1.695312 -3.453125 2.3125 -3.484375 L 2.96875 -3.53125 L 2.96875 -3.9375 C 2.96875 -4.40625 2.90625 -4.742188 2.78125 -4.953125 C 2.65625 -5.171875 2.445312 -5.28125 2.15625 -5.28125 C 2 -5.28125 1.828125 -5.25 1.640625 -5.1875 C 1.460938 -5.132812 1.269531 -5.046875 1.0625 -4.921875 L 0.796875 -5.546875 C 1.015625 -5.691406 1.25 -5.796875 1.5 -5.859375 C 1.757812 -5.929688 2.019531 -5.96875 2.28125 -5.96875 Z M 2.984375 -2.921875 L 2.4375 -2.890625 C 2.03125 -2.867188 1.722656 -2.753906 1.515625 -2.546875 C 1.316406 -2.335938 1.21875 -2.035156 1.21875 -1.640625 C 1.21875 -1.265625 1.28125 -0.988281 1.40625 -0.8125 C 1.539062 -0.644531 1.722656 -0.5625 1.953125 -0.5625 C 2.285156 -0.5625 2.539062 -0.71875 2.71875 -1.03125 C 2.894531 -1.34375 2.984375 -1.773438 2.984375 -2.328125 Z M 2.984375 -2.921875 "/></g></g></g><g fill="#2d6d5e" fill-opacity="1"><g transform="translate(60.934429, 123.456672)"><g><path d="M 3.328125 -1.546875 C 3.328125 -1.191406 3.257812 -0.890625 3.125 -0.640625 C 3 -0.398438 2.8125 -0.210938 2.5625 -0.078125 C 2.320312 0.046875 2.03125 0.109375 1.6875 0.109375 C 1.414062 0.109375 1.164062 0.078125 0.9375 0.015625 C 0.71875 -0.046875 0.53125 -0.125 0.375 -0.21875 L 0.375 -1.078125 C 0.53125 -0.941406 0.722656 -0.832031 0.953125 -0.75 C 1.179688 -0.664062 1.414062 -0.625 1.65625 -0.625 C 1.925781 -0.625 2.132812 -0.703125 2.28125 -0.859375 C 2.4375 -1.015625 2.515625 -1.234375 2.515625 -1.515625 C 2.515625 -1.679688 2.484375 -1.828125 2.421875 -1.953125 C 2.359375 -2.078125 2.257812 -2.195312 2.125 -2.3125 C 1.988281 -2.425781 1.816406 -2.546875 1.609375 -2.671875 C 1.359375 -2.816406 1.140625 -2.96875 0.953125 -3.125 C 0.765625 -3.289062 0.617188 -3.476562 0.515625 -3.6875 C 0.421875 -3.894531 0.375 -4.144531 0.375 -4.4375 C 0.375 -4.894531 0.519531 -5.265625 0.8125 -5.546875 C 1.113281 -5.828125 1.503906 -5.96875 1.984375 -5.96875 C 2.234375 -5.96875 2.46875 -5.9375 2.6875 -5.875 C 2.90625 -5.8125 3.113281 -5.71875 3.3125 -5.59375 L 3 -4.9375 C 2.851562 -5.039062 2.691406 -5.117188 2.515625 -5.171875 C 2.347656 -5.234375 2.175781 -5.265625 2 -5.265625 C 1.738281 -5.265625 1.53125 -5.191406 1.375 -5.046875 C 1.226562 -4.898438 1.15625 -4.707031 1.15625 -4.46875 C 1.15625 -4.300781 1.1875 -4.15625 1.25 -4.03125 C 1.3125 -3.914062 1.410156 -3.800781 1.546875 -3.6875 C 1.679688 -3.582031 1.863281 -3.460938 2.09375 -3.328125 C 2.34375 -3.171875 2.554688 -3.015625 2.734375 -2.859375 C 2.921875 -2.703125 3.066406 -2.519531 3.171875 -2.3125 C 3.273438 -2.101562 3.328125 -1.847656 3.328125 -1.546875 Z M 3.328125 -1.546875 "/></g></g></g><g fill="#2d6d5e" fill-opacity="1"><g transform="translate(66.142877, 123.456672)"><g><path d="M 2.328125 -5.953125 C 2.722656 -5.953125 3.050781 -5.835938 3.3125 -5.609375 C 3.570312 -5.378906 3.765625 -5.066406 3.890625 -4.671875 C 4.015625 -4.285156 4.078125 -3.851562 4.078125 -3.375 L 4.078125 -2.78125 L 1.28125 -2.78125 C 1.289062 -2.050781 1.40625 -1.503906 1.625 -1.140625 C 1.84375 -0.773438 2.171875 -0.59375 2.609375 -0.59375 C 2.828125 -0.59375 3.035156 -0.625 3.234375 -0.6875 C 3.441406 -0.75 3.648438 -0.851562 3.859375 -1 L 3.859375 -0.265625 C 3.660156 -0.140625 3.453125 -0.046875 3.234375 0.015625 C 3.015625 0.078125 2.78125 0.109375 2.53125 0.109375 C 2.039062 0.109375 1.644531 -0.0195312 1.34375 -0.28125 C 1.039062 -0.539062 0.816406 -0.898438 0.671875 -1.359375 C 0.535156 -1.816406 0.46875 -2.332031 0.46875 -2.90625 C 0.46875 -3.550781 0.535156 -4.101562 0.671875 -4.5625 C 0.816406 -5.019531 1.023438 -5.363281 1.296875 -5.59375 C 1.578125 -5.832031 1.921875 -5.953125 2.328125 -5.953125 Z M 2.328125 -5.28125 C 2.015625 -5.28125 1.769531 -5.128906 1.59375 -4.828125 C 1.425781 -4.535156 1.328125 -4.070312 1.296875 -3.4375 L 3.3125 -3.4375 C 3.3125 -3.769531 3.273438 -4.078125 3.203125 -4.359375 C 3.140625 -4.640625 3.035156 -4.863281 2.890625 -5.03125 C 2.742188 -5.195312 2.554688 -5.28125 2.328125 -5.28125 Z M 2.328125 -5.28125 "/></g></g></g><g fill="#2d6d5e" fill-opacity="1"><g transform="translate(72.200771, 123.456672)"><g/></g></g><g fill="#2d6d5e" fill-opacity="1"><g transform="translate(75.763751, 123.456672)"><g><path d="M 1.53125 -8.3125 L 1.53125 -5.859375 C 1.53125 -5.742188 1.523438 -5.613281 1.515625 -5.46875 C 1.515625 -5.332031 1.515625 -5.1875 1.515625 -5.03125 L 1.546875 -5.03125 C 1.691406 -5.34375 1.875 -5.570312 2.09375 -5.71875 C 2.3125 -5.875 2.5625 -5.953125 2.84375 -5.953125 C 3.40625 -5.953125 3.832031 -5.695312 4.125 -5.1875 C 4.414062 -4.675781 4.5625 -3.925781 4.5625 -2.9375 C 4.5625 -2.28125 4.492188 -1.722656 4.359375 -1.265625 C 4.234375 -0.816406 4.039062 -0.472656 3.78125 -0.234375 C 3.53125 -0.00390625 3.226562 0.109375 2.875 0.109375 C 2.582031 0.109375 2.328125 0.0351562 2.109375 -0.109375 C 1.890625 -0.253906 1.703125 -0.476562 1.546875 -0.78125 L 1.5 -0.78125 L 1.390625 0 L 0.71875 0 L 0.71875 -8.3125 Z M 2.671875 -5.234375 C 2.367188 -5.234375 2.132812 -5.140625 1.96875 -4.953125 C 1.8125 -4.765625 1.695312 -4.503906 1.625 -4.171875 C 1.5625 -3.835938 1.53125 -3.457031 1.53125 -3.03125 L 1.53125 -2.78125 C 1.53125 -2.039062 1.625 -1.492188 1.8125 -1.140625 C 2.007812 -0.785156 2.296875 -0.609375 2.671875 -0.609375 C 3.023438 -0.609375 3.285156 -0.796875 3.453125 -1.171875 C 3.628906 -1.554688 3.71875 -2.148438 3.71875 -2.953125 C 3.71875 -3.703125 3.632812 -4.269531 3.46875 -4.65625 C 3.300781 -5.039062 3.035156 -5.234375 2.671875 -5.234375 Z M 2.671875 -5.234375 "/></g></g></g><g fill="#2d6d5e" fill-opacity="1"><g transform="translate(82.302464, 123.456672)"><g><path d="M 2.671875 -5.96875 C 2.753906 -5.96875 2.835938 -5.957031 2.921875 -5.9375 C 3.003906 -5.925781 3.085938 -5.910156 3.171875 -5.890625 L 3.046875 -5.046875 C 2.984375 -5.066406 2.914062 -5.082031 2.84375 -5.09375 C 2.769531 -5.101562 2.691406 -5.109375 2.609375 -5.109375 C 2.453125 -5.109375 2.304688 -5.054688 2.171875 -4.953125 C 2.035156 -4.847656 1.921875 -4.703125 1.828125 -4.515625 C 1.734375 -4.328125 1.660156 -4.109375 1.609375 -3.859375 C 1.554688 -3.609375 1.53125 -3.34375 1.53125 -3.0625 L 1.53125 0 L 0.71875 0 L 0.71875 -5.859375 L 1.359375 -5.859375 L 1.46875 -4.828125 L 1.515625 -4.828125 C 1.597656 -5.046875 1.691406 -5.238281 1.796875 -5.40625 C 1.910156 -5.582031 2.039062 -5.71875 2.1875 -5.8125 C 2.332031 -5.914062 2.492188 -5.96875 2.671875 -5.96875 Z M 2.671875 -5.96875 "/></g></g></g><g fill="#2d6d5e" fill-opacity="1"><g transform="translate(87.115572, 123.456672)"><g><path d="M 2.328125 -5.953125 C 2.722656 -5.953125 3.050781 -5.835938 3.3125 -5.609375 C 3.570312 -5.378906 3.765625 -5.066406 3.890625 -4.671875 C 4.015625 -4.285156 4.078125 -3.851562 4.078125 -3.375 L 4.078125 -2.78125 L 1.28125 -2.78125 C 1.289062 -2.050781 1.40625 -1.503906 1.625 -1.140625 C 1.84375 -0.773438 2.171875 -0.59375 2.609375 -0.59375 C 2.828125 -0.59375 3.035156 -0.625 3.234375 -0.6875 C 3.441406 -0.75 3.648438 -0.851562 3.859375 -1 L 3.859375 -0.265625 C 3.660156 -0.140625 3.453125 -0.046875 3.234375 0.015625 C 3.015625 0.078125 2.78125 0.109375 2.53125 0.109375 C 2.039062 0.109375 1.644531 -0.0195312 1.34375 -0.28125 C 1.039062 -0.539062 0.816406 -0.898438 0.671875 -1.359375 C 0.535156 -1.816406 0.46875 -2.332031 0.46875 -2.90625 C 0.46875 -3.550781 0.535156 -4.101562 0.671875 -4.5625 C 0.816406 -5.019531 1.023438 -5.363281 1.296875 -5.59375 C 1.578125 -5.832031 1.921875 -5.953125 2.328125 -5.953125 Z M 2.328125 -5.28125 C 2.015625 -5.28125 1.769531 -5.128906 1.59375 -4.828125 C 1.425781 -4.535156 1.328125 -4.070312 1.296875 -3.4375 L 3.3125 -3.4375 C 3.3125 -3.769531 3.273438 -4.078125 3.203125 -4.359375 C 3.140625 -4.640625 3.035156 -4.863281 2.890625 -5.03125 C 2.742188 -5.195312 2.554688 -5.28125 2.328125 -5.28125 Z M 2.328125 -5.28125 "/></g></g></g><g fill="#2d6d5e" fill-opacity="1"><g transform="translate(93.173466, 123.456672)"><g><path d="M 2.28125 -5.96875 C 2.820312 -5.96875 3.207031 -5.796875 3.4375 -5.453125 C 3.675781 -5.109375 3.796875 -4.609375 3.796875 -3.953125 L 3.796875 0 L 3.171875 0 L 3.046875 -0.828125 L 3.015625 -0.828125 C 2.929688 -0.628906 2.820312 -0.457031 2.6875 -0.3125 C 2.5625 -0.175781 2.414062 -0.0703125 2.25 0 C 2.09375 0.0703125 1.90625 0.109375 1.6875 0.109375 C 1.382812 0.109375 1.132812 0.03125 0.9375 -0.125 C 0.75 -0.289062 0.609375 -0.503906 0.515625 -0.765625 C 0.421875 -1.023438 0.375 -1.304688 0.375 -1.609375 C 0.375 -2.191406 0.539062 -2.640625 0.875 -2.953125 C 1.21875 -3.273438 1.695312 -3.453125 2.3125 -3.484375 L 2.96875 -3.53125 L 2.96875 -3.9375 C 2.96875 -4.40625 2.90625 -4.742188 2.78125 -4.953125 C 2.65625 -5.171875 2.445312 -5.28125 2.15625 -5.28125 C 2 -5.28125 1.828125 -5.25 1.640625 -5.1875 C 1.460938 -5.132812 1.269531 -5.046875 1.0625 -4.921875 L 0.796875 -5.546875 C 1.015625 -5.691406 1.25 -5.796875 1.5 -5.859375 C 1.757812 -5.929688 2.019531 -5.96875 2.28125 -5.96875 Z M 2.984375 -2.921875 L 2.4375 -2.890625 C 2.03125 -2.867188 1.722656 -2.753906 1.515625 -2.546875 C 1.316406 -2.335938 1.21875 -2.035156 1.21875 -1.640625 C 1.21875 -1.265625 1.28125 -0.988281 1.40625 -0.8125 C 1.539062 -0.644531 1.722656 -0.5625 1.953125 -0.5625 C 2.285156 -0.5625 2.539062 -0.71875 2.71875 -1.03125 C 2.894531 -1.34375 2.984375 -1.773438 2.984375 -2.328125 Z M 2.984375 -2.921875 "/></g></g></g><g fill="#2d6d5e" fill-opacity="1"><g transform="translate(99.199306, 123.456672)"><g><path d="M 2.09375 -0.625 C 2.1875 -0.625 2.273438 -0.628906 2.359375 -0.640625 C 2.453125 -0.660156 2.535156 -0.691406 2.609375 -0.734375 L 2.609375 -0.0625 C 2.503906 -0.0078125 2.382812 0.03125 2.25 0.0625 C 2.125 0.09375 1.984375 0.109375 1.828125 0.109375 C 1.578125 0.109375 1.367188 0.0507812 1.203125 -0.0625 C 1.046875 -0.175781 0.925781 -0.34375 0.84375 -0.5625 C 0.769531 -0.789062 0.734375 -1.078125 0.734375 -1.421875 L 0.734375 -5.171875 L 0.1875 -5.171875 L 0.1875 -5.625 L 0.78125 -5.84375 L 1 -7.1875 L 1.5625 -7.1875 L 1.5625 -5.859375 L 2.546875 -5.859375 L 2.546875 -5.171875 L 1.5625 -5.171875 L 1.5625 -1.515625 C 1.5625 -1.210938 1.597656 -0.988281 1.671875 -0.84375 C 1.742188 -0.695312 1.882812 -0.625 2.09375 -0.625 Z M 2.09375 -0.625 "/></g></g></g><g fill="#2d6d5e" fill-opacity="1"><g transform="translate(103.504883, 123.456672)"><g><path d="M 1.53125 -8.3125 L 1.53125 -5.890625 C 1.53125 -5.734375 1.523438 -5.582031 1.515625 -5.4375 C 1.515625 -5.300781 1.503906 -5.164062 1.484375 -5.03125 L 1.53125 -5.03125 C 1.601562 -5.226562 1.703125 -5.394531 1.828125 -5.53125 C 1.960938 -5.664062 2.113281 -5.769531 2.28125 -5.84375 C 2.445312 -5.925781 2.625 -5.96875 2.8125 -5.96875 C 3.144531 -5.96875 3.414062 -5.890625 3.625 -5.734375 C 3.832031 -5.585938 3.984375 -5.367188 4.078125 -5.078125 C 4.179688 -4.785156 4.234375 -4.421875 4.234375 -3.984375 L 4.234375 0 L 3.40625 0 L 3.40625 -3.828125 C 3.40625 -4.328125 3.34375 -4.6875 3.21875 -4.90625 C 3.101562 -5.125 2.910156 -5.234375 2.640625 -5.234375 C 2.390625 -5.234375 2.179688 -5.15625 2.015625 -5 C 1.859375 -4.851562 1.738281 -4.617188 1.65625 -4.296875 C 1.570312 -3.972656 1.53125 -3.566406 1.53125 -3.078125 L 1.53125 0 L 0.71875 0 L 0.71875 -8.3125 Z M 1.53125 -8.3125 "/></g></g></g><g fill="#2d6d5e" fill-opacity="1"><g transform="translate(34.405926, 136.147643)"><g><path d="M 1.53125 -8.3125 L 1.53125 -5.890625 C 1.53125 -5.734375 1.523438 -5.582031 1.515625 -5.4375 C 1.515625 -5.300781 1.503906 -5.164062 1.484375 -5.03125 L 1.53125 -5.03125 C 1.601562 -5.226562 1.703125 -5.394531 1.828125 -5.53125 C 1.960938 -5.664062 2.113281 -5.769531 2.28125 -5.84375 C 2.445312 -5.925781 2.625 -5.96875 2.8125 -5.96875 C 3.144531 -5.96875 3.414062 -5.890625 3.625 -5.734375 C 3.832031 -5.585938 3.984375 -5.367188 4.078125 -5.078125 C 4.179688 -4.785156 4.234375 -4.421875 4.234375 -3.984375 L 4.234375 0 L 3.40625 0 L 3.40625 -3.828125 C 3.40625 -4.328125 3.34375 -4.6875 3.21875 -4.90625 C 3.101562 -5.125 2.910156 -5.234375 2.640625 -5.234375 C 2.390625 -5.234375 2.179688 -5.15625 2.015625 -5 C 1.859375 -4.851562 1.738281 -4.617188 1.65625 -4.296875 C 1.570312 -3.972656 1.53125 -3.566406 1.53125 -3.078125 L 1.53125 0 L 0.71875 0 L 0.71875 -8.3125 Z M 1.53125 -8.3125 "/></g></g></g><g fill="#2d6d5e" fill-opacity="1"><g transform="translate(40.869845, 136.147643)"><g><path d="M 4.359375 -2.9375 C 4.359375 -2.476562 4.316406 -2.0625 4.234375 -1.6875 C 4.160156 -1.3125 4.039062 -0.988281 3.875 -0.71875 C 3.71875 -0.457031 3.515625 -0.253906 3.265625 -0.109375 C 3.023438 0.0351562 2.734375 0.109375 2.390625 0.109375 C 2.078125 0.109375 1.796875 0.0351562 1.546875 -0.109375 C 1.304688 -0.253906 1.101562 -0.457031 0.9375 -0.71875 C 0.78125 -0.976562 0.660156 -1.296875 0.578125 -1.671875 C 0.503906 -2.054688 0.46875 -2.476562 0.46875 -2.9375 C 0.46875 -3.582031 0.535156 -4.128906 0.671875 -4.578125 C 0.804688 -5.035156 1.019531 -5.378906 1.3125 -5.609375 C 1.601562 -5.847656 1.96875 -5.96875 2.40625 -5.96875 C 2.820312 -5.96875 3.175781 -5.851562 3.46875 -5.625 C 3.757812 -5.394531 3.976562 -5.054688 4.125 -4.609375 C 4.28125 -4.160156 4.359375 -3.601562 4.359375 -2.9375 Z M 1.296875 -2.9375 C 1.296875 -2.425781 1.332031 -2 1.40625 -1.65625 C 1.488281 -1.3125 1.613281 -1.050781 1.78125 -0.875 C 1.945312 -0.695312 2.160156 -0.609375 2.421875 -0.609375 C 2.671875 -0.609375 2.875 -0.691406 3.03125 -0.859375 C 3.195312 -1.035156 3.316406 -1.296875 3.390625 -1.640625 C 3.472656 -1.984375 3.515625 -2.414062 3.515625 -2.9375 C 3.515625 -3.445312 3.472656 -3.875 3.390625 -4.21875 C 3.316406 -4.5625 3.195312 -4.816406 3.03125 -4.984375 C 2.875 -5.160156 2.664062 -5.25 2.40625 -5.25 C 2.019531 -5.25 1.738281 -5.054688 1.5625 -4.671875 C 1.382812 -4.285156 1.296875 -3.707031 1.296875 -2.9375 Z M 1.296875 -2.9375 "/></g></g></g><g fill="#2d6d5e" fill-opacity="1"><g transform="translate(47.221573, 136.147643)"><g><path d="M 1.53125 0 L 0.71875 0 L 0.71875 -8.3125 L 1.53125 -8.3125 Z M 1.53125 0 "/></g></g></g><g fill="#2d6d5e" fill-opacity="1"><g transform="translate(50.998249, 136.147643)"><g><path d="M 2.171875 0.109375 C 1.609375 0.109375 1.179688 -0.144531 0.890625 -0.65625 C 0.609375 -1.175781 0.46875 -1.929688 0.46875 -2.921875 C 0.46875 -3.898438 0.613281 -4.648438 0.90625 -5.171875 C 1.195312 -5.703125 1.609375 -5.96875 2.140625 -5.96875 C 2.335938 -5.96875 2.519531 -5.929688 2.6875 -5.859375 C 2.851562 -5.785156 3 -5.679688 3.125 -5.546875 C 3.257812 -5.410156 3.375 -5.25 3.46875 -5.0625 L 3.515625 -5.0625 C 3.503906 -5.226562 3.492188 -5.375 3.484375 -5.5 C 3.484375 -5.632812 3.484375 -5.757812 3.484375 -5.875 L 3.484375 -8.3125 L 4.296875 -8.3125 L 4.296875 0 L 3.640625 0 L 3.53125 -0.796875 L 3.484375 -0.796875 C 3.378906 -0.609375 3.265625 -0.445312 3.140625 -0.3125 C 3.015625 -0.175781 2.875 -0.0703125 2.71875 0 C 2.5625 0.0703125 2.378906 0.109375 2.171875 0.109375 Z M 2.359375 -0.59375 C 2.722656 -0.59375 3 -0.765625 3.1875 -1.109375 C 3.382812 -1.453125 3.484375 -1.960938 3.484375 -2.640625 L 3.484375 -3.046875 C 3.484375 -3.785156 3.390625 -4.332031 3.203125 -4.6875 C 3.023438 -5.050781 2.738281 -5.234375 2.34375 -5.234375 C 1.988281 -5.234375 1.722656 -5.035156 1.546875 -4.640625 C 1.378906 -4.242188 1.296875 -3.671875 1.296875 -2.921875 C 1.296875 -2.148438 1.378906 -1.566406 1.546875 -1.171875 C 1.722656 -0.785156 1.992188 -0.59375 2.359375 -0.59375 Z M 2.359375 -0.59375 "/></g></g></g><g fill="#2d6d5e" fill-opacity="1"><g transform="translate(57.536962, 136.147643)"><g/></g></g><g fill="#2d6d5e" fill-opacity="1"><g transform="translate(61.099942, 136.147643)"><g><path d="M 2.40625 0.109375 C 1.976562 0.109375 1.617188 0 1.328125 -0.21875 C 1.046875 -0.445312 0.832031 -0.785156 0.6875 -1.234375 C 0.539062 -1.679688 0.46875 -2.234375 0.46875 -2.890625 C 0.46875 -3.535156 0.539062 -4.085938 0.6875 -4.546875 C 0.832031 -5.003906 1.050781 -5.351562 1.34375 -5.59375 C 1.632812 -5.84375 2 -5.96875 2.4375 -5.96875 C 2.65625 -5.96875 2.851562 -5.941406 3.03125 -5.890625 C 3.207031 -5.847656 3.375 -5.785156 3.53125 -5.703125 L 3.265625 -5.03125 C 3.140625 -5.09375 3.007812 -5.140625 2.875 -5.171875 C 2.75 -5.210938 2.625 -5.234375 2.5 -5.234375 C 2.238281 -5.234375 2.019531 -5.144531 1.84375 -4.96875 C 1.675781 -4.789062 1.546875 -4.53125 1.453125 -4.1875 C 1.359375 -3.84375 1.3125 -3.414062 1.3125 -2.90625 C 1.3125 -2.394531 1.351562 -1.96875 1.4375 -1.625 C 1.53125 -1.289062 1.664062 -1.035156 1.84375 -0.859375 C 2.019531 -0.691406 2.238281 -0.609375 2.5 -0.609375 C 2.65625 -0.609375 2.8125 -0.628906 2.96875 -0.671875 C 3.132812 -0.722656 3.300781 -0.789062 3.46875 -0.875 L 3.46875 -0.1875 C 3.3125 -0.09375 3.132812 -0.0195312 2.9375 0.03125 C 2.75 0.0820312 2.570312 0.109375 2.40625 0.109375 Z M 2.40625 0.109375 "/></g></g></g><g fill="#2d6d5e" fill-opacity="1"><g transform="translate(66.388526, 136.147643)"><g><path d="M 2.28125 -5.96875 C 2.820312 -5.96875 3.207031 -5.796875 3.4375 -5.453125 C 3.675781 -5.109375 3.796875 -4.609375 3.796875 -3.953125 L 3.796875 0 L 3.171875 0 L 3.046875 -0.828125 L 3.015625 -0.828125 C 2.929688 -0.628906 2.820312 -0.457031 2.6875 -0.3125 C 2.5625 -0.175781 2.414062 -0.0703125 2.25 0 C 2.09375 0.0703125 1.90625 0.109375 1.6875 0.109375 C 1.382812 0.109375 1.132812 0.03125 0.9375 -0.125 C 0.75 -0.289062 0.609375 -0.503906 0.515625 -0.765625 C 0.421875 -1.023438 0.375 -1.304688 0.375 -1.609375 C 0.375 -2.191406 0.539062 -2.640625 0.875 -2.953125 C 1.21875 -3.273438 1.695312 -3.453125 2.3125 -3.484375 L 2.96875 -3.53125 L 2.96875 -3.9375 C 2.96875 -4.40625 2.90625 -4.742188 2.78125 -4.953125 C 2.65625 -5.171875 2.445312 -5.28125 2.15625 -5.28125 C 2 -5.28125 1.828125 -5.25 1.640625 -5.1875 C 1.460938 -5.132812 1.269531 -5.046875 1.0625 -4.921875 L 0.796875 -5.546875 C 1.015625 -5.691406 1.25 -5.796875 1.5 -5.859375 C 1.757812 -5.929688 2.019531 -5.96875 2.28125 -5.96875 Z M 2.984375 -2.921875 L 2.4375 -2.890625 C 2.03125 -2.867188 1.722656 -2.753906 1.515625 -2.546875 C 1.316406 -2.335938 1.21875 -2.035156 1.21875 -1.640625 C 1.21875 -1.265625 1.28125 -0.988281 1.40625 -0.8125 C 1.539062 -0.644531 1.722656 -0.5625 1.953125 -0.5625 C 2.285156 -0.5625 2.539062 -0.71875 2.71875 -1.03125 C 2.894531 -1.34375 2.984375 -1.773438 2.984375 -2.328125 Z M 2.984375 -2.921875 "/></g></g></g><g fill="#2d6d5e" fill-opacity="1"><g transform="translate(72.414366, 136.147643)"><g><path d="M 2.828125 -5.96875 C 3.390625 -5.96875 3.816406 -5.710938 4.109375 -5.203125 C 4.398438 -4.703125 4.546875 -3.945312 4.546875 -2.9375 C 4.546875 -2.289062 4.476562 -1.738281 4.34375 -1.28125 C 4.21875 -0.832031 4.03125 -0.488281 3.78125 -0.25 C 3.53125 -0.0078125 3.226562 0.109375 2.875 0.109375 C 2.675781 0.109375 2.488281 0.0703125 2.3125 0 C 2.144531 -0.0820312 1.992188 -0.191406 1.859375 -0.328125 C 1.734375 -0.472656 1.625 -0.640625 1.53125 -0.828125 L 1.5 -0.828125 C 1.507812 -0.679688 1.515625 -0.539062 1.515625 -0.40625 C 1.523438 -0.28125 1.53125 -0.160156 1.53125 -0.046875 L 1.53125 2.609375 L 0.71875 2.609375 L 0.71875 -5.859375 L 1.390625 -5.859375 L 1.484375 -5 L 1.53125 -5 C 1.632812 -5.21875 1.75 -5.394531 1.875 -5.53125 C 2.007812 -5.675781 2.15625 -5.785156 2.3125 -5.859375 C 2.46875 -5.929688 2.640625 -5.96875 2.828125 -5.96875 Z M 2.65625 -5.265625 C 2.40625 -5.265625 2.195312 -5.1875 2.03125 -5.03125 C 1.875 -4.875 1.75 -4.632812 1.65625 -4.3125 C 1.570312 -4 1.53125 -3.601562 1.53125 -3.125 L 1.53125 -2.84375 C 1.53125 -2.34375 1.570312 -1.925781 1.65625 -1.59375 C 1.75 -1.257812 1.878906 -1.007812 2.046875 -0.84375 C 2.210938 -0.6875 2.421875 -0.609375 2.671875 -0.609375 C 2.898438 -0.609375 3.09375 -0.691406 3.25 -0.859375 C 3.40625 -1.023438 3.519531 -1.273438 3.59375 -1.609375 C 3.675781 -1.953125 3.71875 -2.394531 3.71875 -2.9375 C 3.71875 -3.707031 3.632812 -4.285156 3.46875 -4.671875 C 3.300781 -5.066406 3.03125 -5.265625 2.65625 -5.265625 Z M 2.65625 -5.265625 "/></g></g></g><g fill="#2d6d5e" fill-opacity="1"><g transform="translate(78.953079, 136.147643)"><g><path d="M 2.28125 -5.96875 C 2.820312 -5.96875 3.207031 -5.796875 3.4375 -5.453125 C 3.675781 -5.109375 3.796875 -4.609375 3.796875 -3.953125 L 3.796875 0 L 3.171875 0 L 3.046875 -0.828125 L 3.015625 -0.828125 C 2.929688 -0.628906 2.820312 -0.457031 2.6875 -0.3125 C 2.5625 -0.175781 2.414062 -0.0703125 2.25 0 C 2.09375 0.0703125 1.90625 0.109375 1.6875 0.109375 C 1.382812 0.109375 1.132812 0.03125 0.9375 -0.125 C 0.75 -0.289062 0.609375 -0.503906 0.515625 -0.765625 C 0.421875 -1.023438 0.375 -1.304688 0.375 -1.609375 C 0.375 -2.191406 0.539062 -2.640625 0.875 -2.953125 C 1.21875 -3.273438 1.695312 -3.453125 2.3125 -3.484375 L 2.96875 -3.53125 L 2.96875 -3.9375 C 2.96875 -4.40625 2.90625 -4.742188 2.78125 -4.953125 C 2.65625 -5.171875 2.445312 -5.28125 2.15625 -5.28125 C 2 -5.28125 1.828125 -5.25 1.640625 -5.1875 C 1.460938 -5.132812 1.269531 -5.046875 1.0625 -4.921875 L 0.796875 -5.546875 C 1.015625 -5.691406 1.25 -5.796875 1.5 -5.859375 C 1.757812 -5.929688 2.019531 -5.96875 2.28125 -5.96875 Z M 2.984375 -2.921875 L 2.4375 -2.890625 C 2.03125 -2.867188 1.722656 -2.753906 1.515625 -2.546875 C 1.316406 -2.335938 1.21875 -2.035156 1.21875 -1.640625 C 1.21875 -1.265625 1.28125 -0.988281 1.40625 -0.8125 C 1.539062 -0.644531 1.722656 -0.5625 1.953125 -0.5625 C 2.285156 -0.5625 2.539062 -0.71875 2.71875 -1.03125 C 2.894531 -1.34375 2.984375 -1.773438 2.984375 -2.328125 Z M 2.984375 -2.921875 "/></g></g></g><g fill="#2d6d5e" fill-opacity="1"><g transform="translate(84.978919, 136.147643)"><g><path d="M 2.40625 0.109375 C 1.976562 0.109375 1.617188 0 1.328125 -0.21875 C 1.046875 -0.445312 0.832031 -0.785156 0.6875 -1.234375 C 0.539062 -1.679688 0.46875 -2.234375 0.46875 -2.890625 C 0.46875 -3.535156 0.539062 -4.085938 0.6875 -4.546875 C 0.832031 -5.003906 1.050781 -5.351562 1.34375 -5.59375 C 1.632812 -5.84375 2 -5.96875 2.4375 -5.96875 C 2.65625 -5.96875 2.851562 -5.941406 3.03125 -5.890625 C 3.207031 -5.847656 3.375 -5.785156 3.53125 -5.703125 L 3.265625 -5.03125 C 3.140625 -5.09375 3.007812 -5.140625 2.875 -5.171875 C 2.75 -5.210938 2.625 -5.234375 2.5 -5.234375 C 2.238281 -5.234375 2.019531 -5.144531 1.84375 -4.96875 C 1.675781 -4.789062 1.546875 -4.53125 1.453125 -4.1875 C 1.359375 -3.84375 1.3125 -3.414062 1.3125 -2.90625 C 1.3125 -2.394531 1.351562 -1.96875 1.4375 -1.625 C 1.53125 -1.289062 1.664062 -1.035156 1.84375 -0.859375 C 2.019531 -0.691406 2.238281 -0.609375 2.5 -0.609375 C 2.65625 -0.609375 2.8125 -0.628906 2.96875 -0.671875 C 3.132812 -0.722656 3.300781 -0.789062 3.46875 -0.875 L 3.46875 -0.1875 C 3.3125 -0.09375 3.132812 -0.0195312 2.9375 0.03125 C 2.75 0.0820312 2.570312 0.109375 2.40625 0.109375 Z M 2.40625 0.109375 "/></g></g></g><g fill="#2d6d5e" fill-opacity="1"><g transform="translate(90.267503, 136.147643)"><g><path d="M 1.546875 -5.859375 L 1.546875 0 L 0.71875 0 L 0.71875 -5.859375 Z M 1.140625 -8.0625 C 1.316406 -8.0625 1.441406 -8.007812 1.515625 -7.90625 C 1.585938 -7.800781 1.625 -7.648438 1.625 -7.453125 C 1.625 -7.273438 1.582031 -7.128906 1.5 -7.015625 C 1.425781 -6.910156 1.304688 -6.859375 1.140625 -6.859375 C 0.992188 -6.859375 0.875 -6.910156 0.78125 -7.015625 C 0.695312 -7.128906 0.65625 -7.273438 0.65625 -7.453125 C 0.65625 -7.648438 0.695312 -7.800781 0.78125 -7.90625 C 0.863281 -8.007812 0.984375 -8.0625 1.140625 -8.0625 Z M 1.140625 -8.0625 "/></g></g></g><g fill="#2d6d5e" fill-opacity="1"><g transform="translate(94.065549, 136.147643)"><g><path d="M 2.09375 -0.625 C 2.1875 -0.625 2.273438 -0.628906 2.359375 -0.640625 C 2.453125 -0.660156 2.535156 -0.691406 2.609375 -0.734375 L 2.609375 -0.0625 C 2.503906 -0.0078125 2.382812 0.03125 2.25 0.0625 C 2.125 0.09375 1.984375 0.109375 1.828125 0.109375 C 1.578125 0.109375 1.367188 0.0507812 1.203125 -0.0625 C 1.046875 -0.175781 0.925781 -0.34375 0.84375 -0.5625 C 0.769531 -0.789062 0.734375 -1.078125 0.734375 -1.421875 L 0.734375 -5.171875 L 0.1875 -5.171875 L 0.1875 -5.625 L 0.78125 -5.84375 L 1 -7.1875 L 1.5625 -7.1875 L 1.5625 -5.859375 L 2.546875 -5.859375 L 2.546875 -5.171875 L 1.5625 -5.171875 L 1.5625 -1.515625 C 1.5625 -1.210938 1.597656 -0.988281 1.671875 -0.84375 C 1.742188 -0.695312 1.882812 -0.625 2.09375 -0.625 Z M 2.09375 -0.625 "/></g></g></g><g fill="#2d6d5e" fill-opacity="1"><g transform="translate(98.371126, 136.147643)"><g><path d="M 0.0625 -5.859375 L 0.90625 -5.859375 L 1.734375 -2.4375 C 1.773438 -2.289062 1.804688 -2.144531 1.828125 -2 C 1.859375 -1.851562 1.882812 -1.707031 1.90625 -1.5625 C 1.9375 -1.425781 1.960938 -1.285156 1.984375 -1.140625 L 2.03125 -1.140625 C 2.0625 -1.347656 2.097656 -1.554688 2.140625 -1.765625 C 2.179688 -1.984375 2.226562 -2.207031 2.28125 -2.4375 L 3.09375 -5.859375 L 3.9375 -5.859375 L 2.1875 0.9375 C 2.09375 1.332031 1.972656 1.65625 1.828125 1.90625 C 1.691406 2.15625 1.53125 2.335938 1.34375 2.453125 C 1.15625 2.566406 0.929688 2.625 0.671875 2.625 C 0.585938 2.625 0.503906 2.613281 0.421875 2.59375 C 0.335938 2.582031 0.25 2.5625 0.15625 2.53125 L 0.15625 1.8125 C 0.21875 1.832031 0.285156 1.847656 0.359375 1.859375 C 0.429688 1.878906 0.503906 1.890625 0.578125 1.890625 C 0.710938 1.890625 0.828125 1.851562 0.921875 1.78125 C 1.015625 1.707031 1.097656 1.59375 1.171875 1.4375 C 1.242188 1.28125 1.316406 1.0625 1.390625 0.78125 L 1.609375 -0.046875 Z M 0.0625 -5.859375 "/></g></g></g><g fill="#0661aa" fill-opacity="1"><g transform="translate(36.016521, 84.925882)"><g><path d="M 0.09375 0 L 4.171875 -12.765625 L 7.96875 -12.765625 L 12.0625 0 L 8.921875 0 L 8.203125 -2.515625 L 3.921875 -2.515625 L 3.1875 0 Z M 4.390625 -4.671875 L 7.71875 -4.671875 L 6.109375 -10.28125 L 6.078125 -10.28125 Z M 4.390625 -4.671875 "/></g></g></g><g fill="#0661aa" fill-opacity="1"><g transform="translate(50.278155, 84.925882)"><g><path d="M 0.6875 3.765625 L 0.6875 -9.171875 L 3.015625 -9.171875 L 3.34375 -7.578125 L 3.375 -7.578125 C 3.632812 -8.179688 4.007812 -8.640625 4.5 -8.953125 C 5 -9.265625 5.5625 -9.421875 6.1875 -9.421875 C 6.914062 -9.421875 7.546875 -9.222656 8.078125 -8.828125 C 8.617188 -8.441406 9.035156 -7.882812 9.328125 -7.15625 C 9.628906 -6.4375 9.78125 -5.582031 9.78125 -4.59375 C 9.78125 -3.613281 9.628906 -2.757812 9.328125 -2.03125 C 9.035156 -1.300781 8.617188 -0.738281 8.078125 -0.34375 C 7.546875 0.0507812 6.914062 0.25 6.1875 0.25 C 5.570312 0.25 5.023438 0.09375 4.546875 -0.21875 C 4.066406 -0.53125 3.691406 -0.976562 3.421875 -1.5625 L 3.40625 -1.5625 L 3.40625 3.765625 Z M 5.171875 -2.09375 C 5.734375 -2.09375 6.1875 -2.316406 6.53125 -2.765625 C 6.875 -3.222656 7.046875 -3.832031 7.046875 -4.59375 C 7.046875 -5.351562 6.875 -5.957031 6.53125 -6.40625 C 6.1875 -6.851562 5.734375 -7.078125 5.171875 -7.078125 C 4.617188 -7.078125 4.164062 -6.847656 3.8125 -6.390625 C 3.46875 -5.941406 3.296875 -5.34375 3.296875 -4.59375 C 3.296875 -3.832031 3.46875 -3.222656 3.8125 -2.765625 C 4.164062 -2.316406 4.617188 -2.09375 5.171875 -2.09375 Z M 5.171875 -2.09375 "/></g></g></g><g fill="#0661aa" fill-opacity="1"><g transform="translate(62.568957, 84.925882)"><g><path d="M 6.25 -9.40625 C 7.101562 -9.40625 7.773438 -9.148438 8.265625 -8.640625 C 8.753906 -8.140625 9 -7.4375 9 -6.53125 L 9 0 L 6.25 0 L 6.25 -5.828125 C 6.25 -6.253906 6.140625 -6.585938 5.921875 -6.828125 C 5.710938 -7.066406 5.414062 -7.1875 5.03125 -7.1875 C 4.539062 -7.1875 4.144531 -7.023438 3.84375 -6.703125 C 3.550781 -6.390625 3.40625 -5.953125 3.40625 -5.390625 L 3.40625 0 L 0.6875 0 L 0.6875 -9.171875 L 2.9375 -9.171875 L 3.3125 -7.609375 L 3.328125 -7.609375 C 3.609375 -8.191406 4.003906 -8.632812 4.515625 -8.9375 C 5.023438 -9.25 5.601562 -9.40625 6.25 -9.40625 Z M 6.25 -9.40625 "/></g></g></g><g fill="#0661aa" fill-opacity="1"><g transform="translate(74.304339, 84.925882)"><g><path d="M 5.359375 0.296875 C 4.367188 0.296875 3.492188 0.0976562 2.734375 -0.296875 C 1.984375 -0.703125 1.398438 -1.28125 0.984375 -2.03125 C 0.578125 -2.78125 0.375 -3.648438 0.375 -4.640625 C 0.375 -5.617188 0.5625 -6.46875 0.9375 -7.1875 C 1.3125 -7.914062 1.835938 -8.484375 2.515625 -8.890625 C 3.203125 -9.296875 4.003906 -9.5 4.921875 -9.5 C 5.804688 -9.5 6.570312 -9.300781 7.21875 -8.90625 C 7.863281 -8.519531 8.367188 -7.976562 8.734375 -7.28125 C 9.097656 -6.582031 9.28125 -5.765625 9.28125 -4.828125 C 9.28125 -4.628906 9.269531 -4.441406 9.25 -4.265625 C 9.238281 -4.097656 9.210938 -3.953125 9.171875 -3.828125 L 3.125 -3.828125 C 3.175781 -3.160156 3.40625 -2.632812 3.8125 -2.25 C 4.21875 -1.863281 4.738281 -1.671875 5.375 -1.671875 C 5.863281 -1.671875 6.296875 -1.789062 6.671875 -2.03125 C 7.046875 -2.269531 7.332031 -2.597656 7.53125 -3.015625 L 9.4375 -2.171875 C 9.175781 -1.398438 8.671875 -0.796875 7.921875 -0.359375 C 7.171875 0.078125 6.316406 0.296875 5.359375 0.296875 Z M 3.125 -5.390625 L 6.5625 -5.390625 C 6.519531 -6.054688 6.351562 -6.578125 6.0625 -6.953125 C 5.78125 -7.328125 5.394531 -7.515625 4.90625 -7.515625 C 4.394531 -7.515625 3.984375 -7.320312 3.671875 -6.9375 C 3.359375 -6.5625 3.175781 -6.046875 3.125 -5.390625 Z M 3.125 -5.390625 "/></g></g></g><g fill="#0661aa" fill-opacity="1"><g transform="translate(86.200974, 84.925882)"><g><path d="M 3.171875 0.21875 C 2.296875 0.21875 1.585938 -0.015625 1.046875 -0.484375 C 0.515625 -0.953125 0.25 -1.578125 0.25 -2.359375 C 0.25 -3.203125 0.566406 -3.878906 1.203125 -4.390625 C 1.847656 -4.910156 2.785156 -5.238281 4.015625 -5.375 L 5.4375 -5.53125 C 5.632812 -5.5625 5.796875 -5.632812 5.921875 -5.75 C 6.046875 -5.875 6.109375 -6.046875 6.109375 -6.265625 C 6.109375 -6.671875 5.984375 -6.984375 5.734375 -7.203125 C 5.484375 -7.421875 5.15625 -7.53125 4.75 -7.53125 C 4.28125 -7.53125 3.898438 -7.367188 3.609375 -7.046875 C 3.328125 -6.722656 3.175781 -6.316406 3.15625 -5.828125 L 0.5625 -6.203125 C 0.582031 -6.847656 0.769531 -7.414062 1.125 -7.90625 C 1.476562 -8.40625 1.960938 -8.796875 2.578125 -9.078125 C 3.191406 -9.359375 3.910156 -9.5 4.734375 -9.5 C 5.984375 -9.5 6.972656 -9.171875 7.703125 -8.515625 C 8.429688 -7.859375 8.796875 -6.96875 8.796875 -5.84375 L 8.796875 -2.296875 C 8.796875 -1.890625 8.945312 -1.6875 9.25 -1.6875 C 9.488281 -1.6875 9.710938 -1.804688 9.921875 -2.046875 L 10.515625 -0.578125 C 10.234375 -0.296875 9.890625 -0.09375 9.484375 0.03125 C 9.078125 0.164062 8.675781 0.234375 8.28125 0.234375 C 7.726562 0.234375 7.265625 0.09375 6.890625 -0.1875 C 6.515625 -0.46875 6.28125 -0.820312 6.1875 -1.25 L 6.140625 -1.484375 L 6.125 -1.484375 C 5.851562 -0.960938 5.457031 -0.546875 4.9375 -0.234375 C 4.425781 0.0664062 3.835938 0.21875 3.171875 0.21875 Z M 4.296875 -1.703125 C 4.816406 -1.703125 5.242188 -1.882812 5.578125 -2.25 C 5.910156 -2.613281 6.078125 -3.085938 6.078125 -3.671875 L 6.078125 -4.109375 L 4.734375 -3.953125 C 4.109375 -3.890625 3.660156 -3.742188 3.390625 -3.515625 C 3.128906 -3.285156 3 -3.015625 3 -2.703125 C 3 -2.410156 3.117188 -2.171875 3.359375 -1.984375 C 3.609375 -1.796875 3.921875 -1.703125 4.296875 -1.703125 Z M 4.296875 -1.703125 "/></g></g></g><g fill="#0661aa" fill-opacity="1"><g transform="translate(25.76343, 106.575186)"><g><path d="M 3.640625 0 L 3.640625 -10.140625 L 0.265625 -10.140625 L 0.265625 -12.765625 L 10.078125 -12.765625 L 10.078125 -10.140625 L 6.703125 -10.140625 L 6.703125 0 Z M 3.640625 0 "/></g></g></g><g fill="#0661aa" fill-opacity="1"><g transform="translate(37.498812, 106.575186)"><g><path d="M 5.625 -9.421875 C 6.375 -9.421875 6.976562 -9.140625 7.4375 -8.578125 C 7.894531 -8.023438 8.144531 -7.234375 8.1875 -6.203125 L 5.875 -5.578125 C 5.863281 -6.171875 5.753906 -6.617188 5.546875 -6.921875 C 5.347656 -7.234375 5.082031 -7.390625 4.75 -7.390625 C 4.34375 -7.390625 4.015625 -7.1875 3.765625 -6.78125 C 3.523438 -6.375 3.40625 -5.8125 3.40625 -5.09375 L 3.40625 0 L 0.6875 0 L 0.6875 -9.171875 L 2.890625 -9.171875 L 3.265625 -7.59375 L 3.28125 -7.59375 C 3.476562 -8.164062 3.785156 -8.613281 4.203125 -8.9375 C 4.628906 -9.257812 5.101562 -9.421875 5.625 -9.421875 Z M 5.625 -9.421875 "/></g></g></g><g fill="#0661aa" fill-opacity="1"><g transform="translate(48.01587, 106.575186)"><g><path d="M 3.171875 0.21875 C 2.296875 0.21875 1.585938 -0.015625 1.046875 -0.484375 C 0.515625 -0.953125 0.25 -1.578125 0.25 -2.359375 C 0.25 -3.203125 0.566406 -3.878906 1.203125 -4.390625 C 1.847656 -4.910156 2.785156 -5.238281 4.015625 -5.375 L 5.4375 -5.53125 C 5.632812 -5.5625 5.796875 -5.632812 5.921875 -5.75 C 6.046875 -5.875 6.109375 -6.046875 6.109375 -6.265625 C 6.109375 -6.671875 5.984375 -6.984375 5.734375 -7.203125 C 5.484375 -7.421875 5.15625 -7.53125 4.75 -7.53125 C 4.28125 -7.53125 3.898438 -7.367188 3.609375 -7.046875 C 3.328125 -6.722656 3.175781 -6.316406 3.15625 -5.828125 L 0.5625 -6.203125 C 0.582031 -6.847656 0.769531 -7.414062 1.125 -7.90625 C 1.476562 -8.40625 1.960938 -8.796875 2.578125 -9.078125 C 3.191406 -9.359375 3.910156 -9.5 4.734375 -9.5 C 5.984375 -9.5 6.972656 -9.171875 7.703125 -8.515625 C 8.429688 -7.859375 8.796875 -6.96875 8.796875 -5.84375 L 8.796875 -2.296875 C 8.796875 -1.890625 8.945312 -1.6875 9.25 -1.6875 C 9.488281 -1.6875 9.710938 -1.804688 9.921875 -2.046875 L 10.515625 -0.578125 C 10.234375 -0.296875 9.890625 -0.09375 9.484375 0.03125 C 9.078125 0.164062 8.675781 0.234375 8.28125 0.234375 C 7.726562 0.234375 7.265625 0.09375 6.890625 -0.1875 C 6.515625 -0.46875 6.28125 -0.820312 6.1875 -1.25 L 6.140625 -1.484375 L 6.125 -1.484375 C 5.851562 -0.960938 5.457031 -0.546875 4.9375 -0.234375 C 4.425781 0.0664062 3.835938 0.21875 3.171875 0.21875 Z M 4.296875 -1.703125 C 4.816406 -1.703125 5.242188 -1.882812 5.578125 -2.25 C 5.910156 -2.613281 6.078125 -3.085938 6.078125 -3.671875 L 6.078125 -4.109375 L 4.734375 -3.953125 C 4.109375 -3.890625 3.660156 -3.742188 3.390625 -3.515625 C 3.128906 -3.285156 3 -3.015625 3 -2.703125 C 3 -2.410156 3.117188 -2.171875 3.359375 -1.984375 C 3.609375 -1.796875 3.921875 -1.703125 4.296875 -1.703125 Z M 4.296875 -1.703125 "/></g></g></g><g fill="#0661aa" fill-opacity="1"><g transform="translate(60.647083, 106.575186)"><g><path d="M 2.109375 -10.4375 C 1.617188 -10.4375 1.226562 -10.578125 0.9375 -10.859375 C 0.644531 -11.148438 0.5 -11.523438 0.5 -11.984375 C 0.5 -12.460938 0.644531 -12.84375 0.9375 -13.125 C 1.226562 -13.414062 1.617188 -13.5625 2.109375 -13.5625 C 2.597656 -13.5625 2.988281 -13.414062 3.28125 -13.125 C 3.582031 -12.84375 3.734375 -12.460938 3.734375 -11.984375 C 3.734375 -11.523438 3.582031 -11.148438 3.28125 -10.859375 C 2.988281 -10.578125 2.597656 -10.4375 2.109375 -10.4375 Z M 0.734375 0 L 0.734375 -9.171875 L 3.484375 -9.171875 L 3.484375 0 Z M 0.734375 0 "/></g></g></g><g fill="#0661aa" fill-opacity="1"><g transform="translate(66.989573, 106.575186)"><g><path d="M 6.25 -9.40625 C 7.101562 -9.40625 7.773438 -9.148438 8.265625 -8.640625 C 8.753906 -8.140625 9 -7.4375 9 -6.53125 L 9 0 L 6.25 0 L 6.25 -5.828125 C 6.25 -6.253906 6.140625 -6.585938 5.921875 -6.828125 C 5.710938 -7.066406 5.414062 -7.1875 5.03125 -7.1875 C 4.539062 -7.1875 4.144531 -7.023438 3.84375 -6.703125 C 3.550781 -6.390625 3.40625 -5.953125 3.40625 -5.390625 L 3.40625 0 L 0.6875 0 L 0.6875 -9.171875 L 2.9375 -9.171875 L 3.3125 -7.609375 L 3.328125 -7.609375 C 3.609375 -8.191406 4.003906 -8.632812 4.515625 -8.9375 C 5.023438 -9.25 5.601562 -9.40625 6.25 -9.40625 Z M 6.25 -9.40625 "/></g></g></g><g fill="#0661aa" fill-opacity="1"><g transform="translate(78.724955, 106.575186)"><g><path d="M 2.109375 -10.4375 C 1.617188 -10.4375 1.226562 -10.578125 0.9375 -10.859375 C 0.644531 -11.148438 0.5 -11.523438 0.5 -11.984375 C 0.5 -12.460938 0.644531 -12.84375 0.9375 -13.125 C 1.226562 -13.414062 1.617188 -13.5625 2.109375 -13.5625 C 2.597656 -13.5625 2.988281 -13.414062 3.28125 -13.125 C 3.582031 -12.84375 3.734375 -12.460938 3.734375 -11.984375 C 3.734375 -11.523438 3.582031 -11.148438 3.28125 -10.859375 C 2.988281 -10.578125 2.597656 -10.4375 2.109375 -10.4375 Z M 0.734375 0 L 0.734375 -9.171875 L 3.484375 -9.171875 L 3.484375 0 Z M 0.734375 0 "/></g></g></g><g fill="#0661aa" fill-opacity="1"><g transform="translate(85.067445, 106.575186)"><g><path d="M 6.25 -9.40625 C 7.101562 -9.40625 7.773438 -9.148438 8.265625 -8.640625 C 8.753906 -8.140625 9 -7.4375 9 -6.53125 L 9 0 L 6.25 0 L 6.25 -5.828125 C 6.25 -6.253906 6.140625 -6.585938 5.921875 -6.828125 C 5.710938 -7.066406 5.414062 -7.1875 5.03125 -7.1875 C 4.539062 -7.1875 4.144531 -7.023438 3.84375 -6.703125 C 3.550781 -6.390625 3.40625 -5.953125 3.40625 -5.390625 L 3.40625 0 L 0.6875 0 L 0.6875 -9.171875 L 2.9375 -9.171875 L 3.3125 -7.609375 L 3.328125 -7.609375 C 3.609375 -8.191406 4.003906 -8.632812 4.515625 -8.9375 C 5.023438 -9.25 5.601562 -9.40625 6.25 -9.40625 Z M 6.25 -9.40625 "/></g></g></g><g fill="#0661aa" fill-opacity="1"><g transform="translate(96.802827, 106.575186)"><g><path d="M 4.359375 4.0625 C 3.460938 4.0625 2.613281 3.910156 1.8125 3.609375 C 1.019531 3.316406 0.382812 2.914062 -0.09375 2.40625 L 0.96875 0.4375 C 1.332031 0.851562 1.789062 1.1875 2.34375 1.4375 C 2.90625 1.695312 3.472656 1.828125 4.046875 1.828125 C 4.867188 1.828125 5.523438 1.597656 6.015625 1.140625 C 6.503906 0.679688 6.75 0.0546875 6.75 -0.734375 L 6.75 -1.65625 L 6.734375 -1.65625 C 6.472656 -1.132812 6.09375 -0.71875 5.59375 -0.40625 C 5.09375 -0.101562 4.546875 0.046875 3.953125 0.046875 C 3.242188 0.046875 2.625 -0.140625 2.09375 -0.515625 C 1.5625 -0.898438 1.144531 -1.441406 0.84375 -2.140625 C 0.550781 -2.835938 0.40625 -3.660156 0.40625 -4.609375 C 0.40625 -5.597656 0.546875 -6.453125 0.828125 -7.171875 C 1.117188 -7.898438 1.523438 -8.457031 2.046875 -8.84375 C 2.578125 -9.238281 3.195312 -9.4375 3.90625 -9.4375 C 4.53125 -9.4375 5.097656 -9.269531 5.609375 -8.9375 C 6.117188 -8.601562 6.5 -8.15625 6.75 -7.59375 L 6.78125 -7.59375 L 7.09375 -9.171875 L 9.5 -9.171875 L 9.5 -0.703125 C 9.5 0.285156 9.289062 1.140625 8.875 1.859375 C 8.457031 2.578125 7.863281 3.125 7.09375 3.5 C 6.320312 3.875 5.410156 4.0625 4.359375 4.0625 Z M 5.015625 -2.1875 C 5.578125 -2.1875 6.023438 -2.410156 6.359375 -2.859375 C 6.691406 -3.304688 6.859375 -3.90625 6.859375 -4.65625 C 6.859375 -5.40625 6.691406 -6.007812 6.359375 -6.46875 C 6.023438 -6.925781 5.578125 -7.15625 5.015625 -7.15625 C 4.453125 -7.15625 4 -6.929688 3.65625 -6.484375 C 3.320312 -6.035156 3.15625 -5.425781 3.15625 -4.65625 C 3.15625 -3.894531 3.320312 -3.289062 3.65625 -2.84375 C 4 -2.40625 4.453125 -2.1875 5.015625 -2.1875 Z M 5.015625 -2.1875 "/></g></g></g></svg>