<svg xmlns="http://www.w3.org/2000/svg" xmlns:xlink="http://www.w3.org/1999/xlink" width="180" zoomAndPan="magnify" viewBox="0 0 135.12 149.999995" height="215" preserveAspectRatio="xMidYMid meet" version="1.2"><defs><clipPath id="88b52ceb9a"><path d="M 40.238281 34 L 87 34 L 87 59 L 40.238281 59 Z M 40.238281 34 "/></clipPath><clipPath id="a2b854baa2"><path d="M 67 21 L 93.886719 21 L 93.886719 74.207031 L 67 74.207031 Z M 67 21 "/></clipPath></defs><g id="5c8513ace5"><g clip-rule="nonzero" clip-path="url(#88b52ceb9a)"><path style=" stroke:none;fill-rule:nonzero;fill:#0661aa;fill-opacity:1;" d="M 86.117188 46.488281 C 86.113281 45.722656 86.039062 44.960938 85.890625 44.207031 C 85.742188 43.457031 85.519531 42.726562 85.226562 42.015625 C 84.933594 41.304688 84.574219 40.628906 84.152344 39.992188 C 83.726562 39.351562 83.242188 38.757812 82.703125 38.214844 C 82.160156 37.667969 81.574219 37.183594 80.9375 36.75 C 80.300781 36.320312 79.628906 35.957031 78.921875 35.660156 C 78.214844 35.359375 77.488281 35.132812 76.734375 34.976562 C 75.984375 34.820312 75.222656 34.738281 74.457031 34.734375 L 52.667969 34.734375 C 51.960938 34.734375 51.261719 34.796875 50.566406 34.921875 C 49.871094 35.046875 49.191406 35.234375 48.53125 35.484375 C 47.867188 35.734375 47.234375 36.039062 46.628906 36.402344 C 46.019531 36.765625 45.453125 37.179688 44.921875 37.644531 C 44.390625 38.109375 43.902344 38.621094 43.464844 39.171875 C 43.023438 39.726562 42.636719 40.3125 42.304688 40.9375 C 41.96875 41.558594 41.695312 42.207031 41.476562 42.878906 C 41.257812 43.554688 41.105469 44.238281 41.011719 44.941406 C 40.917969 45.640625 40.886719 46.34375 40.921875 47.050781 C 40.953125 47.753906 41.050781 48.453125 41.210938 49.140625 C 41.371094 49.828125 41.589844 50.5 41.867188 51.148438 C 42.148438 51.796875 42.484375 52.414062 42.875 53.003906 C 43.265625 53.59375 43.707031 54.140625 44.199219 54.648438 C 44.6875 55.160156 45.21875 55.621094 45.792969 56.035156 C 46.367188 56.445312 46.972656 56.804688 47.609375 57.109375 C 48.25 57.414062 48.910156 57.65625 49.589844 57.84375 C 50.273438 58.027344 50.964844 58.148438 51.671875 58.210938 C 52.375 58.269531 53.078125 58.265625 53.78125 58.199219 C 54.484375 58.132812 55.175781 58.003906 55.859375 57.808594 C 56.539062 57.617188 57.195312 57.367188 57.832031 57.058594 C 58.464844 56.746094 59.066406 56.382812 59.636719 55.964844 C 60.207031 55.542969 60.734375 55.078125 61.21875 54.566406 C 61.703125 54.050781 62.140625 53.496094 62.523438 52.90625 C 62.910156 52.3125 63.238281 51.691406 63.511719 51.039062 C 63.773438 51.660156 64.085938 52.253906 64.449219 52.824219 C 64.8125 53.390625 65.21875 53.925781 65.675781 54.421875 C 66.128906 54.917969 66.621094 55.375 67.15625 55.789062 C 67.6875 56.199219 68.253906 56.5625 68.847656 56.878906 C 69.445312 57.195312 70.0625 57.457031 70.703125 57.667969 C 71.34375 57.878906 71.996094 58.03125 72.664062 58.128906 C 73.332031 58.222656 74 58.265625 74.675781 58.246094 C 75.347656 58.226562 76.015625 58.152344 76.675781 58.019531 C 77.335938 57.886719 77.980469 57.699219 78.609375 57.453125 C 79.238281 57.210938 79.839844 56.914062 80.417969 56.566406 C 80.996094 56.21875 81.539062 55.824219 82.050781 55.382812 C 82.558594 54.941406 83.027344 54.460938 83.457031 53.941406 C 83.882812 53.417969 84.261719 52.863281 84.59375 52.277344 C 84.925781 51.691406 85.203125 51.082031 85.429688 50.445312 C 85.65625 49.8125 85.828125 49.160156 85.945312 48.496094 C 86.058594 47.832031 86.117188 47.164062 86.117188 46.488281 Z M 64.425781 46.488281 C 64.425781 46.238281 64.339844 46.019531 64.160156 45.84375 C 63.980469 45.664062 63.765625 45.574219 63.511719 45.574219 C 63.257812 45.574219 63.042969 45.664062 62.867188 45.84375 C 62.6875 46.019531 62.597656 46.238281 62.597656 46.488281 C 62.597656 47.140625 62.535156 47.789062 62.40625 48.425781 C 62.277344 49.066406 62.089844 49.6875 61.839844 50.289062 C 61.59375 50.890625 61.285156 51.464844 60.925781 52.007812 C 60.5625 52.546875 60.148438 53.050781 59.6875 53.511719 C 59.226562 53.972656 58.726562 54.382812 58.183594 54.746094 C 57.640625 55.109375 57.070312 55.414062 56.46875 55.664062 C 55.867188 55.914062 55.246094 56.101562 54.605469 56.226562 C 53.964844 56.355469 53.320312 56.417969 52.667969 56.417969 C 52.015625 56.417969 51.371094 56.355469 50.730469 56.226562 C 50.089844 56.101562 49.472656 55.914062 48.867188 55.664062 C 48.265625 55.414062 47.695312 55.109375 47.152344 54.746094 C 46.609375 54.382812 46.109375 53.972656 45.648438 53.511719 C 45.1875 53.050781 44.773438 52.546875 44.414062 52.007812 C 44.050781 51.464844 43.746094 50.890625 43.496094 50.289062 C 43.246094 49.6875 43.058594 49.066406 42.929688 48.425781 C 42.800781 47.789062 42.738281 47.140625 42.738281 46.488281 C 42.738281 45.839844 42.800781 45.191406 42.929688 44.554688 C 43.058594 43.914062 43.246094 43.292969 43.496094 42.691406 C 43.746094 42.085938 44.050781 41.515625 44.414062 40.972656 C 44.773438 40.429688 45.1875 39.929688 45.648438 39.46875 C 46.109375 39.007812 46.609375 38.597656 47.152344 38.234375 C 47.695312 37.871094 48.265625 37.566406 48.867188 37.316406 C 49.472656 37.066406 50.089844 36.878906 50.730469 36.75 C 51.371094 36.625 52.015625 36.5625 52.667969 36.5625 L 74.359375 36.5625 C 75.007812 36.5625 75.65625 36.625 76.292969 36.75 C 76.933594 36.878906 77.554688 37.066406 78.15625 37.316406 C 78.757812 37.566406 79.332031 37.871094 79.875 38.234375 C 80.417969 38.597656 80.917969 39.007812 81.378906 39.46875 C 81.839844 39.929688 82.25 40.429688 82.613281 40.972656 C 82.976562 41.515625 83.28125 42.085938 83.53125 42.691406 C 83.78125 43.292969 83.96875 43.914062 84.097656 44.554688 C 84.222656 45.191406 84.285156 45.839844 84.285156 46.488281 C 84.285156 47.140625 84.222656 47.789062 84.097656 48.425781 C 83.96875 49.066406 83.78125 49.6875 83.53125 50.289062 C 83.28125 50.890625 82.976562 51.464844 82.613281 52.007812 C 82.25 52.546875 81.839844 53.050781 81.378906 53.511719 C 80.917969 53.972656 80.417969 54.382812 79.875 54.746094 C 79.332031 55.109375 78.757812 55.414062 78.15625 55.664062 C 77.554688 55.914062 76.933594 56.101562 76.292969 56.226562 C 75.65625 56.355469 75.007812 56.417969 74.359375 56.417969 C 73.707031 56.417969 73.058594 56.355469 72.421875 56.226562 C 71.78125 56.101562 71.160156 55.914062 70.558594 55.664062 C 69.957031 55.414062 69.382812 55.109375 68.839844 54.746094 C 68.300781 54.382812 67.796875 53.972656 67.335938 53.511719 C 66.875 53.050781 66.464844 52.546875 66.101562 52.007812 C 65.738281 51.464844 65.433594 50.890625 65.183594 50.289062 C 64.933594 49.6875 64.746094 49.066406 64.621094 48.425781 C 64.492188 47.789062 64.429688 47.140625 64.429688 46.488281 Z M 64.425781 46.488281 "/></g><path style=" stroke:none;fill-rule:nonzero;fill:#0661aa;fill-opacity:1;" d="M 82.527344 46.488281 C 82.527344 45.953125 82.472656 45.421875 82.367188 44.898438 C 82.261719 44.371094 82.109375 43.859375 81.902344 43.363281 C 81.695312 42.871094 81.445312 42.398438 81.148438 41.953125 C 80.847656 41.507812 80.511719 41.09375 80.132812 40.714844 C 79.753906 40.335938 79.339844 39.996094 78.894531 39.699219 C 78.449219 39.402344 77.976562 39.148438 77.484375 38.945312 C 76.988281 38.738281 76.476562 38.582031 75.949219 38.476562 C 75.425781 38.371094 74.894531 38.320312 74.359375 38.316406 L 52.667969 38.316406 C 52.132812 38.316406 51.601562 38.371094 51.074219 38.476562 C 50.546875 38.578125 50.039062 38.734375 49.542969 38.941406 C 49.046875 39.144531 48.574219 39.394531 48.128906 39.695312 C 47.683594 39.992188 47.269531 40.332031 46.890625 40.710938 C 46.511719 41.089844 46.171875 41.503906 45.875 41.949219 C 45.578125 42.394531 45.324219 42.863281 45.121094 43.359375 C 44.914062 43.855469 44.757812 44.367188 44.652344 44.890625 C 44.550781 45.417969 44.496094 45.949219 44.496094 46.484375 C 44.496094 47.023438 44.546875 47.554688 44.652344 48.082031 C 44.757812 48.605469 44.910156 49.117188 45.117188 49.613281 C 45.320312 50.109375 45.574219 50.578125 45.871094 51.027344 C 46.167969 51.472656 46.507812 51.886719 46.886719 52.265625 C 47.265625 52.644531 47.675781 52.984375 48.125 53.28125 C 48.570312 53.578125 49.039062 53.832031 49.535156 54.039062 C 50.03125 54.242188 50.542969 54.398438 51.066406 54.503906 C 51.59375 54.609375 52.125 54.660156 52.660156 54.660156 C 53.199219 54.664062 53.730469 54.609375 54.253906 54.507812 C 54.78125 54.402344 55.292969 54.246094 55.789062 54.042969 C 56.285156 53.839844 56.753906 53.585938 57.199219 53.289062 C 57.648438 52.992188 58.058594 52.652344 58.441406 52.273438 C 58.820312 51.894531 59.160156 51.484375 59.457031 51.039062 C 59.757812 50.59375 60.007812 50.121094 60.214844 49.625 C 60.421875 49.132812 60.574219 48.621094 60.679688 48.09375 C 60.785156 47.566406 60.839844 47.035156 60.839844 46.5 C 60.84375 46.292969 60.980469 43.074219 63.605469 43.074219 C 64.371094 43.074219 64.953125 43.296875 65.378906 43.75 C 66.289062 44.71875 66.1875 46.4375 66.1875 46.453125 C 66.1875 46.46875 66.1875 46.480469 66.1875 46.492188 C 66.179688 47.035156 66.226562 47.570312 66.328125 48.101562 C 66.429688 48.632812 66.578125 49.148438 66.78125 49.648438 C 66.984375 50.148438 67.234375 50.625 67.53125 51.078125 C 67.828125 51.53125 68.167969 51.949219 68.546875 52.332031 C 68.925781 52.714844 69.339844 53.058594 69.789062 53.363281 C 70.238281 53.664062 70.710938 53.917969 71.210938 54.128906 C 71.707031 54.335938 72.222656 54.492188 72.753906 54.597656 C 73.28125 54.707031 73.816406 54.757812 74.359375 54.757812 C 74.898438 54.757812 75.433594 54.707031 75.964844 54.597656 C 76.492188 54.492188 77.007812 54.335938 77.507812 54.128906 C 78.007812 53.917969 78.480469 53.664062 78.925781 53.363281 C 79.375 53.058594 79.789062 52.714844 80.167969 52.332031 C 80.550781 51.949219 80.886719 51.53125 81.183594 51.078125 C 81.480469 50.625 81.730469 50.148438 81.933594 49.648438 C 82.136719 49.148438 82.289062 48.632812 82.390625 48.101562 C 82.488281 47.570312 82.535156 47.035156 82.53125 46.492188 Z M 67.367188 46.507812 C 67.382812 46.253906 67.453125 44.234375 66.246094 42.941406 C 65.59375 42.242188 64.707031 41.886719 63.605469 41.886719 C 60.566406 41.886719 59.691406 44.890625 59.65625 46.476562 L 59.65625 46.488281 C 59.65625 46.949219 59.609375 47.402344 59.519531 47.851562 C 59.433594 48.304688 59.300781 48.738281 59.125 49.164062 C 58.949219 49.585938 58.734375 49.992188 58.476562 50.371094 C 58.222656 50.753906 57.933594 51.105469 57.609375 51.429688 C 57.285156 51.753906 56.933594 52.046875 56.550781 52.300781 C 56.167969 52.554688 55.765625 52.769531 55.34375 52.945312 C 54.917969 53.121094 54.480469 53.253906 54.03125 53.34375 C 53.582031 53.433594 53.125 53.476562 52.667969 53.476562 C 52.210938 53.476562 51.753906 53.433594 51.304688 53.34375 C 50.855469 53.253906 50.417969 53.121094 49.992188 52.945312 C 49.570312 52.769531 49.167969 52.554688 48.785156 52.300781 C 48.40625 52.046875 48.050781 51.753906 47.726562 51.429688 C 47.402344 51.105469 47.113281 50.753906 46.859375 50.371094 C 46.601562 49.992188 46.386719 49.585938 46.210938 49.164062 C 46.035156 48.738281 45.902344 48.304688 45.816406 47.851562 C 45.726562 47.402344 45.679688 46.949219 45.679688 46.488281 C 45.679688 46.03125 45.726562 45.578125 45.816406 45.125 C 45.902344 44.675781 46.035156 44.238281 46.210938 43.816406 C 46.386719 43.390625 46.601562 42.988281 46.859375 42.609375 C 47.113281 42.226562 47.402344 41.875 47.726562 41.550781 C 48.050781 41.222656 48.40625 40.933594 48.785156 40.679688 C 49.167969 40.425781 49.570312 40.210938 49.992188 40.035156 C 50.417969 39.859375 50.855469 39.726562 51.304688 39.636719 C 51.753906 39.546875 52.210938 39.503906 52.667969 39.503906 L 74.359375 39.503906 C 74.816406 39.503906 75.269531 39.546875 75.71875 39.636719 C 76.171875 39.726562 76.605469 39.859375 77.03125 40.035156 C 77.453125 40.210938 77.855469 40.425781 78.238281 40.679688 C 78.621094 40.933594 78.972656 41.222656 79.296875 41.546875 C 79.621094 41.871094 79.910156 42.222656 80.164062 42.605469 C 80.421875 42.984375 80.636719 43.386719 80.8125 43.8125 C 80.988281 44.234375 81.121094 44.671875 81.210938 45.121094 C 81.300781 45.570312 81.34375 46.027344 81.34375 46.484375 C 81.34375 46.941406 81.300781 47.398438 81.210938 47.847656 C 81.125 48.296875 80.992188 48.734375 80.816406 49.15625 C 80.640625 49.582031 80.425781 49.984375 80.171875 50.367188 C 79.917969 50.746094 79.628906 51.101562 79.304688 51.425781 C 78.980469 51.75 78.628906 52.039062 78.246094 52.296875 C 77.867188 52.550781 77.464844 52.765625 77.039062 52.941406 C 76.617188 53.117188 76.179688 53.25 75.730469 53.339844 C 75.28125 53.429688 74.828125 53.476562 74.367188 53.476562 C 73.910156 53.476562 73.457031 53.433594 73.003906 53.34375 C 72.554688 53.257812 72.117188 53.125 71.695312 52.949219 C 71.269531 52.777344 70.867188 52.5625 70.484375 52.308594 C 70.105469 52.054688 69.75 51.765625 69.425781 51.441406 C 69.101562 51.117188 68.8125 50.765625 68.554688 50.382812 C 68.300781 50.003906 68.085938 49.601562 67.90625 49.175781 C 67.730469 48.753906 67.597656 48.316406 67.507812 47.867188 C 67.417969 47.417969 67.371094 46.964844 67.371094 46.507812 Z M 67.367188 46.507812 "/><path style=" stroke:none;fill-rule:nonzero;fill:#0661aa;fill-opacity:1;" d="M 74.792969 49.339844 C 75.039062 49.339844 75.21875 49.226562 75.324219 49.003906 C 75.433594 48.785156 75.410156 48.574219 75.257812 48.382812 L 72.925781 45.398438 C 72.824219 45.273438 72.691406 45.199219 72.53125 45.183594 C 72.371094 45.164062 72.226562 45.207031 72.101562 45.304688 C 71.972656 45.40625 71.898438 45.535156 71.878906 45.695312 C 71.855469 45.855469 71.894531 46 71.992188 46.128906 L 74.328125 49.113281 C 74.445312 49.261719 74.601562 49.339844 74.792969 49.339844 Z M 74.792969 49.339844 "/><path style=" stroke:none;fill-rule:nonzero;fill:#0661aa;fill-opacity:1;" d="M 73.855469 29.179688 C 73.855469 29.566406 73.929688 29.9375 74.078125 30.296875 C 74.226562 30.652344 74.4375 30.96875 74.710938 31.242188 C 74.984375 31.515625 75.300781 31.726562 75.660156 31.875 C 76.015625 32.019531 76.386719 32.09375 76.773438 32.09375 C 77.160156 32.09375 77.535156 32.019531 77.890625 31.871094 C 78.25 31.722656 78.5625 31.511719 78.835938 31.238281 C 79.109375 30.964844 79.320312 30.648438 79.46875 30.292969 C 79.617188 29.933594 79.691406 29.5625 79.691406 29.175781 C 79.691406 28.789062 79.617188 28.417969 79.46875 28.058594 C 79.320312 27.703125 79.109375 27.386719 78.835938 27.113281 C 78.5625 26.839844 78.246094 26.628906 77.886719 26.480469 C 77.53125 26.332031 77.160156 26.257812 76.773438 26.257812 C 76.382812 26.261719 76.011719 26.335938 75.65625 26.484375 C 75.296875 26.632812 74.980469 26.84375 74.707031 27.117188 C 74.433594 27.390625 74.226562 27.707031 74.078125 28.0625 C 73.929688 28.421875 73.855469 28.792969 73.855469 29.179688 Z M 76.773438 27.445312 C 77 27.445312 77.222656 27.488281 77.433594 27.574219 C 77.648438 27.664062 77.835938 27.789062 77.996094 27.949219 C 78.160156 28.113281 78.285156 28.300781 78.375 28.511719 C 78.460938 28.726562 78.507812 28.945312 78.507812 29.175781 C 78.507812 29.40625 78.460938 29.628906 78.375 29.839844 C 78.285156 30.050781 78.160156 30.238281 78 30.402344 C 77.835938 30.566406 77.648438 30.691406 77.4375 30.777344 C 77.222656 30.867188 77.003906 30.910156 76.773438 30.910156 C 76.542969 30.910156 76.320312 30.867188 76.109375 30.777344 C 75.894531 30.691406 75.707031 30.566406 75.546875 30.402344 C 75.382812 30.238281 75.257812 30.050781 75.171875 29.839844 C 75.082031 29.628906 75.039062 29.40625 75.039062 29.175781 C 75.039062 28.945312 75.082031 28.726562 75.171875 28.511719 C 75.257812 28.300781 75.386719 28.113281 75.546875 27.953125 C 75.710938 27.789062 75.898438 27.664062 76.109375 27.574219 C 76.320312 27.488281 76.542969 27.445312 76.773438 27.445312 Z M 76.773438 27.445312 "/><path style=" stroke:none;fill-rule:nonzero;fill:#0661aa;fill-opacity:1;" d="M 72.464844 26.074219 C 72.765625 26.078125 73.054688 26.019531 73.332031 25.902344 C 73.613281 25.789062 73.855469 25.625 74.070312 25.410156 C 74.28125 25.199219 74.445312 24.953125 74.5625 24.675781 C 74.679688 24.398438 74.734375 24.109375 74.734375 23.808594 C 74.734375 23.507812 74.679688 23.214844 74.5625 22.9375 C 74.449219 22.660156 74.285156 22.414062 74.070312 22.203125 C 73.859375 21.988281 73.613281 21.824219 73.335938 21.710938 C 73.058594 21.59375 72.765625 21.535156 72.464844 21.535156 C 72.164062 21.535156 71.875 21.59375 71.597656 21.710938 C 71.320312 21.824219 71.074219 21.988281 70.859375 22.203125 C 70.648438 22.414062 70.484375 22.660156 70.371094 22.9375 C 70.253906 23.214844 70.195312 23.503906 70.195312 23.804688 C 70.195312 24.105469 70.253906 24.398438 70.371094 24.675781 C 70.484375 24.953125 70.648438 25.199219 70.863281 25.410156 C 71.074219 25.621094 71.320312 25.785156 71.597656 25.902344 C 71.875 26.019531 72.164062 26.074219 72.464844 26.074219 Z M 72.464844 22.722656 C 72.609375 22.722656 72.746094 22.75 72.878906 22.804688 C 73.011719 22.859375 73.132812 22.9375 73.234375 23.039062 C 73.335938 23.140625 73.414062 23.257812 73.46875 23.390625 C 73.523438 23.523438 73.550781 23.664062 73.550781 23.808594 C 73.550781 23.953125 73.523438 24.089844 73.46875 24.222656 C 73.414062 24.355469 73.335938 24.472656 73.234375 24.574219 C 73.132812 24.675781 73.015625 24.753906 72.882812 24.808594 C 72.75 24.867188 72.609375 24.894531 72.464844 24.894531 C 72.320312 24.894531 72.183594 24.867188 72.050781 24.808594 C 71.917969 24.753906 71.800781 24.675781 71.699219 24.574219 C 71.597656 24.472656 71.519531 24.355469 71.464844 24.222656 C 71.40625 24.089844 71.378906 23.949219 71.378906 23.804688 C 71.382812 23.664062 71.410156 23.523438 71.464844 23.390625 C 71.519531 23.257812 71.597656 23.140625 71.699219 23.039062 C 71.800781 22.9375 71.917969 22.859375 72.050781 22.804688 C 72.183594 22.75 72.320312 22.722656 72.464844 22.722656 Z M 72.464844 22.722656 "/><path style=" stroke:none;fill-rule:nonzero;fill:#0661aa;fill-opacity:1;" d="M 79.324219 21.578125 C 79.625 21.578125 79.917969 21.523438 80.195312 21.40625 C 80.472656 21.292969 80.71875 21.128906 80.929688 20.914062 C 81.144531 20.703125 81.308594 20.457031 81.421875 20.179688 C 81.539062 19.902344 81.597656 19.609375 81.597656 19.308594 C 81.597656 19.007812 81.539062 18.71875 81.421875 18.441406 C 81.308594 18.164062 81.144531 17.917969 80.933594 17.703125 C 80.71875 17.492188 80.472656 17.328125 80.195312 17.210938 C 79.917969 17.097656 79.628906 17.039062 79.328125 17.039062 C 79.027344 17.039062 78.738281 17.097656 78.457031 17.210938 C 78.179688 17.328125 77.933594 17.492188 77.722656 17.703125 C 77.507812 17.917969 77.34375 18.164062 77.230469 18.441406 C 77.113281 18.71875 77.058594 19.007812 77.058594 19.308594 C 77.058594 19.609375 77.113281 19.898438 77.230469 20.175781 C 77.34375 20.453125 77.507812 20.699219 77.722656 20.914062 C 77.933594 21.125 78.179688 21.289062 78.457031 21.40625 C 78.734375 21.519531 79.023438 21.578125 79.324219 21.578125 Z M 79.324219 18.226562 C 79.46875 18.226562 79.609375 18.253906 79.742188 18.308594 C 79.875 18.363281 79.992188 18.441406 80.09375 18.542969 C 80.195312 18.644531 80.273438 18.761719 80.328125 18.894531 C 80.382812 19.027344 80.410156 19.164062 80.410156 19.308594 C 80.410156 19.453125 80.382812 19.59375 80.328125 19.726562 C 80.273438 19.859375 80.195312 19.976562 80.09375 20.078125 C 79.992188 20.179688 79.875 20.257812 79.742188 20.3125 C 79.609375 20.367188 79.46875 20.394531 79.328125 20.394531 C 79.183594 20.394531 79.042969 20.367188 78.910156 20.3125 C 78.777344 20.257812 78.660156 20.179688 78.558594 20.078125 C 78.457031 19.976562 78.378906 19.859375 78.324219 19.726562 C 78.269531 19.589844 78.242188 19.453125 78.242188 19.308594 C 78.242188 19.164062 78.269531 19.027344 78.324219 18.894531 C 78.378906 18.761719 78.457031 18.644531 78.558594 18.542969 C 78.660156 18.441406 78.777344 18.363281 78.910156 18.308594 C 79.042969 18.253906 79.183594 18.226562 79.324219 18.226562 Z M 79.324219 18.226562 "/><path style=" stroke:none;fill-rule:nonzero;fill:#0661aa;fill-opacity:1;" d="M 77.503906 48.066406 C 77.605469 48.203125 77.738281 48.277344 77.902344 48.300781 C 78.066406 48.324219 78.214844 48.28125 78.34375 48.179688 C 78.476562 48.078125 78.550781 47.941406 78.566406 47.777344 C 78.585938 47.613281 78.542969 47.464844 78.4375 47.335938 L 74.332031 42.113281 C 74.230469 41.988281 74.097656 41.917969 73.9375 41.902344 C 73.777344 41.882812 73.636719 41.925781 73.507812 42.023438 C 73.382812 42.125 73.308594 42.253906 73.289062 42.414062 C 73.265625 42.570312 73.304688 42.714844 73.402344 42.84375 Z M 77.503906 48.066406 "/><g clip-rule="nonzero" clip-path="url(#a2b854baa2)"><path style=" stroke:none;fill-rule:nonzero;fill:#0661aa;fill-opacity:1;" d="M 93.082031 21.058594 L 90.003906 21.058594 C 89.78125 21.058594 89.589844 21.136719 89.433594 21.292969 C 89.273438 21.449219 89.195312 21.640625 89.195312 21.863281 L 89.195312 62.066406 C 89.199219 62.515625 89.160156 62.960938 89.078125 63.402344 C 88.996094 63.839844 88.875 64.269531 88.714844 64.6875 C 88.550781 65.105469 88.355469 65.507812 88.117188 65.886719 C 87.882812 66.269531 87.613281 66.625 87.3125 66.957031 C 87.011719 67.285156 86.679688 67.585938 86.324219 67.855469 C 85.964844 68.125 85.585938 68.359375 85.183594 68.558594 C 84.78125 68.757812 84.367188 68.917969 83.933594 69.039062 C 83.503906 69.160156 83.066406 69.238281 82.617188 69.28125 C 82.171875 69.320312 81.726562 69.316406 81.28125 69.273438 C 80.835938 69.230469 80.398438 69.144531 79.964844 69.019531 C 79.535156 68.894531 79.121094 68.730469 78.722656 68.527344 C 78.324219 68.328125 77.945312 68.089844 77.589844 67.816406 C 77.234375 67.542969 76.90625 67.238281 76.609375 66.90625 C 76.308594 66.570312 76.042969 66.214844 75.8125 65.832031 C 75.582031 65.449219 75.386719 65.046875 75.226562 64.625 C 75.070312 64.207031 74.953125 63.777344 74.875 63.335938 C 75.621094 63.203125 76.34375 63 77.050781 62.726562 C 77.257812 62.644531 77.40625 62.503906 77.496094 62.296875 C 77.585938 62.09375 77.589844 61.886719 77.507812 61.679688 C 77.429688 61.46875 77.285156 61.320312 77.078125 61.230469 C 76.875 61.140625 76.667969 61.136719 76.460938 61.21875 C 72.53125 62.757812 68.507812 61.234375 68.464844 61.21875 C 68.257812 61.140625 68.050781 61.144531 67.847656 61.234375 C 67.644531 61.324219 67.5 61.472656 67.417969 61.679688 C 67.339844 61.886719 67.34375 62.09375 67.433594 62.300781 C 67.523438 62.503906 67.671875 62.644531 67.878906 62.726562 C 68.585938 62.980469 69.304688 63.171875 70.042969 63.296875 C 70.117188 64.03125 70.261719 64.753906 70.46875 65.460938 C 70.675781 66.171875 70.949219 66.855469 71.285156 67.511719 C 71.617188 68.171875 72.011719 68.792969 72.460938 69.378906 C 72.914062 69.964844 73.414062 70.503906 73.964844 70.996094 C 74.515625 71.488281 75.105469 71.925781 75.738281 72.308594 C 76.367188 72.691406 77.03125 73.015625 77.71875 73.273438 C 78.410156 73.535156 79.121094 73.730469 79.847656 73.859375 C 80.574219 73.988281 81.308594 74.050781 82.046875 74.042969 C 82.785156 74.035156 83.519531 73.960938 84.242188 73.816406 C 84.96875 73.675781 85.671875 73.464844 86.359375 73.191406 C 87.046875 72.917969 87.699219 72.585938 88.324219 72.191406 C 88.949219 71.796875 89.53125 71.347656 90.074219 70.84375 C 90.613281 70.339844 91.105469 69.792969 91.542969 69.199219 C 91.984375 68.605469 92.363281 67.976562 92.6875 67.308594 C 93.007812 66.644531 93.265625 65.957031 93.460938 65.246094 C 93.65625 64.53125 93.785156 63.808594 93.84375 63.070312 C 93.875 62.988281 93.886719 62.902344 93.886719 62.8125 L 93.886719 21.863281 C 93.886719 21.640625 93.808594 21.453125 93.652344 21.292969 C 93.496094 21.136719 93.304688 21.058594 93.082031 21.058594 Z M 92.273438 22.671875 L 92.273438 30.691406 L 90.8125 30.691406 L 90.8125 22.671875 Z M 71.695312 63.5 C 71.992188 63.519531 72.300781 63.53125 72.617188 63.53125 C 72.835938 63.53125 73.050781 63.527344 73.269531 63.515625 C 73.4375 64.507812 73.765625 65.441406 74.25 66.320312 C 74.738281 67.203125 75.355469 67.976562 76.105469 68.644531 L 75.148438 69.878906 C 74.203125 69.058594 73.4375 68.101562 72.839844 67.003906 C 72.246094 65.90625 71.863281 64.738281 71.695312 63.5 Z M 81.933594 72.40625 C 79.796875 72.414062 77.84375 71.808594 76.082031 70.601562 L 77.035156 69.371094 C 77.699219 69.824219 78.410156 70.175781 79.171875 70.433594 C 79.929688 70.691406 80.710938 70.839844 81.511719 70.886719 C 82.3125 70.929688 83.101562 70.863281 83.886719 70.691406 C 84.667969 70.519531 85.414062 70.246094 86.125 69.871094 C 86.832031 69.496094 87.476562 69.03125 88.058594 68.480469 C 88.640625 67.929688 89.136719 67.308594 89.550781 66.621094 C 89.960938 65.933594 90.277344 65.203125 90.488281 64.429688 C 90.703125 63.65625 90.808594 62.871094 90.808594 62.066406 L 90.808594 31.878906 L 92.269531 31.878906 L 92.269531 62.066406 C 92.269531 62.746094 92.203125 63.417969 92.070312 64.085938 C 91.9375 64.75 91.742188 65.394531 91.480469 66.023438 C 91.21875 66.648438 90.902344 67.246094 90.523438 67.808594 C 90.148438 68.371094 89.71875 68.894531 89.238281 69.375 C 88.761719 69.855469 88.238281 70.28125 87.675781 70.660156 C 87.109375 71.039062 86.515625 71.355469 85.890625 71.617188 C 85.261719 71.875 84.617188 72.074219 83.949219 72.207031 C 83.285156 72.339844 82.613281 72.40625 81.933594 72.40625 Z M 81.933594 72.40625 "/></g><g style="fill:#2d6d5e;fill-opacity:1;"><g transform="translate(27.060093, 128.808008)"><path style="stroke:none" d="M 0.8125 0 L 0.8125 -7.796875 L 1.65625 -7.796875 L 1.65625 0 Z M 0.8125 0 "/></g></g><g style="fill:#2d6d5e;fill-opacity:1;"><g transform="translate(31.032421, 128.808008)"><path style="stroke:none" d="M 2.828125 -5.96875 C 3.285156 -5.96875 3.632812 -5.800781 3.875 -5.46875 C 4.113281 -5.144531 4.234375 -4.648438 4.234375 -3.984375 L 4.234375 0 L 3.40625 0 L 3.40625 -3.828125 C 3.40625 -4.296875 3.34375 -4.644531 3.21875 -4.875 C 3.101562 -5.113281 2.910156 -5.234375 2.640625 -5.234375 C 2.253906 -5.234375 1.972656 -5.0625 1.796875 -4.71875 C 1.617188 -4.382812 1.53125 -3.835938 1.53125 -3.078125 L 1.53125 0 L 0.71875 0 L 0.71875 -5.859375 L 1.375 -5.859375 L 1.46875 -5 L 1.515625 -5 C 1.597656 -5.195312 1.703125 -5.367188 1.828125 -5.515625 C 1.953125 -5.660156 2.097656 -5.769531 2.265625 -5.84375 C 2.429688 -5.925781 2.617188 -5.96875 2.828125 -5.96875 Z M 2.828125 -5.96875 "/></g></g><g style="fill:#2d6d5e;fill-opacity:1;"><g transform="translate(37.484385, 128.808008)"><path style="stroke:none" d="M 2.40625 0.109375 C 1.976562 0.109375 1.617188 0 1.328125 -0.21875 C 1.046875 -0.445312 0.832031 -0.785156 0.6875 -1.234375 C 0.539062 -1.679688 0.46875 -2.234375 0.46875 -2.890625 C 0.46875 -3.523438 0.539062 -4.070312 0.6875 -4.53125 C 0.832031 -4.988281 1.050781 -5.34375 1.34375 -5.59375 C 1.632812 -5.84375 2 -5.96875 2.4375 -5.96875 C 2.65625 -5.96875 2.851562 -5.941406 3.03125 -5.890625 C 3.207031 -5.847656 3.375 -5.785156 3.53125 -5.703125 L 3.265625 -5.015625 C 3.128906 -5.085938 2.992188 -5.140625 2.859375 -5.171875 C 2.734375 -5.210938 2.609375 -5.234375 2.484375 -5.234375 C 2.234375 -5.234375 2.019531 -5.144531 1.84375 -4.96875 C 1.664062 -4.789062 1.53125 -4.53125 1.4375 -4.1875 C 1.351562 -3.84375 1.3125 -3.410156 1.3125 -2.890625 C 1.3125 -2.390625 1.351562 -1.96875 1.4375 -1.625 C 1.53125 -1.289062 1.660156 -1.035156 1.828125 -0.859375 C 2.003906 -0.691406 2.226562 -0.609375 2.5 -0.609375 C 2.65625 -0.609375 2.8125 -0.628906 2.96875 -0.671875 C 3.132812 -0.722656 3.300781 -0.789062 3.46875 -0.875 L 3.46875 -0.1875 C 3.3125 -0.09375 3.132812 -0.0195312 2.9375 0.03125 C 2.738281 0.0820312 2.5625 0.109375 2.40625 0.109375 Z M 2.40625 0.109375 "/></g></g><g style="fill:#2d6d5e;fill-opacity:1;"><g transform="translate(42.763188, 128.808008)"><path style="stroke:none" d="M 2.671875 -5.953125 C 2.753906 -5.953125 2.835938 -5.945312 2.921875 -5.9375 C 3.003906 -5.925781 3.085938 -5.90625 3.171875 -5.875 L 3.046875 -5.03125 C 2.984375 -5.0625 2.914062 -5.082031 2.84375 -5.09375 C 2.769531 -5.101562 2.691406 -5.109375 2.609375 -5.109375 C 2.453125 -5.109375 2.304688 -5.054688 2.171875 -4.953125 C 2.035156 -4.847656 1.921875 -4.703125 1.828125 -4.515625 C 1.734375 -4.328125 1.660156 -4.109375 1.609375 -3.859375 C 1.554688 -3.609375 1.53125 -3.335938 1.53125 -3.046875 L 1.53125 0 L 0.71875 0 L 0.71875 -5.859375 L 1.359375 -5.859375 L 1.46875 -4.8125 L 1.515625 -4.8125 C 1.597656 -5.039062 1.691406 -5.238281 1.796875 -5.40625 C 1.910156 -5.570312 2.039062 -5.703125 2.1875 -5.796875 C 2.332031 -5.898438 2.492188 -5.953125 2.671875 -5.953125 Z M 2.671875 -5.953125 "/></g></g><g style="fill:#2d6d5e;fill-opacity:1;"><g transform="translate(47.567395, 128.808008)"><path style="stroke:none" d="M 2.328125 -5.953125 C 2.722656 -5.953125 3.050781 -5.835938 3.3125 -5.609375 C 3.570312 -5.378906 3.765625 -5.066406 3.890625 -4.671875 C 4.015625 -4.273438 4.078125 -3.835938 4.078125 -3.359375 L 4.078125 -2.78125 L 1.28125 -2.78125 C 1.289062 -2.050781 1.40625 -1.503906 1.625 -1.140625 C 1.84375 -0.773438 2.171875 -0.59375 2.609375 -0.59375 C 2.816406 -0.59375 3.019531 -0.625 3.21875 -0.6875 C 3.425781 -0.75 3.640625 -0.851562 3.859375 -1 L 3.859375 -0.265625 C 3.660156 -0.140625 3.445312 -0.046875 3.21875 0.015625 C 3 0.078125 2.765625 0.109375 2.515625 0.109375 C 2.035156 0.109375 1.644531 -0.0195312 1.34375 -0.28125 C 1.039062 -0.539062 0.816406 -0.894531 0.671875 -1.34375 C 0.535156 -1.800781 0.46875 -2.316406 0.46875 -2.890625 C 0.46875 -3.546875 0.535156 -4.101562 0.671875 -4.5625 C 0.816406 -5.019531 1.023438 -5.363281 1.296875 -5.59375 C 1.578125 -5.832031 1.921875 -5.953125 2.328125 -5.953125 Z M 2.328125 -5.28125 C 2.015625 -5.28125 1.769531 -5.128906 1.59375 -4.828125 C 1.425781 -4.523438 1.328125 -4.0625 1.296875 -3.4375 L 3.3125 -3.4375 C 3.3125 -3.769531 3.273438 -4.070312 3.203125 -4.34375 C 3.128906 -4.625 3.019531 -4.847656 2.875 -5.015625 C 2.738281 -5.191406 2.554688 -5.28125 2.328125 -5.28125 Z M 2.328125 -5.28125 "/></g></g><g style="fill:#2d6d5e;fill-opacity:1;"><g transform="translate(53.614085, 128.808008)"><path style="stroke:none" d="M 2.28125 -5.96875 C 2.820312 -5.96875 3.207031 -5.789062 3.4375 -5.4375 C 3.664062 -5.09375 3.78125 -4.597656 3.78125 -3.953125 L 3.78125 0 L 3.15625 0 L 3.046875 -0.828125 L 3.015625 -0.828125 C 2.921875 -0.628906 2.8125 -0.457031 2.6875 -0.3125 C 2.5625 -0.175781 2.414062 -0.0703125 2.25 0 C 2.082031 0.0703125 1.894531 0.109375 1.6875 0.109375 C 1.382812 0.109375 1.132812 0.03125 0.9375 -0.125 C 0.75 -0.289062 0.609375 -0.503906 0.515625 -0.765625 C 0.421875 -1.023438 0.375 -1.304688 0.375 -1.609375 C 0.375 -2.191406 0.539062 -2.640625 0.875 -2.953125 C 1.207031 -3.273438 1.679688 -3.453125 2.296875 -3.484375 L 2.96875 -3.53125 L 2.96875 -3.921875 C 2.96875 -4.390625 2.90625 -4.734375 2.78125 -4.953125 C 2.65625 -5.171875 2.445312 -5.28125 2.15625 -5.28125 C 2 -5.28125 1.828125 -5.25 1.640625 -5.1875 C 1.460938 -5.132812 1.269531 -5.046875 1.0625 -4.921875 L 0.796875 -5.546875 C 1.015625 -5.679688 1.25 -5.785156 1.5 -5.859375 C 1.75 -5.929688 2.007812 -5.96875 2.28125 -5.96875 Z M 2.984375 -2.921875 L 2.4375 -2.890625 C 2.019531 -2.859375 1.710938 -2.738281 1.515625 -2.53125 C 1.316406 -2.320312 1.21875 -2.019531 1.21875 -1.625 C 1.21875 -1.257812 1.28125 -0.988281 1.40625 -0.8125 C 1.539062 -0.644531 1.722656 -0.5625 1.953125 -0.5625 C 2.273438 -0.5625 2.523438 -0.71875 2.703125 -1.03125 C 2.890625 -1.34375 2.984375 -1.773438 2.984375 -2.328125 Z M 2.984375 -2.921875 "/></g></g><g style="fill:#2d6d5e;fill-opacity:1;"><g transform="translate(59.62878, 128.808008)"><path style="stroke:none" d="M 3.3125 -1.546875 C 3.3125 -1.191406 3.25 -0.890625 3.125 -0.640625 C 3 -0.398438 2.8125 -0.210938 2.5625 -0.078125 C 2.320312 0.046875 2.03125 0.109375 1.6875 0.109375 C 1.414062 0.109375 1.164062 0.078125 0.9375 0.015625 C 0.71875 -0.046875 0.53125 -0.125 0.375 -0.21875 L 0.375 -1.078125 C 0.53125 -0.941406 0.722656 -0.832031 0.953125 -0.75 C 1.179688 -0.664062 1.414062 -0.625 1.65625 -0.625 C 1.925781 -0.625 2.132812 -0.703125 2.28125 -0.859375 C 2.425781 -1.015625 2.5 -1.234375 2.5 -1.515625 C 2.5 -1.679688 2.46875 -1.828125 2.40625 -1.953125 C 2.351562 -2.078125 2.257812 -2.191406 2.125 -2.296875 C 1.988281 -2.410156 1.8125 -2.53125 1.59375 -2.65625 C 1.351562 -2.8125 1.140625 -2.96875 0.953125 -3.125 C 0.765625 -3.28125 0.617188 -3.460938 0.515625 -3.671875 C 0.421875 -3.878906 0.375 -4.132812 0.375 -4.4375 C 0.375 -4.894531 0.519531 -5.265625 0.8125 -5.546875 C 1.113281 -5.828125 1.503906 -5.96875 1.984375 -5.96875 C 2.234375 -5.96875 2.46875 -5.9375 2.6875 -5.875 C 2.90625 -5.8125 3.113281 -5.71875 3.3125 -5.59375 L 3 -4.921875 C 2.84375 -5.023438 2.679688 -5.109375 2.515625 -5.171875 C 2.347656 -5.234375 2.175781 -5.265625 2 -5.265625 C 1.738281 -5.265625 1.53125 -5.191406 1.375 -5.046875 C 1.226562 -4.898438 1.15625 -4.703125 1.15625 -4.453125 C 1.15625 -4.296875 1.1875 -4.15625 1.25 -4.03125 C 1.3125 -3.914062 1.410156 -3.800781 1.546875 -3.6875 C 1.679688 -3.582031 1.863281 -3.460938 2.09375 -3.328125 C 2.332031 -3.171875 2.539062 -3.015625 2.71875 -2.859375 C 2.90625 -2.703125 3.050781 -2.519531 3.15625 -2.3125 C 3.257812 -2.101562 3.3125 -1.847656 3.3125 -1.546875 Z M 3.3125 -1.546875 "/></g></g><g style="fill:#2d6d5e;fill-opacity:1;"><g transform="translate(64.827595, 128.808008)"><path style="stroke:none" d="M 2.328125 -5.953125 C 2.722656 -5.953125 3.050781 -5.835938 3.3125 -5.609375 C 3.570312 -5.378906 3.765625 -5.066406 3.890625 -4.671875 C 4.015625 -4.273438 4.078125 -3.835938 4.078125 -3.359375 L 4.078125 -2.78125 L 1.28125 -2.78125 C 1.289062 -2.050781 1.40625 -1.503906 1.625 -1.140625 C 1.84375 -0.773438 2.171875 -0.59375 2.609375 -0.59375 C 2.816406 -0.59375 3.019531 -0.625 3.21875 -0.6875 C 3.425781 -0.75 3.640625 -0.851562 3.859375 -1 L 3.859375 -0.265625 C 3.660156 -0.140625 3.445312 -0.046875 3.21875 0.015625 C 3 0.078125 2.765625 0.109375 2.515625 0.109375 C 2.035156 0.109375 1.644531 -0.0195312 1.34375 -0.28125 C 1.039062 -0.539062 0.816406 -0.894531 0.671875 -1.34375 C 0.535156 -1.800781 0.46875 -2.316406 0.46875 -2.890625 C 0.46875 -3.546875 0.535156 -4.101562 0.671875 -4.5625 C 0.816406 -5.019531 1.023438 -5.363281 1.296875 -5.59375 C 1.578125 -5.832031 1.921875 -5.953125 2.328125 -5.953125 Z M 2.328125 -5.28125 C 2.015625 -5.28125 1.769531 -5.128906 1.59375 -4.828125 C 1.425781 -4.523438 1.328125 -4.0625 1.296875 -3.4375 L 3.3125 -3.4375 C 3.3125 -3.769531 3.273438 -4.070312 3.203125 -4.34375 C 3.128906 -4.625 3.019531 -4.847656 2.875 -5.015625 C 2.738281 -5.191406 2.554688 -5.28125 2.328125 -5.28125 Z M 2.328125 -5.28125 "/></g></g><g style="fill:#2d6d5e;fill-opacity:1;"><g transform="translate(70.874285, 128.808008)"><path style="stroke:none" d=""/></g></g><g style="fill:#2d6d5e;fill-opacity:1;"><g transform="translate(74.430675, 128.808008)"><path style="stroke:none" d="M 1.53125 -8.296875 L 1.53125 -5.859375 C 1.53125 -5.742188 1.523438 -5.613281 1.515625 -5.46875 C 1.515625 -5.332031 1.515625 -5.1875 1.515625 -5.03125 L 1.546875 -5.03125 C 1.691406 -5.332031 1.875 -5.5625 2.09375 -5.71875 C 2.3125 -5.875 2.5625 -5.953125 2.84375 -5.953125 C 3.40625 -5.953125 3.828125 -5.695312 4.109375 -5.1875 C 4.398438 -4.675781 4.546875 -3.925781 4.546875 -2.9375 C 4.546875 -2.28125 4.476562 -1.722656 4.34375 -1.265625 C 4.21875 -0.816406 4.03125 -0.472656 3.78125 -0.234375 C 3.53125 -0.00390625 3.222656 0.109375 2.859375 0.109375 C 2.578125 0.109375 2.328125 0.0351562 2.109375 -0.109375 C 1.890625 -0.253906 1.703125 -0.476562 1.546875 -0.78125 L 1.5 -0.78125 L 1.375 0 L 0.71875 0 L 0.71875 -8.296875 Z M 2.671875 -5.234375 C 2.367188 -5.234375 2.132812 -5.132812 1.96875 -4.9375 C 1.8125 -4.75 1.695312 -4.488281 1.625 -4.15625 C 1.5625 -3.832031 1.53125 -3.457031 1.53125 -3.03125 L 1.53125 -2.78125 C 1.53125 -2.039062 1.625 -1.492188 1.8125 -1.140625 C 2.007812 -0.785156 2.296875 -0.609375 2.671875 -0.609375 C 3.015625 -0.609375 3.269531 -0.796875 3.4375 -1.171875 C 3.613281 -1.554688 3.703125 -2.148438 3.703125 -2.953125 C 3.703125 -3.703125 3.617188 -4.269531 3.453125 -4.65625 C 3.285156 -5.039062 3.023438 -5.234375 2.671875 -5.234375 Z M 2.671875 -5.234375 "/></g></g><g style="fill:#2d6d5e;fill-opacity:1;"><g transform="translate(80.957295, 128.808008)"><path style="stroke:none" d="M 2.671875 -5.953125 C 2.753906 -5.953125 2.835938 -5.945312 2.921875 -5.9375 C 3.003906 -5.925781 3.085938 -5.90625 3.171875 -5.875 L 3.046875 -5.03125 C 2.984375 -5.0625 2.914062 -5.082031 2.84375 -5.09375 C 2.769531 -5.101562 2.691406 -5.109375 2.609375 -5.109375 C 2.453125 -5.109375 2.304688 -5.054688 2.171875 -4.953125 C 2.035156 -4.847656 1.921875 -4.703125 1.828125 -4.515625 C 1.734375 -4.328125 1.660156 -4.109375 1.609375 -3.859375 C 1.554688 -3.609375 1.53125 -3.335938 1.53125 -3.046875 L 1.53125 0 L 0.71875 0 L 0.71875 -5.859375 L 1.359375 -5.859375 L 1.46875 -4.8125 L 1.515625 -4.8125 C 1.597656 -5.039062 1.691406 -5.238281 1.796875 -5.40625 C 1.910156 -5.570312 2.039062 -5.703125 2.1875 -5.796875 C 2.332031 -5.898438 2.492188 -5.953125 2.671875 -5.953125 Z M 2.671875 -5.953125 "/></g></g><g style="fill:#2d6d5e;fill-opacity:1;"><g transform="translate(85.761501, 128.808008)"><path style="stroke:none" d="M 2.328125 -5.953125 C 2.722656 -5.953125 3.050781 -5.835938 3.3125 -5.609375 C 3.570312 -5.378906 3.765625 -5.066406 3.890625 -4.671875 C 4.015625 -4.273438 4.078125 -3.835938 4.078125 -3.359375 L 4.078125 -2.78125 L 1.28125 -2.78125 C 1.289062 -2.050781 1.40625 -1.503906 1.625 -1.140625 C 1.84375 -0.773438 2.171875 -0.59375 2.609375 -0.59375 C 2.816406 -0.59375 3.019531 -0.625 3.21875 -0.6875 C 3.425781 -0.75 3.640625 -0.851562 3.859375 -1 L 3.859375 -0.265625 C 3.660156 -0.140625 3.445312 -0.046875 3.21875 0.015625 C 3 0.078125 2.765625 0.109375 2.515625 0.109375 C 2.035156 0.109375 1.644531 -0.0195312 1.34375 -0.28125 C 1.039062 -0.539062 0.816406 -0.894531 0.671875 -1.34375 C 0.535156 -1.800781 0.46875 -2.316406 0.46875 -2.890625 C 0.46875 -3.546875 0.535156 -4.101562 0.671875 -4.5625 C 0.816406 -5.019531 1.023438 -5.363281 1.296875 -5.59375 C 1.578125 -5.832031 1.921875 -5.953125 2.328125 -5.953125 Z M 2.328125 -5.28125 C 2.015625 -5.28125 1.769531 -5.128906 1.59375 -4.828125 C 1.425781 -4.523438 1.328125 -4.0625 1.296875 -3.4375 L 3.3125 -3.4375 C 3.3125 -3.769531 3.273438 -4.070312 3.203125 -4.34375 C 3.128906 -4.625 3.019531 -4.847656 2.875 -5.015625 C 2.738281 -5.191406 2.554688 -5.28125 2.328125 -5.28125 Z M 2.328125 -5.28125 "/></g></g><g style="fill:#2d6d5e;fill-opacity:1;"><g transform="translate(91.808191, 128.808008)"><path style="stroke:none" d="M 2.28125 -5.96875 C 2.820312 -5.96875 3.207031 -5.789062 3.4375 -5.4375 C 3.664062 -5.09375 3.78125 -4.597656 3.78125 -3.953125 L 3.78125 0 L 3.15625 0 L 3.046875 -0.828125 L 3.015625 -0.828125 C 2.921875 -0.628906 2.8125 -0.457031 2.6875 -0.3125 C 2.5625 -0.175781 2.414062 -0.0703125 2.25 0 C 2.082031 0.0703125 1.894531 0.109375 1.6875 0.109375 C 1.382812 0.109375 1.132812 0.03125 0.9375 -0.125 C 0.75 -0.289062 0.609375 -0.503906 0.515625 -0.765625 C 0.421875 -1.023438 0.375 -1.304688 0.375 -1.609375 C 0.375 -2.191406 0.539062 -2.640625 0.875 -2.953125 C 1.207031 -3.273438 1.679688 -3.453125 2.296875 -3.484375 L 2.96875 -3.53125 L 2.96875 -3.921875 C 2.96875 -4.390625 2.90625 -4.734375 2.78125 -4.953125 C 2.65625 -5.171875 2.445312 -5.28125 2.15625 -5.28125 C 2 -5.28125 1.828125 -5.25 1.640625 -5.1875 C 1.460938 -5.132812 1.269531 -5.046875 1.0625 -4.921875 L 0.796875 -5.546875 C 1.015625 -5.679688 1.25 -5.785156 1.5 -5.859375 C 1.75 -5.929688 2.007812 -5.96875 2.28125 -5.96875 Z M 2.984375 -2.921875 L 2.4375 -2.890625 C 2.019531 -2.859375 1.710938 -2.738281 1.515625 -2.53125 C 1.316406 -2.320312 1.21875 -2.019531 1.21875 -1.625 C 1.21875 -1.257812 1.28125 -0.988281 1.40625 -0.8125 C 1.539062 -0.644531 1.722656 -0.5625 1.953125 -0.5625 C 2.273438 -0.5625 2.523438 -0.71875 2.703125 -1.03125 C 2.890625 -1.34375 2.984375 -1.773438 2.984375 -2.328125 Z M 2.984375 -2.921875 "/></g></g><g style="fill:#2d6d5e;fill-opacity:1;"><g transform="translate(97.822886, 128.808008)"><path style="stroke:none" d="M 2.09375 -0.625 C 2.175781 -0.625 2.257812 -0.628906 2.34375 -0.640625 C 2.4375 -0.660156 2.523438 -0.691406 2.609375 -0.734375 L 2.609375 -0.0625 C 2.503906 -0.0078125 2.382812 0.03125 2.25 0.0625 C 2.125 0.09375 1.984375 0.109375 1.828125 0.109375 C 1.578125 0.109375 1.367188 0.0507812 1.203125 -0.0625 C 1.046875 -0.175781 0.925781 -0.34375 0.84375 -0.5625 C 0.769531 -0.789062 0.734375 -1.078125 0.734375 -1.421875 L 0.734375 -5.171875 L 0.1875 -5.171875 L 0.1875 -5.609375 L 0.765625 -5.828125 L 0.984375 -7.1875 L 1.5625 -7.1875 L 1.5625 -5.859375 L 2.546875 -5.859375 L 2.546875 -5.171875 L 1.5625 -5.171875 L 1.5625 -1.515625 C 1.5625 -1.210938 1.597656 -0.988281 1.671875 -0.84375 C 1.742188 -0.695312 1.882812 -0.625 2.09375 -0.625 Z M 2.09375 -0.625 "/></g></g><g style="fill:#2d6d5e;fill-opacity:1;"><g transform="translate(102.120501, 128.808008)"><path style="stroke:none" d="M 1.53125 -8.296875 L 1.53125 -5.890625 C 1.53125 -5.734375 1.523438 -5.582031 1.515625 -5.4375 C 1.515625 -5.289062 1.503906 -5.15625 1.484375 -5.03125 L 1.53125 -5.03125 C 1.601562 -5.21875 1.703125 -5.378906 1.828125 -5.515625 C 1.953125 -5.660156 2.097656 -5.769531 2.265625 -5.84375 C 2.429688 -5.925781 2.613281 -5.96875 2.8125 -5.96875 C 3.132812 -5.96875 3.398438 -5.890625 3.609375 -5.734375 C 3.828125 -5.585938 3.984375 -5.363281 4.078125 -5.0625 C 4.179688 -4.769531 4.234375 -4.410156 4.234375 -3.984375 L 4.234375 0 L 3.40625 0 L 3.40625 -3.8125 C 3.40625 -4.320312 3.34375 -4.679688 3.21875 -4.890625 C 3.101562 -5.109375 2.910156 -5.21875 2.640625 -5.21875 C 2.390625 -5.21875 2.179688 -5.140625 2.015625 -4.984375 C 1.859375 -4.835938 1.738281 -4.601562 1.65625 -4.28125 C 1.570312 -3.96875 1.53125 -3.5625 1.53125 -3.0625 L 1.53125 0 L 0.71875 0 L 0.71875 -8.296875 Z M 1.53125 -8.296875 "/></g></g><g style="fill:#2d6d5e;fill-opacity:1;"><g transform="translate(33.149341, 141.475507)"><path style="stroke:none" d="M 1.53125 -8.296875 L 1.53125 -5.890625 C 1.53125 -5.734375 1.523438 -5.582031 1.515625 -5.4375 C 1.515625 -5.289062 1.503906 -5.15625 1.484375 -5.03125 L 1.53125 -5.03125 C 1.601562 -5.21875 1.703125 -5.378906 1.828125 -5.515625 C 1.953125 -5.660156 2.097656 -5.769531 2.265625 -5.84375 C 2.429688 -5.925781 2.613281 -5.96875 2.8125 -5.96875 C 3.132812 -5.96875 3.398438 -5.890625 3.609375 -5.734375 C 3.828125 -5.585938 3.984375 -5.363281 4.078125 -5.0625 C 4.179688 -4.769531 4.234375 -4.410156 4.234375 -3.984375 L 4.234375 0 L 3.40625 0 L 3.40625 -3.8125 C 3.40625 -4.320312 3.34375 -4.679688 3.21875 -4.890625 C 3.101562 -5.109375 2.910156 -5.21875 2.640625 -5.21875 C 2.390625 -5.21875 2.179688 -5.140625 2.015625 -4.984375 C 1.859375 -4.835938 1.738281 -4.601562 1.65625 -4.28125 C 1.570312 -3.96875 1.53125 -3.5625 1.53125 -3.0625 L 1.53125 0 L 0.71875 0 L 0.71875 -8.296875 Z M 1.53125 -8.296875 "/></g></g><g style="fill:#2d6d5e;fill-opacity:1;"><g transform="translate(39.601305, 141.475507)"><path style="stroke:none" d="M 4.34375 -2.9375 C 4.34375 -2.46875 4.300781 -2.046875 4.21875 -1.671875 C 4.144531 -1.304688 4.023438 -0.988281 3.859375 -0.71875 C 3.703125 -0.445312 3.5 -0.238281 3.25 -0.09375 C 3.007812 0.0390625 2.722656 0.109375 2.390625 0.109375 C 2.078125 0.109375 1.796875 0.0390625 1.546875 -0.09375 C 1.304688 -0.238281 1.101562 -0.441406 0.9375 -0.703125 C 0.78125 -0.972656 0.660156 -1.296875 0.578125 -1.671875 C 0.503906 -2.046875 0.46875 -2.46875 0.46875 -2.9375 C 0.46875 -3.582031 0.535156 -4.128906 0.671875 -4.578125 C 0.804688 -5.023438 1.019531 -5.367188 1.3125 -5.609375 C 1.601562 -5.847656 1.96875 -5.96875 2.40625 -5.96875 C 2.820312 -5.96875 3.171875 -5.851562 3.453125 -5.625 C 3.742188 -5.394531 3.960938 -5.050781 4.109375 -4.59375 C 4.265625 -4.144531 4.34375 -3.59375 4.34375 -2.9375 Z M 1.296875 -2.9375 C 1.296875 -2.425781 1.332031 -2 1.40625 -1.65625 C 1.488281 -1.3125 1.613281 -1.050781 1.78125 -0.875 C 1.945312 -0.695312 2.160156 -0.609375 2.421875 -0.609375 C 2.671875 -0.609375 2.875 -0.691406 3.03125 -0.859375 C 3.195312 -1.035156 3.316406 -1.296875 3.390625 -1.640625 C 3.472656 -1.984375 3.515625 -2.414062 3.515625 -2.9375 C 3.515625 -3.445312 3.472656 -3.867188 3.390625 -4.203125 C 3.316406 -4.546875 3.195312 -4.804688 3.03125 -4.984375 C 2.875 -5.160156 2.664062 -5.25 2.40625 -5.25 C 2.019531 -5.25 1.738281 -5.050781 1.5625 -4.65625 C 1.382812 -4.269531 1.296875 -3.695312 1.296875 -2.9375 Z M 1.296875 -2.9375 "/></g></g><g style="fill:#2d6d5e;fill-opacity:1;"><g transform="translate(45.941285, 141.475507)"><path style="stroke:none" d="M 1.53125 0 L 0.71875 0 L 0.71875 -8.296875 L 1.53125 -8.296875 Z M 1.53125 0 "/></g></g><g style="fill:#2d6d5e;fill-opacity:1;"><g transform="translate(49.710977, 141.475507)"><path style="stroke:none" d="M 2.171875 0.109375 C 1.609375 0.109375 1.179688 -0.144531 0.890625 -0.65625 C 0.609375 -1.175781 0.46875 -1.925781 0.46875 -2.90625 C 0.46875 -3.882812 0.613281 -4.640625 0.90625 -5.171875 C 1.195312 -5.703125 1.609375 -5.96875 2.140625 -5.96875 C 2.328125 -5.96875 2.503906 -5.929688 2.671875 -5.859375 C 2.835938 -5.785156 2.988281 -5.679688 3.125 -5.546875 C 3.257812 -5.410156 3.375 -5.25 3.46875 -5.0625 L 3.5 -5.0625 C 3.5 -5.226562 3.492188 -5.375 3.484375 -5.5 C 3.484375 -5.632812 3.484375 -5.753906 3.484375 -5.859375 L 3.484375 -8.296875 L 4.296875 -8.296875 L 4.296875 0 L 3.640625 0 L 3.53125 -0.796875 L 3.484375 -0.796875 C 3.378906 -0.609375 3.265625 -0.445312 3.140625 -0.3125 C 3.015625 -0.175781 2.867188 -0.0703125 2.703125 0 C 2.546875 0.0703125 2.367188 0.109375 2.171875 0.109375 Z M 2.359375 -0.59375 C 2.722656 -0.59375 3 -0.765625 3.1875 -1.109375 C 3.382812 -1.453125 3.484375 -1.960938 3.484375 -2.640625 L 3.484375 -3.046875 C 3.484375 -3.785156 3.390625 -4.332031 3.203125 -4.6875 C 3.015625 -5.050781 2.726562 -5.234375 2.34375 -5.234375 C 1.988281 -5.234375 1.722656 -5.035156 1.546875 -4.640625 C 1.378906 -4.242188 1.296875 -3.664062 1.296875 -2.90625 C 1.296875 -2.144531 1.378906 -1.566406 1.546875 -1.171875 C 1.722656 -0.785156 1.992188 -0.59375 2.359375 -0.59375 Z M 2.359375 -0.59375 "/></g></g><g style="fill:#2d6d5e;fill-opacity:1;"><g transform="translate(56.237597, 141.475507)"><path style="stroke:none" d=""/></g></g><g style="fill:#2d6d5e;fill-opacity:1;"><g transform="translate(59.793987, 141.475507)"><path style="stroke:none" d="M 2.40625 0.109375 C 1.976562 0.109375 1.617188 0 1.328125 -0.21875 C 1.046875 -0.445312 0.832031 -0.785156 0.6875 -1.234375 C 0.539062 -1.679688 0.46875 -2.234375 0.46875 -2.890625 C 0.46875 -3.523438 0.539062 -4.070312 0.6875 -4.53125 C 0.832031 -4.988281 1.050781 -5.34375 1.34375 -5.59375 C 1.632812 -5.84375 2 -5.96875 2.4375 -5.96875 C 2.65625 -5.96875 2.851562 -5.941406 3.03125 -5.890625 C 3.207031 -5.847656 3.375 -5.785156 3.53125 -5.703125 L 3.265625 -5.015625 C 3.128906 -5.085938 2.992188 -5.140625 2.859375 -5.171875 C 2.734375 -5.210938 2.609375 -5.234375 2.484375 -5.234375 C 2.234375 -5.234375 2.019531 -5.144531 1.84375 -4.96875 C 1.664062 -4.789062 1.53125 -4.53125 1.4375 -4.1875 C 1.351562 -3.84375 1.3125 -3.410156 1.3125 -2.890625 C 1.3125 -2.390625 1.351562 -1.96875 1.4375 -1.625 C 1.53125 -1.289062 1.660156 -1.035156 1.828125 -0.859375 C 2.003906 -0.691406 2.226562 -0.609375 2.5 -0.609375 C 2.65625 -0.609375 2.8125 -0.628906 2.96875 -0.671875 C 3.132812 -0.722656 3.300781 -0.789062 3.46875 -0.875 L 3.46875 -0.1875 C 3.3125 -0.09375 3.132812 -0.0195312 2.9375 0.03125 C 2.738281 0.0820312 2.5625 0.109375 2.40625 0.109375 Z M 2.40625 0.109375 "/></g></g><g style="fill:#2d6d5e;fill-opacity:1;"><g transform="translate(65.07279, 141.475507)"><path style="stroke:none" d="M 2.28125 -5.96875 C 2.820312 -5.96875 3.207031 -5.789062 3.4375 -5.4375 C 3.664062 -5.09375 3.78125 -4.597656 3.78125 -3.953125 L 3.78125 0 L 3.15625 0 L 3.046875 -0.828125 L 3.015625 -0.828125 C 2.921875 -0.628906 2.8125 -0.457031 2.6875 -0.3125 C 2.5625 -0.175781 2.414062 -0.0703125 2.25 0 C 2.082031 0.0703125 1.894531 0.109375 1.6875 0.109375 C 1.382812 0.109375 1.132812 0.03125 0.9375 -0.125 C 0.75 -0.289062 0.609375 -0.503906 0.515625 -0.765625 C 0.421875 -1.023438 0.375 -1.304688 0.375 -1.609375 C 0.375 -2.191406 0.539062 -2.640625 0.875 -2.953125 C 1.207031 -3.273438 1.679688 -3.453125 2.296875 -3.484375 L 2.96875 -3.53125 L 2.96875 -3.921875 C 2.96875 -4.390625 2.90625 -4.734375 2.78125 -4.953125 C 2.65625 -5.171875 2.445312 -5.28125 2.15625 -5.28125 C 2 -5.28125 1.828125 -5.25 1.640625 -5.1875 C 1.460938 -5.132812 1.269531 -5.046875 1.0625 -4.921875 L 0.796875 -5.546875 C 1.015625 -5.679688 1.25 -5.785156 1.5 -5.859375 C 1.75 -5.929688 2.007812 -5.96875 2.28125 -5.96875 Z M 2.984375 -2.921875 L 2.4375 -2.890625 C 2.019531 -2.859375 1.710938 -2.738281 1.515625 -2.53125 C 1.316406 -2.320312 1.21875 -2.019531 1.21875 -1.625 C 1.21875 -1.257812 1.28125 -0.988281 1.40625 -0.8125 C 1.539062 -0.644531 1.722656 -0.5625 1.953125 -0.5625 C 2.273438 -0.5625 2.523438 -0.71875 2.703125 -1.03125 C 2.890625 -1.34375 2.984375 -1.773438 2.984375 -2.328125 Z M 2.984375 -2.921875 "/></g></g><g style="fill:#2d6d5e;fill-opacity:1;"><g transform="translate(71.087485, 141.475507)"><path style="stroke:none" d="M 2.828125 -5.96875 C 3.390625 -5.96875 3.816406 -5.710938 4.109375 -5.203125 C 4.398438 -4.703125 4.546875 -3.945312 4.546875 -2.9375 C 4.546875 -2.289062 4.476562 -1.738281 4.34375 -1.28125 C 4.21875 -0.832031 4.03125 -0.488281 3.78125 -0.25 C 3.53125 -0.0078125 3.226562 0.109375 2.875 0.109375 C 2.675781 0.109375 2.488281 0.0703125 2.3125 0 C 2.144531 -0.0820312 1.992188 -0.191406 1.859375 -0.328125 C 1.734375 -0.472656 1.625 -0.640625 1.53125 -0.828125 L 1.5 -0.828125 C 1.507812 -0.679688 1.515625 -0.539062 1.515625 -0.40625 C 1.523438 -0.28125 1.53125 -0.160156 1.53125 -0.046875 L 1.53125 2.609375 L 0.71875 2.609375 L 0.71875 -5.859375 L 1.375 -5.859375 L 1.484375 -5 L 1.53125 -5 C 1.632812 -5.21875 1.75 -5.394531 1.875 -5.53125 C 2 -5.675781 2.140625 -5.785156 2.296875 -5.859375 C 2.460938 -5.929688 2.640625 -5.96875 2.828125 -5.96875 Z M 2.65625 -5.25 C 2.40625 -5.25 2.195312 -5.171875 2.03125 -5.015625 C 1.863281 -4.859375 1.738281 -4.625 1.65625 -4.3125 C 1.570312 -4 1.53125 -3.601562 1.53125 -3.125 L 1.53125 -2.84375 C 1.53125 -2.332031 1.570312 -1.910156 1.65625 -1.578125 C 1.738281 -1.253906 1.863281 -1.007812 2.03125 -0.84375 C 2.207031 -0.6875 2.421875 -0.609375 2.671875 -0.609375 C 2.890625 -0.609375 3.078125 -0.691406 3.234375 -0.859375 C 3.390625 -1.023438 3.503906 -1.273438 3.578125 -1.609375 C 3.660156 -1.953125 3.703125 -2.390625 3.703125 -2.921875 C 3.703125 -3.691406 3.617188 -4.269531 3.453125 -4.65625 C 3.296875 -5.050781 3.03125 -5.25 2.65625 -5.25 Z M 2.65625 -5.25 "/></g></g><g style="fill:#2d6d5e;fill-opacity:1;"><g transform="translate(77.614105, 141.475507)"><path style="stroke:none" d="M 2.28125 -5.96875 C 2.820312 -5.96875 3.207031 -5.789062 3.4375 -5.4375 C 3.664062 -5.09375 3.78125 -4.597656 3.78125 -3.953125 L 3.78125 0 L 3.15625 0 L 3.046875 -0.828125 L 3.015625 -0.828125 C 2.921875 -0.628906 2.8125 -0.457031 2.6875 -0.3125 C 2.5625 -0.175781 2.414062 -0.0703125 2.25 0 C 2.082031 0.0703125 1.894531 0.109375 1.6875 0.109375 C 1.382812 0.109375 1.132812 0.03125 0.9375 -0.125 C 0.75 -0.289062 0.609375 -0.503906 0.515625 -0.765625 C 0.421875 -1.023438 0.375 -1.304688 0.375 -1.609375 C 0.375 -2.191406 0.539062 -2.640625 0.875 -2.953125 C 1.207031 -3.273438 1.679688 -3.453125 2.296875 -3.484375 L 2.96875 -3.53125 L 2.96875 -3.921875 C 2.96875 -4.390625 2.90625 -4.734375 2.78125 -4.953125 C 2.65625 -5.171875 2.445312 -5.28125 2.15625 -5.28125 C 2 -5.28125 1.828125 -5.25 1.640625 -5.1875 C 1.460938 -5.132812 1.269531 -5.046875 1.0625 -4.921875 L 0.796875 -5.546875 C 1.015625 -5.679688 1.25 -5.785156 1.5 -5.859375 C 1.75 -5.929688 2.007812 -5.96875 2.28125 -5.96875 Z M 2.984375 -2.921875 L 2.4375 -2.890625 C 2.019531 -2.859375 1.710938 -2.738281 1.515625 -2.53125 C 1.316406 -2.320312 1.21875 -2.019531 1.21875 -1.625 C 1.21875 -1.257812 1.28125 -0.988281 1.40625 -0.8125 C 1.539062 -0.644531 1.722656 -0.5625 1.953125 -0.5625 C 2.273438 -0.5625 2.523438 -0.71875 2.703125 -1.03125 C 2.890625 -1.34375 2.984375 -1.773438 2.984375 -2.328125 Z M 2.984375 -2.921875 "/></g></g><g style="fill:#2d6d5e;fill-opacity:1;"><g transform="translate(83.6288, 141.475507)"><path style="stroke:none" d="M 2.40625 0.109375 C 1.976562 0.109375 1.617188 0 1.328125 -0.21875 C 1.046875 -0.445312 0.832031 -0.785156 0.6875 -1.234375 C 0.539062 -1.679688 0.46875 -2.234375 0.46875 -2.890625 C 0.46875 -3.523438 0.539062 -4.070312 0.6875 -4.53125 C 0.832031 -4.988281 1.050781 -5.34375 1.34375 -5.59375 C 1.632812 -5.84375 2 -5.96875 2.4375 -5.96875 C 2.65625 -5.96875 2.851562 -5.941406 3.03125 -5.890625 C 3.207031 -5.847656 3.375 -5.785156 3.53125 -5.703125 L 3.265625 -5.015625 C 3.128906 -5.085938 2.992188 -5.140625 2.859375 -5.171875 C 2.734375 -5.210938 2.609375 -5.234375 2.484375 -5.234375 C 2.234375 -5.234375 2.019531 -5.144531 1.84375 -4.96875 C 1.664062 -4.789062 1.53125 -4.53125 1.4375 -4.1875 C 1.351562 -3.84375 1.3125 -3.410156 1.3125 -2.890625 C 1.3125 -2.390625 1.351562 -1.96875 1.4375 -1.625 C 1.53125 -1.289062 1.660156 -1.035156 1.828125 -0.859375 C 2.003906 -0.691406 2.226562 -0.609375 2.5 -0.609375 C 2.65625 -0.609375 2.8125 -0.628906 2.96875 -0.671875 C 3.132812 -0.722656 3.300781 -0.789062 3.46875 -0.875 L 3.46875 -0.1875 C 3.3125 -0.09375 3.132812 -0.0195312 2.9375 0.03125 C 2.738281 0.0820312 2.5625 0.109375 2.40625 0.109375 Z M 2.40625 0.109375 "/></g></g><g style="fill:#2d6d5e;fill-opacity:1;"><g transform="translate(88.907603, 141.475507)"><path style="stroke:none" d="M 1.546875 -5.859375 L 1.546875 0 L 0.71875 0 L 0.71875 -5.859375 Z M 1.140625 -8.046875 C 1.304688 -8.046875 1.425781 -7.992188 1.5 -7.890625 C 1.582031 -7.785156 1.625 -7.640625 1.625 -7.453125 C 1.625 -7.265625 1.582031 -7.117188 1.5 -7.015625 C 1.414062 -6.910156 1.296875 -6.859375 1.140625 -6.859375 C 0.992188 -6.859375 0.875 -6.910156 0.78125 -7.015625 C 0.695312 -7.117188 0.65625 -7.265625 0.65625 -7.453125 C 0.65625 -7.648438 0.695312 -7.796875 0.78125 -7.890625 C 0.863281 -7.992188 0.984375 -8.046875 1.140625 -8.046875 Z M 1.140625 -8.046875 "/></g></g><g style="fill:#2d6d5e;fill-opacity:1;"><g transform="translate(92.698625, 141.475507)"><path style="stroke:none" d="M 2.09375 -0.625 C 2.175781 -0.625 2.257812 -0.628906 2.34375 -0.640625 C 2.4375 -0.660156 2.523438 -0.691406 2.609375 -0.734375 L 2.609375 -0.0625 C 2.503906 -0.0078125 2.382812 0.03125 2.25 0.0625 C 2.125 0.09375 1.984375 0.109375 1.828125 0.109375 C 1.578125 0.109375 1.367188 0.0507812 1.203125 -0.0625 C 1.046875 -0.175781 0.925781 -0.34375 0.84375 -0.5625 C 0.769531 -0.789062 0.734375 -1.078125 0.734375 -1.421875 L 0.734375 -5.171875 L 0.1875 -5.171875 L 0.1875 -5.609375 L 0.765625 -5.828125 L 0.984375 -7.1875 L 1.5625 -7.1875 L 1.5625 -5.859375 L 2.546875 -5.859375 L 2.546875 -5.171875 L 1.5625 -5.171875 L 1.5625 -1.515625 C 1.5625 -1.210938 1.597656 -0.988281 1.671875 -0.84375 C 1.742188 -0.695312 1.882812 -0.625 2.09375 -0.625 Z M 2.09375 -0.625 "/></g></g><g style="fill:#2d6d5e;fill-opacity:1;"><g transform="translate(96.996239, 141.475507)"><path style="stroke:none" d="M 0.0625 -5.859375 L 0.90625 -5.859375 L 1.734375 -2.4375 C 1.765625 -2.28125 1.796875 -2.128906 1.828125 -1.984375 C 1.859375 -1.847656 1.882812 -1.707031 1.90625 -1.5625 C 1.9375 -1.425781 1.960938 -1.285156 1.984375 -1.140625 L 2.03125 -1.140625 C 2.050781 -1.347656 2.082031 -1.554688 2.125 -1.765625 C 2.175781 -1.984375 2.226562 -2.207031 2.28125 -2.4375 L 3.09375 -5.859375 L 3.9375 -5.859375 L 2.1875 0.9375 C 2.082031 1.332031 1.960938 1.648438 1.828125 1.890625 C 1.691406 2.140625 1.53125 2.320312 1.34375 2.4375 C 1.15625 2.5625 0.929688 2.625 0.671875 2.625 C 0.585938 2.625 0.503906 2.613281 0.421875 2.59375 C 0.335938 2.582031 0.25 2.5625 0.15625 2.53125 L 0.15625 1.796875 C 0.21875 1.828125 0.285156 1.847656 0.359375 1.859375 C 0.429688 1.867188 0.503906 1.875 0.578125 1.875 C 0.703125 1.875 0.8125 1.835938 0.90625 1.765625 C 1.007812 1.703125 1.097656 1.585938 1.171875 1.421875 C 1.242188 1.265625 1.316406 1.050781 1.390625 0.78125 L 1.59375 -0.046875 Z M 0.0625 -5.859375 "/></g></g><g style="fill:#0661aa;fill-opacity:1;"><g transform="translate(36.763973, 89.975914)"><path style="stroke:none" d="M 0.09375 0 L 4.171875 -12.734375 L 7.96875 -12.734375 L 12.046875 0 L 8.90625 0 L 8.1875 -2.5 L 3.921875 -2.5 L 3.1875 0 Z M 4.390625 -4.671875 L 7.703125 -4.671875 L 6.09375 -10.265625 L 6.0625 -10.265625 Z M 4.390625 -4.671875 "/></g></g><g style="fill:#0661aa;fill-opacity:1;"><g transform="translate(50.999231, 89.975914)"><path style="stroke:none" d="M 0.6875 3.75 L 0.6875 -9.15625 L 3 -9.15625 L 3.34375 -7.5625 L 3.359375 -7.5625 C 3.617188 -8.164062 3.992188 -8.625 4.484375 -8.9375 C 4.984375 -9.25 5.546875 -9.40625 6.171875 -9.40625 C 6.898438 -9.40625 7.53125 -9.207031 8.0625 -8.8125 C 8.601562 -8.425781 9.019531 -7.867188 9.3125 -7.140625 C 9.613281 -6.421875 9.765625 -5.566406 9.765625 -4.578125 C 9.765625 -3.597656 9.613281 -2.742188 9.3125 -2.015625 C 9.019531 -1.296875 8.601562 -0.738281 8.0625 -0.34375 C 7.53125 0.0507812 6.898438 0.25 6.171875 0.25 C 5.566406 0.25 5.023438 0.09375 4.546875 -0.21875 C 4.066406 -0.53125 3.691406 -0.976562 3.421875 -1.5625 L 3.40625 -1.5625 L 3.40625 3.75 Z M 5.171875 -2.09375 C 5.734375 -2.09375 6.179688 -2.316406 6.515625 -2.765625 C 6.859375 -3.222656 7.03125 -3.828125 7.03125 -4.578125 C 7.03125 -5.335938 6.859375 -5.941406 6.515625 -6.390625 C 6.179688 -6.835938 5.734375 -7.0625 5.171875 -7.0625 C 4.609375 -7.0625 4.15625 -6.832031 3.8125 -6.375 C 3.46875 -5.925781 3.296875 -5.328125 3.296875 -4.578125 C 3.296875 -3.828125 3.46875 -3.222656 3.8125 -2.765625 C 4.15625 -2.316406 4.609375 -2.09375 5.171875 -2.09375 Z M 5.171875 -2.09375 "/></g></g><g style="fill:#0661aa;fill-opacity:1;"><g transform="translate(63.267301, 89.975914)"><path style="stroke:none" d="M 6.25 -9.390625 C 7.09375 -9.390625 7.757812 -9.132812 8.25 -8.625 C 8.738281 -8.125 8.984375 -7.421875 8.984375 -6.515625 L 8.984375 0 L 6.25 0 L 6.25 -5.8125 C 6.25 -6.238281 6.140625 -6.570312 5.921875 -6.8125 C 5.703125 -7.050781 5.40625 -7.171875 5.03125 -7.171875 C 4.539062 -7.171875 4.144531 -7.007812 3.84375 -6.6875 C 3.550781 -6.375 3.40625 -5.941406 3.40625 -5.390625 L 3.40625 0 L 0.6875 0 L 0.6875 -9.15625 L 2.9375 -9.15625 L 3.3125 -7.609375 L 3.328125 -7.609375 C 3.597656 -8.179688 3.988281 -8.617188 4.5 -8.921875 C 5.019531 -9.234375 5.601562 -9.390625 6.25 -9.390625 Z M 6.25 -9.390625 "/></g></g><g style="fill:#0661aa;fill-opacity:1;"><g transform="translate(74.980979, 89.975914)"><path style="stroke:none" d="M 5.34375 0.296875 C 4.351562 0.296875 3.484375 0.0976562 2.734375 -0.296875 C 1.984375 -0.703125 1.398438 -1.28125 0.984375 -2.03125 C 0.578125 -2.78125 0.375 -3.648438 0.375 -4.640625 C 0.375 -5.609375 0.5625 -6.453125 0.9375 -7.171875 C 1.3125 -7.898438 1.835938 -8.46875 2.515625 -8.875 C 3.203125 -9.28125 4.003906 -9.484375 4.921875 -9.484375 C 5.804688 -9.484375 6.566406 -9.285156 7.203125 -8.890625 C 7.847656 -8.503906 8.351562 -7.960938 8.71875 -7.265625 C 9.082031 -6.566406 9.265625 -5.75 9.265625 -4.8125 C 9.265625 -4.625 9.253906 -4.441406 9.234375 -4.265625 C 9.222656 -4.085938 9.195312 -3.941406 9.15625 -3.828125 L 3.109375 -3.828125 C 3.171875 -3.160156 3.40625 -2.628906 3.8125 -2.234375 C 4.21875 -1.847656 4.738281 -1.65625 5.375 -1.65625 C 5.851562 -1.65625 6.28125 -1.773438 6.65625 -2.015625 C 7.039062 -2.253906 7.328125 -2.582031 7.515625 -3 L 9.421875 -2.171875 C 9.160156 -1.398438 8.65625 -0.796875 7.90625 -0.359375 C 7.15625 0.078125 6.300781 0.296875 5.34375 0.296875 Z M 3.109375 -5.390625 L 6.546875 -5.390625 C 6.515625 -6.054688 6.351562 -6.570312 6.0625 -6.9375 C 5.78125 -7.3125 5.394531 -7.5 4.90625 -7.5 C 4.382812 -7.5 3.96875 -7.3125 3.65625 -6.9375 C 3.351562 -6.5625 3.171875 -6.046875 3.109375 -5.390625 Z M 3.109375 -5.390625 "/></g></g><g style="fill:#0661aa;fill-opacity:1;"><g transform="translate(86.855611, 89.975914)"><path style="stroke:none" d="M 3.171875 0.21875 C 2.296875 0.21875 1.585938 -0.015625 1.046875 -0.484375 C 0.515625 -0.953125 0.25 -1.578125 0.25 -2.359375 C 0.25 -3.191406 0.566406 -3.867188 1.203125 -4.390625 C 1.847656 -4.910156 2.78125 -5.238281 4 -5.375 L 5.421875 -5.53125 C 5.617188 -5.550781 5.78125 -5.617188 5.90625 -5.734375 C 6.03125 -5.859375 6.09375 -6.035156 6.09375 -6.265625 C 6.09375 -6.671875 5.96875 -6.976562 5.71875 -7.1875 C 5.46875 -7.40625 5.140625 -7.515625 4.734375 -7.515625 C 4.273438 -7.515625 3.898438 -7.351562 3.609375 -7.03125 C 3.328125 -6.707031 3.175781 -6.300781 3.15625 -5.8125 L 0.546875 -6.1875 C 0.578125 -6.832031 0.765625 -7.398438 1.109375 -7.890625 C 1.460938 -8.390625 1.945312 -8.78125 2.5625 -9.0625 C 3.175781 -9.34375 3.894531 -9.484375 4.71875 -9.484375 C 5.976562 -9.484375 6.96875 -9.15625 7.6875 -8.5 C 8.414062 -7.84375 8.78125 -6.953125 8.78125 -5.828125 L 8.78125 -2.296875 C 8.78125 -1.890625 8.929688 -1.6875 9.234375 -1.6875 C 9.472656 -1.6875 9.695312 -1.804688 9.90625 -2.046875 L 10.5 -0.578125 C 10.21875 -0.296875 9.875 -0.09375 9.46875 0.03125 C 9.0625 0.164062 8.660156 0.234375 8.265625 0.234375 C 7.710938 0.234375 7.25 0.09375 6.875 -0.1875 C 6.5 -0.46875 6.265625 -0.820312 6.171875 -1.25 L 6.140625 -1.484375 L 6.125 -1.484375 C 5.84375 -0.960938 5.445312 -0.546875 4.9375 -0.234375 C 4.425781 0.0664062 3.835938 0.21875 3.171875 0.21875 Z M 4.296875 -1.703125 C 4.804688 -1.703125 5.226562 -1.882812 5.5625 -2.25 C 5.894531 -2.613281 6.0625 -3.085938 6.0625 -3.671875 L 6.0625 -4.09375 L 4.71875 -3.953125 C 4.101562 -3.878906 3.660156 -3.726562 3.390625 -3.5 C 3.117188 -3.28125 2.984375 -3.015625 2.984375 -2.703125 C 2.984375 -2.398438 3.101562 -2.15625 3.34375 -1.96875 C 3.59375 -1.789062 3.910156 -1.703125 4.296875 -1.703125 Z M 4.296875 -1.703125 "/></g></g><g style="fill:#0661aa;fill-opacity:1;"><g transform="translate(26.529845, 111.585178)"><path style="stroke:none" d="M 3.625 0 L 3.625 -10.125 L 0.265625 -10.125 L 0.265625 -12.734375 L 10.046875 -12.734375 L 10.046875 -10.125 L 6.6875 -10.125 L 6.6875 0 Z M 3.625 0 "/></g></g><g style="fill:#0661aa;fill-opacity:1;"><g transform="translate(38.243523, 111.585178)"><path style="stroke:none" d="M 5.625 -9.40625 C 6.375 -9.40625 6.972656 -9.125 7.421875 -8.5625 C 7.878906 -8.007812 8.128906 -7.21875 8.171875 -6.1875 L 5.875 -5.5625 C 5.851562 -6.15625 5.738281 -6.601562 5.53125 -6.90625 C 5.332031 -7.21875 5.066406 -7.375 4.734375 -7.375 C 4.328125 -7.375 4.003906 -7.171875 3.765625 -6.765625 C 3.523438 -6.359375 3.40625 -5.796875 3.40625 -5.078125 L 3.40625 0 L 0.6875 0 L 0.6875 -9.15625 L 2.875 -9.15625 L 3.25 -7.578125 L 3.28125 -7.578125 C 3.476562 -8.148438 3.785156 -8.597656 4.203125 -8.921875 C 4.617188 -9.242188 5.09375 -9.40625 5.625 -9.40625 Z M 5.625 -9.40625 "/></g></g><g style="fill:#0661aa;fill-opacity:1;"><g transform="translate(48.741129, 111.585178)"><path style="stroke:none" d="M 3.171875 0.21875 C 2.296875 0.21875 1.585938 -0.015625 1.046875 -0.484375 C 0.515625 -0.953125 0.25 -1.578125 0.25 -2.359375 C 0.25 -3.191406 0.566406 -3.867188 1.203125 -4.390625 C 1.847656 -4.910156 2.78125 -5.238281 4 -5.375 L 5.421875 -5.53125 C 5.617188 -5.550781 5.78125 -5.617188 5.90625 -5.734375 C 6.03125 -5.859375 6.09375 -6.035156 6.09375 -6.265625 C 6.09375 -6.671875 5.96875 -6.976562 5.71875 -7.1875 C 5.46875 -7.40625 5.140625 -7.515625 4.734375 -7.515625 C 4.273438 -7.515625 3.898438 -7.351562 3.609375 -7.03125 C 3.328125 -6.707031 3.175781 -6.300781 3.15625 -5.8125 L 0.546875 -6.1875 C 0.578125 -6.832031 0.765625 -7.398438 1.109375 -7.890625 C 1.460938 -8.390625 1.945312 -8.78125 2.5625 -9.0625 C 3.175781 -9.34375 3.894531 -9.484375 4.71875 -9.484375 C 5.976562 -9.484375 6.96875 -9.15625 7.6875 -8.5 C 8.414062 -7.84375 8.78125 -6.953125 8.78125 -5.828125 L 8.78125 -2.296875 C 8.78125 -1.890625 8.929688 -1.6875 9.234375 -1.6875 C 9.472656 -1.6875 9.695312 -1.804688 9.90625 -2.046875 L 10.5 -0.578125 C 10.21875 -0.296875 9.875 -0.09375 9.46875 0.03125 C 9.0625 0.164062 8.660156 0.234375 8.265625 0.234375 C 7.710938 0.234375 7.25 0.09375 6.875 -0.1875 C 6.5 -0.46875 6.265625 -0.820312 6.171875 -1.25 L 6.140625 -1.484375 L 6.125 -1.484375 C 5.84375 -0.960938 5.445312 -0.546875 4.9375 -0.234375 C 4.425781 0.0664062 3.835938 0.21875 3.171875 0.21875 Z M 4.296875 -1.703125 C 4.804688 -1.703125 5.226562 -1.882812 5.5625 -2.25 C 5.894531 -2.613281 6.0625 -3.085938 6.0625 -3.671875 L 6.0625 -4.09375 L 4.71875 -3.953125 C 4.101562 -3.878906 3.660156 -3.726562 3.390625 -3.5 C 3.117188 -3.28125 2.984375 -3.015625 2.984375 -2.703125 C 2.984375 -2.398438 3.101562 -2.15625 3.34375 -1.96875 C 3.59375 -1.789062 3.910156 -1.703125 4.296875 -1.703125 Z M 4.296875 -1.703125 "/></g></g><g style="fill:#0661aa;fill-opacity:1;"><g transform="translate(61.348981, 111.585178)"><path style="stroke:none" d="M 2.109375 -10.40625 C 1.617188 -10.40625 1.226562 -10.546875 0.9375 -10.828125 C 0.644531 -11.117188 0.5 -11.5 0.5 -11.96875 C 0.5 -12.445312 0.644531 -12.828125 0.9375 -13.109375 C 1.226562 -13.398438 1.617188 -13.546875 2.109375 -13.546875 C 2.597656 -13.546875 2.988281 -13.398438 3.28125 -13.109375 C 3.570312 -12.828125 3.71875 -12.445312 3.71875 -11.96875 C 3.71875 -11.5 3.570312 -11.117188 3.28125 -10.828125 C 2.988281 -10.546875 2.597656 -10.40625 2.109375 -10.40625 Z M 0.734375 0 L 0.734375 -9.15625 L 3.46875 -9.15625 L 3.46875 0 Z M 0.734375 0 "/></g></g><g style="fill:#0661aa;fill-opacity:1;"><g transform="translate(67.679741, 111.585178)"><path style="stroke:none" d="M 6.25 -9.390625 C 7.09375 -9.390625 7.757812 -9.132812 8.25 -8.625 C 8.738281 -8.125 8.984375 -7.421875 8.984375 -6.515625 L 8.984375 0 L 6.25 0 L 6.25 -5.8125 C 6.25 -6.238281 6.140625 -6.570312 5.921875 -6.8125 C 5.703125 -7.050781 5.40625 -7.171875 5.03125 -7.171875 C 4.539062 -7.171875 4.144531 -7.007812 3.84375 -6.6875 C 3.550781 -6.375 3.40625 -5.941406 3.40625 -5.390625 L 3.40625 0 L 0.6875 0 L 0.6875 -9.15625 L 2.9375 -9.15625 L 3.3125 -7.609375 L 3.328125 -7.609375 C 3.597656 -8.179688 3.988281 -8.617188 4.5 -8.921875 C 5.019531 -9.234375 5.601562 -9.390625 6.25 -9.390625 Z M 6.25 -9.390625 "/></g></g><g style="fill:#0661aa;fill-opacity:1;"><g transform="translate(79.393419, 111.585178)"><path style="stroke:none" d="M 2.109375 -10.40625 C 1.617188 -10.40625 1.226562 -10.546875 0.9375 -10.828125 C 0.644531 -11.117188 0.5 -11.5 0.5 -11.96875 C 0.5 -12.445312 0.644531 -12.828125 0.9375 -13.109375 C 1.226562 -13.398438 1.617188 -13.546875 2.109375 -13.546875 C 2.597656 -13.546875 2.988281 -13.398438 3.28125 -13.109375 C 3.570312 -12.828125 3.71875 -12.445312 3.71875 -11.96875 C 3.71875 -11.5 3.570312 -11.117188 3.28125 -10.828125 C 2.988281 -10.546875 2.597656 -10.40625 2.109375 -10.40625 Z M 0.734375 0 L 0.734375 -9.15625 L 3.46875 -9.15625 L 3.46875 0 Z M 0.734375 0 "/></g></g><g style="fill:#0661aa;fill-opacity:1;"><g transform="translate(85.724178, 111.585178)"><path style="stroke:none" d="M 6.25 -9.390625 C 7.09375 -9.390625 7.757812 -9.132812 8.25 -8.625 C 8.738281 -8.125 8.984375 -7.421875 8.984375 -6.515625 L 8.984375 0 L 6.25 0 L 6.25 -5.8125 C 6.25 -6.238281 6.140625 -6.570312 5.921875 -6.8125 C 5.703125 -7.050781 5.40625 -7.171875 5.03125 -7.171875 C 4.539062 -7.171875 4.144531 -7.007812 3.84375 -6.6875 C 3.550781 -6.375 3.40625 -5.941406 3.40625 -5.390625 L 3.40625 0 L 0.6875 0 L 0.6875 -9.15625 L 2.9375 -9.15625 L 3.3125 -7.609375 L 3.328125 -7.609375 C 3.597656 -8.179688 3.988281 -8.617188 4.5 -8.921875 C 5.019531 -9.234375 5.601562 -9.390625 6.25 -9.390625 Z M 6.25 -9.390625 "/></g></g><g style="fill:#0661aa;fill-opacity:1;"><g transform="translate(97.437856, 111.585178)"><path style="stroke:none" d="M 4.34375 4.0625 C 3.445312 4.0625 2.601562 3.910156 1.8125 3.609375 C 1.019531 3.316406 0.382812 2.910156 -0.09375 2.390625 L 0.96875 0.421875 C 1.332031 0.847656 1.789062 1.1875 2.34375 1.4375 C 2.90625 1.695312 3.472656 1.828125 4.046875 1.828125 C 4.867188 1.828125 5.523438 1.597656 6.015625 1.140625 C 6.503906 0.679688 6.75 0.0546875 6.75 -0.734375 L 6.75 -1.640625 L 6.734375 -1.640625 C 6.460938 -1.128906 6.078125 -0.71875 5.578125 -0.40625 C 5.078125 -0.101562 4.535156 0.046875 3.953125 0.046875 C 3.234375 0.046875 2.609375 -0.140625 2.078125 -0.515625 C 1.546875 -0.898438 1.132812 -1.441406 0.84375 -2.140625 C 0.550781 -2.835938 0.40625 -3.65625 0.40625 -4.59375 C 0.40625 -5.582031 0.546875 -6.4375 0.828125 -7.15625 C 1.117188 -7.882812 1.523438 -8.441406 2.046875 -8.828125 C 2.578125 -9.222656 3.195312 -9.421875 3.90625 -9.421875 C 4.519531 -9.421875 5.082031 -9.253906 5.59375 -8.921875 C 6.113281 -8.585938 6.5 -8.140625 6.75 -7.578125 L 6.765625 -7.578125 L 7.078125 -9.15625 L 9.484375 -9.15625 L 9.484375 -0.703125 C 9.484375 0.285156 9.273438 1.140625 8.859375 1.859375 C 8.441406 2.578125 7.847656 3.125 7.078125 3.5 C 6.304688 3.875 5.394531 4.0625 4.34375 4.0625 Z M 5.015625 -2.1875 C 5.566406 -2.1875 6.007812 -2.410156 6.34375 -2.859375 C 6.6875 -3.304688 6.859375 -3.90625 6.859375 -4.65625 C 6.859375 -5.40625 6.6875 -6.003906 6.34375 -6.453125 C 6.007812 -6.910156 5.566406 -7.140625 5.015625 -7.140625 C 4.453125 -7.140625 4 -6.914062 3.65625 -6.46875 C 3.320312 -6.019531 3.15625 -5.414062 3.15625 -4.65625 C 3.15625 -3.882812 3.320312 -3.28125 3.65625 -2.84375 C 4 -2.40625 4.453125 -2.1875 5.015625 -2.1875 Z M 5.015625 -2.1875 "/></g></g></g></svg>