<svg xmlns="http://www.w3.org/2000/svg" xmlns:xlink="http://www.w3.org/1999/xlink" width="180" zoomAndPan="magnify" viewBox="0 0 135 161.249994" height="215" preserveAspectRatio="xMidYMid meet" version="1.0"><defs><g/><clipPath id="d2db3fbea2"><path d="M 45.054688 35 L 84 35 L 84 56 L 45.054688 56 Z M 45.054688 35 " clip-rule="nonzero"/></clipPath><clipPath id="9e8f162e13"><path d="M 75 20.734375 L 80 20.734375 L 80 25 L 75 25 Z M 75 20.734375 " clip-rule="nonzero"/></clipPath><clipPath id="28a3699baf"><path d="M 67 24 L 89.84375 24 L 89.84375 68.511719 L 67 68.511719 Z M 67 24 " clip-rule="nonzero"/></clipPath></defs><g fill="#2d6d5e" fill-opacity="1"><g transform="translate(36.089455, 124.203199)"><g><path d="M 3.875 0 L 0.8125 0 L 0.8125 -7.8125 L 3.875 -7.8125 L 3.875 -7.046875 L 1.65625 -7.046875 L 1.65625 -4.453125 L 3.75 -4.453125 L 3.75 -3.703125 L 1.65625 -3.703125 L 1.65625 -0.78125 L 3.875 -0.78125 Z M 3.875 0 "/></g></g></g><g fill="#2d6d5e" fill-opacity="1"><g transform="translate(41.992419, 124.203199)"><g><path d="M 1.546875 -3.015625 L 0.25 -5.859375 L 1.125 -5.859375 L 2.03125 -3.6875 L 2.9375 -5.859375 L 3.8125 -5.859375 L 2.5 -2.984375 L 3.859375 0 L 2.984375 0 L 2 -2.3125 L 1.015625 0 L 0.15625 0 Z M 1.546875 -3.015625 "/></g></g></g><g fill="#2d6d5e" fill-opacity="1"><g transform="translate(47.53744, 124.203199)"><g><path d="M 2.828125 -5.96875 C 3.390625 -5.96875 3.816406 -5.710938 4.109375 -5.203125 C 4.398438 -4.703125 4.546875 -3.945312 4.546875 -2.9375 C 4.546875 -2.289062 4.476562 -1.738281 4.34375 -1.28125 C 4.21875 -0.832031 4.03125 -0.488281 3.78125 -0.25 C 3.53125 -0.0078125 3.226562 0.109375 2.875 0.109375 C 2.675781 0.109375 2.488281 0.0703125 2.3125 0 C 2.144531 -0.0820312 1.992188 -0.191406 1.859375 -0.328125 C 1.734375 -0.472656 1.625 -0.640625 1.53125 -0.828125 L 1.5 -0.828125 C 1.507812 -0.679688 1.515625 -0.539062 1.515625 -0.40625 C 1.523438 -0.28125 1.53125 -0.160156 1.53125 -0.046875 L 1.53125 2.609375 L 0.71875 2.609375 L 0.71875 -5.859375 L 1.390625 -5.859375 L 1.484375 -5 L 1.53125 -5 C 1.632812 -5.21875 1.75 -5.394531 1.875 -5.53125 C 2.007812 -5.675781 2.15625 -5.785156 2.3125 -5.859375 C 2.46875 -5.929688 2.640625 -5.96875 2.828125 -5.96875 Z M 2.65625 -5.265625 C 2.40625 -5.265625 2.195312 -5.1875 2.03125 -5.03125 C 1.875 -4.875 1.75 -4.632812 1.65625 -4.3125 C 1.570312 -4 1.53125 -3.601562 1.53125 -3.125 L 1.53125 -2.84375 C 1.53125 -2.34375 1.570312 -1.925781 1.65625 -1.59375 C 1.75 -1.257812 1.878906 -1.007812 2.046875 -0.84375 C 2.210938 -0.6875 2.421875 -0.609375 2.671875 -0.609375 C 2.898438 -0.609375 3.09375 -0.691406 3.25 -0.859375 C 3.40625 -1.023438 3.519531 -1.273438 3.59375 -1.609375 C 3.675781 -1.953125 3.71875 -2.394531 3.71875 -2.9375 C 3.71875 -3.707031 3.632812 -4.285156 3.46875 -4.671875 C 3.300781 -5.066406 3.03125 -5.265625 2.65625 -5.265625 Z M 2.65625 -5.265625 "/></g></g></g><g fill="#2d6d5e" fill-opacity="1"><g transform="translate(54.076153, 124.203199)"><g><path d="M 2.28125 -5.96875 C 2.820312 -5.96875 3.207031 -5.796875 3.4375 -5.453125 C 3.675781 -5.109375 3.796875 -4.609375 3.796875 -3.953125 L 3.796875 0 L 3.171875 0 L 3.046875 -0.828125 L 3.015625 -0.828125 C 2.929688 -0.628906 2.820312 -0.457031 2.6875 -0.3125 C 2.5625 -0.175781 2.414062 -0.0703125 2.25 0 C 2.09375 0.0703125 1.90625 0.109375 1.6875 0.109375 C 1.382812 0.109375 1.132812 0.03125 0.9375 -0.125 C 0.75 -0.289062 0.609375 -0.503906 0.515625 -0.765625 C 0.421875 -1.023438 0.375 -1.304688 0.375 -1.609375 C 0.375 -2.191406 0.539062 -2.640625 0.875 -2.953125 C 1.21875 -3.273438 1.695312 -3.453125 2.3125 -3.484375 L 2.96875 -3.53125 L 2.96875 -3.9375 C 2.96875 -4.40625 2.90625 -4.742188 2.78125 -4.953125 C 2.65625 -5.171875 2.445312 -5.28125 2.15625 -5.28125 C 2 -5.28125 1.828125 -5.25 1.640625 -5.1875 C 1.460938 -5.132812 1.269531 -5.046875 1.0625 -4.921875 L 0.796875 -5.546875 C 1.015625 -5.691406 1.25 -5.796875 1.5 -5.859375 C 1.757812 -5.929688 2.019531 -5.96875 2.28125 -5.96875 Z M 2.984375 -2.921875 L 2.4375 -2.890625 C 2.03125 -2.867188 1.722656 -2.753906 1.515625 -2.546875 C 1.316406 -2.335938 1.21875 -2.035156 1.21875 -1.640625 C 1.21875 -1.265625 1.28125 -0.988281 1.40625 -0.8125 C 1.539062 -0.644531 1.722656 -0.5625 1.953125 -0.5625 C 2.285156 -0.5625 2.539062 -0.71875 2.71875 -1.03125 C 2.894531 -1.34375 2.984375 -1.773438 2.984375 -2.328125 Z M 2.984375 -2.921875 "/></g></g></g><g fill="#2d6d5e" fill-opacity="1"><g transform="translate(60.101993, 124.203199)"><g><path d="M 2.828125 -5.96875 C 3.285156 -5.96875 3.632812 -5.804688 3.875 -5.484375 C 4.113281 -5.160156 4.234375 -4.664062 4.234375 -4 L 4.234375 0 L 3.40625 0 L 3.40625 -3.828125 C 3.40625 -4.304688 3.34375 -4.660156 3.21875 -4.890625 C 3.101562 -5.128906 2.914062 -5.25 2.65625 -5.25 C 2.269531 -5.25 1.984375 -5.078125 1.796875 -4.734375 C 1.617188 -4.390625 1.53125 -3.84375 1.53125 -3.09375 L 1.53125 0 L 0.71875 0 L 0.71875 -5.859375 L 1.375 -5.859375 L 1.46875 -5.015625 L 1.515625 -5.015625 C 1.597656 -5.210938 1.703125 -5.378906 1.828125 -5.515625 C 1.960938 -5.660156 2.113281 -5.769531 2.28125 -5.84375 C 2.445312 -5.925781 2.628906 -5.96875 2.828125 -5.96875 Z M 2.828125 -5.96875 "/></g></g></g><g fill="#2d6d5e" fill-opacity="1"><g transform="translate(66.565912, 124.203199)"><g><path d="M 2.171875 0.109375 C 1.609375 0.109375 1.179688 -0.144531 0.890625 -0.65625 C 0.609375 -1.175781 0.46875 -1.929688 0.46875 -2.921875 C 0.46875 -3.898438 0.613281 -4.648438 0.90625 -5.171875 C 1.195312 -5.703125 1.609375 -5.96875 2.140625 -5.96875 C 2.335938 -5.96875 2.519531 -5.929688 2.6875 -5.859375 C 2.851562 -5.785156 3 -5.679688 3.125 -5.546875 C 3.257812 -5.410156 3.375 -5.25 3.46875 -5.0625 L 3.515625 -5.0625 C 3.503906 -5.226562 3.492188 -5.375 3.484375 -5.5 C 3.484375 -5.632812 3.484375 -5.757812 3.484375 -5.875 L 3.484375 -8.3125 L 4.296875 -8.3125 L 4.296875 0 L 3.640625 0 L 3.53125 -0.796875 L 3.484375 -0.796875 C 3.378906 -0.609375 3.265625 -0.445312 3.140625 -0.3125 C 3.015625 -0.175781 2.875 -0.0703125 2.71875 0 C 2.5625 0.0703125 2.378906 0.109375 2.171875 0.109375 Z M 2.359375 -0.59375 C 2.722656 -0.59375 3 -0.765625 3.1875 -1.109375 C 3.382812 -1.453125 3.484375 -1.960938 3.484375 -2.640625 L 3.484375 -3.046875 C 3.484375 -3.785156 3.390625 -4.332031 3.203125 -4.6875 C 3.023438 -5.050781 2.738281 -5.234375 2.34375 -5.234375 C 1.988281 -5.234375 1.722656 -5.035156 1.546875 -4.640625 C 1.378906 -4.242188 1.296875 -3.671875 1.296875 -2.921875 C 1.296875 -2.148438 1.378906 -1.566406 1.546875 -1.171875 C 1.722656 -0.785156 1.992188 -0.59375 2.359375 -0.59375 Z M 2.359375 -0.59375 "/></g></g></g><g fill="#2d6d5e" fill-opacity="1"><g transform="translate(73.104625, 124.203199)"><g><path d="M 2.28125 -5.96875 C 2.820312 -5.96875 3.207031 -5.796875 3.4375 -5.453125 C 3.675781 -5.109375 3.796875 -4.609375 3.796875 -3.953125 L 3.796875 0 L 3.171875 0 L 3.046875 -0.828125 L 3.015625 -0.828125 C 2.929688 -0.628906 2.820312 -0.457031 2.6875 -0.3125 C 2.5625 -0.175781 2.414062 -0.0703125 2.25 0 C 2.09375 0.0703125 1.90625 0.109375 1.6875 0.109375 C 1.382812 0.109375 1.132812 0.03125 0.9375 -0.125 C 0.75 -0.289062 0.609375 -0.503906 0.515625 -0.765625 C 0.421875 -1.023438 0.375 -1.304688 0.375 -1.609375 C 0.375 -2.191406 0.539062 -2.640625 0.875 -2.953125 C 1.21875 -3.273438 1.695312 -3.453125 2.3125 -3.484375 L 2.96875 -3.53125 L 2.96875 -3.9375 C 2.96875 -4.40625 2.90625 -4.742188 2.78125 -4.953125 C 2.65625 -5.171875 2.445312 -5.28125 2.15625 -5.28125 C 2 -5.28125 1.828125 -5.25 1.640625 -5.1875 C 1.460938 -5.132812 1.269531 -5.046875 1.0625 -4.921875 L 0.796875 -5.546875 C 1.015625 -5.691406 1.25 -5.796875 1.5 -5.859375 C 1.757812 -5.929688 2.019531 -5.96875 2.28125 -5.96875 Z M 2.984375 -2.921875 L 2.4375 -2.890625 C 2.03125 -2.867188 1.722656 -2.753906 1.515625 -2.546875 C 1.316406 -2.335938 1.21875 -2.035156 1.21875 -1.640625 C 1.21875 -1.265625 1.28125 -0.988281 1.40625 -0.8125 C 1.539062 -0.644531 1.722656 -0.5625 1.953125 -0.5625 C 2.285156 -0.5625 2.539062 -0.71875 2.71875 -1.03125 C 2.894531 -1.34375 2.984375 -1.773438 2.984375 -2.328125 Z M 2.984375 -2.921875 "/></g></g></g><g fill="#2d6d5e" fill-opacity="1"><g transform="translate(79.130464, 124.203199)"><g/></g></g><g fill="#2d6d5e" fill-opacity="1"><g transform="translate(82.693444, 124.203199)"><g><path d="M 3.328125 -1.546875 C 3.328125 -1.191406 3.257812 -0.890625 3.125 -0.640625 C 3 -0.398438 2.8125 -0.210938 2.5625 -0.078125 C 2.320312 0.046875 2.03125 0.109375 1.6875 0.109375 C 1.414062 0.109375 1.164062 0.078125 0.9375 0.015625 C 0.71875 -0.046875 0.53125 -0.125 0.375 -0.21875 L 0.375 -1.078125 C 0.53125 -0.941406 0.722656 -0.832031 0.953125 -0.75 C 1.179688 -0.664062 1.414062 -0.625 1.65625 -0.625 C 1.925781 -0.625 2.132812 -0.703125 2.28125 -0.859375 C 2.4375 -1.015625 2.515625 -1.234375 2.515625 -1.515625 C 2.515625 -1.679688 2.484375 -1.828125 2.421875 -1.953125 C 2.359375 -2.078125 2.257812 -2.195312 2.125 -2.3125 C 1.988281 -2.425781 1.816406 -2.546875 1.609375 -2.671875 C 1.359375 -2.816406 1.140625 -2.96875 0.953125 -3.125 C 0.765625 -3.289062 0.617188 -3.476562 0.515625 -3.6875 C 0.421875 -3.894531 0.375 -4.144531 0.375 -4.4375 C 0.375 -4.894531 0.519531 -5.265625 0.8125 -5.546875 C 1.113281 -5.828125 1.503906 -5.96875 1.984375 -5.96875 C 2.234375 -5.96875 2.46875 -5.9375 2.6875 -5.875 C 2.90625 -5.8125 3.113281 -5.71875 3.3125 -5.59375 L 3 -4.9375 C 2.851562 -5.039062 2.691406 -5.117188 2.515625 -5.171875 C 2.347656 -5.234375 2.175781 -5.265625 2 -5.265625 C 1.738281 -5.265625 1.53125 -5.191406 1.375 -5.046875 C 1.226562 -4.898438 1.15625 -4.707031 1.15625 -4.46875 C 1.15625 -4.300781 1.1875 -4.15625 1.25 -4.03125 C 1.3125 -3.914062 1.410156 -3.800781 1.546875 -3.6875 C 1.679688 -3.582031 1.863281 -3.460938 2.09375 -3.328125 C 2.34375 -3.171875 2.554688 -3.015625 2.734375 -2.859375 C 2.921875 -2.703125 3.066406 -2.519531 3.171875 -2.3125 C 3.273438 -2.101562 3.328125 -1.847656 3.328125 -1.546875 Z M 3.328125 -1.546875 "/></g></g></g><g fill="#2d6d5e" fill-opacity="1"><g transform="translate(87.901892, 124.203199)"><g><path d="M 2.328125 -5.953125 C 2.722656 -5.953125 3.050781 -5.835938 3.3125 -5.609375 C 3.570312 -5.378906 3.765625 -5.066406 3.890625 -4.671875 C 4.015625 -4.285156 4.078125 -3.851562 4.078125 -3.375 L 4.078125 -2.78125 L 1.28125 -2.78125 C 1.289062 -2.050781 1.40625 -1.503906 1.625 -1.140625 C 1.84375 -0.773438 2.171875 -0.59375 2.609375 -0.59375 C 2.828125 -0.59375 3.035156 -0.625 3.234375 -0.6875 C 3.441406 -0.75 3.648438 -0.851562 3.859375 -1 L 3.859375 -0.265625 C 3.660156 -0.140625 3.453125 -0.046875 3.234375 0.015625 C 3.015625 0.078125 2.78125 0.109375 2.53125 0.109375 C 2.039062 0.109375 1.644531 -0.0195312 1.34375 -0.28125 C 1.039062 -0.539062 0.816406 -0.898438 0.671875 -1.359375 C 0.535156 -1.816406 0.46875 -2.332031 0.46875 -2.90625 C 0.46875 -3.550781 0.535156 -4.101562 0.671875 -4.5625 C 0.816406 -5.019531 1.023438 -5.363281 1.296875 -5.59375 C 1.578125 -5.832031 1.921875 -5.953125 2.328125 -5.953125 Z M 2.328125 -5.28125 C 2.015625 -5.28125 1.769531 -5.128906 1.59375 -4.828125 C 1.425781 -4.535156 1.328125 -4.070312 1.296875 -3.4375 L 3.3125 -3.4375 C 3.3125 -3.769531 3.273438 -4.078125 3.203125 -4.359375 C 3.140625 -4.640625 3.035156 -4.863281 2.890625 -5.03125 C 2.742188 -5.195312 2.554688 -5.28125 2.328125 -5.28125 Z M 2.328125 -5.28125 "/></g></g></g><g fill="#2d6d5e" fill-opacity="1"><g transform="translate(93.959786, 124.203199)"><g><path d="M 4.21875 -5.859375 L 4.21875 0 L 3.5625 0 L 3.46875 -0.828125 L 3.40625 -0.828125 C 3.332031 -0.640625 3.226562 -0.472656 3.09375 -0.328125 C 2.96875 -0.191406 2.820312 -0.0820312 2.65625 0 C 2.5 0.0703125 2.316406 0.109375 2.109375 0.109375 C 1.773438 0.109375 1.503906 0.0234375 1.296875 -0.140625 C 1.085938 -0.316406 0.929688 -0.5625 0.828125 -0.875 C 0.734375 -1.195312 0.6875 -1.578125 0.6875 -2.015625 L 0.6875 -5.859375 L 1.515625 -5.859375 L 1.515625 -2.171875 C 1.515625 -1.640625 1.578125 -1.25 1.703125 -1 C 1.828125 -0.75 2.015625 -0.625 2.265625 -0.625 C 2.535156 -0.625 2.753906 -0.695312 2.921875 -0.84375 C 3.085938 -1 3.207031 -1.234375 3.28125 -1.546875 C 3.351562 -1.859375 3.390625 -2.25 3.390625 -2.71875 L 3.390625 -5.859375 Z M 4.21875 -5.859375 "/></g></g></g><g fill="#2d6d5e" fill-opacity="1"><g transform="translate(51.988163, 136.89417)"><g><path d="M 2.5625 -5.171875 L 1.640625 -5.171875 L 1.640625 0 L 0.8125 0 L 0.8125 -5.171875 L 0.09375 -5.171875 L 0.09375 -5.609375 L 0.8125 -5.890625 L 0.8125 -6.28125 C 0.8125 -6.726562 0.847656 -7.101562 0.921875 -7.40625 C 1.003906 -7.71875 1.140625 -7.957031 1.328125 -8.125 C 1.523438 -8.289062 1.789062 -8.375 2.125 -8.375 C 2.28125 -8.375 2.421875 -8.359375 2.546875 -8.328125 C 2.679688 -8.296875 2.820312 -8.253906 2.96875 -8.203125 L 2.75 -7.53125 C 2.65625 -7.570312 2.5625 -7.597656 2.46875 -7.609375 C 2.382812 -7.628906 2.300781 -7.640625 2.21875 -7.640625 C 2 -7.640625 1.847656 -7.539062 1.765625 -7.34375 C 1.679688 -7.15625 1.640625 -6.8125 1.640625 -6.3125 L 1.640625 -5.859375 L 2.5625 -5.859375 Z M 2.5625 -5.171875 "/></g></g></g><g fill="#2d6d5e" fill-opacity="1"><g transform="translate(56.240316, 136.89417)"><g><path d="M 4.359375 -2.9375 C 4.359375 -2.476562 4.316406 -2.0625 4.234375 -1.6875 C 4.160156 -1.3125 4.039062 -0.988281 3.875 -0.71875 C 3.71875 -0.457031 3.515625 -0.253906 3.265625 -0.109375 C 3.023438 0.0351562 2.734375 0.109375 2.390625 0.109375 C 2.078125 0.109375 1.796875 0.0351562 1.546875 -0.109375 C 1.304688 -0.253906 1.101562 -0.457031 0.9375 -0.71875 C 0.78125 -0.976562 0.660156 -1.296875 0.578125 -1.671875 C 0.503906 -2.054688 0.46875 -2.476562 0.46875 -2.9375 C 0.46875 -3.582031 0.535156 -4.128906 0.671875 -4.578125 C 0.804688 -5.035156 1.019531 -5.378906 1.3125 -5.609375 C 1.601562 -5.847656 1.96875 -5.96875 2.40625 -5.96875 C 2.820312 -5.96875 3.175781 -5.851562 3.46875 -5.625 C 3.757812 -5.394531 3.976562 -5.054688 4.125 -4.609375 C 4.28125 -4.160156 4.359375 -3.601562 4.359375 -2.9375 Z M 1.296875 -2.9375 C 1.296875 -2.425781 1.332031 -2 1.40625 -1.65625 C 1.488281 -1.3125 1.613281 -1.050781 1.78125 -0.875 C 1.945312 -0.695312 2.160156 -0.609375 2.421875 -0.609375 C 2.671875 -0.609375 2.875 -0.691406 3.03125 -0.859375 C 3.195312 -1.035156 3.316406 -1.296875 3.390625 -1.640625 C 3.472656 -1.984375 3.515625 -2.414062 3.515625 -2.9375 C 3.515625 -3.445312 3.472656 -3.875 3.390625 -4.21875 C 3.316406 -4.5625 3.195312 -4.816406 3.03125 -4.984375 C 2.875 -5.160156 2.664062 -5.25 2.40625 -5.25 C 2.019531 -5.25 1.738281 -5.054688 1.5625 -4.671875 C 1.382812 -4.285156 1.296875 -3.707031 1.296875 -2.9375 Z M 2.796875 -8.375 C 2.867188 -8.207031 2.960938 -8.023438 3.078125 -7.828125 C 3.191406 -7.640625 3.3125 -7.445312 3.4375 -7.25 C 3.570312 -7.0625 3.691406 -6.890625 3.796875 -6.734375 L 3.796875 -6.625 L 3.34375 -6.625 C 3.1875 -6.769531 3.03125 -6.9375 2.875 -7.125 C 2.71875 -7.3125 2.5625 -7.503906 2.40625 -7.703125 C 2.238281 -7.503906 2.070312 -7.304688 1.90625 -7.109375 C 1.738281 -6.921875 1.585938 -6.757812 1.453125 -6.625 L 1 -6.625 L 1 -6.734375 C 1.125 -6.898438 1.25 -7.082031 1.375 -7.28125 C 1.5 -7.476562 1.613281 -7.671875 1.71875 -7.859375 C 1.832031 -8.046875 1.925781 -8.21875 2 -8.375 Z M 2.796875 -8.375 "/></g></g></g><g fill="#2d6d5e" fill-opacity="1"><g transform="translate(62.592044, 136.89417)"><g><path d="M 1.53125 0 L 0.71875 0 L 0.71875 -8.3125 L 1.53125 -8.3125 Z M 1.53125 0 "/></g></g></g><g fill="#2d6d5e" fill-opacity="1"><g transform="translate(66.36872, 136.89417)"><g><path d="M 2.328125 -5.953125 C 2.722656 -5.953125 3.050781 -5.835938 3.3125 -5.609375 C 3.570312 -5.378906 3.765625 -5.066406 3.890625 -4.671875 C 4.015625 -4.285156 4.078125 -3.851562 4.078125 -3.375 L 4.078125 -2.78125 L 1.28125 -2.78125 C 1.289062 -2.050781 1.40625 -1.503906 1.625 -1.140625 C 1.84375 -0.773438 2.171875 -0.59375 2.609375 -0.59375 C 2.828125 -0.59375 3.035156 -0.625 3.234375 -0.6875 C 3.441406 -0.75 3.648438 -0.851562 3.859375 -1 L 3.859375 -0.265625 C 3.660156 -0.140625 3.453125 -0.046875 3.234375 0.015625 C 3.015625 0.078125 2.78125 0.109375 2.53125 0.109375 C 2.039062 0.109375 1.644531 -0.0195312 1.34375 -0.28125 C 1.039062 -0.539062 0.816406 -0.898438 0.671875 -1.359375 C 0.535156 -1.816406 0.46875 -2.332031 0.46875 -2.90625 C 0.46875 -3.550781 0.535156 -4.101562 0.671875 -4.5625 C 0.816406 -5.019531 1.023438 -5.363281 1.296875 -5.59375 C 1.578125 -5.832031 1.921875 -5.953125 2.328125 -5.953125 Z M 2.328125 -5.28125 C 2.015625 -5.28125 1.769531 -5.128906 1.59375 -4.828125 C 1.425781 -4.535156 1.328125 -4.070312 1.296875 -3.4375 L 3.3125 -3.4375 C 3.3125 -3.769531 3.273438 -4.078125 3.203125 -4.359375 C 3.140625 -4.640625 3.035156 -4.863281 2.890625 -5.03125 C 2.742188 -5.195312 2.554688 -5.28125 2.328125 -5.28125 Z M 2.328125 -5.28125 "/></g></g></g><g fill="#2d6d5e" fill-opacity="1"><g transform="translate(72.426615, 136.89417)"><g><path d="M 1.875 2.625 C 1.3125 2.625 0.867188 2.476562 0.546875 2.1875 C 0.234375 1.90625 0.078125 1.507812 0.078125 1 C 0.078125 0.601562 0.171875 0.273438 0.359375 0.015625 C 0.554688 -0.242188 0.804688 -0.414062 1.109375 -0.5 C 0.953125 -0.570312 0.828125 -0.675781 0.734375 -0.8125 C 0.640625 -0.957031 0.59375 -1.128906 0.59375 -1.328125 C 0.59375 -1.523438 0.640625 -1.703125 0.734375 -1.859375 C 0.828125 -2.023438 0.960938 -2.1875 1.140625 -2.34375 C 0.910156 -2.476562 0.726562 -2.691406 0.59375 -2.984375 C 0.46875 -3.285156 0.40625 -3.628906 0.40625 -4.015625 C 0.40625 -4.421875 0.46875 -4.765625 0.59375 -5.046875 C 0.726562 -5.335938 0.914062 -5.5625 1.15625 -5.71875 C 1.40625 -5.882812 1.703125 -5.96875 2.046875 -5.96875 C 2.148438 -5.96875 2.242188 -5.960938 2.328125 -5.953125 C 2.410156 -5.941406 2.484375 -5.925781 2.546875 -5.90625 C 2.609375 -5.894531 2.664062 -5.875 2.71875 -5.84375 L 4.171875 -5.84375 L 4.171875 -5.3125 L 3.375 -5.21875 C 3.476562 -5.0625 3.550781 -4.878906 3.59375 -4.671875 C 3.644531 -4.472656 3.671875 -4.265625 3.671875 -4.046875 C 3.671875 -3.453125 3.523438 -2.984375 3.234375 -2.640625 C 2.953125 -2.296875 2.550781 -2.125 2.03125 -2.125 C 1.875 -2.125 1.75 -2.140625 1.65625 -2.171875 C 1.550781 -2.078125 1.460938 -1.972656 1.390625 -1.859375 C 1.316406 -1.742188 1.28125 -1.601562 1.28125 -1.4375 C 1.28125 -1.332031 1.304688 -1.238281 1.359375 -1.15625 C 1.410156 -1.082031 1.476562 -1.023438 1.5625 -0.984375 C 1.65625 -0.941406 1.769531 -0.921875 1.90625 -0.921875 L 2.75 -0.921875 C 3.1875 -0.921875 3.523438 -0.796875 3.765625 -0.546875 C 4.003906 -0.296875 4.125 0.0859375 4.125 0.609375 C 4.125 1.242188 3.929688 1.738281 3.546875 2.09375 C 3.160156 2.445312 2.601562 2.625 1.875 2.625 Z M 1.9375 1.96875 C 2.25 1.96875 2.507812 1.921875 2.71875 1.828125 C 2.925781 1.734375 3.082031 1.585938 3.1875 1.390625 C 3.289062 1.203125 3.34375 0.96875 3.34375 0.6875 C 3.34375 0.457031 3.304688 0.28125 3.234375 0.15625 C 3.160156 0.03125 3.054688 -0.0507812 2.921875 -0.09375 C 2.785156 -0.144531 2.625 -0.171875 2.4375 -0.171875 L 1.734375 -0.171875 C 1.566406 -0.171875 1.414062 -0.132812 1.28125 -0.0625 C 1.15625 0.0078125 1.050781 0.125 0.96875 0.28125 C 0.894531 0.445312 0.859375 0.660156 0.859375 0.921875 C 0.859375 1.273438 0.953125 1.535156 1.140625 1.703125 C 1.335938 1.878906 1.601562 1.96875 1.9375 1.96875 Z M 2.046875 -2.734375 C 2.296875 -2.734375 2.488281 -2.84375 2.625 -3.0625 C 2.769531 -3.28125 2.84375 -3.601562 2.84375 -4.03125 C 2.84375 -4.476562 2.769531 -4.8125 2.625 -5.03125 C 2.476562 -5.257812 2.28125 -5.375 2.03125 -5.375 C 1.78125 -5.375 1.582031 -5.253906 1.4375 -5.015625 C 1.300781 -4.773438 1.234375 -4.441406 1.234375 -4.015625 C 1.234375 -3.609375 1.300781 -3.289062 1.4375 -3.0625 C 1.570312 -2.84375 1.773438 -2.734375 2.046875 -2.734375 Z M 2.046875 -2.734375 "/></g></g></g><g fill="#2d6d5e" fill-opacity="1"><g transform="translate(78.17999, 136.89417)"><g><path d="M 4.359375 -2.9375 C 4.359375 -2.476562 4.316406 -2.0625 4.234375 -1.6875 C 4.160156 -1.3125 4.039062 -0.988281 3.875 -0.71875 C 3.71875 -0.457031 3.515625 -0.253906 3.265625 -0.109375 C 3.023438 0.0351562 2.734375 0.109375 2.390625 0.109375 C 2.078125 0.109375 1.796875 0.0351562 1.546875 -0.109375 C 1.304688 -0.253906 1.101562 -0.457031 0.9375 -0.71875 C 0.78125 -0.976562 0.660156 -1.296875 0.578125 -1.671875 C 0.503906 -2.054688 0.46875 -2.476562 0.46875 -2.9375 C 0.46875 -3.582031 0.535156 -4.128906 0.671875 -4.578125 C 0.804688 -5.035156 1.019531 -5.378906 1.3125 -5.609375 C 1.601562 -5.847656 1.96875 -5.96875 2.40625 -5.96875 C 2.820312 -5.96875 3.175781 -5.851562 3.46875 -5.625 C 3.757812 -5.394531 3.976562 -5.054688 4.125 -4.609375 C 4.28125 -4.160156 4.359375 -3.601562 4.359375 -2.9375 Z M 1.296875 -2.9375 C 1.296875 -2.425781 1.332031 -2 1.40625 -1.65625 C 1.488281 -1.3125 1.613281 -1.050781 1.78125 -0.875 C 1.945312 -0.695312 2.160156 -0.609375 2.421875 -0.609375 C 2.671875 -0.609375 2.875 -0.691406 3.03125 -0.859375 C 3.195312 -1.035156 3.316406 -1.296875 3.390625 -1.640625 C 3.472656 -1.984375 3.515625 -2.414062 3.515625 -2.9375 C 3.515625 -3.445312 3.472656 -3.875 3.390625 -4.21875 C 3.316406 -4.5625 3.195312 -4.816406 3.03125 -4.984375 C 2.875 -5.160156 2.664062 -5.25 2.40625 -5.25 C 2.019531 -5.25 1.738281 -5.054688 1.5625 -4.671875 C 1.382812 -4.285156 1.296875 -3.707031 1.296875 -2.9375 Z M 1.296875 -2.9375 "/></g></g></g><g fill="#0661aa" fill-opacity="1"><g transform="translate(36.374741, 85.67241)"><g><path d="M 3.640625 0 L 3.640625 -10.140625 L 0.265625 -10.140625 L 0.265625 -12.765625 L 10.078125 -12.765625 L 10.078125 -10.140625 L 6.703125 -10.140625 L 6.703125 0 Z M 3.640625 0 "/></g></g></g><g fill="#0661aa" fill-opacity="1"><g transform="translate(48.110124, 85.67241)"><g><path d="M 5.625 -9.421875 C 6.375 -9.421875 6.976562 -9.140625 7.4375 -8.578125 C 7.894531 -8.023438 8.144531 -7.234375 8.1875 -6.203125 L 5.875 -5.578125 C 5.863281 -6.171875 5.753906 -6.617188 5.546875 -6.921875 C 5.347656 -7.234375 5.082031 -7.390625 4.75 -7.390625 C 4.34375 -7.390625 4.015625 -7.1875 3.765625 -6.78125 C 3.523438 -6.375 3.40625 -5.8125 3.40625 -5.09375 L 3.40625 0 L 0.6875 0 L 0.6875 -9.171875 L 2.890625 -9.171875 L 3.265625 -7.59375 L 3.28125 -7.59375 C 3.476562 -8.164062 3.785156 -8.613281 4.203125 -8.9375 C 4.628906 -9.257812 5.101562 -9.421875 5.625 -9.421875 Z M 5.625 -9.421875 "/></g></g></g><g fill="#0661aa" fill-opacity="1"><g transform="translate(58.573438, 85.67241)"><g><path d="M 5.359375 0.296875 C 4.367188 0.296875 3.492188 0.0976562 2.734375 -0.296875 C 1.984375 -0.703125 1.398438 -1.28125 0.984375 -2.03125 C 0.578125 -2.78125 0.375 -3.648438 0.375 -4.640625 C 0.375 -5.617188 0.5625 -6.46875 0.9375 -7.1875 C 1.3125 -7.914062 1.835938 -8.484375 2.515625 -8.890625 C 3.203125 -9.296875 4.003906 -9.5 4.921875 -9.5 C 5.804688 -9.5 6.570312 -9.300781 7.21875 -8.90625 C 7.863281 -8.519531 8.367188 -7.976562 8.734375 -7.28125 C 9.097656 -6.582031 9.28125 -5.765625 9.28125 -4.828125 C 9.28125 -4.628906 9.269531 -4.441406 9.25 -4.265625 C 9.238281 -4.097656 9.210938 -3.953125 9.171875 -3.828125 L 3.125 -3.828125 C 3.175781 -3.160156 3.40625 -2.632812 3.8125 -2.25 C 4.21875 -1.863281 4.738281 -1.671875 5.375 -1.671875 C 5.863281 -1.671875 6.296875 -1.789062 6.671875 -2.03125 C 7.046875 -2.269531 7.332031 -2.597656 7.53125 -3.015625 L 9.4375 -2.171875 C 9.175781 -1.398438 8.671875 -0.796875 7.921875 -0.359375 C 7.171875 0.078125 6.316406 0.296875 5.359375 0.296875 Z M 3.125 -5.390625 L 6.5625 -5.390625 C 6.519531 -6.054688 6.351562 -6.578125 6.0625 -6.953125 C 5.78125 -7.328125 5.394531 -7.515625 4.90625 -7.515625 C 4.394531 -7.515625 3.984375 -7.320312 3.671875 -6.9375 C 3.359375 -6.5625 3.175781 -6.046875 3.125 -5.390625 Z M 3.125 -5.390625 "/></g></g></g><g fill="#0661aa" fill-opacity="1"><g transform="translate(70.470074, 85.67241)"><g><path d="M 2.109375 -10.4375 C 1.617188 -10.4375 1.226562 -10.578125 0.9375 -10.859375 C 0.644531 -11.148438 0.5 -11.523438 0.5 -11.984375 C 0.5 -12.460938 0.644531 -12.84375 0.9375 -13.125 C 1.226562 -13.414062 1.617188 -13.5625 2.109375 -13.5625 C 2.597656 -13.5625 2.988281 -13.414062 3.28125 -13.125 C 3.582031 -12.84375 3.734375 -12.460938 3.734375 -11.984375 C 3.734375 -11.523438 3.582031 -11.148438 3.28125 -10.859375 C 2.988281 -10.578125 2.597656 -10.4375 2.109375 -10.4375 Z M 0.734375 0 L 0.734375 -9.171875 L 3.484375 -9.171875 L 3.484375 0 Z M 0.734375 0 "/></g></g></g><g fill="#0661aa" fill-opacity="1"><g transform="translate(76.812563, 85.67241)"><g><path d="M 6.25 -9.40625 C 7.101562 -9.40625 7.773438 -9.148438 8.265625 -8.640625 C 8.753906 -8.140625 9 -7.4375 9 -6.53125 L 9 0 L 6.25 0 L 6.25 -5.828125 C 6.25 -6.253906 6.140625 -6.585938 5.921875 -6.828125 C 5.710938 -7.066406 5.414062 -7.1875 5.03125 -7.1875 C 4.539062 -7.1875 4.144531 -7.023438 3.84375 -6.703125 C 3.550781 -6.390625 3.40625 -5.953125 3.40625 -5.390625 L 3.40625 0 L 0.6875 0 L 0.6875 -9.171875 L 2.9375 -9.171875 L 3.3125 -7.609375 L 3.328125 -7.609375 C 3.609375 -8.191406 4.003906 -8.632812 4.515625 -8.9375 C 5.023438 -9.25 5.601562 -9.40625 6.25 -9.40625 Z M 6.25 -9.40625 "/></g></g></g><g fill="#0661aa" fill-opacity="1"><g transform="translate(88.547946, 85.67241)"><g><path d="M 5.03125 0.296875 C 4.09375 0.296875 3.269531 0.0976562 2.5625 -0.296875 C 1.863281 -0.691406 1.320312 -1.253906 0.9375 -1.984375 C 0.5625 -2.722656 0.375 -3.59375 0.375 -4.59375 C 0.375 -5.59375 0.5625 -6.457031 0.9375 -7.1875 C 1.320312 -7.925781 1.863281 -8.492188 2.5625 -8.890625 C 3.269531 -9.296875 4.09375 -9.5 5.03125 -9.5 C 5.976562 -9.5 6.796875 -9.296875 7.484375 -8.890625 C 8.179688 -8.492188 8.71875 -7.925781 9.09375 -7.1875 C 9.476562 -6.457031 9.671875 -5.59375 9.671875 -4.59375 C 9.671875 -3.59375 9.476562 -2.722656 9.09375 -1.984375 C 8.71875 -1.253906 8.179688 -0.691406 7.484375 -0.296875 C 6.796875 0.0976562 5.976562 0.296875 5.03125 0.296875 Z M 5.03125 -1.984375 C 5.632812 -1.984375 6.101562 -2.210938 6.4375 -2.671875 C 6.78125 -3.140625 6.953125 -3.78125 6.953125 -4.59375 C 6.953125 -5.40625 6.78125 -6.039062 6.4375 -6.5 C 6.101562 -6.957031 5.632812 -7.1875 5.03125 -7.1875 C 4.4375 -7.1875 3.960938 -6.957031 3.609375 -6.5 C 3.265625 -6.039062 3.09375 -5.40625 3.09375 -4.59375 C 3.09375 -3.78125 3.265625 -3.140625 3.609375 -2.671875 C 3.960938 -2.210938 4.4375 -1.984375 5.03125 -1.984375 Z M 5.03125 -1.984375 "/></g></g></g><g fill="#0661aa" fill-opacity="1"><g transform="translate(19.157946, 107.321714)"><g><path d="M 4 0.25 C 3.269531 0.25 2.628906 0.0507812 2.078125 -0.34375 C 1.535156 -0.738281 1.113281 -1.300781 0.8125 -2.03125 C 0.519531 -2.757812 0.375 -3.613281 0.375 -4.59375 C 0.375 -5.582031 0.519531 -6.4375 0.8125 -7.15625 C 1.113281 -7.882812 1.535156 -8.441406 2.078125 -8.828125 C 2.628906 -9.222656 3.265625 -9.421875 3.984375 -9.421875 C 4.597656 -9.421875 5.144531 -9.265625 5.625 -8.953125 C 6.101562 -8.648438 6.472656 -8.203125 6.734375 -7.609375 L 6.75 -7.609375 L 6.75 -13.296875 L 9.5 -13.296875 L 9.5 0 L 7.171875 0 L 6.828125 -1.59375 L 6.8125 -1.59375 C 6.550781 -1 6.175781 -0.539062 5.6875 -0.21875 C 5.195312 0.09375 4.632812 0.25 4 0.25 Z M 5 -2.09375 C 5.5625 -2.09375 6.007812 -2.316406 6.34375 -2.765625 C 6.6875 -3.222656 6.859375 -3.832031 6.859375 -4.59375 C 6.859375 -5.34375 6.6875 -5.941406 6.34375 -6.390625 C 6.007812 -6.847656 5.5625 -7.078125 5 -7.078125 C 4.4375 -7.078125 3.984375 -6.847656 3.640625 -6.390625 C 3.296875 -5.941406 3.125 -5.34375 3.125 -4.59375 C 3.125 -3.832031 3.296875 -3.222656 3.640625 -2.765625 C 3.984375 -2.316406 4.4375 -2.09375 5 -2.09375 Z M 5 -2.09375 "/></g></g></g><g fill="#0661aa" fill-opacity="1"><g transform="translate(31.448747, 107.321714)"><g><path d="M 5.359375 0.296875 C 4.367188 0.296875 3.492188 0.0976562 2.734375 -0.296875 C 1.984375 -0.703125 1.398438 -1.28125 0.984375 -2.03125 C 0.578125 -2.78125 0.375 -3.648438 0.375 -4.640625 C 0.375 -5.617188 0.5625 -6.46875 0.9375 -7.1875 C 1.3125 -7.914062 1.835938 -8.484375 2.515625 -8.890625 C 3.203125 -9.296875 4.003906 -9.5 4.921875 -9.5 C 5.804688 -9.5 6.570312 -9.300781 7.21875 -8.90625 C 7.863281 -8.519531 8.367188 -7.976562 8.734375 -7.28125 C 9.097656 -6.582031 9.28125 -5.765625 9.28125 -4.828125 C 9.28125 -4.628906 9.269531 -4.441406 9.25 -4.265625 C 9.238281 -4.097656 9.210938 -3.953125 9.171875 -3.828125 L 3.125 -3.828125 C 3.175781 -3.160156 3.40625 -2.632812 3.8125 -2.25 C 4.21875 -1.863281 4.738281 -1.671875 5.375 -1.671875 C 5.863281 -1.671875 6.296875 -1.789062 6.671875 -2.03125 C 7.046875 -2.269531 7.332031 -2.597656 7.53125 -3.015625 L 9.4375 -2.171875 C 9.175781 -1.398438 8.671875 -0.796875 7.921875 -0.359375 C 7.171875 0.078125 6.316406 0.296875 5.359375 0.296875 Z M 3.125 -5.390625 L 6.5625 -5.390625 C 6.519531 -6.054688 6.351562 -6.578125 6.0625 -6.953125 C 5.78125 -7.328125 5.394531 -7.515625 4.90625 -7.515625 C 4.394531 -7.515625 3.984375 -7.320312 3.671875 -6.9375 C 3.359375 -6.5625 3.175781 -6.046875 3.125 -5.390625 Z M 3.125 -5.390625 "/></g></g></g><g fill="#0661aa" fill-opacity="1"><g transform="translate(43.345383, 107.321714)"><g/></g></g><g fill="#0661aa" fill-opacity="1"><g transform="translate(48.792041, 107.321714)"><g><path d="M 0.09375 0 L 4.171875 -12.765625 L 7.96875 -12.765625 L 12.0625 0 L 8.921875 0 L 8.203125 -2.515625 L 3.921875 -2.515625 L 3.1875 0 Z M 4.390625 -4.671875 L 7.71875 -4.671875 L 6.109375 -10.28125 L 6.078125 -10.28125 Z M 4.390625 -4.671875 "/></g></g></g><g fill="#0661aa" fill-opacity="1"><g transform="translate(63.053675, 107.321714)"><g><path d="M 0.6875 3.765625 L 0.6875 -9.171875 L 3.015625 -9.171875 L 3.34375 -7.578125 L 3.375 -7.578125 C 3.632812 -8.179688 4.007812 -8.640625 4.5 -8.953125 C 5 -9.265625 5.5625 -9.421875 6.1875 -9.421875 C 6.914062 -9.421875 7.546875 -9.222656 8.078125 -8.828125 C 8.617188 -8.441406 9.035156 -7.882812 9.328125 -7.15625 C 9.628906 -6.4375 9.78125 -5.582031 9.78125 -4.59375 C 9.78125 -3.613281 9.628906 -2.757812 9.328125 -2.03125 C 9.035156 -1.300781 8.617188 -0.738281 8.078125 -0.34375 C 7.546875 0.0507812 6.914062 0.25 6.1875 0.25 C 5.570312 0.25 5.023438 0.09375 4.546875 -0.21875 C 4.066406 -0.53125 3.691406 -0.976562 3.421875 -1.5625 L 3.40625 -1.5625 L 3.40625 3.765625 Z M 5.171875 -2.09375 C 5.734375 -2.09375 6.1875 -2.316406 6.53125 -2.765625 C 6.875 -3.222656 7.046875 -3.832031 7.046875 -4.59375 C 7.046875 -5.351562 6.875 -5.957031 6.53125 -6.40625 C 6.1875 -6.851562 5.734375 -7.078125 5.171875 -7.078125 C 4.617188 -7.078125 4.164062 -6.847656 3.8125 -6.390625 C 3.46875 -5.941406 3.296875 -5.34375 3.296875 -4.59375 C 3.296875 -3.832031 3.46875 -3.222656 3.8125 -2.765625 C 4.164062 -2.316406 4.617188 -2.09375 5.171875 -2.09375 Z M 5.171875 -2.09375 "/></g></g></g><g fill="#0661aa" fill-opacity="1"><g transform="translate(75.344477, 107.321714)"><g><path d="M 6.25 -9.40625 C 7.101562 -9.40625 7.773438 -9.148438 8.265625 -8.640625 C 8.753906 -8.140625 9 -7.4375 9 -6.53125 L 9 0 L 6.25 0 L 6.25 -5.828125 C 6.25 -6.253906 6.140625 -6.585938 5.921875 -6.828125 C 5.710938 -7.066406 5.414062 -7.1875 5.03125 -7.1875 C 4.539062 -7.1875 4.144531 -7.023438 3.84375 -6.703125 C 3.550781 -6.390625 3.40625 -5.953125 3.40625 -5.390625 L 3.40625 0 L 0.6875 0 L 0.6875 -9.171875 L 2.9375 -9.171875 L 3.3125 -7.609375 L 3.328125 -7.609375 C 3.609375 -8.191406 4.003906 -8.632812 4.515625 -8.9375 C 5.023438 -9.25 5.601562 -9.40625 6.25 -9.40625 Z M 6.25 -9.40625 "/></g></g></g><g fill="#0661aa" fill-opacity="1"><g transform="translate(87.079859, 107.321714)"><g><path d="M 5.359375 0.296875 C 4.367188 0.296875 3.492188 0.0976562 2.734375 -0.296875 C 1.984375 -0.703125 1.398438 -1.28125 0.984375 -2.03125 C 0.578125 -2.78125 0.375 -3.648438 0.375 -4.640625 C 0.375 -5.617188 0.5625 -6.46875 0.9375 -7.1875 C 1.3125 -7.914062 1.835938 -8.484375 2.515625 -8.890625 C 3.203125 -9.296875 4.003906 -9.5 4.921875 -9.5 C 5.804688 -9.5 6.570312 -9.300781 7.21875 -8.90625 C 7.863281 -8.519531 8.367188 -7.976562 8.734375 -7.28125 C 9.097656 -6.582031 9.28125 -5.765625 9.28125 -4.828125 C 9.28125 -4.628906 9.269531 -4.441406 9.25 -4.265625 C 9.238281 -4.097656 9.210938 -3.953125 9.171875 -3.828125 L 3.125 -3.828125 C 3.175781 -3.160156 3.40625 -2.632812 3.8125 -2.25 C 4.21875 -1.863281 4.738281 -1.671875 5.375 -1.671875 C 5.863281 -1.671875 6.296875 -1.789062 6.671875 -2.03125 C 7.046875 -2.269531 7.332031 -2.597656 7.53125 -3.015625 L 9.4375 -2.171875 C 9.175781 -1.398438 8.671875 -0.796875 7.921875 -0.359375 C 7.171875 0.078125 6.316406 0.296875 5.359375 0.296875 Z M 3.125 -5.390625 L 6.5625 -5.390625 C 6.519531 -6.054688 6.351562 -6.578125 6.0625 -6.953125 C 5.78125 -7.328125 5.394531 -7.515625 4.90625 -7.515625 C 4.394531 -7.515625 3.984375 -7.320312 3.671875 -6.9375 C 3.359375 -6.5625 3.175781 -6.046875 3.125 -5.390625 Z M 3.125 -5.390625 "/></g></g></g><g fill="#0661aa" fill-opacity="1"><g transform="translate(98.976495, 107.321714)"><g><path d="M 2.109375 -10.4375 C 1.617188 -10.4375 1.226562 -10.578125 0.9375 -10.859375 C 0.644531 -11.148438 0.5 -11.523438 0.5 -11.984375 C 0.5 -12.460938 0.644531 -12.84375 0.9375 -13.125 C 1.226562 -13.414062 1.617188 -13.5625 2.109375 -13.5625 C 2.597656 -13.5625 2.988281 -13.414062 3.28125 -13.125 C 3.582031 -12.84375 3.734375 -12.460938 3.734375 -11.984375 C 3.734375 -11.523438 3.582031 -11.148438 3.28125 -10.859375 C 2.988281 -10.578125 2.597656 -10.4375 2.109375 -10.4375 Z M 0.734375 0 L 0.734375 -9.171875 L 3.484375 -9.171875 L 3.484375 0 Z M 0.734375 0 "/></g></g></g><g fill="#0661aa" fill-opacity="1"><g transform="translate(105.318984, 107.321714)"><g><path d="M 3.171875 0.21875 C 2.296875 0.21875 1.585938 -0.015625 1.046875 -0.484375 C 0.515625 -0.953125 0.25 -1.578125 0.25 -2.359375 C 0.25 -3.203125 0.566406 -3.878906 1.203125 -4.390625 C 1.847656 -4.910156 2.785156 -5.238281 4.015625 -5.375 L 5.4375 -5.53125 C 5.632812 -5.5625 5.796875 -5.632812 5.921875 -5.75 C 6.046875 -5.875 6.109375 -6.046875 6.109375 -6.265625 C 6.109375 -6.671875 5.984375 -6.984375 5.734375 -7.203125 C 5.484375 -7.421875 5.15625 -7.53125 4.75 -7.53125 C 4.28125 -7.53125 3.898438 -7.367188 3.609375 -7.046875 C 3.328125 -6.722656 3.175781 -6.316406 3.15625 -5.828125 L 0.5625 -6.203125 C 0.582031 -6.847656 0.769531 -7.414062 1.125 -7.90625 C 1.476562 -8.40625 1.960938 -8.796875 2.578125 -9.078125 C 3.191406 -9.359375 3.910156 -9.5 4.734375 -9.5 C 5.984375 -9.5 6.972656 -9.171875 7.703125 -8.515625 C 8.429688 -7.859375 8.796875 -6.96875 8.796875 -5.84375 L 8.796875 -2.296875 C 8.796875 -1.890625 8.945312 -1.6875 9.25 -1.6875 C 9.488281 -1.6875 9.710938 -1.804688 9.921875 -2.046875 L 10.515625 -0.578125 C 10.234375 -0.296875 9.890625 -0.09375 9.484375 0.03125 C 9.078125 0.164062 8.675781 0.234375 8.28125 0.234375 C 7.726562 0.234375 7.265625 0.09375 6.890625 -0.1875 C 6.515625 -0.46875 6.28125 -0.820312 6.1875 -1.25 L 6.140625 -1.484375 L 6.125 -1.484375 C 5.851562 -0.960938 5.457031 -0.546875 4.9375 -0.234375 C 4.425781 0.0664062 3.835938 0.21875 3.171875 0.21875 Z M 4.296875 -1.703125 C 4.816406 -1.703125 5.242188 -1.882812 5.578125 -2.25 C 5.910156 -2.613281 6.078125 -3.085938 6.078125 -3.671875 L 6.078125 -4.109375 L 4.734375 -3.953125 C 4.109375 -3.890625 3.660156 -3.742188 3.390625 -3.515625 C 3.128906 -3.285156 3 -3.015625 3 -2.703125 C 3 -2.410156 3.117188 -2.171875 3.359375 -1.984375 C 3.609375 -1.796875 3.921875 -1.703125 4.296875 -1.703125 Z M 4.296875 -1.703125 "/></g></g></g><g clip-path="url(#d2db3fbea2)"><path fill="#0661aa" d="M 83.4375 45.550781 C 83.4375 44.90625 83.371094 44.273438 83.246094 43.640625 C 83.121094 43.011719 82.9375 42.398438 82.691406 41.804688 C 82.449219 41.210938 82.148438 40.648438 81.792969 40.113281 C 81.4375 39.578125 81.03125 39.082031 80.582031 38.625 C 80.128906 38.171875 79.636719 37.761719 79.105469 37.402344 C 78.570312 37.042969 78.011719 36.738281 77.417969 36.488281 C 76.828125 36.238281 76.214844 36.046875 75.585938 35.917969 C 74.957031 35.789062 74.324219 35.71875 73.679688 35.714844 L 55.453125 35.714844 C 54.863281 35.714844 54.277344 35.765625 53.695312 35.871094 C 53.113281 35.976562 52.542969 36.132812 51.992188 36.34375 C 51.4375 36.550781 50.90625 36.808594 50.398438 37.109375 C 49.890625 37.414062 49.417969 37.761719 48.972656 38.148438 C 48.527344 38.539062 48.121094 38.964844 47.753906 39.429688 C 47.382812 39.890625 47.0625 40.382812 46.78125 40.90625 C 46.503906 41.425781 46.273438 41.96875 46.089844 42.53125 C 45.910156 43.09375 45.777344 43.667969 45.699219 44.253906 C 45.621094 44.839844 45.597656 45.425781 45.625 46.019531 C 45.652344 46.609375 45.734375 47.191406 45.867188 47.769531 C 46 48.34375 46.183594 48.902344 46.417969 49.445312 C 46.652344 49.988281 46.933594 50.507812 47.261719 51 C 47.589844 51.492188 47.957031 51.949219 48.367188 52.375 C 48.777344 52.804688 49.222656 53.1875 49.703125 53.535156 C 50.183594 53.878906 50.6875 54.179688 51.222656 54.433594 C 51.757812 54.6875 52.308594 54.894531 52.878906 55.046875 C 53.449219 55.203125 54.03125 55.304688 54.617188 55.355469 C 55.207031 55.40625 55.796875 55.402344 56.386719 55.34375 C 56.972656 55.289062 57.554688 55.179688 58.121094 55.019531 C 58.691406 54.859375 59.242188 54.652344 59.773438 54.390625 C 60.304688 54.132812 60.808594 53.828125 61.285156 53.476562 C 61.757812 53.125 62.199219 52.734375 62.605469 52.304688 C 63.011719 51.875 63.375 51.414062 63.699219 50.917969 C 64.023438 50.421875 64.296875 49.902344 64.527344 49.355469 C 64.742188 49.875 65.003906 50.375 65.308594 50.847656 C 65.613281 51.324219 65.953125 51.769531 66.335938 52.1875 C 66.714844 52.601562 67.128906 52.984375 67.574219 53.328125 C 68.019531 53.671875 68.492188 53.976562 68.988281 54.242188 C 69.488281 54.507812 70.003906 54.726562 70.539062 54.902344 C 71.078125 55.078125 71.625 55.203125 72.183594 55.285156 C 72.738281 55.367188 73.300781 55.398438 73.863281 55.386719 C 74.429688 55.371094 74.988281 55.304688 75.539062 55.195312 C 76.09375 55.085938 76.632812 54.925781 77.15625 54.722656 C 77.683594 54.519531 78.1875 54.269531 78.671875 53.980469 C 79.152344 53.691406 79.609375 53.359375 80.035156 52.992188 C 80.460938 52.621094 80.851562 52.21875 81.210938 51.78125 C 81.566406 51.347656 81.886719 50.882812 82.164062 50.390625 C 82.441406 49.902344 82.671875 49.390625 82.863281 48.859375 C 83.054688 48.328125 83.195312 47.785156 83.292969 47.230469 C 83.386719 46.671875 83.4375 46.113281 83.4375 45.550781 Z M 65.292969 45.550781 C 65.292969 45.339844 65.214844 45.15625 65.066406 45.007812 C 64.917969 44.859375 64.738281 44.785156 64.527344 44.785156 C 64.3125 44.785156 64.132812 44.859375 63.984375 45.007812 C 63.835938 45.15625 63.761719 45.339844 63.761719 45.550781 C 63.761719 46.09375 63.707031 46.636719 63.601562 47.171875 C 63.492188 47.707031 63.335938 48.226562 63.128906 48.730469 C 62.917969 49.234375 62.664062 49.710938 62.359375 50.164062 C 62.058594 50.617188 61.710938 51.039062 61.328125 51.421875 C 60.941406 51.808594 60.523438 52.152344 60.066406 52.457031 C 59.613281 52.761719 59.136719 53.015625 58.632812 53.222656 C 58.128906 53.433594 57.609375 53.589844 57.074219 53.695312 C 56.539062 53.804688 56 53.855469 55.453125 53.855469 C 54.90625 53.855469 54.367188 53.804688 53.832031 53.695312 C 53.296875 53.589844 52.777344 53.433594 52.273438 53.222656 C 51.769531 53.015625 51.292969 52.761719 50.839844 52.457031 C 50.382812 52.152344 49.964844 51.808594 49.578125 51.421875 C 49.195312 51.039062 48.847656 50.617188 48.546875 50.164062 C 48.242188 49.710938 47.988281 49.234375 47.777344 48.730469 C 47.570312 48.226562 47.414062 47.707031 47.304688 47.171875 C 47.199219 46.636719 47.144531 46.09375 47.144531 45.550781 C 47.144531 45.003906 47.199219 44.464844 47.304688 43.929688 C 47.414062 43.394531 47.570312 42.875 47.777344 42.371094 C 47.988281 41.867188 48.242188 41.386719 48.546875 40.933594 C 48.847656 40.480469 49.195312 40.0625 49.578125 39.675781 C 49.964844 39.289062 50.382812 38.945312 50.839844 38.644531 C 51.292969 38.339844 51.769531 38.085938 52.273438 37.875 C 52.777344 37.667969 53.296875 37.507812 53.832031 37.402344 C 54.367188 37.296875 54.90625 37.242188 55.453125 37.242188 L 73.597656 37.242188 C 74.144531 37.242188 74.683594 37.296875 75.21875 37.402344 C 75.753906 37.507812 76.273438 37.667969 76.777344 37.875 C 77.28125 38.085938 77.761719 38.339844 78.214844 38.644531 C 78.667969 38.945312 79.085938 39.289062 79.472656 39.675781 C 79.859375 40.0625 80.203125 40.480469 80.507812 40.933594 C 80.808594 41.386719 81.066406 41.867188 81.273438 42.371094 C 81.480469 42.875 81.640625 43.394531 81.746094 43.929688 C 81.851562 44.464844 81.90625 45.003906 81.90625 45.550781 C 81.90625 46.09375 81.851562 46.636719 81.746094 47.171875 C 81.640625 47.707031 81.480469 48.226562 81.273438 48.730469 C 81.066406 49.234375 80.808594 49.710938 80.507812 50.164062 C 80.203125 50.617188 79.859375 51.039062 79.472656 51.421875 C 79.085938 51.808594 78.667969 52.152344 78.214844 52.457031 C 77.761719 52.761719 77.28125 53.015625 76.777344 53.222656 C 76.273438 53.433594 75.753906 53.589844 75.21875 53.695312 C 74.683594 53.804688 74.144531 53.855469 73.597656 53.855469 C 73.054688 53.855469 72.511719 53.804688 71.980469 53.695312 C 71.445312 53.589844 70.925781 53.433594 70.421875 53.222656 C 69.917969 53.015625 69.4375 52.761719 68.984375 52.457031 C 68.53125 52.152344 68.109375 51.808594 67.726562 51.421875 C 67.339844 51.039062 66.996094 50.617188 66.691406 50.164062 C 66.390625 49.710938 66.132812 49.234375 65.925781 48.730469 C 65.714844 48.226562 65.558594 47.707031 65.453125 47.171875 C 65.34375 46.636719 65.292969 46.09375 65.292969 45.550781 Z M 65.292969 45.550781 " fill-opacity="1" fill-rule="nonzero"/></g><path fill="#0661aa" d="M 80.433594 45.550781 C 80.433594 45.101562 80.390625 44.65625 80.300781 44.21875 C 80.214844 43.777344 80.082031 43.351562 79.910156 42.933594 C 79.738281 42.519531 79.527344 42.128906 79.28125 41.753906 C 79.03125 41.382812 78.746094 41.035156 78.429688 40.71875 C 78.113281 40.402344 77.765625 40.117188 77.394531 39.867188 C 77.023438 39.621094 76.628906 39.410156 76.214844 39.238281 C 75.800781 39.0625 75.371094 38.933594 74.933594 38.847656 C 74.492188 38.757812 74.046875 38.714844 73.597656 38.714844 L 55.453125 38.714844 C 55.003906 38.714844 54.558594 38.757812 54.121094 38.84375 C 53.679688 38.933594 53.253906 39.0625 52.835938 39.234375 C 52.421875 39.40625 52.027344 39.617188 51.65625 39.863281 C 51.28125 40.113281 50.9375 40.398438 50.621094 40.714844 C 50.300781 41.03125 50.019531 41.378906 49.769531 41.75 C 49.519531 42.125 49.308594 42.515625 49.136719 42.929688 C 48.964844 43.347656 48.835938 43.773438 48.75 44.214844 C 48.660156 44.652344 48.617188 45.097656 48.617188 45.546875 C 48.617188 45.996094 48.660156 46.441406 48.746094 46.878906 C 48.835938 47.320312 48.964844 47.75 49.136719 48.164062 C 49.308594 48.578125 49.515625 48.972656 49.765625 49.34375 C 50.015625 49.71875 50.296875 50.0625 50.617188 50.382812 C 50.933594 50.699219 51.277344 50.980469 51.652344 51.230469 C 52.023438 51.480469 52.417969 51.691406 52.832031 51.863281 C 53.246094 52.035156 53.675781 52.167969 54.113281 52.253906 C 54.554688 52.34375 55 52.386719 55.449219 52.386719 C 55.894531 52.386719 56.339844 52.34375 56.78125 52.257812 C 57.222656 52.167969 57.648438 52.039062 58.0625 51.867188 C 58.476562 51.699219 58.871094 51.488281 59.246094 51.238281 C 59.617188 50.988281 59.964844 50.707031 60.28125 50.390625 C 60.601562 50.074219 60.882812 49.726562 61.132812 49.355469 C 61.382812 48.980469 61.59375 48.589844 61.765625 48.175781 C 61.9375 47.757812 62.070312 47.332031 62.15625 46.890625 C 62.246094 46.453125 62.289062 46.007812 62.289062 45.558594 C 62.292969 45.382812 62.40625 42.691406 64.605469 42.691406 C 65.246094 42.691406 65.730469 42.878906 66.085938 43.257812 C 66.847656 44.070312 66.765625 45.503906 66.761719 45.519531 C 66.761719 45.53125 66.761719 45.539062 66.761719 45.550781 C 66.757812 46.003906 66.796875 46.453125 66.882812 46.898438 C 66.964844 47.34375 67.089844 47.773438 67.261719 48.191406 C 67.429688 48.613281 67.640625 49.011719 67.886719 49.386719 C 68.136719 49.765625 68.417969 50.117188 68.738281 50.4375 C 69.054688 50.757812 69.402344 51.046875 69.777344 51.300781 C 70.152344 51.550781 70.546875 51.765625 70.964844 51.941406 C 71.382812 52.113281 71.8125 52.246094 72.257812 52.335938 C 72.699219 52.421875 73.148438 52.46875 73.597656 52.46875 C 74.050781 52.46875 74.5 52.421875 74.941406 52.335938 C 75.386719 52.246094 75.816406 52.113281 76.234375 51.941406 C 76.652344 51.765625 77.046875 51.550781 77.421875 51.300781 C 77.796875 51.046875 78.144531 50.757812 78.460938 50.4375 C 78.78125 50.117188 79.0625 49.765625 79.3125 49.386719 C 79.558594 49.011719 79.769531 48.613281 79.9375 48.191406 C 80.109375 47.773438 80.234375 47.34375 80.316406 46.898438 C 80.402344 46.453125 80.441406 46.003906 80.4375 45.550781 Z M 67.753906 45.5625 C 67.765625 45.351562 67.824219 43.664062 66.8125 42.582031 C 66.265625 41.996094 65.523438 41.699219 64.605469 41.699219 C 62.058594 41.699219 61.328125 44.210938 61.300781 45.539062 L 61.300781 45.550781 C 61.300781 45.933594 61.261719 46.3125 61.1875 46.691406 C 61.113281 47.066406 61 47.433594 60.855469 47.785156 C 60.707031 48.140625 60.527344 48.480469 60.3125 48.796875 C 60.101562 49.117188 59.859375 49.414062 59.585938 49.683594 C 59.316406 49.953125 59.019531 50.199219 58.699219 50.410156 C 58.382812 50.625 58.046875 50.804688 57.691406 50.949219 C 57.335938 51.097656 56.96875 51.207031 56.59375 51.285156 C 56.21875 51.359375 55.835938 51.394531 55.453125 51.394531 C 55.070312 51.394531 54.6875 51.359375 54.3125 51.285156 C 53.9375 51.207031 53.570312 51.097656 53.214844 50.949219 C 52.863281 50.804688 52.523438 50.625 52.207031 50.410156 C 51.886719 50.199219 51.589844 49.953125 51.320312 49.683594 C 51.046875 49.414062 50.804688 49.117188 50.59375 48.796875 C 50.378906 48.480469 50.199219 48.140625 50.050781 47.785156 C 49.90625 47.433594 49.792969 47.066406 49.71875 46.691406 C 49.644531 46.3125 49.605469 45.933594 49.605469 45.550781 C 49.605469 45.167969 49.644531 44.785156 49.71875 44.410156 C 49.792969 44.03125 49.90625 43.667969 50.050781 43.3125 C 50.199219 42.957031 50.378906 42.621094 50.59375 42.300781 C 50.804688 41.984375 51.046875 41.6875 51.320312 41.417969 C 51.589844 41.144531 51.886719 40.902344 52.207031 40.6875 C 52.523438 40.476562 52.863281 40.296875 53.214844 40.148438 C 53.570312 40.003906 53.9375 39.890625 54.3125 39.816406 C 54.6875 39.742188 55.070312 39.703125 55.453125 39.703125 L 73.597656 39.703125 C 73.984375 39.703125 74.363281 39.742188 74.738281 39.816406 C 75.117188 39.890625 75.480469 40 75.835938 40.148438 C 76.191406 40.296875 76.527344 40.476562 76.84375 40.6875 C 77.164062 40.902344 77.460938 41.144531 77.730469 41.414062 C 78.003906 41.6875 78.246094 41.980469 78.457031 42.300781 C 78.671875 42.617188 78.851562 42.957031 79 43.308594 C 79.144531 43.664062 79.257812 44.03125 79.332031 44.40625 C 79.40625 44.78125 79.445312 45.160156 79.445312 45.546875 C 79.445312 45.929688 79.410156 46.308594 79.332031 46.683594 C 79.257812 47.0625 79.148438 47.425781 79.003906 47.78125 C 78.855469 48.136719 78.675781 48.472656 78.464844 48.792969 C 78.25 49.113281 78.007812 49.40625 77.738281 49.679688 C 77.464844 49.949219 77.171875 50.191406 76.851562 50.40625 C 76.535156 50.621094 76.199219 50.800781 75.84375 50.949219 C 75.488281 51.09375 75.125 51.207031 74.746094 51.28125 C 74.371094 51.355469 73.992188 51.394531 73.609375 51.394531 C 73.222656 51.394531 72.84375 51.359375 72.46875 51.285156 C 72.089844 51.210938 71.726562 51.101562 71.371094 50.953125 C 71.015625 50.808594 70.679688 50.628906 70.359375 50.417969 C 70.039062 50.203125 69.746094 49.960938 69.472656 49.691406 C 69.203125 49.421875 68.957031 49.125 68.746094 48.808594 C 68.53125 48.488281 68.351562 48.152344 68.203125 47.796875 C 68.054688 47.445312 67.945312 47.078125 67.867188 46.703125 C 67.792969 46.328125 67.753906 45.945312 67.753906 45.5625 Z M 67.753906 45.5625 " fill-opacity="1" fill-rule="nonzero"/><path fill="#0661aa" d="M 73.964844 47.933594 C 74.171875 47.933594 74.320312 47.839844 74.410156 47.65625 C 74.5 47.46875 74.480469 47.296875 74.351562 47.132812 L 72.398438 44.636719 C 72.316406 44.53125 72.207031 44.472656 72.070312 44.457031 C 71.9375 44.441406 71.816406 44.476562 71.710938 44.558594 C 71.605469 44.640625 71.542969 44.75 71.523438 44.882812 C 71.507812 45.019531 71.539062 45.140625 71.621094 45.246094 L 73.574219 47.742188 C 73.671875 47.871094 73.804688 47.933594 73.964844 47.933594 Z M 73.964844 47.933594 " fill-opacity="1" fill-rule="nonzero"/><path fill="#0661aa" d="M 73.179688 31.070312 C 73.179688 31.390625 73.242188 31.703125 73.367188 32.003906 C 73.488281 32.300781 73.667969 32.566406 73.894531 32.792969 C 74.125 33.023438 74.386719 33.199219 74.6875 33.320312 C 74.988281 33.445312 75.296875 33.507812 75.621094 33.507812 C 75.945312 33.507812 76.257812 33.445312 76.554688 33.320312 C 76.855469 33.195312 77.117188 33.019531 77.347656 32.789062 C 77.574219 32.5625 77.75 32.296875 77.875 32 C 78 31.699219 78.0625 31.386719 78.0625 31.0625 C 78.058594 30.742188 78 30.429688 77.875 30.128906 C 77.75 29.832031 77.574219 29.566406 77.34375 29.339844 C 77.117188 29.109375 76.851562 28.933594 76.550781 28.808594 C 76.253906 28.6875 75.941406 28.625 75.617188 28.625 C 75.292969 28.625 74.984375 28.6875 74.683594 28.8125 C 74.386719 28.9375 74.121094 29.113281 73.894531 29.339844 C 73.664062 29.570312 73.488281 29.835938 73.363281 30.132812 C 73.242188 30.433594 73.179688 30.746094 73.179688 31.070312 Z M 75.617188 29.617188 C 75.8125 29.617188 75.996094 29.652344 76.175781 29.726562 C 76.351562 29.800781 76.507812 29.902344 76.644531 30.039062 C 76.78125 30.175781 76.886719 30.332031 76.960938 30.511719 C 77.03125 30.6875 77.070312 30.871094 77.070312 31.066406 C 77.070312 31.257812 77.03125 31.441406 76.960938 31.621094 C 76.886719 31.796875 76.78125 31.957031 76.644531 32.089844 C 76.507812 32.226562 76.351562 32.332031 76.175781 32.40625 C 75.996094 32.480469 75.8125 32.515625 75.621094 32.515625 C 75.425781 32.515625 75.242188 32.480469 75.0625 32.40625 C 74.886719 32.332031 74.730469 32.226562 74.59375 32.089844 C 74.457031 31.953125 74.351562 31.796875 74.28125 31.621094 C 74.207031 31.441406 74.167969 31.257812 74.167969 31.066406 C 74.167969 30.871094 74.207031 30.6875 74.28125 30.511719 C 74.355469 30.332031 74.457031 30.175781 74.59375 30.039062 C 74.730469 29.90625 74.886719 29.800781 75.0625 29.726562 C 75.242188 29.652344 75.425781 29.617188 75.617188 29.617188 Z M 75.617188 29.617188 " fill-opacity="1" fill-rule="nonzero"/><path fill="#0661aa" d="M 72.015625 28.472656 C 72.265625 28.472656 72.507812 28.421875 72.742188 28.328125 C 72.976562 28.230469 73.179688 28.09375 73.359375 27.914062 C 73.535156 27.738281 73.675781 27.53125 73.769531 27.300781 C 73.867188 27.066406 73.914062 26.824219 73.914062 26.574219 C 73.914062 26.320312 73.867188 26.078125 73.769531 25.847656 C 73.675781 25.613281 73.539062 25.410156 73.359375 25.230469 C 73.179688 25.050781 72.976562 24.914062 72.742188 24.820312 C 72.511719 24.722656 72.269531 24.675781 72.015625 24.675781 C 71.765625 24.675781 71.523438 24.722656 71.289062 24.816406 C 71.058594 24.914062 70.851562 25.050781 70.675781 25.230469 C 70.496094 25.40625 70.359375 25.613281 70.261719 25.847656 C 70.164062 26.078125 70.117188 26.320312 70.117188 26.574219 C 70.117188 26.824219 70.167969 27.066406 70.261719 27.296875 C 70.359375 27.53125 70.496094 27.734375 70.675781 27.914062 C 70.851562 28.09375 71.058594 28.230469 71.289062 28.324219 C 71.523438 28.421875 71.765625 28.472656 72.015625 28.472656 Z M 72.015625 25.664062 C 72.265625 25.664062 72.480469 25.753906 72.65625 25.929688 C 72.835938 26.109375 72.925781 26.324219 72.925781 26.574219 C 72.925781 26.824219 72.835938 27.039062 72.660156 27.214844 C 72.480469 27.394531 72.265625 27.480469 72.015625 27.480469 C 71.765625 27.480469 71.550781 27.394531 71.375 27.214844 C 71.195312 27.039062 71.109375 26.824219 71.109375 26.574219 C 71.109375 26.324219 71.199219 26.109375 71.375 25.933594 C 71.550781 25.753906 71.765625 25.667969 72.015625 25.664062 Z M 72.015625 25.664062 " fill-opacity="1" fill-rule="nonzero"/><g clip-path="url(#9e8f162e13)"><path fill="#0661aa" d="M 77.753906 24.710938 C 78.007812 24.710938 78.25 24.660156 78.480469 24.566406 C 78.714844 24.46875 78.921875 24.332031 79.097656 24.152344 C 79.277344 23.976562 79.414062 23.769531 79.511719 23.539062 C 79.605469 23.304688 79.65625 23.0625 79.65625 22.8125 C 79.65625 22.558594 79.605469 22.316406 79.511719 22.085938 C 79.414062 21.851562 79.277344 21.644531 79.097656 21.46875 C 78.921875 21.289062 78.714844 21.152344 78.484375 21.054688 C 78.25 20.960938 78.007812 20.910156 77.757812 20.910156 C 77.503906 20.910156 77.261719 20.960938 77.03125 21.054688 C 76.796875 21.152344 76.589844 21.289062 76.414062 21.46875 C 76.234375 21.644531 76.097656 21.851562 76 22.082031 C 75.90625 22.316406 75.855469 22.558594 75.855469 22.808594 C 75.859375 23.0625 75.90625 23.304688 76.003906 23.535156 C 76.097656 23.769531 76.234375 23.972656 76.414062 24.152344 C 76.59375 24.328125 76.796875 24.46875 77.03125 24.5625 C 77.261719 24.660156 77.503906 24.707031 77.753906 24.710938 Z M 77.753906 21.902344 C 78.007812 21.902344 78.21875 21.992188 78.398438 22.167969 C 78.574219 22.347656 78.664062 22.558594 78.664062 22.8125 C 78.664062 23.0625 78.574219 23.277344 78.398438 23.453125 C 78.222656 23.628906 78.007812 23.71875 77.753906 23.71875 C 77.503906 23.71875 77.289062 23.628906 77.113281 23.453125 C 76.9375 23.273438 76.847656 23.0625 76.847656 22.808594 C 76.847656 22.558594 76.9375 22.347656 77.113281 22.167969 C 77.292969 21.992188 77.503906 21.902344 77.753906 21.902344 Z M 77.753906 21.902344 " fill-opacity="1" fill-rule="nonzero"/></g><path fill="#0661aa" d="M 76.230469 46.871094 C 76.316406 46.980469 76.425781 47.046875 76.5625 47.066406 C 76.703125 47.082031 76.824219 47.050781 76.933594 46.964844 C 77.042969 46.878906 77.105469 46.765625 77.121094 46.628906 C 77.136719 46.488281 77.101562 46.367188 77.011719 46.257812 L 73.578125 41.886719 C 73.492188 41.785156 73.382812 41.726562 73.25 41.710938 C 73.113281 41.695312 72.996094 41.730469 72.890625 41.8125 C 72.785156 41.898438 72.722656 42.003906 72.703125 42.136719 C 72.6875 42.273438 72.71875 42.390625 72.796875 42.5 Z M 76.230469 46.871094 " fill-opacity="1" fill-rule="nonzero"/><g clip-path="url(#28a3699baf)"><path fill="#0661aa" d="M 89.265625 24.273438 L 86.6875 24.273438 C 86.503906 24.273438 86.34375 24.339844 86.210938 24.46875 C 86.078125 24.601562 86.011719 24.761719 86.011719 24.949219 L 86.011719 58.582031 C 86.015625 58.957031 85.980469 59.328125 85.914062 59.699219 C 85.84375 60.066406 85.746094 60.425781 85.609375 60.777344 C 85.476562 61.125 85.308594 61.460938 85.113281 61.777344 C 84.914062 62.097656 84.691406 62.394531 84.4375 62.671875 C 84.183594 62.949219 83.910156 63.199219 83.609375 63.425781 C 83.308594 63.652344 82.992188 63.847656 82.65625 64.011719 C 82.320312 64.179688 81.972656 64.3125 81.613281 64.414062 C 81.25 64.515625 80.882812 64.582031 80.511719 64.617188 C 80.136719 64.648438 79.765625 64.648438 79.390625 64.609375 C 79.019531 64.574219 78.652344 64.503906 78.292969 64.398438 C 77.933594 64.292969 77.585938 64.15625 77.25 63.988281 C 76.917969 63.820312 76.601562 63.621094 76.304688 63.390625 C 76.003906 63.164062 75.730469 62.910156 75.480469 62.628906 C 75.230469 62.351562 75.011719 62.050781 74.816406 61.730469 C 74.621094 61.410156 74.460938 61.074219 74.328125 60.722656 C 74.195312 60.371094 74.097656 60.011719 74.035156 59.644531 C 74.65625 59.535156 75.261719 59.363281 75.851562 59.132812 C 76.023438 59.066406 76.148438 58.945312 76.226562 58.777344 C 76.300781 58.605469 76.304688 58.429688 76.234375 58.257812 C 76.167969 58.082031 76.046875 57.957031 75.875 57.882812 C 75.707031 57.808594 75.53125 57.804688 75.359375 57.875 C 72.070312 59.160156 68.703125 57.886719 68.671875 57.875 C 68.496094 57.804688 68.324219 57.808594 68.152344 57.882812 C 67.980469 57.960938 67.863281 58.085938 67.792969 58.257812 C 67.726562 58.433594 67.730469 58.605469 67.804688 58.777344 C 67.878906 58.945312 68.003906 59.066406 68.179688 59.132812 C 68.769531 59.347656 69.371094 59.507812 69.992188 59.609375 C 70.054688 60.226562 70.171875 60.828125 70.34375 61.421875 C 70.519531 62.015625 70.746094 62.585938 71.027344 63.136719 C 71.308594 63.6875 71.636719 64.210938 72.011719 64.699219 C 72.390625 65.1875 72.808594 65.640625 73.269531 66.050781 C 73.730469 66.464844 74.222656 66.832031 74.753906 67.152344 C 75.28125 67.472656 75.835938 67.742188 76.414062 67.957031 C 76.992188 68.175781 77.585938 68.339844 78.191406 68.449219 C 78.800781 68.554688 79.414062 68.605469 80.03125 68.601562 C 80.652344 68.59375 81.261719 68.53125 81.871094 68.414062 C 82.476562 68.292969 83.066406 68.121094 83.640625 67.890625 C 84.214844 67.660156 84.761719 67.382812 85.285156 67.050781 C 85.808594 66.722656 86.292969 66.34375 86.746094 65.925781 C 87.199219 65.503906 87.609375 65.042969 87.976562 64.546875 C 88.34375 64.050781 88.664062 63.523438 88.933594 62.96875 C 89.203125 62.414062 89.417969 61.835938 89.582031 61.242188 C 89.746094 60.644531 89.851562 60.039062 89.902344 59.421875 C 89.925781 59.351562 89.9375 59.28125 89.9375 59.207031 L 89.9375 24.949219 C 89.9375 24.761719 89.871094 24.601562 89.742188 24.46875 C 89.609375 24.339844 89.449219 24.273438 89.265625 24.273438 Z M 88.589844 25.625 L 88.589844 32.332031 L 87.363281 32.332031 L 87.363281 25.625 Z M 71.371094 59.78125 C 71.621094 59.796875 71.878906 59.808594 72.144531 59.808594 C 72.324219 59.808594 72.503906 59.800781 72.691406 59.792969 C 72.976562 61.503906 73.769531 62.933594 75.0625 64.085938 L 74.261719 65.117188 C 73.472656 64.433594 72.828125 63.628906 72.332031 62.710938 C 71.832031 61.792969 71.511719 60.816406 71.371094 59.78125 Z M 79.9375 67.234375 C 78.148438 67.238281 76.515625 66.734375 75.039062 65.722656 L 75.839844 64.695312 C 76.394531 65.070312 76.988281 65.367188 77.625 65.582031 C 78.261719 65.796875 78.914062 65.921875 79.582031 65.960938 C 80.253906 65.996094 80.914062 65.941406 81.570312 65.796875 C 82.226562 65.65625 82.851562 65.425781 83.441406 65.109375 C 84.035156 64.796875 84.574219 64.410156 85.0625 63.945312 C 85.546875 63.484375 85.964844 62.96875 86.308594 62.390625 C 86.65625 61.816406 86.917969 61.207031 87.09375 60.558594 C 87.273438 59.914062 87.363281 59.253906 87.359375 58.582031 L 87.359375 33.324219 L 88.585938 33.324219 L 88.585938 58.582031 C 88.585938 59.152344 88.527344 59.710938 88.417969 60.269531 C 88.304688 60.824219 88.140625 61.367188 87.925781 61.890625 C 87.707031 62.414062 87.441406 62.914062 87.125 63.386719 C 86.808594 63.855469 86.453125 64.292969 86.050781 64.695312 C 85.648438 65.097656 85.210938 65.457031 84.742188 65.769531 C 84.269531 66.085938 83.769531 66.351562 83.246094 66.570312 C 82.722656 66.789062 82.179688 66.953125 81.625 67.066406 C 81.070312 67.175781 80.507812 67.230469 79.9375 67.234375 Z M 79.9375 67.234375 " fill-opacity="1" fill-rule="nonzero"/></g></svg>