<svg xmlns="http://www.w3.org/2000/svg" xmlns:xlink="http://www.w3.org/1999/xlink" width="180" zoomAndPan="magnify" viewBox="0 0 135.12 149.999995" height="215" preserveAspectRatio="xMidYMid meet" version="1.2"><defs><clipPath id="8fcb74c2d3"><path d="M 40.238281 32 L 87 32 L 87 57 L 40.238281 57 Z M 40.238281 32 "/></clipPath><clipPath id="5717e067fa"><path d="M 77 14.679688 L 82 14.679688 L 82 20 L 77 20 Z M 77 14.679688 "/></clipPath><clipPath id="866064d004"><path d="M 67 18 L 93.886719 18 L 93.886719 72 L 67 72 Z M 67 18 "/></clipPath></defs><g id="94dd9da6ff"><g clip-rule="nonzero" clip-path="url(#8fcb74c2d3)"><path style=" stroke:none;fill-rule:nonzero;fill:#0661aa;fill-opacity:1;" d="M 86.117188 44.335938 C 86.113281 43.570312 86.039062 42.808594 85.890625 42.054688 C 85.742188 41.304688 85.519531 40.570312 85.226562 39.863281 C 84.933594 39.152344 84.574219 38.476562 84.152344 37.839844 C 83.726562 37.199219 83.242188 36.605469 82.703125 36.0625 C 82.160156 35.515625 81.574219 35.027344 80.9375 34.597656 C 80.300781 34.167969 79.628906 33.804688 78.921875 33.507812 C 78.214844 33.207031 77.488281 32.980469 76.734375 32.824219 C 75.984375 32.667969 75.222656 32.585938 74.457031 32.578125 L 52.667969 32.578125 C 51.960938 32.578125 51.261719 32.644531 50.566406 32.769531 C 49.871094 32.894531 49.191406 33.082031 48.53125 33.332031 C 47.867188 33.582031 47.234375 33.886719 46.628906 34.25 C 46.019531 34.613281 45.453125 35.027344 44.921875 35.492188 C 44.390625 35.957031 43.902344 36.46875 43.464844 37.019531 C 43.023438 37.574219 42.636719 38.160156 42.304688 38.785156 C 41.96875 39.40625 41.695312 40.054688 41.476562 40.726562 C 41.257812 41.398438 41.105469 42.085938 41.011719 42.789062 C 40.917969 43.488281 40.886719 44.191406 40.921875 44.898438 C 40.953125 45.601562 41.050781 46.300781 41.210938 46.988281 C 41.371094 47.675781 41.589844 48.347656 41.867188 48.996094 C 42.148438 49.644531 42.484375 50.261719 42.875 50.851562 C 43.265625 51.441406 43.707031 51.988281 44.199219 52.496094 C 44.6875 53.007812 45.21875 53.46875 45.792969 53.878906 C 46.367188 54.292969 46.972656 54.652344 47.609375 54.957031 C 48.25 55.261719 48.910156 55.503906 49.589844 55.6875 C 50.273438 55.875 50.964844 55.996094 51.671875 56.054688 C 52.375 56.117188 53.078125 56.113281 53.78125 56.046875 C 54.484375 55.980469 55.175781 55.847656 55.859375 55.65625 C 56.539062 55.464844 57.195312 55.214844 57.832031 54.90625 C 58.464844 54.59375 59.066406 54.230469 59.636719 53.8125 C 60.207031 53.390625 60.734375 52.925781 61.21875 52.410156 C 61.703125 51.898438 62.140625 51.34375 62.523438 50.753906 C 62.910156 50.160156 63.238281 49.539062 63.511719 48.886719 C 63.773438 49.507812 64.085938 50.101562 64.449219 50.671875 C 64.8125 51.238281 65.21875 51.769531 65.675781 52.269531 C 66.128906 52.765625 66.621094 53.222656 67.15625 53.632812 C 67.6875 54.046875 68.253906 54.410156 68.847656 54.726562 C 69.445312 55.042969 70.0625 55.304688 70.703125 55.515625 C 71.34375 55.726562 71.996094 55.878906 72.664062 55.976562 C 73.332031 56.070312 74 56.113281 74.675781 56.09375 C 75.347656 56.074219 76.015625 56 76.675781 55.867188 C 77.335938 55.734375 77.980469 55.542969 78.609375 55.300781 C 79.238281 55.058594 79.839844 54.761719 80.417969 54.414062 C 80.996094 54.066406 81.539062 53.671875 82.050781 53.230469 C 82.558594 52.789062 83.027344 52.308594 83.457031 51.789062 C 83.882812 51.265625 84.261719 50.710938 84.59375 50.125 C 84.925781 49.539062 85.203125 48.925781 85.429688 48.292969 C 85.65625 47.65625 85.828125 47.007812 85.945312 46.34375 C 86.058594 45.679688 86.117188 45.011719 86.117188 44.335938 Z M 64.425781 44.335938 C 64.425781 44.085938 64.339844 43.867188 64.160156 43.691406 C 63.980469 43.511719 63.765625 43.421875 63.511719 43.421875 C 63.257812 43.421875 63.042969 43.511719 62.867188 43.691406 C 62.6875 43.867188 62.597656 44.085938 62.597656 44.335938 C 62.597656 44.988281 62.535156 45.636719 62.40625 46.273438 C 62.277344 46.914062 62.089844 47.535156 61.839844 48.136719 C 61.59375 48.738281 61.285156 49.3125 60.925781 49.855469 C 60.5625 50.394531 60.148438 50.898438 59.6875 51.359375 C 59.226562 51.820312 58.726562 52.230469 58.183594 52.59375 C 57.640625 52.957031 57.070312 53.261719 56.46875 53.511719 C 55.867188 53.761719 55.246094 53.949219 54.605469 54.074219 C 53.964844 54.203125 53.320312 54.265625 52.667969 54.265625 C 52.015625 54.265625 51.371094 54.203125 50.730469 54.074219 C 50.089844 53.949219 49.472656 53.761719 48.867188 53.511719 C 48.265625 53.261719 47.695312 52.957031 47.152344 52.59375 C 46.609375 52.230469 46.109375 51.820312 45.648438 51.359375 C 45.1875 50.898438 44.773438 50.394531 44.414062 49.855469 C 44.050781 49.3125 43.746094 48.738281 43.496094 48.136719 C 43.246094 47.535156 43.058594 46.914062 42.929688 46.273438 C 42.800781 45.636719 42.738281 44.988281 42.738281 44.335938 C 42.738281 43.683594 42.800781 43.039062 42.929688 42.398438 C 43.058594 41.761719 43.246094 41.140625 43.496094 40.539062 C 43.746094 39.933594 44.050781 39.363281 44.414062 38.820312 C 44.773438 38.277344 45.1875 37.777344 45.648438 37.316406 C 46.109375 36.855469 46.609375 36.445312 47.152344 36.082031 C 47.695312 35.71875 48.265625 35.414062 48.867188 35.164062 C 49.472656 34.914062 50.089844 34.726562 50.730469 34.597656 C 51.371094 34.472656 52.015625 34.40625 52.667969 34.40625 L 74.359375 34.40625 C 75.007812 34.40625 75.65625 34.472656 76.292969 34.597656 C 76.933594 34.726562 77.554688 34.914062 78.15625 35.164062 C 78.757812 35.414062 79.332031 35.71875 79.875 36.082031 C 80.417969 36.445312 80.917969 36.855469 81.378906 37.316406 C 81.839844 37.777344 82.25 38.277344 82.613281 38.820312 C 82.976562 39.363281 83.28125 39.933594 83.53125 40.539062 C 83.78125 41.140625 83.96875 41.761719 84.097656 42.398438 C 84.222656 43.039062 84.285156 43.683594 84.285156 44.335938 C 84.285156 44.988281 84.222656 45.636719 84.097656 46.273438 C 83.96875 46.914062 83.78125 47.535156 83.53125 48.136719 C 83.28125 48.738281 82.976562 49.3125 82.613281 49.855469 C 82.25 50.394531 81.839844 50.898438 81.378906 51.359375 C 80.917969 51.820312 80.417969 52.230469 79.875 52.59375 C 79.332031 52.957031 78.757812 53.261719 78.15625 53.511719 C 77.554688 53.761719 76.933594 53.949219 76.292969 54.074219 C 75.65625 54.203125 75.007812 54.265625 74.359375 54.265625 C 73.707031 54.265625 73.058594 54.203125 72.421875 54.074219 C 71.78125 53.949219 71.160156 53.761719 70.558594 53.511719 C 69.957031 53.261719 69.382812 52.957031 68.839844 52.59375 C 68.300781 52.230469 67.796875 51.820312 67.335938 51.359375 C 66.875 50.898438 66.464844 50.394531 66.101562 49.855469 C 65.738281 49.3125 65.433594 48.738281 65.183594 48.136719 C 64.933594 47.535156 64.746094 46.914062 64.621094 46.273438 C 64.492188 45.636719 64.429688 44.988281 64.429688 44.335938 Z M 64.425781 44.335938 "/></g><path style=" stroke:none;fill-rule:nonzero;fill:#0661aa;fill-opacity:1;" d="M 82.527344 44.335938 C 82.527344 43.800781 82.472656 43.269531 82.367188 42.742188 C 82.261719 42.21875 82.109375 41.707031 81.902344 41.210938 C 81.695312 40.71875 81.445312 40.246094 81.148438 39.800781 C 80.847656 39.355469 80.511719 38.941406 80.132812 38.5625 C 79.753906 38.183594 79.339844 37.84375 78.894531 37.546875 C 78.449219 37.25 77.976562 36.996094 77.484375 36.789062 C 76.988281 36.585938 76.476562 36.429688 75.949219 36.324219 C 75.425781 36.21875 74.894531 36.167969 74.359375 36.164062 L 52.667969 36.164062 C 52.132812 36.164062 51.601562 36.21875 51.074219 36.320312 C 50.546875 36.425781 50.039062 36.582031 49.542969 36.785156 C 49.046875 36.992188 48.574219 37.242188 48.128906 37.542969 C 47.683594 37.839844 47.269531 38.179688 46.890625 38.558594 C 46.511719 38.9375 46.171875 39.347656 45.875 39.796875 C 45.578125 40.242188 45.324219 40.710938 45.121094 41.207031 C 44.914062 41.703125 44.757812 42.214844 44.652344 42.738281 C 44.550781 43.265625 44.496094 43.796875 44.496094 44.332031 C 44.496094 44.871094 44.546875 45.402344 44.652344 45.925781 C 44.757812 46.453125 44.910156 46.964844 45.117188 47.460938 C 45.320312 47.957031 45.574219 48.425781 45.871094 48.875 C 46.167969 49.320312 46.507812 49.730469 46.886719 50.113281 C 47.265625 50.492188 47.675781 50.832031 48.125 51.128906 C 48.570312 51.425781 49.039062 51.679688 49.535156 51.882812 C 50.03125 52.089844 50.542969 52.246094 51.066406 52.351562 C 51.59375 52.457031 52.125 52.507812 52.660156 52.507812 C 53.199219 52.507812 53.730469 52.457031 54.253906 52.355469 C 54.78125 52.25 55.292969 52.09375 55.789062 51.890625 C 56.285156 51.683594 56.753906 51.433594 57.199219 51.136719 C 57.648438 50.839844 58.058594 50.5 58.441406 50.121094 C 58.820312 49.742188 59.160156 49.332031 59.457031 48.886719 C 59.757812 48.441406 60.007812 47.96875 60.214844 47.472656 C 60.421875 46.976562 60.574219 46.46875 60.679688 45.941406 C 60.785156 45.414062 60.839844 44.882812 60.839844 44.347656 C 60.84375 44.140625 60.980469 40.921875 63.605469 40.921875 C 64.371094 40.921875 64.953125 41.144531 65.378906 41.597656 C 66.289062 42.566406 66.1875 44.285156 66.1875 44.300781 C 66.1875 44.316406 66.1875 44.328125 66.1875 44.339844 C 66.179688 44.882812 66.226562 45.417969 66.328125 45.949219 C 66.429688 46.480469 66.578125 46.996094 66.78125 47.496094 C 66.984375 47.996094 67.234375 48.472656 67.53125 48.925781 C 67.828125 49.378906 68.167969 49.796875 68.546875 50.179688 C 68.925781 50.5625 69.339844 50.90625 69.789062 51.210938 C 70.238281 51.511719 70.710938 51.765625 71.210938 51.976562 C 71.707031 52.183594 72.222656 52.339844 72.753906 52.445312 C 73.28125 52.554688 73.816406 52.605469 74.359375 52.605469 C 74.898438 52.605469 75.433594 52.554688 75.964844 52.445312 C 76.492188 52.339844 77.007812 52.183594 77.507812 51.976562 C 78.007812 51.765625 78.480469 51.511719 78.925781 51.210938 C 79.375 50.90625 79.789062 50.5625 80.167969 50.179688 C 80.550781 49.796875 80.886719 49.378906 81.183594 48.925781 C 81.480469 48.472656 81.730469 47.996094 81.933594 47.496094 C 82.136719 46.996094 82.289062 46.480469 82.390625 45.949219 C 82.488281 45.417969 82.535156 44.882812 82.53125 44.339844 Z M 67.367188 44.355469 C 67.382812 44.101562 67.453125 42.082031 66.246094 40.789062 C 65.59375 40.089844 64.707031 39.734375 63.605469 39.734375 C 60.566406 39.734375 59.691406 42.734375 59.65625 44.324219 L 59.65625 44.335938 C 59.65625 44.796875 59.609375 45.25 59.519531 45.699219 C 59.433594 46.152344 59.300781 46.585938 59.125 47.011719 C 58.949219 47.433594 58.734375 47.835938 58.476562 48.21875 C 58.222656 48.601562 57.933594 48.953125 57.609375 49.277344 C 57.285156 49.601562 56.933594 49.890625 56.550781 50.148438 C 56.167969 50.402344 55.765625 50.617188 55.34375 50.792969 C 54.917969 50.96875 54.480469 51.101562 54.03125 51.191406 C 53.582031 51.28125 53.125 51.324219 52.667969 51.324219 C 52.210938 51.324219 51.753906 51.28125 51.304688 51.191406 C 50.855469 51.101562 50.417969 50.96875 49.992188 50.792969 C 49.570312 50.617188 49.167969 50.402344 48.785156 50.148438 C 48.40625 49.890625 48.050781 49.601562 47.726562 49.277344 C 47.402344 48.953125 47.113281 48.601562 46.859375 48.21875 C 46.601562 47.835938 46.386719 47.433594 46.210938 47.011719 C 46.035156 46.585938 45.902344 46.152344 45.816406 45.699219 C 45.726562 45.25 45.679688 44.796875 45.679688 44.335938 C 45.679688 43.878906 45.726562 43.425781 45.816406 42.972656 C 45.902344 42.523438 46.035156 42.085938 46.210938 41.664062 C 46.386719 41.238281 46.601562 40.835938 46.859375 40.457031 C 47.113281 40.074219 47.402344 39.722656 47.726562 39.394531 C 48.050781 39.070312 48.40625 38.78125 48.785156 38.527344 C 49.167969 38.273438 49.570312 38.058594 49.992188 37.882812 C 50.417969 37.707031 50.855469 37.574219 51.304688 37.484375 C 51.753906 37.394531 52.210938 37.351562 52.667969 37.351562 L 74.359375 37.351562 C 74.816406 37.351562 75.269531 37.394531 75.71875 37.484375 C 76.171875 37.574219 76.605469 37.707031 77.03125 37.882812 C 77.453125 38.054688 77.855469 38.273438 78.238281 38.527344 C 78.621094 38.78125 78.972656 39.070312 79.296875 39.394531 C 79.621094 39.71875 79.910156 40.070312 80.164062 40.453125 C 80.421875 40.832031 80.636719 41.234375 80.8125 41.660156 C 80.988281 42.082031 81.121094 42.519531 81.210938 42.96875 C 81.300781 43.417969 81.34375 43.875 81.34375 44.332031 C 81.34375 44.789062 81.300781 45.246094 81.210938 45.695312 C 81.125 46.144531 80.992188 46.582031 80.816406 47.003906 C 80.640625 47.429688 80.425781 47.832031 80.171875 48.214844 C 79.917969 48.59375 79.628906 48.949219 79.304688 49.273438 C 78.980469 49.597656 78.628906 49.886719 78.246094 50.140625 C 77.867188 50.398438 77.464844 50.613281 77.039062 50.789062 C 76.617188 50.964844 76.179688 51.097656 75.730469 51.1875 C 75.28125 51.277344 74.828125 51.324219 74.367188 51.324219 C 73.910156 51.324219 73.457031 51.28125 73.003906 51.191406 C 72.554688 51.105469 72.117188 50.972656 71.695312 50.796875 C 71.269531 50.621094 70.867188 50.410156 70.484375 50.15625 C 70.105469 49.898438 69.75 49.613281 69.425781 49.289062 C 69.101562 48.964844 68.8125 48.613281 68.554688 48.230469 C 68.300781 47.851562 68.085938 47.449219 67.90625 47.023438 C 67.730469 46.601562 67.597656 46.164062 67.507812 45.714844 C 67.417969 45.265625 67.371094 44.8125 67.371094 44.351562 Z M 67.367188 44.355469 "/><path style=" stroke:none;fill-rule:nonzero;fill:#0661aa;fill-opacity:1;" d="M 74.792969 47.1875 C 75.039062 47.1875 75.21875 47.074219 75.324219 46.851562 C 75.433594 46.632812 75.410156 46.421875 75.257812 46.230469 L 72.925781 43.246094 C 72.824219 43.121094 72.691406 43.046875 72.53125 43.03125 C 72.371094 43.011719 72.226562 43.050781 72.101562 43.152344 C 71.972656 43.25 71.898438 43.382812 71.878906 43.542969 C 71.855469 43.703125 71.894531 43.847656 71.992188 43.976562 L 74.328125 46.957031 C 74.445312 47.109375 74.601562 47.1875 74.792969 47.1875 Z M 74.792969 47.1875 "/><path style=" stroke:none;fill-rule:nonzero;fill:#0661aa;fill-opacity:1;" d="M 73.855469 27.027344 C 73.855469 27.414062 73.929688 27.785156 74.078125 28.144531 C 74.226562 28.5 74.4375 28.816406 74.710938 29.089844 C 74.984375 29.363281 75.300781 29.574219 75.660156 29.722656 C 76.015625 29.867188 76.386719 29.941406 76.773438 29.941406 C 77.160156 29.941406 77.535156 29.867188 77.890625 29.71875 C 78.25 29.570312 78.5625 29.359375 78.835938 29.085938 C 79.109375 28.8125 79.320312 28.496094 79.46875 28.140625 C 79.617188 27.78125 79.691406 27.410156 79.691406 27.023438 C 79.691406 26.636719 79.617188 26.261719 79.46875 25.90625 C 79.320312 25.550781 79.109375 25.234375 78.835938 24.960938 C 78.5625 24.6875 78.246094 24.476562 77.886719 24.328125 C 77.53125 24.179688 77.160156 24.105469 76.773438 24.105469 C 76.382812 24.105469 76.011719 24.183594 75.65625 24.332031 C 75.296875 24.480469 74.980469 24.691406 74.707031 24.964844 C 74.433594 25.238281 74.226562 25.554688 74.078125 25.910156 C 73.929688 26.269531 73.855469 26.640625 73.855469 27.027344 Z M 76.773438 25.289062 C 77 25.289062 77.222656 25.335938 77.433594 25.421875 C 77.648438 25.511719 77.835938 25.636719 77.996094 25.796875 C 78.160156 25.960938 78.285156 26.148438 78.375 26.359375 C 78.460938 26.574219 78.507812 26.792969 78.507812 27.023438 C 78.507812 27.253906 78.460938 27.476562 78.375 27.6875 C 78.285156 27.898438 78.160156 28.085938 78 28.25 C 77.835938 28.414062 77.648438 28.539062 77.4375 28.625 C 77.222656 28.714844 77.003906 28.757812 76.773438 28.757812 C 76.542969 28.757812 76.320312 28.714844 76.109375 28.625 C 75.894531 28.539062 75.707031 28.414062 75.546875 28.25 C 75.382812 28.085938 75.257812 27.898438 75.171875 27.6875 C 75.082031 27.472656 75.039062 27.253906 75.039062 27.023438 C 75.039062 26.792969 75.082031 26.574219 75.171875 26.359375 C 75.257812 26.148438 75.386719 25.960938 75.546875 25.800781 C 75.710938 25.636719 75.898438 25.511719 76.109375 25.421875 C 76.320312 25.335938 76.542969 25.292969 76.773438 25.289062 Z M 76.773438 25.289062 "/><path style=" stroke:none;fill-rule:nonzero;fill:#0661aa;fill-opacity:1;" d="M 72.464844 23.921875 C 72.765625 23.921875 73.054688 23.867188 73.332031 23.75 C 73.613281 23.636719 73.855469 23.472656 74.070312 23.257812 C 74.28125 23.046875 74.445312 22.800781 74.5625 22.523438 C 74.679688 22.246094 74.734375 21.957031 74.734375 21.65625 C 74.734375 21.355469 74.679688 21.0625 74.5625 20.785156 C 74.449219 20.507812 74.285156 20.261719 74.070312 20.050781 C 73.859375 19.835938 73.613281 19.671875 73.335938 19.558594 C 73.058594 19.441406 72.765625 19.382812 72.464844 19.382812 C 72.164062 19.382812 71.875 19.441406 71.597656 19.558594 C 71.320312 19.671875 71.074219 19.835938 70.859375 20.050781 C 70.648438 20.261719 70.484375 20.507812 70.371094 20.785156 C 70.253906 21.0625 70.195312 21.351562 70.195312 21.652344 C 70.195312 21.953125 70.253906 22.242188 70.371094 22.523438 C 70.484375 22.800781 70.648438 23.042969 70.863281 23.257812 C 71.074219 23.46875 71.320312 23.632812 71.597656 23.75 C 71.875 23.863281 72.164062 23.921875 72.464844 23.921875 Z M 72.464844 20.570312 C 72.609375 20.570312 72.746094 20.597656 72.878906 20.652344 C 73.011719 20.707031 73.132812 20.785156 73.234375 20.886719 C 73.335938 20.988281 73.414062 21.105469 73.46875 21.238281 C 73.523438 21.371094 73.550781 21.511719 73.550781 21.65625 C 73.550781 21.796875 73.523438 21.9375 73.46875 22.070312 C 73.414062 22.203125 73.335938 22.320312 73.234375 22.421875 C 73.132812 22.523438 73.015625 22.601562 72.882812 22.65625 C 72.75 22.710938 72.609375 22.742188 72.464844 22.742188 C 72.320312 22.742188 72.183594 22.710938 72.050781 22.65625 C 71.917969 22.601562 71.800781 22.523438 71.699219 22.421875 C 71.597656 22.320312 71.519531 22.203125 71.464844 22.070312 C 71.40625 21.9375 71.378906 21.796875 71.378906 21.652344 C 71.382812 21.511719 71.410156 21.371094 71.464844 21.238281 C 71.519531 21.105469 71.597656 20.988281 71.699219 20.886719 C 71.800781 20.785156 71.917969 20.707031 72.050781 20.652344 C 72.183594 20.597656 72.320312 20.570312 72.464844 20.570312 Z M 72.464844 20.570312 "/><g clip-rule="nonzero" clip-path="url(#5717e067fa)"><path style=" stroke:none;fill-rule:nonzero;fill:#0661aa;fill-opacity:1;" d="M 79.324219 19.425781 C 79.625 19.425781 79.917969 19.367188 80.195312 19.253906 C 80.472656 19.140625 80.71875 18.976562 80.929688 18.761719 C 81.144531 18.550781 81.308594 18.304688 81.421875 18.027344 C 81.539062 17.746094 81.597656 17.457031 81.597656 17.15625 C 81.597656 16.855469 81.539062 16.566406 81.421875 16.289062 C 81.308594 16.011719 81.144531 15.765625 80.933594 15.550781 C 80.71875 15.339844 80.472656 15.175781 80.195312 15.058594 C 79.917969 14.945312 79.628906 14.886719 79.328125 14.886719 C 79.027344 14.886719 78.738281 14.945312 78.457031 15.058594 C 78.179688 15.175781 77.933594 15.339844 77.722656 15.550781 C 77.507812 15.765625 77.34375 16.011719 77.230469 16.289062 C 77.113281 16.566406 77.058594 16.855469 77.058594 17.15625 C 77.058594 17.457031 77.113281 17.746094 77.230469 18.023438 C 77.34375 18.300781 77.507812 18.546875 77.722656 18.761719 C 77.933594 18.972656 78.179688 19.136719 78.457031 19.253906 C 78.734375 19.367188 79.023438 19.425781 79.324219 19.425781 Z M 79.324219 16.074219 C 79.46875 16.074219 79.609375 16.101562 79.742188 16.15625 C 79.875 16.210938 79.992188 16.289062 80.09375 16.390625 C 80.195312 16.492188 80.273438 16.609375 80.328125 16.742188 C 80.382812 16.875 80.410156 17.011719 80.410156 17.15625 C 80.410156 17.300781 80.382812 17.441406 80.328125 17.574219 C 80.273438 17.707031 80.195312 17.824219 80.09375 17.925781 C 79.992188 18.027344 79.875 18.105469 79.742188 18.160156 C 79.609375 18.214844 79.46875 18.242188 79.328125 18.242188 C 79.183594 18.242188 79.042969 18.214844 78.910156 18.160156 C 78.777344 18.105469 78.660156 18.027344 78.558594 17.925781 C 78.457031 17.824219 78.378906 17.707031 78.324219 17.570312 C 78.269531 17.4375 78.242188 17.300781 78.242188 17.15625 C 78.242188 17.011719 78.269531 16.875 78.324219 16.742188 C 78.378906 16.609375 78.457031 16.492188 78.558594 16.390625 C 78.660156 16.289062 78.777344 16.210938 78.910156 16.15625 C 79.042969 16.101562 79.183594 16.074219 79.324219 16.074219 Z M 79.324219 16.074219 "/></g><path style=" stroke:none;fill-rule:nonzero;fill:#0661aa;fill-opacity:1;" d="M 77.503906 45.914062 C 77.605469 46.050781 77.738281 46.125 77.902344 46.148438 C 78.066406 46.171875 78.214844 46.128906 78.34375 46.027344 C 78.476562 45.925781 78.550781 45.789062 78.566406 45.625 C 78.585938 45.460938 78.542969 45.3125 78.4375 45.183594 L 74.332031 39.960938 C 74.230469 39.835938 74.097656 39.765625 73.9375 39.75 C 73.777344 39.730469 73.636719 39.773438 73.507812 39.871094 C 73.382812 39.972656 73.308594 40.101562 73.289062 40.257812 C 73.265625 40.417969 73.304688 40.5625 73.402344 40.691406 Z M 77.503906 45.914062 "/><g clip-rule="nonzero" clip-path="url(#866064d004)"><path style=" stroke:none;fill-rule:nonzero;fill:#0661aa;fill-opacity:1;" d="M 93.082031 18.902344 L 90.003906 18.902344 C 89.78125 18.902344 89.589844 18.984375 89.433594 19.140625 C 89.273438 19.296875 89.195312 19.488281 89.195312 19.710938 L 89.195312 59.914062 C 89.199219 60.363281 89.160156 60.808594 89.078125 61.25 C 88.996094 61.6875 88.875 62.117188 88.714844 62.535156 C 88.550781 62.953125 88.355469 63.355469 88.117188 63.734375 C 87.882812 64.117188 87.613281 64.472656 87.3125 64.804688 C 87.011719 65.132812 86.679688 65.433594 86.324219 65.703125 C 85.964844 65.972656 85.585938 66.207031 85.183594 66.40625 C 84.78125 66.605469 84.367188 66.765625 83.933594 66.886719 C 83.503906 67.007812 83.066406 67.085938 82.617188 67.128906 C 82.171875 67.167969 81.726562 67.164062 81.28125 67.121094 C 80.835938 67.078125 80.398438 66.992188 79.964844 66.867188 C 79.535156 66.742188 79.121094 66.578125 78.722656 66.375 C 78.324219 66.171875 77.945312 65.9375 77.589844 65.664062 C 77.234375 65.390625 76.90625 65.085938 76.609375 64.753906 C 76.308594 64.417969 76.042969 64.0625 75.8125 63.679688 C 75.582031 63.292969 75.386719 62.894531 75.226562 62.472656 C 75.070312 62.054688 74.953125 61.625 74.875 61.183594 C 75.621094 61.050781 76.34375 60.847656 77.050781 60.574219 C 77.257812 60.492188 77.40625 60.351562 77.496094 60.144531 C 77.585938 59.941406 77.589844 59.734375 77.507812 59.527344 C 77.429688 59.316406 77.285156 59.167969 77.078125 59.078125 C 76.875 58.988281 76.667969 58.984375 76.460938 59.066406 C 72.53125 60.605469 68.507812 59.082031 68.464844 59.066406 C 68.257812 58.988281 68.050781 58.992188 67.847656 59.082031 C 67.644531 59.171875 67.5 59.320312 67.417969 59.527344 C 67.339844 59.734375 67.34375 59.941406 67.433594 60.144531 C 67.523438 60.351562 67.671875 60.492188 67.878906 60.574219 C 68.585938 60.828125 69.304688 61.019531 70.042969 61.144531 C 70.117188 61.878906 70.261719 62.601562 70.46875 63.308594 C 70.675781 64.019531 70.949219 64.703125 71.285156 65.359375 C 71.617188 66.019531 72.011719 66.640625 72.460938 67.226562 C 72.914062 67.8125 73.414062 68.351562 73.964844 68.84375 C 74.515625 69.335938 75.105469 69.773438 75.738281 70.15625 C 76.367188 70.539062 77.03125 70.863281 77.71875 71.121094 C 78.410156 71.382812 79.121094 71.578125 79.847656 71.707031 C 80.574219 71.835938 81.308594 71.894531 82.046875 71.890625 C 82.785156 71.882812 83.519531 71.808594 84.242188 71.664062 C 84.96875 71.523438 85.671875 71.3125 86.359375 71.039062 C 87.046875 70.765625 87.699219 70.433594 88.324219 70.039062 C 88.949219 69.644531 89.53125 69.195312 90.074219 68.691406 C 90.613281 68.1875 91.105469 67.640625 91.542969 67.046875 C 91.984375 66.453125 92.363281 65.824219 92.6875 65.15625 C 93.007812 64.492188 93.265625 63.804688 93.460938 63.09375 C 93.65625 62.378906 93.785156 61.65625 93.84375 60.917969 C 93.875 60.835938 93.886719 60.75 93.886719 60.660156 L 93.886719 19.710938 C 93.886719 19.488281 93.808594 19.296875 93.652344 19.140625 C 93.496094 18.984375 93.304688 18.90625 93.082031 18.902344 Z M 92.273438 20.519531 L 92.273438 28.539062 L 90.8125 28.539062 L 90.8125 20.519531 Z M 71.695312 61.347656 C 71.992188 61.367188 72.300781 61.378906 72.617188 61.378906 C 72.835938 61.378906 73.050781 61.375 73.269531 61.363281 C 73.4375 62.355469 73.765625 63.289062 74.25 64.167969 C 74.738281 65.050781 75.355469 65.824219 76.105469 66.492188 L 75.148438 67.726562 C 74.203125 66.90625 73.4375 65.949219 72.839844 64.851562 C 72.246094 63.753906 71.863281 62.585938 71.695312 61.347656 Z M 81.933594 70.253906 C 79.796875 70.257812 77.84375 69.65625 76.082031 68.449219 L 77.035156 67.21875 C 77.699219 67.671875 78.410156 68.023438 79.171875 68.28125 C 79.929688 68.539062 80.710938 68.6875 81.511719 68.734375 C 82.3125 68.777344 83.101562 68.710938 83.886719 68.539062 C 84.667969 68.367188 85.414062 68.09375 86.125 67.71875 C 86.832031 67.34375 87.476562 66.878906 88.058594 66.328125 C 88.640625 65.777344 89.136719 65.15625 89.550781 64.46875 C 89.960938 63.78125 90.277344 63.050781 90.488281 62.277344 C 90.703125 61.503906 90.808594 60.71875 90.808594 59.914062 L 90.808594 29.726562 L 92.269531 29.726562 L 92.269531 59.914062 C 92.269531 60.59375 92.203125 61.265625 92.070312 61.929688 C 91.9375 62.597656 91.742188 63.242188 91.480469 63.871094 C 91.21875 64.496094 90.902344 65.089844 90.523438 65.65625 C 90.148438 66.21875 89.71875 66.742188 89.238281 67.222656 C 88.761719 67.703125 88.238281 68.128906 87.675781 68.507812 C 87.109375 68.882812 86.515625 69.203125 85.890625 69.464844 C 85.261719 69.722656 84.617188 69.921875 83.949219 70.054688 C 83.285156 70.1875 82.613281 70.253906 81.933594 70.253906 Z M 81.933594 70.253906 "/></g><g style="fill:#2d6d5e;fill-opacity:1;"><g transform="translate(35.710784, 130.960593)"><path style="stroke:none" d="M 3.875 0 L 0.8125 0 L 0.8125 -7.796875 L 3.875 -7.796875 L 3.875 -7.046875 L 1.65625 -7.046875 L 1.65625 -4.453125 L 3.734375 -4.453125 L 3.734375 -3.6875 L 1.65625 -3.6875 L 1.65625 -0.765625 L 3.875 -0.765625 Z M 3.875 0 "/></g></g><g style="fill:#2d6d5e;fill-opacity:1;"><g transform="translate(41.60283, 130.960593)"><path style="stroke:none" d="M 1.546875 -3.015625 L 0.25 -5.859375 L 1.125 -5.859375 L 2.015625 -3.6875 L 2.9375 -5.859375 L 3.796875 -5.859375 L 2.5 -2.96875 L 3.859375 0 L 2.984375 0 L 2 -2.3125 L 1.015625 0 L 0.15625 0 Z M 1.546875 -3.015625 "/></g></g><g style="fill:#2d6d5e;fill-opacity:1;"><g transform="translate(47.137596, 130.960593)"><path style="stroke:none" d="M 2.828125 -5.96875 C 3.390625 -5.96875 3.816406 -5.710938 4.109375 -5.203125 C 4.398438 -4.703125 4.546875 -3.945312 4.546875 -2.9375 C 4.546875 -2.289062 4.476562 -1.738281 4.34375 -1.28125 C 4.21875 -0.832031 4.03125 -0.488281 3.78125 -0.25 C 3.53125 -0.0078125 3.226562 0.109375 2.875 0.109375 C 2.675781 0.109375 2.488281 0.0703125 2.3125 0 C 2.144531 -0.0820312 1.992188 -0.191406 1.859375 -0.328125 C 1.734375 -0.472656 1.625 -0.640625 1.53125 -0.828125 L 1.5 -0.828125 C 1.507812 -0.679688 1.515625 -0.539062 1.515625 -0.40625 C 1.523438 -0.28125 1.53125 -0.160156 1.53125 -0.046875 L 1.53125 2.609375 L 0.71875 2.609375 L 0.71875 -5.859375 L 1.375 -5.859375 L 1.484375 -5 L 1.53125 -5 C 1.632812 -5.21875 1.75 -5.394531 1.875 -5.53125 C 2 -5.675781 2.140625 -5.785156 2.296875 -5.859375 C 2.460938 -5.929688 2.640625 -5.96875 2.828125 -5.96875 Z M 2.65625 -5.25 C 2.40625 -5.25 2.195312 -5.171875 2.03125 -5.015625 C 1.863281 -4.859375 1.738281 -4.625 1.65625 -4.3125 C 1.570312 -4 1.53125 -3.601562 1.53125 -3.125 L 1.53125 -2.84375 C 1.53125 -2.332031 1.570312 -1.910156 1.65625 -1.578125 C 1.738281 -1.253906 1.863281 -1.007812 2.03125 -0.84375 C 2.207031 -0.6875 2.421875 -0.609375 2.671875 -0.609375 C 2.890625 -0.609375 3.078125 -0.691406 3.234375 -0.859375 C 3.390625 -1.023438 3.503906 -1.273438 3.578125 -1.609375 C 3.660156 -1.953125 3.703125 -2.390625 3.703125 -2.921875 C 3.703125 -3.691406 3.617188 -4.269531 3.453125 -4.65625 C 3.296875 -5.050781 3.03125 -5.25 2.65625 -5.25 Z M 2.65625 -5.25 "/></g></g><g style="fill:#2d6d5e;fill-opacity:1;"><g transform="translate(53.664215, 130.960593)"><path style="stroke:none" d="M 2.28125 -5.96875 C 2.820312 -5.96875 3.207031 -5.789062 3.4375 -5.4375 C 3.664062 -5.09375 3.78125 -4.597656 3.78125 -3.953125 L 3.78125 0 L 3.15625 0 L 3.046875 -0.828125 L 3.015625 -0.828125 C 2.921875 -0.628906 2.8125 -0.457031 2.6875 -0.3125 C 2.5625 -0.175781 2.414062 -0.0703125 2.25 0 C 2.082031 0.0703125 1.894531 0.109375 1.6875 0.109375 C 1.382812 0.109375 1.132812 0.03125 0.9375 -0.125 C 0.75 -0.289062 0.609375 -0.503906 0.515625 -0.765625 C 0.421875 -1.023438 0.375 -1.304688 0.375 -1.609375 C 0.375 -2.191406 0.539062 -2.640625 0.875 -2.953125 C 1.207031 -3.273438 1.679688 -3.453125 2.296875 -3.484375 L 2.96875 -3.53125 L 2.96875 -3.921875 C 2.96875 -4.390625 2.90625 -4.734375 2.78125 -4.953125 C 2.65625 -5.171875 2.445312 -5.28125 2.15625 -5.28125 C 2 -5.28125 1.828125 -5.25 1.640625 -5.1875 C 1.460938 -5.132812 1.269531 -5.046875 1.0625 -4.921875 L 0.796875 -5.546875 C 1.015625 -5.679688 1.25 -5.785156 1.5 -5.859375 C 1.75 -5.929688 2.007812 -5.96875 2.28125 -5.96875 Z M 2.984375 -2.921875 L 2.4375 -2.890625 C 2.019531 -2.859375 1.710938 -2.738281 1.515625 -2.53125 C 1.316406 -2.320312 1.21875 -2.019531 1.21875 -1.625 C 1.21875 -1.257812 1.28125 -0.988281 1.40625 -0.8125 C 1.539062 -0.644531 1.722656 -0.5625 1.953125 -0.5625 C 2.273438 -0.5625 2.523438 -0.71875 2.703125 -1.03125 C 2.890625 -1.34375 2.984375 -1.773438 2.984375 -2.328125 Z M 2.984375 -2.921875 "/></g></g><g style="fill:#2d6d5e;fill-opacity:1;"><g transform="translate(59.67891, 130.960593)"><path style="stroke:none" d="M 2.828125 -5.96875 C 3.285156 -5.96875 3.632812 -5.800781 3.875 -5.46875 C 4.113281 -5.144531 4.234375 -4.648438 4.234375 -3.984375 L 4.234375 0 L 3.40625 0 L 3.40625 -3.828125 C 3.40625 -4.296875 3.34375 -4.644531 3.21875 -4.875 C 3.101562 -5.113281 2.910156 -5.234375 2.640625 -5.234375 C 2.253906 -5.234375 1.972656 -5.0625 1.796875 -4.71875 C 1.617188 -4.382812 1.53125 -3.835938 1.53125 -3.078125 L 1.53125 0 L 0.71875 0 L 0.71875 -5.859375 L 1.375 -5.859375 L 1.46875 -5 L 1.515625 -5 C 1.597656 -5.195312 1.703125 -5.367188 1.828125 -5.515625 C 1.953125 -5.660156 2.097656 -5.769531 2.265625 -5.84375 C 2.429688 -5.925781 2.617188 -5.96875 2.828125 -5.96875 Z M 2.828125 -5.96875 "/></g></g><g style="fill:#2d6d5e;fill-opacity:1;"><g transform="translate(66.130875, 130.960593)"><path style="stroke:none" d="M 2.171875 0.109375 C 1.609375 0.109375 1.179688 -0.144531 0.890625 -0.65625 C 0.609375 -1.175781 0.46875 -1.925781 0.46875 -2.90625 C 0.46875 -3.882812 0.613281 -4.640625 0.90625 -5.171875 C 1.195312 -5.703125 1.609375 -5.96875 2.140625 -5.96875 C 2.328125 -5.96875 2.503906 -5.929688 2.671875 -5.859375 C 2.835938 -5.785156 2.988281 -5.679688 3.125 -5.546875 C 3.257812 -5.410156 3.375 -5.25 3.46875 -5.0625 L 3.5 -5.0625 C 3.5 -5.226562 3.492188 -5.375 3.484375 -5.5 C 3.484375 -5.632812 3.484375 -5.753906 3.484375 -5.859375 L 3.484375 -8.296875 L 4.296875 -8.296875 L 4.296875 0 L 3.640625 0 L 3.53125 -0.796875 L 3.484375 -0.796875 C 3.378906 -0.609375 3.265625 -0.445312 3.140625 -0.3125 C 3.015625 -0.175781 2.867188 -0.0703125 2.703125 0 C 2.546875 0.0703125 2.367188 0.109375 2.171875 0.109375 Z M 2.359375 -0.59375 C 2.722656 -0.59375 3 -0.765625 3.1875 -1.109375 C 3.382812 -1.453125 3.484375 -1.960938 3.484375 -2.640625 L 3.484375 -3.046875 C 3.484375 -3.785156 3.390625 -4.332031 3.203125 -4.6875 C 3.015625 -5.050781 2.726562 -5.234375 2.34375 -5.234375 C 1.988281 -5.234375 1.722656 -5.035156 1.546875 -4.640625 C 1.378906 -4.242188 1.296875 -3.664062 1.296875 -2.90625 C 1.296875 -2.144531 1.378906 -1.566406 1.546875 -1.171875 C 1.722656 -0.785156 1.992188 -0.59375 2.359375 -0.59375 Z M 2.359375 -0.59375 "/></g></g><g style="fill:#2d6d5e;fill-opacity:1;"><g transform="translate(72.657494, 130.960593)"><path style="stroke:none" d="M 2.28125 -5.96875 C 2.820312 -5.96875 3.207031 -5.789062 3.4375 -5.4375 C 3.664062 -5.09375 3.78125 -4.597656 3.78125 -3.953125 L 3.78125 0 L 3.15625 0 L 3.046875 -0.828125 L 3.015625 -0.828125 C 2.921875 -0.628906 2.8125 -0.457031 2.6875 -0.3125 C 2.5625 -0.175781 2.414062 -0.0703125 2.25 0 C 2.082031 0.0703125 1.894531 0.109375 1.6875 0.109375 C 1.382812 0.109375 1.132812 0.03125 0.9375 -0.125 C 0.75 -0.289062 0.609375 -0.503906 0.515625 -0.765625 C 0.421875 -1.023438 0.375 -1.304688 0.375 -1.609375 C 0.375 -2.191406 0.539062 -2.640625 0.875 -2.953125 C 1.207031 -3.273438 1.679688 -3.453125 2.296875 -3.484375 L 2.96875 -3.53125 L 2.96875 -3.921875 C 2.96875 -4.390625 2.90625 -4.734375 2.78125 -4.953125 C 2.65625 -5.171875 2.445312 -5.28125 2.15625 -5.28125 C 2 -5.28125 1.828125 -5.25 1.640625 -5.1875 C 1.460938 -5.132812 1.269531 -5.046875 1.0625 -4.921875 L 0.796875 -5.546875 C 1.015625 -5.679688 1.25 -5.785156 1.5 -5.859375 C 1.75 -5.929688 2.007812 -5.96875 2.28125 -5.96875 Z M 2.984375 -2.921875 L 2.4375 -2.890625 C 2.019531 -2.859375 1.710938 -2.738281 1.515625 -2.53125 C 1.316406 -2.320312 1.21875 -2.019531 1.21875 -1.625 C 1.21875 -1.257812 1.28125 -0.988281 1.40625 -0.8125 C 1.539062 -0.644531 1.722656 -0.5625 1.953125 -0.5625 C 2.273438 -0.5625 2.523438 -0.71875 2.703125 -1.03125 C 2.890625 -1.34375 2.984375 -1.773438 2.984375 -2.328125 Z M 2.984375 -2.921875 "/></g></g><g style="fill:#2d6d5e;fill-opacity:1;"><g transform="translate(78.672189, 130.960593)"><path style="stroke:none" d=""/></g></g><g style="fill:#2d6d5e;fill-opacity:1;"><g transform="translate(82.228579, 130.960593)"><path style="stroke:none" d="M 3.3125 -1.546875 C 3.3125 -1.191406 3.25 -0.890625 3.125 -0.640625 C 3 -0.398438 2.8125 -0.210938 2.5625 -0.078125 C 2.320312 0.046875 2.03125 0.109375 1.6875 0.109375 C 1.414062 0.109375 1.164062 0.078125 0.9375 0.015625 C 0.71875 -0.046875 0.53125 -0.125 0.375 -0.21875 L 0.375 -1.078125 C 0.53125 -0.941406 0.722656 -0.832031 0.953125 -0.75 C 1.179688 -0.664062 1.414062 -0.625 1.65625 -0.625 C 1.925781 -0.625 2.132812 -0.703125 2.28125 -0.859375 C 2.425781 -1.015625 2.5 -1.234375 2.5 -1.515625 C 2.5 -1.679688 2.46875 -1.828125 2.40625 -1.953125 C 2.351562 -2.078125 2.257812 -2.191406 2.125 -2.296875 C 1.988281 -2.410156 1.8125 -2.53125 1.59375 -2.65625 C 1.351562 -2.8125 1.140625 -2.96875 0.953125 -3.125 C 0.765625 -3.28125 0.617188 -3.460938 0.515625 -3.671875 C 0.421875 -3.878906 0.375 -4.132812 0.375 -4.4375 C 0.375 -4.894531 0.519531 -5.265625 0.8125 -5.546875 C 1.113281 -5.828125 1.503906 -5.96875 1.984375 -5.96875 C 2.234375 -5.96875 2.46875 -5.9375 2.6875 -5.875 C 2.90625 -5.8125 3.113281 -5.71875 3.3125 -5.59375 L 3 -4.921875 C 2.84375 -5.023438 2.679688 -5.109375 2.515625 -5.171875 C 2.347656 -5.234375 2.175781 -5.265625 2 -5.265625 C 1.738281 -5.265625 1.53125 -5.191406 1.375 -5.046875 C 1.226562 -4.898438 1.15625 -4.703125 1.15625 -4.453125 C 1.15625 -4.296875 1.1875 -4.15625 1.25 -4.03125 C 1.3125 -3.914062 1.410156 -3.800781 1.546875 -3.6875 C 1.679688 -3.582031 1.863281 -3.460938 2.09375 -3.328125 C 2.332031 -3.171875 2.539062 -3.015625 2.71875 -2.859375 C 2.90625 -2.703125 3.050781 -2.519531 3.15625 -2.3125 C 3.257812 -2.101562 3.3125 -1.847656 3.3125 -1.546875 Z M 3.3125 -1.546875 "/></g></g><g style="fill:#2d6d5e;fill-opacity:1;"><g transform="translate(87.427394, 130.960593)"><path style="stroke:none" d="M 2.328125 -5.953125 C 2.722656 -5.953125 3.050781 -5.835938 3.3125 -5.609375 C 3.570312 -5.378906 3.765625 -5.066406 3.890625 -4.671875 C 4.015625 -4.273438 4.078125 -3.835938 4.078125 -3.359375 L 4.078125 -2.78125 L 1.28125 -2.78125 C 1.289062 -2.050781 1.40625 -1.503906 1.625 -1.140625 C 1.84375 -0.773438 2.171875 -0.59375 2.609375 -0.59375 C 2.816406 -0.59375 3.019531 -0.625 3.21875 -0.6875 C 3.425781 -0.75 3.640625 -0.851562 3.859375 -1 L 3.859375 -0.265625 C 3.660156 -0.140625 3.445312 -0.046875 3.21875 0.015625 C 3 0.078125 2.765625 0.109375 2.515625 0.109375 C 2.035156 0.109375 1.644531 -0.0195312 1.34375 -0.28125 C 1.039062 -0.539062 0.816406 -0.894531 0.671875 -1.34375 C 0.535156 -1.800781 0.46875 -2.316406 0.46875 -2.890625 C 0.46875 -3.546875 0.535156 -4.101562 0.671875 -4.5625 C 0.816406 -5.019531 1.023438 -5.363281 1.296875 -5.59375 C 1.578125 -5.832031 1.921875 -5.953125 2.328125 -5.953125 Z M 2.328125 -5.28125 C 2.015625 -5.28125 1.769531 -5.128906 1.59375 -4.828125 C 1.425781 -4.523438 1.328125 -4.0625 1.296875 -3.4375 L 3.3125 -3.4375 C 3.3125 -3.769531 3.273438 -4.070312 3.203125 -4.34375 C 3.128906 -4.625 3.019531 -4.847656 2.875 -5.015625 C 2.738281 -5.191406 2.554688 -5.28125 2.328125 -5.28125 Z M 2.328125 -5.28125 "/></g></g><g style="fill:#2d6d5e;fill-opacity:1;"><g transform="translate(93.474084, 130.960593)"><path style="stroke:none" d="M 4.203125 -5.859375 L 4.203125 0 L 3.546875 0 L 3.46875 -0.828125 L 3.40625 -0.828125 C 3.320312 -0.640625 3.21875 -0.472656 3.09375 -0.328125 C 2.96875 -0.191406 2.820312 -0.0820312 2.65625 0 C 2.5 0.0703125 2.316406 0.109375 2.109375 0.109375 C 1.765625 0.109375 1.488281 0.0234375 1.28125 -0.140625 C 1.070312 -0.316406 0.921875 -0.5625 0.828125 -0.875 C 0.734375 -1.195312 0.6875 -1.578125 0.6875 -2.015625 L 0.6875 -5.859375 L 1.515625 -5.859375 L 1.515625 -2.171875 C 1.515625 -1.640625 1.570312 -1.25 1.6875 -1 C 1.8125 -0.75 2.003906 -0.625 2.265625 -0.625 C 2.535156 -0.625 2.75 -0.695312 2.90625 -0.84375 C 3.070312 -1 3.191406 -1.226562 3.265625 -1.53125 C 3.347656 -1.84375 3.390625 -2.238281 3.390625 -2.71875 L 3.390625 -5.859375 Z M 4.203125 -5.859375 "/></g></g><g style="fill:#2d6d5e;fill-opacity:1;"><g transform="translate(51.580087, 143.628093)"><path style="stroke:none" d="M 2.546875 -5.15625 L 1.625 -5.15625 L 1.625 0 L 0.8125 0 L 0.8125 -5.15625 L 0.09375 -5.15625 L 0.09375 -5.609375 L 0.8125 -5.875 L 0.8125 -6.28125 C 0.8125 -6.71875 0.847656 -7.09375 0.921875 -7.40625 C 1.003906 -7.71875 1.140625 -7.953125 1.328125 -8.109375 C 1.515625 -8.273438 1.773438 -8.359375 2.109375 -8.359375 C 2.273438 -8.359375 2.421875 -8.34375 2.546875 -8.3125 C 2.679688 -8.28125 2.820312 -8.238281 2.96875 -8.1875 L 2.75 -7.53125 C 2.65625 -7.5625 2.5625 -7.585938 2.46875 -7.609375 C 2.382812 -7.628906 2.300781 -7.640625 2.21875 -7.640625 C 1.988281 -7.640625 1.832031 -7.539062 1.75 -7.34375 C 1.675781 -7.15625 1.632812 -6.804688 1.625 -6.296875 L 1.625 -5.859375 L 2.546875 -5.859375 Z M 2.546875 -5.15625 "/></g></g><g style="fill:#2d6d5e;fill-opacity:1;"><g transform="translate(55.824376, 143.628093)"><path style="stroke:none" d="M 4.34375 -2.9375 C 4.34375 -2.46875 4.300781 -2.046875 4.21875 -1.671875 C 4.144531 -1.304688 4.023438 -0.988281 3.859375 -0.71875 C 3.703125 -0.445312 3.5 -0.238281 3.25 -0.09375 C 3.007812 0.0390625 2.722656 0.109375 2.390625 0.109375 C 2.078125 0.109375 1.796875 0.0390625 1.546875 -0.09375 C 1.304688 -0.238281 1.101562 -0.441406 0.9375 -0.703125 C 0.78125 -0.972656 0.660156 -1.296875 0.578125 -1.671875 C 0.503906 -2.046875 0.46875 -2.46875 0.46875 -2.9375 C 0.46875 -3.582031 0.535156 -4.128906 0.671875 -4.578125 C 0.804688 -5.023438 1.019531 -5.367188 1.3125 -5.609375 C 1.601562 -5.847656 1.96875 -5.96875 2.40625 -5.96875 C 2.820312 -5.96875 3.171875 -5.851562 3.453125 -5.625 C 3.742188 -5.394531 3.960938 -5.050781 4.109375 -4.59375 C 4.265625 -4.144531 4.34375 -3.59375 4.34375 -2.9375 Z M 1.296875 -2.9375 C 1.296875 -2.425781 1.332031 -2 1.40625 -1.65625 C 1.488281 -1.3125 1.613281 -1.050781 1.78125 -0.875 C 1.945312 -0.695312 2.160156 -0.609375 2.421875 -0.609375 C 2.671875 -0.609375 2.875 -0.691406 3.03125 -0.859375 C 3.195312 -1.035156 3.316406 -1.296875 3.390625 -1.640625 C 3.472656 -1.984375 3.515625 -2.414062 3.515625 -2.9375 C 3.515625 -3.445312 3.472656 -3.867188 3.390625 -4.203125 C 3.316406 -4.546875 3.195312 -4.804688 3.03125 -4.984375 C 2.875 -5.160156 2.664062 -5.25 2.40625 -5.25 C 2.019531 -5.25 1.738281 -5.050781 1.5625 -4.65625 C 1.382812 -4.269531 1.296875 -3.695312 1.296875 -2.9375 Z M 2.78125 -8.359375 C 2.863281 -8.191406 2.960938 -8.007812 3.078125 -7.8125 C 3.191406 -7.625 3.3125 -7.429688 3.4375 -7.234375 C 3.5625 -7.046875 3.679688 -6.875 3.796875 -6.71875 L 3.796875 -6.625 L 3.34375 -6.625 C 3.1875 -6.769531 3.03125 -6.929688 2.875 -7.109375 C 2.71875 -7.296875 2.554688 -7.488281 2.390625 -7.6875 C 2.234375 -7.488281 2.070312 -7.289062 1.90625 -7.09375 C 1.738281 -6.90625 1.585938 -6.75 1.453125 -6.625 L 1 -6.625 L 1 -6.71875 C 1.125 -6.894531 1.25 -7.078125 1.375 -7.265625 C 1.5 -7.460938 1.613281 -7.65625 1.71875 -7.84375 C 1.832031 -8.03125 1.925781 -8.203125 2 -8.359375 Z M 2.78125 -8.359375 "/></g></g><g style="fill:#2d6d5e;fill-opacity:1;"><g transform="translate(62.164356, 143.628093)"><path style="stroke:none" d="M 1.53125 0 L 0.71875 0 L 0.71875 -8.296875 L 1.53125 -8.296875 Z M 1.53125 0 "/></g></g><g style="fill:#2d6d5e;fill-opacity:1;"><g transform="translate(65.934048, 143.628093)"><path style="stroke:none" d="M 2.328125 -5.953125 C 2.722656 -5.953125 3.050781 -5.835938 3.3125 -5.609375 C 3.570312 -5.378906 3.765625 -5.066406 3.890625 -4.671875 C 4.015625 -4.273438 4.078125 -3.835938 4.078125 -3.359375 L 4.078125 -2.78125 L 1.28125 -2.78125 C 1.289062 -2.050781 1.40625 -1.503906 1.625 -1.140625 C 1.84375 -0.773438 2.171875 -0.59375 2.609375 -0.59375 C 2.816406 -0.59375 3.019531 -0.625 3.21875 -0.6875 C 3.425781 -0.75 3.640625 -0.851562 3.859375 -1 L 3.859375 -0.265625 C 3.660156 -0.140625 3.445312 -0.046875 3.21875 0.015625 C 3 0.078125 2.765625 0.109375 2.515625 0.109375 C 2.035156 0.109375 1.644531 -0.0195312 1.34375 -0.28125 C 1.039062 -0.539062 0.816406 -0.894531 0.671875 -1.34375 C 0.535156 -1.800781 0.46875 -2.316406 0.46875 -2.890625 C 0.46875 -3.546875 0.535156 -4.101562 0.671875 -4.5625 C 0.816406 -5.019531 1.023438 -5.363281 1.296875 -5.59375 C 1.578125 -5.832031 1.921875 -5.953125 2.328125 -5.953125 Z M 2.328125 -5.28125 C 2.015625 -5.28125 1.769531 -5.128906 1.59375 -4.828125 C 1.425781 -4.523438 1.328125 -4.0625 1.296875 -3.4375 L 3.3125 -3.4375 C 3.3125 -3.769531 3.273438 -4.070312 3.203125 -4.34375 C 3.128906 -4.625 3.019531 -4.847656 2.875 -5.015625 C 2.738281 -5.191406 2.554688 -5.28125 2.328125 -5.28125 Z M 2.328125 -5.28125 "/></g></g><g style="fill:#2d6d5e;fill-opacity:1;"><g transform="translate(71.980738, 143.628093)"><path style="stroke:none" d="M 1.875 2.625 C 1.3125 2.625 0.867188 2.476562 0.546875 2.1875 C 0.234375 1.90625 0.078125 1.507812 0.078125 1 C 0.078125 0.601562 0.171875 0.273438 0.359375 0.015625 C 0.554688 -0.242188 0.804688 -0.414062 1.109375 -0.5 C 0.953125 -0.570312 0.828125 -0.675781 0.734375 -0.8125 C 0.640625 -0.957031 0.59375 -1.128906 0.59375 -1.328125 C 0.59375 -1.523438 0.640625 -1.703125 0.734375 -1.859375 C 0.828125 -2.023438 0.960938 -2.179688 1.140625 -2.328125 C 0.910156 -2.460938 0.726562 -2.679688 0.59375 -2.984375 C 0.46875 -3.285156 0.40625 -3.628906 0.40625 -4.015625 C 0.40625 -4.410156 0.46875 -4.753906 0.59375 -5.046875 C 0.726562 -5.335938 0.914062 -5.5625 1.15625 -5.71875 C 1.40625 -5.882812 1.695312 -5.96875 2.03125 -5.96875 C 2.144531 -5.96875 2.238281 -5.960938 2.3125 -5.953125 C 2.394531 -5.941406 2.46875 -5.925781 2.53125 -5.90625 C 2.601562 -5.882812 2.660156 -5.863281 2.703125 -5.84375 L 4.15625 -5.84375 L 4.15625 -5.3125 L 3.375 -5.21875 C 3.476562 -5.050781 3.550781 -4.863281 3.59375 -4.65625 C 3.632812 -4.457031 3.65625 -4.253906 3.65625 -4.046875 C 3.65625 -3.441406 3.515625 -2.96875 3.234375 -2.625 C 2.953125 -2.28125 2.550781 -2.109375 2.03125 -2.109375 C 1.875 -2.109375 1.742188 -2.128906 1.640625 -2.171875 C 1.546875 -2.078125 1.460938 -1.972656 1.390625 -1.859375 C 1.316406 -1.742188 1.28125 -1.601562 1.28125 -1.4375 C 1.28125 -1.332031 1.300781 -1.238281 1.34375 -1.15625 C 1.394531 -1.082031 1.46875 -1.023438 1.5625 -0.984375 C 1.65625 -0.941406 1.769531 -0.921875 1.90625 -0.921875 L 2.75 -0.921875 C 3.1875 -0.921875 3.519531 -0.796875 3.75 -0.546875 C 3.988281 -0.296875 4.109375 0.0859375 4.109375 0.609375 C 4.109375 1.242188 3.914062 1.738281 3.53125 2.09375 C 3.144531 2.445312 2.59375 2.625 1.875 2.625 Z M 1.9375 1.96875 C 2.25 1.96875 2.507812 1.921875 2.71875 1.828125 C 2.925781 1.734375 3.082031 1.585938 3.1875 1.390625 C 3.289062 1.203125 3.34375 0.96875 3.34375 0.6875 C 3.34375 0.457031 3.304688 0.28125 3.234375 0.15625 C 3.160156 0.03125 3.054688 -0.0507812 2.921875 -0.09375 C 2.785156 -0.144531 2.625 -0.171875 2.4375 -0.171875 L 1.734375 -0.171875 C 1.566406 -0.171875 1.414062 -0.132812 1.28125 -0.0625 C 1.15625 0.0078125 1.050781 0.125 0.96875 0.28125 C 0.894531 0.445312 0.859375 0.660156 0.859375 0.921875 C 0.859375 1.265625 0.953125 1.523438 1.140625 1.703125 C 1.335938 1.878906 1.601562 1.96875 1.9375 1.96875 Z M 2.03125 -2.71875 C 2.289062 -2.71875 2.488281 -2.828125 2.625 -3.046875 C 2.769531 -3.273438 2.84375 -3.601562 2.84375 -4.03125 C 2.84375 -4.476562 2.769531 -4.8125 2.625 -5.03125 C 2.476562 -5.25 2.28125 -5.359375 2.03125 -5.359375 C 1.78125 -5.359375 1.582031 -5.238281 1.4375 -5 C 1.300781 -4.769531 1.234375 -4.441406 1.234375 -4.015625 C 1.234375 -3.597656 1.296875 -3.273438 1.421875 -3.046875 C 1.554688 -2.828125 1.757812 -2.71875 2.03125 -2.71875 Z M 2.03125 -2.71875 "/></g></g><g style="fill:#2d6d5e;fill-opacity:1;"><g transform="translate(77.723473, 143.628093)"><path style="stroke:none" d="M 4.34375 -2.9375 C 4.34375 -2.46875 4.300781 -2.046875 4.21875 -1.671875 C 4.144531 -1.304688 4.023438 -0.988281 3.859375 -0.71875 C 3.703125 -0.445312 3.5 -0.238281 3.25 -0.09375 C 3.007812 0.0390625 2.722656 0.109375 2.390625 0.109375 C 2.078125 0.109375 1.796875 0.0390625 1.546875 -0.09375 C 1.304688 -0.238281 1.101562 -0.441406 0.9375 -0.703125 C 0.78125 -0.972656 0.660156 -1.296875 0.578125 -1.671875 C 0.503906 -2.046875 0.46875 -2.46875 0.46875 -2.9375 C 0.46875 -3.582031 0.535156 -4.128906 0.671875 -4.578125 C 0.804688 -5.023438 1.019531 -5.367188 1.3125 -5.609375 C 1.601562 -5.847656 1.96875 -5.96875 2.40625 -5.96875 C 2.820312 -5.96875 3.171875 -5.851562 3.453125 -5.625 C 3.742188 -5.394531 3.960938 -5.050781 4.109375 -4.59375 C 4.265625 -4.144531 4.34375 -3.59375 4.34375 -2.9375 Z M 1.296875 -2.9375 C 1.296875 -2.425781 1.332031 -2 1.40625 -1.65625 C 1.488281 -1.3125 1.613281 -1.050781 1.78125 -0.875 C 1.945312 -0.695312 2.160156 -0.609375 2.421875 -0.609375 C 2.671875 -0.609375 2.875 -0.691406 3.03125 -0.859375 C 3.195312 -1.035156 3.316406 -1.296875 3.390625 -1.640625 C 3.472656 -1.984375 3.515625 -2.414062 3.515625 -2.9375 C 3.515625 -3.445312 3.472656 -3.867188 3.390625 -4.203125 C 3.316406 -4.546875 3.195312 -4.804688 3.03125 -4.984375 C 2.875 -5.160156 2.664062 -5.25 2.40625 -5.25 C 2.019531 -5.25 1.738281 -5.050781 1.5625 -4.65625 C 1.382812 -4.269531 1.296875 -3.695312 1.296875 -2.9375 Z M 1.296875 -2.9375 "/></g></g><g style="fill:#0661aa;fill-opacity:1;"><g transform="translate(16.121878, 89.540388)"><path style="stroke:none" d="M 4.03125 0 L 4.03125 -11.234375 L 0.296875 -11.234375 L 0.296875 -14.140625 L 11.15625 -14.140625 L 11.15625 -11.234375 L 7.421875 -11.234375 L 7.421875 0 Z M 4.03125 0 "/></g></g><g style="fill:#0661aa;fill-opacity:1;"><g transform="translate(29.132787, 89.540388)"><path style="stroke:none" d="M 6.234375 -10.453125 C 7.066406 -10.453125 7.734375 -10.140625 8.234375 -9.515625 C 8.742188 -8.890625 9.023438 -8.007812 9.078125 -6.875 L 6.515625 -6.171875 C 6.503906 -6.835938 6.382812 -7.335938 6.15625 -7.671875 C 5.925781 -8.015625 5.628906 -8.1875 5.265625 -8.1875 C 4.816406 -8.1875 4.453125 -7.957031 4.171875 -7.5 C 3.898438 -7.050781 3.765625 -6.429688 3.765625 -5.640625 L 3.765625 0 L 0.75 0 L 0.75 -10.171875 L 3.203125 -10.171875 L 3.609375 -8.421875 L 3.640625 -8.421875 C 3.859375 -9.054688 4.195312 -9.550781 4.65625 -9.90625 C 5.125 -10.269531 5.648438 -10.453125 6.234375 -10.453125 Z M 6.234375 -10.453125 "/></g></g><g style="fill:#0661aa;fill-opacity:1;"><g transform="translate(40.733549, 89.540388)"><path style="stroke:none" d="M 5.9375 0.34375 C 4.84375 0.34375 3.875 0.117188 3.03125 -0.328125 C 2.195312 -0.785156 1.550781 -1.425781 1.09375 -2.25 C 0.644531 -3.082031 0.421875 -4.046875 0.421875 -5.140625 C 0.421875 -6.222656 0.628906 -7.164062 1.046875 -7.96875 C 1.460938 -8.769531 2.046875 -9.394531 2.796875 -9.84375 C 3.554688 -10.300781 4.445312 -10.53125 5.46875 -10.53125 C 6.445312 -10.53125 7.289062 -10.3125 8 -9.875 C 8.71875 -9.445312 9.273438 -8.84375 9.671875 -8.0625 C 10.078125 -7.289062 10.28125 -6.382812 10.28125 -5.34375 C 10.28125 -5.132812 10.269531 -4.929688 10.25 -4.734375 C 10.238281 -4.546875 10.210938 -4.382812 10.171875 -4.25 L 3.453125 -4.25 C 3.523438 -3.507812 3.785156 -2.921875 4.234375 -2.484375 C 4.679688 -2.054688 5.253906 -1.84375 5.953125 -1.84375 C 6.492188 -1.84375 6.972656 -1.972656 7.390625 -2.234375 C 7.804688 -2.503906 8.125 -2.875 8.34375 -3.34375 L 10.46875 -2.40625 C 10.175781 -1.550781 9.613281 -0.878906 8.78125 -0.390625 C 7.945312 0.0976562 7 0.34375 5.9375 0.34375 Z M 3.453125 -5.984375 L 7.265625 -5.984375 C 7.222656 -6.722656 7.039062 -7.296875 6.71875 -7.703125 C 6.40625 -8.117188 5.976562 -8.328125 5.4375 -8.328125 C 4.875 -8.328125 4.421875 -8.113281 4.078125 -7.6875 C 3.734375 -7.269531 3.523438 -6.703125 3.453125 -5.984375 Z M 3.453125 -5.984375 "/></g></g><g style="fill:#0661aa;fill-opacity:1;"><g transform="translate(53.923343, 89.540388)"><path style="stroke:none" d="M 2.34375 -11.5625 C 1.800781 -11.5625 1.367188 -11.71875 1.046875 -12.03125 C 0.722656 -12.351562 0.5625 -12.769531 0.5625 -13.28125 C 0.5625 -13.8125 0.722656 -14.234375 1.046875 -14.546875 C 1.367188 -14.867188 1.800781 -15.03125 2.34375 -15.03125 C 2.882812 -15.03125 3.316406 -14.867188 3.640625 -14.546875 C 3.960938 -14.234375 4.125 -13.8125 4.125 -13.28125 C 4.125 -12.769531 3.960938 -12.351562 3.640625 -12.03125 C 3.316406 -11.71875 2.882812 -11.5625 2.34375 -11.5625 Z M 0.8125 0 L 0.8125 -10.171875 L 3.859375 -10.171875 L 3.859375 0 Z M 0.8125 0 "/></g></g><g style="fill:#0661aa;fill-opacity:1;"><g transform="translate(60.955679, 89.540388)"><path style="stroke:none" d="M 6.9375 -10.421875 C 7.875 -10.421875 8.613281 -10.140625 9.15625 -9.578125 C 9.695312 -9.015625 9.96875 -8.234375 9.96875 -7.234375 L 9.96875 0 L 6.9375 0 L 6.9375 -6.453125 C 6.9375 -6.929688 6.816406 -7.300781 6.578125 -7.5625 C 6.335938 -7.832031 6.003906 -7.96875 5.578125 -7.96875 C 5.035156 -7.96875 4.597656 -7.789062 4.265625 -7.4375 C 3.929688 -7.082031 3.765625 -6.597656 3.765625 -5.984375 L 3.765625 0 L 0.75 0 L 0.75 -10.171875 L 3.25 -10.171875 L 3.671875 -8.4375 L 3.6875 -8.4375 C 4 -9.070312 4.4375 -9.5625 5 -9.90625 C 5.570312 -10.25 6.21875 -10.421875 6.9375 -10.421875 Z M 6.9375 -10.421875 "/></g></g><g style="fill:#0661aa;fill-opacity:1;"><g transform="translate(73.966702, 89.540388)"><path style="stroke:none" d="M 5.578125 0.34375 C 4.535156 0.34375 3.625 0.117188 2.84375 -0.328125 C 2.070312 -0.773438 1.472656 -1.40625 1.046875 -2.21875 C 0.628906 -3.03125 0.421875 -3.984375 0.421875 -5.078125 C 0.421875 -6.191406 0.628906 -7.15625 1.046875 -7.96875 C 1.472656 -8.78125 2.070312 -9.410156 2.84375 -9.859375 C 3.625 -10.304688 4.535156 -10.53125 5.578125 -10.53125 C 6.628906 -10.53125 7.535156 -10.304688 8.296875 -9.859375 C 9.066406 -9.410156 9.660156 -8.78125 10.078125 -7.96875 C 10.503906 -7.15625 10.71875 -6.191406 10.71875 -5.078125 C 10.71875 -3.984375 10.503906 -3.03125 10.078125 -2.21875 C 9.660156 -1.40625 9.066406 -0.773438 8.296875 -0.328125 C 7.535156 0.117188 6.628906 0.34375 5.578125 0.34375 Z M 5.578125 -2.203125 C 6.242188 -2.203125 6.765625 -2.457031 7.140625 -2.96875 C 7.515625 -3.476562 7.703125 -4.179688 7.703125 -5.078125 C 7.703125 -5.984375 7.515625 -6.691406 7.140625 -7.203125 C 6.765625 -7.710938 6.242188 -7.96875 5.578125 -7.96875 C 4.921875 -7.96875 4.398438 -7.710938 4.015625 -7.203125 C 3.628906 -6.691406 3.4375 -5.984375 3.4375 -5.078125 C 3.4375 -4.179688 3.628906 -3.476562 4.015625 -2.96875 C 4.398438 -2.457031 4.921875 -2.203125 5.578125 -2.203125 Z M 5.578125 -2.203125 "/></g></g><g style="fill:#0661aa;fill-opacity:1;"><g transform="translate(87.4743, 89.540388)"><path style="stroke:none" d=""/></g></g><g style="fill:#0661aa;fill-opacity:1;"><g transform="translate(93.513497, 89.540388)"><path style="stroke:none" d="M 4.421875 0.28125 C 3.617188 0.28125 2.914062 0.0625 2.3125 -0.375 C 1.707031 -0.8125 1.238281 -1.429688 0.90625 -2.234375 C 0.582031 -3.046875 0.421875 -3.992188 0.421875 -5.078125 C 0.421875 -6.179688 0.582031 -7.132812 0.90625 -7.9375 C 1.238281 -8.738281 1.707031 -9.359375 2.3125 -9.796875 C 2.914062 -10.234375 3.613281 -10.453125 4.40625 -10.453125 C 5.09375 -10.453125 5.703125 -10.273438 6.234375 -9.921875 C 6.765625 -9.578125 7.175781 -9.082031 7.46875 -8.4375 L 7.484375 -8.4375 L 7.484375 -14.734375 L 10.53125 -14.734375 L 10.53125 0 L 7.9375 0 L 7.5625 -1.765625 L 7.546875 -1.765625 C 7.253906 -1.109375 6.835938 -0.601562 6.296875 -0.25 C 5.753906 0.101562 5.128906 0.28125 4.421875 0.28125 Z M 5.546875 -2.328125 C 6.160156 -2.328125 6.65625 -2.578125 7.03125 -3.078125 C 7.414062 -3.578125 7.609375 -4.242188 7.609375 -5.078125 C 7.609375 -5.910156 7.414062 -6.578125 7.03125 -7.078125 C 6.65625 -7.585938 6.160156 -7.84375 5.546875 -7.84375 C 4.921875 -7.84375 4.414062 -7.585938 4.03125 -7.078125 C 3.644531 -6.578125 3.453125 -5.910156 3.453125 -5.078125 C 3.453125 -4.242188 3.644531 -3.578125 4.03125 -3.078125 C 4.414062 -2.578125 4.921875 -2.328125 5.546875 -2.328125 Z M 5.546875 -2.328125 "/></g></g><g style="fill:#0661aa;fill-opacity:1;"><g transform="translate(107.140276, 89.540388)"><path style="stroke:none" d="M 5.9375 0.34375 C 4.84375 0.34375 3.875 0.117188 3.03125 -0.328125 C 2.195312 -0.785156 1.550781 -1.425781 1.09375 -2.25 C 0.644531 -3.082031 0.421875 -4.046875 0.421875 -5.140625 C 0.421875 -6.222656 0.628906 -7.164062 1.046875 -7.96875 C 1.460938 -8.769531 2.046875 -9.394531 2.796875 -9.84375 C 3.554688 -10.300781 4.445312 -10.53125 5.46875 -10.53125 C 6.445312 -10.53125 7.289062 -10.3125 8 -9.875 C 8.71875 -9.445312 9.273438 -8.84375 9.671875 -8.0625 C 10.078125 -7.289062 10.28125 -6.382812 10.28125 -5.34375 C 10.28125 -5.132812 10.269531 -4.929688 10.25 -4.734375 C 10.238281 -4.546875 10.210938 -4.382812 10.171875 -4.25 L 3.453125 -4.25 C 3.523438 -3.507812 3.785156 -2.921875 4.234375 -2.484375 C 4.679688 -2.054688 5.253906 -1.84375 5.953125 -1.84375 C 6.492188 -1.84375 6.972656 -1.972656 7.390625 -2.234375 C 7.804688 -2.503906 8.125 -2.875 8.34375 -3.34375 L 10.46875 -2.40625 C 10.175781 -1.550781 9.613281 -0.878906 8.78125 -0.390625 C 7.945312 0.0976562 7 0.34375 5.9375 0.34375 Z M 3.453125 -5.984375 L 7.265625 -5.984375 C 7.222656 -6.722656 7.039062 -7.296875 6.71875 -7.703125 C 6.40625 -8.117188 5.976562 -8.328125 5.4375 -8.328125 C 4.875 -8.328125 4.421875 -8.113281 4.078125 -7.6875 C 3.734375 -7.269531 3.523438 -6.703125 3.453125 -5.984375 Z M 3.453125 -5.984375 "/></g></g><g style="fill:#0661aa;fill-opacity:1;"><g transform="translate(29.895455, 113.385093)"><path style="stroke:none" d="M 0.09375 0 L 4.625 -14.140625 L 8.84375 -14.140625 L 13.359375 0 L 9.890625 0 L 9.09375 -2.78125 L 4.34375 -2.78125 L 3.53125 0 Z M 4.859375 -5.1875 L 8.5625 -5.1875 L 6.765625 -11.40625 L 6.734375 -11.40625 Z M 4.859375 -5.1875 "/></g></g><g style="fill:#0661aa;fill-opacity:1;"><g transform="translate(45.707135, 113.385093)"><path style="stroke:none" d="M 0.75 4.171875 L 0.75 -10.171875 L 3.34375 -10.171875 L 3.71875 -8.40625 L 3.734375 -8.40625 C 4.023438 -9.0625 4.441406 -9.566406 4.984375 -9.921875 C 5.535156 -10.273438 6.15625 -10.453125 6.84375 -10.453125 C 7.65625 -10.453125 8.359375 -10.234375 8.953125 -9.796875 C 9.546875 -9.359375 10.007812 -8.738281 10.34375 -7.9375 C 10.675781 -7.132812 10.84375 -6.179688 10.84375 -5.078125 C 10.84375 -3.992188 10.675781 -3.046875 10.34375 -2.234375 C 10.007812 -1.429688 9.546875 -0.8125 8.953125 -0.375 C 8.359375 0.0625 7.65625 0.28125 6.84375 0.28125 C 6.175781 0.28125 5.578125 0.109375 5.046875 -0.234375 C 4.515625 -0.578125 4.097656 -1.078125 3.796875 -1.734375 L 3.765625 -1.734375 L 3.765625 4.171875 Z M 5.734375 -2.328125 C 6.359375 -2.328125 6.859375 -2.578125 7.234375 -3.078125 C 7.617188 -3.578125 7.8125 -4.242188 7.8125 -5.078125 C 7.8125 -5.929688 7.617188 -6.601562 7.234375 -7.09375 C 6.859375 -7.59375 6.359375 -7.84375 5.734375 -7.84375 C 5.117188 -7.84375 4.617188 -7.585938 4.234375 -7.078125 C 3.847656 -6.578125 3.65625 -5.910156 3.65625 -5.078125 C 3.65625 -4.242188 3.847656 -3.578125 4.234375 -3.078125 C 4.617188 -2.578125 5.117188 -2.328125 5.734375 -2.328125 Z M 5.734375 -2.328125 "/></g></g><g style="fill:#0661aa;fill-opacity:1;"><g transform="translate(59.333913, 113.385093)"><path style="stroke:none" d="M 6.9375 -10.421875 C 7.875 -10.421875 8.613281 -10.140625 9.15625 -9.578125 C 9.695312 -9.015625 9.96875 -8.234375 9.96875 -7.234375 L 9.96875 0 L 6.9375 0 L 6.9375 -6.453125 C 6.9375 -6.929688 6.816406 -7.300781 6.578125 -7.5625 C 6.335938 -7.832031 6.003906 -7.96875 5.578125 -7.96875 C 5.035156 -7.96875 4.597656 -7.789062 4.265625 -7.4375 C 3.929688 -7.082031 3.765625 -6.597656 3.765625 -5.984375 L 3.765625 0 L 0.75 0 L 0.75 -10.171875 L 3.25 -10.171875 L 3.671875 -8.4375 L 3.6875 -8.4375 C 4 -9.070312 4.4375 -9.5625 5 -9.90625 C 5.570312 -10.25 6.21875 -10.421875 6.9375 -10.421875 Z M 6.9375 -10.421875 "/></g></g><g style="fill:#0661aa;fill-opacity:1;"><g transform="translate(72.344936, 113.385093)"><path style="stroke:none" d="M 5.9375 0.34375 C 4.84375 0.34375 3.875 0.117188 3.03125 -0.328125 C 2.195312 -0.785156 1.550781 -1.425781 1.09375 -2.25 C 0.644531 -3.082031 0.421875 -4.046875 0.421875 -5.140625 C 0.421875 -6.222656 0.628906 -7.164062 1.046875 -7.96875 C 1.460938 -8.769531 2.046875 -9.394531 2.796875 -9.84375 C 3.554688 -10.300781 4.445312 -10.53125 5.46875 -10.53125 C 6.445312 -10.53125 7.289062 -10.3125 8 -9.875 C 8.71875 -9.445312 9.273438 -8.84375 9.671875 -8.0625 C 10.078125 -7.289062 10.28125 -6.382812 10.28125 -5.34375 C 10.28125 -5.132812 10.269531 -4.929688 10.25 -4.734375 C 10.238281 -4.546875 10.210938 -4.382812 10.171875 -4.25 L 3.453125 -4.25 C 3.523438 -3.507812 3.785156 -2.921875 4.234375 -2.484375 C 4.679688 -2.054688 5.253906 -1.84375 5.953125 -1.84375 C 6.492188 -1.84375 6.972656 -1.972656 7.390625 -2.234375 C 7.804688 -2.503906 8.125 -2.875 8.34375 -3.34375 L 10.46875 -2.40625 C 10.175781 -1.550781 9.613281 -0.878906 8.78125 -0.390625 C 7.945312 0.0976562 7 0.34375 5.9375 0.34375 Z M 3.453125 -5.984375 L 7.265625 -5.984375 C 7.222656 -6.722656 7.039062 -7.296875 6.71875 -7.703125 C 6.40625 -8.117188 5.976562 -8.328125 5.4375 -8.328125 C 4.875 -8.328125 4.421875 -8.113281 4.078125 -7.6875 C 3.734375 -7.269531 3.523438 -6.703125 3.453125 -5.984375 Z M 3.453125 -5.984375 "/></g></g><g style="fill:#0661aa;fill-opacity:1;"><g transform="translate(85.53473, 113.385093)"><path style="stroke:none" d="M 2.34375 -11.5625 C 1.800781 -11.5625 1.367188 -11.71875 1.046875 -12.03125 C 0.722656 -12.351562 0.5625 -12.769531 0.5625 -13.28125 C 0.5625 -13.8125 0.722656 -14.234375 1.046875 -14.546875 C 1.367188 -14.867188 1.800781 -15.03125 2.34375 -15.03125 C 2.882812 -15.03125 3.316406 -14.867188 3.640625 -14.546875 C 3.960938 -14.234375 4.125 -13.8125 4.125 -13.28125 C 4.125 -12.769531 3.960938 -12.351562 3.640625 -12.03125 C 3.316406 -11.71875 2.882812 -11.5625 2.34375 -11.5625 Z M 0.8125 0 L 0.8125 -10.171875 L 3.859375 -10.171875 L 3.859375 0 Z M 0.8125 0 "/></g></g><g style="fill:#0661aa;fill-opacity:1;"><g transform="translate(92.567066, 113.385093)"><path style="stroke:none" d="M 3.515625 0.234375 C 2.546875 0.234375 1.765625 -0.0195312 1.171875 -0.53125 C 0.578125 -1.050781 0.28125 -1.75 0.28125 -2.625 C 0.28125 -3.550781 0.632812 -4.300781 1.34375 -4.875 C 2.050781 -5.445312 3.085938 -5.804688 4.453125 -5.953125 L 6.015625 -6.140625 C 6.242188 -6.160156 6.425781 -6.238281 6.5625 -6.375 C 6.695312 -6.507812 6.765625 -6.703125 6.765625 -6.953125 C 6.765625 -7.398438 6.625 -7.742188 6.34375 -7.984375 C 6.070312 -8.222656 5.710938 -8.34375 5.265625 -8.34375 C 4.742188 -8.34375 4.320312 -8.160156 4 -7.796875 C 3.6875 -7.441406 3.519531 -6.992188 3.5 -6.453125 L 0.609375 -6.875 C 0.640625 -7.582031 0.847656 -8.210938 1.234375 -8.765625 C 1.628906 -9.316406 2.164062 -9.75 2.84375 -10.0625 C 3.53125 -10.375 4.332031 -10.53125 5.25 -10.53125 C 6.632812 -10.53125 7.726562 -10.164062 8.53125 -9.4375 C 9.34375 -8.707031 9.75 -7.71875 9.75 -6.46875 L 9.75 -2.546875 C 9.75 -2.085938 9.914062 -1.859375 10.25 -1.859375 C 10.507812 -1.859375 10.757812 -1.992188 11 -2.265625 L 11.65625 -0.640625 C 11.34375 -0.328125 10.957031 -0.0976562 10.5 0.046875 C 10.050781 0.191406 9.609375 0.265625 9.171875 0.265625 C 8.566406 0.265625 8.054688 0.109375 7.640625 -0.203125 C 7.222656 -0.515625 6.957031 -0.910156 6.84375 -1.390625 L 6.8125 -1.640625 L 6.796875 -1.640625 C 6.484375 -1.066406 6.039062 -0.609375 5.46875 -0.265625 C 4.90625 0.0664062 4.253906 0.234375 3.515625 0.234375 Z M 4.765625 -1.890625 C 5.335938 -1.890625 5.804688 -2.085938 6.171875 -2.484375 C 6.546875 -2.890625 6.734375 -3.421875 6.734375 -4.078125 L 6.734375 -4.546875 L 5.25 -4.390625 C 4.550781 -4.304688 4.050781 -4.140625 3.75 -3.890625 C 3.457031 -3.640625 3.3125 -3.34375 3.3125 -3 C 3.3125 -2.664062 3.445312 -2.394531 3.71875 -2.1875 C 3.988281 -1.988281 4.335938 -1.890625 4.765625 -1.890625 Z M 4.765625 -1.890625 "/></g></g></g></svg>