<svg xmlns="http://www.w3.org/2000/svg" xmlns:xlink="http://www.w3.org/1999/xlink" width="180" zoomAndPan="magnify" viewBox="0 0 135 161.249994" height="215" preserveAspectRatio="xMidYMid meet" version="1.2"><defs><clipPath id="6c3685d53f"><path d="M 43 38 L 83 38 L 83 70 L 43 70 Z M 43 38 "/></clipPath><clipPath id="a9053c70db"><path d="M 37.839844 34.246094 L 90.988281 26.230469 L 97.113281 66.832031 L 43.960938 74.847656 Z M 37.839844 34.246094 "/></clipPath><clipPath id="0498bfcef0"><path d="M 37.839844 34.246094 L 90.988281 26.230469 L 97.113281 66.832031 L 43.960938 74.847656 Z M 37.839844 34.246094 "/></clipPath><clipPath id="07a939d40b"><path d="M 47 62 L 52 62 L 52 70 L 47 70 Z M 47 62 "/></clipPath><clipPath id="44673eb233"><path d="M 37.839844 34.246094 L 90.988281 26.230469 L 97.113281 66.832031 L 43.960938 74.847656 Z M 37.839844 34.246094 "/></clipPath><clipPath id="c3f28e01bd"><path d="M 37.839844 34.246094 L 90.988281 26.230469 L 97.113281 66.832031 L 43.960938 74.847656 Z M 37.839844 34.246094 "/></clipPath><clipPath id="84d3c7f792"><path d="M 48 68 L 57 68 L 57 73 L 48 73 Z M 48 68 "/></clipPath><clipPath id="688d35c600"><path d="M 37.839844 34.246094 L 90.988281 26.230469 L 97.113281 66.832031 L 43.960938 74.847656 Z M 37.839844 34.246094 "/></clipPath><clipPath id="f4aafa5894"><path d="M 37.839844 34.246094 L 90.988281 26.230469 L 97.113281 66.832031 L 43.960938 74.847656 Z M 37.839844 34.246094 "/></clipPath><clipPath id="228cce9e02"><path d="M 53 27 L 93 27 L 93 71 L 53 71 Z M 53 27 "/></clipPath><clipPath id="3da61414aa"><path d="M 37.839844 34.246094 L 90.988281 26.230469 L 97.113281 66.832031 L 43.960938 74.847656 Z M 37.839844 34.246094 "/></clipPath><clipPath id="acaacc5a79"><path d="M 37.839844 34.246094 L 90.988281 26.230469 L 97.113281 66.832031 L 43.960938 74.847656 Z M 37.839844 34.246094 "/></clipPath></defs><g id="c047cd816e"><g style="fill:#0661aa;fill-opacity:1;"><g transform="translate(41.682087, 92.865162)"><path style="stroke:none" d="M 0.890625 0 L 0.890625 -12.765625 L 6.75 -12.765625 C 8.09375 -12.765625 9.128906 -12.46875 9.859375 -11.875 C 10.597656 -11.28125 10.96875 -10.4375 10.96875 -9.34375 C 10.96875 -8.625 10.78125 -8.019531 10.40625 -7.53125 C 10.03125 -7.039062 9.5 -6.710938 8.8125 -6.546875 L 8.8125 -6.53125 C 9.59375 -6.375 10.191406 -6.035156 10.609375 -5.515625 C 11.023438 -4.992188 11.234375 -4.328125 11.234375 -3.515625 C 11.234375 -2.398438 10.859375 -1.535156 10.109375 -0.921875 C 9.359375 -0.304688 8.289062 0 6.90625 0 Z M 3.953125 -7.46875 L 6.25 -7.46875 C 6.789062 -7.46875 7.207031 -7.601562 7.5 -7.875 C 7.789062 -8.15625 7.9375 -8.535156 7.9375 -9.015625 C 7.9375 -9.503906 7.789062 -9.878906 7.5 -10.140625 C 7.207031 -10.398438 6.796875 -10.53125 6.265625 -10.53125 L 3.953125 -10.53125 Z M 3.953125 -2.21875 L 6.296875 -2.21875 C 6.890625 -2.21875 7.347656 -2.359375 7.671875 -2.640625 C 8.003906 -2.921875 8.171875 -3.316406 8.171875 -3.828125 C 8.171875 -4.367188 8.003906 -4.785156 7.671875 -5.078125 C 7.347656 -5.367188 6.890625 -5.515625 6.296875 -5.515625 L 3.953125 -5.515625 Z M 3.953125 -2.21875 "/></g></g><g style="fill:#0661aa;fill-opacity:1;"><g transform="translate(55.459964, 92.865162)"><path style="stroke:none" d="M 5.625 -9.421875 C 6.375 -9.421875 6.976562 -9.140625 7.4375 -8.578125 C 7.894531 -8.023438 8.144531 -7.234375 8.1875 -6.203125 L 5.875 -5.578125 C 5.863281 -6.171875 5.753906 -6.617188 5.546875 -6.921875 C 5.347656 -7.234375 5.082031 -7.390625 4.75 -7.390625 C 4.34375 -7.390625 4.015625 -7.1875 3.765625 -6.78125 C 3.523438 -6.375 3.40625 -5.8125 3.40625 -5.09375 L 3.40625 0 L 0.6875 0 L 0.6875 -9.171875 L 2.890625 -9.171875 L 3.265625 -7.59375 L 3.28125 -7.59375 C 3.476562 -8.164062 3.785156 -8.613281 4.203125 -8.9375 C 4.628906 -9.257812 5.101562 -9.421875 5.625 -9.421875 Z M 5.625 -9.421875 "/></g></g><g style="fill:#0661aa;fill-opacity:1;"><g transform="translate(66.012858, 92.865162)"><path style="stroke:none" d="M 2.109375 -10.4375 C 1.617188 -10.4375 1.226562 -10.578125 0.9375 -10.859375 C 0.644531 -11.148438 0.5 -11.523438 0.5 -11.984375 C 0.5 -12.460938 0.644531 -12.84375 0.9375 -13.125 C 1.226562 -13.414062 1.617188 -13.5625 2.109375 -13.5625 C 2.597656 -13.5625 2.988281 -13.414062 3.28125 -13.125 C 3.582031 -12.84375 3.734375 -12.460938 3.734375 -11.984375 C 3.734375 -11.523438 3.582031 -11.148438 3.28125 -10.859375 C 2.988281 -10.578125 2.597656 -10.4375 2.109375 -10.4375 Z M 0.734375 0 L 0.734375 -9.171875 L 3.484375 -9.171875 L 3.484375 0 Z M 0.734375 0 "/></g></g><g style="fill:#0661aa;fill-opacity:1;"><g transform="translate(72.355348, 92.865162)"><path style="stroke:none" d="M 0.34375 0 L 0.34375 -2.34375 L 4.84375 -7.140625 L 0.515625 -7.140625 L 0.515625 -9.171875 L 7.796875 -9.171875 L 7.796875 -6.828125 L 3.28125 -2.046875 L 7.96875 -2.046875 L 7.96875 0 Z M 0.34375 0 "/></g></g><g style="fill:#0661aa;fill-opacity:1;"><g transform="translate(82.782826, 92.865162)"><path style="stroke:none" d="M 3.171875 0.21875 C 2.296875 0.21875 1.585938 -0.015625 1.046875 -0.484375 C 0.515625 -0.953125 0.25 -1.578125 0.25 -2.359375 C 0.25 -3.203125 0.566406 -3.878906 1.203125 -4.390625 C 1.847656 -4.910156 2.785156 -5.238281 4.015625 -5.375 L 5.4375 -5.53125 C 5.632812 -5.5625 5.796875 -5.632812 5.921875 -5.75 C 6.046875 -5.875 6.109375 -6.046875 6.109375 -6.265625 C 6.109375 -6.671875 5.984375 -6.984375 5.734375 -7.203125 C 5.484375 -7.421875 5.15625 -7.53125 4.75 -7.53125 C 4.28125 -7.53125 3.898438 -7.367188 3.609375 -7.046875 C 3.328125 -6.722656 3.175781 -6.316406 3.15625 -5.828125 L 0.5625 -6.203125 C 0.582031 -6.847656 0.769531 -7.414062 1.125 -7.90625 C 1.476562 -8.40625 1.960938 -8.796875 2.578125 -9.078125 C 3.191406 -9.359375 3.910156 -9.5 4.734375 -9.5 C 5.984375 -9.5 6.972656 -9.171875 7.703125 -8.515625 C 8.429688 -7.859375 8.796875 -6.96875 8.796875 -5.84375 L 8.796875 -2.296875 C 8.796875 -1.890625 8.945312 -1.6875 9.25 -1.6875 C 9.488281 -1.6875 9.710938 -1.804688 9.921875 -2.046875 L 10.515625 -0.578125 C 10.234375 -0.296875 9.890625 -0.09375 9.484375 0.03125 C 9.078125 0.164062 8.675781 0.234375 8.28125 0.234375 C 7.726562 0.234375 7.265625 0.09375 6.890625 -0.1875 C 6.515625 -0.46875 6.28125 -0.820312 6.1875 -1.25 L 6.140625 -1.484375 L 6.125 -1.484375 C 5.851562 -0.960938 5.457031 -0.546875 4.9375 -0.234375 C 4.425781 0.0664062 3.835938 0.21875 3.171875 0.21875 Z M 4.296875 -1.703125 C 4.816406 -1.703125 5.242188 -1.882812 5.578125 -2.25 C 5.910156 -2.613281 6.078125 -3.085938 6.078125 -3.671875 L 6.078125 -4.109375 L 4.734375 -3.953125 C 4.109375 -3.890625 3.660156 -3.742188 3.390625 -3.515625 C 3.128906 -3.285156 3 -3.015625 3 -2.703125 C 3 -2.410156 3.117188 -2.171875 3.359375 -1.984375 C 3.609375 -1.796875 3.921875 -1.703125 4.296875 -1.703125 Z M 4.296875 -1.703125 "/></g></g><g style="fill:#0661aa;fill-opacity:1;"><g transform="translate(18.551392, 114.514466)"><path style="stroke:none" d="M 0.890625 0 L 0.890625 -12.765625 L 6.75 -12.765625 C 8.09375 -12.765625 9.128906 -12.46875 9.859375 -11.875 C 10.597656 -11.28125 10.96875 -10.4375 10.96875 -9.34375 C 10.96875 -8.625 10.78125 -8.019531 10.40625 -7.53125 C 10.03125 -7.039062 9.5 -6.710938 8.8125 -6.546875 L 8.8125 -6.53125 C 9.59375 -6.375 10.191406 -6.035156 10.609375 -5.515625 C 11.023438 -4.992188 11.234375 -4.328125 11.234375 -3.515625 C 11.234375 -2.398438 10.859375 -1.535156 10.109375 -0.921875 C 9.359375 -0.304688 8.289062 0 6.90625 0 Z M 3.953125 -7.46875 L 6.25 -7.46875 C 6.789062 -7.46875 7.207031 -7.601562 7.5 -7.875 C 7.789062 -8.15625 7.9375 -8.535156 7.9375 -9.015625 C 7.9375 -9.503906 7.789062 -9.878906 7.5 -10.140625 C 7.207031 -10.398438 6.796875 -10.53125 6.265625 -10.53125 L 3.953125 -10.53125 Z M 3.953125 -2.21875 L 6.296875 -2.21875 C 6.890625 -2.21875 7.347656 -2.359375 7.671875 -2.640625 C 8.003906 -2.921875 8.171875 -3.316406 8.171875 -3.828125 C 8.171875 -4.367188 8.003906 -4.785156 7.671875 -5.078125 C 7.347656 -5.367188 6.890625 -5.515625 6.296875 -5.515625 L 3.953125 -5.515625 Z M 3.953125 -2.21875 "/></g></g><g style="fill:#0661aa;fill-opacity:1;"><g transform="translate(32.329269, 114.514466)"><path style="stroke:none" d="M 5.625 -9.421875 C 6.375 -9.421875 6.976562 -9.140625 7.4375 -8.578125 C 7.894531 -8.023438 8.144531 -7.234375 8.1875 -6.203125 L 5.875 -5.578125 C 5.863281 -6.171875 5.753906 -6.617188 5.546875 -6.921875 C 5.347656 -7.234375 5.082031 -7.390625 4.75 -7.390625 C 4.34375 -7.390625 4.015625 -7.1875 3.765625 -6.78125 C 3.523438 -6.375 3.40625 -5.8125 3.40625 -5.09375 L 3.40625 0 L 0.6875 0 L 0.6875 -9.171875 L 2.890625 -9.171875 L 3.265625 -7.59375 L 3.28125 -7.59375 C 3.476562 -8.164062 3.785156 -8.613281 4.203125 -8.9375 C 4.628906 -9.257812 5.101562 -9.421875 5.625 -9.421875 Z M 5.625 -9.421875 "/></g></g><g style="fill:#0661aa;fill-opacity:1;"><g transform="translate(42.792584, 114.514466)"><path style="stroke:none" d="M 5.359375 0.296875 C 4.367188 0.296875 3.492188 0.0976562 2.734375 -0.296875 C 1.984375 -0.703125 1.398438 -1.28125 0.984375 -2.03125 C 0.578125 -2.78125 0.375 -3.648438 0.375 -4.640625 C 0.375 -5.617188 0.5625 -6.46875 0.9375 -7.1875 C 1.3125 -7.914062 1.835938 -8.484375 2.515625 -8.890625 C 3.203125 -9.296875 4.003906 -9.5 4.921875 -9.5 C 5.804688 -9.5 6.570312 -9.300781 7.21875 -8.90625 C 7.863281 -8.519531 8.367188 -7.976562 8.734375 -7.28125 C 9.097656 -6.582031 9.28125 -5.765625 9.28125 -4.828125 C 9.28125 -4.628906 9.269531 -4.441406 9.25 -4.265625 C 9.238281 -4.097656 9.210938 -3.953125 9.171875 -3.828125 L 3.125 -3.828125 C 3.175781 -3.160156 3.40625 -2.632812 3.8125 -2.25 C 4.21875 -1.863281 4.738281 -1.671875 5.375 -1.671875 C 5.863281 -1.671875 6.296875 -1.789062 6.671875 -2.03125 C 7.046875 -2.269531 7.332031 -2.597656 7.53125 -3.015625 L 9.4375 -2.171875 C 9.175781 -1.398438 8.671875 -0.796875 7.921875 -0.359375 C 7.171875 0.078125 6.316406 0.296875 5.359375 0.296875 Z M 3.125 -5.390625 L 6.5625 -5.390625 C 6.519531 -6.054688 6.351562 -6.578125 6.0625 -6.953125 C 5.78125 -7.328125 5.394531 -7.515625 4.90625 -7.515625 C 4.394531 -7.515625 3.984375 -7.320312 3.671875 -6.9375 C 3.359375 -6.5625 3.175781 -6.046875 3.125 -5.390625 Z M 3.125 -5.390625 "/></g></g><g style="fill:#0661aa;fill-opacity:1;"><g transform="translate(54.689219, 114.514466)"><path style="stroke:none" d="M 3.171875 0.21875 C 2.296875 0.21875 1.585938 -0.015625 1.046875 -0.484375 C 0.515625 -0.953125 0.25 -1.578125 0.25 -2.359375 C 0.25 -3.203125 0.566406 -3.878906 1.203125 -4.390625 C 1.847656 -4.910156 2.785156 -5.238281 4.015625 -5.375 L 5.4375 -5.53125 C 5.632812 -5.5625 5.796875 -5.632812 5.921875 -5.75 C 6.046875 -5.875 6.109375 -6.046875 6.109375 -6.265625 C 6.109375 -6.671875 5.984375 -6.984375 5.734375 -7.203125 C 5.484375 -7.421875 5.15625 -7.53125 4.75 -7.53125 C 4.28125 -7.53125 3.898438 -7.367188 3.609375 -7.046875 C 3.328125 -6.722656 3.175781 -6.316406 3.15625 -5.828125 L 0.5625 -6.203125 C 0.582031 -6.847656 0.769531 -7.414062 1.125 -7.90625 C 1.476562 -8.40625 1.960938 -8.796875 2.578125 -9.078125 C 3.191406 -9.359375 3.910156 -9.5 4.734375 -9.5 C 5.984375 -9.5 6.972656 -9.171875 7.703125 -8.515625 C 8.429688 -7.859375 8.796875 -6.96875 8.796875 -5.84375 L 8.796875 -2.296875 C 8.796875 -1.890625 8.945312 -1.6875 9.25 -1.6875 C 9.488281 -1.6875 9.710938 -1.804688 9.921875 -2.046875 L 10.515625 -0.578125 C 10.234375 -0.296875 9.890625 -0.09375 9.484375 0.03125 C 9.078125 0.164062 8.675781 0.234375 8.28125 0.234375 C 7.726562 0.234375 7.265625 0.09375 6.890625 -0.1875 C 6.515625 -0.46875 6.28125 -0.820312 6.1875 -1.25 L 6.140625 -1.484375 L 6.125 -1.484375 C 5.851562 -0.960938 5.457031 -0.546875 4.9375 -0.234375 C 4.425781 0.0664062 3.835938 0.21875 3.171875 0.21875 Z M 4.296875 -1.703125 C 4.816406 -1.703125 5.242188 -1.882812 5.578125 -2.25 C 5.910156 -2.613281 6.078125 -3.085938 6.078125 -3.671875 L 6.078125 -4.109375 L 4.734375 -3.953125 C 4.109375 -3.890625 3.660156 -3.742188 3.390625 -3.515625 C 3.128906 -3.285156 3 -3.015625 3 -2.703125 C 3 -2.410156 3.117188 -2.171875 3.359375 -1.984375 C 3.609375 -1.796875 3.921875 -1.703125 4.296875 -1.703125 Z M 4.296875 -1.703125 "/></g></g><g style="fill:#0661aa;fill-opacity:1;"><g transform="translate(66.281267, 114.514466)"><path style="stroke:none" d="M 4.90625 0.28125 C 3.851562 0.28125 3.039062 -0.00390625 2.46875 -0.578125 C 1.90625 -1.148438 1.625 -1.925781 1.625 -2.90625 L 1.609375 -7.09375 L 0.078125 -7.09375 L 0.078125 -9.171875 L 1.625 -9.171875 L 1.625 -11.609375 L 4.359375 -12.21875 L 4.359375 -9.171875 L 7.484375 -9.171875 L 7.484375 -7.09375 L 4.359375 -7.09375 L 4.375 -3.390625 C 4.375 -2.929688 4.476562 -2.570312 4.6875 -2.3125 C 4.90625 -2.0625 5.195312 -1.9375 5.5625 -1.9375 C 6.238281 -1.9375 6.734375 -2.3125 7.046875 -3.0625 L 7.9375 -1.390625 C 7.65625 -0.859375 7.25 -0.445312 6.71875 -0.15625 C 6.1875 0.132812 5.582031 0.28125 4.90625 0.28125 Z M 4.90625 0.28125 "/></g></g><g style="fill:#0661aa;fill-opacity:1;"><g transform="translate(76.457913, 114.514466)"><path style="stroke:none" d="M 0.6875 0 L 0.6875 -13.296875 L 3.40625 -13.296875 L 3.40625 -7.609375 L 3.421875 -7.609375 C 3.710938 -8.191406 4.101562 -8.632812 4.59375 -8.9375 C 5.09375 -9.25 5.664062 -9.40625 6.3125 -9.40625 C 7.15625 -9.40625 7.8125 -9.15625 8.28125 -8.65625 C 8.757812 -8.15625 9 -7.445312 9 -6.53125 L 9 0 L 6.25 0 L 6.25 -5.828125 C 6.25 -6.253906 6.140625 -6.585938 5.921875 -6.828125 C 5.710938 -7.066406 5.414062 -7.1875 5.03125 -7.1875 C 4.539062 -7.1875 4.144531 -7.023438 3.84375 -6.703125 C 3.550781 -6.390625 3.40625 -5.953125 3.40625 -5.390625 L 3.40625 0 Z M 0.6875 0 "/></g></g><g style="fill:#0661aa;fill-opacity:1;"><g transform="translate(88.193295, 114.514466)"><path style="stroke:none" d="M 2.109375 -10.4375 C 1.617188 -10.4375 1.226562 -10.578125 0.9375 -10.859375 C 0.644531 -11.148438 0.5 -11.523438 0.5 -11.984375 C 0.5 -12.460938 0.644531 -12.84375 0.9375 -13.125 C 1.226562 -13.414062 1.617188 -13.5625 2.109375 -13.5625 C 2.597656 -13.5625 2.988281 -13.414062 3.28125 -13.125 C 3.582031 -12.84375 3.734375 -12.460938 3.734375 -11.984375 C 3.734375 -11.523438 3.582031 -11.148438 3.28125 -10.859375 C 2.988281 -10.578125 2.597656 -10.4375 2.109375 -10.4375 Z M 0.734375 0 L 0.734375 -9.171875 L 3.484375 -9.171875 L 3.484375 0 Z M 0.734375 0 "/></g></g><g style="fill:#0661aa;fill-opacity:1;"><g transform="translate(94.535785, 114.514466)"><path style="stroke:none" d="M 6.25 -9.40625 C 7.101562 -9.40625 7.773438 -9.148438 8.265625 -8.640625 C 8.753906 -8.140625 9 -7.4375 9 -6.53125 L 9 0 L 6.25 0 L 6.25 -5.828125 C 6.25 -6.253906 6.140625 -6.585938 5.921875 -6.828125 C 5.710938 -7.066406 5.414062 -7.1875 5.03125 -7.1875 C 4.539062 -7.1875 4.144531 -7.023438 3.84375 -6.703125 C 3.550781 -6.390625 3.40625 -5.953125 3.40625 -5.390625 L 3.40625 0 L 0.6875 0 L 0.6875 -9.171875 L 2.9375 -9.171875 L 3.3125 -7.609375 L 3.328125 -7.609375 C 3.609375 -8.191406 4.003906 -8.632812 4.515625 -8.9375 C 5.023438 -9.25 5.601562 -9.40625 6.25 -9.40625 Z M 6.25 -9.40625 "/></g></g><g style="fill:#0661aa;fill-opacity:1;"><g transform="translate(106.271167, 114.514466)"><path style="stroke:none" d="M 4.359375 4.0625 C 3.460938 4.0625 2.613281 3.910156 1.8125 3.609375 C 1.019531 3.316406 0.382812 2.914062 -0.09375 2.40625 L 0.96875 0.4375 C 1.332031 0.851562 1.789062 1.1875 2.34375 1.4375 C 2.90625 1.695312 3.472656 1.828125 4.046875 1.828125 C 4.867188 1.828125 5.523438 1.597656 6.015625 1.140625 C 6.503906 0.679688 6.75 0.0546875 6.75 -0.734375 L 6.75 -1.65625 L 6.734375 -1.65625 C 6.472656 -1.132812 6.09375 -0.71875 5.59375 -0.40625 C 5.09375 -0.101562 4.546875 0.046875 3.953125 0.046875 C 3.242188 0.046875 2.625 -0.140625 2.09375 -0.515625 C 1.5625 -0.898438 1.144531 -1.441406 0.84375 -2.140625 C 0.550781 -2.835938 0.40625 -3.660156 0.40625 -4.609375 C 0.40625 -5.597656 0.546875 -6.453125 0.828125 -7.171875 C 1.117188 -7.898438 1.523438 -8.457031 2.046875 -8.84375 C 2.578125 -9.238281 3.195312 -9.4375 3.90625 -9.4375 C 4.53125 -9.4375 5.097656 -9.269531 5.609375 -8.9375 C 6.117188 -8.601562 6.5 -8.15625 6.75 -7.59375 L 6.78125 -7.59375 L 7.09375 -9.171875 L 9.5 -9.171875 L 9.5 -0.703125 C 9.5 0.285156 9.289062 1.140625 8.875 1.859375 C 8.457031 2.578125 7.863281 3.125 7.09375 3.5 C 6.320312 3.875 5.410156 4.0625 4.359375 4.0625 Z M 5.015625 -2.1875 C 5.578125 -2.1875 6.023438 -2.410156 6.359375 -2.859375 C 6.691406 -3.304688 6.859375 -3.90625 6.859375 -4.65625 C 6.859375 -5.40625 6.691406 -6.007812 6.359375 -6.46875 C 6.023438 -6.925781 5.578125 -7.15625 5.015625 -7.15625 C 4.453125 -7.15625 4 -6.929688 3.65625 -6.484375 C 3.320312 -6.035156 3.15625 -5.425781 3.15625 -4.65625 C 3.15625 -3.894531 3.320312 -3.289062 3.65625 -2.84375 C 4 -2.40625 4.453125 -2.1875 5.015625 -2.1875 Z M 5.015625 -2.1875 "/></g></g><g style="fill:#2d6d5e;fill-opacity:1;"><g transform="translate(12.807584, 131.395907)"><path style="stroke:none" d="M 0.8125 -7.8125 L 2.515625 -7.8125 C 3.191406 -7.8125 3.703125 -7.65625 4.046875 -7.34375 C 4.398438 -7.03125 4.578125 -6.5625 4.578125 -5.9375 C 4.578125 -5.601562 4.535156 -5.3125 4.453125 -5.0625 C 4.367188 -4.8125 4.242188 -4.609375 4.078125 -4.453125 C 3.910156 -4.296875 3.703125 -4.191406 3.453125 -4.140625 L 3.453125 -4.09375 C 3.742188 -4.019531 3.984375 -3.90625 4.171875 -3.75 C 4.359375 -3.59375 4.5 -3.382812 4.59375 -3.125 C 4.6875 -2.875 4.734375 -2.578125 4.734375 -2.234375 C 4.734375 -1.785156 4.65625 -1.394531 4.5 -1.0625 C 4.351562 -0.726562 4.128906 -0.46875 3.828125 -0.28125 C 3.535156 -0.09375 3.179688 0 2.765625 0 L 0.8125 0 Z M 1.65625 -4.4375 L 2.5 -4.4375 C 2.925781 -4.4375 3.234375 -4.554688 3.421875 -4.796875 C 3.617188 -5.035156 3.71875 -5.390625 3.71875 -5.859375 C 3.71875 -6.253906 3.613281 -6.554688 3.40625 -6.765625 C 3.207031 -6.972656 2.898438 -7.078125 2.484375 -7.078125 L 1.65625 -7.078125 Z M 1.65625 -3.71875 L 1.65625 -0.75 L 2.671875 -0.75 C 3.054688 -0.75 3.347656 -0.875 3.546875 -1.125 C 3.753906 -1.375 3.859375 -1.757812 3.859375 -2.28125 C 3.859375 -2.59375 3.804688 -2.851562 3.703125 -3.0625 C 3.597656 -3.28125 3.445312 -3.441406 3.25 -3.546875 C 3.0625 -3.660156 2.832031 -3.71875 2.5625 -3.71875 Z M 1.65625 -3.71875 "/></g></g><g style="fill:#2d6d5e;fill-opacity:1;"><g transform="translate(19.50657, 131.395907)"><path style="stroke:none" d="M 2.671875 -5.96875 C 2.753906 -5.96875 2.835938 -5.957031 2.921875 -5.9375 C 3.003906 -5.925781 3.085938 -5.910156 3.171875 -5.890625 L 3.046875 -5.046875 C 2.984375 -5.066406 2.914062 -5.082031 2.84375 -5.09375 C 2.769531 -5.101562 2.691406 -5.109375 2.609375 -5.109375 C 2.453125 -5.109375 2.304688 -5.054688 2.171875 -4.953125 C 2.035156 -4.847656 1.921875 -4.703125 1.828125 -4.515625 C 1.734375 -4.328125 1.660156 -4.109375 1.609375 -3.859375 C 1.554688 -3.609375 1.53125 -3.34375 1.53125 -3.0625 L 1.53125 0 L 0.71875 0 L 0.71875 -5.859375 L 1.359375 -5.859375 L 1.46875 -4.828125 L 1.515625 -4.828125 C 1.597656 -5.046875 1.691406 -5.238281 1.796875 -5.40625 C 1.910156 -5.582031 2.039062 -5.71875 2.1875 -5.8125 C 2.332031 -5.914062 2.492188 -5.96875 2.671875 -5.96875 Z M 2.671875 -5.96875 "/></g></g><g style="fill:#2d6d5e;fill-opacity:1;"><g transform="translate(24.319678, 131.395907)"><path style="stroke:none" d="M 2.328125 -5.953125 C 2.722656 -5.953125 3.050781 -5.835938 3.3125 -5.609375 C 3.570312 -5.378906 3.765625 -5.066406 3.890625 -4.671875 C 4.015625 -4.285156 4.078125 -3.851562 4.078125 -3.375 L 4.078125 -2.78125 L 1.28125 -2.78125 C 1.289062 -2.050781 1.40625 -1.503906 1.625 -1.140625 C 1.84375 -0.773438 2.171875 -0.59375 2.609375 -0.59375 C 2.828125 -0.59375 3.035156 -0.625 3.234375 -0.6875 C 3.441406 -0.75 3.648438 -0.851562 3.859375 -1 L 3.859375 -0.265625 C 3.660156 -0.140625 3.453125 -0.046875 3.234375 0.015625 C 3.015625 0.078125 2.78125 0.109375 2.53125 0.109375 C 2.039062 0.109375 1.644531 -0.0195312 1.34375 -0.28125 C 1.039062 -0.539062 0.816406 -0.898438 0.671875 -1.359375 C 0.535156 -1.816406 0.46875 -2.332031 0.46875 -2.90625 C 0.46875 -3.550781 0.535156 -4.101562 0.671875 -4.5625 C 0.816406 -5.019531 1.023438 -5.363281 1.296875 -5.59375 C 1.578125 -5.832031 1.921875 -5.953125 2.328125 -5.953125 Z M 2.328125 -5.28125 C 2.015625 -5.28125 1.769531 -5.128906 1.59375 -4.828125 C 1.425781 -4.535156 1.328125 -4.070312 1.296875 -3.4375 L 3.3125 -3.4375 C 3.3125 -3.769531 3.273438 -4.078125 3.203125 -4.359375 C 3.140625 -4.640625 3.035156 -4.863281 2.890625 -5.03125 C 2.742188 -5.195312 2.554688 -5.28125 2.328125 -5.28125 Z M 2.328125 -5.28125 "/></g></g><g style="fill:#2d6d5e;fill-opacity:1;"><g transform="translate(30.377572, 131.395907)"><path style="stroke:none" d="M 2.28125 -5.96875 C 2.820312 -5.96875 3.207031 -5.796875 3.4375 -5.453125 C 3.675781 -5.109375 3.796875 -4.609375 3.796875 -3.953125 L 3.796875 0 L 3.171875 0 L 3.046875 -0.828125 L 3.015625 -0.828125 C 2.929688 -0.628906 2.820312 -0.457031 2.6875 -0.3125 C 2.5625 -0.175781 2.414062 -0.0703125 2.25 0 C 2.09375 0.0703125 1.90625 0.109375 1.6875 0.109375 C 1.382812 0.109375 1.132812 0.03125 0.9375 -0.125 C 0.75 -0.289062 0.609375 -0.503906 0.515625 -0.765625 C 0.421875 -1.023438 0.375 -1.304688 0.375 -1.609375 C 0.375 -2.191406 0.539062 -2.640625 0.875 -2.953125 C 1.21875 -3.273438 1.695312 -3.453125 2.3125 -3.484375 L 2.96875 -3.53125 L 2.96875 -3.9375 C 2.96875 -4.40625 2.90625 -4.742188 2.78125 -4.953125 C 2.65625 -5.171875 2.445312 -5.28125 2.15625 -5.28125 C 2 -5.28125 1.828125 -5.25 1.640625 -5.1875 C 1.460938 -5.132812 1.269531 -5.046875 1.0625 -4.921875 L 0.796875 -5.546875 C 1.015625 -5.691406 1.25 -5.796875 1.5 -5.859375 C 1.757812 -5.929688 2.019531 -5.96875 2.28125 -5.96875 Z M 2.984375 -2.921875 L 2.4375 -2.890625 C 2.03125 -2.867188 1.722656 -2.753906 1.515625 -2.546875 C 1.316406 -2.335938 1.21875 -2.035156 1.21875 -1.640625 C 1.21875 -1.265625 1.28125 -0.988281 1.40625 -0.8125 C 1.539062 -0.644531 1.722656 -0.5625 1.953125 -0.5625 C 2.285156 -0.5625 2.539062 -0.71875 2.71875 -1.03125 C 2.894531 -1.34375 2.984375 -1.773438 2.984375 -2.328125 Z M 2.984375 -2.921875 "/></g></g><g style="fill:#2d6d5e;fill-opacity:1;"><g transform="translate(36.403412, 131.395907)"><path style="stroke:none" d="M 2.09375 -0.625 C 2.1875 -0.625 2.273438 -0.628906 2.359375 -0.640625 C 2.453125 -0.660156 2.535156 -0.691406 2.609375 -0.734375 L 2.609375 -0.0625 C 2.503906 -0.0078125 2.382812 0.03125 2.25 0.0625 C 2.125 0.09375 1.984375 0.109375 1.828125 0.109375 C 1.578125 0.109375 1.367188 0.0507812 1.203125 -0.0625 C 1.046875 -0.175781 0.925781 -0.34375 0.84375 -0.5625 C 0.769531 -0.789062 0.734375 -1.078125 0.734375 -1.421875 L 0.734375 -5.171875 L 0.1875 -5.171875 L 0.1875 -5.625 L 0.78125 -5.84375 L 1 -7.1875 L 1.5625 -7.1875 L 1.5625 -5.859375 L 2.546875 -5.859375 L 2.546875 -5.171875 L 1.5625 -5.171875 L 1.5625 -1.515625 C 1.5625 -1.210938 1.597656 -0.988281 1.671875 -0.84375 C 1.742188 -0.695312 1.882812 -0.625 2.09375 -0.625 Z M 2.09375 -0.625 "/></g></g><g style="fill:#2d6d5e;fill-opacity:1;"><g transform="translate(40.708989, 131.395907)"><path style="stroke:none" d="M 1.53125 -8.3125 L 1.53125 -5.890625 C 1.53125 -5.734375 1.523438 -5.582031 1.515625 -5.4375 C 1.515625 -5.300781 1.503906 -5.164062 1.484375 -5.03125 L 1.53125 -5.03125 C 1.601562 -5.226562 1.703125 -5.394531 1.828125 -5.53125 C 1.960938 -5.664062 2.113281 -5.769531 2.28125 -5.84375 C 2.445312 -5.925781 2.625 -5.96875 2.8125 -5.96875 C 3.144531 -5.96875 3.414062 -5.890625 3.625 -5.734375 C 3.832031 -5.585938 3.984375 -5.367188 4.078125 -5.078125 C 4.179688 -4.785156 4.234375 -4.421875 4.234375 -3.984375 L 4.234375 0 L 3.40625 0 L 3.40625 -3.828125 C 3.40625 -4.328125 3.34375 -4.6875 3.21875 -4.90625 C 3.101562 -5.125 2.910156 -5.234375 2.640625 -5.234375 C 2.390625 -5.234375 2.179688 -5.15625 2.015625 -5 C 1.859375 -4.851562 1.738281 -4.617188 1.65625 -4.296875 C 1.570312 -3.972656 1.53125 -3.566406 1.53125 -3.078125 L 1.53125 0 L 0.71875 0 L 0.71875 -8.3125 Z M 1.53125 -8.3125 "/></g></g><g style="fill:#2d6d5e;fill-opacity:1;"><g transform="translate(47.172908, 131.395907)"><path style="stroke:none" d="M 2.328125 -5.953125 C 2.722656 -5.953125 3.050781 -5.835938 3.3125 -5.609375 C 3.570312 -5.378906 3.765625 -5.066406 3.890625 -4.671875 C 4.015625 -4.285156 4.078125 -3.851562 4.078125 -3.375 L 4.078125 -2.78125 L 1.28125 -2.78125 C 1.289062 -2.050781 1.40625 -1.503906 1.625 -1.140625 C 1.84375 -0.773438 2.171875 -0.59375 2.609375 -0.59375 C 2.828125 -0.59375 3.035156 -0.625 3.234375 -0.6875 C 3.441406 -0.75 3.648438 -0.851562 3.859375 -1 L 3.859375 -0.265625 C 3.660156 -0.140625 3.453125 -0.046875 3.234375 0.015625 C 3.015625 0.078125 2.78125 0.109375 2.53125 0.109375 C 2.039062 0.109375 1.644531 -0.0195312 1.34375 -0.28125 C 1.039062 -0.539062 0.816406 -0.898438 0.671875 -1.359375 C 0.535156 -1.816406 0.46875 -2.332031 0.46875 -2.90625 C 0.46875 -3.550781 0.535156 -4.101562 0.671875 -4.5625 C 0.816406 -5.019531 1.023438 -5.363281 1.296875 -5.59375 C 1.578125 -5.832031 1.921875 -5.953125 2.328125 -5.953125 Z M 2.328125 -5.28125 C 2.015625 -5.28125 1.769531 -5.128906 1.59375 -4.828125 C 1.425781 -4.535156 1.328125 -4.070312 1.296875 -3.4375 L 3.3125 -3.4375 C 3.3125 -3.769531 3.273438 -4.078125 3.203125 -4.359375 C 3.140625 -4.640625 3.035156 -4.863281 2.890625 -5.03125 C 2.742188 -5.195312 2.554688 -5.28125 2.328125 -5.28125 Z M 2.328125 -5.28125 "/></g></g><g style="fill:#2d6d5e;fill-opacity:1;"><g transform="translate(53.230803, 131.395907)"><path style="stroke:none" d=""/></g></g><g style="fill:#2d6d5e;fill-opacity:1;"><g transform="translate(56.793782, 131.395907)"><path style="stroke:none" d="M 1.53125 0 L 0.71875 0 L 0.71875 -8.3125 L 1.53125 -8.3125 Z M 1.53125 0 "/></g></g><g style="fill:#2d6d5e;fill-opacity:1;"><g transform="translate(60.570459, 131.395907)"><path style="stroke:none" d="M 1.546875 -5.859375 L 1.546875 0 L 0.71875 0 L 0.71875 -5.859375 Z M 1.140625 -8.0625 C 1.316406 -8.0625 1.441406 -8.007812 1.515625 -7.90625 C 1.585938 -7.800781 1.625 -7.648438 1.625 -7.453125 C 1.625 -7.273438 1.582031 -7.128906 1.5 -7.015625 C 1.425781 -6.910156 1.304688 -6.859375 1.140625 -6.859375 C 0.992188 -6.859375 0.875 -6.910156 0.78125 -7.015625 C 0.695312 -7.128906 0.65625 -7.273438 0.65625 -7.453125 C 0.65625 -7.648438 0.695312 -7.800781 0.78125 -7.90625 C 0.863281 -8.007812 0.984375 -8.0625 1.140625 -8.0625 Z M 1.140625 -8.0625 "/></g></g><g style="fill:#2d6d5e;fill-opacity:1;"><g transform="translate(64.368505, 131.395907)"><path style="stroke:none" d="M 1.53125 -8.3125 L 1.53125 -4.15625 C 1.53125 -3.945312 1.523438 -3.742188 1.515625 -3.546875 C 1.515625 -3.359375 1.503906 -3.164062 1.484375 -2.96875 L 1.53125 -2.96875 C 1.59375 -3.082031 1.648438 -3.195312 1.703125 -3.3125 C 1.765625 -3.425781 1.832031 -3.53125 1.90625 -3.625 L 3.234375 -5.859375 L 4.125 -5.859375 L 2.71875 -3.609375 L 4.234375 0 L 3.34375 0 L 2.15625 -2.953125 L 1.53125 -2.171875 L 1.53125 0 L 0.71875 0 L 0.71875 -8.3125 Z M 1.53125 -8.3125 "/></g></g><g style="fill:#2d6d5e;fill-opacity:1;"><g transform="translate(70.175305, 131.395907)"><path style="stroke:none" d="M 2.328125 -5.953125 C 2.722656 -5.953125 3.050781 -5.835938 3.3125 -5.609375 C 3.570312 -5.378906 3.765625 -5.066406 3.890625 -4.671875 C 4.015625 -4.285156 4.078125 -3.851562 4.078125 -3.375 L 4.078125 -2.78125 L 1.28125 -2.78125 C 1.289062 -2.050781 1.40625 -1.503906 1.625 -1.140625 C 1.84375 -0.773438 2.171875 -0.59375 2.609375 -0.59375 C 2.828125 -0.59375 3.035156 -0.625 3.234375 -0.6875 C 3.441406 -0.75 3.648438 -0.851562 3.859375 -1 L 3.859375 -0.265625 C 3.660156 -0.140625 3.453125 -0.046875 3.234375 0.015625 C 3.015625 0.078125 2.78125 0.109375 2.53125 0.109375 C 2.039062 0.109375 1.644531 -0.0195312 1.34375 -0.28125 C 1.039062 -0.539062 0.816406 -0.898438 0.671875 -1.359375 C 0.535156 -1.816406 0.46875 -2.332031 0.46875 -2.90625 C 0.46875 -3.550781 0.535156 -4.101562 0.671875 -4.5625 C 0.816406 -5.019531 1.023438 -5.363281 1.296875 -5.59375 C 1.578125 -5.832031 1.921875 -5.953125 2.328125 -5.953125 Z M 2.328125 -5.28125 C 2.015625 -5.28125 1.769531 -5.128906 1.59375 -4.828125 C 1.425781 -4.535156 1.328125 -4.070312 1.296875 -3.4375 L 3.3125 -3.4375 C 3.3125 -3.769531 3.273438 -4.078125 3.203125 -4.359375 C 3.140625 -4.640625 3.035156 -4.863281 2.890625 -5.03125 C 2.742188 -5.195312 2.554688 -5.28125 2.328125 -5.28125 Z M 2.328125 -5.28125 "/></g></g><g style="fill:#2d6d5e;fill-opacity:1;"><g transform="translate(76.233199, 131.395907)"><path style="stroke:none" d=""/></g></g><g style="fill:#2d6d5e;fill-opacity:1;"><g transform="translate(79.796179, 131.395907)"><path style="stroke:none" d="M 2.28125 -5.96875 C 2.820312 -5.96875 3.207031 -5.796875 3.4375 -5.453125 C 3.675781 -5.109375 3.796875 -4.609375 3.796875 -3.953125 L 3.796875 0 L 3.171875 0 L 3.046875 -0.828125 L 3.015625 -0.828125 C 2.929688 -0.628906 2.820312 -0.457031 2.6875 -0.3125 C 2.5625 -0.175781 2.414062 -0.0703125 2.25 0 C 2.09375 0.0703125 1.90625 0.109375 1.6875 0.109375 C 1.382812 0.109375 1.132812 0.03125 0.9375 -0.125 C 0.75 -0.289062 0.609375 -0.503906 0.515625 -0.765625 C 0.421875 -1.023438 0.375 -1.304688 0.375 -1.609375 C 0.375 -2.191406 0.539062 -2.640625 0.875 -2.953125 C 1.21875 -3.273438 1.695312 -3.453125 2.3125 -3.484375 L 2.96875 -3.53125 L 2.96875 -3.9375 C 2.96875 -4.40625 2.90625 -4.742188 2.78125 -4.953125 C 2.65625 -5.171875 2.445312 -5.28125 2.15625 -5.28125 C 2 -5.28125 1.828125 -5.25 1.640625 -5.1875 C 1.460938 -5.132812 1.269531 -5.046875 1.0625 -4.921875 L 0.796875 -5.546875 C 1.015625 -5.691406 1.25 -5.796875 1.5 -5.859375 C 1.757812 -5.929688 2.019531 -5.96875 2.28125 -5.96875 Z M 2.984375 -2.921875 L 2.4375 -2.890625 C 2.03125 -2.867188 1.722656 -2.753906 1.515625 -2.546875 C 1.316406 -2.335938 1.21875 -2.035156 1.21875 -1.640625 C 1.21875 -1.265625 1.28125 -0.988281 1.40625 -0.8125 C 1.539062 -0.644531 1.722656 -0.5625 1.953125 -0.5625 C 2.285156 -0.5625 2.539062 -0.71875 2.71875 -1.03125 C 2.894531 -1.34375 2.984375 -1.773438 2.984375 -2.328125 Z M 2.984375 -2.921875 "/></g></g><g style="fill:#2d6d5e;fill-opacity:1;"><g transform="translate(85.822018, 131.395907)"><path style="stroke:none" d=""/></g></g><g style="fill:#2d6d5e;fill-opacity:1;"><g transform="translate(89.384998, 131.395907)"><path style="stroke:none" d="M 1.53125 -8.3125 L 1.53125 -5.859375 C 1.53125 -5.742188 1.523438 -5.613281 1.515625 -5.46875 C 1.515625 -5.332031 1.515625 -5.1875 1.515625 -5.03125 L 1.546875 -5.03125 C 1.691406 -5.34375 1.875 -5.570312 2.09375 -5.71875 C 2.3125 -5.875 2.5625 -5.953125 2.84375 -5.953125 C 3.40625 -5.953125 3.832031 -5.695312 4.125 -5.1875 C 4.414062 -4.675781 4.5625 -3.925781 4.5625 -2.9375 C 4.5625 -2.28125 4.492188 -1.722656 4.359375 -1.265625 C 4.234375 -0.816406 4.039062 -0.472656 3.78125 -0.234375 C 3.53125 -0.00390625 3.226562 0.109375 2.875 0.109375 C 2.582031 0.109375 2.328125 0.0351562 2.109375 -0.109375 C 1.890625 -0.253906 1.703125 -0.476562 1.546875 -0.78125 L 1.5 -0.78125 L 1.390625 0 L 0.71875 0 L 0.71875 -8.3125 Z M 2.671875 -5.234375 C 2.367188 -5.234375 2.132812 -5.140625 1.96875 -4.953125 C 1.8125 -4.765625 1.695312 -4.503906 1.625 -4.171875 C 1.5625 -3.835938 1.53125 -3.457031 1.53125 -3.03125 L 1.53125 -2.78125 C 1.53125 -2.039062 1.625 -1.492188 1.8125 -1.140625 C 2.007812 -0.785156 2.296875 -0.609375 2.671875 -0.609375 C 3.023438 -0.609375 3.285156 -0.796875 3.453125 -1.171875 C 3.628906 -1.554688 3.71875 -2.148438 3.71875 -2.953125 C 3.71875 -3.703125 3.632812 -4.269531 3.46875 -4.65625 C 3.300781 -5.039062 3.035156 -5.234375 2.671875 -5.234375 Z M 2.671875 -5.234375 "/></g></g><g style="fill:#2d6d5e;fill-opacity:1;"><g transform="translate(95.923711, 131.395907)"><path style="stroke:none" d="M 2.671875 -5.96875 C 2.753906 -5.96875 2.835938 -5.957031 2.921875 -5.9375 C 3.003906 -5.925781 3.085938 -5.910156 3.171875 -5.890625 L 3.046875 -5.046875 C 2.984375 -5.066406 2.914062 -5.082031 2.84375 -5.09375 C 2.769531 -5.101562 2.691406 -5.109375 2.609375 -5.109375 C 2.453125 -5.109375 2.304688 -5.054688 2.171875 -4.953125 C 2.035156 -4.847656 1.921875 -4.703125 1.828125 -4.515625 C 1.734375 -4.328125 1.660156 -4.109375 1.609375 -3.859375 C 1.554688 -3.609375 1.53125 -3.34375 1.53125 -3.0625 L 1.53125 0 L 0.71875 0 L 0.71875 -5.859375 L 1.359375 -5.859375 L 1.46875 -4.828125 L 1.515625 -4.828125 C 1.597656 -5.046875 1.691406 -5.238281 1.796875 -5.40625 C 1.910156 -5.582031 2.039062 -5.71875 2.1875 -5.8125 C 2.332031 -5.914062 2.492188 -5.96875 2.671875 -5.96875 Z M 2.671875 -5.96875 "/></g></g><g style="fill:#2d6d5e;fill-opacity:1;"><g transform="translate(100.736819, 131.395907)"><path style="stroke:none" d="M 2.328125 -5.953125 C 2.722656 -5.953125 3.050781 -5.835938 3.3125 -5.609375 C 3.570312 -5.378906 3.765625 -5.066406 3.890625 -4.671875 C 4.015625 -4.285156 4.078125 -3.851562 4.078125 -3.375 L 4.078125 -2.78125 L 1.28125 -2.78125 C 1.289062 -2.050781 1.40625 -1.503906 1.625 -1.140625 C 1.84375 -0.773438 2.171875 -0.59375 2.609375 -0.59375 C 2.828125 -0.59375 3.035156 -0.625 3.234375 -0.6875 C 3.441406 -0.75 3.648438 -0.851562 3.859375 -1 L 3.859375 -0.265625 C 3.660156 -0.140625 3.453125 -0.046875 3.234375 0.015625 C 3.015625 0.078125 2.78125 0.109375 2.53125 0.109375 C 2.039062 0.109375 1.644531 -0.0195312 1.34375 -0.28125 C 1.039062 -0.539062 0.816406 -0.898438 0.671875 -1.359375 C 0.535156 -1.816406 0.46875 -2.332031 0.46875 -2.90625 C 0.46875 -3.550781 0.535156 -4.101562 0.671875 -4.5625 C 0.816406 -5.019531 1.023438 -5.363281 1.296875 -5.59375 C 1.578125 -5.832031 1.921875 -5.953125 2.328125 -5.953125 Z M 2.328125 -5.28125 C 2.015625 -5.28125 1.769531 -5.128906 1.59375 -4.828125 C 1.425781 -4.535156 1.328125 -4.070312 1.296875 -3.4375 L 3.3125 -3.4375 C 3.3125 -3.769531 3.273438 -4.078125 3.203125 -4.359375 C 3.140625 -4.640625 3.035156 -4.863281 2.890625 -5.03125 C 2.742188 -5.195312 2.554688 -5.28125 2.328125 -5.28125 Z M 2.328125 -5.28125 "/></g></g><g style="fill:#2d6d5e;fill-opacity:1;"><g transform="translate(106.794713, 131.395907)"><path style="stroke:none" d="M 2.328125 -5.953125 C 2.722656 -5.953125 3.050781 -5.835938 3.3125 -5.609375 C 3.570312 -5.378906 3.765625 -5.066406 3.890625 -4.671875 C 4.015625 -4.285156 4.078125 -3.851562 4.078125 -3.375 L 4.078125 -2.78125 L 1.28125 -2.78125 C 1.289062 -2.050781 1.40625 -1.503906 1.625 -1.140625 C 1.84375 -0.773438 2.171875 -0.59375 2.609375 -0.59375 C 2.828125 -0.59375 3.035156 -0.625 3.234375 -0.6875 C 3.441406 -0.75 3.648438 -0.851562 3.859375 -1 L 3.859375 -0.265625 C 3.660156 -0.140625 3.453125 -0.046875 3.234375 0.015625 C 3.015625 0.078125 2.78125 0.109375 2.53125 0.109375 C 2.039062 0.109375 1.644531 -0.0195312 1.34375 -0.28125 C 1.039062 -0.539062 0.816406 -0.898438 0.671875 -1.359375 C 0.535156 -1.816406 0.46875 -2.332031 0.46875 -2.90625 C 0.46875 -3.550781 0.535156 -4.101562 0.671875 -4.5625 C 0.816406 -5.019531 1.023438 -5.363281 1.296875 -5.59375 C 1.578125 -5.832031 1.921875 -5.953125 2.328125 -5.953125 Z M 2.328125 -5.28125 C 2.015625 -5.28125 1.769531 -5.128906 1.59375 -4.828125 C 1.425781 -4.535156 1.328125 -4.070312 1.296875 -3.4375 L 3.3125 -3.4375 C 3.3125 -3.769531 3.273438 -4.078125 3.203125 -4.359375 C 3.140625 -4.640625 3.035156 -4.863281 2.890625 -5.03125 C 2.742188 -5.195312 2.554688 -5.28125 2.328125 -5.28125 Z M 2.328125 -5.28125 "/></g></g><g style="fill:#2d6d5e;fill-opacity:1;"><g transform="translate(112.852608, 131.395907)"><path style="stroke:none" d="M 3.03125 0 L 0.28125 0 L 0.28125 -0.5625 L 2.0625 -5.15625 L 0.390625 -5.15625 L 0.390625 -5.859375 L 2.953125 -5.859375 L 2.953125 -5.265625 L 1.1875 -0.703125 L 3.03125 -0.703125 Z M 3.03125 0 "/></g></g><g style="fill:#2d6d5e;fill-opacity:1;"><g transform="translate(117.649688, 131.395907)"><path style="stroke:none" d="M 2.328125 -5.953125 C 2.722656 -5.953125 3.050781 -5.835938 3.3125 -5.609375 C 3.570312 -5.378906 3.765625 -5.066406 3.890625 -4.671875 C 4.015625 -4.285156 4.078125 -3.851562 4.078125 -3.375 L 4.078125 -2.78125 L 1.28125 -2.78125 C 1.289062 -2.050781 1.40625 -1.503906 1.625 -1.140625 C 1.84375 -0.773438 2.171875 -0.59375 2.609375 -0.59375 C 2.828125 -0.59375 3.035156 -0.625 3.234375 -0.6875 C 3.441406 -0.75 3.648438 -0.851562 3.859375 -1 L 3.859375 -0.265625 C 3.660156 -0.140625 3.453125 -0.046875 3.234375 0.015625 C 3.015625 0.078125 2.78125 0.109375 2.53125 0.109375 C 2.039062 0.109375 1.644531 -0.0195312 1.34375 -0.28125 C 1.039062 -0.539062 0.816406 -0.898438 0.671875 -1.359375 C 0.535156 -1.816406 0.46875 -2.332031 0.46875 -2.90625 C 0.46875 -3.550781 0.535156 -4.101562 0.671875 -4.5625 C 0.816406 -5.019531 1.023438 -5.363281 1.296875 -5.59375 C 1.578125 -5.832031 1.921875 -5.953125 2.328125 -5.953125 Z M 2.328125 -5.28125 C 2.015625 -5.28125 1.769531 -5.128906 1.59375 -4.828125 C 1.425781 -4.535156 1.328125 -4.070312 1.296875 -3.4375 L 3.3125 -3.4375 C 3.3125 -3.769531 3.273438 -4.078125 3.203125 -4.359375 C 3.140625 -4.640625 3.035156 -4.863281 2.890625 -5.03125 C 2.742188 -5.195312 2.554688 -5.28125 2.328125 -5.28125 Z M 2.328125 -5.28125 "/></g></g><g clip-rule="nonzero" clip-path="url(#6c3685d53f)"><g clip-rule="nonzero" clip-path="url(#a9053c70db)"><g clip-rule="nonzero" clip-path="url(#0498bfcef0)"><path style=" stroke:none;fill-rule:nonzero;fill:#0661aa;fill-opacity:1;" d="M 48.515625 69.160156 C 46.890625 69.40625 45.242188 69.554688 43.578125 69.601562 C 43.339844 69.609375 43.136719 69.417969 43.128906 69.179688 C 43.125 68.933594 43.320312 68.734375 43.554688 68.726562 C 61.453125 68.21875 77.191406 55.777344 81.824219 38.480469 C 81.886719 38.246094 82.128906 38.109375 82.359375 38.171875 C 82.589844 38.234375 82.730469 38.472656 82.667969 38.707031 C 78.363281 54.761719 64.695312 66.71875 48.515625 69.160156 "/></g></g></g><g clip-rule="nonzero" clip-path="url(#07a939d40b)"><g clip-rule="nonzero" clip-path="url(#44673eb233)"><g clip-rule="nonzero" clip-path="url(#c3f28e01bd)"><path style=" stroke:none;fill-rule:nonzero;fill:#0661aa;fill-opacity:1;" d="M 48.199219 69.207031 C 48.046875 69.230469 47.890625 69.171875 47.789062 69.042969 C 47.640625 68.847656 47.679688 68.574219 47.871094 68.429688 C 47.929688 68.386719 47.976562 68.339844 48.027344 68.292969 L 48.097656 68.230469 C 49.707031 66.777344 50.734375 64.785156 50.988281 62.625 C 51.015625 62.386719 51.230469 62.21875 51.476562 62.246094 C 51.714844 62.273438 51.882812 62.488281 51.855469 62.730469 C 51.578125 65.101562 50.449219 67.285156 48.679688 68.886719 L 48.609375 68.945312 C 48.539062 69.007812 48.476562 69.066406 48.402344 69.121094 C 48.34375 69.167969 48.273438 69.195312 48.199219 69.207031 "/></g></g></g><g clip-rule="nonzero" clip-path="url(#84d3c7f792)"><g clip-rule="nonzero" clip-path="url(#688d35c600)"><g clip-rule="nonzero" clip-path="url(#f4aafa5894)"><path style=" stroke:none;fill-rule:nonzero;fill:#0661aa;fill-opacity:1;" d="M 56.507812 72.953125 C 56.371094 72.976562 56.226562 72.929688 56.125 72.824219 C 54.230469 70.832031 51.683594 69.496094 48.960938 69.070312 C 48.71875 69.035156 48.558594 68.8125 48.59375 68.574219 C 48.632812 68.335938 48.855469 68.171875 49.09375 68.210938 C 52.007812 68.664062 54.726562 70.089844 56.757812 72.222656 C 56.925781 72.394531 56.914062 72.671875 56.742188 72.839844 C 56.675781 72.902344 56.589844 72.941406 56.507812 72.953125 "/></g></g></g><g clip-rule="nonzero" clip-path="url(#228cce9e02)"><g clip-rule="nonzero" clip-path="url(#3da61414aa)"><g clip-rule="nonzero" clip-path="url(#acaacc5a79)"><path style=" stroke:none;fill-rule:nonzero;fill:#0661aa;fill-opacity:1;" d="M 65.171875 70.128906 C 60.46875 70.839844 58.554688 69.980469 58.457031 69.933594 C 58.238281 69.832031 58.144531 69.574219 58.246094 69.355469 C 58.351562 69.136719 58.609375 69.042969 58.824219 69.144531 C 58.878906 69.167969 61.722656 70.367188 69.027344 68.417969 C 80.117188 65.464844 85.46875 57.53125 88.019531 51.210938 C 86.476562 50.792969 84.988281 50.160156 83.585938 49.335938 C 83.421875 49.238281 83.339844 49.042969 83.386719 48.855469 C 83.429688 48.667969 83.59375 48.53125 83.789062 48.523438 C 85.972656 48.410156 88.078125 47.554688 89.722656 46.105469 C 90.953125 41.511719 91.328125 37.300781 91.054688 35.496094 C 90.652344 32.835938 89.816406 27.289062 83.339844 28.269531 C 78.820312 28.949219 76.980469 32.597656 74.847656 36.824219 C 73.054688 40.382812 71.019531 44.417969 67.007812 47.460938 C 66.042969 48.148438 65.234375 48.753906 64.53125 49.324219 C 63.972656 52.007812 63.601562 54.738281 63.429688 57.425781 C 63.421875 57.597656 63.304688 57.75 63.144531 57.808594 C 62.984375 57.867188 62.804688 57.828125 62.683594 57.703125 C 61.523438 56.511719 60.679688 55.074219 60.210938 53.496094 C 58.386719 55.757812 57.675781 57.667969 56.988281 59.523438 C 56.394531 61.125 55.835938 62.632812 54.625 64.273438 C 54.480469 64.46875 54.210938 64.507812 54.015625 64.363281 C 53.824219 64.222656 53.78125 63.953125 53.925781 63.757812 C 55.058594 62.214844 55.597656 60.761719 56.171875 59.21875 C 56.949219 57.117188 57.753906 54.945312 60.101562 52.277344 C 60.207031 52.152344 60.378906 52.097656 60.539062 52.144531 C 60.699219 52.183594 60.824219 52.316406 60.855469 52.476562 C 61.144531 53.886719 61.753906 55.199219 62.636719 56.324219 C 62.832031 53.882812 63.195312 51.417969 63.707031 48.992188 C 63.726562 48.890625 63.78125 48.804688 63.859375 48.742188 C 64.605469 48.136719 65.464844 47.488281 66.496094 46.757812 C 70.335938 43.84375 72.316406 39.902344 74.066406 36.429688 C 76.308594 31.988281 78.242188 28.152344 83.207031 27.402344 C 90.550781 26.296875 91.542969 32.886719 91.917969 35.367188 C 92.199219 37.214844 91.882812 41.476562 90.535156 46.460938 C 90.511719 46.542969 90.46875 46.617188 90.402344 46.671875 C 88.945312 47.992188 87.148438 48.871094 85.234375 49.230469 C 86.347656 49.777344 87.515625 50.199219 88.710938 50.488281 C 88.832031 50.515625 88.9375 50.597656 88.996094 50.710938 C 89.050781 50.820312 89.0625 50.953125 89.015625 51.070312 C 86.464844 57.648438 80.964844 66.144531 69.25 69.261719 C 67.707031 69.675781 66.355469 69.949219 65.171875 70.128906 "/></g></g></g></g></svg>