<svg xmlns="http://www.w3.org/2000/svg" xmlns:xlink="http://www.w3.org/1999/xlink" width="180" zoomAndPan="magnify" viewBox="0 0 135 161.249994" height="215" preserveAspectRatio="xMidYMid meet" version="1.0"><defs><g/><clipPath id="19e9b8b71b"><path d="M 43 37 L 84 37 L 84 69 L 43 69 Z M 43 37 " clip-rule="nonzero"/></clipPath><clipPath id="7cd3e04ed6"><path d="M 37.839844 33.117188 L 90.988281 25.101562 L 97.113281 65.703125 L 43.960938 73.71875 Z M 37.839844 33.117188 " clip-rule="nonzero"/></clipPath><clipPath id="4d1cc9aafb"><path d="M 37.839844 33.117188 L 90.988281 25.101562 L 97.113281 65.703125 L 43.960938 73.71875 Z M 37.839844 33.117188 " clip-rule="nonzero"/></clipPath><clipPath id="0bc9f09c4e"><path d="M 47 61 L 52 61 L 52 69 L 47 69 Z M 47 61 " clip-rule="nonzero"/></clipPath><clipPath id="3f40dedf8f"><path d="M 37.839844 33.117188 L 90.988281 25.101562 L 97.113281 65.703125 L 43.960938 73.71875 Z M 37.839844 33.117188 " clip-rule="nonzero"/></clipPath><clipPath id="f6cab42fa3"><path d="M 37.839844 33.117188 L 90.988281 25.101562 L 97.113281 65.703125 L 43.960938 73.71875 Z M 37.839844 33.117188 " clip-rule="nonzero"/></clipPath><clipPath id="9c070ae2b6"><path d="M 48 67 L 58 67 L 58 73 L 48 73 Z M 48 67 " clip-rule="nonzero"/></clipPath><clipPath id="a9b67d23a7"><path d="M 37.839844 33.117188 L 90.988281 25.101562 L 97.113281 65.703125 L 43.960938 73.71875 Z M 37.839844 33.117188 " clip-rule="nonzero"/></clipPath><clipPath id="b8cfba2152"><path d="M 37.839844 33.117188 L 90.988281 25.101562 L 97.113281 65.703125 L 43.960938 73.71875 Z M 37.839844 33.117188 " clip-rule="nonzero"/></clipPath><clipPath id="88ecdaf4d1"><path d="M 53 26 L 93 26 L 93 70 L 53 70 Z M 53 26 " clip-rule="nonzero"/></clipPath><clipPath id="760d53d3d0"><path d="M 37.839844 33.117188 L 90.988281 25.101562 L 97.113281 65.703125 L 43.960938 73.71875 Z M 37.839844 33.117188 " clip-rule="nonzero"/></clipPath><clipPath id="34e85befb7"><path d="M 37.839844 33.117188 L 90.988281 25.101562 L 97.113281 65.703125 L 43.960938 73.71875 Z M 37.839844 33.117188 " clip-rule="nonzero"/></clipPath></defs><g fill="#0661aa" fill-opacity="1"><g transform="translate(41.682087, 88.794178)"><g><path d="M 0.890625 0 L 0.890625 -12.765625 L 6.75 -12.765625 C 8.09375 -12.765625 9.128906 -12.46875 9.859375 -11.875 C 10.597656 -11.28125 10.96875 -10.4375 10.96875 -9.34375 C 10.96875 -8.625 10.78125 -8.019531 10.40625 -7.53125 C 10.03125 -7.039062 9.5 -6.710938 8.8125 -6.546875 L 8.8125 -6.53125 C 9.59375 -6.375 10.191406 -6.035156 10.609375 -5.515625 C 11.023438 -4.992188 11.234375 -4.328125 11.234375 -3.515625 C 11.234375 -2.398438 10.859375 -1.535156 10.109375 -0.921875 C 9.359375 -0.304688 8.289062 0 6.90625 0 Z M 3.953125 -7.46875 L 6.25 -7.46875 C 6.789062 -7.46875 7.207031 -7.601562 7.5 -7.875 C 7.789062 -8.15625 7.9375 -8.535156 7.9375 -9.015625 C 7.9375 -9.503906 7.789062 -9.878906 7.5 -10.140625 C 7.207031 -10.398438 6.796875 -10.53125 6.265625 -10.53125 L 3.953125 -10.53125 Z M 3.953125 -2.21875 L 6.296875 -2.21875 C 6.890625 -2.21875 7.347656 -2.359375 7.671875 -2.640625 C 8.003906 -2.921875 8.171875 -3.316406 8.171875 -3.828125 C 8.171875 -4.367188 8.003906 -4.785156 7.671875 -5.078125 C 7.347656 -5.367188 6.890625 -5.515625 6.296875 -5.515625 L 3.953125 -5.515625 Z M 3.953125 -2.21875 "/></g></g></g><g fill="#0661aa" fill-opacity="1"><g transform="translate(55.459964, 88.794178)"><g><path d="M 5.625 -9.421875 C 6.375 -9.421875 6.976562 -9.140625 7.4375 -8.578125 C 7.894531 -8.023438 8.144531 -7.234375 8.1875 -6.203125 L 5.875 -5.578125 C 5.863281 -6.171875 5.753906 -6.617188 5.546875 -6.921875 C 5.347656 -7.234375 5.082031 -7.390625 4.75 -7.390625 C 4.34375 -7.390625 4.015625 -7.1875 3.765625 -6.78125 C 3.523438 -6.375 3.40625 -5.8125 3.40625 -5.09375 L 3.40625 0 L 0.6875 0 L 0.6875 -9.171875 L 2.890625 -9.171875 L 3.265625 -7.59375 L 3.28125 -7.59375 C 3.476562 -8.164062 3.785156 -8.613281 4.203125 -8.9375 C 4.628906 -9.257812 5.101562 -9.421875 5.625 -9.421875 Z M 5.625 -9.421875 "/></g></g></g><g fill="#0661aa" fill-opacity="1"><g transform="translate(66.012858, 88.794178)"><g><path d="M 2.109375 -10.4375 C 1.617188 -10.4375 1.226562 -10.578125 0.9375 -10.859375 C 0.644531 -11.148438 0.5 -11.523438 0.5 -11.984375 C 0.5 -12.460938 0.644531 -12.84375 0.9375 -13.125 C 1.226562 -13.414062 1.617188 -13.5625 2.109375 -13.5625 C 2.597656 -13.5625 2.988281 -13.414062 3.28125 -13.125 C 3.582031 -12.84375 3.734375 -12.460938 3.734375 -11.984375 C 3.734375 -11.523438 3.582031 -11.148438 3.28125 -10.859375 C 2.988281 -10.578125 2.597656 -10.4375 2.109375 -10.4375 Z M 0.734375 0 L 0.734375 -9.171875 L 3.484375 -9.171875 L 3.484375 0 Z M 0.734375 0 "/></g></g></g><g fill="#0661aa" fill-opacity="1"><g transform="translate(72.355348, 88.794178)"><g><path d="M 0.34375 0 L 0.34375 -2.34375 L 4.84375 -7.140625 L 0.515625 -7.140625 L 0.515625 -9.171875 L 7.796875 -9.171875 L 7.796875 -6.828125 L 3.28125 -2.046875 L 7.96875 -2.046875 L 7.96875 0 Z M 0.34375 0 "/></g></g></g><g fill="#0661aa" fill-opacity="1"><g transform="translate(82.782826, 88.794178)"><g><path d="M 3.171875 0.21875 C 2.296875 0.21875 1.585938 -0.015625 1.046875 -0.484375 C 0.515625 -0.953125 0.25 -1.578125 0.25 -2.359375 C 0.25 -3.203125 0.566406 -3.878906 1.203125 -4.390625 C 1.847656 -4.910156 2.785156 -5.238281 4.015625 -5.375 L 5.4375 -5.53125 C 5.632812 -5.5625 5.796875 -5.632812 5.921875 -5.75 C 6.046875 -5.875 6.109375 -6.046875 6.109375 -6.265625 C 6.109375 -6.671875 5.984375 -6.984375 5.734375 -7.203125 C 5.484375 -7.421875 5.15625 -7.53125 4.75 -7.53125 C 4.28125 -7.53125 3.898438 -7.367188 3.609375 -7.046875 C 3.328125 -6.722656 3.175781 -6.316406 3.15625 -5.828125 L 0.5625 -6.203125 C 0.582031 -6.847656 0.769531 -7.414062 1.125 -7.90625 C 1.476562 -8.40625 1.960938 -8.796875 2.578125 -9.078125 C 3.191406 -9.359375 3.910156 -9.5 4.734375 -9.5 C 5.984375 -9.5 6.972656 -9.171875 7.703125 -8.515625 C 8.429688 -7.859375 8.796875 -6.96875 8.796875 -5.84375 L 8.796875 -2.296875 C 8.796875 -1.890625 8.945312 -1.6875 9.25 -1.6875 C 9.488281 -1.6875 9.710938 -1.804688 9.921875 -2.046875 L 10.515625 -0.578125 C 10.234375 -0.296875 9.890625 -0.09375 9.484375 0.03125 C 9.078125 0.164062 8.675781 0.234375 8.28125 0.234375 C 7.726562 0.234375 7.265625 0.09375 6.890625 -0.1875 C 6.515625 -0.46875 6.28125 -0.820312 6.1875 -1.25 L 6.140625 -1.484375 L 6.125 -1.484375 C 5.851562 -0.960938 5.457031 -0.546875 4.9375 -0.234375 C 4.425781 0.0664062 3.835938 0.21875 3.171875 0.21875 Z M 4.296875 -1.703125 C 4.816406 -1.703125 5.242188 -1.882812 5.578125 -2.25 C 5.910156 -2.613281 6.078125 -3.085938 6.078125 -3.671875 L 6.078125 -4.109375 L 4.734375 -3.953125 C 4.109375 -3.890625 3.660156 -3.742188 3.390625 -3.515625 C 3.128906 -3.285156 3 -3.015625 3 -2.703125 C 3 -2.410156 3.117188 -2.171875 3.359375 -1.984375 C 3.609375 -1.796875 3.921875 -1.703125 4.296875 -1.703125 Z M 4.296875 -1.703125 "/></g></g></g><g fill="#0661aa" fill-opacity="1"><g transform="translate(18.551392, 110.443482)"><g><path d="M 0.890625 0 L 0.890625 -12.765625 L 6.75 -12.765625 C 8.09375 -12.765625 9.128906 -12.46875 9.859375 -11.875 C 10.597656 -11.28125 10.96875 -10.4375 10.96875 -9.34375 C 10.96875 -8.625 10.78125 -8.019531 10.40625 -7.53125 C 10.03125 -7.039062 9.5 -6.710938 8.8125 -6.546875 L 8.8125 -6.53125 C 9.59375 -6.375 10.191406 -6.035156 10.609375 -5.515625 C 11.023438 -4.992188 11.234375 -4.328125 11.234375 -3.515625 C 11.234375 -2.398438 10.859375 -1.535156 10.109375 -0.921875 C 9.359375 -0.304688 8.289062 0 6.90625 0 Z M 3.953125 -7.46875 L 6.25 -7.46875 C 6.789062 -7.46875 7.207031 -7.601562 7.5 -7.875 C 7.789062 -8.15625 7.9375 -8.535156 7.9375 -9.015625 C 7.9375 -9.503906 7.789062 -9.878906 7.5 -10.140625 C 7.207031 -10.398438 6.796875 -10.53125 6.265625 -10.53125 L 3.953125 -10.53125 Z M 3.953125 -2.21875 L 6.296875 -2.21875 C 6.890625 -2.21875 7.347656 -2.359375 7.671875 -2.640625 C 8.003906 -2.921875 8.171875 -3.316406 8.171875 -3.828125 C 8.171875 -4.367188 8.003906 -4.785156 7.671875 -5.078125 C 7.347656 -5.367188 6.890625 -5.515625 6.296875 -5.515625 L 3.953125 -5.515625 Z M 3.953125 -2.21875 "/></g></g></g><g fill="#0661aa" fill-opacity="1"><g transform="translate(32.329269, 110.443482)"><g><path d="M 5.625 -9.421875 C 6.375 -9.421875 6.976562 -9.140625 7.4375 -8.578125 C 7.894531 -8.023438 8.144531 -7.234375 8.1875 -6.203125 L 5.875 -5.578125 C 5.863281 -6.171875 5.753906 -6.617188 5.546875 -6.921875 C 5.347656 -7.234375 5.082031 -7.390625 4.75 -7.390625 C 4.34375 -7.390625 4.015625 -7.1875 3.765625 -6.78125 C 3.523438 -6.375 3.40625 -5.8125 3.40625 -5.09375 L 3.40625 0 L 0.6875 0 L 0.6875 -9.171875 L 2.890625 -9.171875 L 3.265625 -7.59375 L 3.28125 -7.59375 C 3.476562 -8.164062 3.785156 -8.613281 4.203125 -8.9375 C 4.628906 -9.257812 5.101562 -9.421875 5.625 -9.421875 Z M 5.625 -9.421875 "/></g></g></g><g fill="#0661aa" fill-opacity="1"><g transform="translate(42.792584, 110.443482)"><g><path d="M 5.359375 0.296875 C 4.367188 0.296875 3.492188 0.0976562 2.734375 -0.296875 C 1.984375 -0.703125 1.398438 -1.28125 0.984375 -2.03125 C 0.578125 -2.78125 0.375 -3.648438 0.375 -4.640625 C 0.375 -5.617188 0.5625 -6.46875 0.9375 -7.1875 C 1.3125 -7.914062 1.835938 -8.484375 2.515625 -8.890625 C 3.203125 -9.296875 4.003906 -9.5 4.921875 -9.5 C 5.804688 -9.5 6.570312 -9.300781 7.21875 -8.90625 C 7.863281 -8.519531 8.367188 -7.976562 8.734375 -7.28125 C 9.097656 -6.582031 9.28125 -5.765625 9.28125 -4.828125 C 9.28125 -4.628906 9.269531 -4.441406 9.25 -4.265625 C 9.238281 -4.097656 9.210938 -3.953125 9.171875 -3.828125 L 3.125 -3.828125 C 3.175781 -3.160156 3.40625 -2.632812 3.8125 -2.25 C 4.21875 -1.863281 4.738281 -1.671875 5.375 -1.671875 C 5.863281 -1.671875 6.296875 -1.789062 6.671875 -2.03125 C 7.046875 -2.269531 7.332031 -2.597656 7.53125 -3.015625 L 9.4375 -2.171875 C 9.175781 -1.398438 8.671875 -0.796875 7.921875 -0.359375 C 7.171875 0.078125 6.316406 0.296875 5.359375 0.296875 Z M 3.125 -5.390625 L 6.5625 -5.390625 C 6.519531 -6.054688 6.351562 -6.578125 6.0625 -6.953125 C 5.78125 -7.328125 5.394531 -7.515625 4.90625 -7.515625 C 4.394531 -7.515625 3.984375 -7.320312 3.671875 -6.9375 C 3.359375 -6.5625 3.175781 -6.046875 3.125 -5.390625 Z M 3.125 -5.390625 "/></g></g></g><g fill="#0661aa" fill-opacity="1"><g transform="translate(54.689219, 110.443482)"><g><path d="M 3.171875 0.21875 C 2.296875 0.21875 1.585938 -0.015625 1.046875 -0.484375 C 0.515625 -0.953125 0.25 -1.578125 0.25 -2.359375 C 0.25 -3.203125 0.566406 -3.878906 1.203125 -4.390625 C 1.847656 -4.910156 2.785156 -5.238281 4.015625 -5.375 L 5.4375 -5.53125 C 5.632812 -5.5625 5.796875 -5.632812 5.921875 -5.75 C 6.046875 -5.875 6.109375 -6.046875 6.109375 -6.265625 C 6.109375 -6.671875 5.984375 -6.984375 5.734375 -7.203125 C 5.484375 -7.421875 5.15625 -7.53125 4.75 -7.53125 C 4.28125 -7.53125 3.898438 -7.367188 3.609375 -7.046875 C 3.328125 -6.722656 3.175781 -6.316406 3.15625 -5.828125 L 0.5625 -6.203125 C 0.582031 -6.847656 0.769531 -7.414062 1.125 -7.90625 C 1.476562 -8.40625 1.960938 -8.796875 2.578125 -9.078125 C 3.191406 -9.359375 3.910156 -9.5 4.734375 -9.5 C 5.984375 -9.5 6.972656 -9.171875 7.703125 -8.515625 C 8.429688 -7.859375 8.796875 -6.96875 8.796875 -5.84375 L 8.796875 -2.296875 C 8.796875 -1.890625 8.945312 -1.6875 9.25 -1.6875 C 9.488281 -1.6875 9.710938 -1.804688 9.921875 -2.046875 L 10.515625 -0.578125 C 10.234375 -0.296875 9.890625 -0.09375 9.484375 0.03125 C 9.078125 0.164062 8.675781 0.234375 8.28125 0.234375 C 7.726562 0.234375 7.265625 0.09375 6.890625 -0.1875 C 6.515625 -0.46875 6.28125 -0.820312 6.1875 -1.25 L 6.140625 -1.484375 L 6.125 -1.484375 C 5.851562 -0.960938 5.457031 -0.546875 4.9375 -0.234375 C 4.425781 0.0664062 3.835938 0.21875 3.171875 0.21875 Z M 4.296875 -1.703125 C 4.816406 -1.703125 5.242188 -1.882812 5.578125 -2.25 C 5.910156 -2.613281 6.078125 -3.085938 6.078125 -3.671875 L 6.078125 -4.109375 L 4.734375 -3.953125 C 4.109375 -3.890625 3.660156 -3.742188 3.390625 -3.515625 C 3.128906 -3.285156 3 -3.015625 3 -2.703125 C 3 -2.410156 3.117188 -2.171875 3.359375 -1.984375 C 3.609375 -1.796875 3.921875 -1.703125 4.296875 -1.703125 Z M 4.296875 -1.703125 "/></g></g></g><g fill="#0661aa" fill-opacity="1"><g transform="translate(66.281267, 110.443482)"><g><path d="M 4.90625 0.28125 C 3.851562 0.28125 3.039062 -0.00390625 2.46875 -0.578125 C 1.90625 -1.148438 1.625 -1.925781 1.625 -2.90625 L 1.609375 -7.09375 L 0.078125 -7.09375 L 0.078125 -9.171875 L 1.625 -9.171875 L 1.625 -11.609375 L 4.359375 -12.21875 L 4.359375 -9.171875 L 7.484375 -9.171875 L 7.484375 -7.09375 L 4.359375 -7.09375 L 4.375 -3.390625 C 4.375 -2.929688 4.476562 -2.570312 4.6875 -2.3125 C 4.90625 -2.0625 5.195312 -1.9375 5.5625 -1.9375 C 6.238281 -1.9375 6.734375 -2.3125 7.046875 -3.0625 L 7.9375 -1.390625 C 7.65625 -0.859375 7.25 -0.445312 6.71875 -0.15625 C 6.1875 0.132812 5.582031 0.28125 4.90625 0.28125 Z M 4.90625 0.28125 "/></g></g></g><g fill="#0661aa" fill-opacity="1"><g transform="translate(76.457913, 110.443482)"><g><path d="M 0.6875 0 L 0.6875 -13.296875 L 3.40625 -13.296875 L 3.40625 -7.609375 L 3.421875 -7.609375 C 3.710938 -8.191406 4.101562 -8.632812 4.59375 -8.9375 C 5.09375 -9.25 5.664062 -9.40625 6.3125 -9.40625 C 7.15625 -9.40625 7.8125 -9.15625 8.28125 -8.65625 C 8.757812 -8.15625 9 -7.445312 9 -6.53125 L 9 0 L 6.25 0 L 6.25 -5.828125 C 6.25 -6.253906 6.140625 -6.585938 5.921875 -6.828125 C 5.710938 -7.066406 5.414062 -7.1875 5.03125 -7.1875 C 4.539062 -7.1875 4.144531 -7.023438 3.84375 -6.703125 C 3.550781 -6.390625 3.40625 -5.953125 3.40625 -5.390625 L 3.40625 0 Z M 0.6875 0 "/></g></g></g><g fill="#0661aa" fill-opacity="1"><g transform="translate(88.193295, 110.443482)"><g><path d="M 2.109375 -10.4375 C 1.617188 -10.4375 1.226562 -10.578125 0.9375 -10.859375 C 0.644531 -11.148438 0.5 -11.523438 0.5 -11.984375 C 0.5 -12.460938 0.644531 -12.84375 0.9375 -13.125 C 1.226562 -13.414062 1.617188 -13.5625 2.109375 -13.5625 C 2.597656 -13.5625 2.988281 -13.414062 3.28125 -13.125 C 3.582031 -12.84375 3.734375 -12.460938 3.734375 -11.984375 C 3.734375 -11.523438 3.582031 -11.148438 3.28125 -10.859375 C 2.988281 -10.578125 2.597656 -10.4375 2.109375 -10.4375 Z M 0.734375 0 L 0.734375 -9.171875 L 3.484375 -9.171875 L 3.484375 0 Z M 0.734375 0 "/></g></g></g><g fill="#0661aa" fill-opacity="1"><g transform="translate(94.535785, 110.443482)"><g><path d="M 6.25 -9.40625 C 7.101562 -9.40625 7.773438 -9.148438 8.265625 -8.640625 C 8.753906 -8.140625 9 -7.4375 9 -6.53125 L 9 0 L 6.25 0 L 6.25 -5.828125 C 6.25 -6.253906 6.140625 -6.585938 5.921875 -6.828125 C 5.710938 -7.066406 5.414062 -7.1875 5.03125 -7.1875 C 4.539062 -7.1875 4.144531 -7.023438 3.84375 -6.703125 C 3.550781 -6.390625 3.40625 -5.953125 3.40625 -5.390625 L 3.40625 0 L 0.6875 0 L 0.6875 -9.171875 L 2.9375 -9.171875 L 3.3125 -7.609375 L 3.328125 -7.609375 C 3.609375 -8.191406 4.003906 -8.632812 4.515625 -8.9375 C 5.023438 -9.25 5.601562 -9.40625 6.25 -9.40625 Z M 6.25 -9.40625 "/></g></g></g><g fill="#0661aa" fill-opacity="1"><g transform="translate(106.271167, 110.443482)"><g><path d="M 4.359375 4.0625 C 3.460938 4.0625 2.613281 3.910156 1.8125 3.609375 C 1.019531 3.316406 0.382812 2.914062 -0.09375 2.40625 L 0.96875 0.4375 C 1.332031 0.851562 1.789062 1.1875 2.34375 1.4375 C 2.90625 1.695312 3.472656 1.828125 4.046875 1.828125 C 4.867188 1.828125 5.523438 1.597656 6.015625 1.140625 C 6.503906 0.679688 6.75 0.0546875 6.75 -0.734375 L 6.75 -1.65625 L 6.734375 -1.65625 C 6.472656 -1.132812 6.09375 -0.71875 5.59375 -0.40625 C 5.09375 -0.101562 4.546875 0.046875 3.953125 0.046875 C 3.242188 0.046875 2.625 -0.140625 2.09375 -0.515625 C 1.5625 -0.898438 1.144531 -1.441406 0.84375 -2.140625 C 0.550781 -2.835938 0.40625 -3.660156 0.40625 -4.609375 C 0.40625 -5.597656 0.546875 -6.453125 0.828125 -7.171875 C 1.117188 -7.898438 1.523438 -8.457031 2.046875 -8.84375 C 2.578125 -9.238281 3.195312 -9.4375 3.90625 -9.4375 C 4.53125 -9.4375 5.097656 -9.269531 5.609375 -8.9375 C 6.117188 -8.601562 6.5 -8.15625 6.75 -7.59375 L 6.78125 -7.59375 L 7.09375 -9.171875 L 9.5 -9.171875 L 9.5 -0.703125 C 9.5 0.285156 9.289062 1.140625 8.875 1.859375 C 8.457031 2.578125 7.863281 3.125 7.09375 3.5 C 6.320312 3.875 5.410156 4.0625 4.359375 4.0625 Z M 5.015625 -2.1875 C 5.578125 -2.1875 6.023438 -2.410156 6.359375 -2.859375 C 6.691406 -3.304688 6.859375 -3.90625 6.859375 -4.65625 C 6.859375 -5.40625 6.691406 -6.007812 6.359375 -6.46875 C 6.023438 -6.925781 5.578125 -7.15625 5.015625 -7.15625 C 4.453125 -7.15625 4 -6.929688 3.65625 -6.484375 C 3.320312 -6.035156 3.15625 -5.425781 3.15625 -4.65625 C 3.15625 -3.894531 3.320312 -3.289062 3.65625 -2.84375 C 4 -2.40625 4.453125 -2.1875 5.015625 -2.1875 Z M 5.015625 -2.1875 "/></g></g></g><g fill="#2d6d5e" fill-opacity="1"><g transform="translate(12.807584, 132.524709)"><g><path d="M 0.8125 -7.8125 L 2.515625 -7.8125 C 3.191406 -7.8125 3.703125 -7.65625 4.046875 -7.34375 C 4.398438 -7.03125 4.578125 -6.5625 4.578125 -5.9375 C 4.578125 -5.601562 4.535156 -5.3125 4.453125 -5.0625 C 4.367188 -4.8125 4.242188 -4.609375 4.078125 -4.453125 C 3.910156 -4.296875 3.703125 -4.191406 3.453125 -4.140625 L 3.453125 -4.09375 C 3.742188 -4.019531 3.984375 -3.90625 4.171875 -3.75 C 4.359375 -3.59375 4.5 -3.382812 4.59375 -3.125 C 4.6875 -2.875 4.734375 -2.578125 4.734375 -2.234375 C 4.734375 -1.785156 4.65625 -1.394531 4.5 -1.0625 C 4.351562 -0.726562 4.128906 -0.46875 3.828125 -0.28125 C 3.535156 -0.09375 3.179688 0 2.765625 0 L 0.8125 0 Z M 1.65625 -4.4375 L 2.5 -4.4375 C 2.925781 -4.4375 3.234375 -4.554688 3.421875 -4.796875 C 3.617188 -5.035156 3.71875 -5.390625 3.71875 -5.859375 C 3.71875 -6.253906 3.613281 -6.554688 3.40625 -6.765625 C 3.207031 -6.972656 2.898438 -7.078125 2.484375 -7.078125 L 1.65625 -7.078125 Z M 1.65625 -3.71875 L 1.65625 -0.75 L 2.671875 -0.75 C 3.054688 -0.75 3.347656 -0.875 3.546875 -1.125 C 3.753906 -1.375 3.859375 -1.757812 3.859375 -2.28125 C 3.859375 -2.59375 3.804688 -2.851562 3.703125 -3.0625 C 3.597656 -3.28125 3.445312 -3.441406 3.25 -3.546875 C 3.0625 -3.660156 2.832031 -3.71875 2.5625 -3.71875 Z M 1.65625 -3.71875 "/></g></g></g><g fill="#2d6d5e" fill-opacity="1"><g transform="translate(19.50657, 132.524709)"><g><path d="M 2.671875 -5.96875 C 2.753906 -5.96875 2.835938 -5.957031 2.921875 -5.9375 C 3.003906 -5.925781 3.085938 -5.910156 3.171875 -5.890625 L 3.046875 -5.046875 C 2.984375 -5.066406 2.914062 -5.082031 2.84375 -5.09375 C 2.769531 -5.101562 2.691406 -5.109375 2.609375 -5.109375 C 2.453125 -5.109375 2.304688 -5.054688 2.171875 -4.953125 C 2.035156 -4.847656 1.921875 -4.703125 1.828125 -4.515625 C 1.734375 -4.328125 1.660156 -4.109375 1.609375 -3.859375 C 1.554688 -3.609375 1.53125 -3.34375 1.53125 -3.0625 L 1.53125 0 L 0.71875 0 L 0.71875 -5.859375 L 1.359375 -5.859375 L 1.46875 -4.828125 L 1.515625 -4.828125 C 1.597656 -5.046875 1.691406 -5.238281 1.796875 -5.40625 C 1.910156 -5.582031 2.039062 -5.71875 2.1875 -5.8125 C 2.332031 -5.914062 2.492188 -5.96875 2.671875 -5.96875 Z M 2.671875 -5.96875 "/></g></g></g><g fill="#2d6d5e" fill-opacity="1"><g transform="translate(24.319678, 132.524709)"><g><path d="M 2.328125 -5.953125 C 2.722656 -5.953125 3.050781 -5.835938 3.3125 -5.609375 C 3.570312 -5.378906 3.765625 -5.066406 3.890625 -4.671875 C 4.015625 -4.285156 4.078125 -3.851562 4.078125 -3.375 L 4.078125 -2.78125 L 1.28125 -2.78125 C 1.289062 -2.050781 1.40625 -1.503906 1.625 -1.140625 C 1.84375 -0.773438 2.171875 -0.59375 2.609375 -0.59375 C 2.828125 -0.59375 3.035156 -0.625 3.234375 -0.6875 C 3.441406 -0.75 3.648438 -0.851562 3.859375 -1 L 3.859375 -0.265625 C 3.660156 -0.140625 3.453125 -0.046875 3.234375 0.015625 C 3.015625 0.078125 2.78125 0.109375 2.53125 0.109375 C 2.039062 0.109375 1.644531 -0.0195312 1.34375 -0.28125 C 1.039062 -0.539062 0.816406 -0.898438 0.671875 -1.359375 C 0.535156 -1.816406 0.46875 -2.332031 0.46875 -2.90625 C 0.46875 -3.550781 0.535156 -4.101562 0.671875 -4.5625 C 0.816406 -5.019531 1.023438 -5.363281 1.296875 -5.59375 C 1.578125 -5.832031 1.921875 -5.953125 2.328125 -5.953125 Z M 2.328125 -5.28125 C 2.015625 -5.28125 1.769531 -5.128906 1.59375 -4.828125 C 1.425781 -4.535156 1.328125 -4.070312 1.296875 -3.4375 L 3.3125 -3.4375 C 3.3125 -3.769531 3.273438 -4.078125 3.203125 -4.359375 C 3.140625 -4.640625 3.035156 -4.863281 2.890625 -5.03125 C 2.742188 -5.195312 2.554688 -5.28125 2.328125 -5.28125 Z M 2.328125 -5.28125 "/></g></g></g><g fill="#2d6d5e" fill-opacity="1"><g transform="translate(30.377572, 132.524709)"><g><path d="M 2.28125 -5.96875 C 2.820312 -5.96875 3.207031 -5.796875 3.4375 -5.453125 C 3.675781 -5.109375 3.796875 -4.609375 3.796875 -3.953125 L 3.796875 0 L 3.171875 0 L 3.046875 -0.828125 L 3.015625 -0.828125 C 2.929688 -0.628906 2.820312 -0.457031 2.6875 -0.3125 C 2.5625 -0.175781 2.414062 -0.0703125 2.25 0 C 2.09375 0.0703125 1.90625 0.109375 1.6875 0.109375 C 1.382812 0.109375 1.132812 0.03125 0.9375 -0.125 C 0.75 -0.289062 0.609375 -0.503906 0.515625 -0.765625 C 0.421875 -1.023438 0.375 -1.304688 0.375 -1.609375 C 0.375 -2.191406 0.539062 -2.640625 0.875 -2.953125 C 1.21875 -3.273438 1.695312 -3.453125 2.3125 -3.484375 L 2.96875 -3.53125 L 2.96875 -3.9375 C 2.96875 -4.40625 2.90625 -4.742188 2.78125 -4.953125 C 2.65625 -5.171875 2.445312 -5.28125 2.15625 -5.28125 C 2 -5.28125 1.828125 -5.25 1.640625 -5.1875 C 1.460938 -5.132812 1.269531 -5.046875 1.0625 -4.921875 L 0.796875 -5.546875 C 1.015625 -5.691406 1.25 -5.796875 1.5 -5.859375 C 1.757812 -5.929688 2.019531 -5.96875 2.28125 -5.96875 Z M 2.984375 -2.921875 L 2.4375 -2.890625 C 2.03125 -2.867188 1.722656 -2.753906 1.515625 -2.546875 C 1.316406 -2.335938 1.21875 -2.035156 1.21875 -1.640625 C 1.21875 -1.265625 1.28125 -0.988281 1.40625 -0.8125 C 1.539062 -0.644531 1.722656 -0.5625 1.953125 -0.5625 C 2.285156 -0.5625 2.539062 -0.71875 2.71875 -1.03125 C 2.894531 -1.34375 2.984375 -1.773438 2.984375 -2.328125 Z M 2.984375 -2.921875 "/></g></g></g><g fill="#2d6d5e" fill-opacity="1"><g transform="translate(36.403412, 132.524709)"><g><path d="M 2.09375 -0.625 C 2.1875 -0.625 2.273438 -0.628906 2.359375 -0.640625 C 2.453125 -0.660156 2.535156 -0.691406 2.609375 -0.734375 L 2.609375 -0.0625 C 2.503906 -0.0078125 2.382812 0.03125 2.25 0.0625 C 2.125 0.09375 1.984375 0.109375 1.828125 0.109375 C 1.578125 0.109375 1.367188 0.0507812 1.203125 -0.0625 C 1.046875 -0.175781 0.925781 -0.34375 0.84375 -0.5625 C 0.769531 -0.789062 0.734375 -1.078125 0.734375 -1.421875 L 0.734375 -5.171875 L 0.1875 -5.171875 L 0.1875 -5.625 L 0.78125 -5.84375 L 1 -7.1875 L 1.5625 -7.1875 L 1.5625 -5.859375 L 2.546875 -5.859375 L 2.546875 -5.171875 L 1.5625 -5.171875 L 1.5625 -1.515625 C 1.5625 -1.210938 1.597656 -0.988281 1.671875 -0.84375 C 1.742188 -0.695312 1.882812 -0.625 2.09375 -0.625 Z M 2.09375 -0.625 "/></g></g></g><g fill="#2d6d5e" fill-opacity="1"><g transform="translate(40.708989, 132.524709)"><g><path d="M 1.53125 -8.3125 L 1.53125 -5.890625 C 1.53125 -5.734375 1.523438 -5.582031 1.515625 -5.4375 C 1.515625 -5.300781 1.503906 -5.164062 1.484375 -5.03125 L 1.53125 -5.03125 C 1.601562 -5.226562 1.703125 -5.394531 1.828125 -5.53125 C 1.960938 -5.664062 2.113281 -5.769531 2.28125 -5.84375 C 2.445312 -5.925781 2.625 -5.96875 2.8125 -5.96875 C 3.144531 -5.96875 3.414062 -5.890625 3.625 -5.734375 C 3.832031 -5.585938 3.984375 -5.367188 4.078125 -5.078125 C 4.179688 -4.785156 4.234375 -4.421875 4.234375 -3.984375 L 4.234375 0 L 3.40625 0 L 3.40625 -3.828125 C 3.40625 -4.328125 3.34375 -4.6875 3.21875 -4.90625 C 3.101562 -5.125 2.910156 -5.234375 2.640625 -5.234375 C 2.390625 -5.234375 2.179688 -5.15625 2.015625 -5 C 1.859375 -4.851562 1.738281 -4.617188 1.65625 -4.296875 C 1.570312 -3.972656 1.53125 -3.566406 1.53125 -3.078125 L 1.53125 0 L 0.71875 0 L 0.71875 -8.3125 Z M 1.53125 -8.3125 "/></g></g></g><g fill="#2d6d5e" fill-opacity="1"><g transform="translate(47.172908, 132.524709)"><g><path d="M 2.328125 -5.953125 C 2.722656 -5.953125 3.050781 -5.835938 3.3125 -5.609375 C 3.570312 -5.378906 3.765625 -5.066406 3.890625 -4.671875 C 4.015625 -4.285156 4.078125 -3.851562 4.078125 -3.375 L 4.078125 -2.78125 L 1.28125 -2.78125 C 1.289062 -2.050781 1.40625 -1.503906 1.625 -1.140625 C 1.84375 -0.773438 2.171875 -0.59375 2.609375 -0.59375 C 2.828125 -0.59375 3.035156 -0.625 3.234375 -0.6875 C 3.441406 -0.75 3.648438 -0.851562 3.859375 -1 L 3.859375 -0.265625 C 3.660156 -0.140625 3.453125 -0.046875 3.234375 0.015625 C 3.015625 0.078125 2.78125 0.109375 2.53125 0.109375 C 2.039062 0.109375 1.644531 -0.0195312 1.34375 -0.28125 C 1.039062 -0.539062 0.816406 -0.898438 0.671875 -1.359375 C 0.535156 -1.816406 0.46875 -2.332031 0.46875 -2.90625 C 0.46875 -3.550781 0.535156 -4.101562 0.671875 -4.5625 C 0.816406 -5.019531 1.023438 -5.363281 1.296875 -5.59375 C 1.578125 -5.832031 1.921875 -5.953125 2.328125 -5.953125 Z M 2.328125 -5.28125 C 2.015625 -5.28125 1.769531 -5.128906 1.59375 -4.828125 C 1.425781 -4.535156 1.328125 -4.070312 1.296875 -3.4375 L 3.3125 -3.4375 C 3.3125 -3.769531 3.273438 -4.078125 3.203125 -4.359375 C 3.140625 -4.640625 3.035156 -4.863281 2.890625 -5.03125 C 2.742188 -5.195312 2.554688 -5.28125 2.328125 -5.28125 Z M 2.328125 -5.28125 "/></g></g></g><g fill="#2d6d5e" fill-opacity="1"><g transform="translate(53.230803, 132.524709)"><g/></g></g><g fill="#2d6d5e" fill-opacity="1"><g transform="translate(56.793782, 132.524709)"><g><path d="M 1.53125 0 L 0.71875 0 L 0.71875 -8.3125 L 1.53125 -8.3125 Z M 1.53125 0 "/></g></g></g><g fill="#2d6d5e" fill-opacity="1"><g transform="translate(60.570459, 132.524709)"><g><path d="M 1.546875 -5.859375 L 1.546875 0 L 0.71875 0 L 0.71875 -5.859375 Z M 1.140625 -8.0625 C 1.316406 -8.0625 1.441406 -8.007812 1.515625 -7.90625 C 1.585938 -7.800781 1.625 -7.648438 1.625 -7.453125 C 1.625 -7.273438 1.582031 -7.128906 1.5 -7.015625 C 1.425781 -6.910156 1.304688 -6.859375 1.140625 -6.859375 C 0.992188 -6.859375 0.875 -6.910156 0.78125 -7.015625 C 0.695312 -7.128906 0.65625 -7.273438 0.65625 -7.453125 C 0.65625 -7.648438 0.695312 -7.800781 0.78125 -7.90625 C 0.863281 -8.007812 0.984375 -8.0625 1.140625 -8.0625 Z M 1.140625 -8.0625 "/></g></g></g><g fill="#2d6d5e" fill-opacity="1"><g transform="translate(64.368505, 132.524709)"><g><path d="M 1.53125 -8.3125 L 1.53125 -4.15625 C 1.53125 -3.945312 1.523438 -3.742188 1.515625 -3.546875 C 1.515625 -3.359375 1.503906 -3.164062 1.484375 -2.96875 L 1.53125 -2.96875 C 1.59375 -3.082031 1.648438 -3.195312 1.703125 -3.3125 C 1.765625 -3.425781 1.832031 -3.53125 1.90625 -3.625 L 3.234375 -5.859375 L 4.125 -5.859375 L 2.71875 -3.609375 L 4.234375 0 L 3.34375 0 L 2.15625 -2.953125 L 1.53125 -2.171875 L 1.53125 0 L 0.71875 0 L 0.71875 -8.3125 Z M 1.53125 -8.3125 "/></g></g></g><g fill="#2d6d5e" fill-opacity="1"><g transform="translate(70.175305, 132.524709)"><g><path d="M 2.328125 -5.953125 C 2.722656 -5.953125 3.050781 -5.835938 3.3125 -5.609375 C 3.570312 -5.378906 3.765625 -5.066406 3.890625 -4.671875 C 4.015625 -4.285156 4.078125 -3.851562 4.078125 -3.375 L 4.078125 -2.78125 L 1.28125 -2.78125 C 1.289062 -2.050781 1.40625 -1.503906 1.625 -1.140625 C 1.84375 -0.773438 2.171875 -0.59375 2.609375 -0.59375 C 2.828125 -0.59375 3.035156 -0.625 3.234375 -0.6875 C 3.441406 -0.75 3.648438 -0.851562 3.859375 -1 L 3.859375 -0.265625 C 3.660156 -0.140625 3.453125 -0.046875 3.234375 0.015625 C 3.015625 0.078125 2.78125 0.109375 2.53125 0.109375 C 2.039062 0.109375 1.644531 -0.0195312 1.34375 -0.28125 C 1.039062 -0.539062 0.816406 -0.898438 0.671875 -1.359375 C 0.535156 -1.816406 0.46875 -2.332031 0.46875 -2.90625 C 0.46875 -3.550781 0.535156 -4.101562 0.671875 -4.5625 C 0.816406 -5.019531 1.023438 -5.363281 1.296875 -5.59375 C 1.578125 -5.832031 1.921875 -5.953125 2.328125 -5.953125 Z M 2.328125 -5.28125 C 2.015625 -5.28125 1.769531 -5.128906 1.59375 -4.828125 C 1.425781 -4.535156 1.328125 -4.070312 1.296875 -3.4375 L 3.3125 -3.4375 C 3.3125 -3.769531 3.273438 -4.078125 3.203125 -4.359375 C 3.140625 -4.640625 3.035156 -4.863281 2.890625 -5.03125 C 2.742188 -5.195312 2.554688 -5.28125 2.328125 -5.28125 Z M 2.328125 -5.28125 "/></g></g></g><g fill="#2d6d5e" fill-opacity="1"><g transform="translate(76.233199, 132.524709)"><g/></g></g><g fill="#2d6d5e" fill-opacity="1"><g transform="translate(79.796179, 132.524709)"><g><path d="M 2.28125 -5.96875 C 2.820312 -5.96875 3.207031 -5.796875 3.4375 -5.453125 C 3.675781 -5.109375 3.796875 -4.609375 3.796875 -3.953125 L 3.796875 0 L 3.171875 0 L 3.046875 -0.828125 L 3.015625 -0.828125 C 2.929688 -0.628906 2.820312 -0.457031 2.6875 -0.3125 C 2.5625 -0.175781 2.414062 -0.0703125 2.25 0 C 2.09375 0.0703125 1.90625 0.109375 1.6875 0.109375 C 1.382812 0.109375 1.132812 0.03125 0.9375 -0.125 C 0.75 -0.289062 0.609375 -0.503906 0.515625 -0.765625 C 0.421875 -1.023438 0.375 -1.304688 0.375 -1.609375 C 0.375 -2.191406 0.539062 -2.640625 0.875 -2.953125 C 1.21875 -3.273438 1.695312 -3.453125 2.3125 -3.484375 L 2.96875 -3.53125 L 2.96875 -3.9375 C 2.96875 -4.40625 2.90625 -4.742188 2.78125 -4.953125 C 2.65625 -5.171875 2.445312 -5.28125 2.15625 -5.28125 C 2 -5.28125 1.828125 -5.25 1.640625 -5.1875 C 1.460938 -5.132812 1.269531 -5.046875 1.0625 -4.921875 L 0.796875 -5.546875 C 1.015625 -5.691406 1.25 -5.796875 1.5 -5.859375 C 1.757812 -5.929688 2.019531 -5.96875 2.28125 -5.96875 Z M 2.984375 -2.921875 L 2.4375 -2.890625 C 2.03125 -2.867188 1.722656 -2.753906 1.515625 -2.546875 C 1.316406 -2.335938 1.21875 -2.035156 1.21875 -1.640625 C 1.21875 -1.265625 1.28125 -0.988281 1.40625 -0.8125 C 1.539062 -0.644531 1.722656 -0.5625 1.953125 -0.5625 C 2.285156 -0.5625 2.539062 -0.71875 2.71875 -1.03125 C 2.894531 -1.34375 2.984375 -1.773438 2.984375 -2.328125 Z M 2.984375 -2.921875 "/></g></g></g><g fill="#2d6d5e" fill-opacity="1"><g transform="translate(85.822018, 132.524709)"><g/></g></g><g fill="#2d6d5e" fill-opacity="1"><g transform="translate(89.384998, 132.524709)"><g><path d="M 1.53125 -8.3125 L 1.53125 -5.859375 C 1.53125 -5.742188 1.523438 -5.613281 1.515625 -5.46875 C 1.515625 -5.332031 1.515625 -5.1875 1.515625 -5.03125 L 1.546875 -5.03125 C 1.691406 -5.34375 1.875 -5.570312 2.09375 -5.71875 C 2.3125 -5.875 2.5625 -5.953125 2.84375 -5.953125 C 3.40625 -5.953125 3.832031 -5.695312 4.125 -5.1875 C 4.414062 -4.675781 4.5625 -3.925781 4.5625 -2.9375 C 4.5625 -2.28125 4.492188 -1.722656 4.359375 -1.265625 C 4.234375 -0.816406 4.039062 -0.472656 3.78125 -0.234375 C 3.53125 -0.00390625 3.226562 0.109375 2.875 0.109375 C 2.582031 0.109375 2.328125 0.0351562 2.109375 -0.109375 C 1.890625 -0.253906 1.703125 -0.476562 1.546875 -0.78125 L 1.5 -0.78125 L 1.390625 0 L 0.71875 0 L 0.71875 -8.3125 Z M 2.671875 -5.234375 C 2.367188 -5.234375 2.132812 -5.140625 1.96875 -4.953125 C 1.8125 -4.765625 1.695312 -4.503906 1.625 -4.171875 C 1.5625 -3.835938 1.53125 -3.457031 1.53125 -3.03125 L 1.53125 -2.78125 C 1.53125 -2.039062 1.625 -1.492188 1.8125 -1.140625 C 2.007812 -0.785156 2.296875 -0.609375 2.671875 -0.609375 C 3.023438 -0.609375 3.285156 -0.796875 3.453125 -1.171875 C 3.628906 -1.554688 3.71875 -2.148438 3.71875 -2.953125 C 3.71875 -3.703125 3.632812 -4.269531 3.46875 -4.65625 C 3.300781 -5.039062 3.035156 -5.234375 2.671875 -5.234375 Z M 2.671875 -5.234375 "/></g></g></g><g fill="#2d6d5e" fill-opacity="1"><g transform="translate(95.923711, 132.524709)"><g><path d="M 2.671875 -5.96875 C 2.753906 -5.96875 2.835938 -5.957031 2.921875 -5.9375 C 3.003906 -5.925781 3.085938 -5.910156 3.171875 -5.890625 L 3.046875 -5.046875 C 2.984375 -5.066406 2.914062 -5.082031 2.84375 -5.09375 C 2.769531 -5.101562 2.691406 -5.109375 2.609375 -5.109375 C 2.453125 -5.109375 2.304688 -5.054688 2.171875 -4.953125 C 2.035156 -4.847656 1.921875 -4.703125 1.828125 -4.515625 C 1.734375 -4.328125 1.660156 -4.109375 1.609375 -3.859375 C 1.554688 -3.609375 1.53125 -3.34375 1.53125 -3.0625 L 1.53125 0 L 0.71875 0 L 0.71875 -5.859375 L 1.359375 -5.859375 L 1.46875 -4.828125 L 1.515625 -4.828125 C 1.597656 -5.046875 1.691406 -5.238281 1.796875 -5.40625 C 1.910156 -5.582031 2.039062 -5.71875 2.1875 -5.8125 C 2.332031 -5.914062 2.492188 -5.96875 2.671875 -5.96875 Z M 2.671875 -5.96875 "/></g></g></g><g fill="#2d6d5e" fill-opacity="1"><g transform="translate(100.736819, 132.524709)"><g><path d="M 2.328125 -5.953125 C 2.722656 -5.953125 3.050781 -5.835938 3.3125 -5.609375 C 3.570312 -5.378906 3.765625 -5.066406 3.890625 -4.671875 C 4.015625 -4.285156 4.078125 -3.851562 4.078125 -3.375 L 4.078125 -2.78125 L 1.28125 -2.78125 C 1.289062 -2.050781 1.40625 -1.503906 1.625 -1.140625 C 1.84375 -0.773438 2.171875 -0.59375 2.609375 -0.59375 C 2.828125 -0.59375 3.035156 -0.625 3.234375 -0.6875 C 3.441406 -0.75 3.648438 -0.851562 3.859375 -1 L 3.859375 -0.265625 C 3.660156 -0.140625 3.453125 -0.046875 3.234375 0.015625 C 3.015625 0.078125 2.78125 0.109375 2.53125 0.109375 C 2.039062 0.109375 1.644531 -0.0195312 1.34375 -0.28125 C 1.039062 -0.539062 0.816406 -0.898438 0.671875 -1.359375 C 0.535156 -1.816406 0.46875 -2.332031 0.46875 -2.90625 C 0.46875 -3.550781 0.535156 -4.101562 0.671875 -4.5625 C 0.816406 -5.019531 1.023438 -5.363281 1.296875 -5.59375 C 1.578125 -5.832031 1.921875 -5.953125 2.328125 -5.953125 Z M 2.328125 -5.28125 C 2.015625 -5.28125 1.769531 -5.128906 1.59375 -4.828125 C 1.425781 -4.535156 1.328125 -4.070312 1.296875 -3.4375 L 3.3125 -3.4375 C 3.3125 -3.769531 3.273438 -4.078125 3.203125 -4.359375 C 3.140625 -4.640625 3.035156 -4.863281 2.890625 -5.03125 C 2.742188 -5.195312 2.554688 -5.28125 2.328125 -5.28125 Z M 2.328125 -5.28125 "/></g></g></g><g fill="#2d6d5e" fill-opacity="1"><g transform="translate(106.794713, 132.524709)"><g><path d="M 2.328125 -5.953125 C 2.722656 -5.953125 3.050781 -5.835938 3.3125 -5.609375 C 3.570312 -5.378906 3.765625 -5.066406 3.890625 -4.671875 C 4.015625 -4.285156 4.078125 -3.851562 4.078125 -3.375 L 4.078125 -2.78125 L 1.28125 -2.78125 C 1.289062 -2.050781 1.40625 -1.503906 1.625 -1.140625 C 1.84375 -0.773438 2.171875 -0.59375 2.609375 -0.59375 C 2.828125 -0.59375 3.035156 -0.625 3.234375 -0.6875 C 3.441406 -0.75 3.648438 -0.851562 3.859375 -1 L 3.859375 -0.265625 C 3.660156 -0.140625 3.453125 -0.046875 3.234375 0.015625 C 3.015625 0.078125 2.78125 0.109375 2.53125 0.109375 C 2.039062 0.109375 1.644531 -0.0195312 1.34375 -0.28125 C 1.039062 -0.539062 0.816406 -0.898438 0.671875 -1.359375 C 0.535156 -1.816406 0.46875 -2.332031 0.46875 -2.90625 C 0.46875 -3.550781 0.535156 -4.101562 0.671875 -4.5625 C 0.816406 -5.019531 1.023438 -5.363281 1.296875 -5.59375 C 1.578125 -5.832031 1.921875 -5.953125 2.328125 -5.953125 Z M 2.328125 -5.28125 C 2.015625 -5.28125 1.769531 -5.128906 1.59375 -4.828125 C 1.425781 -4.535156 1.328125 -4.070312 1.296875 -3.4375 L 3.3125 -3.4375 C 3.3125 -3.769531 3.273438 -4.078125 3.203125 -4.359375 C 3.140625 -4.640625 3.035156 -4.863281 2.890625 -5.03125 C 2.742188 -5.195312 2.554688 -5.28125 2.328125 -5.28125 Z M 2.328125 -5.28125 "/></g></g></g><g fill="#2d6d5e" fill-opacity="1"><g transform="translate(112.852608, 132.524709)"><g><path d="M 3.03125 0 L 0.28125 0 L 0.28125 -0.5625 L 2.0625 -5.15625 L 0.390625 -5.15625 L 0.390625 -5.859375 L 2.953125 -5.859375 L 2.953125 -5.265625 L 1.1875 -0.703125 L 3.03125 -0.703125 Z M 3.03125 0 "/></g></g></g><g fill="#2d6d5e" fill-opacity="1"><g transform="translate(117.649688, 132.524709)"><g><path d="M 2.328125 -5.953125 C 2.722656 -5.953125 3.050781 -5.835938 3.3125 -5.609375 C 3.570312 -5.378906 3.765625 -5.066406 3.890625 -4.671875 C 4.015625 -4.285156 4.078125 -3.851562 4.078125 -3.375 L 4.078125 -2.78125 L 1.28125 -2.78125 C 1.289062 -2.050781 1.40625 -1.503906 1.625 -1.140625 C 1.84375 -0.773438 2.171875 -0.59375 2.609375 -0.59375 C 2.828125 -0.59375 3.035156 -0.625 3.234375 -0.6875 C 3.441406 -0.75 3.648438 -0.851562 3.859375 -1 L 3.859375 -0.265625 C 3.660156 -0.140625 3.453125 -0.046875 3.234375 0.015625 C 3.015625 0.078125 2.78125 0.109375 2.53125 0.109375 C 2.039062 0.109375 1.644531 -0.0195312 1.34375 -0.28125 C 1.039062 -0.539062 0.816406 -0.898438 0.671875 -1.359375 C 0.535156 -1.816406 0.46875 -2.332031 0.46875 -2.90625 C 0.46875 -3.550781 0.535156 -4.101562 0.671875 -4.5625 C 0.816406 -5.019531 1.023438 -5.363281 1.296875 -5.59375 C 1.578125 -5.832031 1.921875 -5.953125 2.328125 -5.953125 Z M 2.328125 -5.28125 C 2.015625 -5.28125 1.769531 -5.128906 1.59375 -4.828125 C 1.425781 -4.535156 1.328125 -4.070312 1.296875 -3.4375 L 3.3125 -3.4375 C 3.3125 -3.769531 3.273438 -4.078125 3.203125 -4.359375 C 3.140625 -4.640625 3.035156 -4.863281 2.890625 -5.03125 C 2.742188 -5.195312 2.554688 -5.28125 2.328125 -5.28125 Z M 2.328125 -5.28125 "/></g></g></g><g clip-path="url(#19e9b8b71b)"><g clip-path="url(#7cd3e04ed6)"><g clip-path="url(#4d1cc9aafb)"><path fill="#0661aa" d="M 48.597656 68.308594 C 46.964844 68.554688 45.300781 68.703125 43.621094 68.753906 C 43.382812 68.761719 43.175781 68.570312 43.171875 68.328125 C 43.167969 68.082031 43.363281 67.882812 43.601562 67.871094 C 61.640625 67.359375 77.503906 54.816406 82.175781 37.386719 C 82.238281 37.148438 82.480469 37.011719 82.710938 37.074219 C 82.949219 37.136719 83.089844 37.375 83.023438 37.613281 C 78.6875 53.792969 64.90625 65.847656 48.597656 68.308594 " fill-opacity="1" fill-rule="nonzero"/></g></g></g><g clip-path="url(#0bc9f09c4e)"><g clip-path="url(#3f40dedf8f)"><g clip-path="url(#f6cab42fa3)"><path fill="#0661aa" d="M 48.28125 68.355469 C 48.128906 68.378906 47.972656 68.320312 47.867188 68.1875 C 47.71875 67.996094 47.757812 67.71875 47.953125 67.570312 C 48.007812 67.527344 48.058594 67.484375 48.109375 67.4375 L 48.179688 67.375 C 49.800781 65.90625 50.839844 63.902344 51.09375 61.722656 C 51.121094 61.484375 51.339844 61.3125 51.582031 61.339844 C 51.824219 61.367188 51.996094 61.582031 51.964844 61.828125 C 51.6875 64.21875 50.550781 66.421875 48.765625 68.03125 L 48.695312 68.09375 C 48.625 68.15625 48.558594 68.214844 48.484375 68.269531 C 48.425781 68.316406 48.359375 68.34375 48.28125 68.355469 " fill-opacity="1" fill-rule="nonzero"/></g></g></g><g clip-path="url(#9c070ae2b6)"><g clip-path="url(#a9b67d23a7)"><g clip-path="url(#b8cfba2152)"><path fill="#0661aa" d="M 56.65625 72.132812 C 56.519531 72.15625 56.371094 72.109375 56.269531 72 C 54.359375 69.992188 51.792969 68.648438 49.046875 68.21875 C 48.804688 68.183594 48.644531 67.957031 48.679688 67.71875 C 48.71875 67.476562 48.941406 67.3125 49.183594 67.351562 C 52.121094 67.808594 54.863281 69.246094 56.910156 71.398438 C 57.078125 71.570312 57.066406 71.847656 56.890625 72.019531 C 56.824219 72.082031 56.738281 72.121094 56.65625 72.132812 " fill-opacity="1" fill-rule="nonzero"/></g></g></g><g clip-path="url(#88ecdaf4d1)"><g clip-path="url(#760d53d3d0)"><g clip-path="url(#34e85befb7)"><path fill="#0661aa" d="M 65.390625 69.285156 C 60.648438 70 58.71875 69.136719 58.621094 69.089844 C 58.398438 68.988281 58.304688 68.726562 58.410156 68.503906 C 58.511719 68.285156 58.773438 68.191406 58.992188 68.292969 C 59.046875 68.316406 61.914062 69.523438 69.273438 67.5625 C 80.453125 64.582031 85.847656 56.585938 88.421875 50.21875 C 86.863281 49.796875 85.363281 49.160156 83.949219 48.324219 C 83.785156 48.226562 83.699219 48.03125 83.75 47.839844 C 83.792969 47.652344 83.957031 47.515625 84.152344 47.507812 C 86.355469 47.394531 88.476562 46.53125 90.132812 45.074219 C 91.375 40.441406 91.753906 36.195312 91.476562 34.378906 C 91.074219 31.695312 90.230469 26.105469 83.699219 27.089844 C 79.148438 27.777344 77.289062 31.457031 75.144531 35.714844 C 73.335938 39.304688 71.285156 43.367188 67.238281 46.4375 C 66.269531 47.132812 65.453125 47.742188 64.742188 48.3125 C 64.179688 51.023438 63.804688 53.769531 63.632812 56.480469 C 63.625 56.652344 63.507812 56.808594 63.347656 56.867188 C 63.183594 56.925781 63.003906 56.886719 62.878906 56.761719 C 61.710938 55.5625 60.863281 54.109375 60.390625 52.523438 C 58.546875 54.800781 57.835938 56.726562 57.140625 58.59375 C 56.542969 60.210938 55.980469 61.730469 54.757812 63.382812 C 54.613281 63.578125 54.339844 63.621094 54.144531 63.476562 C 53.949219 63.332031 53.910156 63.058594 54.054688 62.863281 C 55.195312 61.308594 55.742188 59.84375 56.316406 58.289062 C 57.101562 56.167969 57.914062 53.980469 60.277344 51.289062 C 60.386719 51.167969 60.558594 51.113281 60.71875 51.15625 C 60.882812 51.199219 61.007812 51.332031 61.039062 51.492188 C 61.328125 52.914062 61.941406 54.234375 62.832031 55.371094 C 63.03125 52.910156 63.394531 50.425781 63.914062 47.980469 C 63.933594 47.878906 63.984375 47.792969 64.066406 47.726562 C 64.816406 47.117188 65.683594 46.464844 66.722656 45.730469 C 70.59375 42.792969 72.59375 38.820312 74.355469 35.320312 C 76.613281 30.84375 78.5625 26.976562 83.570312 26.222656 C 90.96875 25.105469 91.972656 31.746094 92.347656 34.246094 C 92.628906 36.109375 92.3125 40.40625 90.953125 45.429688 C 90.929688 45.511719 90.886719 45.585938 90.820312 45.640625 C 89.351562 46.972656 87.539062 47.859375 85.609375 48.222656 C 86.734375 48.773438 87.910156 49.195312 89.117188 49.488281 C 89.238281 49.515625 89.347656 49.597656 89.40625 49.710938 C 89.460938 49.824219 89.46875 49.957031 89.421875 50.074219 C 86.851562 56.707031 81.308594 65.269531 69.5 68.414062 C 67.945312 68.828125 66.582031 69.105469 65.390625 69.285156 " fill-opacity="1" fill-rule="nonzero"/></g></g></g></svg>