<svg xmlns="http://www.w3.org/2000/svg" xmlns:xlink="http://www.w3.org/1999/xlink" width="180" zoomAndPan="magnify" viewBox="0 0 135 161.249994" height="215" preserveAspectRatio="xMidYMid meet" version="1.0"><defs><g/><clipPath id="94e6709e2a"><path d="M 43 31 L 84 31 L 84 64 L 43 64 Z M 43 31 " clip-rule="nonzero"/></clipPath><clipPath id="9813b46867"><path d="M 37.839844 27.464844 L 90.988281 19.449219 L 97.113281 60.050781 L 43.960938 68.066406 Z M 37.839844 27.464844 " clip-rule="nonzero"/></clipPath><clipPath id="a6434ba6eb"><path d="M 37.839844 27.464844 L 90.988281 19.449219 L 97.113281 60.050781 L 43.960938 68.066406 Z M 37.839844 27.464844 " clip-rule="nonzero"/></clipPath><clipPath id="9ed6a68e83"><path d="M 47 55 L 52 55 L 52 63 L 47 63 Z M 47 55 " clip-rule="nonzero"/></clipPath><clipPath id="72bb499196"><path d="M 37.839844 27.464844 L 90.988281 19.449219 L 97.113281 60.050781 L 43.960938 68.066406 Z M 37.839844 27.464844 " clip-rule="nonzero"/></clipPath><clipPath id="ce63090277"><path d="M 37.839844 27.464844 L 90.988281 19.449219 L 97.113281 60.050781 L 43.960938 68.066406 Z M 37.839844 27.464844 " clip-rule="nonzero"/></clipPath><clipPath id="39ffba0725"><path d="M 48 61 L 58 61 L 58 67 L 48 67 Z M 48 61 " clip-rule="nonzero"/></clipPath><clipPath id="c04bb5fef7"><path d="M 37.839844 27.464844 L 90.988281 19.449219 L 97.113281 60.050781 L 43.960938 68.066406 Z M 37.839844 27.464844 " clip-rule="nonzero"/></clipPath><clipPath id="609e42b827"><path d="M 37.839844 27.464844 L 90.988281 19.449219 L 97.113281 60.050781 L 43.960938 68.066406 Z M 37.839844 27.464844 " clip-rule="nonzero"/></clipPath><clipPath id="a1e25e5586"><path d="M 53 20 L 93 20 L 93 64 L 53 64 Z M 53 20 " clip-rule="nonzero"/></clipPath><clipPath id="f0b4418a6d"><path d="M 37.839844 27.464844 L 90.988281 19.449219 L 97.113281 60.050781 L 43.960938 68.066406 Z M 37.839844 27.464844 " clip-rule="nonzero"/></clipPath><clipPath id="91bef8b352"><path d="M 37.839844 27.464844 L 90.988281 19.449219 L 97.113281 60.050781 L 43.960938 68.066406 Z M 37.839844 27.464844 " clip-rule="nonzero"/></clipPath></defs><g fill="#0661aa" fill-opacity="1"><g transform="translate(11.605185, 86.95584)"><g><path d="M 9.625 0.296875 C 8.988281 0.296875 8.46875 0.117188 8.0625 -0.234375 C 7.664062 -0.585938 7.398438 -1.0625 7.265625 -1.65625 L 6.734375 -3.65625 C 6.648438 -4 6.492188 -4.285156 6.265625 -4.515625 C 6.035156 -4.742188 5.757812 -4.859375 5.4375 -4.859375 L 3.953125 -4.859375 L 3.953125 0 L 0.890625 0 L 0.890625 -12.765625 L 6.4375 -12.765625 C 7.925781 -12.765625 9.097656 -12.410156 9.953125 -11.703125 C 10.816406 -10.992188 11.25 -10.019531 11.25 -8.78125 C 11.25 -7.96875 11.007812 -7.253906 10.53125 -6.640625 C 10.0625 -6.035156 9.398438 -5.625 8.546875 -5.40625 L 8.546875 -5.390625 C 8.890625 -5.242188 9.148438 -5.039062 9.328125 -4.78125 C 9.503906 -4.519531 9.632812 -4.210938 9.71875 -3.859375 L 10.09375 -2.34375 C 10.1875 -1.914062 10.390625 -1.703125 10.703125 -1.703125 C 10.960938 -1.703125 11.210938 -1.851562 11.453125 -2.15625 L 12.109375 -0.703125 C 11.816406 -0.390625 11.445312 -0.144531 11 0.03125 C 10.550781 0.207031 10.09375 0.296875 9.625 0.296875 Z M 3.953125 -6.9375 L 6.171875 -6.9375 C 6.773438 -6.9375 7.257812 -7.097656 7.625 -7.421875 C 7.988281 -7.742188 8.171875 -8.171875 8.171875 -8.703125 C 8.171875 -9.265625 7.988281 -9.703125 7.625 -10.015625 C 7.257812 -10.335938 6.773438 -10.5 6.171875 -10.5 L 3.953125 -10.5 Z M 3.953125 -6.9375 "/></g></g></g><g fill="#0661aa" fill-opacity="1"><g transform="translate(25.526407, 86.95584)"><g><path d="M 5.359375 0.296875 C 4.367188 0.296875 3.492188 0.0976562 2.734375 -0.296875 C 1.984375 -0.703125 1.398438 -1.28125 0.984375 -2.03125 C 0.578125 -2.78125 0.375 -3.648438 0.375 -4.640625 C 0.375 -5.617188 0.5625 -6.46875 0.9375 -7.1875 C 1.3125 -7.914062 1.835938 -8.484375 2.515625 -8.890625 C 3.203125 -9.296875 4.003906 -9.5 4.921875 -9.5 C 5.804688 -9.5 6.570312 -9.300781 7.21875 -8.90625 C 7.863281 -8.519531 8.367188 -7.976562 8.734375 -7.28125 C 9.097656 -6.582031 9.28125 -5.765625 9.28125 -4.828125 C 9.28125 -4.628906 9.269531 -4.441406 9.25 -4.265625 C 9.238281 -4.097656 9.210938 -3.953125 9.171875 -3.828125 L 3.125 -3.828125 C 3.175781 -3.160156 3.40625 -2.632812 3.8125 -2.25 C 4.21875 -1.863281 4.738281 -1.671875 5.375 -1.671875 C 5.863281 -1.671875 6.296875 -1.789062 6.671875 -2.03125 C 7.046875 -2.269531 7.332031 -2.597656 7.53125 -3.015625 L 9.4375 -2.171875 C 9.175781 -1.398438 8.671875 -0.796875 7.921875 -0.359375 C 7.171875 0.078125 6.316406 0.296875 5.359375 0.296875 Z M 3.125 -5.390625 L 6.5625 -5.390625 C 6.519531 -6.054688 6.351562 -6.578125 6.0625 -6.953125 C 5.78125 -7.328125 5.394531 -7.515625 4.90625 -7.515625 C 4.394531 -7.515625 3.984375 -7.320312 3.671875 -6.9375 C 3.359375 -6.5625 3.175781 -6.046875 3.125 -5.390625 Z M 3.125 -5.390625 "/></g></g></g><g fill="#0661aa" fill-opacity="1"><g transform="translate(37.423042, 86.95584)"><g><path d="M 4.4375 0.28125 C 3.6875 0.28125 3.003906 0.164062 2.390625 -0.0625 C 1.773438 -0.289062 1.28125 -0.640625 0.90625 -1.109375 C 0.53125 -1.578125 0.320312 -2.15625 0.28125 -2.84375 L 2.703125 -3.15625 C 2.722656 -2.644531 2.90625 -2.242188 3.25 -1.953125 C 3.59375 -1.660156 4.019531 -1.515625 4.53125 -1.515625 C 4.945312 -1.515625 5.296875 -1.601562 5.578125 -1.78125 C 5.867188 -1.96875 6.015625 -2.203125 6.015625 -2.484375 C 6.015625 -2.765625 5.890625 -2.988281 5.640625 -3.15625 C 5.390625 -3.332031 4.984375 -3.488281 4.421875 -3.625 L 3.21875 -3.921875 C 2.320312 -4.140625 1.675781 -4.457031 1.28125 -4.875 C 0.882812 -5.289062 0.6875 -5.847656 0.6875 -6.546875 C 0.6875 -7.453125 1.019531 -8.164062 1.6875 -8.6875 C 2.363281 -9.207031 3.238281 -9.46875 4.3125 -9.46875 C 4.957031 -9.46875 5.550781 -9.359375 6.09375 -9.140625 C 6.632812 -8.921875 7.070312 -8.601562 7.40625 -8.1875 C 7.75 -7.78125 7.953125 -7.269531 8.015625 -6.65625 L 5.625 -6.359375 C 5.601562 -6.785156 5.460938 -7.113281 5.203125 -7.34375 C 4.953125 -7.570312 4.628906 -7.6875 4.234375 -7.6875 C 3.878906 -7.6875 3.59375 -7.597656 3.375 -7.421875 C 3.15625 -7.253906 3.046875 -7.046875 3.046875 -6.796875 C 3.046875 -6.546875 3.160156 -6.335938 3.390625 -6.171875 C 3.617188 -6.015625 3.984375 -5.863281 4.484375 -5.71875 L 5.71875 -5.40625 C 6.6875 -5.164062 7.394531 -4.832031 7.84375 -4.40625 C 8.300781 -3.976562 8.535156 -3.414062 8.546875 -2.71875 C 8.546875 -2.101562 8.367188 -1.570312 8.015625 -1.125 C 7.660156 -0.675781 7.175781 -0.328125 6.5625 -0.078125 C 5.945312 0.160156 5.238281 0.28125 4.4375 0.28125 Z M 4.4375 0.28125 "/></g></g></g><g fill="#0661aa" fill-opacity="1"><g transform="translate(48.370103, 86.95584)"><g><path d="M 0.6875 3.765625 L 0.6875 -9.171875 L 3.015625 -9.171875 L 3.34375 -7.578125 L 3.375 -7.578125 C 3.632812 -8.179688 4.007812 -8.640625 4.5 -8.953125 C 5 -9.265625 5.5625 -9.421875 6.1875 -9.421875 C 6.914062 -9.421875 7.546875 -9.222656 8.078125 -8.828125 C 8.617188 -8.441406 9.035156 -7.882812 9.328125 -7.15625 C 9.628906 -6.4375 9.78125 -5.582031 9.78125 -4.59375 C 9.78125 -3.613281 9.628906 -2.757812 9.328125 -2.03125 C 9.035156 -1.300781 8.617188 -0.738281 8.078125 -0.34375 C 7.546875 0.0507812 6.914062 0.25 6.1875 0.25 C 5.570312 0.25 5.023438 0.09375 4.546875 -0.21875 C 4.066406 -0.53125 3.691406 -0.976562 3.421875 -1.5625 L 3.40625 -1.5625 L 3.40625 3.765625 Z M 5.171875 -2.09375 C 5.734375 -2.09375 6.1875 -2.316406 6.53125 -2.765625 C 6.875 -3.222656 7.046875 -3.832031 7.046875 -4.59375 C 7.046875 -5.351562 6.875 -5.957031 6.53125 -6.40625 C 6.1875 -6.851562 5.734375 -7.078125 5.171875 -7.078125 C 4.617188 -7.078125 4.164062 -6.847656 3.8125 -6.390625 C 3.46875 -5.941406 3.296875 -5.34375 3.296875 -4.59375 C 3.296875 -3.832031 3.46875 -3.222656 3.8125 -2.765625 C 4.164062 -2.316406 4.617188 -2.09375 5.171875 -2.09375 Z M 5.171875 -2.09375 "/></g></g></g><g fill="#0661aa" fill-opacity="1"><g transform="translate(60.660904, 86.95584)"><g><path d="M 2.109375 -10.4375 C 1.617188 -10.4375 1.226562 -10.578125 0.9375 -10.859375 C 0.644531 -11.148438 0.5 -11.523438 0.5 -11.984375 C 0.5 -12.460938 0.644531 -12.84375 0.9375 -13.125 C 1.226562 -13.414062 1.617188 -13.5625 2.109375 -13.5625 C 2.597656 -13.5625 2.988281 -13.414062 3.28125 -13.125 C 3.582031 -12.84375 3.734375 -12.460938 3.734375 -11.984375 C 3.734375 -11.523438 3.582031 -11.148438 3.28125 -10.859375 C 2.988281 -10.578125 2.597656 -10.4375 2.109375 -10.4375 Z M 0.734375 0 L 0.734375 -9.171875 L 3.484375 -9.171875 L 3.484375 0 Z M 0.734375 0 "/></g></g></g><g fill="#0661aa" fill-opacity="1"><g transform="translate(67.003394, 86.95584)"><g><path d="M 5.625 -9.421875 C 6.375 -9.421875 6.976562 -9.140625 7.4375 -8.578125 C 7.894531 -8.023438 8.144531 -7.234375 8.1875 -6.203125 L 5.875 -5.578125 C 5.863281 -6.171875 5.753906 -6.617188 5.546875 -6.921875 C 5.347656 -7.234375 5.082031 -7.390625 4.75 -7.390625 C 4.34375 -7.390625 4.015625 -7.1875 3.765625 -6.78125 C 3.523438 -6.375 3.40625 -5.8125 3.40625 -5.09375 L 3.40625 0 L 0.6875 0 L 0.6875 -9.171875 L 2.890625 -9.171875 L 3.265625 -7.59375 L 3.28125 -7.59375 C 3.476562 -8.164062 3.785156 -8.613281 4.203125 -8.9375 C 4.628906 -9.257812 5.101562 -9.421875 5.625 -9.421875 Z M 5.625 -9.421875 "/></g></g></g><g fill="#0661aa" fill-opacity="1"><g transform="translate(77.520452, 86.95584)"><g><path d="M 3.171875 0.21875 C 2.296875 0.21875 1.585938 -0.015625 1.046875 -0.484375 C 0.515625 -0.953125 0.25 -1.578125 0.25 -2.359375 C 0.25 -3.203125 0.566406 -3.878906 1.203125 -4.390625 C 1.847656 -4.910156 2.785156 -5.238281 4.015625 -5.375 L 5.4375 -5.53125 C 5.632812 -5.5625 5.796875 -5.632812 5.921875 -5.75 C 6.046875 -5.875 6.109375 -6.046875 6.109375 -6.265625 C 6.109375 -6.671875 5.984375 -6.984375 5.734375 -7.203125 C 5.484375 -7.421875 5.15625 -7.53125 4.75 -7.53125 C 4.28125 -7.53125 3.898438 -7.367188 3.609375 -7.046875 C 3.328125 -6.722656 3.175781 -6.316406 3.15625 -5.828125 L 0.5625 -6.203125 C 0.582031 -6.847656 0.769531 -7.414062 1.125 -7.90625 C 1.476562 -8.40625 1.960938 -8.796875 2.578125 -9.078125 C 3.191406 -9.359375 3.910156 -9.5 4.734375 -9.5 C 5.984375 -9.5 6.972656 -9.171875 7.703125 -8.515625 C 8.429688 -7.859375 8.796875 -6.96875 8.796875 -5.84375 L 8.796875 -2.296875 C 8.796875 -1.890625 8.945312 -1.6875 9.25 -1.6875 C 9.488281 -1.6875 9.710938 -1.804688 9.921875 -2.046875 L 10.515625 -0.578125 C 10.234375 -0.296875 9.890625 -0.09375 9.484375 0.03125 C 9.078125 0.164062 8.675781 0.234375 8.28125 0.234375 C 7.726562 0.234375 7.265625 0.09375 6.890625 -0.1875 C 6.515625 -0.46875 6.28125 -0.820312 6.1875 -1.25 L 6.140625 -1.484375 L 6.125 -1.484375 C 5.851562 -0.960938 5.457031 -0.546875 4.9375 -0.234375 C 4.425781 0.0664062 3.835938 0.21875 3.171875 0.21875 Z M 4.296875 -1.703125 C 4.816406 -1.703125 5.242188 -1.882812 5.578125 -2.25 C 5.910156 -2.613281 6.078125 -3.085938 6.078125 -3.671875 L 6.078125 -4.109375 L 4.734375 -3.953125 C 4.109375 -3.890625 3.660156 -3.742188 3.390625 -3.515625 C 3.128906 -3.285156 3 -3.015625 3 -2.703125 C 3 -2.410156 3.117188 -2.171875 3.359375 -1.984375 C 3.609375 -1.796875 3.921875 -1.703125 4.296875 -1.703125 Z M 4.296875 -1.703125 "/></g></g></g><g fill="#0661aa" fill-opacity="1"><g transform="translate(89.56041, 86.95584)"><g><path d="M 9.3125 -3.625 C 9.1875 -2.476562 8.757812 -1.550781 8.03125 -0.84375 C 7.300781 -0.132812 6.367188 0.242188 5.234375 0.296875 L 5.15625 0.859375 C 5.6875 0.890625 6.101562 1.023438 6.40625 1.265625 C 6.71875 1.503906 6.875 1.84375 6.875 2.28125 C 6.875 2.707031 6.722656 3.046875 6.421875 3.296875 C 6.128906 3.554688 5.738281 3.6875 5.25 3.6875 C 4.90625 3.6875 4.570312 3.59375 4.25 3.40625 C 3.9375 3.226562 3.707031 3 3.5625 2.71875 L 4.109375 2.296875 C 4.203125 2.492188 4.351562 2.660156 4.5625 2.796875 C 4.78125 2.929688 5.007812 3 5.25 3 C 5.519531 3 5.742188 2.929688 5.921875 2.796875 C 6.097656 2.671875 6.1875 2.507812 6.1875 2.3125 C 6.1875 2.0625 6.078125 1.863281 5.859375 1.71875 C 5.640625 1.570312 5.359375 1.5 5.015625 1.5 L 4.390625 1.5 L 4.53125 0.28125 C 3.6875 0.226562 2.953125 0 2.328125 -0.40625 C 1.703125 -0.8125 1.21875 -1.375 0.875 -2.09375 C 0.539062 -2.8125 0.375 -3.644531 0.375 -4.59375 C 0.382812 -5.59375 0.566406 -6.457031 0.921875 -7.1875 C 1.285156 -7.925781 1.789062 -8.492188 2.4375 -8.890625 C 3.09375 -9.296875 3.859375 -9.5 4.734375 -9.5 C 5.828125 -9.5 6.738281 -9.179688 7.46875 -8.546875 C 8.195312 -7.910156 8.648438 -7.054688 8.828125 -5.984375 L 6.328125 -5.40625 C 6.242188 -6.019531 6.0625 -6.484375 5.78125 -6.796875 C 5.5 -7.117188 5.164062 -7.28125 4.78125 -7.28125 C 4.28125 -7.28125 3.878906 -7.039062 3.578125 -6.5625 C 3.273438 -6.082031 3.125 -5.425781 3.125 -4.59375 C 3.132812 -3.75 3.304688 -3.09375 3.640625 -2.625 C 3.984375 -2.15625 4.429688 -1.921875 4.984375 -1.921875 C 5.460938 -1.921875 5.863281 -2.101562 6.1875 -2.46875 C 6.519531 -2.832031 6.722656 -3.34375 6.796875 -4 Z M 9.3125 -3.625 "/></g></g></g><g fill="#0661aa" fill-opacity="1"><g transform="translate(101.277885, 86.95584)"><g><path d="M 5.9375 -10.578125 C 5.601562 -10.578125 5.328125 -10.679688 5.109375 -10.890625 C 4.890625 -11.097656 4.691406 -11.320312 4.515625 -11.5625 C 4.359375 -11.789062 4.203125 -11.992188 4.046875 -12.171875 C 3.890625 -12.359375 3.710938 -12.453125 3.515625 -12.453125 C 3.273438 -12.453125 3.078125 -12.289062 2.921875 -11.96875 C 2.765625 -11.644531 2.6875 -11.238281 2.6875 -10.75 L 1.984375 -10.75 C 1.984375 -11.445312 2.117188 -12.019531 2.390625 -12.46875 C 2.671875 -12.914062 3.050781 -13.140625 3.53125 -13.140625 C 3.875 -13.140625 4.15625 -13.03125 4.375 -12.8125 C 4.59375 -12.59375 4.785156 -12.367188 4.953125 -12.140625 C 5.117188 -11.910156 5.269531 -11.703125 5.40625 -11.515625 C 5.550781 -11.335938 5.722656 -11.25 5.921875 -11.25 C 6.179688 -11.25 6.390625 -11.410156 6.546875 -11.734375 C 6.710938 -12.054688 6.796875 -12.46875 6.796875 -12.96875 L 7.484375 -12.96875 C 7.484375 -12.28125 7.335938 -11.707031 7.046875 -11.25 C 6.765625 -10.800781 6.394531 -10.578125 5.9375 -10.578125 Z M 3.171875 0.21875 C 2.296875 0.21875 1.585938 -0.015625 1.046875 -0.484375 C 0.515625 -0.953125 0.25 -1.578125 0.25 -2.359375 C 0.25 -3.203125 0.566406 -3.878906 1.203125 -4.390625 C 1.847656 -4.910156 2.785156 -5.238281 4.015625 -5.375 L 5.4375 -5.53125 C 5.632812 -5.5625 5.796875 -5.632812 5.921875 -5.75 C 6.046875 -5.875 6.109375 -6.046875 6.109375 -6.265625 C 6.109375 -6.671875 5.984375 -6.984375 5.734375 -7.203125 C 5.484375 -7.421875 5.15625 -7.53125 4.75 -7.53125 C 4.28125 -7.53125 3.898438 -7.367188 3.609375 -7.046875 C 3.328125 -6.722656 3.175781 -6.316406 3.15625 -5.828125 L 0.5625 -6.203125 C 0.582031 -6.847656 0.769531 -7.414062 1.125 -7.90625 C 1.476562 -8.40625 1.960938 -8.796875 2.578125 -9.078125 C 3.191406 -9.359375 3.910156 -9.5 4.734375 -9.5 C 5.984375 -9.5 6.972656 -9.171875 7.703125 -8.515625 C 8.429688 -7.859375 8.796875 -6.96875 8.796875 -5.84375 L 8.796875 -2.296875 C 8.796875 -1.890625 8.945312 -1.6875 9.25 -1.6875 C 9.488281 -1.6875 9.710938 -1.804688 9.921875 -2.046875 L 10.515625 -0.578125 C 10.234375 -0.296875 9.890625 -0.09375 9.484375 0.03125 C 9.078125 0.164062 8.675781 0.234375 8.28125 0.234375 C 7.726562 0.234375 7.265625 0.09375 6.890625 -0.1875 C 6.515625 -0.46875 6.28125 -0.820312 6.1875 -1.25 L 6.140625 -1.484375 L 6.125 -1.484375 C 5.851562 -0.960938 5.457031 -0.546875 4.9375 -0.234375 C 4.425781 0.0664062 3.835938 0.21875 3.171875 0.21875 Z M 4.296875 -1.703125 C 4.816406 -1.703125 5.242188 -1.882812 5.578125 -2.25 C 5.910156 -2.613281 6.078125 -3.085938 6.078125 -3.671875 L 6.078125 -4.109375 L 4.734375 -3.953125 C 4.109375 -3.890625 3.660156 -3.742188 3.390625 -3.515625 C 3.128906 -3.285156 3 -3.015625 3 -2.703125 C 3 -2.410156 3.117188 -2.171875 3.359375 -1.984375 C 3.609375 -1.796875 3.921875 -1.703125 4.296875 -1.703125 Z M 4.296875 -1.703125 "/></g></g></g><g fill="#0661aa" fill-opacity="1"><g transform="translate(113.317843, 86.95584)"><g><path d="M 5.03125 0.296875 C 4.09375 0.296875 3.269531 0.0976562 2.5625 -0.296875 C 1.863281 -0.691406 1.320312 -1.253906 0.9375 -1.984375 C 0.5625 -2.722656 0.375 -3.59375 0.375 -4.59375 C 0.375 -5.59375 0.5625 -6.457031 0.9375 -7.1875 C 1.320312 -7.925781 1.863281 -8.492188 2.5625 -8.890625 C 3.269531 -9.296875 4.09375 -9.5 5.03125 -9.5 C 5.976562 -9.5 6.796875 -9.296875 7.484375 -8.890625 C 8.179688 -8.492188 8.71875 -7.925781 9.09375 -7.1875 C 9.476562 -6.457031 9.671875 -5.59375 9.671875 -4.59375 C 9.671875 -3.59375 9.476562 -2.722656 9.09375 -1.984375 C 8.71875 -1.253906 8.179688 -0.691406 7.484375 -0.296875 C 6.796875 0.0976562 5.976562 0.296875 5.03125 0.296875 Z M 5.03125 -1.984375 C 5.632812 -1.984375 6.101562 -2.210938 6.4375 -2.671875 C 6.78125 -3.140625 6.953125 -3.78125 6.953125 -4.59375 C 6.953125 -5.40625 6.78125 -6.039062 6.4375 -6.5 C 6.101562 -6.957031 5.632812 -7.1875 5.03125 -7.1875 C 4.4375 -7.1875 3.960938 -6.957031 3.609375 -6.5 C 3.265625 -6.039062 3.09375 -5.40625 3.09375 -4.59375 C 3.09375 -3.78125 3.265625 -3.140625 3.609375 -2.671875 C 3.960938 -2.210938 4.4375 -1.984375 5.03125 -1.984375 Z M 5.03125 -1.984375 "/></g></g></g><g fill="#0661aa" fill-opacity="1"><g transform="translate(38.958427, 108.605144)"><g><path d="M 0.890625 0 L 0.890625 -12.765625 L 6.75 -12.765625 C 8.09375 -12.765625 9.128906 -12.46875 9.859375 -11.875 C 10.597656 -11.28125 10.96875 -10.4375 10.96875 -9.34375 C 10.96875 -8.625 10.78125 -8.019531 10.40625 -7.53125 C 10.03125 -7.039062 9.5 -6.710938 8.8125 -6.546875 L 8.8125 -6.53125 C 9.59375 -6.375 10.191406 -6.035156 10.609375 -5.515625 C 11.023438 -4.992188 11.234375 -4.328125 11.234375 -3.515625 C 11.234375 -2.398438 10.859375 -1.535156 10.109375 -0.921875 C 9.359375 -0.304688 8.289062 0 6.90625 0 Z M 3.953125 -7.46875 L 6.25 -7.46875 C 6.789062 -7.46875 7.207031 -7.601562 7.5 -7.875 C 7.789062 -8.15625 7.9375 -8.535156 7.9375 -9.015625 C 7.9375 -9.503906 7.789062 -9.878906 7.5 -10.140625 C 7.207031 -10.398438 6.796875 -10.53125 6.265625 -10.53125 L 3.953125 -10.53125 Z M 3.953125 -2.21875 L 6.296875 -2.21875 C 6.890625 -2.21875 7.347656 -2.359375 7.671875 -2.640625 C 8.003906 -2.921875 8.171875 -3.316406 8.171875 -3.828125 C 8.171875 -4.367188 8.003906 -4.785156 7.671875 -5.078125 C 7.347656 -5.367188 6.890625 -5.515625 6.296875 -5.515625 L 3.953125 -5.515625 Z M 3.953125 -2.21875 "/></g></g></g><g fill="#0661aa" fill-opacity="1"><g transform="translate(52.736304, 108.605144)"><g><path d="M 5.625 -9.421875 C 6.375 -9.421875 6.976562 -9.140625 7.4375 -8.578125 C 7.894531 -8.023438 8.144531 -7.234375 8.1875 -6.203125 L 5.875 -5.578125 C 5.863281 -6.171875 5.753906 -6.617188 5.546875 -6.921875 C 5.347656 -7.234375 5.082031 -7.390625 4.75 -7.390625 C 4.34375 -7.390625 4.015625 -7.1875 3.765625 -6.78125 C 3.523438 -6.375 3.40625 -5.8125 3.40625 -5.09375 L 3.40625 0 L 0.6875 0 L 0.6875 -9.171875 L 2.890625 -9.171875 L 3.265625 -7.59375 L 3.28125 -7.59375 C 3.476562 -8.164062 3.785156 -8.613281 4.203125 -8.9375 C 4.628906 -9.257812 5.101562 -9.421875 5.625 -9.421875 Z M 5.625 -9.421875 "/></g></g></g><g fill="#0661aa" fill-opacity="1"><g transform="translate(63.289198, 108.605144)"><g><path d="M 2.109375 -10.4375 C 1.617188 -10.4375 1.226562 -10.578125 0.9375 -10.859375 C 0.644531 -11.148438 0.5 -11.523438 0.5 -11.984375 C 0.5 -12.460938 0.644531 -12.84375 0.9375 -13.125 C 1.226562 -13.414062 1.617188 -13.5625 2.109375 -13.5625 C 2.597656 -13.5625 2.988281 -13.414062 3.28125 -13.125 C 3.582031 -12.84375 3.734375 -12.460938 3.734375 -11.984375 C 3.734375 -11.523438 3.582031 -11.148438 3.28125 -10.859375 C 2.988281 -10.578125 2.597656 -10.4375 2.109375 -10.4375 Z M 0.734375 0 L 0.734375 -9.171875 L 3.484375 -9.171875 L 3.484375 0 Z M 0.734375 0 "/></g></g></g><g fill="#0661aa" fill-opacity="1"><g transform="translate(69.631688, 108.605144)"><g><path d="M 0.34375 0 L 0.34375 -2.34375 L 4.84375 -7.140625 L 0.515625 -7.140625 L 0.515625 -9.171875 L 7.796875 -9.171875 L 7.796875 -6.828125 L 3.28125 -2.046875 L 7.96875 -2.046875 L 7.96875 0 Z M 0.34375 0 "/></g></g></g><g fill="#0661aa" fill-opacity="1"><g transform="translate(80.059166, 108.605144)"><g><path d="M 3.171875 0.21875 C 2.296875 0.21875 1.585938 -0.015625 1.046875 -0.484375 C 0.515625 -0.953125 0.25 -1.578125 0.25 -2.359375 C 0.25 -3.203125 0.566406 -3.878906 1.203125 -4.390625 C 1.847656 -4.910156 2.785156 -5.238281 4.015625 -5.375 L 5.4375 -5.53125 C 5.632812 -5.5625 5.796875 -5.632812 5.921875 -5.75 C 6.046875 -5.875 6.109375 -6.046875 6.109375 -6.265625 C 6.109375 -6.671875 5.984375 -6.984375 5.734375 -7.203125 C 5.484375 -7.421875 5.15625 -7.53125 4.75 -7.53125 C 4.28125 -7.53125 3.898438 -7.367188 3.609375 -7.046875 C 3.328125 -6.722656 3.175781 -6.316406 3.15625 -5.828125 L 0.5625 -6.203125 C 0.582031 -6.847656 0.769531 -7.414062 1.125 -7.90625 C 1.476562 -8.40625 1.960938 -8.796875 2.578125 -9.078125 C 3.191406 -9.359375 3.910156 -9.5 4.734375 -9.5 C 5.984375 -9.5 6.972656 -9.171875 7.703125 -8.515625 C 8.429688 -7.859375 8.796875 -6.96875 8.796875 -5.84375 L 8.796875 -2.296875 C 8.796875 -1.890625 8.945312 -1.6875 9.25 -1.6875 C 9.488281 -1.6875 9.710938 -1.804688 9.921875 -2.046875 L 10.515625 -0.578125 C 10.234375 -0.296875 9.890625 -0.09375 9.484375 0.03125 C 9.078125 0.164062 8.675781 0.234375 8.28125 0.234375 C 7.726562 0.234375 7.265625 0.09375 6.890625 -0.1875 C 6.515625 -0.46875 6.28125 -0.820312 6.1875 -1.25 L 6.140625 -1.484375 L 6.125 -1.484375 C 5.851562 -0.960938 5.457031 -0.546875 4.9375 -0.234375 C 4.425781 0.0664062 3.835938 0.21875 3.171875 0.21875 Z M 4.296875 -1.703125 C 4.816406 -1.703125 5.242188 -1.882812 5.578125 -2.25 C 5.910156 -2.613281 6.078125 -3.085938 6.078125 -3.671875 L 6.078125 -4.109375 L 4.734375 -3.953125 C 4.109375 -3.890625 3.660156 -3.742188 3.390625 -3.515625 C 3.128906 -3.285156 3 -3.015625 3 -2.703125 C 3 -2.410156 3.117188 -2.171875 3.359375 -1.984375 C 3.609375 -1.796875 3.921875 -1.703125 4.296875 -1.703125 Z M 4.296875 -1.703125 "/></g></g></g><g fill="#0661aa" fill-opacity="1"><g transform="translate(92.696758, 108.605144)"><g/></g></g><g fill="#2d6d5e" fill-opacity="1"><g transform="translate(21.066047, 125.486584)"><g><path d="M 2.140625 -7.8125 C 2.671875 -7.8125 3.101562 -7.726562 3.4375 -7.5625 C 3.78125 -7.40625 4.035156 -7.164062 4.203125 -6.84375 C 4.367188 -6.519531 4.453125 -6.113281 4.453125 -5.625 C 4.453125 -5.28125 4.410156 -4.96875 4.328125 -4.6875 C 4.242188 -4.414062 4.113281 -4.179688 3.9375 -3.984375 C 3.757812 -3.796875 3.523438 -3.640625 3.234375 -3.515625 L 4.828125 0 L 3.875 0 L 2.46875 -3.296875 L 1.65625 -3.296875 L 1.65625 0 L 0.8125 0 L 0.8125 -7.8125 Z M 2.140625 -7.03125 L 1.65625 -7.03125 L 1.65625 -4.015625 L 2.265625 -4.015625 C 2.691406 -4.015625 3.019531 -4.144531 3.25 -4.40625 C 3.476562 -4.664062 3.59375 -5.0625 3.59375 -5.59375 C 3.59375 -6.101562 3.472656 -6.46875 3.234375 -6.6875 C 3.003906 -6.914062 2.640625 -7.03125 2.140625 -7.03125 Z M 2.140625 -7.03125 "/></g></g></g><g fill="#2d6d5e" fill-opacity="1"><g transform="translate(27.572705, 125.486584)"><g><path d="M 2.328125 -5.953125 C 2.722656 -5.953125 3.050781 -5.835938 3.3125 -5.609375 C 3.570312 -5.378906 3.765625 -5.066406 3.890625 -4.671875 C 4.015625 -4.285156 4.078125 -3.851562 4.078125 -3.375 L 4.078125 -2.78125 L 1.28125 -2.78125 C 1.289062 -2.050781 1.40625 -1.503906 1.625 -1.140625 C 1.84375 -0.773438 2.171875 -0.59375 2.609375 -0.59375 C 2.828125 -0.59375 3.035156 -0.625 3.234375 -0.6875 C 3.441406 -0.75 3.648438 -0.851562 3.859375 -1 L 3.859375 -0.265625 C 3.660156 -0.140625 3.453125 -0.046875 3.234375 0.015625 C 3.015625 0.078125 2.78125 0.109375 2.53125 0.109375 C 2.039062 0.109375 1.644531 -0.0195312 1.34375 -0.28125 C 1.039062 -0.539062 0.816406 -0.898438 0.671875 -1.359375 C 0.535156 -1.816406 0.46875 -2.332031 0.46875 -2.90625 C 0.46875 -3.550781 0.535156 -4.101562 0.671875 -4.5625 C 0.816406 -5.019531 1.023438 -5.363281 1.296875 -5.59375 C 1.578125 -5.832031 1.921875 -5.953125 2.328125 -5.953125 Z M 2.328125 -5.28125 C 2.015625 -5.28125 1.769531 -5.128906 1.59375 -4.828125 C 1.425781 -4.535156 1.328125 -4.070312 1.296875 -3.4375 L 3.3125 -3.4375 C 3.3125 -3.769531 3.273438 -4.078125 3.203125 -4.359375 C 3.140625 -4.640625 3.035156 -4.863281 2.890625 -5.03125 C 2.742188 -5.195312 2.554688 -5.28125 2.328125 -5.28125 Z M 2.328125 -5.28125 "/></g></g></g><g fill="#2d6d5e" fill-opacity="1"><g transform="translate(33.6306, 125.486584)"><g><path d="M 3.328125 -1.546875 C 3.328125 -1.191406 3.257812 -0.890625 3.125 -0.640625 C 3 -0.398438 2.8125 -0.210938 2.5625 -0.078125 C 2.320312 0.046875 2.03125 0.109375 1.6875 0.109375 C 1.414062 0.109375 1.164062 0.078125 0.9375 0.015625 C 0.71875 -0.046875 0.53125 -0.125 0.375 -0.21875 L 0.375 -1.078125 C 0.53125 -0.941406 0.722656 -0.832031 0.953125 -0.75 C 1.179688 -0.664062 1.414062 -0.625 1.65625 -0.625 C 1.925781 -0.625 2.132812 -0.703125 2.28125 -0.859375 C 2.4375 -1.015625 2.515625 -1.234375 2.515625 -1.515625 C 2.515625 -1.679688 2.484375 -1.828125 2.421875 -1.953125 C 2.359375 -2.078125 2.257812 -2.195312 2.125 -2.3125 C 1.988281 -2.425781 1.816406 -2.546875 1.609375 -2.671875 C 1.359375 -2.816406 1.140625 -2.96875 0.953125 -3.125 C 0.765625 -3.289062 0.617188 -3.476562 0.515625 -3.6875 C 0.421875 -3.894531 0.375 -4.144531 0.375 -4.4375 C 0.375 -4.894531 0.519531 -5.265625 0.8125 -5.546875 C 1.113281 -5.828125 1.503906 -5.96875 1.984375 -5.96875 C 2.234375 -5.96875 2.46875 -5.9375 2.6875 -5.875 C 2.90625 -5.8125 3.113281 -5.71875 3.3125 -5.59375 L 3 -4.9375 C 2.851562 -5.039062 2.691406 -5.117188 2.515625 -5.171875 C 2.347656 -5.234375 2.175781 -5.265625 2 -5.265625 C 1.738281 -5.265625 1.53125 -5.191406 1.375 -5.046875 C 1.226562 -4.898438 1.15625 -4.707031 1.15625 -4.46875 C 1.15625 -4.300781 1.1875 -4.15625 1.25 -4.03125 C 1.3125 -3.914062 1.410156 -3.800781 1.546875 -3.6875 C 1.679688 -3.582031 1.863281 -3.460938 2.09375 -3.328125 C 2.34375 -3.171875 2.554688 -3.015625 2.734375 -2.859375 C 2.921875 -2.703125 3.066406 -2.519531 3.171875 -2.3125 C 3.273438 -2.101562 3.328125 -1.847656 3.328125 -1.546875 Z M 3.328125 -1.546875 "/></g></g></g><g fill="#2d6d5e" fill-opacity="1"><g transform="translate(38.839048, 125.486584)"><g><path d="M 2.828125 -5.96875 C 3.390625 -5.96875 3.816406 -5.710938 4.109375 -5.203125 C 4.398438 -4.703125 4.546875 -3.945312 4.546875 -2.9375 C 4.546875 -2.289062 4.476562 -1.738281 4.34375 -1.28125 C 4.21875 -0.832031 4.03125 -0.488281 3.78125 -0.25 C 3.53125 -0.0078125 3.226562 0.109375 2.875 0.109375 C 2.675781 0.109375 2.488281 0.0703125 2.3125 0 C 2.144531 -0.0820312 1.992188 -0.191406 1.859375 -0.328125 C 1.734375 -0.472656 1.625 -0.640625 1.53125 -0.828125 L 1.5 -0.828125 C 1.507812 -0.679688 1.515625 -0.539062 1.515625 -0.40625 C 1.523438 -0.28125 1.53125 -0.160156 1.53125 -0.046875 L 1.53125 2.609375 L 0.71875 2.609375 L 0.71875 -5.859375 L 1.390625 -5.859375 L 1.484375 -5 L 1.53125 -5 C 1.632812 -5.21875 1.75 -5.394531 1.875 -5.53125 C 2.007812 -5.675781 2.15625 -5.785156 2.3125 -5.859375 C 2.46875 -5.929688 2.640625 -5.96875 2.828125 -5.96875 Z M 2.65625 -5.265625 C 2.40625 -5.265625 2.195312 -5.1875 2.03125 -5.03125 C 1.875 -4.875 1.75 -4.632812 1.65625 -4.3125 C 1.570312 -4 1.53125 -3.601562 1.53125 -3.125 L 1.53125 -2.84375 C 1.53125 -2.34375 1.570312 -1.925781 1.65625 -1.59375 C 1.75 -1.257812 1.878906 -1.007812 2.046875 -0.84375 C 2.210938 -0.6875 2.421875 -0.609375 2.671875 -0.609375 C 2.898438 -0.609375 3.09375 -0.691406 3.25 -0.859375 C 3.40625 -1.023438 3.519531 -1.273438 3.59375 -1.609375 C 3.675781 -1.953125 3.71875 -2.394531 3.71875 -2.9375 C 3.71875 -3.707031 3.632812 -4.285156 3.46875 -4.671875 C 3.300781 -5.066406 3.03125 -5.265625 2.65625 -5.265625 Z M 2.65625 -5.265625 "/></g></g></g><g fill="#2d6d5e" fill-opacity="1"><g transform="translate(45.377761, 125.486584)"><g><path d="M 1.546875 -5.859375 L 1.546875 0 L 0.71875 0 L 0.71875 -5.859375 Z M 1.140625 -8.0625 C 1.316406 -8.0625 1.441406 -8.007812 1.515625 -7.90625 C 1.585938 -7.800781 1.625 -7.648438 1.625 -7.453125 C 1.625 -7.273438 1.582031 -7.128906 1.5 -7.015625 C 1.425781 -6.910156 1.304688 -6.859375 1.140625 -6.859375 C 0.992188 -6.859375 0.875 -6.910156 0.78125 -7.015625 C 0.695312 -7.128906 0.65625 -7.273438 0.65625 -7.453125 C 0.65625 -7.648438 0.695312 -7.800781 0.78125 -7.90625 C 0.863281 -8.007812 0.984375 -8.0625 1.140625 -8.0625 Z M 1.140625 -8.0625 "/></g></g></g><g fill="#2d6d5e" fill-opacity="1"><g transform="translate(49.175807, 125.486584)"><g><path d="M 2.671875 -5.96875 C 2.753906 -5.96875 2.835938 -5.957031 2.921875 -5.9375 C 3.003906 -5.925781 3.085938 -5.910156 3.171875 -5.890625 L 3.046875 -5.046875 C 2.984375 -5.066406 2.914062 -5.082031 2.84375 -5.09375 C 2.769531 -5.101562 2.691406 -5.109375 2.609375 -5.109375 C 2.453125 -5.109375 2.304688 -5.054688 2.171875 -4.953125 C 2.035156 -4.847656 1.921875 -4.703125 1.828125 -4.515625 C 1.734375 -4.328125 1.660156 -4.109375 1.609375 -3.859375 C 1.554688 -3.609375 1.53125 -3.34375 1.53125 -3.0625 L 1.53125 0 L 0.71875 0 L 0.71875 -5.859375 L 1.359375 -5.859375 L 1.46875 -4.828125 L 1.515625 -4.828125 C 1.597656 -5.046875 1.691406 -5.238281 1.796875 -5.40625 C 1.910156 -5.582031 2.039062 -5.71875 2.1875 -5.8125 C 2.332031 -5.914062 2.492188 -5.96875 2.671875 -5.96875 Z M 2.671875 -5.96875 "/></g></g></g><g fill="#2d6d5e" fill-opacity="1"><g transform="translate(53.988915, 125.486584)"><g><path d="M 2.328125 -5.953125 C 2.722656 -5.953125 3.050781 -5.835938 3.3125 -5.609375 C 3.570312 -5.378906 3.765625 -5.066406 3.890625 -4.671875 C 4.015625 -4.285156 4.078125 -3.851562 4.078125 -3.375 L 4.078125 -2.78125 L 1.28125 -2.78125 C 1.289062 -2.050781 1.40625 -1.503906 1.625 -1.140625 C 1.84375 -0.773438 2.171875 -0.59375 2.609375 -0.59375 C 2.828125 -0.59375 3.035156 -0.625 3.234375 -0.6875 C 3.441406 -0.75 3.648438 -0.851562 3.859375 -1 L 3.859375 -0.265625 C 3.660156 -0.140625 3.453125 -0.046875 3.234375 0.015625 C 3.015625 0.078125 2.78125 0.109375 2.53125 0.109375 C 2.039062 0.109375 1.644531 -0.0195312 1.34375 -0.28125 C 1.039062 -0.539062 0.816406 -0.898438 0.671875 -1.359375 C 0.535156 -1.816406 0.46875 -2.332031 0.46875 -2.90625 C 0.46875 -3.550781 0.535156 -4.101562 0.671875 -4.5625 C 0.816406 -5.019531 1.023438 -5.363281 1.296875 -5.59375 C 1.578125 -5.832031 1.921875 -5.953125 2.328125 -5.953125 Z M 2.328125 -5.28125 C 2.015625 -5.28125 1.769531 -5.128906 1.59375 -4.828125 C 1.425781 -4.535156 1.328125 -4.070312 1.296875 -3.4375 L 3.3125 -3.4375 C 3.3125 -3.769531 3.273438 -4.078125 3.203125 -4.359375 C 3.140625 -4.640625 3.035156 -4.863281 2.890625 -5.03125 C 2.742188 -5.195312 2.554688 -5.28125 2.328125 -5.28125 Z M 2.328125 -5.28125 "/></g></g></g><g fill="#2d6d5e" fill-opacity="1"><g transform="translate(60.046809, 125.486584)"><g/></g></g><g fill="#2d6d5e" fill-opacity="1"><g transform="translate(63.609789, 125.486584)"><g><path d="M 2.40625 0.109375 C 1.976562 0.109375 1.617188 0 1.328125 -0.21875 C 1.046875 -0.445312 0.832031 -0.785156 0.6875 -1.234375 C 0.539062 -1.679688 0.46875 -2.234375 0.46875 -2.890625 C 0.46875 -3.535156 0.539062 -4.085938 0.6875 -4.546875 C 0.832031 -5.003906 1.050781 -5.351562 1.34375 -5.59375 C 1.632812 -5.84375 2 -5.96875 2.4375 -5.96875 C 2.65625 -5.96875 2.851562 -5.941406 3.03125 -5.890625 C 3.207031 -5.847656 3.375 -5.785156 3.53125 -5.703125 L 3.265625 -5.03125 C 3.140625 -5.09375 3.007812 -5.140625 2.875 -5.171875 C 2.75 -5.210938 2.625 -5.234375 2.5 -5.234375 C 2.238281 -5.234375 2.019531 -5.144531 1.84375 -4.96875 C 1.675781 -4.789062 1.546875 -4.53125 1.453125 -4.1875 C 1.359375 -3.84375 1.3125 -3.414062 1.3125 -2.90625 C 1.3125 -2.394531 1.351562 -1.96875 1.4375 -1.625 C 1.53125 -1.289062 1.664062 -1.035156 1.84375 -0.859375 C 2.019531 -0.691406 2.238281 -0.609375 2.5 -0.609375 C 2.65625 -0.609375 2.8125 -0.628906 2.96875 -0.671875 C 3.132812 -0.722656 3.300781 -0.789062 3.46875 -0.875 L 3.46875 -0.1875 C 3.3125 -0.09375 3.132812 -0.0195312 2.9375 0.03125 C 2.75 0.0820312 2.570312 0.109375 2.40625 0.109375 Z M 2.40625 0.109375 "/></g></g></g><g fill="#2d6d5e" fill-opacity="1"><g transform="translate(68.898373, 125.486584)"><g><path d="M 4.359375 -2.9375 C 4.359375 -2.476562 4.316406 -2.0625 4.234375 -1.6875 C 4.160156 -1.3125 4.039062 -0.988281 3.875 -0.71875 C 3.71875 -0.457031 3.515625 -0.253906 3.265625 -0.109375 C 3.023438 0.0351562 2.734375 0.109375 2.390625 0.109375 C 2.078125 0.109375 1.796875 0.0351562 1.546875 -0.109375 C 1.304688 -0.253906 1.101562 -0.457031 0.9375 -0.71875 C 0.78125 -0.976562 0.660156 -1.296875 0.578125 -1.671875 C 0.503906 -2.054688 0.46875 -2.476562 0.46875 -2.9375 C 0.46875 -3.582031 0.535156 -4.128906 0.671875 -4.578125 C 0.804688 -5.035156 1.019531 -5.378906 1.3125 -5.609375 C 1.601562 -5.847656 1.96875 -5.96875 2.40625 -5.96875 C 2.820312 -5.96875 3.175781 -5.851562 3.46875 -5.625 C 3.757812 -5.394531 3.976562 -5.054688 4.125 -4.609375 C 4.28125 -4.160156 4.359375 -3.601562 4.359375 -2.9375 Z M 1.296875 -2.9375 C 1.296875 -2.425781 1.332031 -2 1.40625 -1.65625 C 1.488281 -1.3125 1.613281 -1.050781 1.78125 -0.875 C 1.945312 -0.695312 2.160156 -0.609375 2.421875 -0.609375 C 2.671875 -0.609375 2.875 -0.691406 3.03125 -0.859375 C 3.195312 -1.035156 3.316406 -1.296875 3.390625 -1.640625 C 3.472656 -1.984375 3.515625 -2.414062 3.515625 -2.9375 C 3.515625 -3.445312 3.472656 -3.875 3.390625 -4.21875 C 3.316406 -4.5625 3.195312 -4.816406 3.03125 -4.984375 C 2.875 -5.160156 2.664062 -5.25 2.40625 -5.25 C 2.019531 -5.25 1.738281 -5.054688 1.5625 -4.671875 C 1.382812 -4.285156 1.296875 -3.707031 1.296875 -2.9375 Z M 1.296875 -2.9375 "/></g></g></g><g fill="#2d6d5e" fill-opacity="1"><g transform="translate(75.250101, 125.486584)"><g><path d="M 5.3125 -5.96875 C 5.78125 -5.96875 6.125 -5.800781 6.34375 -5.46875 C 6.5625 -5.132812 6.671875 -4.628906 6.671875 -3.953125 L 6.671875 0 L 5.859375 0 L 5.859375 -3.8125 C 5.859375 -4.320312 5.789062 -4.6875 5.65625 -4.90625 C 5.53125 -5.132812 5.34375 -5.25 5.09375 -5.25 C 4.738281 -5.25 4.484375 -5.078125 4.328125 -4.734375 C 4.179688 -4.398438 4.109375 -3.921875 4.109375 -3.296875 L 4.109375 0 L 3.296875 0 L 3.296875 -3.8125 C 3.296875 -4.164062 3.265625 -4.445312 3.203125 -4.65625 C 3.148438 -4.863281 3.066406 -5.015625 2.953125 -5.109375 C 2.835938 -5.203125 2.695312 -5.25 2.53125 -5.25 C 2.257812 -5.25 2.050781 -5.15625 1.90625 -4.96875 C 1.769531 -4.789062 1.671875 -4.539062 1.609375 -4.21875 C 1.554688 -3.90625 1.53125 -3.546875 1.53125 -3.140625 L 1.53125 0 L 0.71875 0 L 0.71875 -5.859375 L 1.375 -5.859375 L 1.46875 -5.03125 L 1.515625 -5.03125 C 1.585938 -5.226562 1.679688 -5.394531 1.796875 -5.53125 C 1.921875 -5.675781 2.0625 -5.785156 2.21875 -5.859375 C 2.382812 -5.929688 2.566406 -5.96875 2.765625 -5.96875 C 3.109375 -5.96875 3.375 -5.875 3.5625 -5.6875 C 3.757812 -5.507812 3.890625 -5.28125 3.953125 -5 L 4.015625 -5 C 4.148438 -5.332031 4.316406 -5.578125 4.515625 -5.734375 C 4.722656 -5.890625 4.988281 -5.96875 5.3125 -5.96875 Z M 5.3125 -5.96875 "/></g></g></g><g fill="#2d6d5e" fill-opacity="1"><g transform="translate(84.155511, 125.486584)"><g><path d="M 4.359375 -2.9375 C 4.359375 -2.476562 4.316406 -2.0625 4.234375 -1.6875 C 4.160156 -1.3125 4.039062 -0.988281 3.875 -0.71875 C 3.71875 -0.457031 3.515625 -0.253906 3.265625 -0.109375 C 3.023438 0.0351562 2.734375 0.109375 2.390625 0.109375 C 2.078125 0.109375 1.796875 0.0351562 1.546875 -0.109375 C 1.304688 -0.253906 1.101562 -0.457031 0.9375 -0.71875 C 0.78125 -0.976562 0.660156 -1.296875 0.578125 -1.671875 C 0.503906 -2.054688 0.46875 -2.476562 0.46875 -2.9375 C 0.46875 -3.582031 0.535156 -4.128906 0.671875 -4.578125 C 0.804688 -5.035156 1.019531 -5.378906 1.3125 -5.609375 C 1.601562 -5.847656 1.96875 -5.96875 2.40625 -5.96875 C 2.820312 -5.96875 3.175781 -5.851562 3.46875 -5.625 C 3.757812 -5.394531 3.976562 -5.054688 4.125 -4.609375 C 4.28125 -4.160156 4.359375 -3.601562 4.359375 -2.9375 Z M 1.296875 -2.9375 C 1.296875 -2.425781 1.332031 -2 1.40625 -1.65625 C 1.488281 -1.3125 1.613281 -1.050781 1.78125 -0.875 C 1.945312 -0.695312 2.160156 -0.609375 2.421875 -0.609375 C 2.671875 -0.609375 2.875 -0.691406 3.03125 -0.859375 C 3.195312 -1.035156 3.316406 -1.296875 3.390625 -1.640625 C 3.472656 -1.984375 3.515625 -2.414062 3.515625 -2.9375 C 3.515625 -3.445312 3.472656 -3.875 3.390625 -4.21875 C 3.316406 -4.5625 3.195312 -4.816406 3.03125 -4.984375 C 2.875 -5.160156 2.664062 -5.25 2.40625 -5.25 C 2.019531 -5.25 1.738281 -5.054688 1.5625 -4.671875 C 1.382812 -4.285156 1.296875 -3.707031 1.296875 -2.9375 Z M 1.296875 -2.9375 "/></g></g></g><g fill="#2d6d5e" fill-opacity="1"><g transform="translate(90.507239, 125.486584)"><g/></g></g><g fill="#2d6d5e" fill-opacity="1"><g transform="translate(94.070218, 125.486584)"><g><path d="M 4.21875 -5.859375 L 4.21875 0 L 3.5625 0 L 3.46875 -0.828125 L 3.40625 -0.828125 C 3.332031 -0.640625 3.226562 -0.472656 3.09375 -0.328125 C 2.96875 -0.191406 2.820312 -0.0820312 2.65625 0 C 2.5 0.0703125 2.316406 0.109375 2.109375 0.109375 C 1.773438 0.109375 1.503906 0.0234375 1.296875 -0.140625 C 1.085938 -0.316406 0.929688 -0.5625 0.828125 -0.875 C 0.734375 -1.195312 0.6875 -1.578125 0.6875 -2.015625 L 0.6875 -5.859375 L 1.515625 -5.859375 L 1.515625 -2.171875 C 1.515625 -1.640625 1.578125 -1.25 1.703125 -1 C 1.828125 -0.75 2.015625 -0.625 2.265625 -0.625 C 2.535156 -0.625 2.753906 -0.695312 2.921875 -0.84375 C 3.085938 -1 3.207031 -1.234375 3.28125 -1.546875 C 3.351562 -1.859375 3.390625 -2.25 3.390625 -2.71875 L 3.390625 -5.859375 Z M 4.21875 -5.859375 "/></g></g></g><g fill="#2d6d5e" fill-opacity="1"><g transform="translate(100.534137, 125.486584)"><g><path d="M 5.3125 -5.96875 C 5.78125 -5.96875 6.125 -5.800781 6.34375 -5.46875 C 6.5625 -5.132812 6.671875 -4.628906 6.671875 -3.953125 L 6.671875 0 L 5.859375 0 L 5.859375 -3.8125 C 5.859375 -4.320312 5.789062 -4.6875 5.65625 -4.90625 C 5.53125 -5.132812 5.34375 -5.25 5.09375 -5.25 C 4.738281 -5.25 4.484375 -5.078125 4.328125 -4.734375 C 4.179688 -4.398438 4.109375 -3.921875 4.109375 -3.296875 L 4.109375 0 L 3.296875 0 L 3.296875 -3.8125 C 3.296875 -4.164062 3.265625 -4.445312 3.203125 -4.65625 C 3.148438 -4.863281 3.066406 -5.015625 2.953125 -5.109375 C 2.835938 -5.203125 2.695312 -5.25 2.53125 -5.25 C 2.257812 -5.25 2.050781 -5.15625 1.90625 -4.96875 C 1.769531 -4.789062 1.671875 -4.539062 1.609375 -4.21875 C 1.554688 -3.90625 1.53125 -3.546875 1.53125 -3.140625 L 1.53125 0 L 0.71875 0 L 0.71875 -5.859375 L 1.375 -5.859375 L 1.46875 -5.03125 L 1.515625 -5.03125 C 1.585938 -5.226562 1.679688 -5.394531 1.796875 -5.53125 C 1.921875 -5.675781 2.0625 -5.785156 2.21875 -5.859375 C 2.382812 -5.929688 2.566406 -5.96875 2.765625 -5.96875 C 3.109375 -5.96875 3.375 -5.875 3.5625 -5.6875 C 3.757812 -5.507812 3.890625 -5.28125 3.953125 -5 L 4.015625 -5 C 4.148438 -5.332031 4.316406 -5.578125 4.515625 -5.734375 C 4.722656 -5.890625 4.988281 -5.96875 5.3125 -5.96875 Z M 5.3125 -5.96875 "/></g></g></g><g fill="#2d6d5e" fill-opacity="1"><g transform="translate(109.439546, 125.486584)"><g><path d="M 2.28125 -5.96875 C 2.820312 -5.96875 3.207031 -5.796875 3.4375 -5.453125 C 3.675781 -5.109375 3.796875 -4.609375 3.796875 -3.953125 L 3.796875 0 L 3.171875 0 L 3.046875 -0.828125 L 3.015625 -0.828125 C 2.929688 -0.628906 2.820312 -0.457031 2.6875 -0.3125 C 2.5625 -0.175781 2.414062 -0.0703125 2.25 0 C 2.09375 0.0703125 1.90625 0.109375 1.6875 0.109375 C 1.382812 0.109375 1.132812 0.03125 0.9375 -0.125 C 0.75 -0.289062 0.609375 -0.503906 0.515625 -0.765625 C 0.421875 -1.023438 0.375 -1.304688 0.375 -1.609375 C 0.375 -2.191406 0.539062 -2.640625 0.875 -2.953125 C 1.21875 -3.273438 1.695312 -3.453125 2.3125 -3.484375 L 2.96875 -3.53125 L 2.96875 -3.9375 C 2.96875 -4.40625 2.90625 -4.742188 2.78125 -4.953125 C 2.65625 -5.171875 2.445312 -5.28125 2.15625 -5.28125 C 2 -5.28125 1.828125 -5.25 1.640625 -5.1875 C 1.460938 -5.132812 1.269531 -5.046875 1.0625 -4.921875 L 0.796875 -5.546875 C 1.015625 -5.691406 1.25 -5.796875 1.5 -5.859375 C 1.757812 -5.929688 2.019531 -5.96875 2.28125 -5.96875 Z M 2.984375 -2.921875 L 2.4375 -2.890625 C 2.03125 -2.867188 1.722656 -2.753906 1.515625 -2.546875 C 1.316406 -2.335938 1.21875 -2.035156 1.21875 -1.640625 C 1.21875 -1.265625 1.28125 -0.988281 1.40625 -0.8125 C 1.539062 -0.644531 1.722656 -0.5625 1.953125 -0.5625 C 2.285156 -0.5625 2.539062 -0.71875 2.71875 -1.03125 C 2.894531 -1.34375 2.984375 -1.773438 2.984375 -2.328125 Z M 2.984375 -2.921875 "/></g></g></g><g fill="#2d6d5e" fill-opacity="1"><g transform="translate(55.068052, 138.177556)"><g><path d="M 1.53125 -8.3125 L 1.53125 -5.859375 C 1.53125 -5.742188 1.523438 -5.613281 1.515625 -5.46875 C 1.515625 -5.332031 1.515625 -5.1875 1.515625 -5.03125 L 1.546875 -5.03125 C 1.691406 -5.34375 1.875 -5.570312 2.09375 -5.71875 C 2.3125 -5.875 2.5625 -5.953125 2.84375 -5.953125 C 3.40625 -5.953125 3.832031 -5.695312 4.125 -5.1875 C 4.414062 -4.675781 4.5625 -3.925781 4.5625 -2.9375 C 4.5625 -2.28125 4.492188 -1.722656 4.359375 -1.265625 C 4.234375 -0.816406 4.039062 -0.472656 3.78125 -0.234375 C 3.53125 -0.00390625 3.226562 0.109375 2.875 0.109375 C 2.582031 0.109375 2.328125 0.0351562 2.109375 -0.109375 C 1.890625 -0.253906 1.703125 -0.476562 1.546875 -0.78125 L 1.5 -0.78125 L 1.390625 0 L 0.71875 0 L 0.71875 -8.3125 Z M 2.671875 -5.234375 C 2.367188 -5.234375 2.132812 -5.140625 1.96875 -4.953125 C 1.8125 -4.765625 1.695312 -4.503906 1.625 -4.171875 C 1.5625 -3.835938 1.53125 -3.457031 1.53125 -3.03125 L 1.53125 -2.78125 C 1.53125 -2.039062 1.625 -1.492188 1.8125 -1.140625 C 2.007812 -0.785156 2.296875 -0.609375 2.671875 -0.609375 C 3.023438 -0.609375 3.285156 -0.796875 3.453125 -1.171875 C 3.628906 -1.554688 3.71875 -2.148438 3.71875 -2.953125 C 3.71875 -3.703125 3.632812 -4.269531 3.46875 -4.65625 C 3.300781 -5.039062 3.035156 -5.234375 2.671875 -5.234375 Z M 2.671875 -5.234375 "/></g></g></g><g fill="#2d6d5e" fill-opacity="1"><g transform="translate(61.606765, 138.177556)"><g><path d="M 2.671875 -5.96875 C 2.753906 -5.96875 2.835938 -5.957031 2.921875 -5.9375 C 3.003906 -5.925781 3.085938 -5.910156 3.171875 -5.890625 L 3.046875 -5.046875 C 2.984375 -5.066406 2.914062 -5.082031 2.84375 -5.09375 C 2.769531 -5.101562 2.691406 -5.109375 2.609375 -5.109375 C 2.453125 -5.109375 2.304688 -5.054688 2.171875 -4.953125 C 2.035156 -4.847656 1.921875 -4.703125 1.828125 -4.515625 C 1.734375 -4.328125 1.660156 -4.109375 1.609375 -3.859375 C 1.554688 -3.609375 1.53125 -3.34375 1.53125 -3.0625 L 1.53125 0 L 0.71875 0 L 0.71875 -5.859375 L 1.359375 -5.859375 L 1.46875 -4.828125 L 1.515625 -4.828125 C 1.597656 -5.046875 1.691406 -5.238281 1.796875 -5.40625 C 1.910156 -5.582031 2.039062 -5.71875 2.1875 -5.8125 C 2.332031 -5.914062 2.492188 -5.96875 2.671875 -5.96875 Z M 2.671875 -5.96875 "/></g></g></g><g fill="#2d6d5e" fill-opacity="1"><g transform="translate(66.419873, 138.177556)"><g><path d="M 1.546875 -5.859375 L 1.546875 0 L 0.71875 0 L 0.71875 -5.859375 Z M 1.140625 -8.0625 C 1.316406 -8.0625 1.441406 -8.007812 1.515625 -7.90625 C 1.585938 -7.800781 1.625 -7.648438 1.625 -7.453125 C 1.625 -7.273438 1.582031 -7.128906 1.5 -7.015625 C 1.425781 -6.910156 1.304688 -6.859375 1.140625 -6.859375 C 0.992188 -6.859375 0.875 -6.910156 0.78125 -7.015625 C 0.695312 -7.128906 0.65625 -7.273438 0.65625 -7.453125 C 0.65625 -7.648438 0.695312 -7.800781 0.78125 -7.90625 C 0.863281 -8.007812 0.984375 -8.0625 1.140625 -8.0625 Z M 1.140625 -8.0625 "/></g></g></g><g fill="#2d6d5e" fill-opacity="1"><g transform="translate(70.217919, 138.177556)"><g><path d="M 3.328125 -1.546875 C 3.328125 -1.191406 3.257812 -0.890625 3.125 -0.640625 C 3 -0.398438 2.8125 -0.210938 2.5625 -0.078125 C 2.320312 0.046875 2.03125 0.109375 1.6875 0.109375 C 1.414062 0.109375 1.164062 0.078125 0.9375 0.015625 C 0.71875 -0.046875 0.53125 -0.125 0.375 -0.21875 L 0.375 -1.078125 C 0.53125 -0.941406 0.722656 -0.832031 0.953125 -0.75 C 1.179688 -0.664062 1.414062 -0.625 1.65625 -0.625 C 1.925781 -0.625 2.132812 -0.703125 2.28125 -0.859375 C 2.4375 -1.015625 2.515625 -1.234375 2.515625 -1.515625 C 2.515625 -1.679688 2.484375 -1.828125 2.421875 -1.953125 C 2.359375 -2.078125 2.257812 -2.195312 2.125 -2.3125 C 1.988281 -2.425781 1.816406 -2.546875 1.609375 -2.671875 C 1.359375 -2.816406 1.140625 -2.96875 0.953125 -3.125 C 0.765625 -3.289062 0.617188 -3.476562 0.515625 -3.6875 C 0.421875 -3.894531 0.375 -4.144531 0.375 -4.4375 C 0.375 -4.894531 0.519531 -5.265625 0.8125 -5.546875 C 1.113281 -5.828125 1.503906 -5.96875 1.984375 -5.96875 C 2.234375 -5.96875 2.46875 -5.9375 2.6875 -5.875 C 2.90625 -5.8125 3.113281 -5.71875 3.3125 -5.59375 L 3 -4.9375 C 2.851562 -5.039062 2.691406 -5.117188 2.515625 -5.171875 C 2.347656 -5.234375 2.175781 -5.265625 2 -5.265625 C 1.738281 -5.265625 1.53125 -5.191406 1.375 -5.046875 C 1.226562 -4.898438 1.15625 -4.707031 1.15625 -4.46875 C 1.15625 -4.300781 1.1875 -4.15625 1.25 -4.03125 C 1.3125 -3.914062 1.410156 -3.800781 1.546875 -3.6875 C 1.679688 -3.582031 1.863281 -3.460938 2.09375 -3.328125 C 2.34375 -3.171875 2.554688 -3.015625 2.734375 -2.859375 C 2.921875 -2.703125 3.066406 -2.519531 3.171875 -2.3125 C 3.273438 -2.101562 3.328125 -1.847656 3.328125 -1.546875 Z M 3.328125 -1.546875 "/></g></g></g><g fill="#2d6d5e" fill-opacity="1"><g transform="translate(75.426367, 138.177556)"><g><path d="M 2.28125 -5.96875 C 2.820312 -5.96875 3.207031 -5.796875 3.4375 -5.453125 C 3.675781 -5.109375 3.796875 -4.609375 3.796875 -3.953125 L 3.796875 0 L 3.171875 0 L 3.046875 -0.828125 L 3.015625 -0.828125 C 2.929688 -0.628906 2.820312 -0.457031 2.6875 -0.3125 C 2.5625 -0.175781 2.414062 -0.0703125 2.25 0 C 2.09375 0.0703125 1.90625 0.109375 1.6875 0.109375 C 1.382812 0.109375 1.132812 0.03125 0.9375 -0.125 C 0.75 -0.289062 0.609375 -0.503906 0.515625 -0.765625 C 0.421875 -1.023438 0.375 -1.304688 0.375 -1.609375 C 0.375 -2.191406 0.539062 -2.640625 0.875 -2.953125 C 1.21875 -3.273438 1.695312 -3.453125 2.3125 -3.484375 L 2.96875 -3.53125 L 2.96875 -3.9375 C 2.96875 -4.40625 2.90625 -4.742188 2.78125 -4.953125 C 2.65625 -5.171875 2.445312 -5.28125 2.15625 -5.28125 C 2 -5.28125 1.828125 -5.25 1.640625 -5.1875 C 1.460938 -5.132812 1.269531 -5.046875 1.0625 -4.921875 L 0.796875 -5.546875 C 1.015625 -5.691406 1.25 -5.796875 1.5 -5.859375 C 1.757812 -5.929688 2.019531 -5.96875 2.28125 -5.96875 Z M 2.984375 -2.921875 L 2.4375 -2.890625 C 2.03125 -2.867188 1.722656 -2.753906 1.515625 -2.546875 C 1.316406 -2.335938 1.21875 -2.035156 1.21875 -1.640625 C 1.21875 -1.265625 1.28125 -0.988281 1.40625 -0.8125 C 1.539062 -0.644531 1.722656 -0.5625 1.953125 -0.5625 C 2.285156 -0.5625 2.539062 -0.71875 2.71875 -1.03125 C 2.894531 -1.34375 2.984375 -1.773438 2.984375 -2.328125 Z M 2.984375 -2.921875 "/></g></g></g><g clip-path="url(#94e6709e2a)"><g clip-path="url(#9813b46867)"><g clip-path="url(#a6434ba6eb)"><path fill="#0661aa" d="M 48.597656 62.65625 C 46.964844 62.902344 45.300781 63.050781 43.621094 63.101562 C 43.382812 63.109375 43.175781 62.917969 43.171875 62.675781 C 43.167969 62.429688 43.363281 62.226562 43.601562 62.21875 C 61.640625 61.707031 77.503906 49.164062 82.175781 31.734375 C 82.238281 31.496094 82.480469 31.359375 82.710938 31.421875 C 82.949219 31.484375 83.089844 31.722656 83.023438 31.960938 C 78.6875 48.140625 64.90625 60.195312 48.597656 62.65625 " fill-opacity="1" fill-rule="nonzero"/></g></g></g><g clip-path="url(#9ed6a68e83)"><g clip-path="url(#72bb499196)"><g clip-path="url(#ce63090277)"><path fill="#0661aa" d="M 48.28125 62.703125 C 48.128906 62.726562 47.972656 62.667969 47.867188 62.535156 C 47.71875 62.34375 47.757812 62.066406 47.953125 61.917969 C 48.007812 61.875 48.058594 61.828125 48.109375 61.785156 L 48.179688 61.71875 C 49.800781 60.253906 50.839844 58.25 51.09375 56.070312 C 51.121094 55.828125 51.339844 55.65625 51.582031 55.6875 C 51.824219 55.714844 51.996094 55.929688 51.964844 56.175781 C 51.6875 58.566406 50.550781 60.769531 48.765625 62.378906 L 48.695312 62.441406 C 48.625 62.503906 48.558594 62.5625 48.484375 62.617188 C 48.425781 62.664062 48.359375 62.691406 48.28125 62.703125 " fill-opacity="1" fill-rule="nonzero"/></g></g></g><g clip-path="url(#39ffba0725)"><g clip-path="url(#c04bb5fef7)"><g clip-path="url(#609e42b827)"><path fill="#0661aa" d="M 56.65625 66.480469 C 56.519531 66.5 56.371094 66.457031 56.269531 66.347656 C 54.359375 64.339844 51.792969 62.996094 49.046875 62.566406 C 48.804688 62.53125 48.644531 62.304688 48.679688 62.066406 C 48.71875 61.824219 48.941406 61.660156 49.183594 61.699219 C 52.121094 62.15625 54.863281 63.59375 56.910156 65.742188 C 57.078125 65.917969 57.066406 66.195312 56.890625 66.367188 C 56.824219 66.429688 56.738281 66.46875 56.65625 66.480469 " fill-opacity="1" fill-rule="nonzero"/></g></g></g><g clip-path="url(#a1e25e5586)"><g clip-path="url(#f0b4418a6d)"><g clip-path="url(#91bef8b352)"><path fill="#0661aa" d="M 65.390625 63.632812 C 60.648438 64.347656 58.71875 63.484375 58.621094 63.4375 C 58.398438 63.335938 58.304688 63.074219 58.410156 62.851562 C 58.511719 62.632812 58.773438 62.535156 58.992188 62.640625 C 59.046875 62.664062 61.914062 63.871094 69.273438 61.910156 C 80.453125 58.929688 85.847656 50.933594 88.421875 44.566406 C 86.863281 44.144531 85.363281 43.507812 83.949219 42.671875 C 83.785156 42.574219 83.699219 42.378906 83.75 42.1875 C 83.792969 42 83.957031 41.863281 84.152344 41.855469 C 86.355469 41.742188 88.476562 40.878906 90.132812 39.417969 C 91.375 34.785156 91.753906 30.542969 91.476562 28.726562 C 91.074219 26.042969 90.230469 20.453125 83.699219 21.4375 C 79.148438 22.125 77.289062 25.804688 75.144531 30.0625 C 73.335938 33.648438 71.285156 37.714844 67.238281 40.785156 C 66.269531 41.476562 65.453125 42.089844 64.742188 42.660156 C 64.179688 45.367188 63.804688 48.117188 63.632812 50.828125 C 63.625 51 63.507812 51.152344 63.347656 51.214844 C 63.183594 51.273438 63.003906 51.234375 62.878906 51.109375 C 61.710938 49.910156 60.863281 48.457031 60.390625 46.871094 C 58.546875 49.148438 57.835938 51.074219 57.140625 52.941406 C 56.542969 54.554688 55.980469 56.078125 54.757812 57.730469 C 54.613281 57.925781 54.339844 57.96875 54.144531 57.824219 C 53.949219 57.679688 53.910156 57.40625 54.054688 57.210938 C 55.195312 55.65625 55.742188 54.191406 56.316406 52.636719 C 57.101562 50.515625 57.914062 48.328125 60.277344 45.636719 C 60.386719 45.511719 60.558594 45.460938 60.71875 45.503906 C 60.882812 45.546875 61.007812 45.675781 61.039062 45.839844 C 61.328125 47.261719 61.941406 48.582031 62.832031 49.71875 C 63.03125 47.257812 63.394531 44.773438 63.914062 42.328125 C 63.933594 42.226562 63.984375 42.140625 64.066406 42.074219 C 64.816406 41.464844 65.683594 40.8125 66.722656 40.078125 C 70.59375 37.140625 72.59375 33.167969 74.355469 29.667969 C 76.613281 25.191406 78.5625 21.324219 83.570312 20.566406 C 90.96875 19.453125 91.972656 26.09375 92.347656 28.59375 C 92.628906 30.457031 92.3125 34.753906 90.953125 39.777344 C 90.929688 39.859375 90.886719 39.933594 90.820312 39.988281 C 89.351562 41.320312 87.539062 42.207031 85.609375 42.566406 C 86.734375 43.117188 87.910156 43.542969 89.117188 43.835938 C 89.238281 43.863281 89.347656 43.945312 89.40625 44.058594 C 89.460938 44.171875 89.46875 44.304688 89.421875 44.421875 C 86.851562 51.054688 81.308594 59.613281 69.5 62.757812 C 67.945312 63.175781 66.582031 63.453125 65.390625 63.632812 " fill-opacity="1" fill-rule="nonzero"/></g></g></g></svg>