<svg xmlns="http://www.w3.org/2000/svg" xmlns:xlink="http://www.w3.org/1999/xlink" width="180" zoomAndPan="magnify" viewBox="0 0 135 161.249994" height="215" preserveAspectRatio="xMidYMid meet" version="1.0"><defs><g/><clipPath id="4d601c83c9"><path d="M 38 27 L 94 27 L 94 74 L 38 74 Z M 38 27 " clip-rule="nonzero"/></clipPath><clipPath id="9f931f1a4c"><path d="M 82.519531 18.59375 L 104.328125 62.777344 L 52.78125 88.21875 L 30.972656 44.035156 Z M 82.519531 18.59375 " clip-rule="nonzero"/></clipPath><clipPath id="f28f37dc14"><path d="M 82.519531 18.59375 L 104.328125 62.777344 L 52.78125 88.21875 L 30.972656 44.035156 Z M 82.519531 18.59375 " clip-rule="nonzero"/></clipPath></defs><g clip-path="url(#4d601c83c9)"><g clip-path="url(#9f931f1a4c)"><g clip-path="url(#f28f37dc14)"><path fill="#0661aa" d="M 89.578125 66.242188 C 90.847656 62.105469 90.148438 57.050781 88.722656 54.558594 C 87.773438 52.890625 86.308594 52.054688 84.554688 52.167969 C 84.664062 51.375 84.699219 50.585938 84.660156 49.820312 C 84.871094 48.777344 85.386719 48.226562 86.675781 47.660156 C 87.296875 47.390625 87.871094 47.238281 88.484375 47.078125 C 89.246094 46.878906 90.035156 46.671875 90.910156 46.21875 C 91.246094 46.144531 91.597656 45.96875 91.90625 45.71875 C 92.339844 45.367188 92.636719 44.914062 92.714844 44.488281 C 93.484375 43.121094 93.730469 41.335938 93.421875 40.714844 C 93.417969 40.707031 93.417969 40.699219 93.414062 40.695312 C 93.035156 39.988281 91.519531 39.285156 89.996094 39.101562 C 89.621094 38.871094 89.074219 38.800781 88.503906 38.917969 C 88.140625 38.988281 87.796875 39.132812 87.535156 39.328125 C 86.808594 39.585938 86.207031 40.011719 85.570312 40.457031 C 84.914062 40.917969 84.171875 41.441406 83.167969 41.871094 C 82.378906 42.207031 81.621094 42.296875 80.914062 42.136719 C 80.324219 41.617188 79.671875 41.148438 78.964844 40.730469 C 79.832031 39.722656 80.480469 38.171875 79.566406 36.011719 C 78.460938 33.371094 74.871094 29.730469 70.816406 28.226562 C 67.902344 27.140625 65.023438 27.230469 62.492188 28.480469 C 62.273438 28.585938 62.140625 28.777344 62.128906 28.996094 C 62.097656 29.527344 62.734375 29.953125 64.171875 30.867188 C 65.316406 31.597656 66.882812 32.597656 67.230469 33.367188 C 67.519531 34.027344 68.382812 34.78125 69.371094 35.667969 C 70.410156 36.59375 71.5625 37.621094 72.152344 38.597656 C 69.871094 38.371094 67.441406 38.542969 65.085938 39.09375 C 63.183594 39.539062 60.832031 40.441406 58.28125 41.699219 C 55.089844 43.273438 53.492188 45.527344 51.796875 47.917969 C 51.480469 48.367188 51.15625 48.824219 50.820312 49.277344 C 49.371094 51.234375 48.363281 53.175781 47.820312 55.054688 C 47.535156 55.160156 47.101562 55.328125 46.578125 55.539062 C 46.375 55.617188 45.941406 55.757812 45.488281 55.90625 C 44.585938 56.195312 43.5625 56.523438 43.070312 56.78125 C 40.386719 58.1875 39.140625 59.003906 38.875 60.140625 C 38.800781 60.449219 38.828125 60.742188 38.957031 60.996094 C 38.984375 61.050781 39.015625 61.105469 39.050781 61.15625 C 39.621094 61.96875 41.195312 62.148438 42.585938 62.308594 C 43.214844 62.378906 43.871094 62.453125 44.140625 62.574219 C 45.195312 63.035156 46.378906 62.8125 48.132812 62.210938 C 48.234375 62.460938 48.332031 62.679688 48.4375 62.894531 C 48.652344 63.328125 48.902344 63.757812 49.1875 64.175781 C 47.542969 65.351562 46.65625 66.207031 46.421875 67.359375 C 46.359375 67.652344 46.046875 68.230469 45.742188 68.789062 C 45.070312 70.015625 44.3125 71.410156 44.648438 72.34375 C 44.769531 72.679688 45.023438 72.933594 45.378906 73.074219 C 46.101562 73.363281 47.34375 72.855469 49.53125 71.75 C 49.804688 71.609375 50.117188 71.464844 50.4375 71.316406 C 51.050781 71.03125 51.6875 70.734375 52.214844 70.417969 C 53.105469 69.882812 54.042969 69.277344 55.003906 68.609375 C 57.953125 69.738281 61.417969 70.023438 65.050781 69.433594 C 65.324219 69.390625 65.597656 69.347656 65.871094 69.304688 C 67.929688 68.984375 69.875 68.679688 72.027344 67.617188 C 73.824219 66.730469 75.765625 65.148438 77.1875 63.996094 L 77.296875 63.90625 C 79.226562 62.335938 80.824219 60.570312 82.058594 58.640625 C 82.558594 59.71875 82.6875 61.4375 82.792969 62.859375 C 82.894531 64.183594 82.96875 65.332031 83.320312 65.960938 C 83.726562 66.703125 83.558594 68.558594 83.441406 69.90625 C 83.292969 71.605469 83.246094 72.367188 83.683594 72.667969 C 83.867188 72.792969 84.097656 72.800781 84.316406 72.691406 C 86.847656 71.441406 88.667969 69.210938 89.578125 66.242188 Z M 84.28125 69.980469 C 84.421875 68.363281 84.589844 66.546875 84.0625 65.558594 C 83.808594 65.082031 83.726562 63.972656 83.636719 62.796875 C 83.492188 60.886719 83.332031 58.722656 82.382812 57.570312 L 82 57.105469 L 81.695312 57.625 C 80.46875 59.695312 78.808594 61.585938 76.761719 63.25 L 76.652344 63.339844 C 75.265625 64.46875 73.363281 66.015625 71.65625 66.859375 C 69.617188 67.863281 67.734375 68.160156 65.738281 68.46875 C 65.46875 68.511719 65.191406 68.554688 64.914062 68.601562 C 61.347656 69.179688 57.957031 68.882812 55.105469 67.742188 L 54.894531 67.65625 L 54.707031 67.785156 C 53.695312 68.492188 52.710938 69.136719 51.78125 69.691406 C 51.292969 69.984375 50.675781 70.273438 50.082031 70.550781 C 49.75 70.707031 49.433594 70.855469 49.152344 70.996094 C 48.265625 71.445312 46.195312 72.492188 45.691406 72.292969 C 45.519531 72.222656 45.46875 72.132812 45.441406 72.058594 C 45.234375 71.480469 45.984375 70.101562 46.484375 69.191406 C 46.847656 68.523438 47.164062 67.945312 47.246094 67.527344 C 47.441406 66.574219 48.335938 65.800781 50.019531 64.621094 L 50.375 64.371094 L 50.117188 64.023438 C 49.757812 63.542969 49.449219 63.035156 49.195312 62.519531 C 49.050781 62.230469 48.917969 61.914062 48.777344 61.53125 L 48.632812 61.140625 L 48.238281 61.28125 C 46.472656 61.910156 45.351562 62.179688 44.480469 61.800781 C 44.089844 61.628906 43.4375 61.554688 42.679688 61.46875 C 41.652344 61.351562 40.09375 61.175781 39.742188 60.671875 C 39.699219 60.609375 39.652344 60.511719 39.695312 60.332031 C 39.886719 59.523438 41.0625 58.785156 43.460938 57.53125 C 43.890625 57.308594 44.917969 56.976562 45.746094 56.707031 C 46.238281 56.550781 46.660156 56.414062 46.890625 56.320312 C 47.550781 56.058594 48.058594 55.863281 48.320312 55.769531 L 48.523438 55.691406 L 48.578125 55.484375 C 49.074219 53.644531 50.058594 51.722656 51.496094 49.78125 C 51.839844 49.320312 52.164062 48.859375 52.488281 48.40625 C 54.117188 46.105469 55.65625 43.9375 58.65625 42.457031 C 61.113281 41.242188 63.464844 40.339844 65.28125 39.914062 C 67.800781 39.324219 70.398438 39.191406 72.796875 39.527344 L 73.46875 39.621094 L 73.257812 38.976562 C 73.207031 38.820312 73.144531 38.667969 73.066406 38.511719 C 72.46875 37.296875 71.128906 36.105469 69.933594 35.035156 C 69.054688 34.25 68.210938 33.492188 68 33.019531 C 67.539062 32.003906 65.996094 31.027344 64.625 30.15625 C 64.101562 29.820312 63.421875 29.390625 63.113281 29.121094 C 65.394531 28.070312 67.886719 28.039062 70.519531 29.015625 C 74.363281 30.445312 77.742188 33.859375 78.789062 36.339844 C 79.480469 37.96875 79.214844 39.378906 77.996094 40.523438 L 77.570312 40.925781 L 78.085938 41.203125 C 78.949219 41.667969 79.738281 42.21875 80.429688 42.835938 L 80.503906 42.902344 L 80.605469 42.929688 C 81.523438 43.167969 82.5 43.074219 83.496094 42.648438 C 84.585938 42.183594 85.367188 41.632812 86.054688 41.148438 C 86.6875 40.703125 87.234375 40.320312 87.875 40.101562 L 87.941406 40.078125 L 88 40.035156 C 88.167969 39.898438 88.40625 39.796875 88.667969 39.746094 C 89.097656 39.660156 89.449219 39.738281 89.59375 39.847656 L 89.6875 39.917969 L 89.804688 39.929688 C 91.34375 40.089844 92.503906 40.78125 92.667969 41.09375 C 92.808594 41.375 92.671875 42.890625 91.941406 44.136719 L 91.898438 44.214844 L 91.886719 44.304688 C 91.867188 44.492188 91.703125 44.796875 91.375 45.0625 C 91.15625 45.238281 90.910156 45.363281 90.695312 45.398438 L 90.628906 45.410156 L 90.570312 45.441406 C 89.761719 45.871094 89.035156 46.0625 88.269531 46.261719 C 87.652344 46.421875 87.015625 46.589844 86.335938 46.886719 C 85.039062 47.457031 84.117188 48.15625 83.820312 49.710938 L 83.8125 49.8125 C 83.863281 50.710938 83.804688 51.640625 83.636719 52.578125 L 83.527344 53.171875 L 84.125 53.070312 C 85.800781 52.773438 87.101562 53.414062 87.988281 54.976562 C 89.320312 57.316406 89.972656 62.078125 88.773438 65.992188 C 87.949219 68.679688 86.40625 70.636719 84.183594 71.8125 C 84.160156 71.402344 84.226562 70.601562 84.28125 69.980469 Z M 84.28125 69.980469 " fill-opacity="1" fill-rule="nonzero"/></g></g></g><g fill="#0661aa" fill-opacity="1"><g transform="translate(35.617825, 95.796771)"><g><path d="M 0.84375 0 L 0.84375 -12.046875 L 6.375 -12.046875 C 7.644531 -12.046875 8.625 -11.765625 9.3125 -11.203125 C 10.007812 -10.648438 10.359375 -9.851562 10.359375 -8.8125 C 10.359375 -8.132812 10.179688 -7.5625 9.828125 -7.09375 C 9.472656 -6.632812 8.972656 -6.328125 8.328125 -6.171875 L 8.328125 -6.15625 C 9.054688 -6.007812 9.617188 -5.691406 10.015625 -5.203125 C 10.410156 -4.710938 10.609375 -4.082031 10.609375 -3.3125 C 10.609375 -2.269531 10.253906 -1.457031 9.546875 -0.875 C 8.835938 -0.289062 7.828125 0 6.515625 0 Z M 3.734375 -7.0625 L 5.90625 -7.0625 C 6.414062 -7.0625 6.804688 -7.1875 7.078125 -7.4375 C 7.359375 -7.695312 7.5 -8.054688 7.5 -8.515625 C 7.5 -8.972656 7.359375 -9.328125 7.078125 -9.578125 C 6.804688 -9.828125 6.421875 -9.953125 5.921875 -9.953125 L 3.734375 -9.953125 Z M 3.734375 -2.09375 L 5.9375 -2.09375 C 6.5 -2.09375 6.9375 -2.222656 7.25 -2.484375 C 7.5625 -2.753906 7.71875 -3.132812 7.71875 -3.625 C 7.71875 -4.125 7.5625 -4.515625 7.25 -4.796875 C 6.9375 -5.078125 6.5 -5.21875 5.9375 -5.21875 L 3.734375 -5.21875 Z M 3.734375 -2.09375 "/></g></g></g><g fill="#0661aa" fill-opacity="1"><g transform="translate(48.625207, 95.796771)"><g><path d="M 5.3125 -8.90625 C 6.019531 -8.90625 6.585938 -8.640625 7.015625 -8.109375 C 7.453125 -7.578125 7.691406 -6.828125 7.734375 -5.859375 L 5.546875 -5.265625 C 5.535156 -5.828125 5.429688 -6.25 5.234375 -6.53125 C 5.046875 -6.820312 4.796875 -6.96875 4.484375 -6.96875 C 4.097656 -6.96875 3.789062 -6.773438 3.5625 -6.390625 C 3.332031 -6.015625 3.21875 -5.488281 3.21875 -4.8125 L 3.21875 0 L 0.640625 0 L 0.640625 -8.65625 L 2.71875 -8.65625 L 3.078125 -7.171875 L 3.09375 -7.171875 C 3.289062 -7.710938 3.582031 -8.132812 3.96875 -8.4375 C 4.363281 -8.75 4.8125 -8.90625 5.3125 -8.90625 Z M 5.3125 -8.90625 "/></g></g></g><g fill="#0661aa" fill-opacity="1"><g transform="translate(58.503577, 95.796771)"><g><path d="M 5.0625 0.28125 C 4.125 0.28125 3.296875 0.09375 2.578125 -0.28125 C 1.867188 -0.664062 1.320312 -1.210938 0.9375 -1.921875 C 0.550781 -2.628906 0.359375 -3.445312 0.359375 -4.375 C 0.359375 -5.300781 0.535156 -6.101562 0.890625 -6.78125 C 1.242188 -7.46875 1.738281 -8.003906 2.375 -8.390625 C 3.019531 -8.773438 3.78125 -8.96875 4.65625 -8.96875 C 5.488281 -8.96875 6.207031 -8.785156 6.8125 -8.421875 C 7.425781 -8.054688 7.90625 -7.539062 8.25 -6.875 C 8.59375 -6.21875 8.765625 -5.441406 8.765625 -4.546875 C 8.765625 -4.367188 8.753906 -4.195312 8.734375 -4.03125 C 8.722656 -3.875 8.695312 -3.738281 8.65625 -3.625 L 2.9375 -3.625 C 3 -2.988281 3.21875 -2.488281 3.59375 -2.125 C 3.976562 -1.757812 4.472656 -1.578125 5.078125 -1.578125 C 5.535156 -1.578125 5.941406 -1.6875 6.296875 -1.90625 C 6.660156 -2.132812 6.929688 -2.445312 7.109375 -2.84375 L 8.921875 -2.046875 C 8.671875 -1.328125 8.1875 -0.757812 7.46875 -0.34375 C 6.757812 0.0703125 5.957031 0.28125 5.0625 0.28125 Z M 2.9375 -5.09375 L 6.1875 -5.09375 C 6.15625 -5.726562 6.003906 -6.21875 5.734375 -6.5625 C 5.460938 -6.914062 5.097656 -7.09375 4.640625 -7.09375 C 4.148438 -7.09375 3.757812 -6.914062 3.46875 -6.5625 C 3.175781 -6.207031 3 -5.71875 2.9375 -5.09375 Z M 2.9375 -5.09375 "/></g></g></g><g fill="#0661aa" fill-opacity="1"><g transform="translate(69.735039, 95.796771)"><g><path d="M 3 0.203125 C 2.175781 0.203125 1.507812 -0.015625 1 -0.453125 C 0.488281 -0.890625 0.234375 -1.484375 0.234375 -2.234375 C 0.234375 -3.023438 0.535156 -3.664062 1.140625 -4.15625 C 1.742188 -4.644531 2.628906 -4.953125 3.796875 -5.078125 L 5.125 -5.234375 C 5.320312 -5.253906 5.476562 -5.316406 5.59375 -5.421875 C 5.707031 -5.535156 5.765625 -5.703125 5.765625 -5.921875 C 5.765625 -6.304688 5.644531 -6.597656 5.40625 -6.796875 C 5.175781 -7.003906 4.867188 -7.109375 4.484375 -7.109375 C 4.046875 -7.109375 3.691406 -6.953125 3.421875 -6.640625 C 3.148438 -6.335938 3.003906 -5.957031 2.984375 -5.5 L 0.53125 -5.859375 C 0.550781 -6.460938 0.726562 -7 1.0625 -7.46875 C 1.394531 -7.9375 1.847656 -8.300781 2.421875 -8.5625 C 3.003906 -8.832031 3.6875 -8.96875 4.46875 -8.96875 C 5.65625 -8.96875 6.59375 -8.65625 7.28125 -8.03125 C 7.96875 -7.414062 8.3125 -6.578125 8.3125 -5.515625 L 8.3125 -2.171875 C 8.3125 -1.785156 8.453125 -1.59375 8.734375 -1.59375 C 8.953125 -1.59375 9.164062 -1.703125 9.375 -1.921875 L 9.9375 -0.546875 C 9.664062 -0.285156 9.335938 -0.09375 8.953125 0.03125 C 8.566406 0.15625 8.1875 0.21875 7.8125 0.21875 C 7.300781 0.21875 6.863281 0.0859375 6.5 -0.171875 C 6.144531 -0.441406 5.925781 -0.78125 5.84375 -1.1875 L 5.796875 -1.40625 L 5.78125 -1.40625 C 5.519531 -0.90625 5.144531 -0.507812 4.65625 -0.21875 C 4.175781 0.0625 3.625 0.203125 3 0.203125 Z M 4.0625 -1.609375 C 4.539062 -1.609375 4.9375 -1.78125 5.25 -2.125 C 5.570312 -2.46875 5.734375 -2.914062 5.734375 -3.46875 L 5.734375 -3.875 L 4.46875 -3.734375 C 3.882812 -3.671875 3.460938 -3.53125 3.203125 -3.3125 C 2.953125 -3.101562 2.828125 -2.851562 2.828125 -2.5625 C 2.828125 -2.269531 2.941406 -2.035156 3.171875 -1.859375 C 3.398438 -1.691406 3.695312 -1.609375 4.0625 -1.609375 Z M 4.0625 -1.609375 "/></g></g></g><g fill="#0661aa" fill-opacity="1"><g transform="translate(80.678808, 95.796771)"><g><path d="M 4.640625 0.265625 C 3.640625 0.265625 2.875 -0.00390625 2.34375 -0.546875 C 1.8125 -1.085938 1.546875 -1.816406 1.546875 -2.734375 L 1.515625 -6.703125 L 0.0625 -6.703125 L 0.0625 -8.65625 L 1.546875 -8.65625 L 1.546875 -10.96875 L 4.109375 -11.546875 L 4.109375 -8.65625 L 7.078125 -8.65625 L 7.078125 -6.703125 L 4.109375 -6.703125 L 4.125 -3.203125 C 4.125 -2.773438 4.222656 -2.4375 4.421875 -2.1875 C 4.628906 -1.945312 4.90625 -1.828125 5.25 -1.828125 C 5.882812 -1.828125 6.351562 -2.179688 6.65625 -2.890625 L 7.5 -1.3125 C 7.226562 -0.8125 6.835938 -0.421875 6.328125 -0.140625 C 5.828125 0.128906 5.265625 0.265625 4.640625 0.265625 Z M 4.640625 0.265625 "/></g></g></g><g fill="#0661aa" fill-opacity="1"><g transform="translate(90.286582, 95.796771)"><g><path d="M 0.640625 0 L 0.640625 -12.5625 L 3.21875 -12.5625 L 3.21875 -7.1875 L 3.234375 -7.1875 C 3.503906 -7.726562 3.875 -8.144531 4.34375 -8.4375 C 4.8125 -8.738281 5.347656 -8.890625 5.953125 -8.890625 C 6.753906 -8.890625 7.378906 -8.648438 7.828125 -8.171875 C 8.273438 -7.703125 8.5 -7.03125 8.5 -6.15625 L 8.5 0 L 5.90625 0 L 5.90625 -5.5 C 5.90625 -5.90625 5.800781 -6.21875 5.59375 -6.4375 C 5.394531 -6.664062 5.113281 -6.78125 4.75 -6.78125 C 4.289062 -6.78125 3.921875 -6.628906 3.640625 -6.328125 C 3.359375 -6.035156 3.21875 -5.625 3.21875 -5.09375 L 3.21875 0 Z M 0.640625 0 "/></g></g></g><g fill="#0661aa" fill-opacity="1"><g transform="translate(32.899998, 115.953019)"><g><path d="M 0.84375 0 L 0.84375 -12.046875 L 3.734375 -12.046875 L 3.734375 -7.390625 L 7.796875 -7.390625 L 7.796875 -12.046875 L 10.6875 -12.046875 L 10.6875 0 L 7.796875 0 L 7.796875 -5.078125 L 3.734375 -5.078125 L 3.734375 0 Z M 0.84375 0 "/></g></g></g><g fill="#0661aa" fill-opacity="1"><g transform="translate(46.448605, 115.953019)"><g><path d="M 4.75 0.28125 C 3.863281 0.28125 3.085938 0.09375 2.421875 -0.28125 C 1.765625 -0.65625 1.253906 -1.1875 0.890625 -1.875 C 0.535156 -2.570312 0.359375 -3.390625 0.359375 -4.328125 C 0.359375 -5.273438 0.535156 -6.09375 0.890625 -6.78125 C 1.253906 -7.476562 1.765625 -8.015625 2.421875 -8.390625 C 3.085938 -8.773438 3.863281 -8.96875 4.75 -8.96875 C 5.644531 -8.96875 6.421875 -8.773438 7.078125 -8.390625 C 7.734375 -8.015625 8.238281 -7.476562 8.59375 -6.78125 C 8.957031 -6.09375 9.140625 -5.273438 9.140625 -4.328125 C 9.140625 -3.390625 8.957031 -2.570312 8.59375 -1.875 C 8.238281 -1.1875 7.734375 -0.65625 7.078125 -0.28125 C 6.421875 0.09375 5.644531 0.28125 4.75 0.28125 Z M 4.75 -1.875 C 5.3125 -1.875 5.753906 -2.09375 6.078125 -2.53125 C 6.398438 -2.96875 6.5625 -3.566406 6.5625 -4.328125 C 6.5625 -5.097656 6.398438 -5.695312 6.078125 -6.125 C 5.753906 -6.5625 5.3125 -6.78125 4.75 -6.78125 C 4.1875 -6.78125 3.738281 -6.5625 3.40625 -6.125 C 3.082031 -5.695312 2.921875 -5.097656 2.921875 -4.328125 C 2.921875 -3.566406 3.082031 -2.96875 3.40625 -2.53125 C 3.738281 -2.09375 4.1875 -1.875 4.75 -1.875 Z M 4.75 -1.875 "/></g></g></g><g fill="#0661aa" fill-opacity="1"><g transform="translate(57.950686, 115.953019)"><g><path d="M 0.640625 0 L 0.640625 -12.5625 L 3.21875 -12.5625 L 3.21875 0 Z M 0.640625 0 "/></g></g></g><g fill="#0661aa" fill-opacity="1"><g transform="translate(63.803666, 115.953019)"><g><path d="M 3.78125 0.234375 C 3.082031 0.234375 2.476562 0.0507812 1.96875 -0.3125 C 1.457031 -0.6875 1.0625 -1.21875 0.78125 -1.90625 C 0.5 -2.59375 0.359375 -3.398438 0.359375 -4.328125 C 0.359375 -5.265625 0.5 -6.070312 0.78125 -6.75 C 1.0625 -7.4375 1.457031 -7.96875 1.96875 -8.34375 C 2.476562 -8.71875 3.070312 -8.90625 3.75 -8.90625 C 4.34375 -8.90625 4.863281 -8.753906 5.3125 -8.453125 C 5.757812 -8.160156 6.109375 -7.738281 6.359375 -7.1875 L 6.375 -7.1875 L 6.375 -12.5625 L 8.96875 -12.5625 L 8.96875 0 L 6.765625 0 L 6.453125 -1.5 L 6.4375 -1.5 C 6.1875 -0.9375 5.828125 -0.503906 5.359375 -0.203125 C 4.898438 0.0859375 4.375 0.234375 3.78125 0.234375 Z M 4.71875 -1.984375 C 5.25 -1.984375 5.675781 -2.195312 6 -2.625 C 6.320312 -3.050781 6.484375 -3.617188 6.484375 -4.328125 C 6.484375 -5.035156 6.320312 -5.601562 6 -6.03125 C 5.675781 -6.46875 5.25 -6.6875 4.71875 -6.6875 C 4.1875 -6.6875 3.753906 -6.46875 3.421875 -6.03125 C 3.097656 -5.601562 2.9375 -5.035156 2.9375 -4.328125 C 2.9375 -3.617188 3.097656 -3.050781 3.421875 -2.625 C 3.753906 -2.195312 4.1875 -1.984375 4.71875 -1.984375 Z M 4.71875 -1.984375 "/></g></g></g><g fill="#0661aa" fill-opacity="1"><g transform="translate(75.407231, 115.953019)"><g><path d="M 2 -9.84375 C 1.53125 -9.84375 1.15625 -9.976562 0.875 -10.25 C 0.601562 -10.519531 0.46875 -10.878906 0.46875 -11.328125 C 0.46875 -11.773438 0.601562 -12.132812 0.875 -12.40625 C 1.15625 -12.675781 1.53125 -12.8125 2 -12.8125 C 2.457031 -12.8125 2.820312 -12.675781 3.09375 -12.40625 C 3.375 -12.132812 3.515625 -11.773438 3.515625 -11.328125 C 3.515625 -10.878906 3.375 -10.519531 3.09375 -10.25 C 2.820312 -9.976562 2.457031 -9.84375 2 -9.84375 Z M 0.6875 0 L 0.6875 -8.65625 L 3.28125 -8.65625 L 3.28125 0 Z M 0.6875 0 "/></g></g></g><g fill="#0661aa" fill-opacity="1"><g transform="translate(81.395514, 115.953019)"><g><path d="M 5.90625 -8.890625 C 6.707031 -8.890625 7.335938 -8.648438 7.796875 -8.171875 C 8.265625 -7.691406 8.5 -7.019531 8.5 -6.15625 L 8.5 0 L 5.90625 0 L 5.90625 -5.5 C 5.90625 -5.90625 5.800781 -6.21875 5.59375 -6.4375 C 5.394531 -6.664062 5.113281 -6.78125 4.75 -6.78125 C 4.289062 -6.78125 3.921875 -6.628906 3.640625 -6.328125 C 3.359375 -6.035156 3.21875 -5.625 3.21875 -5.09375 L 3.21875 0 L 0.640625 0 L 0.640625 -8.65625 L 2.78125 -8.65625 L 3.125 -7.1875 L 3.140625 -7.1875 C 3.398438 -7.726562 3.769531 -8.144531 4.25 -8.4375 C 4.738281 -8.738281 5.289062 -8.890625 5.90625 -8.890625 Z M 5.90625 -8.890625 "/></g></g></g><g fill="#0661aa" fill-opacity="1"><g transform="translate(92.474757, 115.953019)"><g><path d="M 4.109375 3.84375 C 3.265625 3.84375 2.46875 3.703125 1.71875 3.421875 C 0.96875 3.140625 0.367188 2.753906 -0.078125 2.265625 L 0.90625 0.40625 C 1.257812 0.800781 1.695312 1.117188 2.21875 1.359375 C 2.75 1.597656 3.285156 1.71875 3.828125 1.71875 C 4.597656 1.71875 5.210938 1.5 5.671875 1.0625 C 6.140625 0.632812 6.375 0.0507812 6.375 -0.6875 L 6.375 -1.5625 L 6.359375 -1.5625 C 6.109375 -1.070312 5.742188 -0.679688 5.265625 -0.390625 C 4.796875 -0.0976562 4.285156 0.046875 3.734375 0.046875 C 3.054688 0.046875 2.46875 -0.128906 1.96875 -0.484375 C 1.46875 -0.847656 1.078125 -1.359375 0.796875 -2.015625 C 0.523438 -2.679688 0.390625 -3.457031 0.390625 -4.34375 C 0.390625 -5.28125 0.523438 -6.085938 0.796875 -6.765625 C 1.066406 -7.453125 1.445312 -7.984375 1.9375 -8.359375 C 2.4375 -8.734375 3.019531 -8.921875 3.6875 -8.921875 C 4.269531 -8.921875 4.804688 -8.757812 5.296875 -8.4375 C 5.785156 -8.125 6.144531 -7.703125 6.375 -7.171875 L 6.390625 -7.171875 L 6.703125 -8.65625 L 8.96875 -8.65625 L 8.96875 -0.65625 C 8.96875 0.28125 8.769531 1.085938 8.375 1.765625 C 7.976562 2.441406 7.414062 2.957031 6.6875 3.3125 C 5.957031 3.664062 5.097656 3.84375 4.109375 3.84375 Z M 4.734375 -2.0625 C 5.265625 -2.0625 5.6875 -2.269531 6 -2.6875 C 6.320312 -3.113281 6.484375 -3.6875 6.484375 -4.40625 C 6.484375 -5.113281 6.320312 -5.679688 6 -6.109375 C 5.6875 -6.535156 5.265625 -6.75 4.734375 -6.75 C 4.203125 -6.75 3.773438 -6.535156 3.453125 -6.109375 C 3.140625 -5.691406 2.984375 -5.125 2.984375 -4.40625 C 2.984375 -3.675781 3.140625 -3.101562 3.453125 -2.6875 C 3.773438 -2.269531 4.203125 -2.0625 4.734375 -2.0625 Z M 4.734375 -2.0625 "/></g></g></g><g fill="#0661aa" fill-opacity="1"><g transform="translate(24.979805, 136.109268)"><g><path d="M 6.453125 0.375 C 5.234375 0.375 4.171875 0.113281 3.265625 -0.40625 C 2.367188 -0.9375 1.675781 -1.679688 1.1875 -2.640625 C 0.707031 -3.597656 0.46875 -4.726562 0.46875 -6.03125 C 0.46875 -7.332031 0.695312 -8.460938 1.15625 -9.421875 C 1.613281 -10.378906 2.265625 -11.117188 3.109375 -11.640625 C 3.953125 -12.160156 4.957031 -12.421875 6.125 -12.421875 C 7.0625 -12.421875 7.894531 -12.238281 8.625 -11.875 C 9.351562 -11.507812 9.945312 -10.984375 10.40625 -10.296875 C 10.863281 -9.609375 11.15625 -8.796875 11.28125 -7.859375 L 8.609375 -7.328125 C 8.472656 -8.148438 8.191406 -8.789062 7.765625 -9.25 C 7.335938 -9.71875 6.789062 -9.953125 6.125 -9.953125 C 5.28125 -9.953125 4.609375 -9.597656 4.109375 -8.890625 C 3.617188 -8.179688 3.375 -7.226562 3.375 -6.03125 C 3.375 -4.832031 3.648438 -3.878906 4.203125 -3.171875 C 4.765625 -2.472656 5.523438 -2.125 6.484375 -2.125 C 7.265625 -2.125 7.921875 -2.398438 8.453125 -2.953125 C 8.992188 -3.503906 9.332031 -4.238281 9.46875 -5.15625 L 12.1875 -4.765625 C 12.0625 -3.722656 11.738281 -2.8125 11.21875 -2.03125 C 10.707031 -1.257812 10.046875 -0.664062 9.234375 -0.25 C 8.421875 0.164062 7.492188 0.375 6.453125 0.375 Z M 6.453125 0.375 "/></g></g></g><g fill="#0661aa" fill-opacity="1"><g transform="translate(39.40792, 136.109268)"><g><path d="M 3 0.203125 C 2.175781 0.203125 1.507812 -0.015625 1 -0.453125 C 0.488281 -0.890625 0.234375 -1.484375 0.234375 -2.234375 C 0.234375 -3.023438 0.535156 -3.664062 1.140625 -4.15625 C 1.742188 -4.644531 2.628906 -4.953125 3.796875 -5.078125 L 5.125 -5.234375 C 5.320312 -5.253906 5.476562 -5.316406 5.59375 -5.421875 C 5.707031 -5.535156 5.765625 -5.703125 5.765625 -5.921875 C 5.765625 -6.304688 5.644531 -6.597656 5.40625 -6.796875 C 5.175781 -7.003906 4.867188 -7.109375 4.484375 -7.109375 C 4.046875 -7.109375 3.691406 -6.953125 3.421875 -6.640625 C 3.148438 -6.335938 3.003906 -5.957031 2.984375 -5.5 L 0.53125 -5.859375 C 0.550781 -6.460938 0.726562 -7 1.0625 -7.46875 C 1.394531 -7.9375 1.847656 -8.300781 2.421875 -8.5625 C 3.003906 -8.832031 3.6875 -8.96875 4.46875 -8.96875 C 5.65625 -8.96875 6.59375 -8.65625 7.28125 -8.03125 C 7.96875 -7.414062 8.3125 -6.578125 8.3125 -5.515625 L 8.3125 -2.171875 C 8.3125 -1.785156 8.453125 -1.59375 8.734375 -1.59375 C 8.953125 -1.59375 9.164062 -1.703125 9.375 -1.921875 L 9.9375 -0.546875 C 9.664062 -0.285156 9.335938 -0.09375 8.953125 0.03125 C 8.566406 0.15625 8.1875 0.21875 7.8125 0.21875 C 7.300781 0.21875 6.863281 0.0859375 6.5 -0.171875 C 6.144531 -0.441406 5.925781 -0.78125 5.84375 -1.1875 L 5.796875 -1.40625 L 5.78125 -1.40625 C 5.519531 -0.90625 5.144531 -0.507812 4.65625 -0.21875 C 4.175781 0.0625 3.625 0.203125 3 0.203125 Z M 4.0625 -1.609375 C 4.539062 -1.609375 4.9375 -1.78125 5.25 -2.125 C 5.570312 -2.46875 5.734375 -2.914062 5.734375 -3.46875 L 5.734375 -3.875 L 4.46875 -3.734375 C 3.882812 -3.671875 3.460938 -3.53125 3.203125 -3.3125 C 2.953125 -3.101562 2.828125 -2.851562 2.828125 -2.5625 C 2.828125 -2.269531 2.941406 -2.035156 3.171875 -1.859375 C 3.398438 -1.691406 3.695312 -1.609375 4.0625 -1.609375 Z M 4.0625 -1.609375 "/></g></g></g><g fill="#0661aa" fill-opacity="1"><g transform="translate(51.332839, 136.109268)"><g><path d="M 0.640625 3.546875 L 0.640625 -8.65625 L 2.84375 -8.65625 L 3.171875 -7.15625 L 3.1875 -7.15625 C 3.425781 -7.71875 3.78125 -8.148438 4.25 -8.453125 C 4.71875 -8.753906 5.25 -8.90625 5.84375 -8.90625 C 6.53125 -8.90625 7.125 -8.71875 7.625 -8.34375 C 8.132812 -7.96875 8.53125 -7.4375 8.8125 -6.75 C 9.09375 -6.070312 9.234375 -5.265625 9.234375 -4.328125 C 9.234375 -3.398438 9.09375 -2.59375 8.8125 -1.90625 C 8.53125 -1.21875 8.132812 -0.6875 7.625 -0.3125 C 7.125 0.0507812 6.53125 0.234375 5.84375 0.234375 C 5.257812 0.234375 4.742188 0.0859375 4.296875 -0.203125 C 3.847656 -0.492188 3.492188 -0.914062 3.234375 -1.46875 L 3.21875 -1.46875 L 3.21875 3.546875 Z M 4.890625 -1.984375 C 5.421875 -1.984375 5.847656 -2.195312 6.171875 -2.625 C 6.492188 -3.050781 6.65625 -3.617188 6.65625 -4.328125 C 6.65625 -5.054688 6.492188 -5.628906 6.171875 -6.046875 C 5.847656 -6.472656 5.421875 -6.6875 4.890625 -6.6875 C 4.359375 -6.6875 3.925781 -6.46875 3.59375 -6.03125 C 3.269531 -5.601562 3.109375 -5.035156 3.109375 -4.328125 C 3.109375 -3.617188 3.269531 -3.050781 3.59375 -2.625 C 3.925781 -2.195312 4.359375 -1.984375 4.890625 -1.984375 Z M 4.890625 -1.984375 "/></g></g></g><g fill="#0661aa" fill-opacity="1"><g transform="translate(62.936404, 136.109268)"><g><path d="M 3 0.203125 C 2.175781 0.203125 1.507812 -0.015625 1 -0.453125 C 0.488281 -0.890625 0.234375 -1.484375 0.234375 -2.234375 C 0.234375 -3.023438 0.535156 -3.664062 1.140625 -4.15625 C 1.742188 -4.644531 2.628906 -4.953125 3.796875 -5.078125 L 5.125 -5.234375 C 5.320312 -5.253906 5.476562 -5.316406 5.59375 -5.421875 C 5.707031 -5.535156 5.765625 -5.703125 5.765625 -5.921875 C 5.765625 -6.304688 5.644531 -6.597656 5.40625 -6.796875 C 5.175781 -7.003906 4.867188 -7.109375 4.484375 -7.109375 C 4.046875 -7.109375 3.691406 -6.953125 3.421875 -6.640625 C 3.148438 -6.335938 3.003906 -5.957031 2.984375 -5.5 L 0.53125 -5.859375 C 0.550781 -6.460938 0.726562 -7 1.0625 -7.46875 C 1.394531 -7.9375 1.847656 -8.300781 2.421875 -8.5625 C 3.003906 -8.832031 3.6875 -8.96875 4.46875 -8.96875 C 5.65625 -8.96875 6.59375 -8.65625 7.28125 -8.03125 C 7.96875 -7.414062 8.3125 -6.578125 8.3125 -5.515625 L 8.3125 -2.171875 C 8.3125 -1.785156 8.453125 -1.59375 8.734375 -1.59375 C 8.953125 -1.59375 9.164062 -1.703125 9.375 -1.921875 L 9.9375 -0.546875 C 9.664062 -0.285156 9.335938 -0.09375 8.953125 0.03125 C 8.566406 0.15625 8.1875 0.21875 7.8125 0.21875 C 7.300781 0.21875 6.863281 0.0859375 6.5 -0.171875 C 6.144531 -0.441406 5.925781 -0.78125 5.84375 -1.1875 L 5.796875 -1.40625 L 5.78125 -1.40625 C 5.519531 -0.90625 5.144531 -0.507812 4.65625 -0.21875 C 4.175781 0.0625 3.625 0.203125 3 0.203125 Z M 4.0625 -1.609375 C 4.539062 -1.609375 4.9375 -1.78125 5.25 -2.125 C 5.570312 -2.46875 5.734375 -2.914062 5.734375 -3.46875 L 5.734375 -3.875 L 4.46875 -3.734375 C 3.882812 -3.671875 3.460938 -3.53125 3.203125 -3.3125 C 2.953125 -3.101562 2.828125 -2.851562 2.828125 -2.5625 C 2.828125 -2.269531 2.941406 -2.035156 3.171875 -1.859375 C 3.398438 -1.691406 3.695312 -1.609375 4.0625 -1.609375 Z M 4.0625 -1.609375 "/></g></g></g><g fill="#0661aa" fill-opacity="1"><g transform="translate(74.30309, 136.109268)"><g><path d="M 4.65625 0.28125 C 3.78125 0.28125 3.019531 0.09375 2.375 -0.28125 C 1.738281 -0.65625 1.242188 -1.1875 0.890625 -1.875 C 0.535156 -2.570312 0.359375 -3.390625 0.359375 -4.328125 C 0.367188 -5.273438 0.539062 -6.09375 0.875 -6.78125 C 1.21875 -7.476562 1.695312 -8.015625 2.3125 -8.390625 C 2.925781 -8.773438 3.644531 -8.96875 4.46875 -8.96875 C 5.507812 -8.96875 6.375 -8.664062 7.0625 -8.0625 C 7.75 -7.46875 8.175781 -6.664062 8.34375 -5.65625 L 5.96875 -5.109375 C 5.894531 -5.679688 5.722656 -6.117188 5.453125 -6.421875 C 5.191406 -6.722656 4.878906 -6.875 4.515625 -6.875 C 4.046875 -6.875 3.664062 -6.644531 3.375 -6.1875 C 3.082031 -5.738281 2.9375 -5.117188 2.9375 -4.328125 C 2.957031 -3.535156 3.125 -2.914062 3.4375 -2.46875 C 3.757812 -2.03125 4.179688 -1.8125 4.703125 -1.8125 C 5.148438 -1.8125 5.53125 -1.984375 5.84375 -2.328125 C 6.15625 -2.671875 6.34375 -3.15625 6.40625 -3.78125 L 8.796875 -3.421875 C 8.660156 -2.285156 8.21875 -1.382812 7.46875 -0.71875 C 6.726562 -0.0507812 5.789062 0.28125 4.65625 0.28125 Z M 4.65625 0.28125 "/></g></g></g><g fill="#0661aa" fill-opacity="1"><g transform="translate(85.365418, 136.109268)"><g><path d="M 2 -9.84375 C 1.53125 -9.84375 1.15625 -9.976562 0.875 -10.25 C 0.601562 -10.519531 0.46875 -10.878906 0.46875 -11.328125 C 0.46875 -11.773438 0.601562 -12.132812 0.875 -12.40625 C 1.15625 -12.675781 1.53125 -12.8125 2 -12.8125 C 2.457031 -12.8125 2.820312 -12.675781 3.09375 -12.40625 C 3.375 -12.132812 3.515625 -11.773438 3.515625 -11.328125 C 3.515625 -10.878906 3.375 -10.519531 3.09375 -10.25 C 2.820312 -9.976562 2.457031 -9.84375 2 -9.84375 Z M 0.6875 0 L 0.6875 -8.65625 L 3.28125 -8.65625 L 3.28125 0 Z M 0.6875 0 "/></g></g></g><g fill="#0661aa" fill-opacity="1"><g transform="translate(91.353701, 136.109268)"><g><path d="M 4.640625 0.265625 C 3.640625 0.265625 2.875 -0.00390625 2.34375 -0.546875 C 1.8125 -1.085938 1.546875 -1.816406 1.546875 -2.734375 L 1.515625 -6.703125 L 0.0625 -6.703125 L 0.0625 -8.65625 L 1.546875 -8.65625 L 1.546875 -10.96875 L 4.109375 -11.546875 L 4.109375 -8.65625 L 7.078125 -8.65625 L 7.078125 -6.703125 L 4.109375 -6.703125 L 4.125 -3.203125 C 4.125 -2.773438 4.222656 -2.4375 4.421875 -2.1875 C 4.628906 -1.945312 4.90625 -1.828125 5.25 -1.828125 C 5.882812 -1.828125 6.351562 -2.179688 6.65625 -2.890625 L 7.5 -1.3125 C 7.226562 -0.8125 6.835938 -0.421875 6.328125 -0.140625 C 5.828125 0.128906 5.265625 0.265625 4.640625 0.265625 Z M 4.640625 0.265625 "/></g></g></g><g fill="#0661aa" fill-opacity="1"><g transform="translate(100.927643, 136.109268)"><g><path d="M 3.78125 3.84375 C 2.96875 3.84375 2.203125 3.703125 1.484375 3.421875 C 0.773438 3.140625 0.203125 2.753906 -0.234375 2.265625 L 0.78125 0.4375 C 1.101562 0.820312 1.503906 1.128906 1.984375 1.359375 C 2.460938 1.585938 2.972656 1.703125 3.515625 1.703125 C 4.253906 1.703125 4.832031 1.492188 5.25 1.078125 C 5.675781 0.660156 5.890625 0.09375 5.890625 -0.625 L 5.890625 -1.375 L 5.875 -1.375 C 5.625 -0.851562 5.273438 -0.4375 4.828125 -0.125 C 4.390625 0.175781 3.910156 0.328125 3.390625 0.328125 C 2.515625 0.328125 1.828125 0.0390625 1.328125 -0.53125 C 0.828125 -1.113281 0.578125 -1.890625 0.578125 -2.859375 L 0.578125 -8.65625 L 3.171875 -8.65625 L 3.171875 -3.28125 C 3.171875 -2.832031 3.28125 -2.472656 3.5 -2.203125 C 3.71875 -1.929688 4.019531 -1.796875 4.40625 -1.796875 C 4.832031 -1.796875 5.179688 -1.941406 5.453125 -2.234375 C 5.722656 -2.535156 5.859375 -2.929688 5.859375 -3.421875 L 5.859375 -8.65625 L 8.421875 -8.65625 L 8.4375 -0.453125 C 8.4375 0.429688 8.25 1.195312 7.875 1.84375 C 7.5 2.488281 6.960938 2.984375 6.265625 3.328125 C 5.566406 3.671875 4.738281 3.84375 3.78125 3.84375 Z M 3.78125 3.84375 "/></g></g></g></svg>