<svg xmlns="http://www.w3.org/2000/svg" xmlns:xlink="http://www.w3.org/1999/xlink" width="180" zoomAndPan="magnify" viewBox="0 0 135 161.249994" height="215" preserveAspectRatio="xMidYMid meet" version="1.0"><defs><g/><clipPath id="e069653cfb"><path d="M 38 29 L 94 29 L 94 75 L 38 75 Z M 38 29 " clip-rule="nonzero"/></clipPath><clipPath id="efac490683"><path d="M 82.519531 20.222656 L 104.328125 64.40625 L 52.78125 89.847656 L 30.972656 45.667969 Z M 82.519531 20.222656 " clip-rule="nonzero"/></clipPath><clipPath id="8d7c027938"><path d="M 82.519531 20.222656 L 104.328125 64.40625 L 52.78125 89.847656 L 30.972656 45.667969 Z M 82.519531 20.222656 " clip-rule="nonzero"/></clipPath></defs><g clip-path="url(#e069653cfb)"><g clip-path="url(#efac490683)"><g clip-path="url(#8d7c027938)"><path fill="#0661aa" d="M 89.578125 67.871094 C 90.847656 63.734375 90.148438 58.679688 88.722656 56.1875 C 87.773438 54.519531 86.308594 53.683594 84.554688 53.796875 C 84.664062 53.003906 84.699219 52.214844 84.660156 51.449219 C 84.871094 50.40625 85.386719 49.859375 86.675781 49.292969 C 87.296875 49.019531 87.871094 48.867188 88.484375 48.707031 C 89.246094 48.507812 90.035156 48.304688 90.910156 47.847656 C 91.246094 47.773438 91.597656 47.597656 91.90625 47.347656 C 92.339844 46.996094 92.636719 46.542969 92.714844 46.117188 C 93.484375 44.753906 93.730469 42.964844 93.421875 42.34375 C 93.417969 42.335938 93.417969 42.332031 93.414062 42.324219 C 93.035156 41.621094 91.519531 40.914062 89.996094 40.730469 C 89.621094 40.503906 89.074219 40.433594 88.503906 40.546875 C 88.140625 40.617188 87.796875 40.761719 87.535156 40.957031 C 86.808594 41.21875 86.207031 41.640625 85.570312 42.089844 C 84.914062 42.546875 84.171875 43.070312 83.167969 43.5 C 82.378906 43.835938 81.621094 43.925781 80.914062 43.765625 C 80.324219 43.246094 79.671875 42.777344 78.964844 42.359375 C 79.832031 41.355469 80.480469 39.800781 79.566406 37.640625 C 78.460938 35.003906 74.871094 31.363281 70.816406 29.855469 C 67.902344 28.773438 65.023438 28.859375 62.492188 30.109375 C 62.273438 30.21875 62.140625 30.40625 62.128906 30.625 C 62.097656 31.15625 62.734375 31.582031 64.171875 32.496094 C 65.316406 33.226562 66.882812 34.226562 67.230469 34.996094 C 67.519531 35.660156 68.382812 36.410156 69.371094 37.296875 C 70.410156 38.222656 71.5625 39.25 72.152344 40.226562 C 69.871094 40.003906 67.441406 40.171875 65.085938 40.722656 C 63.183594 41.167969 60.832031 42.070312 58.28125 43.328125 C 55.089844 44.902344 53.492188 47.160156 51.796875 49.546875 C 51.480469 49.996094 51.15625 50.453125 50.820312 50.90625 C 49.371094 52.863281 48.363281 54.804688 47.820312 56.683594 C 47.535156 56.792969 47.101562 56.957031 46.578125 57.167969 C 46.375 57.25 45.941406 57.386719 45.488281 57.535156 C 44.585938 57.824219 43.5625 58.15625 43.070312 58.414062 C 40.386719 59.816406 39.140625 60.632812 38.875 61.769531 C 38.800781 62.078125 38.828125 62.371094 38.957031 62.628906 C 38.984375 62.683594 39.015625 62.734375 39.050781 62.789062 C 39.621094 63.597656 41.195312 63.78125 42.585938 63.9375 C 43.214844 64.011719 43.871094 64.085938 44.140625 64.203125 C 45.195312 64.664062 46.378906 64.445312 48.132812 63.84375 C 48.234375 64.089844 48.332031 64.3125 48.4375 64.523438 C 48.652344 64.960938 48.902344 65.390625 49.1875 65.804688 C 47.542969 66.980469 46.65625 67.835938 46.421875 68.988281 C 46.359375 69.28125 46.046875 69.859375 45.742188 70.417969 C 45.070312 71.648438 44.3125 73.039062 44.648438 73.972656 C 44.769531 74.308594 45.023438 74.5625 45.378906 74.703125 C 46.101562 74.996094 47.34375 74.484375 49.53125 73.378906 C 49.804688 73.242188 50.117188 73.097656 50.4375 72.945312 C 51.050781 72.660156 51.6875 72.363281 52.214844 72.046875 C 53.105469 71.511719 54.042969 70.90625 55.003906 70.238281 C 57.953125 71.367188 61.417969 71.652344 65.050781 71.0625 C 65.324219 71.019531 65.597656 70.976562 65.871094 70.933594 C 67.929688 70.613281 69.875 70.308594 72.027344 69.246094 C 73.824219 68.359375 75.765625 66.78125 77.1875 65.625 L 77.296875 65.535156 C 79.226562 63.96875 80.824219 62.199219 82.058594 60.273438 C 82.558594 61.347656 82.6875 63.066406 82.792969 64.492188 C 82.894531 65.816406 82.96875 66.960938 83.320312 67.589844 C 83.726562 68.332031 83.558594 70.1875 83.441406 71.535156 C 83.292969 73.234375 83.246094 74 83.683594 74.296875 C 83.867188 74.421875 84.097656 74.429688 84.316406 74.320312 C 86.847656 73.074219 88.667969 70.84375 89.578125 67.871094 Z M 84.28125 71.609375 C 84.421875 69.992188 84.589844 68.179688 84.0625 67.1875 C 83.808594 66.710938 83.726562 65.605469 83.636719 64.425781 C 83.492188 62.519531 83.332031 60.355469 82.382812 59.199219 L 82 58.734375 L 81.695312 59.253906 C 80.46875 61.324219 78.808594 63.21875 76.761719 64.882812 L 76.652344 64.96875 C 75.265625 66.097656 73.363281 67.644531 71.65625 68.488281 C 69.617188 69.492188 67.734375 69.789062 65.738281 70.097656 C 65.46875 70.140625 65.191406 70.183594 64.914062 70.230469 C 61.347656 70.808594 57.957031 70.511719 55.105469 69.371094 L 54.894531 69.285156 L 54.707031 69.417969 C 53.695312 70.125 52.710938 70.765625 51.78125 71.324219 C 51.292969 71.617188 50.675781 71.902344 50.082031 72.179688 C 49.75 72.335938 49.433594 72.484375 49.152344 72.625 C 48.265625 73.074219 46.195312 74.121094 45.691406 73.921875 C 45.519531 73.851562 45.46875 73.761719 45.441406 73.6875 C 45.234375 73.109375 45.984375 71.734375 46.484375 70.820312 C 46.847656 70.152344 47.164062 69.574219 47.246094 69.160156 C 47.441406 68.203125 48.335938 67.429688 50.019531 66.25 L 50.375 66 L 50.117188 65.652344 C 49.757812 65.171875 49.449219 64.664062 49.195312 64.148438 C 49.050781 63.859375 48.917969 63.546875 48.777344 63.164062 L 48.632812 62.769531 L 48.238281 62.910156 C 46.472656 63.539062 45.351562 63.808594 44.480469 63.429688 C 44.089844 63.261719 43.4375 63.1875 42.679688 63.097656 C 41.652344 62.980469 40.09375 62.804688 39.742188 62.300781 C 39.699219 62.238281 39.652344 62.144531 39.695312 61.964844 C 39.886719 61.15625 41.0625 60.414062 43.460938 59.160156 C 43.890625 58.9375 44.917969 58.605469 45.746094 58.339844 C 46.238281 58.179688 46.660156 58.042969 46.890625 57.953125 C 47.550781 57.6875 48.058594 57.496094 48.320312 57.398438 L 48.523438 57.324219 L 48.578125 57.113281 C 49.074219 55.273438 50.058594 53.355469 51.496094 51.410156 C 51.839844 50.949219 52.164062 50.492188 52.488281 50.035156 C 54.117188 47.738281 55.65625 45.566406 58.65625 44.085938 C 61.113281 42.871094 63.464844 41.972656 65.28125 41.546875 C 67.800781 40.953125 70.398438 40.820312 72.796875 41.15625 L 73.46875 41.25 L 73.257812 40.605469 C 73.207031 40.453125 73.144531 40.296875 73.066406 40.140625 C 72.46875 38.925781 71.128906 37.734375 69.933594 36.667969 C 69.054688 35.878906 68.210938 35.121094 68 34.648438 C 67.539062 33.636719 65.996094 32.65625 64.625 31.785156 C 64.101562 31.453125 63.421875 31.019531 63.113281 30.75 C 65.394531 29.703125 67.886719 29.667969 70.519531 30.644531 C 74.363281 32.074219 77.742188 35.492188 78.789062 37.96875 C 79.480469 39.597656 79.214844 41.007812 77.996094 42.15625 L 77.570312 42.554688 L 78.085938 42.835938 C 78.949219 43.300781 79.738281 43.847656 80.429688 44.464844 L 80.503906 44.53125 L 80.605469 44.558594 C 81.523438 44.796875 82.5 44.703125 83.496094 44.277344 C 84.585938 43.8125 85.367188 43.261719 86.054688 42.777344 C 86.6875 42.335938 87.234375 41.953125 87.875 41.730469 L 87.941406 41.707031 L 88 41.664062 C 88.167969 41.527344 88.40625 41.425781 88.667969 41.375 C 89.097656 41.289062 89.449219 41.367188 89.59375 41.476562 L 89.6875 41.546875 L 89.804688 41.558594 C 91.34375 41.722656 92.503906 42.414062 92.667969 42.722656 C 92.808594 43.003906 92.671875 44.519531 91.941406 45.765625 L 91.898438 45.84375 L 91.886719 45.933594 C 91.867188 46.121094 91.703125 46.425781 91.375 46.691406 C 91.15625 46.867188 90.910156 46.992188 90.695312 47.027344 L 90.628906 47.039062 L 90.570312 47.070312 C 89.761719 47.503906 89.035156 47.691406 88.269531 47.890625 C 87.652344 48.050781 87.015625 48.21875 86.335938 48.519531 C 85.039062 49.089844 84.117188 49.785156 83.820312 51.339844 L 83.8125 51.445312 C 83.863281 52.34375 83.804688 53.273438 83.636719 54.207031 L 83.527344 54.804688 L 84.125 54.699219 C 85.800781 54.40625 87.101562 55.046875 87.988281 56.605469 C 89.320312 58.945312 89.972656 63.707031 88.773438 67.621094 C 87.949219 70.308594 86.40625 72.265625 84.183594 73.441406 C 84.160156 73.03125 84.226562 72.230469 84.28125 71.609375 Z M 84.28125 71.609375 " fill-opacity="1" fill-rule="nonzero"/></g></g></g><g fill="#0661aa" fill-opacity="1"><g transform="translate(15.624452, 94.903503)"><g><path d="M 6.0625 0.34375 C 4.914062 0.34375 3.921875 0.0976562 3.078125 -0.390625 C 2.234375 -0.878906 1.582031 -1.578125 1.125 -2.484375 C 0.675781 -3.390625 0.453125 -4.453125 0.453125 -5.671875 C 0.453125 -6.898438 0.664062 -7.960938 1.09375 -8.859375 C 1.519531 -9.765625 2.128906 -10.460938 2.921875 -10.953125 C 3.722656 -11.441406 4.671875 -11.6875 5.765625 -11.6875 C 6.640625 -11.6875 7.421875 -11.515625 8.109375 -11.171875 C 8.796875 -10.828125 9.351562 -10.332031 9.78125 -9.6875 C 10.21875 -9.039062 10.5 -8.273438 10.625 -7.390625 L 8.109375 -6.890625 C 7.972656 -7.671875 7.703125 -8.273438 7.296875 -8.703125 C 6.898438 -9.140625 6.390625 -9.359375 5.765625 -9.359375 C 4.960938 -9.359375 4.328125 -9.023438 3.859375 -8.359375 C 3.398438 -7.703125 3.171875 -6.804688 3.171875 -5.671875 C 3.171875 -4.546875 3.429688 -3.648438 3.953125 -2.984375 C 4.484375 -2.328125 5.195312 -2 6.09375 -2 C 6.832031 -2 7.453125 -2.253906 7.953125 -2.765625 C 8.460938 -3.285156 8.785156 -3.984375 8.921875 -4.859375 L 11.46875 -4.484375 C 11.34375 -3.503906 11.039062 -2.648438 10.5625 -1.921875 C 10.082031 -1.191406 9.457031 -0.628906 8.6875 -0.234375 C 7.925781 0.148438 7.050781 0.34375 6.0625 0.34375 Z M 6.0625 0.34375 "/></g></g></g><g fill="#0661aa" fill-opacity="1"><g transform="translate(29.206447, 94.903503)"><g><path d="M 2.8125 0.1875 C 2.039062 0.1875 1.414062 -0.015625 0.9375 -0.421875 C 0.457031 -0.835938 0.21875 -1.398438 0.21875 -2.109375 C 0.21875 -2.847656 0.5 -3.445312 1.0625 -3.90625 C 1.632812 -4.363281 2.46875 -4.65625 3.5625 -4.78125 L 4.828125 -4.921875 C 5.003906 -4.941406 5.144531 -5.003906 5.25 -5.109375 C 5.363281 -5.210938 5.421875 -5.367188 5.421875 -5.578125 C 5.421875 -5.929688 5.3125 -6.203125 5.09375 -6.390625 C 4.875 -6.585938 4.582031 -6.6875 4.21875 -6.6875 C 3.800781 -6.6875 3.460938 -6.539062 3.203125 -6.25 C 2.953125 -5.96875 2.816406 -5.609375 2.796875 -5.171875 L 0.5 -5.515625 C 0.519531 -6.085938 0.6875 -6.59375 1 -7.03125 C 1.3125 -7.46875 1.738281 -7.8125 2.28125 -8.0625 C 2.832031 -8.3125 3.472656 -8.4375 4.203125 -8.4375 C 5.316406 -8.4375 6.195312 -8.144531 6.84375 -7.5625 C 7.488281 -6.976562 7.8125 -6.1875 7.8125 -5.1875 L 7.8125 -2.03125 C 7.8125 -1.675781 7.945312 -1.5 8.21875 -1.5 C 8.425781 -1.5 8.628906 -1.601562 8.828125 -1.8125 L 9.34375 -0.515625 C 9.09375 -0.265625 8.785156 -0.0820312 8.421875 0.03125 C 8.054688 0.144531 7.703125 0.203125 7.359375 0.203125 C 6.867188 0.203125 6.457031 0.078125 6.125 -0.171875 C 5.789062 -0.421875 5.582031 -0.734375 5.5 -1.109375 L 5.46875 -1.328125 L 5.4375 -1.328125 C 5.195312 -0.859375 4.847656 -0.488281 4.390625 -0.21875 C 3.929688 0.0507812 3.40625 0.1875 2.8125 0.1875 Z M 3.828125 -1.515625 C 4.273438 -1.515625 4.644531 -1.675781 4.9375 -2 C 5.238281 -2.320312 5.390625 -2.742188 5.390625 -3.265625 L 5.390625 -3.640625 L 4.203125 -3.515625 C 3.648438 -3.453125 3.253906 -3.316406 3.015625 -3.109375 C 2.773438 -2.910156 2.65625 -2.675781 2.65625 -2.40625 C 2.65625 -2.132812 2.765625 -1.914062 2.984375 -1.75 C 3.203125 -1.59375 3.484375 -1.515625 3.828125 -1.515625 Z M 3.828125 -1.515625 "/></g></g></g><g fill="#0661aa" fill-opacity="1"><g transform="translate(40.431964, 94.903503)"><g><path d="M 0.609375 3.34375 L 0.609375 -8.15625 L 2.671875 -8.15625 L 2.984375 -6.734375 L 3 -6.734375 C 3.226562 -7.265625 3.5625 -7.671875 4 -7.953125 C 4.445312 -8.234375 4.945312 -8.375 5.5 -8.375 C 6.144531 -8.375 6.703125 -8.195312 7.171875 -7.84375 C 7.648438 -7.5 8.019531 -7.003906 8.28125 -6.359375 C 8.550781 -5.710938 8.6875 -4.953125 8.6875 -4.078125 C 8.6875 -3.203125 8.550781 -2.441406 8.28125 -1.796875 C 8.019531 -1.148438 7.648438 -0.648438 7.171875 -0.296875 C 6.703125 0.046875 6.144531 0.21875 5.5 0.21875 C 4.957031 0.21875 4.472656 0.0820312 4.046875 -0.1875 C 3.617188 -0.46875 3.285156 -0.867188 3.046875 -1.390625 L 3.03125 -1.390625 L 3.03125 3.34375 Z M 4.59375 -1.859375 C 5.09375 -1.859375 5.492188 -2.0625 5.796875 -2.46875 C 6.097656 -2.875 6.25 -3.410156 6.25 -4.078125 C 6.25 -4.753906 6.097656 -5.289062 5.796875 -5.6875 C 5.492188 -6.09375 5.09375 -6.296875 4.59375 -6.296875 C 4.101562 -6.296875 3.703125 -6.09375 3.390625 -5.6875 C 3.078125 -5.28125 2.921875 -4.742188 2.921875 -4.078125 C 2.921875 -3.410156 3.078125 -2.875 3.390625 -2.46875 C 3.703125 -2.0625 4.101562 -1.859375 4.59375 -1.859375 Z M 4.59375 -1.859375 "/></g></g></g><g fill="#0661aa" fill-opacity="1"><g transform="translate(51.354967, 94.903503)"><g><path d="M 2.8125 0.1875 C 2.039062 0.1875 1.414062 -0.015625 0.9375 -0.421875 C 0.457031 -0.835938 0.21875 -1.398438 0.21875 -2.109375 C 0.21875 -2.847656 0.5 -3.445312 1.0625 -3.90625 C 1.632812 -4.363281 2.46875 -4.65625 3.5625 -4.78125 L 4.828125 -4.921875 C 5.003906 -4.941406 5.144531 -5.003906 5.25 -5.109375 C 5.363281 -5.210938 5.421875 -5.367188 5.421875 -5.578125 C 5.421875 -5.929688 5.3125 -6.203125 5.09375 -6.390625 C 4.875 -6.585938 4.582031 -6.6875 4.21875 -6.6875 C 3.800781 -6.6875 3.460938 -6.539062 3.203125 -6.25 C 2.953125 -5.96875 2.816406 -5.609375 2.796875 -5.171875 L 0.5 -5.515625 C 0.519531 -6.085938 0.6875 -6.59375 1 -7.03125 C 1.3125 -7.46875 1.738281 -7.8125 2.28125 -8.0625 C 2.832031 -8.3125 3.472656 -8.4375 4.203125 -8.4375 C 5.316406 -8.4375 6.195312 -8.144531 6.84375 -7.5625 C 7.488281 -6.976562 7.8125 -6.1875 7.8125 -5.1875 L 7.8125 -2.03125 C 7.8125 -1.675781 7.945312 -1.5 8.21875 -1.5 C 8.425781 -1.5 8.628906 -1.601562 8.828125 -1.8125 L 9.34375 -0.515625 C 9.09375 -0.265625 8.785156 -0.0820312 8.421875 0.03125 C 8.054688 0.144531 7.703125 0.203125 7.359375 0.203125 C 6.867188 0.203125 6.457031 0.078125 6.125 -0.171875 C 5.789062 -0.421875 5.582031 -0.734375 5.5 -1.109375 L 5.46875 -1.328125 L 5.4375 -1.328125 C 5.195312 -0.859375 4.847656 -0.488281 4.390625 -0.21875 C 3.929688 0.0507812 3.40625 0.1875 2.8125 0.1875 Z M 3.828125 -1.515625 C 4.273438 -1.515625 4.644531 -1.675781 4.9375 -2 C 5.238281 -2.320312 5.390625 -2.742188 5.390625 -3.265625 L 5.390625 -3.640625 L 4.203125 -3.515625 C 3.648438 -3.453125 3.253906 -3.316406 3.015625 -3.109375 C 2.773438 -2.910156 2.65625 -2.675781 2.65625 -2.40625 C 2.65625 -2.132812 2.765625 -1.914062 2.984375 -1.75 C 3.203125 -1.59375 3.484375 -1.515625 3.828125 -1.515625 Z M 3.828125 -1.515625 "/></g></g></g><g fill="#0661aa" fill-opacity="1"><g transform="translate(62.055011, 94.903503)"><g><path d="M 4.375 0.265625 C 3.5625 0.265625 2.851562 0.0859375 2.25 -0.265625 C 1.644531 -0.617188 1.171875 -1.117188 0.828125 -1.765625 C 0.492188 -2.421875 0.328125 -3.191406 0.328125 -4.078125 C 0.335938 -4.960938 0.503906 -5.734375 0.828125 -6.390625 C 1.148438 -7.046875 1.597656 -7.550781 2.171875 -7.90625 C 2.753906 -8.257812 3.429688 -8.4375 4.203125 -8.4375 C 5.179688 -8.4375 5.992188 -8.15625 6.640625 -7.59375 C 7.285156 -7.03125 7.6875 -6.269531 7.84375 -5.3125 L 5.625 -4.8125 C 5.550781 -5.351562 5.390625 -5.765625 5.140625 -6.046875 C 4.890625 -6.328125 4.59375 -6.46875 4.25 -6.46875 C 3.800781 -6.46875 3.441406 -6.253906 3.171875 -5.828125 C 2.898438 -5.398438 2.765625 -4.816406 2.765625 -4.078125 C 2.773438 -3.335938 2.929688 -2.753906 3.234375 -2.328125 C 3.535156 -1.910156 3.929688 -1.703125 4.421875 -1.703125 C 4.847656 -1.703125 5.207031 -1.863281 5.5 -2.1875 C 5.789062 -2.507812 5.96875 -2.960938 6.03125 -3.546875 L 8.28125 -3.21875 C 8.15625 -2.15625 7.738281 -1.304688 7.03125 -0.671875 C 6.332031 -0.046875 5.445312 0.265625 4.375 0.265625 Z M 4.375 0.265625 "/></g></g></g><g fill="#0661aa" fill-opacity="1"><g transform="translate(72.468501, 94.903503)"><g><path d="M 1.875 -9.265625 C 1.4375 -9.265625 1.085938 -9.390625 0.828125 -9.640625 C 0.578125 -9.898438 0.453125 -10.238281 0.453125 -10.65625 C 0.453125 -11.070312 0.578125 -11.40625 0.828125 -11.65625 C 1.085938 -11.914062 1.4375 -12.046875 1.875 -12.046875 C 2.3125 -12.046875 2.660156 -11.914062 2.921875 -11.65625 C 3.179688 -11.40625 3.3125 -11.070312 3.3125 -10.65625 C 3.3125 -10.238281 3.179688 -9.898438 2.921875 -9.640625 C 2.660156 -9.390625 2.3125 -9.265625 1.875 -9.265625 Z M 0.65625 0 L 0.65625 -8.15625 L 3.09375 -8.15625 L 3.09375 0 Z M 0.65625 0 "/></g></g></g><g fill="#0661aa" fill-opacity="1"><g transform="translate(78.105369, 94.903503)"><g><path d="M 3.546875 0.21875 C 2.898438 0.21875 2.332031 0.046875 1.84375 -0.296875 C 1.363281 -0.648438 0.988281 -1.148438 0.71875 -1.796875 C 0.457031 -2.441406 0.328125 -3.203125 0.328125 -4.078125 C 0.328125 -4.953125 0.457031 -5.710938 0.71875 -6.359375 C 0.988281 -7.003906 1.363281 -7.5 1.84375 -7.84375 C 2.332031 -8.195312 2.894531 -8.375 3.53125 -8.375 C 4.082031 -8.375 4.570312 -8.234375 5 -7.953125 C 5.425781 -7.679688 5.753906 -7.285156 5.984375 -6.765625 L 6 -6.765625 L 6 -11.8125 L 8.4375 -11.8125 L 8.4375 0 L 6.375 0 L 6.0625 -1.421875 L 6.046875 -1.421875 C 5.816406 -0.890625 5.484375 -0.484375 5.046875 -0.203125 C 4.609375 0.078125 4.109375 0.21875 3.546875 0.21875 Z M 4.4375 -1.859375 C 4.9375 -1.859375 5.335938 -2.0625 5.640625 -2.46875 C 5.941406 -2.875 6.09375 -3.410156 6.09375 -4.078125 C 6.09375 -4.742188 5.941406 -5.28125 5.640625 -5.6875 C 5.335938 -6.09375 4.9375 -6.296875 4.4375 -6.296875 C 3.9375 -6.296875 3.53125 -6.09375 3.21875 -5.6875 C 2.914062 -5.28125 2.765625 -4.742188 2.765625 -4.078125 C 2.765625 -3.410156 2.914062 -2.875 3.21875 -2.46875 C 3.53125 -2.0625 3.9375 -1.859375 4.4375 -1.859375 Z M 4.4375 -1.859375 "/></g></g></g><g fill="#0661aa" fill-opacity="1"><g transform="translate(89.028371, 94.903503)"><g><path d="M 2.8125 0.1875 C 2.039062 0.1875 1.414062 -0.015625 0.9375 -0.421875 C 0.457031 -0.835938 0.21875 -1.398438 0.21875 -2.109375 C 0.21875 -2.847656 0.5 -3.445312 1.0625 -3.90625 C 1.632812 -4.363281 2.46875 -4.65625 3.5625 -4.78125 L 4.828125 -4.921875 C 5.003906 -4.941406 5.144531 -5.003906 5.25 -5.109375 C 5.363281 -5.210938 5.421875 -5.367188 5.421875 -5.578125 C 5.421875 -5.929688 5.3125 -6.203125 5.09375 -6.390625 C 4.875 -6.585938 4.582031 -6.6875 4.21875 -6.6875 C 3.800781 -6.6875 3.460938 -6.539062 3.203125 -6.25 C 2.953125 -5.96875 2.816406 -5.609375 2.796875 -5.171875 L 0.5 -5.515625 C 0.519531 -6.085938 0.6875 -6.59375 1 -7.03125 C 1.3125 -7.46875 1.738281 -7.8125 2.28125 -8.0625 C 2.832031 -8.3125 3.472656 -8.4375 4.203125 -8.4375 C 5.316406 -8.4375 6.195312 -8.144531 6.84375 -7.5625 C 7.488281 -6.976562 7.8125 -6.1875 7.8125 -5.1875 L 7.8125 -2.03125 C 7.8125 -1.675781 7.945312 -1.5 8.21875 -1.5 C 8.425781 -1.5 8.628906 -1.601562 8.828125 -1.8125 L 9.34375 -0.515625 C 9.09375 -0.265625 8.785156 -0.0820312 8.421875 0.03125 C 8.054688 0.144531 7.703125 0.203125 7.359375 0.203125 C 6.867188 0.203125 6.457031 0.078125 6.125 -0.171875 C 5.789062 -0.421875 5.582031 -0.734375 5.5 -1.109375 L 5.46875 -1.328125 L 5.4375 -1.328125 C 5.195312 -0.859375 4.847656 -0.488281 4.390625 -0.21875 C 3.929688 0.0507812 3.40625 0.1875 2.8125 0.1875 Z M 3.828125 -1.515625 C 4.273438 -1.515625 4.644531 -1.675781 4.9375 -2 C 5.238281 -2.320312 5.390625 -2.742188 5.390625 -3.265625 L 5.390625 -3.640625 L 4.203125 -3.515625 C 3.648438 -3.453125 3.253906 -3.316406 3.015625 -3.109375 C 2.773438 -2.910156 2.65625 -2.675781 2.65625 -2.40625 C 2.65625 -2.132812 2.765625 -1.914062 2.984375 -1.75 C 3.203125 -1.59375 3.484375 -1.515625 3.828125 -1.515625 Z M 3.828125 -1.515625 "/></g></g></g><g fill="#0661aa" fill-opacity="1"><g transform="translate(99.728416, 94.903503)"><g><path d="M 3.546875 0.21875 C 2.898438 0.21875 2.332031 0.046875 1.84375 -0.296875 C 1.363281 -0.648438 0.988281 -1.148438 0.71875 -1.796875 C 0.457031 -2.441406 0.328125 -3.203125 0.328125 -4.078125 C 0.328125 -4.953125 0.457031 -5.710938 0.71875 -6.359375 C 0.988281 -7.003906 1.363281 -7.5 1.84375 -7.84375 C 2.332031 -8.195312 2.894531 -8.375 3.53125 -8.375 C 4.082031 -8.375 4.570312 -8.234375 5 -7.953125 C 5.425781 -7.679688 5.753906 -7.285156 5.984375 -6.765625 L 6 -6.765625 L 6 -11.8125 L 8.4375 -11.8125 L 8.4375 0 L 6.375 0 L 6.0625 -1.421875 L 6.046875 -1.421875 C 5.816406 -0.890625 5.484375 -0.484375 5.046875 -0.203125 C 4.609375 0.078125 4.109375 0.21875 3.546875 0.21875 Z M 4.4375 -1.859375 C 4.9375 -1.859375 5.335938 -2.0625 5.640625 -2.46875 C 5.941406 -2.875 6.09375 -3.410156 6.09375 -4.078125 C 6.09375 -4.742188 5.941406 -5.28125 5.640625 -5.6875 C 5.335938 -6.09375 4.9375 -6.296875 4.4375 -6.296875 C 3.9375 -6.296875 3.53125 -6.09375 3.21875 -5.6875 C 2.914062 -5.28125 2.765625 -4.742188 2.765625 -4.078125 C 2.765625 -3.410156 2.914062 -2.875 3.21875 -2.46875 C 3.53125 -2.0625 3.9375 -1.859375 4.4375 -1.859375 Z M 4.4375 -1.859375 "/></g></g></g><g fill="#0661aa" fill-opacity="1"><g transform="translate(110.651419, 94.903503)"><g><path d="M 4.765625 0.265625 C 3.878906 0.265625 3.101562 0.0859375 2.4375 -0.265625 C 1.769531 -0.628906 1.25 -1.140625 0.875 -1.796875 C 0.507812 -2.460938 0.328125 -3.238281 0.328125 -4.125 C 0.328125 -4.988281 0.492188 -5.742188 0.828125 -6.390625 C 1.171875 -7.035156 1.644531 -7.535156 2.25 -7.890625 C 2.851562 -8.253906 3.5625 -8.4375 4.375 -8.4375 C 5.164062 -8.4375 5.847656 -8.265625 6.421875 -7.921875 C 6.992188 -7.578125 7.441406 -7.09375 7.765625 -6.46875 C 8.085938 -5.851562 8.25 -5.125 8.25 -4.28125 C 8.25 -4.113281 8.238281 -3.953125 8.21875 -3.796875 C 8.207031 -3.640625 8.1875 -3.507812 8.15625 -3.40625 L 2.765625 -3.40625 C 2.816406 -2.8125 3.023438 -2.34375 3.390625 -2 C 3.753906 -1.65625 4.21875 -1.484375 4.78125 -1.484375 C 5.207031 -1.484375 5.585938 -1.585938 5.921875 -1.796875 C 6.265625 -2.015625 6.519531 -2.304688 6.6875 -2.671875 L 8.390625 -1.921875 C 8.160156 -1.242188 7.707031 -0.707031 7.03125 -0.3125 C 6.363281 0.0703125 5.609375 0.265625 4.765625 0.265625 Z M 2.765625 -4.796875 L 5.828125 -4.796875 C 5.796875 -5.390625 5.648438 -5.847656 5.390625 -6.171875 C 5.140625 -6.503906 4.796875 -6.671875 4.359375 -6.671875 C 3.898438 -6.671875 3.53125 -6.503906 3.25 -6.171875 C 2.976562 -5.835938 2.816406 -5.378906 2.765625 -4.796875 Z M 2.765625 -4.796875 "/></g></g></g><g fill="#0661aa" fill-opacity="1"><g transform="translate(12.941618, 114.313224)"><g><path d="M 3.546875 0.21875 C 2.898438 0.21875 2.332031 0.046875 1.84375 -0.296875 C 1.363281 -0.648438 0.988281 -1.148438 0.71875 -1.796875 C 0.457031 -2.441406 0.328125 -3.203125 0.328125 -4.078125 C 0.328125 -4.953125 0.457031 -5.710938 0.71875 -6.359375 C 0.988281 -7.003906 1.363281 -7.5 1.84375 -7.84375 C 2.332031 -8.195312 2.894531 -8.375 3.53125 -8.375 C 4.082031 -8.375 4.570312 -8.234375 5 -7.953125 C 5.425781 -7.679688 5.753906 -7.285156 5.984375 -6.765625 L 6 -6.765625 L 6 -11.8125 L 8.4375 -11.8125 L 8.4375 0 L 6.375 0 L 6.0625 -1.421875 L 6.046875 -1.421875 C 5.816406 -0.890625 5.484375 -0.484375 5.046875 -0.203125 C 4.609375 0.078125 4.109375 0.21875 3.546875 0.21875 Z M 4.4375 -1.859375 C 4.9375 -1.859375 5.335938 -2.0625 5.640625 -2.46875 C 5.941406 -2.875 6.09375 -3.410156 6.09375 -4.078125 C 6.09375 -4.742188 5.941406 -5.28125 5.640625 -5.6875 C 5.335938 -6.09375 4.9375 -6.296875 4.4375 -6.296875 C 3.9375 -6.296875 3.53125 -6.09375 3.21875 -5.6875 C 2.914062 -5.28125 2.765625 -4.742188 2.765625 -4.078125 C 2.765625 -3.410156 2.914062 -2.875 3.21875 -2.46875 C 3.53125 -2.0625 3.9375 -1.859375 4.4375 -1.859375 Z M 4.4375 -1.859375 "/></g></g></g><g fill="#0661aa" fill-opacity="1"><g transform="translate(23.864621, 114.313224)"><g><path d="M 4.765625 0.265625 C 3.878906 0.265625 3.101562 0.0859375 2.4375 -0.265625 C 1.769531 -0.628906 1.25 -1.140625 0.875 -1.796875 C 0.507812 -2.460938 0.328125 -3.238281 0.328125 -4.125 C 0.328125 -4.988281 0.492188 -5.742188 0.828125 -6.390625 C 1.171875 -7.035156 1.644531 -7.535156 2.25 -7.890625 C 2.851562 -8.253906 3.5625 -8.4375 4.375 -8.4375 C 5.164062 -8.4375 5.847656 -8.265625 6.421875 -7.921875 C 6.992188 -7.578125 7.441406 -7.09375 7.765625 -6.46875 C 8.085938 -5.851562 8.25 -5.125 8.25 -4.28125 C 8.25 -4.113281 8.238281 -3.953125 8.21875 -3.796875 C 8.207031 -3.640625 8.1875 -3.507812 8.15625 -3.40625 L 2.765625 -3.40625 C 2.816406 -2.8125 3.023438 -2.34375 3.390625 -2 C 3.753906 -1.65625 4.21875 -1.484375 4.78125 -1.484375 C 5.207031 -1.484375 5.585938 -1.585938 5.921875 -1.796875 C 6.265625 -2.015625 6.519531 -2.304688 6.6875 -2.671875 L 8.390625 -1.921875 C 8.160156 -1.242188 7.707031 -0.707031 7.03125 -0.3125 C 6.363281 0.0703125 5.609375 0.265625 4.765625 0.265625 Z M 2.765625 -4.796875 L 5.828125 -4.796875 C 5.796875 -5.390625 5.648438 -5.847656 5.390625 -6.171875 C 5.140625 -6.503906 4.796875 -6.671875 4.359375 -6.671875 C 3.898438 -6.671875 3.53125 -6.503906 3.25 -6.171875 C 2.976562 -5.835938 2.816406 -5.378906 2.765625 -4.796875 Z M 2.765625 -4.796875 "/></g></g></g><g fill="#0661aa" fill-opacity="1"><g transform="translate(34.437336, 114.313224)"><g/></g></g><g fill="#0661aa" fill-opacity="1"><g transform="translate(39.27809, 114.313224)"><g><path d="M 8.546875 0.265625 C 7.984375 0.265625 7.523438 0.109375 7.171875 -0.203125 C 6.816406 -0.523438 6.578125 -0.945312 6.453125 -1.46875 L 5.984375 -3.25 C 5.910156 -3.550781 5.769531 -3.800781 5.5625 -4 C 5.351562 -4.207031 5.109375 -4.3125 4.828125 -4.3125 L 3.515625 -4.3125 L 3.515625 0 L 0.796875 0 L 0.796875 -11.34375 L 5.71875 -11.34375 C 7.039062 -11.34375 8.082031 -11.023438 8.84375 -10.390625 C 9.613281 -9.765625 10 -8.898438 10 -7.796875 C 10 -7.078125 9.785156 -6.445312 9.359375 -5.90625 C 8.929688 -5.363281 8.34375 -5 7.59375 -4.8125 L 7.59375 -4.796875 C 7.90625 -4.660156 8.132812 -4.476562 8.28125 -4.25 C 8.4375 -4.019531 8.550781 -3.742188 8.625 -3.421875 L 8.96875 -2.078125 C 9.050781 -1.703125 9.226562 -1.515625 9.5 -1.515625 C 9.738281 -1.515625 9.960938 -1.644531 10.171875 -1.90625 L 10.765625 -0.625 C 10.492188 -0.34375 10.160156 -0.125 9.765625 0.03125 C 9.367188 0.1875 8.960938 0.265625 8.546875 0.265625 Z M 3.515625 -6.15625 L 5.484375 -6.15625 C 6.023438 -6.15625 6.457031 -6.296875 6.78125 -6.578125 C 7.101562 -6.867188 7.265625 -7.253906 7.265625 -7.734375 C 7.265625 -8.234375 7.101562 -8.625 6.78125 -8.90625 C 6.457031 -9.1875 6.023438 -9.328125 5.484375 -9.328125 L 3.515625 -9.328125 Z M 3.515625 -6.15625 "/></g></g></g><g fill="#0661aa" fill-opacity="1"><g transform="translate(51.649973, 114.313224)"><g><path d="M 4.765625 0.265625 C 3.878906 0.265625 3.101562 0.0859375 2.4375 -0.265625 C 1.769531 -0.628906 1.25 -1.140625 0.875 -1.796875 C 0.507812 -2.460938 0.328125 -3.238281 0.328125 -4.125 C 0.328125 -4.988281 0.492188 -5.742188 0.828125 -6.390625 C 1.171875 -7.035156 1.644531 -7.535156 2.25 -7.890625 C 2.851562 -8.253906 3.5625 -8.4375 4.375 -8.4375 C 5.164062 -8.4375 5.847656 -8.265625 6.421875 -7.921875 C 6.992188 -7.578125 7.441406 -7.09375 7.765625 -6.46875 C 8.085938 -5.851562 8.25 -5.125 8.25 -4.28125 C 8.25 -4.113281 8.238281 -3.953125 8.21875 -3.796875 C 8.207031 -3.640625 8.1875 -3.507812 8.15625 -3.40625 L 2.765625 -3.40625 C 2.816406 -2.8125 3.023438 -2.34375 3.390625 -2 C 3.753906 -1.65625 4.21875 -1.484375 4.78125 -1.484375 C 5.207031 -1.484375 5.585938 -1.585938 5.921875 -1.796875 C 6.265625 -2.015625 6.519531 -2.304688 6.6875 -2.671875 L 8.390625 -1.921875 C 8.160156 -1.242188 7.707031 -0.707031 7.03125 -0.3125 C 6.363281 0.0703125 5.609375 0.265625 4.765625 0.265625 Z M 2.765625 -4.796875 L 5.828125 -4.796875 C 5.796875 -5.390625 5.648438 -5.847656 5.390625 -6.171875 C 5.140625 -6.503906 4.796875 -6.671875 4.359375 -6.671875 C 3.898438 -6.671875 3.53125 -6.503906 3.25 -6.171875 C 2.976562 -5.835938 2.816406 -5.378906 2.765625 -4.796875 Z M 2.765625 -4.796875 "/></g></g></g><g fill="#0661aa" fill-opacity="1"><g transform="translate(62.095301, 114.313224)"><g><path d="M 4.359375 0.25 C 3.429688 0.25 2.710938 -0.00390625 2.203125 -0.515625 C 1.703125 -1.023438 1.453125 -1.710938 1.453125 -2.578125 L 1.4375 -6.3125 L 0.0625 -6.3125 L 0.0625 -8.15625 L 1.453125 -8.15625 L 1.453125 -10.3125 L 3.875 -10.859375 L 3.875 -8.15625 L 6.65625 -8.15625 L 6.65625 -6.3125 L 3.875 -6.3125 L 3.890625 -3.015625 C 3.890625 -2.609375 3.984375 -2.289062 4.171875 -2.0625 C 4.359375 -1.832031 4.613281 -1.71875 4.9375 -1.71875 C 5.539062 -1.71875 5.976562 -2.050781 6.25 -2.71875 L 7.046875 -1.234375 C 6.796875 -0.765625 6.429688 -0.398438 5.953125 -0.140625 C 5.484375 0.117188 4.953125 0.25 4.359375 0.25 Z M 4.359375 0.25 "/></g></g></g><g fill="#0661aa" fill-opacity="1"><g transform="translate(70.980264, 114.313224)"><g><path d="M 4.765625 0.265625 C 3.878906 0.265625 3.101562 0.0859375 2.4375 -0.265625 C 1.769531 -0.628906 1.25 -1.140625 0.875 -1.796875 C 0.507812 -2.460938 0.328125 -3.238281 0.328125 -4.125 C 0.328125 -4.988281 0.492188 -5.742188 0.828125 -6.390625 C 1.171875 -7.035156 1.644531 -7.535156 2.25 -7.890625 C 2.851562 -8.253906 3.5625 -8.4375 4.375 -8.4375 C 5.164062 -8.4375 5.847656 -8.265625 6.421875 -7.921875 C 6.992188 -7.578125 7.441406 -7.09375 7.765625 -6.46875 C 8.085938 -5.851562 8.25 -5.125 8.25 -4.28125 C 8.25 -4.113281 8.238281 -3.953125 8.21875 -3.796875 C 8.207031 -3.640625 8.1875 -3.507812 8.15625 -3.40625 L 2.765625 -3.40625 C 2.816406 -2.8125 3.023438 -2.34375 3.390625 -2 C 3.753906 -1.65625 4.21875 -1.484375 4.78125 -1.484375 C 5.207031 -1.484375 5.585938 -1.585938 5.921875 -1.796875 C 6.265625 -2.015625 6.519531 -2.304688 6.6875 -2.671875 L 8.390625 -1.921875 C 8.160156 -1.242188 7.707031 -0.707031 7.03125 -0.3125 C 6.363281 0.0703125 5.609375 0.265625 4.765625 0.265625 Z M 2.765625 -4.796875 L 5.828125 -4.796875 C 5.796875 -5.390625 5.648438 -5.847656 5.390625 -6.171875 C 5.140625 -6.503906 4.796875 -6.671875 4.359375 -6.671875 C 3.898438 -6.671875 3.53125 -6.503906 3.25 -6.171875 C 2.976562 -5.835938 2.816406 -5.378906 2.765625 -4.796875 Z M 2.765625 -4.796875 "/></g></g></g><g fill="#0661aa" fill-opacity="1"><g transform="translate(81.552979, 114.313224)"><g><path d="M 5.5625 -8.359375 C 6.3125 -8.359375 6.90625 -8.128906 7.34375 -7.671875 C 7.78125 -7.222656 8 -6.597656 8 -5.796875 L 8 0 L 5.5625 0 L 5.5625 -5.171875 C 5.5625 -5.554688 5.460938 -5.851562 5.265625 -6.0625 C 5.078125 -6.28125 4.8125 -6.390625 4.46875 -6.390625 C 4.039062 -6.390625 3.691406 -6.25 3.421875 -5.96875 C 3.160156 -5.6875 3.03125 -5.296875 3.03125 -4.796875 L 3.03125 0 L 0.609375 0 L 0.609375 -8.15625 L 2.609375 -8.15625 L 2.953125 -6.765625 L 2.96875 -6.765625 C 3.207031 -7.273438 3.554688 -7.664062 4.015625 -7.9375 C 4.472656 -8.21875 4.988281 -8.359375 5.5625 -8.359375 Z M 5.5625 -8.359375 "/></g></g></g><g fill="#0661aa" fill-opacity="1"><g transform="translate(91.982393, 114.313224)"><g><path d="M 8.28125 -3.21875 C 8.164062 -2.195312 7.78125 -1.375 7.125 -0.75 C 6.476562 -0.125 5.65625 0.210938 4.65625 0.265625 L 4.578125 0.765625 C 5.046875 0.796875 5.414062 0.914062 5.6875 1.125 C 5.96875 1.34375 6.109375 1.640625 6.109375 2.015625 C 6.109375 2.398438 5.972656 2.707031 5.703125 2.9375 C 5.441406 3.164062 5.097656 3.28125 4.671875 3.28125 C 4.359375 3.28125 4.0625 3.195312 3.78125 3.03125 C 3.5 2.863281 3.296875 2.660156 3.171875 2.421875 L 3.640625 2.03125 C 3.734375 2.21875 3.875 2.367188 4.0625 2.484375 C 4.25 2.597656 4.453125 2.65625 4.671875 2.65625 C 4.910156 2.65625 5.109375 2.597656 5.265625 2.484375 C 5.421875 2.378906 5.5 2.234375 5.5 2.046875 C 5.5 1.828125 5.398438 1.65625 5.203125 1.53125 C 5.015625 1.40625 4.765625 1.34375 4.453125 1.34375 L 3.90625 1.34375 L 4.03125 0.25 C 3.269531 0.195312 2.613281 -0.00390625 2.0625 -0.359375 C 1.507812 -0.722656 1.082031 -1.222656 0.78125 -1.859375 C 0.476562 -2.492188 0.328125 -3.234375 0.328125 -4.078125 C 0.335938 -4.960938 0.503906 -5.734375 0.828125 -6.390625 C 1.148438 -7.046875 1.597656 -7.550781 2.171875 -7.90625 C 2.753906 -8.257812 3.429688 -8.4375 4.203125 -8.4375 C 5.179688 -8.4375 5.992188 -8.15625 6.640625 -7.59375 C 7.285156 -7.03125 7.6875 -6.269531 7.84375 -5.3125 L 5.625 -4.8125 C 5.550781 -5.351562 5.390625 -5.765625 5.140625 -6.046875 C 4.890625 -6.328125 4.59375 -6.46875 4.25 -6.46875 C 3.800781 -6.46875 3.441406 -6.253906 3.171875 -5.828125 C 2.898438 -5.398438 2.765625 -4.816406 2.765625 -4.078125 C 2.773438 -3.335938 2.929688 -2.753906 3.234375 -2.328125 C 3.535156 -1.910156 3.929688 -1.703125 4.421875 -1.703125 C 4.847656 -1.703125 5.207031 -1.863281 5.5 -2.1875 C 5.789062 -2.507812 5.96875 -2.960938 6.03125 -3.546875 Z M 8.28125 -3.21875 "/></g></g></g><g fill="#0661aa" fill-opacity="1"><g transform="translate(102.395883, 114.313224)"><g><path d="M 5.265625 -9.390625 C 4.972656 -9.390625 4.726562 -9.484375 4.53125 -9.671875 C 4.34375 -9.859375 4.171875 -10.054688 4.015625 -10.265625 C 3.878906 -10.472656 3.738281 -10.65625 3.59375 -10.8125 C 3.457031 -10.976562 3.300781 -11.0625 3.125 -11.0625 C 2.90625 -11.0625 2.726562 -10.914062 2.59375 -10.625 C 2.457031 -10.34375 2.390625 -9.984375 2.390625 -9.546875 L 1.765625 -9.546875 C 1.765625 -10.171875 1.882812 -10.679688 2.125 -11.078125 C 2.375 -11.472656 2.710938 -11.671875 3.140625 -11.671875 C 3.441406 -11.671875 3.6875 -11.570312 3.875 -11.375 C 4.070312 -11.1875 4.242188 -10.988281 4.390625 -10.78125 C 4.546875 -10.582031 4.6875 -10.398438 4.8125 -10.234375 C 4.9375 -10.078125 5.082031 -10 5.25 -10 C 5.488281 -10 5.675781 -10.140625 5.8125 -10.421875 C 5.957031 -10.710938 6.03125 -11.082031 6.03125 -11.53125 L 6.65625 -11.53125 C 6.65625 -10.914062 6.523438 -10.40625 6.265625 -10 C 6.015625 -9.59375 5.679688 -9.390625 5.265625 -9.390625 Z M 2.8125 0.1875 C 2.039062 0.1875 1.414062 -0.015625 0.9375 -0.421875 C 0.457031 -0.835938 0.21875 -1.398438 0.21875 -2.109375 C 0.21875 -2.847656 0.5 -3.445312 1.0625 -3.90625 C 1.632812 -4.363281 2.46875 -4.65625 3.5625 -4.78125 L 4.828125 -4.921875 C 5.003906 -4.941406 5.144531 -5.003906 5.25 -5.109375 C 5.363281 -5.210938 5.421875 -5.367188 5.421875 -5.578125 C 5.421875 -5.929688 5.3125 -6.203125 5.09375 -6.390625 C 4.875 -6.585938 4.582031 -6.6875 4.21875 -6.6875 C 3.800781 -6.6875 3.460938 -6.539062 3.203125 -6.25 C 2.953125 -5.96875 2.816406 -5.609375 2.796875 -5.171875 L 0.5 -5.515625 C 0.519531 -6.085938 0.6875 -6.59375 1 -7.03125 C 1.3125 -7.46875 1.738281 -7.8125 2.28125 -8.0625 C 2.832031 -8.3125 3.472656 -8.4375 4.203125 -8.4375 C 5.316406 -8.4375 6.195312 -8.144531 6.84375 -7.5625 C 7.488281 -6.976562 7.8125 -6.1875 7.8125 -5.1875 L 7.8125 -2.03125 C 7.8125 -1.675781 7.945312 -1.5 8.21875 -1.5 C 8.425781 -1.5 8.628906 -1.601562 8.828125 -1.8125 L 9.34375 -0.515625 C 9.09375 -0.265625 8.785156 -0.0820312 8.421875 0.03125 C 8.054688 0.144531 7.703125 0.203125 7.359375 0.203125 C 6.867188 0.203125 6.457031 0.078125 6.125 -0.171875 C 5.789062 -0.421875 5.582031 -0.734375 5.5 -1.109375 L 5.46875 -1.328125 L 5.4375 -1.328125 C 5.195312 -0.859375 4.847656 -0.488281 4.390625 -0.21875 C 3.929688 0.0507812 3.40625 0.1875 2.8125 0.1875 Z M 3.828125 -1.515625 C 4.273438 -1.515625 4.644531 -1.675781 4.9375 -2 C 5.238281 -2.320312 5.390625 -2.742188 5.390625 -3.265625 L 5.390625 -3.640625 L 4.203125 -3.515625 C 3.648438 -3.453125 3.253906 -3.316406 3.015625 -3.109375 C 2.773438 -2.910156 2.65625 -2.675781 2.65625 -2.40625 C 2.65625 -2.132812 2.765625 -1.914062 2.984375 -1.75 C 3.203125 -1.59375 3.484375 -1.515625 3.828125 -1.515625 Z M 3.828125 -1.515625 "/></g></g></g><g fill="#0661aa" fill-opacity="1"><g transform="translate(113.095928, 114.313224)"><g><path d="M 4.46875 0.265625 C 3.632812 0.265625 2.90625 0.0859375 2.28125 -0.265625 C 1.664062 -0.617188 1.1875 -1.117188 0.84375 -1.765625 C 0.5 -2.421875 0.328125 -3.191406 0.328125 -4.078125 C 0.328125 -4.960938 0.5 -5.734375 0.84375 -6.390625 C 1.1875 -7.046875 1.664062 -7.550781 2.28125 -7.90625 C 2.90625 -8.257812 3.632812 -8.4375 4.46875 -8.4375 C 5.3125 -8.4375 6.039062 -8.257812 6.65625 -7.90625 C 7.269531 -7.550781 7.742188 -7.046875 8.078125 -6.390625 C 8.421875 -5.734375 8.59375 -4.960938 8.59375 -4.078125 C 8.59375 -3.191406 8.421875 -2.421875 8.078125 -1.765625 C 7.742188 -1.117188 7.269531 -0.617188 6.65625 -0.265625 C 6.039062 0.0859375 5.3125 0.265625 4.46875 0.265625 Z M 4.46875 -1.765625 C 5 -1.765625 5.414062 -1.96875 5.71875 -2.375 C 6.019531 -2.789062 6.171875 -3.359375 6.171875 -4.078125 C 6.171875 -4.796875 6.019531 -5.359375 5.71875 -5.765625 C 5.414062 -6.179688 5 -6.390625 4.46875 -6.390625 C 3.9375 -6.390625 3.515625 -6.179688 3.203125 -5.765625 C 2.898438 -5.359375 2.75 -4.796875 2.75 -4.078125 C 2.75 -3.359375 2.898438 -2.789062 3.203125 -2.375 C 3.515625 -1.96875 3.9375 -1.765625 4.46875 -1.765625 Z M 4.46875 -1.765625 "/></g></g></g><g fill="#0661aa" fill-opacity="1"><g transform="translate(44.23746, 133.722945)"><g><path d="M 3.546875 0.21875 C 2.898438 0.21875 2.332031 0.046875 1.84375 -0.296875 C 1.363281 -0.648438 0.988281 -1.148438 0.71875 -1.796875 C 0.457031 -2.441406 0.328125 -3.203125 0.328125 -4.078125 C 0.328125 -4.953125 0.457031 -5.710938 0.71875 -6.359375 C 0.988281 -7.003906 1.363281 -7.5 1.84375 -7.84375 C 2.332031 -8.195312 2.894531 -8.375 3.53125 -8.375 C 4.082031 -8.375 4.570312 -8.234375 5 -7.953125 C 5.425781 -7.679688 5.753906 -7.285156 5.984375 -6.765625 L 6 -6.765625 L 6 -11.8125 L 8.4375 -11.8125 L 8.4375 0 L 6.375 0 L 6.0625 -1.421875 L 6.046875 -1.421875 C 5.816406 -0.890625 5.484375 -0.484375 5.046875 -0.203125 C 4.609375 0.078125 4.109375 0.21875 3.546875 0.21875 Z M 4.4375 -1.859375 C 4.9375 -1.859375 5.335938 -2.0625 5.640625 -2.46875 C 5.941406 -2.875 6.09375 -3.410156 6.09375 -4.078125 C 6.09375 -4.742188 5.941406 -5.28125 5.640625 -5.6875 C 5.335938 -6.09375 4.9375 -6.296875 4.4375 -6.296875 C 3.9375 -6.296875 3.53125 -6.09375 3.21875 -5.6875 C 2.914062 -5.28125 2.765625 -4.742188 2.765625 -4.078125 C 2.765625 -3.410156 2.914062 -2.875 3.21875 -2.46875 C 3.53125 -2.0625 3.9375 -1.859375 4.4375 -1.859375 Z M 4.4375 -1.859375 "/></g></g></g><g fill="#0661aa" fill-opacity="1"><g transform="translate(55.160463, 133.722945)"><g><path d="M 4.765625 0.265625 C 3.878906 0.265625 3.101562 0.0859375 2.4375 -0.265625 C 1.769531 -0.628906 1.25 -1.140625 0.875 -1.796875 C 0.507812 -2.460938 0.328125 -3.238281 0.328125 -4.125 C 0.328125 -4.988281 0.492188 -5.742188 0.828125 -6.390625 C 1.171875 -7.035156 1.644531 -7.535156 2.25 -7.890625 C 2.851562 -8.253906 3.5625 -8.4375 4.375 -8.4375 C 5.164062 -8.4375 5.847656 -8.265625 6.421875 -7.921875 C 6.992188 -7.578125 7.441406 -7.09375 7.765625 -6.46875 C 8.085938 -5.851562 8.25 -5.125 8.25 -4.28125 C 8.25 -4.113281 8.238281 -3.953125 8.21875 -3.796875 C 8.207031 -3.640625 8.1875 -3.507812 8.15625 -3.40625 L 2.765625 -3.40625 C 2.816406 -2.8125 3.023438 -2.34375 3.390625 -2 C 3.753906 -1.65625 4.21875 -1.484375 4.78125 -1.484375 C 5.207031 -1.484375 5.585938 -1.585938 5.921875 -1.796875 C 6.265625 -2.015625 6.519531 -2.304688 6.6875 -2.671875 L 8.390625 -1.921875 C 8.160156 -1.242188 7.707031 -0.707031 7.03125 -0.3125 C 6.363281 0.0703125 5.609375 0.265625 4.765625 0.265625 Z M 2.765625 -4.796875 L 5.828125 -4.796875 C 5.796875 -5.390625 5.648438 -5.847656 5.390625 -6.171875 C 5.140625 -6.503906 4.796875 -6.671875 4.359375 -6.671875 C 3.898438 -6.671875 3.53125 -6.503906 3.25 -6.171875 C 2.976562 -5.835938 2.816406 -5.378906 2.765625 -4.796875 Z M 2.765625 -4.796875 "/></g></g></g><g fill="#0661aa" fill-opacity="1"><g transform="translate(65.733177, 133.722945)"><g/></g></g><g fill="#0661aa" fill-opacity="1"><g transform="translate(70.573932, 133.722945)"><g><path d="M 0.078125 0 L 3.703125 -11.34375 L 7.078125 -11.34375 L 10.71875 0 L 7.921875 0 L 7.296875 -2.234375 L 3.484375 -2.234375 L 2.828125 0 Z M 3.90625 -4.15625 L 6.859375 -4.15625 L 5.421875 -9.140625 L 5.390625 -9.140625 Z M 3.90625 -4.15625 "/></g></g></g><g fill="#0661aa" fill-opacity="1"><g transform="translate(83.248363, 133.722945)"><g><path d="M 5 -8.375 C 5.664062 -8.375 6.203125 -8.125 6.609375 -7.625 C 7.015625 -7.125 7.238281 -6.421875 7.28125 -5.515625 L 5.21875 -4.953125 C 5.207031 -5.484375 5.113281 -5.882812 4.9375 -6.15625 C 4.757812 -6.425781 4.519531 -6.5625 4.21875 -6.5625 C 3.851562 -6.5625 3.5625 -6.378906 3.34375 -6.015625 C 3.132812 -5.660156 3.03125 -5.160156 3.03125 -4.515625 L 3.03125 0 L 0.609375 0 L 0.609375 -8.15625 L 2.5625 -8.15625 L 2.890625 -6.75 L 2.90625 -6.75 C 3.09375 -7.257812 3.367188 -7.65625 3.734375 -7.9375 C 4.109375 -8.226562 4.53125 -8.375 5 -8.375 Z M 5 -8.375 "/></g></g></g></svg>