<svg xmlns="http://www.w3.org/2000/svg" xmlns:xlink="http://www.w3.org/1999/xlink" width="180" zoomAndPan="magnify" viewBox="0 0 135 161.249994" height="215" preserveAspectRatio="xMidYMid meet" version="1.2"><defs><clipPath id="f59bc782ae"><path d="M 36 18 L 96 18 L 96 69 L 36 69 Z M 36 18 "/></clipPath><clipPath id="f08c625fa5"><path d="M 83.773438 8.957031 L 107.566406 57.15625 L 51.335938 84.910156 L 27.542969 36.714844 Z M 83.773438 8.957031 "/></clipPath><clipPath id="172269c52d"><path d="M 83.773438 8.957031 L 107.566406 57.15625 L 51.335938 84.910156 L 27.542969 36.714844 Z M 83.773438 8.957031 "/></clipPath></defs><g id="3459d52e4f"><g clip-rule="nonzero" clip-path="url(#f59bc782ae)"><g clip-rule="nonzero" clip-path="url(#f08c625fa5)"><g clip-rule="nonzero" clip-path="url(#172269c52d)"><path style=" stroke:none;fill-rule:nonzero;fill:#0661aa;fill-opacity:1;" d="M 91.4375 60.617188 C 92.8125 56.132812 92.050781 50.652344 90.507812 47.949219 C 89.480469 46.140625 87.890625 45.234375 85.988281 45.359375 C 86.105469 44.496094 86.144531 43.644531 86.101562 42.8125 C 86.328125 41.683594 86.890625 41.085938 88.285156 40.472656 C 88.957031 40.175781 89.585938 40.011719 90.246094 39.839844 C 91.074219 39.625 91.929688 39.398438 92.878906 38.90625 C 93.242188 38.828125 93.625 38.636719 93.960938 38.363281 C 94.429688 37.984375 94.75 37.492188 94.835938 37.03125 C 95.671875 35.550781 95.9375 33.613281 95.601562 32.9375 C 95.601562 32.929688 95.597656 32.925781 95.59375 32.917969 C 95.183594 32.152344 93.539062 31.390625 91.890625 31.191406 C 91.480469 30.941406 90.886719 30.867188 90.269531 30.988281 C 89.875 31.066406 89.503906 31.226562 89.21875 31.433594 C 88.433594 31.71875 87.78125 32.175781 87.089844 32.660156 C 86.378906 33.160156 85.574219 33.726562 84.480469 34.191406 C 83.628906 34.558594 82.804688 34.65625 82.039062 34.480469 C 81.398438 33.917969 80.691406 33.410156 79.929688 32.957031 C 80.867188 31.867188 81.570312 30.179688 80.582031 27.839844 C 79.378906 24.980469 75.488281 21.03125 71.089844 19.398438 C 67.929688 18.222656 64.8125 18.316406 62.066406 19.671875 C 61.828125 19.789062 61.683594 19.996094 61.671875 20.230469 C 61.636719 20.808594 62.328125 21.269531 63.886719 22.261719 C 65.125 23.050781 66.828125 24.136719 67.203125 24.972656 C 67.519531 25.691406 68.453125 26.507812 69.527344 27.464844 C 70.652344 28.472656 71.902344 29.585938 72.539062 30.644531 C 70.0625 30.398438 67.433594 30.582031 64.878906 31.183594 C 62.816406 31.664062 60.265625 32.644531 57.5 34.007812 C 54.039062 35.714844 52.304688 38.160156 50.472656 40.75 C 50.125 41.238281 49.773438 41.730469 49.410156 42.226562 C 47.835938 44.34375 46.746094 46.449219 46.160156 48.488281 C 45.847656 48.605469 45.378906 48.785156 44.808594 49.011719 C 44.589844 49.101562 44.121094 49.25 43.625 49.410156 C 42.648438 49.726562 41.539062 50.082031 41.007812 50.363281 C 38.09375 51.882812 36.746094 52.769531 36.457031 54 C 36.375 54.335938 36.40625 54.652344 36.546875 54.933594 C 36.574219 54.992188 36.609375 55.050781 36.648438 55.105469 C 37.265625 55.984375 38.976562 56.179688 40.480469 56.355469 C 41.164062 56.429688 41.871094 56.511719 42.167969 56.640625 C 43.308594 57.140625 44.597656 56.902344 46.496094 56.25 C 46.605469 56.515625 46.710938 56.757812 46.824219 56.988281 C 47.058594 57.460938 47.332031 57.925781 47.640625 58.375 C 45.855469 59.652344 44.894531 60.578125 44.640625 61.832031 C 44.574219 62.148438 44.234375 62.773438 43.902344 63.378906 C 43.175781 64.710938 42.355469 66.222656 42.71875 67.234375 C 42.847656 67.597656 43.121094 67.871094 43.507812 68.027344 C 44.292969 68.34375 45.640625 67.789062 48.011719 66.589844 C 48.308594 66.441406 48.648438 66.285156 48.996094 66.121094 C 49.660156 65.808594 50.351562 65.488281 50.921875 65.144531 C 51.886719 64.566406 52.902344 63.90625 53.949219 63.183594 C 57.144531 64.40625 60.902344 64.71875 64.839844 64.078125 C 65.136719 64.03125 65.433594 63.984375 65.726562 63.9375 C 67.960938 63.589844 70.070312 63.261719 72.40625 62.109375 C 74.351562 61.148438 76.460938 59.433594 77.996094 58.183594 L 78.117188 58.085938 C 80.207031 56.386719 81.941406 54.46875 83.28125 52.378906 C 83.820312 53.542969 83.960938 55.40625 84.078125 56.953125 C 84.1875 58.386719 84.269531 59.628906 84.648438 60.3125 C 85.089844 61.117188 84.90625 63.128906 84.78125 64.59375 C 84.621094 66.433594 84.566406 67.261719 85.042969 67.585938 C 85.242188 67.722656 85.492188 67.730469 85.730469 67.613281 C 88.472656 66.257812 90.445312 63.839844 91.4375 60.617188 Z M 85.691406 64.671875 C 85.84375 62.917969 86.023438 60.949219 85.453125 59.878906 C 85.179688 59.359375 85.089844 58.160156 84.992188 56.882812 C 84.835938 54.8125 84.660156 52.46875 83.632812 51.21875 L 83.21875 50.710938 L 82.886719 51.273438 C 81.558594 53.519531 79.757812 55.570312 77.539062 57.375 L 77.421875 57.472656 C 75.914062 58.695312 73.855469 60.371094 72 61.289062 C 69.792969 62.378906 67.75 62.695312 65.585938 63.035156 C 65.289062 63.082031 64.992188 63.125 64.691406 63.175781 C 60.824219 63.800781 57.148438 63.480469 54.054688 62.242188 L 53.828125 62.152344 L 53.625 62.292969 C 52.527344 63.058594 51.460938 63.753906 50.453125 64.359375 C 49.921875 64.679688 49.253906 64.988281 48.605469 65.292969 C 48.25 65.457031 47.90625 65.621094 47.597656 65.773438 C 46.640625 66.257812 44.394531 67.394531 43.847656 67.175781 C 43.664062 67.105469 43.605469 67.003906 43.578125 66.925781 C 43.355469 66.300781 44.167969 64.804688 44.707031 63.816406 C 45.101562 63.09375 45.445312 62.464844 45.535156 62.015625 C 45.746094 60.980469 46.714844 60.140625 48.539062 58.859375 L 48.925781 58.589844 L 48.644531 58.210938 C 48.257812 57.691406 47.921875 57.140625 47.644531 56.582031 C 47.492188 56.269531 47.347656 55.929688 47.195312 55.511719 L 47.039062 55.085938 L 46.613281 55.238281 C 44.695312 55.921875 43.480469 56.214844 42.535156 55.804688 C 42.113281 55.617188 41.40625 55.539062 40.585938 55.445312 C 39.46875 55.316406 37.78125 55.125 37.398438 54.578125 C 37.351562 54.511719 37.300781 54.40625 37.347656 54.210938 C 37.554688 53.335938 38.828125 52.535156 41.429688 51.171875 C 41.894531 50.929688 43.011719 50.570312 43.90625 50.28125 C 44.441406 50.109375 44.898438 49.960938 45.148438 49.863281 C 45.863281 49.578125 46.417969 49.367188 46.695312 49.261719 L 46.917969 49.179688 L 46.980469 48.953125 C 47.519531 46.957031 48.582031 44.878906 50.144531 42.769531 C 50.515625 42.269531 50.867188 41.773438 51.21875 41.277344 C 52.984375 38.785156 54.652344 36.433594 57.90625 34.828125 C 60.570312 33.511719 63.121094 32.535156 65.089844 32.074219 C 67.820312 31.433594 70.640625 31.285156 73.238281 31.648438 L 73.964844 31.75 L 73.738281 31.054688 C 73.683594 30.886719 73.613281 30.71875 73.53125 30.550781 C 72.882812 29.234375 71.433594 27.941406 70.136719 26.78125 C 69.179688 25.929688 68.269531 25.105469 68.039062 24.59375 C 67.539062 23.496094 65.863281 22.433594 64.378906 21.492188 C 63.808594 21.128906 63.074219 20.660156 62.738281 20.367188 C 65.214844 19.230469 67.914062 19.195312 70.769531 20.253906 C 74.933594 21.804688 78.601562 25.507812 79.738281 28.195312 C 80.484375 29.964844 80.195312 31.488281 78.878906 32.734375 L 78.414062 33.167969 L 78.972656 33.46875 C 79.910156 33.976562 80.765625 34.570312 81.515625 35.238281 L 81.597656 35.3125 L 81.703125 35.339844 C 82.703125 35.601562 83.757812 35.5 84.84375 35.035156 C 86.019531 34.53125 86.867188 33.9375 87.617188 33.410156 C 88.300781 32.929688 88.890625 32.511719 89.585938 32.277344 L 89.660156 32.25 L 89.722656 32.199219 C 89.90625 32.054688 90.164062 31.945312 90.445312 31.886719 C 90.914062 31.792969 91.292969 31.878906 91.449219 31.996094 L 91.550781 32.074219 L 91.679688 32.089844 C 93.347656 32.265625 94.605469 33.015625 94.785156 33.347656 L 94.785156 33.351562 C 94.9375 33.65625 94.789062 35.296875 94 36.648438 L 93.949219 36.734375 L 93.9375 36.832031 C 93.917969 37.035156 93.738281 37.367188 93.382812 37.652344 C 93.148438 37.84375 92.878906 37.976562 92.644531 38.019531 L 92.574219 38.03125 L 92.507812 38.066406 C 91.632812 38.53125 90.847656 38.738281 90.015625 38.953125 C 89.347656 39.128906 88.65625 39.308594 87.917969 39.632812 C 86.511719 40.25 85.511719 41.007812 85.191406 42.695312 L 85.183594 42.804688 C 85.238281 43.78125 85.175781 44.789062 84.992188 45.800781 L 84.875 46.449219 L 85.519531 46.335938 C 87.339844 46.015625 88.75 46.710938 89.710938 48.402344 C 91.152344 50.941406 91.863281 56.101562 90.5625 60.347656 C 89.667969 63.261719 87.992188 65.382812 85.585938 66.65625 C 85.558594 66.214844 85.632812 65.34375 85.691406 64.671875 Z M 85.691406 64.671875 "/></g></g></g><g style="fill:#0661aa;fill-opacity:1;"><g transform="translate(15.017856, 89.725764)"><path style="stroke:none" d="M 10.6875 0.34375 C 9.988281 0.34375 9.414062 0.144531 8.96875 -0.25 C 8.519531 -0.65625 8.21875 -1.179688 8.0625 -1.828125 L 7.484375 -4.0625 C 7.390625 -4.445312 7.210938 -4.765625 6.953125 -5.015625 C 6.691406 -5.265625 6.382812 -5.390625 6.03125 -5.390625 L 4.40625 -5.390625 L 4.40625 0 L 1 0 L 1 -14.171875 L 7.140625 -14.171875 C 8.804688 -14.171875 10.113281 -13.78125 11.0625 -13 C 12.019531 -12.21875 12.5 -11.132812 12.5 -9.75 C 12.5 -8.851562 12.234375 -8.066406 11.703125 -7.390625 C 11.171875 -6.710938 10.4375 -6.253906 9.5 -6.015625 L 9.5 -5.984375 C 9.882812 -5.828125 10.171875 -5.601562 10.359375 -5.3125 C 10.554688 -5.019531 10.703125 -4.675781 10.796875 -4.28125 L 11.203125 -2.609375 C 11.304688 -2.128906 11.535156 -1.890625 11.890625 -1.890625 C 12.179688 -1.890625 12.457031 -2.054688 12.71875 -2.390625 L 13.453125 -0.78125 C 13.117188 -0.4375 12.703125 -0.164062 12.203125 0.03125 C 11.710938 0.238281 11.207031 0.34375 10.6875 0.34375 Z M 4.40625 -7.703125 L 6.84375 -7.703125 C 7.519531 -7.703125 8.0625 -7.878906 8.46875 -8.234375 C 8.875 -8.597656 9.078125 -9.078125 9.078125 -9.671875 C 9.078125 -10.296875 8.875 -10.785156 8.46875 -11.140625 C 8.0625 -11.492188 7.519531 -11.671875 6.84375 -11.671875 L 4.40625 -11.671875 Z M 4.40625 -7.703125 "/></g></g><g style="fill:#0661aa;fill-opacity:1;"><g transform="translate(30.858833, 89.725764)"><path style="stroke:none" d="M 5.953125 0.34375 C 4.847656 0.34375 3.878906 0.117188 3.046875 -0.328125 C 2.210938 -0.785156 1.566406 -1.425781 1.109375 -2.25 C 0.648438 -3.082031 0.421875 -4.050781 0.421875 -5.15625 C 0.421875 -6.238281 0.628906 -7.179688 1.046875 -7.984375 C 1.460938 -8.796875 2.046875 -9.425781 2.796875 -9.875 C 3.554688 -10.320312 4.445312 -10.546875 5.46875 -10.546875 C 6.457031 -10.546875 7.304688 -10.328125 8.015625 -9.890625 C 8.734375 -9.460938 9.296875 -8.859375 9.703125 -8.078125 C 10.109375 -7.304688 10.3125 -6.398438 10.3125 -5.359375 C 10.3125 -5.140625 10.300781 -4.929688 10.28125 -4.734375 C 10.257812 -4.546875 10.226562 -4.390625 10.1875 -4.265625 L 3.46875 -4.265625 C 3.53125 -3.515625 3.785156 -2.921875 4.234375 -2.484375 C 4.691406 -2.054688 5.269531 -1.84375 5.96875 -1.84375 C 6.507812 -1.84375 6.988281 -1.972656 7.40625 -2.234375 C 7.832031 -2.503906 8.148438 -2.875 8.359375 -3.34375 L 10.484375 -2.40625 C 10.191406 -1.5625 9.628906 -0.890625 8.796875 -0.390625 C 7.960938 0.0976562 7.015625 0.34375 5.953125 0.34375 Z M 3.46875 -5.984375 L 7.28125 -5.984375 C 7.238281 -6.734375 7.054688 -7.3125 6.734375 -7.71875 C 6.421875 -8.132812 5.992188 -8.34375 5.453125 -8.34375 C 4.878906 -8.34375 4.421875 -8.132812 4.078125 -7.71875 C 3.734375 -7.300781 3.53125 -6.722656 3.46875 -5.984375 Z M 3.46875 -5.984375 "/></g></g><g style="fill:#0661aa;fill-opacity:1;"><g transform="translate(44.073066, 89.725764)"><path style="stroke:none" d="M 5.453125 0.3125 C 4.285156 0.3125 3.382812 -0.00390625 2.75 -0.640625 C 2.125 -1.273438 1.8125 -2.132812 1.8125 -3.21875 L 1.796875 -7.890625 L 0.078125 -7.890625 L 0.078125 -10.1875 L 1.8125 -10.1875 L 1.8125 -12.90625 L 4.84375 -13.578125 L 4.84375 -10.1875 L 8.328125 -10.1875 L 8.328125 -7.890625 L 4.84375 -7.890625 L 4.859375 -3.765625 C 4.859375 -3.253906 4.976562 -2.859375 5.21875 -2.578125 C 5.457031 -2.296875 5.773438 -2.15625 6.171875 -2.15625 C 6.929688 -2.15625 7.484375 -2.570312 7.828125 -3.40625 L 8.8125 -1.546875 C 8.5 -0.953125 8.046875 -0.492188 7.453125 -0.171875 C 6.859375 0.148438 6.191406 0.3125 5.453125 0.3125 Z M 5.453125 0.3125 "/></g></g><g style="fill:#0661aa;fill-opacity:1;"><g transform="translate(55.376942, 89.725764)"><path style="stroke:none" d="M 5.953125 0.34375 C 4.847656 0.34375 3.878906 0.117188 3.046875 -0.328125 C 2.210938 -0.785156 1.566406 -1.425781 1.109375 -2.25 C 0.648438 -3.082031 0.421875 -4.050781 0.421875 -5.15625 C 0.421875 -6.238281 0.628906 -7.179688 1.046875 -7.984375 C 1.460938 -8.796875 2.046875 -9.425781 2.796875 -9.875 C 3.554688 -10.320312 4.445312 -10.546875 5.46875 -10.546875 C 6.457031 -10.546875 7.304688 -10.328125 8.015625 -9.890625 C 8.734375 -9.460938 9.296875 -8.859375 9.703125 -8.078125 C 10.109375 -7.304688 10.3125 -6.398438 10.3125 -5.359375 C 10.3125 -5.140625 10.300781 -4.929688 10.28125 -4.734375 C 10.257812 -4.546875 10.226562 -4.390625 10.1875 -4.265625 L 3.46875 -4.265625 C 3.53125 -3.515625 3.785156 -2.921875 4.234375 -2.484375 C 4.691406 -2.054688 5.269531 -1.84375 5.96875 -1.84375 C 6.507812 -1.84375 6.988281 -1.972656 7.40625 -2.234375 C 7.832031 -2.503906 8.148438 -2.875 8.359375 -3.34375 L 10.484375 -2.40625 C 10.191406 -1.5625 9.628906 -0.890625 8.796875 -0.390625 C 7.960938 0.0976562 7.015625 0.34375 5.953125 0.34375 Z M 3.46875 -5.984375 L 7.28125 -5.984375 C 7.238281 -6.734375 7.054688 -7.3125 6.734375 -7.71875 C 6.421875 -8.132812 5.992188 -8.34375 5.453125 -8.34375 C 4.878906 -8.34375 4.421875 -8.132812 4.078125 -7.71875 C 3.734375 -7.300781 3.53125 -6.722656 3.46875 -5.984375 Z M 3.46875 -5.984375 "/></g></g><g style="fill:#0661aa;fill-opacity:1;"><g transform="translate(68.591175, 89.725764)"><path style="stroke:none" d="M 6.953125 -10.453125 C 7.890625 -10.453125 8.628906 -10.171875 9.171875 -9.609375 C 9.722656 -9.046875 10 -8.257812 10 -7.25 L 10 0 L 6.953125 0 L 6.953125 -6.46875 C 6.953125 -6.945312 6.832031 -7.316406 6.59375 -7.578125 C 6.351562 -7.847656 6.019531 -7.984375 5.59375 -7.984375 C 5.050781 -7.984375 4.613281 -7.804688 4.28125 -7.453125 C 3.945312 -7.097656 3.78125 -6.609375 3.78125 -5.984375 L 3.78125 0 L 0.75 0 L 0.75 -10.1875 L 3.265625 -10.1875 L 3.6875 -8.453125 L 3.703125 -8.453125 C 4.003906 -9.097656 4.441406 -9.59375 5.015625 -9.9375 C 5.585938 -10.28125 6.234375 -10.453125 6.953125 -10.453125 Z M 6.953125 -10.453125 "/></g></g><g style="fill:#0661aa;fill-opacity:1;"><g transform="translate(81.626306, 89.725764)"><path style="stroke:none" d="M 10.34375 -4.015625 C 10.195312 -2.742188 9.71875 -1.71875 8.90625 -0.9375 C 8.101562 -0.15625 7.070312 0.269531 5.8125 0.34375 L 5.734375 0.953125 C 6.316406 0.992188 6.78125 1.144531 7.125 1.40625 C 7.46875 1.675781 7.640625 2.050781 7.640625 2.53125 C 7.640625 3.007812 7.472656 3.390625 7.140625 3.671875 C 6.816406 3.953125 6.378906 4.09375 5.828125 4.09375 C 5.441406 4.09375 5.070312 3.988281 4.71875 3.78125 C 4.375 3.582031 4.125 3.332031 3.96875 3.03125 L 4.5625 2.546875 C 4.664062 2.773438 4.835938 2.960938 5.078125 3.109375 C 5.316406 3.253906 5.566406 3.328125 5.828125 3.328125 C 6.140625 3.328125 6.390625 3.253906 6.578125 3.109375 C 6.773438 2.972656 6.875 2.789062 6.875 2.5625 C 6.875 2.289062 6.753906 2.070312 6.515625 1.90625 C 6.273438 1.75 5.960938 1.671875 5.578125 1.671875 L 4.875 1.671875 L 5.03125 0.3125 C 4.09375 0.25 3.273438 -0.00390625 2.578125 -0.453125 C 1.890625 -0.910156 1.359375 -1.535156 0.984375 -2.328125 C 0.609375 -3.117188 0.421875 -4.039062 0.421875 -5.09375 C 0.429688 -6.207031 0.632812 -7.171875 1.03125 -7.984375 C 1.425781 -8.804688 1.984375 -9.4375 2.703125 -9.875 C 3.429688 -10.320312 4.28125 -10.546875 5.25 -10.546875 C 6.476562 -10.546875 7.492188 -10.191406 8.296875 -9.484375 C 9.109375 -8.785156 9.613281 -7.84375 9.8125 -6.65625 L 7.03125 -6.015625 C 6.9375 -6.691406 6.734375 -7.203125 6.421875 -7.546875 C 6.109375 -7.898438 5.738281 -8.078125 5.3125 -8.078125 C 4.757812 -8.078125 4.3125 -7.8125 3.96875 -7.28125 C 3.632812 -6.75 3.46875 -6.019531 3.46875 -5.09375 C 3.476562 -4.164062 3.671875 -3.4375 4.046875 -2.90625 C 4.429688 -2.382812 4.925781 -2.125 5.53125 -2.125 C 6.0625 -2.125 6.507812 -2.328125 6.875 -2.734375 C 7.238281 -3.140625 7.460938 -3.707031 7.546875 -4.4375 Z M 10.34375 -4.015625 "/></g></g><g style="fill:#0661aa;fill-opacity:1;"><g transform="translate(94.641548, 89.725764)"><path style="stroke:none" d="M 6.59375 -11.75 C 6.21875 -11.75 5.910156 -11.863281 5.671875 -12.09375 C 5.429688 -12.320312 5.210938 -12.570312 5.015625 -12.84375 C 4.835938 -13.09375 4.660156 -13.316406 4.484375 -13.515625 C 4.316406 -13.722656 4.125 -13.828125 3.90625 -13.828125 C 3.632812 -13.828125 3.410156 -13.648438 3.234375 -13.296875 C 3.066406 -12.941406 2.984375 -12.488281 2.984375 -11.9375 L 2.203125 -11.9375 C 2.203125 -12.707031 2.351562 -13.34375 2.65625 -13.84375 C 2.96875 -14.34375 3.390625 -14.59375 3.921875 -14.59375 C 4.304688 -14.59375 4.617188 -14.472656 4.859375 -14.234375 C 5.097656 -13.992188 5.3125 -13.738281 5.5 -13.46875 C 5.675781 -13.21875 5.84375 -12.992188 6 -12.796875 C 6.164062 -12.597656 6.351562 -12.5 6.5625 -12.5 C 6.851562 -12.5 7.085938 -12.675781 7.265625 -13.03125 C 7.453125 -13.394531 7.546875 -13.851562 7.546875 -14.40625 L 8.328125 -14.40625 C 8.328125 -13.632812 8.164062 -13 7.84375 -12.5 C 7.519531 -12 7.101562 -11.75 6.59375 -11.75 Z M 3.515625 0.234375 C 2.546875 0.234375 1.765625 -0.0195312 1.171875 -0.53125 C 0.578125 -1.050781 0.28125 -1.75 0.28125 -2.625 C 0.28125 -3.550781 0.632812 -4.300781 1.34375 -4.875 C 2.050781 -5.457031 3.085938 -5.820312 4.453125 -5.96875 L 6.03125 -6.15625 C 6.257812 -6.175781 6.441406 -6.253906 6.578125 -6.390625 C 6.710938 -6.523438 6.78125 -6.71875 6.78125 -6.96875 C 6.78125 -7.414062 6.640625 -7.757812 6.359375 -8 C 6.085938 -8.238281 5.726562 -8.359375 5.28125 -8.359375 C 4.757812 -8.359375 4.335938 -8.175781 4.015625 -7.8125 C 3.703125 -7.457031 3.53125 -7.007812 3.5 -6.46875 L 0.609375 -6.890625 C 0.640625 -7.609375 0.847656 -8.238281 1.234375 -8.78125 C 1.628906 -9.332031 2.164062 -9.765625 2.84375 -10.078125 C 3.53125 -10.390625 4.332031 -10.546875 5.25 -10.546875 C 6.644531 -10.546875 7.75 -10.179688 8.5625 -9.453125 C 9.375 -8.722656 9.78125 -7.734375 9.78125 -6.484375 L 9.78125 -2.546875 C 9.78125 -2.097656 9.941406 -1.875 10.265625 -1.875 C 10.535156 -1.875 10.789062 -2.003906 11.03125 -2.265625 L 11.6875 -0.640625 C 11.363281 -0.328125 10.976562 -0.0976562 10.53125 0.046875 C 10.082031 0.191406 9.640625 0.265625 9.203125 0.265625 C 8.585938 0.265625 8.070312 0.109375 7.65625 -0.203125 C 7.238281 -0.515625 6.976562 -0.910156 6.875 -1.390625 L 6.828125 -1.65625 L 6.8125 -1.65625 C 6.5 -1.070312 6.054688 -0.609375 5.484375 -0.265625 C 4.921875 0.0664062 4.265625 0.234375 3.515625 0.234375 Z M 4.78125 -1.890625 C 5.351562 -1.890625 5.820312 -2.09375 6.1875 -2.5 C 6.5625 -2.90625 6.75 -3.429688 6.75 -4.078125 L 6.75 -4.5625 L 5.25 -4.40625 C 4.5625 -4.320312 4.066406 -4.148438 3.765625 -3.890625 C 3.472656 -3.640625 3.328125 -3.34375 3.328125 -3 C 3.328125 -2.675781 3.460938 -2.410156 3.734375 -2.203125 C 4.003906 -1.992188 4.351562 -1.890625 4.78125 -1.890625 Z M 4.78125 -1.890625 "/></g></g><g style="fill:#0661aa;fill-opacity:1;"><g transform="translate(108.671658, 89.725764)"><path style="stroke:none" d="M 5.59375 0.34375 C 4.539062 0.34375 3.625 0.117188 2.84375 -0.328125 C 2.070312 -0.773438 1.472656 -1.40625 1.046875 -2.21875 C 0.628906 -3.03125 0.421875 -3.988281 0.421875 -5.09375 C 0.421875 -6.207031 0.628906 -7.171875 1.046875 -7.984375 C 1.472656 -8.804688 2.070312 -9.4375 2.84375 -9.875 C 3.625 -10.320312 4.539062 -10.546875 5.59375 -10.546875 C 6.644531 -10.546875 7.550781 -10.320312 8.3125 -9.875 C 9.082031 -9.4375 9.679688 -8.804688 10.109375 -7.984375 C 10.535156 -7.171875 10.75 -6.207031 10.75 -5.09375 C 10.75 -3.988281 10.535156 -3.03125 10.109375 -2.21875 C 9.679688 -1.40625 9.082031 -0.773438 8.3125 -0.328125 C 7.550781 0.117188 6.644531 0.34375 5.59375 0.34375 Z M 5.59375 -2.203125 C 6.257812 -2.203125 6.78125 -2.457031 7.15625 -2.96875 C 7.53125 -3.488281 7.71875 -4.195312 7.71875 -5.09375 C 7.71875 -6 7.53125 -6.707031 7.15625 -7.21875 C 6.78125 -7.726562 6.257812 -7.984375 5.59375 -7.984375 C 4.925781 -7.984375 4.398438 -7.726562 4.015625 -7.21875 C 3.628906 -6.707031 3.4375 -6 3.4375 -5.09375 C 3.4375 -4.195312 3.628906 -3.488281 4.015625 -2.96875 C 4.398438 -2.457031 4.925781 -2.203125 5.59375 -2.203125 Z M 5.59375 -2.203125 "/></g></g><g style="fill:#0661aa;fill-opacity:1;"><g transform="translate(38.38184, 113.614651)"><path style="stroke:none" d="M 4.4375 0.28125 C 3.625 0.28125 2.914062 0.0625 2.3125 -0.375 C 1.707031 -0.8125 1.238281 -1.4375 0.90625 -2.25 C 0.582031 -3.0625 0.421875 -4.007812 0.421875 -5.09375 C 0.421875 -6.195312 0.582031 -7.148438 0.90625 -7.953125 C 1.238281 -8.753906 1.707031 -9.375 2.3125 -9.8125 C 2.914062 -10.25 3.617188 -10.46875 4.421875 -10.46875 C 5.109375 -10.46875 5.71875 -10.296875 6.25 -9.953125 C 6.78125 -9.609375 7.191406 -9.109375 7.484375 -8.453125 L 7.5 -8.453125 L 7.5 -14.765625 L 10.546875 -14.765625 L 10.546875 0 L 7.96875 0 L 7.578125 -1.765625 L 7.5625 -1.765625 C 7.269531 -1.109375 6.851562 -0.601562 6.3125 -0.25 C 5.769531 0.101562 5.144531 0.28125 4.4375 0.28125 Z M 5.546875 -2.328125 C 6.171875 -2.328125 6.671875 -2.578125 7.046875 -3.078125 C 7.429688 -3.585938 7.625 -4.257812 7.625 -5.09375 C 7.625 -5.925781 7.429688 -6.59375 7.046875 -7.09375 C 6.671875 -7.601562 6.171875 -7.859375 5.546875 -7.859375 C 4.929688 -7.859375 4.429688 -7.601562 4.046875 -7.09375 C 3.660156 -6.59375 3.46875 -5.925781 3.46875 -5.09375 C 3.46875 -4.257812 3.660156 -3.585938 4.046875 -3.078125 C 4.429688 -2.578125 4.929688 -2.328125 5.546875 -2.328125 Z M 5.546875 -2.328125 "/></g></g><g style="fill:#0661aa;fill-opacity:1;"><g transform="translate(52.033868, 113.614651)"><path style="stroke:none" d="M 5.953125 0.34375 C 4.847656 0.34375 3.878906 0.117188 3.046875 -0.328125 C 2.210938 -0.785156 1.566406 -1.425781 1.109375 -2.25 C 0.648438 -3.082031 0.421875 -4.050781 0.421875 -5.15625 C 0.421875 -6.238281 0.628906 -7.179688 1.046875 -7.984375 C 1.460938 -8.796875 2.046875 -9.425781 2.796875 -9.875 C 3.554688 -10.320312 4.445312 -10.546875 5.46875 -10.546875 C 6.457031 -10.546875 7.304688 -10.328125 8.015625 -9.890625 C 8.734375 -9.460938 9.296875 -8.859375 9.703125 -8.078125 C 10.109375 -7.304688 10.3125 -6.398438 10.3125 -5.359375 C 10.3125 -5.140625 10.300781 -4.929688 10.28125 -4.734375 C 10.257812 -4.546875 10.226562 -4.390625 10.1875 -4.265625 L 3.46875 -4.265625 C 3.53125 -3.515625 3.785156 -2.921875 4.234375 -2.484375 C 4.691406 -2.054688 5.269531 -1.84375 5.96875 -1.84375 C 6.507812 -1.84375 6.988281 -1.972656 7.40625 -2.234375 C 7.832031 -2.503906 8.148438 -2.875 8.359375 -3.34375 L 10.484375 -2.40625 C 10.191406 -1.5625 9.628906 -0.890625 8.796875 -0.390625 C 7.960938 0.0976562 7.015625 0.34375 5.953125 0.34375 Z M 3.46875 -5.984375 L 7.28125 -5.984375 C 7.238281 -6.734375 7.054688 -7.3125 6.734375 -7.71875 C 6.421875 -8.132812 5.992188 -8.34375 5.453125 -8.34375 C 4.878906 -8.34375 4.421875 -8.132812 4.078125 -7.71875 C 3.734375 -7.300781 3.53125 -6.722656 3.46875 -5.984375 Z M 3.46875 -5.984375 "/></g></g><g style="fill:#0661aa;fill-opacity:1;"><g transform="translate(65.248102, 113.614651)"><path style="stroke:none" d=""/></g></g><g style="fill:#0661aa;fill-opacity:1;"><g transform="translate(71.298489, 113.614651)"><path style="stroke:none" d="M 0.09375 0 L 4.640625 -14.171875 L 8.859375 -14.171875 L 13.390625 0 L 9.90625 0 L 9.109375 -2.78125 L 4.359375 -2.78125 L 3.546875 0 Z M 4.875 -5.203125 L 8.578125 -5.203125 L 6.78125 -11.421875 L 6.75 -11.421875 Z M 4.875 -5.203125 "/></g></g><g style="fill:#0661aa;fill-opacity:1;"><g transform="translate(87.139466, 113.614651)"><path style="stroke:none" d="M 6.25 -10.46875 C 7.082031 -10.46875 7.75 -10.15625 8.25 -9.53125 C 8.757812 -8.90625 9.039062 -8.023438 9.09375 -6.890625 L 6.53125 -6.1875 C 6.519531 -6.851562 6.398438 -7.351562 6.171875 -7.6875 C 5.941406 -8.03125 5.644531 -8.203125 5.28125 -8.203125 C 4.820312 -8.203125 4.457031 -7.972656 4.1875 -7.515625 C 3.914062 -7.066406 3.78125 -6.445312 3.78125 -5.65625 L 3.78125 0 L 0.75 0 L 0.75 -10.1875 L 3.203125 -10.1875 L 3.625 -8.4375 L 3.640625 -8.4375 C 3.867188 -9.070312 4.210938 -9.566406 4.671875 -9.921875 C 5.140625 -10.285156 5.664062 -10.46875 6.25 -10.46875 Z M 6.25 -10.46875 "/></g></g><g style="fill:#2d6d5e;fill-opacity:1;"><g transform="translate(45.910419, 129.258795)"><path style="stroke:none" d="M 3.1875 -7.15625 C 2.875 -7.15625 2.601562 -7.066406 2.375 -6.890625 C 2.15625 -6.722656 1.972656 -6.484375 1.828125 -6.171875 C 1.691406 -5.867188 1.59375 -5.519531 1.53125 -5.125 C 1.46875 -4.738281 1.4375 -4.332031 1.4375 -3.90625 C 1.4375 -3.238281 1.507812 -2.660156 1.65625 -2.171875 C 1.800781 -1.691406 2.007812 -1.316406 2.28125 -1.046875 C 2.550781 -0.785156 2.867188 -0.65625 3.234375 -0.65625 C 3.453125 -0.65625 3.660156 -0.679688 3.859375 -0.734375 C 4.054688 -0.796875 4.238281 -0.867188 4.40625 -0.953125 L 4.40625 -0.1875 C 4.226562 -0.0820312 4.035156 -0.0078125 3.828125 0.03125 C 3.617188 0.0820312 3.390625 0.109375 3.140625 0.109375 C 2.609375 0.109375 2.148438 -0.0507812 1.765625 -0.375 C 1.378906 -0.695312 1.078125 -1.15625 0.859375 -1.75 C 0.648438 -2.351562 0.546875 -3.078125 0.546875 -3.921875 C 0.546875 -4.472656 0.597656 -4.988281 0.703125 -5.46875 C 0.804688 -5.945312 0.96875 -6.375 1.1875 -6.75 C 1.40625 -7.125 1.675781 -7.414062 2 -7.625 C 2.332031 -7.832031 2.71875 -7.9375 3.15625 -7.9375 C 3.414062 -7.9375 3.660156 -7.898438 3.890625 -7.828125 C 4.128906 -7.765625 4.359375 -7.671875 4.578125 -7.546875 L 4.265625 -6.828125 C 4.109375 -6.929688 3.9375 -7.007812 3.75 -7.0625 C 3.570312 -7.125 3.382812 -7.15625 3.1875 -7.15625 Z M 3.1875 -7.15625 "/></g></g><g style="fill:#2d6d5e;fill-opacity:1;"><g transform="translate(52.283517, 129.258795)"><path style="stroke:none" d="M 4.359375 -2.9375 C 4.359375 -2.476562 4.316406 -2.0625 4.234375 -1.6875 C 4.160156 -1.3125 4.039062 -0.988281 3.875 -0.71875 C 3.71875 -0.457031 3.515625 -0.253906 3.265625 -0.109375 C 3.023438 0.0351562 2.734375 0.109375 2.390625 0.109375 C 2.078125 0.109375 1.796875 0.0351562 1.546875 -0.109375 C 1.304688 -0.253906 1.101562 -0.457031 0.9375 -0.71875 C 0.78125 -0.976562 0.660156 -1.296875 0.578125 -1.671875 C 0.503906 -2.054688 0.46875 -2.476562 0.46875 -2.9375 C 0.46875 -3.582031 0.535156 -4.128906 0.671875 -4.578125 C 0.804688 -5.035156 1.019531 -5.378906 1.3125 -5.609375 C 1.601562 -5.847656 1.96875 -5.96875 2.40625 -5.96875 C 2.820312 -5.96875 3.175781 -5.851562 3.46875 -5.625 C 3.757812 -5.394531 3.976562 -5.054688 4.125 -4.609375 C 4.28125 -4.160156 4.359375 -3.601562 4.359375 -2.9375 Z M 1.296875 -2.9375 C 1.296875 -2.425781 1.332031 -2 1.40625 -1.65625 C 1.488281 -1.3125 1.613281 -1.050781 1.78125 -0.875 C 1.945312 -0.695312 2.160156 -0.609375 2.421875 -0.609375 C 2.671875 -0.609375 2.875 -0.691406 3.03125 -0.859375 C 3.195312 -1.035156 3.316406 -1.296875 3.390625 -1.640625 C 3.472656 -1.984375 3.515625 -2.414062 3.515625 -2.9375 C 3.515625 -3.445312 3.472656 -3.875 3.390625 -4.21875 C 3.316406 -4.5625 3.195312 -4.816406 3.03125 -4.984375 C 2.875 -5.160156 2.664062 -5.25 2.40625 -5.25 C 2.019531 -5.25 1.738281 -5.054688 1.5625 -4.671875 C 1.382812 -4.285156 1.296875 -3.707031 1.296875 -2.9375 Z M 1.296875 -2.9375 "/></g></g><g style="fill:#2d6d5e;fill-opacity:1;"><g transform="translate(58.635245, 129.258795)"><path style="stroke:none" d="M 2.828125 -5.96875 C 3.285156 -5.96875 3.632812 -5.804688 3.875 -5.484375 C 4.113281 -5.160156 4.234375 -4.664062 4.234375 -4 L 4.234375 0 L 3.40625 0 L 3.40625 -3.828125 C 3.40625 -4.304688 3.34375 -4.660156 3.21875 -4.890625 C 3.101562 -5.128906 2.914062 -5.25 2.65625 -5.25 C 2.269531 -5.25 1.984375 -5.078125 1.796875 -4.734375 C 1.617188 -4.390625 1.53125 -3.84375 1.53125 -3.09375 L 1.53125 0 L 0.71875 0 L 0.71875 -5.859375 L 1.375 -5.859375 L 1.46875 -5.015625 L 1.515625 -5.015625 C 1.597656 -5.210938 1.703125 -5.378906 1.828125 -5.515625 C 1.960938 -5.660156 2.113281 -5.769531 2.28125 -5.84375 C 2.445312 -5.925781 2.628906 -5.96875 2.828125 -5.96875 Z M 2.828125 -5.96875 "/></g></g><g style="fill:#2d6d5e;fill-opacity:1;"><g transform="translate(65.099164, 129.258795)"><path style="stroke:none" d="M 2.09375 -0.625 C 2.1875 -0.625 2.273438 -0.628906 2.359375 -0.640625 C 2.453125 -0.660156 2.535156 -0.691406 2.609375 -0.734375 L 2.609375 -0.0625 C 2.503906 -0.0078125 2.382812 0.03125 2.25 0.0625 C 2.125 0.09375 1.984375 0.109375 1.828125 0.109375 C 1.578125 0.109375 1.367188 0.0507812 1.203125 -0.0625 C 1.046875 -0.175781 0.925781 -0.34375 0.84375 -0.5625 C 0.769531 -0.789062 0.734375 -1.078125 0.734375 -1.421875 L 0.734375 -5.171875 L 0.1875 -5.171875 L 0.1875 -5.625 L 0.78125 -5.84375 L 1 -7.1875 L 1.5625 -7.1875 L 1.5625 -5.859375 L 2.546875 -5.859375 L 2.546875 -5.171875 L 1.5625 -5.171875 L 1.5625 -1.515625 C 1.5625 -1.210938 1.597656 -0.988281 1.671875 -0.84375 C 1.742188 -0.695312 1.882812 -0.625 2.09375 -0.625 Z M 2.09375 -0.625 "/></g></g><g style="fill:#2d6d5e;fill-opacity:1;"><g transform="translate(69.404741, 129.258795)"><path style="stroke:none" d="M 2.671875 -5.96875 C 2.753906 -5.96875 2.835938 -5.957031 2.921875 -5.9375 C 3.003906 -5.925781 3.085938 -5.910156 3.171875 -5.890625 L 3.046875 -5.046875 C 2.984375 -5.066406 2.914062 -5.082031 2.84375 -5.09375 C 2.769531 -5.101562 2.691406 -5.109375 2.609375 -5.109375 C 2.453125 -5.109375 2.304688 -5.054688 2.171875 -4.953125 C 2.035156 -4.847656 1.921875 -4.703125 1.828125 -4.515625 C 1.734375 -4.328125 1.660156 -4.109375 1.609375 -3.859375 C 1.554688 -3.609375 1.53125 -3.34375 1.53125 -3.0625 L 1.53125 0 L 0.71875 0 L 0.71875 -5.859375 L 1.359375 -5.859375 L 1.46875 -4.828125 L 1.515625 -4.828125 C 1.597656 -5.046875 1.691406 -5.238281 1.796875 -5.40625 C 1.910156 -5.582031 2.039062 -5.71875 2.1875 -5.8125 C 2.332031 -5.914062 2.492188 -5.96875 2.671875 -5.96875 Z M 2.671875 -5.96875 "/></g></g><g style="fill:#2d6d5e;fill-opacity:1;"><g transform="translate(74.217849, 129.258795)"><path style="stroke:none" d="M 4.359375 -2.9375 C 4.359375 -2.476562 4.316406 -2.0625 4.234375 -1.6875 C 4.160156 -1.3125 4.039062 -0.988281 3.875 -0.71875 C 3.71875 -0.457031 3.515625 -0.253906 3.265625 -0.109375 C 3.023438 0.0351562 2.734375 0.109375 2.390625 0.109375 C 2.078125 0.109375 1.796875 0.0351562 1.546875 -0.109375 C 1.304688 -0.253906 1.101562 -0.457031 0.9375 -0.71875 C 0.78125 -0.976562 0.660156 -1.296875 0.578125 -1.671875 C 0.503906 -2.054688 0.46875 -2.476562 0.46875 -2.9375 C 0.46875 -3.582031 0.535156 -4.128906 0.671875 -4.578125 C 0.804688 -5.035156 1.019531 -5.378906 1.3125 -5.609375 C 1.601562 -5.847656 1.96875 -5.96875 2.40625 -5.96875 C 2.820312 -5.96875 3.175781 -5.851562 3.46875 -5.625 C 3.757812 -5.394531 3.976562 -5.054688 4.125 -4.609375 C 4.28125 -4.160156 4.359375 -3.601562 4.359375 -2.9375 Z M 1.296875 -2.9375 C 1.296875 -2.425781 1.332031 -2 1.40625 -1.65625 C 1.488281 -1.3125 1.613281 -1.050781 1.78125 -0.875 C 1.945312 -0.695312 2.160156 -0.609375 2.421875 -0.609375 C 2.671875 -0.609375 2.875 -0.691406 3.03125 -0.859375 C 3.195312 -1.035156 3.316406 -1.296875 3.390625 -1.640625 C 3.472656 -1.984375 3.515625 -2.414062 3.515625 -2.9375 C 3.515625 -3.445312 3.472656 -3.875 3.390625 -4.21875 C 3.316406 -4.5625 3.195312 -4.816406 3.03125 -4.984375 C 2.875 -5.160156 2.664062 -5.25 2.40625 -5.25 C 2.019531 -5.25 1.738281 -5.054688 1.5625 -4.671875 C 1.382812 -4.285156 1.296875 -3.707031 1.296875 -2.9375 Z M 1.296875 -2.9375 "/></g></g><g style="fill:#2d6d5e;fill-opacity:1;"><g transform="translate(80.569577, 129.258795)"><path style="stroke:none" d="M 1.53125 0 L 0.71875 0 L 0.71875 -8.3125 L 1.53125 -8.3125 Z M 1.53125 0 "/></g></g><g style="fill:#2d6d5e;fill-opacity:1;"><g transform="translate(84.346254, 129.258795)"><path style="stroke:none" d="M 2.328125 -5.953125 C 2.722656 -5.953125 3.050781 -5.835938 3.3125 -5.609375 C 3.570312 -5.378906 3.765625 -5.066406 3.890625 -4.671875 C 4.015625 -4.285156 4.078125 -3.851562 4.078125 -3.375 L 4.078125 -2.78125 L 1.28125 -2.78125 C 1.289062 -2.050781 1.40625 -1.503906 1.625 -1.140625 C 1.84375 -0.773438 2.171875 -0.59375 2.609375 -0.59375 C 2.828125 -0.59375 3.035156 -0.625 3.234375 -0.6875 C 3.441406 -0.75 3.648438 -0.851562 3.859375 -1 L 3.859375 -0.265625 C 3.660156 -0.140625 3.453125 -0.046875 3.234375 0.015625 C 3.015625 0.078125 2.78125 0.109375 2.53125 0.109375 C 2.039062 0.109375 1.644531 -0.0195312 1.34375 -0.28125 C 1.039062 -0.539062 0.816406 -0.898438 0.671875 -1.359375 C 0.535156 -1.816406 0.46875 -2.332031 0.46875 -2.90625 C 0.46875 -3.550781 0.535156 -4.101562 0.671875 -4.5625 C 0.816406 -5.019531 1.023438 -5.363281 1.296875 -5.59375 C 1.578125 -5.832031 1.921875 -5.953125 2.328125 -5.953125 Z M 2.328125 -5.28125 C 2.015625 -5.28125 1.769531 -5.128906 1.59375 -4.828125 C 1.425781 -4.535156 1.328125 -4.070312 1.296875 -3.4375 L 3.3125 -3.4375 C 3.3125 -3.769531 3.273438 -4.078125 3.203125 -4.359375 C 3.140625 -4.640625 3.035156 -4.863281 2.890625 -5.03125 C 2.742188 -5.195312 2.554688 -5.28125 2.328125 -5.28125 Z M 2.328125 -5.28125 "/></g></g><g style="fill:#2d6d5e;fill-opacity:1;"><g transform="translate(20.726773, 141.949766)"><path style="stroke:none" d="M 2.671875 -5.96875 C 2.753906 -5.96875 2.835938 -5.957031 2.921875 -5.9375 C 3.003906 -5.925781 3.085938 -5.910156 3.171875 -5.890625 L 3.046875 -5.046875 C 2.984375 -5.066406 2.914062 -5.082031 2.84375 -5.09375 C 2.769531 -5.101562 2.691406 -5.109375 2.609375 -5.109375 C 2.453125 -5.109375 2.304688 -5.054688 2.171875 -4.953125 C 2.035156 -4.847656 1.921875 -4.703125 1.828125 -4.515625 C 1.734375 -4.328125 1.660156 -4.109375 1.609375 -3.859375 C 1.554688 -3.609375 1.53125 -3.34375 1.53125 -3.0625 L 1.53125 0 L 0.71875 0 L 0.71875 -5.859375 L 1.359375 -5.859375 L 1.46875 -4.828125 L 1.515625 -4.828125 C 1.597656 -5.046875 1.691406 -5.238281 1.796875 -5.40625 C 1.910156 -5.582031 2.039062 -5.71875 2.1875 -5.8125 C 2.332031 -5.914062 2.492188 -5.96875 2.671875 -5.96875 Z M 2.671875 -5.96875 "/></g></g><g style="fill:#2d6d5e;fill-opacity:1;"><g transform="translate(25.539881, 141.949766)"><path style="stroke:none" d="M 2.328125 -5.953125 C 2.722656 -5.953125 3.050781 -5.835938 3.3125 -5.609375 C 3.570312 -5.378906 3.765625 -5.066406 3.890625 -4.671875 C 4.015625 -4.285156 4.078125 -3.851562 4.078125 -3.375 L 4.078125 -2.78125 L 1.28125 -2.78125 C 1.289062 -2.050781 1.40625 -1.503906 1.625 -1.140625 C 1.84375 -0.773438 2.171875 -0.59375 2.609375 -0.59375 C 2.828125 -0.59375 3.035156 -0.625 3.234375 -0.6875 C 3.441406 -0.75 3.648438 -0.851562 3.859375 -1 L 3.859375 -0.265625 C 3.660156 -0.140625 3.453125 -0.046875 3.234375 0.015625 C 3.015625 0.078125 2.78125 0.109375 2.53125 0.109375 C 2.039062 0.109375 1.644531 -0.0195312 1.34375 -0.28125 C 1.039062 -0.539062 0.816406 -0.898438 0.671875 -1.359375 C 0.535156 -1.816406 0.46875 -2.332031 0.46875 -2.90625 C 0.46875 -3.550781 0.535156 -4.101562 0.671875 -4.5625 C 0.816406 -5.019531 1.023438 -5.363281 1.296875 -5.59375 C 1.578125 -5.832031 1.921875 -5.953125 2.328125 -5.953125 Z M 2.328125 -5.28125 C 2.015625 -5.28125 1.769531 -5.128906 1.59375 -4.828125 C 1.425781 -4.535156 1.328125 -4.070312 1.296875 -3.4375 L 3.3125 -3.4375 C 3.3125 -3.769531 3.273438 -4.078125 3.203125 -4.359375 C 3.140625 -4.640625 3.035156 -4.863281 2.890625 -5.03125 C 2.742188 -5.195312 2.554688 -5.28125 2.328125 -5.28125 Z M 2.328125 -5.28125 "/></g></g><g style="fill:#2d6d5e;fill-opacity:1;"><g transform="translate(31.597776, 141.949766)"><path style="stroke:none" d="M 3.328125 -1.546875 C 3.328125 -1.191406 3.257812 -0.890625 3.125 -0.640625 C 3 -0.398438 2.8125 -0.210938 2.5625 -0.078125 C 2.320312 0.046875 2.03125 0.109375 1.6875 0.109375 C 1.414062 0.109375 1.164062 0.078125 0.9375 0.015625 C 0.71875 -0.046875 0.53125 -0.125 0.375 -0.21875 L 0.375 -1.078125 C 0.53125 -0.941406 0.722656 -0.832031 0.953125 -0.75 C 1.179688 -0.664062 1.414062 -0.625 1.65625 -0.625 C 1.925781 -0.625 2.132812 -0.703125 2.28125 -0.859375 C 2.4375 -1.015625 2.515625 -1.234375 2.515625 -1.515625 C 2.515625 -1.679688 2.484375 -1.828125 2.421875 -1.953125 C 2.359375 -2.078125 2.257812 -2.195312 2.125 -2.3125 C 1.988281 -2.425781 1.816406 -2.546875 1.609375 -2.671875 C 1.359375 -2.816406 1.140625 -2.96875 0.953125 -3.125 C 0.765625 -3.289062 0.617188 -3.476562 0.515625 -3.6875 C 0.421875 -3.894531 0.375 -4.144531 0.375 -4.4375 C 0.375 -4.894531 0.519531 -5.265625 0.8125 -5.546875 C 1.113281 -5.828125 1.503906 -5.96875 1.984375 -5.96875 C 2.234375 -5.96875 2.46875 -5.9375 2.6875 -5.875 C 2.90625 -5.8125 3.113281 -5.71875 3.3125 -5.59375 L 3 -4.9375 C 2.851562 -5.039062 2.691406 -5.117188 2.515625 -5.171875 C 2.347656 -5.234375 2.175781 -5.265625 2 -5.265625 C 1.738281 -5.265625 1.53125 -5.191406 1.375 -5.046875 C 1.226562 -4.898438 1.15625 -4.707031 1.15625 -4.46875 C 1.15625 -4.300781 1.1875 -4.15625 1.25 -4.03125 C 1.3125 -3.914062 1.410156 -3.800781 1.546875 -3.6875 C 1.679688 -3.582031 1.863281 -3.460938 2.09375 -3.328125 C 2.34375 -3.171875 2.554688 -3.015625 2.734375 -2.859375 C 2.921875 -2.703125 3.066406 -2.519531 3.171875 -2.3125 C 3.273438 -2.101562 3.328125 -1.847656 3.328125 -1.546875 Z M 3.328125 -1.546875 "/></g></g><g style="fill:#2d6d5e;fill-opacity:1;"><g transform="translate(36.806223, 141.949766)"><path style="stroke:none" d="M 2.828125 -5.96875 C 3.390625 -5.96875 3.816406 -5.710938 4.109375 -5.203125 C 4.398438 -4.703125 4.546875 -3.945312 4.546875 -2.9375 C 4.546875 -2.289062 4.476562 -1.738281 4.34375 -1.28125 C 4.21875 -0.832031 4.03125 -0.488281 3.78125 -0.25 C 3.53125 -0.0078125 3.226562 0.109375 2.875 0.109375 C 2.675781 0.109375 2.488281 0.0703125 2.3125 0 C 2.144531 -0.0820312 1.992188 -0.191406 1.859375 -0.328125 C 1.734375 -0.472656 1.625 -0.640625 1.53125 -0.828125 L 1.5 -0.828125 C 1.507812 -0.679688 1.515625 -0.539062 1.515625 -0.40625 C 1.523438 -0.28125 1.53125 -0.160156 1.53125 -0.046875 L 1.53125 2.609375 L 0.71875 2.609375 L 0.71875 -5.859375 L 1.390625 -5.859375 L 1.484375 -5 L 1.53125 -5 C 1.632812 -5.21875 1.75 -5.394531 1.875 -5.53125 C 2.007812 -5.675781 2.15625 -5.785156 2.3125 -5.859375 C 2.46875 -5.929688 2.640625 -5.96875 2.828125 -5.96875 Z M 2.65625 -5.265625 C 2.40625 -5.265625 2.195312 -5.1875 2.03125 -5.03125 C 1.875 -4.875 1.75 -4.632812 1.65625 -4.3125 C 1.570312 -4 1.53125 -3.601562 1.53125 -3.125 L 1.53125 -2.84375 C 1.53125 -2.34375 1.570312 -1.925781 1.65625 -1.59375 C 1.75 -1.257812 1.878906 -1.007812 2.046875 -0.84375 C 2.210938 -0.6875 2.421875 -0.609375 2.671875 -0.609375 C 2.898438 -0.609375 3.09375 -0.691406 3.25 -0.859375 C 3.40625 -1.023438 3.519531 -1.273438 3.59375 -1.609375 C 3.675781 -1.953125 3.71875 -2.394531 3.71875 -2.9375 C 3.71875 -3.707031 3.632812 -4.285156 3.46875 -4.671875 C 3.300781 -5.066406 3.03125 -5.265625 2.65625 -5.265625 Z M 2.65625 -5.265625 "/></g></g><g style="fill:#2d6d5e;fill-opacity:1;"><g transform="translate(43.344936, 141.949766)"><path style="stroke:none" d="M 1.546875 -5.859375 L 1.546875 0 L 0.71875 0 L 0.71875 -5.859375 Z M 1.140625 -8.0625 C 1.316406 -8.0625 1.441406 -8.007812 1.515625 -7.90625 C 1.585938 -7.800781 1.625 -7.648438 1.625 -7.453125 C 1.625 -7.273438 1.582031 -7.128906 1.5 -7.015625 C 1.425781 -6.910156 1.304688 -6.859375 1.140625 -6.859375 C 0.992188 -6.859375 0.875 -6.910156 0.78125 -7.015625 C 0.695312 -7.128906 0.65625 -7.273438 0.65625 -7.453125 C 0.65625 -7.648438 0.695312 -7.800781 0.78125 -7.90625 C 0.863281 -8.007812 0.984375 -8.0625 1.140625 -8.0625 Z M 1.140625 -8.0625 "/></g></g><g style="fill:#2d6d5e;fill-opacity:1;"><g transform="translate(47.142983, 141.949766)"><path style="stroke:none" d="M 2.671875 -5.96875 C 2.753906 -5.96875 2.835938 -5.957031 2.921875 -5.9375 C 3.003906 -5.925781 3.085938 -5.910156 3.171875 -5.890625 L 3.046875 -5.046875 C 2.984375 -5.066406 2.914062 -5.082031 2.84375 -5.09375 C 2.769531 -5.101562 2.691406 -5.109375 2.609375 -5.109375 C 2.453125 -5.109375 2.304688 -5.054688 2.171875 -4.953125 C 2.035156 -4.847656 1.921875 -4.703125 1.828125 -4.515625 C 1.734375 -4.328125 1.660156 -4.109375 1.609375 -3.859375 C 1.554688 -3.609375 1.53125 -3.34375 1.53125 -3.0625 L 1.53125 0 L 0.71875 0 L 0.71875 -5.859375 L 1.359375 -5.859375 L 1.46875 -4.828125 L 1.515625 -4.828125 C 1.597656 -5.046875 1.691406 -5.238281 1.796875 -5.40625 C 1.910156 -5.582031 2.039062 -5.71875 2.1875 -5.8125 C 2.332031 -5.914062 2.492188 -5.96875 2.671875 -5.96875 Z M 2.671875 -5.96875 "/></g></g><g style="fill:#2d6d5e;fill-opacity:1;"><g transform="translate(51.956091, 141.949766)"><path style="stroke:none" d="M 2.28125 -5.96875 C 2.820312 -5.96875 3.207031 -5.796875 3.4375 -5.453125 C 3.675781 -5.109375 3.796875 -4.609375 3.796875 -3.953125 L 3.796875 0 L 3.171875 0 L 3.046875 -0.828125 L 3.015625 -0.828125 C 2.929688 -0.628906 2.820312 -0.457031 2.6875 -0.3125 C 2.5625 -0.175781 2.414062 -0.0703125 2.25 0 C 2.09375 0.0703125 1.90625 0.109375 1.6875 0.109375 C 1.382812 0.109375 1.132812 0.03125 0.9375 -0.125 C 0.75 -0.289062 0.609375 -0.503906 0.515625 -0.765625 C 0.421875 -1.023438 0.375 -1.304688 0.375 -1.609375 C 0.375 -2.191406 0.539062 -2.640625 0.875 -2.953125 C 1.21875 -3.273438 1.695312 -3.453125 2.3125 -3.484375 L 2.96875 -3.53125 L 2.96875 -3.9375 C 2.96875 -4.40625 2.90625 -4.742188 2.78125 -4.953125 C 2.65625 -5.171875 2.445312 -5.28125 2.15625 -5.28125 C 2 -5.28125 1.828125 -5.25 1.640625 -5.1875 C 1.460938 -5.132812 1.269531 -5.046875 1.0625 -4.921875 L 0.796875 -5.546875 C 1.015625 -5.691406 1.25 -5.796875 1.5 -5.859375 C 1.757812 -5.929688 2.019531 -5.96875 2.28125 -5.96875 Z M 2.984375 -2.921875 L 2.4375 -2.890625 C 2.03125 -2.867188 1.722656 -2.753906 1.515625 -2.546875 C 1.316406 -2.335938 1.21875 -2.035156 1.21875 -1.640625 C 1.21875 -1.265625 1.28125 -0.988281 1.40625 -0.8125 C 1.539062 -0.644531 1.722656 -0.5625 1.953125 -0.5625 C 2.285156 -0.5625 2.539062 -0.71875 2.71875 -1.03125 C 2.894531 -1.34375 2.984375 -1.773438 2.984375 -2.328125 Z M 2.984375 -2.921875 "/></g></g><g style="fill:#2d6d5e;fill-opacity:1;"><g transform="translate(57.981931, 141.949766)"><path style="stroke:none" d="M 2.09375 -0.625 C 2.1875 -0.625 2.273438 -0.628906 2.359375 -0.640625 C 2.453125 -0.660156 2.535156 -0.691406 2.609375 -0.734375 L 2.609375 -0.0625 C 2.503906 -0.0078125 2.382812 0.03125 2.25 0.0625 C 2.125 0.09375 1.984375 0.109375 1.828125 0.109375 C 1.578125 0.109375 1.367188 0.0507812 1.203125 -0.0625 C 1.046875 -0.175781 0.925781 -0.34375 0.84375 -0.5625 C 0.769531 -0.789062 0.734375 -1.078125 0.734375 -1.421875 L 0.734375 -5.171875 L 0.1875 -5.171875 L 0.1875 -5.625 L 0.78125 -5.84375 L 1 -7.1875 L 1.5625 -7.1875 L 1.5625 -5.859375 L 2.546875 -5.859375 L 2.546875 -5.171875 L 1.5625 -5.171875 L 1.5625 -1.515625 C 1.5625 -1.210938 1.597656 -0.988281 1.671875 -0.84375 C 1.742188 -0.695312 1.882812 -0.625 2.09375 -0.625 Z M 2.09375 -0.625 "/></g></g><g style="fill:#2d6d5e;fill-opacity:1;"><g transform="translate(62.287508, 141.949766)"><path style="stroke:none" d="M 4.359375 -2.9375 C 4.359375 -2.476562 4.316406 -2.0625 4.234375 -1.6875 C 4.160156 -1.3125 4.039062 -0.988281 3.875 -0.71875 C 3.71875 -0.457031 3.515625 -0.253906 3.265625 -0.109375 C 3.023438 0.0351562 2.734375 0.109375 2.390625 0.109375 C 2.078125 0.109375 1.796875 0.0351562 1.546875 -0.109375 C 1.304688 -0.253906 1.101562 -0.457031 0.9375 -0.71875 C 0.78125 -0.976562 0.660156 -1.296875 0.578125 -1.671875 C 0.503906 -2.054688 0.46875 -2.476562 0.46875 -2.9375 C 0.46875 -3.582031 0.535156 -4.128906 0.671875 -4.578125 C 0.804688 -5.035156 1.019531 -5.378906 1.3125 -5.609375 C 1.601562 -5.847656 1.96875 -5.96875 2.40625 -5.96875 C 2.820312 -5.96875 3.175781 -5.851562 3.46875 -5.625 C 3.757812 -5.394531 3.976562 -5.054688 4.125 -4.609375 C 4.28125 -4.160156 4.359375 -3.601562 4.359375 -2.9375 Z M 1.296875 -2.9375 C 1.296875 -2.425781 1.332031 -2 1.40625 -1.65625 C 1.488281 -1.3125 1.613281 -1.050781 1.78125 -0.875 C 1.945312 -0.695312 2.160156 -0.609375 2.421875 -0.609375 C 2.671875 -0.609375 2.875 -0.691406 3.03125 -0.859375 C 3.195312 -1.035156 3.316406 -1.296875 3.390625 -1.640625 C 3.472656 -1.984375 3.515625 -2.414062 3.515625 -2.9375 C 3.515625 -3.445312 3.472656 -3.875 3.390625 -4.21875 C 3.316406 -4.5625 3.195312 -4.816406 3.03125 -4.984375 C 2.875 -5.160156 2.664062 -5.25 2.40625 -5.25 C 2.019531 -5.25 1.738281 -5.054688 1.5625 -4.671875 C 1.382812 -4.285156 1.296875 -3.707031 1.296875 -2.9375 Z M 3.828125 -8.375 L 3.828125 -8.28125 C 3.753906 -8.164062 3.65625 -8.03125 3.53125 -7.875 C 3.414062 -7.726562 3.289062 -7.578125 3.15625 -7.421875 C 3.019531 -7.265625 2.878906 -7.117188 2.734375 -6.984375 C 2.597656 -6.847656 2.476562 -6.726562 2.375 -6.625 L 1.84375 -6.625 L 1.84375 -6.75 C 1.988281 -6.945312 2.117188 -7.132812 2.234375 -7.3125 C 2.359375 -7.5 2.46875 -7.679688 2.5625 -7.859375 C 2.664062 -8.035156 2.757812 -8.207031 2.84375 -8.375 Z M 3.828125 -8.375 "/></g></g><g style="fill:#2d6d5e;fill-opacity:1;"><g transform="translate(68.639236, 141.949766)"><path style="stroke:none" d="M 2.671875 -5.96875 C 2.753906 -5.96875 2.835938 -5.957031 2.921875 -5.9375 C 3.003906 -5.925781 3.085938 -5.910156 3.171875 -5.890625 L 3.046875 -5.046875 C 2.984375 -5.066406 2.914062 -5.082031 2.84375 -5.09375 C 2.769531 -5.101562 2.691406 -5.109375 2.609375 -5.109375 C 2.453125 -5.109375 2.304688 -5.054688 2.171875 -4.953125 C 2.035156 -4.847656 1.921875 -4.703125 1.828125 -4.515625 C 1.734375 -4.328125 1.660156 -4.109375 1.609375 -3.859375 C 1.554688 -3.609375 1.53125 -3.34375 1.53125 -3.0625 L 1.53125 0 L 0.71875 0 L 0.71875 -5.859375 L 1.359375 -5.859375 L 1.46875 -4.828125 L 1.515625 -4.828125 C 1.597656 -5.046875 1.691406 -5.238281 1.796875 -5.40625 C 1.910156 -5.582031 2.039062 -5.71875 2.1875 -5.8125 C 2.332031 -5.914062 2.492188 -5.96875 2.671875 -5.96875 Z M 2.671875 -5.96875 "/></g></g><g style="fill:#2d6d5e;fill-opacity:1;"><g transform="translate(73.452344, 141.949766)"><path style="stroke:none" d="M 1.546875 -5.859375 L 1.546875 0 L 0.71875 0 L 0.71875 -5.859375 Z M 1.140625 -8.0625 C 1.316406 -8.0625 1.441406 -8.007812 1.515625 -7.90625 C 1.585938 -7.800781 1.625 -7.648438 1.625 -7.453125 C 1.625 -7.273438 1.582031 -7.128906 1.5 -7.015625 C 1.425781 -6.910156 1.304688 -6.859375 1.140625 -6.859375 C 0.992188 -6.859375 0.875 -6.910156 0.78125 -7.015625 C 0.695312 -7.128906 0.65625 -7.273438 0.65625 -7.453125 C 0.65625 -7.648438 0.695312 -7.800781 0.78125 -7.90625 C 0.863281 -8.007812 0.984375 -8.0625 1.140625 -8.0625 Z M 1.140625 -8.0625 "/></g></g><g style="fill:#2d6d5e;fill-opacity:1;"><g transform="translate(77.25039, 141.949766)"><path style="stroke:none" d="M 4.359375 -2.9375 C 4.359375 -2.476562 4.316406 -2.0625 4.234375 -1.6875 C 4.160156 -1.3125 4.039062 -0.988281 3.875 -0.71875 C 3.71875 -0.457031 3.515625 -0.253906 3.265625 -0.109375 C 3.023438 0.0351562 2.734375 0.109375 2.390625 0.109375 C 2.078125 0.109375 1.796875 0.0351562 1.546875 -0.109375 C 1.304688 -0.253906 1.101562 -0.457031 0.9375 -0.71875 C 0.78125 -0.976562 0.660156 -1.296875 0.578125 -1.671875 C 0.503906 -2.054688 0.46875 -2.476562 0.46875 -2.9375 C 0.46875 -3.582031 0.535156 -4.128906 0.671875 -4.578125 C 0.804688 -5.035156 1.019531 -5.378906 1.3125 -5.609375 C 1.601562 -5.847656 1.96875 -5.96875 2.40625 -5.96875 C 2.820312 -5.96875 3.175781 -5.851562 3.46875 -5.625 C 3.757812 -5.394531 3.976562 -5.054688 4.125 -4.609375 C 4.28125 -4.160156 4.359375 -3.601562 4.359375 -2.9375 Z M 1.296875 -2.9375 C 1.296875 -2.425781 1.332031 -2 1.40625 -1.65625 C 1.488281 -1.3125 1.613281 -1.050781 1.78125 -0.875 C 1.945312 -0.695312 2.160156 -0.609375 2.421875 -0.609375 C 2.671875 -0.609375 2.875 -0.691406 3.03125 -0.859375 C 3.195312 -1.035156 3.316406 -1.296875 3.390625 -1.640625 C 3.472656 -1.984375 3.515625 -2.414062 3.515625 -2.9375 C 3.515625 -3.445312 3.472656 -3.875 3.390625 -4.21875 C 3.316406 -4.5625 3.195312 -4.816406 3.03125 -4.984375 C 2.875 -5.160156 2.664062 -5.25 2.40625 -5.25 C 2.019531 -5.25 1.738281 -5.054688 1.5625 -4.671875 C 1.382812 -4.285156 1.296875 -3.707031 1.296875 -2.9375 Z M 1.296875 -2.9375 "/></g></g><g style="fill:#2d6d5e;fill-opacity:1;"><g transform="translate(83.602118, 141.949766)"><path style="stroke:none" d=""/></g></g><g style="fill:#2d6d5e;fill-opacity:1;"><g transform="translate(87.165097, 141.949766)"><path style="stroke:none" d="M 2.328125 -5.953125 C 2.722656 -5.953125 3.050781 -5.835938 3.3125 -5.609375 C 3.570312 -5.378906 3.765625 -5.066406 3.890625 -4.671875 C 4.015625 -4.285156 4.078125 -3.851562 4.078125 -3.375 L 4.078125 -2.78125 L 1.28125 -2.78125 C 1.289062 -2.050781 1.40625 -1.503906 1.625 -1.140625 C 1.84375 -0.773438 2.171875 -0.59375 2.609375 -0.59375 C 2.828125 -0.59375 3.035156 -0.625 3.234375 -0.6875 C 3.441406 -0.75 3.648438 -0.851562 3.859375 -1 L 3.859375 -0.265625 C 3.660156 -0.140625 3.453125 -0.046875 3.234375 0.015625 C 3.015625 0.078125 2.78125 0.109375 2.53125 0.109375 C 2.039062 0.109375 1.644531 -0.0195312 1.34375 -0.28125 C 1.039062 -0.539062 0.816406 -0.898438 0.671875 -1.359375 C 0.535156 -1.816406 0.46875 -2.332031 0.46875 -2.90625 C 0.46875 -3.550781 0.535156 -4.101562 0.671875 -4.5625 C 0.816406 -5.019531 1.023438 -5.363281 1.296875 -5.59375 C 1.578125 -5.832031 1.921875 -5.953125 2.328125 -5.953125 Z M 2.328125 -5.28125 C 2.015625 -5.28125 1.769531 -5.128906 1.59375 -4.828125 C 1.425781 -4.535156 1.328125 -4.070312 1.296875 -3.4375 L 3.3125 -3.4375 C 3.3125 -3.769531 3.273438 -4.078125 3.203125 -4.359375 C 3.140625 -4.640625 3.035156 -4.863281 2.890625 -5.03125 C 2.742188 -5.195312 2.554688 -5.28125 2.328125 -5.28125 Z M 2.328125 -5.28125 "/></g></g><g style="fill:#2d6d5e;fill-opacity:1;"><g transform="translate(93.222992, 141.949766)"><path style="stroke:none" d=""/></g></g><g style="fill:#2d6d5e;fill-opacity:1;"><g transform="translate(96.785971, 141.949766)"><path style="stroke:none" d="M 3.1875 -7.15625 C 2.875 -7.15625 2.601562 -7.066406 2.375 -6.890625 C 2.15625 -6.722656 1.972656 -6.484375 1.828125 -6.171875 C 1.691406 -5.867188 1.59375 -5.519531 1.53125 -5.125 C 1.46875 -4.738281 1.4375 -4.332031 1.4375 -3.90625 C 1.4375 -3.238281 1.507812 -2.660156 1.65625 -2.171875 C 1.800781 -1.691406 2.007812 -1.316406 2.28125 -1.046875 C 2.550781 -0.785156 2.867188 -0.65625 3.234375 -0.65625 C 3.453125 -0.65625 3.660156 -0.679688 3.859375 -0.734375 C 4.054688 -0.796875 4.238281 -0.867188 4.40625 -0.953125 L 4.40625 -0.1875 C 4.226562 -0.0820312 4.035156 -0.0078125 3.828125 0.03125 C 3.617188 0.0820312 3.390625 0.109375 3.140625 0.109375 C 2.609375 0.109375 2.148438 -0.0507812 1.765625 -0.375 C 1.378906 -0.695312 1.078125 -1.15625 0.859375 -1.75 C 0.648438 -2.351562 0.546875 -3.078125 0.546875 -3.921875 C 0.546875 -4.472656 0.597656 -4.988281 0.703125 -5.46875 C 0.804688 -5.945312 0.96875 -6.375 1.1875 -6.75 C 1.40625 -7.125 1.675781 -7.414062 2 -7.625 C 2.332031 -7.832031 2.71875 -7.9375 3.15625 -7.9375 C 3.414062 -7.9375 3.660156 -7.898438 3.890625 -7.828125 C 4.128906 -7.765625 4.359375 -7.671875 4.578125 -7.546875 L 4.265625 -6.828125 C 4.109375 -6.929688 3.9375 -7.007812 3.75 -7.0625 C 3.570312 -7.125 3.382812 -7.15625 3.1875 -7.15625 Z M 3.1875 -7.15625 "/></g></g><g style="fill:#2d6d5e;fill-opacity:1;"><g transform="translate(103.159069, 141.949766)"><path style="stroke:none" d="M 5.421875 -3.921875 C 5.421875 -3.359375 5.375 -2.832031 5.28125 -2.34375 C 5.195312 -1.863281 5.0625 -1.4375 4.875 -1.0625 C 4.6875 -0.695312 4.4375 -0.410156 4.125 -0.203125 C 3.8125 0.00390625 3.4375 0.109375 3 0.109375 C 2.550781 0.109375 2.171875 0.00390625 1.859375 -0.203125 C 1.546875 -0.421875 1.289062 -0.710938 1.09375 -1.078125 C 0.90625 -1.453125 0.765625 -1.882812 0.671875 -2.375 C 0.585938 -2.863281 0.546875 -3.378906 0.546875 -3.921875 C 0.546875 -4.816406 0.632812 -5.554688 0.8125 -6.140625 C 1 -6.734375 1.273438 -7.175781 1.640625 -7.46875 C 2.003906 -7.769531 2.457031 -7.921875 3 -7.921875 C 3.582031 -7.921875 4.050781 -7.742188 4.40625 -7.390625 C 4.757812 -7.035156 5.015625 -6.554688 5.171875 -5.953125 C 5.335938 -5.347656 5.421875 -4.671875 5.421875 -3.921875 Z M 1.4375 -3.921875 C 1.4375 -3.210938 1.492188 -2.613281 1.609375 -2.125 C 1.734375 -1.644531 1.910156 -1.28125 2.140625 -1.03125 C 2.367188 -0.789062 2.648438 -0.671875 2.984375 -0.671875 C 3.328125 -0.671875 3.613281 -0.789062 3.84375 -1.03125 C 4.070312 -1.269531 4.242188 -1.628906 4.359375 -2.109375 C 4.472656 -2.585938 4.53125 -3.191406 4.53125 -3.921875 C 4.53125 -4.984375 4.398438 -5.785156 4.140625 -6.328125 C 3.890625 -6.867188 3.507812 -7.140625 3 -7.140625 C 2.644531 -7.140625 2.351562 -7.015625 2.125 -6.765625 C 1.894531 -6.523438 1.722656 -6.164062 1.609375 -5.6875 C 1.492188 -5.21875 1.4375 -4.628906 1.4375 -3.921875 Z M 1.4375 -3.921875 "/></g></g><g style="fill:#2d6d5e;fill-opacity:1;"><g transform="translate(110.659419, 141.949766)"><path style="stroke:none" d="M 2.9375 1.421875 L 0.28125 1.421875 L 0.28125 0.859375 L 1.25 -0.328125 C 1.445312 -0.578125 1.613281 -0.796875 1.75 -0.984375 C 1.882812 -1.171875 1.984375 -1.347656 2.046875 -1.515625 C 2.117188 -1.691406 2.15625 -1.878906 2.15625 -2.078125 C 2.15625 -2.273438 2.097656 -2.4375 1.984375 -2.5625 C 1.867188 -2.6875 1.703125 -2.75 1.484375 -2.75 C 1.328125 -2.75 1.175781 -2.710938 1.03125 -2.640625 C 0.894531 -2.566406 0.757812 -2.457031 0.625 -2.3125 L 0.28125 -2.765625 C 0.4375 -2.953125 0.617188 -3.097656 0.828125 -3.203125 C 1.046875 -3.304688 1.285156 -3.359375 1.546875 -3.359375 C 1.960938 -3.359375 2.285156 -3.242188 2.515625 -3.015625 C 2.742188 -2.796875 2.859375 -2.492188 2.859375 -2.109375 C 2.859375 -1.859375 2.8125 -1.625 2.71875 -1.40625 C 2.625 -1.1875 2.484375 -0.957031 2.296875 -0.71875 C 2.117188 -0.476562 1.890625 -0.195312 1.609375 0.125 L 1.03125 0.84375 L 2.9375 0.84375 Z M 2.9375 1.421875 "/></g></g></g></svg>