<svg xmlns="http://www.w3.org/2000/svg" xmlns:xlink="http://www.w3.org/1999/xlink" width="180" zoomAndPan="magnify" viewBox="0 0 135 161.249994" height="215" preserveAspectRatio="xMidYMid meet" version="1.2"><defs><clipPath id="092a0071dc"><path d="M 49 24.378906 L 86 24.378906 L 86 28.859375 L 49 28.859375 Z M 49 24.378906 "/></clipPath><clipPath id="585c745a6e"><path d="M 87 29 L 91.160156 29 L 91.160156 65.976562 L 87 65.976562 Z M 87 29 "/></clipPath><clipPath id="a4817c4bc9"><path d="M 45.40625 31 L 49.886719 31 L 49.886719 67.878906 L 45.40625 67.878906 Z M 45.40625 31 "/></clipPath><clipPath id="1e6c1da894"><path d="M 50 68 L 86.890625 68 L 86.890625 72.148438 L 50 72.148438 Z M 50 68 "/></clipPath><clipPath id="fb051b2940"><path d="M 37.332031 18.324219 L 97.800781 18.324219 L 97.800781 78.792969 L 37.332031 78.792969 Z M 37.332031 18.324219 "/></clipPath><clipPath id="b99b68cdfd"><path d="M 50.640625 32.105469 L 85.726562 32.105469 L 85.726562 62.714844 L 50.640625 62.714844 Z M 50.640625 32.105469 "/></clipPath></defs><g id="41c7f13e51"><g style="fill:#0661aa;fill-opacity:1;"><g transform="translate(9.132312, 97.7865)"><path style="stroke:none" d="M 5.625 0.390625 C 4.625 0.390625 3.734375 0.222656 2.953125 -0.109375 C 2.179688 -0.453125 1.566406 -0.941406 1.109375 -1.578125 C 0.660156 -2.222656 0.40625 -2.992188 0.34375 -3.890625 L 3.15625 -4.375 C 3.1875 -3.601562 3.445312 -3 3.9375 -2.5625 C 4.425781 -2.125 5.03125 -1.90625 5.75 -1.90625 C 6.382812 -1.90625 6.890625 -2.050781 7.265625 -2.34375 C 7.640625 -2.644531 7.828125 -3.015625 7.828125 -3.453125 C 7.828125 -3.835938 7.679688 -4.15625 7.390625 -4.40625 C 7.109375 -4.65625 6.644531 -4.863281 6 -5.03125 L 4.390625 -5.453125 C 3.117188 -5.742188 2.191406 -6.1875 1.609375 -6.78125 C 1.023438 -7.375 0.734375 -8.171875 0.734375 -9.171875 C 0.734375 -9.972656 0.921875 -10.671875 1.296875 -11.265625 C 1.679688 -11.867188 2.226562 -12.332031 2.9375 -12.65625 C 3.644531 -12.988281 4.46875 -13.15625 5.40625 -13.15625 C 6.269531 -13.15625 7.035156 -13 7.703125 -12.6875 C 8.367188 -12.382812 8.910156 -11.957031 9.328125 -11.40625 C 9.742188 -10.851562 9.976562 -10.191406 10.03125 -9.421875 L 7.296875 -8.875 C 7.253906 -9.488281 7.054688 -9.976562 6.703125 -10.34375 C 6.347656 -10.707031 5.898438 -10.890625 5.359375 -10.890625 C 4.847656 -10.890625 4.4375 -10.75 4.125 -10.46875 C 3.820312 -10.1875 3.671875 -9.835938 3.671875 -9.421875 C 3.671875 -9.054688 3.804688 -8.753906 4.078125 -8.515625 C 4.347656 -8.273438 4.785156 -8.078125 5.390625 -7.921875 L 6.984375 -7.53125 C 8.285156 -7.226562 9.238281 -6.773438 9.84375 -6.171875 C 10.445312 -5.566406 10.75 -4.757812 10.75 -3.75 C 10.75 -2.90625 10.539062 -2.171875 10.125 -1.546875 C 9.707031 -0.929688 9.113281 -0.453125 8.34375 -0.109375 C 7.582031 0.222656 6.675781 0.390625 5.625 0.390625 Z M 5.625 0.390625 "/></g></g><g style="fill:#0661aa;fill-opacity:1;"><g transform="translate(22.265201, 97.7865)"><path style="stroke:none" d="M 3.171875 0.21875 C 2.296875 0.21875 1.585938 -0.015625 1.046875 -0.484375 C 0.515625 -0.953125 0.25 -1.578125 0.25 -2.359375 C 0.25 -3.203125 0.566406 -3.878906 1.203125 -4.390625 C 1.847656 -4.910156 2.785156 -5.238281 4.015625 -5.375 L 5.4375 -5.53125 C 5.632812 -5.5625 5.796875 -5.632812 5.921875 -5.75 C 6.046875 -5.875 6.109375 -6.046875 6.109375 -6.265625 C 6.109375 -6.671875 5.984375 -6.984375 5.734375 -7.203125 C 5.484375 -7.421875 5.15625 -7.53125 4.75 -7.53125 C 4.28125 -7.53125 3.898438 -7.367188 3.609375 -7.046875 C 3.328125 -6.722656 3.175781 -6.316406 3.15625 -5.828125 L 0.5625 -6.203125 C 0.582031 -6.847656 0.769531 -7.414062 1.125 -7.90625 C 1.476562 -8.40625 1.960938 -8.796875 2.578125 -9.078125 C 3.191406 -9.359375 3.910156 -9.5 4.734375 -9.5 C 5.984375 -9.5 6.972656 -9.171875 7.703125 -8.515625 C 8.429688 -7.859375 8.796875 -6.96875 8.796875 -5.84375 L 8.796875 -2.296875 C 8.796875 -1.890625 8.945312 -1.6875 9.25 -1.6875 C 9.488281 -1.6875 9.710938 -1.804688 9.921875 -2.046875 L 10.515625 -0.578125 C 10.234375 -0.296875 9.890625 -0.09375 9.484375 0.03125 C 9.078125 0.164062 8.675781 0.234375 8.28125 0.234375 C 7.726562 0.234375 7.265625 0.09375 6.890625 -0.1875 C 6.515625 -0.46875 6.28125 -0.820312 6.1875 -1.25 L 6.140625 -1.484375 L 6.125 -1.484375 C 5.851562 -0.960938 5.457031 -0.546875 4.9375 -0.234375 C 4.425781 0.0664062 3.835938 0.21875 3.171875 0.21875 Z M 4.296875 -1.703125 C 4.816406 -1.703125 5.242188 -1.882812 5.578125 -2.25 C 5.910156 -2.613281 6.078125 -3.085938 6.078125 -3.671875 L 6.078125 -4.109375 L 4.734375 -3.953125 C 4.109375 -3.890625 3.660156 -3.742188 3.390625 -3.515625 C 3.128906 -3.285156 3 -3.015625 3 -2.703125 C 3 -2.410156 3.117188 -2.171875 3.359375 -1.984375 C 3.609375 -1.796875 3.921875 -1.703125 4.296875 -1.703125 Z M 4.296875 -1.703125 "/></g></g><g style="fill:#0661aa;fill-opacity:1;"><g transform="translate(34.896415, 97.7865)"><path style="stroke:none" d="M 0.6875 0 L 0.6875 -9.171875 L 2.875 -9.171875 L 3.25 -7.53125 L 3.265625 -7.53125 C 3.503906 -8.125 3.878906 -8.585938 4.390625 -8.921875 C 4.898438 -9.253906 5.476562 -9.421875 6.125 -9.421875 C 6.800781 -9.421875 7.359375 -9.253906 7.796875 -8.921875 C 8.234375 -8.585938 8.550781 -8.109375 8.75 -7.484375 L 8.765625 -7.484375 C 9.066406 -8.117188 9.476562 -8.597656 10 -8.921875 C 10.519531 -9.253906 11.101562 -9.421875 11.75 -9.421875 C 12.601562 -9.421875 13.257812 -9.148438 13.71875 -8.609375 C 14.1875 -8.066406 14.421875 -7.3125 14.421875 -6.34375 L 14.421875 0 L 11.6875 0 L 11.6875 -5.765625 C 11.6875 -6.179688 11.578125 -6.503906 11.359375 -6.734375 C 11.148438 -6.972656 10.847656 -7.09375 10.453125 -7.09375 C 9.972656 -7.09375 9.597656 -6.925781 9.328125 -6.59375 C 9.054688 -6.257812 8.921875 -5.804688 8.921875 -5.234375 L 8.921875 0 L 6.1875 0 L 6.1875 -5.765625 C 6.1875 -6.179688 6.078125 -6.503906 5.859375 -6.734375 C 5.640625 -6.972656 5.335938 -7.09375 4.953125 -7.09375 C 4.472656 -7.09375 4.09375 -6.925781 3.8125 -6.59375 C 3.539062 -6.257812 3.40625 -5.804688 3.40625 -5.234375 L 3.40625 0 Z M 0.6875 0 "/></g></g><g style="fill:#0661aa;fill-opacity:1;"><g transform="translate(52.060537, 97.7865)"><path style="stroke:none" d="M 3.171875 0.21875 C 2.296875 0.21875 1.585938 -0.015625 1.046875 -0.484375 C 0.515625 -0.953125 0.25 -1.578125 0.25 -2.359375 C 0.25 -3.203125 0.566406 -3.878906 1.203125 -4.390625 C 1.847656 -4.910156 2.785156 -5.238281 4.015625 -5.375 L 5.4375 -5.53125 C 5.632812 -5.5625 5.796875 -5.632812 5.921875 -5.75 C 6.046875 -5.875 6.109375 -6.046875 6.109375 -6.265625 C 6.109375 -6.671875 5.984375 -6.984375 5.734375 -7.203125 C 5.484375 -7.421875 5.15625 -7.53125 4.75 -7.53125 C 4.28125 -7.53125 3.898438 -7.367188 3.609375 -7.046875 C 3.328125 -6.722656 3.175781 -6.316406 3.15625 -5.828125 L 0.5625 -6.203125 C 0.582031 -6.847656 0.769531 -7.414062 1.125 -7.90625 C 1.476562 -8.40625 1.960938 -8.796875 2.578125 -9.078125 C 3.191406 -9.359375 3.910156 -9.5 4.734375 -9.5 C 5.984375 -9.5 6.972656 -9.171875 7.703125 -8.515625 C 8.429688 -7.859375 8.796875 -6.96875 8.796875 -5.84375 L 8.796875 -2.296875 C 8.796875 -1.890625 8.945312 -1.6875 9.25 -1.6875 C 9.488281 -1.6875 9.710938 -1.804688 9.921875 -2.046875 L 10.515625 -0.578125 C 10.234375 -0.296875 9.890625 -0.09375 9.484375 0.03125 C 9.078125 0.164062 8.675781 0.234375 8.28125 0.234375 C 7.726562 0.234375 7.265625 0.09375 6.890625 -0.1875 C 6.515625 -0.46875 6.28125 -0.820312 6.1875 -1.25 L 6.140625 -1.484375 L 6.125 -1.484375 C 5.851562 -0.960938 5.457031 -0.546875 4.9375 -0.234375 C 4.425781 0.0664062 3.835938 0.21875 3.171875 0.21875 Z M 4.296875 -1.703125 C 4.816406 -1.703125 5.242188 -1.882812 5.578125 -2.25 C 5.910156 -2.613281 6.078125 -3.085938 6.078125 -3.671875 L 6.078125 -4.109375 L 4.734375 -3.953125 C 4.109375 -3.890625 3.660156 -3.742188 3.390625 -3.515625 C 3.128906 -3.285156 3 -3.015625 3 -2.703125 C 3 -2.410156 3.117188 -2.171875 3.359375 -1.984375 C 3.609375 -1.796875 3.921875 -1.703125 4.296875 -1.703125 Z M 4.296875 -1.703125 "/></g></g><g style="fill:#0661aa;fill-opacity:1;"><g transform="translate(64.69175, 97.7865)"><path style="stroke:none" d=""/></g></g><g style="fill:#0661aa;fill-opacity:1;"><g transform="translate(70.138409, 97.7865)"><path style="stroke:none" d="M 4.171875 0 L 0.09375 -12.765625 L 3.28125 -12.765625 L 6.0625 -2.828125 L 6.09375 -2.828125 L 8.859375 -12.765625 L 12.046875 -12.765625 L 7.953125 0 Z M 4.171875 0 "/></g></g><g style="fill:#0661aa;fill-opacity:1;"><g transform="translate(84.382125, 97.7865)"><path style="stroke:none" d="M 5.625 -9.421875 C 6.375 -9.421875 6.976562 -9.140625 7.4375 -8.578125 C 7.894531 -8.023438 8.144531 -7.234375 8.1875 -6.203125 L 5.875 -5.578125 C 5.863281 -6.171875 5.753906 -6.617188 5.546875 -6.921875 C 5.347656 -7.234375 5.082031 -7.390625 4.75 -7.390625 C 4.34375 -7.390625 4.015625 -7.1875 3.765625 -6.78125 C 3.523438 -6.375 3.40625 -5.8125 3.40625 -5.09375 L 3.40625 0 L 0.6875 0 L 0.6875 -9.171875 L 2.890625 -9.171875 L 3.265625 -7.59375 L 3.28125 -7.59375 C 3.476562 -8.164062 3.785156 -8.613281 4.203125 -8.9375 C 4.628906 -9.257812 5.101562 -9.421875 5.625 -9.421875 Z M 5.625 -9.421875 "/></g></g><g style="fill:#0661aa;fill-opacity:1;"><g transform="translate(94.935019, 97.7865)"><path style="stroke:none" d="M 2.109375 -10.4375 C 1.617188 -10.4375 1.226562 -10.578125 0.9375 -10.859375 C 0.644531 -11.148438 0.5 -11.523438 0.5 -11.984375 C 0.5 -12.460938 0.644531 -12.84375 0.9375 -13.125 C 1.226562 -13.414062 1.617188 -13.5625 2.109375 -13.5625 C 2.597656 -13.5625 2.988281 -13.414062 3.28125 -13.125 C 3.582031 -12.84375 3.734375 -12.460938 3.734375 -11.984375 C 3.734375 -11.523438 3.582031 -11.148438 3.28125 -10.859375 C 2.988281 -10.578125 2.597656 -10.4375 2.109375 -10.4375 Z M 0.734375 0 L 0.734375 -9.171875 L 3.484375 -9.171875 L 3.484375 0 Z M 0.734375 0 "/></g></g><g style="fill:#0661aa;fill-opacity:1;"><g transform="translate(101.277509, 97.7865)"><path style="stroke:none" d="M 4.90625 0.28125 C 3.851562 0.28125 3.039062 -0.00390625 2.46875 -0.578125 C 1.90625 -1.148438 1.625 -1.925781 1.625 -2.90625 L 1.609375 -7.09375 L 0.078125 -7.09375 L 0.078125 -9.171875 L 1.625 -9.171875 L 1.625 -11.609375 L 4.359375 -12.21875 L 4.359375 -9.171875 L 7.484375 -9.171875 L 7.484375 -7.09375 L 4.359375 -7.09375 L 4.375 -3.390625 C 4.375 -2.929688 4.476562 -2.570312 4.6875 -2.3125 C 4.90625 -2.0625 5.195312 -1.9375 5.5625 -1.9375 C 6.238281 -1.9375 6.734375 -2.3125 7.046875 -3.0625 L 7.9375 -1.390625 C 7.65625 -0.859375 7.25 -0.445312 6.71875 -0.15625 C 6.1875 0.132812 5.582031 0.28125 4.90625 0.28125 Z M 4.90625 0.28125 "/></g></g><g style="fill:#0661aa;fill-opacity:1;"><g transform="translate(111.454155, 97.7865)"><path style="stroke:none" d="M 4.90625 0.28125 C 3.851562 0.28125 3.039062 -0.00390625 2.46875 -0.578125 C 1.90625 -1.148438 1.625 -1.925781 1.625 -2.90625 L 1.609375 -7.09375 L 0.078125 -7.09375 L 0.078125 -9.171875 L 1.625 -9.171875 L 1.625 -11.609375 L 4.359375 -12.21875 L 4.359375 -9.171875 L 7.484375 -9.171875 L 7.484375 -7.09375 L 4.359375 -7.09375 L 4.375 -3.390625 C 4.375 -2.929688 4.476562 -2.570312 4.6875 -2.3125 C 4.90625 -2.0625 5.195312 -1.9375 5.5625 -1.9375 C 6.238281 -1.9375 6.734375 -2.3125 7.046875 -3.0625 L 7.9375 -1.390625 C 7.65625 -0.859375 7.25 -0.445312 6.71875 -0.15625 C 6.1875 0.132812 5.582031 0.28125 4.90625 0.28125 Z M 4.90625 0.28125 "/></g></g><g style="fill:#0661aa;fill-opacity:1;"><g transform="translate(121.630801, 97.7865)"><path style="stroke:none" d="M 2.109375 -10.4375 C 1.617188 -10.4375 1.226562 -10.578125 0.9375 -10.859375 C 0.644531 -11.148438 0.5 -11.523438 0.5 -11.984375 C 0.5 -12.460938 0.644531 -12.84375 0.9375 -13.125 C 1.226562 -13.414062 1.617188 -13.5625 2.109375 -13.5625 C 2.597656 -13.5625 2.988281 -13.414062 3.28125 -13.125 C 3.582031 -12.84375 3.734375 -12.460938 3.734375 -11.984375 C 3.734375 -11.523438 3.582031 -11.148438 3.28125 -10.859375 C 2.988281 -10.578125 2.597656 -10.4375 2.109375 -10.4375 Z M 0.734375 0 L 0.734375 -9.171875 L 3.484375 -9.171875 L 3.484375 0 Z M 0.734375 0 "/></g></g><g clip-rule="nonzero" clip-path="url(#092a0071dc)"><path style=" stroke:none;fill-rule:nonzero;fill:#0661aa;fill-opacity:1;" d="M 83.476562 28.234375 C 83.527344 27.855469 83.738281 27.480469 83.9375 27.195312 C 84.140625 26.902344 84.363281 26.660156 84.648438 26.570312 C 84.003906 26.515625 83.996094 26.695312 83.351562 26.695312 C 82.703125 26.695312 82.703125 26.683594 82.054688 26.683594 C 81.40625 26.683594 81.40625 26.53125 80.761719 26.53125 C 80.113281 26.53125 80.113281 26.609375 79.464844 26.609375 C 78.820312 26.609375 78.820312 26.539062 78.171875 26.539062 C 77.523438 26.539062 77.523438 26.539062 76.875 26.539062 C 76.230469 26.539062 76.230469 26.585938 75.582031 26.585938 C 74.933594 26.585938 74.933594 26.574219 74.285156 26.574219 C 73.636719 26.574219 73.636719 26.554688 72.992188 26.554688 C 72.34375 26.554688 72.34375 26.601562 71.695312 26.601562 C 71.046875 26.601562 71.046875 26.570312 70.398438 26.570312 C 69.753906 26.570312 69.753906 26.578125 69.105469 26.578125 C 68.457031 26.578125 68.457031 26.53125 67.8125 26.53125 C 67.164062 26.53125 67.164062 26.574219 66.515625 26.574219 C 65.871094 26.574219 65.871094 26.625 65.222656 26.625 C 64.574219 26.625 64.574219 26.667969 63.925781 26.667969 C 63.28125 26.667969 63.28125 26.585938 62.632812 26.585938 C 61.984375 26.585938 61.984375 26.585938 61.335938 26.585938 C 60.6875 26.585938 60.6875 26.546875 60.039062 26.546875 C 59.394531 26.546875 59.394531 26.632812 58.746094 26.632812 C 58.097656 26.632812 58.097656 26.605469 57.449219 26.605469 C 56.800781 26.605469 56.800781 26.632812 56.152344 26.632812 C 55.503906 26.632812 55.503906 26.699219 54.859375 26.699219 C 54.210938 26.699219 54.210938 26.601562 53.5625 26.601562 C 52.914062 26.601562 52.914062 26.703125 52.265625 26.703125 C 51.613281 26.703125 51.613281 26.527344 50.964844 26.527344 C 50.316406 26.527344 50.289062 26.800781 49.671875 26.597656 C 49.46875 26.53125 49.441406 26.175781 49.640625 26.109375 C 50.257812 25.910156 50.3125 26.195312 50.960938 26.195312 C 51.609375 26.195312 51.609375 26.234375 52.257812 26.234375 C 52.902344 26.234375 52.902344 26.164062 53.550781 26.164062 C 54.199219 26.164062 54.199219 26.1875 54.847656 26.1875 C 55.492188 26.1875 55.492188 26.214844 56.140625 26.214844 C 56.789062 26.214844 56.789062 26.128906 57.4375 26.128906 C 58.082031 26.128906 58.082031 26.109375 58.730469 26.109375 C 59.378906 26.109375 59.378906 26.242188 60.027344 26.242188 C 60.671875 26.242188 60.671875 26.191406 61.320312 26.191406 C 61.96875 26.191406 61.96875 26.226562 62.617188 26.226562 C 63.265625 26.226562 63.265625 26.140625 63.910156 26.140625 C 64.558594 26.140625 64.558594 26.15625 65.207031 26.15625 C 65.851562 26.15625 65.851562 26.132812 66.5 26.132812 C 67.148438 26.132812 67.148438 26.160156 67.792969 26.160156 C 68.441406 26.160156 68.441406 26.230469 69.089844 26.230469 C 69.738281 26.230469 69.738281 26.175781 70.382812 26.175781 C 71.03125 26.175781 71.03125 26.175781 71.679688 26.175781 C 72.328125 26.175781 72.328125 26.226562 72.976562 26.226562 C 73.625 26.226562 73.625 26.101562 74.269531 26.101562 C 74.917969 26.101562 74.917969 26.246094 75.566406 26.246094 C 76.214844 26.246094 76.214844 26.265625 76.863281 26.265625 C 77.511719 26.265625 77.511719 26.21875 78.160156 26.21875 C 78.804688 26.21875 78.804688 26.175781 79.453125 26.175781 C 80.101562 26.175781 80.101562 26.277344 80.75 26.277344 C 81.398438 26.277344 81.398438 26.140625 82.046875 26.140625 C 82.695312 26.140625 82.695312 26.234375 83.347656 26.234375 C 83.996094 26.234375 83.996094 26.234375 84.644531 26.175781 C 84.359375 26.089844 84.078125 25.941406 83.871094 25.660156 C 83.675781 25.367188 83.535156 24.953125 83.484375 24.574219 C 83.648438 24.386719 83.824219 24.367188 84.027344 24.511719 C 84.054688 24.988281 84.191406 25.382812 84.429688 25.664062 C 84.695312 25.976562 85.105469 26.128906 85.539062 26.171875 C 85.683594 26.328125 85.699219 26.492188 85.554688 26.644531 C 85.121094 26.6875 84.707031 26.835938 84.441406 27.148438 C 84.203125 27.429688 83.992188 27.769531 83.964844 28.25 C 83.804688 28.488281 83.644531 28.421875 83.476562 28.234375 Z M 83.476562 28.234375 "/></g><g clip-rule="nonzero" clip-path="url(#585c745a6e)"><path style=" stroke:none;fill-rule:nonzero;fill:#0661aa;fill-opacity:1;" d="M 87.304688 63.234375 C 87.683594 63.285156 88.0625 63.496094 88.34375 63.695312 C 88.636719 63.898438 88.882812 64.121094 88.96875 64.40625 C 89.023438 63.761719 88.84375 63.753906 88.84375 63.105469 C 88.84375 62.460938 88.855469 62.460938 88.855469 61.8125 C 88.855469 61.164062 89.007812 61.164062 89.007812 60.519531 C 89.007812 59.871094 88.933594 59.871094 88.933594 59.222656 C 88.933594 58.574219 89 58.574219 89 57.925781 C 89 57.28125 89 57.28125 89 56.632812 C 89 55.984375 88.953125 55.984375 88.953125 55.335938 C 88.953125 54.691406 88.964844 54.691406 88.964844 54.042969 C 88.964844 53.394531 88.988281 53.394531 88.988281 52.746094 C 88.988281 52.101562 88.9375 52.101562 88.9375 51.453125 C 88.9375 50.804688 88.972656 50.804688 88.972656 50.15625 C 88.972656 49.511719 88.960938 49.511719 88.960938 48.863281 C 88.960938 48.214844 89.007812 48.214844 89.007812 47.566406 C 89.007812 46.921875 88.964844 46.921875 88.964844 46.273438 C 88.964844 45.625 88.917969 45.625 88.917969 44.980469 C 88.917969 44.332031 88.871094 44.332031 88.871094 43.683594 C 88.871094 43.035156 88.953125 43.035156 88.953125 42.386719 C 88.953125 41.742188 88.953125 41.742188 88.953125 41.09375 C 88.953125 40.445312 88.992188 40.445312 88.992188 39.796875 C 88.992188 39.148438 88.90625 39.148438 88.90625 38.5 C 88.90625 37.851562 88.933594 37.851562 88.933594 37.207031 C 88.933594 36.558594 88.90625 36.558594 88.90625 35.910156 C 88.90625 35.261719 88.839844 35.261719 88.839844 34.613281 C 88.839844 33.964844 88.9375 33.964844 88.9375 33.316406 C 88.9375 32.667969 88.835938 32.667969 88.835938 32.019531 C 88.835938 31.371094 89.011719 31.371094 89.011719 30.722656 C 89.011719 30.074219 88.742188 30.046875 88.941406 29.429688 C 89.007812 29.226562 89.363281 29.195312 89.429688 29.398438 C 89.628906 30.011719 89.34375 30.070312 89.34375 30.71875 C 89.34375 31.367188 89.304688 31.367188 89.304688 32.011719 C 89.304688 32.660156 89.378906 32.660156 89.378906 33.308594 C 89.378906 33.957031 89.355469 33.957031 89.355469 34.601562 C 89.355469 35.25 89.324219 35.25 89.324219 35.898438 C 89.324219 36.546875 89.410156 36.546875 89.410156 37.191406 C 89.410156 37.839844 89.429688 37.839844 89.429688 38.488281 C 89.429688 39.136719 89.300781 39.136719 89.300781 39.78125 C 89.300781 40.429688 89.347656 40.429688 89.347656 41.078125 C 89.347656 41.726562 89.316406 41.726562 89.316406 42.375 C 89.316406 43.019531 89.402344 43.019531 89.402344 43.667969 C 89.402344 44.316406 89.382812 44.316406 89.382812 44.960938 C 89.382812 45.609375 89.40625 45.609375 89.40625 46.257812 C 89.40625 46.90625 89.378906 46.90625 89.378906 47.550781 C 89.378906 48.199219 89.308594 48.199219 89.308594 48.847656 C 89.308594 49.492188 89.363281 49.492188 89.363281 50.140625 C 89.363281 50.789062 89.363281 50.789062 89.363281 51.4375 C 89.363281 52.085938 89.3125 52.085938 89.3125 52.730469 C 89.3125 53.378906 89.4375 53.378906 89.4375 54.027344 C 89.4375 54.675781 89.292969 54.675781 89.292969 55.324219 C 89.292969 55.972656 89.273438 55.972656 89.273438 56.621094 C 89.273438 57.269531 89.320312 57.269531 89.320312 57.914062 C 89.320312 58.5625 89.363281 58.5625 89.363281 59.210938 C 89.363281 59.859375 89.265625 59.859375 89.265625 60.507812 C 89.265625 61.15625 89.398438 61.15625 89.398438 61.804688 C 89.398438 62.453125 89.304688 62.453125 89.304688 63.101562 C 89.304688 63.753906 89.308594 63.753906 89.363281 64.402344 C 89.449219 64.117188 89.597656 63.832031 89.882812 63.628906 C 90.171875 63.433594 90.585938 63.292969 90.964844 63.242188 C 91.152344 63.40625 91.175781 63.582031 91.027344 63.785156 C 90.550781 63.8125 90.15625 63.949219 89.878906 64.1875 C 89.566406 64.453125 89.410156 64.859375 89.367188 65.296875 C 89.214844 65.441406 89.050781 65.457031 88.894531 65.3125 C 88.851562 64.875 88.703125 64.464844 88.390625 64.199219 C 88.113281 63.960938 87.769531 63.75 87.292969 63.722656 C 87.050781 63.5625 87.121094 63.398438 87.304688 63.234375 Z M 87.304688 63.234375 "/></g><g clip-rule="nonzero" clip-path="url(#a4817c4bc9)"><path style=" stroke:none;fill-rule:nonzero;fill:#0661aa;fill-opacity:1;" d="M 49.261719 33.296875 C 48.882812 33.246094 48.507812 33.035156 48.222656 32.835938 C 47.929688 32.632812 47.6875 32.410156 47.597656 32.125 C 47.542969 32.769531 47.722656 32.777344 47.722656 33.421875 C 47.722656 34.070312 47.710938 34.070312 47.710938 34.71875 C 47.710938 35.367188 47.558594 35.367188 47.558594 36.011719 C 47.558594 36.660156 47.636719 36.660156 47.636719 37.308594 C 47.636719 37.953125 47.566406 37.953125 47.566406 38.601562 C 47.566406 39.25 47.566406 39.25 47.566406 39.898438 C 47.566406 40.542969 47.613281 40.542969 47.613281 41.191406 C 47.613281 41.839844 47.601562 41.839844 47.601562 42.488281 C 47.601562 43.136719 47.582031 43.136719 47.582031 43.78125 C 47.582031 44.429688 47.628906 44.429688 47.628906 45.078125 C 47.628906 45.726562 47.597656 45.726562 47.597656 46.375 C 47.597656 47.019531 47.605469 47.019531 47.605469 47.667969 C 47.605469 48.316406 47.558594 48.316406 47.558594 48.960938 C 47.558594 49.609375 47.601562 49.609375 47.601562 50.257812 C 47.601562 50.902344 47.652344 50.902344 47.652344 51.550781 C 47.652344 52.199219 47.695312 52.199219 47.695312 52.847656 C 47.695312 53.492188 47.613281 53.492188 47.613281 54.140625 C 47.613281 54.789062 47.613281 54.789062 47.613281 55.4375 C 47.613281 56.085938 47.574219 56.085938 47.574219 56.734375 C 47.574219 57.378906 47.660156 57.378906 47.660156 58.027344 C 47.660156 58.675781 47.632812 58.675781 47.632812 59.324219 C 47.632812 59.972656 47.660156 59.972656 47.660156 60.621094 C 47.660156 61.269531 47.726562 61.269531 47.726562 61.914062 C 47.726562 62.5625 47.628906 62.5625 47.628906 63.210938 C 47.628906 63.859375 47.730469 63.859375 47.730469 64.507812 C 47.730469 65.160156 47.554688 65.160156 47.554688 65.808594 C 47.554688 66.457031 47.828125 66.484375 47.625 67.101562 C 47.558594 67.304688 47.203125 67.332031 47.136719 67.132812 C 46.9375 66.515625 47.222656 66.460938 47.222656 65.8125 C 47.222656 65.164062 47.261719 65.164062 47.261719 64.515625 C 47.261719 63.871094 47.191406 63.871094 47.191406 63.222656 C 47.191406 62.574219 47.214844 62.574219 47.214844 61.925781 C 47.214844 61.28125 47.242188 61.28125 47.242188 60.632812 C 47.242188 59.984375 47.15625 59.984375 47.15625 59.335938 C 47.15625 58.691406 47.136719 58.691406 47.136719 58.042969 C 47.136719 57.394531 47.269531 57.394531 47.269531 56.746094 C 47.269531 56.101562 47.21875 56.101562 47.21875 55.453125 C 47.21875 54.804688 47.253906 54.804688 47.253906 54.15625 C 47.253906 53.507812 47.167969 53.507812 47.167969 52.863281 C 47.167969 52.214844 47.183594 52.214844 47.183594 51.566406 C 47.183594 50.921875 47.160156 50.921875 47.160156 50.273438 C 47.160156 49.625 47.1875 49.625 47.1875 48.980469 C 47.1875 48.332031 47.257812 48.332031 47.257812 47.683594 C 47.257812 47.035156 47.203125 47.035156 47.203125 46.390625 C 47.203125 45.742188 47.203125 45.742188 47.203125 45.09375 C 47.203125 44.445312 47.253906 44.445312 47.253906 43.796875 C 47.253906 43.148438 47.128906 43.148438 47.128906 42.503906 C 47.128906 41.855469 47.273438 41.855469 47.273438 41.207031 C 47.273438 40.558594 47.292969 40.558594 47.292969 39.910156 C 47.292969 39.261719 47.246094 39.261719 47.246094 38.613281 C 47.246094 37.96875 47.203125 37.96875 47.203125 37.320312 C 47.203125 36.671875 47.304688 36.671875 47.304688 36.023438 C 47.304688 35.375 47.167969 35.375 47.167969 34.726562 C 47.167969 34.078125 47.261719 34.078125 47.261719 33.425781 C 47.261719 32.777344 47.261719 32.777344 47.203125 32.128906 C 47.117188 32.414062 46.96875 32.695312 46.6875 32.902344 C 46.394531 33.097656 45.980469 33.238281 45.601562 33.289062 C 45.414062 33.121094 45.394531 32.949219 45.539062 32.746094 C 46.015625 32.71875 46.410156 32.582031 46.691406 32.34375 C 47.003906 32.078125 47.15625 31.667969 47.199219 31.234375 C 47.355469 31.089844 47.519531 31.074219 47.671875 31.21875 C 47.714844 31.652344 47.863281 32.0625 48.175781 32.332031 C 48.457031 32.570312 48.796875 32.777344 49.277344 32.808594 C 49.515625 32.96875 49.449219 33.128906 49.261719 33.296875 Z M 49.261719 33.296875 "/></g><g clip-rule="nonzero" clip-path="url(#1e6c1da894)"><path style=" stroke:none;fill-rule:nonzero;fill:#0661aa;fill-opacity:1;" d="M 52.308594 68.296875 C 52.257812 68.675781 52.042969 69.050781 51.847656 69.335938 C 51.640625 69.625 51.417969 69.871094 51.136719 69.957031 C 51.78125 70.015625 51.785156 69.835938 52.433594 69.835938 C 53.082031 69.835938 53.082031 69.847656 53.726562 69.847656 C 54.375 69.847656 54.375 70 55.023438 70 C 55.671875 70 55.671875 69.921875 56.316406 69.921875 C 56.964844 69.921875 56.964844 69.988281 57.613281 69.988281 C 58.261719 69.988281 58.261719 69.988281 58.90625 69.988281 C 59.554688 69.988281 59.554688 69.945312 60.203125 69.945312 C 60.851562 69.945312 60.851562 69.957031 61.496094 69.957031 C 62.144531 69.957031 62.144531 69.976562 62.792969 69.976562 C 63.441406 69.976562 63.441406 69.925781 64.089844 69.925781 C 64.734375 69.925781 64.734375 69.960938 65.382812 69.960938 C 66.03125 69.960938 66.03125 69.953125 66.675781 69.953125 C 67.324219 69.953125 67.324219 69.996094 67.972656 69.996094 C 68.621094 69.996094 68.621094 69.957031 69.265625 69.957031 C 69.914062 69.957031 69.914062 69.90625 70.5625 69.90625 C 71.207031 69.90625 71.207031 69.863281 71.855469 69.863281 C 72.503906 69.863281 72.503906 69.941406 73.152344 69.941406 C 73.800781 69.941406 73.800781 69.945312 74.445312 69.945312 C 75.09375 69.945312 75.09375 69.984375 75.742188 69.984375 C 76.390625 69.984375 76.390625 69.898438 77.039062 69.898438 C 77.6875 69.898438 77.6875 69.921875 78.335938 69.921875 C 78.984375 69.921875 78.984375 69.898438 79.628906 69.898438 C 80.277344 69.898438 80.277344 69.832031 80.925781 69.832031 C 81.574219 69.832031 81.574219 69.929688 82.222656 69.929688 C 82.871094 69.929688 82.871094 69.828125 83.519531 69.828125 C 84.167969 69.828125 84.167969 70.003906 84.816406 70.003906 C 85.46875 70.003906 85.496094 69.730469 86.113281 69.933594 C 86.3125 69.996094 86.34375 70.355469 86.140625 70.417969 C 85.527344 70.621094 85.46875 70.335938 84.820312 70.335938 C 84.175781 70.335938 84.175781 70.296875 83.527344 70.296875 C 82.878906 70.296875 82.878906 70.367188 82.234375 70.367188 C 81.585938 70.367188 81.585938 70.34375 80.9375 70.34375 C 80.289062 70.34375 80.289062 70.316406 79.640625 70.316406 C 78.996094 70.316406 78.996094 70.402344 78.347656 70.402344 C 77.699219 70.402344 77.699219 70.421875 77.050781 70.421875 C 76.40625 70.421875 76.40625 70.289062 75.757812 70.289062 C 75.109375 70.289062 75.109375 70.339844 74.460938 70.339844 C 73.816406 70.339844 73.816406 70.304688 73.167969 70.304688 C 72.519531 70.304688 72.519531 70.390625 71.871094 70.390625 C 71.226562 70.390625 71.226562 70.375 70.578125 70.375 C 69.929688 70.375 69.929688 70.394531 69.28125 70.394531 C 68.636719 70.394531 68.636719 70.367188 67.988281 70.367188 C 67.339844 70.367188 67.339844 70.300781 66.695312 70.300781 C 66.046875 70.300781 66.046875 70.355469 65.398438 70.355469 C 64.75 70.355469 64.75 70.351562 64.101562 70.351562 C 63.457031 70.351562 63.457031 70.300781 62.808594 70.300781 C 62.160156 70.300781 62.160156 70.425781 61.511719 70.425781 C 60.863281 70.425781 60.863281 70.285156 60.214844 70.285156 C 59.566406 70.285156 59.566406 70.261719 58.917969 70.261719 C 58.273438 70.261719 58.273438 70.3125 57.625 70.3125 C 56.976562 70.3125 56.976562 70.351562 56.328125 70.351562 C 55.679688 70.351562 55.679688 70.253906 55.03125 70.253906 C 54.382812 70.253906 54.382812 70.390625 53.734375 70.390625 C 53.085938 70.390625 53.085938 70.296875 52.4375 70.296875 C 51.789062 70.296875 51.785156 70.296875 51.140625 70.351562 C 51.421875 70.441406 51.707031 70.585938 51.910156 70.871094 C 52.105469 71.164062 52.25 71.578125 52.300781 71.957031 C 52.132812 72.140625 51.960938 72.164062 51.757812 72.019531 C 51.726562 71.539062 51.589844 71.144531 51.351562 70.867188 C 51.085938 70.554688 50.679688 70.402344 50.246094 70.359375 C 50.101562 70.203125 50.085938 70.039062 50.230469 69.886719 C 50.664062 69.84375 51.074219 69.691406 51.339844 69.382812 C 51.578125 69.101562 51.789062 68.761719 51.816406 68.28125 C 51.980469 68.039062 52.140625 68.109375 52.308594 68.296875 Z M 52.308594 68.296875 "/></g><g clip-rule="nonzero" clip-path="url(#fb051b2940)"><path style=" stroke:none;fill-rule:nonzero;fill:#0661aa;fill-opacity:1;" d="M 97.660156 78.652344 L 37.332031 78.652344 L 37.332031 18.324219 L 97.660156 18.324219 Z M 37.714844 78.269531 L 97.277344 78.269531 L 97.277344 18.707031 L 37.714844 18.707031 Z M 37.714844 78.269531 "/></g><g clip-rule="nonzero" clip-path="url(#b99b68cdfd)"><path style=" stroke:none;fill-rule:nonzero;fill:#0661aa;fill-opacity:1;" d="M 85.726562 54.261719 L 84.964844 53.726562 C 83.710938 52.84375 81.730469 52.253906 80.289062 51.910156 C 79.722656 51.777344 79.011719 51.613281 78.339844 51.460938 C 77.636719 51.300781 76.984375 51.152344 76.601562 51.058594 C 76.535156 50.644531 76.40625 50.179688 76.261719 49.652344 C 75.972656 48.585938 75.609375 47.261719 75.464844 45.464844 C 75.199219 42.136719 71.890625 41.546875 71.875 41.546875 C 70.445312 41.09375 69.570312 40.894531 68.183594 40.894531 C 66.796875 40.894531 65.921875 41.09375 64.527344 41.539062 C 64.496094 41.542969 61.167969 42.128906 60.898438 45.464844 C 60.757812 47.257812 60.394531 48.585938 60.101562 49.648438 C 59.960938 50.175781 59.832031 50.644531 59.765625 51.058594 C 59.382812 51.152344 58.730469 51.300781 58.027344 51.460938 C 57.355469 51.613281 56.640625 51.777344 56.078125 51.910156 C 54.636719 52.253906 52.65625 52.84375 51.402344 53.726562 L 50.640625 54.261719 L 51.570312 54.222656 C 52.082031 54.203125 53.457031 54.195312 55.011719 54.199219 C 53.652344 54.609375 52.914062 55.527344 52.722656 56.308594 L 52.714844 56.371094 C 52.714844 57.738281 54.597656 59.71875 59.878906 61.179688 C 62.667969 61.953125 65.628906 62.21875 68.152344 62.21875 C 69.351562 62.222656 70.542969 62.160156 71.734375 62.027344 C 71.816406 62.050781 71.898438 62.074219 71.980469 62.097656 L 72.039062 62.117188 L 72.101562 62.105469 C 73.847656 61.847656 75.324219 61.535156 76.492188 61.179688 C 80.976562 59.820312 83.652344 58.023438 83.652344 56.371094 L 83.644531 56.308594 C 83.453125 55.527344 82.714844 54.609375 81.347656 54.195312 C 82.90625 54.195312 84.28125 54.203125 84.796875 54.222656 Z M 71.773438 61.46875 C 71.527344 61.496094 71.269531 61.523438 70.996094 61.546875 C 70.679688 61.574219 70.34375 61.597656 70 61.613281 C 67.199219 61.761719 63.445312 61.601562 60.027344 60.652344 C 55.394531 59.371094 53.300781 57.605469 53.261719 56.40625 C 53.542969 55.355469 55.066406 54.054688 58.140625 54.691406 C 58.636719 54.792969 60.292969 55.464844 62.417969 56.378906 C 62.5 56.414062 62.585938 56.449219 62.671875 56.488281 C 62.753906 56.523438 62.839844 56.558594 62.921875 56.597656 C 64.328125 57.203125 65.90625 57.902344 67.472656 58.601562 L 67.808594 58.75 L 68.144531 58.902344 C 69.105469 59.332031 70.054688 59.757812 70.945312 60.160156 L 71.292969 60.316406 L 71.621094 60.464844 C 72.214844 60.730469 72.777344 60.988281 73.296875 61.222656 C 72.792969 61.328125 72.285156 61.410156 71.773438 61.46875 Z M 58.457031 54.207031 C 60.007812 54.214844 61.207031 54.222656 61.238281 54.226562 L 61.367188 54.226562 L 61.449219 54.128906 C 62.523438 52.867188 63.804688 49.609375 63.976562 48.09375 C 64.28125 48.996094 64.53125 50.191406 64.585938 51.625 C 64.316406 52.859375 63.253906 54.882812 62.6875 55.898438 C 60.722656 55.054688 59.148438 54.410156 58.457031 54.207031 Z M 83.105469 56.40625 C 83.066406 57.4375 81.28125 59.15625 76.332031 60.65625 C 75.773438 60.824219 75.136719 60.984375 74.433594 61.136719 L 74.191406 61.027344 C 73.589844 60.753906 72.925781 60.453125 72.21875 60.132812 L 71.925781 60 L 71.617188 59.863281 C 70.726562 59.457031 69.777344 59.03125 68.816406 58.601562 C 70.589844 57.816406 72.128906 57.144531 73.433594 56.582031 C 73.519531 56.546875 73.605469 56.511719 73.6875 56.476562 C 73.773438 56.4375 73.859375 56.402344 73.941406 56.367188 C 76.304688 55.359375 77.777344 54.78125 78.226562 54.691406 C 81.304688 54.054688 82.820312 55.355469 83.105469 56.40625 Z M 71.78125 51.625 C 71.820312 50.414062 72.019531 49.230469 72.386719 48.074219 C 72.394531 49.875 73.898438 52.9375 74.917969 54.128906 L 75 54.226562 L 75.128906 54.222656 C 75.160156 54.222656 76.355469 54.214844 77.90625 54.207031 C 77.269531 54.394531 75.851562 54.957031 73.671875 55.886719 C 73.105469 54.867188 72.046875 52.855469 71.78125 51.625 Z M 75.253906 53.675781 C 74.308594 52.503906 72.933594 49.671875 72.933594 48.089844 C 72.984375 47.535156 73.535156 46.210938 73.742188 45.746094 L 73.96875 45.234375 L 73.425781 45.367188 C 72.628906 45.5625 71.355469 48.285156 71.230469 51.640625 L 71.230469 51.671875 L 71.238281 51.703125 C 71.507812 52.996094 72.574219 55.035156 73.164062 56.101562 C 71.773438 56.699219 70.097656 57.433594 68.144531 58.300781 C 66.441406 57.539062 64.71875 56.777344 63.195312 56.117188 C 63.785156 55.054688 64.859375 53.003906 65.128906 51.703125 L 65.136719 51.671875 L 65.132812 51.640625 C 65.011719 48.285156 63.738281 45.5625 62.9375 45.367188 L 62.394531 45.234375 L 62.625 45.746094 C 62.828125 46.203125 63.363281 47.496094 63.429688 48.0625 C 63.246094 49.570312 62.023438 52.519531 61.113281 53.675781 C 60.191406 53.667969 55.046875 53.632812 52.609375 53.65625 C 53.808594 53.066406 55.304688 52.65625 56.203125 52.445312 C 56.765625 52.308594 57.480469 52.148438 58.148438 51.996094 C 58.980469 51.804688 59.75 51.632812 60.078125 51.546875 L 60.257812 51.5 L 60.28125 51.3125 C 60.332031 50.890625 60.472656 50.382812 60.632812 49.792969 C 60.929688 48.707031 61.296875 47.355469 61.445312 45.507812 C 61.675781 42.601562 64.496094 42.097656 64.65625 42.070312 C 66.058594 41.625 66.859375 41.441406 68.183594 41.441406 C 69.507812 41.441406 70.308594 41.625 71.75 42.078125 C 71.777344 42.082031 74.6875 42.59375 74.921875 45.507812 C 75.066406 47.355469 75.4375 48.707031 75.734375 49.792969 C 75.894531 50.382812 76.035156 50.890625 76.085938 51.3125 L 76.109375 51.5 L 76.289062 51.546875 C 76.617188 51.632812 77.382812 51.804688 78.21875 51.996094 C 78.886719 52.148438 79.597656 52.308594 80.160156 52.445312 C 81.0625 52.65625 82.554688 53.066406 83.757812 53.65625 C 81.320312 53.632812 76.167969 53.667969 75.253906 53.675781 Z M 68.1875 40.035156 C 68.46875 40.035156 68.742188 40.003906 69.011719 39.941406 C 69.285156 39.878906 69.546875 39.789062 69.796875 39.671875 C 70.046875 39.550781 70.285156 39.40625 70.503906 39.234375 C 70.722656 39.0625 70.921875 38.871094 71.097656 38.65625 C 71.273438 38.441406 71.421875 38.207031 71.546875 37.960938 C 71.671875 37.710938 71.769531 37.453125 71.835938 37.183594 C 71.90625 36.914062 71.941406 36.640625 71.949219 36.359375 C 71.957031 36.082031 71.933594 35.808594 71.878906 35.535156 C 71.828125 35.261719 71.742188 35 71.632812 34.742188 C 71.519531 34.488281 71.378906 34.25 71.214844 34.027344 C 71.050781 33.800781 70.863281 33.597656 70.652344 33.417969 C 70.441406 33.234375 70.214844 33.078125 69.96875 32.945312 C 69.726562 32.8125 69.46875 32.710938 69.199219 32.636719 C 68.933594 32.558594 68.660156 32.515625 68.382812 32.5 C 68.105469 32.484375 67.828125 32.5 67.554688 32.546875 C 67.28125 32.59375 67.015625 32.667969 66.757812 32.773438 C 66.5 32.878906 66.257812 33.011719 66.027344 33.171875 C 65.800781 33.328125 65.589844 33.511719 65.402344 33.714844 C 65.214844 33.921875 65.050781 34.144531 64.914062 34.382812 C 64.773438 34.625 64.664062 34.878906 64.582031 35.144531 C 64.5 35.410156 64.445312 35.683594 64.425781 35.957031 C 64.402344 36.234375 64.410156 36.511719 64.449219 36.789062 C 64.488281 37.0625 64.554688 37.332031 64.652344 37.589844 C 64.75 37.851562 64.875 38.097656 65.027344 38.332031 C 65.375 38.863281 65.832031 39.285156 66.390625 39.585938 C 66.953125 39.886719 67.550781 40.039062 68.1875 40.035156 Z M 66.417969 33.566406 C 66.773438 33.332031 67.164062 33.175781 67.582031 33.097656 C 68.003906 33.019531 68.421875 33.023438 68.839844 33.109375 C 69.261719 33.195312 69.644531 33.359375 70 33.601562 C 70.351562 33.84375 70.644531 34.140625 70.878906 34.5 C 71.113281 34.855469 71.269531 35.246094 71.351562 35.664062 C 71.429688 36.085938 71.425781 36.503906 71.339844 36.921875 C 71.25 37.339844 71.085938 37.726562 70.847656 38.082031 C 70.605469 38.433594 70.304688 38.726562 69.949219 38.960938 C 69.589844 39.195312 69.203125 39.351562 68.78125 39.433594 C 68.363281 39.511719 67.945312 39.507812 67.523438 39.421875 C 67.105469 39.332031 66.71875 39.167969 66.367188 38.929688 C 66.015625 38.6875 65.71875 38.386719 65.488281 38.03125 C 65.25 37.675781 65.089844 37.285156 65.011719 36.863281 C 64.929688 36.445312 64.933594 36.023438 65.019531 35.605469 C 65.109375 35.1875 65.273438 34.800781 65.515625 34.445312 C 65.757812 34.09375 66.058594 33.800781 66.417969 33.566406 Z M 66.417969 33.566406 "/></g><g style="fill:#2d6d5e;fill-opacity:1;"><g transform="translate(25.00466, 113.921472)"><path style="stroke:none" d="M 0.8125 -7.8125 L 2.515625 -7.8125 C 3.191406 -7.8125 3.703125 -7.65625 4.046875 -7.34375 C 4.398438 -7.03125 4.578125 -6.5625 4.578125 -5.9375 C 4.578125 -5.601562 4.535156 -5.3125 4.453125 -5.0625 C 4.367188 -4.8125 4.242188 -4.609375 4.078125 -4.453125 C 3.910156 -4.296875 3.703125 -4.191406 3.453125 -4.140625 L 3.453125 -4.09375 C 3.742188 -4.019531 3.984375 -3.90625 4.171875 -3.75 C 4.359375 -3.59375 4.5 -3.382812 4.59375 -3.125 C 4.6875 -2.875 4.734375 -2.578125 4.734375 -2.234375 C 4.734375 -1.785156 4.65625 -1.394531 4.5 -1.0625 C 4.351562 -0.726562 4.128906 -0.46875 3.828125 -0.28125 C 3.535156 -0.09375 3.179688 0 2.765625 0 L 0.8125 0 Z M 1.65625 -4.4375 L 2.5 -4.4375 C 2.925781 -4.4375 3.234375 -4.554688 3.421875 -4.796875 C 3.617188 -5.035156 3.71875 -5.390625 3.71875 -5.859375 C 3.71875 -6.253906 3.613281 -6.554688 3.40625 -6.765625 C 3.207031 -6.972656 2.898438 -7.078125 2.484375 -7.078125 L 1.65625 -7.078125 Z M 1.65625 -3.71875 L 1.65625 -0.75 L 2.671875 -0.75 C 3.054688 -0.75 3.347656 -0.875 3.546875 -1.125 C 3.753906 -1.375 3.859375 -1.757812 3.859375 -2.28125 C 3.859375 -2.59375 3.804688 -2.851562 3.703125 -3.0625 C 3.597656 -3.28125 3.445312 -3.441406 3.25 -3.546875 C 3.0625 -3.660156 2.832031 -3.71875 2.5625 -3.71875 Z M 1.65625 -3.71875 "/></g></g><g style="fill:#2d6d5e;fill-opacity:1;"><g transform="translate(31.703645, 113.921472)"><path style="stroke:none" d="M 4.359375 -2.9375 C 4.359375 -2.476562 4.316406 -2.0625 4.234375 -1.6875 C 4.160156 -1.3125 4.039062 -0.988281 3.875 -0.71875 C 3.71875 -0.457031 3.515625 -0.253906 3.265625 -0.109375 C 3.023438 0.0351562 2.734375 0.109375 2.390625 0.109375 C 2.078125 0.109375 1.796875 0.0351562 1.546875 -0.109375 C 1.304688 -0.253906 1.101562 -0.457031 0.9375 -0.71875 C 0.78125 -0.976562 0.660156 -1.296875 0.578125 -1.671875 C 0.503906 -2.054688 0.46875 -2.476562 0.46875 -2.9375 C 0.46875 -3.582031 0.535156 -4.128906 0.671875 -4.578125 C 0.804688 -5.035156 1.019531 -5.378906 1.3125 -5.609375 C 1.601562 -5.847656 1.96875 -5.96875 2.40625 -5.96875 C 2.820312 -5.96875 3.175781 -5.851562 3.46875 -5.625 C 3.757812 -5.394531 3.976562 -5.054688 4.125 -4.609375 C 4.28125 -4.160156 4.359375 -3.601562 4.359375 -2.9375 Z M 1.296875 -2.9375 C 1.296875 -2.425781 1.332031 -2 1.40625 -1.65625 C 1.488281 -1.3125 1.613281 -1.050781 1.78125 -0.875 C 1.945312 -0.695312 2.160156 -0.609375 2.421875 -0.609375 C 2.671875 -0.609375 2.875 -0.691406 3.03125 -0.859375 C 3.195312 -1.035156 3.316406 -1.296875 3.390625 -1.640625 C 3.472656 -1.984375 3.515625 -2.414062 3.515625 -2.9375 C 3.515625 -3.445312 3.472656 -3.875 3.390625 -4.21875 C 3.316406 -4.5625 3.195312 -4.816406 3.03125 -4.984375 C 2.875 -5.160156 2.664062 -5.25 2.40625 -5.25 C 2.019531 -5.25 1.738281 -5.054688 1.5625 -4.671875 C 1.382812 -4.285156 1.296875 -3.707031 1.296875 -2.9375 Z M 1.296875 -2.9375 "/></g></g><g style="fill:#2d6d5e;fill-opacity:1;"><g transform="translate(38.055373, 113.921472)"><path style="stroke:none" d="M 1.546875 -3.015625 L 0.25 -5.859375 L 1.125 -5.859375 L 2.03125 -3.6875 L 2.9375 -5.859375 L 3.8125 -5.859375 L 2.5 -2.984375 L 3.859375 0 L 2.984375 0 L 2 -2.3125 L 1.015625 0 L 0.15625 0 Z M 1.546875 -3.015625 "/></g></g><g style="fill:#2d6d5e;fill-opacity:1;"><g transform="translate(43.600394, 113.921472)"><path style="stroke:none" d=""/></g></g><g style="fill:#2d6d5e;fill-opacity:1;"><g transform="translate(47.163374, 113.921472)"><path style="stroke:none" d="M 1.53125 -8.3125 L 1.53125 -5.859375 C 1.53125 -5.742188 1.523438 -5.613281 1.515625 -5.46875 C 1.515625 -5.332031 1.515625 -5.1875 1.515625 -5.03125 L 1.546875 -5.03125 C 1.691406 -5.34375 1.875 -5.570312 2.09375 -5.71875 C 2.3125 -5.875 2.5625 -5.953125 2.84375 -5.953125 C 3.40625 -5.953125 3.832031 -5.695312 4.125 -5.1875 C 4.414062 -4.675781 4.5625 -3.925781 4.5625 -2.9375 C 4.5625 -2.28125 4.492188 -1.722656 4.359375 -1.265625 C 4.234375 -0.816406 4.039062 -0.472656 3.78125 -0.234375 C 3.53125 -0.00390625 3.226562 0.109375 2.875 0.109375 C 2.582031 0.109375 2.328125 0.0351562 2.109375 -0.109375 C 1.890625 -0.253906 1.703125 -0.476562 1.546875 -0.78125 L 1.5 -0.78125 L 1.390625 0 L 0.71875 0 L 0.71875 -8.3125 Z M 2.671875 -5.234375 C 2.367188 -5.234375 2.132812 -5.140625 1.96875 -4.953125 C 1.8125 -4.765625 1.695312 -4.503906 1.625 -4.171875 C 1.5625 -3.835938 1.53125 -3.457031 1.53125 -3.03125 L 1.53125 -2.78125 C 1.53125 -2.039062 1.625 -1.492188 1.8125 -1.140625 C 2.007812 -0.785156 2.296875 -0.609375 2.671875 -0.609375 C 3.023438 -0.609375 3.285156 -0.796875 3.453125 -1.171875 C 3.628906 -1.554688 3.71875 -2.148438 3.71875 -2.953125 C 3.71875 -3.703125 3.632812 -4.269531 3.46875 -4.65625 C 3.300781 -5.039062 3.035156 -5.234375 2.671875 -5.234375 Z M 2.671875 -5.234375 "/></g></g><g style="fill:#2d6d5e;fill-opacity:1;"><g transform="translate(53.702087, 113.921472)"><path style="stroke:none" d="M 2.671875 -5.96875 C 2.753906 -5.96875 2.835938 -5.957031 2.921875 -5.9375 C 3.003906 -5.925781 3.085938 -5.910156 3.171875 -5.890625 L 3.046875 -5.046875 C 2.984375 -5.066406 2.914062 -5.082031 2.84375 -5.09375 C 2.769531 -5.101562 2.691406 -5.109375 2.609375 -5.109375 C 2.453125 -5.109375 2.304688 -5.054688 2.171875 -4.953125 C 2.035156 -4.847656 1.921875 -4.703125 1.828125 -4.515625 C 1.734375 -4.328125 1.660156 -4.109375 1.609375 -3.859375 C 1.554688 -3.609375 1.53125 -3.34375 1.53125 -3.0625 L 1.53125 0 L 0.71875 0 L 0.71875 -5.859375 L 1.359375 -5.859375 L 1.46875 -4.828125 L 1.515625 -4.828125 C 1.597656 -5.046875 1.691406 -5.238281 1.796875 -5.40625 C 1.910156 -5.582031 2.039062 -5.71875 2.1875 -5.8125 C 2.332031 -5.914062 2.492188 -5.96875 2.671875 -5.96875 Z M 2.671875 -5.96875 "/></g></g><g style="fill:#2d6d5e;fill-opacity:1;"><g transform="translate(58.515195, 113.921472)"><path style="stroke:none" d="M 2.328125 -5.953125 C 2.722656 -5.953125 3.050781 -5.835938 3.3125 -5.609375 C 3.570312 -5.378906 3.765625 -5.066406 3.890625 -4.671875 C 4.015625 -4.285156 4.078125 -3.851562 4.078125 -3.375 L 4.078125 -2.78125 L 1.28125 -2.78125 C 1.289062 -2.050781 1.40625 -1.503906 1.625 -1.140625 C 1.84375 -0.773438 2.171875 -0.59375 2.609375 -0.59375 C 2.828125 -0.59375 3.035156 -0.625 3.234375 -0.6875 C 3.441406 -0.75 3.648438 -0.851562 3.859375 -1 L 3.859375 -0.265625 C 3.660156 -0.140625 3.453125 -0.046875 3.234375 0.015625 C 3.015625 0.078125 2.78125 0.109375 2.53125 0.109375 C 2.039062 0.109375 1.644531 -0.0195312 1.34375 -0.28125 C 1.039062 -0.539062 0.816406 -0.898438 0.671875 -1.359375 C 0.535156 -1.816406 0.46875 -2.332031 0.46875 -2.90625 C 0.46875 -3.550781 0.535156 -4.101562 0.671875 -4.5625 C 0.816406 -5.019531 1.023438 -5.363281 1.296875 -5.59375 C 1.578125 -5.832031 1.921875 -5.953125 2.328125 -5.953125 Z M 2.328125 -5.28125 C 2.015625 -5.28125 1.769531 -5.128906 1.59375 -4.828125 C 1.425781 -4.535156 1.328125 -4.070312 1.296875 -3.4375 L 3.3125 -3.4375 C 3.3125 -3.769531 3.273438 -4.078125 3.203125 -4.359375 C 3.140625 -4.640625 3.035156 -4.863281 2.890625 -5.03125 C 2.742188 -5.195312 2.554688 -5.28125 2.328125 -5.28125 Z M 2.328125 -5.28125 "/></g></g><g style="fill:#2d6d5e;fill-opacity:1;"><g transform="translate(64.573089, 113.921472)"><path style="stroke:none" d="M 2.28125 -5.96875 C 2.820312 -5.96875 3.207031 -5.796875 3.4375 -5.453125 C 3.675781 -5.109375 3.796875 -4.609375 3.796875 -3.953125 L 3.796875 0 L 3.171875 0 L 3.046875 -0.828125 L 3.015625 -0.828125 C 2.929688 -0.628906 2.820312 -0.457031 2.6875 -0.3125 C 2.5625 -0.175781 2.414062 -0.0703125 2.25 0 C 2.09375 0.0703125 1.90625 0.109375 1.6875 0.109375 C 1.382812 0.109375 1.132812 0.03125 0.9375 -0.125 C 0.75 -0.289062 0.609375 -0.503906 0.515625 -0.765625 C 0.421875 -1.023438 0.375 -1.304688 0.375 -1.609375 C 0.375 -2.191406 0.539062 -2.640625 0.875 -2.953125 C 1.21875 -3.273438 1.695312 -3.453125 2.3125 -3.484375 L 2.96875 -3.53125 L 2.96875 -3.9375 C 2.96875 -4.40625 2.90625 -4.742188 2.78125 -4.953125 C 2.65625 -5.171875 2.445312 -5.28125 2.15625 -5.28125 C 2 -5.28125 1.828125 -5.25 1.640625 -5.1875 C 1.460938 -5.132812 1.269531 -5.046875 1.0625 -4.921875 L 0.796875 -5.546875 C 1.015625 -5.691406 1.25 -5.796875 1.5 -5.859375 C 1.757812 -5.929688 2.019531 -5.96875 2.28125 -5.96875 Z M 2.984375 -2.921875 L 2.4375 -2.890625 C 2.03125 -2.867188 1.722656 -2.753906 1.515625 -2.546875 C 1.316406 -2.335938 1.21875 -2.035156 1.21875 -1.640625 C 1.21875 -1.265625 1.28125 -0.988281 1.40625 -0.8125 C 1.539062 -0.644531 1.722656 -0.5625 1.953125 -0.5625 C 2.285156 -0.5625 2.539062 -0.71875 2.71875 -1.03125 C 2.894531 -1.34375 2.984375 -1.773438 2.984375 -2.328125 Z M 2.984375 -2.921875 "/></g></g><g style="fill:#2d6d5e;fill-opacity:1;"><g transform="translate(70.598929, 113.921472)"><path style="stroke:none" d="M 2.09375 -0.625 C 2.1875 -0.625 2.273438 -0.628906 2.359375 -0.640625 C 2.453125 -0.660156 2.535156 -0.691406 2.609375 -0.734375 L 2.609375 -0.0625 C 2.503906 -0.0078125 2.382812 0.03125 2.25 0.0625 C 2.125 0.09375 1.984375 0.109375 1.828125 0.109375 C 1.578125 0.109375 1.367188 0.0507812 1.203125 -0.0625 C 1.046875 -0.175781 0.925781 -0.34375 0.84375 -0.5625 C 0.769531 -0.789062 0.734375 -1.078125 0.734375 -1.421875 L 0.734375 -5.171875 L 0.1875 -5.171875 L 0.1875 -5.625 L 0.78125 -5.84375 L 1 -7.1875 L 1.5625 -7.1875 L 1.5625 -5.859375 L 2.546875 -5.859375 L 2.546875 -5.171875 L 1.5625 -5.171875 L 1.5625 -1.515625 C 1.5625 -1.210938 1.597656 -0.988281 1.671875 -0.84375 C 1.742188 -0.695312 1.882812 -0.625 2.09375 -0.625 Z M 2.09375 -0.625 "/></g></g><g style="fill:#2d6d5e;fill-opacity:1;"><g transform="translate(74.904506, 113.921472)"><path style="stroke:none" d="M 1.53125 -8.3125 L 1.53125 -5.890625 C 1.53125 -5.734375 1.523438 -5.582031 1.515625 -5.4375 C 1.515625 -5.300781 1.503906 -5.164062 1.484375 -5.03125 L 1.53125 -5.03125 C 1.601562 -5.226562 1.703125 -5.394531 1.828125 -5.53125 C 1.960938 -5.664062 2.113281 -5.769531 2.28125 -5.84375 C 2.445312 -5.925781 2.625 -5.96875 2.8125 -5.96875 C 3.144531 -5.96875 3.414062 -5.890625 3.625 -5.734375 C 3.832031 -5.585938 3.984375 -5.367188 4.078125 -5.078125 C 4.179688 -4.785156 4.234375 -4.421875 4.234375 -3.984375 L 4.234375 0 L 3.40625 0 L 3.40625 -3.828125 C 3.40625 -4.328125 3.34375 -4.6875 3.21875 -4.90625 C 3.101562 -5.125 2.910156 -5.234375 2.640625 -5.234375 C 2.390625 -5.234375 2.179688 -5.15625 2.015625 -5 C 1.859375 -4.851562 1.738281 -4.617188 1.65625 -4.296875 C 1.570312 -3.972656 1.53125 -3.566406 1.53125 -3.078125 L 1.53125 0 L 0.71875 0 L 0.71875 -8.3125 Z M 1.53125 -8.3125 "/></g></g><g style="fill:#2d6d5e;fill-opacity:1;"><g transform="translate(81.368425, 113.921472)"><path style="stroke:none" d="M 1.546875 -5.859375 L 1.546875 0 L 0.71875 0 L 0.71875 -5.859375 Z M 1.140625 -8.0625 C 1.316406 -8.0625 1.441406 -8.007812 1.515625 -7.90625 C 1.585938 -7.800781 1.625 -7.648438 1.625 -7.453125 C 1.625 -7.273438 1.582031 -7.128906 1.5 -7.015625 C 1.425781 -6.910156 1.304688 -6.859375 1.140625 -6.859375 C 0.992188 -6.859375 0.875 -6.910156 0.78125 -7.015625 C 0.695312 -7.128906 0.65625 -7.273438 0.65625 -7.453125 C 0.65625 -7.648438 0.695312 -7.800781 0.78125 -7.90625 C 0.863281 -8.007812 0.984375 -8.0625 1.140625 -8.0625 Z M 1.140625 -8.0625 "/></g></g><g style="fill:#2d6d5e;fill-opacity:1;"><g transform="translate(85.166471, 113.921472)"><path style="stroke:none" d="M 2.828125 -5.96875 C 3.285156 -5.96875 3.632812 -5.804688 3.875 -5.484375 C 4.113281 -5.160156 4.234375 -4.664062 4.234375 -4 L 4.234375 0 L 3.40625 0 L 3.40625 -3.828125 C 3.40625 -4.304688 3.34375 -4.660156 3.21875 -4.890625 C 3.101562 -5.128906 2.914062 -5.25 2.65625 -5.25 C 2.269531 -5.25 1.984375 -5.078125 1.796875 -4.734375 C 1.617188 -4.390625 1.53125 -3.84375 1.53125 -3.09375 L 1.53125 0 L 0.71875 0 L 0.71875 -5.859375 L 1.375 -5.859375 L 1.46875 -5.015625 L 1.515625 -5.015625 C 1.597656 -5.210938 1.703125 -5.378906 1.828125 -5.515625 C 1.960938 -5.660156 2.113281 -5.769531 2.28125 -5.84375 C 2.445312 -5.925781 2.628906 -5.96875 2.828125 -5.96875 Z M 2.828125 -5.96875 "/></g></g><g style="fill:#2d6d5e;fill-opacity:1;"><g transform="translate(91.63039, 113.921472)"><path style="stroke:none" d="M 1.875 2.625 C 1.3125 2.625 0.867188 2.476562 0.546875 2.1875 C 0.234375 1.90625 0.078125 1.507812 0.078125 1 C 0.078125 0.601562 0.171875 0.273438 0.359375 0.015625 C 0.554688 -0.242188 0.804688 -0.414062 1.109375 -0.5 C 0.953125 -0.570312 0.828125 -0.675781 0.734375 -0.8125 C 0.640625 -0.957031 0.59375 -1.128906 0.59375 -1.328125 C 0.59375 -1.523438 0.640625 -1.703125 0.734375 -1.859375 C 0.828125 -2.023438 0.960938 -2.1875 1.140625 -2.34375 C 0.910156 -2.476562 0.726562 -2.691406 0.59375 -2.984375 C 0.46875 -3.285156 0.40625 -3.628906 0.40625 -4.015625 C 0.40625 -4.421875 0.46875 -4.765625 0.59375 -5.046875 C 0.726562 -5.335938 0.914062 -5.5625 1.15625 -5.71875 C 1.40625 -5.882812 1.703125 -5.96875 2.046875 -5.96875 C 2.148438 -5.96875 2.242188 -5.960938 2.328125 -5.953125 C 2.410156 -5.941406 2.484375 -5.925781 2.546875 -5.90625 C 2.609375 -5.894531 2.664062 -5.875 2.71875 -5.84375 L 4.171875 -5.84375 L 4.171875 -5.3125 L 3.375 -5.21875 C 3.476562 -5.0625 3.550781 -4.878906 3.59375 -4.671875 C 3.644531 -4.472656 3.671875 -4.265625 3.671875 -4.046875 C 3.671875 -3.453125 3.523438 -2.984375 3.234375 -2.640625 C 2.953125 -2.296875 2.550781 -2.125 2.03125 -2.125 C 1.875 -2.125 1.75 -2.140625 1.65625 -2.171875 C 1.550781 -2.078125 1.460938 -1.972656 1.390625 -1.859375 C 1.316406 -1.742188 1.28125 -1.601562 1.28125 -1.4375 C 1.28125 -1.332031 1.304688 -1.238281 1.359375 -1.15625 C 1.410156 -1.082031 1.476562 -1.023438 1.5625 -0.984375 C 1.65625 -0.941406 1.769531 -0.921875 1.90625 -0.921875 L 2.75 -0.921875 C 3.1875 -0.921875 3.523438 -0.796875 3.765625 -0.546875 C 4.003906 -0.296875 4.125 0.0859375 4.125 0.609375 C 4.125 1.242188 3.929688 1.738281 3.546875 2.09375 C 3.160156 2.445312 2.601562 2.625 1.875 2.625 Z M 1.9375 1.96875 C 2.25 1.96875 2.507812 1.921875 2.71875 1.828125 C 2.925781 1.734375 3.082031 1.585938 3.1875 1.390625 C 3.289062 1.203125 3.34375 0.96875 3.34375 0.6875 C 3.34375 0.457031 3.304688 0.28125 3.234375 0.15625 C 3.160156 0.03125 3.054688 -0.0507812 2.921875 -0.09375 C 2.785156 -0.144531 2.625 -0.171875 2.4375 -0.171875 L 1.734375 -0.171875 C 1.566406 -0.171875 1.414062 -0.132812 1.28125 -0.0625 C 1.15625 0.0078125 1.050781 0.125 0.96875 0.28125 C 0.894531 0.445312 0.859375 0.660156 0.859375 0.921875 C 0.859375 1.273438 0.953125 1.535156 1.140625 1.703125 C 1.335938 1.878906 1.601562 1.96875 1.9375 1.96875 Z M 2.046875 -2.734375 C 2.296875 -2.734375 2.488281 -2.84375 2.625 -3.0625 C 2.769531 -3.28125 2.84375 -3.601562 2.84375 -4.03125 C 2.84375 -4.476562 2.769531 -4.8125 2.625 -5.03125 C 2.476562 -5.257812 2.28125 -5.375 2.03125 -5.375 C 1.78125 -5.375 1.582031 -5.253906 1.4375 -5.015625 C 1.300781 -4.773438 1.234375 -4.441406 1.234375 -4.015625 C 1.234375 -3.609375 1.300781 -3.289062 1.4375 -3.0625 C 1.570312 -2.84375 1.773438 -2.734375 2.046875 -2.734375 Z M 2.046875 -2.734375 "/></g></g><g style="fill:#2d6d5e;fill-opacity:1;"><g transform="translate(97.383766, 113.921472)"><path style="stroke:none" d=""/></g></g><g style="fill:#2d6d5e;fill-opacity:1;"><g transform="translate(100.946745, 113.921472)"><path style="stroke:none" d="M 2.09375 -0.625 C 2.1875 -0.625 2.273438 -0.628906 2.359375 -0.640625 C 2.453125 -0.660156 2.535156 -0.691406 2.609375 -0.734375 L 2.609375 -0.0625 C 2.503906 -0.0078125 2.382812 0.03125 2.25 0.0625 C 2.125 0.09375 1.984375 0.109375 1.828125 0.109375 C 1.578125 0.109375 1.367188 0.0507812 1.203125 -0.0625 C 1.046875 -0.175781 0.925781 -0.34375 0.84375 -0.5625 C 0.769531 -0.789062 0.734375 -1.078125 0.734375 -1.421875 L 0.734375 -5.171875 L 0.1875 -5.171875 L 0.1875 -5.625 L 0.78125 -5.84375 L 1 -7.1875 L 1.5625 -7.1875 L 1.5625 -5.859375 L 2.546875 -5.859375 L 2.546875 -5.171875 L 1.5625 -5.171875 L 1.5625 -1.515625 C 1.5625 -1.210938 1.597656 -0.988281 1.671875 -0.84375 C 1.742188 -0.695312 1.882812 -0.625 2.09375 -0.625 Z M 2.09375 -0.625 "/></g></g><g style="fill:#2d6d5e;fill-opacity:1;"><g transform="translate(105.252323, 113.921472)"><path style="stroke:none" d="M 4.359375 -2.9375 C 4.359375 -2.476562 4.316406 -2.0625 4.234375 -1.6875 C 4.160156 -1.3125 4.039062 -0.988281 3.875 -0.71875 C 3.71875 -0.457031 3.515625 -0.253906 3.265625 -0.109375 C 3.023438 0.0351562 2.734375 0.109375 2.390625 0.109375 C 2.078125 0.109375 1.796875 0.0351562 1.546875 -0.109375 C 1.304688 -0.253906 1.101562 -0.457031 0.9375 -0.71875 C 0.78125 -0.976562 0.660156 -1.296875 0.578125 -1.671875 C 0.503906 -2.054688 0.46875 -2.476562 0.46875 -2.9375 C 0.46875 -3.582031 0.535156 -4.128906 0.671875 -4.578125 C 0.804688 -5.035156 1.019531 -5.378906 1.3125 -5.609375 C 1.601562 -5.847656 1.96875 -5.96875 2.40625 -5.96875 C 2.820312 -5.96875 3.175781 -5.851562 3.46875 -5.625 C 3.757812 -5.394531 3.976562 -5.054688 4.125 -4.609375 C 4.28125 -4.160156 4.359375 -3.601562 4.359375 -2.9375 Z M 1.296875 -2.9375 C 1.296875 -2.425781 1.332031 -2 1.40625 -1.65625 C 1.488281 -1.3125 1.613281 -1.050781 1.78125 -0.875 C 1.945312 -0.695312 2.160156 -0.609375 2.421875 -0.609375 C 2.671875 -0.609375 2.875 -0.691406 3.03125 -0.859375 C 3.195312 -1.035156 3.316406 -1.296875 3.390625 -1.640625 C 3.472656 -1.984375 3.515625 -2.414062 3.515625 -2.9375 C 3.515625 -3.445312 3.472656 -3.875 3.390625 -4.21875 C 3.316406 -4.5625 3.195312 -4.816406 3.03125 -4.984375 C 2.875 -5.160156 2.664062 -5.25 2.40625 -5.25 C 2.019531 -5.25 1.738281 -5.054688 1.5625 -4.671875 C 1.382812 -4.285156 1.296875 -3.707031 1.296875 -2.9375 Z M 1.296875 -2.9375 "/></g></g><g style="fill:#2d6d5e;fill-opacity:1;"><g transform="translate(25.926155, 126.612444)"><path style="stroke:none" d="M 3.328125 -1.546875 C 3.328125 -1.191406 3.257812 -0.890625 3.125 -0.640625 C 3 -0.398438 2.8125 -0.210938 2.5625 -0.078125 C 2.320312 0.046875 2.03125 0.109375 1.6875 0.109375 C 1.414062 0.109375 1.164062 0.078125 0.9375 0.015625 C 0.71875 -0.046875 0.53125 -0.125 0.375 -0.21875 L 0.375 -1.078125 C 0.53125 -0.941406 0.722656 -0.832031 0.953125 -0.75 C 1.179688 -0.664062 1.414062 -0.625 1.65625 -0.625 C 1.925781 -0.625 2.132812 -0.703125 2.28125 -0.859375 C 2.4375 -1.015625 2.515625 -1.234375 2.515625 -1.515625 C 2.515625 -1.679688 2.484375 -1.828125 2.421875 -1.953125 C 2.359375 -2.078125 2.257812 -2.195312 2.125 -2.3125 C 1.988281 -2.425781 1.816406 -2.546875 1.609375 -2.671875 C 1.359375 -2.816406 1.140625 -2.96875 0.953125 -3.125 C 0.765625 -3.289062 0.617188 -3.476562 0.515625 -3.6875 C 0.421875 -3.894531 0.375 -4.144531 0.375 -4.4375 C 0.375 -4.894531 0.519531 -5.265625 0.8125 -5.546875 C 1.113281 -5.828125 1.503906 -5.96875 1.984375 -5.96875 C 2.234375 -5.96875 2.46875 -5.9375 2.6875 -5.875 C 2.90625 -5.8125 3.113281 -5.71875 3.3125 -5.59375 L 3 -4.9375 C 2.851562 -5.039062 2.691406 -5.117188 2.515625 -5.171875 C 2.347656 -5.234375 2.175781 -5.265625 2 -5.265625 C 1.738281 -5.265625 1.53125 -5.191406 1.375 -5.046875 C 1.226562 -4.898438 1.15625 -4.707031 1.15625 -4.46875 C 1.15625 -4.300781 1.1875 -4.15625 1.25 -4.03125 C 1.3125 -3.914062 1.410156 -3.800781 1.546875 -3.6875 C 1.679688 -3.582031 1.863281 -3.460938 2.09375 -3.328125 C 2.34375 -3.171875 2.554688 -3.015625 2.734375 -2.859375 C 2.921875 -2.703125 3.066406 -2.519531 3.171875 -2.3125 C 3.273438 -2.101562 3.328125 -1.847656 3.328125 -1.546875 Z M 3.328125 -1.546875 "/></g></g><g style="fill:#2d6d5e;fill-opacity:1;"><g transform="translate(31.134603, 126.612444)"><path style="stroke:none" d="M 2.09375 -0.625 C 2.1875 -0.625 2.273438 -0.628906 2.359375 -0.640625 C 2.453125 -0.660156 2.535156 -0.691406 2.609375 -0.734375 L 2.609375 -0.0625 C 2.503906 -0.0078125 2.382812 0.03125 2.25 0.0625 C 2.125 0.09375 1.984375 0.109375 1.828125 0.109375 C 1.578125 0.109375 1.367188 0.0507812 1.203125 -0.0625 C 1.046875 -0.175781 0.925781 -0.34375 0.84375 -0.5625 C 0.769531 -0.789062 0.734375 -1.078125 0.734375 -1.421875 L 0.734375 -5.171875 L 0.1875 -5.171875 L 0.1875 -5.625 L 0.78125 -5.84375 L 1 -7.1875 L 1.5625 -7.1875 L 1.5625 -5.859375 L 2.546875 -5.859375 L 2.546875 -5.171875 L 1.5625 -5.171875 L 1.5625 -1.515625 C 1.5625 -1.210938 1.597656 -0.988281 1.671875 -0.84375 C 1.742188 -0.695312 1.882812 -0.625 2.09375 -0.625 Z M 2.09375 -0.625 "/></g></g><g style="fill:#2d6d5e;fill-opacity:1;"><g transform="translate(35.44018, 126.612444)"><path style="stroke:none" d="M 2.328125 -5.953125 C 2.722656 -5.953125 3.050781 -5.835938 3.3125 -5.609375 C 3.570312 -5.378906 3.765625 -5.066406 3.890625 -4.671875 C 4.015625 -4.285156 4.078125 -3.851562 4.078125 -3.375 L 4.078125 -2.78125 L 1.28125 -2.78125 C 1.289062 -2.050781 1.40625 -1.503906 1.625 -1.140625 C 1.84375 -0.773438 2.171875 -0.59375 2.609375 -0.59375 C 2.828125 -0.59375 3.035156 -0.625 3.234375 -0.6875 C 3.441406 -0.75 3.648438 -0.851562 3.859375 -1 L 3.859375 -0.265625 C 3.660156 -0.140625 3.453125 -0.046875 3.234375 0.015625 C 3.015625 0.078125 2.78125 0.109375 2.53125 0.109375 C 2.039062 0.109375 1.644531 -0.0195312 1.34375 -0.28125 C 1.039062 -0.539062 0.816406 -0.898438 0.671875 -1.359375 C 0.535156 -1.816406 0.46875 -2.332031 0.46875 -2.90625 C 0.46875 -3.550781 0.535156 -4.101562 0.671875 -4.5625 C 0.816406 -5.019531 1.023438 -5.363281 1.296875 -5.59375 C 1.578125 -5.832031 1.921875 -5.953125 2.328125 -5.953125 Z M 2.328125 -5.28125 C 2.015625 -5.28125 1.769531 -5.128906 1.59375 -4.828125 C 1.425781 -4.535156 1.328125 -4.070312 1.296875 -3.4375 L 3.3125 -3.4375 C 3.3125 -3.769531 3.273438 -4.078125 3.203125 -4.359375 C 3.140625 -4.640625 3.035156 -4.863281 2.890625 -5.03125 C 2.742188 -5.195312 2.554688 -5.28125 2.328125 -5.28125 Z M 2.328125 -5.28125 "/></g></g><g style="fill:#2d6d5e;fill-opacity:1;"><g transform="translate(41.498074, 126.612444)"><path style="stroke:none" d="M 2.28125 -5.96875 C 2.820312 -5.96875 3.207031 -5.796875 3.4375 -5.453125 C 3.675781 -5.109375 3.796875 -4.609375 3.796875 -3.953125 L 3.796875 0 L 3.171875 0 L 3.046875 -0.828125 L 3.015625 -0.828125 C 2.929688 -0.628906 2.820312 -0.457031 2.6875 -0.3125 C 2.5625 -0.175781 2.414062 -0.0703125 2.25 0 C 2.09375 0.0703125 1.90625 0.109375 1.6875 0.109375 C 1.382812 0.109375 1.132812 0.03125 0.9375 -0.125 C 0.75 -0.289062 0.609375 -0.503906 0.515625 -0.765625 C 0.421875 -1.023438 0.375 -1.304688 0.375 -1.609375 C 0.375 -2.191406 0.539062 -2.640625 0.875 -2.953125 C 1.21875 -3.273438 1.695312 -3.453125 2.3125 -3.484375 L 2.96875 -3.53125 L 2.96875 -3.9375 C 2.96875 -4.40625 2.90625 -4.742188 2.78125 -4.953125 C 2.65625 -5.171875 2.445312 -5.28125 2.15625 -5.28125 C 2 -5.28125 1.828125 -5.25 1.640625 -5.1875 C 1.460938 -5.132812 1.269531 -5.046875 1.0625 -4.921875 L 0.796875 -5.546875 C 1.015625 -5.691406 1.25 -5.796875 1.5 -5.859375 C 1.757812 -5.929688 2.019531 -5.96875 2.28125 -5.96875 Z M 2.984375 -2.921875 L 2.4375 -2.890625 C 2.03125 -2.867188 1.722656 -2.753906 1.515625 -2.546875 C 1.316406 -2.335938 1.21875 -2.035156 1.21875 -1.640625 C 1.21875 -1.265625 1.28125 -0.988281 1.40625 -0.8125 C 1.539062 -0.644531 1.722656 -0.5625 1.953125 -0.5625 C 2.285156 -0.5625 2.539062 -0.71875 2.71875 -1.03125 C 2.894531 -1.34375 2.984375 -1.773438 2.984375 -2.328125 Z M 2.984375 -2.921875 "/></g></g><g style="fill:#2d6d5e;fill-opacity:1;"><g transform="translate(47.523914, 126.612444)"><path style="stroke:none" d="M 2.171875 0.109375 C 1.609375 0.109375 1.179688 -0.144531 0.890625 -0.65625 C 0.609375 -1.175781 0.46875 -1.929688 0.46875 -2.921875 C 0.46875 -3.898438 0.613281 -4.648438 0.90625 -5.171875 C 1.195312 -5.703125 1.609375 -5.96875 2.140625 -5.96875 C 2.335938 -5.96875 2.519531 -5.929688 2.6875 -5.859375 C 2.851562 -5.785156 3 -5.679688 3.125 -5.546875 C 3.257812 -5.410156 3.375 -5.25 3.46875 -5.0625 L 3.515625 -5.0625 C 3.503906 -5.226562 3.492188 -5.375 3.484375 -5.5 C 3.484375 -5.632812 3.484375 -5.757812 3.484375 -5.875 L 3.484375 -8.3125 L 4.296875 -8.3125 L 4.296875 0 L 3.640625 0 L 3.53125 -0.796875 L 3.484375 -0.796875 C 3.378906 -0.609375 3.265625 -0.445312 3.140625 -0.3125 C 3.015625 -0.175781 2.875 -0.0703125 2.71875 0 C 2.5625 0.0703125 2.378906 0.109375 2.171875 0.109375 Z M 2.359375 -0.59375 C 2.722656 -0.59375 3 -0.765625 3.1875 -1.109375 C 3.382812 -1.453125 3.484375 -1.960938 3.484375 -2.640625 L 3.484375 -3.046875 C 3.484375 -3.785156 3.390625 -4.332031 3.203125 -4.6875 C 3.023438 -5.050781 2.738281 -5.234375 2.34375 -5.234375 C 1.988281 -5.234375 1.722656 -5.035156 1.546875 -4.640625 C 1.378906 -4.242188 1.296875 -3.671875 1.296875 -2.921875 C 1.296875 -2.148438 1.378906 -1.566406 1.546875 -1.171875 C 1.722656 -0.785156 1.992188 -0.59375 2.359375 -0.59375 Z M 2.359375 -0.59375 "/></g></g><g style="fill:#2d6d5e;fill-opacity:1;"><g transform="translate(54.062627, 126.612444)"><path style="stroke:none" d="M 0.0625 -5.859375 L 0.90625 -5.859375 L 1.734375 -2.4375 C 1.773438 -2.289062 1.804688 -2.144531 1.828125 -2 C 1.859375 -1.851562 1.882812 -1.707031 1.90625 -1.5625 C 1.9375 -1.425781 1.960938 -1.285156 1.984375 -1.140625 L 2.03125 -1.140625 C 2.0625 -1.347656 2.097656 -1.554688 2.140625 -1.765625 C 2.179688 -1.984375 2.226562 -2.207031 2.28125 -2.4375 L 3.09375 -5.859375 L 3.9375 -5.859375 L 2.1875 0.9375 C 2.09375 1.332031 1.972656 1.65625 1.828125 1.90625 C 1.691406 2.15625 1.53125 2.335938 1.34375 2.453125 C 1.15625 2.566406 0.929688 2.625 0.671875 2.625 C 0.585938 2.625 0.503906 2.613281 0.421875 2.59375 C 0.335938 2.582031 0.25 2.5625 0.15625 2.53125 L 0.15625 1.8125 C 0.21875 1.832031 0.285156 1.847656 0.359375 1.859375 C 0.429688 1.878906 0.503906 1.890625 0.578125 1.890625 C 0.710938 1.890625 0.828125 1.851562 0.921875 1.78125 C 1.015625 1.707031 1.097656 1.59375 1.171875 1.4375 C 1.242188 1.28125 1.316406 1.0625 1.390625 0.78125 L 1.609375 -0.046875 Z M 0.0625 -5.859375 "/></g></g><g style="fill:#2d6d5e;fill-opacity:1;"><g transform="translate(59.580936, 126.612444)"><path style="stroke:none" d=""/></g></g><g style="fill:#2d6d5e;fill-opacity:1;"><g transform="translate(63.143915, 126.612444)"><path style="stroke:none" d="M 1.53125 -8.3125 L 1.53125 -5.859375 C 1.53125 -5.742188 1.523438 -5.613281 1.515625 -5.46875 C 1.515625 -5.332031 1.515625 -5.1875 1.515625 -5.03125 L 1.546875 -5.03125 C 1.691406 -5.34375 1.875 -5.570312 2.09375 -5.71875 C 2.3125 -5.875 2.5625 -5.953125 2.84375 -5.953125 C 3.40625 -5.953125 3.832031 -5.695312 4.125 -5.1875 C 4.414062 -4.675781 4.5625 -3.925781 4.5625 -2.9375 C 4.5625 -2.28125 4.492188 -1.722656 4.359375 -1.265625 C 4.234375 -0.816406 4.039062 -0.472656 3.78125 -0.234375 C 3.53125 -0.00390625 3.226562 0.109375 2.875 0.109375 C 2.582031 0.109375 2.328125 0.0351562 2.109375 -0.109375 C 1.890625 -0.253906 1.703125 -0.476562 1.546875 -0.78125 L 1.5 -0.78125 L 1.390625 0 L 0.71875 0 L 0.71875 -8.3125 Z M 2.671875 -5.234375 C 2.367188 -5.234375 2.132812 -5.140625 1.96875 -4.953125 C 1.8125 -4.765625 1.695312 -4.503906 1.625 -4.171875 C 1.5625 -3.835938 1.53125 -3.457031 1.53125 -3.03125 L 1.53125 -2.78125 C 1.53125 -2.039062 1.625 -1.492188 1.8125 -1.140625 C 2.007812 -0.785156 2.296875 -0.609375 2.671875 -0.609375 C 3.023438 -0.609375 3.285156 -0.796875 3.453125 -1.171875 C 3.628906 -1.554688 3.71875 -2.148438 3.71875 -2.953125 C 3.71875 -3.703125 3.632812 -4.269531 3.46875 -4.65625 C 3.300781 -5.039062 3.035156 -5.234375 2.671875 -5.234375 Z M 2.671875 -5.234375 "/></g></g><g style="fill:#2d6d5e;fill-opacity:1;"><g transform="translate(69.682628, 126.612444)"><path style="stroke:none" d="M 4.359375 -2.9375 C 4.359375 -2.476562 4.316406 -2.0625 4.234375 -1.6875 C 4.160156 -1.3125 4.039062 -0.988281 3.875 -0.71875 C 3.71875 -0.457031 3.515625 -0.253906 3.265625 -0.109375 C 3.023438 0.0351562 2.734375 0.109375 2.390625 0.109375 C 2.078125 0.109375 1.796875 0.0351562 1.546875 -0.109375 C 1.304688 -0.253906 1.101562 -0.457031 0.9375 -0.71875 C 0.78125 -0.976562 0.660156 -1.296875 0.578125 -1.671875 C 0.503906 -2.054688 0.46875 -2.476562 0.46875 -2.9375 C 0.46875 -3.582031 0.535156 -4.128906 0.671875 -4.578125 C 0.804688 -5.035156 1.019531 -5.378906 1.3125 -5.609375 C 1.601562 -5.847656 1.96875 -5.96875 2.40625 -5.96875 C 2.820312 -5.96875 3.175781 -5.851562 3.46875 -5.625 C 3.757812 -5.394531 3.976562 -5.054688 4.125 -4.609375 C 4.28125 -4.160156 4.359375 -3.601562 4.359375 -2.9375 Z M 1.296875 -2.9375 C 1.296875 -2.425781 1.332031 -2 1.40625 -1.65625 C 1.488281 -1.3125 1.613281 -1.050781 1.78125 -0.875 C 1.945312 -0.695312 2.160156 -0.609375 2.421875 -0.609375 C 2.671875 -0.609375 2.875 -0.691406 3.03125 -0.859375 C 3.195312 -1.035156 3.316406 -1.296875 3.390625 -1.640625 C 3.472656 -1.984375 3.515625 -2.414062 3.515625 -2.9375 C 3.515625 -3.445312 3.472656 -3.875 3.390625 -4.21875 C 3.316406 -4.5625 3.195312 -4.816406 3.03125 -4.984375 C 2.875 -5.160156 2.664062 -5.25 2.40625 -5.25 C 2.019531 -5.25 1.738281 -5.054688 1.5625 -4.671875 C 1.382812 -4.285156 1.296875 -3.707031 1.296875 -2.9375 Z M 1.296875 -2.9375 "/></g></g><g style="fill:#2d6d5e;fill-opacity:1;"><g transform="translate(76.034356, 126.612444)"><path style="stroke:none" d="M 2.171875 0.109375 C 1.609375 0.109375 1.179688 -0.144531 0.890625 -0.65625 C 0.609375 -1.175781 0.46875 -1.929688 0.46875 -2.921875 C 0.46875 -3.898438 0.613281 -4.648438 0.90625 -5.171875 C 1.195312 -5.703125 1.609375 -5.96875 2.140625 -5.96875 C 2.335938 -5.96875 2.519531 -5.929688 2.6875 -5.859375 C 2.851562 -5.785156 3 -5.679688 3.125 -5.546875 C 3.257812 -5.410156 3.375 -5.25 3.46875 -5.0625 L 3.515625 -5.0625 C 3.503906 -5.226562 3.492188 -5.375 3.484375 -5.5 C 3.484375 -5.632812 3.484375 -5.757812 3.484375 -5.875 L 3.484375 -8.3125 L 4.296875 -8.3125 L 4.296875 0 L 3.640625 0 L 3.53125 -0.796875 L 3.484375 -0.796875 C 3.378906 -0.609375 3.265625 -0.445312 3.140625 -0.3125 C 3.015625 -0.175781 2.875 -0.0703125 2.71875 0 C 2.5625 0.0703125 2.378906 0.109375 2.171875 0.109375 Z M 2.359375 -0.59375 C 2.722656 -0.59375 3 -0.765625 3.1875 -1.109375 C 3.382812 -1.453125 3.484375 -1.960938 3.484375 -2.640625 L 3.484375 -3.046875 C 3.484375 -3.785156 3.390625 -4.332031 3.203125 -4.6875 C 3.023438 -5.050781 2.738281 -5.234375 2.34375 -5.234375 C 1.988281 -5.234375 1.722656 -5.035156 1.546875 -4.640625 C 1.378906 -4.242188 1.296875 -3.671875 1.296875 -2.921875 C 1.296875 -2.148438 1.378906 -1.566406 1.546875 -1.171875 C 1.722656 -0.785156 1.992188 -0.59375 2.359375 -0.59375 Z M 2.359375 -0.59375 "/></g></g><g style="fill:#2d6d5e;fill-opacity:1;"><g transform="translate(82.573069, 126.612444)"><path style="stroke:none" d="M 0.0625 -5.859375 L 0.90625 -5.859375 L 1.734375 -2.4375 C 1.773438 -2.289062 1.804688 -2.144531 1.828125 -2 C 1.859375 -1.851562 1.882812 -1.707031 1.90625 -1.5625 C 1.9375 -1.425781 1.960938 -1.285156 1.984375 -1.140625 L 2.03125 -1.140625 C 2.0625 -1.347656 2.097656 -1.554688 2.140625 -1.765625 C 2.179688 -1.984375 2.226562 -2.207031 2.28125 -2.4375 L 3.09375 -5.859375 L 3.9375 -5.859375 L 2.1875 0.9375 C 2.09375 1.332031 1.972656 1.65625 1.828125 1.90625 C 1.691406 2.15625 1.53125 2.335938 1.34375 2.453125 C 1.15625 2.566406 0.929688 2.625 0.671875 2.625 C 0.585938 2.625 0.503906 2.613281 0.421875 2.59375 C 0.335938 2.582031 0.25 2.5625 0.15625 2.53125 L 0.15625 1.8125 C 0.21875 1.832031 0.285156 1.847656 0.359375 1.859375 C 0.429688 1.878906 0.503906 1.890625 0.578125 1.890625 C 0.710938 1.890625 0.828125 1.851562 0.921875 1.78125 C 1.015625 1.707031 1.097656 1.59375 1.171875 1.4375 C 1.242188 1.28125 1.316406 1.0625 1.390625 0.78125 L 1.609375 -0.046875 Z M 0.0625 -5.859375 "/></g></g><g style="fill:#2d6d5e;fill-opacity:1;"><g transform="translate(88.091378, 126.612444)"><path style="stroke:none" d=""/></g></g><g style="fill:#2d6d5e;fill-opacity:1;"><g transform="translate(91.654357, 126.612444)"><path style="stroke:none" d="M 2.28125 -5.96875 C 2.820312 -5.96875 3.207031 -5.796875 3.4375 -5.453125 C 3.675781 -5.109375 3.796875 -4.609375 3.796875 -3.953125 L 3.796875 0 L 3.171875 0 L 3.046875 -0.828125 L 3.015625 -0.828125 C 2.929688 -0.628906 2.820312 -0.457031 2.6875 -0.3125 C 2.5625 -0.175781 2.414062 -0.0703125 2.25 0 C 2.09375 0.0703125 1.90625 0.109375 1.6875 0.109375 C 1.382812 0.109375 1.132812 0.03125 0.9375 -0.125 C 0.75 -0.289062 0.609375 -0.503906 0.515625 -0.765625 C 0.421875 -1.023438 0.375 -1.304688 0.375 -1.609375 C 0.375 -2.191406 0.539062 -2.640625 0.875 -2.953125 C 1.21875 -3.273438 1.695312 -3.453125 2.3125 -3.484375 L 2.96875 -3.53125 L 2.96875 -3.9375 C 2.96875 -4.40625 2.90625 -4.742188 2.78125 -4.953125 C 2.65625 -5.171875 2.445312 -5.28125 2.15625 -5.28125 C 2 -5.28125 1.828125 -5.25 1.640625 -5.1875 C 1.460938 -5.132812 1.269531 -5.046875 1.0625 -4.921875 L 0.796875 -5.546875 C 1.015625 -5.691406 1.25 -5.796875 1.5 -5.859375 C 1.757812 -5.929688 2.019531 -5.96875 2.28125 -5.96875 Z M 2.984375 -2.921875 L 2.4375 -2.890625 C 2.03125 -2.867188 1.722656 -2.753906 1.515625 -2.546875 C 1.316406 -2.335938 1.21875 -2.035156 1.21875 -1.640625 C 1.21875 -1.265625 1.28125 -0.988281 1.40625 -0.8125 C 1.539062 -0.644531 1.722656 -0.5625 1.953125 -0.5625 C 2.285156 -0.5625 2.539062 -0.71875 2.71875 -1.03125 C 2.894531 -1.34375 2.984375 -1.773438 2.984375 -2.328125 Z M 2.984375 -2.921875 "/></g></g><g style="fill:#2d6d5e;fill-opacity:1;"><g transform="translate(97.680197, 126.612444)"><path style="stroke:none" d="M 2.828125 -5.96875 C 3.285156 -5.96875 3.632812 -5.804688 3.875 -5.484375 C 4.113281 -5.160156 4.234375 -4.664062 4.234375 -4 L 4.234375 0 L 3.40625 0 L 3.40625 -3.828125 C 3.40625 -4.304688 3.34375 -4.660156 3.21875 -4.890625 C 3.101562 -5.128906 2.914062 -5.25 2.65625 -5.25 C 2.269531 -5.25 1.984375 -5.078125 1.796875 -4.734375 C 1.617188 -4.390625 1.53125 -3.84375 1.53125 -3.09375 L 1.53125 0 L 0.71875 0 L 0.71875 -5.859375 L 1.375 -5.859375 L 1.46875 -5.015625 L 1.515625 -5.015625 C 1.597656 -5.210938 1.703125 -5.378906 1.828125 -5.515625 C 1.960938 -5.660156 2.113281 -5.769531 2.28125 -5.84375 C 2.445312 -5.925781 2.628906 -5.96875 2.828125 -5.96875 Z M 2.828125 -5.96875 "/></g></g><g style="fill:#2d6d5e;fill-opacity:1;"><g transform="translate(104.144116, 126.612444)"><path style="stroke:none" d="M 2.171875 0.109375 C 1.609375 0.109375 1.179688 -0.144531 0.890625 -0.65625 C 0.609375 -1.175781 0.46875 -1.929688 0.46875 -2.921875 C 0.46875 -3.898438 0.613281 -4.648438 0.90625 -5.171875 C 1.195312 -5.703125 1.609375 -5.96875 2.140625 -5.96875 C 2.335938 -5.96875 2.519531 -5.929688 2.6875 -5.859375 C 2.851562 -5.785156 3 -5.679688 3.125 -5.546875 C 3.257812 -5.410156 3.375 -5.25 3.46875 -5.0625 L 3.515625 -5.0625 C 3.503906 -5.226562 3.492188 -5.375 3.484375 -5.5 C 3.484375 -5.632812 3.484375 -5.757812 3.484375 -5.875 L 3.484375 -8.3125 L 4.296875 -8.3125 L 4.296875 0 L 3.640625 0 L 3.53125 -0.796875 L 3.484375 -0.796875 C 3.378906 -0.609375 3.265625 -0.445312 3.140625 -0.3125 C 3.015625 -0.175781 2.875 -0.0703125 2.71875 0 C 2.5625 0.0703125 2.378906 0.109375 2.171875 0.109375 Z M 2.359375 -0.59375 C 2.722656 -0.59375 3 -0.765625 3.1875 -1.109375 C 3.382812 -1.453125 3.484375 -1.960938 3.484375 -2.640625 L 3.484375 -3.046875 C 3.484375 -3.785156 3.390625 -4.332031 3.203125 -4.6875 C 3.023438 -5.050781 2.738281 -5.234375 2.34375 -5.234375 C 1.988281 -5.234375 1.722656 -5.035156 1.546875 -4.640625 C 1.378906 -4.242188 1.296875 -3.671875 1.296875 -2.921875 C 1.296875 -2.148438 1.378906 -1.566406 1.546875 -1.171875 C 1.722656 -0.785156 1.992188 -0.59375 2.359375 -0.59375 Z M 2.359375 -0.59375 "/></g></g><g style="fill:#2d6d5e;fill-opacity:1;"><g transform="translate(55.460658, 139.303415)"><path style="stroke:none" d="M 5.3125 -5.96875 C 5.78125 -5.96875 6.125 -5.800781 6.34375 -5.46875 C 6.5625 -5.132812 6.671875 -4.628906 6.671875 -3.953125 L 6.671875 0 L 5.859375 0 L 5.859375 -3.8125 C 5.859375 -4.320312 5.789062 -4.6875 5.65625 -4.90625 C 5.53125 -5.132812 5.34375 -5.25 5.09375 -5.25 C 4.738281 -5.25 4.484375 -5.078125 4.328125 -4.734375 C 4.179688 -4.398438 4.109375 -3.921875 4.109375 -3.296875 L 4.109375 0 L 3.296875 0 L 3.296875 -3.8125 C 3.296875 -4.164062 3.265625 -4.445312 3.203125 -4.65625 C 3.148438 -4.863281 3.066406 -5.015625 2.953125 -5.109375 C 2.835938 -5.203125 2.695312 -5.25 2.53125 -5.25 C 2.257812 -5.25 2.050781 -5.15625 1.90625 -4.96875 C 1.769531 -4.789062 1.671875 -4.539062 1.609375 -4.21875 C 1.554688 -3.90625 1.53125 -3.546875 1.53125 -3.140625 L 1.53125 0 L 0.71875 0 L 0.71875 -5.859375 L 1.375 -5.859375 L 1.46875 -5.03125 L 1.515625 -5.03125 C 1.585938 -5.226562 1.679688 -5.394531 1.796875 -5.53125 C 1.921875 -5.675781 2.0625 -5.785156 2.21875 -5.859375 C 2.382812 -5.929688 2.566406 -5.96875 2.765625 -5.96875 C 3.109375 -5.96875 3.375 -5.875 3.5625 -5.6875 C 3.757812 -5.507812 3.890625 -5.28125 3.953125 -5 L 4.015625 -5 C 4.148438 -5.332031 4.316406 -5.578125 4.515625 -5.734375 C 4.722656 -5.890625 4.988281 -5.96875 5.3125 -5.96875 Z M 5.3125 -5.96875 "/></g></g><g style="fill:#2d6d5e;fill-opacity:1;"><g transform="translate(64.366067, 139.303415)"><path style="stroke:none" d="M 1.546875 -5.859375 L 1.546875 0 L 0.71875 0 L 0.71875 -5.859375 Z M 1.140625 -8.0625 C 1.316406 -8.0625 1.441406 -8.007812 1.515625 -7.90625 C 1.585938 -7.800781 1.625 -7.648438 1.625 -7.453125 C 1.625 -7.273438 1.582031 -7.128906 1.5 -7.015625 C 1.425781 -6.910156 1.304688 -6.859375 1.140625 -6.859375 C 0.992188 -6.859375 0.875 -6.910156 0.78125 -7.015625 C 0.695312 -7.128906 0.65625 -7.273438 0.65625 -7.453125 C 0.65625 -7.648438 0.695312 -7.800781 0.78125 -7.90625 C 0.863281 -8.007812 0.984375 -8.0625 1.140625 -8.0625 Z M 1.140625 -8.0625 "/></g></g><g style="fill:#2d6d5e;fill-opacity:1;"><g transform="translate(68.164113, 139.303415)"><path style="stroke:none" d="M 2.828125 -5.96875 C 3.285156 -5.96875 3.632812 -5.804688 3.875 -5.484375 C 4.113281 -5.160156 4.234375 -4.664062 4.234375 -4 L 4.234375 0 L 3.40625 0 L 3.40625 -3.828125 C 3.40625 -4.304688 3.34375 -4.660156 3.21875 -4.890625 C 3.101562 -5.128906 2.914062 -5.25 2.65625 -5.25 C 2.269531 -5.25 1.984375 -5.078125 1.796875 -4.734375 C 1.617188 -4.390625 1.53125 -3.84375 1.53125 -3.09375 L 1.53125 0 L 0.71875 0 L 0.71875 -5.859375 L 1.375 -5.859375 L 1.46875 -5.015625 L 1.515625 -5.015625 C 1.597656 -5.210938 1.703125 -5.378906 1.828125 -5.515625 C 1.960938 -5.660156 2.113281 -5.769531 2.28125 -5.84375 C 2.445312 -5.925781 2.628906 -5.96875 2.828125 -5.96875 Z M 2.828125 -5.96875 "/></g></g><g style="fill:#2d6d5e;fill-opacity:1;"><g transform="translate(74.628032, 139.303415)"><path style="stroke:none" d="M 2.171875 0.109375 C 1.609375 0.109375 1.179688 -0.144531 0.890625 -0.65625 C 0.609375 -1.175781 0.46875 -1.929688 0.46875 -2.921875 C 0.46875 -3.898438 0.613281 -4.648438 0.90625 -5.171875 C 1.195312 -5.703125 1.609375 -5.96875 2.140625 -5.96875 C 2.335938 -5.96875 2.519531 -5.929688 2.6875 -5.859375 C 2.851562 -5.785156 3 -5.679688 3.125 -5.546875 C 3.257812 -5.410156 3.375 -5.25 3.46875 -5.0625 L 3.515625 -5.0625 C 3.503906 -5.226562 3.492188 -5.375 3.484375 -5.5 C 3.484375 -5.632812 3.484375 -5.757812 3.484375 -5.875 L 3.484375 -8.3125 L 4.296875 -8.3125 L 4.296875 0 L 3.640625 0 L 3.53125 -0.796875 L 3.484375 -0.796875 C 3.378906 -0.609375 3.265625 -0.445312 3.140625 -0.3125 C 3.015625 -0.175781 2.875 -0.0703125 2.71875 0 C 2.5625 0.0703125 2.378906 0.109375 2.171875 0.109375 Z M 2.359375 -0.59375 C 2.722656 -0.59375 3 -0.765625 3.1875 -1.109375 C 3.382812 -1.453125 3.484375 -1.960938 3.484375 -2.640625 L 3.484375 -3.046875 C 3.484375 -3.785156 3.390625 -4.332031 3.203125 -4.6875 C 3.023438 -5.050781 2.738281 -5.234375 2.34375 -5.234375 C 1.988281 -5.234375 1.722656 -5.035156 1.546875 -4.640625 C 1.378906 -4.242188 1.296875 -3.671875 1.296875 -2.921875 C 1.296875 -2.148438 1.378906 -1.566406 1.546875 -1.171875 C 1.722656 -0.785156 1.992188 -0.59375 2.359375 -0.59375 Z M 2.359375 -0.59375 "/></g></g></g></svg>