<svg xmlns="http://www.w3.org/2000/svg" xmlns:xlink="http://www.w3.org/1999/xlink" width="180" zoomAndPan="magnify" viewBox="0 0 135 161.249994" height="215" preserveAspectRatio="xMidYMid meet" version="1.0"><defs><g/><clipPath id="4e4876417c"><path d="M 49 30.726562 L 86 30.726562 L 86 35 L 49 35 Z M 49 30.726562 " clip-rule="nonzero"/></clipPath><clipPath id="d9f7fdc418"><path d="M 87 35 L 91.160156 35 L 91.160156 72 L 87 72 Z M 87 35 " clip-rule="nonzero"/></clipPath><clipPath id="051ac1e6a7"><path d="M 45.40625 37 L 49.886719 37 L 49.886719 74 L 45.40625 74 Z M 45.40625 37 " clip-rule="nonzero"/></clipPath><clipPath id="b3169b434a"><path d="M 50 74.015625 L 86.890625 74.015625 L 86.890625 78.496094 L 50 78.496094 Z M 50 74.015625 " clip-rule="nonzero"/></clipPath><clipPath id="a6d905c0a0"><path d="M 37.332031 24.667969 L 97.800781 24.667969 L 97.800781 85 L 37.332031 85 Z M 37.332031 24.667969 " clip-rule="nonzero"/></clipPath><clipPath id="6c3cf9bf73"><path d="M 50.640625 38.453125 L 85.726562 38.453125 L 85.726562 69 L 50.640625 69 Z M 50.640625 38.453125 " clip-rule="nonzero"/></clipPath></defs><g fill="#0661aa" fill-opacity="1"><g transform="translate(9.180814, 101.944425)"><g><path d="M 5.625 0.390625 C 4.625 0.390625 3.734375 0.222656 2.953125 -0.109375 C 2.179688 -0.453125 1.566406 -0.941406 1.109375 -1.578125 C 0.660156 -2.222656 0.40625 -2.992188 0.34375 -3.890625 L 3.15625 -4.375 C 3.1875 -3.601562 3.445312 -3 3.9375 -2.5625 C 4.425781 -2.125 5.03125 -1.90625 5.75 -1.90625 C 6.382812 -1.90625 6.890625 -2.050781 7.265625 -2.34375 C 7.640625 -2.644531 7.828125 -3.015625 7.828125 -3.453125 C 7.828125 -3.835938 7.679688 -4.15625 7.390625 -4.40625 C 7.109375 -4.65625 6.644531 -4.863281 6 -5.03125 L 4.390625 -5.453125 C 3.117188 -5.742188 2.191406 -6.1875 1.609375 -6.78125 C 1.023438 -7.375 0.734375 -8.171875 0.734375 -9.171875 C 0.734375 -9.972656 0.921875 -10.671875 1.296875 -11.265625 C 1.679688 -11.867188 2.226562 -12.332031 2.9375 -12.65625 C 3.644531 -12.988281 4.46875 -13.15625 5.40625 -13.15625 C 6.269531 -13.15625 7.035156 -13 7.703125 -12.6875 C 8.367188 -12.382812 8.910156 -11.957031 9.328125 -11.40625 C 9.742188 -10.851562 9.976562 -10.191406 10.03125 -9.421875 L 7.296875 -8.875 C 7.253906 -9.488281 7.054688 -9.976562 6.703125 -10.34375 C 6.347656 -10.707031 5.898438 -10.890625 5.359375 -10.890625 C 4.847656 -10.890625 4.4375 -10.75 4.125 -10.46875 C 3.820312 -10.1875 3.671875 -9.835938 3.671875 -9.421875 C 3.671875 -9.054688 3.804688 -8.753906 4.078125 -8.515625 C 4.347656 -8.273438 4.785156 -8.078125 5.390625 -7.921875 L 6.984375 -7.53125 C 8.285156 -7.226562 9.238281 -6.773438 9.84375 -6.171875 C 10.445312 -5.566406 10.75 -4.757812 10.75 -3.75 C 10.75 -2.90625 10.539062 -2.171875 10.125 -1.546875 C 9.707031 -0.929688 9.113281 -0.453125 8.34375 -0.109375 C 7.582031 0.222656 6.675781 0.390625 5.625 0.390625 Z M 5.625 0.390625 "/></g></g></g><g fill="#0661aa" fill-opacity="1"><g transform="translate(22.313704, 101.944425)"><g><path d="M 3.171875 0.21875 C 2.296875 0.21875 1.585938 -0.015625 1.046875 -0.484375 C 0.515625 -0.953125 0.25 -1.578125 0.25 -2.359375 C 0.25 -3.203125 0.566406 -3.878906 1.203125 -4.390625 C 1.847656 -4.910156 2.785156 -5.238281 4.015625 -5.375 L 5.4375 -5.53125 C 5.632812 -5.5625 5.796875 -5.632812 5.921875 -5.75 C 6.046875 -5.875 6.109375 -6.046875 6.109375 -6.265625 C 6.109375 -6.671875 5.984375 -6.984375 5.734375 -7.203125 C 5.484375 -7.421875 5.15625 -7.53125 4.75 -7.53125 C 4.28125 -7.53125 3.898438 -7.367188 3.609375 -7.046875 C 3.328125 -6.722656 3.175781 -6.316406 3.15625 -5.828125 L 0.5625 -6.203125 C 0.582031 -6.847656 0.769531 -7.414062 1.125 -7.90625 C 1.476562 -8.40625 1.960938 -8.796875 2.578125 -9.078125 C 3.191406 -9.359375 3.910156 -9.5 4.734375 -9.5 C 5.984375 -9.5 6.972656 -9.171875 7.703125 -8.515625 C 8.429688 -7.859375 8.796875 -6.96875 8.796875 -5.84375 L 8.796875 -2.296875 C 8.796875 -1.890625 8.945312 -1.6875 9.25 -1.6875 C 9.488281 -1.6875 9.710938 -1.804688 9.921875 -2.046875 L 10.515625 -0.578125 C 10.234375 -0.296875 9.890625 -0.09375 9.484375 0.03125 C 9.078125 0.164062 8.675781 0.234375 8.28125 0.234375 C 7.726562 0.234375 7.265625 0.09375 6.890625 -0.1875 C 6.515625 -0.46875 6.28125 -0.820312 6.1875 -1.25 L 6.140625 -1.484375 L 6.125 -1.484375 C 5.851562 -0.960938 5.457031 -0.546875 4.9375 -0.234375 C 4.425781 0.0664062 3.835938 0.21875 3.171875 0.21875 Z M 4.296875 -1.703125 C 4.816406 -1.703125 5.242188 -1.882812 5.578125 -2.25 C 5.910156 -2.613281 6.078125 -3.085938 6.078125 -3.671875 L 6.078125 -4.109375 L 4.734375 -3.953125 C 4.109375 -3.890625 3.660156 -3.742188 3.390625 -3.515625 C 3.128906 -3.285156 3 -3.015625 3 -2.703125 C 3 -2.410156 3.117188 -2.171875 3.359375 -1.984375 C 3.609375 -1.796875 3.921875 -1.703125 4.296875 -1.703125 Z M 4.296875 -1.703125 "/></g></g></g><g fill="#0661aa" fill-opacity="1"><g transform="translate(34.944917, 101.944425)"><g><path d="M 0.6875 0 L 0.6875 -9.171875 L 2.875 -9.171875 L 3.25 -7.53125 L 3.265625 -7.53125 C 3.503906 -8.125 3.878906 -8.585938 4.390625 -8.921875 C 4.898438 -9.253906 5.476562 -9.421875 6.125 -9.421875 C 6.800781 -9.421875 7.359375 -9.253906 7.796875 -8.921875 C 8.234375 -8.585938 8.550781 -8.109375 8.75 -7.484375 L 8.765625 -7.484375 C 9.066406 -8.117188 9.476562 -8.597656 10 -8.921875 C 10.519531 -9.253906 11.101562 -9.421875 11.75 -9.421875 C 12.601562 -9.421875 13.257812 -9.148438 13.71875 -8.609375 C 14.1875 -8.066406 14.421875 -7.3125 14.421875 -6.34375 L 14.421875 0 L 11.6875 0 L 11.6875 -5.765625 C 11.6875 -6.179688 11.578125 -6.503906 11.359375 -6.734375 C 11.148438 -6.972656 10.847656 -7.09375 10.453125 -7.09375 C 9.972656 -7.09375 9.597656 -6.925781 9.328125 -6.59375 C 9.054688 -6.257812 8.921875 -5.804688 8.921875 -5.234375 L 8.921875 0 L 6.1875 0 L 6.1875 -5.765625 C 6.1875 -6.179688 6.078125 -6.503906 5.859375 -6.734375 C 5.640625 -6.972656 5.335938 -7.09375 4.953125 -7.09375 C 4.472656 -7.09375 4.09375 -6.925781 3.8125 -6.59375 C 3.539062 -6.257812 3.40625 -5.804688 3.40625 -5.234375 L 3.40625 0 Z M 0.6875 0 "/></g></g></g><g fill="#0661aa" fill-opacity="1"><g transform="translate(52.10904, 101.944425)"><g><path d="M 3.171875 0.21875 C 2.296875 0.21875 1.585938 -0.015625 1.046875 -0.484375 C 0.515625 -0.953125 0.25 -1.578125 0.25 -2.359375 C 0.25 -3.203125 0.566406 -3.878906 1.203125 -4.390625 C 1.847656 -4.910156 2.785156 -5.238281 4.015625 -5.375 L 5.4375 -5.53125 C 5.632812 -5.5625 5.796875 -5.632812 5.921875 -5.75 C 6.046875 -5.875 6.109375 -6.046875 6.109375 -6.265625 C 6.109375 -6.671875 5.984375 -6.984375 5.734375 -7.203125 C 5.484375 -7.421875 5.15625 -7.53125 4.75 -7.53125 C 4.28125 -7.53125 3.898438 -7.367188 3.609375 -7.046875 C 3.328125 -6.722656 3.175781 -6.316406 3.15625 -5.828125 L 0.5625 -6.203125 C 0.582031 -6.847656 0.769531 -7.414062 1.125 -7.90625 C 1.476562 -8.40625 1.960938 -8.796875 2.578125 -9.078125 C 3.191406 -9.359375 3.910156 -9.5 4.734375 -9.5 C 5.984375 -9.5 6.972656 -9.171875 7.703125 -8.515625 C 8.429688 -7.859375 8.796875 -6.96875 8.796875 -5.84375 L 8.796875 -2.296875 C 8.796875 -1.890625 8.945312 -1.6875 9.25 -1.6875 C 9.488281 -1.6875 9.710938 -1.804688 9.921875 -2.046875 L 10.515625 -0.578125 C 10.234375 -0.296875 9.890625 -0.09375 9.484375 0.03125 C 9.078125 0.164062 8.675781 0.234375 8.28125 0.234375 C 7.726562 0.234375 7.265625 0.09375 6.890625 -0.1875 C 6.515625 -0.46875 6.28125 -0.820312 6.1875 -1.25 L 6.140625 -1.484375 L 6.125 -1.484375 C 5.851562 -0.960938 5.457031 -0.546875 4.9375 -0.234375 C 4.425781 0.0664062 3.835938 0.21875 3.171875 0.21875 Z M 4.296875 -1.703125 C 4.816406 -1.703125 5.242188 -1.882812 5.578125 -2.25 C 5.910156 -2.613281 6.078125 -3.085938 6.078125 -3.671875 L 6.078125 -4.109375 L 4.734375 -3.953125 C 4.109375 -3.890625 3.660156 -3.742188 3.390625 -3.515625 C 3.128906 -3.285156 3 -3.015625 3 -2.703125 C 3 -2.410156 3.117188 -2.171875 3.359375 -1.984375 C 3.609375 -1.796875 3.921875 -1.703125 4.296875 -1.703125 Z M 4.296875 -1.703125 "/></g></g></g><g fill="#0661aa" fill-opacity="1"><g transform="translate(64.740253, 101.944425)"><g/></g></g><g fill="#0661aa" fill-opacity="1"><g transform="translate(70.186912, 101.944425)"><g><path d="M 4.171875 0 L 0.09375 -12.765625 L 3.28125 -12.765625 L 6.0625 -2.828125 L 6.09375 -2.828125 L 8.859375 -12.765625 L 12.046875 -12.765625 L 7.953125 0 Z M 4.171875 0 "/></g></g></g><g fill="#0661aa" fill-opacity="1"><g transform="translate(84.430628, 101.944425)"><g><path d="M 5.625 -9.421875 C 6.375 -9.421875 6.976562 -9.140625 7.4375 -8.578125 C 7.894531 -8.023438 8.144531 -7.234375 8.1875 -6.203125 L 5.875 -5.578125 C 5.863281 -6.171875 5.753906 -6.617188 5.546875 -6.921875 C 5.347656 -7.234375 5.082031 -7.390625 4.75 -7.390625 C 4.34375 -7.390625 4.015625 -7.1875 3.765625 -6.78125 C 3.523438 -6.375 3.40625 -5.8125 3.40625 -5.09375 L 3.40625 0 L 0.6875 0 L 0.6875 -9.171875 L 2.890625 -9.171875 L 3.265625 -7.59375 L 3.28125 -7.59375 C 3.476562 -8.164062 3.785156 -8.613281 4.203125 -8.9375 C 4.628906 -9.257812 5.101562 -9.421875 5.625 -9.421875 Z M 5.625 -9.421875 "/></g></g></g><g fill="#0661aa" fill-opacity="1"><g transform="translate(94.983522, 101.944425)"><g><path d="M 2.109375 -10.4375 C 1.617188 -10.4375 1.226562 -10.578125 0.9375 -10.859375 C 0.644531 -11.148438 0.5 -11.523438 0.5 -11.984375 C 0.5 -12.460938 0.644531 -12.84375 0.9375 -13.125 C 1.226562 -13.414062 1.617188 -13.5625 2.109375 -13.5625 C 2.597656 -13.5625 2.988281 -13.414062 3.28125 -13.125 C 3.582031 -12.84375 3.734375 -12.460938 3.734375 -11.984375 C 3.734375 -11.523438 3.582031 -11.148438 3.28125 -10.859375 C 2.988281 -10.578125 2.597656 -10.4375 2.109375 -10.4375 Z M 0.734375 0 L 0.734375 -9.171875 L 3.484375 -9.171875 L 3.484375 0 Z M 0.734375 0 "/></g></g></g><g fill="#0661aa" fill-opacity="1"><g transform="translate(101.326012, 101.944425)"><g><path d="M 4.90625 0.28125 C 3.851562 0.28125 3.039062 -0.00390625 2.46875 -0.578125 C 1.90625 -1.148438 1.625 -1.925781 1.625 -2.90625 L 1.609375 -7.09375 L 0.078125 -7.09375 L 0.078125 -9.171875 L 1.625 -9.171875 L 1.625 -11.609375 L 4.359375 -12.21875 L 4.359375 -9.171875 L 7.484375 -9.171875 L 7.484375 -7.09375 L 4.359375 -7.09375 L 4.375 -3.390625 C 4.375 -2.929688 4.476562 -2.570312 4.6875 -2.3125 C 4.90625 -2.0625 5.195312 -1.9375 5.5625 -1.9375 C 6.238281 -1.9375 6.734375 -2.3125 7.046875 -3.0625 L 7.9375 -1.390625 C 7.65625 -0.859375 7.25 -0.445312 6.71875 -0.15625 C 6.1875 0.132812 5.582031 0.28125 4.90625 0.28125 Z M 4.90625 0.28125 "/></g></g></g><g fill="#0661aa" fill-opacity="1"><g transform="translate(111.502658, 101.944425)"><g><path d="M 4.90625 0.28125 C 3.851562 0.28125 3.039062 -0.00390625 2.46875 -0.578125 C 1.90625 -1.148438 1.625 -1.925781 1.625 -2.90625 L 1.609375 -7.09375 L 0.078125 -7.09375 L 0.078125 -9.171875 L 1.625 -9.171875 L 1.625 -11.609375 L 4.359375 -12.21875 L 4.359375 -9.171875 L 7.484375 -9.171875 L 7.484375 -7.09375 L 4.359375 -7.09375 L 4.375 -3.390625 C 4.375 -2.929688 4.476562 -2.570312 4.6875 -2.3125 C 4.90625 -2.0625 5.195312 -1.9375 5.5625 -1.9375 C 6.238281 -1.9375 6.734375 -2.3125 7.046875 -3.0625 L 7.9375 -1.390625 C 7.65625 -0.859375 7.25 -0.445312 6.71875 -0.15625 C 6.1875 0.132812 5.582031 0.28125 4.90625 0.28125 Z M 4.90625 0.28125 "/></g></g></g><g fill="#0661aa" fill-opacity="1"><g transform="translate(121.679304, 101.944425)"><g><path d="M 2.109375 -10.4375 C 1.617188 -10.4375 1.226562 -10.578125 0.9375 -10.859375 C 0.644531 -11.148438 0.5 -11.523438 0.5 -11.984375 C 0.5 -12.460938 0.644531 -12.84375 0.9375 -13.125 C 1.226562 -13.414062 1.617188 -13.5625 2.109375 -13.5625 C 2.597656 -13.5625 2.988281 -13.414062 3.28125 -13.125 C 3.582031 -12.84375 3.734375 -12.460938 3.734375 -11.984375 C 3.734375 -11.523438 3.582031 -11.148438 3.28125 -10.859375 C 2.988281 -10.578125 2.597656 -10.4375 2.109375 -10.4375 Z M 0.734375 0 L 0.734375 -9.171875 L 3.484375 -9.171875 L 3.484375 0 Z M 0.734375 0 "/></g></g></g><g clip-path="url(#4e4876417c)"><path fill="#0661aa" d="M 83.46875 34.589844 C 83.519531 34.210938 83.734375 33.835938 83.929688 33.550781 C 84.132812 33.257812 84.359375 33.011719 84.644531 32.921875 C 83.996094 32.867188 83.992188 33.046875 83.339844 33.046875 C 82.691406 33.046875 82.691406 33.035156 82.042969 33.035156 C 81.394531 33.035156 81.394531 32.882812 80.742188 32.882812 C 80.09375 32.882812 80.09375 32.960938 79.445312 32.960938 C 78.796875 32.960938 78.796875 32.894531 78.144531 32.894531 C 77.496094 32.894531 77.496094 32.894531 76.847656 32.894531 C 76.199219 32.894531 76.199219 32.9375 75.546875 32.9375 C 74.898438 32.9375 74.898438 32.925781 74.25 32.925781 C 73.597656 32.925781 73.597656 32.90625 72.949219 32.90625 C 72.300781 32.90625 72.300781 32.953125 71.648438 32.953125 C 71 32.953125 71 32.921875 70.351562 32.921875 C 69.703125 32.921875 69.703125 32.929688 69.054688 32.929688 C 68.402344 32.929688 68.402344 32.882812 67.753906 32.882812 C 67.105469 32.882812 67.105469 32.925781 66.457031 32.925781 C 65.804688 32.925781 65.804688 32.976562 65.15625 32.976562 C 64.507812 32.976562 64.507812 33.019531 63.859375 33.019531 C 63.207031 33.019531 63.207031 32.941406 62.558594 32.941406 C 61.910156 32.941406 61.910156 32.9375 61.257812 32.9375 C 60.609375 32.9375 60.609375 32.898438 59.960938 32.898438 C 59.308594 32.898438 59.308594 32.984375 58.660156 32.984375 C 58.007812 32.984375 58.007812 32.957031 57.359375 32.957031 C 56.710938 32.957031 56.710938 32.984375 56.058594 32.984375 C 55.410156 32.984375 55.410156 33.050781 54.757812 33.050781 C 54.109375 33.050781 54.109375 32.953125 53.460938 32.953125 C 52.808594 32.953125 52.808594 33.054688 52.160156 33.054688 C 51.507812 33.054688 51.507812 32.878906 50.855469 32.878906 C 50.203125 32.878906 50.175781 33.152344 49.558594 32.949219 C 49.355469 32.886719 49.324219 32.527344 49.527344 32.460938 C 50.144531 32.261719 50.203125 32.546875 50.851562 32.546875 C 51.5 32.546875 51.5 32.585938 52.152344 32.585938 C 52.800781 32.585938 52.800781 32.515625 53.449219 32.515625 C 54.097656 32.515625 54.097656 32.539062 54.746094 32.539062 C 55.398438 32.539062 55.398438 32.566406 56.046875 32.566406 C 56.695312 32.566406 56.695312 32.480469 57.347656 32.480469 C 57.996094 32.480469 57.996094 32.460938 58.644531 32.460938 C 59.292969 32.460938 59.292969 32.59375 59.945312 32.59375 C 60.59375 32.59375 60.59375 32.542969 61.242188 32.542969 C 61.894531 32.542969 61.894531 32.578125 62.542969 32.578125 C 63.191406 32.578125 63.191406 32.492188 63.84375 32.492188 C 64.492188 32.492188 64.492188 32.507812 65.140625 32.507812 C 65.789062 32.507812 65.789062 32.484375 66.4375 32.484375 C 67.089844 32.484375 67.089844 32.511719 67.738281 32.511719 C 68.386719 32.511719 68.386719 32.582031 69.035156 32.582031 C 69.6875 32.582031 69.6875 32.527344 70.335938 32.527344 C 70.984375 32.527344 70.984375 32.527344 71.636719 32.527344 C 72.285156 32.527344 72.285156 32.578125 72.933594 32.578125 C 73.582031 32.578125 73.582031 32.453125 74.234375 32.453125 C 74.882812 32.453125 74.882812 32.597656 75.535156 32.597656 C 76.183594 32.597656 76.183594 32.617188 76.835938 32.617188 C 77.484375 32.617188 77.484375 32.570312 78.132812 32.570312 C 78.785156 32.570312 78.785156 32.527344 79.433594 32.527344 C 80.082031 32.527344 80.082031 32.625 80.734375 32.625 C 81.382812 32.625 81.382812 32.492188 82.035156 32.492188 C 82.6875 32.492188 82.6875 32.585938 83.335938 32.585938 C 83.988281 32.585938 83.988281 32.582031 84.640625 32.527344 C 84.355469 32.441406 84.070312 32.292969 83.867188 32.007812 C 83.667969 31.714844 83.527344 31.300781 83.476562 30.921875 C 83.640625 30.734375 83.816406 30.710938 84.019531 30.855469 C 84.046875 31.335938 84.1875 31.734375 84.425781 32.011719 C 84.691406 32.324219 85.101562 32.480469 85.535156 32.523438 C 85.679688 32.679688 85.699219 32.84375 85.550781 32.996094 C 85.117188 33.039062 84.703125 33.191406 84.4375 33.503906 C 84.199219 33.78125 83.988281 34.125 83.960938 34.605469 C 83.796875 34.847656 83.632812 34.777344 83.46875 34.589844 Z M 83.46875 34.589844 " fill-opacity="1" fill-rule="nonzero"/></g><g clip-path="url(#d9f7fdc418)"><path fill="#0661aa" d="M 87.292969 69.570312 C 87.675781 69.621094 88.050781 69.835938 88.335938 70.03125 C 88.628906 70.238281 88.875 70.460938 88.960938 70.746094 C 89.019531 70.097656 88.835938 70.09375 88.835938 69.445312 C 88.835938 68.792969 88.847656 68.792969 88.847656 68.144531 C 88.847656 67.496094 89.003906 67.496094 89.003906 66.847656 C 89.003906 66.195312 88.925781 66.195312 88.925781 65.546875 C 88.925781 64.898438 88.992188 64.898438 88.992188 64.246094 C 88.992188 63.597656 88.992188 63.597656 88.992188 62.949219 C 88.992188 62.300781 88.949219 62.300781 88.949219 61.648438 C 88.949219 61 88.960938 61 88.960938 60.351562 C 88.960938 59.703125 88.980469 59.703125 88.980469 59.050781 C 88.980469 58.402344 88.929688 58.402344 88.929688 57.753906 C 88.929688 57.101562 88.964844 57.101562 88.964844 56.453125 C 88.964844 55.804688 88.953125 55.804688 88.953125 55.15625 C 88.953125 54.503906 89 54.503906 89 53.855469 C 89 53.207031 88.960938 53.207031 88.960938 52.558594 C 88.960938 51.910156 88.910156 51.910156 88.910156 51.257812 C 88.910156 50.609375 88.867188 50.609375 88.867188 49.960938 C 88.867188 49.308594 88.945312 49.308594 88.945312 48.660156 C 88.945312 48.011719 88.949219 48.011719 88.949219 47.359375 C 88.949219 46.710938 88.988281 46.710938 88.988281 46.0625 C 88.988281 45.410156 88.898438 45.410156 88.898438 44.761719 C 88.898438 44.109375 88.925781 44.109375 88.925781 43.460938 C 88.925781 42.8125 88.898438 42.8125 88.898438 42.160156 C 88.898438 41.511719 88.832031 41.511719 88.832031 40.863281 C 88.832031 40.210938 88.933594 40.210938 88.933594 39.5625 C 88.933594 38.910156 88.828125 38.910156 88.828125 38.261719 C 88.828125 37.609375 89.007812 37.609375 89.007812 36.957031 C 89.007812 36.304688 88.734375 36.277344 88.933594 35.660156 C 89 35.457031 89.359375 35.425781 89.425781 35.628906 C 89.625 36.246094 89.339844 36.304688 89.339844 36.953125 C 89.339844 37.601562 89.300781 37.601562 89.300781 38.253906 C 89.300781 38.902344 89.371094 38.902344 89.371094 39.550781 C 89.371094 40.199219 89.347656 40.199219 89.347656 40.851562 C 89.347656 41.5 89.320312 41.5 89.320312 42.148438 C 89.320312 42.796875 89.40625 42.796875 89.40625 43.449219 C 89.40625 44.097656 89.425781 44.097656 89.425781 44.746094 C 89.425781 45.398438 89.292969 45.398438 89.292969 46.046875 C 89.292969 46.695312 89.34375 46.695312 89.34375 47.34375 C 89.34375 47.996094 89.308594 47.996094 89.308594 48.644531 C 89.308594 49.292969 89.394531 49.292969 89.394531 49.945312 C 89.394531 50.59375 89.378906 50.59375 89.378906 51.242188 C 89.378906 51.890625 89.402344 51.890625 89.402344 52.542969 C 89.402344 53.191406 89.375 53.191406 89.375 53.839844 C 89.375 54.488281 89.304688 54.488281 89.304688 55.140625 C 89.304688 55.789062 89.359375 55.789062 89.359375 56.4375 C 89.359375 57.085938 89.355469 57.085938 89.355469 57.738281 C 89.355469 58.386719 89.308594 58.386719 89.308594 59.035156 C 89.308594 59.6875 89.433594 59.6875 89.433594 60.335938 C 89.433594 60.984375 89.289062 60.984375 89.289062 61.636719 C 89.289062 62.285156 89.269531 62.285156 89.269531 62.9375 C 89.269531 63.585938 89.316406 63.585938 89.316406 64.234375 C 89.316406 64.886719 89.359375 64.886719 89.359375 65.535156 C 89.359375 66.1875 89.257812 66.1875 89.257812 66.835938 C 89.257812 67.488281 89.394531 67.488281 89.394531 68.136719 C 89.394531 68.789062 89.300781 68.789062 89.300781 69.441406 C 89.300781 70.089844 89.300781 70.09375 89.359375 70.742188 C 89.445312 70.457031 89.59375 70.171875 89.878906 69.96875 C 90.167969 69.769531 90.585938 69.628906 90.964844 69.578125 C 91.152344 69.746094 91.175781 69.917969 91.027344 70.121094 C 90.550781 70.152344 90.152344 70.289062 89.875 70.527344 C 89.558594 70.792969 89.40625 71.203125 89.363281 71.636719 C 89.207031 71.785156 89.042969 71.800781 88.886719 71.65625 C 88.84375 71.21875 88.695312 70.804688 88.382812 70.539062 C 88.101562 70.300781 87.757812 70.089844 87.28125 70.0625 C 87.039062 69.898438 87.105469 69.738281 87.292969 69.570312 Z M 87.292969 69.570312 " fill-opacity="1" fill-rule="nonzero"/></g><g clip-path="url(#051ac1e6a7)"><path fill="#0661aa" d="M 49.273438 39.652344 C 48.894531 39.601562 48.515625 39.386719 48.230469 39.1875 C 47.9375 38.984375 47.695312 38.761719 47.605469 38.476562 C 47.550781 39.121094 47.730469 39.128906 47.730469 39.777344 C 47.730469 40.425781 47.71875 40.425781 47.71875 41.078125 C 47.71875 41.726562 47.566406 41.726562 47.566406 42.375 C 47.566406 43.023438 47.640625 43.023438 47.640625 43.675781 C 47.640625 44.324219 47.574219 44.324219 47.574219 44.972656 C 47.574219 45.621094 47.574219 45.621094 47.574219 46.273438 C 47.574219 46.921875 47.621094 46.921875 47.621094 47.570312 C 47.621094 48.222656 47.609375 48.222656 47.609375 48.871094 C 47.609375 49.519531 47.585938 49.519531 47.585938 50.167969 C 47.585938 50.820312 47.636719 50.820312 47.636719 51.46875 C 47.636719 52.117188 47.601562 52.117188 47.601562 52.769531 C 47.601562 53.417969 47.613281 53.417969 47.613281 54.066406 C 47.613281 54.714844 47.566406 54.714844 47.566406 55.367188 C 47.566406 56.015625 47.609375 56.015625 47.609375 56.664062 C 47.609375 57.3125 47.660156 57.3125 47.660156 57.960938 C 47.660156 58.613281 47.703125 58.613281 47.703125 59.261719 C 47.703125 59.910156 47.621094 59.910156 47.621094 60.5625 C 47.621094 61.210938 47.621094 61.210938 47.621094 61.859375 C 47.621094 62.511719 47.582031 62.511719 47.582031 63.160156 C 47.582031 63.808594 47.667969 63.808594 47.667969 64.460938 C 47.667969 65.109375 47.640625 65.109375 47.640625 65.761719 C 47.640625 66.410156 47.667969 66.410156 47.667969 67.058594 C 47.667969 67.710938 47.734375 67.710938 47.734375 68.359375 C 47.734375 69.007812 47.636719 69.007812 47.636719 69.660156 C 47.636719 70.308594 47.738281 70.308594 47.738281 70.960938 C 47.738281 71.613281 47.5625 71.613281 47.5625 72.261719 C 47.5625 72.914062 47.835938 72.941406 47.632812 73.5625 C 47.566406 73.761719 47.210938 73.792969 47.144531 73.59375 C 46.941406 72.976562 47.230469 72.917969 47.230469 72.269531 C 47.230469 71.617188 47.269531 71.617188 47.269531 70.96875 C 47.269531 70.320312 47.195312 70.320312 47.195312 69.671875 C 47.195312 69.019531 47.21875 69.019531 47.21875 68.371094 C 47.21875 67.722656 47.246094 67.722656 47.246094 67.070312 C 47.246094 66.421875 47.164062 66.421875 47.164062 65.773438 C 47.164062 65.125 47.144531 65.125 47.144531 64.472656 C 47.144531 63.824219 47.273438 63.824219 47.273438 63.175781 C 47.273438 62.523438 47.222656 62.523438 47.222656 61.875 C 47.222656 61.226562 47.257812 61.226562 47.257812 60.578125 C 47.257812 59.925781 47.171875 59.925781 47.171875 59.277344 C 47.171875 58.628906 47.1875 58.628906 47.1875 57.980469 C 47.1875 57.328125 47.167969 57.328125 47.167969 56.679688 C 47.167969 56.03125 47.195312 56.03125 47.195312 55.382812 C 47.195312 54.730469 47.265625 54.730469 47.265625 54.082031 C 47.265625 53.433594 47.207031 53.433594 47.207031 52.785156 C 47.207031 52.132812 47.210938 52.132812 47.210938 51.484375 C 47.210938 50.835938 47.261719 50.835938 47.261719 50.183594 C 47.261719 49.535156 47.136719 49.535156 47.136719 48.886719 C 47.136719 48.234375 47.277344 48.234375 47.277344 47.585938 C 47.277344 46.933594 47.300781 46.933594 47.300781 46.285156 C 47.300781 45.636719 47.253906 45.636719 47.253906 44.984375 C 47.253906 44.335938 47.210938 44.335938 47.210938 43.683594 C 47.210938 43.035156 47.308594 43.035156 47.308594 42.386719 C 47.308594 41.734375 47.175781 41.734375 47.175781 41.085938 C 47.175781 40.433594 47.269531 40.433594 47.269531 39.78125 C 47.269531 39.128906 47.265625 39.128906 47.210938 38.480469 C 47.121094 38.765625 46.976562 39.046875 46.691406 39.253906 C 46.398438 39.449219 45.984375 39.59375 45.601562 39.644531 C 45.414062 39.476562 45.394531 39.300781 45.539062 39.097656 C 46.019531 39.070312 46.414062 38.933594 46.695312 38.695312 C 47.007812 38.425781 47.164062 38.019531 47.203125 37.582031 C 47.359375 37.4375 47.523438 37.421875 47.679688 37.566406 C 47.722656 38.003906 47.871094 38.414062 48.183594 38.683594 C 48.464844 38.921875 48.808594 39.132812 49.289062 39.160156 C 49.53125 39.320312 49.460938 39.484375 49.273438 39.652344 Z M 49.273438 39.652344 " fill-opacity="1" fill-rule="nonzero"/></g><g clip-path="url(#b3169b434a)"><path fill="#0661aa" d="M 52.316406 74.628906 C 52.265625 75.007812 52.050781 75.386719 51.855469 75.671875 C 51.648438 75.964844 51.425781 76.210938 51.140625 76.296875 C 51.785156 76.351562 51.792969 76.171875 52.441406 76.171875 C 53.089844 76.171875 53.089844 76.183594 53.742188 76.183594 C 54.390625 76.183594 54.390625 76.335938 55.039062 76.335938 C 55.6875 76.335938 55.6875 76.261719 56.339844 76.261719 C 56.988281 76.261719 56.988281 76.328125 57.636719 76.328125 C 58.289062 76.328125 58.289062 76.328125 58.9375 76.328125 C 59.585938 76.328125 59.585938 76.28125 60.234375 76.28125 C 60.886719 76.28125 60.886719 76.296875 61.535156 76.296875 C 62.183594 76.296875 62.183594 76.316406 62.835938 76.316406 C 63.484375 76.316406 63.484375 76.265625 64.132812 76.265625 C 64.78125 76.265625 64.78125 76.300781 65.433594 76.300781 C 66.082031 76.300781 66.082031 76.289062 66.730469 76.289062 C 67.378906 76.289062 67.378906 76.335938 68.03125 76.335938 C 68.679688 76.335938 68.679688 76.292969 69.328125 76.292969 C 69.976562 76.292969 69.976562 76.246094 70.628906 76.246094 C 71.277344 76.246094 71.277344 76.203125 71.925781 76.203125 C 72.574219 76.203125 72.574219 76.28125 73.226562 76.28125 C 73.875 76.28125 73.875 76.28125 74.523438 76.28125 C 75.175781 76.28125 75.175781 76.324219 75.824219 76.324219 C 76.476562 76.324219 76.476562 76.234375 77.125 76.234375 C 77.773438 76.234375 77.773438 76.261719 78.425781 76.261719 C 79.074219 76.261719 79.074219 76.234375 79.722656 76.234375 C 80.375 76.234375 80.375 76.167969 81.023438 76.167969 C 81.675781 76.167969 81.675781 76.269531 82.324219 76.269531 C 82.976562 76.269531 82.976562 76.164062 83.625 76.164062 C 84.277344 76.164062 84.277344 76.339844 84.929688 76.339844 C 85.578125 76.339844 85.605469 76.070312 86.226562 76.269531 C 86.429688 76.335938 86.457031 76.695312 86.257812 76.757812 C 85.640625 76.960938 85.582031 76.675781 84.933594 76.675781 C 84.28125 76.675781 84.28125 76.636719 83.632812 76.636719 C 82.984375 76.636719 82.984375 76.707031 82.335938 76.707031 C 81.683594 76.707031 81.683594 76.683594 81.035156 76.683594 C 80.386719 76.683594 80.386719 76.65625 79.738281 76.65625 C 79.085938 76.65625 79.085938 76.742188 78.4375 76.742188 C 77.789062 76.742188 77.789062 76.761719 77.136719 76.761719 C 76.488281 76.761719 76.488281 76.628906 75.839844 76.628906 C 75.191406 76.628906 75.191406 76.679688 74.539062 76.679688 C 73.890625 76.679688 73.890625 76.644531 73.242188 76.644531 C 72.589844 76.644531 72.589844 76.730469 71.941406 76.730469 C 71.292969 76.730469 71.292969 76.714844 70.644531 76.714844 C 69.992188 76.714844 69.992188 76.734375 69.34375 76.734375 C 68.695312 76.734375 68.695312 76.707031 68.046875 76.707031 C 67.398438 76.707031 67.398438 76.636719 66.746094 76.636719 C 66.097656 76.636719 66.097656 76.695312 65.449219 76.695312 C 64.796875 76.695312 64.796875 76.691406 64.148438 76.691406 C 63.5 76.691406 63.5 76.640625 62.847656 76.640625 C 62.199219 76.640625 62.199219 76.765625 61.550781 76.765625 C 60.898438 76.765625 60.898438 76.625 60.25 76.625 C 59.597656 76.625 59.597656 76.601562 58.949219 76.601562 C 58.300781 76.601562 58.300781 76.652344 57.648438 76.652344 C 57 76.652344 57 76.691406 56.351562 76.691406 C 55.699219 76.691406 55.699219 76.59375 55.050781 76.59375 C 54.398438 76.59375 54.398438 76.730469 53.75 76.730469 C 53.097656 76.730469 53.097656 76.636719 52.445312 76.636719 C 51.792969 76.636719 51.792969 76.636719 51.144531 76.691406 C 51.429688 76.78125 51.714844 76.925781 51.917969 77.210938 C 52.117188 77.503906 52.257812 77.921875 52.308594 78.300781 C 52.140625 78.488281 51.96875 78.511719 51.761719 78.363281 C 51.734375 77.882812 51.597656 77.488281 51.359375 77.207031 C 51.089844 76.894531 50.683594 76.742188 50.246094 76.699219 C 50.101562 76.542969 50.085938 76.378906 50.230469 76.222656 C 50.667969 76.179688 51.078125 76.03125 51.347656 75.71875 C 51.585938 75.4375 51.796875 75.09375 51.824219 74.617188 C 51.988281 74.375 52.148438 74.441406 52.316406 74.628906 Z M 52.316406 74.628906 " fill-opacity="1" fill-rule="nonzero"/></g><g clip-path="url(#a6d905c0a0)"><path fill="#0661aa" d="M 97.660156 84.996094 L 37.332031 84.996094 L 37.332031 24.667969 L 97.660156 24.667969 Z M 37.714844 84.613281 L 97.277344 84.613281 L 97.277344 25.050781 L 37.714844 25.050781 Z M 37.714844 84.613281 " fill-opacity="1" fill-rule="nonzero"/></g><g clip-path="url(#6c3cf9bf73)"><path fill="#0661aa" d="M 85.925781 60.734375 L 85.160156 60.195312 C 83.898438 59.308594 81.90625 58.710938 80.457031 58.367188 C 79.886719 58.234375 79.171875 58.070312 78.496094 57.917969 C 77.789062 57.757812 77.132812 57.605469 76.75 57.511719 C 76.679688 57.09375 76.550781 56.625 76.40625 56.09375 C 76.117188 55.023438 75.75 53.691406 75.605469 51.882812 C 75.339844 48.539062 72.011719 47.945312 71.996094 47.945312 C 70.554688 47.492188 69.679688 47.289062 68.28125 47.289062 C 66.886719 47.289062 66.007812 47.492188 64.605469 47.9375 C 64.574219 47.941406 61.226562 48.527344 60.957031 51.882812 C 60.8125 53.691406 60.449219 55.023438 60.15625 56.09375 C 60.011719 56.625 59.882812 57.09375 59.816406 57.511719 C 59.433594 57.605469 58.773438 57.757812 58.070312 57.917969 C 57.394531 58.070312 56.675781 58.234375 56.109375 58.367188 C 54.660156 58.710938 52.667969 59.308594 51.40625 60.195312 L 50.640625 60.734375 L 51.578125 60.695312 C 52.089844 60.671875 53.472656 60.667969 55.039062 60.667969 C 53.667969 61.082031 52.925781 62.003906 52.734375 62.789062 L 52.726562 62.855469 C 52.726562 64.230469 54.617188 66.222656 59.933594 67.691406 C 62.734375 68.464844 65.714844 68.734375 68.253906 68.734375 C 69.457031 68.738281 70.65625 68.675781 71.851562 68.542969 C 71.933594 68.566406 72.019531 68.585938 72.101562 68.613281 L 72.160156 68.632812 L 72.222656 68.621094 C 73.976562 68.359375 75.464844 68.046875 76.640625 67.6875 C 81.148438 66.320312 83.839844 64.515625 83.839844 62.855469 L 83.832031 62.789062 C 83.636719 62.003906 82.894531 61.082031 81.523438 60.667969 C 83.089844 60.667969 84.472656 60.671875 84.988281 60.695312 Z M 71.890625 67.980469 C 71.644531 68.007812 71.386719 68.035156 71.109375 68.058594 C 70.792969 68.085938 70.457031 68.109375 70.109375 68.128906 C 67.292969 68.277344 63.519531 68.113281 60.078125 67.160156 C 55.421875 65.871094 53.3125 64.09375 53.277344 62.886719 C 53.5625 61.832031 55.089844 60.527344 58.183594 61.164062 C 58.683594 61.265625 60.347656 61.941406 62.484375 62.859375 C 62.570312 62.898438 62.652344 62.933594 62.738281 62.96875 C 62.824219 63.007812 62.90625 63.042969 62.992188 63.082031 C 64.40625 63.691406 65.992188 64.390625 67.566406 65.09375 L 67.90625 65.246094 L 68.242188 65.398438 C 69.210938 65.828125 70.164062 66.257812 71.0625 66.664062 L 71.410156 66.820312 L 71.738281 66.96875 C 72.335938 67.238281 72.902344 67.496094 73.425781 67.730469 C 72.917969 67.839844 72.40625 67.921875 71.890625 67.980469 Z M 58.503906 60.679688 C 60.0625 60.6875 61.269531 60.695312 61.300781 60.695312 L 61.425781 60.695312 L 61.511719 60.597656 C 62.59375 59.332031 63.878906 56.050781 64.054688 54.53125 C 64.355469 55.4375 64.609375 56.640625 64.664062 58.082031 C 64.394531 59.324219 63.324219 61.359375 62.757812 62.378906 C 60.78125 61.527344 59.195312 60.882812 58.503906 60.679688 Z M 83.289062 62.886719 C 83.25 63.925781 81.453125 65.65625 76.480469 67.164062 C 75.914062 67.332031 75.277344 67.496094 74.566406 67.644531 L 74.324219 67.535156 C 73.71875 67.261719 73.050781 66.957031 72.339844 66.636719 L 72.046875 66.503906 L 71.738281 66.363281 C 70.839844 65.957031 69.886719 65.53125 68.921875 65.097656 C 70.703125 64.308594 72.25 63.628906 73.5625 63.066406 C 73.648438 63.03125 73.734375 62.992188 73.820312 62.957031 C 73.90625 62.921875 73.992188 62.886719 74.074219 62.847656 C 76.449219 61.839844 77.929688 61.257812 78.378906 61.164062 C 81.476562 60.523438 83.003906 61.832031 83.289062 62.886719 Z M 71.898438 58.082031 C 71.9375 56.863281 72.140625 55.671875 72.511719 54.511719 C 72.515625 56.320312 74.03125 59.398438 75.054688 60.597656 L 75.136719 60.695312 L 75.265625 60.695312 C 75.296875 60.695312 76.5 60.6875 78.0625 60.679688 C 77.421875 60.867188 75.996094 61.429688 73.800781 62.367188 C 73.230469 61.339844 72.167969 59.320312 71.898438 58.082031 Z M 75.390625 60.144531 C 74.445312 58.964844 73.0625 56.117188 73.058594 54.527344 C 73.113281 53.96875 73.664062 52.636719 73.875 52.167969 L 74.101562 51.652344 L 73.554688 51.789062 C 72.753906 51.984375 71.472656 54.722656 71.347656 58.09375 L 71.347656 58.128906 L 71.355469 58.160156 C 71.625 59.460938 72.695312 61.511719 73.292969 62.582031 C 71.890625 63.183594 70.210938 63.921875 68.246094 64.792969 C 66.53125 64.027344 64.800781 63.261719 63.265625 62.597656 C 63.859375 61.53125 64.941406 59.464844 65.210938 58.160156 L 65.21875 58.128906 L 65.214844 58.09375 C 65.09375 54.722656 63.8125 51.984375 63.007812 51.789062 L 62.460938 51.652344 L 62.691406 52.167969 C 62.898438 52.628906 63.433594 53.925781 63.503906 54.496094 C 63.320312 56.015625 62.089844 58.980469 61.171875 60.144531 C 60.246094 60.136719 55.074219 60.101562 52.617188 60.125 C 53.828125 59.53125 55.332031 59.121094 56.234375 58.90625 C 56.800781 58.769531 57.519531 58.605469 58.191406 58.453125 C 59.027344 58.261719 59.800781 58.085938 60.132812 58 L 60.3125 57.953125 L 60.335938 57.769531 C 60.386719 57.34375 60.527344 56.832031 60.6875 56.238281 C 60.988281 55.144531 61.359375 53.785156 61.507812 51.929688 C 61.738281 49.007812 64.574219 48.5 64.734375 48.46875 C 66.144531 48.023438 66.949219 47.839844 68.28125 47.839844 C 69.613281 47.839844 70.417969 48.023438 71.867188 48.480469 C 71.898438 48.484375 74.824219 48.996094 75.058594 51.929688 C 75.207031 53.785156 75.578125 55.148438 75.875 56.238281 C 76.039062 56.832031 76.175781 57.34375 76.230469 57.769531 L 76.25 57.953125 L 76.433594 58 C 76.761719 58.085938 77.535156 58.261719 78.375 58.453125 C 79.046875 58.605469 79.761719 58.769531 80.328125 58.90625 C 81.234375 59.121094 82.734375 59.53125 83.945312 60.125 C 81.492188 60.101562 76.3125 60.136719 75.390625 60.144531 Z M 68.289062 46.425781 C 68.566406 46.425781 68.84375 46.394531 69.117188 46.332031 C 69.390625 46.269531 69.652344 46.179688 69.90625 46.058594 C 70.160156 45.9375 70.394531 45.792969 70.617188 45.621094 C 70.835938 45.449219 71.035156 45.253906 71.210938 45.039062 C 71.390625 44.820312 71.539062 44.589844 71.667969 44.339844 C 71.792969 44.089844 71.890625 43.828125 71.957031 43.558594 C 72.027344 43.285156 72.0625 43.011719 72.070312 42.730469 C 72.078125 42.449219 72.054688 42.175781 72 41.898438 C 71.945312 41.625 71.863281 41.359375 71.75 41.105469 C 71.636719 40.847656 71.496094 40.609375 71.332031 40.382812 C 71.164062 40.15625 70.976562 39.953125 70.765625 39.769531 C 70.554688 39.585938 70.324219 39.429688 70.078125 39.296875 C 69.832031 39.164062 69.574219 39.058594 69.304688 38.984375 C 69.035156 38.90625 68.761719 38.863281 68.484375 38.847656 C 68.203125 38.832031 67.925781 38.847656 67.648438 38.894531 C 67.375 38.941406 67.105469 39.015625 66.847656 39.125 C 66.589844 39.230469 66.34375 39.363281 66.113281 39.519531 C 65.886719 39.679688 65.675781 39.863281 65.488281 40.070312 C 65.296875 40.277344 65.132812 40.5 64.996094 40.742188 C 64.855469 40.984375 64.742188 41.242188 64.660156 41.507812 C 64.578125 41.773438 64.523438 42.046875 64.5 42.328125 C 64.480469 42.605469 64.488281 42.882812 64.527344 43.160156 C 64.566406 43.4375 64.632812 43.707031 64.730469 43.96875 C 64.832031 44.230469 64.957031 44.476562 65.109375 44.710938 C 65.460938 45.25 65.917969 45.667969 66.480469 45.972656 C 67.046875 46.277344 67.648438 46.429688 68.289062 46.425781 Z M 66.507812 39.921875 C 66.867188 39.6875 67.257812 39.527344 67.679688 39.449219 C 68.101562 39.367188 68.523438 39.371094 68.945312 39.460938 C 69.363281 39.546875 69.753906 39.714844 70.109375 39.957031 C 70.464844 40.199219 70.757812 40.5 70.996094 40.859375 C 71.230469 41.21875 71.386719 41.609375 71.46875 42.03125 C 71.546875 42.453125 71.542969 42.875 71.457031 43.296875 C 71.367188 43.714844 71.203125 44.105469 70.960938 44.460938 C 70.71875 44.816406 70.417969 45.109375 70.058594 45.347656 C 69.699219 45.582031 69.308594 45.738281 68.886719 45.820312 C 68.460938 45.898438 68.042969 45.894531 67.621094 45.808594 C 67.199219 45.71875 66.8125 45.554688 66.457031 45.3125 C 66.101562 45.070312 65.804688 44.769531 65.570312 44.410156 C 65.332031 44.050781 65.171875 43.660156 65.089844 43.238281 C 65.011719 42.8125 65.011719 42.390625 65.101562 41.96875 C 65.1875 41.546875 65.355469 41.160156 65.597656 40.804688 C 65.84375 40.449219 66.144531 40.15625 66.507812 39.921875 Z M 66.507812 39.921875 " fill-opacity="1" fill-rule="nonzero"/></g><g fill="#2d6d5e" fill-opacity="1"><g transform="translate(30.346998, 120.266958)"><g><path d="M 2.46875 0 L 1.625 0 L 1.625 -7.03125 L 0.09375 -7.03125 L 0.09375 -7.8125 L 4 -7.8125 L 4 -7.03125 L 2.46875 -7.03125 Z M 2.46875 0 "/></g></g></g><g fill="#2d6d5e" fill-opacity="1"><g transform="translate(35.993526, 120.266958)"><g><path d="M 4.359375 -2.9375 C 4.359375 -2.476562 4.316406 -2.0625 4.234375 -1.6875 C 4.160156 -1.3125 4.039062 -0.988281 3.875 -0.71875 C 3.71875 -0.457031 3.515625 -0.253906 3.265625 -0.109375 C 3.023438 0.0351562 2.734375 0.109375 2.390625 0.109375 C 2.078125 0.109375 1.796875 0.0351562 1.546875 -0.109375 C 1.304688 -0.253906 1.101562 -0.457031 0.9375 -0.71875 C 0.78125 -0.976562 0.660156 -1.296875 0.578125 -1.671875 C 0.503906 -2.054688 0.46875 -2.476562 0.46875 -2.9375 C 0.46875 -3.582031 0.535156 -4.128906 0.671875 -4.578125 C 0.804688 -5.035156 1.019531 -5.378906 1.3125 -5.609375 C 1.601562 -5.847656 1.96875 -5.96875 2.40625 -5.96875 C 2.820312 -5.96875 3.175781 -5.851562 3.46875 -5.625 C 3.757812 -5.394531 3.976562 -5.054688 4.125 -4.609375 C 4.28125 -4.160156 4.359375 -3.601562 4.359375 -2.9375 Z M 1.296875 -2.9375 C 1.296875 -2.425781 1.332031 -2 1.40625 -1.65625 C 1.488281 -1.3125 1.613281 -1.050781 1.78125 -0.875 C 1.945312 -0.695312 2.160156 -0.609375 2.421875 -0.609375 C 2.671875 -0.609375 2.875 -0.691406 3.03125 -0.859375 C 3.195312 -1.035156 3.316406 -1.296875 3.390625 -1.640625 C 3.472656 -1.984375 3.515625 -2.414062 3.515625 -2.9375 C 3.515625 -3.445312 3.472656 -3.875 3.390625 -4.21875 C 3.316406 -4.5625 3.195312 -4.816406 3.03125 -4.984375 C 2.875 -5.160156 2.664062 -5.25 2.40625 -5.25 C 2.019531 -5.25 1.738281 -5.054688 1.5625 -4.671875 C 1.382812 -4.285156 1.296875 -3.707031 1.296875 -2.9375 Z M 1.296875 -2.9375 "/></g></g></g><g fill="#2d6d5e" fill-opacity="1"><g transform="translate(42.345254, 120.266958)"><g/></g></g><g fill="#2d6d5e" fill-opacity="1"><g transform="translate(45.908233, 120.266958)"><g><path d="M 3.328125 -1.546875 C 3.328125 -1.191406 3.257812 -0.890625 3.125 -0.640625 C 3 -0.398438 2.8125 -0.210938 2.5625 -0.078125 C 2.320312 0.046875 2.03125 0.109375 1.6875 0.109375 C 1.414062 0.109375 1.164062 0.078125 0.9375 0.015625 C 0.71875 -0.046875 0.53125 -0.125 0.375 -0.21875 L 0.375 -1.078125 C 0.53125 -0.941406 0.722656 -0.832031 0.953125 -0.75 C 1.179688 -0.664062 1.414062 -0.625 1.65625 -0.625 C 1.925781 -0.625 2.132812 -0.703125 2.28125 -0.859375 C 2.4375 -1.015625 2.515625 -1.234375 2.515625 -1.515625 C 2.515625 -1.679688 2.484375 -1.828125 2.421875 -1.953125 C 2.359375 -2.078125 2.257812 -2.195312 2.125 -2.3125 C 1.988281 -2.425781 1.816406 -2.546875 1.609375 -2.671875 C 1.359375 -2.816406 1.140625 -2.96875 0.953125 -3.125 C 0.765625 -3.289062 0.617188 -3.476562 0.515625 -3.6875 C 0.421875 -3.894531 0.375 -4.144531 0.375 -4.4375 C 0.375 -4.894531 0.519531 -5.265625 0.8125 -5.546875 C 1.113281 -5.828125 1.503906 -5.96875 1.984375 -5.96875 C 2.234375 -5.96875 2.46875 -5.9375 2.6875 -5.875 C 2.90625 -5.8125 3.113281 -5.71875 3.3125 -5.59375 L 3 -4.9375 C 2.851562 -5.039062 2.691406 -5.117188 2.515625 -5.171875 C 2.347656 -5.234375 2.175781 -5.265625 2 -5.265625 C 1.738281 -5.265625 1.53125 -5.191406 1.375 -5.046875 C 1.226562 -4.898438 1.15625 -4.707031 1.15625 -4.46875 C 1.15625 -4.300781 1.1875 -4.15625 1.25 -4.03125 C 1.3125 -3.914062 1.410156 -3.800781 1.546875 -3.6875 C 1.679688 -3.582031 1.863281 -3.460938 2.09375 -3.328125 C 2.34375 -3.171875 2.554688 -3.015625 2.734375 -2.859375 C 2.921875 -2.703125 3.066406 -2.519531 3.171875 -2.3125 C 3.273438 -2.101562 3.328125 -1.847656 3.328125 -1.546875 Z M 3.328125 -1.546875 "/></g></g></g><g fill="#2d6d5e" fill-opacity="1"><g transform="translate(51.116681, 120.266958)"><g><path d="M 2.09375 -0.625 C 2.1875 -0.625 2.273438 -0.628906 2.359375 -0.640625 C 2.453125 -0.660156 2.535156 -0.691406 2.609375 -0.734375 L 2.609375 -0.0625 C 2.503906 -0.0078125 2.382812 0.03125 2.25 0.0625 C 2.125 0.09375 1.984375 0.109375 1.828125 0.109375 C 1.578125 0.109375 1.367188 0.0507812 1.203125 -0.0625 C 1.046875 -0.175781 0.925781 -0.34375 0.84375 -0.5625 C 0.769531 -0.789062 0.734375 -1.078125 0.734375 -1.421875 L 0.734375 -5.171875 L 0.1875 -5.171875 L 0.1875 -5.625 L 0.78125 -5.84375 L 1 -7.1875 L 1.5625 -7.1875 L 1.5625 -5.859375 L 2.546875 -5.859375 L 2.546875 -5.171875 L 1.5625 -5.171875 L 1.5625 -1.515625 C 1.5625 -1.210938 1.597656 -0.988281 1.671875 -0.84375 C 1.742188 -0.695312 1.882812 -0.625 2.09375 -0.625 Z M 2.09375 -0.625 "/></g></g></g><g fill="#2d6d5e" fill-opacity="1"><g transform="translate(55.422258, 120.266958)"><g><path d="M 2.328125 -5.953125 C 2.722656 -5.953125 3.050781 -5.835938 3.3125 -5.609375 C 3.570312 -5.378906 3.765625 -5.066406 3.890625 -4.671875 C 4.015625 -4.285156 4.078125 -3.851562 4.078125 -3.375 L 4.078125 -2.78125 L 1.28125 -2.78125 C 1.289062 -2.050781 1.40625 -1.503906 1.625 -1.140625 C 1.84375 -0.773438 2.171875 -0.59375 2.609375 -0.59375 C 2.828125 -0.59375 3.035156 -0.625 3.234375 -0.6875 C 3.441406 -0.75 3.648438 -0.851562 3.859375 -1 L 3.859375 -0.265625 C 3.660156 -0.140625 3.453125 -0.046875 3.234375 0.015625 C 3.015625 0.078125 2.78125 0.109375 2.53125 0.109375 C 2.039062 0.109375 1.644531 -0.0195312 1.34375 -0.28125 C 1.039062 -0.539062 0.816406 -0.898438 0.671875 -1.359375 C 0.535156 -1.816406 0.46875 -2.332031 0.46875 -2.90625 C 0.46875 -3.550781 0.535156 -4.101562 0.671875 -4.5625 C 0.816406 -5.019531 1.023438 -5.363281 1.296875 -5.59375 C 1.578125 -5.832031 1.921875 -5.953125 2.328125 -5.953125 Z M 2.328125 -5.28125 C 2.015625 -5.28125 1.769531 -5.128906 1.59375 -4.828125 C 1.425781 -4.535156 1.328125 -4.070312 1.296875 -3.4375 L 3.3125 -3.4375 C 3.3125 -3.769531 3.273438 -4.078125 3.203125 -4.359375 C 3.140625 -4.640625 3.035156 -4.863281 2.890625 -5.03125 C 2.742188 -5.195312 2.554688 -5.28125 2.328125 -5.28125 Z M 2.328125 -5.28125 "/></g></g></g><g fill="#2d6d5e" fill-opacity="1"><g transform="translate(61.480152, 120.266958)"><g><path d="M 2.28125 -5.96875 C 2.820312 -5.96875 3.207031 -5.796875 3.4375 -5.453125 C 3.675781 -5.109375 3.796875 -4.609375 3.796875 -3.953125 L 3.796875 0 L 3.171875 0 L 3.046875 -0.828125 L 3.015625 -0.828125 C 2.929688 -0.628906 2.820312 -0.457031 2.6875 -0.3125 C 2.5625 -0.175781 2.414062 -0.0703125 2.25 0 C 2.09375 0.0703125 1.90625 0.109375 1.6875 0.109375 C 1.382812 0.109375 1.132812 0.03125 0.9375 -0.125 C 0.75 -0.289062 0.609375 -0.503906 0.515625 -0.765625 C 0.421875 -1.023438 0.375 -1.304688 0.375 -1.609375 C 0.375 -2.191406 0.539062 -2.640625 0.875 -2.953125 C 1.21875 -3.273438 1.695312 -3.453125 2.3125 -3.484375 L 2.96875 -3.53125 L 2.96875 -3.9375 C 2.96875 -4.40625 2.90625 -4.742188 2.78125 -4.953125 C 2.65625 -5.171875 2.445312 -5.28125 2.15625 -5.28125 C 2 -5.28125 1.828125 -5.25 1.640625 -5.1875 C 1.460938 -5.132812 1.269531 -5.046875 1.0625 -4.921875 L 0.796875 -5.546875 C 1.015625 -5.691406 1.25 -5.796875 1.5 -5.859375 C 1.757812 -5.929688 2.019531 -5.96875 2.28125 -5.96875 Z M 2.984375 -2.921875 L 2.4375 -2.890625 C 2.03125 -2.867188 1.722656 -2.753906 1.515625 -2.546875 C 1.316406 -2.335938 1.21875 -2.035156 1.21875 -1.640625 C 1.21875 -1.265625 1.28125 -0.988281 1.40625 -0.8125 C 1.539062 -0.644531 1.722656 -0.5625 1.953125 -0.5625 C 2.285156 -0.5625 2.539062 -0.71875 2.71875 -1.03125 C 2.894531 -1.34375 2.984375 -1.773438 2.984375 -2.328125 Z M 2.984375 -2.921875 "/></g></g></g><g fill="#2d6d5e" fill-opacity="1"><g transform="translate(67.505992, 120.266958)"><g><path d="M 2.171875 0.109375 C 1.609375 0.109375 1.179688 -0.144531 0.890625 -0.65625 C 0.609375 -1.175781 0.46875 -1.929688 0.46875 -2.921875 C 0.46875 -3.898438 0.613281 -4.648438 0.90625 -5.171875 C 1.195312 -5.703125 1.609375 -5.96875 2.140625 -5.96875 C 2.335938 -5.96875 2.519531 -5.929688 2.6875 -5.859375 C 2.851562 -5.785156 3 -5.679688 3.125 -5.546875 C 3.257812 -5.410156 3.375 -5.25 3.46875 -5.0625 L 3.515625 -5.0625 C 3.503906 -5.226562 3.492188 -5.375 3.484375 -5.5 C 3.484375 -5.632812 3.484375 -5.757812 3.484375 -5.875 L 3.484375 -8.3125 L 4.296875 -8.3125 L 4.296875 0 L 3.640625 0 L 3.53125 -0.796875 L 3.484375 -0.796875 C 3.378906 -0.609375 3.265625 -0.445312 3.140625 -0.3125 C 3.015625 -0.175781 2.875 -0.0703125 2.71875 0 C 2.5625 0.0703125 2.378906 0.109375 2.171875 0.109375 Z M 2.359375 -0.59375 C 2.722656 -0.59375 3 -0.765625 3.1875 -1.109375 C 3.382812 -1.453125 3.484375 -1.960938 3.484375 -2.640625 L 3.484375 -3.046875 C 3.484375 -3.785156 3.390625 -4.332031 3.203125 -4.6875 C 3.023438 -5.050781 2.738281 -5.234375 2.34375 -5.234375 C 1.988281 -5.234375 1.722656 -5.035156 1.546875 -4.640625 C 1.378906 -4.242188 1.296875 -3.671875 1.296875 -2.921875 C 1.296875 -2.148438 1.378906 -1.566406 1.546875 -1.171875 C 1.722656 -0.785156 1.992188 -0.59375 2.359375 -0.59375 Z M 2.359375 -0.59375 "/></g></g></g><g fill="#2d6d5e" fill-opacity="1"><g transform="translate(74.044705, 120.266958)"><g><path d="M 0.0625 -5.859375 L 0.90625 -5.859375 L 1.734375 -2.4375 C 1.773438 -2.289062 1.804688 -2.144531 1.828125 -2 C 1.859375 -1.851562 1.882812 -1.707031 1.90625 -1.5625 C 1.9375 -1.425781 1.960938 -1.285156 1.984375 -1.140625 L 2.03125 -1.140625 C 2.0625 -1.347656 2.097656 -1.554688 2.140625 -1.765625 C 2.179688 -1.984375 2.226562 -2.207031 2.28125 -2.4375 L 3.09375 -5.859375 L 3.9375 -5.859375 L 2.1875 0.9375 C 2.09375 1.332031 1.972656 1.65625 1.828125 1.90625 C 1.691406 2.15625 1.53125 2.335938 1.34375 2.453125 C 1.15625 2.566406 0.929688 2.625 0.671875 2.625 C 0.585938 2.625 0.503906 2.613281 0.421875 2.59375 C 0.335938 2.582031 0.25 2.5625 0.15625 2.53125 L 0.15625 1.8125 C 0.21875 1.832031 0.285156 1.847656 0.359375 1.859375 C 0.429688 1.878906 0.503906 1.890625 0.578125 1.890625 C 0.710938 1.890625 0.828125 1.851562 0.921875 1.78125 C 1.015625 1.707031 1.097656 1.59375 1.171875 1.4375 C 1.242188 1.28125 1.316406 1.0625 1.390625 0.78125 L 1.609375 -0.046875 Z M 0.0625 -5.859375 "/></g></g></g><g fill="#2d6d5e" fill-opacity="1"><g transform="translate(79.563014, 120.266958)"><g/></g></g><g fill="#2d6d5e" fill-opacity="1"><g transform="translate(83.125993, 120.266958)"><g><path d="M 0.0625 -5.859375 L 0.90625 -5.859375 L 1.734375 -2.4375 C 1.773438 -2.289062 1.804688 -2.144531 1.828125 -2 C 1.859375 -1.851562 1.882812 -1.707031 1.90625 -1.5625 C 1.9375 -1.425781 1.960938 -1.285156 1.984375 -1.140625 L 2.03125 -1.140625 C 2.0625 -1.347656 2.097656 -1.554688 2.140625 -1.765625 C 2.179688 -1.984375 2.226562 -2.207031 2.28125 -2.4375 L 3.09375 -5.859375 L 3.9375 -5.859375 L 2.1875 0.9375 C 2.09375 1.332031 1.972656 1.65625 1.828125 1.90625 C 1.691406 2.15625 1.53125 2.335938 1.34375 2.453125 C 1.15625 2.566406 0.929688 2.625 0.671875 2.625 C 0.585938 2.625 0.503906 2.613281 0.421875 2.59375 C 0.335938 2.582031 0.25 2.5625 0.15625 2.53125 L 0.15625 1.8125 C 0.21875 1.832031 0.285156 1.847656 0.359375 1.859375 C 0.429688 1.878906 0.503906 1.890625 0.578125 1.890625 C 0.710938 1.890625 0.828125 1.851562 0.921875 1.78125 C 1.015625 1.707031 1.097656 1.59375 1.171875 1.4375 C 1.242188 1.28125 1.316406 1.0625 1.390625 0.78125 L 1.609375 -0.046875 Z M 0.0625 -5.859375 "/></g></g></g><g fill="#2d6d5e" fill-opacity="1"><g transform="translate(88.644302, 120.266958)"><g><path d="M 4.359375 -2.9375 C 4.359375 -2.476562 4.316406 -2.0625 4.234375 -1.6875 C 4.160156 -1.3125 4.039062 -0.988281 3.875 -0.71875 C 3.71875 -0.457031 3.515625 -0.253906 3.265625 -0.109375 C 3.023438 0.0351562 2.734375 0.109375 2.390625 0.109375 C 2.078125 0.109375 1.796875 0.0351562 1.546875 -0.109375 C 1.304688 -0.253906 1.101562 -0.457031 0.9375 -0.71875 C 0.78125 -0.976562 0.660156 -1.296875 0.578125 -1.671875 C 0.503906 -2.054688 0.46875 -2.476562 0.46875 -2.9375 C 0.46875 -3.582031 0.535156 -4.128906 0.671875 -4.578125 C 0.804688 -5.035156 1.019531 -5.378906 1.3125 -5.609375 C 1.601562 -5.847656 1.96875 -5.96875 2.40625 -5.96875 C 2.820312 -5.96875 3.175781 -5.851562 3.46875 -5.625 C 3.757812 -5.394531 3.976562 -5.054688 4.125 -4.609375 C 4.28125 -4.160156 4.359375 -3.601562 4.359375 -2.9375 Z M 1.296875 -2.9375 C 1.296875 -2.425781 1.332031 -2 1.40625 -1.65625 C 1.488281 -1.3125 1.613281 -1.050781 1.78125 -0.875 C 1.945312 -0.695312 2.160156 -0.609375 2.421875 -0.609375 C 2.671875 -0.609375 2.875 -0.691406 3.03125 -0.859375 C 3.195312 -1.035156 3.316406 -1.296875 3.390625 -1.640625 C 3.472656 -1.984375 3.515625 -2.414062 3.515625 -2.9375 C 3.515625 -3.445312 3.472656 -3.875 3.390625 -4.21875 C 3.316406 -4.5625 3.195312 -4.816406 3.03125 -4.984375 C 2.875 -5.160156 2.664062 -5.25 2.40625 -5.25 C 2.019531 -5.25 1.738281 -5.054688 1.5625 -4.671875 C 1.382812 -4.285156 1.296875 -3.707031 1.296875 -2.9375 Z M 1.296875 -2.9375 "/></g></g></g><g fill="#2d6d5e" fill-opacity="1"><g transform="translate(94.99603, 120.266958)"><g><path d="M 4.21875 -5.859375 L 4.21875 0 L 3.5625 0 L 3.46875 -0.828125 L 3.40625 -0.828125 C 3.332031 -0.640625 3.226562 -0.472656 3.09375 -0.328125 C 2.96875 -0.191406 2.820312 -0.0820312 2.65625 0 C 2.5 0.0703125 2.316406 0.109375 2.109375 0.109375 C 1.773438 0.109375 1.503906 0.0234375 1.296875 -0.140625 C 1.085938 -0.316406 0.929688 -0.5625 0.828125 -0.875 C 0.734375 -1.195312 0.6875 -1.578125 0.6875 -2.015625 L 0.6875 -5.859375 L 1.515625 -5.859375 L 1.515625 -2.171875 C 1.515625 -1.640625 1.578125 -1.25 1.703125 -1 C 1.828125 -0.75 2.015625 -0.625 2.265625 -0.625 C 2.535156 -0.625 2.753906 -0.695312 2.921875 -0.84375 C 3.085938 -1 3.207031 -1.234375 3.28125 -1.546875 C 3.351562 -1.859375 3.390625 -2.25 3.390625 -2.71875 L 3.390625 -5.859375 Z M 4.21875 -5.859375 "/></g></g></g><g fill="#2d6d5e" fill-opacity="1"><g transform="translate(101.459949, 120.266958)"><g><path d="M 2.671875 -5.96875 C 2.753906 -5.96875 2.835938 -5.957031 2.921875 -5.9375 C 3.003906 -5.925781 3.085938 -5.910156 3.171875 -5.890625 L 3.046875 -5.046875 C 2.984375 -5.066406 2.914062 -5.082031 2.84375 -5.09375 C 2.769531 -5.101562 2.691406 -5.109375 2.609375 -5.109375 C 2.453125 -5.109375 2.304688 -5.054688 2.171875 -4.953125 C 2.035156 -4.847656 1.921875 -4.703125 1.828125 -4.515625 C 1.734375 -4.328125 1.660156 -4.109375 1.609375 -3.859375 C 1.554688 -3.609375 1.53125 -3.34375 1.53125 -3.0625 L 1.53125 0 L 0.71875 0 L 0.71875 -5.859375 L 1.359375 -5.859375 L 1.46875 -4.828125 L 1.515625 -4.828125 C 1.597656 -5.046875 1.691406 -5.238281 1.796875 -5.40625 C 1.910156 -5.582031 2.039062 -5.71875 2.1875 -5.8125 C 2.332031 -5.914062 2.492188 -5.96875 2.671875 -5.96875 Z M 2.671875 -5.96875 "/></g></g></g><g fill="#2d6d5e" fill-opacity="1"><g transform="translate(25.272943, 132.957929)"><g><path d="M 1.53125 -8.3125 L 1.53125 -5.859375 C 1.53125 -5.742188 1.523438 -5.613281 1.515625 -5.46875 C 1.515625 -5.332031 1.515625 -5.1875 1.515625 -5.03125 L 1.546875 -5.03125 C 1.691406 -5.34375 1.875 -5.570312 2.09375 -5.71875 C 2.3125 -5.875 2.5625 -5.953125 2.84375 -5.953125 C 3.40625 -5.953125 3.832031 -5.695312 4.125 -5.1875 C 4.414062 -4.675781 4.5625 -3.925781 4.5625 -2.9375 C 4.5625 -2.28125 4.492188 -1.722656 4.359375 -1.265625 C 4.234375 -0.816406 4.039062 -0.472656 3.78125 -0.234375 C 3.53125 -0.00390625 3.226562 0.109375 2.875 0.109375 C 2.582031 0.109375 2.328125 0.0351562 2.109375 -0.109375 C 1.890625 -0.253906 1.703125 -0.476562 1.546875 -0.78125 L 1.5 -0.78125 L 1.390625 0 L 0.71875 0 L 0.71875 -8.3125 Z M 2.671875 -5.234375 C 2.367188 -5.234375 2.132812 -5.140625 1.96875 -4.953125 C 1.8125 -4.765625 1.695312 -4.503906 1.625 -4.171875 C 1.5625 -3.835938 1.53125 -3.457031 1.53125 -3.03125 L 1.53125 -2.78125 C 1.53125 -2.039062 1.625 -1.492188 1.8125 -1.140625 C 2.007812 -0.785156 2.296875 -0.609375 2.671875 -0.609375 C 3.023438 -0.609375 3.285156 -0.796875 3.453125 -1.171875 C 3.628906 -1.554688 3.71875 -2.148438 3.71875 -2.953125 C 3.71875 -3.703125 3.632812 -4.269531 3.46875 -4.65625 C 3.300781 -5.039062 3.035156 -5.234375 2.671875 -5.234375 Z M 2.671875 -5.234375 "/></g></g></g><g fill="#2d6d5e" fill-opacity="1"><g transform="translate(31.811656, 132.957929)"><g><path d="M 2.671875 -5.96875 C 2.753906 -5.96875 2.835938 -5.957031 2.921875 -5.9375 C 3.003906 -5.925781 3.085938 -5.910156 3.171875 -5.890625 L 3.046875 -5.046875 C 2.984375 -5.066406 2.914062 -5.082031 2.84375 -5.09375 C 2.769531 -5.101562 2.691406 -5.109375 2.609375 -5.109375 C 2.453125 -5.109375 2.304688 -5.054688 2.171875 -4.953125 C 2.035156 -4.847656 1.921875 -4.703125 1.828125 -4.515625 C 1.734375 -4.328125 1.660156 -4.109375 1.609375 -3.859375 C 1.554688 -3.609375 1.53125 -3.34375 1.53125 -3.0625 L 1.53125 0 L 0.71875 0 L 0.71875 -5.859375 L 1.359375 -5.859375 L 1.46875 -4.828125 L 1.515625 -4.828125 C 1.597656 -5.046875 1.691406 -5.238281 1.796875 -5.40625 C 1.910156 -5.582031 2.039062 -5.71875 2.1875 -5.8125 C 2.332031 -5.914062 2.492188 -5.96875 2.671875 -5.96875 Z M 2.671875 -5.96875 "/></g></g></g><g fill="#2d6d5e" fill-opacity="1"><g transform="translate(36.624764, 132.957929)"><g><path d="M 2.328125 -5.953125 C 2.722656 -5.953125 3.050781 -5.835938 3.3125 -5.609375 C 3.570312 -5.378906 3.765625 -5.066406 3.890625 -4.671875 C 4.015625 -4.285156 4.078125 -3.851562 4.078125 -3.375 L 4.078125 -2.78125 L 1.28125 -2.78125 C 1.289062 -2.050781 1.40625 -1.503906 1.625 -1.140625 C 1.84375 -0.773438 2.171875 -0.59375 2.609375 -0.59375 C 2.828125 -0.59375 3.035156 -0.625 3.234375 -0.6875 C 3.441406 -0.75 3.648438 -0.851562 3.859375 -1 L 3.859375 -0.265625 C 3.660156 -0.140625 3.453125 -0.046875 3.234375 0.015625 C 3.015625 0.078125 2.78125 0.109375 2.53125 0.109375 C 2.039062 0.109375 1.644531 -0.0195312 1.34375 -0.28125 C 1.039062 -0.539062 0.816406 -0.898438 0.671875 -1.359375 C 0.535156 -1.816406 0.46875 -2.332031 0.46875 -2.90625 C 0.46875 -3.550781 0.535156 -4.101562 0.671875 -4.5625 C 0.816406 -5.019531 1.023438 -5.363281 1.296875 -5.59375 C 1.578125 -5.832031 1.921875 -5.953125 2.328125 -5.953125 Z M 2.328125 -5.28125 C 2.015625 -5.28125 1.769531 -5.128906 1.59375 -4.828125 C 1.425781 -4.535156 1.328125 -4.070312 1.296875 -3.4375 L 3.3125 -3.4375 C 3.3125 -3.769531 3.273438 -4.078125 3.203125 -4.359375 C 3.140625 -4.640625 3.035156 -4.863281 2.890625 -5.03125 C 2.742188 -5.195312 2.554688 -5.28125 2.328125 -5.28125 Z M 2.328125 -5.28125 "/></g></g></g><g fill="#2d6d5e" fill-opacity="1"><g transform="translate(42.682658, 132.957929)"><g><path d="M 2.28125 -5.96875 C 2.820312 -5.96875 3.207031 -5.796875 3.4375 -5.453125 C 3.675781 -5.109375 3.796875 -4.609375 3.796875 -3.953125 L 3.796875 0 L 3.171875 0 L 3.046875 -0.828125 L 3.015625 -0.828125 C 2.929688 -0.628906 2.820312 -0.457031 2.6875 -0.3125 C 2.5625 -0.175781 2.414062 -0.0703125 2.25 0 C 2.09375 0.0703125 1.90625 0.109375 1.6875 0.109375 C 1.382812 0.109375 1.132812 0.03125 0.9375 -0.125 C 0.75 -0.289062 0.609375 -0.503906 0.515625 -0.765625 C 0.421875 -1.023438 0.375 -1.304688 0.375 -1.609375 C 0.375 -2.191406 0.539062 -2.640625 0.875 -2.953125 C 1.21875 -3.273438 1.695312 -3.453125 2.3125 -3.484375 L 2.96875 -3.53125 L 2.96875 -3.9375 C 2.96875 -4.40625 2.90625 -4.742188 2.78125 -4.953125 C 2.65625 -5.171875 2.445312 -5.28125 2.15625 -5.28125 C 2 -5.28125 1.828125 -5.25 1.640625 -5.1875 C 1.460938 -5.132812 1.269531 -5.046875 1.0625 -4.921875 L 0.796875 -5.546875 C 1.015625 -5.691406 1.25 -5.796875 1.5 -5.859375 C 1.757812 -5.929688 2.019531 -5.96875 2.28125 -5.96875 Z M 2.984375 -2.921875 L 2.4375 -2.890625 C 2.03125 -2.867188 1.722656 -2.753906 1.515625 -2.546875 C 1.316406 -2.335938 1.21875 -2.035156 1.21875 -1.640625 C 1.21875 -1.265625 1.28125 -0.988281 1.40625 -0.8125 C 1.539062 -0.644531 1.722656 -0.5625 1.953125 -0.5625 C 2.285156 -0.5625 2.539062 -0.71875 2.71875 -1.03125 C 2.894531 -1.34375 2.984375 -1.773438 2.984375 -2.328125 Z M 2.984375 -2.921875 "/></g></g></g><g fill="#2d6d5e" fill-opacity="1"><g transform="translate(48.708498, 132.957929)"><g><path d="M 2.09375 -0.625 C 2.1875 -0.625 2.273438 -0.628906 2.359375 -0.640625 C 2.453125 -0.660156 2.535156 -0.691406 2.609375 -0.734375 L 2.609375 -0.0625 C 2.503906 -0.0078125 2.382812 0.03125 2.25 0.0625 C 2.125 0.09375 1.984375 0.109375 1.828125 0.109375 C 1.578125 0.109375 1.367188 0.0507812 1.203125 -0.0625 C 1.046875 -0.175781 0.925781 -0.34375 0.84375 -0.5625 C 0.769531 -0.789062 0.734375 -1.078125 0.734375 -1.421875 L 0.734375 -5.171875 L 0.1875 -5.171875 L 0.1875 -5.625 L 0.78125 -5.84375 L 1 -7.1875 L 1.5625 -7.1875 L 1.5625 -5.859375 L 2.546875 -5.859375 L 2.546875 -5.171875 L 1.5625 -5.171875 L 1.5625 -1.515625 C 1.5625 -1.210938 1.597656 -0.988281 1.671875 -0.84375 C 1.742188 -0.695312 1.882812 -0.625 2.09375 -0.625 Z M 2.09375 -0.625 "/></g></g></g><g fill="#2d6d5e" fill-opacity="1"><g transform="translate(53.014075, 132.957929)"><g><path d="M 1.53125 -8.3125 L 1.53125 -5.890625 C 1.53125 -5.734375 1.523438 -5.582031 1.515625 -5.4375 C 1.515625 -5.300781 1.503906 -5.164062 1.484375 -5.03125 L 1.53125 -5.03125 C 1.601562 -5.226562 1.703125 -5.394531 1.828125 -5.53125 C 1.960938 -5.664062 2.113281 -5.769531 2.28125 -5.84375 C 2.445312 -5.925781 2.625 -5.96875 2.8125 -5.96875 C 3.144531 -5.96875 3.414062 -5.890625 3.625 -5.734375 C 3.832031 -5.585938 3.984375 -5.367188 4.078125 -5.078125 C 4.179688 -4.785156 4.234375 -4.421875 4.234375 -3.984375 L 4.234375 0 L 3.40625 0 L 3.40625 -3.828125 C 3.40625 -4.328125 3.34375 -4.6875 3.21875 -4.90625 C 3.101562 -5.125 2.910156 -5.234375 2.640625 -5.234375 C 2.390625 -5.234375 2.179688 -5.15625 2.015625 -5 C 1.859375 -4.851562 1.738281 -4.617188 1.65625 -4.296875 C 1.570312 -3.972656 1.53125 -3.566406 1.53125 -3.078125 L 1.53125 0 L 0.71875 0 L 0.71875 -8.3125 Z M 1.53125 -8.3125 "/></g></g></g><g fill="#2d6d5e" fill-opacity="1"><g transform="translate(59.477994, 132.957929)"><g/></g></g><g fill="#2d6d5e" fill-opacity="1"><g transform="translate(63.040974, 132.957929)"><g><path d="M 2.28125 -5.96875 C 2.820312 -5.96875 3.207031 -5.796875 3.4375 -5.453125 C 3.675781 -5.109375 3.796875 -4.609375 3.796875 -3.953125 L 3.796875 0 L 3.171875 0 L 3.046875 -0.828125 L 3.015625 -0.828125 C 2.929688 -0.628906 2.820312 -0.457031 2.6875 -0.3125 C 2.5625 -0.175781 2.414062 -0.0703125 2.25 0 C 2.09375 0.0703125 1.90625 0.109375 1.6875 0.109375 C 1.382812 0.109375 1.132812 0.03125 0.9375 -0.125 C 0.75 -0.289062 0.609375 -0.503906 0.515625 -0.765625 C 0.421875 -1.023438 0.375 -1.304688 0.375 -1.609375 C 0.375 -2.191406 0.539062 -2.640625 0.875 -2.953125 C 1.21875 -3.273438 1.695312 -3.453125 2.3125 -3.484375 L 2.96875 -3.53125 L 2.96875 -3.9375 C 2.96875 -4.40625 2.90625 -4.742188 2.78125 -4.953125 C 2.65625 -5.171875 2.445312 -5.28125 2.15625 -5.28125 C 2 -5.28125 1.828125 -5.25 1.640625 -5.1875 C 1.460938 -5.132812 1.269531 -5.046875 1.0625 -4.921875 L 0.796875 -5.546875 C 1.015625 -5.691406 1.25 -5.796875 1.5 -5.859375 C 1.757812 -5.929688 2.019531 -5.96875 2.28125 -5.96875 Z M 2.984375 -2.921875 L 2.4375 -2.890625 C 2.03125 -2.867188 1.722656 -2.753906 1.515625 -2.546875 C 1.316406 -2.335938 1.21875 -2.035156 1.21875 -1.640625 C 1.21875 -1.265625 1.28125 -0.988281 1.40625 -0.8125 C 1.539062 -0.644531 1.722656 -0.5625 1.953125 -0.5625 C 2.285156 -0.5625 2.539062 -0.71875 2.71875 -1.03125 C 2.894531 -1.34375 2.984375 -1.773438 2.984375 -2.328125 Z M 2.984375 -2.921875 "/></g></g></g><g fill="#2d6d5e" fill-opacity="1"><g transform="translate(69.066813, 132.957929)"><g><path d="M 2.828125 -5.96875 C 3.285156 -5.96875 3.632812 -5.804688 3.875 -5.484375 C 4.113281 -5.160156 4.234375 -4.664062 4.234375 -4 L 4.234375 0 L 3.40625 0 L 3.40625 -3.828125 C 3.40625 -4.304688 3.34375 -4.660156 3.21875 -4.890625 C 3.101562 -5.128906 2.914062 -5.25 2.65625 -5.25 C 2.269531 -5.25 1.984375 -5.078125 1.796875 -4.734375 C 1.617188 -4.390625 1.53125 -3.84375 1.53125 -3.09375 L 1.53125 0 L 0.71875 0 L 0.71875 -5.859375 L 1.375 -5.859375 L 1.46875 -5.015625 L 1.515625 -5.015625 C 1.597656 -5.210938 1.703125 -5.378906 1.828125 -5.515625 C 1.960938 -5.660156 2.113281 -5.769531 2.28125 -5.84375 C 2.445312 -5.925781 2.628906 -5.96875 2.828125 -5.96875 Z M 2.828125 -5.96875 "/></g></g></g><g fill="#2d6d5e" fill-opacity="1"><g transform="translate(75.530732, 132.957929)"><g><path d="M 2.171875 0.109375 C 1.609375 0.109375 1.179688 -0.144531 0.890625 -0.65625 C 0.609375 -1.175781 0.46875 -1.929688 0.46875 -2.921875 C 0.46875 -3.898438 0.613281 -4.648438 0.90625 -5.171875 C 1.195312 -5.703125 1.609375 -5.96875 2.140625 -5.96875 C 2.335938 -5.96875 2.519531 -5.929688 2.6875 -5.859375 C 2.851562 -5.785156 3 -5.679688 3.125 -5.546875 C 3.257812 -5.410156 3.375 -5.25 3.46875 -5.0625 L 3.515625 -5.0625 C 3.503906 -5.226562 3.492188 -5.375 3.484375 -5.5 C 3.484375 -5.632812 3.484375 -5.757812 3.484375 -5.875 L 3.484375 -8.3125 L 4.296875 -8.3125 L 4.296875 0 L 3.640625 0 L 3.53125 -0.796875 L 3.484375 -0.796875 C 3.378906 -0.609375 3.265625 -0.445312 3.140625 -0.3125 C 3.015625 -0.175781 2.875 -0.0703125 2.71875 0 C 2.5625 0.0703125 2.378906 0.109375 2.171875 0.109375 Z M 2.359375 -0.59375 C 2.722656 -0.59375 3 -0.765625 3.1875 -1.109375 C 3.382812 -1.453125 3.484375 -1.960938 3.484375 -2.640625 L 3.484375 -3.046875 C 3.484375 -3.785156 3.390625 -4.332031 3.203125 -4.6875 C 3.023438 -5.050781 2.738281 -5.234375 2.34375 -5.234375 C 1.988281 -5.234375 1.722656 -5.035156 1.546875 -4.640625 C 1.378906 -4.242188 1.296875 -3.671875 1.296875 -2.921875 C 1.296875 -2.148438 1.378906 -1.566406 1.546875 -1.171875 C 1.722656 -0.785156 1.992188 -0.59375 2.359375 -0.59375 Z M 2.359375 -0.59375 "/></g></g></g><g fill="#2d6d5e" fill-opacity="1"><g transform="translate(82.069445, 132.957929)"><g/></g></g><g fill="#2d6d5e" fill-opacity="1"><g transform="translate(85.632425, 132.957929)"><g><path d="M 5.3125 -5.96875 C 5.78125 -5.96875 6.125 -5.800781 6.34375 -5.46875 C 6.5625 -5.132812 6.671875 -4.628906 6.671875 -3.953125 L 6.671875 0 L 5.859375 0 L 5.859375 -3.8125 C 5.859375 -4.320312 5.789062 -4.6875 5.65625 -4.90625 C 5.53125 -5.132812 5.34375 -5.25 5.09375 -5.25 C 4.738281 -5.25 4.484375 -5.078125 4.328125 -4.734375 C 4.179688 -4.398438 4.109375 -3.921875 4.109375 -3.296875 L 4.109375 0 L 3.296875 0 L 3.296875 -3.8125 C 3.296875 -4.164062 3.265625 -4.445312 3.203125 -4.65625 C 3.148438 -4.863281 3.066406 -5.015625 2.953125 -5.109375 C 2.835938 -5.203125 2.695312 -5.25 2.53125 -5.25 C 2.257812 -5.25 2.050781 -5.15625 1.90625 -4.96875 C 1.769531 -4.789062 1.671875 -4.539062 1.609375 -4.21875 C 1.554688 -3.90625 1.53125 -3.546875 1.53125 -3.140625 L 1.53125 0 L 0.71875 0 L 0.71875 -5.859375 L 1.375 -5.859375 L 1.46875 -5.03125 L 1.515625 -5.03125 C 1.585938 -5.226562 1.679688 -5.394531 1.796875 -5.53125 C 1.921875 -5.675781 2.0625 -5.785156 2.21875 -5.859375 C 2.382812 -5.929688 2.566406 -5.96875 2.765625 -5.96875 C 3.109375 -5.96875 3.375 -5.875 3.5625 -5.6875 C 3.757812 -5.507812 3.890625 -5.28125 3.953125 -5 L 4.015625 -5 C 4.148438 -5.332031 4.316406 -5.578125 4.515625 -5.734375 C 4.722656 -5.890625 4.988281 -5.96875 5.3125 -5.96875 Z M 5.3125 -5.96875 "/></g></g></g><g fill="#2d6d5e" fill-opacity="1"><g transform="translate(94.537834, 132.957929)"><g><path d="M 1.546875 -5.859375 L 1.546875 0 L 0.71875 0 L 0.71875 -5.859375 Z M 1.140625 -8.0625 C 1.316406 -8.0625 1.441406 -8.007812 1.515625 -7.90625 C 1.585938 -7.800781 1.625 -7.648438 1.625 -7.453125 C 1.625 -7.273438 1.582031 -7.128906 1.5 -7.015625 C 1.425781 -6.910156 1.304688 -6.859375 1.140625 -6.859375 C 0.992188 -6.859375 0.875 -6.910156 0.78125 -7.015625 C 0.695312 -7.128906 0.65625 -7.273438 0.65625 -7.453125 C 0.65625 -7.648438 0.695312 -7.800781 0.78125 -7.90625 C 0.863281 -8.007812 0.984375 -8.0625 1.140625 -8.0625 Z M 1.140625 -8.0625 "/></g></g></g><g fill="#2d6d5e" fill-opacity="1"><g transform="translate(98.33588, 132.957929)"><g><path d="M 2.828125 -5.96875 C 3.285156 -5.96875 3.632812 -5.804688 3.875 -5.484375 C 4.113281 -5.160156 4.234375 -4.664062 4.234375 -4 L 4.234375 0 L 3.40625 0 L 3.40625 -3.828125 C 3.40625 -4.304688 3.34375 -4.660156 3.21875 -4.890625 C 3.101562 -5.128906 2.914062 -5.25 2.65625 -5.25 C 2.269531 -5.25 1.984375 -5.078125 1.796875 -4.734375 C 1.617188 -4.390625 1.53125 -3.84375 1.53125 -3.09375 L 1.53125 0 L 0.71875 0 L 0.71875 -5.859375 L 1.375 -5.859375 L 1.46875 -5.015625 L 1.515625 -5.015625 C 1.597656 -5.210938 1.703125 -5.378906 1.828125 -5.515625 C 1.960938 -5.660156 2.113281 -5.769531 2.28125 -5.84375 C 2.445312 -5.925781 2.628906 -5.96875 2.828125 -5.96875 Z M 2.828125 -5.96875 "/></g></g></g><g fill="#2d6d5e" fill-opacity="1"><g transform="translate(104.799799, 132.957929)"><g><path d="M 2.171875 0.109375 C 1.609375 0.109375 1.179688 -0.144531 0.890625 -0.65625 C 0.609375 -1.175781 0.46875 -1.929688 0.46875 -2.921875 C 0.46875 -3.898438 0.613281 -4.648438 0.90625 -5.171875 C 1.195312 -5.703125 1.609375 -5.96875 2.140625 -5.96875 C 2.335938 -5.96875 2.519531 -5.929688 2.6875 -5.859375 C 2.851562 -5.785156 3 -5.679688 3.125 -5.546875 C 3.257812 -5.410156 3.375 -5.25 3.46875 -5.0625 L 3.515625 -5.0625 C 3.503906 -5.226562 3.492188 -5.375 3.484375 -5.5 C 3.484375 -5.632812 3.484375 -5.757812 3.484375 -5.875 L 3.484375 -8.3125 L 4.296875 -8.3125 L 4.296875 0 L 3.640625 0 L 3.53125 -0.796875 L 3.484375 -0.796875 C 3.378906 -0.609375 3.265625 -0.445312 3.140625 -0.3125 C 3.015625 -0.175781 2.875 -0.0703125 2.71875 0 C 2.5625 0.0703125 2.378906 0.109375 2.171875 0.109375 Z M 2.359375 -0.59375 C 2.722656 -0.59375 3 -0.765625 3.1875 -1.109375 C 3.382812 -1.453125 3.484375 -1.960938 3.484375 -2.640625 L 3.484375 -3.046875 C 3.484375 -3.785156 3.390625 -4.332031 3.203125 -4.6875 C 3.023438 -5.050781 2.738281 -5.234375 2.34375 -5.234375 C 1.988281 -5.234375 1.722656 -5.035156 1.546875 -4.640625 C 1.378906 -4.242188 1.296875 -3.671875 1.296875 -2.921875 C 1.296875 -2.148438 1.378906 -1.566406 1.546875 -1.171875 C 1.722656 -0.785156 1.992188 -0.59375 2.359375 -0.59375 Z M 2.359375 -0.59375 "/></g></g></g></svg>