<svg xmlns="http://www.w3.org/2000/svg" xmlns:xlink="http://www.w3.org/1999/xlink" width="180" zoomAndPan="magnify" viewBox="0 0 135 161.249994" height="215" preserveAspectRatio="xMidYMid meet" version="1.0"><defs><g/><clipPath id="8e927ce99f"><path d="M 49 27.792969 L 86 27.792969 L 86 32 L 49 32 Z M 49 27.792969 " clip-rule="nonzero"/></clipPath><clipPath id="45441a5d91"><path d="M 87 32.0625 L 91.160156 32.0625 L 91.160156 69 L 87 69 Z M 87 32.0625 " clip-rule="nonzero"/></clipPath><clipPath id="96fce2ffcf"><path d="M 45.40625 34 L 49.886719 34 L 49.886719 71 L 45.40625 71 Z M 45.40625 34 " clip-rule="nonzero"/></clipPath><clipPath id="4967996680"><path d="M 50 71.082031 L 86.890625 71.082031 L 86.890625 75.5625 L 50 75.5625 Z M 50 71.082031 " clip-rule="nonzero"/></clipPath><clipPath id="1a65eb0ff2"><path d="M 37.332031 21.734375 L 97.800781 21.734375 L 97.800781 82.203125 L 37.332031 82.203125 Z M 37.332031 21.734375 " clip-rule="nonzero"/></clipPath><clipPath id="55122875c0"><path d="M 50.640625 35.515625 L 85.726562 35.515625 L 85.726562 66 L 50.640625 66 Z M 50.640625 35.515625 " clip-rule="nonzero"/></clipPath></defs><g fill="#0661aa" fill-opacity="1"><g transform="translate(9.132312, 105.012298)"><g><path d="M 5.625 0.390625 C 4.625 0.390625 3.734375 0.222656 2.953125 -0.109375 C 2.179688 -0.453125 1.566406 -0.941406 1.109375 -1.578125 C 0.660156 -2.222656 0.40625 -2.992188 0.34375 -3.890625 L 3.15625 -4.375 C 3.1875 -3.601562 3.445312 -3 3.9375 -2.5625 C 4.425781 -2.125 5.03125 -1.90625 5.75 -1.90625 C 6.382812 -1.90625 6.890625 -2.050781 7.265625 -2.34375 C 7.640625 -2.644531 7.828125 -3.015625 7.828125 -3.453125 C 7.828125 -3.835938 7.679688 -4.15625 7.390625 -4.40625 C 7.109375 -4.65625 6.644531 -4.863281 6 -5.03125 L 4.390625 -5.453125 C 3.117188 -5.742188 2.191406 -6.1875 1.609375 -6.78125 C 1.023438 -7.375 0.734375 -8.171875 0.734375 -9.171875 C 0.734375 -9.972656 0.921875 -10.671875 1.296875 -11.265625 C 1.679688 -11.867188 2.226562 -12.332031 2.9375 -12.65625 C 3.644531 -12.988281 4.46875 -13.15625 5.40625 -13.15625 C 6.269531 -13.15625 7.035156 -13 7.703125 -12.6875 C 8.367188 -12.382812 8.910156 -11.957031 9.328125 -11.40625 C 9.742188 -10.851562 9.976562 -10.191406 10.03125 -9.421875 L 7.296875 -8.875 C 7.253906 -9.488281 7.054688 -9.976562 6.703125 -10.34375 C 6.347656 -10.707031 5.898438 -10.890625 5.359375 -10.890625 C 4.847656 -10.890625 4.4375 -10.75 4.125 -10.46875 C 3.820312 -10.1875 3.671875 -9.835938 3.671875 -9.421875 C 3.671875 -9.054688 3.804688 -8.753906 4.078125 -8.515625 C 4.347656 -8.273438 4.785156 -8.078125 5.390625 -7.921875 L 6.984375 -7.53125 C 8.285156 -7.226562 9.238281 -6.773438 9.84375 -6.171875 C 10.445312 -5.566406 10.75 -4.757812 10.75 -3.75 C 10.75 -2.90625 10.539062 -2.171875 10.125 -1.546875 C 9.707031 -0.929688 9.113281 -0.453125 8.34375 -0.109375 C 7.582031 0.222656 6.675781 0.390625 5.625 0.390625 Z M 5.625 0.390625 "/></g></g></g><g fill="#0661aa" fill-opacity="1"><g transform="translate(22.265201, 105.012298)"><g><path d="M 3.171875 0.21875 C 2.296875 0.21875 1.585938 -0.015625 1.046875 -0.484375 C 0.515625 -0.953125 0.25 -1.578125 0.25 -2.359375 C 0.25 -3.203125 0.566406 -3.878906 1.203125 -4.390625 C 1.847656 -4.910156 2.785156 -5.238281 4.015625 -5.375 L 5.4375 -5.53125 C 5.632812 -5.5625 5.796875 -5.632812 5.921875 -5.75 C 6.046875 -5.875 6.109375 -6.046875 6.109375 -6.265625 C 6.109375 -6.671875 5.984375 -6.984375 5.734375 -7.203125 C 5.484375 -7.421875 5.15625 -7.53125 4.75 -7.53125 C 4.28125 -7.53125 3.898438 -7.367188 3.609375 -7.046875 C 3.328125 -6.722656 3.175781 -6.316406 3.15625 -5.828125 L 0.5625 -6.203125 C 0.582031 -6.847656 0.769531 -7.414062 1.125 -7.90625 C 1.476562 -8.40625 1.960938 -8.796875 2.578125 -9.078125 C 3.191406 -9.359375 3.910156 -9.5 4.734375 -9.5 C 5.984375 -9.5 6.972656 -9.171875 7.703125 -8.515625 C 8.429688 -7.859375 8.796875 -6.96875 8.796875 -5.84375 L 8.796875 -2.296875 C 8.796875 -1.890625 8.945312 -1.6875 9.25 -1.6875 C 9.488281 -1.6875 9.710938 -1.804688 9.921875 -2.046875 L 10.515625 -0.578125 C 10.234375 -0.296875 9.890625 -0.09375 9.484375 0.03125 C 9.078125 0.164062 8.675781 0.234375 8.28125 0.234375 C 7.726562 0.234375 7.265625 0.09375 6.890625 -0.1875 C 6.515625 -0.46875 6.28125 -0.820312 6.1875 -1.25 L 6.140625 -1.484375 L 6.125 -1.484375 C 5.851562 -0.960938 5.457031 -0.546875 4.9375 -0.234375 C 4.425781 0.0664062 3.835938 0.21875 3.171875 0.21875 Z M 4.296875 -1.703125 C 4.816406 -1.703125 5.242188 -1.882812 5.578125 -2.25 C 5.910156 -2.613281 6.078125 -3.085938 6.078125 -3.671875 L 6.078125 -4.109375 L 4.734375 -3.953125 C 4.109375 -3.890625 3.660156 -3.742188 3.390625 -3.515625 C 3.128906 -3.285156 3 -3.015625 3 -2.703125 C 3 -2.410156 3.117188 -2.171875 3.359375 -1.984375 C 3.609375 -1.796875 3.921875 -1.703125 4.296875 -1.703125 Z M 4.296875 -1.703125 "/></g></g></g><g fill="#0661aa" fill-opacity="1"><g transform="translate(34.896415, 105.012298)"><g><path d="M 0.6875 0 L 0.6875 -9.171875 L 2.875 -9.171875 L 3.25 -7.53125 L 3.265625 -7.53125 C 3.503906 -8.125 3.878906 -8.585938 4.390625 -8.921875 C 4.898438 -9.253906 5.476562 -9.421875 6.125 -9.421875 C 6.800781 -9.421875 7.359375 -9.253906 7.796875 -8.921875 C 8.234375 -8.585938 8.550781 -8.109375 8.75 -7.484375 L 8.765625 -7.484375 C 9.066406 -8.117188 9.476562 -8.597656 10 -8.921875 C 10.519531 -9.253906 11.101562 -9.421875 11.75 -9.421875 C 12.601562 -9.421875 13.257812 -9.148438 13.71875 -8.609375 C 14.1875 -8.066406 14.421875 -7.3125 14.421875 -6.34375 L 14.421875 0 L 11.6875 0 L 11.6875 -5.765625 C 11.6875 -6.179688 11.578125 -6.503906 11.359375 -6.734375 C 11.148438 -6.972656 10.847656 -7.09375 10.453125 -7.09375 C 9.972656 -7.09375 9.597656 -6.925781 9.328125 -6.59375 C 9.054688 -6.257812 8.921875 -5.804688 8.921875 -5.234375 L 8.921875 0 L 6.1875 0 L 6.1875 -5.765625 C 6.1875 -6.179688 6.078125 -6.503906 5.859375 -6.734375 C 5.640625 -6.972656 5.335938 -7.09375 4.953125 -7.09375 C 4.472656 -7.09375 4.09375 -6.925781 3.8125 -6.59375 C 3.539062 -6.257812 3.40625 -5.804688 3.40625 -5.234375 L 3.40625 0 Z M 0.6875 0 "/></g></g></g><g fill="#0661aa" fill-opacity="1"><g transform="translate(52.060537, 105.012298)"><g><path d="M 3.171875 0.21875 C 2.296875 0.21875 1.585938 -0.015625 1.046875 -0.484375 C 0.515625 -0.953125 0.25 -1.578125 0.25 -2.359375 C 0.25 -3.203125 0.566406 -3.878906 1.203125 -4.390625 C 1.847656 -4.910156 2.785156 -5.238281 4.015625 -5.375 L 5.4375 -5.53125 C 5.632812 -5.5625 5.796875 -5.632812 5.921875 -5.75 C 6.046875 -5.875 6.109375 -6.046875 6.109375 -6.265625 C 6.109375 -6.671875 5.984375 -6.984375 5.734375 -7.203125 C 5.484375 -7.421875 5.15625 -7.53125 4.75 -7.53125 C 4.28125 -7.53125 3.898438 -7.367188 3.609375 -7.046875 C 3.328125 -6.722656 3.175781 -6.316406 3.15625 -5.828125 L 0.5625 -6.203125 C 0.582031 -6.847656 0.769531 -7.414062 1.125 -7.90625 C 1.476562 -8.40625 1.960938 -8.796875 2.578125 -9.078125 C 3.191406 -9.359375 3.910156 -9.5 4.734375 -9.5 C 5.984375 -9.5 6.972656 -9.171875 7.703125 -8.515625 C 8.429688 -7.859375 8.796875 -6.96875 8.796875 -5.84375 L 8.796875 -2.296875 C 8.796875 -1.890625 8.945312 -1.6875 9.25 -1.6875 C 9.488281 -1.6875 9.710938 -1.804688 9.921875 -2.046875 L 10.515625 -0.578125 C 10.234375 -0.296875 9.890625 -0.09375 9.484375 0.03125 C 9.078125 0.164062 8.675781 0.234375 8.28125 0.234375 C 7.726562 0.234375 7.265625 0.09375 6.890625 -0.1875 C 6.515625 -0.46875 6.28125 -0.820312 6.1875 -1.25 L 6.140625 -1.484375 L 6.125 -1.484375 C 5.851562 -0.960938 5.457031 -0.546875 4.9375 -0.234375 C 4.425781 0.0664062 3.835938 0.21875 3.171875 0.21875 Z M 4.296875 -1.703125 C 4.816406 -1.703125 5.242188 -1.882812 5.578125 -2.25 C 5.910156 -2.613281 6.078125 -3.085938 6.078125 -3.671875 L 6.078125 -4.109375 L 4.734375 -3.953125 C 4.109375 -3.890625 3.660156 -3.742188 3.390625 -3.515625 C 3.128906 -3.285156 3 -3.015625 3 -2.703125 C 3 -2.410156 3.117188 -2.171875 3.359375 -1.984375 C 3.609375 -1.796875 3.921875 -1.703125 4.296875 -1.703125 Z M 4.296875 -1.703125 "/></g></g></g><g fill="#0661aa" fill-opacity="1"><g transform="translate(64.69175, 105.012298)"><g/></g></g><g fill="#0661aa" fill-opacity="1"><g transform="translate(70.138409, 105.012298)"><g><path d="M 4.171875 0 L 0.09375 -12.765625 L 3.28125 -12.765625 L 6.0625 -2.828125 L 6.09375 -2.828125 L 8.859375 -12.765625 L 12.046875 -12.765625 L 7.953125 0 Z M 4.171875 0 "/></g></g></g><g fill="#0661aa" fill-opacity="1"><g transform="translate(84.382125, 105.012298)"><g><path d="M 5.625 -9.421875 C 6.375 -9.421875 6.976562 -9.140625 7.4375 -8.578125 C 7.894531 -8.023438 8.144531 -7.234375 8.1875 -6.203125 L 5.875 -5.578125 C 5.863281 -6.171875 5.753906 -6.617188 5.546875 -6.921875 C 5.347656 -7.234375 5.082031 -7.390625 4.75 -7.390625 C 4.34375 -7.390625 4.015625 -7.1875 3.765625 -6.78125 C 3.523438 -6.375 3.40625 -5.8125 3.40625 -5.09375 L 3.40625 0 L 0.6875 0 L 0.6875 -9.171875 L 2.890625 -9.171875 L 3.265625 -7.59375 L 3.28125 -7.59375 C 3.476562 -8.164062 3.785156 -8.613281 4.203125 -8.9375 C 4.628906 -9.257812 5.101562 -9.421875 5.625 -9.421875 Z M 5.625 -9.421875 "/></g></g></g><g fill="#0661aa" fill-opacity="1"><g transform="translate(94.935019, 105.012298)"><g><path d="M 2.109375 -10.4375 C 1.617188 -10.4375 1.226562 -10.578125 0.9375 -10.859375 C 0.644531 -11.148438 0.5 -11.523438 0.5 -11.984375 C 0.5 -12.460938 0.644531 -12.84375 0.9375 -13.125 C 1.226562 -13.414062 1.617188 -13.5625 2.109375 -13.5625 C 2.597656 -13.5625 2.988281 -13.414062 3.28125 -13.125 C 3.582031 -12.84375 3.734375 -12.460938 3.734375 -11.984375 C 3.734375 -11.523438 3.582031 -11.148438 3.28125 -10.859375 C 2.988281 -10.578125 2.597656 -10.4375 2.109375 -10.4375 Z M 0.734375 0 L 0.734375 -9.171875 L 3.484375 -9.171875 L 3.484375 0 Z M 0.734375 0 "/></g></g></g><g fill="#0661aa" fill-opacity="1"><g transform="translate(101.277509, 105.012298)"><g><path d="M 4.90625 0.28125 C 3.851562 0.28125 3.039062 -0.00390625 2.46875 -0.578125 C 1.90625 -1.148438 1.625 -1.925781 1.625 -2.90625 L 1.609375 -7.09375 L 0.078125 -7.09375 L 0.078125 -9.171875 L 1.625 -9.171875 L 1.625 -11.609375 L 4.359375 -12.21875 L 4.359375 -9.171875 L 7.484375 -9.171875 L 7.484375 -7.09375 L 4.359375 -7.09375 L 4.375 -3.390625 C 4.375 -2.929688 4.476562 -2.570312 4.6875 -2.3125 C 4.90625 -2.0625 5.195312 -1.9375 5.5625 -1.9375 C 6.238281 -1.9375 6.734375 -2.3125 7.046875 -3.0625 L 7.9375 -1.390625 C 7.65625 -0.859375 7.25 -0.445312 6.71875 -0.15625 C 6.1875 0.132812 5.582031 0.28125 4.90625 0.28125 Z M 4.90625 0.28125 "/></g></g></g><g fill="#0661aa" fill-opacity="1"><g transform="translate(111.454155, 105.012298)"><g><path d="M 4.90625 0.28125 C 3.851562 0.28125 3.039062 -0.00390625 2.46875 -0.578125 C 1.90625 -1.148438 1.625 -1.925781 1.625 -2.90625 L 1.609375 -7.09375 L 0.078125 -7.09375 L 0.078125 -9.171875 L 1.625 -9.171875 L 1.625 -11.609375 L 4.359375 -12.21875 L 4.359375 -9.171875 L 7.484375 -9.171875 L 7.484375 -7.09375 L 4.359375 -7.09375 L 4.375 -3.390625 C 4.375 -2.929688 4.476562 -2.570312 4.6875 -2.3125 C 4.90625 -2.0625 5.195312 -1.9375 5.5625 -1.9375 C 6.238281 -1.9375 6.734375 -2.3125 7.046875 -3.0625 L 7.9375 -1.390625 C 7.65625 -0.859375 7.25 -0.445312 6.71875 -0.15625 C 6.1875 0.132812 5.582031 0.28125 4.90625 0.28125 Z M 4.90625 0.28125 "/></g></g></g><g fill="#0661aa" fill-opacity="1"><g transform="translate(121.630801, 105.012298)"><g><path d="M 2.109375 -10.4375 C 1.617188 -10.4375 1.226562 -10.578125 0.9375 -10.859375 C 0.644531 -11.148438 0.5 -11.523438 0.5 -11.984375 C 0.5 -12.460938 0.644531 -12.84375 0.9375 -13.125 C 1.226562 -13.414062 1.617188 -13.5625 2.109375 -13.5625 C 2.597656 -13.5625 2.988281 -13.414062 3.28125 -13.125 C 3.582031 -12.84375 3.734375 -12.460938 3.734375 -11.984375 C 3.734375 -11.523438 3.582031 -11.148438 3.28125 -10.859375 C 2.988281 -10.578125 2.597656 -10.4375 2.109375 -10.4375 Z M 0.734375 0 L 0.734375 -9.171875 L 3.484375 -9.171875 L 3.484375 0 Z M 0.734375 0 "/></g></g></g><g clip-path="url(#8e927ce99f)"><path fill="#0661aa" d="M 83.46875 31.65625 C 83.519531 31.277344 83.734375 30.898438 83.929688 30.613281 C 84.132812 30.324219 84.359375 30.078125 84.644531 29.988281 C 83.996094 29.933594 83.992188 30.113281 83.339844 30.113281 C 82.691406 30.113281 82.691406 30.101562 82.042969 30.101562 C 81.394531 30.101562 81.394531 29.949219 80.742188 29.949219 C 80.09375 29.949219 80.09375 30.027344 79.445312 30.027344 C 78.796875 30.027344 78.796875 29.957031 78.144531 29.957031 C 77.496094 29.957031 77.496094 29.957031 76.847656 29.957031 C 76.199219 29.957031 76.199219 30.003906 75.546875 30.003906 C 74.898438 30.003906 74.898438 29.992188 74.25 29.992188 C 73.597656 29.992188 73.597656 29.972656 72.949219 29.972656 C 72.300781 29.972656 72.300781 30.019531 71.648438 30.019531 C 71 30.019531 71 29.988281 70.351562 29.988281 C 69.703125 29.988281 69.703125 29.996094 69.054688 29.996094 C 68.402344 29.996094 68.402344 29.949219 67.753906 29.949219 C 67.105469 29.949219 67.105469 29.992188 66.457031 29.992188 C 65.804688 29.992188 65.804688 30.042969 65.15625 30.042969 C 64.507812 30.042969 64.507812 30.085938 63.859375 30.085938 C 63.207031 30.085938 63.207031 30.003906 62.558594 30.003906 C 61.910156 30.003906 61.910156 30.003906 61.257812 30.003906 C 60.609375 30.003906 60.609375 29.964844 59.960938 29.964844 C 59.308594 29.964844 59.308594 30.050781 58.660156 30.050781 C 58.007812 30.050781 58.007812 30.023438 57.359375 30.023438 C 56.710938 30.023438 56.710938 30.050781 56.058594 30.050781 C 55.410156 30.050781 55.410156 30.117188 54.757812 30.117188 C 54.109375 30.117188 54.109375 30.019531 53.460938 30.019531 C 52.808594 30.019531 52.808594 30.121094 52.160156 30.121094 C 51.507812 30.121094 51.507812 29.945312 50.855469 29.945312 C 50.203125 29.945312 50.175781 30.21875 49.558594 30.015625 C 49.355469 29.949219 49.324219 29.59375 49.527344 29.527344 C 50.144531 29.324219 50.203125 29.613281 50.851562 29.613281 C 51.5 29.613281 51.5 29.652344 52.152344 29.652344 C 52.800781 29.652344 52.800781 29.582031 53.449219 29.582031 C 54.097656 29.582031 54.097656 29.601562 54.746094 29.601562 C 55.398438 29.601562 55.398438 29.632812 56.046875 29.632812 C 56.695312 29.632812 56.695312 29.546875 57.347656 29.546875 C 57.996094 29.546875 57.996094 29.527344 58.644531 29.527344 C 59.292969 29.527344 59.292969 29.65625 59.945312 29.65625 C 60.59375 29.65625 60.59375 29.609375 61.242188 29.609375 C 61.894531 29.609375 61.894531 29.640625 62.542969 29.640625 C 63.191406 29.640625 63.191406 29.554688 63.84375 29.554688 C 64.492188 29.554688 64.492188 29.574219 65.140625 29.574219 C 65.789062 29.574219 65.789062 29.550781 66.4375 29.550781 C 67.089844 29.550781 67.089844 29.578125 67.738281 29.578125 C 68.386719 29.578125 68.386719 29.648438 69.035156 29.648438 C 69.6875 29.648438 69.6875 29.59375 70.335938 29.59375 C 70.984375 29.59375 70.984375 29.59375 71.636719 29.59375 C 72.285156 29.59375 72.285156 29.644531 72.933594 29.644531 C 73.582031 29.644531 73.582031 29.519531 74.234375 29.519531 C 74.882812 29.519531 74.882812 29.664062 75.535156 29.664062 C 76.183594 29.664062 76.183594 29.683594 76.835938 29.683594 C 77.484375 29.683594 77.484375 29.636719 78.132812 29.636719 C 78.785156 29.636719 78.785156 29.59375 79.433594 29.59375 C 80.082031 29.59375 80.082031 29.691406 80.734375 29.691406 C 81.382812 29.691406 81.382812 29.558594 82.035156 29.558594 C 82.6875 29.558594 82.6875 29.652344 83.335938 29.652344 C 83.988281 29.652344 83.988281 29.648438 84.640625 29.59375 C 84.355469 29.507812 84.070312 29.359375 83.867188 29.074219 C 83.667969 28.78125 83.527344 28.367188 83.476562 27.988281 C 83.640625 27.800781 83.816406 27.777344 84.019531 27.921875 C 84.046875 28.402344 84.1875 28.796875 84.425781 29.078125 C 84.691406 29.390625 85.101562 29.546875 85.535156 29.589844 C 85.679688 29.742188 85.699219 29.910156 85.550781 30.0625 C 85.117188 30.105469 84.703125 30.257812 84.4375 30.570312 C 84.199219 30.847656 83.988281 31.191406 83.960938 31.671875 C 83.796875 31.914062 83.632812 31.84375 83.46875 31.65625 Z M 83.46875 31.65625 " fill-opacity="1" fill-rule="nonzero"/></g><g clip-path="url(#45441a5d91)"><path fill="#0661aa" d="M 87.292969 66.636719 C 87.675781 66.6875 88.050781 66.902344 88.335938 67.097656 C 88.628906 67.300781 88.875 67.527344 88.960938 67.8125 C 89.019531 67.164062 88.835938 67.160156 88.835938 66.507812 C 88.835938 65.859375 88.847656 65.859375 88.847656 65.210938 C 88.847656 64.5625 89.003906 64.5625 89.003906 63.910156 C 89.003906 63.261719 88.925781 63.261719 88.925781 62.613281 C 88.925781 61.964844 88.992188 61.964844 88.992188 61.3125 C 88.992188 60.664062 88.992188 60.664062 88.992188 60.015625 C 88.992188 59.367188 88.949219 59.367188 88.949219 58.714844 C 88.949219 58.066406 88.960938 58.066406 88.960938 57.417969 C 88.960938 56.765625 88.980469 56.765625 88.980469 56.117188 C 88.980469 55.46875 88.929688 55.46875 88.929688 54.816406 C 88.929688 54.167969 88.964844 54.167969 88.964844 53.519531 C 88.964844 52.871094 88.953125 52.871094 88.953125 52.222656 C 88.953125 51.570312 89 51.570312 89 50.921875 C 89 50.273438 88.960938 50.273438 88.960938 49.625 C 88.960938 48.972656 88.910156 48.972656 88.910156 48.324219 C 88.910156 47.675781 88.867188 47.675781 88.867188 47.027344 C 88.867188 46.375 88.945312 46.375 88.945312 45.726562 C 88.945312 45.078125 88.949219 45.078125 88.949219 44.425781 C 88.949219 43.777344 88.988281 43.777344 88.988281 43.128906 C 88.988281 42.476562 88.898438 42.476562 88.898438 41.828125 C 88.898438 41.175781 88.925781 41.175781 88.925781 40.527344 C 88.925781 39.878906 88.898438 39.878906 88.898438 39.226562 C 88.898438 38.578125 88.832031 38.578125 88.832031 37.925781 C 88.832031 37.277344 88.933594 37.277344 88.933594 36.628906 C 88.933594 35.976562 88.828125 35.976562 88.828125 35.328125 C 88.828125 34.675781 89.007812 34.675781 89.007812 34.023438 C 89.007812 33.371094 88.734375 33.34375 88.933594 32.726562 C 89 32.523438 89.359375 32.492188 89.425781 32.695312 C 89.625 33.3125 89.339844 33.371094 89.339844 34.019531 C 89.339844 34.667969 89.300781 34.667969 89.300781 35.320312 C 89.300781 35.96875 89.371094 35.96875 89.371094 36.617188 C 89.371094 37.265625 89.347656 37.265625 89.347656 37.914062 C 89.347656 38.566406 89.320312 38.566406 89.320312 39.214844 C 89.320312 39.863281 89.40625 39.863281 89.40625 40.515625 C 89.40625 41.164062 89.425781 41.164062 89.425781 41.8125 C 89.425781 42.460938 89.292969 42.460938 89.292969 43.113281 C 89.292969 43.761719 89.34375 43.761719 89.34375 44.410156 C 89.34375 45.0625 89.308594 45.0625 89.308594 45.710938 C 89.308594 46.359375 89.394531 46.359375 89.394531 47.011719 C 89.394531 47.660156 89.378906 47.660156 89.378906 48.308594 C 89.378906 48.957031 89.402344 48.957031 89.402344 49.605469 C 89.402344 50.257812 89.375 50.257812 89.375 50.90625 C 89.375 51.554688 89.304688 51.554688 89.304688 52.203125 C 89.304688 52.855469 89.359375 52.855469 89.359375 53.503906 C 89.359375 54.152344 89.355469 54.152344 89.355469 54.804688 C 89.355469 55.453125 89.308594 55.453125 89.308594 56.101562 C 89.308594 56.75 89.433594 56.75 89.433594 57.402344 C 89.433594 58.050781 89.289062 58.050781 89.289062 58.703125 C 89.289062 59.351562 89.269531 59.351562 89.269531 60.003906 C 89.269531 60.652344 89.316406 60.652344 89.316406 61.300781 C 89.316406 61.953125 89.359375 61.953125 89.359375 62.601562 C 89.359375 63.25 89.257812 63.25 89.257812 63.902344 C 89.257812 64.550781 89.394531 64.550781 89.394531 65.203125 C 89.394531 65.855469 89.300781 65.855469 89.300781 66.503906 C 89.300781 67.15625 89.300781 67.15625 89.359375 67.808594 C 89.445312 67.523438 89.59375 67.238281 89.878906 67.035156 C 90.167969 66.835938 90.585938 66.695312 90.964844 66.644531 C 91.152344 66.808594 91.175781 66.984375 91.027344 67.1875 C 90.550781 67.214844 90.152344 67.355469 89.875 67.59375 C 89.558594 67.859375 89.40625 68.269531 89.363281 68.703125 C 89.207031 68.847656 89.042969 68.867188 88.886719 68.71875 C 88.84375 68.285156 88.695312 67.871094 88.382812 67.605469 C 88.101562 67.367188 87.757812 67.15625 87.28125 67.128906 C 87.039062 66.964844 87.105469 66.800781 87.292969 66.636719 Z M 87.292969 66.636719 " fill-opacity="1" fill-rule="nonzero"/></g><g clip-path="url(#96fce2ffcf)"><path fill="#0661aa" d="M 49.273438 36.71875 C 48.894531 36.667969 48.515625 36.453125 48.230469 36.253906 C 47.9375 36.050781 47.695312 35.824219 47.605469 35.539062 C 47.550781 36.1875 47.730469 36.195312 47.730469 36.84375 C 47.730469 37.492188 47.71875 37.492188 47.71875 38.140625 C 47.71875 38.792969 47.566406 38.792969 47.566406 39.441406 C 47.566406 40.089844 47.640625 40.089844 47.640625 40.738281 C 47.640625 41.390625 47.574219 41.390625 47.574219 42.039062 C 47.574219 42.6875 47.574219 42.6875 47.574219 43.335938 C 47.574219 43.988281 47.621094 43.988281 47.621094 44.636719 C 47.621094 45.285156 47.609375 45.285156 47.609375 45.9375 C 47.609375 46.585938 47.585938 46.585938 47.585938 47.234375 C 47.585938 47.886719 47.636719 47.886719 47.636719 48.535156 C 47.636719 49.183594 47.601562 49.183594 47.601562 49.835938 C 47.601562 50.484375 47.613281 50.484375 47.613281 51.132812 C 47.613281 51.78125 47.566406 51.78125 47.566406 52.429688 C 47.566406 53.078125 47.609375 53.078125 47.609375 53.730469 C 47.609375 54.378906 47.660156 54.378906 47.660156 55.027344 C 47.660156 55.675781 47.703125 55.675781 47.703125 56.328125 C 47.703125 56.976562 47.621094 56.976562 47.621094 57.625 C 47.621094 58.277344 47.621094 58.277344 47.621094 58.925781 C 47.621094 59.574219 47.582031 59.574219 47.582031 60.226562 C 47.582031 60.875 47.667969 60.875 47.667969 61.527344 C 47.667969 62.175781 47.640625 62.175781 47.640625 62.828125 C 47.640625 63.476562 47.667969 63.476562 47.667969 64.125 C 47.667969 64.773438 47.734375 64.773438 47.734375 65.425781 C 47.734375 66.074219 47.636719 66.074219 47.636719 66.726562 C 47.636719 67.375 47.738281 67.375 47.738281 68.027344 C 47.738281 68.679688 47.5625 68.679688 47.5625 69.328125 C 47.5625 69.980469 47.835938 70.007812 47.632812 70.628906 C 47.566406 70.828125 47.210938 70.859375 47.144531 70.65625 C 46.941406 70.039062 47.230469 69.984375 47.230469 69.332031 C 47.230469 68.683594 47.269531 68.683594 47.269531 68.035156 C 47.269531 67.386719 47.195312 67.386719 47.195312 66.734375 C 47.195312 66.085938 47.21875 66.085938 47.21875 65.4375 C 47.21875 64.789062 47.246094 64.789062 47.246094 64.136719 C 47.246094 63.488281 47.164062 63.488281 47.164062 62.839844 C 47.164062 62.1875 47.144531 62.1875 47.144531 61.539062 C 47.144531 60.890625 47.273438 60.890625 47.273438 60.242188 C 47.273438 59.589844 47.222656 59.589844 47.222656 58.941406 C 47.222656 58.292969 47.257812 58.292969 47.257812 57.640625 C 47.257812 56.992188 47.171875 56.992188 47.171875 56.34375 C 47.171875 55.695312 47.1875 55.695312 47.1875 55.042969 C 47.1875 54.394531 47.167969 54.394531 47.167969 53.746094 C 47.167969 53.097656 47.195312 53.097656 47.195312 52.449219 C 47.195312 51.796875 47.265625 51.796875 47.265625 51.148438 C 47.265625 50.5 47.207031 50.5 47.207031 49.847656 C 47.207031 49.199219 47.210938 49.199219 47.210938 48.550781 C 47.210938 47.898438 47.261719 47.898438 47.261719 47.25 C 47.261719 46.601562 47.136719 46.601562 47.136719 45.949219 C 47.136719 45.300781 47.277344 45.300781 47.277344 44.652344 C 47.277344 44 47.300781 44 47.300781 43.351562 C 47.300781 42.699219 47.253906 42.699219 47.253906 42.050781 C 47.253906 41.402344 47.210938 41.402344 47.210938 40.75 C 47.210938 40.101562 47.308594 40.101562 47.308594 39.449219 C 47.308594 38.800781 47.175781 38.800781 47.175781 38.148438 C 47.175781 37.5 47.269531 37.5 47.269531 36.847656 C 47.269531 36.195312 47.265625 36.195312 47.210938 35.546875 C 47.121094 35.832031 46.976562 36.113281 46.691406 36.320312 C 46.398438 36.515625 45.984375 36.660156 45.601562 36.710938 C 45.414062 36.542969 45.394531 36.367188 45.539062 36.164062 C 46.019531 36.136719 46.414062 36 46.695312 35.757812 C 47.007812 35.492188 47.164062 35.085938 47.203125 34.648438 C 47.359375 34.503906 47.523438 34.488281 47.679688 34.632812 C 47.722656 35.066406 47.871094 35.480469 48.183594 35.746094 C 48.464844 35.988281 48.808594 36.199219 49.289062 36.226562 C 49.53125 36.386719 49.460938 36.550781 49.273438 36.71875 Z M 49.273438 36.71875 " fill-opacity="1" fill-rule="nonzero"/></g><g clip-path="url(#4967996680)"><path fill="#0661aa" d="M 52.316406 71.695312 C 52.265625 72.074219 52.050781 72.453125 51.855469 72.738281 C 51.648438 73.03125 51.425781 73.277344 51.140625 73.363281 C 51.785156 73.417969 51.792969 73.238281 52.441406 73.238281 C 53.089844 73.238281 53.089844 73.25 53.742188 73.25 C 54.390625 73.25 54.390625 73.402344 55.039062 73.402344 C 55.6875 73.402344 55.6875 73.328125 56.339844 73.328125 C 56.988281 73.328125 56.988281 73.394531 57.636719 73.394531 C 58.289062 73.394531 58.289062 73.394531 58.9375 73.394531 C 59.585938 73.394531 59.585938 73.347656 60.234375 73.347656 C 60.886719 73.347656 60.886719 73.359375 61.535156 73.359375 C 62.183594 73.359375 62.183594 73.382812 62.835938 73.382812 C 63.484375 73.382812 63.484375 73.332031 64.132812 73.332031 C 64.78125 73.332031 64.78125 73.367188 65.433594 73.367188 C 66.082031 73.367188 66.082031 73.355469 66.730469 73.355469 C 67.378906 73.355469 67.378906 73.402344 68.03125 73.402344 C 68.679688 73.402344 68.679688 73.359375 69.328125 73.359375 C 69.976562 73.359375 69.976562 73.308594 70.628906 73.308594 C 71.277344 73.308594 71.277344 73.265625 71.925781 73.265625 C 72.574219 73.265625 72.574219 73.347656 73.226562 73.347656 C 73.875 73.347656 73.875 73.347656 74.523438 73.347656 C 75.175781 73.347656 75.175781 73.386719 75.824219 73.386719 C 76.476562 73.386719 76.476562 73.300781 77.125 73.300781 C 77.773438 73.300781 77.773438 73.328125 78.425781 73.328125 C 79.074219 73.328125 79.074219 73.300781 79.722656 73.300781 C 80.375 73.300781 80.375 73.234375 81.023438 73.234375 C 81.675781 73.234375 81.675781 73.332031 82.324219 73.332031 C 82.976562 73.332031 82.976562 73.230469 83.625 73.230469 C 84.277344 73.230469 84.277344 73.40625 84.929688 73.40625 C 85.578125 73.40625 85.605469 73.132812 86.226562 73.335938 C 86.429688 73.402344 86.457031 73.757812 86.257812 73.824219 C 85.640625 74.027344 85.582031 73.742188 84.933594 73.742188 C 84.28125 73.742188 84.28125 73.699219 83.632812 73.699219 C 82.984375 73.699219 82.984375 73.773438 82.335938 73.773438 C 81.683594 73.773438 81.683594 73.75 81.035156 73.75 C 80.386719 73.75 80.386719 73.722656 79.738281 73.722656 C 79.085938 73.722656 79.085938 73.804688 78.4375 73.804688 C 77.789062 73.804688 77.789062 73.824219 77.136719 73.824219 C 76.488281 73.824219 76.488281 73.695312 75.839844 73.695312 C 75.191406 73.695312 75.191406 73.746094 74.539062 73.746094 C 73.890625 73.746094 73.890625 73.710938 73.242188 73.710938 C 72.589844 73.710938 72.589844 73.796875 71.941406 73.796875 C 71.292969 73.796875 71.292969 73.78125 70.644531 73.78125 C 69.992188 73.78125 69.992188 73.800781 69.34375 73.800781 C 68.695312 73.800781 68.695312 73.773438 68.046875 73.773438 C 67.398438 73.773438 67.398438 73.703125 66.746094 73.703125 C 66.097656 73.703125 66.097656 73.761719 65.449219 73.761719 C 64.796875 73.761719 64.796875 73.757812 64.148438 73.757812 C 63.5 73.757812 63.5 73.707031 62.847656 73.707031 C 62.199219 73.707031 62.199219 73.832031 61.550781 73.832031 C 60.898438 73.832031 60.898438 73.691406 60.25 73.691406 C 59.597656 73.691406 59.597656 73.667969 58.949219 73.667969 C 58.300781 73.667969 58.300781 73.714844 57.648438 73.714844 C 57 73.714844 57 73.757812 56.351562 73.757812 C 55.699219 73.757812 55.699219 73.660156 55.050781 73.660156 C 54.398438 73.660156 54.398438 73.792969 53.75 73.792969 C 53.097656 73.792969 53.097656 73.699219 52.445312 73.699219 C 51.792969 73.699219 51.792969 73.703125 51.144531 73.757812 C 51.429688 73.847656 51.714844 73.992188 51.917969 74.277344 C 52.117188 74.570312 52.257812 74.984375 52.308594 75.367188 C 52.140625 75.554688 51.96875 75.574219 51.761719 75.429688 C 51.734375 74.949219 51.597656 74.554688 51.359375 74.273438 C 51.089844 73.960938 50.683594 73.804688 50.246094 73.765625 C 50.101562 73.609375 50.085938 73.445312 50.230469 73.289062 C 50.667969 73.246094 51.078125 73.097656 51.347656 72.785156 C 51.585938 72.503906 51.796875 72.160156 51.824219 71.679688 C 51.988281 71.4375 52.148438 71.507812 52.316406 71.695312 Z M 52.316406 71.695312 " fill-opacity="1" fill-rule="nonzero"/></g><g clip-path="url(#1a65eb0ff2)"><path fill="#0661aa" d="M 97.660156 82.0625 L 37.332031 82.0625 L 37.332031 21.734375 L 97.660156 21.734375 Z M 37.714844 81.679688 L 97.277344 81.679688 L 97.277344 22.117188 L 37.714844 22.117188 Z M 37.714844 81.679688 " fill-opacity="1" fill-rule="nonzero"/></g><g clip-path="url(#55122875c0)"><path fill="#0661aa" d="M 85.925781 57.800781 L 85.160156 57.257812 C 83.898438 56.375 81.90625 55.777344 80.457031 55.433594 C 79.886719 55.300781 79.171875 55.136719 78.496094 54.984375 C 77.789062 54.820312 77.132812 54.671875 76.75 54.578125 C 76.679688 54.160156 76.550781 53.691406 76.40625 53.160156 C 76.117188 52.089844 75.75 50.757812 75.605469 48.949219 C 75.339844 45.605469 72.011719 45.011719 71.996094 45.011719 C 70.554688 44.554688 69.679688 44.355469 68.28125 44.355469 C 66.886719 44.355469 66.007812 44.554688 64.605469 45.003906 C 64.574219 45.007812 61.226562 45.59375 60.957031 48.949219 C 60.8125 50.757812 60.449219 52.089844 60.15625 53.160156 C 60.011719 53.691406 59.882812 54.160156 59.816406 54.578125 C 59.433594 54.671875 58.773438 54.820312 58.070312 54.984375 C 57.394531 55.136719 56.675781 55.300781 56.109375 55.433594 C 54.660156 55.777344 52.667969 56.375 51.40625 57.257812 L 50.640625 57.800781 L 51.578125 57.761719 C 52.089844 57.738281 53.472656 57.734375 55.039062 57.734375 C 53.667969 58.148438 52.925781 59.070312 52.734375 59.855469 L 52.726562 59.921875 C 52.726562 61.296875 54.617188 63.285156 59.933594 64.757812 C 62.734375 65.53125 65.714844 65.800781 68.253906 65.800781 C 69.457031 65.804688 70.65625 65.738281 71.851562 65.605469 C 71.933594 65.628906 72.019531 65.652344 72.101562 65.679688 L 72.160156 65.695312 L 72.222656 65.6875 C 73.976562 65.425781 75.464844 65.113281 76.640625 64.753906 C 81.148438 63.386719 83.839844 61.582031 83.839844 59.921875 L 83.832031 59.855469 C 83.636719 59.070312 82.894531 58.148438 81.523438 57.734375 C 83.089844 57.730469 84.472656 57.738281 84.988281 57.761719 Z M 71.890625 65.046875 C 71.644531 65.074219 71.386719 65.101562 71.109375 65.125 C 70.792969 65.152344 70.457031 65.175781 70.109375 65.191406 C 67.292969 65.34375 63.519531 65.179688 60.078125 64.226562 C 55.421875 62.9375 53.3125 61.160156 53.277344 59.953125 C 53.5625 58.898438 55.089844 57.589844 58.183594 58.230469 C 58.683594 58.332031 60.347656 59.007812 62.484375 59.925781 C 62.570312 59.964844 62.652344 60 62.738281 60.035156 C 62.824219 60.074219 62.90625 60.109375 62.992188 60.144531 C 64.40625 60.757812 65.992188 61.457031 67.566406 62.160156 L 67.90625 62.3125 L 68.242188 62.464844 C 69.210938 62.894531 70.164062 63.324219 71.0625 63.730469 L 71.410156 63.886719 L 71.738281 64.035156 C 72.335938 64.304688 72.902344 64.5625 73.425781 64.796875 C 72.917969 64.90625 72.40625 64.988281 71.890625 65.046875 Z M 58.503906 57.746094 C 60.0625 57.753906 61.269531 57.761719 61.300781 57.761719 L 61.425781 57.761719 L 61.511719 57.664062 C 62.59375 56.394531 63.878906 53.117188 64.054688 51.597656 C 64.355469 52.503906 64.609375 53.707031 64.664062 55.148438 C 64.394531 56.390625 63.324219 58.421875 62.757812 59.445312 C 60.78125 58.59375 59.195312 57.949219 58.503906 57.746094 Z M 83.289062 59.953125 C 83.25 60.992188 81.453125 62.71875 76.480469 64.226562 C 75.914062 64.398438 75.277344 64.558594 74.566406 64.710938 L 74.324219 64.601562 C 73.71875 64.328125 73.050781 64.023438 72.339844 63.703125 L 72.046875 63.570312 L 71.738281 63.429688 C 70.839844 63.023438 69.886719 62.597656 68.921875 62.164062 C 70.703125 61.371094 72.25 60.695312 73.5625 60.132812 C 73.648438 60.097656 73.734375 60.058594 73.820312 60.023438 C 73.90625 59.988281 73.992188 59.949219 74.074219 59.914062 C 76.449219 58.902344 77.929688 58.320312 78.378906 58.230469 C 81.476562 57.589844 83.003906 58.898438 83.289062 59.953125 Z M 71.898438 55.148438 C 71.9375 53.929688 72.140625 52.738281 72.511719 51.574219 C 72.515625 53.386719 74.03125 56.464844 75.054688 57.664062 L 75.136719 57.761719 L 75.265625 57.761719 C 75.296875 57.761719 76.5 57.75 78.0625 57.742188 C 77.421875 57.929688 75.996094 58.496094 73.800781 59.429688 C 73.230469 58.40625 72.167969 56.382812 71.898438 55.148438 Z M 75.390625 57.207031 C 74.445312 56.03125 73.0625 53.183594 73.058594 51.589844 C 73.113281 51.035156 73.664062 49.699219 73.875 49.234375 L 74.101562 48.71875 L 73.554688 48.855469 C 72.753906 49.050781 71.472656 51.785156 71.347656 55.160156 L 71.347656 55.195312 L 71.355469 55.226562 C 71.625 56.527344 72.695312 58.578125 73.292969 59.648438 C 71.890625 60.25 70.210938 60.988281 68.246094 61.859375 C 66.53125 61.09375 64.800781 60.328125 63.265625 59.664062 C 63.859375 58.597656 64.941406 56.53125 65.210938 55.226562 L 65.21875 55.195312 L 65.214844 55.160156 C 65.09375 51.785156 63.8125 49.050781 63.007812 48.855469 L 62.460938 48.71875 L 62.691406 49.234375 C 62.898438 49.691406 63.433594 50.992188 63.503906 51.5625 C 63.320312 53.082031 62.089844 56.046875 61.171875 57.207031 C 60.246094 57.203125 55.074219 57.167969 52.617188 57.191406 C 53.828125 56.59375 55.332031 56.183594 56.234375 55.96875 C 56.800781 55.835938 57.519531 55.671875 58.191406 55.519531 C 59.027344 55.328125 59.800781 55.152344 60.132812 55.066406 L 60.3125 55.019531 L 60.335938 54.832031 C 60.386719 54.410156 60.527344 53.898438 60.6875 53.304688 C 60.988281 52.210938 61.359375 50.851562 61.507812 48.992188 C 61.738281 46.074219 64.574219 45.566406 64.734375 45.535156 C 66.144531 45.089844 66.949219 44.90625 68.28125 44.90625 C 69.613281 44.90625 70.417969 45.089844 71.867188 45.546875 C 71.898438 45.550781 74.824219 46.0625 75.058594 48.992188 C 75.207031 50.851562 75.578125 52.214844 75.875 53.304688 C 76.039062 53.898438 76.175781 54.410156 76.230469 54.832031 L 76.25 55.019531 L 76.433594 55.066406 C 76.761719 55.152344 77.535156 55.328125 78.375 55.519531 C 79.046875 55.671875 79.761719 55.835938 80.328125 55.96875 C 81.234375 56.183594 82.734375 56.59375 83.945312 57.191406 C 81.492188 57.167969 76.3125 57.203125 75.390625 57.207031 Z M 68.289062 43.492188 C 68.566406 43.488281 68.84375 43.457031 69.117188 43.398438 C 69.390625 43.335938 69.652344 43.246094 69.90625 43.125 C 70.160156 43.003906 70.394531 42.859375 70.617188 42.6875 C 70.835938 42.515625 71.035156 42.320312 71.210938 42.105469 C 71.390625 41.886719 71.539062 41.652344 71.667969 41.40625 C 71.792969 41.15625 71.890625 40.894531 71.957031 40.621094 C 72.027344 40.351562 72.0625 40.074219 72.070312 39.796875 C 72.078125 39.515625 72.054688 39.238281 72 38.964844 C 71.945312 38.691406 71.863281 38.425781 71.75 38.167969 C 71.636719 37.914062 71.496094 37.671875 71.332031 37.449219 C 71.164062 37.222656 70.976562 37.019531 70.765625 36.835938 C 70.554688 36.652344 70.324219 36.496094 70.078125 36.363281 C 69.832031 36.230469 69.574219 36.125 69.304688 36.050781 C 69.035156 35.972656 68.761719 35.929688 68.484375 35.914062 C 68.203125 35.898438 67.925781 35.914062 67.648438 35.960938 C 67.375 36.007812 67.105469 36.082031 66.847656 36.1875 C 66.589844 36.292969 66.34375 36.425781 66.113281 36.585938 C 65.886719 36.746094 65.675781 36.929688 65.488281 37.136719 C 65.296875 37.34375 65.132812 37.566406 64.996094 37.808594 C 64.855469 38.050781 64.742188 38.304688 64.660156 38.574219 C 64.578125 38.839844 64.523438 39.113281 64.5 39.390625 C 64.480469 39.671875 64.488281 39.949219 64.527344 40.226562 C 64.566406 40.503906 64.632812 40.773438 64.730469 41.035156 C 64.832031 41.296875 64.957031 41.542969 65.109375 41.777344 C 65.460938 42.316406 65.917969 42.734375 66.480469 43.039062 C 67.046875 43.34375 67.648438 43.492188 68.289062 43.492188 Z M 66.507812 36.988281 C 66.867188 36.753906 67.257812 36.59375 67.679688 36.515625 C 68.101562 36.433594 68.523438 36.4375 68.945312 36.527344 C 69.363281 36.613281 69.753906 36.777344 70.109375 37.019531 C 70.464844 37.261719 70.757812 37.5625 70.996094 37.925781 C 71.230469 38.285156 71.386719 38.675781 71.46875 39.097656 C 71.546875 39.519531 71.542969 39.941406 71.457031 40.363281 C 71.367188 40.78125 71.203125 41.171875 70.960938 41.527344 C 70.71875 41.878906 70.417969 42.175781 70.058594 42.410156 C 69.699219 42.648438 69.308594 42.804688 68.886719 42.882812 C 68.460938 42.964844 68.042969 42.960938 67.621094 42.871094 C 67.199219 42.785156 66.8125 42.621094 66.457031 42.378906 C 66.101562 42.136719 65.804688 41.835938 65.570312 41.476562 C 65.332031 41.117188 65.171875 40.726562 65.089844 40.304688 C 65.011719 39.878906 65.011719 39.457031 65.101562 39.035156 C 65.1875 38.613281 65.355469 38.226562 65.597656 37.871094 C 65.84375 37.515625 66.144531 37.222656 66.507812 36.988281 Z M 66.507812 36.988281 " fill-opacity="1" fill-rule="nonzero"/></g><g fill="#2d6d5e" fill-opacity="1"><g transform="translate(22.513811, 123.201218)"><g><path d="M 2.203125 -7.8125 C 2.972656 -7.8125 3.539062 -7.625 3.90625 -7.25 C 4.269531 -6.882812 4.453125 -6.304688 4.453125 -5.515625 C 4.453125 -5.117188 4.40625 -4.765625 4.3125 -4.453125 C 4.21875 -4.148438 4.078125 -3.894531 3.890625 -3.6875 C 3.703125 -3.488281 3.460938 -3.335938 3.171875 -3.234375 C 2.890625 -3.128906 2.5625 -3.078125 2.1875 -3.078125 L 1.65625 -3.078125 L 1.65625 0 L 0.8125 0 L 0.8125 -7.8125 Z M 2.171875 -7.0625 L 1.65625 -7.0625 L 1.65625 -3.828125 L 2.109375 -3.828125 C 2.453125 -3.828125 2.734375 -3.882812 2.953125 -4 C 3.171875 -4.113281 3.328125 -4.289062 3.421875 -4.53125 C 3.523438 -4.78125 3.578125 -5.109375 3.578125 -5.515625 C 3.578125 -6.066406 3.460938 -6.460938 3.234375 -6.703125 C 3.003906 -6.941406 2.648438 -7.0625 2.171875 -7.0625 Z M 2.171875 -7.0625 "/></g></g></g><g fill="#2d6d5e" fill-opacity="1"><g transform="translate(28.833485, 123.201218)"><g><path d="M 2.28125 -5.96875 C 2.820312 -5.96875 3.207031 -5.796875 3.4375 -5.453125 C 3.675781 -5.109375 3.796875 -4.609375 3.796875 -3.953125 L 3.796875 0 L 3.171875 0 L 3.046875 -0.828125 L 3.015625 -0.828125 C 2.929688 -0.628906 2.820312 -0.457031 2.6875 -0.3125 C 2.5625 -0.175781 2.414062 -0.0703125 2.25 0 C 2.09375 0.0703125 1.90625 0.109375 1.6875 0.109375 C 1.382812 0.109375 1.132812 0.03125 0.9375 -0.125 C 0.75 -0.289062 0.609375 -0.503906 0.515625 -0.765625 C 0.421875 -1.023438 0.375 -1.304688 0.375 -1.609375 C 0.375 -2.191406 0.539062 -2.640625 0.875 -2.953125 C 1.21875 -3.273438 1.695312 -3.453125 2.3125 -3.484375 L 2.96875 -3.53125 L 2.96875 -3.9375 C 2.96875 -4.40625 2.90625 -4.742188 2.78125 -4.953125 C 2.65625 -5.171875 2.445312 -5.28125 2.15625 -5.28125 C 2 -5.28125 1.828125 -5.25 1.640625 -5.1875 C 1.460938 -5.132812 1.269531 -5.046875 1.0625 -4.921875 L 0.796875 -5.546875 C 1.015625 -5.691406 1.25 -5.796875 1.5 -5.859375 C 1.757812 -5.929688 2.019531 -5.96875 2.28125 -5.96875 Z M 2.984375 -2.921875 L 2.4375 -2.890625 C 2.03125 -2.867188 1.722656 -2.753906 1.515625 -2.546875 C 1.316406 -2.335938 1.21875 -2.035156 1.21875 -1.640625 C 1.21875 -1.265625 1.28125 -0.988281 1.40625 -0.8125 C 1.539062 -0.644531 1.722656 -0.5625 1.953125 -0.5625 C 2.285156 -0.5625 2.539062 -0.71875 2.71875 -1.03125 C 2.894531 -1.34375 2.984375 -1.773438 2.984375 -2.328125 Z M 2.984375 -2.921875 "/></g></g></g><g fill="#2d6d5e" fill-opacity="1"><g transform="translate(34.859324, 123.201218)"><g><path d="M 2.671875 -5.96875 C 2.753906 -5.96875 2.835938 -5.957031 2.921875 -5.9375 C 3.003906 -5.925781 3.085938 -5.910156 3.171875 -5.890625 L 3.046875 -5.046875 C 2.984375 -5.066406 2.914062 -5.082031 2.84375 -5.09375 C 2.769531 -5.101562 2.691406 -5.109375 2.609375 -5.109375 C 2.453125 -5.109375 2.304688 -5.054688 2.171875 -4.953125 C 2.035156 -4.847656 1.921875 -4.703125 1.828125 -4.515625 C 1.734375 -4.328125 1.660156 -4.109375 1.609375 -3.859375 C 1.554688 -3.609375 1.53125 -3.34375 1.53125 -3.0625 L 1.53125 0 L 0.71875 0 L 0.71875 -5.859375 L 1.359375 -5.859375 L 1.46875 -4.828125 L 1.515625 -4.828125 C 1.597656 -5.046875 1.691406 -5.238281 1.796875 -5.40625 C 1.910156 -5.582031 2.039062 -5.71875 2.1875 -5.8125 C 2.332031 -5.914062 2.492188 -5.96875 2.671875 -5.96875 Z M 2.671875 -5.96875 "/></g></g></g><g fill="#2d6d5e" fill-opacity="1"><g transform="translate(39.672432, 123.201218)"><g><path d="M 2.28125 -5.96875 C 2.820312 -5.96875 3.207031 -5.796875 3.4375 -5.453125 C 3.675781 -5.109375 3.796875 -4.609375 3.796875 -3.953125 L 3.796875 0 L 3.171875 0 L 3.046875 -0.828125 L 3.015625 -0.828125 C 2.929688 -0.628906 2.820312 -0.457031 2.6875 -0.3125 C 2.5625 -0.175781 2.414062 -0.0703125 2.25 0 C 2.09375 0.0703125 1.90625 0.109375 1.6875 0.109375 C 1.382812 0.109375 1.132812 0.03125 0.9375 -0.125 C 0.75 -0.289062 0.609375 -0.503906 0.515625 -0.765625 C 0.421875 -1.023438 0.375 -1.304688 0.375 -1.609375 C 0.375 -2.191406 0.539062 -2.640625 0.875 -2.953125 C 1.21875 -3.273438 1.695312 -3.453125 2.3125 -3.484375 L 2.96875 -3.53125 L 2.96875 -3.9375 C 2.96875 -4.40625 2.90625 -4.742188 2.78125 -4.953125 C 2.65625 -5.171875 2.445312 -5.28125 2.15625 -5.28125 C 2 -5.28125 1.828125 -5.25 1.640625 -5.1875 C 1.460938 -5.132812 1.269531 -5.046875 1.0625 -4.921875 L 0.796875 -5.546875 C 1.015625 -5.691406 1.25 -5.796875 1.5 -5.859375 C 1.757812 -5.929688 2.019531 -5.96875 2.28125 -5.96875 Z M 2.984375 -2.921875 L 2.4375 -2.890625 C 2.03125 -2.867188 1.722656 -2.753906 1.515625 -2.546875 C 1.316406 -2.335938 1.21875 -2.035156 1.21875 -1.640625 C 1.21875 -1.265625 1.28125 -0.988281 1.40625 -0.8125 C 1.539062 -0.644531 1.722656 -0.5625 1.953125 -0.5625 C 2.285156 -0.5625 2.539062 -0.71875 2.71875 -1.03125 C 2.894531 -1.34375 2.984375 -1.773438 2.984375 -2.328125 Z M 2.984375 -2.921875 "/></g></g></g><g fill="#2d6d5e" fill-opacity="1"><g transform="translate(45.698272, 123.201218)"><g/></g></g><g fill="#2d6d5e" fill-opacity="1"><g transform="translate(49.261252, 123.201218)"><g><path d="M 2.328125 -5.953125 C 2.722656 -5.953125 3.050781 -5.835938 3.3125 -5.609375 C 3.570312 -5.378906 3.765625 -5.066406 3.890625 -4.671875 C 4.015625 -4.285156 4.078125 -3.851562 4.078125 -3.375 L 4.078125 -2.78125 L 1.28125 -2.78125 C 1.289062 -2.050781 1.40625 -1.503906 1.625 -1.140625 C 1.84375 -0.773438 2.171875 -0.59375 2.609375 -0.59375 C 2.828125 -0.59375 3.035156 -0.625 3.234375 -0.6875 C 3.441406 -0.75 3.648438 -0.851562 3.859375 -1 L 3.859375 -0.265625 C 3.660156 -0.140625 3.453125 -0.046875 3.234375 0.015625 C 3.015625 0.078125 2.78125 0.109375 2.53125 0.109375 C 2.039062 0.109375 1.644531 -0.0195312 1.34375 -0.28125 C 1.039062 -0.539062 0.816406 -0.898438 0.671875 -1.359375 C 0.535156 -1.816406 0.46875 -2.332031 0.46875 -2.90625 C 0.46875 -3.550781 0.535156 -4.101562 0.671875 -4.5625 C 0.816406 -5.019531 1.023438 -5.363281 1.296875 -5.59375 C 1.578125 -5.832031 1.921875 -5.953125 2.328125 -5.953125 Z M 2.328125 -5.28125 C 2.015625 -5.28125 1.769531 -5.128906 1.59375 -4.828125 C 1.425781 -4.535156 1.328125 -4.070312 1.296875 -3.4375 L 3.3125 -3.4375 C 3.3125 -3.769531 3.273438 -4.078125 3.203125 -4.359375 C 3.140625 -4.640625 3.035156 -4.863281 2.890625 -5.03125 C 2.742188 -5.195312 2.554688 -5.28125 2.328125 -5.28125 Z M 2.328125 -5.28125 "/></g></g></g><g fill="#2d6d5e" fill-opacity="1"><g transform="translate(55.319146, 123.201218)"><g><path d="M 3.328125 -1.546875 C 3.328125 -1.191406 3.257812 -0.890625 3.125 -0.640625 C 3 -0.398438 2.8125 -0.210938 2.5625 -0.078125 C 2.320312 0.046875 2.03125 0.109375 1.6875 0.109375 C 1.414062 0.109375 1.164062 0.078125 0.9375 0.015625 C 0.71875 -0.046875 0.53125 -0.125 0.375 -0.21875 L 0.375 -1.078125 C 0.53125 -0.941406 0.722656 -0.832031 0.953125 -0.75 C 1.179688 -0.664062 1.414062 -0.625 1.65625 -0.625 C 1.925781 -0.625 2.132812 -0.703125 2.28125 -0.859375 C 2.4375 -1.015625 2.515625 -1.234375 2.515625 -1.515625 C 2.515625 -1.679688 2.484375 -1.828125 2.421875 -1.953125 C 2.359375 -2.078125 2.257812 -2.195312 2.125 -2.3125 C 1.988281 -2.425781 1.816406 -2.546875 1.609375 -2.671875 C 1.359375 -2.816406 1.140625 -2.96875 0.953125 -3.125 C 0.765625 -3.289062 0.617188 -3.476562 0.515625 -3.6875 C 0.421875 -3.894531 0.375 -4.144531 0.375 -4.4375 C 0.375 -4.894531 0.519531 -5.265625 0.8125 -5.546875 C 1.113281 -5.828125 1.503906 -5.96875 1.984375 -5.96875 C 2.234375 -5.96875 2.46875 -5.9375 2.6875 -5.875 C 2.90625 -5.8125 3.113281 -5.71875 3.3125 -5.59375 L 3 -4.9375 C 2.851562 -5.039062 2.691406 -5.117188 2.515625 -5.171875 C 2.347656 -5.234375 2.175781 -5.265625 2 -5.265625 C 1.738281 -5.265625 1.53125 -5.191406 1.375 -5.046875 C 1.226562 -4.898438 1.15625 -4.707031 1.15625 -4.46875 C 1.15625 -4.300781 1.1875 -4.15625 1.25 -4.03125 C 1.3125 -3.914062 1.410156 -3.800781 1.546875 -3.6875 C 1.679688 -3.582031 1.863281 -3.460938 2.09375 -3.328125 C 2.34375 -3.171875 2.554688 -3.015625 2.734375 -2.859375 C 2.921875 -2.703125 3.066406 -2.519531 3.171875 -2.3125 C 3.273438 -2.101562 3.328125 -1.847656 3.328125 -1.546875 Z M 3.328125 -1.546875 "/></g></g></g><g fill="#2d6d5e" fill-opacity="1"><g transform="translate(60.527594, 123.201218)"><g><path d="M 2.09375 -0.625 C 2.1875 -0.625 2.273438 -0.628906 2.359375 -0.640625 C 2.453125 -0.660156 2.535156 -0.691406 2.609375 -0.734375 L 2.609375 -0.0625 C 2.503906 -0.0078125 2.382812 0.03125 2.25 0.0625 C 2.125 0.09375 1.984375 0.109375 1.828125 0.109375 C 1.578125 0.109375 1.367188 0.0507812 1.203125 -0.0625 C 1.046875 -0.175781 0.925781 -0.34375 0.84375 -0.5625 C 0.769531 -0.789062 0.734375 -1.078125 0.734375 -1.421875 L 0.734375 -5.171875 L 0.1875 -5.171875 L 0.1875 -5.625 L 0.78125 -5.84375 L 1 -7.1875 L 1.5625 -7.1875 L 1.5625 -5.859375 L 2.546875 -5.859375 L 2.546875 -5.171875 L 1.5625 -5.171875 L 1.5625 -1.515625 C 1.5625 -1.210938 1.597656 -0.988281 1.671875 -0.84375 C 1.742188 -0.695312 1.882812 -0.625 2.09375 -0.625 Z M 2.09375 -0.625 "/></g></g></g><g fill="#2d6d5e" fill-opacity="1"><g transform="translate(64.833171, 123.201218)"><g><path d="M 2.28125 -5.96875 C 2.820312 -5.96875 3.207031 -5.796875 3.4375 -5.453125 C 3.675781 -5.109375 3.796875 -4.609375 3.796875 -3.953125 L 3.796875 0 L 3.171875 0 L 3.046875 -0.828125 L 3.015625 -0.828125 C 2.929688 -0.628906 2.820312 -0.457031 2.6875 -0.3125 C 2.5625 -0.175781 2.414062 -0.0703125 2.25 0 C 2.09375 0.0703125 1.90625 0.109375 1.6875 0.109375 C 1.382812 0.109375 1.132812 0.03125 0.9375 -0.125 C 0.75 -0.289062 0.609375 -0.503906 0.515625 -0.765625 C 0.421875 -1.023438 0.375 -1.304688 0.375 -1.609375 C 0.375 -2.191406 0.539062 -2.640625 0.875 -2.953125 C 1.21875 -3.273438 1.695312 -3.453125 2.3125 -3.484375 L 2.96875 -3.53125 L 2.96875 -3.9375 C 2.96875 -4.40625 2.90625 -4.742188 2.78125 -4.953125 C 2.65625 -5.171875 2.445312 -5.28125 2.15625 -5.28125 C 2 -5.28125 1.828125 -5.25 1.640625 -5.1875 C 1.460938 -5.132812 1.269531 -5.046875 1.0625 -4.921875 L 0.796875 -5.546875 C 1.015625 -5.691406 1.25 -5.796875 1.5 -5.859375 C 1.757812 -5.929688 2.019531 -5.96875 2.28125 -5.96875 Z M 2.984375 -2.921875 L 2.4375 -2.890625 C 2.03125 -2.867188 1.722656 -2.753906 1.515625 -2.546875 C 1.316406 -2.335938 1.21875 -2.035156 1.21875 -1.640625 C 1.21875 -1.265625 1.28125 -0.988281 1.40625 -0.8125 C 1.539062 -0.644531 1.722656 -0.5625 1.953125 -0.5625 C 2.285156 -0.5625 2.539062 -0.71875 2.71875 -1.03125 C 2.894531 -1.34375 2.984375 -1.773438 2.984375 -2.328125 Z M 2.984375 -2.921875 "/></g></g></g><g fill="#2d6d5e" fill-opacity="1"><g transform="translate(70.859011, 123.201218)"><g><path d="M 1.53125 -8.3125 L 1.53125 -5.859375 C 1.53125 -5.742188 1.523438 -5.613281 1.515625 -5.46875 C 1.515625 -5.332031 1.515625 -5.1875 1.515625 -5.03125 L 1.546875 -5.03125 C 1.691406 -5.34375 1.875 -5.570312 2.09375 -5.71875 C 2.3125 -5.875 2.5625 -5.953125 2.84375 -5.953125 C 3.40625 -5.953125 3.832031 -5.695312 4.125 -5.1875 C 4.414062 -4.675781 4.5625 -3.925781 4.5625 -2.9375 C 4.5625 -2.28125 4.492188 -1.722656 4.359375 -1.265625 C 4.234375 -0.816406 4.039062 -0.472656 3.78125 -0.234375 C 3.53125 -0.00390625 3.226562 0.109375 2.875 0.109375 C 2.582031 0.109375 2.328125 0.0351562 2.109375 -0.109375 C 1.890625 -0.253906 1.703125 -0.476562 1.546875 -0.78125 L 1.5 -0.78125 L 1.390625 0 L 0.71875 0 L 0.71875 -8.3125 Z M 2.671875 -5.234375 C 2.367188 -5.234375 2.132812 -5.140625 1.96875 -4.953125 C 1.8125 -4.765625 1.695312 -4.503906 1.625 -4.171875 C 1.5625 -3.835938 1.53125 -3.457031 1.53125 -3.03125 L 1.53125 -2.78125 C 1.53125 -2.039062 1.625 -1.492188 1.8125 -1.140625 C 2.007812 -0.785156 2.296875 -0.609375 2.671875 -0.609375 C 3.023438 -0.609375 3.285156 -0.796875 3.453125 -1.171875 C 3.628906 -1.554688 3.71875 -2.148438 3.71875 -2.953125 C 3.71875 -3.703125 3.632812 -4.269531 3.46875 -4.65625 C 3.300781 -5.039062 3.035156 -5.234375 2.671875 -5.234375 Z M 2.671875 -5.234375 "/></g></g></g><g fill="#2d6d5e" fill-opacity="1"><g transform="translate(77.397724, 123.201218)"><g><path d="M 1.546875 -5.859375 L 1.546875 0 L 0.71875 0 L 0.71875 -5.859375 Z M 1.140625 -8.0625 C 1.316406 -8.0625 1.441406 -8.007812 1.515625 -7.90625 C 1.585938 -7.800781 1.625 -7.648438 1.625 -7.453125 C 1.625 -7.273438 1.582031 -7.128906 1.5 -7.015625 C 1.425781 -6.910156 1.304688 -6.859375 1.140625 -6.859375 C 0.992188 -6.859375 0.875 -6.910156 0.78125 -7.015625 C 0.695312 -7.128906 0.65625 -7.273438 0.65625 -7.453125 C 0.65625 -7.648438 0.695312 -7.800781 0.78125 -7.90625 C 0.863281 -8.007812 0.984375 -8.0625 1.140625 -8.0625 Z M 1.140625 -8.0625 "/></g></g></g><g fill="#2d6d5e" fill-opacity="1"><g transform="translate(81.19577, 123.201218)"><g><path d="M 1.53125 0 L 0.71875 0 L 0.71875 -8.3125 L 1.53125 -8.3125 Z M 1.53125 0 "/></g></g></g><g fill="#2d6d5e" fill-opacity="1"><g transform="translate(84.972447, 123.201218)"><g><path d="M 1.546875 -5.859375 L 1.546875 0 L 0.71875 0 L 0.71875 -5.859375 Z M 1.140625 -8.0625 C 1.316406 -8.0625 1.441406 -8.007812 1.515625 -7.90625 C 1.585938 -7.800781 1.625 -7.648438 1.625 -7.453125 C 1.625 -7.273438 1.582031 -7.128906 1.5 -7.015625 C 1.425781 -6.910156 1.304688 -6.859375 1.140625 -6.859375 C 0.992188 -6.859375 0.875 -6.910156 0.78125 -7.015625 C 0.695312 -7.128906 0.65625 -7.273438 0.65625 -7.453125 C 0.65625 -7.648438 0.695312 -7.800781 0.78125 -7.90625 C 0.863281 -8.007812 0.984375 -8.0625 1.140625 -8.0625 Z M 1.140625 -8.0625 "/></g></g></g><g fill="#2d6d5e" fill-opacity="1"><g transform="translate(88.770493, 123.201218)"><g><path d="M 3.03125 0 L 0.28125 0 L 0.28125 -0.5625 L 2.0625 -5.15625 L 0.390625 -5.15625 L 0.390625 -5.859375 L 2.953125 -5.859375 L 2.953125 -5.265625 L 1.1875 -0.703125 L 3.03125 -0.703125 Z M 3.03125 0 "/></g></g></g><g fill="#2d6d5e" fill-opacity="1"><g transform="translate(93.567574, 123.201218)"><g><path d="M 2.28125 -5.96875 C 2.820312 -5.96875 3.207031 -5.796875 3.4375 -5.453125 C 3.675781 -5.109375 3.796875 -4.609375 3.796875 -3.953125 L 3.796875 0 L 3.171875 0 L 3.046875 -0.828125 L 3.015625 -0.828125 C 2.929688 -0.628906 2.820312 -0.457031 2.6875 -0.3125 C 2.5625 -0.175781 2.414062 -0.0703125 2.25 0 C 2.09375 0.0703125 1.90625 0.109375 1.6875 0.109375 C 1.382812 0.109375 1.132812 0.03125 0.9375 -0.125 C 0.75 -0.289062 0.609375 -0.503906 0.515625 -0.765625 C 0.421875 -1.023438 0.375 -1.304688 0.375 -1.609375 C 0.375 -2.191406 0.539062 -2.640625 0.875 -2.953125 C 1.21875 -3.273438 1.695312 -3.453125 2.3125 -3.484375 L 2.96875 -3.53125 L 2.96875 -3.9375 C 2.96875 -4.40625 2.90625 -4.742188 2.78125 -4.953125 C 2.65625 -5.171875 2.445312 -5.28125 2.15625 -5.28125 C 2 -5.28125 1.828125 -5.25 1.640625 -5.1875 C 1.460938 -5.132812 1.269531 -5.046875 1.0625 -4.921875 L 0.796875 -5.546875 C 1.015625 -5.691406 1.25 -5.796875 1.5 -5.859375 C 1.757812 -5.929688 2.019531 -5.96875 2.28125 -5.96875 Z M 2.984375 -2.921875 L 2.4375 -2.890625 C 2.03125 -2.867188 1.722656 -2.753906 1.515625 -2.546875 C 1.316406 -2.335938 1.21875 -2.035156 1.21875 -1.640625 C 1.21875 -1.265625 1.28125 -0.988281 1.40625 -0.8125 C 1.539062 -0.644531 1.722656 -0.5625 1.953125 -0.5625 C 2.285156 -0.5625 2.539062 -0.71875 2.71875 -1.03125 C 2.894531 -1.34375 2.984375 -1.773438 2.984375 -2.328125 Z M 2.984375 -2.921875 "/></g></g></g><g fill="#2d6d5e" fill-opacity="1"><g transform="translate(99.593413, 123.201218)"><g><path d="M 2.671875 -5.96875 C 2.753906 -5.96875 2.835938 -5.957031 2.921875 -5.9375 C 3.003906 -5.925781 3.085938 -5.910156 3.171875 -5.890625 L 3.046875 -5.046875 C 2.984375 -5.066406 2.914062 -5.082031 2.84375 -5.09375 C 2.769531 -5.101562 2.691406 -5.109375 2.609375 -5.109375 C 2.453125 -5.109375 2.304688 -5.054688 2.171875 -4.953125 C 2.035156 -4.847656 1.921875 -4.703125 1.828125 -4.515625 C 1.734375 -4.328125 1.660156 -4.109375 1.609375 -3.859375 C 1.554688 -3.609375 1.53125 -3.34375 1.53125 -3.0625 L 1.53125 0 L 0.71875 0 L 0.71875 -5.859375 L 1.359375 -5.859375 L 1.46875 -4.828125 L 1.515625 -4.828125 C 1.597656 -5.046875 1.691406 -5.238281 1.796875 -5.40625 C 1.910156 -5.582031 2.039062 -5.71875 2.1875 -5.8125 C 2.332031 -5.914062 2.492188 -5.96875 2.671875 -5.96875 Z M 2.671875 -5.96875 "/></g></g></g><g fill="#2d6d5e" fill-opacity="1"><g transform="translate(104.406521, 123.201218)"><g/></g></g><g fill="#2d6d5e" fill-opacity="1"><g transform="translate(107.969501, 123.201218)"><g><path d="M 2.28125 -5.96875 C 2.820312 -5.96875 3.207031 -5.796875 3.4375 -5.453125 C 3.675781 -5.109375 3.796875 -4.609375 3.796875 -3.953125 L 3.796875 0 L 3.171875 0 L 3.046875 -0.828125 L 3.015625 -0.828125 C 2.929688 -0.628906 2.820312 -0.457031 2.6875 -0.3125 C 2.5625 -0.175781 2.414062 -0.0703125 2.25 0 C 2.09375 0.0703125 1.90625 0.109375 1.6875 0.109375 C 1.382812 0.109375 1.132812 0.03125 0.9375 -0.125 C 0.75 -0.289062 0.609375 -0.503906 0.515625 -0.765625 C 0.421875 -1.023438 0.375 -1.304688 0.375 -1.609375 C 0.375 -2.191406 0.539062 -2.640625 0.875 -2.953125 C 1.21875 -3.273438 1.695312 -3.453125 2.3125 -3.484375 L 2.96875 -3.53125 L 2.96875 -3.9375 C 2.96875 -4.40625 2.90625 -4.742188 2.78125 -4.953125 C 2.65625 -5.171875 2.445312 -5.28125 2.15625 -5.28125 C 2 -5.28125 1.828125 -5.25 1.640625 -5.1875 C 1.460938 -5.132812 1.269531 -5.046875 1.0625 -4.921875 L 0.796875 -5.546875 C 1.015625 -5.691406 1.25 -5.796875 1.5 -5.859375 C 1.757812 -5.929688 2.019531 -5.96875 2.28125 -5.96875 Z M 2.984375 -2.921875 L 2.4375 -2.890625 C 2.03125 -2.867188 1.722656 -2.753906 1.515625 -2.546875 C 1.316406 -2.335938 1.21875 -2.035156 1.21875 -1.640625 C 1.21875 -1.265625 1.28125 -0.988281 1.40625 -0.8125 C 1.539062 -0.644531 1.722656 -0.5625 1.953125 -0.5625 C 2.285156 -0.5625 2.539062 -0.71875 2.71875 -1.03125 C 2.894531 -1.34375 2.984375 -1.773438 2.984375 -2.328125 Z M 2.984375 -2.921875 "/></g></g></g><g fill="#2d6d5e" fill-opacity="1"><g transform="translate(13.508821, 135.892189)"><g><path d="M 2.671875 -5.96875 C 2.753906 -5.96875 2.835938 -5.957031 2.921875 -5.9375 C 3.003906 -5.925781 3.085938 -5.910156 3.171875 -5.890625 L 3.046875 -5.046875 C 2.984375 -5.066406 2.914062 -5.082031 2.84375 -5.09375 C 2.769531 -5.101562 2.691406 -5.109375 2.609375 -5.109375 C 2.453125 -5.109375 2.304688 -5.054688 2.171875 -4.953125 C 2.035156 -4.847656 1.921875 -4.703125 1.828125 -4.515625 C 1.734375 -4.328125 1.660156 -4.109375 1.609375 -3.859375 C 1.554688 -3.609375 1.53125 -3.34375 1.53125 -3.0625 L 1.53125 0 L 0.71875 0 L 0.71875 -5.859375 L 1.359375 -5.859375 L 1.46875 -4.828125 L 1.515625 -4.828125 C 1.597656 -5.046875 1.691406 -5.238281 1.796875 -5.40625 C 1.910156 -5.582031 2.039062 -5.71875 2.1875 -5.8125 C 2.332031 -5.914062 2.492188 -5.96875 2.671875 -5.96875 Z M 2.671875 -5.96875 "/></g></g></g><g fill="#2d6d5e" fill-opacity="1"><g transform="translate(18.321929, 135.892189)"><g><path d="M 2.328125 -5.953125 C 2.722656 -5.953125 3.050781 -5.835938 3.3125 -5.609375 C 3.570312 -5.378906 3.765625 -5.066406 3.890625 -4.671875 C 4.015625 -4.285156 4.078125 -3.851562 4.078125 -3.375 L 4.078125 -2.78125 L 1.28125 -2.78125 C 1.289062 -2.050781 1.40625 -1.503906 1.625 -1.140625 C 1.84375 -0.773438 2.171875 -0.59375 2.609375 -0.59375 C 2.828125 -0.59375 3.035156 -0.625 3.234375 -0.6875 C 3.441406 -0.75 3.648438 -0.851562 3.859375 -1 L 3.859375 -0.265625 C 3.660156 -0.140625 3.453125 -0.046875 3.234375 0.015625 C 3.015625 0.078125 2.78125 0.109375 2.53125 0.109375 C 2.039062 0.109375 1.644531 -0.0195312 1.34375 -0.28125 C 1.039062 -0.539062 0.816406 -0.898438 0.671875 -1.359375 C 0.535156 -1.816406 0.46875 -2.332031 0.46875 -2.90625 C 0.46875 -3.550781 0.535156 -4.101562 0.671875 -4.5625 C 0.816406 -5.019531 1.023438 -5.363281 1.296875 -5.59375 C 1.578125 -5.832031 1.921875 -5.953125 2.328125 -5.953125 Z M 2.328125 -5.28125 C 2.015625 -5.28125 1.769531 -5.128906 1.59375 -4.828125 C 1.425781 -4.535156 1.328125 -4.070312 1.296875 -3.4375 L 3.3125 -3.4375 C 3.3125 -3.769531 3.273438 -4.078125 3.203125 -4.359375 C 3.140625 -4.640625 3.035156 -4.863281 2.890625 -5.03125 C 2.742188 -5.195312 2.554688 -5.28125 2.328125 -5.28125 Z M 2.328125 -5.28125 "/></g></g></g><g fill="#2d6d5e" fill-opacity="1"><g transform="translate(24.379823, 135.892189)"><g><path d="M 3.328125 -1.546875 C 3.328125 -1.191406 3.257812 -0.890625 3.125 -0.640625 C 3 -0.398438 2.8125 -0.210938 2.5625 -0.078125 C 2.320312 0.046875 2.03125 0.109375 1.6875 0.109375 C 1.414062 0.109375 1.164062 0.078125 0.9375 0.015625 C 0.71875 -0.046875 0.53125 -0.125 0.375 -0.21875 L 0.375 -1.078125 C 0.53125 -0.941406 0.722656 -0.832031 0.953125 -0.75 C 1.179688 -0.664062 1.414062 -0.625 1.65625 -0.625 C 1.925781 -0.625 2.132812 -0.703125 2.28125 -0.859375 C 2.4375 -1.015625 2.515625 -1.234375 2.515625 -1.515625 C 2.515625 -1.679688 2.484375 -1.828125 2.421875 -1.953125 C 2.359375 -2.078125 2.257812 -2.195312 2.125 -2.3125 C 1.988281 -2.425781 1.816406 -2.546875 1.609375 -2.671875 C 1.359375 -2.816406 1.140625 -2.96875 0.953125 -3.125 C 0.765625 -3.289062 0.617188 -3.476562 0.515625 -3.6875 C 0.421875 -3.894531 0.375 -4.144531 0.375 -4.4375 C 0.375 -4.894531 0.519531 -5.265625 0.8125 -5.546875 C 1.113281 -5.828125 1.503906 -5.96875 1.984375 -5.96875 C 2.234375 -5.96875 2.46875 -5.9375 2.6875 -5.875 C 2.90625 -5.8125 3.113281 -5.71875 3.3125 -5.59375 L 3 -4.9375 C 2.851562 -5.039062 2.691406 -5.117188 2.515625 -5.171875 C 2.347656 -5.234375 2.175781 -5.265625 2 -5.265625 C 1.738281 -5.265625 1.53125 -5.191406 1.375 -5.046875 C 1.226562 -4.898438 1.15625 -4.707031 1.15625 -4.46875 C 1.15625 -4.300781 1.1875 -4.15625 1.25 -4.03125 C 1.3125 -3.914062 1.410156 -3.800781 1.546875 -3.6875 C 1.679688 -3.582031 1.863281 -3.460938 2.09375 -3.328125 C 2.34375 -3.171875 2.554688 -3.015625 2.734375 -2.859375 C 2.921875 -2.703125 3.066406 -2.519531 3.171875 -2.3125 C 3.273438 -2.101562 3.328125 -1.847656 3.328125 -1.546875 Z M 3.328125 -1.546875 "/></g></g></g><g fill="#2d6d5e" fill-opacity="1"><g transform="translate(29.588271, 135.892189)"><g><path d="M 2.828125 -5.96875 C 3.390625 -5.96875 3.816406 -5.710938 4.109375 -5.203125 C 4.398438 -4.703125 4.546875 -3.945312 4.546875 -2.9375 C 4.546875 -2.289062 4.476562 -1.738281 4.34375 -1.28125 C 4.21875 -0.832031 4.03125 -0.488281 3.78125 -0.25 C 3.53125 -0.0078125 3.226562 0.109375 2.875 0.109375 C 2.675781 0.109375 2.488281 0.0703125 2.3125 0 C 2.144531 -0.0820312 1.992188 -0.191406 1.859375 -0.328125 C 1.734375 -0.472656 1.625 -0.640625 1.53125 -0.828125 L 1.5 -0.828125 C 1.507812 -0.679688 1.515625 -0.539062 1.515625 -0.40625 C 1.523438 -0.28125 1.53125 -0.160156 1.53125 -0.046875 L 1.53125 2.609375 L 0.71875 2.609375 L 0.71875 -5.859375 L 1.390625 -5.859375 L 1.484375 -5 L 1.53125 -5 C 1.632812 -5.21875 1.75 -5.394531 1.875 -5.53125 C 2.007812 -5.675781 2.15625 -5.785156 2.3125 -5.859375 C 2.46875 -5.929688 2.640625 -5.96875 2.828125 -5.96875 Z M 2.65625 -5.265625 C 2.40625 -5.265625 2.195312 -5.1875 2.03125 -5.03125 C 1.875 -4.875 1.75 -4.632812 1.65625 -4.3125 C 1.570312 -4 1.53125 -3.601562 1.53125 -3.125 L 1.53125 -2.84375 C 1.53125 -2.34375 1.570312 -1.925781 1.65625 -1.59375 C 1.75 -1.257812 1.878906 -1.007812 2.046875 -0.84375 C 2.210938 -0.6875 2.421875 -0.609375 2.671875 -0.609375 C 2.898438 -0.609375 3.09375 -0.691406 3.25 -0.859375 C 3.40625 -1.023438 3.519531 -1.273438 3.59375 -1.609375 C 3.675781 -1.953125 3.71875 -2.394531 3.71875 -2.9375 C 3.71875 -3.707031 3.632812 -4.285156 3.46875 -4.671875 C 3.300781 -5.066406 3.03125 -5.265625 2.65625 -5.265625 Z M 2.65625 -5.265625 "/></g></g></g><g fill="#2d6d5e" fill-opacity="1"><g transform="translate(36.126984, 135.892189)"><g><path d="M 1.546875 -5.859375 L 1.546875 0 L 0.71875 0 L 0.71875 -5.859375 Z M 1.140625 -8.0625 C 1.316406 -8.0625 1.441406 -8.007812 1.515625 -7.90625 C 1.585938 -7.800781 1.625 -7.648438 1.625 -7.453125 C 1.625 -7.273438 1.582031 -7.128906 1.5 -7.015625 C 1.425781 -6.910156 1.304688 -6.859375 1.140625 -6.859375 C 0.992188 -6.859375 0.875 -6.910156 0.78125 -7.015625 C 0.695312 -7.128906 0.65625 -7.273438 0.65625 -7.453125 C 0.65625 -7.648438 0.695312 -7.800781 0.78125 -7.90625 C 0.863281 -8.007812 0.984375 -8.0625 1.140625 -8.0625 Z M 1.140625 -8.0625 "/></g></g></g><g fill="#2d6d5e" fill-opacity="1"><g transform="translate(39.92503, 135.892189)"><g><path d="M 2.671875 -5.96875 C 2.753906 -5.96875 2.835938 -5.957031 2.921875 -5.9375 C 3.003906 -5.925781 3.085938 -5.910156 3.171875 -5.890625 L 3.046875 -5.046875 C 2.984375 -5.066406 2.914062 -5.082031 2.84375 -5.09375 C 2.769531 -5.101562 2.691406 -5.109375 2.609375 -5.109375 C 2.453125 -5.109375 2.304688 -5.054688 2.171875 -4.953125 C 2.035156 -4.847656 1.921875 -4.703125 1.828125 -4.515625 C 1.734375 -4.328125 1.660156 -4.109375 1.609375 -3.859375 C 1.554688 -3.609375 1.53125 -3.34375 1.53125 -3.0625 L 1.53125 0 L 0.71875 0 L 0.71875 -5.859375 L 1.359375 -5.859375 L 1.46875 -4.828125 L 1.515625 -4.828125 C 1.597656 -5.046875 1.691406 -5.238281 1.796875 -5.40625 C 1.910156 -5.582031 2.039062 -5.71875 2.1875 -5.8125 C 2.332031 -5.914062 2.492188 -5.96875 2.671875 -5.96875 Z M 2.671875 -5.96875 "/></g></g></g><g fill="#2d6d5e" fill-opacity="1"><g transform="translate(44.738138, 135.892189)"><g><path d="M 2.28125 -5.96875 C 2.820312 -5.96875 3.207031 -5.796875 3.4375 -5.453125 C 3.675781 -5.109375 3.796875 -4.609375 3.796875 -3.953125 L 3.796875 0 L 3.171875 0 L 3.046875 -0.828125 L 3.015625 -0.828125 C 2.929688 -0.628906 2.820312 -0.457031 2.6875 -0.3125 C 2.5625 -0.175781 2.414062 -0.0703125 2.25 0 C 2.09375 0.0703125 1.90625 0.109375 1.6875 0.109375 C 1.382812 0.109375 1.132812 0.03125 0.9375 -0.125 C 0.75 -0.289062 0.609375 -0.503906 0.515625 -0.765625 C 0.421875 -1.023438 0.375 -1.304688 0.375 -1.609375 C 0.375 -2.191406 0.539062 -2.640625 0.875 -2.953125 C 1.21875 -3.273438 1.695312 -3.453125 2.3125 -3.484375 L 2.96875 -3.53125 L 2.96875 -3.9375 C 2.96875 -4.40625 2.90625 -4.742188 2.78125 -4.953125 C 2.65625 -5.171875 2.445312 -5.28125 2.15625 -5.28125 C 2 -5.28125 1.828125 -5.25 1.640625 -5.1875 C 1.460938 -5.132812 1.269531 -5.046875 1.0625 -4.921875 L 0.796875 -5.546875 C 1.015625 -5.691406 1.25 -5.796875 1.5 -5.859375 C 1.757812 -5.929688 2.019531 -5.96875 2.28125 -5.96875 Z M 2.984375 -2.921875 L 2.4375 -2.890625 C 2.03125 -2.867188 1.722656 -2.753906 1.515625 -2.546875 C 1.316406 -2.335938 1.21875 -2.035156 1.21875 -1.640625 C 1.21875 -1.265625 1.28125 -0.988281 1.40625 -0.8125 C 1.539062 -0.644531 1.722656 -0.5625 1.953125 -0.5625 C 2.285156 -0.5625 2.539062 -0.71875 2.71875 -1.03125 C 2.894531 -1.34375 2.984375 -1.773438 2.984375 -2.328125 Z M 2.984375 -2.921875 "/></g></g></g><g fill="#2d6d5e" fill-opacity="1"><g transform="translate(50.763978, 135.892189)"><g><path d="M 2.40625 0.109375 C 1.976562 0.109375 1.617188 0 1.328125 -0.21875 C 1.046875 -0.445312 0.832031 -0.785156 0.6875 -1.234375 C 0.539062 -1.679688 0.46875 -2.234375 0.46875 -2.890625 C 0.46875 -3.535156 0.539062 -4.085938 0.6875 -4.546875 C 0.832031 -5.003906 1.050781 -5.351562 1.34375 -5.59375 C 1.632812 -5.84375 2 -5.96875 2.4375 -5.96875 C 2.65625 -5.96875 2.851562 -5.941406 3.03125 -5.890625 C 3.207031 -5.847656 3.375 -5.785156 3.53125 -5.703125 L 3.265625 -5.03125 C 3.140625 -5.09375 3.007812 -5.140625 2.875 -5.171875 C 2.75 -5.210938 2.625 -5.234375 2.5 -5.234375 C 2.238281 -5.234375 2.019531 -5.144531 1.84375 -4.96875 C 1.675781 -4.789062 1.546875 -4.53125 1.453125 -4.1875 C 1.359375 -3.84375 1.3125 -3.414062 1.3125 -2.90625 C 1.3125 -2.394531 1.351562 -1.96875 1.4375 -1.625 C 1.53125 -1.289062 1.664062 -1.035156 1.84375 -0.859375 C 2.019531 -0.691406 2.238281 -0.609375 2.5 -0.609375 C 2.65625 -0.609375 2.8125 -0.628906 2.96875 -0.671875 C 3.132812 -0.722656 3.300781 -0.789062 3.46875 -0.875 L 3.46875 -0.1875 C 3.3125 -0.09375 3.132812 -0.0195312 2.9375 0.03125 C 2.75 0.0820312 2.570312 0.109375 2.40625 0.109375 Z M 3.3125 1.515625 C 3.3125 1.867188 3.195312 2.140625 2.96875 2.328125 C 2.738281 2.523438 2.425781 2.625 2.03125 2.625 C 1.90625 2.625 1.789062 2.617188 1.6875 2.609375 C 1.582031 2.597656 1.492188 2.582031 1.421875 2.5625 L 1.421875 2.015625 C 1.492188 2.035156 1.570312 2.050781 1.65625 2.0625 C 1.738281 2.070312 1.820312 2.078125 1.90625 2.078125 C 2.144531 2.078125 2.320312 2.023438 2.4375 1.921875 C 2.5625 1.816406 2.625 1.679688 2.625 1.515625 C 2.625 1.316406 2.546875 1.164062 2.390625 1.0625 C 2.234375 0.96875 2.023438 0.898438 1.765625 0.859375 L 2.140625 0 L 2.640625 0 L 2.40625 0.5625 C 2.601562 0.601562 2.769531 0.664062 2.90625 0.75 C 3.039062 0.832031 3.140625 0.9375 3.203125 1.0625 C 3.273438 1.195312 3.3125 1.347656 3.3125 1.515625 Z M 3.3125 1.515625 "/></g></g></g><g fill="#2d6d5e" fill-opacity="1"><g transform="translate(56.052562, 135.892189)"><g><path d="M 2.28125 -5.96875 C 2.820312 -5.96875 3.207031 -5.796875 3.4375 -5.453125 C 3.675781 -5.109375 3.796875 -4.609375 3.796875 -3.953125 L 3.796875 0 L 3.171875 0 L 3.046875 -0.828125 L 3.015625 -0.828125 C 2.929688 -0.628906 2.820312 -0.457031 2.6875 -0.3125 C 2.5625 -0.175781 2.414062 -0.0703125 2.25 0 C 2.09375 0.0703125 1.90625 0.109375 1.6875 0.109375 C 1.382812 0.109375 1.132812 0.03125 0.9375 -0.125 C 0.75 -0.289062 0.609375 -0.503906 0.515625 -0.765625 C 0.421875 -1.023438 0.375 -1.304688 0.375 -1.609375 C 0.375 -2.191406 0.539062 -2.640625 0.875 -2.953125 C 1.21875 -3.273438 1.695312 -3.453125 2.3125 -3.484375 L 2.96875 -3.53125 L 2.96875 -3.9375 C 2.96875 -4.40625 2.90625 -4.742188 2.78125 -4.953125 C 2.65625 -5.171875 2.445312 -5.28125 2.15625 -5.28125 C 2 -5.28125 1.828125 -5.25 1.640625 -5.1875 C 1.460938 -5.132812 1.269531 -5.046875 1.0625 -4.921875 L 0.796875 -5.546875 C 1.015625 -5.691406 1.25 -5.796875 1.5 -5.859375 C 1.757812 -5.929688 2.019531 -5.96875 2.28125 -5.96875 Z M 2.984375 -2.921875 L 2.4375 -2.890625 C 2.03125 -2.867188 1.722656 -2.753906 1.515625 -2.546875 C 1.316406 -2.335938 1.21875 -2.035156 1.21875 -1.640625 C 1.21875 -1.265625 1.28125 -0.988281 1.40625 -0.8125 C 1.539062 -0.644531 1.722656 -0.5625 1.953125 -0.5625 C 2.285156 -0.5625 2.539062 -0.71875 2.71875 -1.03125 C 2.894531 -1.34375 2.984375 -1.773438 2.984375 -2.328125 Z M 0.703125 -6.640625 C 0.722656 -6.804688 0.75 -6.96875 0.78125 -7.125 C 0.820312 -7.28125 0.878906 -7.414062 0.953125 -7.53125 C 1.023438 -7.65625 1.113281 -7.75 1.21875 -7.8125 C 1.320312 -7.882812 1.445312 -7.921875 1.59375 -7.921875 C 1.726562 -7.921875 1.851562 -7.890625 1.96875 -7.828125 C 2.09375 -7.765625 2.210938 -7.691406 2.328125 -7.609375 C 2.441406 -7.523438 2.550781 -7.453125 2.65625 -7.390625 C 2.769531 -7.328125 2.878906 -7.296875 2.984375 -7.296875 C 3.097656 -7.296875 3.179688 -7.351562 3.234375 -7.46875 C 3.296875 -7.582031 3.34375 -7.738281 3.375 -7.9375 L 3.890625 -7.9375 C 3.867188 -7.519531 3.773438 -7.195312 3.609375 -6.96875 C 3.453125 -6.75 3.253906 -6.640625 3.015625 -6.640625 C 2.878906 -6.640625 2.75 -6.671875 2.625 -6.734375 C 2.5 -6.804688 2.378906 -6.882812 2.265625 -6.96875 C 2.148438 -7.050781 2.039062 -7.125 1.9375 -7.1875 C 1.832031 -7.25 1.734375 -7.28125 1.640625 -7.28125 C 1.546875 -7.28125 1.457031 -7.222656 1.375 -7.109375 C 1.300781 -6.992188 1.25 -6.835938 1.21875 -6.640625 Z M 0.703125 -6.640625 "/></g></g></g><g fill="#2d6d5e" fill-opacity="1"><g transform="translate(62.078402, 135.892189)"><g><path d="M 4.359375 -2.9375 C 4.359375 -2.476562 4.316406 -2.0625 4.234375 -1.6875 C 4.160156 -1.3125 4.039062 -0.988281 3.875 -0.71875 C 3.71875 -0.457031 3.515625 -0.253906 3.265625 -0.109375 C 3.023438 0.0351562 2.734375 0.109375 2.390625 0.109375 C 2.078125 0.109375 1.796875 0.0351562 1.546875 -0.109375 C 1.304688 -0.253906 1.101562 -0.457031 0.9375 -0.71875 C 0.78125 -0.976562 0.660156 -1.296875 0.578125 -1.671875 C 0.503906 -2.054688 0.46875 -2.476562 0.46875 -2.9375 C 0.46875 -3.582031 0.535156 -4.128906 0.671875 -4.578125 C 0.804688 -5.035156 1.019531 -5.378906 1.3125 -5.609375 C 1.601562 -5.847656 1.96875 -5.96875 2.40625 -5.96875 C 2.820312 -5.96875 3.175781 -5.851562 3.46875 -5.625 C 3.757812 -5.394531 3.976562 -5.054688 4.125 -4.609375 C 4.28125 -4.160156 4.359375 -3.601562 4.359375 -2.9375 Z M 1.296875 -2.9375 C 1.296875 -2.425781 1.332031 -2 1.40625 -1.65625 C 1.488281 -1.3125 1.613281 -1.050781 1.78125 -0.875 C 1.945312 -0.695312 2.160156 -0.609375 2.421875 -0.609375 C 2.671875 -0.609375 2.875 -0.691406 3.03125 -0.859375 C 3.195312 -1.035156 3.316406 -1.296875 3.390625 -1.640625 C 3.472656 -1.984375 3.515625 -2.414062 3.515625 -2.9375 C 3.515625 -3.445312 3.472656 -3.875 3.390625 -4.21875 C 3.316406 -4.5625 3.195312 -4.816406 3.03125 -4.984375 C 2.875 -5.160156 2.664062 -5.25 2.40625 -5.25 C 2.019531 -5.25 1.738281 -5.054688 1.5625 -4.671875 C 1.382812 -4.285156 1.296875 -3.707031 1.296875 -2.9375 Z M 1.296875 -2.9375 "/></g></g></g><g fill="#2d6d5e" fill-opacity="1"><g transform="translate(68.43013, 135.892189)"><g/></g></g><g fill="#2d6d5e" fill-opacity="1"><g transform="translate(71.993109, 135.892189)"><g><path d="M 2.328125 -5.953125 C 2.722656 -5.953125 3.050781 -5.835938 3.3125 -5.609375 C 3.570312 -5.378906 3.765625 -5.066406 3.890625 -4.671875 C 4.015625 -4.285156 4.078125 -3.851562 4.078125 -3.375 L 4.078125 -2.78125 L 1.28125 -2.78125 C 1.289062 -2.050781 1.40625 -1.503906 1.625 -1.140625 C 1.84375 -0.773438 2.171875 -0.59375 2.609375 -0.59375 C 2.828125 -0.59375 3.035156 -0.625 3.234375 -0.6875 C 3.441406 -0.75 3.648438 -0.851562 3.859375 -1 L 3.859375 -0.265625 C 3.660156 -0.140625 3.453125 -0.046875 3.234375 0.015625 C 3.015625 0.078125 2.78125 0.109375 2.53125 0.109375 C 2.039062 0.109375 1.644531 -0.0195312 1.34375 -0.28125 C 1.039062 -0.539062 0.816406 -0.898438 0.671875 -1.359375 C 0.535156 -1.816406 0.46875 -2.332031 0.46875 -2.90625 C 0.46875 -3.550781 0.535156 -4.101562 0.671875 -4.5625 C 0.816406 -5.019531 1.023438 -5.363281 1.296875 -5.59375 C 1.578125 -5.832031 1.921875 -5.953125 2.328125 -5.953125 Z M 2.328125 -5.28125 C 2.015625 -5.28125 1.769531 -5.128906 1.59375 -4.828125 C 1.425781 -4.535156 1.328125 -4.070312 1.296875 -3.4375 L 3.3125 -3.4375 C 3.3125 -3.769531 3.273438 -4.078125 3.203125 -4.359375 C 3.140625 -4.640625 3.035156 -4.863281 2.890625 -5.03125 C 2.742188 -5.195312 2.554688 -5.28125 2.328125 -5.28125 Z M 2.328125 -5.28125 "/></g></g></g><g fill="#2d6d5e" fill-opacity="1"><g transform="translate(78.051004, 135.892189)"><g/></g></g><g fill="#2d6d5e" fill-opacity="1"><g transform="translate(81.613983, 135.892189)"><g><path d="M 2.28125 -5.96875 C 2.820312 -5.96875 3.207031 -5.796875 3.4375 -5.453125 C 3.675781 -5.109375 3.796875 -4.609375 3.796875 -3.953125 L 3.796875 0 L 3.171875 0 L 3.046875 -0.828125 L 3.015625 -0.828125 C 2.929688 -0.628906 2.820312 -0.457031 2.6875 -0.3125 C 2.5625 -0.175781 2.414062 -0.0703125 2.25 0 C 2.09375 0.0703125 1.90625 0.109375 1.6875 0.109375 C 1.382812 0.109375 1.132812 0.03125 0.9375 -0.125 C 0.75 -0.289062 0.609375 -0.503906 0.515625 -0.765625 C 0.421875 -1.023438 0.375 -1.304688 0.375 -1.609375 C 0.375 -2.191406 0.539062 -2.640625 0.875 -2.953125 C 1.21875 -3.273438 1.695312 -3.453125 2.3125 -3.484375 L 2.96875 -3.53125 L 2.96875 -3.9375 C 2.96875 -4.40625 2.90625 -4.742188 2.78125 -4.953125 C 2.65625 -5.171875 2.445312 -5.28125 2.15625 -5.28125 C 2 -5.28125 1.828125 -5.25 1.640625 -5.1875 C 1.460938 -5.132812 1.269531 -5.046875 1.0625 -4.921875 L 0.796875 -5.546875 C 1.015625 -5.691406 1.25 -5.796875 1.5 -5.859375 C 1.757812 -5.929688 2.019531 -5.96875 2.28125 -5.96875 Z M 2.984375 -2.921875 L 2.4375 -2.890625 C 2.03125 -2.867188 1.722656 -2.753906 1.515625 -2.546875 C 1.316406 -2.335938 1.21875 -2.035156 1.21875 -1.640625 C 1.21875 -1.265625 1.28125 -0.988281 1.40625 -0.8125 C 1.539062 -0.644531 1.722656 -0.5625 1.953125 -0.5625 C 2.285156 -0.5625 2.539062 -0.71875 2.71875 -1.03125 C 2.894531 -1.34375 2.984375 -1.773438 2.984375 -2.328125 Z M 2.984375 -2.921875 "/></g></g></g><g fill="#2d6d5e" fill-opacity="1"><g transform="translate(87.639823, 135.892189)"><g/></g></g><g fill="#2d6d5e" fill-opacity="1"><g transform="translate(91.202802, 135.892189)"><g><path d="M 5.3125 -5.96875 C 5.78125 -5.96875 6.125 -5.800781 6.34375 -5.46875 C 6.5625 -5.132812 6.671875 -4.628906 6.671875 -3.953125 L 6.671875 0 L 5.859375 0 L 5.859375 -3.8125 C 5.859375 -4.320312 5.789062 -4.6875 5.65625 -4.90625 C 5.53125 -5.132812 5.34375 -5.25 5.09375 -5.25 C 4.738281 -5.25 4.484375 -5.078125 4.328125 -4.734375 C 4.179688 -4.398438 4.109375 -3.921875 4.109375 -3.296875 L 4.109375 0 L 3.296875 0 L 3.296875 -3.8125 C 3.296875 -4.164062 3.265625 -4.445312 3.203125 -4.65625 C 3.148438 -4.863281 3.066406 -5.015625 2.953125 -5.109375 C 2.835938 -5.203125 2.695312 -5.25 2.53125 -5.25 C 2.257812 -5.25 2.050781 -5.15625 1.90625 -4.96875 C 1.769531 -4.789062 1.671875 -4.539062 1.609375 -4.21875 C 1.554688 -3.90625 1.53125 -3.546875 1.53125 -3.140625 L 1.53125 0 L 0.71875 0 L 0.71875 -5.859375 L 1.375 -5.859375 L 1.46875 -5.03125 L 1.515625 -5.03125 C 1.585938 -5.226562 1.679688 -5.394531 1.796875 -5.53125 C 1.921875 -5.675781 2.0625 -5.785156 2.21875 -5.859375 C 2.382812 -5.929688 2.566406 -5.96875 2.765625 -5.96875 C 3.109375 -5.96875 3.375 -5.875 3.5625 -5.6875 C 3.757812 -5.507812 3.890625 -5.28125 3.953125 -5 L 4.015625 -5 C 4.148438 -5.332031 4.316406 -5.578125 4.515625 -5.734375 C 4.722656 -5.890625 4.988281 -5.96875 5.3125 -5.96875 Z M 5.3125 -5.96875 "/></g></g></g><g fill="#2d6d5e" fill-opacity="1"><g transform="translate(100.108212, 135.892189)"><g><path d="M 2.328125 -5.953125 C 2.722656 -5.953125 3.050781 -5.835938 3.3125 -5.609375 C 3.570312 -5.378906 3.765625 -5.066406 3.890625 -4.671875 C 4.015625 -4.285156 4.078125 -3.851562 4.078125 -3.375 L 4.078125 -2.78125 L 1.28125 -2.78125 C 1.289062 -2.050781 1.40625 -1.503906 1.625 -1.140625 C 1.84375 -0.773438 2.171875 -0.59375 2.609375 -0.59375 C 2.828125 -0.59375 3.035156 -0.625 3.234375 -0.6875 C 3.441406 -0.75 3.648438 -0.851562 3.859375 -1 L 3.859375 -0.265625 C 3.660156 -0.140625 3.453125 -0.046875 3.234375 0.015625 C 3.015625 0.078125 2.78125 0.109375 2.53125 0.109375 C 2.039062 0.109375 1.644531 -0.0195312 1.34375 -0.28125 C 1.039062 -0.539062 0.816406 -0.898438 0.671875 -1.359375 C 0.535156 -1.816406 0.46875 -2.332031 0.46875 -2.90625 C 0.46875 -3.550781 0.535156 -4.101562 0.671875 -4.5625 C 0.816406 -5.019531 1.023438 -5.363281 1.296875 -5.59375 C 1.578125 -5.832031 1.921875 -5.953125 2.328125 -5.953125 Z M 2.328125 -5.28125 C 2.015625 -5.28125 1.769531 -5.128906 1.59375 -4.828125 C 1.425781 -4.535156 1.328125 -4.070312 1.296875 -3.4375 L 3.3125 -3.4375 C 3.3125 -3.769531 3.273438 -4.078125 3.203125 -4.359375 C 3.140625 -4.640625 3.035156 -4.863281 2.890625 -5.03125 C 2.742188 -5.195312 2.554688 -5.28125 2.328125 -5.28125 Z M 2.328125 -5.28125 "/></g></g></g><g fill="#2d6d5e" fill-opacity="1"><g transform="translate(106.166106, 135.892189)"><g><path d="M 2.828125 -5.96875 C 3.285156 -5.96875 3.632812 -5.804688 3.875 -5.484375 C 4.113281 -5.160156 4.234375 -4.664062 4.234375 -4 L 4.234375 0 L 3.40625 0 L 3.40625 -3.828125 C 3.40625 -4.304688 3.34375 -4.660156 3.21875 -4.890625 C 3.101562 -5.128906 2.914062 -5.25 2.65625 -5.25 C 2.269531 -5.25 1.984375 -5.078125 1.796875 -4.734375 C 1.617188 -4.390625 1.53125 -3.84375 1.53125 -3.09375 L 1.53125 0 L 0.71875 0 L 0.71875 -5.859375 L 1.375 -5.859375 L 1.46875 -5.015625 L 1.515625 -5.015625 C 1.597656 -5.210938 1.703125 -5.378906 1.828125 -5.515625 C 1.960938 -5.660156 2.113281 -5.769531 2.28125 -5.84375 C 2.445312 -5.925781 2.628906 -5.96875 2.828125 -5.96875 Z M 2.828125 -5.96875 "/></g></g></g><g fill="#2d6d5e" fill-opacity="1"><g transform="translate(112.630025, 135.892189)"><g><path d="M 2.09375 -0.625 C 2.1875 -0.625 2.273438 -0.628906 2.359375 -0.640625 C 2.453125 -0.660156 2.535156 -0.691406 2.609375 -0.734375 L 2.609375 -0.0625 C 2.503906 -0.0078125 2.382812 0.03125 2.25 0.0625 C 2.125 0.09375 1.984375 0.109375 1.828125 0.109375 C 1.578125 0.109375 1.367188 0.0507812 1.203125 -0.0625 C 1.046875 -0.175781 0.925781 -0.34375 0.84375 -0.5625 C 0.769531 -0.789062 0.734375 -1.078125 0.734375 -1.421875 L 0.734375 -5.171875 L 0.1875 -5.171875 L 0.1875 -5.625 L 0.78125 -5.84375 L 1 -7.1875 L 1.5625 -7.1875 L 1.5625 -5.859375 L 2.546875 -5.859375 L 2.546875 -5.171875 L 1.5625 -5.171875 L 1.5625 -1.515625 C 1.5625 -1.210938 1.597656 -0.988281 1.671875 -0.84375 C 1.742188 -0.695312 1.882812 -0.625 2.09375 -0.625 Z M 2.09375 -0.625 "/></g></g></g><g fill="#2d6d5e" fill-opacity="1"><g transform="translate(116.935602, 135.892189)"><g><path d="M 2.328125 -5.953125 C 2.722656 -5.953125 3.050781 -5.835938 3.3125 -5.609375 C 3.570312 -5.378906 3.765625 -5.066406 3.890625 -4.671875 C 4.015625 -4.285156 4.078125 -3.851562 4.078125 -3.375 L 4.078125 -2.78125 L 1.28125 -2.78125 C 1.289062 -2.050781 1.40625 -1.503906 1.625 -1.140625 C 1.84375 -0.773438 2.171875 -0.59375 2.609375 -0.59375 C 2.828125 -0.59375 3.035156 -0.625 3.234375 -0.6875 C 3.441406 -0.75 3.648438 -0.851562 3.859375 -1 L 3.859375 -0.265625 C 3.660156 -0.140625 3.453125 -0.046875 3.234375 0.015625 C 3.015625 0.078125 2.78125 0.109375 2.53125 0.109375 C 2.039062 0.109375 1.644531 -0.0195312 1.34375 -0.28125 C 1.039062 -0.539062 0.816406 -0.898438 0.671875 -1.359375 C 0.535156 -1.816406 0.46875 -2.332031 0.46875 -2.90625 C 0.46875 -3.550781 0.535156 -4.101562 0.671875 -4.5625 C 0.816406 -5.019531 1.023438 -5.363281 1.296875 -5.59375 C 1.578125 -5.832031 1.921875 -5.953125 2.328125 -5.953125 Z M 2.328125 -5.28125 C 2.015625 -5.28125 1.769531 -5.128906 1.59375 -4.828125 C 1.425781 -4.535156 1.328125 -4.070312 1.296875 -3.4375 L 3.3125 -3.4375 C 3.3125 -3.769531 3.273438 -4.078125 3.203125 -4.359375 C 3.140625 -4.640625 3.035156 -4.863281 2.890625 -5.03125 C 2.742188 -5.195312 2.554688 -5.28125 2.328125 -5.28125 Z M 2.328125 -5.28125 "/></g></g></g></svg>