<svg xmlns="http://www.w3.org/2000/svg" xmlns:xlink="http://www.w3.org/1999/xlink" width="180" zoomAndPan="magnify" viewBox="0 0 135.12 149.999995" height="215" preserveAspectRatio="xMidYMid meet" version="1.0"><defs><g/><clipPath id="699d200791"><path d="M 48.140625 13.898438 L 86 13.898438 L 86 59.351562 L 48.140625 59.351562 Z M 48.140625 13.898438 " clip-rule="nonzero"/></clipPath></defs><g clip-path="url(#699d200791)"><path fill="#0661aa" d="M 83.699219 56.914062 C 82.851562 57.871094 81.632812 58.417969 80.355469 58.417969 L 75.601562 58.417969 C 76.066406 57.914062 76.371094 57.257812 76.429688 56.519531 C 76.550781 55 75.566406 53.632812 74.085938 53.261719 L 69.132812 52.03125 L 76.175781 50.277344 C 76.179688 50.277344 76.179688 50.277344 76.179688 50.277344 L 79.265625 49.507812 C 80.503906 49.199219 81.824219 49.4375 82.875 50.164062 C 83.929688 50.890625 84.621094 52.035156 84.773438 53.304688 L 84.789062 53.417969 C 84.941406 54.683594 84.542969 55.960938 83.699219 56.914062 Z M 72.332031 58.417969 L 53.761719 58.417969 C 52.484375 58.417969 51.265625 57.871094 50.421875 56.914062 C 49.574219 55.960938 49.175781 54.683594 49.328125 53.414062 L 49.34375 53.304688 C 49.496094 52.035156 50.1875 50.890625 51.242188 50.164062 C 51.992188 49.648438 52.878906 49.375 53.773438 49.375 C 54.132812 49.375 54.496094 49.421875 54.851562 49.507812 L 57.964844 50.285156 C 57.964844 50.285156 57.964844 50.285156 57.96875 50.285156 L 64.886719 52.007812 L 73.847656 54.234375 C 74.847656 54.484375 75.515625 55.410156 75.429688 56.484375 C 75.339844 57.570312 74.421875 58.417969 73.335938 58.417969 Z M 55.4375 45.808594 L 55.347656 38.515625 C 55.347656 32.925781 59.894531 28.378906 65.480469 28.378906 L 68.636719 28.378906 C 74.222656 28.378906 78.769531 32.925781 78.769531 38.507812 L 78.683594 45.835938 C 78.664062 47.480469 77.535156 48.90625 75.9375 49.304688 L 71.652344 50.371094 L 67.730469 48.09375 L 74 44.832031 C 74.164062 44.746094 74.269531 44.574219 74.269531 44.390625 L 74.269531 35.730469 C 74.269531 35.457031 74.042969 35.230469 73.765625 35.230469 C 73.492188 35.230469 73.265625 35.457031 73.265625 35.730469 L 73.265625 44.085938 L 66.703125 47.5 L 60.851562 44.101562 L 60.851562 35.730469 C 60.851562 35.457031 60.625 35.230469 60.351562 35.230469 C 60.074219 35.230469 59.847656 35.457031 59.847656 35.730469 L 59.847656 44.390625 C 59.847656 44.566406 59.945312 44.730469 60.097656 44.820312 L 70.253906 50.71875 L 67.058594 51.515625 L 58.207031 49.3125 C 56.59375 48.910156 55.457031 47.46875 55.4375 45.808594 Z M 60.820312 21.140625 C 60.820312 17.699219 63.617188 14.902344 67.058594 14.902344 C 70.5 14.902344 73.296875 17.699219 73.296875 21.140625 C 73.296875 24.582031 70.5 27.378906 67.058594 27.378906 C 63.617188 27.378906 60.820312 24.582031 60.820312 21.140625 Z M 85.78125 53.300781 L 85.769531 53.183594 C 85.582031 51.628906 84.734375 50.226562 83.445312 49.339844 C 82.152344 48.453125 80.542969 48.160156 79.023438 48.535156 L 78.722656 48.613281 C 79.316406 47.839844 79.671875 46.875 79.683594 45.847656 L 79.769531 38.515625 C 79.769531 32.996094 75.734375 28.402344 70.460938 27.53125 C 72.742188 26.308594 74.300781 23.902344 74.300781 21.140625 C 74.300781 17.148438 71.050781 13.898438 67.058594 13.898438 C 63.066406 13.898438 59.820312 17.148438 59.820312 21.140625 C 59.820312 23.902344 61.375 26.308594 63.65625 27.53125 C 58.382812 28.402344 54.347656 32.996094 54.347656 38.519531 L 54.433594 45.820312 C 54.445312 46.859375 54.804688 47.835938 55.410156 48.617188 L 55.09375 48.535156 C 53.574219 48.160156 51.964844 48.453125 50.671875 49.339844 C 49.382812 50.226562 48.535156 51.628906 48.347656 53.1875 L 48.335938 53.296875 C 48.148438 54.847656 48.632812 56.410156 49.671875 57.578125 C 50.707031 58.75 52.199219 59.421875 53.761719 59.421875 L 80.355469 59.421875 C 81.917969 59.421875 83.410156 58.75 84.445312 57.578125 C 85.484375 56.410156 85.96875 54.847656 85.78125 53.300781 " fill-opacity="1" fill-rule="nonzero"/></g><g fill="#0661aa" fill-opacity="1"><g transform="translate(29.627668, 90.916335)"><g><path d="M 1 0 L 1 -14.140625 L 7.484375 -14.140625 C 8.972656 -14.140625 10.125 -13.8125 10.9375 -13.15625 C 11.75 -12.5 12.15625 -11.5625 12.15625 -10.34375 C 12.15625 -9.550781 11.945312 -8.882812 11.53125 -8.34375 C 11.113281 -7.800781 10.523438 -7.4375 9.765625 -7.25 L 9.765625 -7.234375 C 10.628906 -7.054688 11.289062 -6.679688 11.75 -6.109375 C 12.21875 -5.535156 12.453125 -4.796875 12.453125 -3.890625 C 12.453125 -2.660156 12.035156 -1.703125 11.203125 -1.015625 C 10.367188 -0.335938 9.179688 0 7.640625 0 Z M 4.390625 -8.28125 L 6.9375 -8.28125 C 7.53125 -8.28125 7.988281 -8.429688 8.3125 -8.734375 C 8.632812 -9.035156 8.796875 -9.453125 8.796875 -9.984375 C 8.796875 -10.523438 8.632812 -10.941406 8.3125 -11.234375 C 7.988281 -11.523438 7.535156 -11.671875 6.953125 -11.671875 L 4.390625 -11.671875 Z M 4.390625 -2.46875 L 6.96875 -2.46875 C 7.632812 -2.46875 8.148438 -2.617188 8.515625 -2.921875 C 8.878906 -3.234375 9.0625 -3.675781 9.0625 -4.25 C 9.0625 -4.84375 8.878906 -5.300781 8.515625 -5.625 C 8.148438 -5.945312 7.632812 -6.109375 6.96875 -6.109375 L 4.390625 -6.109375 Z M 4.390625 -2.46875 "/></g></g></g><g fill="#0661aa" fill-opacity="1"><g transform="translate(44.903046, 90.916335)"><g><path d="M 6.234375 -10.453125 C 7.066406 -10.453125 7.734375 -10.140625 8.234375 -9.515625 C 8.742188 -8.890625 9.023438 -8.007812 9.078125 -6.875 L 6.515625 -6.171875 C 6.503906 -6.835938 6.382812 -7.335938 6.15625 -7.671875 C 5.925781 -8.015625 5.628906 -8.1875 5.265625 -8.1875 C 4.816406 -8.1875 4.453125 -7.957031 4.171875 -7.5 C 3.898438 -7.050781 3.765625 -6.429688 3.765625 -5.640625 L 3.765625 0 L 0.75 0 L 0.75 -10.171875 L 3.203125 -10.171875 L 3.609375 -8.421875 L 3.640625 -8.421875 C 3.859375 -9.054688 4.195312 -9.550781 4.65625 -9.90625 C 5.125 -10.269531 5.648438 -10.453125 6.234375 -10.453125 Z M 6.234375 -10.453125 "/></g></g></g><g fill="#0661aa" fill-opacity="1"><g transform="translate(56.503808, 90.916335)"><g><path d="M 5.9375 0.34375 C 4.84375 0.34375 3.875 0.117188 3.03125 -0.328125 C 2.195312 -0.785156 1.550781 -1.425781 1.09375 -2.25 C 0.644531 -3.082031 0.421875 -4.046875 0.421875 -5.140625 C 0.421875 -6.222656 0.628906 -7.164062 1.046875 -7.96875 C 1.460938 -8.769531 2.046875 -9.394531 2.796875 -9.84375 C 3.554688 -10.300781 4.445312 -10.53125 5.46875 -10.53125 C 6.445312 -10.53125 7.289062 -10.3125 8 -9.875 C 8.71875 -9.445312 9.273438 -8.84375 9.671875 -8.0625 C 10.078125 -7.289062 10.28125 -6.382812 10.28125 -5.34375 C 10.28125 -5.132812 10.269531 -4.929688 10.25 -4.734375 C 10.238281 -4.546875 10.210938 -4.382812 10.171875 -4.25 L 3.453125 -4.25 C 3.523438 -3.507812 3.785156 -2.921875 4.234375 -2.484375 C 4.679688 -2.054688 5.253906 -1.84375 5.953125 -1.84375 C 6.492188 -1.84375 6.972656 -1.972656 7.390625 -2.234375 C 7.804688 -2.503906 8.125 -2.875 8.34375 -3.34375 L 10.46875 -2.40625 C 10.175781 -1.550781 9.613281 -0.878906 8.78125 -0.390625 C 7.945312 0.0976562 7 0.34375 5.9375 0.34375 Z M 3.453125 -5.984375 L 7.265625 -5.984375 C 7.222656 -6.722656 7.039062 -7.296875 6.71875 -7.703125 C 6.40625 -8.117188 5.976562 -8.328125 5.4375 -8.328125 C 4.875 -8.328125 4.421875 -8.113281 4.078125 -7.6875 C 3.734375 -7.269531 3.523438 -6.703125 3.453125 -5.984375 Z M 3.453125 -5.984375 "/></g></g></g><g fill="#0661aa" fill-opacity="1"><g transform="translate(69.693602, 90.916335)"><g><path d="M 3.515625 0.234375 C 2.546875 0.234375 1.765625 -0.0195312 1.171875 -0.53125 C 0.578125 -1.050781 0.28125 -1.75 0.28125 -2.625 C 0.28125 -3.550781 0.632812 -4.300781 1.34375 -4.875 C 2.050781 -5.445312 3.085938 -5.804688 4.453125 -5.953125 L 6.015625 -6.140625 C 6.242188 -6.160156 6.425781 -6.238281 6.5625 -6.375 C 6.695312 -6.507812 6.765625 -6.703125 6.765625 -6.953125 C 6.765625 -7.398438 6.625 -7.742188 6.34375 -7.984375 C 6.070312 -8.222656 5.710938 -8.34375 5.265625 -8.34375 C 4.742188 -8.34375 4.320312 -8.160156 4 -7.796875 C 3.6875 -7.441406 3.519531 -6.992188 3.5 -6.453125 L 0.609375 -6.875 C 0.640625 -7.582031 0.847656 -8.210938 1.234375 -8.765625 C 1.628906 -9.316406 2.164062 -9.75 2.84375 -10.0625 C 3.53125 -10.375 4.332031 -10.53125 5.25 -10.53125 C 6.632812 -10.53125 7.726562 -10.164062 8.53125 -9.4375 C 9.34375 -8.707031 9.75 -7.71875 9.75 -6.46875 L 9.75 -2.546875 C 9.75 -2.085938 9.914062 -1.859375 10.25 -1.859375 C 10.507812 -1.859375 10.757812 -1.992188 11 -2.265625 L 11.65625 -0.640625 C 11.34375 -0.328125 10.957031 -0.0976562 10.5 0.046875 C 10.050781 0.191406 9.609375 0.265625 9.171875 0.265625 C 8.566406 0.265625 8.054688 0.109375 7.640625 -0.203125 C 7.222656 -0.515625 6.957031 -0.910156 6.84375 -1.390625 L 6.8125 -1.640625 L 6.796875 -1.640625 C 6.484375 -1.066406 6.039062 -0.609375 5.46875 -0.265625 C 4.90625 0.0664062 4.253906 0.234375 3.515625 0.234375 Z M 4.765625 -1.890625 C 5.335938 -1.890625 5.804688 -2.085938 6.171875 -2.484375 C 6.546875 -2.890625 6.734375 -3.421875 6.734375 -4.078125 L 6.734375 -4.546875 L 5.25 -4.390625 C 4.550781 -4.304688 4.050781 -4.140625 3.75 -3.890625 C 3.457031 -3.640625 3.3125 -3.34375 3.3125 -3 C 3.3125 -2.664062 3.445312 -2.394531 3.71875 -2.1875 C 3.988281 -1.988281 4.335938 -1.890625 4.765625 -1.890625 Z M 4.765625 -1.890625 "/></g></g></g><g fill="#0661aa" fill-opacity="1"><g transform="translate(82.545557, 90.916335)"><g><path d="M 5.4375 0.3125 C 4.269531 0.3125 3.375 -0.00390625 2.75 -0.640625 C 2.125 -1.273438 1.8125 -2.132812 1.8125 -3.21875 L 1.78125 -7.859375 L 0.078125 -7.859375 L 0.078125 -10.171875 L 1.8125 -10.171875 L 1.8125 -12.875 L 4.828125 -13.546875 L 4.828125 -10.171875 L 8.296875 -10.171875 L 8.296875 -7.859375 L 4.828125 -7.859375 L 4.84375 -3.75 C 4.84375 -3.25 4.960938 -2.851562 5.203125 -2.5625 C 5.441406 -2.28125 5.757812 -2.140625 6.15625 -2.140625 C 6.90625 -2.140625 7.457031 -2.554688 7.8125 -3.390625 L 8.796875 -1.546875 C 8.484375 -0.953125 8.03125 -0.492188 7.4375 -0.171875 C 6.84375 0.148438 6.175781 0.3125 5.4375 0.3125 Z M 5.4375 0.3125 "/></g></g></g><g fill="#0661aa" fill-opacity="1"><g transform="translate(93.828527, 90.916335)"><g><path d="M 0.75 0 L 0.75 -14.734375 L 3.765625 -14.734375 L 3.765625 -8.4375 L 3.796875 -8.4375 C 4.109375 -9.070312 4.539062 -9.5625 5.09375 -9.90625 C 5.644531 -10.25 6.273438 -10.421875 6.984375 -10.421875 C 7.929688 -10.421875 8.664062 -10.144531 9.1875 -9.59375 C 9.707031 -9.039062 9.96875 -8.253906 9.96875 -7.234375 L 9.96875 0 L 6.9375 0 L 6.9375 -6.453125 C 6.9375 -6.929688 6.816406 -7.300781 6.578125 -7.5625 C 6.335938 -7.832031 6.003906 -7.96875 5.578125 -7.96875 C 5.035156 -7.96875 4.597656 -7.789062 4.265625 -7.4375 C 3.929688 -7.082031 3.765625 -6.597656 3.765625 -5.984375 L 3.765625 0 Z M 0.75 0 "/></g></g></g><g fill="#0661aa" fill-opacity="1"><g transform="translate(15.714376, 113.270746)"><g><path d="M 10.671875 0.34375 C 9.960938 0.34375 9.382812 0.144531 8.9375 -0.25 C 8.5 -0.65625 8.203125 -1.179688 8.046875 -1.828125 L 7.46875 -4.046875 C 7.375 -4.429688 7.195312 -4.75 6.9375 -5 C 6.675781 -5.25 6.367188 -5.375 6.015625 -5.375 L 4.390625 -5.375 L 4.390625 0 L 1 0 L 1 -14.140625 L 7.125 -14.140625 C 8.78125 -14.140625 10.082031 -13.75 11.03125 -12.96875 C 11.988281 -12.1875 12.46875 -11.109375 12.46875 -9.734375 C 12.46875 -8.828125 12.203125 -8.035156 11.671875 -7.359375 C 11.148438 -6.691406 10.414062 -6.238281 9.46875 -6 L 9.46875 -5.984375 C 9.851562 -5.816406 10.140625 -5.585938 10.328125 -5.296875 C 10.523438 -5.003906 10.671875 -4.660156 10.765625 -4.265625 L 11.1875 -2.609375 C 11.289062 -2.128906 11.515625 -1.890625 11.859375 -1.890625 C 12.148438 -1.890625 12.425781 -2.054688 12.6875 -2.390625 L 13.421875 -0.78125 C 13.085938 -0.4375 12.671875 -0.164062 12.171875 0.03125 C 11.679688 0.238281 11.179688 0.34375 10.671875 0.34375 Z M 4.390625 -7.6875 L 6.828125 -7.6875 C 7.503906 -7.6875 8.046875 -7.863281 8.453125 -8.21875 C 8.859375 -8.582031 9.0625 -9.0625 9.0625 -9.65625 C 9.0625 -10.269531 8.859375 -10.753906 8.453125 -11.109375 C 8.046875 -11.460938 7.503906 -11.640625 6.828125 -11.640625 L 4.390625 -11.640625 Z M 4.390625 -7.6875 "/></g></g></g><g fill="#0661aa" fill-opacity="1"><g transform="translate(31.148604, 113.270746)"><g><path d="M 5.9375 0.34375 C 4.84375 0.34375 3.875 0.117188 3.03125 -0.328125 C 2.195312 -0.785156 1.550781 -1.425781 1.09375 -2.25 C 0.644531 -3.082031 0.421875 -4.046875 0.421875 -5.140625 C 0.421875 -6.222656 0.628906 -7.164062 1.046875 -7.96875 C 1.460938 -8.769531 2.046875 -9.394531 2.796875 -9.84375 C 3.554688 -10.300781 4.445312 -10.53125 5.46875 -10.53125 C 6.445312 -10.53125 7.289062 -10.3125 8 -9.875 C 8.71875 -9.445312 9.273438 -8.84375 9.671875 -8.0625 C 10.078125 -7.289062 10.28125 -6.382812 10.28125 -5.34375 C 10.28125 -5.132812 10.269531 -4.929688 10.25 -4.734375 C 10.238281 -4.546875 10.210938 -4.382812 10.171875 -4.25 L 3.453125 -4.25 C 3.523438 -3.507812 3.785156 -2.921875 4.234375 -2.484375 C 4.679688 -2.054688 5.253906 -1.84375 5.953125 -1.84375 C 6.492188 -1.84375 6.972656 -1.972656 7.390625 -2.234375 C 7.804688 -2.503906 8.125 -2.875 8.34375 -3.34375 L 10.46875 -2.40625 C 10.175781 -1.550781 9.613281 -0.878906 8.78125 -0.390625 C 7.945312 0.0976562 7 0.34375 5.9375 0.34375 Z M 3.453125 -5.984375 L 7.265625 -5.984375 C 7.222656 -6.722656 7.039062 -7.296875 6.71875 -7.703125 C 6.40625 -8.117188 5.976562 -8.328125 5.4375 -8.328125 C 4.875 -8.328125 4.421875 -8.113281 4.078125 -7.6875 C 3.734375 -7.269531 3.523438 -6.703125 3.453125 -5.984375 Z M 3.453125 -5.984375 "/></g></g></g><g fill="#0661aa" fill-opacity="1"><g transform="translate(44.358261, 113.270746)"><g><path d="M 5.46875 0.34375 C 4.445312 0.34375 3.554688 0.117188 2.796875 -0.328125 C 2.046875 -0.773438 1.460938 -1.40625 1.046875 -2.21875 C 0.628906 -3.03125 0.421875 -3.984375 0.421875 -5.078125 C 0.429688 -6.191406 0.632812 -7.15625 1.03125 -7.96875 C 1.425781 -8.78125 1.984375 -9.410156 2.703125 -9.859375 C 3.429688 -10.304688 4.28125 -10.53125 5.25 -10.53125 C 6.457031 -10.53125 7.46875 -10.175781 8.28125 -9.46875 C 9.09375 -8.769531 9.597656 -7.828125 9.796875 -6.640625 L 7.015625 -6 C 6.921875 -6.675781 6.71875 -7.1875 6.40625 -7.53125 C 6.09375 -7.882812 5.722656 -8.0625 5.296875 -8.0625 C 4.742188 -8.0625 4.296875 -7.796875 3.953125 -7.265625 C 3.617188 -6.734375 3.453125 -6.003906 3.453125 -5.078125 C 3.460938 -4.148438 3.65625 -3.425781 4.03125 -2.90625 C 4.414062 -2.382812 4.910156 -2.125 5.515625 -2.125 C 6.046875 -2.125 6.492188 -2.328125 6.859375 -2.734375 C 7.222656 -3.140625 7.445312 -3.703125 7.53125 -4.421875 L 10.328125 -4.015625 C 10.171875 -2.691406 9.65625 -1.632812 8.78125 -0.84375 C 7.90625 -0.0507812 6.800781 0.34375 5.46875 0.34375 Z M 5.46875 0.34375 "/></g></g></g><g fill="#0661aa" fill-opacity="1"><g transform="translate(57.369295, 113.270746)"><g><path d="M 5.578125 0.34375 C 4.535156 0.34375 3.625 0.117188 2.84375 -0.328125 C 2.070312 -0.773438 1.472656 -1.40625 1.046875 -2.21875 C 0.628906 -3.03125 0.421875 -3.984375 0.421875 -5.078125 C 0.421875 -6.191406 0.628906 -7.15625 1.046875 -7.96875 C 1.472656 -8.78125 2.070312 -9.410156 2.84375 -9.859375 C 3.625 -10.304688 4.535156 -10.53125 5.578125 -10.53125 C 6.628906 -10.53125 7.535156 -10.304688 8.296875 -9.859375 C 9.066406 -9.410156 9.660156 -8.78125 10.078125 -7.96875 C 10.503906 -7.15625 10.71875 -6.191406 10.71875 -5.078125 C 10.71875 -3.984375 10.503906 -3.03125 10.078125 -2.21875 C 9.660156 -1.40625 9.066406 -0.773438 8.296875 -0.328125 C 7.535156 0.117188 6.628906 0.34375 5.578125 0.34375 Z M 5.578125 -2.203125 C 6.242188 -2.203125 6.765625 -2.457031 7.140625 -2.96875 C 7.515625 -3.476562 7.703125 -4.179688 7.703125 -5.078125 C 7.703125 -5.984375 7.515625 -6.691406 7.140625 -7.203125 C 6.765625 -7.710938 6.242188 -7.96875 5.578125 -7.96875 C 4.921875 -7.96875 4.398438 -7.710938 4.015625 -7.203125 C 3.628906 -6.691406 3.4375 -5.984375 3.4375 -5.078125 C 3.4375 -4.179688 3.628906 -3.476562 4.015625 -2.96875 C 4.398438 -2.457031 4.921875 -2.203125 5.578125 -2.203125 Z M 5.578125 -2.203125 "/></g></g></g><g fill="#0661aa" fill-opacity="1"><g transform="translate(70.340523, 113.270746)"><g><path d="M 3.421875 0 L 0.125 -10.171875 L 3.28125 -10.171875 L 5.34375 -2.5 L 5.375 -2.5 L 7.453125 -10.171875 L 10.625 -10.171875 L 7.25 0 Z M 3.421875 0 "/></g></g></g><g fill="#0661aa" fill-opacity="1"><g transform="translate(82.874765, 113.270746)"><g><path d="M 5.9375 0.34375 C 4.84375 0.34375 3.875 0.117188 3.03125 -0.328125 C 2.195312 -0.785156 1.550781 -1.425781 1.09375 -2.25 C 0.644531 -3.082031 0.421875 -4.046875 0.421875 -5.140625 C 0.421875 -6.222656 0.628906 -7.164062 1.046875 -7.96875 C 1.460938 -8.769531 2.046875 -9.394531 2.796875 -9.84375 C 3.554688 -10.300781 4.445312 -10.53125 5.46875 -10.53125 C 6.445312 -10.53125 7.289062 -10.3125 8 -9.875 C 8.71875 -9.445312 9.273438 -8.84375 9.671875 -8.0625 C 10.078125 -7.289062 10.28125 -6.382812 10.28125 -5.34375 C 10.28125 -5.132812 10.269531 -4.929688 10.25 -4.734375 C 10.238281 -4.546875 10.210938 -4.382812 10.171875 -4.25 L 3.453125 -4.25 C 3.523438 -3.507812 3.785156 -2.921875 4.234375 -2.484375 C 4.679688 -2.054688 5.253906 -1.84375 5.953125 -1.84375 C 6.492188 -1.84375 6.972656 -1.972656 7.390625 -2.234375 C 7.804688 -2.503906 8.125 -2.875 8.34375 -3.34375 L 10.46875 -2.40625 C 10.175781 -1.550781 9.613281 -0.878906 8.78125 -0.390625 C 7.945312 0.0976562 7 0.34375 5.9375 0.34375 Z M 3.453125 -5.984375 L 7.265625 -5.984375 C 7.222656 -6.722656 7.039062 -7.296875 6.71875 -7.703125 C 6.40625 -8.117188 5.976562 -8.328125 5.4375 -8.328125 C 4.875 -8.328125 4.421875 -8.113281 4.078125 -7.6875 C 3.734375 -7.269531 3.523438 -6.703125 3.453125 -5.984375 Z M 3.453125 -5.984375 "/></g></g></g><g fill="#0661aa" fill-opacity="1"><g transform="translate(96.064559, 113.270746)"><g><path d="M 6.234375 -10.453125 C 7.066406 -10.453125 7.734375 -10.140625 8.234375 -9.515625 C 8.742188 -8.890625 9.023438 -8.007812 9.078125 -6.875 L 6.515625 -6.171875 C 6.503906 -6.835938 6.382812 -7.335938 6.15625 -7.671875 C 5.925781 -8.015625 5.628906 -8.1875 5.265625 -8.1875 C 4.816406 -8.1875 4.453125 -7.957031 4.171875 -7.5 C 3.898438 -7.050781 3.765625 -6.429688 3.765625 -5.640625 L 3.765625 0 L 0.75 0 L 0.75 -10.171875 L 3.203125 -10.171875 L 3.609375 -8.421875 L 3.640625 -8.421875 C 3.859375 -9.054688 4.195312 -9.550781 4.65625 -9.90625 C 5.125 -10.269531 5.648438 -10.453125 6.234375 -10.453125 Z M 6.234375 -10.453125 "/></g></g></g><g fill="#0661aa" fill-opacity="1"><g transform="translate(107.76465, 113.270746)"><g><path d="M 4.421875 4.515625 C 3.472656 4.515625 2.582031 4.347656 1.75 4.015625 C 0.914062 3.679688 0.238281 3.226562 -0.28125 2.65625 L 0.90625 0.515625 C 1.289062 0.960938 1.765625 1.320312 2.328125 1.59375 C 2.890625 1.863281 3.488281 2 4.125 2 C 4.988281 2 5.664062 1.753906 6.15625 1.265625 C 6.65625 0.773438 6.90625 0.109375 6.90625 -0.734375 L 6.90625 -1.609375 L 6.890625 -1.609375 C 6.597656 -0.992188 6.191406 -0.507812 5.671875 -0.15625 C 5.160156 0.195312 4.59375 0.375 3.96875 0.375 C 2.945312 0.375 2.140625 0.0390625 1.546875 -0.625 C 0.960938 -1.300781 0.671875 -2.210938 0.671875 -3.359375 L 0.671875 -10.171875 L 3.71875 -10.171875 L 3.71875 -3.859375 C 3.71875 -3.328125 3.84375 -2.898438 4.09375 -2.578125 C 4.351562 -2.265625 4.707031 -2.109375 5.15625 -2.109375 C 5.664062 -2.109375 6.078125 -2.28125 6.390625 -2.625 C 6.710938 -2.976562 6.875 -3.441406 6.875 -4.015625 L 6.875 -10.171875 L 9.890625 -10.171875 L 9.90625 -0.53125 C 9.90625 0.507812 9.679688 1.40625 9.234375 2.15625 C 8.796875 2.914062 8.164062 3.5 7.34375 3.90625 C 6.519531 4.3125 5.546875 4.515625 4.421875 4.515625 Z M 4.421875 4.515625 "/></g></g></g><g fill="#2d6d5e" fill-opacity="1"><g transform="translate(22.70028, 131.740458)"><g><path d="M 2.140625 -7.796875 C 2.660156 -7.796875 3.09375 -7.71875 3.4375 -7.5625 C 3.78125 -7.40625 4.035156 -7.164062 4.203125 -6.84375 C 4.367188 -6.519531 4.453125 -6.113281 4.453125 -5.625 C 4.453125 -5.269531 4.410156 -4.957031 4.328125 -4.6875 C 4.242188 -4.414062 4.109375 -4.179688 3.921875 -3.984375 C 3.742188 -3.785156 3.515625 -3.625 3.234375 -3.5 L 4.828125 0 L 3.875 0 L 2.46875 -3.296875 L 1.65625 -3.296875 L 1.65625 0 L 0.8125 0 L 0.8125 -7.796875 Z M 2.140625 -7.03125 L 1.65625 -7.03125 L 1.65625 -4 L 2.265625 -4 C 2.679688 -4 3.003906 -4.128906 3.234375 -4.390625 C 3.460938 -4.648438 3.578125 -5.046875 3.578125 -5.578125 C 3.578125 -6.085938 3.460938 -6.457031 3.234375 -6.6875 C 3.003906 -6.914062 2.640625 -7.03125 2.140625 -7.03125 Z M 2.140625 -7.03125 "/></g></g></g><g fill="#2d6d5e" fill-opacity="1"><g transform="translate(29.194905, 131.740458)"><g><path d="M 2.328125 -5.953125 C 2.722656 -5.953125 3.050781 -5.835938 3.3125 -5.609375 C 3.570312 -5.378906 3.765625 -5.066406 3.890625 -4.671875 C 4.015625 -4.273438 4.078125 -3.835938 4.078125 -3.359375 L 4.078125 -2.78125 L 1.28125 -2.78125 C 1.289062 -2.050781 1.40625 -1.503906 1.625 -1.140625 C 1.84375 -0.773438 2.171875 -0.59375 2.609375 -0.59375 C 2.816406 -0.59375 3.019531 -0.625 3.21875 -0.6875 C 3.425781 -0.75 3.640625 -0.851562 3.859375 -1 L 3.859375 -0.265625 C 3.660156 -0.140625 3.445312 -0.046875 3.21875 0.015625 C 3 0.078125 2.765625 0.109375 2.515625 0.109375 C 2.035156 0.109375 1.644531 -0.0195312 1.34375 -0.28125 C 1.039062 -0.539062 0.816406 -0.894531 0.671875 -1.34375 C 0.535156 -1.800781 0.46875 -2.316406 0.46875 -2.890625 C 0.46875 -3.546875 0.535156 -4.101562 0.671875 -4.5625 C 0.816406 -5.019531 1.023438 -5.363281 1.296875 -5.59375 C 1.578125 -5.832031 1.921875 -5.953125 2.328125 -5.953125 Z M 2.328125 -5.28125 C 2.015625 -5.28125 1.769531 -5.128906 1.59375 -4.828125 C 1.425781 -4.523438 1.328125 -4.0625 1.296875 -3.4375 L 3.3125 -3.4375 C 3.3125 -3.769531 3.273438 -4.070312 3.203125 -4.34375 C 3.128906 -4.625 3.019531 -4.847656 2.875 -5.015625 C 2.738281 -5.191406 2.554688 -5.28125 2.328125 -5.28125 Z M 2.328125 -5.28125 "/></g></g></g><g fill="#2d6d5e" fill-opacity="1"><g transform="translate(35.241595, 131.740458)"><g><path d="M 2.40625 0.109375 C 1.976562 0.109375 1.617188 0 1.328125 -0.21875 C 1.046875 -0.445312 0.832031 -0.785156 0.6875 -1.234375 C 0.539062 -1.679688 0.46875 -2.234375 0.46875 -2.890625 C 0.46875 -3.523438 0.539062 -4.070312 0.6875 -4.53125 C 0.832031 -4.988281 1.050781 -5.34375 1.34375 -5.59375 C 1.632812 -5.84375 2 -5.96875 2.4375 -5.96875 C 2.65625 -5.96875 2.851562 -5.941406 3.03125 -5.890625 C 3.207031 -5.847656 3.375 -5.785156 3.53125 -5.703125 L 3.265625 -5.015625 C 3.128906 -5.085938 2.992188 -5.140625 2.859375 -5.171875 C 2.734375 -5.210938 2.609375 -5.234375 2.484375 -5.234375 C 2.234375 -5.234375 2.019531 -5.144531 1.84375 -4.96875 C 1.664062 -4.789062 1.53125 -4.53125 1.4375 -4.1875 C 1.351562 -3.84375 1.3125 -3.410156 1.3125 -2.890625 C 1.3125 -2.390625 1.351562 -1.96875 1.4375 -1.625 C 1.53125 -1.289062 1.660156 -1.035156 1.828125 -0.859375 C 2.003906 -0.691406 2.226562 -0.609375 2.5 -0.609375 C 2.65625 -0.609375 2.8125 -0.628906 2.96875 -0.671875 C 3.132812 -0.722656 3.300781 -0.789062 3.46875 -0.875 L 3.46875 -0.1875 C 3.3125 -0.09375 3.132812 -0.0195312 2.9375 0.03125 C 2.738281 0.0820312 2.5625 0.109375 2.40625 0.109375 Z M 2.40625 0.109375 "/></g></g></g><g fill="#2d6d5e" fill-opacity="1"><g transform="translate(40.520398, 131.740458)"><g><path d="M 4.34375 -2.9375 C 4.34375 -2.46875 4.300781 -2.046875 4.21875 -1.671875 C 4.144531 -1.304688 4.023438 -0.988281 3.859375 -0.71875 C 3.703125 -0.445312 3.5 -0.238281 3.25 -0.09375 C 3.007812 0.0390625 2.722656 0.109375 2.390625 0.109375 C 2.078125 0.109375 1.796875 0.0390625 1.546875 -0.09375 C 1.304688 -0.238281 1.101562 -0.441406 0.9375 -0.703125 C 0.78125 -0.972656 0.660156 -1.296875 0.578125 -1.671875 C 0.503906 -2.046875 0.46875 -2.46875 0.46875 -2.9375 C 0.46875 -3.582031 0.535156 -4.128906 0.671875 -4.578125 C 0.804688 -5.023438 1.019531 -5.367188 1.3125 -5.609375 C 1.601562 -5.847656 1.96875 -5.96875 2.40625 -5.96875 C 2.820312 -5.96875 3.171875 -5.851562 3.453125 -5.625 C 3.742188 -5.394531 3.960938 -5.050781 4.109375 -4.59375 C 4.265625 -4.144531 4.34375 -3.59375 4.34375 -2.9375 Z M 1.296875 -2.9375 C 1.296875 -2.425781 1.332031 -2 1.40625 -1.65625 C 1.488281 -1.3125 1.613281 -1.050781 1.78125 -0.875 C 1.945312 -0.695312 2.160156 -0.609375 2.421875 -0.609375 C 2.671875 -0.609375 2.875 -0.691406 3.03125 -0.859375 C 3.195312 -1.035156 3.316406 -1.296875 3.390625 -1.640625 C 3.472656 -1.984375 3.515625 -2.414062 3.515625 -2.9375 C 3.515625 -3.445312 3.472656 -3.867188 3.390625 -4.203125 C 3.316406 -4.546875 3.195312 -4.804688 3.03125 -4.984375 C 2.875 -5.160156 2.664062 -5.25 2.40625 -5.25 C 2.019531 -5.25 1.738281 -5.050781 1.5625 -4.65625 C 1.382812 -4.269531 1.296875 -3.695312 1.296875 -2.9375 Z M 1.296875 -2.9375 "/></g></g></g><g fill="#2d6d5e" fill-opacity="1"><g transform="translate(46.860379, 131.740458)"><g><path d="M 1.515625 0 L 0.046875 -5.859375 L 0.890625 -5.859375 L 1.6875 -2.296875 C 1.738281 -2.085938 1.785156 -1.867188 1.828125 -1.640625 C 1.867188 -1.421875 1.90625 -1.1875 1.9375 -0.9375 L 1.984375 -0.9375 C 2.003906 -1.082031 2.03125 -1.25 2.0625 -1.4375 C 2.09375 -1.632812 2.140625 -1.851562 2.203125 -2.09375 L 3.0625 -5.859375 L 3.90625 -5.859375 L 2.421875 0 Z M 1.515625 0 "/></g></g></g><g fill="#2d6d5e" fill-opacity="1"><g transform="translate(52.341819, 131.740458)"><g><path d="M 2.328125 -5.953125 C 2.722656 -5.953125 3.050781 -5.835938 3.3125 -5.609375 C 3.570312 -5.378906 3.765625 -5.066406 3.890625 -4.671875 C 4.015625 -4.273438 4.078125 -3.835938 4.078125 -3.359375 L 4.078125 -2.78125 L 1.28125 -2.78125 C 1.289062 -2.050781 1.40625 -1.503906 1.625 -1.140625 C 1.84375 -0.773438 2.171875 -0.59375 2.609375 -0.59375 C 2.816406 -0.59375 3.019531 -0.625 3.21875 -0.6875 C 3.425781 -0.75 3.640625 -0.851562 3.859375 -1 L 3.859375 -0.265625 C 3.660156 -0.140625 3.445312 -0.046875 3.21875 0.015625 C 3 0.078125 2.765625 0.109375 2.515625 0.109375 C 2.035156 0.109375 1.644531 -0.0195312 1.34375 -0.28125 C 1.039062 -0.539062 0.816406 -0.894531 0.671875 -1.34375 C 0.535156 -1.800781 0.46875 -2.316406 0.46875 -2.890625 C 0.46875 -3.546875 0.535156 -4.101562 0.671875 -4.5625 C 0.816406 -5.019531 1.023438 -5.363281 1.296875 -5.59375 C 1.578125 -5.832031 1.921875 -5.953125 2.328125 -5.953125 Z M 2.328125 -5.28125 C 2.015625 -5.28125 1.769531 -5.128906 1.59375 -4.828125 C 1.425781 -4.523438 1.328125 -4.0625 1.296875 -3.4375 L 3.3125 -3.4375 C 3.3125 -3.769531 3.273438 -4.070312 3.203125 -4.34375 C 3.128906 -4.625 3.019531 -4.847656 2.875 -5.015625 C 2.738281 -5.191406 2.554688 -5.28125 2.328125 -5.28125 Z M 2.328125 -5.28125 "/></g></g></g><g fill="#2d6d5e" fill-opacity="1"><g transform="translate(58.388509, 131.740458)"><g><path d="M 2.671875 -5.953125 C 2.753906 -5.953125 2.835938 -5.945312 2.921875 -5.9375 C 3.003906 -5.925781 3.085938 -5.90625 3.171875 -5.875 L 3.046875 -5.03125 C 2.984375 -5.0625 2.914062 -5.082031 2.84375 -5.09375 C 2.769531 -5.101562 2.691406 -5.109375 2.609375 -5.109375 C 2.453125 -5.109375 2.304688 -5.054688 2.171875 -4.953125 C 2.035156 -4.847656 1.921875 -4.703125 1.828125 -4.515625 C 1.734375 -4.328125 1.660156 -4.109375 1.609375 -3.859375 C 1.554688 -3.609375 1.53125 -3.335938 1.53125 -3.046875 L 1.53125 0 L 0.71875 0 L 0.71875 -5.859375 L 1.359375 -5.859375 L 1.46875 -4.8125 L 1.515625 -4.8125 C 1.597656 -5.039062 1.691406 -5.238281 1.796875 -5.40625 C 1.910156 -5.570312 2.039062 -5.703125 2.1875 -5.796875 C 2.332031 -5.898438 2.492188 -5.953125 2.671875 -5.953125 Z M 2.671875 -5.953125 "/></g></g></g><g fill="#2d6d5e" fill-opacity="1"><g transform="translate(63.192716, 131.740458)"><g/></g></g><g fill="#2d6d5e" fill-opacity="1"><g transform="translate(66.749105, 131.740458)"><g><path d="M 4.171875 0 L 3.46875 -3.625 C 3.445312 -3.726562 3.425781 -3.832031 3.40625 -3.9375 C 3.382812 -4.039062 3.363281 -4.144531 3.34375 -4.25 C 3.332031 -4.363281 3.320312 -4.472656 3.3125 -4.578125 C 3.300781 -4.679688 3.285156 -4.785156 3.265625 -4.890625 L 3.25 -4.890625 C 3.226562 -4.785156 3.207031 -4.675781 3.1875 -4.5625 C 3.175781 -4.457031 3.160156 -4.347656 3.140625 -4.234375 C 3.128906 -4.128906 3.113281 -4.023438 3.09375 -3.921875 C 3.082031 -3.828125 3.066406 -3.726562 3.046875 -3.625 L 2.296875 0 L 1.359375 0 L 0.09375 -5.859375 L 0.921875 -5.859375 L 1.546875 -2.8125 C 1.578125 -2.613281 1.609375 -2.414062 1.640625 -2.21875 C 1.679688 -2.019531 1.71875 -1.816406 1.75 -1.609375 C 1.78125 -1.410156 1.8125 -1.210938 1.84375 -1.015625 L 1.875 -1.015625 C 1.894531 -1.140625 1.910156 -1.269531 1.921875 -1.40625 C 1.941406 -1.539062 1.960938 -1.679688 1.984375 -1.828125 C 2.015625 -1.972656 2.039062 -2.125 2.0625 -2.28125 C 2.09375 -2.445312 2.128906 -2.609375 2.171875 -2.765625 L 2.796875 -5.859375 L 3.71875 -5.859375 L 4.34375 -2.75 C 4.375 -2.613281 4.40625 -2.457031 4.4375 -2.28125 C 4.46875 -2.101562 4.5 -1.90625 4.53125 -1.6875 C 4.5625 -1.476562 4.59375 -1.253906 4.625 -1.015625 L 4.65625 -1.015625 C 4.664062 -1.117188 4.679688 -1.234375 4.703125 -1.359375 C 4.722656 -1.484375 4.742188 -1.617188 4.765625 -1.765625 C 4.796875 -1.910156 4.828125 -2.066406 4.859375 -2.234375 L 5.59375 -5.859375 L 6.40625 -5.859375 L 5.109375 0 Z M 4.171875 0 "/></g></g></g><g fill="#2d6d5e" fill-opacity="1"><g transform="translate(74.774171, 131.740458)"><g><path d="M 1.546875 -5.859375 L 1.546875 0 L 0.71875 0 L 0.71875 -5.859375 Z M 1.140625 -8.046875 C 1.304688 -8.046875 1.425781 -7.992188 1.5 -7.890625 C 1.582031 -7.785156 1.625 -7.640625 1.625 -7.453125 C 1.625 -7.265625 1.582031 -7.117188 1.5 -7.015625 C 1.414062 -6.910156 1.296875 -6.859375 1.140625 -6.859375 C 0.992188 -6.859375 0.875 -6.910156 0.78125 -7.015625 C 0.695312 -7.117188 0.65625 -7.265625 0.65625 -7.453125 C 0.65625 -7.648438 0.695312 -7.796875 0.78125 -7.890625 C 0.863281 -7.992188 0.984375 -8.046875 1.140625 -8.046875 Z M 1.140625 -8.046875 "/></g></g></g><g fill="#2d6d5e" fill-opacity="1"><g transform="translate(78.565193, 131.740458)"><g><path d="M 2.09375 -0.625 C 2.175781 -0.625 2.257812 -0.628906 2.34375 -0.640625 C 2.4375 -0.660156 2.523438 -0.691406 2.609375 -0.734375 L 2.609375 -0.0625 C 2.503906 -0.0078125 2.382812 0.03125 2.25 0.0625 C 2.125 0.09375 1.984375 0.109375 1.828125 0.109375 C 1.578125 0.109375 1.367188 0.0507812 1.203125 -0.0625 C 1.046875 -0.175781 0.925781 -0.34375 0.84375 -0.5625 C 0.769531 -0.789062 0.734375 -1.078125 0.734375 -1.421875 L 0.734375 -5.171875 L 0.1875 -5.171875 L 0.1875 -5.609375 L 0.765625 -5.828125 L 0.984375 -7.1875 L 1.5625 -7.1875 L 1.5625 -5.859375 L 2.546875 -5.859375 L 2.546875 -5.171875 L 1.5625 -5.171875 L 1.5625 -1.515625 C 1.5625 -1.210938 1.597656 -0.988281 1.671875 -0.84375 C 1.742188 -0.695312 1.882812 -0.625 2.09375 -0.625 Z M 2.09375 -0.625 "/></g></g></g><g fill="#2d6d5e" fill-opacity="1"><g transform="translate(82.862807, 131.740458)"><g><path d="M 1.53125 -8.296875 L 1.53125 -5.890625 C 1.53125 -5.734375 1.523438 -5.582031 1.515625 -5.4375 C 1.515625 -5.289062 1.503906 -5.15625 1.484375 -5.03125 L 1.53125 -5.03125 C 1.601562 -5.21875 1.703125 -5.378906 1.828125 -5.515625 C 1.953125 -5.660156 2.097656 -5.769531 2.265625 -5.84375 C 2.429688 -5.925781 2.613281 -5.96875 2.8125 -5.96875 C 3.132812 -5.96875 3.398438 -5.890625 3.609375 -5.734375 C 3.828125 -5.585938 3.984375 -5.363281 4.078125 -5.0625 C 4.179688 -4.769531 4.234375 -4.410156 4.234375 -3.984375 L 4.234375 0 L 3.40625 0 L 3.40625 -3.8125 C 3.40625 -4.320312 3.34375 -4.679688 3.21875 -4.890625 C 3.101562 -5.109375 2.910156 -5.21875 2.640625 -5.21875 C 2.390625 -5.21875 2.179688 -5.140625 2.015625 -4.984375 C 1.859375 -4.835938 1.738281 -4.601562 1.65625 -4.28125 C 1.570312 -3.96875 1.53125 -3.5625 1.53125 -3.0625 L 1.53125 0 L 0.71875 0 L 0.71875 -8.296875 Z M 1.53125 -8.296875 "/></g></g></g><g fill="#2d6d5e" fill-opacity="1"><g transform="translate(89.314771, 131.740458)"><g/></g></g><g fill="#2d6d5e" fill-opacity="1"><g transform="translate(92.871161, 131.740458)"><g><path d="M 3.3125 -1.546875 C 3.3125 -1.191406 3.25 -0.890625 3.125 -0.640625 C 3 -0.398438 2.8125 -0.210938 2.5625 -0.078125 C 2.320312 0.046875 2.03125 0.109375 1.6875 0.109375 C 1.414062 0.109375 1.164062 0.078125 0.9375 0.015625 C 0.71875 -0.046875 0.53125 -0.125 0.375 -0.21875 L 0.375 -1.078125 C 0.53125 -0.941406 0.722656 -0.832031 0.953125 -0.75 C 1.179688 -0.664062 1.414062 -0.625 1.65625 -0.625 C 1.925781 -0.625 2.132812 -0.703125 2.28125 -0.859375 C 2.425781 -1.015625 2.5 -1.234375 2.5 -1.515625 C 2.5 -1.679688 2.46875 -1.828125 2.40625 -1.953125 C 2.351562 -2.078125 2.257812 -2.191406 2.125 -2.296875 C 1.988281 -2.410156 1.8125 -2.53125 1.59375 -2.65625 C 1.351562 -2.8125 1.140625 -2.96875 0.953125 -3.125 C 0.765625 -3.28125 0.617188 -3.460938 0.515625 -3.671875 C 0.421875 -3.878906 0.375 -4.132812 0.375 -4.4375 C 0.375 -4.894531 0.519531 -5.265625 0.8125 -5.546875 C 1.113281 -5.828125 1.503906 -5.96875 1.984375 -5.96875 C 2.234375 -5.96875 2.46875 -5.9375 2.6875 -5.875 C 2.90625 -5.8125 3.113281 -5.71875 3.3125 -5.59375 L 3 -4.921875 C 2.84375 -5.023438 2.679688 -5.109375 2.515625 -5.171875 C 2.347656 -5.234375 2.175781 -5.265625 2 -5.265625 C 1.738281 -5.265625 1.53125 -5.191406 1.375 -5.046875 C 1.226562 -4.898438 1.15625 -4.703125 1.15625 -4.453125 C 1.15625 -4.296875 1.1875 -4.15625 1.25 -4.03125 C 1.3125 -3.914062 1.410156 -3.800781 1.546875 -3.6875 C 1.679688 -3.582031 1.863281 -3.460938 2.09375 -3.328125 C 2.332031 -3.171875 2.539062 -3.015625 2.71875 -2.859375 C 2.90625 -2.703125 3.050781 -2.519531 3.15625 -2.3125 C 3.257812 -2.101562 3.3125 -1.847656 3.3125 -1.546875 Z M 3.3125 -1.546875 "/></g></g></g><g fill="#2d6d5e" fill-opacity="1"><g transform="translate(98.069976, 131.740458)"><g><path d="M 4.34375 -2.9375 C 4.34375 -2.46875 4.300781 -2.046875 4.21875 -1.671875 C 4.144531 -1.304688 4.023438 -0.988281 3.859375 -0.71875 C 3.703125 -0.445312 3.5 -0.238281 3.25 -0.09375 C 3.007812 0.0390625 2.722656 0.109375 2.390625 0.109375 C 2.078125 0.109375 1.796875 0.0390625 1.546875 -0.09375 C 1.304688 -0.238281 1.101562 -0.441406 0.9375 -0.703125 C 0.78125 -0.972656 0.660156 -1.296875 0.578125 -1.671875 C 0.503906 -2.046875 0.46875 -2.46875 0.46875 -2.9375 C 0.46875 -3.582031 0.535156 -4.128906 0.671875 -4.578125 C 0.804688 -5.023438 1.019531 -5.367188 1.3125 -5.609375 C 1.601562 -5.847656 1.96875 -5.96875 2.40625 -5.96875 C 2.820312 -5.96875 3.171875 -5.851562 3.453125 -5.625 C 3.742188 -5.394531 3.960938 -5.050781 4.109375 -4.59375 C 4.265625 -4.144531 4.34375 -3.59375 4.34375 -2.9375 Z M 1.296875 -2.9375 C 1.296875 -2.425781 1.332031 -2 1.40625 -1.65625 C 1.488281 -1.3125 1.613281 -1.050781 1.78125 -0.875 C 1.945312 -0.695312 2.160156 -0.609375 2.421875 -0.609375 C 2.671875 -0.609375 2.875 -0.691406 3.03125 -0.859375 C 3.195312 -1.035156 3.316406 -1.296875 3.390625 -1.640625 C 3.472656 -1.984375 3.515625 -2.414062 3.515625 -2.9375 C 3.515625 -3.445312 3.472656 -3.867188 3.390625 -4.203125 C 3.316406 -4.546875 3.195312 -4.804688 3.03125 -4.984375 C 2.875 -5.160156 2.664062 -5.25 2.40625 -5.25 C 2.019531 -5.25 1.738281 -5.050781 1.5625 -4.65625 C 1.382812 -4.269531 1.296875 -3.695312 1.296875 -2.9375 Z M 1.296875 -2.9375 "/></g></g></g><g fill="#2d6d5e" fill-opacity="1"><g transform="translate(104.409957, 131.740458)"><g><path d="M 2.546875 -5.15625 L 1.625 -5.15625 L 1.625 0 L 0.8125 0 L 0.8125 -5.15625 L 0.09375 -5.15625 L 0.09375 -5.609375 L 0.8125 -5.875 L 0.8125 -6.28125 C 0.8125 -6.71875 0.847656 -7.09375 0.921875 -7.40625 C 1.003906 -7.71875 1.140625 -7.953125 1.328125 -8.109375 C 1.515625 -8.273438 1.773438 -8.359375 2.109375 -8.359375 C 2.273438 -8.359375 2.421875 -8.34375 2.546875 -8.3125 C 2.679688 -8.28125 2.820312 -8.238281 2.96875 -8.1875 L 2.75 -7.53125 C 2.65625 -7.5625 2.5625 -7.585938 2.46875 -7.609375 C 2.382812 -7.628906 2.300781 -7.640625 2.21875 -7.640625 C 1.988281 -7.640625 1.832031 -7.539062 1.75 -7.34375 C 1.675781 -7.15625 1.632812 -6.804688 1.625 -6.296875 L 1.625 -5.859375 L 2.546875 -5.859375 Z M 2.546875 -5.15625 "/></g></g></g><g fill="#2d6d5e" fill-opacity="1"><g transform="translate(108.654245, 131.740458)"><g><path d="M 2.09375 -0.625 C 2.175781 -0.625 2.257812 -0.628906 2.34375 -0.640625 C 2.4375 -0.660156 2.523438 -0.691406 2.609375 -0.734375 L 2.609375 -0.0625 C 2.503906 -0.0078125 2.382812 0.03125 2.25 0.0625 C 2.125 0.09375 1.984375 0.109375 1.828125 0.109375 C 1.578125 0.109375 1.367188 0.0507812 1.203125 -0.0625 C 1.046875 -0.175781 0.925781 -0.34375 0.84375 -0.5625 C 0.769531 -0.789062 0.734375 -1.078125 0.734375 -1.421875 L 0.734375 -5.171875 L 0.1875 -5.171875 L 0.1875 -5.609375 L 0.765625 -5.828125 L 0.984375 -7.1875 L 1.5625 -7.1875 L 1.5625 -5.859375 L 2.546875 -5.859375 L 2.546875 -5.171875 L 1.5625 -5.171875 L 1.5625 -1.515625 C 1.5625 -1.210938 1.597656 -0.988281 1.671875 -0.84375 C 1.742188 -0.695312 1.882812 -0.625 2.09375 -0.625 Z M 2.09375 -0.625 "/></g></g></g><g fill="#2d6d5e" fill-opacity="1"><g transform="translate(35.251351, 144.407958)"><g><path d="M 2.828125 -5.96875 C 3.285156 -5.96875 3.632812 -5.800781 3.875 -5.46875 C 4.113281 -5.144531 4.234375 -4.648438 4.234375 -3.984375 L 4.234375 0 L 3.40625 0 L 3.40625 -3.828125 C 3.40625 -4.296875 3.34375 -4.644531 3.21875 -4.875 C 3.101562 -5.113281 2.910156 -5.234375 2.640625 -5.234375 C 2.253906 -5.234375 1.972656 -5.0625 1.796875 -4.71875 C 1.617188 -4.382812 1.53125 -3.835938 1.53125 -3.078125 L 1.53125 0 L 0.71875 0 L 0.71875 -5.859375 L 1.375 -5.859375 L 1.46875 -5 L 1.515625 -5 C 1.597656 -5.195312 1.703125 -5.367188 1.828125 -5.515625 C 1.953125 -5.660156 2.097656 -5.769531 2.265625 -5.84375 C 2.429688 -5.925781 2.617188 -5.96875 2.828125 -5.96875 Z M 2.828125 -5.96875 "/></g></g></g><g fill="#2d6d5e" fill-opacity="1"><g transform="translate(41.703315, 144.407958)"><g><path d="M 2.28125 -5.96875 C 2.820312 -5.96875 3.207031 -5.789062 3.4375 -5.4375 C 3.664062 -5.09375 3.78125 -4.597656 3.78125 -3.953125 L 3.78125 0 L 3.15625 0 L 3.046875 -0.828125 L 3.015625 -0.828125 C 2.921875 -0.628906 2.8125 -0.457031 2.6875 -0.3125 C 2.5625 -0.175781 2.414062 -0.0703125 2.25 0 C 2.082031 0.0703125 1.894531 0.109375 1.6875 0.109375 C 1.382812 0.109375 1.132812 0.03125 0.9375 -0.125 C 0.75 -0.289062 0.609375 -0.503906 0.515625 -0.765625 C 0.421875 -1.023438 0.375 -1.304688 0.375 -1.609375 C 0.375 -2.191406 0.539062 -2.640625 0.875 -2.953125 C 1.207031 -3.273438 1.679688 -3.453125 2.296875 -3.484375 L 2.96875 -3.53125 L 2.96875 -3.921875 C 2.96875 -4.390625 2.90625 -4.734375 2.78125 -4.953125 C 2.65625 -5.171875 2.445312 -5.28125 2.15625 -5.28125 C 2 -5.28125 1.828125 -5.25 1.640625 -5.1875 C 1.460938 -5.132812 1.269531 -5.046875 1.0625 -4.921875 L 0.796875 -5.546875 C 1.015625 -5.679688 1.25 -5.785156 1.5 -5.859375 C 1.75 -5.929688 2.007812 -5.96875 2.28125 -5.96875 Z M 2.984375 -2.921875 L 2.4375 -2.890625 C 2.019531 -2.859375 1.710938 -2.738281 1.515625 -2.53125 C 1.316406 -2.320312 1.21875 -2.019531 1.21875 -1.625 C 1.21875 -1.257812 1.28125 -0.988281 1.40625 -0.8125 C 1.539062 -0.644531 1.722656 -0.5625 1.953125 -0.5625 C 2.273438 -0.5625 2.523438 -0.71875 2.703125 -1.03125 C 2.890625 -1.34375 2.984375 -1.773438 2.984375 -2.328125 Z M 2.984375 -2.921875 "/></g></g></g><g fill="#2d6d5e" fill-opacity="1"><g transform="translate(47.71801, 144.407958)"><g><path d="M 3.3125 -1.546875 C 3.3125 -1.191406 3.25 -0.890625 3.125 -0.640625 C 3 -0.398438 2.8125 -0.210938 2.5625 -0.078125 C 2.320312 0.046875 2.03125 0.109375 1.6875 0.109375 C 1.414062 0.109375 1.164062 0.078125 0.9375 0.015625 C 0.71875 -0.046875 0.53125 -0.125 0.375 -0.21875 L 0.375 -1.078125 C 0.53125 -0.941406 0.722656 -0.832031 0.953125 -0.75 C 1.179688 -0.664062 1.414062 -0.625 1.65625 -0.625 C 1.925781 -0.625 2.132812 -0.703125 2.28125 -0.859375 C 2.425781 -1.015625 2.5 -1.234375 2.5 -1.515625 C 2.5 -1.679688 2.46875 -1.828125 2.40625 -1.953125 C 2.351562 -2.078125 2.257812 -2.191406 2.125 -2.296875 C 1.988281 -2.410156 1.8125 -2.53125 1.59375 -2.65625 C 1.351562 -2.8125 1.140625 -2.96875 0.953125 -3.125 C 0.765625 -3.28125 0.617188 -3.460938 0.515625 -3.671875 C 0.421875 -3.878906 0.375 -4.132812 0.375 -4.4375 C 0.375 -4.894531 0.519531 -5.265625 0.8125 -5.546875 C 1.113281 -5.828125 1.503906 -5.96875 1.984375 -5.96875 C 2.234375 -5.96875 2.46875 -5.9375 2.6875 -5.875 C 2.90625 -5.8125 3.113281 -5.71875 3.3125 -5.59375 L 3 -4.921875 C 2.84375 -5.023438 2.679688 -5.109375 2.515625 -5.171875 C 2.347656 -5.234375 2.175781 -5.265625 2 -5.265625 C 1.738281 -5.265625 1.53125 -5.191406 1.375 -5.046875 C 1.226562 -4.898438 1.15625 -4.703125 1.15625 -4.453125 C 1.15625 -4.296875 1.1875 -4.15625 1.25 -4.03125 C 1.3125 -3.914062 1.410156 -3.800781 1.546875 -3.6875 C 1.679688 -3.582031 1.863281 -3.460938 2.09375 -3.328125 C 2.332031 -3.171875 2.539062 -3.015625 2.71875 -2.859375 C 2.90625 -2.703125 3.050781 -2.519531 3.15625 -2.3125 C 3.257812 -2.101562 3.3125 -1.847656 3.3125 -1.546875 Z M 3.3125 -1.546875 "/></g></g></g><g fill="#2d6d5e" fill-opacity="1"><g transform="translate(52.916825, 144.407958)"><g><path d="M 2.28125 -5.96875 C 2.820312 -5.96875 3.207031 -5.789062 3.4375 -5.4375 C 3.664062 -5.09375 3.78125 -4.597656 3.78125 -3.953125 L 3.78125 0 L 3.15625 0 L 3.046875 -0.828125 L 3.015625 -0.828125 C 2.921875 -0.628906 2.8125 -0.457031 2.6875 -0.3125 C 2.5625 -0.175781 2.414062 -0.0703125 2.25 0 C 2.082031 0.0703125 1.894531 0.109375 1.6875 0.109375 C 1.382812 0.109375 1.132812 0.03125 0.9375 -0.125 C 0.75 -0.289062 0.609375 -0.503906 0.515625 -0.765625 C 0.421875 -1.023438 0.375 -1.304688 0.375 -1.609375 C 0.375 -2.191406 0.539062 -2.640625 0.875 -2.953125 C 1.207031 -3.273438 1.679688 -3.453125 2.296875 -3.484375 L 2.96875 -3.53125 L 2.96875 -3.921875 C 2.96875 -4.390625 2.90625 -4.734375 2.78125 -4.953125 C 2.65625 -5.171875 2.445312 -5.28125 2.15625 -5.28125 C 2 -5.28125 1.828125 -5.25 1.640625 -5.1875 C 1.460938 -5.132812 1.269531 -5.046875 1.0625 -4.921875 L 0.796875 -5.546875 C 1.015625 -5.679688 1.25 -5.785156 1.5 -5.859375 C 1.75 -5.929688 2.007812 -5.96875 2.28125 -5.96875 Z M 2.984375 -2.921875 L 2.4375 -2.890625 C 2.019531 -2.859375 1.710938 -2.738281 1.515625 -2.53125 C 1.316406 -2.320312 1.21875 -2.019531 1.21875 -1.625 C 1.21875 -1.257812 1.28125 -0.988281 1.40625 -0.8125 C 1.539062 -0.644531 1.722656 -0.5625 1.953125 -0.5625 C 2.273438 -0.5625 2.523438 -0.71875 2.703125 -1.03125 C 2.890625 -1.34375 2.984375 -1.773438 2.984375 -2.328125 Z M 2.984375 -2.921875 "/></g></g></g><g fill="#2d6d5e" fill-opacity="1"><g transform="translate(58.93152, 144.407958)"><g><path d="M 1.53125 0 L 0.71875 0 L 0.71875 -8.296875 L 1.53125 -8.296875 Z M 1.53125 0 "/></g></g></g><g fill="#2d6d5e" fill-opacity="1"><g transform="translate(62.701211, 144.407958)"><g/></g></g><g fill="#2d6d5e" fill-opacity="1"><g transform="translate(66.257601, 144.407958)"><g><path d="M 1.53125 -8.296875 L 1.53125 -5.859375 C 1.53125 -5.742188 1.523438 -5.613281 1.515625 -5.46875 C 1.515625 -5.332031 1.515625 -5.1875 1.515625 -5.03125 L 1.546875 -5.03125 C 1.691406 -5.332031 1.875 -5.5625 2.09375 -5.71875 C 2.3125 -5.875 2.5625 -5.953125 2.84375 -5.953125 C 3.40625 -5.953125 3.828125 -5.695312 4.109375 -5.1875 C 4.398438 -4.675781 4.546875 -3.925781 4.546875 -2.9375 C 4.546875 -2.28125 4.476562 -1.722656 4.34375 -1.265625 C 4.21875 -0.816406 4.03125 -0.472656 3.78125 -0.234375 C 3.53125 -0.00390625 3.222656 0.109375 2.859375 0.109375 C 2.578125 0.109375 2.328125 0.0351562 2.109375 -0.109375 C 1.890625 -0.253906 1.703125 -0.476562 1.546875 -0.78125 L 1.5 -0.78125 L 1.375 0 L 0.71875 0 L 0.71875 -8.296875 Z M 2.671875 -5.234375 C 2.367188 -5.234375 2.132812 -5.132812 1.96875 -4.9375 C 1.8125 -4.75 1.695312 -4.488281 1.625 -4.15625 C 1.5625 -3.832031 1.53125 -3.457031 1.53125 -3.03125 L 1.53125 -2.78125 C 1.53125 -2.039062 1.625 -1.492188 1.8125 -1.140625 C 2.007812 -0.785156 2.296875 -0.609375 2.671875 -0.609375 C 3.015625 -0.609375 3.269531 -0.796875 3.4375 -1.171875 C 3.613281 -1.554688 3.703125 -2.148438 3.703125 -2.953125 C 3.703125 -3.703125 3.617188 -4.269531 3.453125 -4.65625 C 3.285156 -5.039062 3.023438 -5.234375 2.671875 -5.234375 Z M 2.671875 -5.234375 "/></g></g></g><g fill="#2d6d5e" fill-opacity="1"><g transform="translate(72.784221, 144.407958)"><g><path d="M 2.671875 -5.953125 C 2.753906 -5.953125 2.835938 -5.945312 2.921875 -5.9375 C 3.003906 -5.925781 3.085938 -5.90625 3.171875 -5.875 L 3.046875 -5.03125 C 2.984375 -5.0625 2.914062 -5.082031 2.84375 -5.09375 C 2.769531 -5.101562 2.691406 -5.109375 2.609375 -5.109375 C 2.453125 -5.109375 2.304688 -5.054688 2.171875 -4.953125 C 2.035156 -4.847656 1.921875 -4.703125 1.828125 -4.515625 C 1.734375 -4.328125 1.660156 -4.109375 1.609375 -3.859375 C 1.554688 -3.609375 1.53125 -3.335938 1.53125 -3.046875 L 1.53125 0 L 0.71875 0 L 0.71875 -5.859375 L 1.359375 -5.859375 L 1.46875 -4.8125 L 1.515625 -4.8125 C 1.597656 -5.039062 1.691406 -5.238281 1.796875 -5.40625 C 1.910156 -5.570312 2.039062 -5.703125 2.1875 -5.796875 C 2.332031 -5.898438 2.492188 -5.953125 2.671875 -5.953125 Z M 2.671875 -5.953125 "/></g></g></g><g fill="#2d6d5e" fill-opacity="1"><g transform="translate(77.588427, 144.407958)"><g><path d="M 2.328125 -5.953125 C 2.722656 -5.953125 3.050781 -5.835938 3.3125 -5.609375 C 3.570312 -5.378906 3.765625 -5.066406 3.890625 -4.671875 C 4.015625 -4.273438 4.078125 -3.835938 4.078125 -3.359375 L 4.078125 -2.78125 L 1.28125 -2.78125 C 1.289062 -2.050781 1.40625 -1.503906 1.625 -1.140625 C 1.84375 -0.773438 2.171875 -0.59375 2.609375 -0.59375 C 2.816406 -0.59375 3.019531 -0.625 3.21875 -0.6875 C 3.425781 -0.75 3.640625 -0.851562 3.859375 -1 L 3.859375 -0.265625 C 3.660156 -0.140625 3.445312 -0.046875 3.21875 0.015625 C 3 0.078125 2.765625 0.109375 2.515625 0.109375 C 2.035156 0.109375 1.644531 -0.0195312 1.34375 -0.28125 C 1.039062 -0.539062 0.816406 -0.894531 0.671875 -1.34375 C 0.535156 -1.800781 0.46875 -2.316406 0.46875 -2.890625 C 0.46875 -3.546875 0.535156 -4.101562 0.671875 -4.5625 C 0.816406 -5.019531 1.023438 -5.363281 1.296875 -5.59375 C 1.578125 -5.832031 1.921875 -5.953125 2.328125 -5.953125 Z M 2.328125 -5.28125 C 2.015625 -5.28125 1.769531 -5.128906 1.59375 -4.828125 C 1.425781 -4.523438 1.328125 -4.0625 1.296875 -3.4375 L 3.3125 -3.4375 C 3.3125 -3.769531 3.273438 -4.070312 3.203125 -4.34375 C 3.128906 -4.625 3.019531 -4.847656 2.875 -5.015625 C 2.738281 -5.191406 2.554688 -5.28125 2.328125 -5.28125 Z M 2.328125 -5.28125 "/></g></g></g><g fill="#2d6d5e" fill-opacity="1"><g transform="translate(83.635117, 144.407958)"><g><path d="M 2.28125 -5.96875 C 2.820312 -5.96875 3.207031 -5.789062 3.4375 -5.4375 C 3.664062 -5.09375 3.78125 -4.597656 3.78125 -3.953125 L 3.78125 0 L 3.15625 0 L 3.046875 -0.828125 L 3.015625 -0.828125 C 2.921875 -0.628906 2.8125 -0.457031 2.6875 -0.3125 C 2.5625 -0.175781 2.414062 -0.0703125 2.25 0 C 2.082031 0.0703125 1.894531 0.109375 1.6875 0.109375 C 1.382812 0.109375 1.132812 0.03125 0.9375 -0.125 C 0.75 -0.289062 0.609375 -0.503906 0.515625 -0.765625 C 0.421875 -1.023438 0.375 -1.304688 0.375 -1.609375 C 0.375 -2.191406 0.539062 -2.640625 0.875 -2.953125 C 1.207031 -3.273438 1.679688 -3.453125 2.296875 -3.484375 L 2.96875 -3.53125 L 2.96875 -3.921875 C 2.96875 -4.390625 2.90625 -4.734375 2.78125 -4.953125 C 2.65625 -5.171875 2.445312 -5.28125 2.15625 -5.28125 C 2 -5.28125 1.828125 -5.25 1.640625 -5.1875 C 1.460938 -5.132812 1.269531 -5.046875 1.0625 -4.921875 L 0.796875 -5.546875 C 1.015625 -5.679688 1.25 -5.785156 1.5 -5.859375 C 1.75 -5.929688 2.007812 -5.96875 2.28125 -5.96875 Z M 2.984375 -2.921875 L 2.4375 -2.890625 C 2.019531 -2.859375 1.710938 -2.738281 1.515625 -2.53125 C 1.316406 -2.320312 1.21875 -2.019531 1.21875 -1.625 C 1.21875 -1.257812 1.28125 -0.988281 1.40625 -0.8125 C 1.539062 -0.644531 1.722656 -0.5625 1.953125 -0.5625 C 2.273438 -0.5625 2.523438 -0.71875 2.703125 -1.03125 C 2.890625 -1.34375 2.984375 -1.773438 2.984375 -2.328125 Z M 2.984375 -2.921875 "/></g></g></g><g fill="#2d6d5e" fill-opacity="1"><g transform="translate(89.649812, 144.407958)"><g><path d="M 2.09375 -0.625 C 2.175781 -0.625 2.257812 -0.628906 2.34375 -0.640625 C 2.4375 -0.660156 2.523438 -0.691406 2.609375 -0.734375 L 2.609375 -0.0625 C 2.503906 -0.0078125 2.382812 0.03125 2.25 0.0625 C 2.125 0.09375 1.984375 0.109375 1.828125 0.109375 C 1.578125 0.109375 1.367188 0.0507812 1.203125 -0.0625 C 1.046875 -0.175781 0.925781 -0.34375 0.84375 -0.5625 C 0.769531 -0.789062 0.734375 -1.078125 0.734375 -1.421875 L 0.734375 -5.171875 L 0.1875 -5.171875 L 0.1875 -5.609375 L 0.765625 -5.828125 L 0.984375 -7.1875 L 1.5625 -7.1875 L 1.5625 -5.859375 L 2.546875 -5.859375 L 2.546875 -5.171875 L 1.5625 -5.171875 L 1.5625 -1.515625 C 1.5625 -1.210938 1.597656 -0.988281 1.671875 -0.84375 C 1.742188 -0.695312 1.882812 -0.625 2.09375 -0.625 Z M 2.09375 -0.625 "/></g></g></g><g fill="#2d6d5e" fill-opacity="1"><g transform="translate(93.947426, 144.407958)"><g><path d="M 1.53125 -8.296875 L 1.53125 -5.890625 C 1.53125 -5.734375 1.523438 -5.582031 1.515625 -5.4375 C 1.515625 -5.289062 1.503906 -5.15625 1.484375 -5.03125 L 1.53125 -5.03125 C 1.601562 -5.21875 1.703125 -5.378906 1.828125 -5.515625 C 1.953125 -5.660156 2.097656 -5.769531 2.265625 -5.84375 C 2.429688 -5.925781 2.613281 -5.96875 2.8125 -5.96875 C 3.132812 -5.96875 3.398438 -5.890625 3.609375 -5.734375 C 3.828125 -5.585938 3.984375 -5.363281 4.078125 -5.0625 C 4.179688 -4.769531 4.234375 -4.410156 4.234375 -3.984375 L 4.234375 0 L 3.40625 0 L 3.40625 -3.8125 C 3.40625 -4.320312 3.34375 -4.679688 3.21875 -4.890625 C 3.101562 -5.109375 2.910156 -5.21875 2.640625 -5.21875 C 2.390625 -5.21875 2.179688 -5.140625 2.015625 -4.984375 C 1.859375 -4.835938 1.738281 -4.601562 1.65625 -4.28125 C 1.570312 -3.96875 1.53125 -3.5625 1.53125 -3.0625 L 1.53125 0 L 0.71875 0 L 0.71875 -8.296875 Z M 1.53125 -8.296875 "/></g></g></g><g fill="#0661aa" fill-opacity="1"><g transform="translate(45.83722, 73.499767)"><g><path d="M 2.796875 0.203125 C 2.328125 0.203125 1.898438 0.113281 1.515625 -0.0625 C 1.140625 -0.238281 0.835938 -0.484375 0.609375 -0.796875 C 0.390625 -1.117188 0.265625 -1.488281 0.234375 -1.90625 L 1.125 -2.109375 C 1.144531 -1.648438 1.3125 -1.285156 1.625 -1.015625 C 1.945312 -0.753906 2.347656 -0.625 2.828125 -0.625 C 3.234375 -0.625 3.570312 -0.710938 3.84375 -0.890625 C 4.125 -1.066406 4.265625 -1.300781 4.265625 -1.59375 C 4.253906 -1.820312 4.148438 -2.007812 3.953125 -2.15625 C 3.765625 -2.3125 3.460938 -2.445312 3.046875 -2.5625 L 2.171875 -2.796875 C 1.609375 -2.960938 1.203125 -3.175781 0.953125 -3.4375 C 0.703125 -3.707031 0.578125 -4.046875 0.578125 -4.453125 C 0.578125 -4.796875 0.660156 -5.097656 0.828125 -5.359375 C 1.003906 -5.628906 1.242188 -5.835938 1.546875 -5.984375 C 1.859375 -6.140625 2.207031 -6.21875 2.59375 -6.21875 C 3.175781 -6.21875 3.664062 -6.054688 4.0625 -5.734375 C 4.46875 -5.410156 4.695312 -4.988281 4.75 -4.46875 L 3.875 -4.25 C 3.851562 -4.613281 3.71875 -4.894531 3.46875 -5.09375 C 3.226562 -5.300781 2.929688 -5.40625 2.578125 -5.40625 C 2.253906 -5.40625 1.988281 -5.320312 1.78125 -5.15625 C 1.570312 -4.988281 1.460938 -4.773438 1.453125 -4.515625 C 1.453125 -4.304688 1.535156 -4.125 1.703125 -3.96875 C 1.878906 -3.820312 2.160156 -3.691406 2.546875 -3.578125 L 3.40625 -3.34375 C 4.007812 -3.164062 4.445312 -2.941406 4.71875 -2.671875 C 5 -2.410156 5.144531 -2.078125 5.15625 -1.671875 C 5.15625 -1.304688 5.050781 -0.984375 4.84375 -0.703125 C 4.644531 -0.421875 4.367188 -0.195312 4.015625 -0.03125 C 3.660156 0.125 3.253906 0.203125 2.796875 0.203125 Z M 2.796875 0.203125 "/></g></g></g><g fill="#0661aa" fill-opacity="1"><g transform="translate(52.632991, 73.499767)"><g><path d="M 3.34375 0.203125 C 2.75 0.203125 2.226562 0.0664062 1.78125 -0.203125 C 1.332031 -0.472656 0.984375 -0.851562 0.734375 -1.34375 C 0.484375 -1.84375 0.359375 -2.421875 0.359375 -3.078125 C 0.359375 -3.710938 0.46875 -4.265625 0.6875 -4.734375 C 0.914062 -5.210938 1.234375 -5.578125 1.640625 -5.828125 C 2.054688 -6.085938 2.539062 -6.21875 3.09375 -6.21875 C 3.625 -6.21875 4.082031 -6.085938 4.46875 -5.828125 C 4.863281 -5.578125 5.164062 -5.210938 5.375 -4.734375 C 5.59375 -4.265625 5.703125 -3.707031 5.703125 -3.0625 C 5.703125 -2.988281 5.703125 -2.921875 5.703125 -2.859375 C 5.703125 -2.796875 5.703125 -2.742188 5.703125 -2.703125 L 1.28125 -2.703125 C 1.332031 -2.078125 1.539062 -1.570312 1.90625 -1.1875 C 2.28125 -0.8125 2.757812 -0.625 3.34375 -0.625 C 3.757812 -0.625 4.125 -0.734375 4.4375 -0.953125 C 4.75 -1.171875 4.972656 -1.460938 5.109375 -1.828125 L 5.890625 -1.484375 C 5.722656 -0.960938 5.410156 -0.550781 4.953125 -0.25 C 4.492188 0.0507812 3.957031 0.203125 3.34375 0.203125 Z M 1.28125 -3.5 L 4.75 -3.5 C 4.707031 -4.101562 4.539062 -4.566406 4.25 -4.890625 C 3.957031 -5.222656 3.570312 -5.390625 3.09375 -5.390625 C 2.582031 -5.390625 2.171875 -5.21875 1.859375 -4.875 C 1.546875 -4.539062 1.351562 -4.082031 1.28125 -3.5 Z M 1.28125 -3.5 "/></g></g></g><g fill="#0661aa" fill-opacity="1"><g transform="translate(60.203722, 73.499767)"><g><path d="M 2.28125 0.171875 C 1.6875 0.171875 1.195312 0.015625 0.8125 -0.296875 C 0.425781 -0.617188 0.234375 -1.046875 0.234375 -1.578125 C 0.234375 -2.066406 0.425781 -2.488281 0.8125 -2.84375 C 1.207031 -3.207031 1.835938 -3.441406 2.703125 -3.546875 L 3.84375 -3.6875 C 3.988281 -3.695312 4.109375 -3.75 4.203125 -3.84375 C 4.296875 -3.9375 4.34375 -4.054688 4.34375 -4.203125 C 4.34375 -4.566406 4.203125 -4.859375 3.921875 -5.078125 C 3.648438 -5.296875 3.296875 -5.40625 2.859375 -5.40625 C 2.535156 -5.40625 2.25 -5.335938 2 -5.203125 C 1.757812 -5.066406 1.566406 -4.882812 1.421875 -4.65625 C 1.285156 -4.4375 1.207031 -4.203125 1.1875 -3.953125 L 0.375 -4.28125 C 0.40625 -4.632812 0.53125 -4.957031 0.75 -5.25 C 0.96875 -5.550781 1.257812 -5.785156 1.625 -5.953125 C 2 -6.128906 2.421875 -6.21875 2.890625 -6.21875 C 3.597656 -6.21875 4.160156 -6.023438 4.578125 -5.640625 C 5.003906 -5.253906 5.21875 -4.734375 5.21875 -4.078125 L 5.21875 -1.0625 C 5.21875 -0.789062 5.316406 -0.65625 5.515625 -0.65625 C 5.679688 -0.65625 5.847656 -0.765625 6.015625 -0.984375 L 6.453125 -0.375 C 6.328125 -0.207031 6.15625 -0.078125 5.9375 0.015625 C 5.726562 0.117188 5.519531 0.171875 5.3125 0.171875 C 5.03125 0.171875 4.800781 0.0859375 4.625 -0.078125 C 4.457031 -0.242188 4.359375 -0.457031 4.328125 -0.71875 L 4.296875 -0.921875 C 4.097656 -0.578125 3.828125 -0.304688 3.484375 -0.109375 C 3.140625 0.078125 2.738281 0.171875 2.28125 0.171875 Z M 2.484375 -0.640625 C 2.835938 -0.640625 3.148438 -0.71875 3.421875 -0.875 C 3.703125 -1.039062 3.914062 -1.265625 4.0625 -1.546875 C 4.21875 -1.835938 4.296875 -2.171875 4.296875 -2.546875 L 4.296875 -2.953125 L 2.828125 -2.78125 C 2.222656 -2.695312 1.789062 -2.550781 1.53125 -2.34375 C 1.269531 -2.132812 1.140625 -1.890625 1.140625 -1.609375 C 1.140625 -1.316406 1.265625 -1.082031 1.515625 -0.90625 C 1.765625 -0.726562 2.085938 -0.640625 2.484375 -0.640625 Z M 2.484375 -0.640625 "/></g></g></g><g fill="#0661aa" fill-opacity="1"><g transform="translate(68.060591, 73.499767)"><g><path d="M 2.875 0.203125 C 2.351562 0.203125 1.941406 0.046875 1.640625 -0.265625 C 1.335938 -0.578125 1.1875 -0.992188 1.1875 -1.515625 L 1.171875 -5.265625 L 0 -5.265625 L 0 -6.015625 L 1.171875 -6.015625 L 1.171875 -7.765625 L 2.078125 -7.96875 L 2.078125 -6.015625 L 4.328125 -6.015625 L 4.328125 -5.265625 L 2.078125 -5.265625 L 2.09375 -1.640625 C 2.09375 -1.328125 2.164062 -1.070312 2.3125 -0.875 C 2.457031 -0.675781 2.664062 -0.578125 2.9375 -0.578125 C 3.1875 -0.578125 3.398438 -0.671875 3.578125 -0.859375 C 3.765625 -1.054688 3.875 -1.347656 3.90625 -1.734375 L 4.671875 -1.421875 C 4.628906 -0.921875 4.4375 -0.523438 4.09375 -0.234375 C 3.757812 0.0546875 3.351562 0.203125 2.875 0.203125 Z M 2.875 0.203125 "/></g></g></g><g fill="#0661aa" fill-opacity="1"><g transform="translate(74.176786, 73.499767)"><g><path d="M 3.34375 0.203125 C 2.75 0.203125 2.226562 0.0664062 1.78125 -0.203125 C 1.332031 -0.472656 0.984375 -0.851562 0.734375 -1.34375 C 0.484375 -1.84375 0.359375 -2.421875 0.359375 -3.078125 C 0.359375 -3.710938 0.46875 -4.265625 0.6875 -4.734375 C 0.914062 -5.210938 1.234375 -5.578125 1.640625 -5.828125 C 2.054688 -6.085938 2.539062 -6.21875 3.09375 -6.21875 C 3.625 -6.21875 4.082031 -6.085938 4.46875 -5.828125 C 4.863281 -5.578125 5.164062 -5.210938 5.375 -4.734375 C 5.59375 -4.265625 5.703125 -3.707031 5.703125 -3.0625 C 5.703125 -2.988281 5.703125 -2.921875 5.703125 -2.859375 C 5.703125 -2.796875 5.703125 -2.742188 5.703125 -2.703125 L 1.28125 -2.703125 C 1.332031 -2.078125 1.539062 -1.570312 1.90625 -1.1875 C 2.28125 -0.8125 2.757812 -0.625 3.34375 -0.625 C 3.757812 -0.625 4.125 -0.734375 4.4375 -0.953125 C 4.75 -1.171875 4.972656 -1.460938 5.109375 -1.828125 L 5.890625 -1.484375 C 5.722656 -0.960938 5.410156 -0.550781 4.953125 -0.25 C 4.492188 0.0507812 3.957031 0.203125 3.34375 0.203125 Z M 1.28125 -3.5 L 4.75 -3.5 C 4.707031 -4.101562 4.539062 -4.566406 4.25 -4.890625 C 3.957031 -5.222656 3.570312 -5.390625 3.09375 -5.390625 C 2.582031 -5.390625 2.171875 -5.21875 1.859375 -4.875 C 1.546875 -4.539062 1.351562 -4.082031 1.28125 -3.5 Z M 1.28125 -3.5 "/></g></g></g><g fill="#0661aa" fill-opacity="1"><g transform="translate(81.747517, 73.499767)"><g><path d="M 3.015625 0.203125 C 2.492188 0.203125 2.03125 0.0703125 1.625 -0.1875 C 1.226562 -0.457031 0.914062 -0.832031 0.6875 -1.3125 C 0.46875 -1.800781 0.359375 -2.363281 0.359375 -3 C 0.359375 -3.644531 0.46875 -4.207031 0.6875 -4.6875 C 0.914062 -5.175781 1.226562 -5.550781 1.625 -5.8125 C 2.019531 -6.082031 2.476562 -6.21875 3 -6.21875 C 3.445312 -6.21875 3.84375 -6.113281 4.1875 -5.90625 C 4.539062 -5.707031 4.816406 -5.425781 5.015625 -5.0625 L 5.03125 -5.0625 L 5.03125 -8.765625 L 5.9375 -8.765625 L 5.9375 0 L 5.15625 0 L 5.0625 -1 L 5.046875 -1 C 4.847656 -0.613281 4.570312 -0.316406 4.21875 -0.109375 C 3.863281 0.0976562 3.460938 0.203125 3.015625 0.203125 Z M 3.171875 -0.65625 C 3.546875 -0.65625 3.875 -0.753906 4.15625 -0.953125 C 4.4375 -1.148438 4.65625 -1.425781 4.8125 -1.78125 C 4.976562 -2.132812 5.0625 -2.539062 5.0625 -3 C 5.0625 -3.46875 4.976562 -3.878906 4.8125 -4.234375 C 4.65625 -4.585938 4.4375 -4.863281 4.15625 -5.0625 C 3.875 -5.257812 3.546875 -5.359375 3.171875 -5.359375 C 2.796875 -5.359375 2.460938 -5.257812 2.171875 -5.0625 C 1.878906 -4.863281 1.65625 -4.585938 1.5 -4.234375 C 1.34375 -3.878906 1.265625 -3.46875 1.265625 -3 C 1.265625 -2.539062 1.34375 -2.132812 1.5 -1.78125 C 1.65625 -1.425781 1.878906 -1.148438 2.171875 -0.953125 C 2.460938 -0.753906 2.796875 -0.65625 3.171875 -0.65625 Z M 3.171875 -0.65625 "/></g></g></g></svg>