<svg xmlns="http://www.w3.org/2000/svg" xmlns:xlink="http://www.w3.org/1999/xlink" width="180" zoomAndPan="magnify" viewBox="0 0 135 161.249994" height="215" preserveAspectRatio="xMidYMid meet" version="1.0"><defs><g/><clipPath id="781510908c"><path d="M 49.625 17.152344 L 85.457031 17.152344 L 85.457031 60.453125 L 49.625 60.453125 Z M 49.625 17.152344 " clip-rule="nonzero"/></clipPath></defs><g clip-path="url(#781510908c)"><path fill="#0661aa" d="M 83.21875 57.792969 C 82.417969 58.695312 81.269531 59.210938 80.0625 59.210938 L 75.570312 59.210938 C 76.007812 58.738281 76.296875 58.117188 76.351562 57.417969 C 76.46875 55.984375 75.535156 54.691406 74.140625 54.34375 L 69.457031 53.175781 L 76.113281 51.519531 C 76.113281 51.519531 76.113281 51.519531 76.117188 51.519531 L 79.03125 50.796875 C 80.203125 50.503906 81.445312 50.730469 82.441406 51.414062 C 83.4375 52.101562 84.089844 53.183594 84.234375 54.378906 L 84.25 54.488281 C 84.394531 55.683594 84.019531 56.890625 83.21875 57.792969 Z M 72.480469 59.210938 L 54.9375 59.210938 C 53.730469 59.210938 52.582031 58.695312 51.78125 57.792969 C 50.980469 56.890625 50.605469 55.683594 50.75 54.484375 L 50.761719 54.382812 C 50.90625 53.183594 51.5625 52.101562 52.558594 51.414062 C 53.265625 50.925781 54.101562 50.671875 54.949219 50.671875 C 55.289062 50.671875 55.632812 50.710938 55.96875 50.796875 L 58.910156 51.527344 L 65.449219 53.15625 L 73.910156 55.261719 C 74.855469 55.496094 75.488281 56.371094 75.40625 57.386719 C 75.324219 58.410156 74.453125 59.210938 73.429688 59.210938 Z M 56.519531 47.300781 L 56.4375 40.410156 C 56.4375 35.128906 60.730469 30.835938 66.007812 30.835938 L 68.988281 30.835938 C 74.265625 30.835938 78.5625 35.128906 78.5625 40.402344 L 78.480469 47.324219 C 78.460938 48.878906 77.394531 50.226562 75.886719 50.601562 L 71.839844 51.609375 L 68.132812 49.457031 L 74.054688 46.378906 C 74.210938 46.296875 74.308594 46.136719 74.308594 45.957031 L 74.308594 37.78125 C 74.308594 37.519531 74.097656 37.308594 73.835938 37.308594 C 73.574219 37.308594 73.363281 37.519531 73.363281 37.78125 L 73.363281 45.671875 L 67.164062 48.894531 L 61.632812 45.6875 L 61.632812 37.78125 C 61.632812 37.519531 61.421875 37.308594 61.160156 37.308594 C 60.898438 37.308594 60.6875 37.519531 60.6875 37.78125 L 60.6875 45.957031 C 60.6875 46.128906 60.777344 46.28125 60.925781 46.367188 L 70.519531 51.9375 L 67.5 52.691406 L 59.136719 50.609375 C 57.613281 50.230469 56.539062 48.867188 56.519531 47.300781 Z M 61.605469 23.996094 C 61.605469 20.746094 64.25 18.101562 67.5 18.101562 C 70.75 18.101562 73.394531 20.746094 73.394531 23.996094 C 73.394531 27.246094 70.75 29.890625 67.5 29.890625 C 64.25 29.890625 61.605469 27.246094 61.605469 23.996094 Z M 85.1875 54.375 L 85.175781 54.269531 C 85 52.800781 84.199219 51.476562 82.980469 50.636719 C 81.761719 49.796875 80.238281 49.519531 78.800781 49.875 L 78.519531 49.949219 C 79.082031 49.21875 79.414062 48.308594 79.425781 47.335938 L 79.507812 40.410156 C 79.507812 35.195312 75.695312 30.855469 70.710938 30.03125 C 72.867188 28.878906 74.339844 26.605469 74.339844 23.996094 C 74.339844 20.222656 71.269531 17.15625 67.5 17.15625 C 63.726562 17.15625 60.660156 20.222656 60.660156 23.996094 C 60.660156 26.605469 62.128906 28.878906 64.285156 30.03125 C 59.300781 30.855469 55.488281 35.195312 55.488281 40.414062 L 55.574219 47.308594 C 55.585938 48.292969 55.921875 49.214844 56.496094 49.953125 L 56.195312 49.875 C 54.761719 49.519531 53.238281 49.796875 52.019531 50.636719 C 50.800781 51.476562 50 52.800781 49.820312 54.269531 L 49.808594 54.375 C 49.632812 55.839844 50.09375 57.316406 51.074219 58.417969 C 52.050781 59.523438 53.460938 60.160156 54.9375 60.160156 L 80.0625 60.160156 C 81.539062 60.160156 82.945312 59.523438 83.925781 58.417969 C 84.90625 57.316406 85.367188 55.839844 85.1875 54.375 " fill-opacity="1" fill-rule="nonzero"/></g><g fill="#0661aa" fill-opacity="1"><g transform="translate(33.726901, 89.998348)"><g><path d="M 0.890625 0 L 0.890625 -12.765625 L 6.75 -12.765625 C 8.09375 -12.765625 9.128906 -12.46875 9.859375 -11.875 C 10.597656 -11.28125 10.96875 -10.4375 10.96875 -9.34375 C 10.96875 -8.625 10.78125 -8.019531 10.40625 -7.53125 C 10.03125 -7.039062 9.5 -6.710938 8.8125 -6.546875 L 8.8125 -6.53125 C 9.59375 -6.375 10.191406 -6.035156 10.609375 -5.515625 C 11.023438 -4.992188 11.234375 -4.328125 11.234375 -3.515625 C 11.234375 -2.398438 10.859375 -1.535156 10.109375 -0.921875 C 9.359375 -0.304688 8.289062 0 6.90625 0 Z M 3.953125 -7.46875 L 6.25 -7.46875 C 6.789062 -7.46875 7.207031 -7.601562 7.5 -7.875 C 7.789062 -8.15625 7.9375 -8.535156 7.9375 -9.015625 C 7.9375 -9.503906 7.789062 -9.878906 7.5 -10.140625 C 7.207031 -10.398438 6.796875 -10.53125 6.265625 -10.53125 L 3.953125 -10.53125 Z M 3.953125 -2.21875 L 6.296875 -2.21875 C 6.890625 -2.21875 7.347656 -2.359375 7.671875 -2.640625 C 8.003906 -2.921875 8.171875 -3.316406 8.171875 -3.828125 C 8.171875 -4.367188 8.003906 -4.785156 7.671875 -5.078125 C 7.347656 -5.367188 6.890625 -5.515625 6.296875 -5.515625 L 3.953125 -5.515625 Z M 3.953125 -2.21875 "/></g></g></g><g fill="#0661aa" fill-opacity="1"><g transform="translate(47.504778, 89.998348)"><g><path d="M 5.625 -9.421875 C 6.375 -9.421875 6.976562 -9.140625 7.4375 -8.578125 C 7.894531 -8.023438 8.144531 -7.234375 8.1875 -6.203125 L 5.875 -5.578125 C 5.863281 -6.171875 5.753906 -6.617188 5.546875 -6.921875 C 5.347656 -7.234375 5.082031 -7.390625 4.75 -7.390625 C 4.34375 -7.390625 4.015625 -7.1875 3.765625 -6.78125 C 3.523438 -6.375 3.40625 -5.8125 3.40625 -5.09375 L 3.40625 0 L 0.6875 0 L 0.6875 -9.171875 L 2.890625 -9.171875 L 3.265625 -7.59375 L 3.28125 -7.59375 C 3.476562 -8.164062 3.785156 -8.613281 4.203125 -8.9375 C 4.628906 -9.257812 5.101562 -9.421875 5.625 -9.421875 Z M 5.625 -9.421875 "/></g></g></g><g fill="#0661aa" fill-opacity="1"><g transform="translate(57.968092, 89.998348)"><g><path d="M 5.359375 0.296875 C 4.367188 0.296875 3.492188 0.0976562 2.734375 -0.296875 C 1.984375 -0.703125 1.398438 -1.28125 0.984375 -2.03125 C 0.578125 -2.78125 0.375 -3.648438 0.375 -4.640625 C 0.375 -5.617188 0.5625 -6.46875 0.9375 -7.1875 C 1.3125 -7.914062 1.835938 -8.484375 2.515625 -8.890625 C 3.203125 -9.296875 4.003906 -9.5 4.921875 -9.5 C 5.804688 -9.5 6.570312 -9.300781 7.21875 -8.90625 C 7.863281 -8.519531 8.367188 -7.976562 8.734375 -7.28125 C 9.097656 -6.582031 9.28125 -5.765625 9.28125 -4.828125 C 9.28125 -4.628906 9.269531 -4.441406 9.25 -4.265625 C 9.238281 -4.097656 9.210938 -3.953125 9.171875 -3.828125 L 3.125 -3.828125 C 3.175781 -3.160156 3.40625 -2.632812 3.8125 -2.25 C 4.21875 -1.863281 4.738281 -1.671875 5.375 -1.671875 C 5.863281 -1.671875 6.296875 -1.789062 6.671875 -2.03125 C 7.046875 -2.269531 7.332031 -2.597656 7.53125 -3.015625 L 9.4375 -2.171875 C 9.175781 -1.398438 8.671875 -0.796875 7.921875 -0.359375 C 7.171875 0.078125 6.316406 0.296875 5.359375 0.296875 Z M 3.125 -5.390625 L 6.5625 -5.390625 C 6.519531 -6.054688 6.351562 -6.578125 6.0625 -6.953125 C 5.78125 -7.328125 5.394531 -7.515625 4.90625 -7.515625 C 4.394531 -7.515625 3.984375 -7.320312 3.671875 -6.9375 C 3.359375 -6.5625 3.175781 -6.046875 3.125 -5.390625 Z M 3.125 -5.390625 "/></g></g></g><g fill="#0661aa" fill-opacity="1"><g transform="translate(69.864727, 89.998348)"><g><path d="M 3.171875 0.21875 C 2.296875 0.21875 1.585938 -0.015625 1.046875 -0.484375 C 0.515625 -0.953125 0.25 -1.578125 0.25 -2.359375 C 0.25 -3.203125 0.566406 -3.878906 1.203125 -4.390625 C 1.847656 -4.910156 2.785156 -5.238281 4.015625 -5.375 L 5.4375 -5.53125 C 5.632812 -5.5625 5.796875 -5.632812 5.921875 -5.75 C 6.046875 -5.875 6.109375 -6.046875 6.109375 -6.265625 C 6.109375 -6.671875 5.984375 -6.984375 5.734375 -7.203125 C 5.484375 -7.421875 5.15625 -7.53125 4.75 -7.53125 C 4.28125 -7.53125 3.898438 -7.367188 3.609375 -7.046875 C 3.328125 -6.722656 3.175781 -6.316406 3.15625 -5.828125 L 0.5625 -6.203125 C 0.582031 -6.847656 0.769531 -7.414062 1.125 -7.90625 C 1.476562 -8.40625 1.960938 -8.796875 2.578125 -9.078125 C 3.191406 -9.359375 3.910156 -9.5 4.734375 -9.5 C 5.984375 -9.5 6.972656 -9.171875 7.703125 -8.515625 C 8.429688 -7.859375 8.796875 -6.96875 8.796875 -5.84375 L 8.796875 -2.296875 C 8.796875 -1.890625 8.945312 -1.6875 9.25 -1.6875 C 9.488281 -1.6875 9.710938 -1.804688 9.921875 -2.046875 L 10.515625 -0.578125 C 10.234375 -0.296875 9.890625 -0.09375 9.484375 0.03125 C 9.078125 0.164062 8.675781 0.234375 8.28125 0.234375 C 7.726562 0.234375 7.265625 0.09375 6.890625 -0.1875 C 6.515625 -0.46875 6.28125 -0.820312 6.1875 -1.25 L 6.140625 -1.484375 L 6.125 -1.484375 C 5.851562 -0.960938 5.457031 -0.546875 4.9375 -0.234375 C 4.425781 0.0664062 3.835938 0.21875 3.171875 0.21875 Z M 4.296875 -1.703125 C 4.816406 -1.703125 5.242188 -1.882812 5.578125 -2.25 C 5.910156 -2.613281 6.078125 -3.085938 6.078125 -3.671875 L 6.078125 -4.109375 L 4.734375 -3.953125 C 4.109375 -3.890625 3.660156 -3.742188 3.390625 -3.515625 C 3.128906 -3.285156 3 -3.015625 3 -2.703125 C 3 -2.410156 3.117188 -2.171875 3.359375 -1.984375 C 3.609375 -1.796875 3.921875 -1.703125 4.296875 -1.703125 Z M 4.296875 -1.703125 "/></g></g></g><g fill="#0661aa" fill-opacity="1"><g transform="translate(81.456775, 89.998348)"><g><path d="M 4.90625 0.28125 C 3.851562 0.28125 3.039062 -0.00390625 2.46875 -0.578125 C 1.90625 -1.148438 1.625 -1.925781 1.625 -2.90625 L 1.609375 -7.09375 L 0.078125 -7.09375 L 0.078125 -9.171875 L 1.625 -9.171875 L 1.625 -11.609375 L 4.359375 -12.21875 L 4.359375 -9.171875 L 7.484375 -9.171875 L 7.484375 -7.09375 L 4.359375 -7.09375 L 4.375 -3.390625 C 4.375 -2.929688 4.476562 -2.570312 4.6875 -2.3125 C 4.90625 -2.0625 5.195312 -1.9375 5.5625 -1.9375 C 6.238281 -1.9375 6.734375 -2.3125 7.046875 -3.0625 L 7.9375 -1.390625 C 7.65625 -0.859375 7.25 -0.445312 6.71875 -0.15625 C 6.1875 0.132812 5.582031 0.28125 4.90625 0.28125 Z M 4.90625 0.28125 "/></g></g></g><g fill="#0661aa" fill-opacity="1"><g transform="translate(91.633421, 89.998348)"><g><path d="M 0.6875 0 L 0.6875 -13.296875 L 3.40625 -13.296875 L 3.40625 -7.609375 L 3.421875 -7.609375 C 3.710938 -8.191406 4.101562 -8.632812 4.59375 -8.9375 C 5.09375 -9.25 5.664062 -9.40625 6.3125 -9.40625 C 7.15625 -9.40625 7.8125 -9.15625 8.28125 -8.65625 C 8.757812 -8.15625 9 -7.445312 9 -6.53125 L 9 0 L 6.25 0 L 6.25 -5.828125 C 6.25 -6.253906 6.140625 -6.585938 5.921875 -6.828125 C 5.710938 -7.066406 5.414062 -7.1875 5.03125 -7.1875 C 4.539062 -7.1875 4.144531 -7.023438 3.84375 -6.703125 C 3.550781 -6.390625 3.40625 -5.953125 3.40625 -5.390625 L 3.40625 0 Z M 0.6875 0 "/></g></g></g><g fill="#0661aa" fill-opacity="1"><g transform="translate(21.175904, 111.647652)"><g><path d="M 9.625 0.296875 C 8.988281 0.296875 8.46875 0.117188 8.0625 -0.234375 C 7.664062 -0.585938 7.398438 -1.0625 7.265625 -1.65625 L 6.734375 -3.65625 C 6.648438 -4 6.492188 -4.285156 6.265625 -4.515625 C 6.035156 -4.742188 5.757812 -4.859375 5.4375 -4.859375 L 3.953125 -4.859375 L 3.953125 0 L 0.890625 0 L 0.890625 -12.765625 L 6.4375 -12.765625 C 7.925781 -12.765625 9.097656 -12.410156 9.953125 -11.703125 C 10.816406 -10.992188 11.25 -10.019531 11.25 -8.78125 C 11.25 -7.96875 11.007812 -7.253906 10.53125 -6.640625 C 10.0625 -6.035156 9.398438 -5.625 8.546875 -5.40625 L 8.546875 -5.390625 C 8.890625 -5.242188 9.148438 -5.039062 9.328125 -4.78125 C 9.503906 -4.519531 9.632812 -4.210938 9.71875 -3.859375 L 10.09375 -2.34375 C 10.1875 -1.914062 10.390625 -1.703125 10.703125 -1.703125 C 10.960938 -1.703125 11.210938 -1.851562 11.453125 -2.15625 L 12.109375 -0.703125 C 11.816406 -0.390625 11.445312 -0.144531 11 0.03125 C 10.550781 0.207031 10.09375 0.296875 9.625 0.296875 Z M 3.953125 -6.9375 L 6.171875 -6.9375 C 6.773438 -6.9375 7.257812 -7.097656 7.625 -7.421875 C 7.988281 -7.742188 8.171875 -8.171875 8.171875 -8.703125 C 8.171875 -9.265625 7.988281 -9.703125 7.625 -10.015625 C 7.257812 -10.335938 6.773438 -10.5 6.171875 -10.5 L 3.953125 -10.5 Z M 3.953125 -6.9375 "/></g></g></g><g fill="#0661aa" fill-opacity="1"><g transform="translate(35.097126, 111.647652)"><g><path d="M 5.359375 0.296875 C 4.367188 0.296875 3.492188 0.0976562 2.734375 -0.296875 C 1.984375 -0.703125 1.398438 -1.28125 0.984375 -2.03125 C 0.578125 -2.78125 0.375 -3.648438 0.375 -4.640625 C 0.375 -5.617188 0.5625 -6.46875 0.9375 -7.1875 C 1.3125 -7.914062 1.835938 -8.484375 2.515625 -8.890625 C 3.203125 -9.296875 4.003906 -9.5 4.921875 -9.5 C 5.804688 -9.5 6.570312 -9.300781 7.21875 -8.90625 C 7.863281 -8.519531 8.367188 -7.976562 8.734375 -7.28125 C 9.097656 -6.582031 9.28125 -5.765625 9.28125 -4.828125 C 9.28125 -4.628906 9.269531 -4.441406 9.25 -4.265625 C 9.238281 -4.097656 9.210938 -3.953125 9.171875 -3.828125 L 3.125 -3.828125 C 3.175781 -3.160156 3.40625 -2.632812 3.8125 -2.25 C 4.21875 -1.863281 4.738281 -1.671875 5.375 -1.671875 C 5.863281 -1.671875 6.296875 -1.789062 6.671875 -2.03125 C 7.046875 -2.269531 7.332031 -2.597656 7.53125 -3.015625 L 9.4375 -2.171875 C 9.175781 -1.398438 8.671875 -0.796875 7.921875 -0.359375 C 7.171875 0.078125 6.316406 0.296875 5.359375 0.296875 Z M 3.125 -5.390625 L 6.5625 -5.390625 C 6.519531 -6.054688 6.351562 -6.578125 6.0625 -6.953125 C 5.78125 -7.328125 5.394531 -7.515625 4.90625 -7.515625 C 4.394531 -7.515625 3.984375 -7.320312 3.671875 -6.9375 C 3.359375 -6.5625 3.175781 -6.046875 3.125 -5.390625 Z M 3.125 -5.390625 "/></g></g></g><g fill="#0661aa" fill-opacity="1"><g transform="translate(47.011679, 111.647652)"><g><path d="M 4.921875 0.296875 C 4.003906 0.296875 3.203125 0.0976562 2.515625 -0.296875 C 1.835938 -0.691406 1.3125 -1.253906 0.9375 -1.984375 C 0.5625 -2.722656 0.375 -3.59375 0.375 -4.59375 C 0.382812 -5.59375 0.566406 -6.457031 0.921875 -7.1875 C 1.285156 -7.925781 1.789062 -8.492188 2.4375 -8.890625 C 3.09375 -9.296875 3.859375 -9.5 4.734375 -9.5 C 5.828125 -9.5 6.738281 -9.179688 7.46875 -8.546875 C 8.195312 -7.910156 8.648438 -7.054688 8.828125 -5.984375 L 6.328125 -5.40625 C 6.242188 -6.019531 6.0625 -6.484375 5.78125 -6.796875 C 5.5 -7.117188 5.164062 -7.28125 4.78125 -7.28125 C 4.28125 -7.28125 3.878906 -7.039062 3.578125 -6.5625 C 3.273438 -6.082031 3.125 -5.425781 3.125 -4.59375 C 3.132812 -3.75 3.304688 -3.09375 3.640625 -2.625 C 3.984375 -2.15625 4.429688 -1.921875 4.984375 -1.921875 C 5.460938 -1.921875 5.863281 -2.101562 6.1875 -2.46875 C 6.519531 -2.832031 6.722656 -3.34375 6.796875 -4 L 9.3125 -3.625 C 9.175781 -2.425781 8.710938 -1.472656 7.921875 -0.765625 C 7.128906 -0.0546875 6.128906 0.296875 4.921875 0.296875 Z M 4.921875 0.296875 "/></g></g></g><g fill="#0661aa" fill-opacity="1"><g transform="translate(58.747073, 111.647652)"><g><path d="M 5.03125 0.296875 C 4.09375 0.296875 3.269531 0.0976562 2.5625 -0.296875 C 1.863281 -0.691406 1.320312 -1.253906 0.9375 -1.984375 C 0.5625 -2.722656 0.375 -3.59375 0.375 -4.59375 C 0.375 -5.59375 0.5625 -6.457031 0.9375 -7.1875 C 1.320312 -7.925781 1.863281 -8.492188 2.5625 -8.890625 C 3.269531 -9.296875 4.09375 -9.5 5.03125 -9.5 C 5.976562 -9.5 6.796875 -9.296875 7.484375 -8.890625 C 8.179688 -8.492188 8.71875 -7.925781 9.09375 -7.1875 C 9.476562 -6.457031 9.671875 -5.59375 9.671875 -4.59375 C 9.671875 -3.59375 9.476562 -2.722656 9.09375 -1.984375 C 8.71875 -1.253906 8.179688 -0.691406 7.484375 -0.296875 C 6.796875 0.0976562 5.976562 0.296875 5.03125 0.296875 Z M 5.03125 -1.984375 C 5.632812 -1.984375 6.101562 -2.210938 6.4375 -2.671875 C 6.78125 -3.140625 6.953125 -3.78125 6.953125 -4.59375 C 6.953125 -5.40625 6.78125 -6.039062 6.4375 -6.5 C 6.101562 -6.957031 5.632812 -7.1875 5.03125 -7.1875 C 4.4375 -7.1875 3.960938 -6.957031 3.609375 -6.5 C 3.265625 -6.039062 3.09375 -5.40625 3.09375 -4.59375 C 3.09375 -3.78125 3.265625 -3.140625 3.609375 -2.671875 C 3.960938 -2.210938 4.4375 -1.984375 5.03125 -1.984375 Z M 5.03125 -1.984375 "/></g></g></g><g fill="#0661aa" fill-opacity="1"><g transform="translate(70.44663, 111.647652)"><g><path d="M 3.078125 0 L 0.109375 -9.171875 L 2.953125 -9.171875 L 4.828125 -2.265625 L 4.859375 -2.265625 L 6.71875 -9.171875 L 9.59375 -9.171875 L 6.546875 0 Z M 3.078125 0 "/></g></g></g><g fill="#0661aa" fill-opacity="1"><g transform="translate(81.752021, 111.647652)"><g><path d="M 5.359375 0.296875 C 4.367188 0.296875 3.492188 0.0976562 2.734375 -0.296875 C 1.984375 -0.703125 1.398438 -1.28125 0.984375 -2.03125 C 0.578125 -2.78125 0.375 -3.648438 0.375 -4.640625 C 0.375 -5.617188 0.5625 -6.46875 0.9375 -7.1875 C 1.3125 -7.914062 1.835938 -8.484375 2.515625 -8.890625 C 3.203125 -9.296875 4.003906 -9.5 4.921875 -9.5 C 5.804688 -9.5 6.570312 -9.300781 7.21875 -8.90625 C 7.863281 -8.519531 8.367188 -7.976562 8.734375 -7.28125 C 9.097656 -6.582031 9.28125 -5.765625 9.28125 -4.828125 C 9.28125 -4.628906 9.269531 -4.441406 9.25 -4.265625 C 9.238281 -4.097656 9.210938 -3.953125 9.171875 -3.828125 L 3.125 -3.828125 C 3.175781 -3.160156 3.40625 -2.632812 3.8125 -2.25 C 4.21875 -1.863281 4.738281 -1.671875 5.375 -1.671875 C 5.863281 -1.671875 6.296875 -1.789062 6.671875 -2.03125 C 7.046875 -2.269531 7.332031 -2.597656 7.53125 -3.015625 L 9.4375 -2.171875 C 9.175781 -1.398438 8.671875 -0.796875 7.921875 -0.359375 C 7.171875 0.078125 6.316406 0.296875 5.359375 0.296875 Z M 3.125 -5.390625 L 6.5625 -5.390625 C 6.519531 -6.054688 6.351562 -6.578125 6.0625 -6.953125 C 5.78125 -7.328125 5.394531 -7.515625 4.90625 -7.515625 C 4.394531 -7.515625 3.984375 -7.320312 3.671875 -6.9375 C 3.359375 -6.5625 3.175781 -6.046875 3.125 -5.390625 Z M 3.125 -5.390625 "/></g></g></g><g fill="#0661aa" fill-opacity="1"><g transform="translate(93.648656, 111.647652)"><g><path d="M 5.625 -9.421875 C 6.375 -9.421875 6.976562 -9.140625 7.4375 -8.578125 C 7.894531 -8.023438 8.144531 -7.234375 8.1875 -6.203125 L 5.875 -5.578125 C 5.863281 -6.171875 5.753906 -6.617188 5.546875 -6.921875 C 5.347656 -7.234375 5.082031 -7.390625 4.75 -7.390625 C 4.34375 -7.390625 4.015625 -7.1875 3.765625 -6.78125 C 3.523438 -6.375 3.40625 -5.8125 3.40625 -5.09375 L 3.40625 0 L 0.6875 0 L 0.6875 -9.171875 L 2.890625 -9.171875 L 3.265625 -7.59375 L 3.28125 -7.59375 C 3.476562 -8.164062 3.785156 -8.613281 4.203125 -8.9375 C 4.628906 -9.257812 5.101562 -9.421875 5.625 -9.421875 Z M 5.625 -9.421875 "/></g></g></g><g fill="#0661aa" fill-opacity="1"><g transform="translate(104.20155, 111.647652)"><g><path d="M 4 4.0625 C 3.132812 4.0625 2.328125 3.910156 1.578125 3.609375 C 0.828125 3.316406 0.21875 2.914062 -0.25 2.40625 L 0.828125 0.46875 C 1.171875 0.875 1.597656 1.195312 2.109375 1.4375 C 2.617188 1.6875 3.160156 1.8125 3.734375 1.8125 C 4.503906 1.8125 5.113281 1.585938 5.5625 1.140625 C 6.007812 0.703125 6.234375 0.101562 6.234375 -0.65625 L 6.234375 -1.453125 L 6.21875 -1.453125 C 5.957031 -0.898438 5.59375 -0.460938 5.125 -0.140625 C 4.65625 0.179688 4.140625 0.34375 3.578125 0.34375 C 2.660156 0.34375 1.9375 0.0390625 1.40625 -0.5625 C 0.875 -1.175781 0.609375 -2 0.609375 -3.03125 L 0.609375 -9.171875 L 3.34375 -9.171875 L 3.34375 -3.484375 C 3.34375 -3.003906 3.457031 -2.617188 3.6875 -2.328125 C 3.925781 -2.046875 4.25 -1.90625 4.65625 -1.90625 C 5.113281 -1.90625 5.484375 -2.0625 5.765625 -2.375 C 6.054688 -2.6875 6.203125 -3.101562 6.203125 -3.625 L 6.203125 -9.171875 L 8.921875 -9.171875 L 8.9375 -0.484375 C 8.9375 0.460938 8.738281 1.273438 8.34375 1.953125 C 7.945312 2.628906 7.375 3.148438 6.625 3.515625 C 5.882812 3.878906 5.007812 4.0625 4 4.0625 Z M 4 4.0625 "/></g></g></g><g fill="#2d6d5e" fill-opacity="1"><g transform="translate(21.363493, 127.782567)"><g><path d="M 1.65625 0 L 0.8125 0 L 0.8125 -7.8125 L 3.875 -7.8125 L 3.875 -7.046875 L 1.65625 -7.046875 L 1.65625 -4.140625 L 3.75 -4.140625 L 3.75 -3.359375 L 1.65625 -3.359375 Z M 1.65625 0 "/></g></g></g><g fill="#2d6d5e" fill-opacity="1"><g transform="translate(27.020705, 127.782567)"><g><path d="M 4.359375 -2.9375 C 4.359375 -2.476562 4.316406 -2.0625 4.234375 -1.6875 C 4.160156 -1.3125 4.039062 -0.988281 3.875 -0.71875 C 3.71875 -0.457031 3.515625 -0.253906 3.265625 -0.109375 C 3.023438 0.0351562 2.734375 0.109375 2.390625 0.109375 C 2.078125 0.109375 1.796875 0.0351562 1.546875 -0.109375 C 1.304688 -0.253906 1.101562 -0.457031 0.9375 -0.71875 C 0.78125 -0.976562 0.660156 -1.296875 0.578125 -1.671875 C 0.503906 -2.054688 0.46875 -2.476562 0.46875 -2.9375 C 0.46875 -3.582031 0.535156 -4.128906 0.671875 -4.578125 C 0.804688 -5.035156 1.019531 -5.378906 1.3125 -5.609375 C 1.601562 -5.847656 1.96875 -5.96875 2.40625 -5.96875 C 2.820312 -5.96875 3.175781 -5.851562 3.46875 -5.625 C 3.757812 -5.394531 3.976562 -5.054688 4.125 -4.609375 C 4.28125 -4.160156 4.359375 -3.601562 4.359375 -2.9375 Z M 1.296875 -2.9375 C 1.296875 -2.425781 1.332031 -2 1.40625 -1.65625 C 1.488281 -1.3125 1.613281 -1.050781 1.78125 -0.875 C 1.945312 -0.695312 2.160156 -0.609375 2.421875 -0.609375 C 2.671875 -0.609375 2.875 -0.691406 3.03125 -0.859375 C 3.195312 -1.035156 3.316406 -1.296875 3.390625 -1.640625 C 3.472656 -1.984375 3.515625 -2.414062 3.515625 -2.9375 C 3.515625 -3.445312 3.472656 -3.875 3.390625 -4.21875 C 3.316406 -4.5625 3.195312 -4.816406 3.03125 -4.984375 C 2.875 -5.160156 2.664062 -5.25 2.40625 -5.25 C 2.019531 -5.25 1.738281 -5.054688 1.5625 -4.671875 C 1.382812 -4.285156 1.296875 -3.707031 1.296875 -2.9375 Z M 1.296875 -2.9375 "/></g></g></g><g fill="#2d6d5e" fill-opacity="1"><g transform="translate(33.372432, 127.782567)"><g><path d="M 2.671875 -5.96875 C 2.753906 -5.96875 2.835938 -5.957031 2.921875 -5.9375 C 3.003906 -5.925781 3.085938 -5.910156 3.171875 -5.890625 L 3.046875 -5.046875 C 2.984375 -5.066406 2.914062 -5.082031 2.84375 -5.09375 C 2.769531 -5.101562 2.691406 -5.109375 2.609375 -5.109375 C 2.453125 -5.109375 2.304688 -5.054688 2.171875 -4.953125 C 2.035156 -4.847656 1.921875 -4.703125 1.828125 -4.515625 C 1.734375 -4.328125 1.660156 -4.109375 1.609375 -3.859375 C 1.554688 -3.609375 1.53125 -3.34375 1.53125 -3.0625 L 1.53125 0 L 0.71875 0 L 0.71875 -5.859375 L 1.359375 -5.859375 L 1.46875 -4.828125 L 1.515625 -4.828125 C 1.597656 -5.046875 1.691406 -5.238281 1.796875 -5.40625 C 1.910156 -5.582031 2.039062 -5.71875 2.1875 -5.8125 C 2.332031 -5.914062 2.492188 -5.96875 2.671875 -5.96875 Z M 2.671875 -5.96875 "/></g></g></g><g fill="#2d6d5e" fill-opacity="1"><g transform="translate(38.185541, 127.782567)"><g/></g></g><g fill="#2d6d5e" fill-opacity="1"><g transform="translate(41.74852, 127.782567)"><g><path d="M 2.671875 -5.96875 C 2.753906 -5.96875 2.835938 -5.957031 2.921875 -5.9375 C 3.003906 -5.925781 3.085938 -5.910156 3.171875 -5.890625 L 3.046875 -5.046875 C 2.984375 -5.066406 2.914062 -5.082031 2.84375 -5.09375 C 2.769531 -5.101562 2.691406 -5.109375 2.609375 -5.109375 C 2.453125 -5.109375 2.304688 -5.054688 2.171875 -4.953125 C 2.035156 -4.847656 1.921875 -4.703125 1.828125 -4.515625 C 1.734375 -4.328125 1.660156 -4.109375 1.609375 -3.859375 C 1.554688 -3.609375 1.53125 -3.34375 1.53125 -3.0625 L 1.53125 0 L 0.71875 0 L 0.71875 -5.859375 L 1.359375 -5.859375 L 1.46875 -4.828125 L 1.515625 -4.828125 C 1.597656 -5.046875 1.691406 -5.238281 1.796875 -5.40625 C 1.910156 -5.582031 2.039062 -5.71875 2.1875 -5.8125 C 2.332031 -5.914062 2.492188 -5.96875 2.671875 -5.96875 Z M 2.671875 -5.96875 "/></g></g></g><g fill="#2d6d5e" fill-opacity="1"><g transform="translate(46.561628, 127.782567)"><g><path d="M 2.328125 -5.953125 C 2.722656 -5.953125 3.050781 -5.835938 3.3125 -5.609375 C 3.570312 -5.378906 3.765625 -5.066406 3.890625 -4.671875 C 4.015625 -4.285156 4.078125 -3.851562 4.078125 -3.375 L 4.078125 -2.78125 L 1.28125 -2.78125 C 1.289062 -2.050781 1.40625 -1.503906 1.625 -1.140625 C 1.84375 -0.773438 2.171875 -0.59375 2.609375 -0.59375 C 2.828125 -0.59375 3.035156 -0.625 3.234375 -0.6875 C 3.441406 -0.75 3.648438 -0.851562 3.859375 -1 L 3.859375 -0.265625 C 3.660156 -0.140625 3.453125 -0.046875 3.234375 0.015625 C 3.015625 0.078125 2.78125 0.109375 2.53125 0.109375 C 2.039062 0.109375 1.644531 -0.0195312 1.34375 -0.28125 C 1.039062 -0.539062 0.816406 -0.898438 0.671875 -1.359375 C 0.535156 -1.816406 0.46875 -2.332031 0.46875 -2.90625 C 0.46875 -3.550781 0.535156 -4.101562 0.671875 -4.5625 C 0.816406 -5.019531 1.023438 -5.363281 1.296875 -5.59375 C 1.578125 -5.832031 1.921875 -5.953125 2.328125 -5.953125 Z M 2.328125 -5.28125 C 2.015625 -5.28125 1.769531 -5.128906 1.59375 -4.828125 C 1.425781 -4.535156 1.328125 -4.070312 1.296875 -3.4375 L 3.3125 -3.4375 C 3.3125 -3.769531 3.273438 -4.078125 3.203125 -4.359375 C 3.140625 -4.640625 3.035156 -4.863281 2.890625 -5.03125 C 2.742188 -5.195312 2.554688 -5.28125 2.328125 -5.28125 Z M 2.328125 -5.28125 "/></g></g></g><g fill="#2d6d5e" fill-opacity="1"><g transform="translate(52.619522, 127.782567)"><g><path d="M 2.40625 0.109375 C 1.976562 0.109375 1.617188 0 1.328125 -0.21875 C 1.046875 -0.445312 0.832031 -0.785156 0.6875 -1.234375 C 0.539062 -1.679688 0.46875 -2.234375 0.46875 -2.890625 C 0.46875 -3.535156 0.539062 -4.085938 0.6875 -4.546875 C 0.832031 -5.003906 1.050781 -5.351562 1.34375 -5.59375 C 1.632812 -5.84375 2 -5.96875 2.4375 -5.96875 C 2.65625 -5.96875 2.851562 -5.941406 3.03125 -5.890625 C 3.207031 -5.847656 3.375 -5.785156 3.53125 -5.703125 L 3.265625 -5.03125 C 3.140625 -5.09375 3.007812 -5.140625 2.875 -5.171875 C 2.75 -5.210938 2.625 -5.234375 2.5 -5.234375 C 2.238281 -5.234375 2.019531 -5.144531 1.84375 -4.96875 C 1.675781 -4.789062 1.546875 -4.53125 1.453125 -4.1875 C 1.359375 -3.84375 1.3125 -3.414062 1.3125 -2.90625 C 1.3125 -2.394531 1.351562 -1.96875 1.4375 -1.625 C 1.53125 -1.289062 1.664062 -1.035156 1.84375 -0.859375 C 2.019531 -0.691406 2.238281 -0.609375 2.5 -0.609375 C 2.65625 -0.609375 2.8125 -0.628906 2.96875 -0.671875 C 3.132812 -0.722656 3.300781 -0.789062 3.46875 -0.875 L 3.46875 -0.1875 C 3.3125 -0.09375 3.132812 -0.0195312 2.9375 0.03125 C 2.75 0.0820312 2.570312 0.109375 2.40625 0.109375 Z M 2.40625 0.109375 "/></g></g></g><g fill="#2d6d5e" fill-opacity="1"><g transform="translate(57.908107, 127.782567)"><g><path d="M 4.359375 -2.9375 C 4.359375 -2.476562 4.316406 -2.0625 4.234375 -1.6875 C 4.160156 -1.3125 4.039062 -0.988281 3.875 -0.71875 C 3.71875 -0.457031 3.515625 -0.253906 3.265625 -0.109375 C 3.023438 0.0351562 2.734375 0.109375 2.390625 0.109375 C 2.078125 0.109375 1.796875 0.0351562 1.546875 -0.109375 C 1.304688 -0.253906 1.101562 -0.457031 0.9375 -0.71875 C 0.78125 -0.976562 0.660156 -1.296875 0.578125 -1.671875 C 0.503906 -2.054688 0.46875 -2.476562 0.46875 -2.9375 C 0.46875 -3.582031 0.535156 -4.128906 0.671875 -4.578125 C 0.804688 -5.035156 1.019531 -5.378906 1.3125 -5.609375 C 1.601562 -5.847656 1.96875 -5.96875 2.40625 -5.96875 C 2.820312 -5.96875 3.175781 -5.851562 3.46875 -5.625 C 3.757812 -5.394531 3.976562 -5.054688 4.125 -4.609375 C 4.28125 -4.160156 4.359375 -3.601562 4.359375 -2.9375 Z M 1.296875 -2.9375 C 1.296875 -2.425781 1.332031 -2 1.40625 -1.65625 C 1.488281 -1.3125 1.613281 -1.050781 1.78125 -0.875 C 1.945312 -0.695312 2.160156 -0.609375 2.421875 -0.609375 C 2.671875 -0.609375 2.875 -0.691406 3.03125 -0.859375 C 3.195312 -1.035156 3.316406 -1.296875 3.390625 -1.640625 C 3.472656 -1.984375 3.515625 -2.414062 3.515625 -2.9375 C 3.515625 -3.445312 3.472656 -3.875 3.390625 -4.21875 C 3.316406 -4.5625 3.195312 -4.816406 3.03125 -4.984375 C 2.875 -5.160156 2.664062 -5.25 2.40625 -5.25 C 2.019531 -5.25 1.738281 -5.054688 1.5625 -4.671875 C 1.382812 -4.285156 1.296875 -3.707031 1.296875 -2.9375 Z M 1.296875 -2.9375 "/></g></g></g><g fill="#2d6d5e" fill-opacity="1"><g transform="translate(64.259835, 127.782567)"><g><path d="M 1.515625 0 L 0.046875 -5.859375 L 0.890625 -5.859375 L 1.6875 -2.296875 C 1.738281 -2.085938 1.785156 -1.867188 1.828125 -1.640625 C 1.867188 -1.421875 1.90625 -1.1875 1.9375 -0.9375 L 1.984375 -0.9375 C 2.003906 -1.082031 2.03125 -1.25 2.0625 -1.4375 C 2.101562 -1.632812 2.148438 -1.851562 2.203125 -2.09375 L 3.078125 -5.859375 L 3.921875 -5.859375 L 2.421875 0 Z M 1.515625 0 "/></g></g></g><g fill="#2d6d5e" fill-opacity="1"><g transform="translate(69.751431, 127.782567)"><g><path d="M 2.328125 -5.953125 C 2.722656 -5.953125 3.050781 -5.835938 3.3125 -5.609375 C 3.570312 -5.378906 3.765625 -5.066406 3.890625 -4.671875 C 4.015625 -4.285156 4.078125 -3.851562 4.078125 -3.375 L 4.078125 -2.78125 L 1.28125 -2.78125 C 1.289062 -2.050781 1.40625 -1.503906 1.625 -1.140625 C 1.84375 -0.773438 2.171875 -0.59375 2.609375 -0.59375 C 2.828125 -0.59375 3.035156 -0.625 3.234375 -0.6875 C 3.441406 -0.75 3.648438 -0.851562 3.859375 -1 L 3.859375 -0.265625 C 3.660156 -0.140625 3.453125 -0.046875 3.234375 0.015625 C 3.015625 0.078125 2.78125 0.109375 2.53125 0.109375 C 2.039062 0.109375 1.644531 -0.0195312 1.34375 -0.28125 C 1.039062 -0.539062 0.816406 -0.898438 0.671875 -1.359375 C 0.535156 -1.816406 0.46875 -2.332031 0.46875 -2.90625 C 0.46875 -3.550781 0.535156 -4.101562 0.671875 -4.5625 C 0.816406 -5.019531 1.023438 -5.363281 1.296875 -5.59375 C 1.578125 -5.832031 1.921875 -5.953125 2.328125 -5.953125 Z M 2.328125 -5.28125 C 2.015625 -5.28125 1.769531 -5.128906 1.59375 -4.828125 C 1.425781 -4.535156 1.328125 -4.070312 1.296875 -3.4375 L 3.3125 -3.4375 C 3.3125 -3.769531 3.273438 -4.078125 3.203125 -4.359375 C 3.140625 -4.640625 3.035156 -4.863281 2.890625 -5.03125 C 2.742188 -5.195312 2.554688 -5.28125 2.328125 -5.28125 Z M 2.328125 -5.28125 "/></g></g></g><g fill="#2d6d5e" fill-opacity="1"><g transform="translate(75.809326, 127.782567)"><g><path d="M 2.671875 -5.96875 C 2.753906 -5.96875 2.835938 -5.957031 2.921875 -5.9375 C 3.003906 -5.925781 3.085938 -5.910156 3.171875 -5.890625 L 3.046875 -5.046875 C 2.984375 -5.066406 2.914062 -5.082031 2.84375 -5.09375 C 2.769531 -5.101562 2.691406 -5.109375 2.609375 -5.109375 C 2.453125 -5.109375 2.304688 -5.054688 2.171875 -4.953125 C 2.035156 -4.847656 1.921875 -4.703125 1.828125 -4.515625 C 1.734375 -4.328125 1.660156 -4.109375 1.609375 -3.859375 C 1.554688 -3.609375 1.53125 -3.34375 1.53125 -3.0625 L 1.53125 0 L 0.71875 0 L 0.71875 -5.859375 L 1.359375 -5.859375 L 1.46875 -4.828125 L 1.515625 -4.828125 C 1.597656 -5.046875 1.691406 -5.238281 1.796875 -5.40625 C 1.910156 -5.582031 2.039062 -5.71875 2.1875 -5.8125 C 2.332031 -5.914062 2.492188 -5.96875 2.671875 -5.96875 Z M 2.671875 -5.96875 "/></g></g></g><g fill="#2d6d5e" fill-opacity="1"><g transform="translate(80.622434, 127.782567)"><g><path d="M 0.0625 -5.859375 L 0.90625 -5.859375 L 1.734375 -2.4375 C 1.773438 -2.289062 1.804688 -2.144531 1.828125 -2 C 1.859375 -1.851562 1.882812 -1.707031 1.90625 -1.5625 C 1.9375 -1.425781 1.960938 -1.285156 1.984375 -1.140625 L 2.03125 -1.140625 C 2.0625 -1.347656 2.097656 -1.554688 2.140625 -1.765625 C 2.179688 -1.984375 2.226562 -2.207031 2.28125 -2.4375 L 3.09375 -5.859375 L 3.9375 -5.859375 L 2.1875 0.9375 C 2.09375 1.332031 1.972656 1.65625 1.828125 1.90625 C 1.691406 2.15625 1.53125 2.335938 1.34375 2.453125 C 1.15625 2.566406 0.929688 2.625 0.671875 2.625 C 0.585938 2.625 0.503906 2.613281 0.421875 2.59375 C 0.335938 2.582031 0.25 2.5625 0.15625 2.53125 L 0.15625 1.8125 C 0.21875 1.832031 0.285156 1.847656 0.359375 1.859375 C 0.429688 1.878906 0.503906 1.890625 0.578125 1.890625 C 0.710938 1.890625 0.828125 1.851562 0.921875 1.78125 C 1.015625 1.707031 1.097656 1.59375 1.171875 1.4375 C 1.242188 1.28125 1.316406 1.0625 1.390625 0.78125 L 1.609375 -0.046875 Z M 0.0625 -5.859375 "/></g></g></g><g fill="#2d6d5e" fill-opacity="1"><g transform="translate(86.140743, 127.782567)"><g/></g></g><g fill="#2d6d5e" fill-opacity="1"><g transform="translate(89.703722, 127.782567)"><g><path d="M 2.28125 -5.96875 C 2.820312 -5.96875 3.207031 -5.796875 3.4375 -5.453125 C 3.675781 -5.109375 3.796875 -4.609375 3.796875 -3.953125 L 3.796875 0 L 3.171875 0 L 3.046875 -0.828125 L 3.015625 -0.828125 C 2.929688 -0.628906 2.820312 -0.457031 2.6875 -0.3125 C 2.5625 -0.175781 2.414062 -0.0703125 2.25 0 C 2.09375 0.0703125 1.90625 0.109375 1.6875 0.109375 C 1.382812 0.109375 1.132812 0.03125 0.9375 -0.125 C 0.75 -0.289062 0.609375 -0.503906 0.515625 -0.765625 C 0.421875 -1.023438 0.375 -1.304688 0.375 -1.609375 C 0.375 -2.191406 0.539062 -2.640625 0.875 -2.953125 C 1.21875 -3.273438 1.695312 -3.453125 2.3125 -3.484375 L 2.96875 -3.53125 L 2.96875 -3.9375 C 2.96875 -4.40625 2.90625 -4.742188 2.78125 -4.953125 C 2.65625 -5.171875 2.445312 -5.28125 2.15625 -5.28125 C 2 -5.28125 1.828125 -5.25 1.640625 -5.1875 C 1.460938 -5.132812 1.269531 -5.046875 1.0625 -4.921875 L 0.796875 -5.546875 C 1.015625 -5.691406 1.25 -5.796875 1.5 -5.859375 C 1.757812 -5.929688 2.019531 -5.96875 2.28125 -5.96875 Z M 2.984375 -2.921875 L 2.4375 -2.890625 C 2.03125 -2.867188 1.722656 -2.753906 1.515625 -2.546875 C 1.316406 -2.335938 1.21875 -2.035156 1.21875 -1.640625 C 1.21875 -1.265625 1.28125 -0.988281 1.40625 -0.8125 C 1.539062 -0.644531 1.722656 -0.5625 1.953125 -0.5625 C 2.285156 -0.5625 2.539062 -0.71875 2.71875 -1.03125 C 2.894531 -1.34375 2.984375 -1.773438 2.984375 -2.328125 Z M 2.984375 -2.921875 "/></g></g></g><g fill="#2d6d5e" fill-opacity="1"><g transform="translate(95.729562, 127.782567)"><g><path d="M 2.5625 -5.171875 L 1.640625 -5.171875 L 1.640625 0 L 0.8125 0 L 0.8125 -5.171875 L 0.09375 -5.171875 L 0.09375 -5.609375 L 0.8125 -5.890625 L 0.8125 -6.28125 C 0.8125 -6.726562 0.847656 -7.101562 0.921875 -7.40625 C 1.003906 -7.71875 1.140625 -7.957031 1.328125 -8.125 C 1.523438 -8.289062 1.789062 -8.375 2.125 -8.375 C 2.28125 -8.375 2.421875 -8.359375 2.546875 -8.328125 C 2.679688 -8.296875 2.820312 -8.253906 2.96875 -8.203125 L 2.75 -7.53125 C 2.65625 -7.570312 2.5625 -7.597656 2.46875 -7.609375 C 2.382812 -7.628906 2.300781 -7.640625 2.21875 -7.640625 C 2 -7.640625 1.847656 -7.539062 1.765625 -7.34375 C 1.679688 -7.15625 1.640625 -6.8125 1.640625 -6.3125 L 1.640625 -5.859375 L 2.5625 -5.859375 Z M 2.5625 -5.171875 "/></g></g></g><g fill="#2d6d5e" fill-opacity="1"><g transform="translate(99.981715, 127.782567)"><g><path d="M 2.09375 -0.625 C 2.1875 -0.625 2.273438 -0.628906 2.359375 -0.640625 C 2.453125 -0.660156 2.535156 -0.691406 2.609375 -0.734375 L 2.609375 -0.0625 C 2.503906 -0.0078125 2.382812 0.03125 2.25 0.0625 C 2.125 0.09375 1.984375 0.109375 1.828125 0.109375 C 1.578125 0.109375 1.367188 0.0507812 1.203125 -0.0625 C 1.046875 -0.175781 0.925781 -0.34375 0.84375 -0.5625 C 0.769531 -0.789062 0.734375 -1.078125 0.734375 -1.421875 L 0.734375 -5.171875 L 0.1875 -5.171875 L 0.1875 -5.625 L 0.78125 -5.84375 L 1 -7.1875 L 1.5625 -7.1875 L 1.5625 -5.859375 L 2.546875 -5.859375 L 2.546875 -5.171875 L 1.5625 -5.171875 L 1.5625 -1.515625 C 1.5625 -1.210938 1.597656 -0.988281 1.671875 -0.84375 C 1.742188 -0.695312 1.882812 -0.625 2.09375 -0.625 Z M 2.09375 -0.625 "/></g></g></g><g fill="#2d6d5e" fill-opacity="1"><g transform="translate(104.287292, 127.782567)"><g><path d="M 2.328125 -5.953125 C 2.722656 -5.953125 3.050781 -5.835938 3.3125 -5.609375 C 3.570312 -5.378906 3.765625 -5.066406 3.890625 -4.671875 C 4.015625 -4.285156 4.078125 -3.851562 4.078125 -3.375 L 4.078125 -2.78125 L 1.28125 -2.78125 C 1.289062 -2.050781 1.40625 -1.503906 1.625 -1.140625 C 1.84375 -0.773438 2.171875 -0.59375 2.609375 -0.59375 C 2.828125 -0.59375 3.035156 -0.625 3.234375 -0.6875 C 3.441406 -0.75 3.648438 -0.851562 3.859375 -1 L 3.859375 -0.265625 C 3.660156 -0.140625 3.453125 -0.046875 3.234375 0.015625 C 3.015625 0.078125 2.78125 0.109375 2.53125 0.109375 C 2.039062 0.109375 1.644531 -0.0195312 1.34375 -0.28125 C 1.039062 -0.539062 0.816406 -0.898438 0.671875 -1.359375 C 0.535156 -1.816406 0.46875 -2.332031 0.46875 -2.90625 C 0.46875 -3.550781 0.535156 -4.101562 0.671875 -4.5625 C 0.816406 -5.019531 1.023438 -5.363281 1.296875 -5.59375 C 1.578125 -5.832031 1.921875 -5.953125 2.328125 -5.953125 Z M 2.328125 -5.28125 C 2.015625 -5.28125 1.769531 -5.128906 1.59375 -4.828125 C 1.425781 -4.535156 1.328125 -4.070312 1.296875 -3.4375 L 3.3125 -3.4375 C 3.3125 -3.769531 3.273438 -4.078125 3.203125 -4.359375 C 3.140625 -4.640625 3.035156 -4.863281 2.890625 -5.03125 C 2.742188 -5.195312 2.554688 -5.28125 2.328125 -5.28125 Z M 2.328125 -5.28125 "/></g></g></g><g fill="#2d6d5e" fill-opacity="1"><g transform="translate(110.345186, 127.782567)"><g><path d="M 2.671875 -5.96875 C 2.753906 -5.96875 2.835938 -5.957031 2.921875 -5.9375 C 3.003906 -5.925781 3.085938 -5.910156 3.171875 -5.890625 L 3.046875 -5.046875 C 2.984375 -5.066406 2.914062 -5.082031 2.84375 -5.09375 C 2.769531 -5.101562 2.691406 -5.109375 2.609375 -5.109375 C 2.453125 -5.109375 2.304688 -5.054688 2.171875 -4.953125 C 2.035156 -4.847656 1.921875 -4.703125 1.828125 -4.515625 C 1.734375 -4.328125 1.660156 -4.109375 1.609375 -3.859375 C 1.554688 -3.609375 1.53125 -3.34375 1.53125 -3.0625 L 1.53125 0 L 0.71875 0 L 0.71875 -5.859375 L 1.359375 -5.859375 L 1.46875 -4.828125 L 1.515625 -4.828125 C 1.597656 -5.046875 1.691406 -5.238281 1.796875 -5.40625 C 1.910156 -5.582031 2.039062 -5.71875 2.1875 -5.8125 C 2.332031 -5.914062 2.492188 -5.96875 2.671875 -5.96875 Z M 2.671875 -5.96875 "/></g></g></g><g fill="#2d6d5e" fill-opacity="1"><g transform="translate(47.550285, 140.473538)"><g><path d="M 2.09375 -0.625 C 2.1875 -0.625 2.273438 -0.628906 2.359375 -0.640625 C 2.453125 -0.660156 2.535156 -0.691406 2.609375 -0.734375 L 2.609375 -0.0625 C 2.503906 -0.0078125 2.382812 0.03125 2.25 0.0625 C 2.125 0.09375 1.984375 0.109375 1.828125 0.109375 C 1.578125 0.109375 1.367188 0.0507812 1.203125 -0.0625 C 1.046875 -0.175781 0.925781 -0.34375 0.84375 -0.5625 C 0.769531 -0.789062 0.734375 -1.078125 0.734375 -1.421875 L 0.734375 -5.171875 L 0.1875 -5.171875 L 0.1875 -5.625 L 0.78125 -5.84375 L 1 -7.1875 L 1.5625 -7.1875 L 1.5625 -5.859375 L 2.546875 -5.859375 L 2.546875 -5.171875 L 1.5625 -5.171875 L 1.5625 -1.515625 C 1.5625 -1.210938 1.597656 -0.988281 1.671875 -0.84375 C 1.742188 -0.695312 1.882812 -0.625 2.09375 -0.625 Z M 2.09375 -0.625 "/></g></g></g><g fill="#2d6d5e" fill-opacity="1"><g transform="translate(51.855862, 140.473538)"><g><path d="M 2.671875 -5.96875 C 2.753906 -5.96875 2.835938 -5.957031 2.921875 -5.9375 C 3.003906 -5.925781 3.085938 -5.910156 3.171875 -5.890625 L 3.046875 -5.046875 C 2.984375 -5.066406 2.914062 -5.082031 2.84375 -5.09375 C 2.769531 -5.101562 2.691406 -5.109375 2.609375 -5.109375 C 2.453125 -5.109375 2.304688 -5.054688 2.171875 -4.953125 C 2.035156 -4.847656 1.921875 -4.703125 1.828125 -4.515625 C 1.734375 -4.328125 1.660156 -4.109375 1.609375 -3.859375 C 1.554688 -3.609375 1.53125 -3.34375 1.53125 -3.0625 L 1.53125 0 L 0.71875 0 L 0.71875 -5.859375 L 1.359375 -5.859375 L 1.46875 -4.828125 L 1.515625 -4.828125 C 1.597656 -5.046875 1.691406 -5.238281 1.796875 -5.40625 C 1.910156 -5.582031 2.039062 -5.71875 2.1875 -5.8125 C 2.332031 -5.914062 2.492188 -5.96875 2.671875 -5.96875 Z M 2.671875 -5.96875 "/></g></g></g><g fill="#2d6d5e" fill-opacity="1"><g transform="translate(56.66897, 140.473538)"><g><path d="M 2.28125 -5.96875 C 2.820312 -5.96875 3.207031 -5.796875 3.4375 -5.453125 C 3.675781 -5.109375 3.796875 -4.609375 3.796875 -3.953125 L 3.796875 0 L 3.171875 0 L 3.046875 -0.828125 L 3.015625 -0.828125 C 2.929688 -0.628906 2.820312 -0.457031 2.6875 -0.3125 C 2.5625 -0.175781 2.414062 -0.0703125 2.25 0 C 2.09375 0.0703125 1.90625 0.109375 1.6875 0.109375 C 1.382812 0.109375 1.132812 0.03125 0.9375 -0.125 C 0.75 -0.289062 0.609375 -0.503906 0.515625 -0.765625 C 0.421875 -1.023438 0.375 -1.304688 0.375 -1.609375 C 0.375 -2.191406 0.539062 -2.640625 0.875 -2.953125 C 1.21875 -3.273438 1.695312 -3.453125 2.3125 -3.484375 L 2.96875 -3.53125 L 2.96875 -3.9375 C 2.96875 -4.40625 2.90625 -4.742188 2.78125 -4.953125 C 2.65625 -5.171875 2.445312 -5.28125 2.15625 -5.28125 C 2 -5.28125 1.828125 -5.25 1.640625 -5.1875 C 1.460938 -5.132812 1.269531 -5.046875 1.0625 -4.921875 L 0.796875 -5.546875 C 1.015625 -5.691406 1.25 -5.796875 1.5 -5.859375 C 1.757812 -5.929688 2.019531 -5.96875 2.28125 -5.96875 Z M 2.984375 -2.921875 L 2.4375 -2.890625 C 2.03125 -2.867188 1.722656 -2.753906 1.515625 -2.546875 C 1.316406 -2.335938 1.21875 -2.035156 1.21875 -1.640625 C 1.21875 -1.265625 1.28125 -0.988281 1.40625 -0.8125 C 1.539062 -0.644531 1.722656 -0.5625 1.953125 -0.5625 C 2.285156 -0.5625 2.539062 -0.71875 2.71875 -1.03125 C 2.894531 -1.34375 2.984375 -1.773438 2.984375 -2.328125 Z M 2.984375 -2.921875 "/></g></g></g><g fill="#2d6d5e" fill-opacity="1"><g transform="translate(62.69481, 140.473538)"><g><path d="M 1.546875 -5.859375 L 1.546875 0 L 0.71875 0 L 0.71875 -5.859375 Z M 1.140625 -8.0625 C 1.316406 -8.0625 1.441406 -8.007812 1.515625 -7.90625 C 1.585938 -7.800781 1.625 -7.648438 1.625 -7.453125 C 1.625 -7.273438 1.582031 -7.128906 1.5 -7.015625 C 1.425781 -6.910156 1.304688 -6.859375 1.140625 -6.859375 C 0.992188 -6.859375 0.875 -6.910156 0.78125 -7.015625 C 0.695312 -7.128906 0.65625 -7.273438 0.65625 -7.453125 C 0.65625 -7.648438 0.695312 -7.800781 0.78125 -7.90625 C 0.863281 -8.007812 0.984375 -8.0625 1.140625 -8.0625 Z M 1.140625 -8.0625 "/></g></g></g><g fill="#2d6d5e" fill-opacity="1"><g transform="translate(66.492857, 140.473538)"><g><path d="M 2.828125 -5.96875 C 3.285156 -5.96875 3.632812 -5.804688 3.875 -5.484375 C 4.113281 -5.160156 4.234375 -4.664062 4.234375 -4 L 4.234375 0 L 3.40625 0 L 3.40625 -3.828125 C 3.40625 -4.304688 3.34375 -4.660156 3.21875 -4.890625 C 3.101562 -5.128906 2.914062 -5.25 2.65625 -5.25 C 2.269531 -5.25 1.984375 -5.078125 1.796875 -4.734375 C 1.617188 -4.390625 1.53125 -3.84375 1.53125 -3.09375 L 1.53125 0 L 0.71875 0 L 0.71875 -5.859375 L 1.375 -5.859375 L 1.46875 -5.015625 L 1.515625 -5.015625 C 1.597656 -5.210938 1.703125 -5.378906 1.828125 -5.515625 C 1.960938 -5.660156 2.113281 -5.769531 2.28125 -5.84375 C 2.445312 -5.925781 2.628906 -5.96875 2.828125 -5.96875 Z M 2.828125 -5.96875 "/></g></g></g><g fill="#2d6d5e" fill-opacity="1"><g transform="translate(72.956775, 140.473538)"><g><path d="M 1.546875 -5.859375 L 1.546875 0 L 0.71875 0 L 0.71875 -5.859375 Z M 1.140625 -8.0625 C 1.316406 -8.0625 1.441406 -8.007812 1.515625 -7.90625 C 1.585938 -7.800781 1.625 -7.648438 1.625 -7.453125 C 1.625 -7.273438 1.582031 -7.128906 1.5 -7.015625 C 1.425781 -6.910156 1.304688 -6.859375 1.140625 -6.859375 C 0.992188 -6.859375 0.875 -6.910156 0.78125 -7.015625 C 0.695312 -7.128906 0.65625 -7.273438 0.65625 -7.453125 C 0.65625 -7.648438 0.695312 -7.800781 0.78125 -7.90625 C 0.863281 -8.007812 0.984375 -8.0625 1.140625 -8.0625 Z M 1.140625 -8.0625 "/></g></g></g><g fill="#2d6d5e" fill-opacity="1"><g transform="translate(76.754822, 140.473538)"><g><path d="M 2.828125 -5.96875 C 3.285156 -5.96875 3.632812 -5.804688 3.875 -5.484375 C 4.113281 -5.160156 4.234375 -4.664062 4.234375 -4 L 4.234375 0 L 3.40625 0 L 3.40625 -3.828125 C 3.40625 -4.304688 3.34375 -4.660156 3.21875 -4.890625 C 3.101562 -5.128906 2.914062 -5.25 2.65625 -5.25 C 2.269531 -5.25 1.984375 -5.078125 1.796875 -4.734375 C 1.617188 -4.390625 1.53125 -3.84375 1.53125 -3.09375 L 1.53125 0 L 0.71875 0 L 0.71875 -5.859375 L 1.375 -5.859375 L 1.46875 -5.015625 L 1.515625 -5.015625 C 1.597656 -5.210938 1.703125 -5.378906 1.828125 -5.515625 C 1.960938 -5.660156 2.113281 -5.769531 2.28125 -5.84375 C 2.445312 -5.925781 2.628906 -5.96875 2.828125 -5.96875 Z M 2.828125 -5.96875 "/></g></g></g><g fill="#2d6d5e" fill-opacity="1"><g transform="translate(83.218741, 140.473538)"><g><path d="M 1.875 2.625 C 1.3125 2.625 0.867188 2.476562 0.546875 2.1875 C 0.234375 1.90625 0.078125 1.507812 0.078125 1 C 0.078125 0.601562 0.171875 0.273438 0.359375 0.015625 C 0.554688 -0.242188 0.804688 -0.414062 1.109375 -0.5 C 0.953125 -0.570312 0.828125 -0.675781 0.734375 -0.8125 C 0.640625 -0.957031 0.59375 -1.128906 0.59375 -1.328125 C 0.59375 -1.523438 0.640625 -1.703125 0.734375 -1.859375 C 0.828125 -2.023438 0.960938 -2.1875 1.140625 -2.34375 C 0.910156 -2.476562 0.726562 -2.691406 0.59375 -2.984375 C 0.46875 -3.285156 0.40625 -3.628906 0.40625 -4.015625 C 0.40625 -4.421875 0.46875 -4.765625 0.59375 -5.046875 C 0.726562 -5.335938 0.914062 -5.5625 1.15625 -5.71875 C 1.40625 -5.882812 1.703125 -5.96875 2.046875 -5.96875 C 2.148438 -5.96875 2.242188 -5.960938 2.328125 -5.953125 C 2.410156 -5.941406 2.484375 -5.925781 2.546875 -5.90625 C 2.609375 -5.894531 2.664062 -5.875 2.71875 -5.84375 L 4.171875 -5.84375 L 4.171875 -5.3125 L 3.375 -5.21875 C 3.476562 -5.0625 3.550781 -4.878906 3.59375 -4.671875 C 3.644531 -4.472656 3.671875 -4.265625 3.671875 -4.046875 C 3.671875 -3.453125 3.523438 -2.984375 3.234375 -2.640625 C 2.953125 -2.296875 2.550781 -2.125 2.03125 -2.125 C 1.875 -2.125 1.75 -2.140625 1.65625 -2.171875 C 1.550781 -2.078125 1.460938 -1.972656 1.390625 -1.859375 C 1.316406 -1.742188 1.28125 -1.601562 1.28125 -1.4375 C 1.28125 -1.332031 1.304688 -1.238281 1.359375 -1.15625 C 1.410156 -1.082031 1.476562 -1.023438 1.5625 -0.984375 C 1.65625 -0.941406 1.769531 -0.921875 1.90625 -0.921875 L 2.75 -0.921875 C 3.1875 -0.921875 3.523438 -0.796875 3.765625 -0.546875 C 4.003906 -0.296875 4.125 0.0859375 4.125 0.609375 C 4.125 1.242188 3.929688 1.738281 3.546875 2.09375 C 3.160156 2.445312 2.601562 2.625 1.875 2.625 Z M 1.9375 1.96875 C 2.25 1.96875 2.507812 1.921875 2.71875 1.828125 C 2.925781 1.734375 3.082031 1.585938 3.1875 1.390625 C 3.289062 1.203125 3.34375 0.96875 3.34375 0.6875 C 3.34375 0.457031 3.304688 0.28125 3.234375 0.15625 C 3.160156 0.03125 3.054688 -0.0507812 2.921875 -0.09375 C 2.785156 -0.144531 2.625 -0.171875 2.4375 -0.171875 L 1.734375 -0.171875 C 1.566406 -0.171875 1.414062 -0.132812 1.28125 -0.0625 C 1.15625 0.0078125 1.050781 0.125 0.96875 0.28125 C 0.894531 0.445312 0.859375 0.660156 0.859375 0.921875 C 0.859375 1.273438 0.953125 1.535156 1.140625 1.703125 C 1.335938 1.878906 1.601562 1.96875 1.9375 1.96875 Z M 2.046875 -2.734375 C 2.296875 -2.734375 2.488281 -2.84375 2.625 -3.0625 C 2.769531 -3.28125 2.84375 -3.601562 2.84375 -4.03125 C 2.84375 -4.476562 2.769531 -4.8125 2.625 -5.03125 C 2.476562 -5.257812 2.28125 -5.375 2.03125 -5.375 C 1.78125 -5.375 1.582031 -5.253906 1.4375 -5.015625 C 1.300781 -4.773438 1.234375 -4.441406 1.234375 -4.015625 C 1.234375 -3.609375 1.300781 -3.289062 1.4375 -3.0625 C 1.570312 -2.84375 1.773438 -2.734375 2.046875 -2.734375 Z M 2.046875 -2.734375 "/></g></g></g><g fill="#0661aa" fill-opacity="1"><g transform="translate(49.78569, 73.214713)"><g><path d="M 2.34375 0.171875 C 1.945312 0.171875 1.585938 0.0976562 1.265625 -0.046875 C 0.953125 -0.191406 0.703125 -0.394531 0.515625 -0.65625 C 0.328125 -0.925781 0.222656 -1.238281 0.203125 -1.59375 L 0.953125 -1.765625 C 0.960938 -1.378906 1.097656 -1.070312 1.359375 -0.84375 C 1.628906 -0.625 1.960938 -0.515625 2.359375 -0.515625 C 2.691406 -0.515625 2.972656 -0.585938 3.203125 -0.734375 C 3.441406 -0.890625 3.5625 -1.085938 3.5625 -1.328125 C 3.550781 -1.515625 3.460938 -1.671875 3.296875 -1.796875 C 3.140625 -1.921875 2.882812 -2.035156 2.53125 -2.140625 L 1.8125 -2.34375 C 1.34375 -2.46875 1.003906 -2.640625 0.796875 -2.859375 C 0.585938 -3.085938 0.484375 -3.375 0.484375 -3.71875 C 0.484375 -4.007812 0.554688 -4.265625 0.703125 -4.484375 C 0.847656 -4.703125 1.046875 -4.875 1.296875 -5 C 1.554688 -5.132812 1.84375 -5.203125 2.15625 -5.203125 C 2.644531 -5.203125 3.054688 -5.066406 3.390625 -4.796875 C 3.734375 -4.523438 3.925781 -4.171875 3.96875 -3.734375 L 3.234375 -3.546875 C 3.210938 -3.859375 3.097656 -4.097656 2.890625 -4.265625 C 2.691406 -4.429688 2.445312 -4.515625 2.15625 -4.515625 C 1.875 -4.515625 1.644531 -4.441406 1.46875 -4.296875 C 1.300781 -4.160156 1.21875 -3.984375 1.21875 -3.765625 C 1.21875 -3.585938 1.285156 -3.4375 1.421875 -3.3125 C 1.566406 -3.195312 1.800781 -3.085938 2.125 -2.984375 L 2.84375 -2.78125 C 3.351562 -2.632812 3.722656 -2.453125 3.953125 -2.234375 C 4.179688 -2.015625 4.296875 -1.734375 4.296875 -1.390625 C 4.296875 -1.097656 4.210938 -0.832031 4.046875 -0.59375 C 3.878906 -0.351562 3.644531 -0.164062 3.34375 -0.03125 C 3.050781 0.101562 2.71875 0.171875 2.34375 0.171875 Z M 2.34375 0.171875 "/></g></g></g><g fill="#0661aa" fill-opacity="1"><g transform="translate(55.457551, 73.214713)"><g><path d="M 2.796875 0.171875 C 2.296875 0.171875 1.859375 0.0625 1.484375 -0.15625 C 1.109375 -0.382812 0.816406 -0.703125 0.609375 -1.109375 C 0.398438 -1.523438 0.296875 -2.007812 0.296875 -2.5625 C 0.296875 -3.09375 0.390625 -3.554688 0.578125 -3.953125 C 0.765625 -4.347656 1.03125 -4.65625 1.375 -4.875 C 1.71875 -5.09375 2.117188 -5.203125 2.578125 -5.203125 C 3.023438 -5.203125 3.410156 -5.09375 3.734375 -4.875 C 4.054688 -4.65625 4.304688 -4.347656 4.484375 -3.953125 C 4.671875 -3.554688 4.765625 -3.09375 4.765625 -2.5625 C 4.765625 -2.5 4.765625 -2.441406 4.765625 -2.390625 C 4.765625 -2.335938 4.757812 -2.296875 4.75 -2.265625 L 1.078125 -2.265625 C 1.117188 -1.734375 1.289062 -1.304688 1.59375 -0.984375 C 1.90625 -0.671875 2.300781 -0.515625 2.78125 -0.515625 C 3.132812 -0.515625 3.441406 -0.601562 3.703125 -0.78125 C 3.960938 -0.96875 4.148438 -1.210938 4.265625 -1.515625 L 4.921875 -1.234375 C 4.773438 -0.804688 4.507812 -0.460938 4.125 -0.203125 C 3.75 0.046875 3.304688 0.171875 2.796875 0.171875 Z M 1.078125 -2.921875 L 3.96875 -2.921875 C 3.925781 -3.421875 3.785156 -3.804688 3.546875 -4.078125 C 3.304688 -4.359375 2.984375 -4.5 2.578125 -4.5 C 2.148438 -4.5 1.804688 -4.359375 1.546875 -4.078125 C 1.285156 -3.796875 1.128906 -3.410156 1.078125 -2.921875 Z M 1.078125 -2.921875 "/></g></g></g><g fill="#0661aa" fill-opacity="1"><g transform="translate(61.776142, 73.214713)"><g><path d="M 1.90625 0.15625 C 1.414062 0.15625 1.007812 0.0234375 0.6875 -0.234375 C 0.363281 -0.503906 0.203125 -0.863281 0.203125 -1.3125 C 0.203125 -1.726562 0.363281 -2.082031 0.6875 -2.375 C 1.007812 -2.675781 1.535156 -2.867188 2.265625 -2.953125 L 3.21875 -3.078125 C 3.332031 -3.085938 3.425781 -3.128906 3.5 -3.203125 C 3.582031 -3.285156 3.625 -3.390625 3.625 -3.515625 C 3.625 -3.816406 3.507812 -4.054688 3.28125 -4.234375 C 3.050781 -4.421875 2.753906 -4.515625 2.390625 -4.515625 C 2.117188 -4.515625 1.878906 -4.457031 1.671875 -4.34375 C 1.460938 -4.226562 1.300781 -4.078125 1.1875 -3.890625 C 1.070312 -3.703125 1.007812 -3.503906 1 -3.296875 L 0.3125 -3.578125 C 0.332031 -3.867188 0.429688 -4.132812 0.609375 -4.375 C 0.796875 -4.625 1.046875 -4.820312 1.359375 -4.96875 C 1.671875 -5.125 2.023438 -5.203125 2.421875 -5.203125 C 3.003906 -5.203125 3.472656 -5.035156 3.828125 -4.703125 C 4.179688 -4.378906 4.359375 -3.945312 4.359375 -3.40625 L 4.359375 -0.890625 C 4.359375 -0.660156 4.441406 -0.546875 4.609375 -0.546875 C 4.742188 -0.546875 4.882812 -0.640625 5.03125 -0.828125 L 5.390625 -0.3125 C 5.273438 -0.164062 5.128906 -0.0507812 4.953125 0.03125 C 4.785156 0.113281 4.613281 0.15625 4.4375 0.15625 C 4.195312 0.15625 4.003906 0.0820312 3.859375 -0.0625 C 3.722656 -0.207031 3.640625 -0.382812 3.609375 -0.59375 L 3.59375 -0.765625 L 3.578125 -0.765625 C 3.410156 -0.484375 3.1875 -0.257812 2.90625 -0.09375 C 2.625 0.0703125 2.289062 0.15625 1.90625 0.15625 Z M 2.0625 -0.53125 C 2.363281 -0.53125 2.628906 -0.597656 2.859375 -0.734375 C 3.085938 -0.878906 3.265625 -1.066406 3.390625 -1.296875 C 3.523438 -1.535156 3.59375 -1.8125 3.59375 -2.125 L 3.59375 -2.46875 L 2.359375 -2.3125 C 1.859375 -2.25 1.5 -2.128906 1.28125 -1.953125 C 1.0625 -1.773438 0.953125 -1.570312 0.953125 -1.34375 C 0.953125 -1.09375 1.054688 -0.894531 1.265625 -0.75 C 1.472656 -0.601562 1.738281 -0.53125 2.0625 -0.53125 Z M 2.0625 -0.53125 "/></g></g></g><g fill="#0661aa" fill-opacity="1"><g transform="translate(68.333537, 73.214713)"><g><path d="M 2.40625 0.171875 C 1.96875 0.171875 1.617188 0.0390625 1.359375 -0.21875 C 1.109375 -0.476562 0.984375 -0.828125 0.984375 -1.265625 L 0.96875 -4.40625 L 0 -4.40625 L 0 -5.03125 L 0.96875 -5.03125 L 0.96875 -6.484375 L 1.734375 -6.65625 L 1.734375 -5.03125 L 3.609375 -5.03125 L 3.609375 -4.40625 L 1.734375 -4.40625 L 1.734375 -1.359375 C 1.734375 -1.097656 1.796875 -0.882812 1.921875 -0.71875 C 2.046875 -0.5625 2.222656 -0.484375 2.453125 -0.484375 C 2.660156 -0.484375 2.835938 -0.5625 2.984375 -0.71875 C 3.140625 -0.882812 3.234375 -1.128906 3.265625 -1.453125 L 3.90625 -1.1875 C 3.875 -0.769531 3.710938 -0.4375 3.421875 -0.1875 C 3.140625 0.0507812 2.800781 0.171875 2.40625 0.171875 Z M 2.40625 0.171875 "/></g></g></g><g fill="#0661aa" fill-opacity="1"><g transform="translate(73.438257, 73.214713)"><g><path d="M 2.796875 0.171875 C 2.296875 0.171875 1.859375 0.0625 1.484375 -0.15625 C 1.109375 -0.382812 0.816406 -0.703125 0.609375 -1.109375 C 0.398438 -1.523438 0.296875 -2.007812 0.296875 -2.5625 C 0.296875 -3.09375 0.390625 -3.554688 0.578125 -3.953125 C 0.765625 -4.347656 1.03125 -4.65625 1.375 -4.875 C 1.71875 -5.09375 2.117188 -5.203125 2.578125 -5.203125 C 3.023438 -5.203125 3.410156 -5.09375 3.734375 -4.875 C 4.054688 -4.65625 4.304688 -4.347656 4.484375 -3.953125 C 4.671875 -3.554688 4.765625 -3.09375 4.765625 -2.5625 C 4.765625 -2.5 4.765625 -2.441406 4.765625 -2.390625 C 4.765625 -2.335938 4.757812 -2.296875 4.75 -2.265625 L 1.078125 -2.265625 C 1.117188 -1.734375 1.289062 -1.304688 1.59375 -0.984375 C 1.90625 -0.671875 2.300781 -0.515625 2.78125 -0.515625 C 3.132812 -0.515625 3.441406 -0.601562 3.703125 -0.78125 C 3.960938 -0.96875 4.148438 -1.210938 4.265625 -1.515625 L 4.921875 -1.234375 C 4.773438 -0.804688 4.507812 -0.460938 4.125 -0.203125 C 3.75 0.046875 3.304688 0.171875 2.796875 0.171875 Z M 1.078125 -2.921875 L 3.96875 -2.921875 C 3.925781 -3.421875 3.785156 -3.804688 3.546875 -4.078125 C 3.304688 -4.359375 2.984375 -4.5 2.578125 -4.5 C 2.148438 -4.5 1.804688 -4.359375 1.546875 -4.078125 C 1.285156 -3.796875 1.128906 -3.410156 1.078125 -2.921875 Z M 1.078125 -2.921875 "/></g></g></g><g fill="#0661aa" fill-opacity="1"><g transform="translate(79.756848, 73.214713)"><g><path d="M 2.515625 0.171875 C 2.078125 0.171875 1.691406 0.0625 1.359375 -0.15625 C 1.023438 -0.382812 0.765625 -0.703125 0.578125 -1.109375 C 0.390625 -1.515625 0.296875 -1.984375 0.296875 -2.515625 C 0.296875 -3.046875 0.390625 -3.515625 0.578125 -3.921875 C 0.765625 -4.328125 1.019531 -4.640625 1.34375 -4.859375 C 1.675781 -5.085938 2.066406 -5.203125 2.515625 -5.203125 C 2.878906 -5.203125 3.207031 -5.113281 3.5 -4.9375 C 3.789062 -4.769531 4.019531 -4.53125 4.1875 -4.21875 L 4.203125 -4.21875 L 4.203125 -7.3125 L 4.953125 -7.3125 L 4.953125 0 L 4.296875 0 L 4.21875 -0.84375 L 4.203125 -0.84375 C 4.046875 -0.519531 3.816406 -0.269531 3.515625 -0.09375 C 3.222656 0.0820312 2.890625 0.171875 2.515625 0.171875 Z M 2.640625 -0.546875 C 2.953125 -0.546875 3.226562 -0.628906 3.46875 -0.796875 C 3.707031 -0.960938 3.890625 -1.191406 4.015625 -1.484375 C 4.148438 -1.785156 4.21875 -2.128906 4.21875 -2.515625 C 4.21875 -2.898438 4.148438 -3.238281 4.015625 -3.53125 C 3.890625 -3.832031 3.707031 -4.066406 3.46875 -4.234375 C 3.226562 -4.398438 2.953125 -4.484375 2.640625 -4.484375 C 2.335938 -4.484375 2.0625 -4.398438 1.8125 -4.234375 C 1.570312 -4.066406 1.382812 -3.832031 1.25 -3.53125 C 1.125 -3.238281 1.0625 -2.898438 1.0625 -2.515625 C 1.0625 -2.128906 1.125 -1.785156 1.25 -1.484375 C 1.382812 -1.191406 1.570312 -0.960938 1.8125 -0.796875 C 2.0625 -0.628906 2.335938 -0.546875 2.640625 -0.546875 Z M 2.640625 -0.546875 "/></g></g></g></svg>