<svg xmlns="http://www.w3.org/2000/svg" xmlns:xlink="http://www.w3.org/1999/xlink" width="180" zoomAndPan="magnify" viewBox="0 0 135 119.999999" height="160" preserveAspectRatio="xMidYMid meet" version="1.0"><defs><clipPath id="579f92f09b"><path d="M 12.226562 50 L 34 50 L 34 65 L 12.226562 65 Z M 12.226562 50 " clip-rule="nonzero"/></clipPath></defs><rect x="-13.5" width="162" fill="#ffffff" y="-12" height="143.999998" fill-opacity="1"/><rect x="-13.5" width="162" fill="#ffffff" y="-12" height="143.999998" fill-opacity="1"/><path fill="#0661aa" d="M 110.957031 58.367188 C 119.757812 47.703125 122.652344 33.632812 118.695312 20.726562 L 118.515625 20.144531 C 114.976562 8.984375 104.054688 4.421875 95.515625 2.558594 C 84.394531 0.128906 72.84375 1.148438 65.742188 2.914062 C 49.246094 7.015625 47.320312 26.257812 47.121094 32.058594 C 46.921875 37.972656 40.5625 42.605469 37.941406 43.542969 C 35.160156 44.535156 34.753906 46.964844 34.9375 48.136719 C 34.964844 48.292969 35.257812 49.703125 36.867188 50.804688 C 38.230469 51.738281 38.894531 53.113281 38.828125 53.933594 C 38.796875 54.300781 38.636719 54.378906 38.558594 54.414062 C 37.507812 54.90625 37.109375 55.59375 36.960938 56.082031 C 36.675781 57.015625 37.089844 57.773438 37.242188 58.019531 L 38.949219 60.253906 C 37.394531 61.589844 37.335938 63.667969 37.332031 63.773438 C 37.324219 64.207031 37.585938 64.605469 37.988281 64.773438 C 38.09375 64.816406 40.621094 65.898438 40.265625 67.695312 C 39.226562 70.449219 39.371094 72.753906 40.695312 74.546875 C 43.738281 78.65625 51.980469 78.179688 52.210938 78.15625 C 69.496094 78.992188 73.335938 118.574219 73.371094 118.976562 C 73.421875 119.527344 73.882812 119.9375 74.425781 119.9375 C 74.457031 119.9375 74.492188 119.9375 74.523438 119.933594 C 75.109375 119.882812 75.535156 119.367188 75.484375 118.78125 C 75.34375 117.238281 72.144531 84.332031 57.328125 77.332031 C 75.289062 73.699219 75.554688 68.9375 75.484375 67.949219 C 75.445312 67.367188 74.960938 66.859375 74.351562 66.921875 C 73.769531 66.960938 73.328125 67.425781 73.367188 68.011719 C 73.363281 68.054688 72.511719 72.269531 54.675781 75.601562 C 52.230469 76.058594 49.703125 76.167969 47.257812 75.699219 C 45.308594 75.324219 43.375 74.605469 42.398438 73.28125 C 41.519531 72.089844 41.46875 70.507812 42.296875 68.285156 C 42.808594 65.800781 41.015625 64.042969 39.558594 63.191406 C 39.703125 62.636719 40.054688 61.867188 40.90625 61.515625 C 41.210938 61.386719 41.4375 61.128906 41.523438 60.808594 C 41.609375 60.492188 41.542969 60.152344 41.34375 59.890625 L 38.992188 56.695312 C 39.019531 56.617188 39.160156 56.476562 39.460938 56.335938 C 40.320312 55.929688 40.859375 55.117188 40.941406 54.105469 C 41.082031 52.359375 39.929688 50.328125 38.066406 49.054688 C 37.214844 48.472656 37.035156 47.800781 37.03125 47.800781 C 36.996094 47.53125 36.917969 46.160156 38.65625 45.539062 C 41.285156 44.601562 48.992188 39.476562 49.242188 32.132812 C 49.480469 25.179688 51.609375 8.613281 66.253906 4.976562 C 80.871094 1.339844 110.613281 2.25 116.496094 20.789062 L 116.667969 21.347656 C 120.414062 33.570312 117.667969 46.90625 109.320312 57.015625 L 104.710938 62.597656 C 96.117188 73.003906 95.019531 87.363281 101.984375 98.332031 C 103.222656 100.28125 104.707031 102.191406 106.394531 104.007812 C 106.796875 104.4375 107.464844 104.460938 107.894531 104.0625 C 108.324219 103.660156 108.347656 102.992188 107.949219 102.5625 C 106.347656 100.84375 104.945312 99.035156 103.773438 97.191406 C 97.304688 87.003906 98.339844 73.644531 106.347656 63.949219 Z M 110.957031 58.367188 " fill-opacity="1" fill-rule="nonzero"/><path fill="#0661aa" d="M 58.695312 36.722656 C 54.734375 38.902344 51.625 37.816406 51.488281 37.765625 C 50.945312 37.5625 50.335938 37.839844 50.128906 38.386719 C 49.921875 38.933594 50.199219 39.546875 50.746094 39.753906 C 50.832031 39.789062 51.953125 40.195312 53.699219 40.195312 C 55.292969 40.195312 57.402344 39.855469 59.71875 38.582031 C 60.230469 38.296875 60.417969 37.652344 60.132812 37.140625 C 59.851562 36.625 59.207031 36.4375 58.695312 36.722656 Z M 58.695312 36.722656 " fill-opacity="1" fill-rule="nonzero"/><path fill="#0661aa" d="M 64.132812 32.417969 C 64.339844 32.710938 64.667969 32.863281 65 32.863281 C 65.210938 32.863281 65.425781 32.800781 65.613281 32.667969 C 66.089844 32.328125 66.199219 31.667969 65.863281 31.1875 C 62.285156 26.167969 54.804688 27.070312 54.492188 27.105469 C 53.910156 27.183594 53.5 27.714844 53.574219 28.296875 C 53.652344 28.875 54.167969 29.289062 54.761719 29.210938 C 54.824219 29.199219 61.285156 28.421875 64.132812 32.417969 Z M 64.132812 32.417969 " fill-opacity="1" fill-rule="nonzero"/><g clip-path="url(#579f92f09b)"><path fill="#0661aa" d="M 21.523438 63.050781 L 32.917969 52.808594 C 33.355469 52.417969 33.390625 51.746094 33 51.3125 C 32.605469 50.871094 31.933594 50.839844 31.5 51.230469 L 20.105469 61.46875 C 18.808594 62.632812 16.839844 62.652344 15.519531 61.515625 C 14.800781 60.894531 14.386719 60.03125 14.347656 59.089844 C 14.3125 58.148438 14.660156 57.257812 15.332031 56.585938 L 15.976562 55.933594 C 16.390625 55.519531 16.386719 54.847656 15.972656 54.433594 C 15.558594 54.019531 14.886719 54.023438 14.472656 54.4375 L 13.828125 55.089844 C 12.738281 56.183594 12.171875 57.632812 12.230469 59.171875 C 12.289062 60.6875 12.980469 62.125 14.136719 63.121094 C 15.183594 64.027344 16.484375 64.476562 17.789062 64.476562 C 19.128906 64.476562 20.46875 64 21.523438 63.050781 Z M 21.523438 63.050781 " fill-opacity="1" fill-rule="nonzero"/></g><path fill="#0661aa" d="M 17.390625 71.867188 L 14.480469 74.605469 C 14.054688 75.003906 14.03125 75.675781 14.433594 76.105469 C 14.640625 76.328125 14.925781 76.4375 15.207031 76.4375 C 15.46875 76.4375 15.730469 76.34375 15.933594 76.152344 L 18.84375 73.414062 C 19.269531 73.011719 19.292969 72.339844 18.890625 71.914062 C 18.492188 71.484375 17.816406 71.464844 17.390625 71.867188 Z M 17.390625 71.867188 " fill-opacity="1" fill-rule="nonzero"/><path fill="#0661aa" d="M 32.714844 57.828125 L 20.738281 68.789062 C 20.304688 69.183594 20.273438 69.855469 20.671875 70.285156 C 20.878906 70.515625 21.167969 70.632812 21.453125 70.632812 C 21.707031 70.632812 21.964844 70.539062 22.167969 70.351562 L 34.144531 59.390625 C 34.578125 58.996094 34.605469 58.328125 34.210938 57.894531 C 33.816406 57.460938 33.144531 57.433594 32.714844 57.828125 Z M 32.714844 57.828125 " fill-opacity="1" fill-rule="nonzero"/><path fill="#0661aa" d="M 18.34375 53.441406 C 18.585938 53.441406 18.832031 53.359375 19.03125 53.1875 L 20.726562 51.742188 C 21.171875 51.363281 21.226562 50.695312 20.84375 50.25 C 20.46875 49.800781 19.792969 49.746094 19.351562 50.128906 L 17.65625 51.574219 C 17.210938 51.953125 17.15625 52.621094 17.539062 53.066406 C 17.746094 53.3125 18.042969 53.441406 18.34375 53.441406 Z M 18.34375 53.441406 " fill-opacity="1" fill-rule="nonzero"/></svg>