<svg xmlns="http://www.w3.org/2000/svg" xmlns:xlink="http://www.w3.org/1999/xlink" width="180" zoomAndPan="magnify" viewBox="0 0 135.12 149.999995" height="215" preserveAspectRatio="xMidYMid meet" version="1.2"><defs><clipPath id="366ef6772d"><path d="M 49.019531 11.835938 L 84.785156 11.835938 L 84.785156 66.976562 L 49.019531 66.976562 Z M 49.019531 11.835938 "/></clipPath></defs><g id="99f6b825da"><g clip-rule="nonzero" clip-path="url(#366ef6772d)"><path style=" stroke:none;fill-rule:nonzero;fill:#0661aa;fill-opacity:1;" d="M 82.835938 43.40625 C 82.457031 44.035156 81.789062 44.410156 81.054688 44.410156 C 80.675781 44.410156 80.304688 44.304688 79.980469 44.105469 L 72.296875 39.457031 C 72.007812 39.28125 71.765625 39.035156 71.589844 38.742188 L 68.8125 34.089844 C 68.644531 33.808594 68.277344 33.714844 67.996094 33.882812 C 67.710938 34.050781 67.621094 34.417969 67.789062 34.699219 L 70.449219 39.15625 L 70.449219 43.238281 C 70.449219 45.566406 69.683594 47.882812 68.296875 49.753906 L 63.789062 55.835938 L 57.367188 64.085938 C 56.890625 64.695312 56.171875 65.046875 55.398438 65.046875 C 54.8125 65.046875 54.238281 64.835938 53.789062 64.457031 C 52.785156 63.605469 52.660156 62.023438 53.5 60.941406 L 59.277344 53.90625 C 59.308594 53.867188 59.335938 53.824219 59.359375 53.777344 L 62.425781 47.109375 C 62.460938 47.03125 62.476562 46.945312 62.476562 46.859375 L 62.476562 30.554688 C 62.476562 28.390625 64.136719 26.613281 66.246094 26.414062 C 66.390625 26.421875 66.535156 26.429688 66.683594 26.429688 C 66.828125 26.429688 66.96875 26.421875 67.109375 26.414062 C 68.273438 26.523438 69.339844 27.117188 70.042969 28.039062 L 74.820312 36.039062 C 74.867188 36.125 74.9375 36.195312 75.023438 36.246094 L 82.132812 40.550781 C 83.113281 41.144531 83.429688 42.425781 82.835938 43.40625 Z M 76.910156 52.351562 L 78.765625 61.933594 C 79.03125 63.253906 78.289062 64.574219 77.074219 64.9375 C 76.835938 65.011719 76.589844 65.046875 76.347656 65.046875 C 75.167969 65.046875 74.140625 64.207031 73.910156 63.054688 L 72.074219 53.535156 C 72.066406 53.480469 72.046875 53.429688 72.023438 53.378906 L 69.992188 49.339844 C 71.0625 47.496094 71.640625 45.375 71.640625 43.238281 L 71.640625 41.855469 L 76.183594 50.3125 C 76.527344 50.953125 76.769531 51.640625 76.910156 52.351562 Z M 58.9375 34.464844 C 58.835938 34.511719 58.75 34.589844 58.6875 34.6875 L 54.179688 42.070312 C 53.75 42.773438 52.945312 43.15625 52.121094 43.042969 C 51.835938 43.003906 51.566406 42.910156 51.320312 42.757812 C 50.847656 42.46875 50.515625 42.011719 50.382812 41.472656 C 50.253906 40.933594 50.34375 40.375 50.632812 39.898438 L 55.546875 31.851562 C 55.753906 31.515625 56.054688 31.246094 56.410156 31.070312 L 61.703125 28.480469 C 61.433594 29.121094 61.285156 29.820312 61.285156 30.554688 L 61.285156 33.3125 Z M 60.578125 19.132812 C 60.578125 15.765625 63.316406 13.03125 66.683594 13.03125 C 70.050781 13.03125 72.789062 15.765625 72.789062 19.132812 C 72.789062 22.347656 70.289062 24.988281 67.128906 25.21875 C 66.996094 25.210938 66.863281 25.203125 66.730469 25.203125 L 66.636719 25.203125 C 66.503906 25.203125 66.375 25.210938 66.246094 25.21875 C 63.085938 24.992188 60.578125 22.351562 60.578125 19.132812 Z M 82.75 39.53125 L 75.765625 35.300781 L 71.578125 28.285156 C 71.414062 27.933594 71.210938 27.605469 70.980469 27.304688 C 70.972656 27.296875 70.96875 27.289062 70.960938 27.28125 C 70.527344 26.722656 69.988281 26.257812 69.378906 25.910156 C 72.070312 24.835938 73.980469 22.203125 73.980469 19.132812 C 73.980469 15.109375 70.707031 11.835938 66.683594 11.835938 C 62.660156 11.835938 59.386719 15.109375 59.386719 19.132812 C 59.386719 22.203125 61.296875 24.835938 63.984375 25.910156 C 63.746094 26.046875 63.515625 26.203125 63.300781 26.375 L 55.886719 30 C 55.324219 30.273438 54.855469 30.699219 54.53125 31.234375 L 49.613281 39.277344 C 49.160156 40.023438 49.019531 40.902344 49.226562 41.75 C 49.429688 42.601562 49.953125 43.320312 50.699219 43.773438 C 51.085938 44.011719 51.511719 44.164062 51.957031 44.226562 C 52.109375 44.246094 52.257812 44.253906 52.40625 44.253906 C 53.535156 44.253906 54.597656 43.671875 55.195312 42.691406 L 59.617188 35.457031 L 61.285156 34.640625 L 61.285156 46.730469 L 58.308594 53.210938 L 52.570312 60.195312 C 51.332031 61.789062 51.53125 64.109375 53.019531 65.367188 C 53.683594 65.929688 54.53125 66.238281 55.398438 66.238281 C 56.542969 66.238281 57.601562 65.71875 58.304688 64.816406 L 64.738281 56.554688 L 69.234375 50.488281 L 70.921875 53.839844 L 72.738281 63.285156 C 73.085938 64.996094 74.601562 66.238281 76.347656 66.238281 C 76.707031 66.238281 77.070312 66.183594 77.417969 66.082031 C 79.214844 65.539062 80.320312 63.613281 79.933594 61.703125 L 78.078125 52.125 C 77.917969 51.292969 77.632812 50.496094 77.234375 49.75 L 72.527344 40.988281 L 79.363281 45.128906 C 79.875 45.4375 80.460938 45.601562 81.054688 45.601562 C 82.210938 45.601562 83.257812 45.011719 83.855469 44.023438 C 84.789062 42.480469 84.292969 40.464844 82.75 39.53125 "/></g><g style="fill:#0661aa;fill-opacity:1;"><g transform="translate(29.627668, 82.91398)"><path style="stroke:none" d="M 1 0 L 1 -14.140625 L 7.484375 -14.140625 C 8.972656 -14.140625 10.125 -13.8125 10.9375 -13.15625 C 11.75 -12.5 12.15625 -11.5625 12.15625 -10.34375 C 12.15625 -9.550781 11.945312 -8.882812 11.53125 -8.34375 C 11.113281 -7.800781 10.523438 -7.4375 9.765625 -7.25 L 9.765625 -7.234375 C 10.628906 -7.054688 11.289062 -6.679688 11.75 -6.109375 C 12.21875 -5.535156 12.453125 -4.796875 12.453125 -3.890625 C 12.453125 -2.660156 12.035156 -1.703125 11.203125 -1.015625 C 10.367188 -0.335938 9.179688 0 7.640625 0 Z M 4.390625 -8.28125 L 6.9375 -8.28125 C 7.53125 -8.28125 7.988281 -8.429688 8.3125 -8.734375 C 8.632812 -9.035156 8.796875 -9.453125 8.796875 -9.984375 C 8.796875 -10.523438 8.632812 -10.941406 8.3125 -11.234375 C 7.988281 -11.523438 7.535156 -11.671875 6.953125 -11.671875 L 4.390625 -11.671875 Z M 4.390625 -2.46875 L 6.96875 -2.46875 C 7.632812 -2.46875 8.148438 -2.617188 8.515625 -2.921875 C 8.878906 -3.234375 9.0625 -3.675781 9.0625 -4.25 C 9.0625 -4.84375 8.878906 -5.300781 8.515625 -5.625 C 8.148438 -5.945312 7.632812 -6.109375 6.96875 -6.109375 L 4.390625 -6.109375 Z M 4.390625 -2.46875 "/></g></g><g style="fill:#0661aa;fill-opacity:1;"><g transform="translate(44.903046, 82.91398)"><path style="stroke:none" d="M 6.234375 -10.453125 C 7.066406 -10.453125 7.734375 -10.140625 8.234375 -9.515625 C 8.742188 -8.890625 9.023438 -8.007812 9.078125 -6.875 L 6.515625 -6.171875 C 6.503906 -6.835938 6.382812 -7.335938 6.15625 -7.671875 C 5.925781 -8.015625 5.628906 -8.1875 5.265625 -8.1875 C 4.816406 -8.1875 4.453125 -7.957031 4.171875 -7.5 C 3.898438 -7.050781 3.765625 -6.429688 3.765625 -5.640625 L 3.765625 0 L 0.75 0 L 0.75 -10.171875 L 3.203125 -10.171875 L 3.609375 -8.421875 L 3.640625 -8.421875 C 3.859375 -9.054688 4.195312 -9.550781 4.65625 -9.90625 C 5.125 -10.269531 5.648438 -10.453125 6.234375 -10.453125 Z M 6.234375 -10.453125 "/></g></g><g style="fill:#0661aa;fill-opacity:1;"><g transform="translate(56.503808, 82.91398)"><path style="stroke:none" d="M 5.9375 0.34375 C 4.84375 0.34375 3.875 0.117188 3.03125 -0.328125 C 2.195312 -0.785156 1.550781 -1.425781 1.09375 -2.25 C 0.644531 -3.082031 0.421875 -4.046875 0.421875 -5.140625 C 0.421875 -6.222656 0.628906 -7.164062 1.046875 -7.96875 C 1.460938 -8.769531 2.046875 -9.394531 2.796875 -9.84375 C 3.554688 -10.300781 4.445312 -10.53125 5.46875 -10.53125 C 6.445312 -10.53125 7.289062 -10.3125 8 -9.875 C 8.71875 -9.445312 9.273438 -8.84375 9.671875 -8.0625 C 10.078125 -7.289062 10.28125 -6.382812 10.28125 -5.34375 C 10.28125 -5.132812 10.269531 -4.929688 10.25 -4.734375 C 10.238281 -4.546875 10.210938 -4.382812 10.171875 -4.25 L 3.453125 -4.25 C 3.523438 -3.507812 3.785156 -2.921875 4.234375 -2.484375 C 4.679688 -2.054688 5.253906 -1.84375 5.953125 -1.84375 C 6.492188 -1.84375 6.972656 -1.972656 7.390625 -2.234375 C 7.804688 -2.503906 8.125 -2.875 8.34375 -3.34375 L 10.46875 -2.40625 C 10.175781 -1.550781 9.613281 -0.878906 8.78125 -0.390625 C 7.945312 0.0976562 7 0.34375 5.9375 0.34375 Z M 3.453125 -5.984375 L 7.265625 -5.984375 C 7.222656 -6.722656 7.039062 -7.296875 6.71875 -7.703125 C 6.40625 -8.117188 5.976562 -8.328125 5.4375 -8.328125 C 4.875 -8.328125 4.421875 -8.113281 4.078125 -7.6875 C 3.734375 -7.269531 3.523438 -6.703125 3.453125 -5.984375 Z M 3.453125 -5.984375 "/></g></g><g style="fill:#0661aa;fill-opacity:1;"><g transform="translate(69.693602, 82.91398)"><path style="stroke:none" d="M 3.515625 0.234375 C 2.546875 0.234375 1.765625 -0.0195312 1.171875 -0.53125 C 0.578125 -1.050781 0.28125 -1.75 0.28125 -2.625 C 0.28125 -3.550781 0.632812 -4.300781 1.34375 -4.875 C 2.050781 -5.445312 3.085938 -5.804688 4.453125 -5.953125 L 6.015625 -6.140625 C 6.242188 -6.160156 6.425781 -6.238281 6.5625 -6.375 C 6.695312 -6.507812 6.765625 -6.703125 6.765625 -6.953125 C 6.765625 -7.398438 6.625 -7.742188 6.34375 -7.984375 C 6.070312 -8.222656 5.710938 -8.34375 5.265625 -8.34375 C 4.742188 -8.34375 4.320312 -8.160156 4 -7.796875 C 3.6875 -7.441406 3.519531 -6.992188 3.5 -6.453125 L 0.609375 -6.875 C 0.640625 -7.582031 0.847656 -8.210938 1.234375 -8.765625 C 1.628906 -9.316406 2.164062 -9.75 2.84375 -10.0625 C 3.53125 -10.375 4.332031 -10.53125 5.25 -10.53125 C 6.632812 -10.53125 7.726562 -10.164062 8.53125 -9.4375 C 9.34375 -8.707031 9.75 -7.71875 9.75 -6.46875 L 9.75 -2.546875 C 9.75 -2.085938 9.914062 -1.859375 10.25 -1.859375 C 10.507812 -1.859375 10.757812 -1.992188 11 -2.265625 L 11.65625 -0.640625 C 11.34375 -0.328125 10.957031 -0.0976562 10.5 0.046875 C 10.050781 0.191406 9.609375 0.265625 9.171875 0.265625 C 8.566406 0.265625 8.054688 0.109375 7.640625 -0.203125 C 7.222656 -0.515625 6.957031 -0.910156 6.84375 -1.390625 L 6.8125 -1.640625 L 6.796875 -1.640625 C 6.484375 -1.066406 6.039062 -0.609375 5.46875 -0.265625 C 4.90625 0.0664062 4.253906 0.234375 3.515625 0.234375 Z M 4.765625 -1.890625 C 5.335938 -1.890625 5.804688 -2.085938 6.171875 -2.484375 C 6.546875 -2.890625 6.734375 -3.421875 6.734375 -4.078125 L 6.734375 -4.546875 L 5.25 -4.390625 C 4.550781 -4.304688 4.050781 -4.140625 3.75 -3.890625 C 3.457031 -3.640625 3.3125 -3.34375 3.3125 -3 C 3.3125 -2.664062 3.445312 -2.394531 3.71875 -2.1875 C 3.988281 -1.988281 4.335938 -1.890625 4.765625 -1.890625 Z M 4.765625 -1.890625 "/></g></g><g style="fill:#0661aa;fill-opacity:1;"><g transform="translate(82.545557, 82.91398)"><path style="stroke:none" d="M 5.4375 0.3125 C 4.269531 0.3125 3.375 -0.00390625 2.75 -0.640625 C 2.125 -1.273438 1.8125 -2.132812 1.8125 -3.21875 L 1.78125 -7.859375 L 0.078125 -7.859375 L 0.078125 -10.171875 L 1.8125 -10.171875 L 1.8125 -12.875 L 4.828125 -13.546875 L 4.828125 -10.171875 L 8.296875 -10.171875 L 8.296875 -7.859375 L 4.828125 -7.859375 L 4.84375 -3.75 C 4.84375 -3.25 4.960938 -2.851562 5.203125 -2.5625 C 5.441406 -2.28125 5.757812 -2.140625 6.15625 -2.140625 C 6.90625 -2.140625 7.457031 -2.554688 7.8125 -3.390625 L 8.796875 -1.546875 C 8.484375 -0.953125 8.03125 -0.492188 7.4375 -0.171875 C 6.84375 0.148438 6.175781 0.3125 5.4375 0.3125 Z M 5.4375 0.3125 "/></g></g><g style="fill:#0661aa;fill-opacity:1;"><g transform="translate(93.828527, 82.91398)"><path style="stroke:none" d="M 0.75 0 L 0.75 -14.734375 L 3.765625 -14.734375 L 3.765625 -8.4375 L 3.796875 -8.4375 C 4.109375 -9.070312 4.539062 -9.5625 5.09375 -9.90625 C 5.644531 -10.25 6.273438 -10.421875 6.984375 -10.421875 C 7.929688 -10.421875 8.664062 -10.144531 9.1875 -9.59375 C 9.707031 -9.039062 9.96875 -8.253906 9.96875 -7.234375 L 9.96875 0 L 6.9375 0 L 6.9375 -6.453125 C 6.9375 -6.929688 6.816406 -7.300781 6.578125 -7.5625 C 6.335938 -7.832031 6.003906 -7.96875 5.578125 -7.96875 C 5.035156 -7.96875 4.597656 -7.789062 4.265625 -7.4375 C 3.929688 -7.082031 3.765625 -6.597656 3.765625 -5.984375 L 3.765625 0 Z M 0.75 0 "/></g></g><g style="fill:#0661aa;fill-opacity:1;"><g transform="translate(15.714376, 106.758685)"><path style="stroke:none" d="M 10.671875 0.34375 C 9.960938 0.34375 9.382812 0.144531 8.9375 -0.25 C 8.5 -0.65625 8.203125 -1.179688 8.046875 -1.828125 L 7.46875 -4.046875 C 7.375 -4.429688 7.195312 -4.75 6.9375 -5 C 6.675781 -5.25 6.367188 -5.375 6.015625 -5.375 L 4.390625 -5.375 L 4.390625 0 L 1 0 L 1 -14.140625 L 7.125 -14.140625 C 8.78125 -14.140625 10.082031 -13.75 11.03125 -12.96875 C 11.988281 -12.1875 12.46875 -11.109375 12.46875 -9.734375 C 12.46875 -8.828125 12.203125 -8.035156 11.671875 -7.359375 C 11.148438 -6.691406 10.414062 -6.238281 9.46875 -6 L 9.46875 -5.984375 C 9.851562 -5.816406 10.140625 -5.585938 10.328125 -5.296875 C 10.523438 -5.003906 10.671875 -4.660156 10.765625 -4.265625 L 11.1875 -2.609375 C 11.289062 -2.128906 11.515625 -1.890625 11.859375 -1.890625 C 12.148438 -1.890625 12.425781 -2.054688 12.6875 -2.390625 L 13.421875 -0.78125 C 13.085938 -0.4375 12.671875 -0.164062 12.171875 0.03125 C 11.679688 0.238281 11.179688 0.34375 10.671875 0.34375 Z M 4.390625 -7.6875 L 6.828125 -7.6875 C 7.503906 -7.6875 8.046875 -7.863281 8.453125 -8.21875 C 8.859375 -8.582031 9.0625 -9.0625 9.0625 -9.65625 C 9.0625 -10.269531 8.859375 -10.753906 8.453125 -11.109375 C 8.046875 -11.460938 7.503906 -11.640625 6.828125 -11.640625 L 4.390625 -11.640625 Z M 4.390625 -7.6875 "/></g></g><g style="fill:#0661aa;fill-opacity:1;"><g transform="translate(31.148604, 106.758685)"><path style="stroke:none" d="M 5.9375 0.34375 C 4.84375 0.34375 3.875 0.117188 3.03125 -0.328125 C 2.195312 -0.785156 1.550781 -1.425781 1.09375 -2.25 C 0.644531 -3.082031 0.421875 -4.046875 0.421875 -5.140625 C 0.421875 -6.222656 0.628906 -7.164062 1.046875 -7.96875 C 1.460938 -8.769531 2.046875 -9.394531 2.796875 -9.84375 C 3.554688 -10.300781 4.445312 -10.53125 5.46875 -10.53125 C 6.445312 -10.53125 7.289062 -10.3125 8 -9.875 C 8.71875 -9.445312 9.273438 -8.84375 9.671875 -8.0625 C 10.078125 -7.289062 10.28125 -6.382812 10.28125 -5.34375 C 10.28125 -5.132812 10.269531 -4.929688 10.25 -4.734375 C 10.238281 -4.546875 10.210938 -4.382812 10.171875 -4.25 L 3.453125 -4.25 C 3.523438 -3.507812 3.785156 -2.921875 4.234375 -2.484375 C 4.679688 -2.054688 5.253906 -1.84375 5.953125 -1.84375 C 6.492188 -1.84375 6.972656 -1.972656 7.390625 -2.234375 C 7.804688 -2.503906 8.125 -2.875 8.34375 -3.34375 L 10.46875 -2.40625 C 10.175781 -1.550781 9.613281 -0.878906 8.78125 -0.390625 C 7.945312 0.0976562 7 0.34375 5.9375 0.34375 Z M 3.453125 -5.984375 L 7.265625 -5.984375 C 7.222656 -6.722656 7.039062 -7.296875 6.71875 -7.703125 C 6.40625 -8.117188 5.976562 -8.328125 5.4375 -8.328125 C 4.875 -8.328125 4.421875 -8.113281 4.078125 -7.6875 C 3.734375 -7.269531 3.523438 -6.703125 3.453125 -5.984375 Z M 3.453125 -5.984375 "/></g></g><g style="fill:#0661aa;fill-opacity:1;"><g transform="translate(44.358261, 106.758685)"><path style="stroke:none" d="M 5.46875 0.34375 C 4.445312 0.34375 3.554688 0.117188 2.796875 -0.328125 C 2.046875 -0.773438 1.460938 -1.40625 1.046875 -2.21875 C 0.628906 -3.03125 0.421875 -3.984375 0.421875 -5.078125 C 0.429688 -6.191406 0.632812 -7.15625 1.03125 -7.96875 C 1.425781 -8.78125 1.984375 -9.410156 2.703125 -9.859375 C 3.429688 -10.304688 4.28125 -10.53125 5.25 -10.53125 C 6.457031 -10.53125 7.46875 -10.175781 8.28125 -9.46875 C 9.09375 -8.769531 9.597656 -7.828125 9.796875 -6.640625 L 7.015625 -6 C 6.921875 -6.675781 6.71875 -7.1875 6.40625 -7.53125 C 6.09375 -7.882812 5.722656 -8.0625 5.296875 -8.0625 C 4.742188 -8.0625 4.296875 -7.796875 3.953125 -7.265625 C 3.617188 -6.734375 3.453125 -6.003906 3.453125 -5.078125 C 3.460938 -4.148438 3.65625 -3.425781 4.03125 -2.90625 C 4.414062 -2.382812 4.910156 -2.125 5.515625 -2.125 C 6.046875 -2.125 6.492188 -2.328125 6.859375 -2.734375 C 7.222656 -3.140625 7.445312 -3.703125 7.53125 -4.421875 L 10.328125 -4.015625 C 10.171875 -2.691406 9.65625 -1.632812 8.78125 -0.84375 C 7.90625 -0.0507812 6.800781 0.34375 5.46875 0.34375 Z M 5.46875 0.34375 "/></g></g><g style="fill:#0661aa;fill-opacity:1;"><g transform="translate(57.369295, 106.758685)"><path style="stroke:none" d="M 5.578125 0.34375 C 4.535156 0.34375 3.625 0.117188 2.84375 -0.328125 C 2.070312 -0.773438 1.472656 -1.40625 1.046875 -2.21875 C 0.628906 -3.03125 0.421875 -3.984375 0.421875 -5.078125 C 0.421875 -6.191406 0.628906 -7.15625 1.046875 -7.96875 C 1.472656 -8.78125 2.070312 -9.410156 2.84375 -9.859375 C 3.625 -10.304688 4.535156 -10.53125 5.578125 -10.53125 C 6.628906 -10.53125 7.535156 -10.304688 8.296875 -9.859375 C 9.066406 -9.410156 9.660156 -8.78125 10.078125 -7.96875 C 10.503906 -7.15625 10.71875 -6.191406 10.71875 -5.078125 C 10.71875 -3.984375 10.503906 -3.03125 10.078125 -2.21875 C 9.660156 -1.40625 9.066406 -0.773438 8.296875 -0.328125 C 7.535156 0.117188 6.628906 0.34375 5.578125 0.34375 Z M 5.578125 -2.203125 C 6.242188 -2.203125 6.765625 -2.457031 7.140625 -2.96875 C 7.515625 -3.476562 7.703125 -4.179688 7.703125 -5.078125 C 7.703125 -5.984375 7.515625 -6.691406 7.140625 -7.203125 C 6.765625 -7.710938 6.242188 -7.96875 5.578125 -7.96875 C 4.921875 -7.96875 4.398438 -7.710938 4.015625 -7.203125 C 3.628906 -6.691406 3.4375 -5.984375 3.4375 -5.078125 C 3.4375 -4.179688 3.628906 -3.476562 4.015625 -2.96875 C 4.398438 -2.457031 4.921875 -2.203125 5.578125 -2.203125 Z M 5.578125 -2.203125 "/></g></g><g style="fill:#0661aa;fill-opacity:1;"><g transform="translate(70.340523, 106.758685)"><path style="stroke:none" d="M 3.421875 0 L 0.125 -10.171875 L 3.28125 -10.171875 L 5.34375 -2.5 L 5.375 -2.5 L 7.453125 -10.171875 L 10.625 -10.171875 L 7.25 0 Z M 3.421875 0 "/></g></g><g style="fill:#0661aa;fill-opacity:1;"><g transform="translate(82.874765, 106.758685)"><path style="stroke:none" d="M 5.9375 0.34375 C 4.84375 0.34375 3.875 0.117188 3.03125 -0.328125 C 2.195312 -0.785156 1.550781 -1.425781 1.09375 -2.25 C 0.644531 -3.082031 0.421875 -4.046875 0.421875 -5.140625 C 0.421875 -6.222656 0.628906 -7.164062 1.046875 -7.96875 C 1.460938 -8.769531 2.046875 -9.394531 2.796875 -9.84375 C 3.554688 -10.300781 4.445312 -10.53125 5.46875 -10.53125 C 6.445312 -10.53125 7.289062 -10.3125 8 -9.875 C 8.71875 -9.445312 9.273438 -8.84375 9.671875 -8.0625 C 10.078125 -7.289062 10.28125 -6.382812 10.28125 -5.34375 C 10.28125 -5.132812 10.269531 -4.929688 10.25 -4.734375 C 10.238281 -4.546875 10.210938 -4.382812 10.171875 -4.25 L 3.453125 -4.25 C 3.523438 -3.507812 3.785156 -2.921875 4.234375 -2.484375 C 4.679688 -2.054688 5.253906 -1.84375 5.953125 -1.84375 C 6.492188 -1.84375 6.972656 -1.972656 7.390625 -2.234375 C 7.804688 -2.503906 8.125 -2.875 8.34375 -3.34375 L 10.46875 -2.40625 C 10.175781 -1.550781 9.613281 -0.878906 8.78125 -0.390625 C 7.945312 0.0976562 7 0.34375 5.9375 0.34375 Z M 3.453125 -5.984375 L 7.265625 -5.984375 C 7.222656 -6.722656 7.039062 -7.296875 6.71875 -7.703125 C 6.40625 -8.117188 5.976562 -8.328125 5.4375 -8.328125 C 4.875 -8.328125 4.421875 -8.113281 4.078125 -7.6875 C 3.734375 -7.269531 3.523438 -6.703125 3.453125 -5.984375 Z M 3.453125 -5.984375 "/></g></g><g style="fill:#0661aa;fill-opacity:1;"><g transform="translate(96.064559, 106.758685)"><path style="stroke:none" d="M 6.234375 -10.453125 C 7.066406 -10.453125 7.734375 -10.140625 8.234375 -9.515625 C 8.742188 -8.890625 9.023438 -8.007812 9.078125 -6.875 L 6.515625 -6.171875 C 6.503906 -6.835938 6.382812 -7.335938 6.15625 -7.671875 C 5.925781 -8.015625 5.628906 -8.1875 5.265625 -8.1875 C 4.816406 -8.1875 4.453125 -7.957031 4.171875 -7.5 C 3.898438 -7.050781 3.765625 -6.429688 3.765625 -5.640625 L 3.765625 0 L 0.75 0 L 0.75 -10.171875 L 3.203125 -10.171875 L 3.609375 -8.421875 L 3.640625 -8.421875 C 3.859375 -9.054688 4.195312 -9.550781 4.65625 -9.90625 C 5.125 -10.269531 5.648438 -10.453125 6.234375 -10.453125 Z M 6.234375 -10.453125 "/></g></g><g style="fill:#0661aa;fill-opacity:1;"><g transform="translate(107.76465, 106.758685)"><path style="stroke:none" d="M 4.421875 4.515625 C 3.472656 4.515625 2.582031 4.347656 1.75 4.015625 C 0.914062 3.679688 0.238281 3.226562 -0.28125 2.65625 L 0.90625 0.515625 C 1.289062 0.960938 1.765625 1.320312 2.328125 1.59375 C 2.890625 1.863281 3.488281 2 4.125 2 C 4.988281 2 5.664062 1.753906 6.15625 1.265625 C 6.65625 0.773438 6.90625 0.109375 6.90625 -0.734375 L 6.90625 -1.609375 L 6.890625 -1.609375 C 6.597656 -0.992188 6.191406 -0.507812 5.671875 -0.15625 C 5.160156 0.195312 4.59375 0.375 3.96875 0.375 C 2.945312 0.375 2.140625 0.0390625 1.546875 -0.625 C 0.960938 -1.300781 0.671875 -2.210938 0.671875 -3.359375 L 0.671875 -10.171875 L 3.71875 -10.171875 L 3.71875 -3.859375 C 3.71875 -3.328125 3.84375 -2.898438 4.09375 -2.578125 C 4.351562 -2.265625 4.707031 -2.109375 5.15625 -2.109375 C 5.664062 -2.109375 6.078125 -2.28125 6.390625 -2.625 C 6.710938 -2.976562 6.875 -3.441406 6.875 -4.015625 L 6.875 -10.171875 L 9.890625 -10.171875 L 9.90625 -0.53125 C 9.90625 0.507812 9.679688 1.40625 9.234375 2.15625 C 8.796875 2.914062 8.164062 3.5 7.34375 3.90625 C 6.519531 4.3125 5.546875 4.515625 4.421875 4.515625 Z M 4.421875 4.515625 "/></g></g><g style="fill:#2d6d5e;fill-opacity:1;"><g transform="translate(22.70028, 133.803679)"><path style="stroke:none" d="M 2.140625 -7.796875 C 2.660156 -7.796875 3.09375 -7.71875 3.4375 -7.5625 C 3.78125 -7.40625 4.035156 -7.164062 4.203125 -6.84375 C 4.367188 -6.519531 4.453125 -6.113281 4.453125 -5.625 C 4.453125 -5.269531 4.410156 -4.957031 4.328125 -4.6875 C 4.242188 -4.414062 4.109375 -4.179688 3.921875 -3.984375 C 3.742188 -3.785156 3.515625 -3.625 3.234375 -3.5 L 4.828125 0 L 3.875 0 L 2.46875 -3.296875 L 1.65625 -3.296875 L 1.65625 0 L 0.8125 0 L 0.8125 -7.796875 Z M 2.140625 -7.03125 L 1.65625 -7.03125 L 1.65625 -4 L 2.265625 -4 C 2.679688 -4 3.003906 -4.128906 3.234375 -4.390625 C 3.460938 -4.648438 3.578125 -5.046875 3.578125 -5.578125 C 3.578125 -6.085938 3.460938 -6.457031 3.234375 -6.6875 C 3.003906 -6.914062 2.640625 -7.03125 2.140625 -7.03125 Z M 2.140625 -7.03125 "/></g></g><g style="fill:#2d6d5e;fill-opacity:1;"><g transform="translate(29.194905, 133.803679)"><path style="stroke:none" d="M 2.328125 -5.953125 C 2.722656 -5.953125 3.050781 -5.835938 3.3125 -5.609375 C 3.570312 -5.378906 3.765625 -5.066406 3.890625 -4.671875 C 4.015625 -4.273438 4.078125 -3.835938 4.078125 -3.359375 L 4.078125 -2.78125 L 1.28125 -2.78125 C 1.289062 -2.050781 1.40625 -1.503906 1.625 -1.140625 C 1.84375 -0.773438 2.171875 -0.59375 2.609375 -0.59375 C 2.816406 -0.59375 3.019531 -0.625 3.21875 -0.6875 C 3.425781 -0.75 3.640625 -0.851562 3.859375 -1 L 3.859375 -0.265625 C 3.660156 -0.140625 3.445312 -0.046875 3.21875 0.015625 C 3 0.078125 2.765625 0.109375 2.515625 0.109375 C 2.035156 0.109375 1.644531 -0.0195312 1.34375 -0.28125 C 1.039062 -0.539062 0.816406 -0.894531 0.671875 -1.34375 C 0.535156 -1.800781 0.46875 -2.316406 0.46875 -2.890625 C 0.46875 -3.546875 0.535156 -4.101562 0.671875 -4.5625 C 0.816406 -5.019531 1.023438 -5.363281 1.296875 -5.59375 C 1.578125 -5.832031 1.921875 -5.953125 2.328125 -5.953125 Z M 2.328125 -5.28125 C 2.015625 -5.28125 1.769531 -5.128906 1.59375 -4.828125 C 1.425781 -4.523438 1.328125 -4.0625 1.296875 -3.4375 L 3.3125 -3.4375 C 3.3125 -3.769531 3.273438 -4.070312 3.203125 -4.34375 C 3.128906 -4.625 3.019531 -4.847656 2.875 -5.015625 C 2.738281 -5.191406 2.554688 -5.28125 2.328125 -5.28125 Z M 2.328125 -5.28125 "/></g></g><g style="fill:#2d6d5e;fill-opacity:1;"><g transform="translate(35.241595, 133.803679)"><path style="stroke:none" d="M 2.40625 0.109375 C 1.976562 0.109375 1.617188 0 1.328125 -0.21875 C 1.046875 -0.445312 0.832031 -0.785156 0.6875 -1.234375 C 0.539062 -1.679688 0.46875 -2.234375 0.46875 -2.890625 C 0.46875 -3.523438 0.539062 -4.070312 0.6875 -4.53125 C 0.832031 -4.988281 1.050781 -5.34375 1.34375 -5.59375 C 1.632812 -5.84375 2 -5.96875 2.4375 -5.96875 C 2.65625 -5.96875 2.851562 -5.941406 3.03125 -5.890625 C 3.207031 -5.847656 3.375 -5.785156 3.53125 -5.703125 L 3.265625 -5.015625 C 3.128906 -5.085938 2.992188 -5.140625 2.859375 -5.171875 C 2.734375 -5.210938 2.609375 -5.234375 2.484375 -5.234375 C 2.234375 -5.234375 2.019531 -5.144531 1.84375 -4.96875 C 1.664062 -4.789062 1.53125 -4.53125 1.4375 -4.1875 C 1.351562 -3.84375 1.3125 -3.410156 1.3125 -2.890625 C 1.3125 -2.390625 1.351562 -1.96875 1.4375 -1.625 C 1.53125 -1.289062 1.660156 -1.035156 1.828125 -0.859375 C 2.003906 -0.691406 2.226562 -0.609375 2.5 -0.609375 C 2.65625 -0.609375 2.8125 -0.628906 2.96875 -0.671875 C 3.132812 -0.722656 3.300781 -0.789062 3.46875 -0.875 L 3.46875 -0.1875 C 3.3125 -0.09375 3.132812 -0.0195312 2.9375 0.03125 C 2.738281 0.0820312 2.5625 0.109375 2.40625 0.109375 Z M 2.40625 0.109375 "/></g></g><g style="fill:#2d6d5e;fill-opacity:1;"><g transform="translate(40.520398, 133.803679)"><path style="stroke:none" d="M 4.34375 -2.9375 C 4.34375 -2.46875 4.300781 -2.046875 4.21875 -1.671875 C 4.144531 -1.304688 4.023438 -0.988281 3.859375 -0.71875 C 3.703125 -0.445312 3.5 -0.238281 3.25 -0.09375 C 3.007812 0.0390625 2.722656 0.109375 2.390625 0.109375 C 2.078125 0.109375 1.796875 0.0390625 1.546875 -0.09375 C 1.304688 -0.238281 1.101562 -0.441406 0.9375 -0.703125 C 0.78125 -0.972656 0.660156 -1.296875 0.578125 -1.671875 C 0.503906 -2.046875 0.46875 -2.46875 0.46875 -2.9375 C 0.46875 -3.582031 0.535156 -4.128906 0.671875 -4.578125 C 0.804688 -5.023438 1.019531 -5.367188 1.3125 -5.609375 C 1.601562 -5.847656 1.96875 -5.96875 2.40625 -5.96875 C 2.820312 -5.96875 3.171875 -5.851562 3.453125 -5.625 C 3.742188 -5.394531 3.960938 -5.050781 4.109375 -4.59375 C 4.265625 -4.144531 4.34375 -3.59375 4.34375 -2.9375 Z M 1.296875 -2.9375 C 1.296875 -2.425781 1.332031 -2 1.40625 -1.65625 C 1.488281 -1.3125 1.613281 -1.050781 1.78125 -0.875 C 1.945312 -0.695312 2.160156 -0.609375 2.421875 -0.609375 C 2.671875 -0.609375 2.875 -0.691406 3.03125 -0.859375 C 3.195312 -1.035156 3.316406 -1.296875 3.390625 -1.640625 C 3.472656 -1.984375 3.515625 -2.414062 3.515625 -2.9375 C 3.515625 -3.445312 3.472656 -3.867188 3.390625 -4.203125 C 3.316406 -4.546875 3.195312 -4.804688 3.03125 -4.984375 C 2.875 -5.160156 2.664062 -5.25 2.40625 -5.25 C 2.019531 -5.25 1.738281 -5.050781 1.5625 -4.65625 C 1.382812 -4.269531 1.296875 -3.695312 1.296875 -2.9375 Z M 1.296875 -2.9375 "/></g></g><g style="fill:#2d6d5e;fill-opacity:1;"><g transform="translate(46.860379, 133.803679)"><path style="stroke:none" d="M 1.515625 0 L 0.046875 -5.859375 L 0.890625 -5.859375 L 1.6875 -2.296875 C 1.738281 -2.085938 1.785156 -1.867188 1.828125 -1.640625 C 1.867188 -1.421875 1.90625 -1.1875 1.9375 -0.9375 L 1.984375 -0.9375 C 2.003906 -1.082031 2.03125 -1.25 2.0625 -1.4375 C 2.09375 -1.632812 2.140625 -1.851562 2.203125 -2.09375 L 3.0625 -5.859375 L 3.90625 -5.859375 L 2.421875 0 Z M 1.515625 0 "/></g></g><g style="fill:#2d6d5e;fill-opacity:1;"><g transform="translate(52.341819, 133.803679)"><path style="stroke:none" d="M 2.328125 -5.953125 C 2.722656 -5.953125 3.050781 -5.835938 3.3125 -5.609375 C 3.570312 -5.378906 3.765625 -5.066406 3.890625 -4.671875 C 4.015625 -4.273438 4.078125 -3.835938 4.078125 -3.359375 L 4.078125 -2.78125 L 1.28125 -2.78125 C 1.289062 -2.050781 1.40625 -1.503906 1.625 -1.140625 C 1.84375 -0.773438 2.171875 -0.59375 2.609375 -0.59375 C 2.816406 -0.59375 3.019531 -0.625 3.21875 -0.6875 C 3.425781 -0.75 3.640625 -0.851562 3.859375 -1 L 3.859375 -0.265625 C 3.660156 -0.140625 3.445312 -0.046875 3.21875 0.015625 C 3 0.078125 2.765625 0.109375 2.515625 0.109375 C 2.035156 0.109375 1.644531 -0.0195312 1.34375 -0.28125 C 1.039062 -0.539062 0.816406 -0.894531 0.671875 -1.34375 C 0.535156 -1.800781 0.46875 -2.316406 0.46875 -2.890625 C 0.46875 -3.546875 0.535156 -4.101562 0.671875 -4.5625 C 0.816406 -5.019531 1.023438 -5.363281 1.296875 -5.59375 C 1.578125 -5.832031 1.921875 -5.953125 2.328125 -5.953125 Z M 2.328125 -5.28125 C 2.015625 -5.28125 1.769531 -5.128906 1.59375 -4.828125 C 1.425781 -4.523438 1.328125 -4.0625 1.296875 -3.4375 L 3.3125 -3.4375 C 3.3125 -3.769531 3.273438 -4.070312 3.203125 -4.34375 C 3.128906 -4.625 3.019531 -4.847656 2.875 -5.015625 C 2.738281 -5.191406 2.554688 -5.28125 2.328125 -5.28125 Z M 2.328125 -5.28125 "/></g></g><g style="fill:#2d6d5e;fill-opacity:1;"><g transform="translate(58.388509, 133.803679)"><path style="stroke:none" d="M 2.671875 -5.953125 C 2.753906 -5.953125 2.835938 -5.945312 2.921875 -5.9375 C 3.003906 -5.925781 3.085938 -5.90625 3.171875 -5.875 L 3.046875 -5.03125 C 2.984375 -5.0625 2.914062 -5.082031 2.84375 -5.09375 C 2.769531 -5.101562 2.691406 -5.109375 2.609375 -5.109375 C 2.453125 -5.109375 2.304688 -5.054688 2.171875 -4.953125 C 2.035156 -4.847656 1.921875 -4.703125 1.828125 -4.515625 C 1.734375 -4.328125 1.660156 -4.109375 1.609375 -3.859375 C 1.554688 -3.609375 1.53125 -3.335938 1.53125 -3.046875 L 1.53125 0 L 0.71875 0 L 0.71875 -5.859375 L 1.359375 -5.859375 L 1.46875 -4.8125 L 1.515625 -4.8125 C 1.597656 -5.039062 1.691406 -5.238281 1.796875 -5.40625 C 1.910156 -5.570312 2.039062 -5.703125 2.1875 -5.796875 C 2.332031 -5.898438 2.492188 -5.953125 2.671875 -5.953125 Z M 2.671875 -5.953125 "/></g></g><g style="fill:#2d6d5e;fill-opacity:1;"><g transform="translate(63.192716, 133.803679)"><path style="stroke:none" d=""/></g></g><g style="fill:#2d6d5e;fill-opacity:1;"><g transform="translate(66.749105, 133.803679)"><path style="stroke:none" d="M 4.171875 0 L 3.46875 -3.625 C 3.445312 -3.726562 3.425781 -3.832031 3.40625 -3.9375 C 3.382812 -4.039062 3.363281 -4.144531 3.34375 -4.25 C 3.332031 -4.363281 3.320312 -4.472656 3.3125 -4.578125 C 3.300781 -4.679688 3.285156 -4.785156 3.265625 -4.890625 L 3.25 -4.890625 C 3.226562 -4.785156 3.207031 -4.675781 3.1875 -4.5625 C 3.175781 -4.457031 3.160156 -4.347656 3.140625 -4.234375 C 3.128906 -4.128906 3.113281 -4.023438 3.09375 -3.921875 C 3.082031 -3.828125 3.066406 -3.726562 3.046875 -3.625 L 2.296875 0 L 1.359375 0 L 0.09375 -5.859375 L 0.921875 -5.859375 L 1.546875 -2.8125 C 1.578125 -2.613281 1.609375 -2.414062 1.640625 -2.21875 C 1.679688 -2.019531 1.71875 -1.816406 1.75 -1.609375 C 1.78125 -1.410156 1.8125 -1.210938 1.84375 -1.015625 L 1.875 -1.015625 C 1.894531 -1.140625 1.910156 -1.269531 1.921875 -1.40625 C 1.941406 -1.539062 1.960938 -1.679688 1.984375 -1.828125 C 2.015625 -1.972656 2.039062 -2.125 2.0625 -2.28125 C 2.09375 -2.445312 2.128906 -2.609375 2.171875 -2.765625 L 2.796875 -5.859375 L 3.71875 -5.859375 L 4.34375 -2.75 C 4.375 -2.613281 4.40625 -2.457031 4.4375 -2.28125 C 4.46875 -2.101562 4.5 -1.90625 4.53125 -1.6875 C 4.5625 -1.476562 4.59375 -1.253906 4.625 -1.015625 L 4.65625 -1.015625 C 4.664062 -1.117188 4.679688 -1.234375 4.703125 -1.359375 C 4.722656 -1.484375 4.742188 -1.617188 4.765625 -1.765625 C 4.796875 -1.910156 4.828125 -2.066406 4.859375 -2.234375 L 5.59375 -5.859375 L 6.40625 -5.859375 L 5.109375 0 Z M 4.171875 0 "/></g></g><g style="fill:#2d6d5e;fill-opacity:1;"><g transform="translate(74.774171, 133.803679)"><path style="stroke:none" d="M 1.546875 -5.859375 L 1.546875 0 L 0.71875 0 L 0.71875 -5.859375 Z M 1.140625 -8.046875 C 1.304688 -8.046875 1.425781 -7.992188 1.5 -7.890625 C 1.582031 -7.785156 1.625 -7.640625 1.625 -7.453125 C 1.625 -7.265625 1.582031 -7.117188 1.5 -7.015625 C 1.414062 -6.910156 1.296875 -6.859375 1.140625 -6.859375 C 0.992188 -6.859375 0.875 -6.910156 0.78125 -7.015625 C 0.695312 -7.117188 0.65625 -7.265625 0.65625 -7.453125 C 0.65625 -7.648438 0.695312 -7.796875 0.78125 -7.890625 C 0.863281 -7.992188 0.984375 -8.046875 1.140625 -8.046875 Z M 1.140625 -8.046875 "/></g></g><g style="fill:#2d6d5e;fill-opacity:1;"><g transform="translate(78.565193, 133.803679)"><path style="stroke:none" d="M 2.09375 -0.625 C 2.175781 -0.625 2.257812 -0.628906 2.34375 -0.640625 C 2.4375 -0.660156 2.523438 -0.691406 2.609375 -0.734375 L 2.609375 -0.0625 C 2.503906 -0.0078125 2.382812 0.03125 2.25 0.0625 C 2.125 0.09375 1.984375 0.109375 1.828125 0.109375 C 1.578125 0.109375 1.367188 0.0507812 1.203125 -0.0625 C 1.046875 -0.175781 0.925781 -0.34375 0.84375 -0.5625 C 0.769531 -0.789062 0.734375 -1.078125 0.734375 -1.421875 L 0.734375 -5.171875 L 0.1875 -5.171875 L 0.1875 -5.609375 L 0.765625 -5.828125 L 0.984375 -7.1875 L 1.5625 -7.1875 L 1.5625 -5.859375 L 2.546875 -5.859375 L 2.546875 -5.171875 L 1.5625 -5.171875 L 1.5625 -1.515625 C 1.5625 -1.210938 1.597656 -0.988281 1.671875 -0.84375 C 1.742188 -0.695312 1.882812 -0.625 2.09375 -0.625 Z M 2.09375 -0.625 "/></g></g><g style="fill:#2d6d5e;fill-opacity:1;"><g transform="translate(82.862807, 133.803679)"><path style="stroke:none" d="M 1.53125 -8.296875 L 1.53125 -5.890625 C 1.53125 -5.734375 1.523438 -5.582031 1.515625 -5.4375 C 1.515625 -5.289062 1.503906 -5.15625 1.484375 -5.03125 L 1.53125 -5.03125 C 1.601562 -5.21875 1.703125 -5.378906 1.828125 -5.515625 C 1.953125 -5.660156 2.097656 -5.769531 2.265625 -5.84375 C 2.429688 -5.925781 2.613281 -5.96875 2.8125 -5.96875 C 3.132812 -5.96875 3.398438 -5.890625 3.609375 -5.734375 C 3.828125 -5.585938 3.984375 -5.363281 4.078125 -5.0625 C 4.179688 -4.769531 4.234375 -4.410156 4.234375 -3.984375 L 4.234375 0 L 3.40625 0 L 3.40625 -3.8125 C 3.40625 -4.320312 3.34375 -4.679688 3.21875 -4.890625 C 3.101562 -5.109375 2.910156 -5.21875 2.640625 -5.21875 C 2.390625 -5.21875 2.179688 -5.140625 2.015625 -4.984375 C 1.859375 -4.835938 1.738281 -4.601562 1.65625 -4.28125 C 1.570312 -3.96875 1.53125 -3.5625 1.53125 -3.0625 L 1.53125 0 L 0.71875 0 L 0.71875 -8.296875 Z M 1.53125 -8.296875 "/></g></g><g style="fill:#2d6d5e;fill-opacity:1;"><g transform="translate(89.314771, 133.803679)"><path style="stroke:none" d=""/></g></g><g style="fill:#2d6d5e;fill-opacity:1;"><g transform="translate(92.871161, 133.803679)"><path style="stroke:none" d="M 3.3125 -1.546875 C 3.3125 -1.191406 3.25 -0.890625 3.125 -0.640625 C 3 -0.398438 2.8125 -0.210938 2.5625 -0.078125 C 2.320312 0.046875 2.03125 0.109375 1.6875 0.109375 C 1.414062 0.109375 1.164062 0.078125 0.9375 0.015625 C 0.71875 -0.046875 0.53125 -0.125 0.375 -0.21875 L 0.375 -1.078125 C 0.53125 -0.941406 0.722656 -0.832031 0.953125 -0.75 C 1.179688 -0.664062 1.414062 -0.625 1.65625 -0.625 C 1.925781 -0.625 2.132812 -0.703125 2.28125 -0.859375 C 2.425781 -1.015625 2.5 -1.234375 2.5 -1.515625 C 2.5 -1.679688 2.46875 -1.828125 2.40625 -1.953125 C 2.351562 -2.078125 2.257812 -2.191406 2.125 -2.296875 C 1.988281 -2.410156 1.8125 -2.53125 1.59375 -2.65625 C 1.351562 -2.8125 1.140625 -2.96875 0.953125 -3.125 C 0.765625 -3.28125 0.617188 -3.460938 0.515625 -3.671875 C 0.421875 -3.878906 0.375 -4.132812 0.375 -4.4375 C 0.375 -4.894531 0.519531 -5.265625 0.8125 -5.546875 C 1.113281 -5.828125 1.503906 -5.96875 1.984375 -5.96875 C 2.234375 -5.96875 2.46875 -5.9375 2.6875 -5.875 C 2.90625 -5.8125 3.113281 -5.71875 3.3125 -5.59375 L 3 -4.921875 C 2.84375 -5.023438 2.679688 -5.109375 2.515625 -5.171875 C 2.347656 -5.234375 2.175781 -5.265625 2 -5.265625 C 1.738281 -5.265625 1.53125 -5.191406 1.375 -5.046875 C 1.226562 -4.898438 1.15625 -4.703125 1.15625 -4.453125 C 1.15625 -4.296875 1.1875 -4.15625 1.25 -4.03125 C 1.3125 -3.914062 1.410156 -3.800781 1.546875 -3.6875 C 1.679688 -3.582031 1.863281 -3.460938 2.09375 -3.328125 C 2.332031 -3.171875 2.539062 -3.015625 2.71875 -2.859375 C 2.90625 -2.703125 3.050781 -2.519531 3.15625 -2.3125 C 3.257812 -2.101562 3.3125 -1.847656 3.3125 -1.546875 Z M 3.3125 -1.546875 "/></g></g><g style="fill:#2d6d5e;fill-opacity:1;"><g transform="translate(98.069976, 133.803679)"><path style="stroke:none" d="M 4.34375 -2.9375 C 4.34375 -2.46875 4.300781 -2.046875 4.21875 -1.671875 C 4.144531 -1.304688 4.023438 -0.988281 3.859375 -0.71875 C 3.703125 -0.445312 3.5 -0.238281 3.25 -0.09375 C 3.007812 0.0390625 2.722656 0.109375 2.390625 0.109375 C 2.078125 0.109375 1.796875 0.0390625 1.546875 -0.09375 C 1.304688 -0.238281 1.101562 -0.441406 0.9375 -0.703125 C 0.78125 -0.972656 0.660156 -1.296875 0.578125 -1.671875 C 0.503906 -2.046875 0.46875 -2.46875 0.46875 -2.9375 C 0.46875 -3.582031 0.535156 -4.128906 0.671875 -4.578125 C 0.804688 -5.023438 1.019531 -5.367188 1.3125 -5.609375 C 1.601562 -5.847656 1.96875 -5.96875 2.40625 -5.96875 C 2.820312 -5.96875 3.171875 -5.851562 3.453125 -5.625 C 3.742188 -5.394531 3.960938 -5.050781 4.109375 -4.59375 C 4.265625 -4.144531 4.34375 -3.59375 4.34375 -2.9375 Z M 1.296875 -2.9375 C 1.296875 -2.425781 1.332031 -2 1.40625 -1.65625 C 1.488281 -1.3125 1.613281 -1.050781 1.78125 -0.875 C 1.945312 -0.695312 2.160156 -0.609375 2.421875 -0.609375 C 2.671875 -0.609375 2.875 -0.691406 3.03125 -0.859375 C 3.195312 -1.035156 3.316406 -1.296875 3.390625 -1.640625 C 3.472656 -1.984375 3.515625 -2.414062 3.515625 -2.9375 C 3.515625 -3.445312 3.472656 -3.867188 3.390625 -4.203125 C 3.316406 -4.546875 3.195312 -4.804688 3.03125 -4.984375 C 2.875 -5.160156 2.664062 -5.25 2.40625 -5.25 C 2.019531 -5.25 1.738281 -5.050781 1.5625 -4.65625 C 1.382812 -4.269531 1.296875 -3.695312 1.296875 -2.9375 Z M 1.296875 -2.9375 "/></g></g><g style="fill:#2d6d5e;fill-opacity:1;"><g transform="translate(104.409957, 133.803679)"><path style="stroke:none" d="M 2.546875 -5.15625 L 1.625 -5.15625 L 1.625 0 L 0.8125 0 L 0.8125 -5.15625 L 0.09375 -5.15625 L 0.09375 -5.609375 L 0.8125 -5.875 L 0.8125 -6.28125 C 0.8125 -6.71875 0.847656 -7.09375 0.921875 -7.40625 C 1.003906 -7.71875 1.140625 -7.953125 1.328125 -8.109375 C 1.515625 -8.273438 1.773438 -8.359375 2.109375 -8.359375 C 2.273438 -8.359375 2.421875 -8.34375 2.546875 -8.3125 C 2.679688 -8.28125 2.820312 -8.238281 2.96875 -8.1875 L 2.75 -7.53125 C 2.65625 -7.5625 2.5625 -7.585938 2.46875 -7.609375 C 2.382812 -7.628906 2.300781 -7.640625 2.21875 -7.640625 C 1.988281 -7.640625 1.832031 -7.539062 1.75 -7.34375 C 1.675781 -7.15625 1.632812 -6.804688 1.625 -6.296875 L 1.625 -5.859375 L 2.546875 -5.859375 Z M 2.546875 -5.15625 "/></g></g><g style="fill:#2d6d5e;fill-opacity:1;"><g transform="translate(108.654245, 133.803679)"><path style="stroke:none" d="M 2.09375 -0.625 C 2.175781 -0.625 2.257812 -0.628906 2.34375 -0.640625 C 2.4375 -0.660156 2.523438 -0.691406 2.609375 -0.734375 L 2.609375 -0.0625 C 2.503906 -0.0078125 2.382812 0.03125 2.25 0.0625 C 2.125 0.09375 1.984375 0.109375 1.828125 0.109375 C 1.578125 0.109375 1.367188 0.0507812 1.203125 -0.0625 C 1.046875 -0.175781 0.925781 -0.34375 0.84375 -0.5625 C 0.769531 -0.789062 0.734375 -1.078125 0.734375 -1.421875 L 0.734375 -5.171875 L 0.1875 -5.171875 L 0.1875 -5.609375 L 0.765625 -5.828125 L 0.984375 -7.1875 L 1.5625 -7.1875 L 1.5625 -5.859375 L 2.546875 -5.859375 L 2.546875 -5.171875 L 1.5625 -5.171875 L 1.5625 -1.515625 C 1.5625 -1.210938 1.597656 -0.988281 1.671875 -0.84375 C 1.742188 -0.695312 1.882812 -0.625 2.09375 -0.625 Z M 2.09375 -0.625 "/></g></g><g style="fill:#2d6d5e;fill-opacity:1;"><g transform="translate(35.251351, 146.471178)"><path style="stroke:none" d="M 2.828125 -5.96875 C 3.285156 -5.96875 3.632812 -5.800781 3.875 -5.46875 C 4.113281 -5.144531 4.234375 -4.648438 4.234375 -3.984375 L 4.234375 0 L 3.40625 0 L 3.40625 -3.828125 C 3.40625 -4.296875 3.34375 -4.644531 3.21875 -4.875 C 3.101562 -5.113281 2.910156 -5.234375 2.640625 -5.234375 C 2.253906 -5.234375 1.972656 -5.0625 1.796875 -4.71875 C 1.617188 -4.382812 1.53125 -3.835938 1.53125 -3.078125 L 1.53125 0 L 0.71875 0 L 0.71875 -5.859375 L 1.375 -5.859375 L 1.46875 -5 L 1.515625 -5 C 1.597656 -5.195312 1.703125 -5.367188 1.828125 -5.515625 C 1.953125 -5.660156 2.097656 -5.769531 2.265625 -5.84375 C 2.429688 -5.925781 2.617188 -5.96875 2.828125 -5.96875 Z M 2.828125 -5.96875 "/></g></g><g style="fill:#2d6d5e;fill-opacity:1;"><g transform="translate(41.703315, 146.471178)"><path style="stroke:none" d="M 2.28125 -5.96875 C 2.820312 -5.96875 3.207031 -5.789062 3.4375 -5.4375 C 3.664062 -5.09375 3.78125 -4.597656 3.78125 -3.953125 L 3.78125 0 L 3.15625 0 L 3.046875 -0.828125 L 3.015625 -0.828125 C 2.921875 -0.628906 2.8125 -0.457031 2.6875 -0.3125 C 2.5625 -0.175781 2.414062 -0.0703125 2.25 0 C 2.082031 0.0703125 1.894531 0.109375 1.6875 0.109375 C 1.382812 0.109375 1.132812 0.03125 0.9375 -0.125 C 0.75 -0.289062 0.609375 -0.503906 0.515625 -0.765625 C 0.421875 -1.023438 0.375 -1.304688 0.375 -1.609375 C 0.375 -2.191406 0.539062 -2.640625 0.875 -2.953125 C 1.207031 -3.273438 1.679688 -3.453125 2.296875 -3.484375 L 2.96875 -3.53125 L 2.96875 -3.921875 C 2.96875 -4.390625 2.90625 -4.734375 2.78125 -4.953125 C 2.65625 -5.171875 2.445312 -5.28125 2.15625 -5.28125 C 2 -5.28125 1.828125 -5.25 1.640625 -5.1875 C 1.460938 -5.132812 1.269531 -5.046875 1.0625 -4.921875 L 0.796875 -5.546875 C 1.015625 -5.679688 1.25 -5.785156 1.5 -5.859375 C 1.75 -5.929688 2.007812 -5.96875 2.28125 -5.96875 Z M 2.984375 -2.921875 L 2.4375 -2.890625 C 2.019531 -2.859375 1.710938 -2.738281 1.515625 -2.53125 C 1.316406 -2.320312 1.21875 -2.019531 1.21875 -1.625 C 1.21875 -1.257812 1.28125 -0.988281 1.40625 -0.8125 C 1.539062 -0.644531 1.722656 -0.5625 1.953125 -0.5625 C 2.273438 -0.5625 2.523438 -0.71875 2.703125 -1.03125 C 2.890625 -1.34375 2.984375 -1.773438 2.984375 -2.328125 Z M 2.984375 -2.921875 "/></g></g><g style="fill:#2d6d5e;fill-opacity:1;"><g transform="translate(47.71801, 146.471178)"><path style="stroke:none" d="M 3.3125 -1.546875 C 3.3125 -1.191406 3.25 -0.890625 3.125 -0.640625 C 3 -0.398438 2.8125 -0.210938 2.5625 -0.078125 C 2.320312 0.046875 2.03125 0.109375 1.6875 0.109375 C 1.414062 0.109375 1.164062 0.078125 0.9375 0.015625 C 0.71875 -0.046875 0.53125 -0.125 0.375 -0.21875 L 0.375 -1.078125 C 0.53125 -0.941406 0.722656 -0.832031 0.953125 -0.75 C 1.179688 -0.664062 1.414062 -0.625 1.65625 -0.625 C 1.925781 -0.625 2.132812 -0.703125 2.28125 -0.859375 C 2.425781 -1.015625 2.5 -1.234375 2.5 -1.515625 C 2.5 -1.679688 2.46875 -1.828125 2.40625 -1.953125 C 2.351562 -2.078125 2.257812 -2.191406 2.125 -2.296875 C 1.988281 -2.410156 1.8125 -2.53125 1.59375 -2.65625 C 1.351562 -2.8125 1.140625 -2.96875 0.953125 -3.125 C 0.765625 -3.28125 0.617188 -3.460938 0.515625 -3.671875 C 0.421875 -3.878906 0.375 -4.132812 0.375 -4.4375 C 0.375 -4.894531 0.519531 -5.265625 0.8125 -5.546875 C 1.113281 -5.828125 1.503906 -5.96875 1.984375 -5.96875 C 2.234375 -5.96875 2.46875 -5.9375 2.6875 -5.875 C 2.90625 -5.8125 3.113281 -5.71875 3.3125 -5.59375 L 3 -4.921875 C 2.84375 -5.023438 2.679688 -5.109375 2.515625 -5.171875 C 2.347656 -5.234375 2.175781 -5.265625 2 -5.265625 C 1.738281 -5.265625 1.53125 -5.191406 1.375 -5.046875 C 1.226562 -4.898438 1.15625 -4.703125 1.15625 -4.453125 C 1.15625 -4.296875 1.1875 -4.15625 1.25 -4.03125 C 1.3125 -3.914062 1.410156 -3.800781 1.546875 -3.6875 C 1.679688 -3.582031 1.863281 -3.460938 2.09375 -3.328125 C 2.332031 -3.171875 2.539062 -3.015625 2.71875 -2.859375 C 2.90625 -2.703125 3.050781 -2.519531 3.15625 -2.3125 C 3.257812 -2.101562 3.3125 -1.847656 3.3125 -1.546875 Z M 3.3125 -1.546875 "/></g></g><g style="fill:#2d6d5e;fill-opacity:1;"><g transform="translate(52.916825, 146.471178)"><path style="stroke:none" d="M 2.28125 -5.96875 C 2.820312 -5.96875 3.207031 -5.789062 3.4375 -5.4375 C 3.664062 -5.09375 3.78125 -4.597656 3.78125 -3.953125 L 3.78125 0 L 3.15625 0 L 3.046875 -0.828125 L 3.015625 -0.828125 C 2.921875 -0.628906 2.8125 -0.457031 2.6875 -0.3125 C 2.5625 -0.175781 2.414062 -0.0703125 2.25 0 C 2.082031 0.0703125 1.894531 0.109375 1.6875 0.109375 C 1.382812 0.109375 1.132812 0.03125 0.9375 -0.125 C 0.75 -0.289062 0.609375 -0.503906 0.515625 -0.765625 C 0.421875 -1.023438 0.375 -1.304688 0.375 -1.609375 C 0.375 -2.191406 0.539062 -2.640625 0.875 -2.953125 C 1.207031 -3.273438 1.679688 -3.453125 2.296875 -3.484375 L 2.96875 -3.53125 L 2.96875 -3.921875 C 2.96875 -4.390625 2.90625 -4.734375 2.78125 -4.953125 C 2.65625 -5.171875 2.445312 -5.28125 2.15625 -5.28125 C 2 -5.28125 1.828125 -5.25 1.640625 -5.1875 C 1.460938 -5.132812 1.269531 -5.046875 1.0625 -4.921875 L 0.796875 -5.546875 C 1.015625 -5.679688 1.25 -5.785156 1.5 -5.859375 C 1.75 -5.929688 2.007812 -5.96875 2.28125 -5.96875 Z M 2.984375 -2.921875 L 2.4375 -2.890625 C 2.019531 -2.859375 1.710938 -2.738281 1.515625 -2.53125 C 1.316406 -2.320312 1.21875 -2.019531 1.21875 -1.625 C 1.21875 -1.257812 1.28125 -0.988281 1.40625 -0.8125 C 1.539062 -0.644531 1.722656 -0.5625 1.953125 -0.5625 C 2.273438 -0.5625 2.523438 -0.71875 2.703125 -1.03125 C 2.890625 -1.34375 2.984375 -1.773438 2.984375 -2.328125 Z M 2.984375 -2.921875 "/></g></g><g style="fill:#2d6d5e;fill-opacity:1;"><g transform="translate(58.93152, 146.471178)"><path style="stroke:none" d="M 1.53125 0 L 0.71875 0 L 0.71875 -8.296875 L 1.53125 -8.296875 Z M 1.53125 0 "/></g></g><g style="fill:#2d6d5e;fill-opacity:1;"><g transform="translate(62.701211, 146.471178)"><path style="stroke:none" d=""/></g></g><g style="fill:#2d6d5e;fill-opacity:1;"><g transform="translate(66.257601, 146.471178)"><path style="stroke:none" d="M 1.53125 -8.296875 L 1.53125 -5.859375 C 1.53125 -5.742188 1.523438 -5.613281 1.515625 -5.46875 C 1.515625 -5.332031 1.515625 -5.1875 1.515625 -5.03125 L 1.546875 -5.03125 C 1.691406 -5.332031 1.875 -5.5625 2.09375 -5.71875 C 2.3125 -5.875 2.5625 -5.953125 2.84375 -5.953125 C 3.40625 -5.953125 3.828125 -5.695312 4.109375 -5.1875 C 4.398438 -4.675781 4.546875 -3.925781 4.546875 -2.9375 C 4.546875 -2.28125 4.476562 -1.722656 4.34375 -1.265625 C 4.21875 -0.816406 4.03125 -0.472656 3.78125 -0.234375 C 3.53125 -0.00390625 3.222656 0.109375 2.859375 0.109375 C 2.578125 0.109375 2.328125 0.0351562 2.109375 -0.109375 C 1.890625 -0.253906 1.703125 -0.476562 1.546875 -0.78125 L 1.5 -0.78125 L 1.375 0 L 0.71875 0 L 0.71875 -8.296875 Z M 2.671875 -5.234375 C 2.367188 -5.234375 2.132812 -5.132812 1.96875 -4.9375 C 1.8125 -4.75 1.695312 -4.488281 1.625 -4.15625 C 1.5625 -3.832031 1.53125 -3.457031 1.53125 -3.03125 L 1.53125 -2.78125 C 1.53125 -2.039062 1.625 -1.492188 1.8125 -1.140625 C 2.007812 -0.785156 2.296875 -0.609375 2.671875 -0.609375 C 3.015625 -0.609375 3.269531 -0.796875 3.4375 -1.171875 C 3.613281 -1.554688 3.703125 -2.148438 3.703125 -2.953125 C 3.703125 -3.703125 3.617188 -4.269531 3.453125 -4.65625 C 3.285156 -5.039062 3.023438 -5.234375 2.671875 -5.234375 Z M 2.671875 -5.234375 "/></g></g><g style="fill:#2d6d5e;fill-opacity:1;"><g transform="translate(72.784221, 146.471178)"><path style="stroke:none" d="M 2.671875 -5.953125 C 2.753906 -5.953125 2.835938 -5.945312 2.921875 -5.9375 C 3.003906 -5.925781 3.085938 -5.90625 3.171875 -5.875 L 3.046875 -5.03125 C 2.984375 -5.0625 2.914062 -5.082031 2.84375 -5.09375 C 2.769531 -5.101562 2.691406 -5.109375 2.609375 -5.109375 C 2.453125 -5.109375 2.304688 -5.054688 2.171875 -4.953125 C 2.035156 -4.847656 1.921875 -4.703125 1.828125 -4.515625 C 1.734375 -4.328125 1.660156 -4.109375 1.609375 -3.859375 C 1.554688 -3.609375 1.53125 -3.335938 1.53125 -3.046875 L 1.53125 0 L 0.71875 0 L 0.71875 -5.859375 L 1.359375 -5.859375 L 1.46875 -4.8125 L 1.515625 -4.8125 C 1.597656 -5.039062 1.691406 -5.238281 1.796875 -5.40625 C 1.910156 -5.570312 2.039062 -5.703125 2.1875 -5.796875 C 2.332031 -5.898438 2.492188 -5.953125 2.671875 -5.953125 Z M 2.671875 -5.953125 "/></g></g><g style="fill:#2d6d5e;fill-opacity:1;"><g transform="translate(77.588427, 146.471178)"><path style="stroke:none" d="M 2.328125 -5.953125 C 2.722656 -5.953125 3.050781 -5.835938 3.3125 -5.609375 C 3.570312 -5.378906 3.765625 -5.066406 3.890625 -4.671875 C 4.015625 -4.273438 4.078125 -3.835938 4.078125 -3.359375 L 4.078125 -2.78125 L 1.28125 -2.78125 C 1.289062 -2.050781 1.40625 -1.503906 1.625 -1.140625 C 1.84375 -0.773438 2.171875 -0.59375 2.609375 -0.59375 C 2.816406 -0.59375 3.019531 -0.625 3.21875 -0.6875 C 3.425781 -0.75 3.640625 -0.851562 3.859375 -1 L 3.859375 -0.265625 C 3.660156 -0.140625 3.445312 -0.046875 3.21875 0.015625 C 3 0.078125 2.765625 0.109375 2.515625 0.109375 C 2.035156 0.109375 1.644531 -0.0195312 1.34375 -0.28125 C 1.039062 -0.539062 0.816406 -0.894531 0.671875 -1.34375 C 0.535156 -1.800781 0.46875 -2.316406 0.46875 -2.890625 C 0.46875 -3.546875 0.535156 -4.101562 0.671875 -4.5625 C 0.816406 -5.019531 1.023438 -5.363281 1.296875 -5.59375 C 1.578125 -5.832031 1.921875 -5.953125 2.328125 -5.953125 Z M 2.328125 -5.28125 C 2.015625 -5.28125 1.769531 -5.128906 1.59375 -4.828125 C 1.425781 -4.523438 1.328125 -4.0625 1.296875 -3.4375 L 3.3125 -3.4375 C 3.3125 -3.769531 3.273438 -4.070312 3.203125 -4.34375 C 3.128906 -4.625 3.019531 -4.847656 2.875 -5.015625 C 2.738281 -5.191406 2.554688 -5.28125 2.328125 -5.28125 Z M 2.328125 -5.28125 "/></g></g><g style="fill:#2d6d5e;fill-opacity:1;"><g transform="translate(83.635117, 146.471178)"><path style="stroke:none" d="M 2.28125 -5.96875 C 2.820312 -5.96875 3.207031 -5.789062 3.4375 -5.4375 C 3.664062 -5.09375 3.78125 -4.597656 3.78125 -3.953125 L 3.78125 0 L 3.15625 0 L 3.046875 -0.828125 L 3.015625 -0.828125 C 2.921875 -0.628906 2.8125 -0.457031 2.6875 -0.3125 C 2.5625 -0.175781 2.414062 -0.0703125 2.25 0 C 2.082031 0.0703125 1.894531 0.109375 1.6875 0.109375 C 1.382812 0.109375 1.132812 0.03125 0.9375 -0.125 C 0.75 -0.289062 0.609375 -0.503906 0.515625 -0.765625 C 0.421875 -1.023438 0.375 -1.304688 0.375 -1.609375 C 0.375 -2.191406 0.539062 -2.640625 0.875 -2.953125 C 1.207031 -3.273438 1.679688 -3.453125 2.296875 -3.484375 L 2.96875 -3.53125 L 2.96875 -3.921875 C 2.96875 -4.390625 2.90625 -4.734375 2.78125 -4.953125 C 2.65625 -5.171875 2.445312 -5.28125 2.15625 -5.28125 C 2 -5.28125 1.828125 -5.25 1.640625 -5.1875 C 1.460938 -5.132812 1.269531 -5.046875 1.0625 -4.921875 L 0.796875 -5.546875 C 1.015625 -5.679688 1.25 -5.785156 1.5 -5.859375 C 1.75 -5.929688 2.007812 -5.96875 2.28125 -5.96875 Z M 2.984375 -2.921875 L 2.4375 -2.890625 C 2.019531 -2.859375 1.710938 -2.738281 1.515625 -2.53125 C 1.316406 -2.320312 1.21875 -2.019531 1.21875 -1.625 C 1.21875 -1.257812 1.28125 -0.988281 1.40625 -0.8125 C 1.539062 -0.644531 1.722656 -0.5625 1.953125 -0.5625 C 2.273438 -0.5625 2.523438 -0.71875 2.703125 -1.03125 C 2.890625 -1.34375 2.984375 -1.773438 2.984375 -2.328125 Z M 2.984375 -2.921875 "/></g></g><g style="fill:#2d6d5e;fill-opacity:1;"><g transform="translate(89.649812, 146.471178)"><path style="stroke:none" d="M 2.09375 -0.625 C 2.175781 -0.625 2.257812 -0.628906 2.34375 -0.640625 C 2.4375 -0.660156 2.523438 -0.691406 2.609375 -0.734375 L 2.609375 -0.0625 C 2.503906 -0.0078125 2.382812 0.03125 2.25 0.0625 C 2.125 0.09375 1.984375 0.109375 1.828125 0.109375 C 1.578125 0.109375 1.367188 0.0507812 1.203125 -0.0625 C 1.046875 -0.175781 0.925781 -0.34375 0.84375 -0.5625 C 0.769531 -0.789062 0.734375 -1.078125 0.734375 -1.421875 L 0.734375 -5.171875 L 0.1875 -5.171875 L 0.1875 -5.609375 L 0.765625 -5.828125 L 0.984375 -7.1875 L 1.5625 -7.1875 L 1.5625 -5.859375 L 2.546875 -5.859375 L 2.546875 -5.171875 L 1.5625 -5.171875 L 1.5625 -1.515625 C 1.5625 -1.210938 1.597656 -0.988281 1.671875 -0.84375 C 1.742188 -0.695312 1.882812 -0.625 2.09375 -0.625 Z M 2.09375 -0.625 "/></g></g><g style="fill:#2d6d5e;fill-opacity:1;"><g transform="translate(93.947426, 146.471178)"><path style="stroke:none" d="M 1.53125 -8.296875 L 1.53125 -5.890625 C 1.53125 -5.734375 1.523438 -5.582031 1.515625 -5.4375 C 1.515625 -5.289062 1.503906 -5.15625 1.484375 -5.03125 L 1.53125 -5.03125 C 1.601562 -5.21875 1.703125 -5.378906 1.828125 -5.515625 C 1.953125 -5.660156 2.097656 -5.769531 2.265625 -5.84375 C 2.429688 -5.925781 2.613281 -5.96875 2.8125 -5.96875 C 3.132812 -5.96875 3.398438 -5.890625 3.609375 -5.734375 C 3.828125 -5.585938 3.984375 -5.363281 4.078125 -5.0625 C 4.179688 -4.769531 4.234375 -4.410156 4.234375 -3.984375 L 4.234375 0 L 3.40625 0 L 3.40625 -3.8125 C 3.40625 -4.320312 3.34375 -4.679688 3.21875 -4.890625 C 3.101562 -5.109375 2.910156 -5.21875 2.640625 -5.21875 C 2.390625 -5.21875 2.179688 -5.140625 2.015625 -4.984375 C 1.859375 -4.835938 1.738281 -4.601562 1.65625 -4.28125 C 1.570312 -3.96875 1.53125 -3.5625 1.53125 -3.0625 L 1.53125 0 L 0.71875 0 L 0.71875 -8.296875 Z M 1.53125 -8.296875 "/></g></g><g style="fill:#0661aa;fill-opacity:1;"><g transform="translate(44.24214, 119.60013)"><path style="stroke:none" d="M 1.859375 0 L 0.125 -6.015625 L 1.0625 -6.015625 L 2.4375 -0.9375 L 2.453125 -0.9375 L 3.828125 -6.015625 L 5.015625 -6.015625 L 6.40625 -0.9375 L 6.421875 -0.9375 L 7.78125 -6.015625 L 8.734375 -6.015625 L 7.015625 0 L 5.8125 0 L 4.4375 -5.125 L 4.40625 -5.125 L 3.078125 0 Z M 1.859375 0 "/></g></g><g style="fill:#0661aa;fill-opacity:1;"><g transform="translate(54.495405, 119.60013)"><path style="stroke:none" d="M 2.28125 0.171875 C 1.6875 0.171875 1.195312 0.015625 0.8125 -0.296875 C 0.425781 -0.617188 0.234375 -1.046875 0.234375 -1.578125 C 0.234375 -2.066406 0.425781 -2.488281 0.8125 -2.84375 C 1.207031 -3.207031 1.835938 -3.441406 2.703125 -3.546875 L 3.84375 -3.6875 C 3.988281 -3.695312 4.109375 -3.75 4.203125 -3.84375 C 4.296875 -3.9375 4.34375 -4.054688 4.34375 -4.203125 C 4.34375 -4.566406 4.203125 -4.859375 3.921875 -5.078125 C 3.648438 -5.296875 3.296875 -5.40625 2.859375 -5.40625 C 2.535156 -5.40625 2.25 -5.335938 2 -5.203125 C 1.757812 -5.066406 1.566406 -4.882812 1.421875 -4.65625 C 1.285156 -4.4375 1.207031 -4.203125 1.1875 -3.953125 L 0.375 -4.28125 C 0.40625 -4.632812 0.53125 -4.957031 0.75 -5.25 C 0.96875 -5.550781 1.257812 -5.785156 1.625 -5.953125 C 2 -6.128906 2.421875 -6.21875 2.890625 -6.21875 C 3.597656 -6.21875 4.160156 -6.023438 4.578125 -5.640625 C 5.003906 -5.253906 5.21875 -4.734375 5.21875 -4.078125 L 5.21875 -1.0625 C 5.21875 -0.789062 5.316406 -0.65625 5.515625 -0.65625 C 5.679688 -0.65625 5.847656 -0.765625 6.015625 -0.984375 L 6.453125 -0.375 C 6.328125 -0.207031 6.15625 -0.078125 5.9375 0.015625 C 5.726562 0.117188 5.519531 0.171875 5.3125 0.171875 C 5.03125 0.171875 4.800781 0.0859375 4.625 -0.078125 C 4.457031 -0.242188 4.359375 -0.457031 4.328125 -0.71875 L 4.296875 -0.921875 C 4.097656 -0.578125 3.828125 -0.304688 3.484375 -0.109375 C 3.140625 0.078125 2.738281 0.171875 2.28125 0.171875 Z M 2.484375 -0.640625 C 2.835938 -0.640625 3.148438 -0.71875 3.421875 -0.875 C 3.703125 -1.039062 3.914062 -1.265625 4.0625 -1.546875 C 4.21875 -1.835938 4.296875 -2.171875 4.296875 -2.546875 L 4.296875 -2.953125 L 2.828125 -2.78125 C 2.222656 -2.695312 1.789062 -2.550781 1.53125 -2.34375 C 1.269531 -2.132812 1.140625 -1.890625 1.140625 -1.609375 C 1.140625 -1.316406 1.265625 -1.082031 1.515625 -0.90625 C 1.765625 -0.726562 2.085938 -0.640625 2.484375 -0.640625 Z M 2.484375 -0.640625 "/></g></g><g style="fill:#0661aa;fill-opacity:1;"><g transform="translate(62.352274, 119.60013)"><path style="stroke:none" d="M 0.59375 0 L 0.59375 -8.765625 L 1.5 -8.765625 L 1.5 0 Z M 0.59375 0 "/></g></g><g style="fill:#0661aa;fill-opacity:1;"><g transform="translate(65.857476, 119.60013)"><path style="stroke:none" d="M 0.59375 0 L 0.59375 -8.765625 L 1.5 -8.765625 L 1.5 -3.453125 L 1.515625 -3.453125 L 3.78125 -6.015625 L 4.9375 -6.015625 L 2.890625 -3.75 L 5.109375 0 L 4.046875 0 L 2.28125 -3.078125 L 1.5 -2.21875 L 1.5 0 Z M 0.59375 0 "/></g></g><g style="fill:#0661aa;fill-opacity:1;"><g transform="translate(72.367108, 119.60013)"><path style="stroke:none" d="M 1.140625 -7.1875 C 0.941406 -7.1875 0.78125 -7.25 0.65625 -7.375 C 0.539062 -7.5 0.484375 -7.660156 0.484375 -7.859375 C 0.484375 -8.054688 0.539062 -8.210938 0.65625 -8.328125 C 0.78125 -8.453125 0.941406 -8.515625 1.140625 -8.515625 C 1.335938 -8.515625 1.5 -8.453125 1.625 -8.328125 C 1.75 -8.210938 1.8125 -8.054688 1.8125 -7.859375 C 1.8125 -7.660156 1.75 -7.5 1.625 -7.375 C 1.5 -7.25 1.335938 -7.1875 1.140625 -7.1875 Z M 0.671875 0 L 0.671875 -6.015625 L 1.578125 -6.015625 L 1.578125 0 Z M 0.671875 0 "/></g></g><g style="fill:#0661aa;fill-opacity:1;"><g transform="translate(76.063065, 119.60013)"><path style="stroke:none" d="M 3.46875 -6.21875 C 4.050781 -6.21875 4.507812 -6.035156 4.84375 -5.671875 C 5.1875 -5.316406 5.359375 -4.816406 5.359375 -4.171875 L 5.359375 0 L 4.453125 0 L 4.453125 -4.09375 C 4.453125 -4.507812 4.335938 -4.832031 4.109375 -5.0625 C 3.890625 -5.300781 3.585938 -5.421875 3.203125 -5.421875 C 2.691406 -5.421875 2.28125 -5.257812 1.96875 -4.9375 C 1.65625 -4.625 1.5 -4.195312 1.5 -3.65625 L 1.5 0 L 0.59375 0 L 0.59375 -6.015625 L 1.421875 -6.015625 L 1.5 -5.203125 L 1.515625 -5.203125 C 1.929688 -5.878906 2.582031 -6.21875 3.46875 -6.21875 Z M 3.46875 -6.21875 "/></g></g><g style="fill:#0661aa;fill-opacity:1;"><g transform="translate(83.359585, 119.60013)"><path style="stroke:none" d="M 2.890625 2.703125 C 2.234375 2.703125 1.632812 2.5625 1.09375 2.28125 C 0.5625 2 0.171875 1.628906 -0.078125 1.171875 L 0.640625 0.578125 C 0.847656 0.972656 1.148438 1.289062 1.546875 1.53125 C 1.953125 1.769531 2.382812 1.890625 2.84375 1.890625 C 3.507812 1.890625 4.035156 1.6875 4.421875 1.28125 C 4.804688 0.882812 5 0.347656 5 -0.328125 L 5 -1.09375 C 4.800781 -0.738281 4.519531 -0.445312 4.15625 -0.21875 C 3.789062 0.0078125 3.410156 0.125 3.015625 0.125 C 2.492188 0.125 2.035156 -0.00390625 1.640625 -0.265625 C 1.242188 -0.535156 0.929688 -0.90625 0.703125 -1.375 C 0.484375 -1.851562 0.375 -2.410156 0.375 -3.046875 C 0.375 -3.679688 0.484375 -4.234375 0.703125 -4.703125 C 0.929688 -5.171875 1.242188 -5.539062 1.640625 -5.8125 C 2.035156 -6.082031 2.492188 -6.21875 3.015625 -6.21875 C 3.429688 -6.21875 3.816406 -6.113281 4.171875 -5.90625 C 4.535156 -5.695312 4.8125 -5.421875 5 -5.078125 L 5.015625 -5.078125 L 5.109375 -6.015625 L 5.90625 -6.015625 L 5.921875 -0.328125 C 5.921875 0.285156 5.796875 0.820312 5.546875 1.28125 C 5.304688 1.738281 4.957031 2.085938 4.5 2.328125 C 4.039062 2.578125 3.503906 2.703125 2.890625 2.703125 Z M 3.171875 -0.703125 C 3.546875 -0.703125 3.867188 -0.800781 4.140625 -1 C 4.421875 -1.207031 4.640625 -1.484375 4.796875 -1.828125 C 4.953125 -2.179688 5.03125 -2.585938 5.03125 -3.046875 C 5.03125 -3.503906 4.953125 -3.910156 4.796875 -4.265625 C 4.640625 -4.617188 4.421875 -4.894531 4.140625 -5.09375 C 3.867188 -5.300781 3.546875 -5.40625 3.171875 -5.40625 C 2.796875 -5.40625 2.46875 -5.300781 2.1875 -5.09375 C 1.90625 -4.894531 1.679688 -4.617188 1.515625 -4.265625 C 1.359375 -3.921875 1.28125 -3.515625 1.28125 -3.046875 C 1.28125 -2.578125 1.359375 -2.164062 1.515625 -1.8125 C 1.679688 -1.46875 1.90625 -1.195312 2.1875 -1 C 2.46875 -0.800781 2.796875 -0.703125 3.171875 -0.703125 Z M 3.171875 -0.703125 "/></g></g></g></svg>