<svg xmlns="http://www.w3.org/2000/svg" xmlns:xlink="http://www.w3.org/1999/xlink" width="180" zoomAndPan="magnify" viewBox="0 0 135 161.249994" height="215" preserveAspectRatio="xMidYMid meet" version="1.0"><defs><g/><clipPath id="c73694be92"><path d="M 52.679688 16.089844 L 82 16.089844 L 82 60.882812 L 52.679688 60.882812 Z M 52.679688 16.089844 " clip-rule="nonzero"/></clipPath></defs><g fill="#2d6d5e" fill-opacity="1"><g transform="translate(23.019851, 128.845756)"><g><path d="M 2.203125 -7.8125 C 2.972656 -7.8125 3.539062 -7.625 3.90625 -7.25 C 4.269531 -6.882812 4.453125 -6.304688 4.453125 -5.515625 C 4.453125 -5.117188 4.40625 -4.765625 4.3125 -4.453125 C 4.21875 -4.148438 4.078125 -3.894531 3.890625 -3.6875 C 3.703125 -3.488281 3.460938 -3.335938 3.171875 -3.234375 C 2.890625 -3.128906 2.5625 -3.078125 2.1875 -3.078125 L 1.65625 -3.078125 L 1.65625 0 L 0.8125 0 L 0.8125 -7.8125 Z M 2.171875 -7.0625 L 1.65625 -7.0625 L 1.65625 -3.828125 L 2.109375 -3.828125 C 2.453125 -3.828125 2.734375 -3.882812 2.953125 -4 C 3.171875 -4.113281 3.328125 -4.289062 3.421875 -4.53125 C 3.523438 -4.78125 3.578125 -5.109375 3.578125 -5.515625 C 3.578125 -6.066406 3.460938 -6.460938 3.234375 -6.703125 C 3.003906 -6.941406 2.648438 -7.0625 2.171875 -7.0625 Z M 2.171875 -7.0625 "/></g></g></g><g fill="#2d6d5e" fill-opacity="1"><g transform="translate(29.339524, 128.845756)"><g><path d="M 2.28125 -5.96875 C 2.820312 -5.96875 3.207031 -5.796875 3.4375 -5.453125 C 3.675781 -5.109375 3.796875 -4.609375 3.796875 -3.953125 L 3.796875 0 L 3.171875 0 L 3.046875 -0.828125 L 3.015625 -0.828125 C 2.929688 -0.628906 2.820312 -0.457031 2.6875 -0.3125 C 2.5625 -0.175781 2.414062 -0.0703125 2.25 0 C 2.09375 0.0703125 1.90625 0.109375 1.6875 0.109375 C 1.382812 0.109375 1.132812 0.03125 0.9375 -0.125 C 0.75 -0.289062 0.609375 -0.503906 0.515625 -0.765625 C 0.421875 -1.023438 0.375 -1.304688 0.375 -1.609375 C 0.375 -2.191406 0.539062 -2.640625 0.875 -2.953125 C 1.21875 -3.273438 1.695312 -3.453125 2.3125 -3.484375 L 2.96875 -3.53125 L 2.96875 -3.9375 C 2.96875 -4.40625 2.90625 -4.742188 2.78125 -4.953125 C 2.65625 -5.171875 2.445312 -5.28125 2.15625 -5.28125 C 2 -5.28125 1.828125 -5.25 1.640625 -5.1875 C 1.460938 -5.132812 1.269531 -5.046875 1.0625 -4.921875 L 0.796875 -5.546875 C 1.015625 -5.691406 1.25 -5.796875 1.5 -5.859375 C 1.757812 -5.929688 2.019531 -5.96875 2.28125 -5.96875 Z M 2.984375 -2.921875 L 2.4375 -2.890625 C 2.03125 -2.867188 1.722656 -2.753906 1.515625 -2.546875 C 1.316406 -2.335938 1.21875 -2.035156 1.21875 -1.640625 C 1.21875 -1.265625 1.28125 -0.988281 1.40625 -0.8125 C 1.539062 -0.644531 1.722656 -0.5625 1.953125 -0.5625 C 2.285156 -0.5625 2.539062 -0.71875 2.71875 -1.03125 C 2.894531 -1.34375 2.984375 -1.773438 2.984375 -2.328125 Z M 2.984375 -2.921875 "/></g></g></g><g fill="#2d6d5e" fill-opacity="1"><g transform="translate(35.365364, 128.845756)"><g><path d="M 2.671875 -5.96875 C 2.753906 -5.96875 2.835938 -5.957031 2.921875 -5.9375 C 3.003906 -5.925781 3.085938 -5.910156 3.171875 -5.890625 L 3.046875 -5.046875 C 2.984375 -5.066406 2.914062 -5.082031 2.84375 -5.09375 C 2.769531 -5.101562 2.691406 -5.109375 2.609375 -5.109375 C 2.453125 -5.109375 2.304688 -5.054688 2.171875 -4.953125 C 2.035156 -4.847656 1.921875 -4.703125 1.828125 -4.515625 C 1.734375 -4.328125 1.660156 -4.109375 1.609375 -3.859375 C 1.554688 -3.609375 1.53125 -3.34375 1.53125 -3.0625 L 1.53125 0 L 0.71875 0 L 0.71875 -5.859375 L 1.359375 -5.859375 L 1.46875 -4.828125 L 1.515625 -4.828125 C 1.597656 -5.046875 1.691406 -5.238281 1.796875 -5.40625 C 1.910156 -5.582031 2.039062 -5.71875 2.1875 -5.8125 C 2.332031 -5.914062 2.492188 -5.96875 2.671875 -5.96875 Z M 2.671875 -5.96875 "/></g></g></g><g fill="#2d6d5e" fill-opacity="1"><g transform="translate(40.178472, 128.845756)"><g><path d="M 2.28125 -5.96875 C 2.820312 -5.96875 3.207031 -5.796875 3.4375 -5.453125 C 3.675781 -5.109375 3.796875 -4.609375 3.796875 -3.953125 L 3.796875 0 L 3.171875 0 L 3.046875 -0.828125 L 3.015625 -0.828125 C 2.929688 -0.628906 2.820312 -0.457031 2.6875 -0.3125 C 2.5625 -0.175781 2.414062 -0.0703125 2.25 0 C 2.09375 0.0703125 1.90625 0.109375 1.6875 0.109375 C 1.382812 0.109375 1.132812 0.03125 0.9375 -0.125 C 0.75 -0.289062 0.609375 -0.503906 0.515625 -0.765625 C 0.421875 -1.023438 0.375 -1.304688 0.375 -1.609375 C 0.375 -2.191406 0.539062 -2.640625 0.875 -2.953125 C 1.21875 -3.273438 1.695312 -3.453125 2.3125 -3.484375 L 2.96875 -3.53125 L 2.96875 -3.9375 C 2.96875 -4.40625 2.90625 -4.742188 2.78125 -4.953125 C 2.65625 -5.171875 2.445312 -5.28125 2.15625 -5.28125 C 2 -5.28125 1.828125 -5.25 1.640625 -5.1875 C 1.460938 -5.132812 1.269531 -5.046875 1.0625 -4.921875 L 0.796875 -5.546875 C 1.015625 -5.691406 1.25 -5.796875 1.5 -5.859375 C 1.757812 -5.929688 2.019531 -5.96875 2.28125 -5.96875 Z M 2.984375 -2.921875 L 2.4375 -2.890625 C 2.03125 -2.867188 1.722656 -2.753906 1.515625 -2.546875 C 1.316406 -2.335938 1.21875 -2.035156 1.21875 -1.640625 C 1.21875 -1.265625 1.28125 -0.988281 1.40625 -0.8125 C 1.539062 -0.644531 1.722656 -0.5625 1.953125 -0.5625 C 2.285156 -0.5625 2.539062 -0.71875 2.71875 -1.03125 C 2.894531 -1.34375 2.984375 -1.773438 2.984375 -2.328125 Z M 2.984375 -2.921875 "/></g></g></g><g fill="#2d6d5e" fill-opacity="1"><g transform="translate(46.204312, 128.845756)"><g/></g></g><g fill="#2d6d5e" fill-opacity="1"><g transform="translate(49.767291, 128.845756)"><g><path d="M 2.671875 -5.96875 C 2.753906 -5.96875 2.835938 -5.957031 2.921875 -5.9375 C 3.003906 -5.925781 3.085938 -5.910156 3.171875 -5.890625 L 3.046875 -5.046875 C 2.984375 -5.066406 2.914062 -5.082031 2.84375 -5.09375 C 2.769531 -5.101562 2.691406 -5.109375 2.609375 -5.109375 C 2.453125 -5.109375 2.304688 -5.054688 2.171875 -4.953125 C 2.035156 -4.847656 1.921875 -4.703125 1.828125 -4.515625 C 1.734375 -4.328125 1.660156 -4.109375 1.609375 -3.859375 C 1.554688 -3.609375 1.53125 -3.34375 1.53125 -3.0625 L 1.53125 0 L 0.71875 0 L 0.71875 -5.859375 L 1.359375 -5.859375 L 1.46875 -4.828125 L 1.515625 -4.828125 C 1.597656 -5.046875 1.691406 -5.238281 1.796875 -5.40625 C 1.910156 -5.582031 2.039062 -5.71875 2.1875 -5.8125 C 2.332031 -5.914062 2.492188 -5.96875 2.671875 -5.96875 Z M 2.671875 -5.96875 "/></g></g></g><g fill="#2d6d5e" fill-opacity="1"><g transform="translate(54.580399, 128.845756)"><g><path d="M 2.328125 -5.953125 C 2.722656 -5.953125 3.050781 -5.835938 3.3125 -5.609375 C 3.570312 -5.378906 3.765625 -5.066406 3.890625 -4.671875 C 4.015625 -4.285156 4.078125 -3.851562 4.078125 -3.375 L 4.078125 -2.78125 L 1.28125 -2.78125 C 1.289062 -2.050781 1.40625 -1.503906 1.625 -1.140625 C 1.84375 -0.773438 2.171875 -0.59375 2.609375 -0.59375 C 2.828125 -0.59375 3.035156 -0.625 3.234375 -0.6875 C 3.441406 -0.75 3.648438 -0.851562 3.859375 -1 L 3.859375 -0.265625 C 3.660156 -0.140625 3.453125 -0.046875 3.234375 0.015625 C 3.015625 0.078125 2.78125 0.109375 2.53125 0.109375 C 2.039062 0.109375 1.644531 -0.0195312 1.34375 -0.28125 C 1.039062 -0.539062 0.816406 -0.898438 0.671875 -1.359375 C 0.535156 -1.816406 0.46875 -2.332031 0.46875 -2.90625 C 0.46875 -3.550781 0.535156 -4.101562 0.671875 -4.5625 C 0.816406 -5.019531 1.023438 -5.363281 1.296875 -5.59375 C 1.578125 -5.832031 1.921875 -5.953125 2.328125 -5.953125 Z M 2.328125 -5.28125 C 2.015625 -5.28125 1.769531 -5.128906 1.59375 -4.828125 C 1.425781 -4.535156 1.328125 -4.070312 1.296875 -3.4375 L 3.3125 -3.4375 C 3.3125 -3.769531 3.273438 -4.078125 3.203125 -4.359375 C 3.140625 -4.640625 3.035156 -4.863281 2.890625 -5.03125 C 2.742188 -5.195312 2.554688 -5.28125 2.328125 -5.28125 Z M 2.328125 -5.28125 "/></g></g></g><g fill="#2d6d5e" fill-opacity="1"><g transform="translate(60.638294, 128.845756)"><g><path d="M 2.40625 0.109375 C 1.976562 0.109375 1.617188 0 1.328125 -0.21875 C 1.046875 -0.445312 0.832031 -0.785156 0.6875 -1.234375 C 0.539062 -1.679688 0.46875 -2.234375 0.46875 -2.890625 C 0.46875 -3.535156 0.539062 -4.085938 0.6875 -4.546875 C 0.832031 -5.003906 1.050781 -5.351562 1.34375 -5.59375 C 1.632812 -5.84375 2 -5.96875 2.4375 -5.96875 C 2.65625 -5.96875 2.851562 -5.941406 3.03125 -5.890625 C 3.207031 -5.847656 3.375 -5.785156 3.53125 -5.703125 L 3.265625 -5.03125 C 3.140625 -5.09375 3.007812 -5.140625 2.875 -5.171875 C 2.75 -5.210938 2.625 -5.234375 2.5 -5.234375 C 2.238281 -5.234375 2.019531 -5.144531 1.84375 -4.96875 C 1.675781 -4.789062 1.546875 -4.53125 1.453125 -4.1875 C 1.359375 -3.84375 1.3125 -3.414062 1.3125 -2.90625 C 1.3125 -2.394531 1.351562 -1.96875 1.4375 -1.625 C 1.53125 -1.289062 1.664062 -1.035156 1.84375 -0.859375 C 2.019531 -0.691406 2.238281 -0.609375 2.5 -0.609375 C 2.65625 -0.609375 2.8125 -0.628906 2.96875 -0.671875 C 3.132812 -0.722656 3.300781 -0.789062 3.46875 -0.875 L 3.46875 -0.1875 C 3.3125 -0.09375 3.132812 -0.0195312 2.9375 0.03125 C 2.75 0.0820312 2.570312 0.109375 2.40625 0.109375 Z M 2.40625 0.109375 "/></g></g></g><g fill="#2d6d5e" fill-opacity="1"><g transform="translate(65.926878, 128.845756)"><g><path d="M 4.21875 -5.859375 L 4.21875 0 L 3.5625 0 L 3.46875 -0.828125 L 3.40625 -0.828125 C 3.332031 -0.640625 3.226562 -0.472656 3.09375 -0.328125 C 2.96875 -0.191406 2.820312 -0.0820312 2.65625 0 C 2.5 0.0703125 2.316406 0.109375 2.109375 0.109375 C 1.773438 0.109375 1.503906 0.0234375 1.296875 -0.140625 C 1.085938 -0.316406 0.929688 -0.5625 0.828125 -0.875 C 0.734375 -1.195312 0.6875 -1.578125 0.6875 -2.015625 L 0.6875 -5.859375 L 1.515625 -5.859375 L 1.515625 -2.171875 C 1.515625 -1.640625 1.578125 -1.25 1.703125 -1 C 1.828125 -0.75 2.015625 -0.625 2.265625 -0.625 C 2.535156 -0.625 2.753906 -0.695312 2.921875 -0.84375 C 3.085938 -1 3.207031 -1.234375 3.28125 -1.546875 C 3.351562 -1.859375 3.390625 -2.25 3.390625 -2.71875 L 3.390625 -5.859375 Z M 4.21875 -5.859375 "/></g></g></g><g fill="#2d6d5e" fill-opacity="1"><g transform="translate(72.390797, 128.845756)"><g><path d="M 2.828125 -5.96875 C 3.390625 -5.96875 3.816406 -5.710938 4.109375 -5.203125 C 4.398438 -4.703125 4.546875 -3.945312 4.546875 -2.9375 C 4.546875 -2.289062 4.476562 -1.738281 4.34375 -1.28125 C 4.21875 -0.832031 4.03125 -0.488281 3.78125 -0.25 C 3.53125 -0.0078125 3.226562 0.109375 2.875 0.109375 C 2.675781 0.109375 2.488281 0.0703125 2.3125 0 C 2.144531 -0.0820312 1.992188 -0.191406 1.859375 -0.328125 C 1.734375 -0.472656 1.625 -0.640625 1.53125 -0.828125 L 1.5 -0.828125 C 1.507812 -0.679688 1.515625 -0.539062 1.515625 -0.40625 C 1.523438 -0.28125 1.53125 -0.160156 1.53125 -0.046875 L 1.53125 2.609375 L 0.71875 2.609375 L 0.71875 -5.859375 L 1.390625 -5.859375 L 1.484375 -5 L 1.53125 -5 C 1.632812 -5.21875 1.75 -5.394531 1.875 -5.53125 C 2.007812 -5.675781 2.15625 -5.785156 2.3125 -5.859375 C 2.46875 -5.929688 2.640625 -5.96875 2.828125 -5.96875 Z M 2.65625 -5.265625 C 2.40625 -5.265625 2.195312 -5.1875 2.03125 -5.03125 C 1.875 -4.875 1.75 -4.632812 1.65625 -4.3125 C 1.570312 -4 1.53125 -3.601562 1.53125 -3.125 L 1.53125 -2.84375 C 1.53125 -2.34375 1.570312 -1.925781 1.65625 -1.59375 C 1.75 -1.257812 1.878906 -1.007812 2.046875 -0.84375 C 2.210938 -0.6875 2.421875 -0.609375 2.671875 -0.609375 C 2.898438 -0.609375 3.09375 -0.691406 3.25 -0.859375 C 3.40625 -1.023438 3.519531 -1.273438 3.59375 -1.609375 C 3.675781 -1.953125 3.71875 -2.394531 3.71875 -2.9375 C 3.71875 -3.707031 3.632812 -4.285156 3.46875 -4.671875 C 3.300781 -5.066406 3.03125 -5.265625 2.65625 -5.265625 Z M 2.65625 -5.265625 "/></g></g></g><g fill="#2d6d5e" fill-opacity="1"><g transform="translate(78.92951, 128.845756)"><g><path d="M 2.328125 -5.953125 C 2.722656 -5.953125 3.050781 -5.835938 3.3125 -5.609375 C 3.570312 -5.378906 3.765625 -5.066406 3.890625 -4.671875 C 4.015625 -4.285156 4.078125 -3.851562 4.078125 -3.375 L 4.078125 -2.78125 L 1.28125 -2.78125 C 1.289062 -2.050781 1.40625 -1.503906 1.625 -1.140625 C 1.84375 -0.773438 2.171875 -0.59375 2.609375 -0.59375 C 2.828125 -0.59375 3.035156 -0.625 3.234375 -0.6875 C 3.441406 -0.75 3.648438 -0.851562 3.859375 -1 L 3.859375 -0.265625 C 3.660156 -0.140625 3.453125 -0.046875 3.234375 0.015625 C 3.015625 0.078125 2.78125 0.109375 2.53125 0.109375 C 2.039062 0.109375 1.644531 -0.0195312 1.34375 -0.28125 C 1.039062 -0.539062 0.816406 -0.898438 0.671875 -1.359375 C 0.535156 -1.816406 0.46875 -2.332031 0.46875 -2.90625 C 0.46875 -3.550781 0.535156 -4.101562 0.671875 -4.5625 C 0.816406 -5.019531 1.023438 -5.363281 1.296875 -5.59375 C 1.578125 -5.832031 1.921875 -5.953125 2.328125 -5.953125 Z M 2.328125 -5.28125 C 2.015625 -5.28125 1.769531 -5.128906 1.59375 -4.828125 C 1.425781 -4.535156 1.328125 -4.070312 1.296875 -3.4375 L 3.3125 -3.4375 C 3.3125 -3.769531 3.273438 -4.078125 3.203125 -4.359375 C 3.140625 -4.640625 3.035156 -4.863281 2.890625 -5.03125 C 2.742188 -5.195312 2.554688 -5.28125 2.328125 -5.28125 Z M 2.328125 -5.28125 "/></g></g></g><g fill="#2d6d5e" fill-opacity="1"><g transform="translate(84.987404, 128.845756)"><g><path d="M 2.671875 -5.96875 C 2.753906 -5.96875 2.835938 -5.957031 2.921875 -5.9375 C 3.003906 -5.925781 3.085938 -5.910156 3.171875 -5.890625 L 3.046875 -5.046875 C 2.984375 -5.066406 2.914062 -5.082031 2.84375 -5.09375 C 2.769531 -5.101562 2.691406 -5.109375 2.609375 -5.109375 C 2.453125 -5.109375 2.304688 -5.054688 2.171875 -4.953125 C 2.035156 -4.847656 1.921875 -4.703125 1.828125 -4.515625 C 1.734375 -4.328125 1.660156 -4.109375 1.609375 -3.859375 C 1.554688 -3.609375 1.53125 -3.34375 1.53125 -3.0625 L 1.53125 0 L 0.71875 0 L 0.71875 -5.859375 L 1.359375 -5.859375 L 1.46875 -4.828125 L 1.515625 -4.828125 C 1.597656 -5.046875 1.691406 -5.238281 1.796875 -5.40625 C 1.910156 -5.582031 2.039062 -5.71875 2.1875 -5.8125 C 2.332031 -5.914062 2.492188 -5.96875 2.671875 -5.96875 Z M 2.671875 -5.96875 "/></g></g></g><g fill="#2d6d5e" fill-opacity="1"><g transform="translate(89.800512, 128.845756)"><g><path d="M 2.28125 -5.96875 C 2.820312 -5.96875 3.207031 -5.796875 3.4375 -5.453125 C 3.675781 -5.109375 3.796875 -4.609375 3.796875 -3.953125 L 3.796875 0 L 3.171875 0 L 3.046875 -0.828125 L 3.015625 -0.828125 C 2.929688 -0.628906 2.820312 -0.457031 2.6875 -0.3125 C 2.5625 -0.175781 2.414062 -0.0703125 2.25 0 C 2.09375 0.0703125 1.90625 0.109375 1.6875 0.109375 C 1.382812 0.109375 1.132812 0.03125 0.9375 -0.125 C 0.75 -0.289062 0.609375 -0.503906 0.515625 -0.765625 C 0.421875 -1.023438 0.375 -1.304688 0.375 -1.609375 C 0.375 -2.191406 0.539062 -2.640625 0.875 -2.953125 C 1.21875 -3.273438 1.695312 -3.453125 2.3125 -3.484375 L 2.96875 -3.53125 L 2.96875 -3.9375 C 2.96875 -4.40625 2.90625 -4.742188 2.78125 -4.953125 C 2.65625 -5.171875 2.445312 -5.28125 2.15625 -5.28125 C 2 -5.28125 1.828125 -5.25 1.640625 -5.1875 C 1.460938 -5.132812 1.269531 -5.046875 1.0625 -4.921875 L 0.796875 -5.546875 C 1.015625 -5.691406 1.25 -5.796875 1.5 -5.859375 C 1.757812 -5.929688 2.019531 -5.96875 2.28125 -5.96875 Z M 2.984375 -2.921875 L 2.4375 -2.890625 C 2.03125 -2.867188 1.722656 -2.753906 1.515625 -2.546875 C 1.316406 -2.335938 1.21875 -2.035156 1.21875 -1.640625 C 1.21875 -1.265625 1.28125 -0.988281 1.40625 -0.8125 C 1.539062 -0.644531 1.722656 -0.5625 1.953125 -0.5625 C 2.285156 -0.5625 2.539062 -0.71875 2.71875 -1.03125 C 2.894531 -1.34375 2.984375 -1.773438 2.984375 -2.328125 Z M 2.984375 -2.921875 "/></g></g></g><g fill="#2d6d5e" fill-opacity="1"><g transform="translate(95.826352, 128.845756)"><g><path d="M 2.40625 0.109375 C 1.976562 0.109375 1.617188 0 1.328125 -0.21875 C 1.046875 -0.445312 0.832031 -0.785156 0.6875 -1.234375 C 0.539062 -1.679688 0.46875 -2.234375 0.46875 -2.890625 C 0.46875 -3.535156 0.539062 -4.085938 0.6875 -4.546875 C 0.832031 -5.003906 1.050781 -5.351562 1.34375 -5.59375 C 1.632812 -5.84375 2 -5.96875 2.4375 -5.96875 C 2.65625 -5.96875 2.851562 -5.941406 3.03125 -5.890625 C 3.207031 -5.847656 3.375 -5.785156 3.53125 -5.703125 L 3.265625 -5.03125 C 3.140625 -5.09375 3.007812 -5.140625 2.875 -5.171875 C 2.75 -5.210938 2.625 -5.234375 2.5 -5.234375 C 2.238281 -5.234375 2.019531 -5.144531 1.84375 -4.96875 C 1.675781 -4.789062 1.546875 -4.53125 1.453125 -4.1875 C 1.359375 -3.84375 1.3125 -3.414062 1.3125 -2.90625 C 1.3125 -2.394531 1.351562 -1.96875 1.4375 -1.625 C 1.53125 -1.289062 1.664062 -1.035156 1.84375 -0.859375 C 2.019531 -0.691406 2.238281 -0.609375 2.5 -0.609375 C 2.65625 -0.609375 2.8125 -0.628906 2.96875 -0.671875 C 3.132812 -0.722656 3.300781 -0.789062 3.46875 -0.875 L 3.46875 -0.1875 C 3.3125 -0.09375 3.132812 -0.0195312 2.9375 0.03125 C 2.75 0.0820312 2.570312 0.109375 2.40625 0.109375 Z M 3.3125 1.515625 C 3.3125 1.867188 3.195312 2.140625 2.96875 2.328125 C 2.738281 2.523438 2.425781 2.625 2.03125 2.625 C 1.90625 2.625 1.789062 2.617188 1.6875 2.609375 C 1.582031 2.597656 1.492188 2.582031 1.421875 2.5625 L 1.421875 2.015625 C 1.492188 2.035156 1.570312 2.050781 1.65625 2.0625 C 1.738281 2.070312 1.820312 2.078125 1.90625 2.078125 C 2.144531 2.078125 2.320312 2.023438 2.4375 1.921875 C 2.5625 1.816406 2.625 1.679688 2.625 1.515625 C 2.625 1.316406 2.546875 1.164062 2.390625 1.0625 C 2.234375 0.96875 2.023438 0.898438 1.765625 0.859375 L 2.140625 0 L 2.640625 0 L 2.40625 0.5625 C 2.601562 0.601562 2.769531 0.664062 2.90625 0.75 C 3.039062 0.832031 3.140625 0.9375 3.203125 1.0625 C 3.273438 1.195312 3.3125 1.347656 3.3125 1.515625 Z M 3.3125 1.515625 "/></g></g></g><g fill="#2d6d5e" fill-opacity="1"><g transform="translate(101.114936, 128.845756)"><g><path d="M 2.28125 -5.96875 C 2.820312 -5.96875 3.207031 -5.796875 3.4375 -5.453125 C 3.675781 -5.109375 3.796875 -4.609375 3.796875 -3.953125 L 3.796875 0 L 3.171875 0 L 3.046875 -0.828125 L 3.015625 -0.828125 C 2.929688 -0.628906 2.820312 -0.457031 2.6875 -0.3125 C 2.5625 -0.175781 2.414062 -0.0703125 2.25 0 C 2.09375 0.0703125 1.90625 0.109375 1.6875 0.109375 C 1.382812 0.109375 1.132812 0.03125 0.9375 -0.125 C 0.75 -0.289062 0.609375 -0.503906 0.515625 -0.765625 C 0.421875 -1.023438 0.375 -1.304688 0.375 -1.609375 C 0.375 -2.191406 0.539062 -2.640625 0.875 -2.953125 C 1.21875 -3.273438 1.695312 -3.453125 2.3125 -3.484375 L 2.96875 -3.53125 L 2.96875 -3.9375 C 2.96875 -4.40625 2.90625 -4.742188 2.78125 -4.953125 C 2.65625 -5.171875 2.445312 -5.28125 2.15625 -5.28125 C 2 -5.28125 1.828125 -5.25 1.640625 -5.1875 C 1.460938 -5.132812 1.269531 -5.046875 1.0625 -4.921875 L 0.796875 -5.546875 C 1.015625 -5.691406 1.25 -5.796875 1.5 -5.859375 C 1.757812 -5.929688 2.019531 -5.96875 2.28125 -5.96875 Z M 2.984375 -2.921875 L 2.4375 -2.890625 C 2.03125 -2.867188 1.722656 -2.753906 1.515625 -2.546875 C 1.316406 -2.335938 1.21875 -2.035156 1.21875 -1.640625 C 1.21875 -1.265625 1.28125 -0.988281 1.40625 -0.8125 C 1.539062 -0.644531 1.722656 -0.5625 1.953125 -0.5625 C 2.285156 -0.5625 2.539062 -0.71875 2.71875 -1.03125 C 2.894531 -1.34375 2.984375 -1.773438 2.984375 -2.328125 Z M 0.703125 -6.640625 C 0.722656 -6.804688 0.75 -6.96875 0.78125 -7.125 C 0.820312 -7.28125 0.878906 -7.414062 0.953125 -7.53125 C 1.023438 -7.65625 1.113281 -7.75 1.21875 -7.8125 C 1.320312 -7.882812 1.445312 -7.921875 1.59375 -7.921875 C 1.726562 -7.921875 1.851562 -7.890625 1.96875 -7.828125 C 2.09375 -7.765625 2.210938 -7.691406 2.328125 -7.609375 C 2.441406 -7.523438 2.550781 -7.453125 2.65625 -7.390625 C 2.769531 -7.328125 2.878906 -7.296875 2.984375 -7.296875 C 3.097656 -7.296875 3.179688 -7.351562 3.234375 -7.46875 C 3.296875 -7.582031 3.34375 -7.738281 3.375 -7.9375 L 3.890625 -7.9375 C 3.867188 -7.519531 3.773438 -7.195312 3.609375 -6.96875 C 3.453125 -6.75 3.253906 -6.640625 3.015625 -6.640625 C 2.878906 -6.640625 2.75 -6.671875 2.625 -6.734375 C 2.5 -6.804688 2.378906 -6.882812 2.265625 -6.96875 C 2.148438 -7.050781 2.039062 -7.125 1.9375 -7.1875 C 1.832031 -7.25 1.734375 -7.28125 1.640625 -7.28125 C 1.546875 -7.28125 1.457031 -7.222656 1.375 -7.109375 C 1.300781 -6.992188 1.25 -6.835938 1.21875 -6.640625 Z M 0.703125 -6.640625 "/></g></g></g><g fill="#2d6d5e" fill-opacity="1"><g transform="translate(107.140776, 128.845756)"><g><path d="M 4.359375 -2.9375 C 4.359375 -2.476562 4.316406 -2.0625 4.234375 -1.6875 C 4.160156 -1.3125 4.039062 -0.988281 3.875 -0.71875 C 3.71875 -0.457031 3.515625 -0.253906 3.265625 -0.109375 C 3.023438 0.0351562 2.734375 0.109375 2.390625 0.109375 C 2.078125 0.109375 1.796875 0.0351562 1.546875 -0.109375 C 1.304688 -0.253906 1.101562 -0.457031 0.9375 -0.71875 C 0.78125 -0.976562 0.660156 -1.296875 0.578125 -1.671875 C 0.503906 -2.054688 0.46875 -2.476562 0.46875 -2.9375 C 0.46875 -3.582031 0.535156 -4.128906 0.671875 -4.578125 C 0.804688 -5.035156 1.019531 -5.378906 1.3125 -5.609375 C 1.601562 -5.847656 1.96875 -5.96875 2.40625 -5.96875 C 2.820312 -5.96875 3.175781 -5.851562 3.46875 -5.625 C 3.757812 -5.394531 3.976562 -5.054688 4.125 -4.609375 C 4.28125 -4.160156 4.359375 -3.601562 4.359375 -2.9375 Z M 1.296875 -2.9375 C 1.296875 -2.425781 1.332031 -2 1.40625 -1.65625 C 1.488281 -1.3125 1.613281 -1.050781 1.78125 -0.875 C 1.945312 -0.695312 2.160156 -0.609375 2.421875 -0.609375 C 2.671875 -0.609375 2.875 -0.691406 3.03125 -0.859375 C 3.195312 -1.035156 3.316406 -1.296875 3.390625 -1.640625 C 3.472656 -1.984375 3.515625 -2.414062 3.515625 -2.9375 C 3.515625 -3.445312 3.472656 -3.875 3.390625 -4.21875 C 3.316406 -4.5625 3.195312 -4.816406 3.03125 -4.984375 C 2.875 -5.160156 2.664062 -5.25 2.40625 -5.25 C 2.019531 -5.25 1.738281 -5.054688 1.5625 -4.671875 C 1.382812 -4.285156 1.296875 -3.707031 1.296875 -2.9375 Z M 1.296875 -2.9375 "/></g></g></g><g fill="#2d6d5e" fill-opacity="1"><g transform="translate(41.053161, 141.536727)"><g><path d="M 2.828125 -5.96875 C 3.390625 -5.96875 3.816406 -5.710938 4.109375 -5.203125 C 4.398438 -4.703125 4.546875 -3.945312 4.546875 -2.9375 C 4.546875 -2.289062 4.476562 -1.738281 4.34375 -1.28125 C 4.21875 -0.832031 4.03125 -0.488281 3.78125 -0.25 C 3.53125 -0.0078125 3.226562 0.109375 2.875 0.109375 C 2.675781 0.109375 2.488281 0.0703125 2.3125 0 C 2.144531 -0.0820312 1.992188 -0.191406 1.859375 -0.328125 C 1.734375 -0.472656 1.625 -0.640625 1.53125 -0.828125 L 1.5 -0.828125 C 1.507812 -0.679688 1.515625 -0.539062 1.515625 -0.40625 C 1.523438 -0.28125 1.53125 -0.160156 1.53125 -0.046875 L 1.53125 2.609375 L 0.71875 2.609375 L 0.71875 -5.859375 L 1.390625 -5.859375 L 1.484375 -5 L 1.53125 -5 C 1.632812 -5.21875 1.75 -5.394531 1.875 -5.53125 C 2.007812 -5.675781 2.15625 -5.785156 2.3125 -5.859375 C 2.46875 -5.929688 2.640625 -5.96875 2.828125 -5.96875 Z M 2.65625 -5.265625 C 2.40625 -5.265625 2.195312 -5.1875 2.03125 -5.03125 C 1.875 -4.875 1.75 -4.632812 1.65625 -4.3125 C 1.570312 -4 1.53125 -3.601562 1.53125 -3.125 L 1.53125 -2.84375 C 1.53125 -2.34375 1.570312 -1.925781 1.65625 -1.59375 C 1.75 -1.257812 1.878906 -1.007812 2.046875 -0.84375 C 2.210938 -0.6875 2.421875 -0.609375 2.671875 -0.609375 C 2.898438 -0.609375 3.09375 -0.691406 3.25 -0.859375 C 3.40625 -1.023438 3.519531 -1.273438 3.59375 -1.609375 C 3.675781 -1.953125 3.71875 -2.394531 3.71875 -2.9375 C 3.71875 -3.707031 3.632812 -4.285156 3.46875 -4.671875 C 3.300781 -5.066406 3.03125 -5.265625 2.65625 -5.265625 Z M 2.65625 -5.265625 "/></g></g></g><g fill="#2d6d5e" fill-opacity="1"><g transform="translate(47.591874, 141.536727)"><g><path d="M 4.359375 -2.9375 C 4.359375 -2.476562 4.316406 -2.0625 4.234375 -1.6875 C 4.160156 -1.3125 4.039062 -0.988281 3.875 -0.71875 C 3.71875 -0.457031 3.515625 -0.253906 3.265625 -0.109375 C 3.023438 0.0351562 2.734375 0.109375 2.390625 0.109375 C 2.078125 0.109375 1.796875 0.0351562 1.546875 -0.109375 C 1.304688 -0.253906 1.101562 -0.457031 0.9375 -0.71875 C 0.78125 -0.976562 0.660156 -1.296875 0.578125 -1.671875 C 0.503906 -2.054688 0.46875 -2.476562 0.46875 -2.9375 C 0.46875 -3.582031 0.535156 -4.128906 0.671875 -4.578125 C 0.804688 -5.035156 1.019531 -5.378906 1.3125 -5.609375 C 1.601562 -5.847656 1.96875 -5.96875 2.40625 -5.96875 C 2.820312 -5.96875 3.175781 -5.851562 3.46875 -5.625 C 3.757812 -5.394531 3.976562 -5.054688 4.125 -4.609375 C 4.28125 -4.160156 4.359375 -3.601562 4.359375 -2.9375 Z M 1.296875 -2.9375 C 1.296875 -2.425781 1.332031 -2 1.40625 -1.65625 C 1.488281 -1.3125 1.613281 -1.050781 1.78125 -0.875 C 1.945312 -0.695312 2.160156 -0.609375 2.421875 -0.609375 C 2.671875 -0.609375 2.875 -0.691406 3.03125 -0.859375 C 3.195312 -1.035156 3.316406 -1.296875 3.390625 -1.640625 C 3.472656 -1.984375 3.515625 -2.414062 3.515625 -2.9375 C 3.515625 -3.445312 3.472656 -3.875 3.390625 -4.21875 C 3.316406 -4.5625 3.195312 -4.816406 3.03125 -4.984375 C 2.875 -5.160156 2.664062 -5.25 2.40625 -5.25 C 2.019531 -5.25 1.738281 -5.054688 1.5625 -4.671875 C 1.382812 -4.285156 1.296875 -3.707031 1.296875 -2.9375 Z M 3.828125 -8.375 L 3.828125 -8.28125 C 3.753906 -8.164062 3.65625 -8.03125 3.53125 -7.875 C 3.414062 -7.726562 3.289062 -7.578125 3.15625 -7.421875 C 3.019531 -7.265625 2.878906 -7.117188 2.734375 -6.984375 C 2.597656 -6.847656 2.476562 -6.726562 2.375 -6.625 L 1.84375 -6.625 L 1.84375 -6.75 C 1.988281 -6.945312 2.117188 -7.132812 2.234375 -7.3125 C 2.359375 -7.5 2.46875 -7.679688 2.5625 -7.859375 C 2.664062 -8.035156 2.757812 -8.207031 2.84375 -8.375 Z M 3.828125 -8.375 "/></g></g></g><g fill="#2d6d5e" fill-opacity="1"><g transform="translate(53.943602, 141.536727)"><g><path d="M 3.328125 -1.546875 C 3.328125 -1.191406 3.257812 -0.890625 3.125 -0.640625 C 3 -0.398438 2.8125 -0.210938 2.5625 -0.078125 C 2.320312 0.046875 2.03125 0.109375 1.6875 0.109375 C 1.414062 0.109375 1.164062 0.078125 0.9375 0.015625 C 0.71875 -0.046875 0.53125 -0.125 0.375 -0.21875 L 0.375 -1.078125 C 0.53125 -0.941406 0.722656 -0.832031 0.953125 -0.75 C 1.179688 -0.664062 1.414062 -0.625 1.65625 -0.625 C 1.925781 -0.625 2.132812 -0.703125 2.28125 -0.859375 C 2.4375 -1.015625 2.515625 -1.234375 2.515625 -1.515625 C 2.515625 -1.679688 2.484375 -1.828125 2.421875 -1.953125 C 2.359375 -2.078125 2.257812 -2.195312 2.125 -2.3125 C 1.988281 -2.425781 1.816406 -2.546875 1.609375 -2.671875 C 1.359375 -2.816406 1.140625 -2.96875 0.953125 -3.125 C 0.765625 -3.289062 0.617188 -3.476562 0.515625 -3.6875 C 0.421875 -3.894531 0.375 -4.144531 0.375 -4.4375 C 0.375 -4.894531 0.519531 -5.265625 0.8125 -5.546875 C 1.113281 -5.828125 1.503906 -5.96875 1.984375 -5.96875 C 2.234375 -5.96875 2.46875 -5.9375 2.6875 -5.875 C 2.90625 -5.8125 3.113281 -5.71875 3.3125 -5.59375 L 3 -4.9375 C 2.851562 -5.039062 2.691406 -5.117188 2.515625 -5.171875 C 2.347656 -5.234375 2.175781 -5.265625 2 -5.265625 C 1.738281 -5.265625 1.53125 -5.191406 1.375 -5.046875 C 1.226562 -4.898438 1.15625 -4.707031 1.15625 -4.46875 C 1.15625 -4.300781 1.1875 -4.15625 1.25 -4.03125 C 1.3125 -3.914062 1.410156 -3.800781 1.546875 -3.6875 C 1.679688 -3.582031 1.863281 -3.460938 2.09375 -3.328125 C 2.34375 -3.171875 2.554688 -3.015625 2.734375 -2.859375 C 2.921875 -2.703125 3.066406 -2.519531 3.171875 -2.3125 C 3.273438 -2.101562 3.328125 -1.847656 3.328125 -1.546875 Z M 3.328125 -1.546875 "/></g></g></g><g fill="#2d6d5e" fill-opacity="1"><g transform="translate(59.15205, 141.536727)"><g><path d="M 0.296875 -2.546875 L 0.296875 -3.359375 L 2.6875 -3.359375 L 2.6875 -2.546875 Z M 0.296875 -2.546875 "/></g></g></g><g fill="#2d6d5e" fill-opacity="1"><g transform="translate(63.671324, 141.536727)"><g><path d="M 2.09375 -0.625 C 2.1875 -0.625 2.273438 -0.628906 2.359375 -0.640625 C 2.453125 -0.660156 2.535156 -0.691406 2.609375 -0.734375 L 2.609375 -0.0625 C 2.503906 -0.0078125 2.382812 0.03125 2.25 0.0625 C 2.125 0.09375 1.984375 0.109375 1.828125 0.109375 C 1.578125 0.109375 1.367188 0.0507812 1.203125 -0.0625 C 1.046875 -0.175781 0.925781 -0.34375 0.84375 -0.5625 C 0.769531 -0.789062 0.734375 -1.078125 0.734375 -1.421875 L 0.734375 -5.171875 L 0.1875 -5.171875 L 0.1875 -5.625 L 0.78125 -5.84375 L 1 -7.1875 L 1.5625 -7.1875 L 1.5625 -5.859375 L 2.546875 -5.859375 L 2.546875 -5.171875 L 1.5625 -5.171875 L 1.5625 -1.515625 C 1.5625 -1.210938 1.597656 -0.988281 1.671875 -0.84375 C 1.742188 -0.695312 1.882812 -0.625 2.09375 -0.625 Z M 2.09375 -0.625 "/></g></g></g><g fill="#2d6d5e" fill-opacity="1"><g transform="translate(67.976902, 141.536727)"><g><path d="M 2.671875 -5.96875 C 2.753906 -5.96875 2.835938 -5.957031 2.921875 -5.9375 C 3.003906 -5.925781 3.085938 -5.910156 3.171875 -5.890625 L 3.046875 -5.046875 C 2.984375 -5.066406 2.914062 -5.082031 2.84375 -5.09375 C 2.769531 -5.101562 2.691406 -5.109375 2.609375 -5.109375 C 2.453125 -5.109375 2.304688 -5.054688 2.171875 -4.953125 C 2.035156 -4.847656 1.921875 -4.703125 1.828125 -4.515625 C 1.734375 -4.328125 1.660156 -4.109375 1.609375 -3.859375 C 1.554688 -3.609375 1.53125 -3.34375 1.53125 -3.0625 L 1.53125 0 L 0.71875 0 L 0.71875 -5.859375 L 1.359375 -5.859375 L 1.46875 -4.828125 L 1.515625 -4.828125 C 1.597656 -5.046875 1.691406 -5.238281 1.796875 -5.40625 C 1.910156 -5.582031 2.039062 -5.71875 2.1875 -5.8125 C 2.332031 -5.914062 2.492188 -5.96875 2.671875 -5.96875 Z M 2.671875 -5.96875 "/></g></g></g><g fill="#2d6d5e" fill-opacity="1"><g transform="translate(72.79001, 141.536727)"><g><path d="M 2.328125 -5.953125 C 2.722656 -5.953125 3.050781 -5.835938 3.3125 -5.609375 C 3.570312 -5.378906 3.765625 -5.066406 3.890625 -4.671875 C 4.015625 -4.285156 4.078125 -3.851562 4.078125 -3.375 L 4.078125 -2.78125 L 1.28125 -2.78125 C 1.289062 -2.050781 1.40625 -1.503906 1.625 -1.140625 C 1.84375 -0.773438 2.171875 -0.59375 2.609375 -0.59375 C 2.828125 -0.59375 3.035156 -0.625 3.234375 -0.6875 C 3.441406 -0.75 3.648438 -0.851562 3.859375 -1 L 3.859375 -0.265625 C 3.660156 -0.140625 3.453125 -0.046875 3.234375 0.015625 C 3.015625 0.078125 2.78125 0.109375 2.53125 0.109375 C 2.039062 0.109375 1.644531 -0.0195312 1.34375 -0.28125 C 1.039062 -0.539062 0.816406 -0.898438 0.671875 -1.359375 C 0.535156 -1.816406 0.46875 -2.332031 0.46875 -2.90625 C 0.46875 -3.550781 0.535156 -4.101562 0.671875 -4.5625 C 0.816406 -5.019531 1.023438 -5.363281 1.296875 -5.59375 C 1.578125 -5.832031 1.921875 -5.953125 2.328125 -5.953125 Z M 2.328125 -5.28125 C 2.015625 -5.28125 1.769531 -5.128906 1.59375 -4.828125 C 1.425781 -4.535156 1.328125 -4.070312 1.296875 -3.4375 L 3.3125 -3.4375 C 3.3125 -3.769531 3.273438 -4.078125 3.203125 -4.359375 C 3.140625 -4.640625 3.035156 -4.863281 2.890625 -5.03125 C 2.742188 -5.195312 2.554688 -5.28125 2.328125 -5.28125 Z M 2.328125 -5.28125 "/></g></g></g><g fill="#2d6d5e" fill-opacity="1"><g transform="translate(78.847904, 141.536727)"><g><path d="M 1.546875 -5.859375 L 1.546875 0 L 0.71875 0 L 0.71875 -5.859375 Z M 1.140625 -8.0625 C 1.316406 -8.0625 1.441406 -8.007812 1.515625 -7.90625 C 1.585938 -7.800781 1.625 -7.648438 1.625 -7.453125 C 1.625 -7.273438 1.582031 -7.128906 1.5 -7.015625 C 1.425781 -6.910156 1.304688 -6.859375 1.140625 -6.859375 C 0.992188 -6.859375 0.875 -6.910156 0.78125 -7.015625 C 0.695312 -7.128906 0.65625 -7.273438 0.65625 -7.453125 C 0.65625 -7.648438 0.695312 -7.800781 0.78125 -7.90625 C 0.863281 -8.007812 0.984375 -8.0625 1.140625 -8.0625 Z M 1.140625 -8.0625 "/></g></g></g><g fill="#2d6d5e" fill-opacity="1"><g transform="translate(82.64595, 141.536727)"><g><path d="M 2.828125 -5.96875 C 3.285156 -5.96875 3.632812 -5.804688 3.875 -5.484375 C 4.113281 -5.160156 4.234375 -4.664062 4.234375 -4 L 4.234375 0 L 3.40625 0 L 3.40625 -3.828125 C 3.40625 -4.304688 3.34375 -4.660156 3.21875 -4.890625 C 3.101562 -5.128906 2.914062 -5.25 2.65625 -5.25 C 2.269531 -5.25 1.984375 -5.078125 1.796875 -4.734375 C 1.617188 -4.390625 1.53125 -3.84375 1.53125 -3.09375 L 1.53125 0 L 0.71875 0 L 0.71875 -5.859375 L 1.375 -5.859375 L 1.46875 -5.015625 L 1.515625 -5.015625 C 1.597656 -5.210938 1.703125 -5.378906 1.828125 -5.515625 C 1.960938 -5.660156 2.113281 -5.769531 2.28125 -5.84375 C 2.445312 -5.925781 2.628906 -5.96875 2.828125 -5.96875 Z M 2.828125 -5.96875 "/></g></g></g><g fill="#2d6d5e" fill-opacity="1"><g transform="translate(89.109869, 141.536727)"><g><path d="M 4.359375 -2.9375 C 4.359375 -2.476562 4.316406 -2.0625 4.234375 -1.6875 C 4.160156 -1.3125 4.039062 -0.988281 3.875 -0.71875 C 3.71875 -0.457031 3.515625 -0.253906 3.265625 -0.109375 C 3.023438 0.0351562 2.734375 0.109375 2.390625 0.109375 C 2.078125 0.109375 1.796875 0.0351562 1.546875 -0.109375 C 1.304688 -0.253906 1.101562 -0.457031 0.9375 -0.71875 C 0.78125 -0.976562 0.660156 -1.296875 0.578125 -1.671875 C 0.503906 -2.054688 0.46875 -2.476562 0.46875 -2.9375 C 0.46875 -3.582031 0.535156 -4.128906 0.671875 -4.578125 C 0.804688 -5.035156 1.019531 -5.378906 1.3125 -5.609375 C 1.601562 -5.847656 1.96875 -5.96875 2.40625 -5.96875 C 2.820312 -5.96875 3.175781 -5.851562 3.46875 -5.625 C 3.757812 -5.394531 3.976562 -5.054688 4.125 -4.609375 C 4.28125 -4.160156 4.359375 -3.601562 4.359375 -2.9375 Z M 1.296875 -2.9375 C 1.296875 -2.425781 1.332031 -2 1.40625 -1.65625 C 1.488281 -1.3125 1.613281 -1.050781 1.78125 -0.875 C 1.945312 -0.695312 2.160156 -0.609375 2.421875 -0.609375 C 2.671875 -0.609375 2.875 -0.691406 3.03125 -0.859375 C 3.195312 -1.035156 3.316406 -1.296875 3.390625 -1.640625 C 3.472656 -1.984375 3.515625 -2.414062 3.515625 -2.9375 C 3.515625 -3.445312 3.472656 -3.875 3.390625 -4.21875 C 3.316406 -4.5625 3.195312 -4.816406 3.03125 -4.984375 C 2.875 -5.160156 2.664062 -5.25 2.40625 -5.25 C 2.019531 -5.25 1.738281 -5.054688 1.5625 -4.671875 C 1.382812 -4.285156 1.296875 -3.707031 1.296875 -2.9375 Z M 1.296875 -2.9375 "/></g></g></g><g clip-path="url(#c73694be92)"><path fill="#0661aa" d="M 80.691406 42.242188 C 80.378906 42.765625 79.828125 43.074219 79.21875 43.074219 C 78.90625 43.074219 78.597656 42.988281 78.328125 42.824219 L 71.964844 38.972656 C 71.726562 38.828125 71.523438 38.621094 71.378906 38.382812 L 69.078125 34.527344 C 68.9375 34.292969 68.632812 34.214844 68.398438 34.355469 C 68.164062 34.496094 68.089844 34.800781 68.230469 35.035156 L 70.433594 38.726562 L 70.433594 42.105469 C 70.433594 44.035156 69.800781 45.953125 68.648438 47.503906 L 64.914062 52.539062 L 59.59375 59.375 C 59.199219 59.878906 58.605469 60.167969 57.964844 60.167969 C 57.480469 60.167969 57.003906 59.996094 56.632812 59.679688 C 55.800781 58.976562 55.695312 57.664062 56.394531 56.769531 L 61.179688 50.941406 C 61.203125 50.910156 61.226562 50.875 61.246094 50.835938 L 63.785156 45.3125 C 63.8125 45.246094 63.828125 45.175781 63.828125 45.105469 L 63.828125 31.597656 C 63.828125 29.808594 65.203125 28.332031 66.949219 28.167969 C 67.070312 28.175781 67.191406 28.179688 67.3125 28.179688 C 67.433594 28.179688 67.550781 28.175781 67.667969 28.167969 C 68.632812 28.257812 69.515625 28.753906 70.09375 29.515625 L 74.050781 36.140625 C 74.09375 36.210938 74.152344 36.269531 74.21875 36.3125 L 80.113281 39.878906 C 80.925781 40.371094 81.183594 41.429688 80.691406 42.242188 Z M 75.78125 49.652344 L 77.320312 57.589844 C 77.542969 58.683594 76.925781 59.777344 75.917969 60.082031 C 75.722656 60.140625 75.519531 60.171875 75.316406 60.171875 C 74.339844 60.171875 73.492188 59.472656 73.300781 58.519531 L 71.78125 50.632812 C 71.769531 50.589844 71.757812 50.546875 71.734375 50.507812 L 70.054688 47.160156 C 70.9375 45.632812 71.421875 43.875 71.421875 42.105469 L 71.421875 40.960938 L 75.183594 47.964844 C 75.464844 48.496094 75.667969 49.0625 75.78125 49.652344 Z M 60.894531 34.835938 C 60.8125 34.878906 60.742188 34.941406 60.691406 35.023438 L 56.957031 41.136719 C 56.597656 41.722656 55.933594 42.039062 55.25 41.945312 C 55.015625 41.910156 54.792969 41.832031 54.589844 41.707031 C 54.195312 41.46875 53.921875 41.089844 53.8125 40.640625 C 53.703125 40.195312 53.777344 39.730469 54.015625 39.339844 L 58.089844 32.675781 C 58.261719 32.394531 58.507812 32.171875 58.800781 32.027344 L 63.1875 29.882812 C 62.964844 30.410156 62.84375 30.988281 62.84375 31.597656 L 62.84375 33.882812 Z M 62.257812 22.136719 C 62.257812 19.347656 64.527344 17.082031 67.3125 17.082031 C 70.101562 17.082031 72.371094 19.347656 72.371094 22.136719 C 72.371094 24.800781 70.296875 26.988281 67.683594 27.179688 C 67.574219 27.171875 67.464844 27.167969 67.351562 27.167969 L 67.273438 27.167969 C 67.164062 27.167969 67.058594 27.171875 66.949219 27.179688 C 64.332031 26.992188 62.257812 24.804688 62.257812 22.136719 Z M 80.625 39.035156 L 74.835938 35.53125 L 71.367188 29.71875 C 71.230469 29.425781 71.0625 29.15625 70.871094 28.90625 C 70.867188 28.898438 70.863281 28.890625 70.855469 28.886719 C 70.496094 28.421875 70.050781 28.039062 69.546875 27.75 C 71.777344 26.859375 73.355469 24.679688 73.355469 22.136719 C 73.355469 18.804688 70.644531 16.09375 67.3125 16.09375 C 63.980469 16.09375 61.269531 18.804688 61.269531 22.136719 C 61.269531 24.679688 62.851562 26.859375 65.078125 27.75 C 64.878906 27.863281 64.6875 27.996094 64.511719 28.136719 L 58.371094 31.136719 C 57.90625 31.367188 57.515625 31.71875 57.246094 32.160156 L 53.175781 38.824219 C 52.796875 39.441406 52.683594 40.171875 52.851562 40.875 C 53.023438 41.578125 53.457031 42.171875 54.074219 42.550781 C 54.394531 42.746094 54.746094 42.871094 55.113281 42.921875 C 55.238281 42.9375 55.363281 42.949219 55.484375 42.949219 C 56.421875 42.949219 57.300781 42.464844 57.796875 41.652344 L 61.457031 35.660156 L 62.84375 34.984375 L 62.84375 44.996094 L 60.375 50.363281 L 55.621094 56.152344 C 54.59375 57.472656 54.761719 59.390625 55.996094 60.433594 C 56.546875 60.898438 57.246094 61.15625 57.964844 61.15625 C 58.914062 61.15625 59.789062 60.726562 60.375 59.980469 L 65.703125 53.136719 L 69.425781 48.113281 L 70.824219 50.886719 L 72.332031 58.710938 C 72.617188 60.128906 73.871094 61.15625 75.316406 61.15625 C 75.617188 61.15625 75.914062 61.113281 76.203125 61.027344 C 77.695312 60.578125 78.609375 58.984375 78.289062 57.398438 L 76.753906 49.464844 C 76.621094 48.777344 76.382812 48.117188 76.050781 47.5 L 72.15625 40.242188 L 77.816406 43.667969 C 78.242188 43.925781 78.726562 44.0625 79.21875 44.0625 C 80.175781 44.0625 81.042969 43.574219 81.539062 42.753906 C 82.3125 41.476562 81.902344 39.808594 80.625 39.035156 " fill-opacity="1" fill-rule="nonzero"/></g><g fill="#0661aa" fill-opacity="1"><g transform="translate(20.627672, 77.24328)"><g><path d="M 9.625 0.296875 C 8.988281 0.296875 8.46875 0.117188 8.0625 -0.234375 C 7.664062 -0.585938 7.398438 -1.0625 7.265625 -1.65625 L 6.734375 -3.65625 C 6.648438 -4 6.492188 -4.285156 6.265625 -4.515625 C 6.035156 -4.742188 5.757812 -4.859375 5.4375 -4.859375 L 3.953125 -4.859375 L 3.953125 0 L 0.890625 0 L 0.890625 -12.765625 L 6.4375 -12.765625 C 7.925781 -12.765625 9.097656 -12.410156 9.953125 -11.703125 C 10.816406 -10.992188 11.25 -10.019531 11.25 -8.78125 C 11.25 -7.96875 11.007812 -7.253906 10.53125 -6.640625 C 10.0625 -6.035156 9.398438 -5.625 8.546875 -5.40625 L 8.546875 -5.390625 C 8.890625 -5.242188 9.148438 -5.039062 9.328125 -4.78125 C 9.503906 -4.519531 9.632812 -4.210938 9.71875 -3.859375 L 10.09375 -2.34375 C 10.1875 -1.914062 10.390625 -1.703125 10.703125 -1.703125 C 10.960938 -1.703125 11.210938 -1.851562 11.453125 -2.15625 L 12.109375 -0.703125 C 11.816406 -0.390625 11.445312 -0.144531 11 0.03125 C 10.550781 0.207031 10.09375 0.296875 9.625 0.296875 Z M 3.953125 -6.9375 L 6.171875 -6.9375 C 6.773438 -6.9375 7.257812 -7.097656 7.625 -7.421875 C 7.988281 -7.742188 8.171875 -8.171875 8.171875 -8.703125 C 8.171875 -9.265625 7.988281 -9.703125 7.625 -10.015625 C 7.257812 -10.335938 6.773438 -10.5 6.171875 -10.5 L 3.953125 -10.5 Z M 3.953125 -6.9375 "/></g></g></g><g fill="#0661aa" fill-opacity="1"><g transform="translate(34.548894, 77.24328)"><g><path d="M 5.359375 0.296875 C 4.367188 0.296875 3.492188 0.0976562 2.734375 -0.296875 C 1.984375 -0.703125 1.398438 -1.28125 0.984375 -2.03125 C 0.578125 -2.78125 0.375 -3.648438 0.375 -4.640625 C 0.375 -5.617188 0.5625 -6.46875 0.9375 -7.1875 C 1.3125 -7.914062 1.835938 -8.484375 2.515625 -8.890625 C 3.203125 -9.296875 4.003906 -9.5 4.921875 -9.5 C 5.804688 -9.5 6.570312 -9.300781 7.21875 -8.90625 C 7.863281 -8.519531 8.367188 -7.976562 8.734375 -7.28125 C 9.097656 -6.582031 9.28125 -5.765625 9.28125 -4.828125 C 9.28125 -4.628906 9.269531 -4.441406 9.25 -4.265625 C 9.238281 -4.097656 9.210938 -3.953125 9.171875 -3.828125 L 3.125 -3.828125 C 3.175781 -3.160156 3.40625 -2.632812 3.8125 -2.25 C 4.21875 -1.863281 4.738281 -1.671875 5.375 -1.671875 C 5.863281 -1.671875 6.296875 -1.789062 6.671875 -2.03125 C 7.046875 -2.269531 7.332031 -2.597656 7.53125 -3.015625 L 9.4375 -2.171875 C 9.175781 -1.398438 8.671875 -0.796875 7.921875 -0.359375 C 7.171875 0.078125 6.316406 0.296875 5.359375 0.296875 Z M 3.125 -5.390625 L 6.5625 -5.390625 C 6.519531 -6.054688 6.351562 -6.578125 6.0625 -6.953125 C 5.78125 -7.328125 5.394531 -7.515625 4.90625 -7.515625 C 4.394531 -7.515625 3.984375 -7.320312 3.671875 -6.9375 C 3.359375 -6.5625 3.175781 -6.046875 3.125 -5.390625 Z M 3.125 -5.390625 "/></g></g></g><g fill="#0661aa" fill-opacity="1"><g transform="translate(46.463448, 77.24328)"><g><path d="M 4.921875 0.296875 C 4.003906 0.296875 3.203125 0.0976562 2.515625 -0.296875 C 1.835938 -0.691406 1.3125 -1.253906 0.9375 -1.984375 C 0.5625 -2.722656 0.375 -3.59375 0.375 -4.59375 C 0.382812 -5.59375 0.566406 -6.457031 0.921875 -7.1875 C 1.285156 -7.925781 1.789062 -8.492188 2.4375 -8.890625 C 3.09375 -9.296875 3.859375 -9.5 4.734375 -9.5 C 5.828125 -9.5 6.738281 -9.179688 7.46875 -8.546875 C 8.195312 -7.910156 8.648438 -7.054688 8.828125 -5.984375 L 6.328125 -5.40625 C 6.242188 -6.019531 6.0625 -6.484375 5.78125 -6.796875 C 5.5 -7.117188 5.164062 -7.28125 4.78125 -7.28125 C 4.28125 -7.28125 3.878906 -7.039062 3.578125 -6.5625 C 3.273438 -6.082031 3.125 -5.425781 3.125 -4.59375 C 3.132812 -3.75 3.304688 -3.09375 3.640625 -2.625 C 3.984375 -2.15625 4.429688 -1.921875 4.984375 -1.921875 C 5.460938 -1.921875 5.863281 -2.101562 6.1875 -2.46875 C 6.519531 -2.832031 6.722656 -3.34375 6.796875 -4 L 9.3125 -3.625 C 9.175781 -2.425781 8.710938 -1.472656 7.921875 -0.765625 C 7.128906 -0.0546875 6.128906 0.296875 4.921875 0.296875 Z M 4.921875 0.296875 "/></g></g></g><g fill="#0661aa" fill-opacity="1"><g transform="translate(58.180923, 77.24328)"><g><path d="M 3.375 0.234375 C 2.53125 0.234375 1.859375 -0.0195312 1.359375 -0.53125 C 0.867188 -1.039062 0.625 -1.75 0.625 -2.65625 L 0.625 -9.171875 L 3.375 -9.171875 L 3.375 -3.34375 C 3.375 -2.914062 3.484375 -2.582031 3.703125 -2.34375 C 3.921875 -2.101562 4.21875 -1.984375 4.59375 -1.984375 C 5.082031 -1.984375 5.472656 -2.144531 5.765625 -2.46875 C 6.066406 -2.789062 6.21875 -3.226562 6.21875 -3.78125 L 6.21875 -9.171875 L 8.9375 -9.171875 L 8.9375 0 L 6.6875 0 L 6.3125 -1.5625 L 6.296875 -1.5625 C 6.015625 -0.988281 5.617188 -0.546875 5.109375 -0.234375 C 4.597656 0.078125 4.019531 0.234375 3.375 0.234375 Z M 3.375 0.234375 "/></g></g></g><g fill="#0661aa" fill-opacity="1"><g transform="translate(69.916306, 77.24328)"><g><path d="M 0.6875 3.765625 L 0.6875 -9.171875 L 3.015625 -9.171875 L 3.34375 -7.578125 L 3.375 -7.578125 C 3.632812 -8.179688 4.007812 -8.640625 4.5 -8.953125 C 5 -9.265625 5.5625 -9.421875 6.1875 -9.421875 C 6.914062 -9.421875 7.546875 -9.222656 8.078125 -8.828125 C 8.617188 -8.441406 9.035156 -7.882812 9.328125 -7.15625 C 9.628906 -6.4375 9.78125 -5.582031 9.78125 -4.59375 C 9.78125 -3.613281 9.628906 -2.757812 9.328125 -2.03125 C 9.035156 -1.300781 8.617188 -0.738281 8.078125 -0.34375 C 7.546875 0.0507812 6.914062 0.25 6.1875 0.25 C 5.570312 0.25 5.023438 0.09375 4.546875 -0.21875 C 4.066406 -0.53125 3.691406 -0.976562 3.421875 -1.5625 L 3.40625 -1.5625 L 3.40625 3.765625 Z M 5.171875 -2.09375 C 5.734375 -2.09375 6.1875 -2.316406 6.53125 -2.765625 C 6.875 -3.222656 7.046875 -3.832031 7.046875 -4.59375 C 7.046875 -5.351562 6.875 -5.957031 6.53125 -6.40625 C 6.1875 -6.851562 5.734375 -7.078125 5.171875 -7.078125 C 4.617188 -7.078125 4.164062 -6.847656 3.8125 -6.390625 C 3.46875 -5.941406 3.296875 -5.34375 3.296875 -4.59375 C 3.296875 -3.832031 3.46875 -3.222656 3.8125 -2.765625 C 4.164062 -2.316406 4.617188 -2.09375 5.171875 -2.09375 Z M 5.171875 -2.09375 "/></g></g></g><g fill="#0661aa" fill-opacity="1"><g transform="translate(82.225026, 77.24328)"><g><path d="M 5.359375 0.296875 C 4.367188 0.296875 3.492188 0.0976562 2.734375 -0.296875 C 1.984375 -0.703125 1.398438 -1.28125 0.984375 -2.03125 C 0.578125 -2.78125 0.375 -3.648438 0.375 -4.640625 C 0.375 -5.617188 0.5625 -6.46875 0.9375 -7.1875 C 1.3125 -7.914062 1.835938 -8.484375 2.515625 -8.890625 C 3.203125 -9.296875 4.003906 -9.5 4.921875 -9.5 C 5.804688 -9.5 6.570312 -9.300781 7.21875 -8.90625 C 7.863281 -8.519531 8.367188 -7.976562 8.734375 -7.28125 C 9.097656 -6.582031 9.28125 -5.765625 9.28125 -4.828125 C 9.28125 -4.628906 9.269531 -4.441406 9.25 -4.265625 C 9.238281 -4.097656 9.210938 -3.953125 9.171875 -3.828125 L 3.125 -3.828125 C 3.175781 -3.160156 3.40625 -2.632812 3.8125 -2.25 C 4.21875 -1.863281 4.738281 -1.671875 5.375 -1.671875 C 5.863281 -1.671875 6.296875 -1.789062 6.671875 -2.03125 C 7.046875 -2.269531 7.332031 -2.597656 7.53125 -3.015625 L 9.4375 -2.171875 C 9.175781 -1.398438 8.671875 -0.796875 7.921875 -0.359375 C 7.171875 0.078125 6.316406 0.296875 5.359375 0.296875 Z M 3.125 -5.390625 L 6.5625 -5.390625 C 6.519531 -6.054688 6.351562 -6.578125 6.0625 -6.953125 C 5.78125 -7.328125 5.394531 -7.515625 4.90625 -7.515625 C 4.394531 -7.515625 3.984375 -7.320312 3.671875 -6.9375 C 3.359375 -6.5625 3.175781 -6.046875 3.125 -5.390625 Z M 3.125 -5.390625 "/></g></g></g><g fill="#0661aa" fill-opacity="1"><g transform="translate(94.121661, 77.24328)"><g><path d="M 5.625 -9.421875 C 6.375 -9.421875 6.976562 -9.140625 7.4375 -8.578125 C 7.894531 -8.023438 8.144531 -7.234375 8.1875 -6.203125 L 5.875 -5.578125 C 5.863281 -6.171875 5.753906 -6.617188 5.546875 -6.921875 C 5.347656 -7.234375 5.082031 -7.390625 4.75 -7.390625 C 4.34375 -7.390625 4.015625 -7.1875 3.765625 -6.78125 C 3.523438 -6.375 3.40625 -5.8125 3.40625 -5.09375 L 3.40625 0 L 0.6875 0 L 0.6875 -9.171875 L 2.890625 -9.171875 L 3.265625 -7.59375 L 3.28125 -7.59375 C 3.476562 -8.164062 3.785156 -8.613281 4.203125 -8.9375 C 4.628906 -9.257812 5.101562 -9.421875 5.625 -9.421875 Z M 5.625 -9.421875 "/></g></g></g><g fill="#0661aa" fill-opacity="1"><g transform="translate(104.584975, 77.24328)"><g><path d="M 5.359375 0.296875 C 4.367188 0.296875 3.492188 0.0976562 2.734375 -0.296875 C 1.984375 -0.703125 1.398438 -1.28125 0.984375 -2.03125 C 0.578125 -2.78125 0.375 -3.648438 0.375 -4.640625 C 0.375 -5.617188 0.5625 -6.46875 0.9375 -7.1875 C 1.3125 -7.914062 1.835938 -8.484375 2.515625 -8.890625 C 3.203125 -9.296875 4.003906 -9.5 4.921875 -9.5 C 5.804688 -9.5 6.570312 -9.300781 7.21875 -8.90625 C 7.863281 -8.519531 8.367188 -7.976562 8.734375 -7.28125 C 9.097656 -6.582031 9.28125 -5.765625 9.28125 -4.828125 C 9.28125 -4.628906 9.269531 -4.441406 9.25 -4.265625 C 9.238281 -4.097656 9.210938 -3.953125 9.171875 -3.828125 L 3.125 -3.828125 C 3.175781 -3.160156 3.40625 -2.632812 3.8125 -2.25 C 4.21875 -1.863281 4.738281 -1.671875 5.375 -1.671875 C 5.863281 -1.671875 6.296875 -1.789062 6.671875 -2.03125 C 7.046875 -2.269531 7.332031 -2.597656 7.53125 -3.015625 L 9.4375 -2.171875 C 9.175781 -1.398438 8.671875 -0.796875 7.921875 -0.359375 C 7.171875 0.078125 6.316406 0.296875 5.359375 0.296875 Z M 3.125 -5.390625 L 6.5625 -5.390625 C 6.519531 -6.054688 6.351562 -6.578125 6.0625 -6.953125 C 5.78125 -7.328125 5.394531 -7.515625 4.90625 -7.515625 C 4.394531 -7.515625 3.984375 -7.320312 3.671875 -6.9375 C 3.359375 -6.5625 3.175781 -6.046875 3.125 -5.390625 Z M 3.125 -5.390625 "/></g></g></g><g fill="#0661aa" fill-opacity="1"><g transform="translate(27.078139, 98.892584)"><g><path d="M 5.03125 0.296875 C 4.09375 0.296875 3.269531 0.0976562 2.5625 -0.296875 C 1.863281 -0.691406 1.320312 -1.253906 0.9375 -1.984375 C 0.5625 -2.722656 0.375 -3.59375 0.375 -4.59375 C 0.375 -5.59375 0.5625 -6.457031 0.9375 -7.1875 C 1.320312 -7.925781 1.863281 -8.492188 2.5625 -8.890625 C 3.269531 -9.296875 4.09375 -9.5 5.03125 -9.5 C 5.976562 -9.5 6.796875 -9.296875 7.484375 -8.890625 C 8.179688 -8.492188 8.71875 -7.925781 9.09375 -7.1875 C 9.476562 -6.457031 9.671875 -5.59375 9.671875 -4.59375 C 9.671875 -3.59375 9.476562 -2.722656 9.09375 -1.984375 C 8.71875 -1.253906 8.179688 -0.691406 7.484375 -0.296875 C 6.796875 0.0976562 5.976562 0.296875 5.03125 0.296875 Z M 5.03125 -1.984375 C 5.632812 -1.984375 6.101562 -2.210938 6.4375 -2.671875 C 6.78125 -3.140625 6.953125 -3.78125 6.953125 -4.59375 C 6.953125 -5.40625 6.78125 -6.039062 6.4375 -6.5 C 6.101562 -6.957031 5.632812 -7.1875 5.03125 -7.1875 C 4.4375 -7.1875 3.960938 -6.957031 3.609375 -6.5 C 3.265625 -6.039062 3.09375 -5.40625 3.09375 -4.59375 C 3.09375 -3.78125 3.265625 -3.140625 3.609375 -2.671875 C 3.960938 -2.210938 4.4375 -1.984375 5.03125 -1.984375 Z M 5.03125 -1.984375 "/></g></g></g><g fill="#0661aa" fill-opacity="1"><g transform="translate(39.261442, 98.892584)"><g/></g></g><g fill="#0661aa" fill-opacity="1"><g transform="translate(44.708101, 98.892584)"><g><path d="M 0.890625 0 L 0.890625 -12.765625 L 8.78125 -12.765625 L 8.78125 -10.140625 L 3.953125 -10.140625 L 3.953125 -7.140625 L 7.71875 -7.140625 L 7.71875 -4.828125 L 3.953125 -4.828125 L 3.953125 0 Z M 0.890625 0 "/></g></g></g><g fill="#0661aa" fill-opacity="1"><g transform="translate(55.260995, 98.892584)"><g><path d="M 2.84375 -10.59375 L 2.328125 -11.0625 L 4.546875 -13.421875 L 5.515625 -13.421875 L 7.765625 -11.0625 L 7.234375 -10.59375 L 5.03125 -12.90625 Z M 5.03125 0.296875 C 4.09375 0.296875 3.269531 0.0976562 2.5625 -0.296875 C 1.863281 -0.691406 1.320312 -1.253906 0.9375 -1.984375 C 0.5625 -2.722656 0.375 -3.59375 0.375 -4.59375 C 0.375 -5.59375 0.5625 -6.457031 0.9375 -7.1875 C 1.320312 -7.925781 1.863281 -8.492188 2.5625 -8.890625 C 3.269531 -9.296875 4.09375 -9.5 5.03125 -9.5 C 5.976562 -9.5 6.796875 -9.296875 7.484375 -8.890625 C 8.179688 -8.492188 8.71875 -7.925781 9.09375 -7.1875 C 9.476562 -6.457031 9.671875 -5.59375 9.671875 -4.59375 C 9.671875 -3.59375 9.476562 -2.722656 9.09375 -1.984375 C 8.71875 -1.253906 8.179688 -0.691406 7.484375 -0.296875 C 6.796875 0.0976562 5.976562 0.296875 5.03125 0.296875 Z M 5.03125 -1.984375 C 5.632812 -1.984375 6.101562 -2.210938 6.4375 -2.671875 C 6.78125 -3.140625 6.953125 -3.78125 6.953125 -4.59375 C 6.953125 -5.40625 6.78125 -6.039062 6.4375 -6.5 C 6.101562 -6.957031 5.632812 -7.1875 5.03125 -7.1875 C 4.4375 -7.1875 3.960938 -6.957031 3.609375 -6.5 C 3.265625 -6.039062 3.09375 -5.40625 3.09375 -4.59375 C 3.09375 -3.78125 3.265625 -3.140625 3.609375 -2.671875 C 3.960938 -2.210938 4.4375 -1.984375 5.03125 -1.984375 Z M 5.03125 -1.984375 "/></g></g></g><g fill="#0661aa" fill-opacity="1"><g transform="translate(67.444299, 98.892584)"><g><path d="M 0.6875 0 L 0.6875 -13.296875 L 3.40625 -13.296875 L 3.40625 0 Z M 0.6875 0 "/></g></g></g><g fill="#0661aa" fill-opacity="1"><g transform="translate(73.643454, 98.892584)"><g><path d="M 5.359375 0.296875 C 4.367188 0.296875 3.492188 0.0976562 2.734375 -0.296875 C 1.984375 -0.703125 1.398438 -1.28125 0.984375 -2.03125 C 0.578125 -2.78125 0.375 -3.648438 0.375 -4.640625 C 0.375 -5.617188 0.5625 -6.46875 0.9375 -7.1875 C 1.3125 -7.914062 1.835938 -8.484375 2.515625 -8.890625 C 3.203125 -9.296875 4.003906 -9.5 4.921875 -9.5 C 5.804688 -9.5 6.570312 -9.300781 7.21875 -8.90625 C 7.863281 -8.519531 8.367188 -7.976562 8.734375 -7.28125 C 9.097656 -6.582031 9.28125 -5.765625 9.28125 -4.828125 C 9.28125 -4.628906 9.269531 -4.441406 9.25 -4.265625 C 9.238281 -4.097656 9.210938 -3.953125 9.171875 -3.828125 L 3.125 -3.828125 C 3.175781 -3.160156 3.40625 -2.632812 3.8125 -2.25 C 4.21875 -1.863281 4.738281 -1.671875 5.375 -1.671875 C 5.863281 -1.671875 6.296875 -1.789062 6.671875 -2.03125 C 7.046875 -2.269531 7.332031 -2.597656 7.53125 -3.015625 L 9.4375 -2.171875 C 9.175781 -1.398438 8.671875 -0.796875 7.921875 -0.359375 C 7.171875 0.078125 6.316406 0.296875 5.359375 0.296875 Z M 3.125 -5.390625 L 6.5625 -5.390625 C 6.519531 -6.054688 6.351562 -6.578125 6.0625 -6.953125 C 5.78125 -7.328125 5.394531 -7.515625 4.90625 -7.515625 C 4.394531 -7.515625 3.984375 -7.320312 3.671875 -6.9375 C 3.359375 -6.5625 3.175781 -6.046875 3.125 -5.390625 Z M 3.125 -5.390625 "/></g></g></g><g fill="#0661aa" fill-opacity="1"><g transform="translate(85.558007, 98.892584)"><g><path d="M 4.359375 4.0625 C 3.460938 4.0625 2.613281 3.910156 1.8125 3.609375 C 1.019531 3.316406 0.382812 2.914062 -0.09375 2.40625 L 0.96875 0.4375 C 1.332031 0.851562 1.789062 1.1875 2.34375 1.4375 C 2.90625 1.695312 3.472656 1.828125 4.046875 1.828125 C 4.867188 1.828125 5.523438 1.597656 6.015625 1.140625 C 6.503906 0.679688 6.75 0.0546875 6.75 -0.734375 L 6.75 -1.65625 L 6.734375 -1.65625 C 6.472656 -1.132812 6.09375 -0.71875 5.59375 -0.40625 C 5.09375 -0.101562 4.546875 0.046875 3.953125 0.046875 C 3.242188 0.046875 2.625 -0.140625 2.09375 -0.515625 C 1.5625 -0.898438 1.144531 -1.441406 0.84375 -2.140625 C 0.550781 -2.835938 0.40625 -3.660156 0.40625 -4.609375 C 0.40625 -5.597656 0.546875 -6.453125 0.828125 -7.171875 C 1.117188 -7.898438 1.523438 -8.457031 2.046875 -8.84375 C 2.578125 -9.238281 3.195312 -9.4375 3.90625 -9.4375 C 4.53125 -9.4375 5.097656 -9.269531 5.609375 -8.9375 C 6.117188 -8.601562 6.5 -8.15625 6.75 -7.59375 L 6.78125 -7.59375 L 7.09375 -9.171875 L 9.5 -9.171875 L 9.5 -0.703125 C 9.5 0.285156 9.289062 1.140625 8.875 1.859375 C 8.457031 2.578125 7.863281 3.125 7.09375 3.5 C 6.320312 3.875 5.410156 4.0625 4.359375 4.0625 Z M 5.015625 -2.1875 C 5.578125 -2.1875 6.023438 -2.410156 6.359375 -2.859375 C 6.691406 -3.304688 6.859375 -3.90625 6.859375 -4.65625 C 6.859375 -5.40625 6.691406 -6.007812 6.359375 -6.46875 C 6.023438 -6.925781 5.578125 -7.15625 5.015625 -7.15625 C 4.453125 -7.15625 4 -6.929688 3.65625 -6.484375 C 3.320312 -6.035156 3.15625 -5.425781 3.15625 -4.65625 C 3.15625 -3.894531 3.320312 -3.289062 3.65625 -2.84375 C 4 -2.40625 4.453125 -2.1875 5.015625 -2.1875 Z M 5.015625 -2.1875 "/></g></g></g><g fill="#0661aa" fill-opacity="1"><g transform="translate(97.848809, 98.892584)"><g><path d="M 5.03125 0.296875 C 4.09375 0.296875 3.269531 0.0976562 2.5625 -0.296875 C 1.863281 -0.691406 1.320312 -1.253906 0.9375 -1.984375 C 0.5625 -2.722656 0.375 -3.59375 0.375 -4.59375 C 0.375 -5.59375 0.5625 -6.457031 0.9375 -7.1875 C 1.320312 -7.925781 1.863281 -8.492188 2.5625 -8.890625 C 3.269531 -9.296875 4.09375 -9.5 5.03125 -9.5 C 5.976562 -9.5 6.796875 -9.296875 7.484375 -8.890625 C 8.179688 -8.492188 8.71875 -7.925781 9.09375 -7.1875 C 9.476562 -6.457031 9.671875 -5.59375 9.671875 -4.59375 C 9.671875 -3.59375 9.476562 -2.722656 9.09375 -1.984375 C 8.71875 -1.253906 8.179688 -0.691406 7.484375 -0.296875 C 6.796875 0.0976562 5.976562 0.296875 5.03125 0.296875 Z M 5.03125 -1.984375 C 5.632812 -1.984375 6.101562 -2.210938 6.4375 -2.671875 C 6.78125 -3.140625 6.953125 -3.78125 6.953125 -4.59375 C 6.953125 -5.40625 6.78125 -6.039062 6.4375 -6.5 C 6.101562 -6.957031 5.632812 -7.1875 5.03125 -7.1875 C 4.4375 -7.1875 3.960938 -6.957031 3.609375 -6.5 C 3.265625 -6.039062 3.09375 -5.40625 3.09375 -4.59375 C 3.09375 -3.78125 3.265625 -3.140625 3.609375 -2.671875 C 3.960938 -2.210938 4.4375 -1.984375 5.03125 -1.984375 Z M 5.03125 -1.984375 "/></g></g></g><g fill="#0661aa" fill-opacity="1"><g transform="translate(36.563983, 113.544446)"><g><path d="M 2.640625 0.171875 C 2.171875 0.171875 1.757812 0.0625 1.40625 -0.15625 C 1.050781 -0.382812 0.773438 -0.695312 0.578125 -1.09375 C 0.390625 -1.5 0.296875 -1.972656 0.296875 -2.515625 C 0.304688 -3.054688 0.398438 -3.523438 0.578125 -3.921875 C 0.753906 -4.328125 1.003906 -4.640625 1.328125 -4.859375 C 1.660156 -5.085938 2.046875 -5.203125 2.484375 -5.203125 C 2.992188 -5.203125 3.429688 -5.046875 3.796875 -4.734375 C 4.160156 -4.421875 4.394531 -4.003906 4.5 -3.484375 L 3.765625 -3.296875 C 3.679688 -3.671875 3.523438 -3.96875 3.296875 -4.1875 C 3.066406 -4.40625 2.796875 -4.515625 2.484375 -4.515625 C 2.054688 -4.515625 1.710938 -4.332031 1.453125 -3.96875 C 1.191406 -3.601562 1.0625 -3.117188 1.0625 -2.515625 C 1.0625 -1.910156 1.207031 -1.421875 1.5 -1.046875 C 1.789062 -0.679688 2.171875 -0.5 2.640625 -0.5 C 3.035156 -0.5 3.375 -0.632812 3.65625 -0.90625 C 3.9375 -1.175781 4.109375 -1.535156 4.171875 -1.984375 L 4.890625 -1.8125 C 4.835938 -1.414062 4.707031 -1.066406 4.5 -0.765625 C 4.289062 -0.472656 4.023438 -0.242188 3.703125 -0.078125 C 3.390625 0.0859375 3.035156 0.171875 2.640625 0.171875 Z M 2.640625 0.171875 "/></g></g></g><g fill="#0661aa" fill-opacity="1"><g transform="translate(42.83283, 113.544446)"><g><path d="M 1.90625 0.15625 C 1.414062 0.15625 1.007812 0.0234375 0.6875 -0.234375 C 0.363281 -0.503906 0.203125 -0.863281 0.203125 -1.3125 C 0.203125 -1.726562 0.363281 -2.082031 0.6875 -2.375 C 1.007812 -2.675781 1.535156 -2.867188 2.265625 -2.953125 L 3.21875 -3.078125 C 3.332031 -3.085938 3.425781 -3.128906 3.5 -3.203125 C 3.582031 -3.285156 3.625 -3.390625 3.625 -3.515625 C 3.625 -3.816406 3.507812 -4.054688 3.28125 -4.234375 C 3.050781 -4.421875 2.753906 -4.515625 2.390625 -4.515625 C 2.117188 -4.515625 1.878906 -4.457031 1.671875 -4.34375 C 1.460938 -4.226562 1.300781 -4.078125 1.1875 -3.890625 C 1.070312 -3.703125 1.007812 -3.503906 1 -3.296875 L 0.3125 -3.578125 C 0.332031 -3.867188 0.429688 -4.132812 0.609375 -4.375 C 0.796875 -4.625 1.046875 -4.820312 1.359375 -4.96875 C 1.671875 -5.125 2.023438 -5.203125 2.421875 -5.203125 C 3.003906 -5.203125 3.472656 -5.035156 3.828125 -4.703125 C 4.179688 -4.378906 4.359375 -3.945312 4.359375 -3.40625 L 4.359375 -0.890625 C 4.359375 -0.660156 4.441406 -0.546875 4.609375 -0.546875 C 4.742188 -0.546875 4.882812 -0.640625 5.03125 -0.828125 L 5.390625 -0.3125 C 5.273438 -0.164062 5.128906 -0.0507812 4.953125 0.03125 C 4.785156 0.113281 4.613281 0.15625 4.4375 0.15625 C 4.195312 0.15625 4.003906 0.0820312 3.859375 -0.0625 C 3.722656 -0.207031 3.640625 -0.382812 3.609375 -0.59375 L 3.59375 -0.765625 L 3.578125 -0.765625 C 3.410156 -0.484375 3.1875 -0.257812 2.90625 -0.09375 C 2.625 0.0703125 2.289062 0.15625 1.90625 0.15625 Z M 2.0625 -0.53125 C 2.363281 -0.53125 2.628906 -0.597656 2.859375 -0.734375 C 3.085938 -0.878906 3.265625 -1.066406 3.390625 -1.296875 C 3.523438 -1.535156 3.59375 -1.8125 3.59375 -2.125 L 3.59375 -2.46875 L 2.359375 -2.3125 C 1.859375 -2.25 1.5 -2.128906 1.28125 -1.953125 C 1.0625 -1.773438 0.953125 -1.570312 0.953125 -1.34375 C 0.953125 -1.09375 1.054688 -0.894531 1.265625 -0.75 C 1.472656 -0.601562 1.738281 -0.53125 2.0625 -0.53125 Z M 2.0625 -0.53125 "/></g></g></g><g fill="#0661aa" fill-opacity="1"><g transform="translate(49.390224, 113.544446)"><g><path d="M 0.5 0 L 0.5 -5.03125 L 1.15625 -5.03125 L 1.234375 -4.328125 L 1.25 -4.328125 C 1.375 -4.597656 1.570312 -4.8125 1.84375 -4.96875 C 2.125 -5.125 2.441406 -5.203125 2.796875 -5.203125 C 3.148438 -5.203125 3.453125 -5.117188 3.703125 -4.953125 C 3.953125 -4.785156 4.132812 -4.554688 4.25 -4.265625 L 4.265625 -4.265625 C 4.441406 -4.578125 4.675781 -4.8125 4.96875 -4.96875 C 5.269531 -5.125 5.585938 -5.203125 5.921875 -5.203125 C 6.421875 -5.203125 6.8125 -5.046875 7.09375 -4.734375 C 7.375 -4.429688 7.515625 -4.007812 7.515625 -3.46875 L 7.5 0 L 6.734375 0 L 6.75 -3.4375 C 6.75 -3.769531 6.65625 -4.03125 6.46875 -4.21875 C 6.289062 -4.40625 6.035156 -4.5 5.703125 -4.5 C 5.296875 -4.5 4.972656 -4.351562 4.734375 -4.0625 C 4.503906 -3.78125 4.390625 -3.40625 4.390625 -2.9375 L 4.375 0 L 3.625 0 L 3.625 -3.4375 C 3.625 -3.769531 3.53125 -4.03125 3.34375 -4.21875 C 3.164062 -4.40625 2.910156 -4.5 2.578125 -4.5 C 2.160156 -4.5 1.832031 -4.351562 1.59375 -4.0625 C 1.363281 -3.78125 1.25 -3.40625 1.25 -2.9375 L 1.25 0 Z M 0.5 0 "/></g></g></g><g fill="#0661aa" fill-opacity="1"><g transform="translate(58.524606, 113.544446)"><g><path d="M 0.953125 -6 C 0.785156 -6 0.648438 -6.050781 0.546875 -6.15625 C 0.441406 -6.257812 0.390625 -6.394531 0.390625 -6.5625 C 0.390625 -6.726562 0.441406 -6.859375 0.546875 -6.953125 C 0.648438 -7.054688 0.785156 -7.109375 0.953125 -7.109375 C 1.117188 -7.109375 1.253906 -7.054688 1.359375 -6.953125 C 1.460938 -6.859375 1.515625 -6.726562 1.515625 -6.5625 C 1.515625 -6.394531 1.460938 -6.257812 1.359375 -6.15625 C 1.253906 -6.050781 1.117188 -6 0.953125 -6 Z M 0.5625 0 L 0.5625 -5.03125 L 1.328125 -5.03125 L 1.328125 0 Z M 0.5625 0 "/></g></g></g><g fill="#0661aa" fill-opacity="1"><g transform="translate(61.609524, 113.544446)"><g><path d="M 2.890625 -5.1875 C 3.390625 -5.1875 3.773438 -5.035156 4.046875 -4.734375 C 4.328125 -4.441406 4.46875 -4.023438 4.46875 -3.484375 L 4.46875 0 L 3.71875 0 L 3.71875 -3.421875 C 3.71875 -3.765625 3.625 -4.035156 3.4375 -4.234375 C 3.25 -4.429688 2.992188 -4.53125 2.671875 -4.53125 C 2.253906 -4.53125 1.910156 -4.394531 1.640625 -4.125 C 1.378906 -3.863281 1.25 -3.507812 1.25 -3.0625 L 1.25 0 L 0.5 0 L 0.5 -5.03125 L 1.1875 -5.03125 L 1.25 -4.34375 L 1.265625 -4.34375 C 1.617188 -4.90625 2.160156 -5.1875 2.890625 -5.1875 Z M 2.890625 -5.1875 "/></g></g></g><g fill="#0661aa" fill-opacity="1"><g transform="translate(67.699279, 113.544446)"><g><path d="M 0.5 0 L 0.5 -7.3125 L 1.25 -7.3125 L 1.25 -4.34375 L 1.265625 -4.34375 C 1.617188 -4.90625 2.160156 -5.1875 2.890625 -5.1875 C 3.390625 -5.1875 3.773438 -5.035156 4.046875 -4.734375 C 4.328125 -4.441406 4.46875 -4.023438 4.46875 -3.484375 L 4.46875 0 L 3.71875 0 L 3.71875 -3.421875 C 3.71875 -3.765625 3.625 -4.035156 3.4375 -4.234375 C 3.25 -4.429688 2.992188 -4.53125 2.671875 -4.53125 C 2.253906 -4.53125 1.910156 -4.394531 1.640625 -4.125 C 1.378906 -3.863281 1.25 -3.507812 1.25 -3.0625 L 1.25 0 Z M 0.5 0 "/></g></g></g><g fill="#0661aa" fill-opacity="1"><g transform="translate(73.789034, 113.544446)"><g><path d="M 1.90625 0.15625 C 1.414062 0.15625 1.007812 0.0234375 0.6875 -0.234375 C 0.363281 -0.503906 0.203125 -0.863281 0.203125 -1.3125 C 0.203125 -1.726562 0.363281 -2.082031 0.6875 -2.375 C 1.007812 -2.675781 1.535156 -2.867188 2.265625 -2.953125 L 3.21875 -3.078125 C 3.332031 -3.085938 3.425781 -3.128906 3.5 -3.203125 C 3.582031 -3.285156 3.625 -3.390625 3.625 -3.515625 C 3.625 -3.816406 3.507812 -4.054688 3.28125 -4.234375 C 3.050781 -4.421875 2.753906 -4.515625 2.390625 -4.515625 C 2.117188 -4.515625 1.878906 -4.457031 1.671875 -4.34375 C 1.460938 -4.226562 1.300781 -4.078125 1.1875 -3.890625 C 1.070312 -3.703125 1.007812 -3.503906 1 -3.296875 L 0.3125 -3.578125 C 0.332031 -3.867188 0.429688 -4.132812 0.609375 -4.375 C 0.796875 -4.625 1.046875 -4.820312 1.359375 -4.96875 C 1.671875 -5.125 2.023438 -5.203125 2.421875 -5.203125 C 3.003906 -5.203125 3.472656 -5.035156 3.828125 -4.703125 C 4.179688 -4.378906 4.359375 -3.945312 4.359375 -3.40625 L 4.359375 -0.890625 C 4.359375 -0.660156 4.441406 -0.546875 4.609375 -0.546875 C 4.742188 -0.546875 4.882812 -0.640625 5.03125 -0.828125 L 5.390625 -0.3125 C 5.273438 -0.164062 5.128906 -0.0507812 4.953125 0.03125 C 4.785156 0.113281 4.613281 0.15625 4.4375 0.15625 C 4.195312 0.15625 4.003906 0.0820312 3.859375 -0.0625 C 3.722656 -0.207031 3.640625 -0.382812 3.609375 -0.59375 L 3.59375 -0.765625 L 3.578125 -0.765625 C 3.410156 -0.484375 3.1875 -0.257812 2.90625 -0.09375 C 2.625 0.0703125 2.289062 0.15625 1.90625 0.15625 Z M 2.0625 -0.53125 C 2.363281 -0.53125 2.628906 -0.597656 2.859375 -0.734375 C 3.085938 -0.878906 3.265625 -1.066406 3.390625 -1.296875 C 3.523438 -1.535156 3.59375 -1.8125 3.59375 -2.125 L 3.59375 -2.46875 L 2.359375 -2.3125 C 1.859375 -2.25 1.5 -2.128906 1.28125 -1.953125 C 1.0625 -1.773438 0.953125 -1.570312 0.953125 -1.34375 C 0.953125 -1.09375 1.054688 -0.894531 1.265625 -0.75 C 1.472656 -0.601562 1.738281 -0.53125 2.0625 -0.53125 Z M 2.0625 -0.53125 "/></g></g></g><g fill="#0661aa" fill-opacity="1"><g transform="translate(80.346429, 113.544446)"><g><path d="M 2.890625 -5.1875 C 3.390625 -5.1875 3.773438 -5.035156 4.046875 -4.734375 C 4.328125 -4.441406 4.46875 -4.023438 4.46875 -3.484375 L 4.46875 0 L 3.71875 0 L 3.71875 -3.421875 C 3.71875 -3.765625 3.625 -4.035156 3.4375 -4.234375 C 3.25 -4.429688 2.992188 -4.53125 2.671875 -4.53125 C 2.253906 -4.53125 1.910156 -4.394531 1.640625 -4.125 C 1.378906 -3.863281 1.25 -3.507812 1.25 -3.0625 L 1.25 0 L 0.5 0 L 0.5 -5.03125 L 1.1875 -5.03125 L 1.25 -4.34375 L 1.265625 -4.34375 C 1.617188 -4.90625 2.160156 -5.1875 2.890625 -5.1875 Z M 2.890625 -5.1875 "/></g></g></g><g fill="#0661aa" fill-opacity="1"><g transform="translate(86.436184, 113.544446)"><g><path d="M 2.515625 0.171875 C 2.078125 0.171875 1.691406 0.0625 1.359375 -0.15625 C 1.023438 -0.382812 0.765625 -0.703125 0.578125 -1.109375 C 0.390625 -1.515625 0.296875 -1.984375 0.296875 -2.515625 C 0.296875 -3.046875 0.390625 -3.515625 0.578125 -3.921875 C 0.765625 -4.328125 1.019531 -4.640625 1.34375 -4.859375 C 1.675781 -5.085938 2.066406 -5.203125 2.515625 -5.203125 C 2.878906 -5.203125 3.207031 -5.113281 3.5 -4.9375 C 3.789062 -4.769531 4.019531 -4.53125 4.1875 -4.21875 L 4.203125 -4.21875 L 4.203125 -7.3125 L 4.953125 -7.3125 L 4.953125 0 L 4.296875 0 L 4.21875 -0.84375 L 4.203125 -0.84375 C 4.046875 -0.519531 3.816406 -0.269531 3.515625 -0.09375 C 3.222656 0.0820312 2.890625 0.171875 2.515625 0.171875 Z M 2.640625 -0.546875 C 2.953125 -0.546875 3.226562 -0.628906 3.46875 -0.796875 C 3.707031 -0.960938 3.890625 -1.191406 4.015625 -1.484375 C 4.148438 -1.785156 4.21875 -2.128906 4.21875 -2.515625 C 4.21875 -2.898438 4.148438 -3.238281 4.015625 -3.53125 C 3.890625 -3.832031 3.707031 -4.066406 3.46875 -4.234375 C 3.226562 -4.398438 2.953125 -4.484375 2.640625 -4.484375 C 2.335938 -4.484375 2.0625 -4.398438 1.8125 -4.234375 C 1.570312 -4.066406 1.382812 -3.832031 1.25 -3.53125 C 1.125 -3.238281 1.0625 -2.898438 1.0625 -2.515625 C 1.0625 -2.128906 1.125 -1.785156 1.25 -1.484375 C 1.382812 -1.191406 1.570312 -0.960938 1.8125 -0.796875 C 2.0625 -0.628906 2.335938 -0.546875 2.640625 -0.546875 Z M 2.640625 -0.546875 "/></g></g></g><g fill="#0661aa" fill-opacity="1"><g transform="translate(93.063223, 113.544446)"><g><path d="M 2.671875 0.171875 C 2.191406 0.171875 1.773438 0.0625 1.421875 -0.15625 C 1.066406 -0.382812 0.789062 -0.703125 0.59375 -1.109375 C 0.394531 -1.515625 0.296875 -1.984375 0.296875 -2.515625 C 0.296875 -3.054688 0.394531 -3.523438 0.59375 -3.921875 C 0.789062 -4.328125 1.066406 -4.640625 1.421875 -4.859375 C 1.773438 -5.085938 2.191406 -5.203125 2.671875 -5.203125 C 3.160156 -5.203125 3.582031 -5.085938 3.9375 -4.859375 C 4.289062 -4.640625 4.566406 -4.328125 4.765625 -3.921875 C 4.960938 -3.523438 5.0625 -3.054688 5.0625 -2.515625 C 5.0625 -1.984375 4.960938 -1.515625 4.765625 -1.109375 C 4.566406 -0.703125 4.289062 -0.382812 3.9375 -0.15625 C 3.582031 0.0625 3.160156 0.171875 2.671875 0.171875 Z M 2.671875 -0.515625 C 3.160156 -0.515625 3.550781 -0.695312 3.84375 -1.0625 C 4.144531 -1.425781 4.296875 -1.910156 4.296875 -2.515625 C 4.296875 -3.117188 4.144531 -3.597656 3.84375 -3.953125 C 3.550781 -4.316406 3.160156 -4.5 2.671875 -4.5 C 2.179688 -4.5 1.789062 -4.316406 1.5 -3.953125 C 1.207031 -3.597656 1.0625 -3.117188 1.0625 -2.515625 C 1.0625 -1.910156 1.207031 -1.425781 1.5 -1.0625 C 1.789062 -0.695312 2.179688 -0.515625 2.671875 -0.515625 Z M 2.671875 -0.515625 "/></g></g></g></svg>