<svg xmlns="http://www.w3.org/2000/svg" xmlns:xlink="http://www.w3.org/1999/xlink" width="180" zoomAndPan="magnify" viewBox="0 0 135 119.999999" height="160" preserveAspectRatio="xMidYMid meet" version="1.0"><defs><clipPath id="edce226622"><path d="M 9.75 77 L 32 77 L 32 85 L 9.75 85 Z M 9.75 77 " clip-rule="nonzero"/></clipPath><clipPath id="0c7ccc413c"><path d="M 9.75 70 L 32 70 L 32 77 L 9.75 77 Z M 9.75 70 " clip-rule="nonzero"/></clipPath><clipPath id="d8e180f059"><path d="M 9.75 62 L 32 62 L 32 70 L 9.75 70 Z M 9.75 62 " clip-rule="nonzero"/></clipPath><clipPath id="2841012301"><path d="M 34 106 L 39 106 L 39 117.75 L 34 117.75 Z M 34 106 " clip-rule="nonzero"/></clipPath><clipPath id="83a99635d4"><path d="M 81 106 L 85 106 L 85 117.75 L 81 117.75 Z M 81 106 " clip-rule="nonzero"/></clipPath><clipPath id="ba9a959577"><path d="M 21 2.25 L 125.25 2.25 L 125.25 117.75 L 21 117.75 Z M 21 2.25 " clip-rule="nonzero"/></clipPath></defs><rect x="-13.5" width="162" fill="#ffffff" y="-12" height="143.999998" fill-opacity="1"/><rect x="-13.5" width="162" fill="#ffffff" y="-12" height="143.999998" fill-opacity="1"/><path fill="#0661aa" d="M 47.316406 50.1875 C 49.070312 49.308594 51.175781 49.445312 52.808594 50.53125 L 55 51.992188 C 55.328125 52.210938 55.699219 52.3125 56.0625 52.3125 C 56.683594 52.3125 57.292969 52.011719 57.664062 51.457031 C 58.253906 50.574219 58.015625 49.378906 57.132812 48.792969 L 54.941406 47.332031 C 52.164062 45.480469 48.582031 45.257812 45.597656 46.75 C 44.648438 47.222656 44.261719 48.378906 44.738281 49.328125 C 45.210938 50.277344 46.363281 50.664062 47.316406 50.1875 Z M 47.316406 50.1875 " fill-opacity="1" fill-rule="nonzero"/><path fill="#0661aa" d="M 63.753906 52.3125 C 64.121094 52.3125 64.492188 52.210938 64.820312 51.988281 L 67.011719 50.53125 C 68.640625 49.441406 70.746094 49.308594 72.503906 50.1875 C 73.453125 50.660156 74.605469 50.277344 75.082031 49.328125 C 75.554688 48.378906 75.167969 47.222656 74.222656 46.75 C 71.234375 45.257812 67.65625 45.480469 64.878906 47.332031 L 62.6875 48.792969 C 61.804688 49.378906 61.566406 50.574219 62.15625 51.457031 C 62.523438 52.011719 63.132812 52.3125 63.753906 52.3125 Z M 63.753906 52.3125 " fill-opacity="1" fill-rule="nonzero"/><path fill="#0661aa" d="M 56.628906 63.28125 L 58.550781 65.203125 C 58.925781 65.578125 59.417969 65.765625 59.910156 65.765625 C 60.402344 65.765625 60.894531 65.578125 61.269531 65.203125 C 62.019531 64.449219 62.019531 63.234375 61.269531 62.484375 L 60.324219 61.542969 L 61.628906 58.9375 C 62.105469 57.988281 61.71875 56.835938 60.769531 56.359375 C 59.816406 55.886719 58.664062 56.273438 58.191406 57.21875 L 56.269531 61.0625 C 55.898438 61.800781 56.042969 62.695312 56.628906 63.28125 Z M 56.628906 63.28125 " fill-opacity="1" fill-rule="nonzero"/><path fill="#0661aa" d="M 64.609375 68.011719 C 61.753906 69.914062 58.0625 69.914062 55.207031 68.011719 C 54.324219 67.421875 53.128906 67.660156 52.542969 68.542969 C 51.953125 69.425781 52.191406 70.621094 53.074219 71.207031 C 55.152344 72.589844 57.527344 73.285156 59.90625 73.285156 C 62.285156 73.285156 64.664062 72.589844 66.738281 71.207031 C 67.621094 70.621094 67.859375 69.425781 67.269531 68.542969 C 66.683594 67.660156 65.488281 67.421875 64.609375 68.011719 Z M 64.609375 68.011719 " fill-opacity="1" fill-rule="nonzero"/><path fill="#0661aa" d="M 74.71875 52.875 C 73.96875 52.125 72.753906 52.125 72.003906 52.875 C 70.632812 54.246094 68.402344 54.246094 67.03125 52.875 C 66.28125 52.125 65.066406 52.125 64.316406 52.875 C 63.5625 53.628906 63.5625 54.84375 64.316406 55.59375 C 65.75 57.027344 67.632812 57.746094 69.519531 57.746094 C 71.402344 57.746094 73.285156 57.027344 74.71875 55.59375 C 75.472656 54.84375 75.472656 53.628906 74.71875 52.875 Z M 74.71875 52.875 " fill-opacity="1" fill-rule="nonzero"/><path fill="#0661aa" d="M 55.503906 52.875 C 54.75 52.125 53.535156 52.125 52.785156 52.875 C 51.414062 54.246094 49.183594 54.246094 47.816406 52.875 C 47.0625 52.125 45.847656 52.125 45.097656 52.875 C 44.347656 53.628906 44.347656 54.84375 45.097656 55.59375 C 46.53125 57.027344 48.417969 57.746094 50.300781 57.746094 C 52.183594 57.746094 54.070312 57.027344 55.503906 55.59375 C 56.253906 54.84375 56.253906 53.628906 55.503906 52.875 Z M 55.503906 52.875 " fill-opacity="1" fill-rule="nonzero"/><path fill="#0661aa" d="M 87.523438 42.859375 C 86.957031 43.757812 87.226562 44.941406 88.125 45.507812 C 91.203125 47.445312 94.734375 48.46875 98.34375 48.46875 C 108.941406 48.46875 117.5625 39.847656 117.5625 29.25 C 117.5625 18.65625 108.941406 10.035156 98.34375 10.035156 C 87.75 10.035156 79.125 18.65625 79.125 29.25 C 79.125 32.859375 80.152344 36.394531 82.089844 39.46875 C 82.652344 40.367188 83.84375 40.636719 84.738281 40.070312 C 85.636719 39.507812 85.90625 38.316406 85.339844 37.421875 C 83.789062 34.960938 82.96875 32.132812 82.96875 29.25 C 82.96875 24.671875 84.992188 20.570312 88.175781 17.75 C 87.921875 18.660156 87.773438 19.617188 87.773438 20.601562 C 87.773438 26.433594 92.515625 31.171875 98.34375 31.171875 C 102.054688 31.171875 105.070312 34.191406 105.070312 37.898438 C 105.070312 41.609375 102.054688 44.625 98.34375 44.625 C 95.460938 44.625 92.636719 43.808594 90.171875 42.257812 C 89.277344 41.691406 88.089844 41.960938 87.523438 42.859375 Z M 98.34375 27.328125 C 94.636719 27.328125 91.617188 24.3125 91.617188 20.601562 C 91.617188 16.894531 94.636719 13.875 98.34375 13.875 C 106.820312 13.875 113.71875 20.773438 113.71875 29.25 C 113.71875 33.828125 111.699219 37.933594 108.511719 40.75 C 108.769531 39.84375 108.914062 38.886719 108.914062 37.898438 C 108.914062 32.070312 104.171875 27.328125 98.34375 27.328125 Z M 98.34375 27.328125 " fill-opacity="1" fill-rule="nonzero"/><path fill="#0661aa" d="M 100.265625 19.640625 C 100.265625 19.898438 100.21875 20.140625 100.121094 20.378906 C 100.023438 20.613281 99.882812 20.820312 99.703125 21 C 99.523438 21.179688 99.316406 21.320312 99.082031 21.417969 C 98.84375 21.515625 98.601562 21.5625 98.34375 21.5625 C 98.089844 21.5625 97.84375 21.515625 97.609375 21.417969 C 97.375 21.320312 97.167969 21.179688 96.984375 21 C 96.804688 20.820312 96.667969 20.613281 96.570312 20.378906 C 96.472656 20.140625 96.421875 19.898438 96.421875 19.640625 C 96.421875 19.386719 96.472656 19.140625 96.570312 18.90625 C 96.667969 18.671875 96.804688 18.464844 96.984375 18.285156 C 97.167969 18.101562 97.375 17.964844 97.609375 17.867188 C 97.84375 17.769531 98.089844 17.71875 98.34375 17.71875 C 98.601562 17.71875 98.84375 17.769531 99.082031 17.867188 C 99.316406 17.964844 99.523438 18.101562 99.703125 18.285156 C 99.882812 18.464844 100.023438 18.671875 100.121094 18.90625 C 100.21875 19.140625 100.265625 19.386719 100.265625 19.640625 Z M 100.265625 19.640625 " fill-opacity="1" fill-rule="nonzero"/><path fill="#0661aa" d="M 100.265625 38.859375 C 100.265625 39.113281 100.21875 39.359375 100.121094 39.59375 C 100.023438 39.832031 99.882812 40.039062 99.703125 40.21875 C 99.523438 40.398438 99.316406 40.539062 99.082031 40.636719 C 98.84375 40.734375 98.601562 40.78125 98.34375 40.78125 C 98.089844 40.78125 97.84375 40.734375 97.609375 40.636719 C 97.375 40.539062 97.167969 40.398438 96.984375 40.21875 C 96.804688 40.039062 96.667969 39.832031 96.570312 39.59375 C 96.472656 39.359375 96.421875 39.113281 96.421875 38.859375 C 96.421875 38.605469 96.472656 38.359375 96.570312 38.125 C 96.667969 37.890625 96.804688 37.679688 96.984375 37.5 C 97.167969 37.320312 97.375 37.183594 97.609375 37.085938 C 97.84375 36.988281 98.089844 36.9375 98.34375 36.9375 C 98.601562 36.9375 98.84375 36.988281 99.082031 37.085938 C 99.316406 37.183594 99.523438 37.320312 99.703125 37.5 C 99.882812 37.679688 100.023438 37.890625 100.121094 38.125 C 100.21875 38.359375 100.265625 38.605469 100.265625 38.859375 Z M 100.265625 38.859375 " fill-opacity="1" fill-rule="nonzero"/><path fill="#0661aa" d="M 117.5625 62.402344 C 115.804688 62.402344 114.195312 63.207031 113.144531 64.613281 C 112.5 65.46875 111.09375 65.46875 110.453125 64.613281 C 109.398438 63.207031 107.789062 62.402344 106.03125 62.402344 C 104.277344 62.402344 102.664062 63.207031 101.613281 64.613281 C 100.96875 65.46875 99.5625 65.46875 98.921875 64.613281 C 97.867188 63.207031 96.257812 62.402344 94.5 62.402344 C 92.746094 62.402344 91.132812 63.207031 90.082031 64.613281 C 89.441406 65.460938 89.617188 66.667969 90.464844 67.304688 C 91.316406 67.941406 92.523438 67.769531 93.15625 66.917969 C 93.796875 66.0625 95.203125 66.0625 95.847656 66.917969 C 96.898438 68.324219 98.511719 69.128906 100.265625 69.128906 C 102.023438 69.128906 103.632812 68.324219 104.6875 66.917969 C 105.328125 66.0625 106.734375 66.0625 107.378906 66.917969 C 108.429688 68.324219 110.039062 69.128906 111.796875 69.128906 C 113.554688 69.128906 115.164062 68.324219 116.21875 66.917969 C 116.859375 66.0625 118.265625 66.0625 118.90625 66.917969 C 119.542969 67.765625 120.746094 67.941406 121.597656 67.304688 C 122.449219 66.667969 122.617188 65.460938 121.984375 64.613281 C 120.929688 63.207031 119.320312 62.402344 117.5625 62.402344 Z M 117.5625 62.402344 " fill-opacity="1" fill-rule="nonzero"/><path fill="#0661aa" d="M 117.5625 70.089844 C 115.804688 70.089844 114.195312 70.894531 113.144531 72.300781 C 112.5 73.15625 111.09375 73.15625 110.453125 72.300781 C 109.398438 70.894531 107.789062 70.089844 106.03125 70.089844 C 104.277344 70.089844 102.664062 70.894531 101.613281 72.300781 C 100.96875 73.15625 99.5625 73.15625 98.921875 72.300781 C 97.867188 70.894531 96.257812 70.089844 94.5 70.089844 C 92.746094 70.089844 91.132812 70.894531 90.082031 72.300781 C 89.441406 73.148438 89.617188 74.355469 90.464844 74.988281 C 91.316406 75.628906 92.523438 75.453125 93.15625 74.605469 C 93.796875 73.75 95.203125 73.75 95.847656 74.605469 C 96.898438 76.011719 98.511719 76.816406 100.265625 76.816406 C 102.023438 76.816406 103.632812 76.011719 104.6875 74.605469 C 105.328125 73.75 106.734375 73.75 107.378906 74.605469 C 108.429688 76.011719 110.039062 76.816406 111.796875 76.816406 C 113.554688 76.816406 115.164062 76.011719 116.21875 74.605469 C 116.859375 73.75 118.265625 73.75 118.90625 74.605469 C 119.542969 75.453125 120.746094 75.628906 121.597656 74.988281 C 122.449219 74.355469 122.617188 73.148438 121.984375 72.300781 C 120.929688 70.894531 119.320312 70.089844 117.5625 70.089844 Z M 117.5625 70.089844 " fill-opacity="1" fill-rule="nonzero"/><path fill="#0661aa" d="M 117.5625 77.777344 C 115.804688 77.777344 114.195312 78.582031 113.144531 79.988281 C 112.5 80.84375 111.09375 80.84375 110.453125 79.988281 C 109.398438 78.582031 107.789062 77.777344 106.03125 77.777344 C 104.277344 77.777344 102.664062 78.582031 101.613281 79.988281 C 100.96875 80.84375 99.5625 80.84375 98.921875 79.988281 C 97.867188 78.582031 96.257812 77.777344 94.5 77.777344 C 92.746094 77.777344 91.132812 78.582031 90.082031 79.988281 C 89.441406 80.835938 89.617188 82.042969 90.464844 82.675781 C 91.316406 83.316406 92.523438 83.140625 93.15625 82.292969 C 93.796875 81.4375 95.203125 81.4375 95.847656 82.292969 C 96.898438 83.699219 98.511719 84.503906 100.265625 84.503906 C 102.023438 84.503906 103.632812 83.699219 104.6875 82.292969 C 105.328125 81.4375 106.734375 81.4375 107.378906 82.292969 C 108.429688 83.699219 110.039062 84.503906 111.796875 84.503906 C 113.554688 84.503906 115.164062 83.699219 116.21875 82.292969 C 116.859375 81.4375 118.265625 81.4375 118.90625 82.292969 C 119.542969 83.140625 120.746094 83.316406 121.597656 82.675781 C 122.449219 82.042969 122.617188 80.835938 121.984375 79.988281 C 120.929688 78.582031 119.320312 77.777344 117.5625 77.777344 Z M 117.5625 77.777344 " fill-opacity="1" fill-rule="nonzero"/><g clip-path="url(#edce226622)"><path fill="#0661aa" d="M 24.933594 82.292969 C 25.574219 81.4375 26.980469 81.4375 27.621094 82.292969 C 28.261719 83.140625 29.464844 83.316406 30.3125 82.675781 C 31.164062 82.042969 31.332031 80.835938 30.699219 79.988281 C 29.644531 78.582031 28.035156 77.777344 26.277344 77.777344 C 24.519531 77.777344 22.910156 78.582031 21.855469 79.988281 C 21.214844 80.84375 19.808594 80.84375 19.167969 79.988281 C 18.113281 78.582031 16.503906 77.777344 14.746094 77.777344 C 12.988281 77.777344 11.378906 78.582031 10.328125 79.988281 C 9.6875 80.835938 9.863281 82.042969 10.710938 82.675781 C 11.5625 83.316406 12.765625 83.140625 13.402344 82.292969 C 14.042969 81.4375 15.449219 81.4375 16.09375 82.292969 C 17.144531 83.699219 18.753906 84.503906 20.511719 84.503906 C 22.269531 84.503906 23.878906 83.699219 24.933594 82.292969 Z M 24.933594 82.292969 " fill-opacity="1" fill-rule="nonzero"/></g><g clip-path="url(#0c7ccc413c)"><path fill="#0661aa" d="M 13.402344 74.605469 C 14.042969 73.75 15.449219 73.75 16.09375 74.605469 C 17.144531 76.011719 18.753906 76.816406 20.511719 76.816406 C 22.269531 76.816406 23.878906 76.011719 24.933594 74.605469 C 25.574219 73.75 26.980469 73.75 27.621094 74.605469 C 28.261719 75.453125 29.464844 75.628906 30.3125 74.988281 C 31.164062 74.355469 31.332031 73.148438 30.699219 72.300781 C 29.644531 70.894531 28.035156 70.089844 26.277344 70.089844 C 24.519531 70.089844 22.910156 70.894531 21.855469 72.300781 C 21.214844 73.15625 19.808594 73.15625 19.167969 72.300781 C 18.113281 70.894531 16.503906 70.089844 14.746094 70.089844 C 12.988281 70.089844 11.378906 70.894531 10.328125 72.300781 C 9.6875 73.148438 9.863281 74.355469 10.710938 74.988281 C 11.5625 75.628906 12.765625 75.453125 13.402344 74.605469 Z M 13.402344 74.605469 " fill-opacity="1" fill-rule="nonzero"/></g><g clip-path="url(#d8e180f059)"><path fill="#0661aa" d="M 13.402344 66.917969 C 14.042969 66.0625 15.449219 66.0625 16.09375 66.917969 C 17.144531 68.324219 18.753906 69.128906 20.511719 69.128906 C 22.269531 69.128906 23.878906 68.324219 24.933594 66.917969 C 25.574219 66.0625 26.980469 66.0625 27.621094 66.917969 C 28.261719 67.765625 29.464844 67.941406 30.3125 67.304688 C 31.164062 66.667969 31.332031 65.460938 30.699219 64.613281 C 29.644531 63.207031 28.035156 62.402344 26.277344 62.402344 C 24.519531 62.402344 22.910156 63.207031 21.855469 64.613281 C 21.214844 65.46875 19.808594 65.46875 19.167969 64.613281 C 18.113281 63.207031 16.503906 62.402344 14.746094 62.402344 C 12.988281 62.402344 11.378906 63.207031 10.328125 64.613281 C 9.6875 65.460938 9.863281 66.667969 10.710938 67.304688 C 11.5625 67.941406 12.765625 67.769531 13.402344 66.917969 Z M 13.402344 66.917969 " fill-opacity="1" fill-rule="nonzero"/></g><g clip-path="url(#2841012301)"><path fill="#0661aa" d="M 36.847656 106.125 C 35.785156 106.125 34.925781 106.984375 34.925781 108.042969 L 34.925781 115.730469 C 34.925781 116.792969 35.785156 117.652344 36.847656 117.652344 C 37.90625 117.652344 38.769531 116.792969 38.769531 115.730469 L 38.769531 108.042969 C 38.769531 106.984375 37.90625 106.125 36.847656 106.125 Z M 36.847656 106.125 " fill-opacity="1" fill-rule="nonzero"/></g><g clip-path="url(#83a99635d4)"><path fill="#0661aa" d="M 82.96875 106.125 C 81.910156 106.125 81.046875 106.984375 81.046875 108.042969 L 81.046875 115.730469 C 81.046875 116.792969 81.910156 117.652344 82.96875 117.652344 C 84.03125 117.652344 84.890625 116.792969 84.890625 115.730469 L 84.890625 108.042969 C 84.890625 106.984375 84.03125 106.125 82.96875 106.125 Z M 82.96875 106.125 " fill-opacity="1" fill-rule="nonzero"/></g><g clip-path="url(#ba9a959577)"><path fill="#0661aa" d="M 89.277344 89.628906 C 84.4375 85.394531 78.230469 83.0625 71.796875 83.0625 L 71.441406 83.0625 L 71.441406 79.617188 C 77.214844 75.839844 81.046875 69.324219 81.046875 61.921875 L 81.046875 61.832031 C 85.195312 61.449219 88.660156 58.691406 90 54.824219 C 92.65625 55.691406 95.46875 56.15625 98.34375 56.15625 C 113.179688 56.15625 125.25 44.085938 125.25 29.25 C 125.25 23.527344 123.453125 18.046875 120.050781 13.394531 C 119.425781 12.539062 118.21875 12.351562 117.367188 12.980469 C 116.507812 13.605469 116.324219 14.808594 116.949219 15.664062 C 119.863281 19.652344 121.40625 24.347656 121.40625 29.25 C 121.40625 41.96875 111.0625 52.3125 98.34375 52.3125 C 89.984375 52.3125 82.257812 47.761719 78.183594 40.4375 C 77.78125 39.707031 76.960938 39.320312 76.132812 39.484375 L 67.140625 41.246094 L 74.949219 34.933594 C 75.488281 34.496094 75.75 33.804688 75.636719 33.121094 C 75.398438 31.722656 75.285156 30.457031 75.285156 29.25 C 75.285156 16.535156 85.628906 6.191406 98.34375 6.191406 C 103.246094 6.191406 107.945312 7.730469 111.929688 10.644531 C 112.789062 11.273438 113.988281 11.085938 114.613281 10.230469 C 115.242188 9.375 115.054688 8.171875 114.199219 7.542969 C 109.550781 4.144531 104.070312 2.347656 98.34375 2.347656 C 85.707031 2.347656 75.105469 11.117188 72.234375 22.882812 L 70.710938 21.867188 C 66.640625 19.152344 61.90625 17.71875 57.015625 17.71875 C 55.957031 17.71875 55.09375 18.582031 55.09375 19.640625 C 55.09375 20.703125 55.957031 21.5625 57.015625 21.5625 C 61.144531 21.5625 65.144531 22.773438 68.578125 25.0625 L 70.964844 26.65625 C 71.148438 26.777344 71.351562 26.882812 71.554688 26.984375 C 71.492188 27.734375 71.441406 28.488281 71.441406 29.25 C 71.441406 30.335938 71.515625 31.453125 71.675781 32.640625 L 64.542969 38.40625 C 63.878906 38.28125 63.246094 38.125 62.660156 37.890625 L 57.273438 35.734375 C 52.769531 33.933594 47.621094 34.695312 43.832031 37.726562 C 41.59375 39.519531 40.035156 41.929688 39.285156 44.617188 C 38.957031 44.425781 38.617188 44.25 38.253906 44.113281 L 36.996094 41.847656 C 34.203125 36.828125 34.875 30.546875 38.65625 26.222656 C 41.25 23.261719 44.996094 21.5625 48.933594 21.5625 L 50.300781 21.5625 C 51.359375 21.5625 52.222656 20.703125 52.222656 19.640625 C 52.222656 18.582031 51.359375 17.71875 50.300781 17.71875 L 48.933594 17.71875 C 43.890625 17.71875 39.089844 19.898438 35.765625 23.695312 C 30.917969 29.234375 30.0625 37.28125 33.636719 43.71875 L 33.808594 44.027344 C 31.121094 44.90625 29.160156 47.414062 29.160156 50.390625 C 29.160156 55.894531 33.390625 60.425781 38.769531 60.914062 L 38.769531 61.921875 C 38.769531 73.578125 48.253906 83.0625 59.910156 83.0625 C 62.621094 83.0625 65.210938 82.527344 67.597656 81.59375 L 67.597656 84.984375 C 67.597656 86.042969 68.457031 86.90625 69.519531 86.90625 L 71.796875 86.90625 C 72.117188 86.90625 72.4375 86.9375 72.757812 86.949219 C 71.070312 92.519531 65.871094 96.515625 59.910156 96.515625 C 53.949219 96.515625 48.75 92.519531 47.058594 86.949219 C 47.378906 86.9375 47.699219 86.90625 48.023438 86.90625 C 49.082031 86.90625 49.945312 86.042969 49.945312 84.984375 C 49.945312 83.921875 49.082031 83.0625 48.023438 83.0625 C 41.589844 83.0625 35.378906 85.394531 30.539062 89.628906 C 24.777344 94.671875 21.472656 101.953125 21.472656 109.609375 L 21.472656 115.730469 C 21.472656 116.792969 22.332031 117.652344 23.394531 117.652344 C 24.457031 117.652344 25.316406 116.792969 25.316406 115.730469 L 25.316406 109.609375 C 25.316406 103.0625 28.144531 96.835938 33.070312 92.523438 C 35.984375 89.972656 39.476562 88.253906 43.207031 87.441406 C 45.171875 94.925781 52.027344 100.359375 59.910156 100.359375 C 67.792969 100.359375 74.644531 94.925781 76.609375 87.441406 C 80.339844 88.253906 83.835938 89.976562 86.75 92.523438 C 91.675781 96.835938 94.5 103.0625 94.5 109.609375 L 94.5 115.730469 C 94.5 116.792969 95.363281 117.652344 96.421875 117.652344 C 97.484375 117.652344 98.34375 116.792969 98.34375 115.730469 L 98.34375 109.609375 C 98.34375 101.953125 95.039062 94.671875 89.277344 89.628906 Z M 86.457031 53.371094 C 85.691406 55.820312 83.59375 57.617188 81.046875 57.988281 L 81.046875 49.84375 C 82.707031 51.234375 84.523438 52.414062 86.457031 53.371094 Z M 33.003906 50.390625 C 33.003906 48.800781 34.296875 47.507812 35.886719 47.507812 C 37.476562 47.507812 38.769531 48.800781 38.769531 50.390625 L 38.769531 57.046875 C 35.511719 56.582031 33.003906 53.773438 33.003906 50.390625 Z M 42.613281 61.921875 L 42.613281 48.265625 C 42.613281 45.316406 43.933594 42.570312 46.234375 40.730469 C 48.941406 38.5625 52.628906 38.015625 55.847656 39.304688 L 60.917969 41.335938 L 58.699219 43.132812 C 58.011719 43.6875 57.792969 44.640625 58.164062 45.441406 C 58.539062 46.238281 59.414062 46.683594 60.277344 46.511719 L 75.539062 43.515625 C 76.027344 44.296875 76.5625 45.035156 77.121094 45.753906 C 77.160156 46.121094 77.203125 46.488281 77.203125 46.859375 L 77.203125 61.921875 C 77.203125 71.457031 69.445312 79.21875 59.910156 79.21875 C 50.371094 79.21875 42.613281 71.457031 42.613281 61.921875 Z M 42.613281 61.921875 " fill-opacity="1" fill-rule="nonzero"/></g></svg>