<svg xmlns="http://www.w3.org/2000/svg" xmlns:xlink="http://www.w3.org/1999/xlink" width="180" zoomAndPan="magnify" viewBox="0 0 135 119.999999" height="160" preserveAspectRatio="xMidYMid meet" version="1.0"><defs><clipPath id="486cebc416"><path d="M 2 7 L 133 7 L 133 112.695312 L 2 112.695312 Z M 2 7 " clip-rule="nonzero"/></clipPath></defs><rect x="-13.5" width="162" fill="#ffffff" y="-12" height="143.999998" fill-opacity="1"/><rect x="-13.5" width="162" fill="#ffffff" y="-12" height="143.999998" fill-opacity="1"/><g clip-path="url(#486cebc416)"><path fill="#0661aa" d="M 72.425781 99.308594 C 72.445312 99.308594 72.46875 99.308594 72.484375 99.308594 C 72.824219 99.332031 73.132812 99.511719 73.308594 99.804688 C 78.734375 108.488281 89.003906 112.714844 98.863281 110.300781 C 108.726562 107.898438 115.976562 99.398438 116.910156 89.148438 C 116.957031 88.632812 117.371094 88.234375 117.886719 88.210938 C 124.066406 87.886719 129.148438 83.363281 130.273438 77.195312 C 131.390625 71.027344 128.21875 64.945312 122.558594 62.429688 C 122.242188 62.28125 122.015625 62 121.960938 61.667969 C 121.894531 61.328125 122.007812 60.988281 122.25 60.746094 C 127.691406 55.34375 129.074219 47.066406 125.699219 40.152344 C 122.324219 33.238281 115 29.34375 107.476562 30.453125 C 106.984375 30.535156 106.492188 30.226562 106.335938 29.742188 C 102.667969 18.050781 92.082031 9.894531 79.996094 9.449219 C 67.886719 9.042969 56.761719 16.359375 52.269531 27.75 C 52.140625 28.074219 51.851562 28.316406 51.511719 28.382812 C 51.152344 28.453125 50.804688 28.339844 50.5625 28.089844 C 45.8125 23.207031 38.4375 22.261719 32.632812 25.78125 C 26.8125 29.3125 24.15625 36.363281 26.164062 42.929688 C 26.253906 43.226562 26.207031 43.558594 26.027344 43.820312 C 25.847656 44.078125 25.566406 44.238281 25.25 44.261719 C 12.777344 45.210938 3.492188 55.871094 4.105469 68.546875 C 4.730469 81.226562 15.042969 90.882812 27.515625 90.582031 C 27.984375 90.574219 28.40625 90.882812 28.535156 91.335938 C 31.152344 100.371094 38.4375 107.089844 47.558594 108.859375 C 56.675781 110.625 65.894531 107.128906 71.609375 99.714844 C 71.804688 99.460938 72.113281 99.308594 72.425781 99.308594 Z M 93.3125 113.046875 C 85.085938 113.046875 77.226562 109.039062 72.347656 102.09375 C 66.097656 109.363281 56.585938 112.730469 47.164062 110.894531 C 37.53125 109.023438 29.792969 102.070312 26.78125 92.664062 C 13.496094 92.589844 2.707031 82.1875 2.042969 68.652344 C 1.386719 55.265625 10.882812 43.941406 23.859375 42.320312 C 22.230469 35.207031 25.28125 27.816406 31.554688 24.011719 C 37.75 20.246094 45.503906 20.941406 50.925781 25.597656 C 56.082031 14.191406 67.53125 6.914062 80.070312 7.382812 C 92.746094 7.84375 103.882812 16.214844 108.042969 28.292969 C 116.148438 27.464844 123.917969 31.78125 127.5625 39.238281 C 131.117188 46.53125 129.933594 55.167969 124.679688 61.175781 C 130.410156 64.386719 133.519531 70.929688 132.3125 77.566406 C 131.074219 84.390625 125.617188 89.472656 118.882812 90.203125 C 117.546875 100.945312 109.800781 109.769531 99.351562 112.316406 C 97.34375 112.8125 95.320312 113.046875 93.3125 113.046875 " fill-opacity="1" fill-rule="nonzero"/></g><path fill="#0661aa" d="M 77.648438 46.734375 C 72.507812 46.734375 68.324219 50.917969 68.324219 56.058594 L 68.324219 72.636719 C 68.324219 77.777344 72.507812 81.960938 77.648438 81.960938 C 82.789062 81.960938 86.972656 77.777344 86.972656 72.636719 L 86.972656 56.058594 C 86.972656 50.917969 82.789062 46.734375 77.648438 46.734375 Z M 77.648438 84.035156 C 71.367188 84.035156 66.25 78.917969 66.25 72.636719 L 66.25 56.058594 C 66.25 49.777344 71.367188 44.660156 77.648438 44.660156 C 83.929688 44.660156 89.046875 49.777344 89.046875 56.058594 L 89.046875 72.636719 C 89.046875 78.917969 83.929688 84.035156 77.648438 84.035156 " fill-opacity="1" fill-rule="nonzero"/><path fill="#0661aa" d="M 48.636719 84.035156 C 42.355469 84.035156 37.238281 78.917969 37.238281 72.636719 L 37.238281 56.058594 C 37.238281 49.777344 42.355469 44.660156 48.636719 44.660156 C 54.917969 44.660156 60.035156 49.777344 60.035156 56.058594 C 60.035156 56.632812 59.574219 57.09375 58.996094 57.09375 C 58.421875 57.09375 57.960938 56.632812 57.960938 56.058594 C 57.960938 50.917969 53.777344 46.734375 48.636719 46.734375 C 43.496094 46.734375 39.3125 50.917969 39.3125 56.058594 L 39.3125 72.636719 C 39.3125 77.777344 43.496094 81.960938 48.636719 81.960938 C 53.777344 81.960938 57.960938 77.777344 57.960938 72.636719 C 57.960938 72.0625 58.421875 71.601562 58.996094 71.601562 C 59.574219 71.601562 60.035156 72.0625 60.035156 72.636719 C 60.035156 78.917969 54.917969 84.035156 48.636719 84.035156 " fill-opacity="1" fill-rule="nonzero"/><path fill="#0661aa" d="M 104.589844 86.105469 L 96.300781 86.105469 C 95.886719 86.105469 95.503906 85.863281 95.34375 85.476562 C 95.183594 85.09375 95.261719 84.65625 95.546875 84.359375 L 102.546875 77.007812 C 102.589844 76.941406 102.636719 76.878906 102.695312 76.8125 C 103.253906 76.253906 103.550781 75.527344 103.550781 74.707031 C 103.550781 72.992188 102.160156 71.601562 100.445312 71.601562 C 98.726562 71.601562 97.335938 72.992188 97.335938 74.707031 C 97.335938 75.285156 96.875 75.746094 96.300781 75.746094 C 95.722656 75.746094 95.261719 75.285156 95.261719 74.707031 C 95.261719 71.851562 97.585938 69.527344 100.445312 69.527344 C 103.300781 69.527344 105.625 71.851562 105.625 74.707031 C 105.625 75.980469 105.171875 77.175781 104.328125 78.109375 C 104.289062 78.164062 104.25 78.230469 104.191406 78.277344 L 98.71875 84.035156 L 104.589844 84.035156 C 105.164062 84.035156 105.625 84.496094 105.625 85.070312 C 105.625 85.644531 105.164062 86.105469 104.589844 86.105469 " fill-opacity="1" fill-rule="nonzero"/></svg>