<svg xmlns="http://www.w3.org/2000/svg" xmlns:xlink="http://www.w3.org/1999/xlink" width="177" zoomAndPan="magnify" viewBox="0 0 132.75 119.999999" height="160" preserveAspectRatio="xMidYMid meet" version="1.0"><defs><clipPath id="d48d02dac1"><path d="M 67 18.398438 L 110.777344 18.398438 L 110.777344 101.488281 L 67 101.488281 Z M 67 18.398438 " clip-rule="nonzero"/></clipPath><clipPath id="1a472a3066"><path d="M 67.167969 18.4375 L 110.777344 18.4375 L 110.777344 101.488281 L 67.167969 101.488281 Z M 67.167969 18.4375 " clip-rule="nonzero"/></clipPath><clipPath id="041baab208"><path d="M 79 91 L 81 91 L 81 101.488281 L 79 101.488281 Z M 79 91 " clip-rule="nonzero"/></clipPath><clipPath id="747529da82"><path d="M 21.703125 18.398438 L 65.410156 18.398438 L 65.410156 101.488281 L 21.703125 101.488281 Z M 21.703125 18.398438 " clip-rule="nonzero"/></clipPath></defs><g clip-path="url(#d48d02dac1)"><path fill="#0661aa" d="M 80.394531 18.917969 C 79.734375 18.917969 79.066406 18.980469 78.402344 19.132812 C 75.941406 19.6875 73.941406 21.316406 72.464844 23.972656 C 72.304688 24.265625 72.148438 24.558594 72.003906 24.835938 C 70.144531 28.457031 69.480469 31.660156 70.019531 34.355469 L 70.019531 34.363281 L 70.015625 34.367188 C 70.003906 34.386719 68.894531 36.183594 68.253906 38.570312 C 67.667969 40.765625 67.367188 43.929688 69.296875 46.503906 L 69.300781 46.515625 L 69.300781 46.523438 C 69.289062 46.546875 68.417969 48.953125 68.175781 52.015625 C 67.957031 54.84375 68.246094 58.820312 70.871094 61.730469 L 70.898438 61.757812 L 70.859375 61.761719 C 70.847656 61.765625 69.359375 62.023438 68.421875 63.78125 C 67.726562 65.082031 67.5 66.855469 67.753906 69.054688 C 68.078125 71.894531 69.203125 75.429688 71.09375 79.558594 L 71.097656 79.570312 L 71.089844 79.582031 C 71.070312 79.601562 69.097656 81.632812 69.128906 84.488281 C 69.148438 86.425781 70.070312 88.292969 71.867188 90.039062 L 71.875 90.046875 L 71.871094 90.054688 C 71.871094 90.070312 71.574219 91.425781 71.609375 93.164062 C 71.636719 94.765625 71.960938 97.023438 73.332031 98.695312 C 74.671875 100.328125 76.757812 101.128906 79.535156 101.070312 C 79.539062 101.074219 80.042969 101.105469 80.820312 100.878906 C 82.261719 100.460938 85.019531 99.035156 87.289062 94.164062 L 87.292969 94.15625 L 87.296875 94.15625 C 87.308594 94.148438 88.351562 93.628906 89.585938 92.667969 C 90.730469 91.777344 92.273438 90.324219 93.15625 88.429688 C 94.003906 86.617188 94.105469 84.714844 93.460938 82.78125 L 93.457031 82.757812 L 93.480469 82.753906 C 93.515625 82.75 97.023438 82.203125 98.542969 79.894531 C 99.269531 78.785156 99.429688 77.453125 99.023438 75.921875 L 99.019531 75.902344 L 99.035156 75.898438 C 99.046875 75.894531 100.070312 75.609375 101.273438 74.929688 C 102.382812 74.304688 103.878906 73.203125 104.703125 71.519531 C 105.59375 69.714844 105.550781 67.601562 104.582031 65.238281 L 104.578125 65.222656 L 104.589844 65.214844 C 104.601562 65.210938 105.515625 64.644531 106.523438 63.621094 C 107.449219 62.675781 108.640625 61.136719 109.058594 59.175781 C 109.515625 57.019531 108.964844 54.789062 107.421875 52.542969 L 107.414062 52.53125 L 107.425781 52.519531 C 107.433594 52.507812 108.316406 51.445312 109.101562 49.808594 C 109.820312 48.300781 110.601562 45.980469 110.214844 43.5 C 109.777344 40.683594 107.957031 38.242188 104.808594 36.25 L 104.800781 36.246094 L 104.796875 36.234375 C 104.792969 36.191406 104.246094 31.886719 101.574219 28.023438 C 98.628906 23.765625 94.355469 21.671875 88.875 21.808594 L 88.867188 21.808594 L 88.863281 21.804688 C 88.851562 21.792969 87.5 20.839844 85.546875 20.035156 C 84.195312 19.480469 82.34375 18.917969 80.394531 18.917969 Z M 79.265625 101.113281 C 76.609375 101.113281 74.605469 100.308594 73.300781 98.722656 C 71.925781 97.039062 71.597656 94.769531 71.566406 93.164062 C 71.535156 91.503906 71.804688 90.191406 71.832031 90.058594 C 70.03125 88.308594 69.109375 86.433594 69.089844 84.488281 C 69.058594 81.71875 70.902344 79.722656 71.050781 79.5625 C 69.160156 75.433594 68.039062 71.898438 67.714844 69.058594 C 67.460938 66.851562 67.6875 65.066406 68.386719 63.761719 C 69.253906 62.136719 70.585938 61.78125 70.820312 61.730469 C 69.667969 60.445312 68.867188 58.851562 68.441406 56.988281 C 68.097656 55.488281 67.996094 53.816406 68.136719 52.011719 C 68.371094 49.046875 69.195312 46.695312 69.257812 46.519531 C 68.40625 45.378906 67.914062 44.027344 67.792969 42.507812 C 67.699219 41.292969 67.839844 39.960938 68.21875 38.558594 C 68.839844 36.242188 69.902344 34.476562 69.976562 34.355469 C 69.734375 33.125 69.742188 31.765625 70.003906 30.3125 C 70.3125 28.605469 70.972656 26.757812 71.96875 24.820312 C 72.113281 24.539062 72.269531 24.246094 72.429688 23.953125 C 73.914062 21.285156 75.917969 19.652344 78.394531 19.09375 C 81.039062 18.496094 83.753906 19.257812 85.5625 20 C 87.457031 20.777344 88.785156 21.699219 88.882812 21.769531 C 91.875 21.695312 94.546875 22.300781 96.820312 23.570312 C 98.683594 24.613281 100.292969 26.101562 101.605469 28 C 104.222656 31.785156 104.808594 35.992188 104.835938 36.222656 C 107.992188 38.21875 109.8125 40.667969 110.253906 43.492188 C 110.640625 45.984375 109.859375 48.3125 109.136719 49.828125 C 108.394531 51.375 107.5625 52.414062 107.464844 52.535156 C 109.007812 54.785156 109.554688 57.019531 109.097656 59.183594 C 108.675781 61.15625 107.480469 62.699219 106.550781 63.648438 C 105.609375 64.605469 104.746094 65.164062 104.625 65.242188 C 105.59375 67.609375 105.632812 69.726562 104.742188 71.539062 C 103.910156 73.230469 102.40625 74.335938 101.292969 74.964844 C 100.171875 75.597656 99.210938 75.890625 99.066406 75.929688 C 99.472656 77.464844 99.304688 78.804688 98.574219 79.914062 C 97.777344 81.128906 96.433594 81.847656 95.449219 82.238281 C 94.480469 82.621094 93.65625 82.765625 93.507812 82.789062 C 94.144531 84.726562 94.039062 86.632812 93.195312 88.445312 C 92.308594 90.347656 90.757812 91.808594 89.609375 92.699219 C 88.421875 93.625 87.410156 94.140625 87.320312 94.1875 C 86.332031 96.3125 85.15625 97.992188 83.824219 99.179688 C 82.636719 100.246094 81.539062 100.714844 80.828125 100.917969 C 80.042969 101.144531 79.539062 101.113281 79.535156 101.113281 C 79.441406 101.113281 79.351562 101.113281 79.265625 101.113281 " fill-opacity="1" fill-rule="nonzero"/></g><g clip-path="url(#1a472a3066)"><path fill="#0661aa" d="M 79.5625 100.632812 C 79.570312 100.632812 80.007812 100.65625 80.695312 100.457031 C 82.066406 100.0625 84.695312 98.691406 86.890625 93.976562 L 86.957031 93.832031 L 87.101562 93.761719 C 87.144531 93.742188 91.136719 91.722656 92.757812 88.246094 C 93.554688 86.535156 93.652344 84.746094 93.046875 82.917969 L 92.875 82.402344 L 93.414062 82.320312 C 93.449219 82.3125 96.769531 81.792969 98.175781 79.648438 C 98.832031 78.652344 98.972656 77.4375 98.597656 76.035156 L 98.480469 75.597656 L 98.921875 75.472656 C 98.960938 75.464844 102.824219 74.359375 104.3125 71.320312 C 105.140625 69.636719 105.09375 67.644531 104.175781 65.40625 L 104.027344 65.042969 L 104.363281 64.839844 C 104.371094 64.835938 105.257812 64.285156 106.226562 63.292969 C 107.105469 62.390625 108.234375 60.929688 108.628906 59.078125 C 109.058594 57.046875 108.53125 54.933594 107.0625 52.792969 L 106.863281 52.503906 L 107.085938 52.238281 C 107.097656 52.226562 107.957031 51.1875 108.714844 49.59375 C 109.402344 48.144531 110.148438 45.921875 109.777344 43.558594 C 109.359375 40.875 107.609375 38.542969 104.574219 36.621094 L 104.390625 36.503906 L 104.363281 36.289062 C 104.355469 36.246094 103.824219 32.050781 101.210938 28.273438 C 98.355469 24.144531 94.210938 22.117188 88.886719 22.246094 L 88.734375 22.25 L 88.609375 22.160156 C 88.59375 22.152344 87.273438 21.214844 85.359375 20.433594 C 83.617188 19.722656 81.015625 18.992188 78.496094 19.5625 C 76.164062 20.089844 74.261719 21.644531 72.851562 24.183594 C 72.707031 24.445312 72.570312 24.699219 72.441406 24.949219 L 72.441406 24.953125 L 72.390625 25.042969 C 70.609375 28.519531 69.9375 31.710938 70.449219 34.265625 L 70.484375 34.445312 L 70.390625 34.601562 C 70.378906 34.617188 69.292969 36.378906 68.675781 38.703125 C 67.863281 41.753906 68.1875 44.292969 69.648438 46.242188 L 69.796875 46.441406 L 69.710938 46.675781 C 69.703125 46.699219 68.847656 49.066406 68.613281 52.074219 C 68.402344 54.804688 68.679688 58.648438 71.199219 61.433594 L 71.769531 62.0625 L 70.933594 62.195312 C 70.882812 62.207031 69.617188 62.445312 68.792969 64.015625 C 67.738281 66.027344 67.347656 70.324219 71.492188 79.375 L 71.625 79.664062 L 71.402344 79.890625 C 71.382812 79.910156 69.539062 81.808594 69.570312 84.480469 C 69.589844 86.300781 70.464844 88.0625 72.171875 89.722656 L 72.359375 89.902344 L 72.300781 90.152344 C 72.289062 90.203125 71.183594 95.378906 73.671875 98.417969 C 74.878906 99.890625 76.761719 100.636719 79.265625 100.636719 C 79.351562 100.636719 79.4375 100.632812 79.527344 100.632812 Z M 72.960938 99 C 71.808594 97.59375 71.175781 95.578125 71.128906 93.171875 C 71.101562 91.808594 71.269531 90.6875 71.355469 90.207031 C 69.582031 88.417969 68.671875 86.496094 68.648438 84.492188 C 68.625 81.992188 69.988281 80.125 70.53125 79.484375 C 68.695312 75.425781 67.601562 71.933594 67.277344 69.109375 C 67.011719 66.808594 67.257812 64.941406 68 63.550781 C 68.628906 62.375 69.476562 61.800781 70.074219 61.527344 C 69.09375 60.28125 68.402344 58.789062 68.011719 57.085938 C 67.660156 55.542969 67.554688 53.824219 67.699219 51.980469 C 67.902344 49.371094 68.539062 47.277344 68.769531 46.59375 C 67.949219 45.425781 67.476562 44.0625 67.355469 42.542969 C 67.257812 41.273438 67.402344 39.894531 67.792969 38.441406 C 68.347656 36.375 69.226562 34.769531 69.515625 34.273438 C 69.292969 33.035156 69.3125 31.675781 69.570312 30.234375 C 69.882812 28.511719 70.542969 26.652344 71.53125 24.710938 L 71.578125 24.617188 C 71.722656 24.332031 71.882812 24.035156 72.046875 23.738281 C 73.59375 20.957031 75.695312 19.25 78.300781 18.664062 C 80.480469 18.171875 83.050781 18.492188 85.730469 19.59375 C 87.40625 20.28125 88.628906 21.0625 89.015625 21.324219 C 92.027344 21.273438 94.726562 21.898438 97.035156 23.1875 C 98.957031 24.261719 100.617188 25.796875 101.96875 27.75 C 104.394531 31.257812 105.097656 35.015625 105.246094 35.960938 C 108.40625 38.007812 110.238281 40.519531 110.6875 43.425781 C 111.007812 45.484375 110.609375 47.761719 109.53125 50.015625 C 108.953125 51.230469 108.328125 52.128906 108.007812 52.554688 C 109.484375 54.816406 109.992188 57.078125 109.527344 59.277344 C 109.175781 60.917969 108.257812 62.535156 106.863281 63.957031 C 106.175781 64.65625 105.535156 65.148438 105.164062 65.40625 C 106.050781 67.765625 106.042969 69.890625 105.136719 71.730469 C 104.4375 73.152344 103.183594 74.402344 101.507812 75.347656 C 100.71875 75.792969 100.015625 76.074219 99.585938 76.222656 C 99.894531 77.714844 99.679688 79.035156 98.941406 80.15625 C 97.65625 82.113281 95.15625 82.878906 94.066406 83.125 C 94.578125 85.011719 94.417969 86.859375 93.59375 88.632812 C 92.667969 90.613281 91.066406 92.125 89.882812 93.046875 C 88.867188 93.835938 87.992188 94.328125 87.65625 94.507812 C 86.65625 96.621094 85.464844 98.304688 84.117188 99.507812 C 83.128906 100.394531 82.035156 101.027344 80.953125 101.339844 C 80.175781 101.566406 79.652344 101.558594 79.527344 101.550781 C 79.4375 101.554688 79.351562 101.554688 79.265625 101.554688 C 76.472656 101.554688 74.351562 100.695312 72.960938 99 " fill-opacity="1" fill-rule="nonzero"/></g><path fill="#0661aa" d="M 69.28125 46.519531 L 69.648438 46.242188 C 69.996094 46.773438 70.363281 47.292969 70.746094 47.796875 C 70.9375 48.046875 71.136719 48.296875 71.339844 48.539062 C 71.398438 48.609375 71.457031 48.679688 71.519531 48.75 C 71.5625 48.800781 71.605469 48.847656 71.652344 48.894531 C 71.71875 48.972656 71.785156 49.046875 71.855469 49.121094 C 71.894531 49.164062 71.929688 49.207031 71.96875 49.25 C 72.40625 49.707031 72.867188 50.144531 73.378906 50.519531 C 73.636719 50.707031 73.902344 50.878906 74.1875 51.019531 C 74.328125 51.089844 74.472656 51.15625 74.625 51.207031 C 74.777344 51.257812 74.933594 51.296875 75.09375 51.300781 C 74.933594 51.316406 74.769531 51.292969 74.609375 51.261719 C 74.449219 51.230469 74.296875 51.179688 74.140625 51.125 C 73.835938 51.015625 73.539062 50.871094 73.253906 50.714844 C 72.6875 50.390625 72.15625 50 71.65625 49.582031 C 71.53125 49.480469 71.410156 49.371094 71.285156 49.261719 C 71.160156 49.15625 71.042969 49.046875 70.921875 48.933594 C 70.683594 48.710938 70.453125 48.480469 70.222656 48.246094 C 69.839844 47.851562 69.472656 47.445312 69.113281 47.027344 L 69.28125 46.519531 " fill-opacity="1" fill-rule="nonzero"/><path fill="#0661aa" d="M 77.9375 65.546875 C 77.792969 65.652344 77.621094 65.707031 77.449219 65.742188 C 77.277344 65.777344 77.101562 65.785156 76.929688 65.773438 C 76.578125 65.75 76.238281 65.65625 75.917969 65.53125 C 75.59375 65.402344 75.285156 65.238281 74.988281 65.054688 C 74.835938 64.964844 74.695312 64.863281 74.550781 64.765625 L 74.234375 64.53125 L 74.132812 64.449219 C 73.585938 64.011719 73.074219 63.527344 72.589844 63.019531 C 72.105469 62.511719 71.644531 61.980469 71.199219 61.433594 L 70.515625 62.050781 C 71.03125 62.5625 71.5625 63.054688 72.117188 63.523438 C 72.671875 63.992188 73.25 64.433594 73.867188 64.824219 L 74.335938 65.105469 C 74.496094 65.191406 74.65625 65.28125 74.820312 65.355469 C 75.152344 65.515625 75.492188 65.652344 75.84375 65.75 C 76.195312 65.84375 76.5625 65.90625 76.925781 65.886719 C 77.109375 65.878906 77.292969 65.851562 77.464844 65.796875 C 77.636719 65.742188 77.804688 65.664062 77.9375 65.546875 " fill-opacity="1" fill-rule="nonzero"/><path fill="#0661aa" d="M 70 34.359375 C 70 34.359375 70.449219 34.269531 70.449219 34.269531 L 70.496094 34.59375 L 70.519531 34.757812 L 70.554688 34.917969 C 70.578125 35.027344 70.597656 35.132812 70.621094 35.242188 L 70.710938 35.5625 C 70.835938 35.984375 71 36.398438 71.207031 36.796875 C 71.417969 37.191406 71.675781 37.566406 71.976562 37.902344 C 72.132812 38.066406 72.292969 38.226562 72.472656 38.367188 C 72.652344 38.503906 72.847656 38.636719 73.066406 38.710938 C 72.835938 38.671875 72.617188 38.574219 72.410156 38.460938 C 72.203125 38.351562 72.011719 38.214844 71.820312 38.070312 C 71.449219 37.773438 71.117188 37.425781 70.824219 37.046875 C 70.53125 36.664062 70.28125 36.25 70.066406 35.8125 L 69.914062 35.480469 C 69.867188 35.371094 69.824219 35.257812 69.78125 35.144531 L 69.714844 34.972656 L 69.691406 34.902344 L 70 34.359375 " fill-opacity="1" fill-rule="nonzero"/><path fill="#0661aa" d="M 89.535156 21.785156 C 89.527344 22 89.402344 22.207031 89.195312 22.316406 C 89.175781 22.324219 89.144531 22.34375 89.121094 22.355469 L 89.035156 22.40625 L 88.871094 22.507812 C 88.757812 22.578125 88.648438 22.652344 88.539062 22.726562 C 88.316406 22.875 88.101562 23.03125 87.890625 23.195312 C 87.464844 23.519531 87.058594 23.871094 86.675781 24.246094 C 86.292969 24.621094 85.933594 25.023438 85.613281 25.449219 C 85.289062 25.875 84.996094 26.324219 84.753906 26.804688 C 84.507812 27.28125 84.3125 27.78125 84.171875 28.300781 C 84.035156 28.820312 83.957031 29.359375 83.949219 29.902344 C 83.941406 30.175781 83.957031 30.449219 83.980469 30.722656 C 84.007812 30.992188 84.054688 31.265625 84.109375 31.535156 C 84.226562 32.070312 84.398438 32.601562 84.617188 33.109375 C 84.351562 32.621094 84.128906 32.109375 83.960938 31.574219 C 83.878906 31.304688 83.804688 31.03125 83.753906 30.753906 C 83.703125 30.476562 83.660156 30.195312 83.640625 29.914062 C 83.613281 29.542969 83.617188 29.171875 83.648438 28.800781 C 83.652344 28.722656 83.660156 28.644531 83.671875 28.566406 C 83.683594 28.445312 83.703125 28.324219 83.722656 28.207031 C 83.816406 27.640625 83.976562 27.082031 84.191406 26.550781 C 84.40625 26.015625 84.671875 25.5 84.976562 25.011719 C 85.28125 24.523438 85.625 24.058594 85.996094 23.617188 C 86.371094 23.179688 86.769531 22.761719 87.191406 22.371094 C 87.402344 22.175781 87.621094 21.984375 87.84375 21.800781 C 87.957031 21.707031 88.070312 21.617188 88.1875 21.527344 C 88.230469 21.496094 88.277344 21.460938 88.320312 21.425781 L 89.535156 21.785156 " fill-opacity="1" fill-rule="nonzero"/><path fill="#0661aa" d="M 83.957031 28.207031 C 83.667969 28.589844 83.355469 28.941406 83.015625 29.269531 C 82.679688 29.59375 82.316406 29.886719 81.921875 30.128906 C 81.722656 30.246094 81.519531 30.359375 81.308594 30.449219 C 81.09375 30.539062 80.878906 30.621094 80.652344 30.679688 L 80.570312 30.703125 L 80.484375 30.71875 L 80.3125 30.757812 C 80.199219 30.773438 80.082031 30.796875 79.964844 30.808594 C 79.734375 30.839844 79.496094 30.839844 79.253906 30.847656 C 79.488281 30.902344 79.730469 30.945312 79.972656 30.953125 C 80.09375 30.960938 80.214844 30.949219 80.339844 30.949219 C 80.398438 30.945312 80.460938 30.933594 80.519531 30.929688 L 80.613281 30.917969 L 80.703125 30.902344 C 80.945312 30.863281 81.183594 30.792969 81.414062 30.707031 C 81.644531 30.617188 81.863281 30.503906 82.074219 30.378906 C 82.492188 30.121094 82.867188 29.792969 83.183594 29.425781 C 83.5 29.058594 83.773438 28.652344 83.957031 28.207031 " fill-opacity="1" fill-rule="nonzero"/><path fill="#0661aa" d="M 79.550781 23.054688 C 79.332031 23.082031 79.125 23.152344 78.929688 23.238281 C 78.730469 23.328125 78.546875 23.441406 78.371094 23.570312 C 78.019531 23.828125 77.714844 24.171875 77.503906 24.578125 C 77.394531 24.777344 77.316406 25 77.269531 25.226562 C 77.222656 25.453125 77.207031 25.6875 77.234375 25.914062 C 77.238281 25.945312 77.238281 25.972656 77.242188 26 L 77.261719 26.085938 C 77.273438 26.140625 77.28125 26.199219 77.296875 26.25 C 77.3125 26.304688 77.328125 26.359375 77.347656 26.414062 C 77.363281 26.464844 77.390625 26.515625 77.410156 26.566406 C 77.5 26.769531 77.625 26.953125 77.777344 27.109375 C 77.769531 26.671875 77.765625 26.285156 77.835938 25.929688 C 77.863281 25.75 77.914062 25.578125 77.96875 25.414062 C 78.027344 25.246094 78.097656 25.085938 78.179688 24.925781 C 78.34375 24.609375 78.550781 24.304688 78.785156 24 C 79.019531 23.691406 79.277344 23.390625 79.550781 23.054688 " fill-opacity="1" fill-rule="nonzero"/><path fill="#0661aa" d="M 71.984375 24.828125 L 72.433594 24.925781 C 72.425781 24.964844 72.414062 25.015625 72.40625 25.0625 C 72.398438 25.113281 72.390625 25.164062 72.378906 25.210938 C 72.363281 25.3125 72.351562 25.414062 72.339844 25.519531 C 72.316406 25.722656 72.300781 25.929688 72.292969 26.136719 C 72.273438 26.550781 72.289062 26.964844 72.335938 27.375 C 72.386719 27.789062 72.46875 28.195312 72.589844 28.585938 C 72.707031 28.980469 72.871094 29.359375 73.074219 29.714844 C 73.472656 30.433594 74.046875 31.046875 74.734375 31.515625 C 74.777344 31.546875 74.820312 31.578125 74.863281 31.605469 L 74.996094 31.6875 L 75.265625 31.847656 L 75.6875 32.058594 C 75.734375 32.082031 75.785156 32.101562 75.832031 32.121094 L 76.125 32.242188 L 76.199219 32.273438 L 76.273438 32.300781 L 76.421875 32.351562 L 76.722656 32.453125 L 77.03125 32.535156 L 77.664062 32.707031 C 77.769531 32.734375 77.878906 32.761719 77.984375 32.796875 L 78.304688 32.898438 C 78.515625 32.964844 78.71875 33.058594 78.925781 33.140625 C 79.03125 33.175781 79.128906 33.230469 79.230469 33.28125 C 79.332031 33.328125 79.433594 33.375 79.53125 33.429688 C 79.722656 33.542969 79.921875 33.644531 80.101562 33.777344 L 80.242188 33.871094 L 80.308594 33.917969 C 80.332031 33.9375 80.355469 33.953125 80.375 33.972656 L 80.636719 34.179688 C 80.976562 34.476562 81.28125 34.804688 81.539062 35.167969 C 82.054688 35.898438 82.355469 36.761719 82.464844 37.632812 C 82.519531 38.070312 82.527344 38.511719 82.496094 38.945312 C 82.484375 39.164062 82.457031 39.382812 82.421875 39.597656 C 82.386719 39.8125 82.347656 40.027344 82.285156 40.238281 C 82.335938 40.023438 82.371094 39.808594 82.394531 39.59375 C 82.421875 39.378906 82.4375 39.160156 82.441406 38.945312 C 82.449219 38.511719 82.425781 38.074219 82.351562 37.648438 C 82.207031 36.796875 81.878906 35.980469 81.351562 35.304688 C 81.09375 34.96875 80.789062 34.667969 80.457031 34.402344 L 80.199219 34.214844 C 80.175781 34.199219 80.15625 34.183594 80.132812 34.167969 L 80.066406 34.128906 L 79.929688 34.042969 C 79.753906 33.925781 79.558594 33.835938 79.375 33.734375 C 79.277344 33.6875 79.179688 33.648438 79.082031 33.605469 C 78.984375 33.566406 78.886719 33.519531 78.785156 33.484375 C 78.585938 33.417969 78.386719 33.335938 78.179688 33.285156 L 77.871094 33.195312 C 77.792969 33.171875 77.714844 33.15625 77.632812 33.140625 C 77.609375 33.136719 77.582031 33.128906 77.558594 33.125 L 76.921875 32.984375 L 76.753906 32.945312 L 76.597656 32.910156 L 76.273438 32.816406 L 76.113281 32.769531 L 76.03125 32.746094 L 75.953125 32.714844 L 75.636719 32.601562 C 75.582031 32.578125 75.527344 32.5625 75.476562 32.539062 L 75.324219 32.46875 L 75.011719 32.332031 L 74.714844 32.167969 L 74.5625 32.089844 C 74.515625 32.058594 74.46875 32.027344 74.417969 31.996094 L 74.132812 31.808594 L 73.859375 31.601562 C 73.765625 31.535156 73.679688 31.457031 73.59375 31.382812 C 73.511719 31.304688 73.417969 31.234375 73.339844 31.148438 L 73.101562 30.898438 L 72.878906 30.632812 L 72.824219 30.566406 L 72.671875 30.355469 C 72.640625 30.308594 72.605469 30.261719 72.574219 30.214844 L 72.480469 30.066406 C 72.238281 29.675781 72.035156 29.257812 71.878906 28.824219 C 71.726562 28.390625 71.613281 27.941406 71.539062 27.488281 C 71.46875 27.035156 71.429688 26.578125 71.429688 26.121094 C 71.429688 26.074219 71.429688 26.023438 71.429688 25.976562 L 71.984375 24.828125 " fill-opacity="1" fill-rule="nonzero"/><path fill="#0661aa" d="M 76.84375 32.65625 C 76.792969 32.808594 76.75 32.949219 76.707031 33.09375 C 76.664062 33.238281 76.625 33.382812 76.585938 33.527344 C 76.507812 33.816406 76.433594 34.109375 76.367188 34.398438 C 76.238281 34.984375 76.132812 35.574219 76.074219 36.171875 C 76.015625 36.769531 75.996094 37.378906 76.097656 37.976562 C 76.148438 38.273438 76.234375 38.570312 76.382812 38.835938 C 76.53125 39.101562 76.75 39.324219 77.019531 39.449219 C 76.769531 39.292969 76.589844 39.050781 76.488281 38.785156 C 76.382812 38.519531 76.335938 38.234375 76.324219 37.949219 C 76.304688 37.378906 76.398438 36.808594 76.527344 36.246094 C 76.65625 35.6875 76.832031 35.136719 77.03125 34.59375 C 77.128906 34.324219 77.234375 34.054688 77.347656 33.789062 C 77.402344 33.65625 77.460938 33.523438 77.515625 33.390625 C 77.574219 33.261719 77.636719 33.128906 77.695312 33.007812 L 76.84375 32.65625 " fill-opacity="1" fill-rule="nonzero"/><path fill="#0661aa" d="M 101.175781 27.441406 C 101.128906 27.429688 101.082031 27.421875 101.035156 27.410156 C 100.808594 27.363281 100.578125 27.316406 100.351562 27.273438 C 99.890625 27.1875 99.429688 27.117188 98.96875 27.058594 C 98.042969 26.945312 97.109375 26.886719 96.171875 26.9375 C 95.703125 26.964844 95.238281 27.023438 94.777344 27.125 C 94.320312 27.230469 93.867188 27.386719 93.453125 27.625 C 93.042969 27.859375 92.683594 28.191406 92.449219 28.601562 C 92.214844 29.011719 92.117188 29.476562 92.101562 29.933594 C 92.152344 29.480469 92.289062 29.03125 92.546875 28.664062 C 92.800781 28.292969 93.164062 28.015625 93.5625 27.828125 C 93.964844 27.636719 94.398438 27.527344 94.839844 27.464844 C 95.28125 27.402344 95.730469 27.386719 96.179688 27.398438 C 97.078125 27.425781 97.972656 27.554688 98.855469 27.738281 C 99.296875 27.832031 99.734375 27.9375 100.171875 28.058594 C 100.386719 28.117188 100.605469 28.179688 100.820312 28.246094 C 100.925781 28.277344 101.035156 28.3125 101.140625 28.347656 C 101.246094 28.378906 101.355469 28.417969 101.453125 28.453125 L 101.589844 28.011719 L 101.175781 27.441406 " fill-opacity="1" fill-rule="nonzero"/><path fill="#0661aa" d="M 104.523438 35.878906 C 104.507812 35.894531 104.476562 35.921875 104.453125 35.941406 L 104.375 36.003906 C 104.320312 36.046875 104.269531 36.089844 104.214844 36.132812 C 104.105469 36.214844 103.992188 36.300781 103.878906 36.378906 C 103.648438 36.539062 103.414062 36.691406 103.175781 36.835938 C 102.691406 37.121094 102.191406 37.378906 101.671875 37.589844 C 100.632812 38.011719 99.519531 38.265625 98.394531 38.25 C 97.269531 38.242188 96.148438 37.941406 95.144531 37.394531 C 94.640625 37.125 94.164062 36.796875 93.722656 36.425781 C 93.28125 36.058594 92.871094 35.648438 92.488281 35.210938 C 92.839844 35.671875 93.226562 36.109375 93.648438 36.511719 C 94.066406 36.917969 94.53125 37.28125 95.027344 37.59375 C 95.527344 37.90625 96.0625 38.164062 96.625 38.355469 C 96.90625 38.449219 97.195312 38.527344 97.488281 38.585938 C 97.777344 38.644531 98.074219 38.683594 98.371094 38.710938 C 99.566406 38.804688 100.777344 38.613281 101.910156 38.234375 C 102.476562 38.046875 103.027344 37.8125 103.5625 37.539062 C 103.828125 37.402344 104.089844 37.257812 104.347656 37.101562 C 104.476562 37.023438 104.605469 36.941406 104.730469 36.859375 C 104.792969 36.816406 104.855469 36.773438 104.917969 36.730469 L 105.011719 36.660156 C 105.046875 36.636719 105.074219 36.617188 105.113281 36.585938 L 104.523438 35.878906 " fill-opacity="1" fill-rule="nonzero"/><path fill="#0661aa" d="M 95.230469 37.578125 C 94.957031 37.574219 94.683594 37.601562 94.410156 37.644531 C 94.140625 37.6875 93.871094 37.75 93.605469 37.832031 C 93.34375 37.917969 93.085938 38.027344 92.839844 38.160156 C 92.597656 38.296875 92.367188 38.460938 92.164062 38.65625 C 91.964844 38.851562 91.789062 39.082031 91.667969 39.335938 C 91.542969 39.589844 91.464844 39.863281 91.425781 40.140625 C 91.367188 40.699219 91.464844 41.257812 91.652344 41.769531 C 91.535156 41.238281 91.480469 40.6875 91.5625 40.160156 C 91.613281 39.898438 91.691406 39.644531 91.816406 39.410156 C 91.933594 39.175781 92.097656 38.964844 92.289062 38.78125 C 92.476562 38.597656 92.691406 38.441406 92.921875 38.304688 C 93.152344 38.167969 93.398438 38.058594 93.652344 37.964844 C 93.902344 37.867188 94.164062 37.789062 94.425781 37.726562 C 94.691406 37.664062 94.960938 37.613281 95.230469 37.578125 " fill-opacity="1" fill-rule="nonzero"/><path fill="#0661aa" d="M 104.589844 42.261719 C 104.480469 42.046875 104.335938 41.863281 104.175781 41.691406 C 104.011719 41.519531 103.832031 41.363281 103.636719 41.226562 C 103.246094 40.957031 102.785156 40.757812 102.28125 40.691406 C 101.78125 40.625 101.234375 40.722656 100.800781 40.984375 C 100.585938 41.117188 100.394531 41.277344 100.242188 41.464844 C 100.085938 41.652344 99.96875 41.863281 99.882812 42.082031 C 100.292969 41.84375 100.667969 41.636719 101.046875 41.53125 C 101.097656 41.519531 101.144531 41.503906 101.191406 41.492188 C 101.238281 41.484375 101.285156 41.476562 101.332031 41.464844 C 101.378906 41.457031 101.425781 41.453125 101.472656 41.445312 C 101.519531 41.4375 101.566406 41.433594 101.617188 41.433594 C 101.804688 41.421875 101.992188 41.425781 102.1875 41.449219 C 102.570312 41.5 102.960938 41.609375 103.355469 41.757812 C 103.753906 41.902344 104.15625 42.082031 104.589844 42.261719 " fill-opacity="1" fill-rule="nonzero"/><path fill="#0661aa" d="M 90.378906 44.226562 C 90.132812 44.160156 89.894531 44.097656 89.664062 44.03125 C 89.433594 43.964844 89.207031 43.898438 88.988281 43.820312 C 88.554688 43.667969 88.148438 43.480469 87.800781 43.238281 C 87.449219 42.996094 87.164062 42.691406 86.933594 42.320312 C 86.703125 41.941406 86.542969 41.5 86.378906 41.015625 C 86.34375 41.136719 86.308594 41.261719 86.289062 41.390625 C 86.277344 41.515625 86.257812 41.644531 86.261719 41.777344 C 86.261719 41.839844 86.265625 41.90625 86.265625 41.972656 C 86.273438 42.039062 86.285156 42.105469 86.292969 42.171875 C 86.296875 42.203125 86.300781 42.238281 86.308594 42.269531 L 86.332031 42.367188 C 86.347656 42.433594 86.359375 42.5 86.382812 42.5625 L 86.453125 42.753906 C 86.480469 42.820312 86.515625 42.878906 86.542969 42.941406 C 86.558594 42.972656 86.574219 43.003906 86.589844 43.035156 C 86.609375 43.0625 86.628906 43.089844 86.648438 43.121094 C 86.683594 43.179688 86.71875 43.238281 86.765625 43.292969 C 86.929688 43.515625 87.140625 43.707031 87.363281 43.863281 C 87.820312 44.179688 88.34375 44.347656 88.859375 44.402344 C 89.121094 44.429688 89.378906 44.429688 89.632812 44.402344 C 89.886719 44.375 90.140625 44.324219 90.378906 44.226562 " fill-opacity="1" fill-rule="nonzero"/><path fill="#0661aa" d="M 107.769531 52.304688 C 107.75 52.242188 107.734375 52.195312 107.714844 52.144531 L 107.664062 51.988281 C 107.628906 51.890625 107.589844 51.789062 107.554688 51.691406 C 107.476562 51.492188 107.394531 51.296875 107.3125 51.101562 C 107.140625 50.714844 106.953125 50.335938 106.746094 49.96875 C 106.335938 49.230469 105.855469 48.527344 105.273438 47.914062 C 104.691406 47.300781 104.003906 46.773438 103.226562 46.449219 C 103.03125 46.367188 102.835938 46.296875 102.628906 46.246094 C 102.429688 46.1875 102.222656 46.148438 102.015625 46.125 C 101.605469 46.066406 101.1875 46.078125 100.78125 46.128906 C 101.191406 46.117188 101.601562 46.144531 101.996094 46.238281 C 102.195312 46.277344 102.390625 46.335938 102.578125 46.410156 C 102.769531 46.476562 102.953125 46.5625 103.128906 46.65625 C 103.839844 47.03125 104.433594 47.585938 104.925781 48.214844 C 105.417969 48.839844 105.808594 49.542969 106.128906 50.273438 C 106.292969 50.640625 106.433594 51.015625 106.558594 51.390625 C 106.621094 51.582031 106.683594 51.773438 106.734375 51.964844 C 106.761719 52.058594 106.789062 52.152344 106.8125 52.25 L 106.847656 52.390625 C 106.855469 52.4375 106.867188 52.488281 106.875 52.527344 L 107.769531 52.304688 " fill-opacity="1" fill-rule="nonzero"/><path fill="#0661aa" d="M 105.984375 49.003906 C 105.90625 49.035156 105.816406 49.066406 105.730469 49.09375 L 105.464844 49.183594 C 105.289062 49.238281 105.113281 49.292969 104.933594 49.34375 C 104.578125 49.449219 104.21875 49.542969 103.855469 49.628906 C 103.132812 49.800781 102.398438 49.933594 101.65625 50.007812 C 100.917969 50.082031 100.167969 50.097656 99.433594 49.988281 C 99.066406 49.933594 98.703125 49.847656 98.359375 49.707031 C 98.015625 49.566406 97.6875 49.371094 97.410156 49.113281 C 97.660156 49.398438 97.972656 49.628906 98.308594 49.808594 C 98.648438 49.988281 99.015625 50.117188 99.386719 50.214844 C 100.136719 50.402344 100.910156 50.464844 101.679688 50.46875 C 102.449219 50.46875 103.21875 50.40625 103.980469 50.308594 C 104.359375 50.257812 104.742188 50.195312 105.121094 50.128906 C 105.308594 50.09375 105.496094 50.054688 105.6875 50.015625 L 105.96875 49.953125 C 106.066406 49.929688 106.15625 49.910156 106.257812 49.882812 L 105.984375 49.003906 " fill-opacity="1" fill-rule="nonzero"/><path fill="#0661aa" d="M 104.738281 64.792969 L 104.675781 64.773438 L 104.605469 64.746094 C 104.554688 64.730469 104.507812 64.710938 104.457031 64.691406 C 104.359375 64.65625 104.261719 64.613281 104.167969 64.570312 C 103.972656 64.484375 103.78125 64.390625 103.59375 64.292969 C 103.222656 64.089844 102.867188 63.859375 102.539062 63.597656 C 102.214844 63.335938 101.910156 63.046875 101.65625 62.722656 C 101.402344 62.398438 101.191406 62.046875 101.039062 61.667969 C 100.882812 61.292969 100.792969 60.890625 100.765625 60.480469 L 100.75 60.167969 C 100.742188 60.039062 100.738281 59.914062 100.71875 59.792969 C 100.691406 59.542969 100.625 59.300781 100.550781 59.066406 C 100.390625 58.601562 100.15625 58.171875 99.875 57.785156 C 99.589844 57.402344 99.261719 57.054688 98.902344 56.75 C 98.542969 56.441406 98.152344 56.179688 97.734375 55.957031 C 97.320312 55.734375 96.882812 55.550781 96.425781 55.429688 C 95.96875 55.308594 95.492188 55.234375 95.011719 55.246094 C 94.890625 55.253906 94.769531 55.253906 94.652344 55.273438 C 94.589844 55.28125 94.53125 55.285156 94.472656 55.296875 L 94.292969 55.332031 C 94.261719 55.335938 94.234375 55.339844 94.203125 55.347656 L 94.113281 55.371094 L 93.9375 55.421875 C 93.804688 55.46875 93.683594 55.527344 93.570312 55.597656 C 93.457031 55.671875 93.359375 55.75 93.269531 55.832031 C 93.179688 55.914062 93.09375 55.996094 93.015625 56.078125 C 92.855469 56.238281 92.710938 56.390625 92.558594 56.5 C 92.539062 56.515625 92.519531 56.527344 92.5 56.542969 C 92.480469 56.554688 92.460938 56.566406 92.4375 56.578125 L 92.308594 56.652344 C 92.214844 56.695312 92.125 56.742188 92.027344 56.777344 C 91.839844 56.847656 91.644531 56.90625 91.441406 56.9375 C 91.238281 56.96875 91.027344 56.984375 90.816406 56.964844 C 90.609375 56.941406 90.40625 56.894531 90.203125 56.832031 C 90.003906 56.769531 89.8125 56.679688 89.628906 56.574219 C 89.539062 56.523438 89.453125 56.464844 89.367188 56.40625 C 89.289062 56.339844 89.207031 56.277344 89.132812 56.199219 C 88.984375 56.054688 88.851562 55.894531 88.742188 55.714844 C 88.632812 55.535156 88.53125 55.34375 88.457031 55.144531 C 88.378906 54.945312 88.3125 54.738281 88.261719 54.53125 C 88.214844 54.316406 88.175781 54.105469 88.148438 53.886719 C 88.121094 53.671875 88.105469 53.445312 88.082031 53.222656 L 88.015625 52.554688 C 87.96875 52.109375 87.917969 51.660156 87.855469 51.214844 C 87.792969 50.769531 87.71875 50.324219 87.605469 49.882812 C 87.496094 49.441406 87.351562 49 87.105469 48.597656 C 86.980469 48.398438 86.839844 48.207031 86.65625 48.054688 C 86.476562 47.898438 86.269531 47.773438 86.050781 47.683594 C 85.828125 47.601562 85.597656 47.554688 85.367188 47.527344 C 85.136719 47.507812 84.90625 47.503906 84.679688 47.527344 C 84.222656 47.558594 83.777344 47.652344 83.339844 47.761719 L 83.015625 47.847656 C 82.960938 47.863281 82.910156 47.878906 82.855469 47.886719 L 82.695312 47.917969 C 82.480469 47.953125 82.265625 47.964844 82.046875 47.945312 C 81.832031 47.929688 81.621094 47.878906 81.421875 47.796875 C 81.222656 47.71875 81.035156 47.605469 80.863281 47.46875 C 80.523438 47.199219 80.25 46.84375 80.035156 46.460938 C 79.816406 46.074219 79.648438 45.660156 79.511719 45.238281 C 79.371094 44.816406 79.265625 44.382812 79.179688 43.945312 C 79.09375 43.507812 79.03125 43.066406 78.980469 42.621094 C 78.9375 42.175781 78.902344 41.730469 78.894531 41.285156 L 78.824219 41.285156 C 78.824219 41.734375 78.851562 42.183594 78.894531 42.628906 C 78.9375 43.078125 78.996094 43.523438 79.078125 43.964844 C 79.160156 44.40625 79.265625 44.84375 79.398438 45.273438 C 79.535156 45.703125 79.699219 46.125 79.917969 46.523438 C 80.140625 46.917969 80.414062 47.292969 80.769531 47.585938 C 80.949219 47.730469 81.148438 47.855469 81.359375 47.945312 C 81.574219 48.039062 81.800781 48.09375 82.03125 48.117188 C 82.261719 48.140625 82.496094 48.128906 82.722656 48.097656 L 82.894531 48.066406 C 82.949219 48.058594 83.003906 48.042969 83.0625 48.027344 L 83.386719 47.949219 C 83.816406 47.84375 84.253906 47.765625 84.691406 47.738281 C 84.910156 47.722656 85.128906 47.730469 85.34375 47.75 C 85.558594 47.777344 85.769531 47.824219 85.964844 47.902344 C 86.160156 47.984375 86.339844 48.09375 86.492188 48.234375 C 86.652344 48.375 86.777344 48.546875 86.886719 48.730469 C 87.105469 49.097656 87.238281 49.519531 87.339844 49.945312 C 87.441406 50.375 87.507812 50.8125 87.5625 51.253906 C 87.617188 51.695312 87.660156 52.140625 87.699219 52.585938 L 87.753906 53.253906 C 87.773438 53.476562 87.789062 53.695312 87.8125 53.925781 C 87.835938 54.15625 87.871094 54.382812 87.921875 54.609375 C 87.972656 54.832031 88.039062 55.058594 88.121094 55.277344 C 88.199219 55.496094 88.304688 55.707031 88.425781 55.910156 C 88.546875 56.113281 88.695312 56.300781 88.867188 56.472656 C 88.949219 56.558594 89.042969 56.632812 89.132812 56.710938 L 89.28125 56.816406 C 89.328125 56.855469 89.382812 56.878906 89.433594 56.914062 C 89.636719 57.03125 89.851562 57.136719 90.078125 57.214844 C 90.527344 57.367188 91.007812 57.429688 91.488281 57.40625 C 91.730469 57.398438 91.972656 57.351562 92.207031 57.273438 C 92.324219 57.238281 92.433594 57.1875 92.546875 57.136719 L 92.710938 57.050781 C 92.765625 57.023438 92.824219 56.984375 92.875 56.949219 C 93.085938 56.800781 93.253906 56.628906 93.410156 56.472656 C 93.488281 56.394531 93.566406 56.320312 93.640625 56.25 C 93.71875 56.183594 93.792969 56.125 93.871094 56.078125 C 93.949219 56.03125 94.027344 55.992188 94.109375 55.96875 L 94.332031 55.910156 C 94.355469 55.90625 94.382812 55.902344 94.40625 55.898438 L 94.558594 55.871094 C 94.609375 55.863281 94.660156 55.859375 94.710938 55.855469 C 94.8125 55.84375 94.917969 55.84375 95.019531 55.839844 C 95.433594 55.839844 95.851562 55.910156 96.257812 56.027344 C 96.660156 56.144531 97.050781 56.320312 97.421875 56.527344 C 97.789062 56.738281 98.140625 56.984375 98.457031 57.265625 C 98.773438 57.546875 99.058594 57.859375 99.296875 58.199219 C 99.535156 58.542969 99.722656 58.914062 99.847656 59.296875 C 99.902344 59.488281 99.949219 59.683594 99.96875 59.882812 C 99.984375 59.980469 99.980469 60.078125 99.984375 60.175781 L 99.996094 60.53125 C 100.019531 61.015625 100.117188 61.5 100.292969 61.957031 C 100.464844 62.414062 100.707031 62.84375 101 63.230469 C 101.289062 63.617188 101.632812 63.957031 101.996094 64.265625 C 102.363281 64.566406 102.753906 64.835938 103.164062 65.070312 C 103.367188 65.1875 103.578125 65.292969 103.792969 65.394531 C 103.898438 65.445312 104.007812 65.492188 104.117188 65.539062 C 104.171875 65.5625 104.226562 65.582031 104.285156 65.605469 L 104.367188 65.636719 C 104.398438 65.648438 104.425781 65.65625 104.464844 65.671875 L 104.738281 64.792969 " fill-opacity="1" fill-rule="nonzero"/><path fill="#0661aa" d="M 80.851562 47.550781 C 80.492188 48.023438 80.183594 48.527344 79.917969 49.054688 C 79.65625 49.582031 79.445312 50.140625 79.339844 50.722656 C 79.285156 51.015625 79.269531 51.3125 79.289062 51.609375 C 79.308594 51.902344 79.375 52.195312 79.492188 52.46875 C 79.613281 52.738281 79.785156 52.980469 79.992188 53.191406 L 80.148438 53.34375 C 80.207031 53.390625 80.265625 53.433594 80.324219 53.480469 C 80.351562 53.503906 80.378906 53.527344 80.410156 53.546875 L 80.503906 53.605469 L 80.6875 53.722656 L 80.503906 53.601562 L 80.414062 53.539062 C 80.386719 53.519531 80.359375 53.496094 80.328125 53.472656 C 80.273438 53.425781 80.214844 53.378906 80.160156 53.332031 L 80.007812 53.175781 C 79.808594 52.960938 79.644531 52.71875 79.535156 52.449219 C 79.316406 51.90625 79.308594 51.304688 79.425781 50.742188 C 79.546875 50.171875 79.761719 49.628906 80.035156 49.117188 C 80.308594 48.605469 80.628906 48.113281 80.988281 47.664062 L 80.851562 47.550781 " fill-opacity="1" fill-rule="nonzero"/><path fill="#0661aa" d="M 71.34375 49.167969 C 71.578125 49.15625 71.800781 49.128906 72.023438 49.101562 C 72.25 49.070312 72.472656 49.03125 72.691406 48.988281 C 73.136719 48.894531 73.570312 48.769531 73.992188 48.601562 C 74.199219 48.515625 74.402344 48.417969 74.601562 48.300781 C 74.796875 48.1875 74.980469 48.054688 75.148438 47.902344 C 75.488281 47.605469 75.734375 47.199219 75.828125 46.765625 C 75.699219 47.191406 75.429688 47.5625 75.082031 47.824219 C 74.90625 47.953125 74.722656 48.070312 74.527344 48.164062 C 74.328125 48.257812 74.125 48.335938 73.917969 48.40625 C 73.503906 48.535156 73.074219 48.621094 72.640625 48.675781 C 72.425781 48.703125 72.207031 48.722656 71.988281 48.734375 C 71.773438 48.746094 71.550781 48.753906 71.34375 48.746094 L 71.34375 49.167969 " fill-opacity="1" fill-rule="nonzero"/><path fill="#0661aa" d="M 103.867188 57.34375 C 103.90625 57.238281 103.925781 57.128906 103.941406 57.019531 C 103.957031 56.914062 103.960938 56.800781 103.960938 56.691406 C 103.960938 56.472656 103.925781 56.25 103.867188 56.03125 C 103.746094 55.597656 103.492188 55.183594 103.136719 54.867188 C 102.960938 54.710938 102.757812 54.582031 102.546875 54.488281 C 102.441406 54.4375 102.328125 54.402344 102.21875 54.367188 C 102.164062 54.351562 102.105469 54.339844 102.050781 54.328125 L 101.96875 54.3125 L 101.882812 54.300781 C 101.433594 54.242188 100.988281 54.296875 100.585938 54.476562 C 100.691406 54.519531 100.792969 54.546875 100.890625 54.578125 C 100.941406 54.597656 100.992188 54.609375 101.039062 54.628906 C 101.089844 54.644531 101.136719 54.652344 101.183594 54.671875 L 101.328125 54.722656 C 101.375 54.738281 101.417969 54.753906 101.464844 54.773438 C 101.507812 54.792969 101.554688 54.808594 101.597656 54.824219 C 101.644531 54.84375 101.6875 54.863281 101.730469 54.878906 L 101.792969 54.90625 L 101.855469 54.9375 L 101.980469 54.996094 C 102.058594 55.042969 102.140625 55.082031 102.210938 55.128906 C 102.363281 55.222656 102.503906 55.324219 102.632812 55.441406 C 102.894531 55.671875 103.117188 55.949219 103.316406 56.269531 C 103.515625 56.589844 103.6875 56.945312 103.867188 57.34375 " fill-opacity="1" fill-rule="nonzero"/><path fill="#0661aa" d="M 73.84375 41.09375 C 73.753906 41.113281 73.667969 41.144531 73.589844 41.183594 C 73.507812 41.21875 73.429688 41.261719 73.355469 41.304688 C 73.207031 41.398438 73.070312 41.511719 72.945312 41.636719 C 72.695312 41.890625 72.492188 42.21875 72.410156 42.613281 C 72.371094 42.808594 72.371094 43.019531 72.414062 43.222656 C 72.457031 43.421875 72.542969 43.613281 72.660156 43.769531 C 72.6875 43.8125 72.726562 43.84375 72.757812 43.882812 L 72.804688 43.933594 C 72.820312 43.949219 72.839844 43.964844 72.859375 43.980469 C 72.894531 44.011719 72.929688 44.042969 72.96875 44.070312 C 73.007812 44.09375 73.042969 44.121094 73.082031 44.144531 L 73.140625 44.179688 C 73.164062 44.1875 73.183594 44.199219 73.203125 44.207031 C 73.246094 44.226562 73.285156 44.242188 73.328125 44.257812 C 73.410156 44.289062 73.5 44.308594 73.589844 44.324219 C 73.414062 44.007812 73.261719 43.738281 73.1875 43.484375 C 73.117188 43.226562 73.113281 43.003906 73.160156 42.761719 C 73.207031 42.515625 73.308594 42.253906 73.433594 41.980469 C 73.554688 41.707031 73.703125 41.425781 73.84375 41.09375 " fill-opacity="1" fill-rule="nonzero"/><path fill="#0661aa" d="M 99.539062 75.746094 C 99.542969 75.65625 99.539062 75.582031 99.539062 75.5 C 99.535156 75.421875 99.535156 75.34375 99.53125 75.265625 C 99.527344 75.109375 99.515625 74.953125 99.507812 74.800781 C 99.488281 74.492188 99.460938 74.183594 99.429688 73.875 C 99.363281 73.261719 99.277344 72.652344 99.164062 72.046875 C 98.941406 70.839844 98.609375 69.648438 98.171875 68.5 C 97.949219 67.929688 97.695312 67.371094 97.410156 66.828125 L 97.1875 66.421875 C 97.113281 66.289062 97.027344 66.160156 96.949219 66.03125 C 96.910156 65.964844 96.871094 65.898438 96.828125 65.835938 L 96.699219 65.644531 L 96.570312 65.457031 L 96.507812 65.359375 C 96.484375 65.328125 96.460938 65.300781 96.4375 65.269531 L 96.160156 64.902344 C 96.066406 64.78125 95.964844 64.667969 95.867188 64.550781 C 95.816406 64.496094 95.769531 64.433594 95.71875 64.378906 L 95.5625 64.210938 L 95.402344 64.046875 C 95.351562 63.992188 95.300781 63.9375 95.242188 63.886719 L 94.910156 63.574219 C 94.855469 63.523438 94.796875 63.472656 94.734375 63.425781 L 94.382812 63.136719 C 94.324219 63.089844 94.261719 63.050781 94.199219 63.003906 L 93.828125 62.742188 L 94.179688 63.03125 C 94.238281 63.078125 94.296875 63.125 94.351562 63.175781 L 94.679688 63.488281 C 94.734375 63.539062 94.789062 63.589844 94.839844 63.644531 L 95.148438 63.976562 C 95.199219 64.03125 95.246094 64.089844 95.292969 64.144531 L 95.4375 64.320312 L 95.582031 64.492188 C 95.625 64.554688 95.671875 64.613281 95.714844 64.675781 C 95.800781 64.796875 95.894531 64.914062 95.976562 65.039062 L 96.222656 65.414062 C 96.242188 65.445312 96.261719 65.476562 96.28125 65.507812 L 96.339844 65.605469 L 96.449219 65.800781 L 96.5625 65.996094 C 96.597656 66.058594 96.632812 66.128906 96.667969 66.191406 C 96.734375 66.328125 96.804688 66.457031 96.867188 66.59375 L 97.054688 67 C 97.292969 67.542969 97.503906 68.105469 97.679688 68.671875 C 98.023438 69.8125 98.257812 70.984375 98.386719 72.164062 C 98.453125 72.753906 98.496094 73.347656 98.515625 73.941406 C 98.523438 74.234375 98.53125 74.53125 98.527344 74.828125 C 98.523438 74.972656 98.523438 75.121094 98.515625 75.269531 C 98.515625 75.339844 98.511719 75.414062 98.507812 75.488281 C 98.503906 75.558594 98.5 75.632812 98.496094 75.695312 L 99.539062 75.746094 " fill-opacity="1" fill-rule="nonzero"/><path fill="#0661aa" d="M 98.320312 68.964844 C 98.285156 68.976562 98.230469 68.992188 98.183594 69.003906 L 98.039062 69.039062 C 97.941406 69.0625 97.84375 69.082031 97.746094 69.101562 C 97.546875 69.144531 97.34375 69.175781 97.144531 69.207031 C 96.742188 69.269531 96.332031 69.308594 95.925781 69.324219 C 95.109375 69.359375 94.289062 69.308594 93.488281 69.132812 C 93.089844 69.042969 92.699219 68.917969 92.320312 68.761719 L 92.042969 68.636719 L 91.769531 68.492188 C 91.675781 68.449219 91.59375 68.386719 91.503906 68.335938 L 91.371094 68.253906 C 91.328125 68.226562 91.289062 68.195312 91.246094 68.164062 C 90.90625 67.929688 90.601562 67.644531 90.324219 67.335938 L 90.121094 67.097656 L 89.9375 66.84375 L 89.84375 66.714844 L 89.765625 66.582031 L 89.601562 66.3125 L 89.738281 66.597656 L 89.808594 66.738281 L 89.890625 66.875 L 90.050781 67.148438 L 90.234375 67.40625 C 90.488281 67.75 90.773438 68.070312 91.105469 68.347656 C 91.144531 68.378906 91.183594 68.417969 91.226562 68.449219 L 91.355469 68.546875 C 91.445312 68.613281 91.527344 68.679688 91.617188 68.738281 L 91.890625 68.914062 L 92.171875 69.070312 C 92.554688 69.273438 92.957031 69.441406 93.367188 69.578125 C 94.195312 69.835938 95.058594 69.972656 95.921875 70.015625 C 96.355469 70.035156 96.789062 70.03125 97.222656 70.007812 C 97.441406 69.996094 97.65625 69.976562 97.875 69.953125 C 97.984375 69.941406 98.09375 69.929688 98.203125 69.914062 L 98.367188 69.890625 C 98.421875 69.878906 98.472656 69.871094 98.539062 69.859375 L 98.320312 68.964844 " fill-opacity="1" fill-rule="nonzero"/><path fill="#0661aa" d="M 68.355469 53.644531 C 68.351562 53.644531 68.351562 53.648438 68.351562 53.648438 L 68.359375 53.644531 L 68.371094 53.636719 L 68.398438 53.625 C 68.421875 53.621094 68.441406 53.609375 68.464844 53.605469 C 68.511719 53.589844 68.558594 53.574219 68.605469 53.5625 C 68.699219 53.535156 68.800781 53.519531 68.902344 53.503906 C 69.101562 53.476562 69.308594 53.46875 69.515625 53.484375 C 69.722656 53.5 69.925781 53.535156 70.128906 53.589844 C 70.332031 53.648438 70.53125 53.71875 70.722656 53.816406 C 71.109375 53.996094 71.46875 54.25 71.796875 54.546875 C 72.128906 54.839844 72.429688 55.179688 72.703125 55.539062 C 72.976562 55.902344 73.222656 56.285156 73.457031 56.683594 L 73.703125 57.140625 L 73.792969 57.304688 L 73.886719 57.46875 L 73.988281 57.625 C 74.023438 57.675781 74.058594 57.730469 74.09375 57.78125 L 74.207031 57.933594 C 74.511719 58.332031 74.878906 58.683594 75.292969 58.96875 C 75.707031 59.257812 76.167969 59.464844 76.644531 59.605469 C 77.605469 59.878906 78.625 59.851562 79.5625 59.628906 C 80.035156 59.519531 80.488281 59.375 80.9375 59.222656 L 81.273438 59.109375 L 81.433594 59.058594 C 81.488281 59.042969 81.542969 59.035156 81.597656 59.019531 C 81.816406 58.972656 82.039062 58.949219 82.265625 58.949219 C 82.71875 58.953125 83.171875 59.046875 83.601562 59.210938 C 83.707031 59.253906 83.8125 59.300781 83.917969 59.347656 C 84.019531 59.398438 84.125 59.453125 84.222656 59.511719 C 84.421875 59.628906 84.613281 59.753906 84.78125 59.90625 C 85.117188 60.210938 85.363281 60.617188 85.480469 61.0625 C 85.601562 61.507812 85.601562 61.980469 85.523438 62.441406 L 85.609375 62.457031 C 85.707031 61.992188 85.726562 61.5 85.621094 61.027344 C 85.511719 60.554688 85.265625 60.109375 84.914062 59.765625 L 84.777344 59.640625 C 84.730469 59.601562 84.683594 59.566406 84.636719 59.527344 C 84.585938 59.488281 84.535156 59.457031 84.488281 59.421875 C 84.4375 59.386719 84.386719 59.355469 84.335938 59.324219 C 84.234375 59.257812 84.128906 59.199219 84.023438 59.140625 C 83.914062 59.085938 83.804688 59.03125 83.691406 58.984375 C 83.25 58.792969 82.765625 58.675781 82.273438 58.652344 C 82.027344 58.640625 81.78125 58.660156 81.535156 58.703125 C 81.472656 58.714844 81.414062 58.722656 81.351562 58.738281 L 81.171875 58.789062 L 80.832031 58.890625 C 80.382812 59.023438 79.933594 59.148438 79.480469 59.234375 C 79.027344 59.320312 78.570312 59.371094 78.117188 59.351562 C 77.667969 59.335938 77.21875 59.261719 76.792969 59.121094 C 76.371094 58.984375 75.96875 58.78125 75.613281 58.515625 C 75.261719 58.253906 74.949219 57.929688 74.695312 57.570312 L 74.601562 57.433594 C 74.570312 57.390625 74.542969 57.339844 74.515625 57.292969 L 74.429688 57.152344 L 74.351562 57.003906 L 74.195312 56.691406 L 74.035156 56.367188 C 73.808594 55.941406 73.558594 55.519531 73.28125 55.117188 C 72.996094 54.71875 72.679688 54.332031 72.316406 53.984375 C 71.957031 53.636719 71.550781 53.324219 71.089844 53.085938 C 70.863281 52.964844 70.617188 52.863281 70.371094 52.785156 C 70.121094 52.703125 69.859375 52.648438 69.59375 52.621094 C 69.332031 52.589844 69.0625 52.589844 68.796875 52.617188 C 68.664062 52.632812 68.527344 52.648438 68.394531 52.679688 C 68.328125 52.695312 68.261719 52.710938 68.195312 52.730469 C 68.160156 52.742188 68.125 52.753906 68.089844 52.765625 C 68.054688 52.777344 68.027344 52.785156 67.972656 52.808594 L 68.355469 53.644531 " fill-opacity="1" fill-rule="nonzero"/><path fill="#0661aa" d="M 78.164062 59.582031 C 78.5 59.816406 78.824219 60.066406 79.125 60.332031 C 79.421875 60.597656 79.703125 60.882812 79.929688 61.199219 C 80.160156 61.515625 80.332031 61.867188 80.402344 62.25 C 80.441406 62.4375 80.445312 62.632812 80.433594 62.832031 L 80.417969 62.980469 L 80.390625 63.128906 L 80.378906 63.203125 L 80.355469 63.277344 C 80.34375 63.328125 80.332031 63.375 80.320312 63.425781 C 80.347656 63.382812 80.371094 63.339844 80.398438 63.292969 L 80.4375 63.226562 L 80.46875 63.152344 C 80.488281 63.105469 80.507812 63.058594 80.527344 63.007812 L 80.574219 62.855469 C 80.625 62.652344 80.652344 62.433594 80.632812 62.21875 C 80.613281 62.003906 80.5625 61.792969 80.480469 61.589844 C 80.402344 61.386719 80.292969 61.203125 80.167969 61.027344 C 79.921875 60.679688 79.605469 60.394531 79.265625 60.152344 C 78.925781 59.910156 78.558594 59.710938 78.164062 59.582031 " fill-opacity="1" fill-rule="nonzero"/><path fill="#0661aa" d="M 85.492188 57.183594 C 85.917969 57.578125 86.355469 57.925781 86.78125 58.277344 C 87.210938 58.625 87.632812 58.972656 88.027344 59.328125 C 88.226562 59.507812 88.417969 59.691406 88.59375 59.882812 C 88.773438 60.070312 88.9375 60.269531 89.082031 60.476562 C 89.21875 60.6875 89.335938 60.910156 89.402344 61.15625 C 89.4375 61.277344 89.457031 61.40625 89.460938 61.539062 C 89.464844 61.671875 89.457031 61.8125 89.433594 61.957031 C 89.632812 61.742188 89.753906 61.441406 89.777344 61.125 C 89.800781 60.808594 89.730469 60.492188 89.613281 60.203125 C 89.554688 60.058594 89.484375 59.921875 89.40625 59.789062 C 89.328125 59.660156 89.242188 59.53125 89.148438 59.414062 C 88.964844 59.175781 88.757812 58.960938 88.539062 58.765625 C 88.105469 58.371094 87.621094 58.046875 87.113281 57.777344 C 86.855469 57.644531 86.59375 57.527344 86.324219 57.425781 C 86.054688 57.324219 85.78125 57.234375 85.492188 57.183594 " fill-opacity="1" fill-rule="nonzero"/><path fill="#0661aa" d="M 93.746094 82.734375 C 93.757812 82.675781 93.769531 82.628906 93.78125 82.578125 L 93.816406 82.429688 C 93.835938 82.332031 93.855469 82.230469 93.875 82.132812 C 93.910156 81.933594 93.941406 81.734375 93.96875 81.535156 C 94.023438 81.140625 94.058594 80.738281 94.074219 80.339844 C 94.085938 79.9375 94.078125 79.535156 94.042969 79.132812 C 94.003906 78.730469 93.933594 78.328125 93.820312 77.9375 C 93.710938 77.546875 93.546875 77.164062 93.320312 76.824219 C 93.207031 76.652344 93.082031 76.488281 92.9375 76.34375 C 92.792969 76.199219 92.636719 76.066406 92.46875 75.957031 C 92.132812 75.730469 91.75 75.585938 91.367188 75.5 C 90.980469 75.417969 90.585938 75.398438 90.199219 75.410156 C 90.585938 75.433594 90.972656 75.496094 91.335938 75.613281 C 91.699219 75.730469 92.042969 75.902344 92.332031 76.140625 C 92.621094 76.375 92.855469 76.671875 93.023438 77 C 93.195312 77.324219 93.308594 77.679688 93.375 78.046875 C 93.511719 78.777344 93.484375 79.535156 93.386719 80.28125 C 93.335938 80.652344 93.265625 81.023438 93.175781 81.390625 C 93.132812 81.574219 93.085938 81.757812 93.035156 81.9375 C 93.007812 82.027344 92.980469 82.117188 92.953125 82.203125 L 92.910156 82.335938 C 92.894531 82.378906 92.878906 82.425781 92.867188 82.460938 L 93.746094 82.734375 " fill-opacity="1" fill-rule="nonzero"/><path fill="#0661aa" d="M 93.773438 77.984375 C 93.582031 77.90625 93.398438 77.839844 93.207031 77.773438 C 93.019531 77.710938 92.828125 77.65625 92.636719 77.605469 C 92.25 77.503906 91.859375 77.429688 91.464844 77.390625 C 91.066406 77.359375 90.664062 77.363281 90.273438 77.449219 C 89.886719 77.527344 89.515625 77.710938 89.234375 77.984375 C 89.535156 77.734375 89.910156 77.585938 90.292969 77.539062 C 90.671875 77.488281 91.0625 77.515625 91.441406 77.578125 C 91.820312 77.644531 92.191406 77.742188 92.554688 77.871094 C 92.734375 77.933594 92.914062 78.003906 93.09375 78.078125 C 93.269531 78.15625 93.445312 78.234375 93.609375 78.320312 L 93.773438 77.984375 " fill-opacity="1" fill-rule="nonzero"/><path fill="#0661aa" d="M 87.464844 93.742188 C 87.46875 93.742188 87.457031 93.738281 87.449219 93.738281 C 87.445312 93.734375 87.4375 93.730469 87.425781 93.726562 C 87.410156 93.722656 87.394531 93.714844 87.375 93.707031 C 87.339844 93.691406 87.300781 93.675781 87.265625 93.65625 C 87.230469 93.636719 87.191406 93.621094 87.15625 93.597656 C 87.117188 93.578125 87.082031 93.558594 87.046875 93.535156 C 86.902344 93.445312 86.757812 93.34375 86.625 93.234375 C 86.355469 93.007812 86.109375 92.746094 85.898438 92.453125 C 85.46875 91.871094 85.171875 91.183594 84.96875 90.460938 C 84.777344 89.738281 84.671875 88.980469 84.644531 88.214844 C 84.617188 87.449219 84.660156 86.679688 84.742188 85.910156 L 84.710938 85.90625 C 84.554688 86.664062 84.4375 87.433594 84.390625 88.210938 C 84.34375 88.992188 84.375 89.78125 84.503906 90.566406 C 84.644531 91.347656 84.890625 92.128906 85.316406 92.835938 C 85.527344 93.191406 85.777344 93.527344 86.074219 93.828125 C 86.226562 93.976562 86.386719 94.117188 86.558594 94.246094 C 86.601562 94.28125 86.644531 94.3125 86.691406 94.34375 C 86.734375 94.375 86.78125 94.402344 86.828125 94.433594 C 86.875 94.460938 86.921875 94.492188 86.972656 94.519531 C 87 94.53125 87.023438 94.546875 87.050781 94.558594 C 87.066406 94.566406 87.078125 94.574219 87.09375 94.582031 C 87.113281 94.585938 87.121094 94.59375 87.148438 94.605469 L 87.464844 93.742188 " fill-opacity="1" fill-rule="nonzero"/><path fill="#0661aa" d="M 85.097656 91.535156 C 85.140625 91.511719 85.167969 91.496094 85.199219 91.476562 L 85.292969 91.417969 C 85.351562 91.382812 85.410156 91.339844 85.46875 91.300781 C 85.585938 91.222656 85.699219 91.136719 85.808594 91.054688 C 86.03125 90.882812 86.242188 90.699219 86.441406 90.503906 C 86.839844 90.117188 87.195312 89.679688 87.476562 89.195312 C 87.617188 88.957031 87.734375 88.699219 87.824219 88.4375 C 87.875 88.308594 87.910156 88.171875 87.945312 88.039062 C 87.972656 87.902344 88.007812 87.769531 88.019531 87.632812 C 88.042969 87.496094 88.046875 87.355469 88.058594 87.222656 L 88.054688 87.015625 C 88.054688 86.980469 88.054688 86.949219 88.054688 86.914062 L 88.042969 86.8125 C 88.027344 86.539062 87.96875 86.273438 87.90625 86.015625 L 87.796875 86.039062 C 87.828125 86.296875 87.851562 86.558594 87.832031 86.816406 L 87.828125 86.910156 C 87.828125 86.941406 87.820312 86.976562 87.816406 87.007812 L 87.796875 87.199219 C 87.769531 87.324219 87.75 87.449219 87.714844 87.570312 C 87.683594 87.695312 87.640625 87.8125 87.597656 87.933594 C 87.550781 88.046875 87.503906 88.164062 87.445312 88.277344 C 87.332031 88.5 87.199219 88.714844 87.046875 88.914062 C 86.742188 89.3125 86.375 89.660156 85.972656 89.960938 C 85.773438 90.113281 85.5625 90.25 85.347656 90.378906 C 85.238281 90.441406 85.132812 90.5 85.019531 90.558594 C 84.964844 90.585938 84.910156 90.613281 84.855469 90.640625 L 84.773438 90.675781 C 84.75 90.6875 84.71875 90.699219 84.699219 90.707031 L 85.097656 91.535156 " fill-opacity="1" fill-rule="nonzero"/><g clip-path="url(#041baab208)"><path fill="#0661aa" d="M 80.824219 100.898438 L 80.941406 100.457031 C 80.929688 100.453125 80.917969 100.449219 80.90625 100.441406 C 80.878906 100.429688 80.855469 100.414062 80.828125 100.398438 C 80.773438 100.359375 80.722656 100.3125 80.675781 100.257812 C 80.578125 100.148438 80.503906 100 80.445312 99.835938 C 80.332031 99.507812 80.296875 99.113281 80.316406 98.71875 C 80.328125 98.324219 80.390625 97.917969 80.476562 97.519531 L 80.542969 97.210938 C 80.566406 97.101562 80.59375 96.996094 80.609375 96.886719 C 80.628906 96.78125 80.648438 96.671875 80.660156 96.5625 C 80.675781 96.457031 80.691406 96.347656 80.699219 96.238281 C 80.734375 95.804688 80.734375 95.367188 80.699219 94.9375 C 80.660156 94.503906 80.585938 94.078125 80.476562 93.664062 C 80.367188 93.25 80.226562 92.84375 80.054688 92.453125 C 79.96875 92.257812 79.875 92.066406 79.773438 91.878906 C 79.671875 91.695312 79.566406 91.511719 79.441406 91.339844 C 79.546875 91.523438 79.640625 91.714844 79.722656 91.90625 C 79.808594 92.101562 79.882812 92.296875 79.949219 92.496094 C 80.082031 92.894531 80.183594 93.300781 80.253906 93.710938 C 80.320312 94.125 80.355469 94.539062 80.355469 94.949219 C 80.351562 95.363281 80.316406 95.773438 80.242188 96.179688 C 80.226562 96.277344 80.203125 96.378906 80.179688 96.476562 C 80.160156 96.578125 80.128906 96.675781 80.105469 96.773438 C 80.105469 96.78125 80.101562 96.785156 80.101562 96.789062 C 80.078125 96.882812 80.046875 96.972656 80.015625 97.066406 L 79.921875 97.371094 C 79.890625 97.472656 79.859375 97.578125 79.828125 97.679688 C 79.742188 97.996094 79.671875 98.324219 79.628906 98.660156 C 79.597656 98.882812 79.578125 99.109375 79.585938 99.34375 C 79.589844 99.578125 79.613281 99.816406 79.671875 100.058594 C 79.703125 100.179688 79.738281 100.300781 79.792969 100.421875 C 79.84375 100.542969 79.90625 100.660156 79.984375 100.773438 C 80.050781 100.867188 80.125 100.957031 80.210938 101.039062 L 80.824219 100.898438 " fill-opacity="1" fill-rule="nonzero"/></g><path fill="#0661aa" d="M 80.191406 96.769531 C 80.179688 96.773438 80.152344 96.777344 80.128906 96.78125 L 80.054688 96.796875 C 80.007812 96.808594 79.957031 96.816406 79.90625 96.824219 C 79.804688 96.839844 79.703125 96.851562 79.601562 96.863281 C 79.398438 96.886719 79.191406 96.898438 78.988281 96.902344 C 78.578125 96.902344 78.164062 96.871094 77.765625 96.765625 C 77.566406 96.714844 77.375 96.648438 77.1875 96.558594 C 77.003906 96.46875 76.832031 96.355469 76.667969 96.222656 C 76.507812 96.089844 76.371094 95.933594 76.25 95.757812 L 76.164062 95.621094 C 76.136719 95.578125 76.113281 95.527344 76.089844 95.480469 L 76.050781 95.410156 L 76.019531 95.332031 L 75.957031 95.183594 L 75.992188 95.34375 L 76.011719 95.421875 L 76.035156 95.5 C 76.050781 95.554688 76.066406 95.609375 76.085938 95.660156 L 76.148438 95.8125 C 76.242188 96.015625 76.359375 96.210938 76.507812 96.386719 C 76.652344 96.558594 76.824219 96.714844 77.011719 96.851562 C 77.199219 96.988281 77.398438 97.101562 77.609375 97.199219 C 78.03125 97.390625 78.476562 97.511719 78.929688 97.589844 C 79.15625 97.625 79.386719 97.652344 79.617188 97.667969 C 79.730469 97.675781 79.847656 97.679688 79.960938 97.683594 C 80.019531 97.683594 80.078125 97.683594 80.136719 97.683594 L 80.226562 97.683594 C 80.257812 97.683594 80.285156 97.679688 80.324219 97.679688 L 80.191406 96.769531 " fill-opacity="1" fill-rule="nonzero"/><path fill="#0661aa" d="M 72.097656 90.441406 C 72.109375 90.433594 72.117188 90.425781 72.128906 90.417969 L 72.152344 90.402344 L 72.199219 90.363281 C 72.230469 90.339844 72.261719 90.3125 72.289062 90.289062 C 72.347656 90.238281 72.402344 90.1875 72.453125 90.136719 C 72.5625 90.035156 72.660156 89.925781 72.757812 89.816406 C 72.949219 89.597656 73.121094 89.363281 73.277344 89.117188 C 73.582031 88.628906 73.8125 88.101562 73.949219 87.550781 C 74.015625 87.277344 74.066406 87 74.089844 86.722656 L 74.101562 86.617188 L 74.105469 86.515625 L 74.117188 86.304688 L 74.117188 85.996094 L 74.113281 85.890625 C 74.085938 85.339844 73.988281 84.800781 73.839844 84.28125 C 73.914062 84.816406 73.933594 85.355469 73.882812 85.886719 L 73.875 85.984375 L 73.859375 86.082031 L 73.832031 86.28125 L 73.792969 86.472656 L 73.773438 86.570312 L 73.75 86.664062 C 73.691406 86.921875 73.605469 87.167969 73.511719 87.40625 C 73.316406 87.886719 73.042969 88.328125 72.71875 88.714844 C 72.554688 88.90625 72.375 89.085938 72.1875 89.25 C 72.09375 89.332031 71.996094 89.40625 71.898438 89.476562 C 71.847656 89.515625 71.796875 89.546875 71.75 89.582031 C 71.722656 89.597656 71.699219 89.613281 71.675781 89.625 L 71.636719 89.648438 C 71.632812 89.652344 71.625 89.652344 71.621094 89.65625 C 71.617188 89.660156 71.609375 89.664062 71.609375 89.660156 L 72.097656 90.441406 " fill-opacity="1" fill-rule="nonzero"/><path fill="#0661aa" d="M 71.140625 80.023438 C 71.183594 80.015625 71.203125 80.007812 71.230469 79.996094 C 71.257812 79.988281 71.28125 79.980469 71.304688 79.972656 C 71.355469 79.953125 71.398438 79.933594 71.441406 79.914062 C 71.488281 79.894531 71.527344 79.875 71.570312 79.851562 C 71.613281 79.832031 71.65625 79.808594 71.691406 79.785156 C 71.773438 79.734375 71.851562 79.6875 71.921875 79.632812 C 71.960938 79.605469 71.996094 79.578125 72.03125 79.550781 L 72.136719 79.460938 C 72.40625 79.226562 72.621094 78.945312 72.796875 78.652344 L 72.917969 78.429688 C 72.9375 78.394531 72.953125 78.355469 72.96875 78.316406 L 73.019531 78.199219 C 73.089844 78.046875 73.128906 77.886719 73.179688 77.730469 L 73.199219 77.671875 C 73.203125 77.652344 73.207031 77.632812 73.210938 77.613281 L 73.238281 77.492188 L 73.289062 77.253906 C 73.3125 77.09375 73.332031 76.933594 73.351562 76.777344 C 73.292969 76.925781 73.238281 77.074219 73.179688 77.222656 L 73.074219 77.433594 L 73.023438 77.539062 C 73.015625 77.558594 73.007812 77.574219 73 77.59375 L 72.96875 77.644531 C 72.886719 77.777344 72.8125 77.910156 72.71875 78.03125 L 72.648438 78.125 C 72.625 78.152344 72.605469 78.183594 72.578125 78.210938 L 72.429688 78.378906 C 72.21875 78.589844 71.988281 78.769531 71.738281 78.898438 L 71.644531 78.945312 C 71.613281 78.960938 71.582031 78.972656 71.550781 78.984375 C 71.488281 79.011719 71.421875 79.03125 71.359375 79.054688 C 71.328125 79.066406 71.292969 79.070312 71.261719 79.078125 C 71.230469 79.085938 71.199219 79.09375 71.167969 79.097656 C 71.136719 79.105469 71.105469 79.109375 71.078125 79.113281 C 71.0625 79.113281 71.046875 79.117188 71.035156 79.113281 C 71.023438 79.113281 71.003906 79.117188 71.011719 79.113281 L 71.140625 80.023438 " fill-opacity="1" fill-rule="nonzero"/><path fill="#0661aa" d="M 72.535156 72.085938 C 72.34375 72 72.167969 71.914062 72 71.820312 C 71.835938 71.730469 71.6875 71.632812 71.546875 71.527344 C 71.273438 71.3125 71.0625 71.074219 70.894531 70.796875 C 70.8125 70.65625 70.746094 70.503906 70.679688 70.347656 C 70.667969 70.308594 70.652344 70.265625 70.636719 70.226562 C 70.621094 70.1875 70.609375 70.144531 70.59375 70.101562 C 70.566406 70.019531 70.542969 69.933594 70.515625 69.84375 C 70.414062 69.492188 70.351562 69.113281 70.242188 68.707031 C 70.191406 68.796875 70.144531 68.890625 70.105469 68.988281 C 70.066406 69.085938 70.039062 69.183594 70.007812 69.285156 C 69.984375 69.386719 69.964844 69.488281 69.945312 69.59375 C 69.9375 69.644531 69.933594 69.699219 69.929688 69.75 C 69.925781 69.804688 69.917969 69.855469 69.921875 69.910156 C 69.921875 70.019531 69.917969 70.125 69.933594 70.234375 C 69.941406 70.289062 69.941406 70.34375 69.953125 70.394531 C 69.964844 70.449219 69.976562 70.503906 69.988281 70.558594 C 70.042969 70.773438 70.121094 70.988281 70.238281 71.183594 C 70.355469 71.382812 70.507812 71.5625 70.683594 71.710938 C 70.859375 71.859375 71.058594 71.976562 71.269531 72.054688 C 71.476562 72.132812 71.691406 72.175781 71.90625 72.183594 C 72.015625 72.183594 72.121094 72.179688 72.226562 72.164062 C 72.332031 72.148438 72.4375 72.125 72.535156 72.085938 " fill-opacity="1" fill-rule="nonzero"/><path fill="#0661aa" d="M 93.175781 88.4375 L 92.714844 88.433594 L 92.714844 88.261719 C 92.714844 88.203125 92.710938 88.140625 92.710938 88.082031 C 92.703125 87.957031 92.695312 87.835938 92.6875 87.710938 C 92.664062 87.46875 92.632812 87.222656 92.59375 86.980469 C 92.554688 86.734375 92.5 86.496094 92.441406 86.257812 C 92.410156 86.140625 92.382812 86.019531 92.34375 85.902344 L 92.289062 85.726562 L 92.226562 85.554688 C 91.902344 84.636719 91.371094 83.792969 90.613281 83.21875 C 90.234375 82.933594 89.804688 82.714844 89.34375 82.574219 L 89.257812 82.546875 L 89.171875 82.523438 L 88.992188 82.480469 C 88.878906 82.449219 88.757812 82.433594 88.636719 82.417969 L 88.453125 82.386719 L 88.273438 82.375 L 88.089844 82.359375 L 87.996094 82.351562 L 87.894531 82.347656 C 87.628906 82.335938 87.359375 82.308594 87.09375 82.265625 C 86.828125 82.226562 86.5625 82.164062 86.300781 82.082031 C 86.039062 82.003906 85.785156 81.894531 85.542969 81.761719 C 85.296875 81.636719 85.070312 81.46875 84.863281 81.277344 C 84.65625 81.089844 84.484375 80.863281 84.339844 80.625 C 84.191406 80.390625 84.089844 80.125 84.019531 79.855469 C 83.882812 79.316406 83.894531 78.773438 83.9375 78.253906 C 83.976562 77.730469 84.042969 77.226562 84.035156 76.722656 C 84.03125 76.472656 84.011719 76.226562 83.957031 75.984375 C 83.90625 75.746094 83.820312 75.507812 83.71875 75.28125 C 83.507812 74.828125 83.210938 74.414062 82.835938 74.082031 C 82.648438 73.914062 82.445312 73.765625 82.222656 73.640625 C 82.007812 73.515625 81.773438 73.417969 81.53125 73.332031 C 81.050781 73.167969 80.542969 73.085938 80.03125 73.054688 C 79.519531 73.023438 79.003906 73.046875 78.492188 73.101562 L 78.488281 73.0625 C 79 72.988281 79.515625 72.949219 80.035156 72.957031 C 80.554688 72.972656 81.078125 73.035156 81.578125 73.191406 C 81.828125 73.269531 82.074219 73.363281 82.308594 73.484375 C 82.542969 73.609375 82.765625 73.757812 82.96875 73.925781 C 83.378906 74.265625 83.710938 74.691406 83.949219 75.167969 C 84.070312 75.40625 84.167969 75.65625 84.238281 75.917969 C 84.28125 76.09375 84.3125 76.269531 84.328125 76.449219 C 84.339844 76.539062 84.347656 76.625 84.351562 76.710938 C 84.359375 76.898438 84.359375 77.082031 84.355469 77.261719 C 84.34375 77.605469 84.320312 77.941406 84.304688 78.273438 C 84.28125 78.78125 84.292969 79.285156 84.429688 79.746094 C 84.464844 79.859375 84.503906 79.972656 84.554688 80.078125 C 84.578125 80.132812 84.605469 80.183594 84.632812 80.238281 L 84.726562 80.390625 C 84.855469 80.585938 85.003906 80.769531 85.1875 80.921875 C 85.367188 81.074219 85.5625 81.210938 85.777344 81.3125 C 85.992188 81.417969 86.21875 81.507812 86.453125 81.570312 C 86.6875 81.632812 86.929688 81.683594 87.175781 81.710938 C 87.417969 81.742188 87.664062 81.757812 87.914062 81.757812 L 88.007812 81.761719 L 88.105469 81.765625 L 88.3125 81.773438 L 88.511719 81.78125 L 88.714844 81.804688 C 88.851562 81.820312 88.988281 81.832031 89.121094 81.863281 L 89.324219 81.90625 L 89.421875 81.925781 L 89.523438 81.953125 C 90.054688 82.097656 90.570312 82.332031 91.023438 82.652344 C 91.480469 82.976562 91.875 83.378906 92.199219 83.824219 C 92.527344 84.273438 92.78125 84.761719 92.984375 85.265625 C 93.007812 85.328125 93.035156 85.394531 93.058594 85.457031 L 93.125 85.648438 C 93.171875 85.777344 93.207031 85.90625 93.25 86.035156 C 93.324219 86.296875 93.390625 86.558594 93.441406 86.820312 C 93.484375 87.039062 93.523438 87.253906 93.554688 87.472656 L 93.175781 88.4375 " fill-opacity="1" fill-rule="nonzero"/><path fill="#0661aa" d="M 84.371094 77.269531 C 84.441406 77.136719 84.511719 77.003906 84.578125 76.867188 L 84.675781 76.664062 L 84.765625 76.457031 C 84.828125 76.320312 84.882812 76.175781 84.9375 76.039062 L 85.015625 75.824219 C 85.042969 75.753906 85.066406 75.683594 85.089844 75.609375 C 85.28125 75.035156 85.421875 74.4375 85.476562 73.824219 C 85.484375 73.746094 85.492188 73.671875 85.496094 73.59375 L 85.503906 73.363281 C 85.503906 73.324219 85.507812 73.285156 85.507812 73.246094 L 85.503906 73.128906 L 85.496094 72.898438 L 85.460938 72.546875 L 85.441406 72.433594 L 85.402344 72.199219 L 85.34375 71.972656 C 85.265625 71.664062 85.136719 71.359375 84.96875 71.085938 C 84.800781 70.8125 84.589844 70.570312 84.359375 70.355469 C 84.125 70.136719 83.867188 69.953125 83.597656 69.796875 C 83.328125 69.640625 83.042969 69.511719 82.753906 69.40625 C 82.605469 69.351562 82.457031 69.304688 82.308594 69.265625 L 82.085938 69.207031 L 81.855469 69.164062 C 81.546875 69.113281 81.234375 69.085938 80.921875 69.105469 C 80.613281 69.125 80.304688 69.167969 80.007812 69.246094 C 79.710938 69.328125 79.421875 69.433594 79.148438 69.570312 C 78.875 69.707031 78.613281 69.863281 78.371094 70.042969 C 78.128906 70.222656 77.902344 70.421875 77.695312 70.636719 C 77.945312 70.46875 78.199219 70.316406 78.457031 70.175781 C 78.71875 70.042969 78.980469 69.921875 79.253906 69.824219 C 79.527344 69.730469 79.804688 69.65625 80.085938 69.605469 L 80.296875 69.570312 C 80.367188 69.5625 80.4375 69.554688 80.507812 69.546875 C 80.578125 69.539062 80.648438 69.539062 80.722656 69.535156 C 80.792969 69.53125 80.863281 69.527344 80.933594 69.53125 C 81.496094 69.535156 82.054688 69.652344 82.585938 69.855469 C 82.847656 69.957031 83.105469 70.082031 83.34375 70.222656 C 83.585938 70.367188 83.808594 70.539062 84.007812 70.726562 C 84.210938 70.914062 84.386719 71.125 84.53125 71.355469 C 84.671875 71.589844 84.777344 71.839844 84.847656 72.105469 L 84.898438 72.308594 L 84.933594 72.515625 L 84.953125 72.617188 L 84.988281 72.933594 C 85.003906 73.214844 85.007812 73.496094 84.984375 73.78125 C 84.945312 74.351562 84.820312 74.917969 84.664062 75.476562 C 84.5 76.035156 84.289062 76.578125 84.050781 77.113281 L 84.371094 77.269531 " fill-opacity="1" fill-rule="nonzero"/><path fill="#0661aa" d="M 82.894531 69.449219 C 82.894531 69.449219 82.878906 69.441406 82.871094 69.4375 C 82.859375 69.429688 82.847656 69.425781 82.835938 69.417969 C 82.816406 69.402344 82.792969 69.386719 82.769531 69.371094 C 82.726562 69.335938 82.6875 69.300781 82.648438 69.261719 C 82.570312 69.179688 82.5 69.089844 82.449219 68.988281 C 82.34375 68.789062 82.300781 68.550781 82.316406 68.304688 C 82.335938 68.0625 82.402344 67.8125 82.503906 67.578125 C 82.605469 67.339844 82.738281 67.113281 82.882812 66.894531 C 82.707031 67.089844 82.542969 67.296875 82.402344 67.523438 C 82.261719 67.75 82.148438 68 82.085938 68.269531 C 82.023438 68.542969 82.027344 68.84375 82.125 69.125 C 82.171875 69.265625 82.242188 69.398438 82.328125 69.519531 C 82.375 69.582031 82.421875 69.640625 82.472656 69.695312 C 82.5 69.722656 82.527344 69.75 82.558594 69.777344 C 82.570312 69.789062 82.585938 69.800781 82.601562 69.8125 C 82.621094 69.828125 82.632812 69.839844 82.65625 69.855469 L 82.894531 69.449219 " fill-opacity="1" fill-rule="nonzero"/><path fill="#0661aa" d="M 80.527344 85.75 C 80.640625 85.597656 80.738281 85.433594 80.828125 85.269531 C 80.917969 85.101562 80.992188 84.925781 81.0625 84.746094 C 81.199219 84.390625 81.300781 84.015625 81.351562 83.632812 C 81.40625 83.246094 81.410156 82.851562 81.359375 82.457031 C 81.347656 82.359375 81.324219 82.261719 81.308594 82.164062 C 81.300781 82.117188 81.289062 82.066406 81.277344 82.019531 L 81.238281 81.875 C 81.226562 81.828125 81.214844 81.78125 81.195312 81.734375 L 81.148438 81.589844 C 81.128906 81.546875 81.113281 81.496094 81.09375 81.453125 L 81.035156 81.316406 C 80.867188 80.953125 80.660156 80.609375 80.394531 80.316406 C 80.136719 80.019531 79.847656 79.75 79.527344 79.535156 C 78.890625 79.089844 78.179688 78.789062 77.441406 78.628906 C 78.089844 79.015625 78.707031 79.417969 79.238281 79.894531 C 79.511719 80.128906 79.75 80.390625 79.964844 80.667969 L 80.121094 80.875 L 80.257812 81.097656 C 80.285156 81.132812 80.304688 81.171875 80.324219 81.207031 L 80.386719 81.324219 C 80.40625 81.359375 80.429688 81.398438 80.445312 81.4375 L 80.5 81.554688 C 80.785156 82.183594 80.910156 82.882812 80.894531 83.59375 C 80.886719 83.953125 80.847656 84.3125 80.789062 84.671875 C 80.726562 85.03125 80.640625 85.390625 80.527344 85.75 " fill-opacity="1" fill-rule="nonzero"/><path fill="#0661aa" d="M 94.179688 55.558594 C 94.164062 55.546875 94.128906 55.519531 94.105469 55.496094 C 94.078125 55.46875 94.046875 55.445312 94.023438 55.417969 C 93.964844 55.367188 93.914062 55.3125 93.859375 55.257812 C 93.75 55.144531 93.652344 55.027344 93.550781 54.90625 C 93.359375 54.664062 93.179688 54.40625 93.03125 54.132812 C 92.730469 53.589844 92.542969 52.984375 92.523438 52.355469 C 92.523438 52.277344 92.519531 52.199219 92.523438 52.121094 L 92.539062 51.886719 C 92.5625 51.730469 92.582031 51.570312 92.621094 51.417969 C 92.652344 51.261719 92.710938 51.109375 92.761719 50.957031 L 92.855469 50.734375 C 92.871094 50.695312 92.882812 50.660156 92.902344 50.621094 L 92.957031 50.515625 C 93.253906 49.933594 93.664062 49.402344 94.132812 48.933594 C 93.613281 49.347656 93.136719 49.828125 92.757812 50.398438 L 92.6875 50.503906 C 92.664062 50.542969 92.644531 50.578125 92.625 50.617188 L 92.496094 50.839844 C 92.425781 51 92.347656 51.152344 92.292969 51.316406 C 92.226562 51.480469 92.1875 51.648438 92.144531 51.820312 L 92.09375 52.078125 C 92.082031 52.167969 92.074219 52.253906 92.0625 52.34375 C 92.003906 53.046875 92.140625 53.769531 92.40625 54.425781 C 92.542969 54.757812 92.707031 55.070312 92.898438 55.371094 C 92.992188 55.523438 93.09375 55.671875 93.203125 55.8125 C 93.253906 55.882812 93.3125 55.953125 93.367188 56.023438 C 93.398438 56.058594 93.429688 56.09375 93.457031 56.128906 C 93.492188 56.164062 93.515625 56.195312 93.558594 56.238281 L 94.179688 55.558594 " fill-opacity="1" fill-rule="nonzero"/><g clip-path="url(#747529da82)"><path fill="#0661aa" d="M 45.582031 19.382812 C 43.609375 19.382812 41.621094 19.710938 39.640625 20.378906 C 30.976562 23.292969 24.265625 32.316406 22.941406 42.839844 C 19.359375 71.339844 56.386719 95.90625 63.84375 100.539062 C 63.996094 100.636719 64.128906 100.585938 64.195312 100.550781 C 64.328125 100.476562 64.40625 100.339844 64.40625 100.179688 L 64.40625 36.03125 C 64.40625 32.410156 62.984375 28.878906 60.511719 26.347656 C 56.023438 21.753906 50.871094 19.382812 45.582031 19.382812 Z M 64.027344 101.59375 C 63.78125 101.59375 63.539062 101.527344 63.316406 101.390625 C 61.464844 100.238281 57.6875 97.792969 53.152344 94.339844 C 47.632812 90.132812 42.6875 85.730469 38.457031 81.253906 C 32.886719 75.359375 28.640625 69.414062 25.832031 63.578125 C 24.199219 60.179688 23.035156 56.773438 22.375 53.453125 C 21.652344 49.828125 21.511719 46.214844 21.953125 42.714844 C 22.640625 37.25 24.683594 32.144531 27.859375 27.953125 C 29.390625 25.933594 31.148438 24.179688 33.085938 22.734375 C 35.039062 21.277344 37.136719 20.164062 39.324219 19.429688 C 41.089844 18.835938 42.902344 18.496094 44.714844 18.414062 C 46.589844 18.332031 48.46875 18.53125 50.300781 19.003906 C 54.230469 20.015625 57.90625 22.25 61.226562 25.648438 C 62.558594 27.011719 63.597656 28.609375 64.320312 30.40625 C 65.039062 32.195312 65.402344 34.089844 65.402344 36.03125 L 65.402344 100.179688 C 65.402344 100.699219 65.128906 101.175781 64.683594 101.421875 C 64.476562 101.539062 64.25 101.59375 64.027344 101.59375 " fill-opacity="1" fill-rule="nonzero"/></g></svg>