<svg xmlns="http://www.w3.org/2000/svg" xmlns:xlink="http://www.w3.org/1999/xlink" width="180" zoomAndPan="magnify" viewBox="0 0 135 161.249994" height="215" preserveAspectRatio="xMidYMid meet" version="1.0"><defs><g/><clipPath id="28a8fe1b8e"><path d="M 33 21.136719 L 102.160156 21.136719 L 102.160156 65.179688 L 33 65.179688 Z M 33 21.136719 " clip-rule="nonzero"/></clipPath></defs><g fill="#2d6d5e" fill-opacity="1"><g transform="translate(15.892844, 123.799403)"><g><path d="M 3.359375 -4.09375 L 5.34375 -4.09375 L 5.34375 -0.265625 C 5.019531 -0.140625 4.6875 -0.046875 4.34375 0.015625 C 4.007812 0.078125 3.671875 0.109375 3.328125 0.109375 C 2.691406 0.109375 2.164062 -0.0625 1.75 -0.40625 C 1.34375 -0.757812 1.039062 -1.238281 0.84375 -1.84375 C 0.644531 -2.457031 0.546875 -3.148438 0.546875 -3.921875 C 0.546875 -4.703125 0.65625 -5.390625 0.875 -5.984375 C 1.09375 -6.585938 1.414062 -7.0625 1.84375 -7.40625 C 2.28125 -7.75 2.832031 -7.921875 3.5 -7.921875 C 3.8125 -7.921875 4.113281 -7.878906 4.40625 -7.796875 C 4.707031 -7.710938 4.988281 -7.585938 5.25 -7.421875 L 4.953125 -6.703125 C 4.703125 -6.859375 4.457031 -6.972656 4.21875 -7.046875 C 3.988281 -7.117188 3.753906 -7.15625 3.515625 -7.15625 C 3.054688 -7.15625 2.671875 -7.023438 2.359375 -6.765625 C 2.054688 -6.515625 1.828125 -6.148438 1.671875 -5.671875 C 1.515625 -5.191406 1.4375 -4.601562 1.4375 -3.90625 C 1.4375 -3.289062 1.503906 -2.738281 1.640625 -2.25 C 1.773438 -1.757812 1.984375 -1.367188 2.265625 -1.078125 C 2.554688 -0.796875 2.9375 -0.65625 3.40625 -0.65625 C 3.613281 -0.65625 3.804688 -0.671875 3.984375 -0.703125 C 4.171875 -0.734375 4.347656 -0.78125 4.515625 -0.84375 L 4.515625 -3.328125 L 3.359375 -3.328125 Z M 3.359375 -4.09375 "/></g></g></g><g fill="#2d6d5e" fill-opacity="1"><g transform="translate(23.355797, 123.799403)"><g><path d="M 2.328125 -5.953125 C 2.722656 -5.953125 3.050781 -5.835938 3.3125 -5.609375 C 3.570312 -5.378906 3.765625 -5.066406 3.890625 -4.671875 C 4.015625 -4.285156 4.078125 -3.851562 4.078125 -3.375 L 4.078125 -2.78125 L 1.28125 -2.78125 C 1.289062 -2.050781 1.40625 -1.503906 1.625 -1.140625 C 1.84375 -0.773438 2.171875 -0.59375 2.609375 -0.59375 C 2.828125 -0.59375 3.035156 -0.625 3.234375 -0.6875 C 3.441406 -0.75 3.648438 -0.851562 3.859375 -1 L 3.859375 -0.265625 C 3.660156 -0.140625 3.453125 -0.046875 3.234375 0.015625 C 3.015625 0.078125 2.78125 0.109375 2.53125 0.109375 C 2.039062 0.109375 1.644531 -0.0195312 1.34375 -0.28125 C 1.039062 -0.539062 0.816406 -0.898438 0.671875 -1.359375 C 0.535156 -1.816406 0.46875 -2.332031 0.46875 -2.90625 C 0.46875 -3.550781 0.535156 -4.101562 0.671875 -4.5625 C 0.816406 -5.019531 1.023438 -5.363281 1.296875 -5.59375 C 1.578125 -5.832031 1.921875 -5.953125 2.328125 -5.953125 Z M 2.328125 -5.28125 C 2.015625 -5.28125 1.769531 -5.128906 1.59375 -4.828125 C 1.425781 -4.535156 1.328125 -4.070312 1.296875 -3.4375 L 3.3125 -3.4375 C 3.3125 -3.769531 3.273438 -4.078125 3.203125 -4.359375 C 3.140625 -4.640625 3.035156 -4.863281 2.890625 -5.03125 C 2.742188 -5.195312 2.554688 -5.28125 2.328125 -5.28125 Z M 2.328125 -5.28125 "/></g></g></g><g fill="#2d6d5e" fill-opacity="1"><g transform="translate(29.413692, 123.799403)"><g><path d="M 2.09375 -0.625 C 2.1875 -0.625 2.273438 -0.628906 2.359375 -0.640625 C 2.453125 -0.660156 2.535156 -0.691406 2.609375 -0.734375 L 2.609375 -0.0625 C 2.503906 -0.0078125 2.382812 0.03125 2.25 0.0625 C 2.125 0.09375 1.984375 0.109375 1.828125 0.109375 C 1.578125 0.109375 1.367188 0.0507812 1.203125 -0.0625 C 1.046875 -0.175781 0.925781 -0.34375 0.84375 -0.5625 C 0.769531 -0.789062 0.734375 -1.078125 0.734375 -1.421875 L 0.734375 -5.171875 L 0.1875 -5.171875 L 0.1875 -5.625 L 0.78125 -5.84375 L 1 -7.1875 L 1.5625 -7.1875 L 1.5625 -5.859375 L 2.546875 -5.859375 L 2.546875 -5.171875 L 1.5625 -5.171875 L 1.5625 -1.515625 C 1.5625 -1.210938 1.597656 -0.988281 1.671875 -0.84375 C 1.742188 -0.695312 1.882812 -0.625 2.09375 -0.625 Z M 2.09375 -0.625 "/></g></g></g><g fill="#2d6d5e" fill-opacity="1"><g transform="translate(33.719269, 123.799403)"><g/></g></g><g fill="#2d6d5e" fill-opacity="1"><g transform="translate(37.282248, 123.799403)"><g><path d="M 4.21875 -5.859375 L 4.21875 0 L 3.5625 0 L 3.46875 -0.828125 L 3.40625 -0.828125 C 3.332031 -0.640625 3.226562 -0.472656 3.09375 -0.328125 C 2.96875 -0.191406 2.820312 -0.0820312 2.65625 0 C 2.5 0.0703125 2.316406 0.109375 2.109375 0.109375 C 1.773438 0.109375 1.503906 0.0234375 1.296875 -0.140625 C 1.085938 -0.316406 0.929688 -0.5625 0.828125 -0.875 C 0.734375 -1.195312 0.6875 -1.578125 0.6875 -2.015625 L 0.6875 -5.859375 L 1.515625 -5.859375 L 1.515625 -2.171875 C 1.515625 -1.640625 1.578125 -1.25 1.703125 -1 C 1.828125 -0.75 2.015625 -0.625 2.265625 -0.625 C 2.535156 -0.625 2.753906 -0.695312 2.921875 -0.84375 C 3.085938 -1 3.207031 -1.234375 3.28125 -1.546875 C 3.351562 -1.859375 3.390625 -2.25 3.390625 -2.71875 L 3.390625 -5.859375 Z M 4.21875 -5.859375 "/></g></g></g><g fill="#2d6d5e" fill-opacity="1"><g transform="translate(43.746167, 123.799403)"><g><path d="M 3.328125 -1.546875 C 3.328125 -1.191406 3.257812 -0.890625 3.125 -0.640625 C 3 -0.398438 2.8125 -0.210938 2.5625 -0.078125 C 2.320312 0.046875 2.03125 0.109375 1.6875 0.109375 C 1.414062 0.109375 1.164062 0.078125 0.9375 0.015625 C 0.71875 -0.046875 0.53125 -0.125 0.375 -0.21875 L 0.375 -1.078125 C 0.53125 -0.941406 0.722656 -0.832031 0.953125 -0.75 C 1.179688 -0.664062 1.414062 -0.625 1.65625 -0.625 C 1.925781 -0.625 2.132812 -0.703125 2.28125 -0.859375 C 2.4375 -1.015625 2.515625 -1.234375 2.515625 -1.515625 C 2.515625 -1.679688 2.484375 -1.828125 2.421875 -1.953125 C 2.359375 -2.078125 2.257812 -2.195312 2.125 -2.3125 C 1.988281 -2.425781 1.816406 -2.546875 1.609375 -2.671875 C 1.359375 -2.816406 1.140625 -2.96875 0.953125 -3.125 C 0.765625 -3.289062 0.617188 -3.476562 0.515625 -3.6875 C 0.421875 -3.894531 0.375 -4.144531 0.375 -4.4375 C 0.375 -4.894531 0.519531 -5.265625 0.8125 -5.546875 C 1.113281 -5.828125 1.503906 -5.96875 1.984375 -5.96875 C 2.234375 -5.96875 2.46875 -5.9375 2.6875 -5.875 C 2.90625 -5.8125 3.113281 -5.71875 3.3125 -5.59375 L 3 -4.9375 C 2.851562 -5.039062 2.691406 -5.117188 2.515625 -5.171875 C 2.347656 -5.234375 2.175781 -5.265625 2 -5.265625 C 1.738281 -5.265625 1.53125 -5.191406 1.375 -5.046875 C 1.226562 -4.898438 1.15625 -4.707031 1.15625 -4.46875 C 1.15625 -4.300781 1.1875 -4.15625 1.25 -4.03125 C 1.3125 -3.914062 1.410156 -3.800781 1.546875 -3.6875 C 1.679688 -3.582031 1.863281 -3.460938 2.09375 -3.328125 C 2.34375 -3.171875 2.554688 -3.015625 2.734375 -2.859375 C 2.921875 -2.703125 3.066406 -2.519531 3.171875 -2.3125 C 3.273438 -2.101562 3.328125 -1.847656 3.328125 -1.546875 Z M 3.328125 -1.546875 "/></g></g></g><g fill="#2d6d5e" fill-opacity="1"><g transform="translate(48.954615, 123.799403)"><g><path d="M 2.328125 -5.953125 C 2.722656 -5.953125 3.050781 -5.835938 3.3125 -5.609375 C 3.570312 -5.378906 3.765625 -5.066406 3.890625 -4.671875 C 4.015625 -4.285156 4.078125 -3.851562 4.078125 -3.375 L 4.078125 -2.78125 L 1.28125 -2.78125 C 1.289062 -2.050781 1.40625 -1.503906 1.625 -1.140625 C 1.84375 -0.773438 2.171875 -0.59375 2.609375 -0.59375 C 2.828125 -0.59375 3.035156 -0.625 3.234375 -0.6875 C 3.441406 -0.75 3.648438 -0.851562 3.859375 -1 L 3.859375 -0.265625 C 3.660156 -0.140625 3.453125 -0.046875 3.234375 0.015625 C 3.015625 0.078125 2.78125 0.109375 2.53125 0.109375 C 2.039062 0.109375 1.644531 -0.0195312 1.34375 -0.28125 C 1.039062 -0.539062 0.816406 -0.898438 0.671875 -1.359375 C 0.535156 -1.816406 0.46875 -2.332031 0.46875 -2.90625 C 0.46875 -3.550781 0.535156 -4.101562 0.671875 -4.5625 C 0.816406 -5.019531 1.023438 -5.363281 1.296875 -5.59375 C 1.578125 -5.832031 1.921875 -5.953125 2.328125 -5.953125 Z M 2.328125 -5.28125 C 2.015625 -5.28125 1.769531 -5.128906 1.59375 -4.828125 C 1.425781 -4.535156 1.328125 -4.070312 1.296875 -3.4375 L 3.3125 -3.4375 C 3.3125 -3.769531 3.273438 -4.078125 3.203125 -4.359375 C 3.140625 -4.640625 3.035156 -4.863281 2.890625 -5.03125 C 2.742188 -5.195312 2.554688 -5.28125 2.328125 -5.28125 Z M 2.328125 -5.28125 "/></g></g></g><g fill="#2d6d5e" fill-opacity="1"><g transform="translate(55.01251, 123.799403)"><g><path d="M 2.171875 0.109375 C 1.609375 0.109375 1.179688 -0.144531 0.890625 -0.65625 C 0.609375 -1.175781 0.46875 -1.929688 0.46875 -2.921875 C 0.46875 -3.898438 0.613281 -4.648438 0.90625 -5.171875 C 1.195312 -5.703125 1.609375 -5.96875 2.140625 -5.96875 C 2.335938 -5.96875 2.519531 -5.929688 2.6875 -5.859375 C 2.851562 -5.785156 3 -5.679688 3.125 -5.546875 C 3.257812 -5.410156 3.375 -5.25 3.46875 -5.0625 L 3.515625 -5.0625 C 3.503906 -5.226562 3.492188 -5.375 3.484375 -5.5 C 3.484375 -5.632812 3.484375 -5.757812 3.484375 -5.875 L 3.484375 -8.3125 L 4.296875 -8.3125 L 4.296875 0 L 3.640625 0 L 3.53125 -0.796875 L 3.484375 -0.796875 C 3.378906 -0.609375 3.265625 -0.445312 3.140625 -0.3125 C 3.015625 -0.175781 2.875 -0.0703125 2.71875 0 C 2.5625 0.0703125 2.378906 0.109375 2.171875 0.109375 Z M 2.359375 -0.59375 C 2.722656 -0.59375 3 -0.765625 3.1875 -1.109375 C 3.382812 -1.453125 3.484375 -1.960938 3.484375 -2.640625 L 3.484375 -3.046875 C 3.484375 -3.785156 3.390625 -4.332031 3.203125 -4.6875 C 3.023438 -5.050781 2.738281 -5.234375 2.34375 -5.234375 C 1.988281 -5.234375 1.722656 -5.035156 1.546875 -4.640625 C 1.378906 -4.242188 1.296875 -3.671875 1.296875 -2.921875 C 1.296875 -2.148438 1.378906 -1.566406 1.546875 -1.171875 C 1.722656 -0.785156 1.992188 -0.59375 2.359375 -0.59375 Z M 2.359375 -0.59375 "/></g></g></g><g fill="#2d6d5e" fill-opacity="1"><g transform="translate(61.551223, 123.799403)"><g/></g></g><g fill="#2d6d5e" fill-opacity="1"><g transform="translate(65.114202, 123.799403)"><g><path d="M 2.09375 -0.625 C 2.1875 -0.625 2.273438 -0.628906 2.359375 -0.640625 C 2.453125 -0.660156 2.535156 -0.691406 2.609375 -0.734375 L 2.609375 -0.0625 C 2.503906 -0.0078125 2.382812 0.03125 2.25 0.0625 C 2.125 0.09375 1.984375 0.109375 1.828125 0.109375 C 1.578125 0.109375 1.367188 0.0507812 1.203125 -0.0625 C 1.046875 -0.175781 0.925781 -0.34375 0.84375 -0.5625 C 0.769531 -0.789062 0.734375 -1.078125 0.734375 -1.421875 L 0.734375 -5.171875 L 0.1875 -5.171875 L 0.1875 -5.625 L 0.78125 -5.84375 L 1 -7.1875 L 1.5625 -7.1875 L 1.5625 -5.859375 L 2.546875 -5.859375 L 2.546875 -5.171875 L 1.5625 -5.171875 L 1.5625 -1.515625 C 1.5625 -1.210938 1.597656 -0.988281 1.671875 -0.84375 C 1.742188 -0.695312 1.882812 -0.625 2.09375 -0.625 Z M 2.09375 -0.625 "/></g></g></g><g fill="#2d6d5e" fill-opacity="1"><g transform="translate(69.419779, 123.799403)"><g><path d="M 4.359375 -2.9375 C 4.359375 -2.476562 4.316406 -2.0625 4.234375 -1.6875 C 4.160156 -1.3125 4.039062 -0.988281 3.875 -0.71875 C 3.71875 -0.457031 3.515625 -0.253906 3.265625 -0.109375 C 3.023438 0.0351562 2.734375 0.109375 2.390625 0.109375 C 2.078125 0.109375 1.796875 0.0351562 1.546875 -0.109375 C 1.304688 -0.253906 1.101562 -0.457031 0.9375 -0.71875 C 0.78125 -0.976562 0.660156 -1.296875 0.578125 -1.671875 C 0.503906 -2.054688 0.46875 -2.476562 0.46875 -2.9375 C 0.46875 -3.582031 0.535156 -4.128906 0.671875 -4.578125 C 0.804688 -5.035156 1.019531 -5.378906 1.3125 -5.609375 C 1.601562 -5.847656 1.96875 -5.96875 2.40625 -5.96875 C 2.820312 -5.96875 3.175781 -5.851562 3.46875 -5.625 C 3.757812 -5.394531 3.976562 -5.054688 4.125 -4.609375 C 4.28125 -4.160156 4.359375 -3.601562 4.359375 -2.9375 Z M 1.296875 -2.9375 C 1.296875 -2.425781 1.332031 -2 1.40625 -1.65625 C 1.488281 -1.3125 1.613281 -1.050781 1.78125 -0.875 C 1.945312 -0.695312 2.160156 -0.609375 2.421875 -0.609375 C 2.671875 -0.609375 2.875 -0.691406 3.03125 -0.859375 C 3.195312 -1.035156 3.316406 -1.296875 3.390625 -1.640625 C 3.472656 -1.984375 3.515625 -2.414062 3.515625 -2.9375 C 3.515625 -3.445312 3.472656 -3.875 3.390625 -4.21875 C 3.316406 -4.5625 3.195312 -4.816406 3.03125 -4.984375 C 2.875 -5.160156 2.664062 -5.25 2.40625 -5.25 C 2.019531 -5.25 1.738281 -5.054688 1.5625 -4.671875 C 1.382812 -4.285156 1.296875 -3.707031 1.296875 -2.9375 Z M 1.296875 -2.9375 "/></g></g></g><g fill="#2d6d5e" fill-opacity="1"><g transform="translate(75.771507, 123.799403)"><g/></g></g><g fill="#2d6d5e" fill-opacity="1"><g transform="translate(79.334487, 123.799403)"><g><path d="M 2.09375 -0.625 C 2.1875 -0.625 2.273438 -0.628906 2.359375 -0.640625 C 2.453125 -0.660156 2.535156 -0.691406 2.609375 -0.734375 L 2.609375 -0.0625 C 2.503906 -0.0078125 2.382812 0.03125 2.25 0.0625 C 2.125 0.09375 1.984375 0.109375 1.828125 0.109375 C 1.578125 0.109375 1.367188 0.0507812 1.203125 -0.0625 C 1.046875 -0.175781 0.925781 -0.34375 0.84375 -0.5625 C 0.769531 -0.789062 0.734375 -1.078125 0.734375 -1.421875 L 0.734375 -5.171875 L 0.1875 -5.171875 L 0.1875 -5.625 L 0.78125 -5.84375 L 1 -7.1875 L 1.5625 -7.1875 L 1.5625 -5.859375 L 2.546875 -5.859375 L 2.546875 -5.171875 L 1.5625 -5.171875 L 1.5625 -1.515625 C 1.5625 -1.210938 1.597656 -0.988281 1.671875 -0.84375 C 1.742188 -0.695312 1.882812 -0.625 2.09375 -0.625 Z M 2.09375 -0.625 "/></g></g></g><g fill="#2d6d5e" fill-opacity="1"><g transform="translate(83.640064, 123.799403)"><g><path d="M 1.53125 -8.3125 L 1.53125 -5.890625 C 1.53125 -5.734375 1.523438 -5.582031 1.515625 -5.4375 C 1.515625 -5.300781 1.503906 -5.164062 1.484375 -5.03125 L 1.53125 -5.03125 C 1.601562 -5.226562 1.703125 -5.394531 1.828125 -5.53125 C 1.960938 -5.664062 2.113281 -5.769531 2.28125 -5.84375 C 2.445312 -5.925781 2.625 -5.96875 2.8125 -5.96875 C 3.144531 -5.96875 3.414062 -5.890625 3.625 -5.734375 C 3.832031 -5.585938 3.984375 -5.367188 4.078125 -5.078125 C 4.179688 -4.785156 4.234375 -4.421875 4.234375 -3.984375 L 4.234375 0 L 3.40625 0 L 3.40625 -3.828125 C 3.40625 -4.328125 3.34375 -4.6875 3.21875 -4.90625 C 3.101562 -5.125 2.910156 -5.234375 2.640625 -5.234375 C 2.390625 -5.234375 2.179688 -5.15625 2.015625 -5 C 1.859375 -4.851562 1.738281 -4.617188 1.65625 -4.296875 C 1.570312 -3.972656 1.53125 -3.566406 1.53125 -3.078125 L 1.53125 0 L 0.71875 0 L 0.71875 -8.3125 Z M 1.53125 -8.3125 "/></g></g></g><g fill="#2d6d5e" fill-opacity="1"><g transform="translate(90.103983, 123.799403)"><g><path d="M 2.328125 -5.953125 C 2.722656 -5.953125 3.050781 -5.835938 3.3125 -5.609375 C 3.570312 -5.378906 3.765625 -5.066406 3.890625 -4.671875 C 4.015625 -4.285156 4.078125 -3.851562 4.078125 -3.375 L 4.078125 -2.78125 L 1.28125 -2.78125 C 1.289062 -2.050781 1.40625 -1.503906 1.625 -1.140625 C 1.84375 -0.773438 2.171875 -0.59375 2.609375 -0.59375 C 2.828125 -0.59375 3.035156 -0.625 3.234375 -0.6875 C 3.441406 -0.75 3.648438 -0.851562 3.859375 -1 L 3.859375 -0.265625 C 3.660156 -0.140625 3.453125 -0.046875 3.234375 0.015625 C 3.015625 0.078125 2.78125 0.109375 2.53125 0.109375 C 2.039062 0.109375 1.644531 -0.0195312 1.34375 -0.28125 C 1.039062 -0.539062 0.816406 -0.898438 0.671875 -1.359375 C 0.535156 -1.816406 0.46875 -2.332031 0.46875 -2.90625 C 0.46875 -3.550781 0.535156 -4.101562 0.671875 -4.5625 C 0.816406 -5.019531 1.023438 -5.363281 1.296875 -5.59375 C 1.578125 -5.832031 1.921875 -5.953125 2.328125 -5.953125 Z M 2.328125 -5.28125 C 2.015625 -5.28125 1.769531 -5.128906 1.59375 -4.828125 C 1.425781 -4.535156 1.328125 -4.070312 1.296875 -3.4375 L 3.3125 -3.4375 C 3.3125 -3.769531 3.273438 -4.078125 3.203125 -4.359375 C 3.140625 -4.640625 3.035156 -4.863281 2.890625 -5.03125 C 2.742188 -5.195312 2.554688 -5.28125 2.328125 -5.28125 Z M 2.328125 -5.28125 "/></g></g></g><g fill="#2d6d5e" fill-opacity="1"><g transform="translate(96.161877, 123.799403)"><g/></g></g><g fill="#2d6d5e" fill-opacity="1"><g transform="translate(99.724856, 123.799403)"><g><path d="M 1.53125 0 L 0.71875 0 L 0.71875 -8.3125 L 1.53125 -8.3125 Z M 1.53125 0 "/></g></g></g><g fill="#2d6d5e" fill-opacity="1"><g transform="translate(103.501533, 123.799403)"><g><path d="M 2.28125 -5.96875 C 2.820312 -5.96875 3.207031 -5.796875 3.4375 -5.453125 C 3.675781 -5.109375 3.796875 -4.609375 3.796875 -3.953125 L 3.796875 0 L 3.171875 0 L 3.046875 -0.828125 L 3.015625 -0.828125 C 2.929688 -0.628906 2.820312 -0.457031 2.6875 -0.3125 C 2.5625 -0.175781 2.414062 -0.0703125 2.25 0 C 2.09375 0.0703125 1.90625 0.109375 1.6875 0.109375 C 1.382812 0.109375 1.132812 0.03125 0.9375 -0.125 C 0.75 -0.289062 0.609375 -0.503906 0.515625 -0.765625 C 0.421875 -1.023438 0.375 -1.304688 0.375 -1.609375 C 0.375 -2.191406 0.539062 -2.640625 0.875 -2.953125 C 1.21875 -3.273438 1.695312 -3.453125 2.3125 -3.484375 L 2.96875 -3.53125 L 2.96875 -3.9375 C 2.96875 -4.40625 2.90625 -4.742188 2.78125 -4.953125 C 2.65625 -5.171875 2.445312 -5.28125 2.15625 -5.28125 C 2 -5.28125 1.828125 -5.25 1.640625 -5.1875 C 1.460938 -5.132812 1.269531 -5.046875 1.0625 -4.921875 L 0.796875 -5.546875 C 1.015625 -5.691406 1.25 -5.796875 1.5 -5.859375 C 1.757812 -5.929688 2.019531 -5.96875 2.28125 -5.96875 Z M 2.984375 -2.921875 L 2.4375 -2.890625 C 2.03125 -2.867188 1.722656 -2.753906 1.515625 -2.546875 C 1.316406 -2.335938 1.21875 -2.035156 1.21875 -1.640625 C 1.21875 -1.265625 1.28125 -0.988281 1.40625 -0.8125 C 1.539062 -0.644531 1.722656 -0.5625 1.953125 -0.5625 C 2.285156 -0.5625 2.539062 -0.71875 2.71875 -1.03125 C 2.894531 -1.34375 2.984375 -1.773438 2.984375 -2.328125 Z M 2.984375 -2.921875 "/></g></g></g><g fill="#2d6d5e" fill-opacity="1"><g transform="translate(109.527373, 123.799403)"><g><path d="M 2.40625 0.109375 C 1.976562 0.109375 1.617188 0 1.328125 -0.21875 C 1.046875 -0.445312 0.832031 -0.785156 0.6875 -1.234375 C 0.539062 -1.679688 0.46875 -2.234375 0.46875 -2.890625 C 0.46875 -3.535156 0.539062 -4.085938 0.6875 -4.546875 C 0.832031 -5.003906 1.050781 -5.351562 1.34375 -5.59375 C 1.632812 -5.84375 2 -5.96875 2.4375 -5.96875 C 2.65625 -5.96875 2.851562 -5.941406 3.03125 -5.890625 C 3.207031 -5.847656 3.375 -5.785156 3.53125 -5.703125 L 3.265625 -5.03125 C 3.140625 -5.09375 3.007812 -5.140625 2.875 -5.171875 C 2.75 -5.210938 2.625 -5.234375 2.5 -5.234375 C 2.238281 -5.234375 2.019531 -5.144531 1.84375 -4.96875 C 1.675781 -4.789062 1.546875 -4.53125 1.453125 -4.1875 C 1.359375 -3.84375 1.3125 -3.414062 1.3125 -2.90625 C 1.3125 -2.394531 1.351562 -1.96875 1.4375 -1.625 C 1.53125 -1.289062 1.664062 -1.035156 1.84375 -0.859375 C 2.019531 -0.691406 2.238281 -0.609375 2.5 -0.609375 C 2.65625 -0.609375 2.8125 -0.628906 2.96875 -0.671875 C 3.132812 -0.722656 3.300781 -0.789062 3.46875 -0.875 L 3.46875 -0.1875 C 3.3125 -0.09375 3.132812 -0.0195312 2.9375 0.03125 C 2.75 0.0820312 2.570312 0.109375 2.40625 0.109375 Z M 2.40625 0.109375 "/></g></g></g><g fill="#2d6d5e" fill-opacity="1"><g transform="translate(114.815957, 123.799403)"><g><path d="M 1.53125 -8.3125 L 1.53125 -4.15625 C 1.53125 -3.945312 1.523438 -3.742188 1.515625 -3.546875 C 1.515625 -3.359375 1.503906 -3.164062 1.484375 -2.96875 L 1.53125 -2.96875 C 1.59375 -3.082031 1.648438 -3.195312 1.703125 -3.3125 C 1.765625 -3.425781 1.832031 -3.53125 1.90625 -3.625 L 3.234375 -5.859375 L 4.125 -5.859375 L 2.71875 -3.609375 L 4.234375 0 L 3.34375 0 L 2.15625 -2.953125 L 1.53125 -2.171875 L 1.53125 0 L 0.71875 0 L 0.71875 -8.3125 Z M 1.53125 -8.3125 "/></g></g></g><g fill="#2d6d5e" fill-opacity="1"><g transform="translate(41.54307, 136.490374)"><g><path d="M 4.359375 -2.9375 C 4.359375 -2.476562 4.316406 -2.0625 4.234375 -1.6875 C 4.160156 -1.3125 4.039062 -0.988281 3.875 -0.71875 C 3.71875 -0.457031 3.515625 -0.253906 3.265625 -0.109375 C 3.023438 0.0351562 2.734375 0.109375 2.390625 0.109375 C 2.078125 0.109375 1.796875 0.0351562 1.546875 -0.109375 C 1.304688 -0.253906 1.101562 -0.457031 0.9375 -0.71875 C 0.78125 -0.976562 0.660156 -1.296875 0.578125 -1.671875 C 0.503906 -2.054688 0.46875 -2.476562 0.46875 -2.9375 C 0.46875 -3.582031 0.535156 -4.128906 0.671875 -4.578125 C 0.804688 -5.035156 1.019531 -5.378906 1.3125 -5.609375 C 1.601562 -5.847656 1.96875 -5.96875 2.40625 -5.96875 C 2.820312 -5.96875 3.175781 -5.851562 3.46875 -5.625 C 3.757812 -5.394531 3.976562 -5.054688 4.125 -4.609375 C 4.28125 -4.160156 4.359375 -3.601562 4.359375 -2.9375 Z M 1.296875 -2.9375 C 1.296875 -2.425781 1.332031 -2 1.40625 -1.65625 C 1.488281 -1.3125 1.613281 -1.050781 1.78125 -0.875 C 1.945312 -0.695312 2.160156 -0.609375 2.421875 -0.609375 C 2.671875 -0.609375 2.875 -0.691406 3.03125 -0.859375 C 3.195312 -1.035156 3.316406 -1.296875 3.390625 -1.640625 C 3.472656 -1.984375 3.515625 -2.414062 3.515625 -2.9375 C 3.515625 -3.445312 3.472656 -3.875 3.390625 -4.21875 C 3.316406 -4.5625 3.195312 -4.816406 3.03125 -4.984375 C 2.875 -5.160156 2.664062 -5.25 2.40625 -5.25 C 2.019531 -5.25 1.738281 -5.054688 1.5625 -4.671875 C 1.382812 -4.285156 1.296875 -3.707031 1.296875 -2.9375 Z M 1.296875 -2.9375 "/></g></g></g><g fill="#2d6d5e" fill-opacity="1"><g transform="translate(47.894798, 136.490374)"><g><path d="M 2.5625 -5.171875 L 1.640625 -5.171875 L 1.640625 0 L 0.8125 0 L 0.8125 -5.171875 L 0.09375 -5.171875 L 0.09375 -5.609375 L 0.8125 -5.890625 L 0.8125 -6.28125 C 0.8125 -6.726562 0.847656 -7.101562 0.921875 -7.40625 C 1.003906 -7.71875 1.140625 -7.957031 1.328125 -8.125 C 1.523438 -8.289062 1.789062 -8.375 2.125 -8.375 C 2.28125 -8.375 2.421875 -8.359375 2.546875 -8.328125 C 2.679688 -8.296875 2.820312 -8.253906 2.96875 -8.203125 L 2.75 -7.53125 C 2.65625 -7.570312 2.5625 -7.597656 2.46875 -7.609375 C 2.382812 -7.628906 2.300781 -7.640625 2.21875 -7.640625 C 2 -7.640625 1.847656 -7.539062 1.765625 -7.34375 C 1.679688 -7.15625 1.640625 -6.8125 1.640625 -6.3125 L 1.640625 -5.859375 L 2.5625 -5.859375 Z M 2.5625 -5.171875 "/></g></g></g><g fill="#2d6d5e" fill-opacity="1"><g transform="translate(52.146951, 136.490374)"><g/></g></g><g fill="#2d6d5e" fill-opacity="1"><g transform="translate(55.70993, 136.490374)"><g><path d="M 4.359375 -2.9375 C 4.359375 -2.476562 4.316406 -2.0625 4.234375 -1.6875 C 4.160156 -1.3125 4.039062 -0.988281 3.875 -0.71875 C 3.71875 -0.457031 3.515625 -0.253906 3.265625 -0.109375 C 3.023438 0.0351562 2.734375 0.109375 2.390625 0.109375 C 2.078125 0.109375 1.796875 0.0351562 1.546875 -0.109375 C 1.304688 -0.253906 1.101562 -0.457031 0.9375 -0.71875 C 0.78125 -0.976562 0.660156 -1.296875 0.578125 -1.671875 C 0.503906 -2.054688 0.46875 -2.476562 0.46875 -2.9375 C 0.46875 -3.582031 0.535156 -4.128906 0.671875 -4.578125 C 0.804688 -5.035156 1.019531 -5.378906 1.3125 -5.609375 C 1.601562 -5.847656 1.96875 -5.96875 2.40625 -5.96875 C 2.820312 -5.96875 3.175781 -5.851562 3.46875 -5.625 C 3.757812 -5.394531 3.976562 -5.054688 4.125 -4.609375 C 4.28125 -4.160156 4.359375 -3.601562 4.359375 -2.9375 Z M 1.296875 -2.9375 C 1.296875 -2.425781 1.332031 -2 1.40625 -1.65625 C 1.488281 -1.3125 1.613281 -1.050781 1.78125 -0.875 C 1.945312 -0.695312 2.160156 -0.609375 2.421875 -0.609375 C 2.671875 -0.609375 2.875 -0.691406 3.03125 -0.859375 C 3.195312 -1.035156 3.316406 -1.296875 3.390625 -1.640625 C 3.472656 -1.984375 3.515625 -2.414062 3.515625 -2.9375 C 3.515625 -3.445312 3.472656 -3.875 3.390625 -4.21875 C 3.316406 -4.5625 3.195312 -4.816406 3.03125 -4.984375 C 2.875 -5.160156 2.664062 -5.25 2.40625 -5.25 C 2.019531 -5.25 1.738281 -5.054688 1.5625 -4.671875 C 1.382812 -4.285156 1.296875 -3.707031 1.296875 -2.9375 Z M 1.296875 -2.9375 "/></g></g></g><g fill="#2d6d5e" fill-opacity="1"><g transform="translate(62.061658, 136.490374)"><g><path d="M 1.546875 -3.015625 L 0.25 -5.859375 L 1.125 -5.859375 L 2.03125 -3.6875 L 2.9375 -5.859375 L 3.8125 -5.859375 L 2.5 -2.984375 L 3.859375 0 L 2.984375 0 L 2 -2.3125 L 1.015625 0 L 0.15625 0 Z M 1.546875 -3.015625 "/></g></g></g><g fill="#2d6d5e" fill-opacity="1"><g transform="translate(67.606679, 136.490374)"><g><path d="M 0.0625 -5.859375 L 0.90625 -5.859375 L 1.734375 -2.4375 C 1.773438 -2.289062 1.804688 -2.144531 1.828125 -2 C 1.859375 -1.851562 1.882812 -1.707031 1.90625 -1.5625 C 1.9375 -1.425781 1.960938 -1.285156 1.984375 -1.140625 L 2.03125 -1.140625 C 2.0625 -1.347656 2.097656 -1.554688 2.140625 -1.765625 C 2.179688 -1.984375 2.226562 -2.207031 2.28125 -2.4375 L 3.09375 -5.859375 L 3.9375 -5.859375 L 2.1875 0.9375 C 2.09375 1.332031 1.972656 1.65625 1.828125 1.90625 C 1.691406 2.15625 1.53125 2.335938 1.34375 2.453125 C 1.15625 2.566406 0.929688 2.625 0.671875 2.625 C 0.585938 2.625 0.503906 2.613281 0.421875 2.59375 C 0.335938 2.582031 0.25 2.5625 0.15625 2.53125 L 0.15625 1.8125 C 0.21875 1.832031 0.285156 1.847656 0.359375 1.859375 C 0.429688 1.878906 0.503906 1.890625 0.578125 1.890625 C 0.710938 1.890625 0.828125 1.851562 0.921875 1.78125 C 1.015625 1.707031 1.097656 1.59375 1.171875 1.4375 C 1.242188 1.28125 1.316406 1.0625 1.390625 0.78125 L 1.609375 -0.046875 Z M 0.0625 -5.859375 "/></g></g></g><g fill="#2d6d5e" fill-opacity="1"><g transform="translate(73.124988, 136.490374)"><g><path d="M 1.875 2.625 C 1.3125 2.625 0.867188 2.476562 0.546875 2.1875 C 0.234375 1.90625 0.078125 1.507812 0.078125 1 C 0.078125 0.601562 0.171875 0.273438 0.359375 0.015625 C 0.554688 -0.242188 0.804688 -0.414062 1.109375 -0.5 C 0.953125 -0.570312 0.828125 -0.675781 0.734375 -0.8125 C 0.640625 -0.957031 0.59375 -1.128906 0.59375 -1.328125 C 0.59375 -1.523438 0.640625 -1.703125 0.734375 -1.859375 C 0.828125 -2.023438 0.960938 -2.1875 1.140625 -2.34375 C 0.910156 -2.476562 0.726562 -2.691406 0.59375 -2.984375 C 0.46875 -3.285156 0.40625 -3.628906 0.40625 -4.015625 C 0.40625 -4.421875 0.46875 -4.765625 0.59375 -5.046875 C 0.726562 -5.335938 0.914062 -5.5625 1.15625 -5.71875 C 1.40625 -5.882812 1.703125 -5.96875 2.046875 -5.96875 C 2.148438 -5.96875 2.242188 -5.960938 2.328125 -5.953125 C 2.410156 -5.941406 2.484375 -5.925781 2.546875 -5.90625 C 2.609375 -5.894531 2.664062 -5.875 2.71875 -5.84375 L 4.171875 -5.84375 L 4.171875 -5.3125 L 3.375 -5.21875 C 3.476562 -5.0625 3.550781 -4.878906 3.59375 -4.671875 C 3.644531 -4.472656 3.671875 -4.265625 3.671875 -4.046875 C 3.671875 -3.453125 3.523438 -2.984375 3.234375 -2.640625 C 2.953125 -2.296875 2.550781 -2.125 2.03125 -2.125 C 1.875 -2.125 1.75 -2.140625 1.65625 -2.171875 C 1.550781 -2.078125 1.460938 -1.972656 1.390625 -1.859375 C 1.316406 -1.742188 1.28125 -1.601562 1.28125 -1.4375 C 1.28125 -1.332031 1.304688 -1.238281 1.359375 -1.15625 C 1.410156 -1.082031 1.476562 -1.023438 1.5625 -0.984375 C 1.65625 -0.941406 1.769531 -0.921875 1.90625 -0.921875 L 2.75 -0.921875 C 3.1875 -0.921875 3.523438 -0.796875 3.765625 -0.546875 C 4.003906 -0.296875 4.125 0.0859375 4.125 0.609375 C 4.125 1.242188 3.929688 1.738281 3.546875 2.09375 C 3.160156 2.445312 2.601562 2.625 1.875 2.625 Z M 1.9375 1.96875 C 2.25 1.96875 2.507812 1.921875 2.71875 1.828125 C 2.925781 1.734375 3.082031 1.585938 3.1875 1.390625 C 3.289062 1.203125 3.34375 0.96875 3.34375 0.6875 C 3.34375 0.457031 3.304688 0.28125 3.234375 0.15625 C 3.160156 0.03125 3.054688 -0.0507812 2.921875 -0.09375 C 2.785156 -0.144531 2.625 -0.171875 2.4375 -0.171875 L 1.734375 -0.171875 C 1.566406 -0.171875 1.414062 -0.132812 1.28125 -0.0625 C 1.15625 0.0078125 1.050781 0.125 0.96875 0.28125 C 0.894531 0.445312 0.859375 0.660156 0.859375 0.921875 C 0.859375 1.273438 0.953125 1.535156 1.140625 1.703125 C 1.335938 1.878906 1.601562 1.96875 1.9375 1.96875 Z M 2.046875 -2.734375 C 2.296875 -2.734375 2.488281 -2.84375 2.625 -3.0625 C 2.769531 -3.28125 2.84375 -3.601562 2.84375 -4.03125 C 2.84375 -4.476562 2.769531 -4.8125 2.625 -5.03125 C 2.476562 -5.257812 2.28125 -5.375 2.03125 -5.375 C 1.78125 -5.375 1.582031 -5.253906 1.4375 -5.015625 C 1.300781 -4.773438 1.234375 -4.441406 1.234375 -4.015625 C 1.234375 -3.609375 1.300781 -3.289062 1.4375 -3.0625 C 1.570312 -2.84375 1.773438 -2.734375 2.046875 -2.734375 Z M 2.046875 -2.734375 "/></g></g></g><g fill="#2d6d5e" fill-opacity="1"><g transform="translate(78.878364, 136.490374)"><g><path d="M 2.328125 -5.953125 C 2.722656 -5.953125 3.050781 -5.835938 3.3125 -5.609375 C 3.570312 -5.378906 3.765625 -5.066406 3.890625 -4.671875 C 4.015625 -4.285156 4.078125 -3.851562 4.078125 -3.375 L 4.078125 -2.78125 L 1.28125 -2.78125 C 1.289062 -2.050781 1.40625 -1.503906 1.625 -1.140625 C 1.84375 -0.773438 2.171875 -0.59375 2.609375 -0.59375 C 2.828125 -0.59375 3.035156 -0.625 3.234375 -0.6875 C 3.441406 -0.75 3.648438 -0.851562 3.859375 -1 L 3.859375 -0.265625 C 3.660156 -0.140625 3.453125 -0.046875 3.234375 0.015625 C 3.015625 0.078125 2.78125 0.109375 2.53125 0.109375 C 2.039062 0.109375 1.644531 -0.0195312 1.34375 -0.28125 C 1.039062 -0.539062 0.816406 -0.898438 0.671875 -1.359375 C 0.535156 -1.816406 0.46875 -2.332031 0.46875 -2.90625 C 0.46875 -3.550781 0.535156 -4.101562 0.671875 -4.5625 C 0.816406 -5.019531 1.023438 -5.363281 1.296875 -5.59375 C 1.578125 -5.832031 1.921875 -5.953125 2.328125 -5.953125 Z M 2.328125 -5.28125 C 2.015625 -5.28125 1.769531 -5.128906 1.59375 -4.828125 C 1.425781 -4.535156 1.328125 -4.070312 1.296875 -3.4375 L 3.3125 -3.4375 C 3.3125 -3.769531 3.273438 -4.078125 3.203125 -4.359375 C 3.140625 -4.640625 3.035156 -4.863281 2.890625 -5.03125 C 2.742188 -5.195312 2.554688 -5.28125 2.328125 -5.28125 Z M 2.328125 -5.28125 "/></g></g></g><g fill="#2d6d5e" fill-opacity="1"><g transform="translate(84.936258, 136.490374)"><g><path d="M 2.828125 -5.96875 C 3.285156 -5.96875 3.632812 -5.804688 3.875 -5.484375 C 4.113281 -5.160156 4.234375 -4.664062 4.234375 -4 L 4.234375 0 L 3.40625 0 L 3.40625 -3.828125 C 3.40625 -4.304688 3.34375 -4.660156 3.21875 -4.890625 C 3.101562 -5.128906 2.914062 -5.25 2.65625 -5.25 C 2.269531 -5.25 1.984375 -5.078125 1.796875 -4.734375 C 1.617188 -4.390625 1.53125 -3.84375 1.53125 -3.09375 L 1.53125 0 L 0.71875 0 L 0.71875 -5.859375 L 1.375 -5.859375 L 1.46875 -5.015625 L 1.515625 -5.015625 C 1.597656 -5.210938 1.703125 -5.378906 1.828125 -5.515625 C 1.960938 -5.660156 2.113281 -5.769531 2.28125 -5.84375 C 2.445312 -5.925781 2.628906 -5.96875 2.828125 -5.96875 Z M 2.828125 -5.96875 "/></g></g></g><g fill="#2d6d5e" fill-opacity="1"><g transform="translate(91.408789, 136.490374)"><g/></g></g><g fill="#0661aa" fill-opacity="1"><g transform="translate(46.557846, 86.015127)"><g><path d="M 6.828125 0.390625 C 5.535156 0.390625 4.414062 0.113281 3.46875 -0.4375 C 2.519531 -0.988281 1.785156 -1.769531 1.265625 -2.78125 C 0.753906 -3.800781 0.5 -5 0.5 -6.375 C 0.5 -7.757812 0.738281 -8.957031 1.21875 -9.96875 C 1.707031 -10.988281 2.398438 -11.773438 3.296875 -12.328125 C 4.191406 -12.878906 5.253906 -13.15625 6.484375 -13.15625 C 7.472656 -13.15625 8.351562 -12.957031 9.125 -12.5625 C 9.894531 -12.175781 10.523438 -11.625 11.015625 -10.90625 C 11.503906 -10.1875 11.816406 -9.320312 11.953125 -8.3125 L 9.125 -7.765625 C 8.976562 -8.628906 8.675781 -9.304688 8.21875 -9.796875 C 7.769531 -10.285156 7.191406 -10.53125 6.484375 -10.53125 C 5.585938 -10.53125 4.875 -10.15625 4.34375 -9.40625 C 3.820312 -8.664062 3.5625 -7.65625 3.5625 -6.375 C 3.5625 -5.113281 3.859375 -4.113281 4.453125 -3.375 C 5.046875 -2.632812 5.847656 -2.265625 6.859375 -2.265625 C 7.679688 -2.265625 8.378906 -2.550781 8.953125 -3.125 C 9.535156 -3.707031 9.894531 -4.488281 10.03125 -5.46875 L 12.90625 -5.046875 C 12.769531 -3.941406 12.429688 -2.976562 11.890625 -2.15625 C 11.347656 -1.34375 10.644531 -0.710938 9.78125 -0.265625 C 8.925781 0.171875 7.941406 0.390625 6.828125 0.390625 Z M 6.828125 0.390625 "/></g></g></g><g fill="#0661aa" fill-opacity="1"><g transform="translate(61.840727, 86.015127)"><g><path d="M 6.984375 0.390625 C 5.679688 0.390625 4.539062 0.109375 3.5625 -0.453125 C 2.59375 -1.015625 1.835938 -1.800781 1.296875 -2.8125 C 0.765625 -3.832031 0.5 -5.019531 0.5 -6.375 C 0.5 -7.75 0.765625 -8.941406 1.296875 -9.953125 C 1.835938 -10.960938 2.59375 -11.75 3.5625 -12.3125 C 4.539062 -12.875 5.679688 -13.15625 6.984375 -13.15625 C 8.304688 -13.15625 9.453125 -12.875 10.421875 -12.3125 C 11.390625 -11.75 12.144531 -10.960938 12.6875 -9.953125 C 13.226562 -8.941406 13.5 -7.75 13.5 -6.375 C 13.5 -5.019531 13.226562 -3.832031 12.6875 -2.8125 C 12.144531 -1.800781 11.390625 -1.015625 10.421875 -0.453125 C 9.453125 0.109375 8.304688 0.390625 6.984375 0.390625 Z M 6.984375 -2.234375 C 8.035156 -2.234375 8.875 -2.609375 9.5 -3.359375 C 10.125 -4.109375 10.4375 -5.113281 10.4375 -6.375 C 10.4375 -7.644531 10.125 -8.65625 9.5 -9.40625 C 8.875 -10.15625 8.035156 -10.53125 6.984375 -10.53125 C 5.953125 -10.53125 5.125 -10.15625 4.5 -9.40625 C 3.875 -8.65625 3.5625 -7.644531 3.5625 -6.375 C 3.5625 -5.113281 3.875 -4.109375 4.5 -3.359375 C 5.125 -2.609375 5.953125 -2.234375 6.984375 -2.234375 Z M 6.984375 -2.234375 "/></g></g></g><g fill="#0661aa" fill-opacity="1"><g transform="translate(77.947767, 86.015127)"><g><path d="M 0.640625 0 L 0.640625 -1.328125 C 0.648438 -2.148438 0.753906 -2.859375 0.953125 -3.453125 C 1.160156 -4.046875 1.484375 -4.554688 1.921875 -4.984375 C 2.367188 -5.410156 2.957031 -5.796875 3.6875 -6.140625 L 5.171875 -6.875 C 5.765625 -7.175781 6.179688 -7.488281 6.421875 -7.8125 C 6.671875 -8.144531 6.796875 -8.554688 6.796875 -9.046875 C 6.796875 -9.535156 6.675781 -9.929688 6.4375 -10.234375 C 6.207031 -10.535156 5.890625 -10.6875 5.484375 -10.6875 C 5.015625 -10.6875 4.632812 -10.472656 4.34375 -10.046875 C 4.0625 -9.617188 3.914062 -8.984375 3.90625 -8.140625 L 0.90625 -8.65625 C 0.96875 -9.550781 1.195312 -10.328125 1.59375 -10.984375 C 2 -11.648438 2.546875 -12.164062 3.234375 -12.53125 C 3.921875 -12.90625 4.710938 -13.09375 5.609375 -13.09375 C 6.472656 -13.09375 7.222656 -12.925781 7.859375 -12.59375 C 8.492188 -12.257812 8.984375 -11.785156 9.328125 -11.171875 C 9.679688 -10.566406 9.859375 -9.851562 9.859375 -9.03125 C 9.859375 -8.15625 9.632812 -7.421875 9.1875 -6.828125 C 8.75 -6.234375 8.03125 -5.695312 7.03125 -5.21875 L 5.3125 -4.390625 C 4.726562 -4.066406 4.320312 -3.742188 4.09375 -3.421875 C 3.875 -3.097656 3.765625 -2.691406 3.765625 -2.203125 L 9.78125 -2.203125 L 9.78125 0 Z M 0.640625 0 "/></g></g></g><g fill="#0661aa" fill-opacity="1"><g transform="translate(18.738024, 107.664431)"><g><path d="M 3.640625 0 L 3.640625 -10.140625 L 0.265625 -10.140625 L 0.265625 -12.765625 L 10.078125 -12.765625 L 10.078125 -10.140625 L 6.703125 -10.140625 L 6.703125 0 Z M 3.640625 0 "/></g></g></g><g fill="#0661aa" fill-opacity="1"><g transform="translate(29.577576, 107.664431)"><g><path d="M 5.03125 0.296875 C 4.09375 0.296875 3.269531 0.0976562 2.5625 -0.296875 C 1.863281 -0.691406 1.320312 -1.253906 0.9375 -1.984375 C 0.5625 -2.722656 0.375 -3.59375 0.375 -4.59375 C 0.375 -5.59375 0.5625 -6.457031 0.9375 -7.1875 C 1.320312 -7.925781 1.863281 -8.492188 2.5625 -8.890625 C 3.269531 -9.296875 4.09375 -9.5 5.03125 -9.5 C 5.976562 -9.5 6.796875 -9.296875 7.484375 -8.890625 C 8.179688 -8.492188 8.71875 -7.925781 9.09375 -7.1875 C 9.476562 -6.457031 9.671875 -5.59375 9.671875 -4.59375 C 9.671875 -3.59375 9.476562 -2.722656 9.09375 -1.984375 C 8.71875 -1.253906 8.179688 -0.691406 7.484375 -0.296875 C 6.796875 0.0976562 5.976562 0.296875 5.03125 0.296875 Z M 5.03125 -1.984375 C 5.632812 -1.984375 6.101562 -2.210938 6.4375 -2.671875 C 6.78125 -3.140625 6.953125 -3.78125 6.953125 -4.59375 C 6.953125 -5.40625 6.78125 -6.039062 6.4375 -6.5 C 6.101562 -6.957031 5.632812 -7.1875 5.03125 -7.1875 C 4.4375 -7.1875 3.960938 -6.957031 3.609375 -6.5 C 3.265625 -6.039062 3.09375 -5.40625 3.09375 -4.59375 C 3.09375 -3.78125 3.265625 -3.140625 3.609375 -2.671875 C 3.960938 -2.210938 4.4375 -1.984375 5.03125 -1.984375 Z M 5.03125 -1.984375 "/></g></g></g><g fill="#0661aa" fill-opacity="1"><g transform="translate(41.760879, 107.664431)"><g><path d="M 0.6875 0 L 0.6875 -13.296875 L 3.40625 -13.296875 L 3.40625 0 Z M 0.6875 0 "/></g></g></g><g fill="#0661aa" fill-opacity="1"><g transform="translate(47.960035, 107.664431)"><g><path d="M 5.359375 0.296875 C 4.367188 0.296875 3.492188 0.0976562 2.734375 -0.296875 C 1.984375 -0.703125 1.398438 -1.28125 0.984375 -2.03125 C 0.578125 -2.78125 0.375 -3.648438 0.375 -4.640625 C 0.375 -5.617188 0.5625 -6.46875 0.9375 -7.1875 C 1.3125 -7.914062 1.835938 -8.484375 2.515625 -8.890625 C 3.203125 -9.296875 4.003906 -9.5 4.921875 -9.5 C 5.804688 -9.5 6.570312 -9.300781 7.21875 -8.90625 C 7.863281 -8.519531 8.367188 -7.976562 8.734375 -7.28125 C 9.097656 -6.582031 9.28125 -5.765625 9.28125 -4.828125 C 9.28125 -4.628906 9.269531 -4.441406 9.25 -4.265625 C 9.238281 -4.097656 9.210938 -3.953125 9.171875 -3.828125 L 3.125 -3.828125 C 3.175781 -3.160156 3.40625 -2.632812 3.8125 -2.25 C 4.21875 -1.863281 4.738281 -1.671875 5.375 -1.671875 C 5.863281 -1.671875 6.296875 -1.789062 6.671875 -2.03125 C 7.046875 -2.269531 7.332031 -2.597656 7.53125 -3.015625 L 9.4375 -2.171875 C 9.175781 -1.398438 8.671875 -0.796875 7.921875 -0.359375 C 7.171875 0.078125 6.316406 0.296875 5.359375 0.296875 Z M 3.125 -5.390625 L 6.5625 -5.390625 C 6.519531 -6.054688 6.351562 -6.578125 6.0625 -6.953125 C 5.78125 -7.328125 5.394531 -7.515625 4.90625 -7.515625 C 4.394531 -7.515625 3.984375 -7.320312 3.671875 -6.9375 C 3.359375 -6.5625 3.175781 -6.046875 3.125 -5.390625 Z M 3.125 -5.390625 "/></g></g></g><g fill="#0661aa" fill-opacity="1"><g transform="translate(59.85667, 107.664431)"><g><path d="M 5.625 -9.421875 C 6.375 -9.421875 6.976562 -9.140625 7.4375 -8.578125 C 7.894531 -8.023438 8.144531 -7.234375 8.1875 -6.203125 L 5.875 -5.578125 C 5.863281 -6.171875 5.753906 -6.617188 5.546875 -6.921875 C 5.347656 -7.234375 5.082031 -7.390625 4.75 -7.390625 C 4.34375 -7.390625 4.015625 -7.1875 3.765625 -6.78125 C 3.523438 -6.375 3.40625 -5.8125 3.40625 -5.09375 L 3.40625 0 L 0.6875 0 L 0.6875 -9.171875 L 2.890625 -9.171875 L 3.265625 -7.59375 L 3.28125 -7.59375 C 3.476562 -8.164062 3.785156 -8.613281 4.203125 -8.9375 C 4.628906 -9.257812 5.101562 -9.421875 5.625 -9.421875 Z M 5.625 -9.421875 "/></g></g></g><g fill="#0661aa" fill-opacity="1"><g transform="translate(70.373727, 107.664431)"><g><path d="M 3.171875 0.21875 C 2.296875 0.21875 1.585938 -0.015625 1.046875 -0.484375 C 0.515625 -0.953125 0.25 -1.578125 0.25 -2.359375 C 0.25 -3.203125 0.566406 -3.878906 1.203125 -4.390625 C 1.847656 -4.910156 2.785156 -5.238281 4.015625 -5.375 L 5.4375 -5.53125 C 5.632812 -5.5625 5.796875 -5.632812 5.921875 -5.75 C 6.046875 -5.875 6.109375 -6.046875 6.109375 -6.265625 C 6.109375 -6.671875 5.984375 -6.984375 5.734375 -7.203125 C 5.484375 -7.421875 5.15625 -7.53125 4.75 -7.53125 C 4.28125 -7.53125 3.898438 -7.367188 3.609375 -7.046875 C 3.328125 -6.722656 3.175781 -6.316406 3.15625 -5.828125 L 0.5625 -6.203125 C 0.582031 -6.847656 0.769531 -7.414062 1.125 -7.90625 C 1.476562 -8.40625 1.960938 -8.796875 2.578125 -9.078125 C 3.191406 -9.359375 3.910156 -9.5 4.734375 -9.5 C 5.984375 -9.5 6.972656 -9.171875 7.703125 -8.515625 C 8.429688 -7.859375 8.796875 -6.96875 8.796875 -5.84375 L 8.796875 -2.296875 C 8.796875 -1.890625 8.945312 -1.6875 9.25 -1.6875 C 9.488281 -1.6875 9.710938 -1.804688 9.921875 -2.046875 L 10.515625 -0.578125 C 10.234375 -0.296875 9.890625 -0.09375 9.484375 0.03125 C 9.078125 0.164062 8.675781 0.234375 8.28125 0.234375 C 7.726562 0.234375 7.265625 0.09375 6.890625 -0.1875 C 6.515625 -0.46875 6.28125 -0.820312 6.1875 -1.25 L 6.140625 -1.484375 L 6.125 -1.484375 C 5.851562 -0.960938 5.457031 -0.546875 4.9375 -0.234375 C 4.425781 0.0664062 3.835938 0.21875 3.171875 0.21875 Z M 4.296875 -1.703125 C 4.816406 -1.703125 5.242188 -1.882812 5.578125 -2.25 C 5.910156 -2.613281 6.078125 -3.085938 6.078125 -3.671875 L 6.078125 -4.109375 L 4.734375 -3.953125 C 4.109375 -3.890625 3.660156 -3.742188 3.390625 -3.515625 C 3.128906 -3.285156 3 -3.015625 3 -2.703125 C 3 -2.410156 3.117188 -2.171875 3.359375 -1.984375 C 3.609375 -1.796875 3.921875 -1.703125 4.296875 -1.703125 Z M 4.296875 -1.703125 "/></g></g></g><g fill="#0661aa" fill-opacity="1"><g transform="translate(83.004941, 107.664431)"><g><path d="M 6.25 -9.40625 C 7.101562 -9.40625 7.773438 -9.148438 8.265625 -8.640625 C 8.753906 -8.140625 9 -7.4375 9 -6.53125 L 9 0 L 6.25 0 L 6.25 -5.828125 C 6.25 -6.253906 6.140625 -6.585938 5.921875 -6.828125 C 5.710938 -7.066406 5.414062 -7.1875 5.03125 -7.1875 C 4.539062 -7.1875 4.144531 -7.023438 3.84375 -6.703125 C 3.550781 -6.390625 3.40625 -5.953125 3.40625 -5.390625 L 3.40625 0 L 0.6875 0 L 0.6875 -9.171875 L 2.9375 -9.171875 L 3.3125 -7.609375 L 3.328125 -7.609375 C 3.609375 -8.191406 4.003906 -8.632812 4.515625 -8.9375 C 5.023438 -9.25 5.601562 -9.40625 6.25 -9.40625 Z M 6.25 -9.40625 "/></g></g></g><g fill="#0661aa" fill-opacity="1"><g transform="translate(94.740323, 107.664431)"><g><path d="M 4.921875 0.296875 C 4.003906 0.296875 3.203125 0.0976562 2.515625 -0.296875 C 1.835938 -0.691406 1.3125 -1.253906 0.9375 -1.984375 C 0.5625 -2.722656 0.375 -3.59375 0.375 -4.59375 C 0.382812 -5.59375 0.566406 -6.457031 0.921875 -7.1875 C 1.285156 -7.925781 1.789062 -8.492188 2.4375 -8.890625 C 3.09375 -9.296875 3.859375 -9.5 4.734375 -9.5 C 5.828125 -9.5 6.738281 -9.179688 7.46875 -8.546875 C 8.195312 -7.910156 8.648438 -7.054688 8.828125 -5.984375 L 6.328125 -5.40625 C 6.242188 -6.019531 6.0625 -6.484375 5.78125 -6.796875 C 5.5 -7.117188 5.164062 -7.28125 4.78125 -7.28125 C 4.28125 -7.28125 3.878906 -7.039062 3.578125 -6.5625 C 3.273438 -6.082031 3.125 -5.425781 3.125 -4.59375 C 3.132812 -3.75 3.304688 -3.09375 3.640625 -2.625 C 3.984375 -2.15625 4.429688 -1.921875 4.984375 -1.921875 C 5.460938 -1.921875 5.863281 -2.101562 6.1875 -2.46875 C 6.519531 -2.832031 6.722656 -3.34375 6.796875 -4 L 9.3125 -3.625 C 9.175781 -2.425781 8.710938 -1.472656 7.921875 -0.765625 C 7.128906 -0.0546875 6.128906 0.296875 4.921875 0.296875 Z M 4.921875 0.296875 "/></g></g></g><g fill="#0661aa" fill-opacity="1"><g transform="translate(106.475717, 107.664431)"><g><path d="M 5.359375 0.296875 C 4.367188 0.296875 3.492188 0.0976562 2.734375 -0.296875 C 1.984375 -0.703125 1.398438 -1.28125 0.984375 -2.03125 C 0.578125 -2.78125 0.375 -3.648438 0.375 -4.640625 C 0.375 -5.617188 0.5625 -6.46875 0.9375 -7.1875 C 1.3125 -7.914062 1.835938 -8.484375 2.515625 -8.890625 C 3.203125 -9.296875 4.003906 -9.5 4.921875 -9.5 C 5.804688 -9.5 6.570312 -9.300781 7.21875 -8.90625 C 7.863281 -8.519531 8.367188 -7.976562 8.734375 -7.28125 C 9.097656 -6.582031 9.28125 -5.765625 9.28125 -4.828125 C 9.28125 -4.628906 9.269531 -4.441406 9.25 -4.265625 C 9.238281 -4.097656 9.210938 -3.953125 9.171875 -3.828125 L 3.125 -3.828125 C 3.175781 -3.160156 3.40625 -2.632812 3.8125 -2.25 C 4.21875 -1.863281 4.738281 -1.671875 5.375 -1.671875 C 5.863281 -1.671875 6.296875 -1.789062 6.671875 -2.03125 C 7.046875 -2.269531 7.332031 -2.597656 7.53125 -3.015625 L 9.4375 -2.171875 C 9.175781 -1.398438 8.671875 -0.796875 7.921875 -0.359375 C 7.171875 0.078125 6.316406 0.296875 5.359375 0.296875 Z M 3.125 -5.390625 L 6.5625 -5.390625 C 6.519531 -6.054688 6.351562 -6.578125 6.0625 -6.953125 C 5.78125 -7.328125 5.394531 -7.515625 4.90625 -7.515625 C 4.394531 -7.515625 3.984375 -7.320312 3.671875 -6.9375 C 3.359375 -6.5625 3.175781 -6.046875 3.125 -5.390625 Z M 3.125 -5.390625 "/></g></g></g><g clip-path="url(#28a8fe1b8e)"><path fill="#0661aa" d="M 65.796875 65.28125 C 63.902344 65.28125 62.101562 64.675781 60.730469 63.578125 C 59.160156 62.328125 58.148438 60.378906 57.941406 58.304688 C 57.140625 59.21875 56.238281 59.984375 55.25 60.59375 C 52.765625 62.121094 49.769531 62.515625 47.246094 61.644531 C 44.476562 60.691406 42.375 58.113281 42.136719 55.375 C 42.011719 53.964844 42.402344 52.511719 43.199219 51.300781 C 41.773438 51.566406 40.539062 51.621094 39.378906 51.476562 C 35.710938 51.019531 33.621094 48.511719 33.230469 46.371094 C 32.773438 43.878906 34.363281 41.105469 36.84375 40.058594 C 37.773438 39.664062 38.808594 39.496094 39.878906 39.5625 C 39.679688 39.230469 39.5 38.882812 39.347656 38.519531 C 38.488281 36.476562 38.503906 34.140625 39.386719 32.273438 C 41.054688 28.753906 45.398438 26.730469 49.492188 27.570312 C 52.273438 28.144531 53.808594 29.6875 55.433594 31.324219 C 55.578125 31.46875 55.722656 31.613281 55.871094 31.761719 C 56.597656 29.042969 57.574219 26.464844 60.148438 24.433594 C 63.492188 21.796875 68.375 21.136719 72.300781 22.785156 C 75.109375 23.964844 77.425781 26.300781 78.6875 29.164062 C 79.765625 26.539062 82.09375 24.441406 84.792969 23.765625 C 88.664062 22.796875 93.117188 24.71875 95.144531 28.238281 C 96.589844 30.75 96.769531 34.054688 95.660156 36.886719 C 96.679688 36.707031 97.761719 36.851562 98.691406 37.308594 C 100.414062 38.15625 101.675781 40.015625 101.984375 42.15625 C 102.234375 43.867188 101.929688 45.757812 101.074219 47.78125 C 100.3125 49.589844 98.519531 52.804688 95.09375 53.980469 C 93.242188 54.617188 91.085938 54.390625 89.441406 53.441406 C 89.578125 55.652344 88.859375 57.855469 87.429688 59.492188 C 85.246094 61.992188 81.53125 62.96875 78.394531 61.859375 C 76.730469 61.269531 75.273438 60.109375 74.265625 58.597656 C 73.710938 60.660156 72.503906 62.472656 70.847656 63.675781 C 69.425781 64.710938 67.632812 65.28125 65.800781 65.28125 C 65.800781 65.28125 65.800781 65.28125 65.796875 65.28125 Z M 58.351562 56.652344 C 58.398438 56.652344 58.449219 56.660156 58.496094 56.679688 C 58.679688 56.742188 58.800781 56.921875 58.789062 57.117188 C 58.664062 59.355469 59.617188 61.570312 61.277344 62.894531 C 62.496094 63.867188 64.101562 64.402344 65.796875 64.402344 C 65.800781 64.402344 65.800781 64.402344 65.800781 64.402344 C 67.449219 64.402344 69.058594 63.894531 70.332031 62.96875 C 72.101562 61.679688 73.304688 59.617188 73.636719 57.3125 C 73.664062 57.121094 73.8125 56.96875 74 56.941406 C 74.199219 56.910156 74.378906 57.007812 74.464844 57.183594 C 75.335938 58.988281 76.875 60.390625 78.6875 61.03125 C 81.492188 62.023438 84.816406 61.152344 86.769531 58.914062 C 88.238281 57.234375 88.871094 54.871094 88.457031 52.601562 C 88.421875 52.421875 88.507812 52.238281 88.667969 52.144531 C 88.828125 52.050781 89.027344 52.070312 89.167969 52.1875 C 90.613281 53.402344 92.933594 53.796875 94.808594 53.152344 C 97.910156 52.085938 99.5625 49.113281 100.269531 47.4375 C 101.058594 45.566406 101.34375 43.832031 101.117188 42.285156 C 100.847656 40.421875 99.769531 38.816406 98.300781 38.097656 C 97.296875 37.601562 96.078125 37.554688 95.042969 37.972656 C 94.875 38.039062 94.679688 37.996094 94.554688 37.859375 C 94.433594 37.726562 94.40625 37.527344 94.488281 37.367188 C 95.878906 34.613281 95.839844 31.203125 94.382812 28.675781 C 92.546875 25.484375 88.515625 23.738281 85.007812 24.617188 C 82.210938 25.316406 79.851562 27.714844 79.140625 30.582031 C 79.09375 30.769531 78.925781 30.90625 78.730469 30.914062 C 78.726562 30.914062 78.722656 30.914062 78.714844 30.914062 C 78.527344 30.914062 78.359375 30.789062 78.296875 30.609375 C 77.28125 27.457031 74.910156 24.832031 71.960938 23.59375 C 68.320312 22.0625 63.792969 22.675781 60.691406 25.121094 C 58.101562 27.167969 57.273438 29.769531 56.53125 32.710938 C 56.492188 32.863281 56.375 32.980469 56.226562 33.023438 C 56.074219 33.066406 55.914062 33.027344 55.800781 32.921875 C 55.457031 32.59375 55.132812 32.261719 54.8125 31.941406 C 53.28125 30.402344 51.835938 28.949219 49.316406 28.429688 C 45.605469 27.667969 41.679688 29.480469 40.179688 32.648438 C 39.398438 34.296875 39.390625 36.363281 40.15625 38.179688 C 40.410156 38.789062 40.746094 39.347656 41.152344 39.84375 C 41.269531 39.984375 41.285156 40.1875 41.191406 40.34375 C 41.097656 40.503906 40.914062 40.585938 40.730469 40.550781 C 39.492188 40.3125 38.230469 40.425781 37.183594 40.867188 C 35.066406 41.761719 33.707031 44.109375 34.089844 46.210938 C 34.425781 48.046875 36.257812 50.203125 39.484375 50.605469 C 40.859375 50.777344 42.363281 50.640625 44.21875 50.183594 C 44.410156 50.136719 44.609375 50.222656 44.707031 50.394531 C 44.800781 50.5625 44.773438 50.777344 44.636719 50.917969 C 43.480469 52.085938 42.871094 53.722656 43.007812 55.300781 C 43.21875 57.703125 45.078125 59.972656 47.53125 60.816406 C 49.8125 61.601562 52.527344 61.238281 54.792969 59.847656 C 56.007812 59.097656 57.085938 58.085938 57.996094 56.832031 C 58.082031 56.71875 58.214844 56.652344 58.351562 56.652344 Z M 58.351562 56.652344 " fill-opacity="1" fill-rule="nonzero"/></g></svg>