<svg xmlns="http://www.w3.org/2000/svg" xmlns:xlink="http://www.w3.org/1999/xlink" width="180" zoomAndPan="magnify" viewBox="0 0 135.12 149.999995" height="215" preserveAspectRatio="xMidYMid meet" version="1.2"><defs><clipPath id="7e84072586"><path d="M 29 18.101562 L 105 18.101562 L 105 66.535156 L 29 66.535156 Z M 29 18.101562 "/></clipPath></defs><g id="8ec997503d"><g style="fill:#2d6d5e;fill-opacity:1;"><g transform="translate(19.090974, 130.960593)"><path style="stroke:none" d="M 3.359375 -4.078125 L 5.328125 -4.078125 L 5.328125 -0.265625 C 5.015625 -0.140625 4.6875 -0.046875 4.34375 0.015625 C 4.007812 0.078125 3.671875 0.109375 3.328125 0.109375 C 2.691406 0.109375 2.164062 -0.0625 1.75 -0.40625 C 1.34375 -0.757812 1.039062 -1.238281 0.84375 -1.84375 C 0.644531 -2.457031 0.546875 -3.148438 0.546875 -3.921875 C 0.546875 -4.691406 0.648438 -5.378906 0.859375 -5.984375 C 1.078125 -6.585938 1.40625 -7.054688 1.84375 -7.390625 C 2.28125 -7.734375 2.828125 -7.90625 3.484375 -7.90625 C 3.804688 -7.90625 4.113281 -7.863281 4.40625 -7.78125 C 4.707031 -7.695312 4.988281 -7.570312 5.25 -7.40625 L 4.9375 -6.6875 C 4.695312 -6.84375 4.457031 -6.957031 4.21875 -7.03125 C 3.976562 -7.101562 3.738281 -7.140625 3.5 -7.140625 C 3.050781 -7.140625 2.671875 -7.015625 2.359375 -6.765625 C 2.054688 -6.515625 1.828125 -6.144531 1.671875 -5.65625 C 1.515625 -5.175781 1.4375 -4.585938 1.4375 -3.890625 C 1.4375 -3.273438 1.503906 -2.722656 1.640625 -2.234375 C 1.773438 -1.753906 1.984375 -1.367188 2.265625 -1.078125 C 2.554688 -0.796875 2.929688 -0.65625 3.390625 -0.65625 C 3.597656 -0.65625 3.796875 -0.671875 3.984375 -0.703125 C 4.171875 -0.734375 4.34375 -0.78125 4.5 -0.84375 L 4.5 -3.328125 L 3.359375 -3.328125 Z M 3.359375 -4.078125 "/></g></g><g style="fill:#2d6d5e;fill-opacity:1;"><g transform="translate(26.540125, 130.960593)"><path style="stroke:none" d="M 2.328125 -5.953125 C 2.722656 -5.953125 3.050781 -5.835938 3.3125 -5.609375 C 3.570312 -5.378906 3.765625 -5.066406 3.890625 -4.671875 C 4.015625 -4.273438 4.078125 -3.835938 4.078125 -3.359375 L 4.078125 -2.78125 L 1.28125 -2.78125 C 1.289062 -2.050781 1.40625 -1.503906 1.625 -1.140625 C 1.84375 -0.773438 2.171875 -0.59375 2.609375 -0.59375 C 2.816406 -0.59375 3.019531 -0.625 3.21875 -0.6875 C 3.425781 -0.75 3.640625 -0.851562 3.859375 -1 L 3.859375 -0.265625 C 3.660156 -0.140625 3.445312 -0.046875 3.21875 0.015625 C 3 0.078125 2.765625 0.109375 2.515625 0.109375 C 2.035156 0.109375 1.644531 -0.0195312 1.34375 -0.28125 C 1.039062 -0.539062 0.816406 -0.894531 0.671875 -1.34375 C 0.535156 -1.800781 0.46875 -2.316406 0.46875 -2.890625 C 0.46875 -3.546875 0.535156 -4.101562 0.671875 -4.5625 C 0.816406 -5.019531 1.023438 -5.363281 1.296875 -5.59375 C 1.578125 -5.832031 1.921875 -5.953125 2.328125 -5.953125 Z M 2.328125 -5.28125 C 2.015625 -5.28125 1.769531 -5.128906 1.59375 -4.828125 C 1.425781 -4.523438 1.328125 -4.0625 1.296875 -3.4375 L 3.3125 -3.4375 C 3.3125 -3.769531 3.273438 -4.070312 3.203125 -4.34375 C 3.128906 -4.625 3.019531 -4.847656 2.875 -5.015625 C 2.738281 -5.191406 2.554688 -5.28125 2.328125 -5.28125 Z M 2.328125 -5.28125 "/></g></g><g style="fill:#2d6d5e;fill-opacity:1;"><g transform="translate(32.586816, 130.960593)"><path style="stroke:none" d="M 2.09375 -0.625 C 2.175781 -0.625 2.257812 -0.628906 2.34375 -0.640625 C 2.4375 -0.660156 2.523438 -0.691406 2.609375 -0.734375 L 2.609375 -0.0625 C 2.503906 -0.0078125 2.382812 0.03125 2.25 0.0625 C 2.125 0.09375 1.984375 0.109375 1.828125 0.109375 C 1.578125 0.109375 1.367188 0.0507812 1.203125 -0.0625 C 1.046875 -0.175781 0.925781 -0.34375 0.84375 -0.5625 C 0.769531 -0.789062 0.734375 -1.078125 0.734375 -1.421875 L 0.734375 -5.171875 L 0.1875 -5.171875 L 0.1875 -5.609375 L 0.765625 -5.828125 L 0.984375 -7.1875 L 1.5625 -7.1875 L 1.5625 -5.859375 L 2.546875 -5.859375 L 2.546875 -5.171875 L 1.5625 -5.171875 L 1.5625 -1.515625 C 1.5625 -1.210938 1.597656 -0.988281 1.671875 -0.84375 C 1.742188 -0.695312 1.882812 -0.625 2.09375 -0.625 Z M 2.09375 -0.625 "/></g></g><g style="fill:#2d6d5e;fill-opacity:1;"><g transform="translate(36.88443, 130.960593)"><path style="stroke:none" d=""/></g></g><g style="fill:#2d6d5e;fill-opacity:1;"><g transform="translate(40.440819, 130.960593)"><path style="stroke:none" d="M 4.203125 -5.859375 L 4.203125 0 L 3.546875 0 L 3.46875 -0.828125 L 3.40625 -0.828125 C 3.320312 -0.640625 3.21875 -0.472656 3.09375 -0.328125 C 2.96875 -0.191406 2.820312 -0.0820312 2.65625 0 C 2.5 0.0703125 2.316406 0.109375 2.109375 0.109375 C 1.765625 0.109375 1.488281 0.0234375 1.28125 -0.140625 C 1.070312 -0.316406 0.921875 -0.5625 0.828125 -0.875 C 0.734375 -1.195312 0.6875 -1.578125 0.6875 -2.015625 L 0.6875 -5.859375 L 1.515625 -5.859375 L 1.515625 -2.171875 C 1.515625 -1.640625 1.570312 -1.25 1.6875 -1 C 1.8125 -0.75 2.003906 -0.625 2.265625 -0.625 C 2.535156 -0.625 2.75 -0.695312 2.90625 -0.84375 C 3.070312 -1 3.191406 -1.226562 3.265625 -1.53125 C 3.347656 -1.84375 3.390625 -2.238281 3.390625 -2.71875 L 3.390625 -5.859375 Z M 4.203125 -5.859375 "/></g></g><g style="fill:#2d6d5e;fill-opacity:1;"><g transform="translate(46.892783, 130.960593)"><path style="stroke:none" d="M 3.3125 -1.546875 C 3.3125 -1.191406 3.25 -0.890625 3.125 -0.640625 C 3 -0.398438 2.8125 -0.210938 2.5625 -0.078125 C 2.320312 0.046875 2.03125 0.109375 1.6875 0.109375 C 1.414062 0.109375 1.164062 0.078125 0.9375 0.015625 C 0.71875 -0.046875 0.53125 -0.125 0.375 -0.21875 L 0.375 -1.078125 C 0.53125 -0.941406 0.722656 -0.832031 0.953125 -0.75 C 1.179688 -0.664062 1.414062 -0.625 1.65625 -0.625 C 1.925781 -0.625 2.132812 -0.703125 2.28125 -0.859375 C 2.425781 -1.015625 2.5 -1.234375 2.5 -1.515625 C 2.5 -1.679688 2.46875 -1.828125 2.40625 -1.953125 C 2.351562 -2.078125 2.257812 -2.191406 2.125 -2.296875 C 1.988281 -2.410156 1.8125 -2.53125 1.59375 -2.65625 C 1.351562 -2.8125 1.140625 -2.96875 0.953125 -3.125 C 0.765625 -3.28125 0.617188 -3.460938 0.515625 -3.671875 C 0.421875 -3.878906 0.375 -4.132812 0.375 -4.4375 C 0.375 -4.894531 0.519531 -5.265625 0.8125 -5.546875 C 1.113281 -5.828125 1.503906 -5.96875 1.984375 -5.96875 C 2.234375 -5.96875 2.46875 -5.9375 2.6875 -5.875 C 2.90625 -5.8125 3.113281 -5.71875 3.3125 -5.59375 L 3 -4.921875 C 2.84375 -5.023438 2.679688 -5.109375 2.515625 -5.171875 C 2.347656 -5.234375 2.175781 -5.265625 2 -5.265625 C 1.738281 -5.265625 1.53125 -5.191406 1.375 -5.046875 C 1.226562 -4.898438 1.15625 -4.703125 1.15625 -4.453125 C 1.15625 -4.296875 1.1875 -4.15625 1.25 -4.03125 C 1.3125 -3.914062 1.410156 -3.800781 1.546875 -3.6875 C 1.679688 -3.582031 1.863281 -3.460938 2.09375 -3.328125 C 2.332031 -3.171875 2.539062 -3.015625 2.71875 -2.859375 C 2.90625 -2.703125 3.050781 -2.519531 3.15625 -2.3125 C 3.257812 -2.101562 3.3125 -1.847656 3.3125 -1.546875 Z M 3.3125 -1.546875 "/></g></g><g style="fill:#2d6d5e;fill-opacity:1;"><g transform="translate(52.091598, 130.960593)"><path style="stroke:none" d="M 2.328125 -5.953125 C 2.722656 -5.953125 3.050781 -5.835938 3.3125 -5.609375 C 3.570312 -5.378906 3.765625 -5.066406 3.890625 -4.671875 C 4.015625 -4.273438 4.078125 -3.835938 4.078125 -3.359375 L 4.078125 -2.78125 L 1.28125 -2.78125 C 1.289062 -2.050781 1.40625 -1.503906 1.625 -1.140625 C 1.84375 -0.773438 2.171875 -0.59375 2.609375 -0.59375 C 2.816406 -0.59375 3.019531 -0.625 3.21875 -0.6875 C 3.425781 -0.75 3.640625 -0.851562 3.859375 -1 L 3.859375 -0.265625 C 3.660156 -0.140625 3.445312 -0.046875 3.21875 0.015625 C 3 0.078125 2.765625 0.109375 2.515625 0.109375 C 2.035156 0.109375 1.644531 -0.0195312 1.34375 -0.28125 C 1.039062 -0.539062 0.816406 -0.894531 0.671875 -1.34375 C 0.535156 -1.800781 0.46875 -2.316406 0.46875 -2.890625 C 0.46875 -3.546875 0.535156 -4.101562 0.671875 -4.5625 C 0.816406 -5.019531 1.023438 -5.363281 1.296875 -5.59375 C 1.578125 -5.832031 1.921875 -5.953125 2.328125 -5.953125 Z M 2.328125 -5.28125 C 2.015625 -5.28125 1.769531 -5.128906 1.59375 -4.828125 C 1.425781 -4.523438 1.328125 -4.0625 1.296875 -3.4375 L 3.3125 -3.4375 C 3.3125 -3.769531 3.273438 -4.070312 3.203125 -4.34375 C 3.128906 -4.625 3.019531 -4.847656 2.875 -5.015625 C 2.738281 -5.191406 2.554688 -5.28125 2.328125 -5.28125 Z M 2.328125 -5.28125 "/></g></g><g style="fill:#2d6d5e;fill-opacity:1;"><g transform="translate(58.138289, 130.960593)"><path style="stroke:none" d="M 2.171875 0.109375 C 1.609375 0.109375 1.179688 -0.144531 0.890625 -0.65625 C 0.609375 -1.175781 0.46875 -1.925781 0.46875 -2.90625 C 0.46875 -3.882812 0.613281 -4.640625 0.90625 -5.171875 C 1.195312 -5.703125 1.609375 -5.96875 2.140625 -5.96875 C 2.328125 -5.96875 2.503906 -5.929688 2.671875 -5.859375 C 2.835938 -5.785156 2.988281 -5.679688 3.125 -5.546875 C 3.257812 -5.410156 3.375 -5.25 3.46875 -5.0625 L 3.5 -5.0625 C 3.5 -5.226562 3.492188 -5.375 3.484375 -5.5 C 3.484375 -5.632812 3.484375 -5.753906 3.484375 -5.859375 L 3.484375 -8.296875 L 4.296875 -8.296875 L 4.296875 0 L 3.640625 0 L 3.53125 -0.796875 L 3.484375 -0.796875 C 3.378906 -0.609375 3.265625 -0.445312 3.140625 -0.3125 C 3.015625 -0.175781 2.867188 -0.0703125 2.703125 0 C 2.546875 0.0703125 2.367188 0.109375 2.171875 0.109375 Z M 2.359375 -0.59375 C 2.722656 -0.59375 3 -0.765625 3.1875 -1.109375 C 3.382812 -1.453125 3.484375 -1.960938 3.484375 -2.640625 L 3.484375 -3.046875 C 3.484375 -3.785156 3.390625 -4.332031 3.203125 -4.6875 C 3.015625 -5.050781 2.726562 -5.234375 2.34375 -5.234375 C 1.988281 -5.234375 1.722656 -5.035156 1.546875 -4.640625 C 1.378906 -4.242188 1.296875 -3.664062 1.296875 -2.90625 C 1.296875 -2.144531 1.378906 -1.566406 1.546875 -1.171875 C 1.722656 -0.785156 1.992188 -0.59375 2.359375 -0.59375 Z M 2.359375 -0.59375 "/></g></g><g style="fill:#2d6d5e;fill-opacity:1;"><g transform="translate(64.664908, 130.960593)"><path style="stroke:none" d=""/></g></g><g style="fill:#2d6d5e;fill-opacity:1;"><g transform="translate(68.221298, 130.960593)"><path style="stroke:none" d="M 2.09375 -0.625 C 2.175781 -0.625 2.257812 -0.628906 2.34375 -0.640625 C 2.4375 -0.660156 2.523438 -0.691406 2.609375 -0.734375 L 2.609375 -0.0625 C 2.503906 -0.0078125 2.382812 0.03125 2.25 0.0625 C 2.125 0.09375 1.984375 0.109375 1.828125 0.109375 C 1.578125 0.109375 1.367188 0.0507812 1.203125 -0.0625 C 1.046875 -0.175781 0.925781 -0.34375 0.84375 -0.5625 C 0.769531 -0.789062 0.734375 -1.078125 0.734375 -1.421875 L 0.734375 -5.171875 L 0.1875 -5.171875 L 0.1875 -5.609375 L 0.765625 -5.828125 L 0.984375 -7.1875 L 1.5625 -7.1875 L 1.5625 -5.859375 L 2.546875 -5.859375 L 2.546875 -5.171875 L 1.5625 -5.171875 L 1.5625 -1.515625 C 1.5625 -1.210938 1.597656 -0.988281 1.671875 -0.84375 C 1.742188 -0.695312 1.882812 -0.625 2.09375 -0.625 Z M 2.09375 -0.625 "/></g></g><g style="fill:#2d6d5e;fill-opacity:1;"><g transform="translate(72.518912, 130.960593)"><path style="stroke:none" d="M 4.34375 -2.9375 C 4.34375 -2.46875 4.300781 -2.046875 4.21875 -1.671875 C 4.144531 -1.304688 4.023438 -0.988281 3.859375 -0.71875 C 3.703125 -0.445312 3.5 -0.238281 3.25 -0.09375 C 3.007812 0.0390625 2.722656 0.109375 2.390625 0.109375 C 2.078125 0.109375 1.796875 0.0390625 1.546875 -0.09375 C 1.304688 -0.238281 1.101562 -0.441406 0.9375 -0.703125 C 0.78125 -0.972656 0.660156 -1.296875 0.578125 -1.671875 C 0.503906 -2.046875 0.46875 -2.46875 0.46875 -2.9375 C 0.46875 -3.582031 0.535156 -4.128906 0.671875 -4.578125 C 0.804688 -5.023438 1.019531 -5.367188 1.3125 -5.609375 C 1.601562 -5.847656 1.96875 -5.96875 2.40625 -5.96875 C 2.820312 -5.96875 3.171875 -5.851562 3.453125 -5.625 C 3.742188 -5.394531 3.960938 -5.050781 4.109375 -4.59375 C 4.265625 -4.144531 4.34375 -3.59375 4.34375 -2.9375 Z M 1.296875 -2.9375 C 1.296875 -2.425781 1.332031 -2 1.40625 -1.65625 C 1.488281 -1.3125 1.613281 -1.050781 1.78125 -0.875 C 1.945312 -0.695312 2.160156 -0.609375 2.421875 -0.609375 C 2.671875 -0.609375 2.875 -0.691406 3.03125 -0.859375 C 3.195312 -1.035156 3.316406 -1.296875 3.390625 -1.640625 C 3.472656 -1.984375 3.515625 -2.414062 3.515625 -2.9375 C 3.515625 -3.445312 3.472656 -3.867188 3.390625 -4.203125 C 3.316406 -4.546875 3.195312 -4.804688 3.03125 -4.984375 C 2.875 -5.160156 2.664062 -5.25 2.40625 -5.25 C 2.019531 -5.25 1.738281 -5.050781 1.5625 -4.65625 C 1.382812 -4.269531 1.296875 -3.695312 1.296875 -2.9375 Z M 1.296875 -2.9375 "/></g></g><g style="fill:#2d6d5e;fill-opacity:1;"><g transform="translate(78.858893, 130.960593)"><path style="stroke:none" d=""/></g></g><g style="fill:#2d6d5e;fill-opacity:1;"><g transform="translate(82.415282, 130.960593)"><path style="stroke:none" d="M 1.53125 -8.296875 L 1.53125 -5.859375 C 1.53125 -5.742188 1.523438 -5.613281 1.515625 -5.46875 C 1.515625 -5.332031 1.515625 -5.1875 1.515625 -5.03125 L 1.546875 -5.03125 C 1.691406 -5.332031 1.875 -5.5625 2.09375 -5.71875 C 2.3125 -5.875 2.5625 -5.953125 2.84375 -5.953125 C 3.40625 -5.953125 3.828125 -5.695312 4.109375 -5.1875 C 4.398438 -4.675781 4.546875 -3.925781 4.546875 -2.9375 C 4.546875 -2.28125 4.476562 -1.722656 4.34375 -1.265625 C 4.21875 -0.816406 4.03125 -0.472656 3.78125 -0.234375 C 3.53125 -0.00390625 3.222656 0.109375 2.859375 0.109375 C 2.578125 0.109375 2.328125 0.0351562 2.109375 -0.109375 C 1.890625 -0.253906 1.703125 -0.476562 1.546875 -0.78125 L 1.5 -0.78125 L 1.375 0 L 0.71875 0 L 0.71875 -8.296875 Z M 2.671875 -5.234375 C 2.367188 -5.234375 2.132812 -5.132812 1.96875 -4.9375 C 1.8125 -4.75 1.695312 -4.488281 1.625 -4.15625 C 1.5625 -3.832031 1.53125 -3.457031 1.53125 -3.03125 L 1.53125 -2.78125 C 1.53125 -2.039062 1.625 -1.492188 1.8125 -1.140625 C 2.007812 -0.785156 2.296875 -0.609375 2.671875 -0.609375 C 3.015625 -0.609375 3.269531 -0.796875 3.4375 -1.171875 C 3.613281 -1.554688 3.703125 -2.148438 3.703125 -2.953125 C 3.703125 -3.703125 3.617188 -4.269531 3.453125 -4.65625 C 3.285156 -5.039062 3.023438 -5.234375 2.671875 -5.234375 Z M 2.671875 -5.234375 "/></g></g><g style="fill:#2d6d5e;fill-opacity:1;"><g transform="translate(88.941902, 130.960593)"><path style="stroke:none" d="M 2.671875 -5.953125 C 2.753906 -5.953125 2.835938 -5.945312 2.921875 -5.9375 C 3.003906 -5.925781 3.085938 -5.90625 3.171875 -5.875 L 3.046875 -5.03125 C 2.984375 -5.0625 2.914062 -5.082031 2.84375 -5.09375 C 2.769531 -5.101562 2.691406 -5.109375 2.609375 -5.109375 C 2.453125 -5.109375 2.304688 -5.054688 2.171875 -4.953125 C 2.035156 -4.847656 1.921875 -4.703125 1.828125 -4.515625 C 1.734375 -4.328125 1.660156 -4.109375 1.609375 -3.859375 C 1.554688 -3.609375 1.53125 -3.335938 1.53125 -3.046875 L 1.53125 0 L 0.71875 0 L 0.71875 -5.859375 L 1.359375 -5.859375 L 1.46875 -4.8125 L 1.515625 -4.8125 C 1.597656 -5.039062 1.691406 -5.238281 1.796875 -5.40625 C 1.910156 -5.570312 2.039062 -5.703125 2.1875 -5.796875 C 2.332031 -5.898438 2.492188 -5.953125 2.671875 -5.953125 Z M 2.671875 -5.953125 "/></g></g><g style="fill:#2d6d5e;fill-opacity:1;"><g transform="translate(93.746109, 130.960593)"><path style="stroke:none" d="M 2.328125 -5.953125 C 2.722656 -5.953125 3.050781 -5.835938 3.3125 -5.609375 C 3.570312 -5.378906 3.765625 -5.066406 3.890625 -4.671875 C 4.015625 -4.273438 4.078125 -3.835938 4.078125 -3.359375 L 4.078125 -2.78125 L 1.28125 -2.78125 C 1.289062 -2.050781 1.40625 -1.503906 1.625 -1.140625 C 1.84375 -0.773438 2.171875 -0.59375 2.609375 -0.59375 C 2.816406 -0.59375 3.019531 -0.625 3.21875 -0.6875 C 3.425781 -0.75 3.640625 -0.851562 3.859375 -1 L 3.859375 -0.265625 C 3.660156 -0.140625 3.445312 -0.046875 3.21875 0.015625 C 3 0.078125 2.765625 0.109375 2.515625 0.109375 C 2.035156 0.109375 1.644531 -0.0195312 1.34375 -0.28125 C 1.039062 -0.539062 0.816406 -0.894531 0.671875 -1.34375 C 0.535156 -1.800781 0.46875 -2.316406 0.46875 -2.890625 C 0.46875 -3.546875 0.535156 -4.101562 0.671875 -4.5625 C 0.816406 -5.019531 1.023438 -5.363281 1.296875 -5.59375 C 1.578125 -5.832031 1.921875 -5.953125 2.328125 -5.953125 Z M 2.328125 -5.28125 C 2.015625 -5.28125 1.769531 -5.128906 1.59375 -4.828125 C 1.425781 -4.523438 1.328125 -4.0625 1.296875 -3.4375 L 3.3125 -3.4375 C 3.3125 -3.769531 3.273438 -4.070312 3.203125 -4.34375 C 3.128906 -4.625 3.019531 -4.847656 2.875 -5.015625 C 2.738281 -5.191406 2.554688 -5.28125 2.328125 -5.28125 Z M 2.328125 -5.28125 "/></g></g><g style="fill:#2d6d5e;fill-opacity:1;"><g transform="translate(99.792799, 130.960593)"><path style="stroke:none" d="M 2.28125 -5.96875 C 2.820312 -5.96875 3.207031 -5.789062 3.4375 -5.4375 C 3.664062 -5.09375 3.78125 -4.597656 3.78125 -3.953125 L 3.78125 0 L 3.15625 0 L 3.046875 -0.828125 L 3.015625 -0.828125 C 2.921875 -0.628906 2.8125 -0.457031 2.6875 -0.3125 C 2.5625 -0.175781 2.414062 -0.0703125 2.25 0 C 2.082031 0.0703125 1.894531 0.109375 1.6875 0.109375 C 1.382812 0.109375 1.132812 0.03125 0.9375 -0.125 C 0.75 -0.289062 0.609375 -0.503906 0.515625 -0.765625 C 0.421875 -1.023438 0.375 -1.304688 0.375 -1.609375 C 0.375 -2.191406 0.539062 -2.640625 0.875 -2.953125 C 1.207031 -3.273438 1.679688 -3.453125 2.296875 -3.484375 L 2.96875 -3.53125 L 2.96875 -3.921875 C 2.96875 -4.390625 2.90625 -4.734375 2.78125 -4.953125 C 2.65625 -5.171875 2.445312 -5.28125 2.15625 -5.28125 C 2 -5.28125 1.828125 -5.25 1.640625 -5.1875 C 1.460938 -5.132812 1.269531 -5.046875 1.0625 -4.921875 L 0.796875 -5.546875 C 1.015625 -5.679688 1.25 -5.785156 1.5 -5.859375 C 1.75 -5.929688 2.007812 -5.96875 2.28125 -5.96875 Z M 2.984375 -2.921875 L 2.4375 -2.890625 C 2.019531 -2.859375 1.710938 -2.738281 1.515625 -2.53125 C 1.316406 -2.320312 1.21875 -2.019531 1.21875 -1.625 C 1.21875 -1.257812 1.28125 -0.988281 1.40625 -0.8125 C 1.539062 -0.644531 1.722656 -0.5625 1.953125 -0.5625 C 2.273438 -0.5625 2.523438 -0.71875 2.703125 -1.03125 C 2.890625 -1.34375 2.984375 -1.773438 2.984375 -2.328125 Z M 2.984375 -2.921875 "/></g></g><g style="fill:#2d6d5e;fill-opacity:1;"><g transform="translate(105.807494, 130.960593)"><path style="stroke:none" d="M 2.09375 -0.625 C 2.175781 -0.625 2.257812 -0.628906 2.34375 -0.640625 C 2.4375 -0.660156 2.523438 -0.691406 2.609375 -0.734375 L 2.609375 -0.0625 C 2.503906 -0.0078125 2.382812 0.03125 2.25 0.0625 C 2.125 0.09375 1.984375 0.109375 1.828125 0.109375 C 1.578125 0.109375 1.367188 0.0507812 1.203125 -0.0625 C 1.046875 -0.175781 0.925781 -0.34375 0.84375 -0.5625 C 0.769531 -0.789062 0.734375 -1.078125 0.734375 -1.421875 L 0.734375 -5.171875 L 0.1875 -5.171875 L 0.1875 -5.609375 L 0.765625 -5.828125 L 0.984375 -7.1875 L 1.5625 -7.1875 L 1.5625 -5.859375 L 2.546875 -5.859375 L 2.546875 -5.171875 L 1.5625 -5.171875 L 1.5625 -1.515625 C 1.5625 -1.210938 1.597656 -0.988281 1.671875 -0.84375 C 1.742188 -0.695312 1.882812 -0.625 2.09375 -0.625 Z M 2.09375 -0.625 "/></g></g><g style="fill:#2d6d5e;fill-opacity:1;"><g transform="translate(110.105108, 130.960593)"><path style="stroke:none" d="M 1.53125 -8.296875 L 1.53125 -5.890625 C 1.53125 -5.734375 1.523438 -5.582031 1.515625 -5.4375 C 1.515625 -5.289062 1.503906 -5.15625 1.484375 -5.03125 L 1.53125 -5.03125 C 1.601562 -5.21875 1.703125 -5.378906 1.828125 -5.515625 C 1.953125 -5.660156 2.097656 -5.769531 2.265625 -5.84375 C 2.429688 -5.925781 2.613281 -5.96875 2.8125 -5.96875 C 3.132812 -5.96875 3.398438 -5.890625 3.609375 -5.734375 C 3.828125 -5.585938 3.984375 -5.363281 4.078125 -5.0625 C 4.179688 -4.769531 4.234375 -4.410156 4.234375 -3.984375 L 4.234375 0 L 3.40625 0 L 3.40625 -3.8125 C 3.40625 -4.320312 3.34375 -4.679688 3.21875 -4.890625 C 3.101562 -5.109375 2.910156 -5.21875 2.640625 -5.21875 C 2.390625 -5.21875 2.179688 -5.140625 2.015625 -4.984375 C 1.859375 -4.835938 1.738281 -4.601562 1.65625 -4.28125 C 1.570312 -3.96875 1.53125 -3.5625 1.53125 -3.0625 L 1.53125 0 L 0.71875 0 L 0.71875 -8.296875 Z M 1.53125 -8.296875 "/></g></g><g style="fill:#2d6d5e;fill-opacity:1;"><g transform="translate(39.966734, 143.628093)"><path style="stroke:none" d="M 2.171875 0.109375 C 1.609375 0.109375 1.179688 -0.144531 0.890625 -0.65625 C 0.609375 -1.175781 0.46875 -1.925781 0.46875 -2.90625 C 0.46875 -3.882812 0.613281 -4.640625 0.90625 -5.171875 C 1.195312 -5.703125 1.609375 -5.96875 2.140625 -5.96875 C 2.328125 -5.96875 2.503906 -5.929688 2.671875 -5.859375 C 2.835938 -5.785156 2.988281 -5.679688 3.125 -5.546875 C 3.257812 -5.410156 3.375 -5.25 3.46875 -5.0625 L 3.5 -5.0625 C 3.5 -5.226562 3.492188 -5.375 3.484375 -5.5 C 3.484375 -5.632812 3.484375 -5.753906 3.484375 -5.859375 L 3.484375 -8.296875 L 4.296875 -8.296875 L 4.296875 0 L 3.640625 0 L 3.53125 -0.796875 L 3.484375 -0.796875 C 3.378906 -0.609375 3.265625 -0.445312 3.140625 -0.3125 C 3.015625 -0.175781 2.867188 -0.0703125 2.703125 0 C 2.546875 0.0703125 2.367188 0.109375 2.171875 0.109375 Z M 2.359375 -0.59375 C 2.722656 -0.59375 3 -0.765625 3.1875 -1.109375 C 3.382812 -1.453125 3.484375 -1.960938 3.484375 -2.640625 L 3.484375 -3.046875 C 3.484375 -3.785156 3.390625 -4.332031 3.203125 -4.6875 C 3.015625 -5.050781 2.726562 -5.234375 2.34375 -5.234375 C 1.988281 -5.234375 1.722656 -5.035156 1.546875 -4.640625 C 1.378906 -4.242188 1.296875 -3.664062 1.296875 -2.90625 C 1.296875 -2.144531 1.378906 -1.566406 1.546875 -1.171875 C 1.722656 -0.785156 1.992188 -0.59375 2.359375 -0.59375 Z M 2.359375 -0.59375 "/></g></g><g style="fill:#2d6d5e;fill-opacity:1;"><g transform="translate(46.493354, 143.628093)"><path style="stroke:none" d="M 1.546875 -5.859375 L 1.546875 0 L 0.71875 0 L 0.71875 -5.859375 Z M 1.140625 -8.046875 C 1.304688 -8.046875 1.425781 -7.992188 1.5 -7.890625 C 1.582031 -7.785156 1.625 -7.640625 1.625 -7.453125 C 1.625 -7.265625 1.582031 -7.117188 1.5 -7.015625 C 1.414062 -6.910156 1.296875 -6.859375 1.140625 -6.859375 C 0.992188 -6.859375 0.875 -6.910156 0.78125 -7.015625 C 0.695312 -7.117188 0.65625 -7.265625 0.65625 -7.453125 C 0.65625 -7.648438 0.695312 -7.796875 0.78125 -7.890625 C 0.863281 -7.992188 0.984375 -8.046875 1.140625 -8.046875 Z M 1.140625 -8.046875 "/></g></g><g style="fill:#2d6d5e;fill-opacity:1;"><g transform="translate(50.284376, 143.628093)"><path style="stroke:none" d="M 3.3125 -1.546875 C 3.3125 -1.191406 3.25 -0.890625 3.125 -0.640625 C 3 -0.398438 2.8125 -0.210938 2.5625 -0.078125 C 2.320312 0.046875 2.03125 0.109375 1.6875 0.109375 C 1.414062 0.109375 1.164062 0.078125 0.9375 0.015625 C 0.71875 -0.046875 0.53125 -0.125 0.375 -0.21875 L 0.375 -1.078125 C 0.53125 -0.941406 0.722656 -0.832031 0.953125 -0.75 C 1.179688 -0.664062 1.414062 -0.625 1.65625 -0.625 C 1.925781 -0.625 2.132812 -0.703125 2.28125 -0.859375 C 2.425781 -1.015625 2.5 -1.234375 2.5 -1.515625 C 2.5 -1.679688 2.46875 -1.828125 2.40625 -1.953125 C 2.351562 -2.078125 2.257812 -2.191406 2.125 -2.296875 C 1.988281 -2.410156 1.8125 -2.53125 1.59375 -2.65625 C 1.351562 -2.8125 1.140625 -2.96875 0.953125 -3.125 C 0.765625 -3.28125 0.617188 -3.460938 0.515625 -3.671875 C 0.421875 -3.878906 0.375 -4.132812 0.375 -4.4375 C 0.375 -4.894531 0.519531 -5.265625 0.8125 -5.546875 C 1.113281 -5.828125 1.503906 -5.96875 1.984375 -5.96875 C 2.234375 -5.96875 2.46875 -5.9375 2.6875 -5.875 C 2.90625 -5.8125 3.113281 -5.71875 3.3125 -5.59375 L 3 -4.921875 C 2.84375 -5.023438 2.679688 -5.109375 2.515625 -5.171875 C 2.347656 -5.234375 2.175781 -5.265625 2 -5.265625 C 1.738281 -5.265625 1.53125 -5.191406 1.375 -5.046875 C 1.226562 -4.898438 1.15625 -4.703125 1.15625 -4.453125 C 1.15625 -4.296875 1.1875 -4.15625 1.25 -4.03125 C 1.3125 -3.914062 1.410156 -3.800781 1.546875 -3.6875 C 1.679688 -3.582031 1.863281 -3.460938 2.09375 -3.328125 C 2.332031 -3.171875 2.539062 -3.015625 2.71875 -2.859375 C 2.90625 -2.703125 3.050781 -2.519531 3.15625 -2.3125 C 3.257812 -2.101562 3.3125 -1.847656 3.3125 -1.546875 Z M 3.3125 -1.546875 "/></g></g><g style="fill:#2d6d5e;fill-opacity:1;"><g transform="translate(55.483191, 143.628093)"><path style="stroke:none" d="M 2.40625 0.109375 C 1.976562 0.109375 1.617188 0 1.328125 -0.21875 C 1.046875 -0.445312 0.832031 -0.785156 0.6875 -1.234375 C 0.539062 -1.679688 0.46875 -2.234375 0.46875 -2.890625 C 0.46875 -3.523438 0.539062 -4.070312 0.6875 -4.53125 C 0.832031 -4.988281 1.050781 -5.34375 1.34375 -5.59375 C 1.632812 -5.84375 2 -5.96875 2.4375 -5.96875 C 2.65625 -5.96875 2.851562 -5.941406 3.03125 -5.890625 C 3.207031 -5.847656 3.375 -5.785156 3.53125 -5.703125 L 3.265625 -5.015625 C 3.128906 -5.085938 2.992188 -5.140625 2.859375 -5.171875 C 2.734375 -5.210938 2.609375 -5.234375 2.484375 -5.234375 C 2.234375 -5.234375 2.019531 -5.144531 1.84375 -4.96875 C 1.664062 -4.789062 1.53125 -4.53125 1.4375 -4.1875 C 1.351562 -3.84375 1.3125 -3.410156 1.3125 -2.890625 C 1.3125 -2.390625 1.351562 -1.96875 1.4375 -1.625 C 1.53125 -1.289062 1.660156 -1.035156 1.828125 -0.859375 C 2.003906 -0.691406 2.226562 -0.609375 2.5 -0.609375 C 2.65625 -0.609375 2.8125 -0.628906 2.96875 -0.671875 C 3.132812 -0.722656 3.300781 -0.789062 3.46875 -0.875 L 3.46875 -0.1875 C 3.3125 -0.09375 3.132812 -0.0195312 2.9375 0.03125 C 2.738281 0.0820312 2.5625 0.109375 2.40625 0.109375 Z M 2.40625 0.109375 "/></g></g><g style="fill:#2d6d5e;fill-opacity:1;"><g transform="translate(60.761994, 143.628093)"><path style="stroke:none" d="M 4.34375 -2.9375 C 4.34375 -2.46875 4.300781 -2.046875 4.21875 -1.671875 C 4.144531 -1.304688 4.023438 -0.988281 3.859375 -0.71875 C 3.703125 -0.445312 3.5 -0.238281 3.25 -0.09375 C 3.007812 0.0390625 2.722656 0.109375 2.390625 0.109375 C 2.078125 0.109375 1.796875 0.0390625 1.546875 -0.09375 C 1.304688 -0.238281 1.101562 -0.441406 0.9375 -0.703125 C 0.78125 -0.972656 0.660156 -1.296875 0.578125 -1.671875 C 0.503906 -2.046875 0.46875 -2.46875 0.46875 -2.9375 C 0.46875 -3.582031 0.535156 -4.128906 0.671875 -4.578125 C 0.804688 -5.023438 1.019531 -5.367188 1.3125 -5.609375 C 1.601562 -5.847656 1.96875 -5.96875 2.40625 -5.96875 C 2.820312 -5.96875 3.171875 -5.851562 3.453125 -5.625 C 3.742188 -5.394531 3.960938 -5.050781 4.109375 -4.59375 C 4.265625 -4.144531 4.34375 -3.59375 4.34375 -2.9375 Z M 1.296875 -2.9375 C 1.296875 -2.425781 1.332031 -2 1.40625 -1.65625 C 1.488281 -1.3125 1.613281 -1.050781 1.78125 -0.875 C 1.945312 -0.695312 2.160156 -0.609375 2.421875 -0.609375 C 2.671875 -0.609375 2.875 -0.691406 3.03125 -0.859375 C 3.195312 -1.035156 3.316406 -1.296875 3.390625 -1.640625 C 3.472656 -1.984375 3.515625 -2.414062 3.515625 -2.9375 C 3.515625 -3.445312 3.472656 -3.867188 3.390625 -4.203125 C 3.316406 -4.546875 3.195312 -4.804688 3.03125 -4.984375 C 2.875 -5.160156 2.664062 -5.25 2.40625 -5.25 C 2.019531 -5.25 1.738281 -5.050781 1.5625 -4.65625 C 1.382812 -4.269531 1.296875 -3.695312 1.296875 -2.9375 Z M 1.296875 -2.9375 "/></g></g><g style="fill:#2d6d5e;fill-opacity:1;"><g transform="translate(67.101974, 143.628093)"><path style="stroke:none" d="M 5.3125 -5.96875 C 5.769531 -5.96875 6.109375 -5.800781 6.328125 -5.46875 C 6.554688 -5.132812 6.671875 -4.628906 6.671875 -3.953125 L 6.671875 0 L 5.84375 0 L 5.84375 -3.796875 C 5.84375 -4.316406 5.773438 -4.6875 5.640625 -4.90625 C 5.515625 -5.125 5.332031 -5.234375 5.09375 -5.234375 C 4.726562 -5.234375 4.46875 -5.066406 4.3125 -4.734375 C 4.164062 -4.398438 4.09375 -3.914062 4.09375 -3.28125 L 4.09375 0 L 3.28125 0 L 3.28125 -3.8125 C 3.28125 -4.15625 3.25 -4.429688 3.1875 -4.640625 C 3.132812 -4.847656 3.050781 -5 2.9375 -5.09375 C 2.832031 -5.1875 2.691406 -5.234375 2.515625 -5.234375 C 2.253906 -5.234375 2.050781 -5.140625 1.90625 -4.953125 C 1.769531 -4.773438 1.671875 -4.53125 1.609375 -4.21875 C 1.554688 -3.90625 1.53125 -3.546875 1.53125 -3.140625 L 1.53125 0 L 0.71875 0 L 0.71875 -5.859375 L 1.375 -5.859375 L 1.46875 -5.03125 L 1.515625 -5.03125 C 1.585938 -5.226562 1.679688 -5.394531 1.796875 -5.53125 C 1.921875 -5.664062 2.0625 -5.769531 2.21875 -5.84375 C 2.382812 -5.925781 2.566406 -5.96875 2.765625 -5.96875 C 3.109375 -5.96875 3.375 -5.875 3.5625 -5.6875 C 3.757812 -5.5 3.890625 -5.269531 3.953125 -5 L 4.015625 -5 C 4.148438 -5.320312 4.316406 -5.5625 4.515625 -5.71875 C 4.722656 -5.882812 4.988281 -5.96875 5.3125 -5.96875 Z M 5.3125 -5.96875 "/></g></g><g style="fill:#2d6d5e;fill-opacity:1;"><g transform="translate(75.990914, 143.628093)"><path style="stroke:none" d="M 2.546875 -5.15625 L 1.625 -5.15625 L 1.625 0 L 0.8125 0 L 0.8125 -5.15625 L 0.09375 -5.15625 L 0.09375 -5.609375 L 0.8125 -5.875 L 0.8125 -6.28125 C 0.8125 -6.71875 0.847656 -7.09375 0.921875 -7.40625 C 1.003906 -7.71875 1.140625 -7.953125 1.328125 -8.109375 C 1.515625 -8.273438 1.773438 -8.359375 2.109375 -8.359375 C 2.273438 -8.359375 2.421875 -8.34375 2.546875 -8.3125 C 2.679688 -8.28125 2.820312 -8.238281 2.96875 -8.1875 L 2.75 -7.53125 C 2.65625 -7.5625 2.5625 -7.585938 2.46875 -7.609375 C 2.382812 -7.628906 2.300781 -7.640625 2.21875 -7.640625 C 1.988281 -7.640625 1.832031 -7.539062 1.75 -7.34375 C 1.675781 -7.15625 1.632812 -6.804688 1.625 -6.296875 L 1.625 -5.859375 L 2.546875 -5.859375 Z M 2.546875 -5.15625 "/></g></g><g style="fill:#2d6d5e;fill-opacity:1;"><g transform="translate(80.235202, 143.628093)"><path style="stroke:none" d="M 4.34375 -2.9375 C 4.34375 -2.46875 4.300781 -2.046875 4.21875 -1.671875 C 4.144531 -1.304688 4.023438 -0.988281 3.859375 -0.71875 C 3.703125 -0.445312 3.5 -0.238281 3.25 -0.09375 C 3.007812 0.0390625 2.722656 0.109375 2.390625 0.109375 C 2.078125 0.109375 1.796875 0.0390625 1.546875 -0.09375 C 1.304688 -0.238281 1.101562 -0.441406 0.9375 -0.703125 C 0.78125 -0.972656 0.660156 -1.296875 0.578125 -1.671875 C 0.503906 -2.046875 0.46875 -2.46875 0.46875 -2.9375 C 0.46875 -3.582031 0.535156 -4.128906 0.671875 -4.578125 C 0.804688 -5.023438 1.019531 -5.367188 1.3125 -5.609375 C 1.601562 -5.847656 1.96875 -5.96875 2.40625 -5.96875 C 2.820312 -5.96875 3.171875 -5.851562 3.453125 -5.625 C 3.742188 -5.394531 3.960938 -5.050781 4.109375 -4.59375 C 4.265625 -4.144531 4.34375 -3.59375 4.34375 -2.9375 Z M 1.296875 -2.9375 C 1.296875 -2.425781 1.332031 -2 1.40625 -1.65625 C 1.488281 -1.3125 1.613281 -1.050781 1.78125 -0.875 C 1.945312 -0.695312 2.160156 -0.609375 2.421875 -0.609375 C 2.671875 -0.609375 2.875 -0.691406 3.03125 -0.859375 C 3.195312 -1.035156 3.316406 -1.296875 3.390625 -1.640625 C 3.472656 -1.984375 3.515625 -2.414062 3.515625 -2.9375 C 3.515625 -3.445312 3.472656 -3.867188 3.390625 -4.203125 C 3.316406 -4.546875 3.195312 -4.804688 3.03125 -4.984375 C 2.875 -5.160156 2.664062 -5.25 2.40625 -5.25 C 2.019531 -5.25 1.738281 -5.050781 1.5625 -4.65625 C 1.382812 -4.269531 1.296875 -3.695312 1.296875 -2.9375 Z M 1.296875 -2.9375 "/></g></g><g style="fill:#2d6d5e;fill-opacity:1;"><g transform="translate(86.575183, 143.628093)"><path style="stroke:none" d="M 2.671875 -5.953125 C 2.753906 -5.953125 2.835938 -5.945312 2.921875 -5.9375 C 3.003906 -5.925781 3.085938 -5.90625 3.171875 -5.875 L 3.046875 -5.03125 C 2.984375 -5.0625 2.914062 -5.082031 2.84375 -5.09375 C 2.769531 -5.101562 2.691406 -5.109375 2.609375 -5.109375 C 2.453125 -5.109375 2.304688 -5.054688 2.171875 -4.953125 C 2.035156 -4.847656 1.921875 -4.703125 1.828125 -4.515625 C 1.734375 -4.328125 1.660156 -4.109375 1.609375 -3.859375 C 1.554688 -3.609375 1.53125 -3.335938 1.53125 -3.046875 L 1.53125 0 L 0.71875 0 L 0.71875 -5.859375 L 1.359375 -5.859375 L 1.46875 -4.8125 L 1.515625 -4.8125 C 1.597656 -5.039062 1.691406 -5.238281 1.796875 -5.40625 C 1.910156 -5.570312 2.039062 -5.703125 2.1875 -5.796875 C 2.332031 -5.898438 2.492188 -5.953125 2.671875 -5.953125 Z M 2.671875 -5.953125 "/></g></g><g style="fill:#2d6d5e;fill-opacity:1;"><g transform="translate(91.379389, 143.628093)"><path style="stroke:none" d="M 2.09375 -0.625 C 2.175781 -0.625 2.257812 -0.628906 2.34375 -0.640625 C 2.4375 -0.660156 2.523438 -0.691406 2.609375 -0.734375 L 2.609375 -0.0625 C 2.503906 -0.0078125 2.382812 0.03125 2.25 0.0625 C 2.125 0.09375 1.984375 0.109375 1.828125 0.109375 C 1.578125 0.109375 1.367188 0.0507812 1.203125 -0.0625 C 1.046875 -0.175781 0.925781 -0.34375 0.84375 -0.5625 C 0.769531 -0.789062 0.734375 -1.078125 0.734375 -1.421875 L 0.734375 -5.171875 L 0.1875 -5.171875 L 0.1875 -5.609375 L 0.765625 -5.828125 L 0.984375 -7.1875 L 1.5625 -7.1875 L 1.5625 -5.859375 L 2.546875 -5.859375 L 2.546875 -5.171875 L 1.5625 -5.171875 L 1.5625 -1.515625 C 1.5625 -1.210938 1.597656 -0.988281 1.671875 -0.84375 C 1.742188 -0.695312 1.882812 -0.625 2.09375 -0.625 Z M 2.09375 -0.625 "/></g></g><g style="fill:#0661aa;fill-opacity:1;"><g transform="translate(43.843676, 89.540374)"><path style="stroke:none" d="M 7.5625 0.4375 C 6.132812 0.4375 4.894531 0.128906 3.84375 -0.484375 C 2.789062 -1.097656 1.976562 -1.96875 1.40625 -3.09375 C 0.84375 -4.21875 0.5625 -5.539062 0.5625 -7.0625 C 0.5625 -8.601562 0.828125 -9.9375 1.359375 -11.0625 C 1.898438 -12.1875 2.664062 -13.050781 3.65625 -13.65625 C 4.644531 -14.269531 5.820312 -14.578125 7.1875 -14.578125 C 8.289062 -14.578125 9.269531 -14.359375 10.125 -13.921875 C 10.976562 -13.492188 11.675781 -12.878906 12.21875 -12.078125 C 12.757812 -11.285156 13.101562 -10.332031 13.25 -9.21875 L 10.109375 -8.59375 C 9.953125 -9.5625 9.617188 -10.316406 9.109375 -10.859375 C 8.609375 -11.398438 7.96875 -11.671875 7.1875 -11.671875 C 6.195312 -11.671875 5.410156 -11.253906 4.828125 -10.421875 C 4.242188 -9.597656 3.953125 -8.476562 3.953125 -7.0625 C 3.953125 -5.664062 4.28125 -4.554688 4.9375 -3.734375 C 5.59375 -2.910156 6.484375 -2.5 7.609375 -2.5 C 8.515625 -2.5 9.285156 -2.816406 9.921875 -3.453125 C 10.566406 -4.097656 10.96875 -4.96875 11.125 -6.0625 L 14.296875 -5.59375 C 14.148438 -4.363281 13.773438 -3.296875 13.171875 -2.390625 C 12.566406 -1.484375 11.785156 -0.785156 10.828125 -0.296875 C 9.878906 0.191406 8.789062 0.4375 7.5625 0.4375 Z M 7.5625 0.4375 "/></g></g><g style="fill:#0661aa;fill-opacity:1;"><g transform="translate(60.787528, 89.540374)"><path style="stroke:none" d="M 7.75 0.4375 C 6.300781 0.4375 5.035156 0.125 3.953125 -0.5 C 2.878906 -1.125 2.046875 -2 1.453125 -3.125 C 0.859375 -4.25 0.5625 -5.5625 0.5625 -7.0625 C 0.5625 -8.59375 0.859375 -9.914062 1.453125 -11.03125 C 2.046875 -12.144531 2.878906 -13.015625 3.953125 -13.640625 C 5.035156 -14.265625 6.300781 -14.578125 7.75 -14.578125 C 9.195312 -14.578125 10.460938 -14.265625 11.546875 -13.640625 C 12.628906 -13.015625 13.46875 -12.144531 14.0625 -11.03125 C 14.65625 -9.914062 14.953125 -8.59375 14.953125 -7.0625 C 14.953125 -5.5625 14.65625 -4.25 14.0625 -3.125 C 13.46875 -2 12.628906 -1.125 11.546875 -0.5 C 10.460938 0.125 9.195312 0.4375 7.75 0.4375 Z M 7.75 -2.484375 C 8.914062 -2.484375 9.84375 -2.894531 10.53125 -3.71875 C 11.21875 -4.550781 11.5625 -5.664062 11.5625 -7.0625 C 11.5625 -8.46875 11.21875 -9.585938 10.53125 -10.421875 C 9.84375 -11.253906 8.914062 -11.671875 7.75 -11.671875 C 6.59375 -11.671875 5.671875 -11.253906 4.984375 -10.421875 C 4.296875 -9.585938 3.953125 -8.46875 3.953125 -7.0625 C 3.953125 -5.664062 4.296875 -4.550781 4.984375 -3.71875 C 5.671875 -2.894531 6.59375 -2.484375 7.75 -2.484375 Z M 7.75 -2.484375 "/></g></g><g style="fill:#0661aa;fill-opacity:1;"><g transform="translate(78.645064, 89.540374)"><path style="stroke:none" d="M 0.71875 0 L 0.71875 -1.46875 C 0.726562 -2.382812 0.84375 -3.171875 1.0625 -3.828125 C 1.289062 -4.484375 1.648438 -5.046875 2.140625 -5.515625 C 2.628906 -5.992188 3.28125 -6.425781 4.09375 -6.8125 L 5.734375 -7.625 C 6.390625 -7.957031 6.851562 -8.304688 7.125 -8.671875 C 7.394531 -9.035156 7.53125 -9.488281 7.53125 -10.03125 C 7.53125 -10.570312 7.398438 -11.007812 7.140625 -11.34375 C 6.878906 -11.675781 6.523438 -11.84375 6.078125 -11.84375 C 5.554688 -11.84375 5.132812 -11.601562 4.8125 -11.125 C 4.5 -10.65625 4.335938 -9.953125 4.328125 -9.015625 L 1.015625 -9.59375 C 1.078125 -10.582031 1.328125 -11.441406 1.765625 -12.171875 C 2.210938 -12.910156 2.816406 -13.484375 3.578125 -13.890625 C 4.335938 -14.304688 5.21875 -14.515625 6.21875 -14.515625 C 7.164062 -14.515625 7.992188 -14.328125 8.703125 -13.953125 C 9.410156 -13.585938 9.957031 -13.066406 10.34375 -12.390625 C 10.726562 -11.710938 10.921875 -10.921875 10.921875 -10.015625 C 10.921875 -9.046875 10.675781 -8.226562 10.1875 -7.5625 C 9.695312 -6.90625 8.894531 -6.3125 7.78125 -5.78125 L 5.875 -4.859375 C 5.238281 -4.503906 4.796875 -4.144531 4.546875 -3.78125 C 4.296875 -3.425781 4.171875 -2.976562 4.171875 -2.4375 L 10.84375 -2.4375 L 10.84375 0 Z M 0.71875 0 "/></g></g><g style="fill:#0661aa;fill-opacity:1;"><g transform="translate(13.001575, 113.385079)"><path style="stroke:none" d="M 4.03125 0 L 4.03125 -11.234375 L 0.296875 -11.234375 L 0.296875 -14.140625 L 11.15625 -14.140625 L 11.15625 -11.234375 L 7.421875 -11.234375 L 7.421875 0 Z M 4.03125 0 "/></g></g><g style="fill:#0661aa;fill-opacity:1;"><g transform="translate(25.019208, 113.385079)"><path style="stroke:none" d="M 5.578125 0.34375 C 4.535156 0.34375 3.625 0.117188 2.84375 -0.328125 C 2.070312 -0.773438 1.472656 -1.40625 1.046875 -2.21875 C 0.628906 -3.03125 0.421875 -3.984375 0.421875 -5.078125 C 0.421875 -6.191406 0.628906 -7.15625 1.046875 -7.96875 C 1.472656 -8.78125 2.070312 -9.410156 2.84375 -9.859375 C 3.625 -10.304688 4.535156 -10.53125 5.578125 -10.53125 C 6.628906 -10.53125 7.535156 -10.304688 8.296875 -9.859375 C 9.066406 -9.410156 9.660156 -8.78125 10.078125 -7.96875 C 10.503906 -7.15625 10.71875 -6.191406 10.71875 -5.078125 C 10.71875 -3.984375 10.503906 -3.03125 10.078125 -2.21875 C 9.660156 -1.40625 9.066406 -0.773438 8.296875 -0.328125 C 7.535156 0.117188 6.628906 0.34375 5.578125 0.34375 Z M 5.578125 -2.203125 C 6.242188 -2.203125 6.765625 -2.457031 7.140625 -2.96875 C 7.515625 -3.476562 7.703125 -4.179688 7.703125 -5.078125 C 7.703125 -5.984375 7.515625 -6.691406 7.140625 -7.203125 C 6.765625 -7.710938 6.242188 -7.96875 5.578125 -7.96875 C 4.921875 -7.96875 4.398438 -7.710938 4.015625 -7.203125 C 3.628906 -6.691406 3.4375 -5.984375 3.4375 -5.078125 C 3.4375 -4.179688 3.628906 -3.476562 4.015625 -2.96875 C 4.398438 -2.457031 4.921875 -2.203125 5.578125 -2.203125 Z M 5.578125 -2.203125 "/></g></g><g style="fill:#0661aa;fill-opacity:1;"><g transform="translate(38.526806, 113.385079)"><path style="stroke:none" d="M 0.75 0 L 0.75 -14.734375 L 3.765625 -14.734375 L 3.765625 0 Z M 0.75 0 "/></g></g><g style="fill:#0661aa;fill-opacity:1;"><g transform="translate(45.400246, 113.385079)"><path style="stroke:none" d="M 5.9375 0.34375 C 4.84375 0.34375 3.875 0.117188 3.03125 -0.328125 C 2.195312 -0.785156 1.550781 -1.425781 1.09375 -2.25 C 0.644531 -3.082031 0.421875 -4.046875 0.421875 -5.140625 C 0.421875 -6.222656 0.628906 -7.164062 1.046875 -7.96875 C 1.460938 -8.769531 2.046875 -9.394531 2.796875 -9.84375 C 3.554688 -10.300781 4.445312 -10.53125 5.46875 -10.53125 C 6.445312 -10.53125 7.289062 -10.3125 8 -9.875 C 8.71875 -9.445312 9.273438 -8.84375 9.671875 -8.0625 C 10.078125 -7.289062 10.28125 -6.382812 10.28125 -5.34375 C 10.28125 -5.132812 10.269531 -4.929688 10.25 -4.734375 C 10.238281 -4.546875 10.210938 -4.382812 10.171875 -4.25 L 3.453125 -4.25 C 3.523438 -3.507812 3.785156 -2.921875 4.234375 -2.484375 C 4.679688 -2.054688 5.253906 -1.84375 5.953125 -1.84375 C 6.492188 -1.84375 6.972656 -1.972656 7.390625 -2.234375 C 7.804688 -2.503906 8.125 -2.875 8.34375 -3.34375 L 10.46875 -2.40625 C 10.175781 -1.550781 9.613281 -0.878906 8.78125 -0.390625 C 7.945312 0.0976562 7 0.34375 5.9375 0.34375 Z M 3.453125 -5.984375 L 7.265625 -5.984375 C 7.222656 -6.722656 7.039062 -7.296875 6.71875 -7.703125 C 6.40625 -8.117188 5.976562 -8.328125 5.4375 -8.328125 C 4.875 -8.328125 4.421875 -8.113281 4.078125 -7.6875 C 3.734375 -7.269531 3.523438 -6.703125 3.453125 -5.984375 Z M 3.453125 -5.984375 "/></g></g><g style="fill:#0661aa;fill-opacity:1;"><g transform="translate(58.59004, 113.385079)"><path style="stroke:none" d="M 6.234375 -10.453125 C 7.066406 -10.453125 7.734375 -10.140625 8.234375 -9.515625 C 8.742188 -8.890625 9.023438 -8.007812 9.078125 -6.875 L 6.515625 -6.171875 C 6.503906 -6.835938 6.382812 -7.335938 6.15625 -7.671875 C 5.925781 -8.015625 5.628906 -8.1875 5.265625 -8.1875 C 4.816406 -8.1875 4.453125 -7.957031 4.171875 -7.5 C 3.898438 -7.050781 3.765625 -6.429688 3.765625 -5.640625 L 3.765625 0 L 0.75 0 L 0.75 -10.171875 L 3.203125 -10.171875 L 3.609375 -8.421875 L 3.640625 -8.421875 C 3.859375 -9.054688 4.195312 -9.550781 4.65625 -9.90625 C 5.125 -10.269531 5.648438 -10.453125 6.234375 -10.453125 Z M 6.234375 -10.453125 "/></g></g><g style="fill:#0661aa;fill-opacity:1;"><g transform="translate(70.250404, 113.385079)"><path style="stroke:none" d="M 3.515625 0.234375 C 2.546875 0.234375 1.765625 -0.0195312 1.171875 -0.53125 C 0.578125 -1.050781 0.28125 -1.75 0.28125 -2.625 C 0.28125 -3.550781 0.632812 -4.300781 1.34375 -4.875 C 2.050781 -5.445312 3.085938 -5.804688 4.453125 -5.953125 L 6.015625 -6.140625 C 6.242188 -6.160156 6.425781 -6.238281 6.5625 -6.375 C 6.695312 -6.507812 6.765625 -6.703125 6.765625 -6.953125 C 6.765625 -7.398438 6.625 -7.742188 6.34375 -7.984375 C 6.070312 -8.222656 5.710938 -8.34375 5.265625 -8.34375 C 4.742188 -8.34375 4.320312 -8.160156 4 -7.796875 C 3.6875 -7.441406 3.519531 -6.992188 3.5 -6.453125 L 0.609375 -6.875 C 0.640625 -7.582031 0.847656 -8.210938 1.234375 -8.765625 C 1.628906 -9.316406 2.164062 -9.75 2.84375 -10.0625 C 3.53125 -10.375 4.332031 -10.53125 5.25 -10.53125 C 6.632812 -10.53125 7.726562 -10.164062 8.53125 -9.4375 C 9.34375 -8.707031 9.75 -7.71875 9.75 -6.46875 L 9.75 -2.546875 C 9.75 -2.085938 9.914062 -1.859375 10.25 -1.859375 C 10.507812 -1.859375 10.757812 -1.992188 11 -2.265625 L 11.65625 -0.640625 C 11.34375 -0.328125 10.957031 -0.0976562 10.5 0.046875 C 10.050781 0.191406 9.609375 0.265625 9.171875 0.265625 C 8.566406 0.265625 8.054688 0.109375 7.640625 -0.203125 C 7.222656 -0.515625 6.957031 -0.910156 6.84375 -1.390625 L 6.8125 -1.640625 L 6.796875 -1.640625 C 6.484375 -1.066406 6.039062 -0.609375 5.46875 -0.265625 C 4.90625 0.0664062 4.253906 0.234375 3.515625 0.234375 Z M 4.765625 -1.890625 C 5.335938 -1.890625 5.804688 -2.085938 6.171875 -2.484375 C 6.546875 -2.890625 6.734375 -3.421875 6.734375 -4.078125 L 6.734375 -4.546875 L 5.25 -4.390625 C 4.550781 -4.304688 4.050781 -4.140625 3.75 -3.890625 C 3.457031 -3.640625 3.3125 -3.34375 3.3125 -3 C 3.3125 -2.664062 3.445312 -2.394531 3.71875 -2.1875 C 3.988281 -1.988281 4.335938 -1.890625 4.765625 -1.890625 Z M 4.765625 -1.890625 "/></g></g><g style="fill:#0661aa;fill-opacity:1;"><g transform="translate(84.254565, 113.385079)"><path style="stroke:none" d="M 6.9375 -10.421875 C 7.875 -10.421875 8.613281 -10.140625 9.15625 -9.578125 C 9.695312 -9.015625 9.96875 -8.234375 9.96875 -7.234375 L 9.96875 0 L 6.9375 0 L 6.9375 -6.453125 C 6.9375 -6.929688 6.816406 -7.300781 6.578125 -7.5625 C 6.335938 -7.832031 6.003906 -7.96875 5.578125 -7.96875 C 5.035156 -7.96875 4.597656 -7.789062 4.265625 -7.4375 C 3.929688 -7.082031 3.765625 -6.597656 3.765625 -5.984375 L 3.765625 0 L 0.75 0 L 0.75 -10.171875 L 3.25 -10.171875 L 3.671875 -8.4375 L 3.6875 -8.4375 C 4 -9.070312 4.4375 -9.5625 5 -9.90625 C 5.570312 -10.25 6.21875 -10.421875 6.9375 -10.421875 Z M 6.9375 -10.421875 "/></g></g><g style="fill:#0661aa;fill-opacity:1;"><g transform="translate(97.265588, 113.385079)"><path style="stroke:none" d="M 5.46875 0.34375 C 4.445312 0.34375 3.554688 0.117188 2.796875 -0.328125 C 2.046875 -0.773438 1.460938 -1.40625 1.046875 -2.21875 C 0.628906 -3.03125 0.421875 -3.984375 0.421875 -5.078125 C 0.429688 -6.191406 0.632812 -7.15625 1.03125 -7.96875 C 1.425781 -8.78125 1.984375 -9.410156 2.703125 -9.859375 C 3.429688 -10.304688 4.28125 -10.53125 5.25 -10.53125 C 6.457031 -10.53125 7.46875 -10.175781 8.28125 -9.46875 C 9.09375 -8.769531 9.597656 -7.828125 9.796875 -6.640625 L 7.015625 -6 C 6.921875 -6.675781 6.71875 -7.1875 6.40625 -7.53125 C 6.09375 -7.882812 5.722656 -8.0625 5.296875 -8.0625 C 4.742188 -8.0625 4.296875 -7.796875 3.953125 -7.265625 C 3.617188 -6.734375 3.453125 -6.003906 3.453125 -5.078125 C 3.460938 -4.148438 3.65625 -3.425781 4.03125 -2.90625 C 4.414062 -2.382812 4.910156 -2.125 5.515625 -2.125 C 6.046875 -2.125 6.492188 -2.328125 6.859375 -2.734375 C 7.222656 -3.140625 7.445312 -3.703125 7.53125 -4.421875 L 10.328125 -4.015625 C 10.171875 -2.691406 9.65625 -1.632812 8.78125 -0.84375 C 7.90625 -0.0507812 6.800781 0.34375 5.46875 0.34375 Z M 5.46875 0.34375 "/></g></g><g style="fill:#0661aa;fill-opacity:1;"><g transform="translate(110.276622, 113.385079)"><path style="stroke:none" d="M 5.9375 0.34375 C 4.84375 0.34375 3.875 0.117188 3.03125 -0.328125 C 2.195312 -0.785156 1.550781 -1.425781 1.09375 -2.25 C 0.644531 -3.082031 0.421875 -4.046875 0.421875 -5.140625 C 0.421875 -6.222656 0.628906 -7.164062 1.046875 -7.96875 C 1.460938 -8.769531 2.046875 -9.394531 2.796875 -9.84375 C 3.554688 -10.300781 4.445312 -10.53125 5.46875 -10.53125 C 6.445312 -10.53125 7.289062 -10.3125 8 -9.875 C 8.71875 -9.445312 9.273438 -8.84375 9.671875 -8.0625 C 10.078125 -7.289062 10.28125 -6.382812 10.28125 -5.34375 C 10.28125 -5.132812 10.269531 -4.929688 10.25 -4.734375 C 10.238281 -4.546875 10.210938 -4.382812 10.171875 -4.25 L 3.453125 -4.25 C 3.523438 -3.507812 3.785156 -2.921875 4.234375 -2.484375 C 4.679688 -2.054688 5.253906 -1.84375 5.953125 -1.84375 C 6.492188 -1.84375 6.972656 -1.972656 7.390625 -2.234375 C 7.804688 -2.503906 8.125 -2.875 8.34375 -3.34375 L 10.46875 -2.40625 C 10.175781 -1.550781 9.613281 -0.878906 8.78125 -0.390625 C 7.945312 0.0976562 7 0.34375 5.9375 0.34375 Z M 3.453125 -5.984375 L 7.265625 -5.984375 C 7.222656 -6.722656 7.039062 -7.296875 6.71875 -7.703125 C 6.40625 -8.117188 5.976562 -8.328125 5.4375 -8.328125 C 4.875 -8.328125 4.421875 -8.113281 4.078125 -7.6875 C 3.734375 -7.269531 3.523438 -6.703125 3.453125 -5.984375 Z M 3.453125 -5.984375 "/></g></g><g clip-rule="nonzero" clip-path="url(#7e84072586)"><path style=" stroke:none;fill-rule:nonzero;fill:#0661aa;fill-opacity:1;" d="M 65.113281 66.527344 C 63.035156 66.527344 61.058594 65.867188 59.550781 64.660156 C 57.832031 63.289062 56.722656 61.152344 56.492188 58.875 C 55.613281 59.878906 54.625 60.71875 53.542969 61.386719 C 50.8125 63.0625 47.53125 63.496094 44.761719 62.539062 C 41.722656 61.496094 39.417969 58.667969 39.15625 55.660156 C 39.019531 54.113281 39.445312 52.519531 40.324219 51.191406 C 38.757812 51.480469 37.402344 51.542969 36.128906 51.382812 C 32.105469 50.882812 29.8125 48.128906 29.382812 45.78125 C 28.882812 43.050781 30.625 40.007812 33.347656 38.859375 C 34.371094 38.425781 35.507812 38.242188 36.679688 38.3125 C 36.457031 37.949219 36.261719 37.570312 36.09375 37.167969 C 35.152344 34.929688 35.167969 32.367188 36.140625 30.320312 C 37.96875 26.453125 42.734375 24.238281 47.226562 25.160156 C 50.277344 25.785156 51.960938 27.480469 53.742188 29.277344 C 53.902344 29.433594 54.058594 29.59375 54.222656 29.753906 C 55.019531 26.773438 56.09375 23.945312 58.917969 21.71875 C 62.585938 18.824219 67.941406 18.097656 72.246094 19.910156 C 75.328125 21.203125 77.871094 23.765625 79.25 26.90625 C 80.433594 24.027344 82.992188 21.726562 85.953125 20.984375 C 90.199219 19.921875 95.082031 22.03125 97.308594 25.890625 C 98.894531 28.648438 99.089844 32.269531 97.875 35.378906 C 98.992188 35.183594 100.179688 35.339844 101.195312 35.84375 C 103.085938 36.773438 104.472656 38.8125 104.8125 41.160156 C 105.085938 43.039062 104.75 45.113281 103.816406 47.328125 C 102.976562 49.316406 101.011719 52.839844 97.253906 54.132812 C 95.21875 54.832031 92.855469 54.582031 91.050781 53.539062 C 91.203125 55.964844 90.414062 58.382812 88.847656 60.175781 C 86.449219 62.921875 82.371094 63.988281 78.933594 62.773438 C 77.105469 62.128906 75.507812 60.855469 74.402344 59.195312 C 73.792969 61.460938 72.46875 63.445312 70.652344 64.769531 C 69.09375 65.902344 67.128906 66.527344 65.117188 66.527344 C 65.117188 66.527344 65.113281 66.527344 65.113281 66.527344 Z M 56.941406 57.0625 C 56.996094 57.0625 57.050781 57.074219 57.105469 57.089844 C 57.304688 57.164062 57.433594 57.359375 57.421875 57.570312 C 57.285156 60.027344 58.332031 62.457031 60.152344 63.910156 C 61.488281 64.976562 63.25 65.566406 65.113281 65.566406 C 65.113281 65.566406 65.117188 65.566406 65.117188 65.566406 C 66.925781 65.566406 68.691406 65.007812 70.085938 63.992188 C 72.027344 62.578125 73.347656 60.316406 73.710938 57.785156 C 73.742188 57.574219 73.90625 57.410156 74.113281 57.378906 C 74.328125 57.347656 74.527344 57.453125 74.621094 57.644531 C 75.578125 59.625 77.265625 61.164062 79.253906 61.867188 C 82.332031 62.957031 85.976562 62 88.121094 59.542969 C 89.734375 57.699219 90.425781 55.109375 89.96875 52.617188 C 89.933594 52.417969 90.027344 52.21875 90.203125 52.117188 C 90.378906 52.015625 90.597656 52.035156 90.753906 52.164062 C 92.335938 53.496094 94.878906 53.929688 96.941406 53.222656 C 100.34375 52.050781 102.152344 48.792969 102.929688 46.953125 C 103.792969 44.902344 104.109375 43 103.859375 41.300781 C 103.566406 39.257812 102.382812 37.496094 100.773438 36.707031 C 99.671875 36.160156 98.332031 36.109375 97.195312 36.570312 C 97.011719 36.644531 96.796875 36.59375 96.664062 36.445312 C 96.527344 36.300781 96.496094 36.082031 96.585938 35.90625 C 98.113281 32.886719 98.070312 29.144531 96.472656 26.371094 C 94.457031 22.871094 90.035156 20.957031 86.1875 21.917969 C 83.117188 22.6875 80.53125 25.316406 79.75 28.460938 C 79.699219 28.667969 79.515625 28.816406 79.300781 28.824219 C 79.296875 28.824219 79.289062 28.824219 79.285156 28.824219 C 79.078125 28.824219 78.890625 28.691406 78.828125 28.492188 C 77.710938 25.035156 75.109375 22.15625 71.875 20.796875 C 67.882812 19.117188 62.914062 19.789062 59.511719 22.472656 C 56.667969 24.714844 55.761719 27.570312 54.945312 30.796875 C 54.902344 30.964844 54.777344 31.09375 54.613281 31.140625 C 54.449219 31.1875 54.269531 31.144531 54.144531 31.027344 C 53.769531 30.667969 53.410156 30.304688 53.0625 29.953125 C 51.382812 28.265625 49.796875 26.671875 47.03125 26.101562 C 42.960938 25.265625 38.652344 27.253906 37.007812 30.730469 C 36.152344 32.535156 36.144531 34.804688 36.980469 36.796875 C 37.261719 37.464844 37.632812 38.078125 38.078125 38.621094 C 38.207031 38.777344 38.222656 38.996094 38.121094 39.171875 C 38.015625 39.347656 37.816406 39.4375 37.613281 39.398438 C 36.253906 39.136719 34.871094 39.257812 33.722656 39.746094 C 31.398438 40.726562 29.910156 43.300781 30.332031 45.609375 C 30.699219 47.621094 32.707031 49.988281 36.246094 50.429688 C 37.753906 50.617188 39.402344 50.46875 41.441406 49.964844 C 41.652344 49.914062 41.867188 50.007812 41.972656 50.195312 C 42.082031 50.382812 42.050781 50.617188 41.898438 50.773438 C 40.628906 52.050781 39.960938 53.847656 40.113281 55.578125 C 40.34375 58.214844 42.382812 60.703125 45.074219 61.628906 C 47.578125 62.492188 50.554688 62.09375 53.039062 60.566406 C 54.375 59.746094 55.554688 58.632812 56.554688 57.261719 C 56.648438 57.132812 56.792969 57.0625 56.941406 57.0625 Z M 56.941406 57.0625 "/></g></g></svg>