<svg xmlns="http://www.w3.org/2000/svg" xmlns:xlink="http://www.w3.org/1999/xlink" width="180" zoomAndPan="magnify" viewBox="0 0 135 161.249994" height="215" preserveAspectRatio="xMidYMid meet" version="1.0"><defs><g/><clipPath id="b8bb9b85b9"><path d="M 27.558594 30.160156 L 92 30.160156 L 92 63 L 27.558594 63 Z M 27.558594 30.160156 " clip-rule="nonzero"/></clipPath></defs><path fill="#0661aa" d="M 60.734375 41.558594 C 61.066406 41.160156 65.265625 35.371094 70 37.351562 C 73.304688 38.734375 75.128906 44.019531 69.414062 48.757812 C 65.695312 51.835938 58.988281 54.046875 50.835938 53.777344 C 43.234375 53.523438 36.042969 51.632812 34.546875 51.25 C 36.699219 51.460938 45.28125 52.4375 56.65625 50.921875 C 60.246094 50.445312 67.246094 49.03125 70.519531 43.628906 C 72.617188 40.164062 68.3125 34.746094 61.308594 41.03125 C 61.117188 41.203125 60.925781 41.386719 60.734375 41.558594 Z M 60.734375 41.558594 " fill-opacity="1" fill-rule="evenodd"/><g clip-path="url(#b8bb9b85b9)"><path fill="#0661aa" d="M 74.496094 38.988281 C 74.515625 38.871094 75.007812 31.746094 82.152344 30.800781 C 86.742188 30.191406 95.023438 33.210938 90.460938 43.75 C 88.851562 47.464844 84.148438 54.707031 73.125 58.746094 C 68.96875 60.269531 61.078125 62.925781 51.410156 62.277344 C 41.519531 61.613281 34.703125 58.628906 27.539062 55.617188 C 37.441406 58.804688 48.144531 62.515625 65.164062 58.488281 C 74.285156 56.328125 78.773438 53.132812 79.808594 52.394531 C 86.734375 47.460938 92.847656 37.96875 88.234375 33.839844 C 86.070312 31.902344 82.804688 31.375 80.253906 32.109375 C 75.46875 33.492188 74.609375 38.523438 74.496094 38.988281 Z M 74.496094 38.988281 " fill-opacity="1" fill-rule="evenodd"/></g><path fill="#0661aa" d="M 94.082031 41.277344 C 94.085938 41.277344 98.980469 37.453125 102.824219 40.460938 C 106.371094 43.238281 107.425781 51.566406 99.535156 58.828125 C 99.238281 59.105469 84.652344 74.261719 55.148438 70.234375 C 45.46875 68.914062 38.917969 66.722656 33.226562 64.824219 C 35.089844 65.269531 52.796875 70.226562 71.882812 67.917969 C 77.332031 67.257812 87.992188 65.414062 98.316406 56.875 C 105.292969 51.109375 104.933594 44.371094 102.9375 41.75 C 99.808594 37.652344 94.28125 41.167969 94.082031 41.277344 Z M 94.082031 41.277344 " fill-opacity="1" fill-rule="evenodd"/><g fill="#0661aa" fill-opacity="1"><g transform="translate(16.153524, 102.902401)"><g><path d="M 0.796875 0 L 0.796875 -11.34375 L 5.671875 -11.34375 C 6.515625 -11.34375 7.25 -11.1875 7.875 -10.875 C 8.5 -10.5625 8.976562 -10.125 9.3125 -9.5625 C 9.65625 -9.007812 9.828125 -8.359375 9.828125 -7.609375 C 9.828125 -6.859375 9.660156 -6.203125 9.328125 -5.640625 C 8.992188 -5.078125 8.519531 -4.644531 7.90625 -4.34375 C 7.289062 -4.039062 6.570312 -3.890625 5.75 -3.890625 L 3.5 -3.890625 L 3.5 0 Z M 3.5 -5.90625 L 5.234375 -5.90625 C 5.796875 -5.90625 6.242188 -6.054688 6.578125 -6.359375 C 6.921875 -6.671875 7.09375 -7.085938 7.09375 -7.609375 C 7.09375 -8.128906 6.921875 -8.546875 6.578125 -8.859375 C 6.242188 -9.171875 5.796875 -9.328125 5.234375 -9.328125 L 3.5 -9.328125 Z M 3.5 -5.90625 "/></g></g></g><g fill="#0661aa" fill-opacity="1"><g transform="translate(27.808906, 102.902401)"><g><path d="M 4.765625 0.265625 C 3.878906 0.265625 3.101562 0.0859375 2.4375 -0.265625 C 1.769531 -0.628906 1.25 -1.140625 0.875 -1.796875 C 0.507812 -2.460938 0.328125 -3.238281 0.328125 -4.125 C 0.328125 -4.988281 0.492188 -5.742188 0.828125 -6.390625 C 1.171875 -7.035156 1.644531 -7.535156 2.25 -7.890625 C 2.851562 -8.253906 3.5625 -8.4375 4.375 -8.4375 C 5.164062 -8.4375 5.847656 -8.265625 6.421875 -7.921875 C 6.992188 -7.578125 7.441406 -7.09375 7.765625 -6.46875 C 8.085938 -5.851562 8.25 -5.125 8.25 -4.28125 C 8.25 -4.113281 8.238281 -3.953125 8.21875 -3.796875 C 8.207031 -3.640625 8.1875 -3.507812 8.15625 -3.40625 L 2.765625 -3.40625 C 2.816406 -2.8125 3.023438 -2.34375 3.390625 -2 C 3.753906 -1.65625 4.21875 -1.484375 4.78125 -1.484375 C 5.207031 -1.484375 5.585938 -1.585938 5.921875 -1.796875 C 6.265625 -2.015625 6.519531 -2.304688 6.6875 -2.671875 L 8.390625 -1.921875 C 8.160156 -1.242188 7.707031 -0.707031 7.03125 -0.3125 C 6.363281 0.0703125 5.609375 0.265625 4.765625 0.265625 Z M 2.765625 -4.796875 L 5.828125 -4.796875 C 5.796875 -5.390625 5.648438 -5.847656 5.390625 -6.171875 C 5.140625 -6.503906 4.796875 -6.671875 4.359375 -6.671875 C 3.898438 -6.671875 3.53125 -6.503906 3.25 -6.171875 C 2.976562 -5.835938 2.816406 -5.378906 2.765625 -4.796875 Z M 2.765625 -4.796875 "/></g></g></g><g fill="#0661aa" fill-opacity="1"><g transform="translate(38.381621, 102.902401)"><g><path d="M 5 -8.375 C 5.664062 -8.375 6.203125 -8.125 6.609375 -7.625 C 7.015625 -7.125 7.238281 -6.421875 7.28125 -5.515625 L 5.21875 -4.953125 C 5.207031 -5.484375 5.113281 -5.882812 4.9375 -6.15625 C 4.757812 -6.425781 4.519531 -6.5625 4.21875 -6.5625 C 3.851562 -6.5625 3.5625 -6.378906 3.34375 -6.015625 C 3.132812 -5.660156 3.03125 -5.160156 3.03125 -4.515625 L 3.03125 0 L 0.609375 0 L 0.609375 -8.15625 L 2.5625 -8.15625 L 2.890625 -6.75 L 2.90625 -6.75 C 3.09375 -7.257812 3.367188 -7.65625 3.734375 -7.9375 C 4.109375 -8.226562 4.53125 -8.375 5 -8.375 Z M 5 -8.375 "/></g></g></g><g fill="#0661aa" fill-opacity="1"><g transform="translate(47.600947, 102.902401)"><g><path d="M 3.953125 0.25 C 3.285156 0.25 2.675781 0.148438 2.125 -0.046875 C 1.582031 -0.253906 1.140625 -0.566406 0.796875 -0.984375 C 0.460938 -1.398438 0.28125 -1.914062 0.25 -2.53125 L 2.40625 -2.796875 C 2.425781 -2.347656 2.585938 -1.992188 2.890625 -1.734375 C 3.191406 -1.484375 3.570312 -1.359375 4.03125 -1.359375 C 4.394531 -1.359375 4.703125 -1.4375 4.953125 -1.59375 C 5.210938 -1.75 5.34375 -1.957031 5.34375 -2.21875 C 5.34375 -2.457031 5.234375 -2.65625 5.015625 -2.8125 C 4.796875 -2.96875 4.4375 -3.101562 3.9375 -3.21875 L 2.859375 -3.484375 C 2.066406 -3.679688 1.492188 -3.960938 1.140625 -4.328125 C 0.785156 -4.703125 0.609375 -5.195312 0.609375 -5.8125 C 0.609375 -6.613281 0.90625 -7.242188 1.5 -7.703125 C 2.101562 -8.171875 2.882812 -8.40625 3.84375 -8.40625 C 4.414062 -8.40625 4.9375 -8.304688 5.40625 -8.109375 C 5.882812 -7.921875 6.273438 -7.644531 6.578125 -7.28125 C 6.878906 -6.914062 7.054688 -6.457031 7.109375 -5.90625 L 5 -5.65625 C 4.976562 -6.03125 4.851562 -6.316406 4.625 -6.515625 C 4.394531 -6.722656 4.101562 -6.828125 3.75 -6.828125 C 3.445312 -6.828125 3.195312 -6.75 3 -6.59375 C 2.800781 -6.445312 2.703125 -6.257812 2.703125 -6.03125 C 2.703125 -5.8125 2.800781 -5.628906 3 -5.484375 C 3.207031 -5.335938 3.535156 -5.203125 3.984375 -5.078125 L 5.078125 -4.8125 C 5.941406 -4.59375 6.570312 -4.289062 6.96875 -3.90625 C 7.375 -3.53125 7.582031 -3.035156 7.59375 -2.421875 C 7.59375 -1.867188 7.4375 -1.390625 7.125 -0.984375 C 6.8125 -0.585938 6.378906 -0.28125 5.828125 -0.0625 C 5.285156 0.144531 4.660156 0.25 3.953125 0.25 Z M 3.953125 0.25 "/></g></g></g><g fill="#0661aa" fill-opacity="1"><g transform="translate(57.329786, 102.902401)"><g><path d="M 4.46875 0.265625 C 3.632812 0.265625 2.90625 0.0859375 2.28125 -0.265625 C 1.664062 -0.617188 1.1875 -1.117188 0.84375 -1.765625 C 0.5 -2.421875 0.328125 -3.191406 0.328125 -4.078125 C 0.328125 -4.960938 0.5 -5.734375 0.84375 -6.390625 C 1.1875 -7.046875 1.664062 -7.550781 2.28125 -7.90625 C 2.90625 -8.257812 3.632812 -8.4375 4.46875 -8.4375 C 5.3125 -8.4375 6.039062 -8.257812 6.65625 -7.90625 C 7.269531 -7.550781 7.742188 -7.046875 8.078125 -6.390625 C 8.421875 -5.734375 8.59375 -4.960938 8.59375 -4.078125 C 8.59375 -3.191406 8.421875 -2.421875 8.078125 -1.765625 C 7.742188 -1.117188 7.269531 -0.617188 6.65625 -0.265625 C 6.039062 0.0859375 5.3125 0.265625 4.46875 0.265625 Z M 4.46875 -1.765625 C 5 -1.765625 5.414062 -1.96875 5.71875 -2.375 C 6.019531 -2.789062 6.171875 -3.359375 6.171875 -4.078125 C 6.171875 -4.796875 6.019531 -5.359375 5.71875 -5.765625 C 5.414062 -6.179688 5 -6.390625 4.46875 -6.390625 C 3.9375 -6.390625 3.515625 -6.179688 3.203125 -5.765625 C 2.898438 -5.359375 2.75 -4.796875 2.75 -4.078125 C 2.75 -3.359375 2.898438 -2.789062 3.203125 -2.375 C 3.515625 -1.96875 3.9375 -1.765625 4.46875 -1.765625 Z M 4.46875 -1.765625 "/></g></g></g><g fill="#0661aa" fill-opacity="1"><g transform="translate(68.157251, 102.902401)"><g><path d="M 5.5625 -8.359375 C 6.3125 -8.359375 6.90625 -8.128906 7.34375 -7.671875 C 7.78125 -7.222656 8 -6.597656 8 -5.796875 L 8 0 L 5.5625 0 L 5.5625 -5.171875 C 5.5625 -5.554688 5.460938 -5.851562 5.265625 -6.0625 C 5.078125 -6.28125 4.8125 -6.390625 4.46875 -6.390625 C 4.039062 -6.390625 3.691406 -6.25 3.421875 -5.96875 C 3.160156 -5.6875 3.03125 -5.296875 3.03125 -4.796875 L 3.03125 0 L 0.609375 0 L 0.609375 -8.15625 L 2.609375 -8.15625 L 2.953125 -6.765625 L 2.96875 -6.765625 C 3.207031 -7.273438 3.554688 -7.664062 4.015625 -7.9375 C 4.472656 -8.21875 4.988281 -8.359375 5.5625 -8.359375 Z M 5.5625 -8.359375 "/></g></g></g><g fill="#0661aa" fill-opacity="1"><g transform="translate(78.586666, 102.902401)"><g><path d="M 2.8125 0.1875 C 2.039062 0.1875 1.414062 -0.015625 0.9375 -0.421875 C 0.457031 -0.835938 0.21875 -1.398438 0.21875 -2.109375 C 0.21875 -2.847656 0.5 -3.445312 1.0625 -3.90625 C 1.632812 -4.363281 2.46875 -4.65625 3.5625 -4.78125 L 4.828125 -4.921875 C 5.003906 -4.941406 5.144531 -5.003906 5.25 -5.109375 C 5.363281 -5.210938 5.421875 -5.367188 5.421875 -5.578125 C 5.421875 -5.929688 5.3125 -6.203125 5.09375 -6.390625 C 4.875 -6.585938 4.582031 -6.6875 4.21875 -6.6875 C 3.800781 -6.6875 3.460938 -6.539062 3.203125 -6.25 C 2.953125 -5.96875 2.816406 -5.609375 2.796875 -5.171875 L 0.5 -5.515625 C 0.519531 -6.085938 0.6875 -6.59375 1 -7.03125 C 1.3125 -7.46875 1.738281 -7.8125 2.28125 -8.0625 C 2.832031 -8.3125 3.472656 -8.4375 4.203125 -8.4375 C 5.316406 -8.4375 6.195312 -8.144531 6.84375 -7.5625 C 7.488281 -6.976562 7.8125 -6.1875 7.8125 -5.1875 L 7.8125 -2.03125 C 7.8125 -1.675781 7.945312 -1.5 8.21875 -1.5 C 8.425781 -1.5 8.628906 -1.601562 8.828125 -1.8125 L 9.34375 -0.515625 C 9.09375 -0.265625 8.785156 -0.0820312 8.421875 0.03125 C 8.054688 0.144531 7.703125 0.203125 7.359375 0.203125 C 6.867188 0.203125 6.457031 0.078125 6.125 -0.171875 C 5.789062 -0.421875 5.582031 -0.734375 5.5 -1.109375 L 5.46875 -1.328125 L 5.4375 -1.328125 C 5.195312 -0.859375 4.847656 -0.488281 4.390625 -0.21875 C 3.929688 0.0507812 3.40625 0.1875 2.8125 0.1875 Z M 3.828125 -1.515625 C 4.273438 -1.515625 4.644531 -1.675781 4.9375 -2 C 5.238281 -2.320312 5.390625 -2.742188 5.390625 -3.265625 L 5.390625 -3.640625 L 4.203125 -3.515625 C 3.648438 -3.453125 3.253906 -3.316406 3.015625 -3.109375 C 2.773438 -2.910156 2.65625 -2.675781 2.65625 -2.40625 C 2.65625 -2.132812 2.765625 -1.914062 2.984375 -1.75 C 3.203125 -1.59375 3.484375 -1.515625 3.828125 -1.515625 Z M 3.828125 -1.515625 "/></g></g></g><g fill="#0661aa" fill-opacity="1"><g transform="translate(89.812182, 102.902401)"><g><path d="M 0.609375 0 L 0.609375 -11.8125 L 3.03125 -11.8125 L 3.03125 0 Z M 0.609375 0 "/></g></g></g><g fill="#0661aa" fill-opacity="1"><g transform="translate(95.321674, 102.902401)"><g><path d="M 1.875 -9.265625 C 1.4375 -9.265625 1.085938 -9.390625 0.828125 -9.640625 C 0.578125 -9.898438 0.453125 -10.238281 0.453125 -10.65625 C 0.453125 -11.070312 0.578125 -11.40625 0.828125 -11.65625 C 1.085938 -11.914062 1.4375 -12.046875 1.875 -12.046875 C 2.3125 -12.046875 2.660156 -11.914062 2.921875 -11.65625 C 3.179688 -11.40625 3.3125 -11.070312 3.3125 -10.65625 C 3.3125 -10.238281 3.179688 -9.898438 2.921875 -9.640625 C 2.660156 -9.390625 2.3125 -9.265625 1.875 -9.265625 Z M 0.65625 0 L 0.65625 -8.15625 L 3.09375 -8.15625 L 3.09375 0 Z M 0.65625 0 "/></g></g></g><g fill="#0661aa" fill-opacity="1"><g transform="translate(100.958542, 102.902401)"><g><path d="M 0.296875 0 L 0.296875 -2.078125 L 4.296875 -6.34375 L 0.46875 -6.34375 L 0.46875 -8.15625 L 6.921875 -8.15625 L 6.921875 -6.0625 L 2.90625 -1.8125 L 7.078125 -1.8125 L 7.078125 0 Z M 0.296875 0 "/></g></g></g><g fill="#0661aa" fill-opacity="1"><g transform="translate(110.130105, 102.902401)"><g><path d="M 4.765625 0.265625 C 3.878906 0.265625 3.101562 0.0859375 2.4375 -0.265625 C 1.769531 -0.628906 1.25 -1.140625 0.875 -1.796875 C 0.507812 -2.460938 0.328125 -3.238281 0.328125 -4.125 C 0.328125 -4.988281 0.492188 -5.742188 0.828125 -6.390625 C 1.171875 -7.035156 1.644531 -7.535156 2.25 -7.890625 C 2.851562 -8.253906 3.5625 -8.4375 4.375 -8.4375 C 5.164062 -8.4375 5.847656 -8.265625 6.421875 -7.921875 C 6.992188 -7.578125 7.441406 -7.09375 7.765625 -6.46875 C 8.085938 -5.851562 8.25 -5.125 8.25 -4.28125 C 8.25 -4.113281 8.238281 -3.953125 8.21875 -3.796875 C 8.207031 -3.640625 8.1875 -3.507812 8.15625 -3.40625 L 2.765625 -3.40625 C 2.816406 -2.8125 3.023438 -2.34375 3.390625 -2 C 3.753906 -1.65625 4.21875 -1.484375 4.78125 -1.484375 C 5.207031 -1.484375 5.585938 -1.585938 5.921875 -1.796875 C 6.265625 -2.015625 6.519531 -2.304688 6.6875 -2.671875 L 8.390625 -1.921875 C 8.160156 -1.242188 7.707031 -0.707031 7.03125 -0.3125 C 6.363281 0.0703125 5.609375 0.265625 4.765625 0.265625 Z M 2.765625 -4.796875 L 5.828125 -4.796875 C 5.796875 -5.390625 5.648438 -5.847656 5.390625 -6.171875 C 5.140625 -6.503906 4.796875 -6.671875 4.359375 -6.671875 C 3.898438 -6.671875 3.53125 -6.503906 3.25 -6.171875 C 2.976562 -5.835938 2.816406 -5.378906 2.765625 -4.796875 Z M 2.765625 -4.796875 "/></g></g></g><g fill="#0661aa" fill-opacity="1"><g transform="translate(15.383667, 122.312122)"><g><path d="M 5 0.34375 C 4.101562 0.34375 3.3125 0.191406 2.625 -0.109375 C 1.9375 -0.410156 1.390625 -0.84375 0.984375 -1.40625 C 0.578125 -1.976562 0.347656 -2.660156 0.296875 -3.453125 L 2.796875 -3.890625 C 2.828125 -3.203125 3.0625 -2.660156 3.5 -2.265625 C 3.9375 -1.878906 4.472656 -1.6875 5.109375 -1.6875 C 5.671875 -1.6875 6.117188 -1.816406 6.453125 -2.078125 C 6.785156 -2.347656 6.953125 -2.679688 6.953125 -3.078125 C 6.953125 -3.410156 6.820312 -3.6875 6.5625 -3.90625 C 6.3125 -4.132812 5.898438 -4.320312 5.328125 -4.46875 L 3.90625 -4.84375 C 2.78125 -5.101562 1.957031 -5.492188 1.4375 -6.015625 C 0.914062 -6.546875 0.65625 -7.257812 0.65625 -8.15625 C 0.65625 -8.863281 0.820312 -9.484375 1.15625 -10.015625 C 1.5 -10.546875 1.984375 -10.957031 2.609375 -11.25 C 3.234375 -11.539062 3.96875 -11.6875 4.8125 -11.6875 C 5.570312 -11.6875 6.25 -11.550781 6.84375 -11.28125 C 7.4375 -11.007812 7.914062 -10.625 8.28125 -10.125 C 8.65625 -9.632812 8.867188 -9.050781 8.921875 -8.375 L 6.484375 -7.875 C 6.453125 -8.425781 6.273438 -8.863281 5.953125 -9.1875 C 5.640625 -9.519531 5.242188 -9.6875 4.765625 -9.6875 C 4.304688 -9.6875 3.941406 -9.5625 3.671875 -9.3125 C 3.398438 -9.0625 3.265625 -8.75 3.265625 -8.375 C 3.265625 -8.039062 3.382812 -7.769531 3.625 -7.5625 C 3.863281 -7.351562 4.253906 -7.175781 4.796875 -7.03125 L 6.203125 -6.6875 C 7.359375 -6.425781 8.203125 -6.023438 8.734375 -5.484375 C 9.273438 -4.953125 9.546875 -4.234375 9.546875 -3.328125 C 9.546875 -2.585938 9.359375 -1.941406 8.984375 -1.390625 C 8.617188 -0.835938 8.097656 -0.410156 7.421875 -0.109375 C 6.742188 0.191406 5.9375 0.34375 5 0.34375 Z M 5 0.34375 "/></g></g></g><g fill="#0661aa" fill-opacity="1"><g transform="translate(27.055009, 122.312122)"><g><path d="M 3 0.203125 C 2.25 0.203125 1.65625 -0.0195312 1.21875 -0.46875 C 0.78125 -0.914062 0.5625 -1.546875 0.5625 -2.359375 L 0.5625 -8.15625 L 3 -8.15625 L 3 -2.984375 C 3 -2.597656 3.09375 -2.296875 3.28125 -2.078125 C 3.476562 -1.867188 3.742188 -1.765625 4.078125 -1.765625 C 4.515625 -1.765625 4.863281 -1.90625 5.125 -2.1875 C 5.394531 -2.476562 5.53125 -2.867188 5.53125 -3.359375 L 5.53125 -8.15625 L 7.9375 -8.15625 L 7.9375 0 L 5.9375 0 L 5.609375 -1.390625 L 5.59375 -1.390625 C 5.34375 -0.878906 4.988281 -0.484375 4.53125 -0.203125 C 4.082031 0.0664062 3.570312 0.203125 3 0.203125 Z M 3 0.203125 "/></g></g></g><g fill="#0661aa" fill-opacity="1"><g transform="translate(37.484423, 122.312122)"><g><path d="M 2.8125 0.1875 C 2.039062 0.1875 1.414062 -0.015625 0.9375 -0.421875 C 0.457031 -0.835938 0.21875 -1.398438 0.21875 -2.109375 C 0.21875 -2.847656 0.5 -3.445312 1.0625 -3.90625 C 1.632812 -4.363281 2.46875 -4.65625 3.5625 -4.78125 L 4.828125 -4.921875 C 5.003906 -4.941406 5.144531 -5.003906 5.25 -5.109375 C 5.363281 -5.210938 5.421875 -5.367188 5.421875 -5.578125 C 5.421875 -5.929688 5.3125 -6.203125 5.09375 -6.390625 C 4.875 -6.585938 4.582031 -6.6875 4.21875 -6.6875 C 3.800781 -6.6875 3.460938 -6.539062 3.203125 -6.25 C 2.953125 -5.96875 2.816406 -5.609375 2.796875 -5.171875 L 0.5 -5.515625 C 0.519531 -6.085938 0.6875 -6.59375 1 -7.03125 C 1.3125 -7.46875 1.738281 -7.8125 2.28125 -8.0625 C 2.832031 -8.3125 3.472656 -8.4375 4.203125 -8.4375 C 5.316406 -8.4375 6.195312 -8.144531 6.84375 -7.5625 C 7.488281 -6.976562 7.8125 -6.1875 7.8125 -5.1875 L 7.8125 -2.03125 C 7.8125 -1.675781 7.945312 -1.5 8.21875 -1.5 C 8.425781 -1.5 8.628906 -1.601562 8.828125 -1.8125 L 9.34375 -0.515625 C 9.09375 -0.265625 8.785156 -0.0820312 8.421875 0.03125 C 8.054688 0.144531 7.703125 0.203125 7.359375 0.203125 C 6.867188 0.203125 6.457031 0.078125 6.125 -0.171875 C 5.789062 -0.421875 5.582031 -0.734375 5.5 -1.109375 L 5.46875 -1.328125 L 5.4375 -1.328125 C 5.195312 -0.859375 4.847656 -0.488281 4.390625 -0.21875 C 3.929688 0.0507812 3.40625 0.1875 2.8125 0.1875 Z M 3.828125 -1.515625 C 4.273438 -1.515625 4.644531 -1.675781 4.9375 -2 C 5.238281 -2.320312 5.390625 -2.742188 5.390625 -3.265625 L 5.390625 -3.640625 L 4.203125 -3.515625 C 3.648438 -3.453125 3.253906 -3.316406 3.015625 -3.109375 C 2.773438 -2.910156 2.65625 -2.675781 2.65625 -2.40625 C 2.65625 -2.132812 2.765625 -1.914062 2.984375 -1.75 C 3.203125 -1.59375 3.484375 -1.515625 3.828125 -1.515625 Z M 3.828125 -1.515625 "/></g></g></g><g fill="#0661aa" fill-opacity="1"><g transform="translate(48.70994, 122.312122)"><g/></g></g><g fill="#0661aa" fill-opacity="1"><g transform="translate(53.550694, 122.312122)"><g><path d="M 0.796875 0 L 0.796875 -11.34375 L 5.671875 -11.34375 C 6.515625 -11.34375 7.25 -11.1875 7.875 -10.875 C 8.5 -10.5625 8.976562 -10.125 9.3125 -9.5625 C 9.65625 -9.007812 9.828125 -8.359375 9.828125 -7.609375 C 9.828125 -6.859375 9.660156 -6.203125 9.328125 -5.640625 C 8.992188 -5.078125 8.519531 -4.644531 7.90625 -4.34375 C 7.289062 -4.039062 6.570312 -3.890625 5.75 -3.890625 L 3.5 -3.890625 L 3.5 0 Z M 3.5 -5.90625 L 5.234375 -5.90625 C 5.796875 -5.90625 6.242188 -6.054688 6.578125 -6.359375 C 6.921875 -6.671875 7.09375 -7.085938 7.09375 -7.609375 C 7.09375 -8.128906 6.921875 -8.546875 6.578125 -8.859375 C 6.242188 -9.171875 5.796875 -9.328125 5.234375 -9.328125 L 3.5 -9.328125 Z M 3.5 -5.90625 "/></g></g></g><g fill="#0661aa" fill-opacity="1"><g transform="translate(65.524549, 122.312122)"><g><path d="M 5 -8.375 C 5.664062 -8.375 6.203125 -8.125 6.609375 -7.625 C 7.015625 -7.125 7.238281 -6.421875 7.28125 -5.515625 L 5.21875 -4.953125 C 5.207031 -5.484375 5.113281 -5.882812 4.9375 -6.15625 C 4.757812 -6.425781 4.519531 -6.5625 4.21875 -6.5625 C 3.851562 -6.5625 3.5625 -6.378906 3.34375 -6.015625 C 3.132812 -5.660156 3.03125 -5.160156 3.03125 -4.515625 L 3.03125 0 L 0.609375 0 L 0.609375 -8.15625 L 2.5625 -8.15625 L 2.890625 -6.75 L 2.90625 -6.75 C 3.09375 -7.257812 3.367188 -7.65625 3.734375 -7.9375 C 4.109375 -8.226562 4.53125 -8.375 5 -8.375 Z M 5 -8.375 "/></g></g></g><g fill="#0661aa" fill-opacity="1"><g transform="translate(74.871262, 122.312122)"><g><path d="M 4.40625 -9.546875 L 3.90625 -9.875 L 5.359375 -12.234375 L 5.890625 -11.90625 Z M 2.8125 0.1875 C 2.039062 0.1875 1.414062 -0.015625 0.9375 -0.421875 C 0.457031 -0.835938 0.21875 -1.398438 0.21875 -2.109375 C 0.21875 -2.847656 0.5 -3.445312 1.0625 -3.90625 C 1.632812 -4.363281 2.46875 -4.65625 3.5625 -4.78125 L 4.828125 -4.921875 C 5.003906 -4.941406 5.144531 -5.003906 5.25 -5.109375 C 5.363281 -5.210938 5.421875 -5.367188 5.421875 -5.578125 C 5.421875 -5.929688 5.3125 -6.203125 5.09375 -6.390625 C 4.875 -6.585938 4.582031 -6.6875 4.21875 -6.6875 C 3.800781 -6.6875 3.460938 -6.539062 3.203125 -6.25 C 2.953125 -5.96875 2.816406 -5.609375 2.796875 -5.171875 L 0.5 -5.515625 C 0.519531 -6.085938 0.6875 -6.59375 1 -7.03125 C 1.3125 -7.46875 1.738281 -7.8125 2.28125 -8.0625 C 2.832031 -8.3125 3.472656 -8.4375 4.203125 -8.4375 C 5.316406 -8.4375 6.195312 -8.144531 6.84375 -7.5625 C 7.488281 -6.976562 7.8125 -6.1875 7.8125 -5.1875 L 7.8125 -2.03125 C 7.8125 -1.675781 7.945312 -1.5 8.21875 -1.5 C 8.425781 -1.5 8.628906 -1.601562 8.828125 -1.8125 L 9.34375 -0.515625 C 9.09375 -0.265625 8.785156 -0.0820312 8.421875 0.03125 C 8.054688 0.144531 7.703125 0.203125 7.359375 0.203125 C 6.867188 0.203125 6.457031 0.078125 6.125 -0.171875 C 5.789062 -0.421875 5.582031 -0.734375 5.5 -1.109375 L 5.46875 -1.328125 L 5.4375 -1.328125 C 5.195312 -0.859375 4.847656 -0.488281 4.390625 -0.21875 C 3.929688 0.0507812 3.40625 0.1875 2.8125 0.1875 Z M 3.828125 -1.515625 C 4.273438 -1.515625 4.644531 -1.675781 4.9375 -2 C 5.238281 -2.320312 5.390625 -2.742188 5.390625 -3.265625 L 5.390625 -3.640625 L 4.203125 -3.515625 C 3.648438 -3.453125 3.253906 -3.316406 3.015625 -3.109375 C 2.773438 -2.910156 2.65625 -2.675781 2.65625 -2.40625 C 2.65625 -2.132812 2.765625 -1.914062 2.984375 -1.75 C 3.203125 -1.59375 3.484375 -1.515625 3.828125 -1.515625 Z M 3.828125 -1.515625 "/></g></g></g><g fill="#0661aa" fill-opacity="1"><g transform="translate(85.173221, 122.312122)"><g><path d="M 4.359375 0.25 C 3.429688 0.25 2.710938 -0.00390625 2.203125 -0.515625 C 1.703125 -1.023438 1.453125 -1.710938 1.453125 -2.578125 L 1.4375 -6.3125 L 0.0625 -6.3125 L 0.0625 -8.15625 L 1.453125 -8.15625 L 1.453125 -10.3125 L 3.875 -10.859375 L 3.875 -8.15625 L 6.65625 -8.15625 L 6.65625 -6.3125 L 3.875 -6.3125 L 3.890625 -3.015625 C 3.890625 -2.609375 3.984375 -2.289062 4.171875 -2.0625 C 4.359375 -1.832031 4.613281 -1.71875 4.9375 -1.71875 C 5.539062 -1.71875 5.976562 -2.050781 6.25 -2.71875 L 7.046875 -1.234375 C 6.796875 -0.765625 6.429688 -0.398438 5.953125 -0.140625 C 5.484375 0.117188 4.953125 0.25 4.359375 0.25 Z M 4.359375 0.25 "/></g></g></g><g fill="#0661aa" fill-opacity="1"><g transform="translate(94.21742, 122.312122)"><g><path d="M 1.875 -9.265625 C 1.4375 -9.265625 1.085938 -9.390625 0.828125 -9.640625 C 0.578125 -9.898438 0.453125 -10.238281 0.453125 -10.65625 C 0.453125 -11.070312 0.578125 -11.40625 0.828125 -11.65625 C 1.085938 -11.914062 1.4375 -12.046875 1.875 -12.046875 C 2.3125 -12.046875 2.660156 -11.914062 2.921875 -11.65625 C 3.179688 -11.40625 3.3125 -11.070312 3.3125 -10.65625 C 3.3125 -10.238281 3.179688 -9.898438 2.921875 -9.640625 C 2.660156 -9.390625 2.3125 -9.265625 1.875 -9.265625 Z M 0.65625 0 L 0.65625 -8.15625 L 3.09375 -8.15625 L 3.09375 0 Z M 0.65625 0 "/></g></g></g><g fill="#0661aa" fill-opacity="1"><g transform="translate(99.854288, 122.312122)"><g><path d="M 4.375 0.265625 C 3.5625 0.265625 2.851562 0.0859375 2.25 -0.265625 C 1.644531 -0.617188 1.171875 -1.117188 0.828125 -1.765625 C 0.492188 -2.421875 0.328125 -3.191406 0.328125 -4.078125 C 0.335938 -4.960938 0.503906 -5.734375 0.828125 -6.390625 C 1.148438 -7.046875 1.597656 -7.550781 2.171875 -7.90625 C 2.753906 -8.257812 3.429688 -8.4375 4.203125 -8.4375 C 5.179688 -8.4375 5.992188 -8.15625 6.640625 -7.59375 C 7.285156 -7.03125 7.6875 -6.269531 7.84375 -5.3125 L 5.625 -4.8125 C 5.550781 -5.351562 5.390625 -5.765625 5.140625 -6.046875 C 4.890625 -6.328125 4.59375 -6.46875 4.25 -6.46875 C 3.800781 -6.46875 3.441406 -6.253906 3.171875 -5.828125 C 2.898438 -5.398438 2.765625 -4.816406 2.765625 -4.078125 C 2.773438 -3.335938 2.929688 -2.753906 3.234375 -2.328125 C 3.535156 -1.910156 3.929688 -1.703125 4.421875 -1.703125 C 4.847656 -1.703125 5.207031 -1.863281 5.5 -2.1875 C 5.789062 -2.507812 5.96875 -2.960938 6.03125 -3.546875 L 8.28125 -3.21875 C 8.15625 -2.15625 7.738281 -1.304688 7.03125 -0.671875 C 6.332031 -0.046875 5.445312 0.265625 4.375 0.265625 Z M 4.375 0.265625 "/></g></g></g><g fill="#0661aa" fill-opacity="1"><g transform="translate(110.267777, 122.312122)"><g><path d="M 2.8125 0.1875 C 2.039062 0.1875 1.414062 -0.015625 0.9375 -0.421875 C 0.457031 -0.835938 0.21875 -1.398438 0.21875 -2.109375 C 0.21875 -2.847656 0.5 -3.445312 1.0625 -3.90625 C 1.632812 -4.363281 2.46875 -4.65625 3.5625 -4.78125 L 4.828125 -4.921875 C 5.003906 -4.941406 5.144531 -5.003906 5.25 -5.109375 C 5.363281 -5.210938 5.421875 -5.367188 5.421875 -5.578125 C 5.421875 -5.929688 5.3125 -6.203125 5.09375 -6.390625 C 4.875 -6.585938 4.582031 -6.6875 4.21875 -6.6875 C 3.800781 -6.6875 3.460938 -6.539062 3.203125 -6.25 C 2.953125 -5.96875 2.816406 -5.609375 2.796875 -5.171875 L 0.5 -5.515625 C 0.519531 -6.085938 0.6875 -6.59375 1 -7.03125 C 1.3125 -7.46875 1.738281 -7.8125 2.28125 -8.0625 C 2.832031 -8.3125 3.472656 -8.4375 4.203125 -8.4375 C 5.316406 -8.4375 6.195312 -8.144531 6.84375 -7.5625 C 7.488281 -6.976562 7.8125 -6.1875 7.8125 -5.1875 L 7.8125 -2.03125 C 7.8125 -1.675781 7.945312 -1.5 8.21875 -1.5 C 8.425781 -1.5 8.628906 -1.601562 8.828125 -1.8125 L 9.34375 -0.515625 C 9.09375 -0.265625 8.785156 -0.0820312 8.421875 0.03125 C 8.054688 0.144531 7.703125 0.203125 7.359375 0.203125 C 6.867188 0.203125 6.457031 0.078125 6.125 -0.171875 C 5.789062 -0.421875 5.582031 -0.734375 5.5 -1.109375 L 5.46875 -1.328125 L 5.4375 -1.328125 C 5.195312 -0.859375 4.847656 -0.488281 4.390625 -0.21875 C 3.929688 0.0507812 3.40625 0.1875 2.8125 0.1875 Z M 3.828125 -1.515625 C 4.273438 -1.515625 4.644531 -1.675781 4.9375 -2 C 5.238281 -2.320312 5.390625 -2.742188 5.390625 -3.265625 L 5.390625 -3.640625 L 4.203125 -3.515625 C 3.648438 -3.453125 3.253906 -3.316406 3.015625 -3.109375 C 2.773438 -2.910156 2.65625 -2.675781 2.65625 -2.40625 C 2.65625 -2.132812 2.765625 -1.914062 2.984375 -1.75 C 3.203125 -1.59375 3.484375 -1.515625 3.828125 -1.515625 Z M 3.828125 -1.515625 "/></g></g></g></svg>