<svg xmlns="http://www.w3.org/2000/svg" xmlns:xlink="http://www.w3.org/1999/xlink" width="180" zoomAndPan="magnify" viewBox="0 0 135 161.249994" height="215" preserveAspectRatio="xMidYMid meet" version="1.0"><defs><g/><clipPath id="8773586011"><path d="M 27.558594 30.160156 L 92 30.160156 L 92 63 L 27.558594 63 Z M 27.558594 30.160156 " clip-rule="nonzero"/></clipPath></defs><path fill="#0661aa" d="M 60.734375 41.558594 C 61.066406 41.160156 65.265625 35.371094 70 37.351562 C 73.304688 38.734375 75.128906 44.019531 69.414062 48.757812 C 65.695312 51.835938 58.988281 54.046875 50.835938 53.777344 C 43.234375 53.523438 36.042969 51.632812 34.546875 51.25 C 36.699219 51.460938 45.28125 52.4375 56.65625 50.921875 C 60.246094 50.445312 67.246094 49.03125 70.519531 43.628906 C 72.617188 40.164062 68.3125 34.746094 61.308594 41.03125 C 61.117188 41.203125 60.925781 41.386719 60.734375 41.558594 Z M 60.734375 41.558594 " fill-opacity="1" fill-rule="evenodd"/><g clip-path="url(#8773586011)"><path fill="#0661aa" d="M 74.496094 38.988281 C 74.515625 38.871094 75.007812 31.746094 82.152344 30.800781 C 86.742188 30.191406 95.023438 33.210938 90.460938 43.75 C 88.851562 47.464844 84.148438 54.707031 73.125 58.746094 C 68.96875 60.269531 61.078125 62.925781 51.410156 62.277344 C 41.519531 61.613281 34.703125 58.628906 27.539062 55.617188 C 37.441406 58.804688 48.144531 62.515625 65.164062 58.488281 C 74.285156 56.328125 78.773438 53.132812 79.808594 52.394531 C 86.734375 47.460938 92.847656 37.96875 88.234375 33.839844 C 86.070312 31.902344 82.804688 31.375 80.253906 32.109375 C 75.46875 33.492188 74.609375 38.523438 74.496094 38.988281 Z M 74.496094 38.988281 " fill-opacity="1" fill-rule="evenodd"/></g><path fill="#0661aa" d="M 94.082031 41.277344 C 94.085938 41.277344 98.980469 37.453125 102.824219 40.460938 C 106.371094 43.238281 107.425781 51.566406 99.535156 58.828125 C 99.238281 59.105469 84.652344 74.261719 55.148438 70.234375 C 45.46875 68.914062 38.917969 66.722656 33.226562 64.824219 C 35.089844 65.269531 52.796875 70.226562 71.882812 67.917969 C 77.332031 67.257812 87.992188 65.414062 98.316406 56.875 C 105.292969 51.109375 104.933594 44.371094 102.9375 41.75 C 99.808594 37.652344 94.28125 41.167969 94.082031 41.277344 Z M 94.082031 41.277344 " fill-opacity="1" fill-rule="evenodd"/><g fill="#0661aa" fill-opacity="1"><g transform="translate(18.644296, 104.385514)"><g><path d="M 6.453125 0.375 C 5.234375 0.375 4.171875 0.113281 3.265625 -0.40625 C 2.367188 -0.9375 1.675781 -1.679688 1.1875 -2.640625 C 0.707031 -3.597656 0.46875 -4.726562 0.46875 -6.03125 C 0.46875 -7.332031 0.695312 -8.460938 1.15625 -9.421875 C 1.613281 -10.378906 2.265625 -11.117188 3.109375 -11.640625 C 3.953125 -12.160156 4.957031 -12.421875 6.125 -12.421875 C 7.0625 -12.421875 7.894531 -12.238281 8.625 -11.875 C 9.351562 -11.507812 9.945312 -10.984375 10.40625 -10.296875 C 10.863281 -9.609375 11.15625 -8.796875 11.28125 -7.859375 L 8.609375 -7.328125 C 8.472656 -8.148438 8.191406 -8.789062 7.765625 -9.25 C 7.335938 -9.71875 6.789062 -9.953125 6.125 -9.953125 C 5.28125 -9.953125 4.609375 -9.597656 4.109375 -8.890625 C 3.617188 -8.179688 3.375 -7.226562 3.375 -6.03125 C 3.375 -4.832031 3.648438 -3.878906 4.203125 -3.171875 C 4.765625 -2.472656 5.523438 -2.125 6.484375 -2.125 C 7.265625 -2.125 7.921875 -2.398438 8.453125 -2.953125 C 8.992188 -3.503906 9.332031 -4.238281 9.46875 -5.15625 L 12.1875 -4.765625 C 12.0625 -3.722656 11.738281 -2.8125 11.21875 -2.03125 C 10.707031 -1.257812 10.046875 -0.664062 9.234375 -0.25 C 8.421875 0.164062 7.492188 0.375 6.453125 0.375 Z M 6.453125 0.375 "/></g></g></g><g fill="#0661aa" fill-opacity="1"><g transform="translate(33.072411, 104.385514)"><g><path d="M 3.1875 0.21875 C 2.394531 0.21875 1.765625 -0.0195312 1.296875 -0.5 C 0.828125 -0.976562 0.59375 -1.644531 0.59375 -2.5 L 0.59375 -8.65625 L 3.1875 -8.65625 L 3.1875 -3.171875 C 3.1875 -2.765625 3.289062 -2.445312 3.5 -2.21875 C 3.707031 -1.988281 3.984375 -1.875 4.328125 -1.875 C 4.796875 -1.875 5.171875 -2.023438 5.453125 -2.328125 C 5.734375 -2.640625 5.875 -3.054688 5.875 -3.578125 L 5.875 -8.65625 L 8.4375 -8.65625 L 8.4375 0 L 6.3125 0 L 5.953125 -1.46875 L 5.9375 -1.46875 C 5.675781 -0.925781 5.300781 -0.507812 4.8125 -0.21875 C 4.332031 0.0703125 3.789062 0.21875 3.1875 0.21875 Z M 3.1875 0.21875 "/></g></g></g><g fill="#0661aa" fill-opacity="1"><g transform="translate(44.151654, 104.385514)"><g><path d="M 4.203125 0.265625 C 3.484375 0.265625 2.832031 0.15625 2.25 -0.0625 C 1.675781 -0.28125 1.210938 -0.609375 0.859375 -1.046875 C 0.503906 -1.484375 0.304688 -2.03125 0.265625 -2.6875 L 2.5625 -2.984375 C 2.582031 -2.492188 2.75 -2.113281 3.0625 -1.84375 C 3.382812 -1.570312 3.789062 -1.4375 4.28125 -1.4375 C 4.675781 -1.4375 5.007812 -1.519531 5.28125 -1.6875 C 5.550781 -1.863281 5.6875 -2.085938 5.6875 -2.359375 C 5.6875 -2.609375 5.566406 -2.816406 5.328125 -2.984375 C 5.085938 -3.148438 4.703125 -3.296875 4.171875 -3.421875 L 3.046875 -3.703125 C 2.203125 -3.910156 1.585938 -4.207031 1.203125 -4.59375 C 0.828125 -4.988281 0.640625 -5.515625 0.640625 -6.171875 C 0.640625 -7.035156 0.957031 -7.710938 1.59375 -8.203125 C 2.238281 -8.691406 3.066406 -8.9375 4.078125 -8.9375 C 4.679688 -8.9375 5.238281 -8.832031 5.75 -8.625 C 6.257812 -8.425781 6.675781 -8.128906 7 -7.734375 C 7.320312 -7.347656 7.507812 -6.863281 7.5625 -6.28125 L 5.3125 -6 C 5.289062 -6.40625 5.15625 -6.71875 4.90625 -6.9375 C 4.664062 -7.15625 4.363281 -7.265625 4 -7.265625 C 3.664062 -7.265625 3.394531 -7.179688 3.1875 -7.015625 C 2.976562 -6.847656 2.875 -6.644531 2.875 -6.40625 C 2.875 -6.175781 2.976562 -5.984375 3.1875 -5.828125 C 3.40625 -5.671875 3.753906 -5.523438 4.234375 -5.390625 L 5.390625 -5.109375 C 6.304688 -4.878906 6.976562 -4.5625 7.40625 -4.15625 C 7.84375 -3.75 8.066406 -3.222656 8.078125 -2.578125 C 8.078125 -1.984375 7.910156 -1.472656 7.578125 -1.046875 C 7.242188 -0.628906 6.785156 -0.304688 6.203125 -0.078125 C 5.617188 0.148438 4.953125 0.265625 4.203125 0.265625 Z M 4.203125 0.265625 "/></g></g></g><g fill="#0661aa" fill-opacity="1"><g transform="translate(54.232957, 104.385514)"><g><path d="M 4.640625 0.265625 C 3.640625 0.265625 2.875 -0.00390625 2.34375 -0.546875 C 1.8125 -1.085938 1.546875 -1.816406 1.546875 -2.734375 L 1.515625 -6.703125 L 0.0625 -6.703125 L 0.0625 -8.65625 L 1.546875 -8.65625 L 1.546875 -10.96875 L 4.109375 -11.546875 L 4.109375 -8.65625 L 7.078125 -8.65625 L 7.078125 -6.703125 L 4.109375 -6.703125 L 4.125 -3.203125 C 4.125 -2.773438 4.222656 -2.4375 4.421875 -2.1875 C 4.628906 -1.945312 4.90625 -1.828125 5.25 -1.828125 C 5.882812 -1.828125 6.351562 -2.179688 6.65625 -2.890625 L 7.5 -1.3125 C 7.226562 -0.8125 6.835938 -0.421875 6.328125 -0.140625 C 5.828125 0.128906 5.265625 0.265625 4.640625 0.265625 Z M 4.640625 0.265625 "/></g></g></g><g fill="#0661aa" fill-opacity="1"><g transform="translate(63.671573, 104.385514)"><g><path d="M 4.75 0.28125 C 3.863281 0.28125 3.085938 0.09375 2.421875 -0.28125 C 1.765625 -0.65625 1.253906 -1.1875 0.890625 -1.875 C 0.535156 -2.570312 0.359375 -3.390625 0.359375 -4.328125 C 0.359375 -5.273438 0.535156 -6.09375 0.890625 -6.78125 C 1.253906 -7.476562 1.765625 -8.015625 2.421875 -8.390625 C 3.085938 -8.773438 3.863281 -8.96875 4.75 -8.96875 C 5.644531 -8.96875 6.421875 -8.773438 7.078125 -8.390625 C 7.734375 -8.015625 8.238281 -7.476562 8.59375 -6.78125 C 8.957031 -6.09375 9.140625 -5.273438 9.140625 -4.328125 C 9.140625 -3.390625 8.957031 -2.570312 8.59375 -1.875 C 8.238281 -1.1875 7.734375 -0.65625 7.078125 -0.28125 C 6.421875 0.09375 5.644531 0.28125 4.75 0.28125 Z M 4.75 -1.875 C 5.3125 -1.875 5.753906 -2.09375 6.078125 -2.53125 C 6.398438 -2.96875 6.5625 -3.566406 6.5625 -4.328125 C 6.5625 -5.097656 6.398438 -5.695312 6.078125 -6.125 C 5.753906 -6.5625 5.3125 -6.78125 4.75 -6.78125 C 4.1875 -6.78125 3.738281 -6.5625 3.40625 -6.125 C 3.082031 -5.695312 2.921875 -5.097656 2.921875 -4.328125 C 2.921875 -3.566406 3.082031 -2.96875 3.40625 -2.53125 C 3.738281 -2.09375 4.1875 -1.875 4.75 -1.875 Z M 4.75 -1.875 "/></g></g></g><g fill="#0661aa" fill-opacity="1"><g transform="translate(75.173654, 104.385514)"><g><path d="M 0.640625 0 L 0.640625 -8.65625 L 2.703125 -8.65625 L 3.0625 -7.109375 L 3.078125 -7.109375 C 3.304688 -7.671875 3.660156 -8.109375 4.140625 -8.421875 C 4.628906 -8.742188 5.175781 -8.90625 5.78125 -8.90625 C 6.414062 -8.90625 6.941406 -8.742188 7.359375 -8.421875 C 7.773438 -8.109375 8.078125 -7.660156 8.265625 -7.078125 L 8.28125 -7.078125 C 8.5625 -7.671875 8.945312 -8.125 9.4375 -8.4375 C 9.9375 -8.75 10.488281 -8.90625 11.09375 -8.90625 C 11.894531 -8.90625 12.515625 -8.644531 12.953125 -8.125 C 13.398438 -7.613281 13.625 -6.898438 13.625 -5.984375 L 13.625 0 L 11.03125 0 L 11.03125 -5.453125 C 11.03125 -5.847656 10.925781 -6.15625 10.71875 -6.375 C 10.519531 -6.59375 10.234375 -6.703125 9.859375 -6.703125 C 9.410156 -6.703125 9.054688 -6.539062 8.796875 -6.21875 C 8.546875 -5.90625 8.421875 -5.476562 8.421875 -4.9375 L 8.421875 0 L 5.84375 0 L 5.84375 -5.453125 C 5.84375 -5.847656 5.738281 -6.15625 5.53125 -6.375 C 5.332031 -6.59375 5.046875 -6.703125 4.671875 -6.703125 C 4.222656 -6.703125 3.867188 -6.539062 3.609375 -6.21875 C 3.347656 -5.90625 3.21875 -5.476562 3.21875 -4.9375 L 3.21875 0 Z M 0.640625 0 "/></g></g></g><g fill="#0661aa" fill-opacity="1"><g transform="translate(91.377677, 104.385514)"><g><path d="M 2 -9.84375 C 1.53125 -9.84375 1.15625 -9.976562 0.875 -10.25 C 0.601562 -10.519531 0.46875 -10.878906 0.46875 -11.328125 C 0.46875 -11.773438 0.601562 -12.132812 0.875 -12.40625 C 1.15625 -12.675781 1.53125 -12.8125 2 -12.8125 C 2.457031 -12.8125 2.820312 -12.675781 3.09375 -12.40625 C 3.375 -12.132812 3.515625 -11.773438 3.515625 -11.328125 C 3.515625 -10.878906 3.375 -10.519531 3.09375 -10.25 C 2.820312 -9.976562 2.457031 -9.84375 2 -9.84375 Z M 0.6875 0 L 0.6875 -8.65625 L 3.28125 -8.65625 L 3.28125 0 Z M 0.6875 0 "/></g></g></g><g fill="#0661aa" fill-opacity="1"><g transform="translate(97.36596, 104.385514)"><g><path d="M 0.328125 0 L 0.328125 -2.21875 L 4.5625 -6.734375 L 0.484375 -6.734375 L 0.484375 -8.65625 L 7.359375 -8.65625 L 7.359375 -6.453125 L 3.09375 -1.921875 L 7.53125 -1.921875 L 7.53125 0 Z M 0.328125 0 "/></g></g></g><g fill="#0661aa" fill-opacity="1"><g transform="translate(107.109026, 104.385514)"><g><path d="M 5.0625 0.28125 C 4.125 0.28125 3.296875 0.09375 2.578125 -0.28125 C 1.867188 -0.664062 1.320312 -1.210938 0.9375 -1.921875 C 0.550781 -2.628906 0.359375 -3.445312 0.359375 -4.375 C 0.359375 -5.300781 0.535156 -6.101562 0.890625 -6.78125 C 1.242188 -7.46875 1.738281 -8.003906 2.375 -8.390625 C 3.019531 -8.773438 3.78125 -8.96875 4.65625 -8.96875 C 5.488281 -8.96875 6.207031 -8.785156 6.8125 -8.421875 C 7.425781 -8.054688 7.90625 -7.539062 8.25 -6.875 C 8.59375 -6.21875 8.765625 -5.441406 8.765625 -4.546875 C 8.765625 -4.367188 8.753906 -4.195312 8.734375 -4.03125 C 8.722656 -3.875 8.695312 -3.738281 8.65625 -3.625 L 2.9375 -3.625 C 3 -2.988281 3.21875 -2.488281 3.59375 -2.125 C 3.976562 -1.757812 4.472656 -1.578125 5.078125 -1.578125 C 5.535156 -1.578125 5.941406 -1.6875 6.296875 -1.90625 C 6.660156 -2.132812 6.929688 -2.445312 7.109375 -2.84375 L 8.921875 -2.046875 C 8.671875 -1.328125 8.1875 -0.757812 7.46875 -0.34375 C 6.757812 0.0703125 5.957031 0.28125 5.0625 0.28125 Z M 2.9375 -5.09375 L 6.1875 -5.09375 C 6.15625 -5.726562 6.003906 -6.21875 5.734375 -6.5625 C 5.460938 -6.914062 5.097656 -7.09375 4.640625 -7.09375 C 4.148438 -7.09375 3.757812 -6.914062 3.46875 -6.5625 C 3.175781 -6.207031 3 -5.71875 2.9375 -5.09375 Z M 2.9375 -5.09375 "/></g></g></g><g fill="#0661aa" fill-opacity="1"><g transform="translate(7.831309, 124.541762)"><g><path d="M 3.890625 0 L 3.890625 -4.25 L 0.078125 -12.046875 L 3.109375 -12.046875 L 5.34375 -6.796875 L 5.359375 -6.796875 L 7.46875 -12.046875 L 10.546875 -12.046875 L 6.796875 -4.25 L 6.796875 0 Z M 3.890625 0 "/></g></g></g><g fill="#0661aa" fill-opacity="1"><g transform="translate(18.605794, 124.541762)"><g><path d="M 4.75 0.28125 C 3.863281 0.28125 3.085938 0.09375 2.421875 -0.28125 C 1.765625 -0.65625 1.253906 -1.1875 0.890625 -1.875 C 0.535156 -2.570312 0.359375 -3.390625 0.359375 -4.328125 C 0.359375 -5.273438 0.535156 -6.09375 0.890625 -6.78125 C 1.253906 -7.476562 1.765625 -8.015625 2.421875 -8.390625 C 3.085938 -8.773438 3.863281 -8.96875 4.75 -8.96875 C 5.644531 -8.96875 6.421875 -8.773438 7.078125 -8.390625 C 7.734375 -8.015625 8.238281 -7.476562 8.59375 -6.78125 C 8.957031 -6.09375 9.140625 -5.273438 9.140625 -4.328125 C 9.140625 -3.390625 8.957031 -2.570312 8.59375 -1.875 C 8.238281 -1.1875 7.734375 -0.65625 7.078125 -0.28125 C 6.421875 0.09375 5.644531 0.28125 4.75 0.28125 Z M 4.75 -1.875 C 5.3125 -1.875 5.753906 -2.09375 6.078125 -2.53125 C 6.398438 -2.96875 6.5625 -3.566406 6.5625 -4.328125 C 6.5625 -5.097656 6.398438 -5.695312 6.078125 -6.125 C 5.753906 -6.5625 5.3125 -6.78125 4.75 -6.78125 C 4.1875 -6.78125 3.738281 -6.5625 3.40625 -6.125 C 3.082031 -5.695312 2.921875 -5.097656 2.921875 -4.328125 C 2.921875 -3.566406 3.082031 -2.96875 3.40625 -2.53125 C 3.738281 -2.09375 4.1875 -1.875 4.75 -1.875 Z M 4.75 -1.875 "/></g></g></g><g fill="#0661aa" fill-opacity="1"><g transform="translate(30.107875, 124.541762)"><g><path d="M 3.1875 0.21875 C 2.394531 0.21875 1.765625 -0.0195312 1.296875 -0.5 C 0.828125 -0.976562 0.59375 -1.644531 0.59375 -2.5 L 0.59375 -8.65625 L 3.1875 -8.65625 L 3.1875 -3.171875 C 3.1875 -2.765625 3.289062 -2.445312 3.5 -2.21875 C 3.707031 -1.988281 3.984375 -1.875 4.328125 -1.875 C 4.796875 -1.875 5.171875 -2.023438 5.453125 -2.328125 C 5.734375 -2.640625 5.875 -3.054688 5.875 -3.578125 L 5.875 -8.65625 L 8.4375 -8.65625 L 8.4375 0 L 6.3125 0 L 5.953125 -1.46875 L 5.9375 -1.46875 C 5.675781 -0.925781 5.300781 -0.507812 4.8125 -0.21875 C 4.332031 0.0703125 3.789062 0.21875 3.1875 0.21875 Z M 3.1875 0.21875 "/></g></g></g><g fill="#0661aa" fill-opacity="1"><g transform="translate(41.187119, 124.541762)"><g><path d="M 5.3125 -8.90625 C 6.019531 -8.90625 6.585938 -8.640625 7.015625 -8.109375 C 7.453125 -7.578125 7.691406 -6.828125 7.734375 -5.859375 L 5.546875 -5.265625 C 5.535156 -5.828125 5.429688 -6.25 5.234375 -6.53125 C 5.046875 -6.820312 4.796875 -6.96875 4.484375 -6.96875 C 4.097656 -6.96875 3.789062 -6.773438 3.5625 -6.390625 C 3.332031 -6.015625 3.21875 -5.488281 3.21875 -4.8125 L 3.21875 0 L 0.640625 0 L 0.640625 -8.65625 L 2.71875 -8.65625 L 3.078125 -7.171875 L 3.09375 -7.171875 C 3.289062 -7.710938 3.582031 -8.132812 3.96875 -8.4375 C 4.363281 -8.75 4.8125 -8.90625 5.3125 -8.90625 Z M 5.3125 -8.90625 "/></g></g></g><g fill="#0661aa" fill-opacity="1"><g transform="translate(51.150067, 124.541762)"><g/></g></g><g fill="#0661aa" fill-opacity="1"><g transform="translate(56.292675, 124.541762)"><g><path d="M 5.3125 0.375 C 4.363281 0.375 3.519531 0.210938 2.78125 -0.109375 C 2.050781 -0.429688 1.472656 -0.894531 1.046875 -1.5 C 0.617188 -2.101562 0.378906 -2.828125 0.328125 -3.671875 L 2.984375 -4.125 C 3.015625 -3.40625 3.257812 -2.835938 3.71875 -2.421875 C 4.1875 -2.003906 4.757812 -1.796875 5.4375 -1.796875 C 6.03125 -1.796875 6.503906 -1.9375 6.859375 -2.21875 C 7.210938 -2.5 7.390625 -2.847656 7.390625 -3.265625 C 7.390625 -3.628906 7.253906 -3.925781 6.984375 -4.15625 C 6.710938 -4.394531 6.273438 -4.59375 5.671875 -4.75 L 4.140625 -5.140625 C 2.953125 -5.421875 2.078125 -5.84375 1.515625 -6.40625 C 0.960938 -6.96875 0.6875 -7.71875 0.6875 -8.65625 C 0.6875 -9.414062 0.867188 -10.078125 1.234375 -10.640625 C 1.597656 -11.203125 2.113281 -11.640625 2.78125 -11.953125 C 3.445312 -12.265625 4.222656 -12.421875 5.109375 -12.421875 C 5.921875 -12.421875 6.640625 -12.273438 7.265625 -11.984375 C 7.898438 -11.703125 8.410156 -11.296875 8.796875 -10.765625 C 9.191406 -10.242188 9.414062 -9.625 9.46875 -8.90625 L 6.890625 -8.375 C 6.859375 -8.957031 6.671875 -9.421875 6.328125 -9.765625 C 5.992188 -10.109375 5.570312 -10.28125 5.0625 -10.28125 C 4.570312 -10.28125 4.179688 -10.148438 3.890625 -9.890625 C 3.609375 -9.628906 3.46875 -9.300781 3.46875 -8.90625 C 3.46875 -8.550781 3.59375 -8.257812 3.84375 -8.03125 C 4.101562 -7.8125 4.519531 -7.628906 5.09375 -7.484375 L 6.59375 -7.109375 C 7.820312 -6.828125 8.722656 -6.398438 9.296875 -5.828125 C 9.867188 -5.253906 10.15625 -4.488281 10.15625 -3.53125 C 10.15625 -2.75 9.957031 -2.0625 9.5625 -1.46875 C 9.164062 -0.882812 8.601562 -0.429688 7.875 -0.109375 C 7.15625 0.210938 6.300781 0.375 5.3125 0.375 Z M 5.3125 0.375 "/></g></g></g><g fill="#0661aa" fill-opacity="1"><g transform="translate(68.691168, 124.541762)"><g><path d="M 5.0625 0.28125 C 4.125 0.28125 3.296875 0.09375 2.578125 -0.28125 C 1.867188 -0.664062 1.320312 -1.210938 0.9375 -1.921875 C 0.550781 -2.628906 0.359375 -3.445312 0.359375 -4.375 C 0.359375 -5.300781 0.535156 -6.101562 0.890625 -6.78125 C 1.242188 -7.46875 1.738281 -8.003906 2.375 -8.390625 C 3.019531 -8.773438 3.78125 -8.96875 4.65625 -8.96875 C 5.488281 -8.96875 6.207031 -8.785156 6.8125 -8.421875 C 7.425781 -8.054688 7.90625 -7.539062 8.25 -6.875 C 8.59375 -6.21875 8.765625 -5.441406 8.765625 -4.546875 C 8.765625 -4.367188 8.753906 -4.195312 8.734375 -4.03125 C 8.722656 -3.875 8.695312 -3.738281 8.65625 -3.625 L 2.9375 -3.625 C 3 -2.988281 3.21875 -2.488281 3.59375 -2.125 C 3.976562 -1.757812 4.472656 -1.578125 5.078125 -1.578125 C 5.535156 -1.578125 5.941406 -1.6875 6.296875 -1.90625 C 6.660156 -2.132812 6.929688 -2.445312 7.109375 -2.84375 L 8.921875 -2.046875 C 8.671875 -1.328125 8.1875 -0.757812 7.46875 -0.34375 C 6.757812 0.0703125 5.957031 0.28125 5.0625 0.28125 Z M 2.9375 -5.09375 L 6.1875 -5.09375 C 6.15625 -5.726562 6.003906 -6.21875 5.734375 -6.5625 C 5.460938 -6.914062 5.097656 -7.09375 4.640625 -7.09375 C 4.148438 -7.09375 3.757812 -6.914062 3.46875 -6.5625 C 3.175781 -6.207031 3 -5.71875 2.9375 -5.09375 Z M 2.9375 -5.09375 "/></g></g></g><g fill="#0661aa" fill-opacity="1"><g transform="translate(79.92263, 124.541762)"><g><path d="M 4.203125 0.265625 C 3.484375 0.265625 2.832031 0.15625 2.25 -0.0625 C 1.675781 -0.28125 1.210938 -0.609375 0.859375 -1.046875 C 0.503906 -1.484375 0.304688 -2.03125 0.265625 -2.6875 L 2.5625 -2.984375 C 2.582031 -2.492188 2.75 -2.113281 3.0625 -1.84375 C 3.382812 -1.570312 3.789062 -1.4375 4.28125 -1.4375 C 4.675781 -1.4375 5.007812 -1.519531 5.28125 -1.6875 C 5.550781 -1.863281 5.6875 -2.085938 5.6875 -2.359375 C 5.6875 -2.609375 5.566406 -2.816406 5.328125 -2.984375 C 5.085938 -3.148438 4.703125 -3.296875 4.171875 -3.421875 L 3.046875 -3.703125 C 2.203125 -3.910156 1.585938 -4.207031 1.203125 -4.59375 C 0.828125 -4.988281 0.640625 -5.515625 0.640625 -6.171875 C 0.640625 -7.035156 0.957031 -7.710938 1.59375 -8.203125 C 2.238281 -8.691406 3.066406 -8.9375 4.078125 -8.9375 C 4.679688 -8.9375 5.238281 -8.832031 5.75 -8.625 C 6.257812 -8.425781 6.675781 -8.128906 7 -7.734375 C 7.320312 -7.347656 7.507812 -6.863281 7.5625 -6.28125 L 5.3125 -6 C 5.289062 -6.40625 5.15625 -6.71875 4.90625 -6.9375 C 4.664062 -7.15625 4.363281 -7.265625 4 -7.265625 C 3.664062 -7.265625 3.394531 -7.179688 3.1875 -7.015625 C 2.976562 -6.847656 2.875 -6.644531 2.875 -6.40625 C 2.875 -6.175781 2.976562 -5.984375 3.1875 -5.828125 C 3.40625 -5.671875 3.753906 -5.523438 4.234375 -5.390625 L 5.390625 -5.109375 C 6.304688 -4.878906 6.976562 -4.5625 7.40625 -4.15625 C 7.84375 -3.75 8.066406 -3.222656 8.078125 -2.578125 C 8.078125 -1.984375 7.910156 -1.472656 7.578125 -1.046875 C 7.242188 -0.628906 6.785156 -0.304688 6.203125 -0.078125 C 5.617188 0.148438 4.953125 0.265625 4.203125 0.265625 Z M 4.203125 0.265625 "/></g></g></g><g fill="#0661aa" fill-opacity="1"><g transform="translate(90.257681, 124.541762)"><g><path d="M 4.203125 0.265625 C 3.484375 0.265625 2.832031 0.15625 2.25 -0.0625 C 1.675781 -0.28125 1.210938 -0.609375 0.859375 -1.046875 C 0.503906 -1.484375 0.304688 -2.03125 0.265625 -2.6875 L 2.5625 -2.984375 C 2.582031 -2.492188 2.75 -2.113281 3.0625 -1.84375 C 3.382812 -1.570312 3.789062 -1.4375 4.28125 -1.4375 C 4.675781 -1.4375 5.007812 -1.519531 5.28125 -1.6875 C 5.550781 -1.863281 5.6875 -2.085938 5.6875 -2.359375 C 5.6875 -2.609375 5.566406 -2.816406 5.328125 -2.984375 C 5.085938 -3.148438 4.703125 -3.296875 4.171875 -3.421875 L 3.046875 -3.703125 C 2.203125 -3.910156 1.585938 -4.207031 1.203125 -4.59375 C 0.828125 -4.988281 0.640625 -5.515625 0.640625 -6.171875 C 0.640625 -7.035156 0.957031 -7.710938 1.59375 -8.203125 C 2.238281 -8.691406 3.066406 -8.9375 4.078125 -8.9375 C 4.679688 -8.9375 5.238281 -8.832031 5.75 -8.625 C 6.257812 -8.425781 6.675781 -8.128906 7 -7.734375 C 7.320312 -7.347656 7.507812 -6.863281 7.5625 -6.28125 L 5.3125 -6 C 5.289062 -6.40625 5.15625 -6.71875 4.90625 -6.9375 C 4.664062 -7.15625 4.363281 -7.265625 4 -7.265625 C 3.664062 -7.265625 3.394531 -7.179688 3.1875 -7.015625 C 2.976562 -6.847656 2.875 -6.644531 2.875 -6.40625 C 2.875 -6.175781 2.976562 -5.984375 3.1875 -5.828125 C 3.40625 -5.671875 3.753906 -5.523438 4.234375 -5.390625 L 5.390625 -5.109375 C 6.304688 -4.878906 6.976562 -4.5625 7.40625 -4.15625 C 7.84375 -3.75 8.066406 -3.222656 8.078125 -2.578125 C 8.078125 -1.984375 7.910156 -1.472656 7.578125 -1.046875 C 7.242188 -0.628906 6.785156 -0.304688 6.203125 -0.078125 C 5.617188 0.148438 4.953125 0.265625 4.203125 0.265625 Z M 4.203125 0.265625 "/></g></g></g><g fill="#0661aa" fill-opacity="1"><g transform="translate(100.592732, 124.541762)"><g><path d="M 2 -9.84375 C 1.53125 -9.84375 1.15625 -9.976562 0.875 -10.25 C 0.601562 -10.519531 0.46875 -10.878906 0.46875 -11.328125 C 0.46875 -11.773438 0.601562 -12.132812 0.875 -12.40625 C 1.15625 -12.675781 1.53125 -12.8125 2 -12.8125 C 2.457031 -12.8125 2.820312 -12.675781 3.09375 -12.40625 C 3.375 -12.132812 3.515625 -11.773438 3.515625 -11.328125 C 3.515625 -10.878906 3.375 -10.519531 3.09375 -10.25 C 2.820312 -9.976562 2.457031 -9.84375 2 -9.84375 Z M 0.6875 0 L 0.6875 -8.65625 L 3.28125 -8.65625 L 3.28125 0 Z M 0.6875 0 "/></g></g></g><g fill="#0661aa" fill-opacity="1"><g transform="translate(106.581015, 124.541762)"><g><path d="M 4.75 0.28125 C 3.863281 0.28125 3.085938 0.09375 2.421875 -0.28125 C 1.765625 -0.65625 1.253906 -1.1875 0.890625 -1.875 C 0.535156 -2.570312 0.359375 -3.390625 0.359375 -4.328125 C 0.359375 -5.273438 0.535156 -6.09375 0.890625 -6.78125 C 1.253906 -7.476562 1.765625 -8.015625 2.421875 -8.390625 C 3.085938 -8.773438 3.863281 -8.96875 4.75 -8.96875 C 5.644531 -8.96875 6.421875 -8.773438 7.078125 -8.390625 C 7.734375 -8.015625 8.238281 -7.476562 8.59375 -6.78125 C 8.957031 -6.09375 9.140625 -5.273438 9.140625 -4.328125 C 9.140625 -3.390625 8.957031 -2.570312 8.59375 -1.875 C 8.238281 -1.1875 7.734375 -0.65625 7.078125 -0.28125 C 6.421875 0.09375 5.644531 0.28125 4.75 0.28125 Z M 4.75 -1.875 C 5.3125 -1.875 5.753906 -2.09375 6.078125 -2.53125 C 6.398438 -2.96875 6.5625 -3.566406 6.5625 -4.328125 C 6.5625 -5.097656 6.398438 -5.695312 6.078125 -6.125 C 5.753906 -6.5625 5.3125 -6.78125 4.75 -6.78125 C 4.1875 -6.78125 3.738281 -6.5625 3.40625 -6.125 C 3.082031 -5.695312 2.921875 -5.097656 2.921875 -4.328125 C 2.921875 -3.566406 3.082031 -2.96875 3.40625 -2.53125 C 3.738281 -2.09375 4.1875 -1.875 4.75 -1.875 Z M 4.75 -1.875 "/></g></g></g><g fill="#0661aa" fill-opacity="1"><g transform="translate(118.083096, 124.541762)"><g><path d="M 5.90625 -8.890625 C 6.707031 -8.890625 7.335938 -8.648438 7.796875 -8.171875 C 8.265625 -7.691406 8.5 -7.019531 8.5 -6.15625 L 8.5 0 L 5.90625 0 L 5.90625 -5.5 C 5.90625 -5.90625 5.800781 -6.21875 5.59375 -6.4375 C 5.394531 -6.664062 5.113281 -6.78125 4.75 -6.78125 C 4.289062 -6.78125 3.921875 -6.628906 3.640625 -6.328125 C 3.359375 -6.035156 3.21875 -5.625 3.21875 -5.09375 L 3.21875 0 L 0.640625 0 L 0.640625 -8.65625 L 2.78125 -8.65625 L 3.125 -7.1875 L 3.140625 -7.1875 C 3.398438 -7.726562 3.769531 -8.144531 4.25 -8.4375 C 4.738281 -8.738281 5.289062 -8.890625 5.90625 -8.890625 Z M 5.90625 -8.890625 "/></g></g></g></svg>