<svg xmlns="http://www.w3.org/2000/svg" xmlns:xlink="http://www.w3.org/1999/xlink" width="180" zoomAndPan="magnify" viewBox="0 0 135 161.249994" height="215" preserveAspectRatio="xMidYMid meet" version="1.0"><defs><g/><clipPath id="cf18259e54"><path d="M 46.914062 19.851562 L 87.972656 19.851562 L 87.972656 72.851562 L 46.914062 72.851562 Z M 46.914062 19.851562 " clip-rule="nonzero"/></clipPath></defs><g clip-path="url(#cf18259e54)"><path fill="#0661aa" d="M 79.136719 48.871094 C 79.027344 48.984375 78.914062 48.996094 78.824219 48.9375 C 78.335938 48.597656 77.996094 48.140625 77.824219 47.578125 C 77.777344 47.425781 77.804688 47.242188 77.835938 47.078125 C 77.945312 46.558594 78.070312 46.042969 78.1875 45.523438 C 78.214844 45.398438 78.226562 45.273438 78.238281 45.144531 C 78.257812 44.914062 78.179688 44.730469 77.96875 44.613281 C 77.265625 44.222656 76.746094 43.628906 76.21875 43.046875 C 75.402344 42.148438 74.550781 41.285156 73.519531 40.625 C 73.175781 40.410156 72.835938 40.195312 72.480469 40.003906 C 71.953125 39.71875 71.5 39.695312 70.957031 39.902344 C 71.441406 40.644531 71.851562 41.429688 72.289062 42.199219 C 72.625 42.789062 73.035156 43.34375 73.730469 43.582031 C 73.789062 43.601562 73.84375 43.636719 73.902344 43.667969 C 74.117188 43.785156 74.191406 43.894531 74.132812 43.988281 C 74.03125 44.148438 73.871094 44.117188 73.730469 44.09375 C 72.886719 43.957031 72.234375 43.503906 71.753906 42.8125 C 71.449219 42.378906 71.191406 41.914062 70.914062 41.460938 C 70.746094 41.1875 70.5625 40.925781 70.429688 40.636719 C 70.203125 40.132812 69.765625 40.082031 69.3125 40.085938 C 69.039062 40.089844 68.765625 40.148438 68.492188 40.195312 C 68.410156 40.207031 68.328125 40.242188 68.257812 40.289062 C 67.640625 40.710938 67.085938 41.203125 66.710938 41.867188 C 66.59375 42.074219 66.527344 42.289062 66.527344 42.535156 C 66.527344 42.941406 66.554688 43.34375 66.640625 43.738281 C 66.6875 43.945312 66.742188 44.15625 66.761719 44.367188 C 66.867188 45.664062 67.230469 46.914062 67.480469 48.1875 C 67.542969 48.519531 67.59375 48.855469 67.667969 49.1875 C 67.785156 49.703125 67.921875 50.210938 68.078125 50.722656 C 68.320312 51.53125 68.550781 52.355469 68.574219 53.210938 C 68.589844 53.789062 68.613281 54.359375 68.640625 54.933594 C 68.648438 55.097656 68.683594 55.257812 68.710938 55.46875 C 68.890625 55.390625 69.03125 55.347656 69.152344 55.273438 C 70.519531 54.460938 72.007812 53.960938 73.570312 53.6875 C 73.863281 53.636719 74.058594 53.519531 74.234375 53.265625 C 74.65625 52.660156 74.726562 52.011719 74.570312 51.320312 C 74.488281 50.96875 74.390625 50.617188 74.257812 50.28125 C 74.058594 49.769531 73.722656 49.34375 73.191406 49.171875 C 72.703125 49.011719 72.1875 49 71.722656 49.304688 C 71.269531 49.601562 70.78125 49.785156 70.238281 49.8125 C 70.035156 49.824219 69.867188 49.773438 69.699219 49.664062 C 69.316406 49.421875 69 49.109375 68.738281 48.746094 C 68.675781 48.660156 68.65625 48.5625 68.746094 48.417969 C 68.945312 48.5625 69.136719 48.6875 69.316406 48.835938 C 69.582031 49.054688 69.886719 49.105469 70.214844 49.046875 C 70.699219 48.960938 71.160156 48.808594 71.625 48.507812 C 71.527344 48.425781 71.46875 48.347656 71.386719 48.316406 C 70.847656 48.105469 70.351562 47.828125 69.902344 47.460938 C 69.464844 47.101562 69.234375 46.636719 69.121094 46.105469 C 69.085938 45.945312 69.09375 45.761719 69.136719 45.601562 C 69.359375 44.800781 69.902344 44.265625 70.625 43.828125 C 70.773438 44.035156 70.777344 44.210938 70.671875 44.386719 C 70.574219 44.546875 70.457031 44.703125 70.347656 44.859375 C 69.679688 45.824219 70.089844 46.683594 70.695312 47.261719 C 71.082031 47.628906 71.539062 47.90625 72.0625 48.058594 C 72.488281 48.183594 72.90625 48.351562 73.328125 48.496094 C 73.421875 48.53125 73.523438 48.546875 73.625 48.570312 C 73.625 48.285156 73.628906 48.035156 73.625 47.785156 C 73.609375 46.960938 73.949219 46.296875 74.550781 45.765625 C 75.101562 45.28125 75.789062 45.046875 76.414062 44.738281 C 76.605469 44.925781 76.519531 45.074219 76.433594 45.175781 C 76.3125 45.320312 76.144531 45.425781 75.992188 45.542969 C 75.636719 45.816406 75.300781 46.109375 75.0625 46.496094 C 74.675781 47.125 74.5625 47.800781 74.757812 48.519531 C 74.960938 49.253906 75.175781 49.988281 75.394531 50.71875 C 75.484375 51.027344 75.59375 51.320312 75.609375 51.648438 C 75.632812 52.105469 75.585938 52.535156 75.332031 52.929688 C 75.257812 53.046875 75.230469 53.195312 75.179688 53.335938 C 75.675781 53.378906 79.34375 53.121094 79.902344 53.011719 C 80.003906 52.988281 80.09375 52.929688 80.1875 52.886719 C 80.042969 52.507812 79.902344 52.152344 79.773438 51.792969 C 79.726562 51.652344 79.664062 51.5 79.679688 51.363281 C 79.738281 50.835938 79.777344 50.308594 80.035156 49.820312 C 80.382812 49.160156 80.761719 48.527344 81.316406 48.011719 C 81.9375 47.429688 82.675781 47.070312 83.445312 46.757812 C 83.738281 46.636719 84.03125 46.515625 84.363281 46.378906 C 84.332031 46.234375 84.316406 46.117188 84.285156 46 C 84.015625 45.007812 84.15625 44.0625 84.589844 43.148438 C 84.785156 42.738281 85.101562 42.410156 85.445312 42.128906 C 85.820312 41.820312 86.234375 41.550781 86.648438 41.292969 C 86.882812 41.148438 87.140625 41.046875 87.398438 40.945312 C 87.582031 40.875 87.773438 40.875 87.957031 40.960938 C 88.074219 41.015625 88.125 41.203125 88.019531 41.277344 C 87.851562 41.40625 87.671875 41.515625 87.484375 41.617188 C 86.945312 41.914062 86.40625 42.210938 85.960938 42.652344 C 85.238281 43.363281 84.914062 44.234375 84.898438 45.230469 C 84.894531 45.5 84.863281 45.78125 85.011719 46.066406 C 85.398438 46.070312 85.675781 45.804688 86.003906 45.675781 C 86.324219 45.546875 86.589844 45.347656 86.855469 45.128906 C 87.132812 44.90625 87.203125 44.496094 87.554688 44.34375 C 87.929688 44.921875 87.914062 45.171875 87.472656 45.574219 C 87.300781 45.730469 87.109375 45.875 86.902344 45.976562 C 86.449219 46.203125 85.980469 46.421875 85.507812 46.605469 C 84.855469 46.859375 84.183594 47.070312 83.53125 47.320312 C 83.015625 47.523438 82.550781 47.824219 82.113281 48.164062 C 82.035156 48.226562 81.980469 48.320312 81.890625 48.429688 C 81.992188 48.484375 82.054688 48.542969 82.128906 48.5625 C 82.488281 48.652344 82.796875 48.828125 83.078125 49.070312 C 83.457031 49.394531 83.886719 49.59375 84.410156 49.582031 C 84.722656 49.574219 84.855469 49.683594 84.832031 49.847656 C 84.804688 50.070312 84.621094 50.074219 84.457031 50.113281 C 83.824219 50.253906 83.285156 50.070312 82.792969 49.679688 C 82.597656 49.523438 82.398438 49.359375 82.195312 49.210938 C 81.996094 49.058594 81.761719 49.027344 81.527344 49.09375 C 81.414062 49.125 81.289062 49.195312 81.21875 49.285156 C 80.8125 49.824219 80.554688 50.4375 80.480469 51.101562 C 80.414062 51.714844 80.652344 52.257812 81 52.769531 C 81.105469 52.761719 81.191406 52.761719 81.269531 52.746094 C 81.949219 52.5625 82.617188 52.34375 83.222656 51.976562 C 83.488281 51.8125 83.753906 51.621094 83.980469 51.40625 C 84.558594 50.871094 85.109375 50.304688 85.679688 49.765625 C 85.921875 49.535156 86.199219 49.332031 86.488281 49.089844 C 86.519531 49.195312 86.5625 49.257812 86.546875 49.292969 C 86.390625 49.664062 86.238281 50.035156 86.0625 50.398438 C 85.238281 52.109375 83.84375 53.097656 82.023438 53.519531 C 81.339844 53.679688 80.652344 53.820312 79.949219 53.855469 C 79.570312 53.871094 79.195312 53.933594 78.835938 53.972656 C 78.738281 54.296875 78.886719 54.507812 79.066406 54.695312 C 79.539062 55.203125 80.140625 55.445312 80.820312 55.484375 C 81.160156 55.503906 81.503906 55.472656 81.839844 55.453125 C 82.324219 55.421875 82.769531 55.539062 83.1875 55.773438 C 83.242188 55.804688 83.304688 55.832031 83.339844 55.878906 C 83.378906 55.929688 83.414062 56.007812 83.398438 56.050781 C 83.371094 56.121094 83.304688 56.214844 83.242188 56.222656 C 83.078125 56.246094 82.898438 56.269531 82.738281 56.230469 C 82.398438 56.15625 82.0625 56.15625 81.726562 56.191406 C 80.871094 56.28125 80.085938 56.070312 79.324219 55.695312 C 78.742188 55.40625 78.328125 54.980469 78.078125 54.386719 C 78.035156 54.289062 78 54.191406 77.964844 54.105469 C 77.136719 53.9375 74.117188 54.246094 72.910156 54.613281 C 72.878906 54.753906 72.984375 54.796875 73.078125 54.835938 C 73.9375 55.164062 74.488281 55.820312 74.945312 56.582031 C 75.285156 57.148438 75.597656 57.726562 76.027344 58.273438 C 76.1875 58.203125 76.34375 58.148438 76.484375 58.0625 C 77.121094 57.699219 77.792969 57.457031 78.523438 57.371094 C 78.609375 57.363281 78.695312 57.351562 78.777344 57.328125 C 79.5625 57.089844 80.238281 57.390625 80.890625 57.773438 C 80.925781 57.796875 80.960938 57.828125 80.980469 57.863281 C 81.003906 57.914062 81.03125 57.984375 81.011719 58.035156 C 80.996094 58.082031 80.9375 58.140625 80.886719 58.15625 C 80.628906 58.238281 80.367188 58.1875 80.148438 58.054688 C 79.835938 57.863281 79.503906 57.847656 79.164062 57.894531 C 78.746094 57.949219 78.320312 57.921875 77.90625 58.0625 C 77.394531 58.242188 76.964844 58.546875 76.546875 58.871094 C 76.753906 59.230469 76.941406 59.449219 77.292969 59.605469 C 77.703125 59.78125 78.121094 59.933594 78.546875 60.074219 C 78.929688 60.199219 79.113281 60.316406 79.035156 60.464844 C 78.90625 60.730469 78.636719 60.695312 78.421875 60.664062 C 77.742188 60.570312 77.097656 60.375 76.542969 59.941406 C 75.894531 59.433594 75.421875 58.777344 74.980469 58.097656 C 74.761719 57.761719 74.5625 57.410156 74.347656 57.066406 C 74.296875 56.980469 74.21875 56.910156 74.128906 56.800781 C 73.933594 57.175781 73.769531 57.519531 73.578125 57.847656 C 73.390625 58.179688 73.148438 58.484375 72.980469 58.824219 C 72.820312 59.148438 72.71875 59.496094 72.601562 59.839844 C 72.402344 60.429688 72.589844 60.917969 73.007812 61.347656 C 73.230469 61.574219 73.441406 61.8125 73.65625 62.046875 C 73.675781 62.074219 73.675781 62.125 73.683594 62.167969 C 73.617188 62.296875 73.507812 62.253906 73.414062 62.226562 C 72.851562 62.066406 72.476562 61.664062 72.125 61.230469 C 72.109375 61.214844 72.101562 61.195312 72.089844 61.179688 C 71.550781 60.511719 71.519531 59.789062 71.851562 59.023438 C 72.074219 58.515625 72.296875 58.007812 72.664062 57.585938 C 72.746094 57.488281 72.796875 57.363281 72.886719 57.273438 C 73.34375 56.8125 73.199219 56.261719 73.136719 55.722656 C 73.128906 55.648438 73.082031 55.546875 73.023438 55.507812 C 72.6875 55.292969 72.371094 55.046875 71.929688 55.046875 C 71.429688 55.050781 70.972656 55.136719 70.515625 55.355469 C 69.933594 55.632812 69.398438 55.96875 68.867188 56.320312 C 68.664062 56.460938 68.53125 56.632812 68.46875 56.875 C 68.035156 58.539062 67.578125 60.199219 67.171875 61.875 C 66.980469 62.65625 66.882812 63.460938 66.765625 64.261719 C 66.632812 65.164062 66.800781 66.042969 67.054688 66.90625 C 67.300781 67.738281 67.605469 68.558594 67.871094 69.382812 C 68.046875 69.933594 68.207031 70.484375 68.371094 71.03125 C 68.390625 71.09375 68.414062 71.15625 68.417969 71.21875 C 68.457031 71.828125 68.433594 72.210938 67.640625 72.359375 C 67.515625 72.386719 67.390625 72.414062 67.265625 72.429688 C 67.203125 72.4375 67.140625 72.417969 67.066406 72.414062 C 66.878906 72.253906 66.808594 72.039062 66.777344 71.800781 C 66.742188 71.550781 66.699219 71.300781 66.65625 71.046875 C 66.554688 70.441406 66.441406 69.839844 66.242188 69.25 C 66.066406 68.730469 65.945312 68.183594 65.871094 67.636719 C 65.769531 66.882812 65.734375 66.113281 65.675781 65.351562 C 65.664062 65.203125 65.667969 65.050781 65.683594 64.90625 C 65.828125 63.636719 65.988281 62.371094 66.328125 61.136719 C 66.371094 60.972656 66.410156 60.808594 66.445312 60.640625 C 66.457031 60.601562 66.445312 60.554688 66.441406 60.480469 C 66.023438 59.941406 65.507812 59.480469 64.863281 59.164062 C 64.25 58.863281 63.613281 58.621094 62.957031 58.441406 C 62.714844 58.375 62.453125 58.390625 62.199219 58.347656 C 61.75 58.273438 61.457031 58.492188 61.265625 58.855469 C 61.058594 59.25 60.882812 59.664062 60.695312 60.066406 C 60.589844 60.296875 60.496094 60.535156 60.386719 60.765625 C 60.230469 61.078125 59.996094 61.261719 59.617188 61.191406 C 59.394531 61.148438 59.15625 61.226562 58.9375 61.105469 C 58.96875 60.871094 59.105469 60.726562 59.261719 60.632812 C 59.519531 60.480469 59.664062 60.253906 59.789062 60.007812 C 60.023438 59.539062 60.28125 59.078125 60.519531 58.546875 C 60.335938 58.539062 60.214844 58.523438 60.09375 58.53125 C 59.605469 58.570312 59.121094 58.628906 58.632812 58.65625 C 57.140625 58.742188 55.710938 58.488281 54.335938 57.898438 C 53.8125 57.671875 53.429688 57.296875 53.121094 56.757812 C 53.648438 56.628906 54.082031 57.027344 54.539062 56.921875 C 54.574219 56.855469 54.609375 56.8125 54.601562 56.78125 C 54.449219 56.238281 54.535156 55.730469 54.792969 55.238281 C 54.941406 54.953125 55.046875 54.65625 55.070312 54.328125 C 55.078125 54.230469 55.144531 54.136719 55.183594 54.046875 C 55.652344 54.203125 55.847656 54.511719 55.722656 54.890625 C 55.664062 55.070312 55.566406 55.242188 55.5 55.421875 C 55.367188 55.78125 55.261719 56.148438 55.371094 56.539062 C 55.453125 56.839844 55.566406 57.101562 55.894531 57.210938 C 55.992188 57.242188 56.109375 57.292969 56.164062 57.371094 C 56.40625 57.746094 56.804688 57.738281 57.171875 57.800781 C 58.320312 57.988281 59.464844 57.910156 60.605469 57.765625 C 61.175781 57.695312 61.746094 57.628906 62.316406 57.558594 C 62.394531 57.546875 62.472656 57.519531 62.597656 57.484375 C 62.5 57.332031 62.429688 57.207031 62.347656 57.09375 C 62.101562 56.765625 61.910156 56.414062 61.828125 56.011719 C 61.703125 55.421875 61.78125 54.863281 62.070312 54.34375 C 62.371094 53.804688 62.683594 53.269531 63.003906 52.746094 C 63.253906 52.335938 63.410156 51.910156 63.375 51.421875 C 63.359375 51.1875 63.347656 50.953125 63.351562 50.71875 C 63.355469 50.578125 63.398438 50.4375 63.425781 50.296875 C 63.820312 50.367188 64.007812 50.511719 64.164062 50.832031 C 64.417969 51.355469 64.347656 51.871094 64.109375 52.371094 C 63.996094 52.59375 63.859375 52.816406 63.707031 53.019531 C 63.324219 53.511719 63.097656 54.089844 62.851562 54.65625 C 62.621094 55.195312 62.71875 55.761719 62.894531 56.277344 C 63.046875 56.730469 63.347656 57.136719 63.59375 57.554688 C 63.707031 57.742188 63.875 57.863281 64.085938 57.941406 C 65.007812 58.292969 65.855469 58.765625 66.578125 59.445312 C 66.605469 59.46875 66.65625 59.464844 66.722656 59.480469 C 66.761719 59.421875 66.8125 59.355469 66.835938 59.28125 C 67.53125 57.144531 67.757812 54.960938 67.421875 52.730469 C 67.335938 52.164062 67.1875 51.605469 67.0625 51.046875 C 66.96875 50.613281 66.855469 50.179688 66.765625 49.742188 C 66.714844 49.476562 66.601562 49.25 66.371094 49.109375 C 65.734375 48.730469 65.089844 48.363281 64.441406 48 C 64.3125 47.925781 64.160156 47.894531 64.015625 47.859375 C 63.664062 47.777344 63.308594 47.703125 62.953125 47.855469 C 62.875 47.890625 62.789062 47.894531 62.703125 47.910156 C 61.90625 48.0625 61.238281 48.4375 60.664062 49.015625 C 60.121094 49.5625 59.597656 50.117188 59.140625 50.730469 C 58.746094 51.261719 58.277344 51.722656 57.769531 52.152344 C 57.644531 52.257812 57.53125 52.375 57.390625 52.503906 C 57.472656 52.589844 57.523438 52.65625 57.585938 52.707031 C 58.230469 53.1875 58.605469 53.839844 58.800781 54.597656 C 58.902344 54.980469 59.050781 55.320312 59.339844 55.59375 C 59.429688 55.679688 59.519531 55.78125 59.574219 55.894531 C 59.636719 56.023438 59.707031 56.167969 59.558594 56.328125 C 58.625 56.011719 57.960938 55.425781 57.6875 54.441406 C 57.5625 53.988281 57.382812 53.558594 57.070312 53.191406 C 56.820312 52.898438 56.503906 52.835938 56.148438 52.910156 C 55.835938 52.972656 55.527344 53.046875 55.222656 53.128906 C 54.570312 53.296875 53.914062 53.257812 53.261719 53.15625 C 53.15625 53.140625 53.050781 53.101562 52.949219 53.101562 C 51.746094 53.078125 50.683594 52.5625 49.601562 52.128906 C 49.242188 51.988281 49.027344 51.71875 48.800781 51.34375 C 48.933594 51.339844 49.007812 51.316406 49.070312 51.335938 C 49.390625 51.449219 49.707031 51.574219 50.023438 51.695312 C 50.242188 51.773438 50.460938 51.855469 50.699219 51.9375 C 50.761719 51.710938 50.625 51.546875 50.601562 51.371094 C 50.582031 51.179688 50.566406 50.988281 50.542969 50.796875 C 50.519531 50.609375 50.5 50.417969 50.464844 50.230469 C 50.398438 49.863281 50.234375 49.535156 49.929688 49.3125 C 49.421875 48.929688 48.917969 48.535156 48.375 48.210938 C 47.816406 47.878906 47.441406 47.410156 47.140625 46.867188 C 46.953125 46.519531 46.9375 46.148438 47.046875 45.761719 C 47.519531 45.957031 47.597656 45.988281 47.757812 46.269531 C 48.257812 47.144531 48.988281 47.769531 49.839844 48.285156 C 50.40625 48.628906 50.910156 49.070312 51.125 49.738281 C 51.214844 50.015625 51.285156 50.3125 51.304688 50.601562 C 51.328125 50.996094 51.394531 51.359375 51.605469 51.695312 C 51.707031 51.855469 51.761719 52.039062 51.839844 52.21875 C 51.867188 52.238281 51.898438 52.269531 51.9375 52.277344 C 53.492188 52.570312 54.984375 52.402344 56.417969 51.71875 C 56.972656 51.457031 57.371094 51.035156 57.730469 50.570312 C 57.289062 49.78125 56.597656 49.371094 55.773438 49.320312 C 54.96875 49.269531 54.160156 49.28125 53.363281 49.101562 C 52.691406 48.953125 52.054688 48.726562 51.4375 48.441406 C 51.210938 48.335938 51.003906 48.167969 50.816406 48 C 50.503906 47.726562 50.429688 47.367188 50.484375 46.933594 C 50.832031 47.011719 51.109375 47.15625 51.324219 47.390625 C 51.835938 47.945312 52.492188 48.207031 53.195312 48.414062 C 53.941406 48.632812 54.691406 48.726562 55.460938 48.757812 C 55.800781 48.769531 56.140625 48.789062 56.476562 48.835938 C 56.839844 48.882812 57.171875 49.019531 57.460938 49.253906 C 57.726562 49.46875 57.992188 49.671875 58.28125 49.902344 C 59.074219 49.042969 59.785156 48.148438 60.789062 47.609375 C 60.730469 47.425781 60.632812 47.453125 60.554688 47.445312 C 60.003906 47.394531 59.453125 47.359375 58.902344 47.304688 C 58.714844 47.285156 58.527344 47.234375 58.34375 47.183594 C 57.601562 46.988281 56.863281 46.792969 56.125 46.585938 C 55.78125 46.488281 55.441406 46.359375 55.097656 46.246094 C 54.835938 46.160156 54.578125 46.0625 54.3125 45.984375 C 54 45.890625 53.683594 45.875 53.363281 45.929688 C 53.113281 45.96875 52.859375 46 52.605469 46.039062 C 50.832031 46.3125 49.28125 45.8125 47.929688 44.671875 C 47.636719 44.425781 47.390625 44.128906 47.128906 43.847656 C 46.925781 43.628906 46.835938 43.382812 46.992188 43.09375 C 47.050781 42.984375 47.089844 42.863281 47.144531 42.726562 C 47.425781 42.835938 47.574219 43.050781 47.707031 43.253906 C 48.207031 44.023438 48.921875 44.554688 49.679688 45.03125 C 50.152344 45.332031 50.707031 45.421875 51.25 45.535156 C 51.691406 45.625 52.136719 45.605469 52.582031 45.566406 C 52.632812 45.5625 52.6875 45.515625 52.789062 45.460938 C 52.675781 45.382812 52.597656 45.324219 52.511719 45.277344 C 51.921875 44.9375 51.332031 44.601562 50.738281 44.265625 C 50.457031 44.109375 50.210938 43.910156 50.003906 43.664062 C 49.589844 43.175781 49.171875 42.695312 48.761719 42.207031 C 48.640625 42.058594 48.503906 41.910156 48.441406 41.734375 C 48.175781 41.039062 47.914062 40.34375 47.699219 39.632812 C 47.515625 39.03125 47.585938 38.410156 47.65625 37.792969 C 47.691406 37.464844 47.757812 37.132812 47.820312 36.742188 C 48.078125 37.074219 48.308594 37.324219 48.355469 37.75 C 48.425781 38.421875 48.601562 39.082031 48.746094 39.746094 C 48.890625 40.421875 49.222656 41.011719 49.632812 41.5625 C 49.667969 41.609375 49.707031 41.664062 49.753906 41.707031 C 49.78125 41.734375 49.824219 41.75 49.898438 41.792969 C 49.945312 41.710938 50.007812 41.632812 50.042969 41.546875 C 50.113281 41.367188 50.167969 41.183594 50.230469 41.003906 C 50.375 40.597656 50.609375 40.246094 50.921875 39.945312 C 51.148438 39.726562 51.355469 39.484375 51.617188 39.207031 C 51.441406 39.121094 51.324219 39.042969 51.199219 39.003906 C 50.765625 38.871094 50.445312 38.601562 50.226562 38.226562 C 50.011719 37.859375 49.8125 37.480469 49.65625 37.089844 C 49.492188 36.675781 49.394531 36.238281 49.25 35.816406 C 49.175781 35.597656 49.097656 35.363281 48.957031 35.183594 C 48.699219 34.847656 48.605469 34.46875 48.554688 34.023438 C 48.65625 34.003906 48.757812 33.957031 48.839844 33.980469 C 49.039062 34.046875 49.222656 34.164062 49.421875 34.222656 C 49.691406 34.296875 49.878906 34.460938 49.96875 34.710938 C 50.070312 34.988281 50.148438 35.277344 50.203125 35.570312 C 50.351562 36.300781 50.550781 37.011719 50.910156 37.675781 C 51.144531 38.105469 51.511719 38.324219 51.949219 38.460938 C 52.148438 38.519531 52.277344 38.480469 52.378906 38.292969 C 52.65625 37.796875 52.816406 37.269531 52.671875 36.703125 C 52.558594 36.25 52.402344 35.808594 52.261719 35.363281 C 52.160156 35.039062 52.046875 34.71875 51.953125 34.394531 C 51.925781 34.300781 51.949219 34.191406 51.949219 34.050781 C 52.480469 34.183594 52.851562 34.488281 53.105469 34.90625 C 53.640625 35.785156 53.800781 36.726562 53.507812 37.726562 C 53.398438 38.097656 53.234375 38.4375 52.960938 38.71875 C 52.414062 39.285156 51.875 39.859375 51.339844 40.4375 C 51.230469 40.554688 51.15625 40.707031 51.054688 40.863281 C 51.582031 41.128906 52.105469 41.25 52.632812 41.261719 C 53.238281 41.277344 53.742188 41.046875 54.023438 40.441406 C 54.15625 40.15625 54.339844 39.886719 54.539062 39.640625 C 54.875 39.230469 55.238281 38.839844 55.597656 38.449219 C 55.640625 38.402344 55.765625 38.375 55.820312 38.402344 C 55.875 38.429688 55.925781 38.550781 55.90625 38.609375 C 55.839844 38.8125 55.78125 39.027344 55.652344 39.1875 C 55.277344 39.65625 55.019531 40.195312 54.734375 40.714844 C 54.371094 41.371094 53.796875 41.679688 53.101562 41.8125 C 52.53125 41.921875 51.960938 41.890625 51.398438 41.726562 C 51.234375 41.679688 51.074219 41.636719 50.890625 41.582031 C 50.730469 41.863281 50.796875 42.136719 50.839844 42.398438 C 50.933594 42.964844 51.15625 43.445312 51.707031 43.726562 C 52.03125 43.890625 52.324219 44.101562 52.628906 44.296875 C 53.226562 44.679688 53.878906 44.933594 54.542969 45.164062 C 55.066406 45.34375 55.582031 45.539062 56.105469 45.714844 C 56.484375 45.84375 56.871094 45.9375 57.359375 45.976562 C 57.234375 45.777344 57.175781 45.648438 57.082031 45.542969 C 56.617188 45 56.347656 44.347656 56.074219 43.703125 C 55.785156 43.015625 55.828125 42.285156 55.996094 41.570312 C 56.113281 41.09375 56.292969 40.632812 56.566406 40.222656 C 56.902344 39.714844 57.007812 39.183594 56.886719 38.585938 C 56.816406 38.234375 56.78125 37.871094 56.871094 37.464844 C 56.980469 37.503906 57.089844 37.507812 57.160156 37.566406 C 57.699219 37.988281 57.804688 38.59375 57.792969 39.222656 C 57.792969 39.402344 57.675781 39.582031 57.59375 39.753906 C 57.40625 40.132812 57.195312 40.503906 57.015625 40.890625 C 56.902344 41.140625 56.816406 41.40625 56.738281 41.671875 C 56.707031 41.785156 56.722656 41.910156 56.71875 42.054688 C 57.410156 42.214844 57.90625 41.933594 58.328125 41.480469 C 58.59375 41.195312 58.703125 40.816406 58.84375 40.460938 C 58.996094 40.066406 59.160156 39.675781 59.320312 39.28125 C 59.496094 38.859375 59.773438 38.511719 60.101562 38.203125 C 60.660156 37.679688 61.242188 37.179688 61.710938 36.570312 C 61.730469 36.539062 61.78125 36.53125 61.820312 36.507812 C 61.957031 36.539062 61.96875 36.632812 61.949219 36.746094 C 61.90625 37.050781 61.773438 37.316406 61.582031 37.546875 C 61.351562 37.824219 61.121094 38.105469 60.859375 38.351562 C 60.574219 38.625 60.359375 38.925781 60.21875 39.292969 C 60.023438 39.808594 59.820312 40.324219 59.597656 40.828125 C 59.125 41.882812 58.332031 42.566406 57.203125 42.839844 C 57.0625 42.875 56.917969 42.898438 56.742188 42.9375 C 56.765625 43.085938 56.757812 43.21875 56.804688 43.324219 C 57.019531 43.789062 57.230469 44.253906 57.480469 44.695312 C 57.667969 45.027344 57.925781 45.320312 58.125 45.644531 C 58.347656 46 58.707031 46.199219 59.011719 46.460938 C 59.125 46.5625 59.324219 46.585938 59.492188 46.605469 C 60.082031 46.671875 60.675781 46.75 61.269531 46.769531 C 61.933594 46.792969 62.585938 46.84375 63.234375 46.976562 C 63.375 47.003906 63.523438 46.996094 63.699219 47.011719 C 63.730469 46.617188 63.53125 46.390625 63.269531 46.195312 C 62.976562 45.984375 62.671875 45.785156 62.390625 45.5625 C 61.800781 45.097656 61.285156 44.566406 60.917969 43.902344 C 60.769531 43.636719 60.671875 43.363281 60.640625 43.0625 C 60.566406 42.328125 60.621094 41.621094 61 40.960938 C 61.40625 40.261719 61.730469 39.519531 62.003906 38.757812 C 62.023438 38.703125 62.078125 38.660156 62.144531 38.570312 C 62.199219 38.65625 62.269531 38.714844 62.277344 38.78125 C 62.320312 39.230469 62.253906 39.667969 62.097656 40.089844 C 62.015625 40.3125 61.917969 40.523438 61.804688 40.730469 C 61.140625 41.9375 61.339844 43.289062 62.316406 44.242188 C 62.648438 44.566406 63.019531 44.851562 63.378906 45.148438 C 63.558594 45.296875 63.746094 45.433594 63.9375 45.570312 C 64.167969 45.742188 64.304688 45.964844 64.382812 46.246094 C 64.476562 46.59375 64.605469 46.929688 64.722656 47.269531 C 64.992188 47.410156 65.253906 47.550781 65.515625 47.691406 C 65.777344 47.828125 66.039062 47.964844 66.347656 48.128906 C 66.363281 48.003906 66.390625 47.925781 66.375 47.851562 C 66.261719 47.3125 66.136719 46.777344 66.023438 46.234375 C 65.976562 46.027344 65.9375 45.816406 65.902344 45.609375 C 65.804688 45 65.695312 44.394531 65.609375 43.78125 C 65.550781 43.363281 65.492188 42.9375 65.492188 42.515625 C 65.492188 41.152344 65.34375 39.800781 65.1875 38.449219 C 65.09375 37.648438 65.125 36.835938 65.105469 36.027344 C 65.101562 35.816406 65.109375 35.601562 65.128906 35.390625 C 65.15625 35.078125 65.078125 34.792969 64.863281 34.566406 C 64.578125 34.253906 64.277344 33.953125 63.976562 33.652344 C 63.78125 33.457031 63.542969 33.417969 63.269531 33.445312 C 62.730469 33.496094 62.25 33.730469 61.757812 33.917969 C 61.578125 33.988281 61.417969 34.109375 61.238281 34.167969 C 60.667969 34.339844 60.441406 34.78125 60.382812 35.3125 C 60.324219 35.832031 60.117188 36.289062 59.945312 36.769531 C 59.757812 37.296875 59.359375 37.464844 58.847656 37.449219 C 58.707031 37.445312 58.574219 37.390625 58.425781 37.355469 C 58.453125 37.296875 58.457031 37.273438 58.46875 37.269531 C 58.929688 37.152344 59.179688 36.851562 59.277344 36.394531 C 59.382812 35.902344 59.617188 35.441406 59.699219 34.902344 C 59.429688 34.871094 59.207031 34.921875 58.980469 34.980469 C 58.421875 35.128906 57.855469 35.167969 57.273438 35.15625 C 56.683594 35.144531 56.152344 34.945312 55.628906 34.710938 C 55.214844 34.523438 55.074219 34.277344 55.039062 33.808594 C 55.363281 33.679688 55.667969 33.757812 55.933594 33.945312 C 56.289062 34.195312 56.6875 34.339844 57.097656 34.449219 C 57.382812 34.527344 57.679688 34.59375 57.972656 34.589844 C 58.675781 34.589844 59.363281 34.449219 60.035156 34.222656 C 60.054688 34.214844 60.074219 34.207031 60.09375 34.199219 C 60.945312 33.722656 61.867188 33.40625 62.765625 33.03125 C 62.78125 33.027344 62.792969 33.003906 62.8125 32.980469 C 62.832031 32.84375 62.707031 32.808594 62.625 32.777344 C 61.929688 32.511719 61.238281 32.238281 60.53125 32.011719 C 60.234375 31.917969 59.902344 31.910156 59.585938 31.90625 C 58.902344 31.886719 58.226562 31.855469 57.550781 31.734375 C 56.78125 31.597656 56.082031 31.320312 55.480469 30.8125 C 55.351562 30.707031 55.210938 30.613281 55.078125 30.519531 C 54.8125 30.617188 54.570312 30.695312 54.335938 30.792969 C 54.019531 30.921875 53.710938 31.082031 53.507812 31.363281 C 53.347656 31.585938 53.132812 31.695312 52.894531 31.792969 C 52.316406 32.027344 51.738281 32.199219 51.097656 32.121094 C 50.539062 32.046875 50.105469 31.757812 49.71875 31.382812 C 49.535156 31.203125 49.527344 31.058594 49.601562 30.722656 C 49.898438 30.898438 50.230469 30.976562 50.480469 31.214844 C 50.714844 31.4375 51.011719 31.496094 51.3125 31.4375 C 51.984375 31.3125 52.609375 31.070312 53.15625 30.644531 C 53.371094 30.476562 53.632812 30.367188 53.878906 30.242188 C 54.046875 30.15625 54.230469 30.097656 54.441406 30.011719 C 54.394531 29.878906 54.367188 29.757812 54.304688 29.660156 C 54.21875 29.519531 54.097656 29.394531 54 29.253906 C 53.679688 28.796875 53.429688 28.308594 53.34375 27.75 C 53.308594 27.515625 53.257812 27.289062 53.203125 27.058594 C 53.113281 26.648438 53.136719 26.257812 53.371094 25.894531 C 53.46875 25.738281 53.550781 25.574219 53.671875 25.355469 C 53.953125 25.785156 54.210938 26.152344 54.195312 26.617188 C 54.167969 27.371094 54.40625 28.050781 54.800781 28.664062 C 55.117188 29.160156 55.527344 29.601562 55.914062 30.046875 C 56.078125 30.234375 56.296875 30.371094 56.535156 30.566406 C 56.640625 30.234375 56.476562 29.992188 56.449219 29.734375 C 56.425781 29.460938 56.40625 29.183594 56.40625 28.90625 C 56.40625 28.609375 56.417969 28.3125 56.453125 28.015625 C 56.484375 27.742188 56.546875 27.472656 56.613281 27.207031 C 56.675781 26.941406 56.761719 26.679688 56.839844 26.394531 C 56.53125 26.226562 56.25 26.085938 55.980469 25.929688 C 55.570312 25.691406 55.328125 25.316406 55.214844 24.871094 C 55.105469 24.457031 55.101562 24.035156 55.375 23.605469 C 55.46875 23.671875 55.585938 23.710938 55.613281 23.785156 C 55.683594 23.957031 55.734375 24.144531 55.753906 24.328125 C 55.816406 24.828125 56.035156 25.214844 56.476562 25.46875 C 56.660156 25.570312 56.835938 25.691406 57.039062 25.820312 C 57.46875 25.394531 57.667969 24.851562 57.863281 24.324219 C 58.058594 23.800781 58.144531 23.234375 58.277344 22.699219 C 58.519531 22.667969 58.65625 22.78125 58.730469 22.933594 C 58.875 23.242188 58.988281 23.566406 58.84375 23.917969 C 58.773438 24.09375 58.710938 24.277344 58.628906 24.445312 C 58.390625 24.921875 58.164062 25.402344 57.902344 25.867188 C 57.636719 26.335938 57.449219 26.824219 57.335938 27.347656 C 57.3125 27.476562 57.285156 27.601562 57.246094 27.71875 C 56.984375 28.453125 57.089844 29.191406 57.207031 29.925781 C 57.277344 30.363281 57.542969 30.667969 57.910156 30.863281 C 58.164062 31 58.398438 31.210938 58.714844 31.21875 C 59.074219 31.511719 59.507812 31.4375 59.925781 31.464844 C 60.285156 31.488281 60.644531 31.542969 61.003906 31.585938 C 61.144531 31.601562 61.28125 31.625 61.425781 31.648438 C 61.460938 31.273438 61.449219 30.925781 61.535156 30.609375 C 61.621094 30.289062 61.804688 29.992188 61.949219 29.683594 C 61.820312 29.40625 61.589844 29.320312 61.332031 29.265625 C 60.980469 29.191406 60.625 29.113281 60.273438 29.035156 C 59.886719 28.945312 59.59375 28.699219 59.320312 28.425781 C 59.261719 28.363281 59.199219 28.296875 59.175781 28.21875 C 58.984375 27.605469 58.878906 26.988281 59.023438 26.292969 C 59.125 26.347656 59.21875 26.367188 59.25 26.421875 C 59.386719 26.65625 59.5625 26.875 59.597656 27.164062 C 59.640625 27.550781 59.867188 27.828125 60.152344 28.066406 C 60.414062 28.285156 60.707031 28.453125 61.035156 28.5625 C 61.480469 28.707031 61.914062 28.875 62.414062 29.058594 C 62.671875 28.996094 62.878906 28.730469 63.121094 28.539062 C 63.386719 28.328125 63.617188 28.074219 63.875 27.851562 C 64.207031 27.566406 64.425781 27.210938 64.578125 26.804688 C 64.671875 26.546875 64.777344 26.289062 64.878906 26.03125 C 64.902344 25.976562 64.933594 25.917969 64.980469 25.808594 C 65.300781 26.292969 65.273438 26.722656 65.144531 27.109375 C 65.023438 27.480469 64.769531 27.808594 64.554688 28.195312 C 64.558594 28.289062 64.683594 28.316406 64.773438 28.335938 C 65.105469 28.40625 65.4375 28.496094 65.773438 28.496094 C 66.0625 28.496094 66.351562 28.375 66.640625 28.320312 C 66.777344 28.292969 66.921875 28.296875 67.113281 28.285156 C 67.070312 28.417969 67.070312 28.515625 67.023438 28.566406 C 66.804688 28.804688 66.554688 28.988281 66.21875 29.042969 C 65.105469 29.214844 64.976562 29.214844 63.859375 28.742188 C 63.242188 29.113281 62.695312 29.554688 62.347656 30.230469 C 62.09375 30.730469 62.148438 31.214844 62.261719 31.714844 C 62.324219 31.992188 62.527344 32.136719 62.785156 32.226562 C 63.449219 32.460938 64.0625 32.800781 64.613281 33.246094 C 64.84375 33.433594 65.0625 33.628906 65.277344 33.8125 C 65.492188 33.773438 65.496094 33.605469 65.546875 33.472656 C 65.867188 32.6875 66.140625 31.878906 66.570312 31.140625 C 67.011719 30.382812 67.363281 29.585938 67.675781 28.773438 C 68.042969 27.8125 68.195312 26.808594 68.21875 25.796875 C 68.042969 25.554688 67.792969 25.480469 67.558594 25.390625 C 67.042969 25.195312 66.527344 24.992188 66.011719 24.796875 C 65.394531 24.5625 64.777344 24.335938 64.167969 24.105469 C 63.820312 24.171875 63.515625 24.300781 63.242188 24.523438 C 62.679688 24.984375 62.023438 25.296875 61.355469 25.574219 C 60.527344 25.917969 59.980469 25.578125 59.902344 24.675781 C 59.894531 24.617188 59.917969 24.554688 59.9375 24.441406 C 60.039062 24.492188 60.132812 24.519531 60.203125 24.574219 C 60.320312 24.664062 60.410156 24.792969 60.535156 24.863281 C 60.902344 25.070312 61.289062 25.148438 61.691406 24.949219 C 62.316406 24.636719 62.941406 24.320312 63.46875 23.777344 C 63.339844 23.667969 63.234375 23.574219 63.125 23.488281 C 62.542969 23.039062 62.269531 22.457031 62.308594 21.714844 C 62.328125 21.351562 62.480469 21.058594 62.707031 20.800781 C 62.761719 20.738281 62.898438 20.71875 62.992188 20.730469 C 63.125 20.75 63.222656 20.84375 63.222656 20.992188 C 63.21875 21.140625 63.207031 21.289062 63.1875 21.4375 C 63.085938 22.21875 63.429688 22.792969 64.039062 23.234375 C 64.160156 23.320312 64.289062 23.394531 64.425781 23.457031 C 64.808594 23.628906 65.191406 23.792969 65.625 23.980469 C 65.65625 23.828125 65.703125 23.710938 65.695312 23.597656 C 65.664062 23.027344 65.8125 22.507812 66.101562 22.015625 C 66.328125 21.625 66.460938 21.199219 66.476562 20.742188 C 66.484375 20.597656 66.503906 20.441406 66.554688 20.304688 C 66.570312 20.253906 66.695312 20.195312 66.757812 20.207031 C 67.042969 20.253906 67.1875 20.398438 67.179688 20.675781 C 67.171875 20.925781 67.128906 21.183594 67.050781 21.421875 C 66.972656 21.660156 66.84375 21.886719 66.714844 22.109375 C 66.410156 22.621094 66.34375 23.183594 66.347656 23.765625 C 66.351562 24.074219 66.46875 24.292969 66.75 24.429688 C 67.25 24.671875 67.785156 24.800781 68.316406 25 C 68.496094 24.664062 68.507812 24.34375 68.554688 24.039062 C 68.585938 23.828125 68.589844 23.617188 68.601562 23.402344 C 68.628906 22.765625 68.65625 22.128906 68.683594 21.492188 C 68.695312 21.152344 68.691406 20.816406 68.59375 20.484375 C 68.5 20.164062 68.644531 19.980469 68.964844 19.96875 C 69.132812 19.960938 69.308594 19.972656 69.46875 20.015625 C 69.777344 20.101562 69.984375 20.402344 69.902344 20.691406 C 69.804688 21.050781 69.816406 21.410156 69.820312 21.769531 C 69.835938 23.265625 69.625 24.738281 69.40625 26.207031 C 69.339844 26.648438 69.269531 27.089844 69.214844 27.53125 C 69.203125 27.648438 69.238281 27.773438 69.253906 27.933594 C 69.949219 27.734375 70.628906 27.75 71.308594 27.734375 C 71.757812 27.726562 72.066406 27.457031 72.277344 27.101562 C 72.40625 26.890625 72.46875 26.632812 72.515625 26.386719 C 72.554688 26.179688 72.535156 25.960938 72.539062 25.75 C 72.550781 25.28125 72.5625 24.816406 72.574219 24.292969 C 72.503906 24.238281 72.386719 24.15625 72.273438 24.070312 C 71.871094 23.761719 71.605469 23.386719 71.492188 22.875 C 71.351562 22.261719 71.324219 21.65625 71.378906 21.039062 C 71.394531 20.863281 71.425781 20.703125 71.546875 20.570312 C 71.65625 20.445312 71.808594 20.402344 71.945312 20.464844 C 72.078125 20.523438 72.136719 20.632812 72.128906 20.769531 C 72.109375 21.046875 72.085938 21.320312 72.050781 21.59375 C 71.984375 22.132812 71.996094 22.65625 72.238281 23.15625 C 72.375 23.441406 72.386719 23.460938 72.753906 23.660156 C 72.789062 23.640625 72.839844 23.625 72.859375 23.59375 C 73.320312 22.882812 73.992188 22.464844 74.769531 22.183594 C 74.988281 22.101562 75.203125 22.003906 75.425781 21.949219 C 75.503906 21.933594 75.628906 22.003906 75.6875 22.070312 C 75.71875 22.101562 75.6875 22.246094 75.640625 22.289062 C 75.417969 22.480469 75.175781 22.660156 74.9375 22.835938 C 74.75 22.972656 74.558594 23.105469 74.359375 23.230469 C 73.953125 23.480469 73.730469 23.871094 73.59375 24.296875 C 73.484375 24.636719 73.441406 25 73.390625 25.355469 C 73.351562 25.628906 73.339844 25.90625 73.324219 26.183594 C 73.296875 26.707031 73.167969 27.1875 72.777344 27.566406 C 72.75 27.59375 72.753906 27.644531 72.734375 27.722656 C 73.195312 27.945312 73.703125 27.933594 74.226562 28 C 74.261719 27.890625 74.324219 27.796875 74.324219 27.699219 C 74.320312 27.097656 74.621094 26.640625 75.042969 26.257812 C 75.496094 25.847656 75.957031 25.429688 76.457031 25.078125 C 77.003906 24.695312 77.40625 24.238281 77.589844 23.59375 C 77.621094 23.492188 77.660156 23.394531 77.710938 23.300781 C 77.804688 23.136719 78.027344 23.152344 78.128906 23.316406 C 78.226562 23.46875 78.238281 23.628906 78.199219 23.804688 C 78.058594 24.414062 77.722656 24.882812 77.195312 25.226562 C 76.769531 25.503906 76.351562 25.792969 75.9375 26.089844 C 75.636719 26.296875 75.378906 26.546875 75.179688 26.855469 C 74.953125 27.214844 74.855469 27.589844 74.992188 28.03125 C 75.503906 28.203125 76.035156 28.183594 76.554688 28.09375 C 77.164062 27.988281 77.75 27.785156 78.300781 27.496094 C 78.820312 27.226562 79.214844 26.8125 79.546875 26.335938 C 79.667969 26.160156 79.769531 25.972656 79.910156 25.8125 C 80 25.707031 80.132812 25.636719 80.253906 25.550781 C 80.503906 25.691406 80.574219 25.914062 80.675781 26.125 C 80.316406 26.859375 79.773438 27.410156 79.171875 27.921875 C 78.550781 28.449219 77.785156 28.644531 76.984375 28.949219 C 77.113281 29.035156 77.179688 29.117188 77.261719 29.132812 C 77.46875 29.179688 77.679688 29.230469 77.886719 29.21875 C 78.867188 29.175781 79.824219 29.015625 80.773438 28.753906 C 81.441406 28.566406 82.0625 28.328125 82.613281 27.914062 C 82.664062 27.878906 82.730469 27.875 82.785156 27.855469 C 82.976562 27.925781 83.011719 28.082031 82.933594 28.21875 C 82.816406 28.417969 82.683594 28.628906 82.5 28.753906 C 82.222656 28.941406 81.910156 29.109375 81.589844 29.195312 C 80.769531 29.410156 79.9375 29.605469 79.105469 29.746094 C 78.628906 29.828125 78.128906 29.804688 77.640625 29.789062 C 77.296875 29.78125 76.976562 29.640625 76.695312 29.441406 C 76.554688 29.34375 76.414062 29.246094 76.292969 29.128906 C 76.109375 28.964844 75.90625 28.878906 75.667969 28.84375 C 74.699219 28.707031 73.730469 28.554688 72.761719 28.414062 C 71.917969 28.285156 71.066406 28.289062 70.21875 28.398438 C 69.988281 28.425781 69.753906 28.46875 69.535156 28.546875 C 69.148438 28.6875 68.832031 28.917969 68.660156 29.324219 C 68.371094 30.011719 68.003906 30.65625 67.632812 31.304688 C 67.125 32.191406 66.785156 33.160156 66.457031 34.125 C 66.425781 34.226562 66.410156 34.335938 66.402344 34.441406 C 66.277344 35.859375 66.214844 37.28125 66.40625 38.703125 C 66.46875 39.1875 66.480469 39.679688 66.519531 40.167969 C 66.527344 40.289062 66.550781 40.410156 66.574219 40.585938 C 66.6875 40.53125 66.761719 40.507812 66.824219 40.464844 C 66.992188 40.339844 67.167969 40.210938 67.324219 40.066406 C 67.898438 39.539062 68.570312 39.191406 69.320312 38.984375 C 69.382812 38.96875 69.4375 38.933594 69.488281 38.914062 C 69.558594 38.78125 69.464844 38.707031 69.402344 38.628906 C 69.09375 38.25 68.929688 37.824219 68.945312 37.335938 C 68.949219 37.085938 68.878906 36.878906 68.671875 36.722656 C 68.601562 36.671875 68.550781 36.605469 68.488281 36.542969 C 67.914062 35.953125 67.703125 35.242188 67.839844 34.433594 C 67.886719 34.140625 67.933594 33.84375 68.03125 33.566406 C 68.292969 32.832031 68.785156 32.289062 69.484375 31.945312 C 69.902344 31.742188 70.339844 31.597656 70.859375 31.480469 C 70.824219 31.605469 70.832031 31.703125 70.785156 31.742188 C 70.59375 31.90625 70.382812 32.050781 70.183594 32.207031 C 69.921875 32.421875 69.640625 32.621094 69.410156 32.867188 C 68.738281 33.601562 68.46875 34.464844 68.660156 35.457031 C 68.710938 35.710938 68.8125 35.9375 68.996094 36.1875 C 69.074219 36.082031 69.164062 36.015625 69.183594 35.933594 C 69.335938 35.363281 69.660156 34.886719 70.003906 34.425781 C 70.351562 33.960938 70.851562 33.65625 71.351562 33.375 C 71.683594 33.1875 72.039062 33.035156 72.390625 32.894531 C 72.886719 32.699219 73.390625 32.535156 73.886719 32.347656 C 74.308594 32.191406 74.695312 31.964844 75.027344 31.65625 C 75.132812 31.558594 75.242188 31.464844 75.351562 31.367188 C 75.636719 31.628906 75.675781 31.914062 75.4375 32.191406 C 75.285156 32.363281 75.09375 32.515625 74.890625 32.617188 C 74.550781 32.792969 74.199219 32.949219 73.835938 33.066406 C 73.1875 33.28125 72.5625 33.535156 71.945312 33.824219 C 71.363281 34.097656 70.980469 34.574219 70.5625 35.023438 C 70.535156 35.050781 70.519531 35.097656 70.511719 35.136719 C 70.503906 35.175781 70.515625 35.21875 70.523438 35.292969 C 70.625 35.28125 70.730469 35.285156 70.824219 35.257812 C 71.425781 35.074219 72.035156 35.046875 72.652344 35.152344 C 73.175781 35.242188 73.703125 35.308594 74.207031 35.492188 C 74.714844 35.679688 75.238281 35.730469 75.769531 35.570312 C 75.910156 35.527344 76.070312 35.496094 76.175781 35.644531 C 76.261719 35.761719 76.140625 36.007812 75.945312 36.113281 C 75.617188 36.292969 75.265625 36.359375 74.898438 36.265625 C 74.445312 36.152344 73.992188 36.039062 73.542969 35.898438 C 72.84375 35.679688 72.128906 35.625 71.402344 35.65625 C 71.027344 35.675781 70.699219 35.8125 70.375 35.976562 C 70.203125 36.066406 70.042969 36.199219 70.011719 36.398438 C 69.9375 36.898438 69.765625 37.394531 69.886719 37.910156 C 69.929688 38.070312 69.996094 38.230469 70.066406 38.382812 C 70.203125 38.6875 70.425781 38.820312 70.777344 38.78125 C 71.566406 38.703125 72.339844 38.816406 73.121094 38.957031 C 74.335938 39.171875 75.542969 39.417969 76.746094 39.695312 C 77.09375 39.773438 77.203125 39.714844 77.339844 39.394531 C 77.492188 39.03125 77.527344 38.652344 77.496094 38.265625 C 77.449219 37.566406 77.378906 36.867188 77.160156 36.195312 C 77.011719 35.722656 76.976562 35.234375 77.011719 34.742188 C 77.0625 34.101562 77.308594 33.539062 77.761719 33.09375 C 78.066406 32.796875 78.390625 32.515625 78.746094 32.289062 C 79.210938 31.996094 79.707031 31.742188 80.203125 31.503906 C 81.054688 31.105469 81.878906 30.679688 82.609375 30.074219 C 82.949219 29.789062 83.347656 29.570312 83.722656 29.332031 C 83.8125 29.273438 83.957031 29.375 83.945312 29.476562 C 83.925781 29.691406 83.875 29.890625 83.730469 30.0625 C 83.171875 30.726562 82.503906 31.230469 81.722656 31.597656 C 80.988281 31.933594 80.269531 32.300781 79.550781 32.664062 C 79.40625 32.738281 79.285156 32.859375 79.152344 32.957031 C 79.203125 33.015625 79.230469 33.070312 79.253906 33.066406 C 79.902344 32.992188 80.519531 33.128906 81.132812 33.308594 C 81.582031 33.441406 82.03125 33.578125 82.484375 33.6875 C 83.238281 33.871094 83.917969 33.675781 84.523438 33.222656 C 84.882812 32.953125 85.207031 32.644531 85.542969 32.351562 C 85.640625 32.269531 85.726562 32.171875 85.832031 32.105469 C 85.898438 32.0625 85.996094 32.042969 86.066406 32.066406 C 86.136719 32.085938 86.1875 32.167969 86.269531 32.242188 C 85.980469 32.878906 85.625 33.46875 85.09375 33.890625 C 84.4375 34.414062 83.648438 34.613281 82.8125 34.433594 C 82.191406 34.300781 81.570312 34.136719 80.96875 33.941406 C 80.40625 33.761719 79.84375 33.707031 79.269531 33.765625 C 79.082031 33.785156 78.894531 33.847656 78.714844 33.902344 C 78.554688 33.949219 78.394531 34.011719 78.210938 34.078125 C 77.890625 34.507812 77.914062 35.019531 77.976562 35.527344 C 78.023438 35.925781 78.136719 36.316406 78.207031 36.714844 C 78.28125 37.132812 78.351562 37.554688 78.394531 37.976562 C 78.453125 38.617188 78.421875 39.25 78.089844 39.84375 C 78.402344 40.035156 78.730469 40 79.039062 40.003906 C 80.261719 40.011719 81.460938 39.882812 82.597656 39.394531 C 82.90625 39.261719 83.238281 39.160156 83.4375 38.875 C 83.429688 38.695312 83.289062 38.667969 83.1875 38.601562 C 82.703125 38.285156 82.417969 37.824219 82.203125 37.304688 C 82.035156 36.898438 82.070312 36.511719 82.300781 36.144531 C 82.402344 35.984375 82.503906 35.820312 82.632812 35.679688 C 82.695312 35.617188 82.832031 35.570312 82.910156 35.59375 C 82.988281 35.621094 83.074219 35.742188 83.089844 35.828125 C 83.113281 35.949219 83.09375 36.085938 83.050781 36.199219 C 82.902344 36.574219 82.847656 36.949219 83.023438 37.316406 C 83.222656 37.738281 83.472656 38.132812 83.914062 38.371094 C 84.164062 38.304688 84.300781 38.109375 84.445312 37.933594 C 84.921875 37.351562 85.246094 36.679688 85.605469 36.03125 C 85.832031 35.621094 86.082031 35.226562 86.324219 34.828125 C 86.367188 34.757812 86.441406 34.714844 86.507812 34.652344 C 86.824219 34.738281 86.949219 34.976562 87.023438 35.222656 C 86.804688 36.117188 86.390625 36.914062 85.980469 37.699219 C 85.328125 38.96875 84.3125 39.828125 82.90625 40.191406 C 82.621094 40.265625 82.339844 40.34375 82.0625 40.417969 C 81.988281 41.09375 82.203125 41.636719 82.691406 42.003906 C 82.945312 42.195312 83.214844 42.367188 83.542969 42.425781 C 83.652344 42.445312 83.75 42.492188 83.753906 42.621094 C 83.761719 42.761719 83.683594 42.863281 83.554688 42.914062 C 83.371094 42.988281 83.183594 42.96875 83 42.890625 C 82.113281 42.5 81.460938 41.910156 81.304688 40.898438 C 81.296875 40.835938 81.269531 40.777344 81.246094 40.71875 C 81.238281 40.699219 81.222656 40.683594 81.164062 40.621094 C 81.085938 40.621094 80.960938 40.617188 80.84375 40.621094 C 79.542969 40.703125 78.25 40.667969 76.96875 40.40625 C 76.679688 40.347656 76.390625 40.261719 76.101562 40.199219 C 75.25 40.019531 74.394531 39.84375 73.542969 39.671875 C 73.480469 39.660156 73.414062 39.667969 73.289062 39.667969 C 73.367188 39.753906 73.402344 39.820312 73.460938 39.855469 C 74.871094 40.644531 76.011719 41.757812 77.109375 42.917969 C 77.195312 43.007812 77.28125 43.105469 77.363281 43.203125 C 78.304688 44.386719 79.570312 44.625 80.972656 44.433594 C 81.503906 44.363281 82.019531 44.246094 82.507812 44.019531 C 82.59375 43.980469 82.703125 44 82.839844 43.988281 C 82.8125 44.277344 82.707031 44.457031 82.511719 44.609375 C 82.101562 44.9375 81.640625 45.144531 81.117188 45.164062 C 80.695312 45.175781 80.269531 45.152344 79.84375 45.140625 C 79.636719 45.136719 79.425781 45.121094 79.179688 45.105469 C 79.128906 45.417969 79.085938 45.703125 79.046875 45.992188 C 78.980469 46.414062 78.929688 46.835938 78.839844 47.25 C 78.75 47.660156 78.777344 48.046875 78.96875 48.429688 C 79.042969 48.570312 79.085938 48.730469 79.136719 48.871094 " fill-opacity="1" fill-rule="evenodd"/></g><g fill="#0661aa" fill-opacity="1"><g transform="translate(39.209214, 87.301692)"><g><path d="M 9.625 0.296875 C 8.988281 0.296875 8.46875 0.117188 8.0625 -0.234375 C 7.664062 -0.585938 7.398438 -1.0625 7.265625 -1.65625 L 6.734375 -3.65625 C 6.648438 -4 6.492188 -4.285156 6.265625 -4.515625 C 6.035156 -4.742188 5.757812 -4.859375 5.4375 -4.859375 L 3.953125 -4.859375 L 3.953125 0 L 0.890625 0 L 0.890625 -12.765625 L 6.4375 -12.765625 C 7.925781 -12.765625 9.097656 -12.410156 9.953125 -11.703125 C 10.816406 -10.992188 11.25 -10.019531 11.25 -8.78125 C 11.25 -7.96875 11.007812 -7.253906 10.53125 -6.640625 C 10.0625 -6.035156 9.398438 -5.625 8.546875 -5.40625 L 8.546875 -5.390625 C 8.890625 -5.242188 9.148438 -5.039062 9.328125 -4.78125 C 9.503906 -4.519531 9.632812 -4.210938 9.71875 -3.859375 L 10.09375 -2.34375 C 10.1875 -1.914062 10.390625 -1.703125 10.703125 -1.703125 C 10.960938 -1.703125 11.210938 -1.851562 11.453125 -2.15625 L 12.109375 -0.703125 C 11.816406 -0.390625 11.445312 -0.144531 11 0.03125 C 10.550781 0.207031 10.09375 0.296875 9.625 0.296875 Z M 3.953125 -6.9375 L 6.171875 -6.9375 C 6.773438 -6.9375 7.257812 -7.097656 7.625 -7.421875 C 7.988281 -7.742188 8.171875 -8.171875 8.171875 -8.703125 C 8.171875 -9.265625 7.988281 -9.703125 7.625 -10.015625 C 7.257812 -10.335938 6.773438 -10.5 6.171875 -10.5 L 3.953125 -10.5 Z M 3.953125 -6.9375 "/></g></g></g><g fill="#0661aa" fill-opacity="1"><g transform="translate(53.130436, 87.301692)"><g><path d="M 5.359375 0.296875 C 4.367188 0.296875 3.492188 0.0976562 2.734375 -0.296875 C 1.984375 -0.703125 1.398438 -1.28125 0.984375 -2.03125 C 0.578125 -2.78125 0.375 -3.648438 0.375 -4.640625 C 0.375 -5.617188 0.5625 -6.46875 0.9375 -7.1875 C 1.3125 -7.914062 1.835938 -8.484375 2.515625 -8.890625 C 3.203125 -9.296875 4.003906 -9.5 4.921875 -9.5 C 5.804688 -9.5 6.570312 -9.300781 7.21875 -8.90625 C 7.863281 -8.519531 8.367188 -7.976562 8.734375 -7.28125 C 9.097656 -6.582031 9.28125 -5.765625 9.28125 -4.828125 C 9.28125 -4.628906 9.269531 -4.441406 9.25 -4.265625 C 9.238281 -4.097656 9.210938 -3.953125 9.171875 -3.828125 L 3.125 -3.828125 C 3.175781 -3.160156 3.40625 -2.632812 3.8125 -2.25 C 4.21875 -1.863281 4.738281 -1.671875 5.375 -1.671875 C 5.863281 -1.671875 6.296875 -1.789062 6.671875 -2.03125 C 7.046875 -2.269531 7.332031 -2.597656 7.53125 -3.015625 L 9.4375 -2.171875 C 9.175781 -1.398438 8.671875 -0.796875 7.921875 -0.359375 C 7.171875 0.078125 6.316406 0.296875 5.359375 0.296875 Z M 3.125 -5.390625 L 6.5625 -5.390625 C 6.519531 -6.054688 6.351562 -6.578125 6.0625 -6.953125 C 5.78125 -7.328125 5.394531 -7.515625 4.90625 -7.515625 C 4.394531 -7.515625 3.984375 -7.320312 3.671875 -6.9375 C 3.359375 -6.5625 3.175781 -6.046875 3.125 -5.390625 Z M 3.125 -5.390625 "/></g></g></g><g fill="#0661aa" fill-opacity="1"><g transform="translate(65.027071, 87.301692)"><g><path d="M 4.4375 0.28125 C 3.6875 0.28125 3.003906 0.164062 2.390625 -0.0625 C 1.773438 -0.289062 1.28125 -0.640625 0.90625 -1.109375 C 0.53125 -1.578125 0.320312 -2.15625 0.28125 -2.84375 L 2.703125 -3.15625 C 2.722656 -2.644531 2.90625 -2.242188 3.25 -1.953125 C 3.59375 -1.660156 4.019531 -1.515625 4.53125 -1.515625 C 4.945312 -1.515625 5.296875 -1.601562 5.578125 -1.78125 C 5.867188 -1.96875 6.015625 -2.203125 6.015625 -2.484375 C 6.015625 -2.765625 5.890625 -2.988281 5.640625 -3.15625 C 5.390625 -3.332031 4.984375 -3.488281 4.421875 -3.625 L 3.21875 -3.921875 C 2.320312 -4.140625 1.675781 -4.457031 1.28125 -4.875 C 0.882812 -5.289062 0.6875 -5.847656 0.6875 -6.546875 C 0.6875 -7.453125 1.019531 -8.164062 1.6875 -8.6875 C 2.363281 -9.207031 3.238281 -9.46875 4.3125 -9.46875 C 4.957031 -9.46875 5.550781 -9.359375 6.09375 -9.140625 C 6.632812 -8.921875 7.070312 -8.601562 7.40625 -8.1875 C 7.75 -7.78125 7.953125 -7.269531 8.015625 -6.65625 L 5.625 -6.359375 C 5.601562 -6.785156 5.460938 -7.113281 5.203125 -7.34375 C 4.953125 -7.570312 4.628906 -7.6875 4.234375 -7.6875 C 3.878906 -7.6875 3.59375 -7.597656 3.375 -7.421875 C 3.15625 -7.253906 3.046875 -7.046875 3.046875 -6.796875 C 3.046875 -6.546875 3.160156 -6.335938 3.390625 -6.171875 C 3.617188 -6.015625 3.984375 -5.863281 4.484375 -5.71875 L 5.71875 -5.40625 C 6.6875 -5.164062 7.394531 -4.832031 7.84375 -4.40625 C 8.300781 -3.976562 8.535156 -3.414062 8.546875 -2.71875 C 8.546875 -2.101562 8.367188 -1.570312 8.015625 -1.125 C 7.660156 -0.675781 7.175781 -0.328125 6.5625 -0.078125 C 5.945312 0.160156 5.238281 0.28125 4.4375 0.28125 Z M 4.4375 0.28125 "/></g></g></g><g fill="#0661aa" fill-opacity="1"><g transform="translate(75.974132, 87.301692)"><g><path d="M 5.359375 0.296875 C 4.367188 0.296875 3.492188 0.0976562 2.734375 -0.296875 C 1.984375 -0.703125 1.398438 -1.28125 0.984375 -2.03125 C 0.578125 -2.78125 0.375 -3.648438 0.375 -4.640625 C 0.375 -5.617188 0.5625 -6.46875 0.9375 -7.1875 C 1.3125 -7.914062 1.835938 -8.484375 2.515625 -8.890625 C 3.203125 -9.296875 4.003906 -9.5 4.921875 -9.5 C 5.804688 -9.5 6.570312 -9.300781 7.21875 -8.90625 C 7.863281 -8.519531 8.367188 -7.976562 8.734375 -7.28125 C 9.097656 -6.582031 9.28125 -5.765625 9.28125 -4.828125 C 9.28125 -4.628906 9.269531 -4.441406 9.25 -4.265625 C 9.238281 -4.097656 9.210938 -3.953125 9.171875 -3.828125 L 3.125 -3.828125 C 3.175781 -3.160156 3.40625 -2.632812 3.8125 -2.25 C 4.21875 -1.863281 4.738281 -1.671875 5.375 -1.671875 C 5.863281 -1.671875 6.296875 -1.789062 6.671875 -2.03125 C 7.046875 -2.269531 7.332031 -2.597656 7.53125 -3.015625 L 9.4375 -2.171875 C 9.175781 -1.398438 8.671875 -0.796875 7.921875 -0.359375 C 7.171875 0.078125 6.316406 0.296875 5.359375 0.296875 Z M 3.125 -5.390625 L 6.5625 -5.390625 C 6.519531 -6.054688 6.351562 -6.578125 6.0625 -6.953125 C 5.78125 -7.328125 5.394531 -7.515625 4.90625 -7.515625 C 4.394531 -7.515625 3.984375 -7.320312 3.671875 -6.9375 C 3.359375 -6.5625 3.175781 -6.046875 3.125 -5.390625 Z M 3.125 -5.390625 "/></g></g></g><g fill="#0661aa" fill-opacity="1"><g transform="translate(87.727432, 87.301692)"><g><path d="M 4.90625 0.28125 C 3.851562 0.28125 3.039062 -0.00390625 2.46875 -0.578125 C 1.90625 -1.148438 1.625 -1.925781 1.625 -2.90625 L 1.609375 -7.09375 L 0.078125 -7.09375 L 0.078125 -9.171875 L 1.625 -9.171875 L 1.625 -11.609375 L 4.359375 -12.21875 L 4.359375 -9.171875 L 7.484375 -9.171875 L 7.484375 -7.09375 L 4.359375 -7.09375 L 4.375 -3.390625 C 4.375 -2.929688 4.476562 -2.570312 4.6875 -2.3125 C 4.90625 -2.0625 5.195312 -1.9375 5.5625 -1.9375 C 6.238281 -1.9375 6.734375 -2.3125 7.046875 -3.0625 L 7.9375 -1.390625 C 7.65625 -0.859375 7.25 -0.445312 6.71875 -0.15625 C 6.1875 0.132812 5.582031 0.28125 4.90625 0.28125 Z M 4.90625 0.28125 "/></g></g></g><g fill="#0661aa" fill-opacity="1"><g transform="translate(18.551392, 108.950995)"><g><path d="M 0.890625 0 L 0.890625 -12.765625 L 6.75 -12.765625 C 8.09375 -12.765625 9.128906 -12.46875 9.859375 -11.875 C 10.597656 -11.28125 10.96875 -10.4375 10.96875 -9.34375 C 10.96875 -8.625 10.78125 -8.019531 10.40625 -7.53125 C 10.03125 -7.039062 9.5 -6.710938 8.8125 -6.546875 L 8.8125 -6.53125 C 9.59375 -6.375 10.191406 -6.035156 10.609375 -5.515625 C 11.023438 -4.992188 11.234375 -4.328125 11.234375 -3.515625 C 11.234375 -2.398438 10.859375 -1.535156 10.109375 -0.921875 C 9.359375 -0.304688 8.289062 0 6.90625 0 Z M 3.953125 -7.46875 L 6.25 -7.46875 C 6.789062 -7.46875 7.207031 -7.601562 7.5 -7.875 C 7.789062 -8.15625 7.9375 -8.535156 7.9375 -9.015625 C 7.9375 -9.503906 7.789062 -9.878906 7.5 -10.140625 C 7.207031 -10.398438 6.796875 -10.53125 6.265625 -10.53125 L 3.953125 -10.53125 Z M 3.953125 -2.21875 L 6.296875 -2.21875 C 6.890625 -2.21875 7.347656 -2.359375 7.671875 -2.640625 C 8.003906 -2.921875 8.171875 -3.316406 8.171875 -3.828125 C 8.171875 -4.367188 8.003906 -4.785156 7.671875 -5.078125 C 7.347656 -5.367188 6.890625 -5.515625 6.296875 -5.515625 L 3.953125 -5.515625 Z M 3.953125 -2.21875 "/></g></g></g><g fill="#0661aa" fill-opacity="1"><g transform="translate(32.329269, 108.950995)"><g><path d="M 5.625 -9.421875 C 6.375 -9.421875 6.976562 -9.140625 7.4375 -8.578125 C 7.894531 -8.023438 8.144531 -7.234375 8.1875 -6.203125 L 5.875 -5.578125 C 5.863281 -6.171875 5.753906 -6.617188 5.546875 -6.921875 C 5.347656 -7.234375 5.082031 -7.390625 4.75 -7.390625 C 4.34375 -7.390625 4.015625 -7.1875 3.765625 -6.78125 C 3.523438 -6.375 3.40625 -5.8125 3.40625 -5.09375 L 3.40625 0 L 0.6875 0 L 0.6875 -9.171875 L 2.890625 -9.171875 L 3.265625 -7.59375 L 3.28125 -7.59375 C 3.476562 -8.164062 3.785156 -8.613281 4.203125 -8.9375 C 4.628906 -9.257812 5.101562 -9.421875 5.625 -9.421875 Z M 5.625 -9.421875 "/></g></g></g><g fill="#0661aa" fill-opacity="1"><g transform="translate(42.792584, 108.950995)"><g><path d="M 5.359375 0.296875 C 4.367188 0.296875 3.492188 0.0976562 2.734375 -0.296875 C 1.984375 -0.703125 1.398438 -1.28125 0.984375 -2.03125 C 0.578125 -2.78125 0.375 -3.648438 0.375 -4.640625 C 0.375 -5.617188 0.5625 -6.46875 0.9375 -7.1875 C 1.3125 -7.914062 1.835938 -8.484375 2.515625 -8.890625 C 3.203125 -9.296875 4.003906 -9.5 4.921875 -9.5 C 5.804688 -9.5 6.570312 -9.300781 7.21875 -8.90625 C 7.863281 -8.519531 8.367188 -7.976562 8.734375 -7.28125 C 9.097656 -6.582031 9.28125 -5.765625 9.28125 -4.828125 C 9.28125 -4.628906 9.269531 -4.441406 9.25 -4.265625 C 9.238281 -4.097656 9.210938 -3.953125 9.171875 -3.828125 L 3.125 -3.828125 C 3.175781 -3.160156 3.40625 -2.632812 3.8125 -2.25 C 4.21875 -1.863281 4.738281 -1.671875 5.375 -1.671875 C 5.863281 -1.671875 6.296875 -1.789062 6.671875 -2.03125 C 7.046875 -2.269531 7.332031 -2.597656 7.53125 -3.015625 L 9.4375 -2.171875 C 9.175781 -1.398438 8.671875 -0.796875 7.921875 -0.359375 C 7.171875 0.078125 6.316406 0.296875 5.359375 0.296875 Z M 3.125 -5.390625 L 6.5625 -5.390625 C 6.519531 -6.054688 6.351562 -6.578125 6.0625 -6.953125 C 5.78125 -7.328125 5.394531 -7.515625 4.90625 -7.515625 C 4.394531 -7.515625 3.984375 -7.320312 3.671875 -6.9375 C 3.359375 -6.5625 3.175781 -6.046875 3.125 -5.390625 Z M 3.125 -5.390625 "/></g></g></g><g fill="#0661aa" fill-opacity="1"><g transform="translate(54.689219, 108.950995)"><g><path d="M 3.171875 0.21875 C 2.296875 0.21875 1.585938 -0.015625 1.046875 -0.484375 C 0.515625 -0.953125 0.25 -1.578125 0.25 -2.359375 C 0.25 -3.203125 0.566406 -3.878906 1.203125 -4.390625 C 1.847656 -4.910156 2.785156 -5.238281 4.015625 -5.375 L 5.4375 -5.53125 C 5.632812 -5.5625 5.796875 -5.632812 5.921875 -5.75 C 6.046875 -5.875 6.109375 -6.046875 6.109375 -6.265625 C 6.109375 -6.671875 5.984375 -6.984375 5.734375 -7.203125 C 5.484375 -7.421875 5.15625 -7.53125 4.75 -7.53125 C 4.28125 -7.53125 3.898438 -7.367188 3.609375 -7.046875 C 3.328125 -6.722656 3.175781 -6.316406 3.15625 -5.828125 L 0.5625 -6.203125 C 0.582031 -6.847656 0.769531 -7.414062 1.125 -7.90625 C 1.476562 -8.40625 1.960938 -8.796875 2.578125 -9.078125 C 3.191406 -9.359375 3.910156 -9.5 4.734375 -9.5 C 5.984375 -9.5 6.972656 -9.171875 7.703125 -8.515625 C 8.429688 -7.859375 8.796875 -6.96875 8.796875 -5.84375 L 8.796875 -2.296875 C 8.796875 -1.890625 8.945312 -1.6875 9.25 -1.6875 C 9.488281 -1.6875 9.710938 -1.804688 9.921875 -2.046875 L 10.515625 -0.578125 C 10.234375 -0.296875 9.890625 -0.09375 9.484375 0.03125 C 9.078125 0.164062 8.675781 0.234375 8.28125 0.234375 C 7.726562 0.234375 7.265625 0.09375 6.890625 -0.1875 C 6.515625 -0.46875 6.28125 -0.820312 6.1875 -1.25 L 6.140625 -1.484375 L 6.125 -1.484375 C 5.851562 -0.960938 5.457031 -0.546875 4.9375 -0.234375 C 4.425781 0.0664062 3.835938 0.21875 3.171875 0.21875 Z M 4.296875 -1.703125 C 4.816406 -1.703125 5.242188 -1.882812 5.578125 -2.25 C 5.910156 -2.613281 6.078125 -3.085938 6.078125 -3.671875 L 6.078125 -4.109375 L 4.734375 -3.953125 C 4.109375 -3.890625 3.660156 -3.742188 3.390625 -3.515625 C 3.128906 -3.285156 3 -3.015625 3 -2.703125 C 3 -2.410156 3.117188 -2.171875 3.359375 -1.984375 C 3.609375 -1.796875 3.921875 -1.703125 4.296875 -1.703125 Z M 4.296875 -1.703125 "/></g></g></g><g fill="#0661aa" fill-opacity="1"><g transform="translate(66.281267, 108.950995)"><g><path d="M 4.90625 0.28125 C 3.851562 0.28125 3.039062 -0.00390625 2.46875 -0.578125 C 1.90625 -1.148438 1.625 -1.925781 1.625 -2.90625 L 1.609375 -7.09375 L 0.078125 -7.09375 L 0.078125 -9.171875 L 1.625 -9.171875 L 1.625 -11.609375 L 4.359375 -12.21875 L 4.359375 -9.171875 L 7.484375 -9.171875 L 7.484375 -7.09375 L 4.359375 -7.09375 L 4.375 -3.390625 C 4.375 -2.929688 4.476562 -2.570312 4.6875 -2.3125 C 4.90625 -2.0625 5.195312 -1.9375 5.5625 -1.9375 C 6.238281 -1.9375 6.734375 -2.3125 7.046875 -3.0625 L 7.9375 -1.390625 C 7.65625 -0.859375 7.25 -0.445312 6.71875 -0.15625 C 6.1875 0.132812 5.582031 0.28125 4.90625 0.28125 Z M 4.90625 0.28125 "/></g></g></g><g fill="#0661aa" fill-opacity="1"><g transform="translate(76.457913, 108.950995)"><g><path d="M 0.6875 0 L 0.6875 -13.296875 L 3.40625 -13.296875 L 3.40625 -7.609375 L 3.421875 -7.609375 C 3.710938 -8.191406 4.101562 -8.632812 4.59375 -8.9375 C 5.09375 -9.25 5.664062 -9.40625 6.3125 -9.40625 C 7.15625 -9.40625 7.8125 -9.15625 8.28125 -8.65625 C 8.757812 -8.15625 9 -7.445312 9 -6.53125 L 9 0 L 6.25 0 L 6.25 -5.828125 C 6.25 -6.253906 6.140625 -6.585938 5.921875 -6.828125 C 5.710938 -7.066406 5.414062 -7.1875 5.03125 -7.1875 C 4.539062 -7.1875 4.144531 -7.023438 3.84375 -6.703125 C 3.550781 -6.390625 3.40625 -5.953125 3.40625 -5.390625 L 3.40625 0 Z M 0.6875 0 "/></g></g></g><g fill="#0661aa" fill-opacity="1"><g transform="translate(88.193295, 108.950995)"><g><path d="M 2.109375 -10.4375 C 1.617188 -10.4375 1.226562 -10.578125 0.9375 -10.859375 C 0.644531 -11.148438 0.5 -11.523438 0.5 -11.984375 C 0.5 -12.460938 0.644531 -12.84375 0.9375 -13.125 C 1.226562 -13.414062 1.617188 -13.5625 2.109375 -13.5625 C 2.597656 -13.5625 2.988281 -13.414062 3.28125 -13.125 C 3.582031 -12.84375 3.734375 -12.460938 3.734375 -11.984375 C 3.734375 -11.523438 3.582031 -11.148438 3.28125 -10.859375 C 2.988281 -10.578125 2.597656 -10.4375 2.109375 -10.4375 Z M 0.734375 0 L 0.734375 -9.171875 L 3.484375 -9.171875 L 3.484375 0 Z M 0.734375 0 "/></g></g></g><g fill="#0661aa" fill-opacity="1"><g transform="translate(94.535785, 108.950995)"><g><path d="M 6.25 -9.40625 C 7.101562 -9.40625 7.773438 -9.148438 8.265625 -8.640625 C 8.753906 -8.140625 9 -7.4375 9 -6.53125 L 9 0 L 6.25 0 L 6.25 -5.828125 C 6.25 -6.253906 6.140625 -6.585938 5.921875 -6.828125 C 5.710938 -7.066406 5.414062 -7.1875 5.03125 -7.1875 C 4.539062 -7.1875 4.144531 -7.023438 3.84375 -6.703125 C 3.550781 -6.390625 3.40625 -5.953125 3.40625 -5.390625 L 3.40625 0 L 0.6875 0 L 0.6875 -9.171875 L 2.9375 -9.171875 L 3.3125 -7.609375 L 3.328125 -7.609375 C 3.609375 -8.191406 4.003906 -8.632812 4.515625 -8.9375 C 5.023438 -9.25 5.601562 -9.40625 6.25 -9.40625 Z M 6.25 -9.40625 "/></g></g></g><g fill="#0661aa" fill-opacity="1"><g transform="translate(106.271167, 108.950995)"><g><path d="M 4.359375 4.0625 C 3.460938 4.0625 2.613281 3.910156 1.8125 3.609375 C 1.019531 3.316406 0.382812 2.914062 -0.09375 2.40625 L 0.96875 0.4375 C 1.332031 0.851562 1.789062 1.1875 2.34375 1.4375 C 2.90625 1.695312 3.472656 1.828125 4.046875 1.828125 C 4.867188 1.828125 5.523438 1.597656 6.015625 1.140625 C 6.503906 0.679688 6.75 0.0546875 6.75 -0.734375 L 6.75 -1.65625 L 6.734375 -1.65625 C 6.472656 -1.132812 6.09375 -0.71875 5.59375 -0.40625 C 5.09375 -0.101562 4.546875 0.046875 3.953125 0.046875 C 3.242188 0.046875 2.625 -0.140625 2.09375 -0.515625 C 1.5625 -0.898438 1.144531 -1.441406 0.84375 -2.140625 C 0.550781 -2.835938 0.40625 -3.660156 0.40625 -4.609375 C 0.40625 -5.597656 0.546875 -6.453125 0.828125 -7.171875 C 1.117188 -7.898438 1.523438 -8.457031 2.046875 -8.84375 C 2.578125 -9.238281 3.195312 -9.4375 3.90625 -9.4375 C 4.53125 -9.4375 5.097656 -9.269531 5.609375 -8.9375 C 6.117188 -8.601562 6.5 -8.15625 6.75 -7.59375 L 6.78125 -7.59375 L 7.09375 -9.171875 L 9.5 -9.171875 L 9.5 -0.703125 C 9.5 0.285156 9.289062 1.140625 8.875 1.859375 C 8.457031 2.578125 7.863281 3.125 7.09375 3.5 C 6.320312 3.875 5.410156 4.0625 4.359375 4.0625 Z M 5.015625 -2.1875 C 5.578125 -2.1875 6.023438 -2.410156 6.359375 -2.859375 C 6.691406 -3.304688 6.859375 -3.90625 6.859375 -4.65625 C 6.859375 -5.40625 6.691406 -6.007812 6.359375 -6.46875 C 6.023438 -6.925781 5.578125 -7.15625 5.015625 -7.15625 C 4.453125 -7.15625 4 -6.929688 3.65625 -6.484375 C 3.320312 -6.035156 3.15625 -5.425781 3.15625 -4.65625 C 3.15625 -3.894531 3.320312 -3.289062 3.65625 -2.84375 C 4 -2.40625 4.453125 -2.1875 5.015625 -2.1875 Z M 5.015625 -2.1875 "/></g></g></g><g fill="#2d6d5e" fill-opacity="1"><g transform="translate(21.614278, 125.085968)"><g><path d="M 3.9375 0 L 3.34375 -2.515625 L 1.5 -2.515625 L 0.90625 0 L 0 0 L 1.890625 -7.8125 L 2.921875 -7.8125 L 4.84375 0 Z M 3.1875 -3.296875 L 2.59375 -5.9375 C 2.5625 -6.070312 2.535156 -6.203125 2.515625 -6.328125 C 2.492188 -6.453125 2.472656 -6.570312 2.453125 -6.6875 C 2.429688 -6.8125 2.410156 -6.929688 2.390625 -7.046875 C 2.378906 -6.929688 2.363281 -6.8125 2.34375 -6.6875 C 2.332031 -6.570312 2.3125 -6.453125 2.28125 -6.328125 C 2.257812 -6.203125 2.238281 -6.078125 2.21875 -5.953125 L 1.625 -3.296875 Z M 3.1875 -3.296875 "/></g></g></g><g fill="#2d6d5e" fill-opacity="1"><g transform="translate(27.987376, 125.085968)"><g/></g></g><g fill="#2d6d5e" fill-opacity="1"><g transform="translate(31.550355, 125.085968)"><g><path d="M 2.671875 -5.96875 C 2.753906 -5.96875 2.835938 -5.957031 2.921875 -5.9375 C 3.003906 -5.925781 3.085938 -5.910156 3.171875 -5.890625 L 3.046875 -5.046875 C 2.984375 -5.066406 2.914062 -5.082031 2.84375 -5.09375 C 2.769531 -5.101562 2.691406 -5.109375 2.609375 -5.109375 C 2.453125 -5.109375 2.304688 -5.054688 2.171875 -4.953125 C 2.035156 -4.847656 1.921875 -4.703125 1.828125 -4.515625 C 1.734375 -4.328125 1.660156 -4.109375 1.609375 -3.859375 C 1.554688 -3.609375 1.53125 -3.34375 1.53125 -3.0625 L 1.53125 0 L 0.71875 0 L 0.71875 -5.859375 L 1.359375 -5.859375 L 1.46875 -4.828125 L 1.515625 -4.828125 C 1.597656 -5.046875 1.691406 -5.238281 1.796875 -5.40625 C 1.910156 -5.582031 2.039062 -5.71875 2.1875 -5.8125 C 2.332031 -5.914062 2.492188 -5.96875 2.671875 -5.96875 Z M 2.671875 -5.96875 "/></g></g></g><g fill="#2d6d5e" fill-opacity="1"><g transform="translate(36.363463, 125.085968)"><g><path d="M 2.328125 -5.953125 C 2.722656 -5.953125 3.050781 -5.835938 3.3125 -5.609375 C 3.570312 -5.378906 3.765625 -5.066406 3.890625 -4.671875 C 4.015625 -4.285156 4.078125 -3.851562 4.078125 -3.375 L 4.078125 -2.78125 L 1.28125 -2.78125 C 1.289062 -2.050781 1.40625 -1.503906 1.625 -1.140625 C 1.84375 -0.773438 2.171875 -0.59375 2.609375 -0.59375 C 2.828125 -0.59375 3.035156 -0.625 3.234375 -0.6875 C 3.441406 -0.75 3.648438 -0.851562 3.859375 -1 L 3.859375 -0.265625 C 3.660156 -0.140625 3.453125 -0.046875 3.234375 0.015625 C 3.015625 0.078125 2.78125 0.109375 2.53125 0.109375 C 2.039062 0.109375 1.644531 -0.0195312 1.34375 -0.28125 C 1.039062 -0.539062 0.816406 -0.898438 0.671875 -1.359375 C 0.535156 -1.816406 0.46875 -2.332031 0.46875 -2.90625 C 0.46875 -3.550781 0.535156 -4.101562 0.671875 -4.5625 C 0.816406 -5.019531 1.023438 -5.363281 1.296875 -5.59375 C 1.578125 -5.832031 1.921875 -5.953125 2.328125 -5.953125 Z M 2.328125 -5.28125 C 2.015625 -5.28125 1.769531 -5.128906 1.59375 -4.828125 C 1.425781 -4.535156 1.328125 -4.070312 1.296875 -3.4375 L 3.3125 -3.4375 C 3.3125 -3.769531 3.273438 -4.078125 3.203125 -4.359375 C 3.140625 -4.640625 3.035156 -4.863281 2.890625 -5.03125 C 2.742188 -5.195312 2.554688 -5.28125 2.328125 -5.28125 Z M 2.328125 -5.28125 "/></g></g></g><g fill="#2d6d5e" fill-opacity="1"><g transform="translate(42.421358, 125.085968)"><g><path d="M 2.5625 -5.171875 L 1.640625 -5.171875 L 1.640625 0 L 0.8125 0 L 0.8125 -5.171875 L 0.09375 -5.171875 L 0.09375 -5.609375 L 0.8125 -5.890625 L 0.8125 -6.28125 C 0.8125 -6.726562 0.847656 -7.101562 0.921875 -7.40625 C 1.003906 -7.71875 1.140625 -7.957031 1.328125 -8.125 C 1.523438 -8.289062 1.789062 -8.375 2.125 -8.375 C 2.28125 -8.375 2.421875 -8.359375 2.546875 -8.328125 C 2.679688 -8.296875 2.820312 -8.253906 2.96875 -8.203125 L 2.75 -7.53125 C 2.65625 -7.570312 2.5625 -7.597656 2.46875 -7.609375 C 2.382812 -7.628906 2.300781 -7.640625 2.21875 -7.640625 C 2 -7.640625 1.847656 -7.539062 1.765625 -7.34375 C 1.679688 -7.15625 1.640625 -6.8125 1.640625 -6.3125 L 1.640625 -5.859375 L 2.5625 -5.859375 Z M 2.5625 -5.171875 "/></g></g></g><g fill="#2d6d5e" fill-opacity="1"><g transform="translate(46.673511, 125.085968)"><g><path d="M 2.671875 -5.96875 C 2.753906 -5.96875 2.835938 -5.957031 2.921875 -5.9375 C 3.003906 -5.925781 3.085938 -5.910156 3.171875 -5.890625 L 3.046875 -5.046875 C 2.984375 -5.066406 2.914062 -5.082031 2.84375 -5.09375 C 2.769531 -5.101562 2.691406 -5.109375 2.609375 -5.109375 C 2.453125 -5.109375 2.304688 -5.054688 2.171875 -4.953125 C 2.035156 -4.847656 1.921875 -4.703125 1.828125 -4.515625 C 1.734375 -4.328125 1.660156 -4.109375 1.609375 -3.859375 C 1.554688 -3.609375 1.53125 -3.34375 1.53125 -3.0625 L 1.53125 0 L 0.71875 0 L 0.71875 -5.859375 L 1.359375 -5.859375 L 1.46875 -4.828125 L 1.515625 -4.828125 C 1.597656 -5.046875 1.691406 -5.238281 1.796875 -5.40625 C 1.910156 -5.582031 2.039062 -5.71875 2.1875 -5.8125 C 2.332031 -5.914062 2.492188 -5.96875 2.671875 -5.96875 Z M 2.671875 -5.96875 "/></g></g></g><g fill="#2d6d5e" fill-opacity="1"><g transform="translate(51.486619, 125.085968)"><g><path d="M 2.328125 -5.953125 C 2.722656 -5.953125 3.050781 -5.835938 3.3125 -5.609375 C 3.570312 -5.378906 3.765625 -5.066406 3.890625 -4.671875 C 4.015625 -4.285156 4.078125 -3.851562 4.078125 -3.375 L 4.078125 -2.78125 L 1.28125 -2.78125 C 1.289062 -2.050781 1.40625 -1.503906 1.625 -1.140625 C 1.84375 -0.773438 2.171875 -0.59375 2.609375 -0.59375 C 2.828125 -0.59375 3.035156 -0.625 3.234375 -0.6875 C 3.441406 -0.75 3.648438 -0.851562 3.859375 -1 L 3.859375 -0.265625 C 3.660156 -0.140625 3.453125 -0.046875 3.234375 0.015625 C 3.015625 0.078125 2.78125 0.109375 2.53125 0.109375 C 2.039062 0.109375 1.644531 -0.0195312 1.34375 -0.28125 C 1.039062 -0.539062 0.816406 -0.898438 0.671875 -1.359375 C 0.535156 -1.816406 0.46875 -2.332031 0.46875 -2.90625 C 0.46875 -3.550781 0.535156 -4.101562 0.671875 -4.5625 C 0.816406 -5.019531 1.023438 -5.363281 1.296875 -5.59375 C 1.578125 -5.832031 1.921875 -5.953125 2.328125 -5.953125 Z M 2.328125 -5.28125 C 2.015625 -5.28125 1.769531 -5.128906 1.59375 -4.828125 C 1.425781 -4.535156 1.328125 -4.070312 1.296875 -3.4375 L 3.3125 -3.4375 C 3.3125 -3.769531 3.273438 -4.078125 3.203125 -4.359375 C 3.140625 -4.640625 3.035156 -4.863281 2.890625 -5.03125 C 2.742188 -5.195312 2.554688 -5.28125 2.328125 -5.28125 Z M 2.328125 -5.28125 "/></g></g></g><g fill="#2d6d5e" fill-opacity="1"><g transform="translate(57.544513, 125.085968)"><g><path d="M 3.328125 -1.546875 C 3.328125 -1.191406 3.257812 -0.890625 3.125 -0.640625 C 3 -0.398438 2.8125 -0.210938 2.5625 -0.078125 C 2.320312 0.046875 2.03125 0.109375 1.6875 0.109375 C 1.414062 0.109375 1.164062 0.078125 0.9375 0.015625 C 0.71875 -0.046875 0.53125 -0.125 0.375 -0.21875 L 0.375 -1.078125 C 0.53125 -0.941406 0.722656 -0.832031 0.953125 -0.75 C 1.179688 -0.664062 1.414062 -0.625 1.65625 -0.625 C 1.925781 -0.625 2.132812 -0.703125 2.28125 -0.859375 C 2.4375 -1.015625 2.515625 -1.234375 2.515625 -1.515625 C 2.515625 -1.679688 2.484375 -1.828125 2.421875 -1.953125 C 2.359375 -2.078125 2.257812 -2.195312 2.125 -2.3125 C 1.988281 -2.425781 1.816406 -2.546875 1.609375 -2.671875 C 1.359375 -2.816406 1.140625 -2.96875 0.953125 -3.125 C 0.765625 -3.289062 0.617188 -3.476562 0.515625 -3.6875 C 0.421875 -3.894531 0.375 -4.144531 0.375 -4.4375 C 0.375 -4.894531 0.519531 -5.265625 0.8125 -5.546875 C 1.113281 -5.828125 1.503906 -5.96875 1.984375 -5.96875 C 2.234375 -5.96875 2.46875 -5.9375 2.6875 -5.875 C 2.90625 -5.8125 3.113281 -5.71875 3.3125 -5.59375 L 3 -4.9375 C 2.851562 -5.039062 2.691406 -5.117188 2.515625 -5.171875 C 2.347656 -5.234375 2.175781 -5.265625 2 -5.265625 C 1.738281 -5.265625 1.53125 -5.191406 1.375 -5.046875 C 1.226562 -4.898438 1.15625 -4.707031 1.15625 -4.46875 C 1.15625 -4.300781 1.1875 -4.15625 1.25 -4.03125 C 1.3125 -3.914062 1.410156 -3.800781 1.546875 -3.6875 C 1.679688 -3.582031 1.863281 -3.460938 2.09375 -3.328125 C 2.34375 -3.171875 2.554688 -3.015625 2.734375 -2.859375 C 2.921875 -2.703125 3.066406 -2.519531 3.171875 -2.3125 C 3.273438 -2.101562 3.328125 -1.847656 3.328125 -1.546875 Z M 3.328125 -1.546875 "/></g></g></g><g fill="#2d6d5e" fill-opacity="1"><g transform="translate(62.752961, 125.085968)"><g><path d="M 1.53125 -8.3125 L 1.53125 -5.890625 C 1.53125 -5.734375 1.523438 -5.582031 1.515625 -5.4375 C 1.515625 -5.300781 1.503906 -5.164062 1.484375 -5.03125 L 1.53125 -5.03125 C 1.601562 -5.226562 1.703125 -5.394531 1.828125 -5.53125 C 1.960938 -5.664062 2.113281 -5.769531 2.28125 -5.84375 C 2.445312 -5.925781 2.625 -5.96875 2.8125 -5.96875 C 3.144531 -5.96875 3.414062 -5.890625 3.625 -5.734375 C 3.832031 -5.585938 3.984375 -5.367188 4.078125 -5.078125 C 4.179688 -4.785156 4.234375 -4.421875 4.234375 -3.984375 L 4.234375 0 L 3.40625 0 L 3.40625 -3.828125 C 3.40625 -4.328125 3.34375 -4.6875 3.21875 -4.90625 C 3.101562 -5.125 2.910156 -5.234375 2.640625 -5.234375 C 2.390625 -5.234375 2.179688 -5.15625 2.015625 -5 C 1.859375 -4.851562 1.738281 -4.617188 1.65625 -4.296875 C 1.570312 -3.972656 1.53125 -3.566406 1.53125 -3.078125 L 1.53125 0 L 0.71875 0 L 0.71875 -8.3125 Z M 1.53125 -8.3125 "/></g></g></g><g fill="#2d6d5e" fill-opacity="1"><g transform="translate(69.21688, 125.085968)"><g/></g></g><g fill="#2d6d5e" fill-opacity="1"><g transform="translate(72.779859, 125.085968)"><g><path d="M 2.5625 -5.171875 L 1.640625 -5.171875 L 1.640625 0 L 0.8125 0 L 0.8125 -5.171875 L 0.09375 -5.171875 L 0.09375 -5.609375 L 0.8125 -5.890625 L 0.8125 -6.28125 C 0.8125 -6.726562 0.847656 -7.101562 0.921875 -7.40625 C 1.003906 -7.71875 1.140625 -7.957031 1.328125 -8.125 C 1.523438 -8.289062 1.789062 -8.375 2.125 -8.375 C 2.28125 -8.375 2.421875 -8.359375 2.546875 -8.328125 C 2.679688 -8.296875 2.820312 -8.253906 2.96875 -8.203125 L 2.75 -7.53125 C 2.65625 -7.570312 2.5625 -7.597656 2.46875 -7.609375 C 2.382812 -7.628906 2.300781 -7.640625 2.21875 -7.640625 C 2 -7.640625 1.847656 -7.539062 1.765625 -7.34375 C 1.679688 -7.15625 1.640625 -6.8125 1.640625 -6.3125 L 1.640625 -5.859375 L 2.5625 -5.859375 Z M 2.5625 -5.171875 "/></g></g></g><g fill="#2d6d5e" fill-opacity="1"><g transform="translate(77.032012, 125.085968)"><g><path d="M 4.359375 -2.9375 C 4.359375 -2.476562 4.316406 -2.0625 4.234375 -1.6875 C 4.160156 -1.3125 4.039062 -0.988281 3.875 -0.71875 C 3.71875 -0.457031 3.515625 -0.253906 3.265625 -0.109375 C 3.023438 0.0351562 2.734375 0.109375 2.390625 0.109375 C 2.078125 0.109375 1.796875 0.0351562 1.546875 -0.109375 C 1.304688 -0.253906 1.101562 -0.457031 0.9375 -0.71875 C 0.78125 -0.976562 0.660156 -1.296875 0.578125 -1.671875 C 0.503906 -2.054688 0.46875 -2.476562 0.46875 -2.9375 C 0.46875 -3.582031 0.535156 -4.128906 0.671875 -4.578125 C 0.804688 -5.035156 1.019531 -5.378906 1.3125 -5.609375 C 1.601562 -5.847656 1.96875 -5.96875 2.40625 -5.96875 C 2.820312 -5.96875 3.175781 -5.851562 3.46875 -5.625 C 3.757812 -5.394531 3.976562 -5.054688 4.125 -4.609375 C 4.28125 -4.160156 4.359375 -3.601562 4.359375 -2.9375 Z M 1.296875 -2.9375 C 1.296875 -2.425781 1.332031 -2 1.40625 -1.65625 C 1.488281 -1.3125 1.613281 -1.050781 1.78125 -0.875 C 1.945312 -0.695312 2.160156 -0.609375 2.421875 -0.609375 C 2.671875 -0.609375 2.875 -0.691406 3.03125 -0.859375 C 3.195312 -1.035156 3.316406 -1.296875 3.390625 -1.640625 C 3.472656 -1.984375 3.515625 -2.414062 3.515625 -2.9375 C 3.515625 -3.445312 3.472656 -3.875 3.390625 -4.21875 C 3.316406 -4.5625 3.195312 -4.816406 3.03125 -4.984375 C 2.875 -5.160156 2.664062 -5.25 2.40625 -5.25 C 2.019531 -5.25 1.738281 -5.054688 1.5625 -4.671875 C 1.382812 -4.285156 1.296875 -3.707031 1.296875 -2.9375 Z M 1.296875 -2.9375 "/></g></g></g><g fill="#2d6d5e" fill-opacity="1"><g transform="translate(83.38374, 125.085968)"><g><path d="M 2.671875 -5.96875 C 2.753906 -5.96875 2.835938 -5.957031 2.921875 -5.9375 C 3.003906 -5.925781 3.085938 -5.910156 3.171875 -5.890625 L 3.046875 -5.046875 C 2.984375 -5.066406 2.914062 -5.082031 2.84375 -5.09375 C 2.769531 -5.101562 2.691406 -5.109375 2.609375 -5.109375 C 2.453125 -5.109375 2.304688 -5.054688 2.171875 -4.953125 C 2.035156 -4.847656 1.921875 -4.703125 1.828125 -4.515625 C 1.734375 -4.328125 1.660156 -4.109375 1.609375 -3.859375 C 1.554688 -3.609375 1.53125 -3.34375 1.53125 -3.0625 L 1.53125 0 L 0.71875 0 L 0.71875 -5.859375 L 1.359375 -5.859375 L 1.46875 -4.828125 L 1.515625 -4.828125 C 1.597656 -5.046875 1.691406 -5.238281 1.796875 -5.40625 C 1.910156 -5.582031 2.039062 -5.71875 2.1875 -5.8125 C 2.332031 -5.914062 2.492188 -5.96875 2.671875 -5.96875 Z M 2.671875 -5.96875 "/></g></g></g><g fill="#2d6d5e" fill-opacity="1"><g transform="translate(88.196848, 125.085968)"><g/></g></g><g fill="#2d6d5e" fill-opacity="1"><g transform="translate(91.759828, 125.085968)"><g><path d="M 0.0625 -5.859375 L 0.90625 -5.859375 L 1.734375 -2.4375 C 1.773438 -2.289062 1.804688 -2.144531 1.828125 -2 C 1.859375 -1.851562 1.882812 -1.707031 1.90625 -1.5625 C 1.9375 -1.425781 1.960938 -1.285156 1.984375 -1.140625 L 2.03125 -1.140625 C 2.0625 -1.347656 2.097656 -1.554688 2.140625 -1.765625 C 2.179688 -1.984375 2.226562 -2.207031 2.28125 -2.4375 L 3.09375 -5.859375 L 3.9375 -5.859375 L 2.1875 0.9375 C 2.09375 1.332031 1.972656 1.65625 1.828125 1.90625 C 1.691406 2.15625 1.53125 2.335938 1.34375 2.453125 C 1.15625 2.566406 0.929688 2.625 0.671875 2.625 C 0.585938 2.625 0.503906 2.613281 0.421875 2.59375 C 0.335938 2.582031 0.25 2.5625 0.15625 2.53125 L 0.15625 1.8125 C 0.21875 1.832031 0.285156 1.847656 0.359375 1.859375 C 0.429688 1.878906 0.503906 1.890625 0.578125 1.890625 C 0.710938 1.890625 0.828125 1.851562 0.921875 1.78125 C 1.015625 1.707031 1.097656 1.59375 1.171875 1.4375 C 1.242188 1.28125 1.316406 1.0625 1.390625 0.78125 L 1.609375 -0.046875 Z M 0.0625 -5.859375 "/></g></g></g><g fill="#2d6d5e" fill-opacity="1"><g transform="translate(97.278137, 125.085968)"><g><path d="M 4.359375 -2.9375 C 4.359375 -2.476562 4.316406 -2.0625 4.234375 -1.6875 C 4.160156 -1.3125 4.039062 -0.988281 3.875 -0.71875 C 3.71875 -0.457031 3.515625 -0.253906 3.265625 -0.109375 C 3.023438 0.0351562 2.734375 0.109375 2.390625 0.109375 C 2.078125 0.109375 1.796875 0.0351562 1.546875 -0.109375 C 1.304688 -0.253906 1.101562 -0.457031 0.9375 -0.71875 C 0.78125 -0.976562 0.660156 -1.296875 0.578125 -1.671875 C 0.503906 -2.054688 0.46875 -2.476562 0.46875 -2.9375 C 0.46875 -3.582031 0.535156 -4.128906 0.671875 -4.578125 C 0.804688 -5.035156 1.019531 -5.378906 1.3125 -5.609375 C 1.601562 -5.847656 1.96875 -5.96875 2.40625 -5.96875 C 2.820312 -5.96875 3.175781 -5.851562 3.46875 -5.625 C 3.757812 -5.394531 3.976562 -5.054688 4.125 -4.609375 C 4.28125 -4.160156 4.359375 -3.601562 4.359375 -2.9375 Z M 1.296875 -2.9375 C 1.296875 -2.425781 1.332031 -2 1.40625 -1.65625 C 1.488281 -1.3125 1.613281 -1.050781 1.78125 -0.875 C 1.945312 -0.695312 2.160156 -0.609375 2.421875 -0.609375 C 2.671875 -0.609375 2.875 -0.691406 3.03125 -0.859375 C 3.195312 -1.035156 3.316406 -1.296875 3.390625 -1.640625 C 3.472656 -1.984375 3.515625 -2.414062 3.515625 -2.9375 C 3.515625 -3.445312 3.472656 -3.875 3.390625 -4.21875 C 3.316406 -4.5625 3.195312 -4.816406 3.03125 -4.984375 C 2.875 -5.160156 2.664062 -5.25 2.40625 -5.25 C 2.019531 -5.25 1.738281 -5.054688 1.5625 -4.671875 C 1.382812 -4.285156 1.296875 -3.707031 1.296875 -2.9375 Z M 1.296875 -2.9375 "/></g></g></g><g fill="#2d6d5e" fill-opacity="1"><g transform="translate(103.629864, 125.085968)"><g><path d="M 4.21875 -5.859375 L 4.21875 0 L 3.5625 0 L 3.46875 -0.828125 L 3.40625 -0.828125 C 3.332031 -0.640625 3.226562 -0.472656 3.09375 -0.328125 C 2.96875 -0.191406 2.820312 -0.0820312 2.65625 0 C 2.5 0.0703125 2.316406 0.109375 2.109375 0.109375 C 1.773438 0.109375 1.503906 0.0234375 1.296875 -0.140625 C 1.085938 -0.316406 0.929688 -0.5625 0.828125 -0.875 C 0.734375 -1.195312 0.6875 -1.578125 0.6875 -2.015625 L 0.6875 -5.859375 L 1.515625 -5.859375 L 1.515625 -2.171875 C 1.515625 -1.640625 1.578125 -1.25 1.703125 -1 C 1.828125 -0.75 2.015625 -0.625 2.265625 -0.625 C 2.535156 -0.625 2.753906 -0.695312 2.921875 -0.84375 C 3.085938 -1 3.207031 -1.234375 3.28125 -1.546875 C 3.351562 -1.859375 3.390625 -2.25 3.390625 -2.71875 L 3.390625 -5.859375 Z M 4.21875 -5.859375 "/></g></g></g><g fill="#2d6d5e" fill-opacity="1"><g transform="translate(110.093783, 125.085968)"><g><path d="M 2.671875 -5.96875 C 2.753906 -5.96875 2.835938 -5.957031 2.921875 -5.9375 C 3.003906 -5.925781 3.085938 -5.910156 3.171875 -5.890625 L 3.046875 -5.046875 C 2.984375 -5.066406 2.914062 -5.082031 2.84375 -5.09375 C 2.769531 -5.101562 2.691406 -5.109375 2.609375 -5.109375 C 2.453125 -5.109375 2.304688 -5.054688 2.171875 -4.953125 C 2.035156 -4.847656 1.921875 -4.703125 1.828125 -4.515625 C 1.734375 -4.328125 1.660156 -4.109375 1.609375 -3.859375 C 1.554688 -3.609375 1.53125 -3.34375 1.53125 -3.0625 L 1.53125 0 L 0.71875 0 L 0.71875 -5.859375 L 1.359375 -5.859375 L 1.46875 -4.828125 L 1.515625 -4.828125 C 1.597656 -5.046875 1.691406 -5.238281 1.796875 -5.40625 C 1.910156 -5.582031 2.039062 -5.71875 2.1875 -5.8125 C 2.332031 -5.914062 2.492188 -5.96875 2.671875 -5.96875 Z M 2.671875 -5.96875 "/></g></g></g><g fill="#2d6d5e" fill-opacity="1"><g transform="translate(28.449673, 137.776939)"><g><path d="M 2.828125 -5.96875 C 3.285156 -5.96875 3.632812 -5.804688 3.875 -5.484375 C 4.113281 -5.160156 4.234375 -4.664062 4.234375 -4 L 4.234375 0 L 3.40625 0 L 3.40625 -3.828125 C 3.40625 -4.304688 3.34375 -4.660156 3.21875 -4.890625 C 3.101562 -5.128906 2.914062 -5.25 2.65625 -5.25 C 2.269531 -5.25 1.984375 -5.078125 1.796875 -4.734375 C 1.617188 -4.390625 1.53125 -3.84375 1.53125 -3.09375 L 1.53125 0 L 0.71875 0 L 0.71875 -5.859375 L 1.375 -5.859375 L 1.46875 -5.015625 L 1.515625 -5.015625 C 1.597656 -5.210938 1.703125 -5.378906 1.828125 -5.515625 C 1.960938 -5.660156 2.113281 -5.769531 2.28125 -5.84375 C 2.445312 -5.925781 2.628906 -5.96875 2.828125 -5.96875 Z M 2.828125 -5.96875 "/></g></g></g><g fill="#2d6d5e" fill-opacity="1"><g transform="translate(34.913592, 137.776939)"><g><path d="M 2.328125 -5.953125 C 2.722656 -5.953125 3.050781 -5.835938 3.3125 -5.609375 C 3.570312 -5.378906 3.765625 -5.066406 3.890625 -4.671875 C 4.015625 -4.285156 4.078125 -3.851562 4.078125 -3.375 L 4.078125 -2.78125 L 1.28125 -2.78125 C 1.289062 -2.050781 1.40625 -1.503906 1.625 -1.140625 C 1.84375 -0.773438 2.171875 -0.59375 2.609375 -0.59375 C 2.828125 -0.59375 3.035156 -0.625 3.234375 -0.6875 C 3.441406 -0.75 3.648438 -0.851562 3.859375 -1 L 3.859375 -0.265625 C 3.660156 -0.140625 3.453125 -0.046875 3.234375 0.015625 C 3.015625 0.078125 2.78125 0.109375 2.53125 0.109375 C 2.039062 0.109375 1.644531 -0.0195312 1.34375 -0.28125 C 1.039062 -0.539062 0.816406 -0.898438 0.671875 -1.359375 C 0.535156 -1.816406 0.46875 -2.332031 0.46875 -2.90625 C 0.46875 -3.550781 0.535156 -4.101562 0.671875 -4.5625 C 0.816406 -5.019531 1.023438 -5.363281 1.296875 -5.59375 C 1.578125 -5.832031 1.921875 -5.953125 2.328125 -5.953125 Z M 2.328125 -5.28125 C 2.015625 -5.28125 1.769531 -5.128906 1.59375 -4.828125 C 1.425781 -4.535156 1.328125 -4.070312 1.296875 -3.4375 L 3.3125 -3.4375 C 3.3125 -3.769531 3.273438 -4.078125 3.203125 -4.359375 C 3.140625 -4.640625 3.035156 -4.863281 2.890625 -5.03125 C 2.742188 -5.195312 2.554688 -5.28125 2.328125 -5.28125 Z M 2.328125 -5.28125 "/></g></g></g><g fill="#2d6d5e" fill-opacity="1"><g transform="translate(40.971486, 137.776939)"><g><path d="M 2.671875 -5.96875 C 2.753906 -5.96875 2.835938 -5.957031 2.921875 -5.9375 C 3.003906 -5.925781 3.085938 -5.910156 3.171875 -5.890625 L 3.046875 -5.046875 C 2.984375 -5.066406 2.914062 -5.082031 2.84375 -5.09375 C 2.769531 -5.101562 2.691406 -5.109375 2.609375 -5.109375 C 2.453125 -5.109375 2.304688 -5.054688 2.171875 -4.953125 C 2.035156 -4.847656 1.921875 -4.703125 1.828125 -4.515625 C 1.734375 -4.328125 1.660156 -4.109375 1.609375 -3.859375 C 1.554688 -3.609375 1.53125 -3.34375 1.53125 -3.0625 L 1.53125 0 L 0.71875 0 L 0.71875 -5.859375 L 1.359375 -5.859375 L 1.46875 -4.828125 L 1.515625 -4.828125 C 1.597656 -5.046875 1.691406 -5.238281 1.796875 -5.40625 C 1.910156 -5.582031 2.039062 -5.71875 2.1875 -5.8125 C 2.332031 -5.914062 2.492188 -5.96875 2.671875 -5.96875 Z M 2.671875 -5.96875 "/></g></g></g><g fill="#2d6d5e" fill-opacity="1"><g transform="translate(45.784594, 137.776939)"><g><path d="M 1.515625 0 L 0.046875 -5.859375 L 0.890625 -5.859375 L 1.6875 -2.296875 C 1.738281 -2.085938 1.785156 -1.867188 1.828125 -1.640625 C 1.867188 -1.421875 1.90625 -1.1875 1.9375 -0.9375 L 1.984375 -0.9375 C 2.003906 -1.082031 2.03125 -1.25 2.0625 -1.4375 C 2.101562 -1.632812 2.148438 -1.851562 2.203125 -2.09375 L 3.078125 -5.859375 L 3.921875 -5.859375 L 2.421875 0 Z M 1.515625 0 "/></g></g></g><g fill="#2d6d5e" fill-opacity="1"><g transform="translate(51.276191, 137.776939)"><g><path d="M 4.359375 -2.9375 C 4.359375 -2.476562 4.316406 -2.0625 4.234375 -1.6875 C 4.160156 -1.3125 4.039062 -0.988281 3.875 -0.71875 C 3.71875 -0.457031 3.515625 -0.253906 3.265625 -0.109375 C 3.023438 0.0351562 2.734375 0.109375 2.390625 0.109375 C 2.078125 0.109375 1.796875 0.0351562 1.546875 -0.109375 C 1.304688 -0.253906 1.101562 -0.457031 0.9375 -0.71875 C 0.78125 -0.976562 0.660156 -1.296875 0.578125 -1.671875 C 0.503906 -2.054688 0.46875 -2.476562 0.46875 -2.9375 C 0.46875 -3.582031 0.535156 -4.128906 0.671875 -4.578125 C 0.804688 -5.035156 1.019531 -5.378906 1.3125 -5.609375 C 1.601562 -5.847656 1.96875 -5.96875 2.40625 -5.96875 C 2.820312 -5.96875 3.175781 -5.851562 3.46875 -5.625 C 3.757812 -5.394531 3.976562 -5.054688 4.125 -4.609375 C 4.28125 -4.160156 4.359375 -3.601562 4.359375 -2.9375 Z M 1.296875 -2.9375 C 1.296875 -2.425781 1.332031 -2 1.40625 -1.65625 C 1.488281 -1.3125 1.613281 -1.050781 1.78125 -0.875 C 1.945312 -0.695312 2.160156 -0.609375 2.421875 -0.609375 C 2.671875 -0.609375 2.875 -0.691406 3.03125 -0.859375 C 3.195312 -1.035156 3.316406 -1.296875 3.390625 -1.640625 C 3.472656 -1.984375 3.515625 -2.414062 3.515625 -2.9375 C 3.515625 -3.445312 3.472656 -3.875 3.390625 -4.21875 C 3.316406 -4.5625 3.195312 -4.816406 3.03125 -4.984375 C 2.875 -5.160156 2.664062 -5.25 2.40625 -5.25 C 2.019531 -5.25 1.738281 -5.054688 1.5625 -4.671875 C 1.382812 -4.285156 1.296875 -3.707031 1.296875 -2.9375 Z M 1.296875 -2.9375 "/></g></g></g><g fill="#2d6d5e" fill-opacity="1"><g transform="translate(57.627919, 137.776939)"><g><path d="M 4.21875 -5.859375 L 4.21875 0 L 3.5625 0 L 3.46875 -0.828125 L 3.40625 -0.828125 C 3.332031 -0.640625 3.226562 -0.472656 3.09375 -0.328125 C 2.96875 -0.191406 2.820312 -0.0820312 2.65625 0 C 2.5 0.0703125 2.316406 0.109375 2.109375 0.109375 C 1.773438 0.109375 1.503906 0.0234375 1.296875 -0.140625 C 1.085938 -0.316406 0.929688 -0.5625 0.828125 -0.875 C 0.734375 -1.195312 0.6875 -1.578125 0.6875 -2.015625 L 0.6875 -5.859375 L 1.515625 -5.859375 L 1.515625 -2.171875 C 1.515625 -1.640625 1.578125 -1.25 1.703125 -1 C 1.828125 -0.75 2.015625 -0.625 2.265625 -0.625 C 2.535156 -0.625 2.753906 -0.695312 2.921875 -0.84375 C 3.085938 -1 3.207031 -1.234375 3.28125 -1.546875 C 3.351562 -1.859375 3.390625 -2.25 3.390625 -2.71875 L 3.390625 -5.859375 Z M 4.21875 -5.859375 "/></g></g></g><g fill="#2d6d5e" fill-opacity="1"><g transform="translate(64.091838, 137.776939)"><g><path d="M 3.328125 -1.546875 C 3.328125 -1.191406 3.257812 -0.890625 3.125 -0.640625 C 3 -0.398438 2.8125 -0.210938 2.5625 -0.078125 C 2.320312 0.046875 2.03125 0.109375 1.6875 0.109375 C 1.414062 0.109375 1.164062 0.078125 0.9375 0.015625 C 0.71875 -0.046875 0.53125 -0.125 0.375 -0.21875 L 0.375 -1.078125 C 0.53125 -0.941406 0.722656 -0.832031 0.953125 -0.75 C 1.179688 -0.664062 1.414062 -0.625 1.65625 -0.625 C 1.925781 -0.625 2.132812 -0.703125 2.28125 -0.859375 C 2.4375 -1.015625 2.515625 -1.234375 2.515625 -1.515625 C 2.515625 -1.679688 2.484375 -1.828125 2.421875 -1.953125 C 2.359375 -2.078125 2.257812 -2.195312 2.125 -2.3125 C 1.988281 -2.425781 1.816406 -2.546875 1.609375 -2.671875 C 1.359375 -2.816406 1.140625 -2.96875 0.953125 -3.125 C 0.765625 -3.289062 0.617188 -3.476562 0.515625 -3.6875 C 0.421875 -3.894531 0.375 -4.144531 0.375 -4.4375 C 0.375 -4.894531 0.519531 -5.265625 0.8125 -5.546875 C 1.113281 -5.828125 1.503906 -5.96875 1.984375 -5.96875 C 2.234375 -5.96875 2.46875 -5.9375 2.6875 -5.875 C 2.90625 -5.8125 3.113281 -5.71875 3.3125 -5.59375 L 3 -4.9375 C 2.851562 -5.039062 2.691406 -5.117188 2.515625 -5.171875 C 2.347656 -5.234375 2.175781 -5.265625 2 -5.265625 C 1.738281 -5.265625 1.53125 -5.191406 1.375 -5.046875 C 1.226562 -4.898438 1.15625 -4.707031 1.15625 -4.46875 C 1.15625 -4.300781 1.1875 -4.15625 1.25 -4.03125 C 1.3125 -3.914062 1.410156 -3.800781 1.546875 -3.6875 C 1.679688 -3.582031 1.863281 -3.460938 2.09375 -3.328125 C 2.34375 -3.171875 2.554688 -3.015625 2.734375 -2.859375 C 2.921875 -2.703125 3.066406 -2.519531 3.171875 -2.3125 C 3.273438 -2.101562 3.328125 -1.847656 3.328125 -1.546875 Z M 3.328125 -1.546875 "/></g></g></g><g fill="#2d6d5e" fill-opacity="1"><g transform="translate(69.300285, 137.776939)"><g/></g></g><g fill="#2d6d5e" fill-opacity="1"><g transform="translate(72.863265, 137.776939)"><g><path d="M 3.328125 -1.546875 C 3.328125 -1.191406 3.257812 -0.890625 3.125 -0.640625 C 3 -0.398438 2.8125 -0.210938 2.5625 -0.078125 C 2.320312 0.046875 2.03125 0.109375 1.6875 0.109375 C 1.414062 0.109375 1.164062 0.078125 0.9375 0.015625 C 0.71875 -0.046875 0.53125 -0.125 0.375 -0.21875 L 0.375 -1.078125 C 0.53125 -0.941406 0.722656 -0.832031 0.953125 -0.75 C 1.179688 -0.664062 1.414062 -0.625 1.65625 -0.625 C 1.925781 -0.625 2.132812 -0.703125 2.28125 -0.859375 C 2.4375 -1.015625 2.515625 -1.234375 2.515625 -1.515625 C 2.515625 -1.679688 2.484375 -1.828125 2.421875 -1.953125 C 2.359375 -2.078125 2.257812 -2.195312 2.125 -2.3125 C 1.988281 -2.425781 1.816406 -2.546875 1.609375 -2.671875 C 1.359375 -2.816406 1.140625 -2.96875 0.953125 -3.125 C 0.765625 -3.289062 0.617188 -3.476562 0.515625 -3.6875 C 0.421875 -3.894531 0.375 -4.144531 0.375 -4.4375 C 0.375 -4.894531 0.519531 -5.265625 0.8125 -5.546875 C 1.113281 -5.828125 1.503906 -5.96875 1.984375 -5.96875 C 2.234375 -5.96875 2.46875 -5.9375 2.6875 -5.875 C 2.90625 -5.8125 3.113281 -5.71875 3.3125 -5.59375 L 3 -4.9375 C 2.851562 -5.039062 2.691406 -5.117188 2.515625 -5.171875 C 2.347656 -5.234375 2.175781 -5.265625 2 -5.265625 C 1.738281 -5.265625 1.53125 -5.191406 1.375 -5.046875 C 1.226562 -4.898438 1.15625 -4.707031 1.15625 -4.46875 C 1.15625 -4.300781 1.1875 -4.15625 1.25 -4.03125 C 1.3125 -3.914062 1.410156 -3.800781 1.546875 -3.6875 C 1.679688 -3.582031 1.863281 -3.460938 2.09375 -3.328125 C 2.34375 -3.171875 2.554688 -3.015625 2.734375 -2.859375 C 2.921875 -2.703125 3.066406 -2.519531 3.171875 -2.3125 C 3.273438 -2.101562 3.328125 -1.847656 3.328125 -1.546875 Z M 3.328125 -1.546875 "/></g></g></g><g fill="#2d6d5e" fill-opacity="1"><g transform="translate(78.071713, 137.776939)"><g><path d="M 0.0625 -5.859375 L 0.90625 -5.859375 L 1.734375 -2.4375 C 1.773438 -2.289062 1.804688 -2.144531 1.828125 -2 C 1.859375 -1.851562 1.882812 -1.707031 1.90625 -1.5625 C 1.9375 -1.425781 1.960938 -1.285156 1.984375 -1.140625 L 2.03125 -1.140625 C 2.0625 -1.347656 2.097656 -1.554688 2.140625 -1.765625 C 2.179688 -1.984375 2.226562 -2.207031 2.28125 -2.4375 L 3.09375 -5.859375 L 3.9375 -5.859375 L 2.1875 0.9375 C 2.09375 1.332031 1.972656 1.65625 1.828125 1.90625 C 1.691406 2.15625 1.53125 2.335938 1.34375 2.453125 C 1.15625 2.566406 0.929688 2.625 0.671875 2.625 C 0.585938 2.625 0.503906 2.613281 0.421875 2.59375 C 0.335938 2.582031 0.25 2.5625 0.15625 2.53125 L 0.15625 1.8125 C 0.21875 1.832031 0.285156 1.847656 0.359375 1.859375 C 0.429688 1.878906 0.503906 1.890625 0.578125 1.890625 C 0.710938 1.890625 0.828125 1.851562 0.921875 1.78125 C 1.015625 1.707031 1.097656 1.59375 1.171875 1.4375 C 1.242188 1.28125 1.316406 1.0625 1.390625 0.78125 L 1.609375 -0.046875 Z M 0.0625 -5.859375 "/></g></g></g><g fill="#2d6d5e" fill-opacity="1"><g transform="translate(83.590022, 137.776939)"><g><path d="M 3.328125 -1.546875 C 3.328125 -1.191406 3.257812 -0.890625 3.125 -0.640625 C 3 -0.398438 2.8125 -0.210938 2.5625 -0.078125 C 2.320312 0.046875 2.03125 0.109375 1.6875 0.109375 C 1.414062 0.109375 1.164062 0.078125 0.9375 0.015625 C 0.71875 -0.046875 0.53125 -0.125 0.375 -0.21875 L 0.375 -1.078125 C 0.53125 -0.941406 0.722656 -0.832031 0.953125 -0.75 C 1.179688 -0.664062 1.414062 -0.625 1.65625 -0.625 C 1.925781 -0.625 2.132812 -0.703125 2.28125 -0.859375 C 2.4375 -1.015625 2.515625 -1.234375 2.515625 -1.515625 C 2.515625 -1.679688 2.484375 -1.828125 2.421875 -1.953125 C 2.359375 -2.078125 2.257812 -2.195312 2.125 -2.3125 C 1.988281 -2.425781 1.816406 -2.546875 1.609375 -2.671875 C 1.359375 -2.816406 1.140625 -2.96875 0.953125 -3.125 C 0.765625 -3.289062 0.617188 -3.476562 0.515625 -3.6875 C 0.421875 -3.894531 0.375 -4.144531 0.375 -4.4375 C 0.375 -4.894531 0.519531 -5.265625 0.8125 -5.546875 C 1.113281 -5.828125 1.503906 -5.96875 1.984375 -5.96875 C 2.234375 -5.96875 2.46875 -5.9375 2.6875 -5.875 C 2.90625 -5.8125 3.113281 -5.71875 3.3125 -5.59375 L 3 -4.9375 C 2.851562 -5.039062 2.691406 -5.117188 2.515625 -5.171875 C 2.347656 -5.234375 2.175781 -5.265625 2 -5.265625 C 1.738281 -5.265625 1.53125 -5.191406 1.375 -5.046875 C 1.226562 -4.898438 1.15625 -4.707031 1.15625 -4.46875 C 1.15625 -4.300781 1.1875 -4.15625 1.25 -4.03125 C 1.3125 -3.914062 1.410156 -3.800781 1.546875 -3.6875 C 1.679688 -3.582031 1.863281 -3.460938 2.09375 -3.328125 C 2.34375 -3.171875 2.554688 -3.015625 2.734375 -2.859375 C 2.921875 -2.703125 3.066406 -2.519531 3.171875 -2.3125 C 3.273438 -2.101562 3.328125 -1.847656 3.328125 -1.546875 Z M 3.328125 -1.546875 "/></g></g></g><g fill="#2d6d5e" fill-opacity="1"><g transform="translate(88.79847, 137.776939)"><g><path d="M 2.09375 -0.625 C 2.1875 -0.625 2.273438 -0.628906 2.359375 -0.640625 C 2.453125 -0.660156 2.535156 -0.691406 2.609375 -0.734375 L 2.609375 -0.0625 C 2.503906 -0.0078125 2.382812 0.03125 2.25 0.0625 C 2.125 0.09375 1.984375 0.109375 1.828125 0.109375 C 1.578125 0.109375 1.367188 0.0507812 1.203125 -0.0625 C 1.046875 -0.175781 0.925781 -0.34375 0.84375 -0.5625 C 0.769531 -0.789062 0.734375 -1.078125 0.734375 -1.421875 L 0.734375 -5.171875 L 0.1875 -5.171875 L 0.1875 -5.625 L 0.78125 -5.84375 L 1 -7.1875 L 1.5625 -7.1875 L 1.5625 -5.859375 L 2.546875 -5.859375 L 2.546875 -5.171875 L 1.5625 -5.171875 L 1.5625 -1.515625 C 1.5625 -1.210938 1.597656 -0.988281 1.671875 -0.84375 C 1.742188 -0.695312 1.882812 -0.625 2.09375 -0.625 Z M 2.09375 -0.625 "/></g></g></g><g fill="#2d6d5e" fill-opacity="1"><g transform="translate(93.104047, 137.776939)"><g><path d="M 2.328125 -5.953125 C 2.722656 -5.953125 3.050781 -5.835938 3.3125 -5.609375 C 3.570312 -5.378906 3.765625 -5.066406 3.890625 -4.671875 C 4.015625 -4.285156 4.078125 -3.851562 4.078125 -3.375 L 4.078125 -2.78125 L 1.28125 -2.78125 C 1.289062 -2.050781 1.40625 -1.503906 1.625 -1.140625 C 1.84375 -0.773438 2.171875 -0.59375 2.609375 -0.59375 C 2.828125 -0.59375 3.035156 -0.625 3.234375 -0.6875 C 3.441406 -0.75 3.648438 -0.851562 3.859375 -1 L 3.859375 -0.265625 C 3.660156 -0.140625 3.453125 -0.046875 3.234375 0.015625 C 3.015625 0.078125 2.78125 0.109375 2.53125 0.109375 C 2.039062 0.109375 1.644531 -0.0195312 1.34375 -0.28125 C 1.039062 -0.539062 0.816406 -0.898438 0.671875 -1.359375 C 0.535156 -1.816406 0.46875 -2.332031 0.46875 -2.90625 C 0.46875 -3.550781 0.535156 -4.101562 0.671875 -4.5625 C 0.816406 -5.019531 1.023438 -5.363281 1.296875 -5.59375 C 1.578125 -5.832031 1.921875 -5.953125 2.328125 -5.953125 Z M 2.328125 -5.28125 C 2.015625 -5.28125 1.769531 -5.128906 1.59375 -4.828125 C 1.425781 -4.535156 1.328125 -4.070312 1.296875 -3.4375 L 3.3125 -3.4375 C 3.3125 -3.769531 3.273438 -4.078125 3.203125 -4.359375 C 3.140625 -4.640625 3.035156 -4.863281 2.890625 -5.03125 C 2.742188 -5.195312 2.554688 -5.28125 2.328125 -5.28125 Z M 2.328125 -5.28125 "/></g></g></g><g fill="#2d6d5e" fill-opacity="1"><g transform="translate(99.161941, 137.776939)"><g><path d="M 5.3125 -5.96875 C 5.78125 -5.96875 6.125 -5.800781 6.34375 -5.46875 C 6.5625 -5.132812 6.671875 -4.628906 6.671875 -3.953125 L 6.671875 0 L 5.859375 0 L 5.859375 -3.8125 C 5.859375 -4.320312 5.789062 -4.6875 5.65625 -4.90625 C 5.53125 -5.132812 5.34375 -5.25 5.09375 -5.25 C 4.738281 -5.25 4.484375 -5.078125 4.328125 -4.734375 C 4.179688 -4.398438 4.109375 -3.921875 4.109375 -3.296875 L 4.109375 0 L 3.296875 0 L 3.296875 -3.8125 C 3.296875 -4.164062 3.265625 -4.445312 3.203125 -4.65625 C 3.148438 -4.863281 3.066406 -5.015625 2.953125 -5.109375 C 2.835938 -5.203125 2.695312 -5.25 2.53125 -5.25 C 2.257812 -5.25 2.050781 -5.15625 1.90625 -4.96875 C 1.769531 -4.789062 1.671875 -4.539062 1.609375 -4.21875 C 1.554688 -3.90625 1.53125 -3.546875 1.53125 -3.140625 L 1.53125 0 L 0.71875 0 L 0.71875 -5.859375 L 1.375 -5.859375 L 1.46875 -5.03125 L 1.515625 -5.03125 C 1.585938 -5.226562 1.679688 -5.394531 1.796875 -5.53125 C 1.921875 -5.675781 2.0625 -5.785156 2.21875 -5.859375 C 2.382812 -5.929688 2.566406 -5.96875 2.765625 -5.96875 C 3.109375 -5.96875 3.375 -5.875 3.5625 -5.6875 C 3.757812 -5.507812 3.890625 -5.28125 3.953125 -5 L 4.015625 -5 C 4.148438 -5.332031 4.316406 -5.578125 4.515625 -5.734375 C 4.722656 -5.890625 4.988281 -5.96875 5.3125 -5.96875 Z M 5.3125 -5.96875 "/></g></g></g></svg>