<svg xmlns="http://www.w3.org/2000/svg" xmlns:xlink="http://www.w3.org/1999/xlink" width="180" zoomAndPan="magnify" viewBox="0 0 135 119.999999" height="160" preserveAspectRatio="xMidYMid meet" version="1.0"><defs><clipPath id="f745ff32df"><path d="M 16.144531 3.410156 L 118.894531 3.410156 L 118.894531 116.660156 L 16.144531 116.660156 Z M 16.144531 3.410156 " clip-rule="nonzero"/></clipPath></defs><rect x="-13.5" width="162" fill="#ffffff" y="-12" height="143.999998" fill-opacity="1"/><rect x="-13.5" width="162" fill="#ffffff" y="-12" height="143.999998" fill-opacity="1"/><g clip-path="url(#f745ff32df)"><path fill="#0661aa" d="M 118.648438 21.125 C 118.386719 20.464844 117.65625 20.066406 116.996094 20.332031 L 99.578125 26.289062 C 99.511719 26.289062 99.445312 26.355469 99.445312 26.355469 C 99.117188 26.488281 98.652344 26.6875 98.054688 26.820312 C 96.601562 27.285156 94.746094 27.878906 93.621094 29.136719 C 90.773438 32.316406 87.195312 35.691406 84.679688 37.945312 C 83.6875 38.871094 82.5625 39.601562 81.371094 40.261719 L 74.617188 43.707031 C 74.285156 43.839844 74.019531 43.96875 73.6875 44.167969 C 73.421875 44.300781 73.09375 44.433594 72.828125 44.632812 L 68.457031 46.816406 C 67 47.546875 66.40625 47.214844 66.207031 47.082031 C 65.808594 46.816406 65.410156 46.222656 65.476562 45.691406 C 65.476562 45.558594 65.542969 45.425781 65.675781 45.292969 C 66.007812 45.164062 66.207031 45.097656 66.339844 45.03125 C 66.535156 44.964844 66.535156 44.964844 66.667969 44.898438 C 68.789062 43.839844 71.171875 42.644531 73.621094 41.320312 C 74.285156 40.992188 74.550781 40.195312 74.152344 39.535156 C 73.820312 38.871094 73.027344 38.605469 72.363281 39.003906 C 69.847656 40.328125 67.53125 41.519531 65.476562 42.515625 C 65.410156 42.515625 65.410156 42.515625 65.34375 42.578125 C 65.144531 42.644531 64.617188 42.910156 62.960938 43.574219 C 61.371094 44.234375 60.84375 44.5 60.246094 44.367188 C 59.980469 44.300781 59.78125 44.234375 59.585938 44.101562 C 58.988281 43.574219 58.789062 43.042969 58.789062 42.644531 C 58.921875 42.578125 59.054688 42.515625 59.1875 42.515625 L 71.703125 36.222656 C 72.363281 35.890625 72.628906 35.097656 72.296875 34.433594 C 71.96875 33.773438 71.171875 33.507812 70.511719 33.839844 L 57.996094 40.128906 C 57.464844 40.394531 56.871094 40.460938 56.40625 40.328125 C 56.074219 40.195312 55.609375 39.667969 55.542969 39.003906 C 55.542969 38.738281 55.542969 38.410156 55.808594 38.210938 C 56.273438 37.878906 56.933594 37.546875 57.332031 37.347656 C 57.398438 37.347656 57.398438 37.347656 57.464844 37.28125 C 59.648438 36.222656 61.835938 35.097656 64.019531 34.039062 C 66.140625 32.976562 68.390625 31.851562 70.511719 30.792969 C 71.171875 30.460938 71.4375 29.667969 71.105469 29.003906 C 70.773438 28.34375 69.980469 28.078125 69.316406 28.410156 C 67.132812 29.46875 64.949219 30.59375 62.761719 31.652344 C 60.976562 32.582031 59.054688 33.507812 57.265625 34.367188 C 56.933594 33.90625 56.738281 33.507812 56.738281 33.109375 L 56.738281 32.976562 C 56.738281 31.523438 60.046875 29.667969 61.636719 28.808594 C 62.035156 28.609375 62.429688 28.34375 62.761719 28.210938 C 63.953125 27.480469 65.34375 26.820312 66.667969 26.222656 C 68.191406 25.496094 69.847656 24.765625 71.238281 23.839844 C 71.570312 23.574219 71.96875 23.375 72.363281 23.179688 C 73.753906 22.382812 75.144531 21.523438 76.136719 20.066406 C 77.332031 18.277344 77.726562 16.226562 77.132812 14.503906 C 76.601562 12.847656 75.210938 11.523438 73.292969 10.863281 C 71.238281 10.132812 69.1875 10.464844 66.933594 11.921875 C 66.734375 12.054688 66.535156 12.1875 66.273438 12.320312 C 65.210938 13.046875 64.019531 13.839844 63.027344 13.578125 C 62.628906 13.511719 62.496094 13.3125 62.496094 13.246094 C 62.367188 12.980469 62.429688 12.582031 62.496094 12.386719 C 63.027344 12.054688 66.007812 9.933594 67.398438 7.882812 C 67.53125 7.683594 67.863281 7.617188 68.324219 7.550781 C 68.457031 7.550781 68.589844 7.484375 68.722656 7.484375 C 70.445312 7.417969 72.164062 7.417969 73.953125 7.417969 C 76.800781 7.417969 78.324219 7.417969 79.515625 7.617188 C 80.90625 7.816406 82.296875 8.214844 83.621094 8.808594 C 85.804688 9.800781 88.058594 10.332031 90.242188 10.398438 C 90.972656 10.464844 92.03125 10.398438 93.488281 10.265625 C 98.1875 9.867188 102.957031 9.007812 107.65625 7.683594 L 112.957031 6.226562 C 113.683594 6.027344 114.082031 5.300781 113.882812 4.570312 C 113.683594 3.84375 112.957031 3.445312 112.226562 3.644531 L 106.929688 5.101562 C 102.359375 6.359375 97.726562 7.21875 93.222656 7.550781 C 91.898438 7.683594 90.972656 7.683594 90.308594 7.683594 C 88.453125 7.617188 86.601562 7.152344 84.679688 6.292969 C 83.089844 5.628906 81.503906 5.101562 79.847656 4.902344 C 78.523438 4.703125 76.867188 4.703125 73.953125 4.703125 C 72.097656 4.703125 70.3125 4.703125 68.523438 4.769531 C 68.457031 4.769531 68.324219 4.769531 68.191406 4.835938 C 68.125 4.835938 68.058594 4.835938 67.925781 4.902344 C 67.265625 4.96875 65.941406 5.167969 65.144531 6.359375 C 64.019531 7.949219 61.503906 9.734375 60.976562 10.199219 C 60.113281 10.597656 59.714844 11.789062 59.714844 12.78125 C 59.648438 14.570312 60.710938 15.894531 62.429688 16.226562 C 64.550781 16.621094 66.273438 15.496094 67.664062 14.570312 C 67.863281 14.4375 68.058594 14.304688 68.257812 14.171875 C 69.78125 13.179688 71.039062 12.980469 72.296875 13.378906 C 73.421875 13.773438 74.21875 14.4375 74.484375 15.363281 C 74.8125 16.359375 74.550781 17.484375 73.820312 18.609375 C 73.160156 19.601562 72.03125 20.199219 70.90625 20.925781 C 70.511719 21.191406 70.113281 21.390625 69.714844 21.65625 C 68.390625 22.515625 66.933594 23.179688 65.410156 23.90625 C 64.019531 24.570312 62.5625 25.230469 61.238281 26.027344 C 60.976562 26.222656 60.578125 26.355469 60.246094 26.621094 C 57.730469 28.011719 53.957031 30.132812 53.957031 33.109375 C 53.957031 33.175781 53.957031 33.242188 53.957031 33.375 C 54.023438 34.367188 54.351562 35.164062 54.75 35.757812 C 54.550781 35.890625 54.351562 35.957031 54.21875 36.089844 C 53.160156 36.753906 52.632812 38.011719 52.828125 39.402344 C 53.027344 40.992188 54.089844 42.449219 55.414062 42.910156 C 55.609375 42.976562 55.875 43.042969 56.140625 43.109375 C 56.207031 44.234375 56.804688 45.359375 57.796875 46.222656 C 58.324219 46.683594 58.988281 47.015625 59.78125 47.148438 C 60.046875 47.214844 60.246094 47.214844 60.511719 47.214844 C 61.304688 47.214844 61.96875 47.015625 62.894531 46.621094 C 63.09375 47.878906 63.953125 49.003906 64.882812 49.53125 C 65.542969 49.929688 66.207031 50.0625 66.933594 50.0625 C 67.796875 50.0625 68.65625 49.796875 69.648438 49.335938 L 74.019531 47.148438 C 74.351562 47.015625 74.617188 46.882812 74.945312 46.683594 C 75.210938 46.554688 75.542969 46.421875 75.875 46.222656 L 82.628906 42.777344 C 84.019531 42.050781 85.34375 41.125 86.535156 40.128906 C 89.117188 37.8125 92.757812 34.433594 95.671875 31.125 C 95.804688 30.925781 96.003906 30.792969 96.269531 30.660156 C 96.269531 31.457031 96.269531 32.183594 96.335938 32.914062 C 96.535156 36.554688 97.195312 40.195312 100.242188 48.9375 C 101.964844 53.835938 102.957031 56.285156 103.816406 58.339844 C 104.148438 59.132812 104.480469 59.863281 104.746094 60.65625 C 91.765625 64.234375 78.390625 65.953125 64.882812 65.820312 C 52.300781 65.425781 39.851562 63.703125 27.734375 60.390625 C 27.933594 59.863281 28.132812 59.398438 28.394531 58.804688 C 29.257812 56.816406 30.25 54.300781 31.972656 49.335938 C 32.699219 47.148438 33.363281 45.230469 33.890625 43.441406 L 34.421875 43.574219 C 34.886719 43.773438 35.480469 43.96875 36.078125 44.167969 C 37.203125 44.5 38.660156 44.964844 39.320312 45.691406 C 42.234375 49.003906 45.945312 52.445312 48.460938 54.699219 C 49.652344 55.757812 50.910156 56.617188 52.367188 57.347656 L 59.1875 60.789062 C 59.453125 60.921875 59.78125 61.054688 60.046875 61.1875 C 60.378906 61.320312 60.644531 61.453125 60.910156 61.652344 L 65.277344 63.835938 C 66.273438 64.300781 67.132812 64.5625 67.992188 64.5625 C 68.722656 64.5625 69.449219 64.367188 70.046875 64.035156 C 70.972656 63.503906 71.835938 62.378906 72.03125 61.121094 C 72.960938 61.519531 73.6875 61.714844 74.417969 61.714844 C 74.617188 61.714844 74.878906 61.714844 75.144531 61.652344 C 75.941406 61.519531 76.601562 61.1875 77.132812 60.722656 C 78.125 59.863281 78.65625 58.804688 78.789062 57.609375 C 79.050781 57.546875 79.25 57.480469 79.515625 57.414062 C 80.839844 56.949219 81.898438 55.492188 82.097656 53.902344 C 82.230469 52.511719 81.765625 51.320312 80.707031 50.59375 C 79.914062 50.0625 77.265625 48.605469 77 48.472656 C 76.335938 48.140625 75.542969 48.339844 75.210938 49.003906 C 74.878906 49.664062 75.078125 50.460938 75.742188 50.789062 C 76.535156 51.253906 78.722656 52.445312 79.316406 52.84375 C 79.582031 53.042969 79.582031 53.375 79.582031 53.636719 C 79.515625 54.300781 79.050781 54.832031 78.722656 54.960938 C 78.257812 55.160156 77.660156 55.09375 77.132812 54.765625 L 71.703125 52.050781 C 71.039062 51.71875 70.246094 51.984375 69.914062 52.644531 C 69.582031 53.308594 69.847656 54.101562 70.511719 54.433594 L 75.941406 57.148438 C 76.074219 57.214844 76.203125 57.28125 76.335938 57.28125 C 76.335938 57.675781 76.203125 58.140625 75.542969 58.738281 C 75.34375 58.871094 75.144531 59 74.878906 59 C 74.285156 59.132812 73.753906 58.871094 72.097656 58.207031 C 70.511719 57.546875 69.980469 57.28125 69.78125 57.214844 C 69.648438 57.148438 69.648438 57.148438 69.648438 57.148438 C 67.53125 56.089844 65.210938 54.960938 62.695312 53.636719 C 62.035156 53.308594 61.238281 53.570312 60.910156 54.167969 C 60.578125 54.832031 60.84375 55.625 61.4375 55.957031 C 63.953125 57.28125 66.273438 58.472656 68.390625 59.53125 C 68.523438 59.597656 68.523438 59.597656 68.722656 59.664062 C 68.855469 59.730469 68.988281 59.796875 69.382812 59.929688 C 69.449219 60.0625 69.515625 60.195312 69.582031 60.324219 C 69.648438 60.855469 69.25 61.519531 68.855469 61.78125 C 68.65625 61.914062 68.058594 62.246094 66.601562 61.519531 L 61.96875 59.332031 C 61.703125 59.199219 61.371094 59.066406 61.105469 58.9375 C 60.777344 58.804688 60.511719 58.671875 60.246094 58.472656 L 53.492188 55.027344 C 52.300781 54.433594 51.175781 53.636719 50.179688 52.710938 C 47.664062 50.460938 44.089844 47.148438 41.242188 43.902344 C 40.117188 42.644531 38.328125 42.050781 36.804688 41.585938 C 36.277344 41.386719 35.746094 41.253906 35.414062 41.125 C 35.347656 41.125 35.28125 41.058594 35.214844 41.058594 L 18 35.691406 C 17.269531 35.496094 16.542969 35.890625 16.34375 36.554688 C 16.144531 37.214844 16.542969 38.011719 17.203125 38.210938 L 31.375 42.578125 C 30.847656 44.367188 30.183594 46.289062 29.457031 48.472656 C 27.734375 53.375 26.742188 55.824219 25.945312 57.808594 C 25.546875 58.738281 25.21875 59.53125 24.886719 60.457031 C 24.820312 60.589844 24.6875 60.722656 24.6875 60.921875 C 24.6875 60.988281 24.621094 61.121094 24.621094 61.1875 C 24.421875 61.714844 24.222656 62.378906 23.960938 63.042969 C 21.246094 71.515625 20.847656 78.535156 20.582031 83.171875 C 19.984375 93.964844 21.308594 104.890625 24.621094 115.617188 C 24.820312 116.148438 25.285156 116.542969 25.878906 116.542969 L 57.929688 116.542969 C 58.0625 116.542969 58.195312 116.542969 58.324219 116.476562 C 58.324219 116.476562 58.390625 116.476562 58.390625 116.476562 C 58.523438 116.414062 58.589844 116.347656 58.722656 116.28125 L 64.882812 111.644531 L 70.578125 116.214844 C 70.839844 116.414062 71.105469 116.476562 71.4375 116.476562 L 106.664062 116.476562 C 107.261719 116.476562 107.789062 116.082031 107.921875 115.484375 C 111.035156 104.558594 112.292969 93.433594 111.566406 82.375 C 111.234375 77.078125 110.835938 70.523438 108.1875 62.3125 C 107.460938 60.0625 106.863281 58.671875 106.199219 56.949219 C 105.40625 54.960938 104.347656 52.578125 102.691406 47.746094 C 99.777344 39.269531 99.117188 35.824219 98.917969 32.449219 C 98.851562 31.457031 98.851562 30.394531 98.917969 29.269531 C 99.511719 29.070312 100.042969 28.9375 100.507812 28.675781 L 117.855469 22.714844 C 118.519531 22.582031 118.847656 21.855469 118.648438 21.125 Z M 66.273438 68.207031 C 79.582031 68.207031 92.757812 66.417969 105.605469 62.910156 C 105.671875 63.042969 105.671875 63.105469 105.738281 63.238281 C 106.664062 66.019531 107.261719 68.667969 107.722656 71.121094 C 93.753906 74.960938 79.316406 76.878906 64.816406 76.75 C 51.242188 76.617188 37.730469 74.695312 24.6875 71.054688 C 25.152344 68.800781 25.746094 66.417969 26.542969 63.902344 C 26.675781 63.570312 26.742188 63.238281 26.871094 62.910156 C 39.253906 66.351562 52.035156 68.140625 64.882812 68.273438 C 65.277344 68.207031 65.808594 68.207031 66.273438 68.207031 Z M 105.605469 113.894531 L 71.835938 113.894531 L 67.464844 110.386719 L 72.761719 108.136719 C 73.421875 107.871094 73.753906 107.074219 73.488281 106.414062 C 73.226562 105.75 72.429688 105.421875 71.769531 105.683594 L 64.949219 108.597656 L 58.523438 105.683594 C 57.863281 105.421875 57.066406 105.683594 56.804688 106.347656 C 56.472656 107.007812 56.804688 107.804688 57.464844 108.070312 L 62.367188 110.253906 L 57.53125 113.828125 L 26.871094 113.828125 C 23.894531 103.699219 22.699219 93.433594 23.230469 83.238281 C 23.363281 80.589844 23.5625 77.34375 24.15625 73.570312 C 37.402344 77.210938 51.042969 79.132812 64.75 79.265625 C 65.277344 79.265625 65.808594 79.265625 66.273438 79.265625 C 80.375 79.265625 94.480469 77.34375 108.121094 73.636719 C 108.585938 76.945312 108.785156 79.925781 108.917969 82.640625 C 109.511719 93.039062 108.453125 103.566406 105.605469 113.894531 Z M 20.515625 19.140625 C 20.714844 18.410156 21.441406 18.011719 22.171875 18.210938 L 32.039062 20.859375 L 28.859375 7.484375 C 28.660156 6.757812 29.125 6.09375 29.851562 5.894531 C 30.582031 5.695312 31.308594 6.160156 31.441406 6.890625 L 34.820312 21.589844 C 35.679688 21.65625 36.804688 21.789062 38.0625 21.921875 C 40.382812 22.183594 43.03125 22.449219 44.421875 22.382812 C 44.421875 22.382812 44.488281 22.382812 44.554688 22.382812 C 46.339844 22.316406 48.195312 21.855469 50.113281 20.992188 C 51.703125 20.332031 53.292969 19.800781 54.949219 19.601562 C 55.148438 19.601562 59.980469 18.808594 62.960938 19.667969 C 63.691406 19.867188 64.085938 20.597656 63.886719 21.324219 C 63.691406 22.050781 62.960938 22.449219 62.234375 22.25 C 60.246094 21.65625 56.605469 22.050781 55.347656 22.25 C 53.957031 22.449219 52.566406 22.847656 51.175781 23.441406 C 48.988281 24.4375 46.738281 24.964844 44.617188 25.03125 C 44.421875 25.03125 44.222656 25.03125 44.023438 25.03125 C 42.367188 25.03125 39.984375 24.765625 37.863281 24.570312 C 36.34375 24.4375 34.953125 24.304688 34.15625 24.238281 C 34.023438 24.238281 33.957031 24.238281 33.824219 24.171875 L 21.441406 20.792969 C 20.714844 20.597656 20.316406 19.867188 20.515625 19.140625 Z M 20.515625 19.140625 " fill-opacity="1" fill-rule="nonzero"/></g></svg>