<svg xmlns="http://www.w3.org/2000/svg" xmlns:xlink="http://www.w3.org/1999/xlink" width="180" zoomAndPan="magnify" viewBox="0 0 135 119.999999" height="160" preserveAspectRatio="xMidYMid meet" version="1.0"><defs><clipPath id="30d4f801c5"><path d="M 3.605469 62 L 22 62 L 22 90 L 3.605469 90 Z M 3.605469 62 " clip-rule="nonzero"/></clipPath></defs><rect x="-13.5" width="162" fill="#ffffff" y="-12" height="143.999998" fill-opacity="1"/><rect x="-13.5" width="162" fill="#ffffff" y="-12" height="143.999998" fill-opacity="1"/><path fill="#0661aa" d="M 78.9375 78.726562 C 78.574219 78.726562 78.207031 78.625 77.878906 78.417969 L 70.859375 73.972656 C 70.308594 73.625 69.96875 73.03125 69.941406 72.382812 L 69.746094 67.671875 L 63.667969 62.851562 C 62.871094 62.222656 62.683594 61.09375 63.226562 60.238281 L 73.113281 44.738281 L 71.636719 36.371094 C 71.578125 36.023438 71.609375 35.664062 71.734375 35.332031 L 79.894531 13.566406 C 80.277344 12.542969 81.417969 12.023438 82.441406 12.410156 C 83.460938 12.792969 83.980469 13.933594 83.597656 14.957031 L 75.625 36.214844 L 77.140625 44.808594 C 77.226562 45.296875 77.125 45.800781 76.859375 46.21875 L 67.519531 60.859375 L 72.910156 65.132812 C 73.359375 65.492188 73.632812 66.027344 73.65625 66.601562 L 73.847656 71.183594 L 79.996094 75.074219 C 80.921875 75.660156 81.191406 76.882812 80.609375 77.804688 C 80.234375 78.402344 79.589844 78.726562 78.9375 78.726562 Z M 78.9375 78.726562 " fill-opacity="1" fill-rule="nonzero"/><path fill="#0661aa" d="M 77.898438 97.082031 C 77.382812 97.082031 76.875 96.875 76.5 96.5 L 72.1875 92.1875 C 71.828125 91.828125 71.621094 91.347656 71.609375 90.839844 L 71.34375 81.121094 C 71.3125 80.03125 72.175781 79.121094 73.265625 79.089844 C 74.359375 79.058594 75.269531 79.921875 75.296875 81.015625 L 75.542969 89.945312 L 78.515625 92.917969 L 99.925781 87.824219 L 112.164062 75.359375 C 112.929688 74.578125 114.179688 74.566406 114.960938 75.332031 C 115.738281 76.097656 115.75 77.351562 114.984375 78.128906 L 102.347656 91 C 102.085938 91.265625 101.757812 91.453125 101.394531 91.539062 L 78.359375 97.023438 C 78.207031 97.058594 78.054688 97.074219 77.898438 97.074219 Z M 77.898438 97.082031 " fill-opacity="1" fill-rule="nonzero"/><path fill="#0661aa" d="M 93.578125 44.902344 C 93.367188 44.902344 93.148438 44.867188 92.933594 44.792969 L 81.101562 40.710938 C 80.066406 40.355469 79.519531 39.230469 79.875 38.195312 C 80.230469 37.164062 81.355469 36.617188 82.390625 36.972656 L 94.222656 41.054688 C 95.257812 41.410156 95.804688 42.539062 95.449219 43.570312 C 95.167969 44.390625 94.398438 44.902344 93.578125 44.902344 Z M 93.578125 44.902344 " fill-opacity="1" fill-rule="nonzero"/><path fill="#0661aa" d="M 89.476562 51.691406 C 89.261719 51.691406 89.046875 51.65625 88.832031 51.582031 L 82.746094 49.484375 C 81.714844 49.128906 81.164062 48 81.523438 46.96875 C 81.878906 45.9375 83.003906 45.386719 84.035156 45.742188 L 90.121094 47.84375 C 91.152344 48.199219 91.703125 49.324219 91.347656 50.359375 C 91.0625 51.175781 90.296875 51.691406 89.476562 51.691406 Z M 89.476562 51.691406 " fill-opacity="1" fill-rule="nonzero"/><path fill="#0661aa" d="M 99.53125 107.980469 C 98.75 107.980469 98.011719 107.515625 97.699219 106.746094 L 91.746094 92.117188 C 91.335938 91.105469 91.820312 89.949219 92.832031 89.539062 C 93.84375 89.128906 95 89.613281 95.410156 90.625 L 101.363281 105.253906 C 101.773438 106.265625 101.289062 107.421875 100.277344 107.832031 C 100.03125 107.929688 99.78125 107.980469 99.53125 107.980469 Z M 99.53125 107.980469 " fill-opacity="1" fill-rule="nonzero"/><path fill="#0661aa" d="M 118.765625 68.429688 L 116.617188 68.429688 C 115.523438 68.429688 114.640625 67.542969 114.640625 66.449219 C 114.640625 65.355469 115.523438 64.472656 116.617188 64.472656 L 118.765625 64.472656 C 120.1875 64.472656 121.5 63.699219 122.195312 62.457031 L 126.113281 55.425781 C 127.015625 53.800781 126.652344 51.746094 125.238281 50.535156 C 124.070312 49.535156 122.417969 49.308594 121.023438 49.960938 L 117.453125 51.628906 C 116.464844 52.089844 115.285156 51.660156 114.824219 50.671875 C 114.359375 49.683594 114.789062 48.503906 115.777344 48.042969 L 119.351562 46.375 C 122.148438 45.070312 125.46875 45.523438 127.8125 47.53125 C 130.648438 49.960938 131.386719 54.09375 129.566406 57.351562 L 125.648438 64.382812 C 124.257812 66.878906 121.621094 68.429688 118.765625 68.429688 Z M 118.765625 68.429688 " fill-opacity="1" fill-rule="nonzero"/><path fill="#0661aa" d="M 30.636719 76.671875 C 23.609375 76.671875 17.890625 70.953125 17.890625 63.925781 C 17.890625 63.28125 17.941406 62.636719 18.035156 62.011719 C 18.488281 59.027344 19.996094 56.285156 22.289062 54.296875 C 24.601562 52.289062 27.566406 51.183594 30.636719 51.183594 C 37.664062 51.183594 43.382812 56.898438 43.382812 63.925781 C 43.382812 65.019531 42.496094 65.90625 41.402344 65.90625 C 40.3125 65.90625 39.425781 65.019531 39.425781 63.925781 C 39.425781 59.082031 35.480469 55.140625 30.636719 55.140625 C 26.324219 55.140625 22.589844 58.347656 21.949219 62.601562 C 21.882812 63.035156 21.847656 63.480469 21.847656 63.925781 C 21.847656 68.773438 25.792969 72.714844 30.636719 72.714844 C 31.730469 72.714844 32.613281 73.601562 32.613281 74.691406 C 32.613281 75.785156 31.730469 76.671875 30.636719 76.671875 Z M 30.636719 76.671875 " fill-opacity="1" fill-rule="nonzero"/><path fill="#0661aa" d="M 30.636719 98.203125 C 27.566406 98.203125 24.601562 97.097656 22.289062 95.089844 C 19.996094 93.101562 18.488281 90.359375 18.035156 87.375 C 17.875 86.292969 18.617188 85.285156 19.699219 85.121094 C 20.777344 84.960938 21.789062 85.703125 21.949219 86.785156 C 22.59375 91.039062 26.328125 94.246094 30.636719 94.246094 C 35.484375 94.246094 39.425781 90.304688 39.425781 85.460938 C 39.425781 84.367188 40.3125 83.480469 41.40625 83.480469 C 42.496094 83.480469 43.382812 84.367188 43.382812 85.460938 C 43.382812 92.488281 37.664062 98.203125 30.636719 98.203125 Z M 30.636719 98.203125 " fill-opacity="1" fill-rule="nonzero"/><path fill="#0661aa" d="M 30.636719 76.671875 C 23.609375 76.671875 17.890625 70.953125 17.890625 63.925781 C 17.890625 62.835938 18.777344 61.949219 19.871094 61.949219 C 20.960938 61.949219 21.847656 62.835938 21.847656 63.925781 C 21.847656 68.773438 25.792969 72.714844 30.636719 72.714844 C 31.730469 72.714844 32.613281 73.601562 32.613281 74.691406 C 32.613281 75.785156 31.730469 76.671875 30.636719 76.671875 Z M 30.636719 76.671875 " fill-opacity="1" fill-rule="nonzero"/><g clip-path="url(#30d4f801c5)"><path fill="#0661aa" d="M 18.109375 89.199219 C 10.113281 89.199219 3.605469 82.691406 3.605469 74.695312 C 3.605469 70.214844 5.628906 66.058594 9.152344 63.285156 C 10.011719 62.613281 11.257812 62.761719 11.929688 63.617188 C 12.605469 64.476562 12.457031 65.722656 11.597656 66.394531 C 9.035156 68.410156 7.5625 71.4375 7.5625 74.691406 C 7.5625 80.507812 12.296875 85.238281 18.109375 85.238281 C 18.640625 85.238281 19.175781 85.199219 19.699219 85.121094 C 20.777344 84.960938 21.785156 85.703125 21.949219 86.785156 C 22.109375 87.863281 21.363281 88.871094 20.285156 89.035156 C 19.566406 89.140625 18.835938 89.195312 18.109375 89.195312 Z M 18.109375 89.199219 " fill-opacity="1" fill-rule="nonzero"/></g><path fill="#0661aa" d="M 59.488281 72.304688 C 59.113281 72.304688 58.742188 72.199219 58.40625 71.984375 L 37.511719 58.335938 C 36.597656 57.738281 36.34375 56.511719 36.941406 55.597656 C 37.535156 54.683594 38.761719 54.425781 39.675781 55.023438 L 60.570312 68.671875 C 61.484375 69.269531 61.742188 70.496094 61.144531 71.410156 C 60.765625 71.992188 60.132812 72.304688 59.488281 72.304688 Z M 59.488281 72.304688 " fill-opacity="1" fill-rule="nonzero"/><path fill="#0661aa" d="M 38.597656 94.683594 C 37.9375 94.683594 37.292969 94.355469 36.914062 93.75 C 36.339844 92.824219 36.625 91.601562 37.550781 91.027344 L 58.484375 77.996094 C 59.414062 77.417969 60.632812 77.703125 61.210938 78.628906 C 61.789062 79.558594 61.503906 80.777344 60.574219 81.355469 L 39.640625 94.386719 C 39.316406 94.585938 38.953125 94.683594 38.597656 94.683594 Z M 38.597656 94.683594 " fill-opacity="1" fill-rule="nonzero"/><path fill="#0661aa" d="M 46.195312 76.671875 L 38.597656 76.671875 C 37.503906 76.671875 36.617188 75.785156 36.617188 74.691406 C 36.617188 73.601562 37.503906 72.714844 38.597656 72.714844 L 46.195312 72.714844 C 47.285156 72.714844 48.171875 73.601562 48.171875 74.691406 C 48.171875 75.785156 47.285156 76.671875 46.195312 76.671875 Z M 46.195312 76.671875 " fill-opacity="1" fill-rule="nonzero"/></svg>