<svg xmlns="http://www.w3.org/2000/svg" xmlns:xlink="http://www.w3.org/1999/xlink" width="180" zoomAndPan="magnify" viewBox="0 0 135.12 149.999995" height="215" preserveAspectRatio="xMidYMid meet" version="1.2"><defs><clipPath id="b7aca8dfbd"><path d="M 35.121094 22.492188 L 99 22.492188 L 99 63.472656 L 35.121094 63.472656 Z M 35.121094 22.492188 "/></clipPath></defs><g id="0f7ccafd51"><g style="fill:#0661aa;fill-opacity:1;"><g transform="translate(22.176198, 82.472415)"><path style="stroke:none" d="M 0.09375 0 L 4.625 -14.140625 L 8.84375 -14.140625 L 13.359375 0 L 9.890625 0 L 9.09375 -2.78125 L 4.34375 -2.78125 L 3.53125 0 Z M 4.859375 -5.1875 L 8.5625 -5.1875 L 6.765625 -11.40625 L 6.734375 -11.40625 Z M 4.859375 -5.1875 "/></g></g><g style="fill:#0661aa;fill-opacity:1;"><g transform="translate(37.987877, 82.472415)"><path style="stroke:none" d="M 0.75 0 L 0.75 -14.734375 L 3.765625 -14.734375 L 3.765625 0 Z M 0.75 0 "/></g></g><g style="fill:#0661aa;fill-opacity:1;"><g transform="translate(44.861317, 82.472415)"><path style="stroke:none" d="M 5.4375 0.3125 C 4.269531 0.3125 3.375 -0.00390625 2.75 -0.640625 C 2.125 -1.273438 1.8125 -2.132812 1.8125 -3.21875 L 1.78125 -7.859375 L 0.078125 -7.859375 L 0.078125 -10.171875 L 1.8125 -10.171875 L 1.8125 -12.875 L 4.828125 -13.546875 L 4.828125 -10.171875 L 8.296875 -10.171875 L 8.296875 -7.859375 L 4.828125 -7.859375 L 4.84375 -3.75 C 4.84375 -3.25 4.960938 -2.851562 5.203125 -2.5625 C 5.441406 -2.28125 5.757812 -2.140625 6.15625 -2.140625 C 6.90625 -2.140625 7.457031 -2.554688 7.8125 -3.390625 L 8.796875 -1.546875 C 8.484375 -0.953125 8.03125 -0.492188 7.4375 -0.171875 C 6.84375 0.148438 6.175781 0.3125 5.4375 0.3125 Z M 5.4375 0.3125 "/></g></g><g style="fill:#0661aa;fill-opacity:1;"><g transform="translate(56.144287, 82.472415)"><path style="stroke:none" d="M 2.34375 -11.5625 C 1.800781 -11.5625 1.367188 -11.71875 1.046875 -12.03125 C 0.722656 -12.351562 0.5625 -12.769531 0.5625 -13.28125 C 0.5625 -13.8125 0.722656 -14.234375 1.046875 -14.546875 C 1.367188 -14.867188 1.800781 -15.03125 2.34375 -15.03125 C 2.882812 -15.03125 3.316406 -14.867188 3.640625 -14.546875 C 3.960938 -14.234375 4.125 -13.8125 4.125 -13.28125 C 4.125 -12.769531 3.960938 -12.351562 3.640625 -12.03125 C 3.316406 -11.71875 2.882812 -11.5625 2.34375 -11.5625 Z M 0.8125 0 L 0.8125 -10.171875 L 3.859375 -10.171875 L 3.859375 0 Z M 0.8125 0 "/></g></g><g style="fill:#0661aa;fill-opacity:1;"><g transform="translate(63.176623, 82.472415)"><path style="stroke:none" d="M 5.4375 0.3125 C 4.269531 0.3125 3.375 -0.00390625 2.75 -0.640625 C 2.125 -1.273438 1.8125 -2.132812 1.8125 -3.21875 L 1.78125 -7.859375 L 0.078125 -7.859375 L 0.078125 -10.171875 L 1.8125 -10.171875 L 1.8125 -12.875 L 4.828125 -13.546875 L 4.828125 -10.171875 L 8.296875 -10.171875 L 8.296875 -7.859375 L 4.828125 -7.859375 L 4.84375 -3.75 C 4.84375 -3.25 4.960938 -2.851562 5.203125 -2.5625 C 5.441406 -2.28125 5.757812 -2.140625 6.15625 -2.140625 C 6.90625 -2.140625 7.457031 -2.554688 7.8125 -3.390625 L 8.796875 -1.546875 C 8.484375 -0.953125 8.03125 -0.492188 7.4375 -0.171875 C 6.84375 0.148438 6.175781 0.3125 5.4375 0.3125 Z M 5.4375 0.3125 "/></g></g><g style="fill:#0661aa;fill-opacity:1;"><g transform="translate(74.459593, 82.472415)"><path style="stroke:none" d="M 3.734375 0.265625 C 2.804688 0.265625 2.066406 -0.015625 1.515625 -0.578125 C 0.960938 -1.148438 0.6875 -1.9375 0.6875 -2.9375 L 0.6875 -10.171875 L 3.734375 -10.171875 L 3.734375 -3.71875 C 3.734375 -3.238281 3.851562 -2.863281 4.09375 -2.59375 C 4.34375 -2.332031 4.671875 -2.203125 5.078125 -2.203125 C 5.617188 -2.203125 6.054688 -2.378906 6.390625 -2.734375 C 6.722656 -3.097656 6.890625 -3.582031 6.890625 -4.1875 L 6.890625 -10.171875 L 9.90625 -10.171875 L 9.90625 0 L 7.40625 0 L 6.984375 -1.734375 L 6.96875 -1.734375 C 6.664062 -1.097656 6.226562 -0.601562 5.65625 -0.25 C 5.09375 0.09375 4.453125 0.265625 3.734375 0.265625 Z M 3.734375 0.265625 "/></g></g><g style="fill:#0661aa;fill-opacity:1;"><g transform="translate(87.470616, 82.472415)"><path style="stroke:none" d="M 4.421875 0.28125 C 3.617188 0.28125 2.914062 0.0625 2.3125 -0.375 C 1.707031 -0.8125 1.238281 -1.429688 0.90625 -2.234375 C 0.582031 -3.046875 0.421875 -3.992188 0.421875 -5.078125 C 0.421875 -6.179688 0.582031 -7.132812 0.90625 -7.9375 C 1.238281 -8.738281 1.707031 -9.359375 2.3125 -9.796875 C 2.914062 -10.234375 3.613281 -10.453125 4.40625 -10.453125 C 5.09375 -10.453125 5.703125 -10.273438 6.234375 -9.921875 C 6.765625 -9.578125 7.175781 -9.082031 7.46875 -8.4375 L 7.484375 -8.4375 L 7.484375 -14.734375 L 10.53125 -14.734375 L 10.53125 0 L 7.9375 0 L 7.5625 -1.765625 L 7.546875 -1.765625 C 7.253906 -1.109375 6.835938 -0.601562 6.296875 -0.25 C 5.753906 0.101562 5.128906 0.28125 4.421875 0.28125 Z M 5.546875 -2.328125 C 6.160156 -2.328125 6.65625 -2.578125 7.03125 -3.078125 C 7.414062 -3.578125 7.609375 -4.242188 7.609375 -5.078125 C 7.609375 -5.910156 7.414062 -6.578125 7.03125 -7.078125 C 6.65625 -7.585938 6.160156 -7.84375 5.546875 -7.84375 C 4.921875 -7.84375 4.414062 -7.585938 4.03125 -7.078125 C 3.644531 -6.578125 3.453125 -5.910156 3.453125 -5.078125 C 3.453125 -4.242188 3.644531 -3.578125 4.03125 -3.078125 C 4.414062 -2.578125 4.921875 -2.328125 5.546875 -2.328125 Z M 5.546875 -2.328125 "/></g></g><g style="fill:#0661aa;fill-opacity:1;"><g transform="translate(101.097394, 82.472415)"><path style="stroke:none" d="M 5.9375 0.34375 C 4.84375 0.34375 3.875 0.117188 3.03125 -0.328125 C 2.195312 -0.785156 1.550781 -1.425781 1.09375 -2.25 C 0.644531 -3.082031 0.421875 -4.046875 0.421875 -5.140625 C 0.421875 -6.222656 0.628906 -7.164062 1.046875 -7.96875 C 1.460938 -8.769531 2.046875 -9.394531 2.796875 -9.84375 C 3.554688 -10.300781 4.445312 -10.53125 5.46875 -10.53125 C 6.445312 -10.53125 7.289062 -10.3125 8 -9.875 C 8.71875 -9.445312 9.273438 -8.84375 9.671875 -8.0625 C 10.078125 -7.289062 10.28125 -6.382812 10.28125 -5.34375 C 10.28125 -5.132812 10.269531 -4.929688 10.25 -4.734375 C 10.238281 -4.546875 10.210938 -4.382812 10.171875 -4.25 L 3.453125 -4.25 C 3.523438 -3.507812 3.785156 -2.921875 4.234375 -2.484375 C 4.679688 -2.054688 5.253906 -1.84375 5.953125 -1.84375 C 6.492188 -1.84375 6.972656 -1.972656 7.390625 -2.234375 C 7.804688 -2.503906 8.125 -2.875 8.34375 -3.34375 L 10.46875 -2.40625 C 10.175781 -1.550781 9.613281 -0.878906 8.78125 -0.390625 C 7.945312 0.0976562 7 0.34375 5.9375 0.34375 Z M 3.453125 -5.984375 L 7.265625 -5.984375 C 7.222656 -6.722656 7.039062 -7.296875 6.71875 -7.703125 C 6.40625 -8.117188 5.976562 -8.328125 5.4375 -8.328125 C 4.875 -8.328125 4.421875 -8.113281 4.078125 -7.6875 C 3.734375 -7.269531 3.523438 -6.703125 3.453125 -5.984375 Z M 3.453125 -5.984375 "/></g></g><g style="fill:#0661aa;fill-opacity:1;"><g transform="translate(21.617338, 106.31712)"><path style="stroke:none" d="M 4.03125 0 L 4.03125 -11.234375 L 0.296875 -11.234375 L 0.296875 -14.140625 L 11.15625 -14.140625 L 11.15625 -11.234375 L 7.421875 -11.234375 L 7.421875 0 Z M 4.03125 0 "/></g></g><g style="fill:#0661aa;fill-opacity:1;"><g transform="translate(35.422875, 106.31712)"><path style="stroke:none" d="M 6.234375 -10.453125 C 7.066406 -10.453125 7.734375 -10.140625 8.234375 -9.515625 C 8.742188 -8.890625 9.023438 -8.007812 9.078125 -6.875 L 6.515625 -6.171875 C 6.503906 -6.835938 6.382812 -7.335938 6.15625 -7.671875 C 5.925781 -8.015625 5.628906 -8.1875 5.265625 -8.1875 C 4.816406 -8.1875 4.453125 -7.957031 4.171875 -7.5 C 3.898438 -7.050781 3.765625 -6.429688 3.765625 -5.640625 L 3.765625 0 L 0.75 0 L 0.75 -10.171875 L 3.203125 -10.171875 L 3.609375 -8.421875 L 3.640625 -8.421875 C 3.859375 -9.054688 4.195312 -9.550781 4.65625 -9.90625 C 5.125 -10.269531 5.648438 -10.453125 6.234375 -10.453125 Z M 6.234375 -10.453125 "/></g></g><g style="fill:#0661aa;fill-opacity:1;"><g transform="translate(47.122966, 106.31712)"><path style="stroke:none" d="M 3.515625 0.234375 C 2.546875 0.234375 1.765625 -0.0195312 1.171875 -0.53125 C 0.578125 -1.050781 0.28125 -1.75 0.28125 -2.625 C 0.28125 -3.550781 0.632812 -4.300781 1.34375 -4.875 C 2.050781 -5.445312 3.085938 -5.804688 4.453125 -5.953125 L 6.015625 -6.140625 C 6.242188 -6.160156 6.425781 -6.238281 6.5625 -6.375 C 6.695312 -6.507812 6.765625 -6.703125 6.765625 -6.953125 C 6.765625 -7.398438 6.625 -7.742188 6.34375 -7.984375 C 6.070312 -8.222656 5.710938 -8.34375 5.265625 -8.34375 C 4.742188 -8.34375 4.320312 -8.160156 4 -7.796875 C 3.6875 -7.441406 3.519531 -6.992188 3.5 -6.453125 L 0.609375 -6.875 C 0.640625 -7.582031 0.847656 -8.210938 1.234375 -8.765625 C 1.628906 -9.316406 2.164062 -9.75 2.84375 -10.0625 C 3.53125 -10.375 4.332031 -10.53125 5.25 -10.53125 C 6.632812 -10.53125 7.726562 -10.164062 8.53125 -9.4375 C 9.34375 -8.707031 9.75 -7.71875 9.75 -6.46875 L 9.75 -2.546875 C 9.75 -2.085938 9.914062 -1.859375 10.25 -1.859375 C 10.507812 -1.859375 10.757812 -1.992188 11 -2.265625 L 11.65625 -0.640625 C 11.34375 -0.328125 10.957031 -0.0976562 10.5 0.046875 C 10.050781 0.191406 9.609375 0.265625 9.171875 0.265625 C 8.566406 0.265625 8.054688 0.109375 7.640625 -0.203125 C 7.222656 -0.515625 6.957031 -0.910156 6.84375 -1.390625 L 6.8125 -1.640625 L 6.796875 -1.640625 C 6.484375 -1.066406 6.039062 -0.609375 5.46875 -0.265625 C 4.90625 0.0664062 4.253906 0.234375 3.515625 0.234375 Z M 4.765625 -1.890625 C 5.335938 -1.890625 5.804688 -2.085938 6.171875 -2.484375 C 6.546875 -2.890625 6.734375 -3.421875 6.734375 -4.078125 L 6.734375 -4.546875 L 5.25 -4.390625 C 4.550781 -4.304688 4.050781 -4.140625 3.75 -3.890625 C 3.457031 -3.640625 3.3125 -3.34375 3.3125 -3 C 3.3125 -2.664062 3.445312 -2.394531 3.71875 -2.1875 C 3.988281 -1.988281 4.335938 -1.890625 4.765625 -1.890625 Z M 4.765625 -1.890625 "/></g></g><g style="fill:#0661aa;fill-opacity:1;"><g transform="translate(61.127128, 106.31712)"><path style="stroke:none" d="M 2.34375 -11.5625 C 1.800781 -11.5625 1.367188 -11.71875 1.046875 -12.03125 C 0.722656 -12.351562 0.5625 -12.769531 0.5625 -13.28125 C 0.5625 -13.8125 0.722656 -14.234375 1.046875 -14.546875 C 1.367188 -14.867188 1.800781 -15.03125 2.34375 -15.03125 C 2.882812 -15.03125 3.316406 -14.867188 3.640625 -14.546875 C 3.960938 -14.234375 4.125 -13.8125 4.125 -13.28125 C 4.125 -12.769531 3.960938 -12.351562 3.640625 -12.03125 C 3.316406 -11.71875 2.882812 -11.5625 2.34375 -11.5625 Z M 0.8125 0 L 0.8125 -10.171875 L 3.859375 -10.171875 L 3.859375 0 Z M 0.8125 0 "/></g></g><g style="fill:#0661aa;fill-opacity:1;"><g transform="translate(68.159464, 106.31712)"><path style="stroke:none" d="M 6.9375 -10.421875 C 7.875 -10.421875 8.613281 -10.140625 9.15625 -9.578125 C 9.695312 -9.015625 9.96875 -8.234375 9.96875 -7.234375 L 9.96875 0 L 6.9375 0 L 6.9375 -6.453125 C 6.9375 -6.929688 6.816406 -7.300781 6.578125 -7.5625 C 6.335938 -7.832031 6.003906 -7.96875 5.578125 -7.96875 C 5.035156 -7.96875 4.597656 -7.789062 4.265625 -7.4375 C 3.929688 -7.082031 3.765625 -6.597656 3.765625 -5.984375 L 3.765625 0 L 0.75 0 L 0.75 -10.171875 L 3.25 -10.171875 L 3.671875 -8.4375 L 3.6875 -8.4375 C 4 -9.070312 4.4375 -9.5625 5 -9.90625 C 5.570312 -10.25 6.21875 -10.421875 6.9375 -10.421875 Z M 6.9375 -10.421875 "/></g></g><g style="fill:#0661aa;fill-opacity:1;"><g transform="translate(81.170487, 106.31712)"><path style="stroke:none" d="M 2.34375 -11.5625 C 1.800781 -11.5625 1.367188 -11.71875 1.046875 -12.03125 C 0.722656 -12.351562 0.5625 -12.769531 0.5625 -13.28125 C 0.5625 -13.8125 0.722656 -14.234375 1.046875 -14.546875 C 1.367188 -14.867188 1.800781 -15.03125 2.34375 -15.03125 C 2.882812 -15.03125 3.316406 -14.867188 3.640625 -14.546875 C 3.960938 -14.234375 4.125 -13.8125 4.125 -13.28125 C 4.125 -12.769531 3.960938 -12.351562 3.640625 -12.03125 C 3.316406 -11.71875 2.882812 -11.5625 2.34375 -11.5625 Z M 0.8125 0 L 0.8125 -10.171875 L 3.859375 -10.171875 L 3.859375 0 Z M 0.8125 0 "/></g></g><g style="fill:#0661aa;fill-opacity:1;"><g transform="translate(88.202823, 106.31712)"><path style="stroke:none" d="M 6.9375 -10.421875 C 7.875 -10.421875 8.613281 -10.140625 9.15625 -9.578125 C 9.695312 -9.015625 9.96875 -8.234375 9.96875 -7.234375 L 9.96875 0 L 6.9375 0 L 6.9375 -6.453125 C 6.9375 -6.929688 6.816406 -7.300781 6.578125 -7.5625 C 6.335938 -7.832031 6.003906 -7.96875 5.578125 -7.96875 C 5.035156 -7.96875 4.597656 -7.789062 4.265625 -7.4375 C 3.929688 -7.082031 3.765625 -6.597656 3.765625 -5.984375 L 3.765625 0 L 0.75 0 L 0.75 -10.171875 L 3.25 -10.171875 L 3.671875 -8.4375 L 3.6875 -8.4375 C 4 -9.070312 4.4375 -9.5625 5 -9.90625 C 5.570312 -10.25 6.21875 -10.421875 6.9375 -10.421875 Z M 6.9375 -10.421875 "/></g></g><g style="fill:#0661aa;fill-opacity:1;"><g transform="translate(101.213846, 106.31712)"><path style="stroke:none" d="M 4.828125 4.515625 C 3.835938 4.515625 2.898438 4.347656 2.015625 4.015625 C 1.128906 3.679688 0.425781 3.226562 -0.09375 2.65625 L 1.078125 0.484375 C 1.484375 0.941406 1.992188 1.3125 2.609375 1.59375 C 3.222656 1.882812 3.847656 2.03125 4.484375 2.03125 C 5.398438 2.03125 6.128906 1.773438 6.671875 1.265625 C 7.210938 0.753906 7.484375 0.0625 7.484375 -0.8125 L 7.484375 -1.828125 L 7.46875 -1.828125 C 7.175781 -1.253906 6.75 -0.796875 6.1875 -0.453125 C 5.632812 -0.109375 5.035156 0.0625 4.390625 0.0625 C 3.597656 0.0625 2.90625 -0.148438 2.3125 -0.578125 C 1.726562 -1.003906 1.269531 -1.601562 0.9375 -2.375 C 0.613281 -3.144531 0.453125 -4.054688 0.453125 -5.109375 C 0.453125 -6.203125 0.609375 -7.148438 0.921875 -7.953125 C 1.242188 -8.753906 1.695312 -9.375 2.28125 -9.8125 C 2.863281 -10.25 3.546875 -10.46875 4.328125 -10.46875 C 5.015625 -10.46875 5.640625 -10.28125 6.203125 -9.90625 C 6.773438 -9.539062 7.203125 -9.046875 7.484375 -8.421875 L 7.5 -8.421875 L 7.859375 -10.171875 L 10.53125 -10.171875 L 10.53125 -0.78125 C 10.53125 0.320312 10.296875 1.269531 9.828125 2.0625 C 9.367188 2.851562 8.710938 3.457031 7.859375 3.875 C 7.003906 4.300781 5.992188 4.515625 4.828125 4.515625 Z M 5.5625 -2.421875 C 6.1875 -2.421875 6.679688 -2.664062 7.046875 -3.15625 C 7.421875 -3.65625 7.609375 -4.320312 7.609375 -5.15625 C 7.609375 -6 7.421875 -6.671875 7.046875 -7.171875 C 6.679688 -7.671875 6.1875 -7.921875 5.5625 -7.921875 C 4.9375 -7.921875 4.4375 -7.671875 4.0625 -7.171875 C 3.6875 -6.679688 3.5 -6.007812 3.5 -5.15625 C 3.5 -4.3125 3.6875 -3.644531 4.0625 -3.15625 C 4.4375 -2.664062 4.9375 -2.421875 5.5625 -2.421875 Z M 5.5625 -2.421875 "/></g></g><g clip-rule="nonzero" clip-path="url(#b7aca8dfbd)"><path style=" stroke:none;fill-rule:nonzero;fill:#0661aa;fill-opacity:1;" d="M 35.160156 63.289062 C 39.359375 57.109375 43.769531 51.042969 48.195312 45.027344 C 48.195312 45.027344 48.324219 44.855469 48.324219 44.855469 C 48.324219 44.855469 48.339844 44.832031 48.339844 44.832031 C 48.691406 44.34375 49.402344 44.179688 49.9375 44.457031 C 50.136719 44.546875 50.296875 44.726562 50.453125 44.871094 C 50.84375 45.222656 53.144531 47.421875 53.589844 47.832031 C 53.589844 47.832031 51.667969 48.089844 51.667969 48.089844 C 52.230469 47.046875 53.609375 44.496094 54.144531 43.496094 C 57.742188 36.882812 61.464844 30.160156 65.175781 23.625 C 65.558594 22.886719 66.484375 22.488281 67.277344 22.746094 C 67.742188 22.882812 68.144531 23.226562 68.363281 23.660156 C 68.398438 23.734375 68.832031 24.511719 68.886719 24.617188 C 72.460938 31.1875 76.066406 37.941406 79.511719 44.578125 C 80.046875 45.609375 80.585938 46.632812 81.117188 47.667969 L 78.824219 47.59375 C 79.589844 46.433594 81.398438 43.703125 82.152344 42.578125 C 82.152344 42.578125 82.292969 42.371094 82.292969 42.371094 L 82.382812 42.234375 C 82.886719 41.476562 84.035156 41.4375 84.585938 42.167969 C 84.585938 42.167969 84.738281 42.382812 84.738281 42.382812 C 86.488281 44.828125 88.226562 47.292969 89.945312 49.757812 C 92.996094 54.132812 96.054688 58.578125 98.960938 63.050781 C 94.558594 58.03125 90.277344 52.851562 86.0625 47.675781 C 84.964844 46.328125 83.847656 44.949219 82.757812 43.59375 C 83.183594 44.148438 84.003906 44.039062 84.320312 43.542969 C 83.921875 44.21875 83.527344 44.894531 83.125 45.566406 C 82.390625 46.800781 80.644531 49.730469 79.929688 50.929688 C 77.859375 47.339844 75.671875 43.472656 73.644531 39.847656 C 70.980469 35.101562 68.265625 30.152344 65.667969 25.367188 C 65.667969 25.367188 65.566406 25.175781 65.566406 25.175781 L 65.539062 25.128906 C 65.578125 25.191406 65.652344 25.316406 65.722656 25.386719 C 66.316406 26.066406 67.453125 25.984375 67.933594 25.207031 C 67.949219 25.183594 67.976562 25.132812 67.964844 25.152344 L 67.9375 25.199219 C 63.917969 32.230469 59.75 39.363281 55.578125 46.316406 C 55.039062 47.222656 53.472656 49.816406 52.945312 50.699219 C 52.238281 49.953125 50.230469 47.820312 49.496094 47.050781 C 49.386719 46.945312 48.855469 46.363281 48.757812 46.265625 C 48.757812 46.265625 48.738281 46.246094 48.738281 46.246094 C 48.738281 46.246094 48.730469 46.238281 48.730469 46.238281 C 48.722656 46.230469 48.730469 46.238281 48.738281 46.246094 C 49.035156 46.535156 49.535156 46.570312 49.867188 46.320312 C 49.921875 46.28125 50.011719 46.203125 50.042969 46.152344 C 50.042969 46.152344 50.039062 46.15625 50.039062 46.15625 L 50.03125 46.167969 C 50.03125 46.167969 50.011719 46.1875 50.011719 46.1875 C 50.011719 46.1875 49.875 46.351562 49.875 46.351562 C 45.058594 52.0625 40.191406 57.761719 35.160156 63.289062 Z M 35.160156 63.289062 "/></g><g style="fill:#2d6d5e;fill-opacity:1;"><g transform="translate(17.786967, 123.147501)"><path style="stroke:none" d="M 0.8125 -7.796875 L 2.5 -7.796875 C 3.1875 -7.796875 3.703125 -7.640625 4.046875 -7.328125 C 4.398438 -7.023438 4.578125 -6.5625 4.578125 -5.9375 C 4.578125 -5.59375 4.53125 -5.296875 4.4375 -5.046875 C 4.351562 -4.796875 4.226562 -4.59375 4.0625 -4.4375 C 3.894531 -4.28125 3.691406 -4.175781 3.453125 -4.125 L 3.453125 -4.078125 C 3.742188 -4.015625 3.984375 -3.898438 4.171875 -3.734375 C 4.359375 -3.578125 4.5 -3.375 4.59375 -3.125 C 4.6875 -2.875 4.734375 -2.578125 4.734375 -2.234375 C 4.734375 -1.785156 4.65625 -1.390625 4.5 -1.046875 C 4.34375 -0.710938 4.117188 -0.453125 3.828125 -0.265625 C 3.535156 -0.0859375 3.175781 0 2.75 0 L 0.8125 0 Z M 1.65625 -4.4375 L 2.5 -4.4375 C 2.914062 -4.4375 3.21875 -4.550781 3.40625 -4.78125 C 3.601562 -5.019531 3.703125 -5.378906 3.703125 -5.859375 C 3.703125 -6.253906 3.597656 -6.554688 3.390625 -6.765625 C 3.191406 -6.972656 2.890625 -7.078125 2.484375 -7.078125 L 1.65625 -7.078125 Z M 1.65625 -3.71875 L 1.65625 -0.734375 L 2.65625 -0.734375 C 3.050781 -0.734375 3.347656 -0.859375 3.546875 -1.109375 C 3.742188 -1.367188 3.84375 -1.753906 3.84375 -2.265625 C 3.84375 -2.585938 3.789062 -2.851562 3.6875 -3.0625 C 3.59375 -3.28125 3.445312 -3.441406 3.25 -3.546875 C 3.0625 -3.660156 2.832031 -3.71875 2.5625 -3.71875 Z M 1.65625 -3.71875 "/></g></g><g style="fill:#2d6d5e;fill-opacity:1;"><g transform="translate(24.473563, 123.147501)"><path style="stroke:none" d="M 2.671875 -5.953125 C 2.753906 -5.953125 2.835938 -5.945312 2.921875 -5.9375 C 3.003906 -5.925781 3.085938 -5.90625 3.171875 -5.875 L 3.046875 -5.03125 C 2.984375 -5.0625 2.914062 -5.082031 2.84375 -5.09375 C 2.769531 -5.101562 2.691406 -5.109375 2.609375 -5.109375 C 2.453125 -5.109375 2.304688 -5.054688 2.171875 -4.953125 C 2.035156 -4.847656 1.921875 -4.703125 1.828125 -4.515625 C 1.734375 -4.328125 1.660156 -4.109375 1.609375 -3.859375 C 1.554688 -3.609375 1.53125 -3.335938 1.53125 -3.046875 L 1.53125 0 L 0.71875 0 L 0.71875 -5.859375 L 1.359375 -5.859375 L 1.46875 -4.8125 L 1.515625 -4.8125 C 1.597656 -5.039062 1.691406 -5.238281 1.796875 -5.40625 C 1.910156 -5.570312 2.039062 -5.703125 2.1875 -5.796875 C 2.332031 -5.898438 2.492188 -5.953125 2.671875 -5.953125 Z M 2.671875 -5.953125 "/></g></g><g style="fill:#2d6d5e;fill-opacity:1;"><g transform="translate(29.27777, 123.147501)"><path style="stroke:none" d="M 1.546875 -5.859375 L 1.546875 0 L 0.71875 0 L 0.71875 -5.859375 Z M 1.140625 -8.046875 C 1.304688 -8.046875 1.425781 -7.992188 1.5 -7.890625 C 1.582031 -7.785156 1.625 -7.640625 1.625 -7.453125 C 1.625 -7.265625 1.582031 -7.117188 1.5 -7.015625 C 1.414062 -6.910156 1.296875 -6.859375 1.140625 -6.859375 C 0.992188 -6.859375 0.875 -6.910156 0.78125 -7.015625 C 0.695312 -7.117188 0.65625 -7.265625 0.65625 -7.453125 C 0.65625 -7.648438 0.695312 -7.796875 0.78125 -7.890625 C 0.863281 -7.992188 0.984375 -8.046875 1.140625 -8.046875 Z M 1.140625 -8.046875 "/></g></g><g style="fill:#2d6d5e;fill-opacity:1;"><g transform="translate(33.068792, 123.147501)"><path style="stroke:none" d="M 2.828125 -5.96875 C 3.285156 -5.96875 3.632812 -5.800781 3.875 -5.46875 C 4.113281 -5.144531 4.234375 -4.648438 4.234375 -3.984375 L 4.234375 0 L 3.40625 0 L 3.40625 -3.828125 C 3.40625 -4.296875 3.34375 -4.644531 3.21875 -4.875 C 3.101562 -5.113281 2.910156 -5.234375 2.640625 -5.234375 C 2.253906 -5.234375 1.972656 -5.0625 1.796875 -4.71875 C 1.617188 -4.382812 1.53125 -3.835938 1.53125 -3.078125 L 1.53125 0 L 0.71875 0 L 0.71875 -5.859375 L 1.375 -5.859375 L 1.46875 -5 L 1.515625 -5 C 1.597656 -5.195312 1.703125 -5.367188 1.828125 -5.515625 C 1.953125 -5.660156 2.097656 -5.769531 2.265625 -5.84375 C 2.429688 -5.925781 2.617188 -5.96875 2.828125 -5.96875 Z M 2.828125 -5.96875 "/></g></g><g style="fill:#2d6d5e;fill-opacity:1;"><g transform="translate(39.520756, 123.147501)"><path style="stroke:none" d="M 1.875 2.625 C 1.3125 2.625 0.867188 2.476562 0.546875 2.1875 C 0.234375 1.90625 0.078125 1.507812 0.078125 1 C 0.078125 0.601562 0.171875 0.273438 0.359375 0.015625 C 0.554688 -0.242188 0.804688 -0.414062 1.109375 -0.5 C 0.953125 -0.570312 0.828125 -0.675781 0.734375 -0.8125 C 0.640625 -0.957031 0.59375 -1.128906 0.59375 -1.328125 C 0.59375 -1.523438 0.640625 -1.703125 0.734375 -1.859375 C 0.828125 -2.023438 0.960938 -2.179688 1.140625 -2.328125 C 0.910156 -2.460938 0.726562 -2.679688 0.59375 -2.984375 C 0.46875 -3.285156 0.40625 -3.628906 0.40625 -4.015625 C 0.40625 -4.410156 0.46875 -4.753906 0.59375 -5.046875 C 0.726562 -5.335938 0.914062 -5.5625 1.15625 -5.71875 C 1.40625 -5.882812 1.695312 -5.96875 2.03125 -5.96875 C 2.144531 -5.96875 2.238281 -5.960938 2.3125 -5.953125 C 2.394531 -5.941406 2.46875 -5.925781 2.53125 -5.90625 C 2.601562 -5.882812 2.660156 -5.863281 2.703125 -5.84375 L 4.15625 -5.84375 L 4.15625 -5.3125 L 3.375 -5.21875 C 3.476562 -5.050781 3.550781 -4.863281 3.59375 -4.65625 C 3.632812 -4.457031 3.65625 -4.253906 3.65625 -4.046875 C 3.65625 -3.441406 3.515625 -2.96875 3.234375 -2.625 C 2.953125 -2.28125 2.550781 -2.109375 2.03125 -2.109375 C 1.875 -2.109375 1.742188 -2.128906 1.640625 -2.171875 C 1.546875 -2.078125 1.460938 -1.972656 1.390625 -1.859375 C 1.316406 -1.742188 1.28125 -1.601562 1.28125 -1.4375 C 1.28125 -1.332031 1.300781 -1.238281 1.34375 -1.15625 C 1.394531 -1.082031 1.46875 -1.023438 1.5625 -0.984375 C 1.65625 -0.941406 1.769531 -0.921875 1.90625 -0.921875 L 2.75 -0.921875 C 3.1875 -0.921875 3.519531 -0.796875 3.75 -0.546875 C 3.988281 -0.296875 4.109375 0.0859375 4.109375 0.609375 C 4.109375 1.242188 3.914062 1.738281 3.53125 2.09375 C 3.144531 2.445312 2.59375 2.625 1.875 2.625 Z M 1.9375 1.96875 C 2.25 1.96875 2.507812 1.921875 2.71875 1.828125 C 2.925781 1.734375 3.082031 1.585938 3.1875 1.390625 C 3.289062 1.203125 3.34375 0.96875 3.34375 0.6875 C 3.34375 0.457031 3.304688 0.28125 3.234375 0.15625 C 3.160156 0.03125 3.054688 -0.0507812 2.921875 -0.09375 C 2.785156 -0.144531 2.625 -0.171875 2.4375 -0.171875 L 1.734375 -0.171875 C 1.566406 -0.171875 1.414062 -0.132812 1.28125 -0.0625 C 1.15625 0.0078125 1.050781 0.125 0.96875 0.28125 C 0.894531 0.445312 0.859375 0.660156 0.859375 0.921875 C 0.859375 1.265625 0.953125 1.523438 1.140625 1.703125 C 1.335938 1.878906 1.601562 1.96875 1.9375 1.96875 Z M 2.03125 -2.71875 C 2.289062 -2.71875 2.488281 -2.828125 2.625 -3.046875 C 2.769531 -3.273438 2.84375 -3.601562 2.84375 -4.03125 C 2.84375 -4.476562 2.769531 -4.8125 2.625 -5.03125 C 2.476562 -5.25 2.28125 -5.359375 2.03125 -5.359375 C 1.78125 -5.359375 1.582031 -5.238281 1.4375 -5 C 1.300781 -4.769531 1.234375 -4.441406 1.234375 -4.015625 C 1.234375 -3.597656 1.296875 -3.273438 1.421875 -3.046875 C 1.554688 -2.828125 1.757812 -2.71875 2.03125 -2.71875 Z M 2.03125 -2.71875 "/></g></g><g style="fill:#2d6d5e;fill-opacity:1;"><g transform="translate(45.263491, 123.147501)"><path style="stroke:none" d=""/></g></g><g style="fill:#2d6d5e;fill-opacity:1;"><g transform="translate(48.81988, 123.147501)"><path style="stroke:none" d="M 2.09375 -0.625 C 2.175781 -0.625 2.257812 -0.628906 2.34375 -0.640625 C 2.4375 -0.660156 2.523438 -0.691406 2.609375 -0.734375 L 2.609375 -0.0625 C 2.503906 -0.0078125 2.382812 0.03125 2.25 0.0625 C 2.125 0.09375 1.984375 0.109375 1.828125 0.109375 C 1.578125 0.109375 1.367188 0.0507812 1.203125 -0.0625 C 1.046875 -0.175781 0.925781 -0.34375 0.84375 -0.5625 C 0.769531 -0.789062 0.734375 -1.078125 0.734375 -1.421875 L 0.734375 -5.171875 L 0.1875 -5.171875 L 0.1875 -5.609375 L 0.765625 -5.828125 L 0.984375 -7.1875 L 1.5625 -7.1875 L 1.5625 -5.859375 L 2.546875 -5.859375 L 2.546875 -5.171875 L 1.5625 -5.171875 L 1.5625 -1.515625 C 1.5625 -1.210938 1.597656 -0.988281 1.671875 -0.84375 C 1.742188 -0.695312 1.882812 -0.625 2.09375 -0.625 Z M 2.09375 -0.625 "/></g></g><g style="fill:#2d6d5e;fill-opacity:1;"><g transform="translate(53.117494, 123.147501)"><path style="stroke:none" d="M 1.53125 -8.296875 L 1.53125 -5.890625 C 1.53125 -5.734375 1.523438 -5.582031 1.515625 -5.4375 C 1.515625 -5.289062 1.503906 -5.15625 1.484375 -5.03125 L 1.53125 -5.03125 C 1.601562 -5.21875 1.703125 -5.378906 1.828125 -5.515625 C 1.953125 -5.660156 2.097656 -5.769531 2.265625 -5.84375 C 2.429688 -5.925781 2.613281 -5.96875 2.8125 -5.96875 C 3.132812 -5.96875 3.398438 -5.890625 3.609375 -5.734375 C 3.828125 -5.585938 3.984375 -5.363281 4.078125 -5.0625 C 4.179688 -4.769531 4.234375 -4.410156 4.234375 -3.984375 L 4.234375 0 L 3.40625 0 L 3.40625 -3.8125 C 3.40625 -4.320312 3.34375 -4.679688 3.21875 -4.890625 C 3.101562 -5.109375 2.910156 -5.21875 2.640625 -5.21875 C 2.390625 -5.21875 2.179688 -5.140625 2.015625 -4.984375 C 1.859375 -4.835938 1.738281 -4.601562 1.65625 -4.28125 C 1.570312 -3.96875 1.53125 -3.5625 1.53125 -3.0625 L 1.53125 0 L 0.71875 0 L 0.71875 -8.296875 Z M 1.53125 -8.296875 "/></g></g><g style="fill:#2d6d5e;fill-opacity:1;"><g transform="translate(59.569458, 123.147501)"><path style="stroke:none" d="M 2.328125 -5.953125 C 2.722656 -5.953125 3.050781 -5.835938 3.3125 -5.609375 C 3.570312 -5.378906 3.765625 -5.066406 3.890625 -4.671875 C 4.015625 -4.273438 4.078125 -3.835938 4.078125 -3.359375 L 4.078125 -2.78125 L 1.28125 -2.78125 C 1.289062 -2.050781 1.40625 -1.503906 1.625 -1.140625 C 1.84375 -0.773438 2.171875 -0.59375 2.609375 -0.59375 C 2.816406 -0.59375 3.019531 -0.625 3.21875 -0.6875 C 3.425781 -0.75 3.640625 -0.851562 3.859375 -1 L 3.859375 -0.265625 C 3.660156 -0.140625 3.445312 -0.046875 3.21875 0.015625 C 3 0.078125 2.765625 0.109375 2.515625 0.109375 C 2.035156 0.109375 1.644531 -0.0195312 1.34375 -0.28125 C 1.039062 -0.539062 0.816406 -0.894531 0.671875 -1.34375 C 0.535156 -1.800781 0.46875 -2.316406 0.46875 -2.890625 C 0.46875 -3.546875 0.535156 -4.101562 0.671875 -4.5625 C 0.816406 -5.019531 1.023438 -5.363281 1.296875 -5.59375 C 1.578125 -5.832031 1.921875 -5.953125 2.328125 -5.953125 Z M 2.328125 -5.28125 C 2.015625 -5.28125 1.769531 -5.128906 1.59375 -4.828125 C 1.425781 -4.523438 1.328125 -4.0625 1.296875 -3.4375 L 3.3125 -3.4375 C 3.3125 -3.769531 3.273438 -4.070312 3.203125 -4.34375 C 3.128906 -4.625 3.019531 -4.847656 2.875 -5.015625 C 2.738281 -5.191406 2.554688 -5.28125 2.328125 -5.28125 Z M 2.328125 -5.28125 "/></g></g><g style="fill:#2d6d5e;fill-opacity:1;"><g transform="translate(65.616149, 123.147501)"><path style="stroke:none" d=""/></g></g><g style="fill:#2d6d5e;fill-opacity:1;"><g transform="translate(69.172539, 123.147501)"><path style="stroke:none" d="M 5.3125 -5.96875 C 5.769531 -5.96875 6.109375 -5.800781 6.328125 -5.46875 C 6.554688 -5.132812 6.671875 -4.628906 6.671875 -3.953125 L 6.671875 0 L 5.84375 0 L 5.84375 -3.796875 C 5.84375 -4.316406 5.773438 -4.6875 5.640625 -4.90625 C 5.515625 -5.125 5.332031 -5.234375 5.09375 -5.234375 C 4.726562 -5.234375 4.46875 -5.066406 4.3125 -4.734375 C 4.164062 -4.398438 4.09375 -3.914062 4.09375 -3.28125 L 4.09375 0 L 3.28125 0 L 3.28125 -3.8125 C 3.28125 -4.15625 3.25 -4.429688 3.1875 -4.640625 C 3.132812 -4.847656 3.050781 -5 2.9375 -5.09375 C 2.832031 -5.1875 2.691406 -5.234375 2.515625 -5.234375 C 2.253906 -5.234375 2.050781 -5.140625 1.90625 -4.953125 C 1.769531 -4.773438 1.671875 -4.53125 1.609375 -4.21875 C 1.554688 -3.90625 1.53125 -3.546875 1.53125 -3.140625 L 1.53125 0 L 0.71875 0 L 0.71875 -5.859375 L 1.375 -5.859375 L 1.46875 -5.03125 L 1.515625 -5.03125 C 1.585938 -5.226562 1.679688 -5.394531 1.796875 -5.53125 C 1.921875 -5.664062 2.0625 -5.769531 2.21875 -5.84375 C 2.382812 -5.925781 2.566406 -5.96875 2.765625 -5.96875 C 3.109375 -5.96875 3.375 -5.875 3.5625 -5.6875 C 3.757812 -5.5 3.890625 -5.269531 3.953125 -5 L 4.015625 -5 C 4.148438 -5.320312 4.316406 -5.5625 4.515625 -5.71875 C 4.722656 -5.882812 4.988281 -5.96875 5.3125 -5.96875 Z M 5.3125 -5.96875 "/></g></g><g style="fill:#2d6d5e;fill-opacity:1;"><g transform="translate(78.061478, 123.147501)"><path style="stroke:none" d="M 4.34375 -2.9375 C 4.34375 -2.46875 4.300781 -2.046875 4.21875 -1.671875 C 4.144531 -1.304688 4.023438 -0.988281 3.859375 -0.71875 C 3.703125 -0.445312 3.5 -0.238281 3.25 -0.09375 C 3.007812 0.0390625 2.722656 0.109375 2.390625 0.109375 C 2.078125 0.109375 1.796875 0.0390625 1.546875 -0.09375 C 1.304688 -0.238281 1.101562 -0.441406 0.9375 -0.703125 C 0.78125 -0.972656 0.660156 -1.296875 0.578125 -1.671875 C 0.503906 -2.046875 0.46875 -2.46875 0.46875 -2.9375 C 0.46875 -3.582031 0.535156 -4.128906 0.671875 -4.578125 C 0.804688 -5.023438 1.019531 -5.367188 1.3125 -5.609375 C 1.601562 -5.847656 1.96875 -5.96875 2.40625 -5.96875 C 2.820312 -5.96875 3.171875 -5.851562 3.453125 -5.625 C 3.742188 -5.394531 3.960938 -5.050781 4.109375 -4.59375 C 4.265625 -4.144531 4.34375 -3.59375 4.34375 -2.9375 Z M 1.296875 -2.9375 C 1.296875 -2.425781 1.332031 -2 1.40625 -1.65625 C 1.488281 -1.3125 1.613281 -1.050781 1.78125 -0.875 C 1.945312 -0.695312 2.160156 -0.609375 2.421875 -0.609375 C 2.671875 -0.609375 2.875 -0.691406 3.03125 -0.859375 C 3.195312 -1.035156 3.316406 -1.296875 3.390625 -1.640625 C 3.472656 -1.984375 3.515625 -2.414062 3.515625 -2.9375 C 3.515625 -3.445312 3.472656 -3.867188 3.390625 -4.203125 C 3.316406 -4.546875 3.195312 -4.804688 3.03125 -4.984375 C 2.875 -5.160156 2.664062 -5.25 2.40625 -5.25 C 2.019531 -5.25 1.738281 -5.050781 1.5625 -4.65625 C 1.382812 -4.269531 1.296875 -3.695312 1.296875 -2.9375 Z M 1.296875 -2.9375 "/></g></g><g style="fill:#2d6d5e;fill-opacity:1;"><g transform="translate(84.401458, 123.147501)"><path style="stroke:none" d="M 4.203125 -5.859375 L 4.203125 0 L 3.546875 0 L 3.46875 -0.828125 L 3.40625 -0.828125 C 3.320312 -0.640625 3.21875 -0.472656 3.09375 -0.328125 C 2.96875 -0.191406 2.820312 -0.0820312 2.65625 0 C 2.5 0.0703125 2.316406 0.109375 2.109375 0.109375 C 1.765625 0.109375 1.488281 0.0234375 1.28125 -0.140625 C 1.070312 -0.316406 0.921875 -0.5625 0.828125 -0.875 C 0.734375 -1.195312 0.6875 -1.578125 0.6875 -2.015625 L 0.6875 -5.859375 L 1.515625 -5.859375 L 1.515625 -2.171875 C 1.515625 -1.640625 1.570312 -1.25 1.6875 -1 C 1.8125 -0.75 2.003906 -0.625 2.265625 -0.625 C 2.535156 -0.625 2.75 -0.695312 2.90625 -0.84375 C 3.070312 -1 3.191406 -1.226562 3.265625 -1.53125 C 3.347656 -1.84375 3.390625 -2.238281 3.390625 -2.71875 L 3.390625 -5.859375 Z M 4.203125 -5.859375 "/></g></g><g style="fill:#2d6d5e;fill-opacity:1;"><g transform="translate(90.853422, 123.147501)"><path style="stroke:none" d="M 2.828125 -5.96875 C 3.285156 -5.96875 3.632812 -5.800781 3.875 -5.46875 C 4.113281 -5.144531 4.234375 -4.648438 4.234375 -3.984375 L 4.234375 0 L 3.40625 0 L 3.40625 -3.828125 C 3.40625 -4.296875 3.34375 -4.644531 3.21875 -4.875 C 3.101562 -5.113281 2.910156 -5.234375 2.640625 -5.234375 C 2.253906 -5.234375 1.972656 -5.0625 1.796875 -4.71875 C 1.617188 -4.382812 1.53125 -3.835938 1.53125 -3.078125 L 1.53125 0 L 0.71875 0 L 0.71875 -5.859375 L 1.375 -5.859375 L 1.46875 -5 L 1.515625 -5 C 1.597656 -5.195312 1.703125 -5.367188 1.828125 -5.515625 C 1.953125 -5.660156 2.097656 -5.769531 2.265625 -5.84375 C 2.429688 -5.925781 2.617188 -5.96875 2.828125 -5.96875 Z M 2.828125 -5.96875 "/></g></g><g style="fill:#2d6d5e;fill-opacity:1;"><g transform="translate(97.305386, 123.147501)"><path style="stroke:none" d="M 2.09375 -0.625 C 2.175781 -0.625 2.257812 -0.628906 2.34375 -0.640625 C 2.4375 -0.660156 2.523438 -0.691406 2.609375 -0.734375 L 2.609375 -0.0625 C 2.503906 -0.0078125 2.382812 0.03125 2.25 0.0625 C 2.125 0.09375 1.984375 0.109375 1.828125 0.109375 C 1.578125 0.109375 1.367188 0.0507812 1.203125 -0.0625 C 1.046875 -0.175781 0.925781 -0.34375 0.84375 -0.5625 C 0.769531 -0.789062 0.734375 -1.078125 0.734375 -1.421875 L 0.734375 -5.171875 L 0.1875 -5.171875 L 0.1875 -5.609375 L 0.765625 -5.828125 L 0.984375 -7.1875 L 1.5625 -7.1875 L 1.5625 -5.859375 L 2.546875 -5.859375 L 2.546875 -5.171875 L 1.5625 -5.171875 L 1.5625 -1.515625 C 1.5625 -1.210938 1.597656 -0.988281 1.671875 -0.84375 C 1.742188 -0.695312 1.882812 -0.625 2.09375 -0.625 Z M 2.09375 -0.625 "/></g></g><g style="fill:#2d6d5e;fill-opacity:1;"><g transform="translate(101.603, 123.147501)"><path style="stroke:none" d="M 2.28125 -5.96875 C 2.820312 -5.96875 3.207031 -5.789062 3.4375 -5.4375 C 3.664062 -5.09375 3.78125 -4.597656 3.78125 -3.953125 L 3.78125 0 L 3.15625 0 L 3.046875 -0.828125 L 3.015625 -0.828125 C 2.921875 -0.628906 2.8125 -0.457031 2.6875 -0.3125 C 2.5625 -0.175781 2.414062 -0.0703125 2.25 0 C 2.082031 0.0703125 1.894531 0.109375 1.6875 0.109375 C 1.382812 0.109375 1.132812 0.03125 0.9375 -0.125 C 0.75 -0.289062 0.609375 -0.503906 0.515625 -0.765625 C 0.421875 -1.023438 0.375 -1.304688 0.375 -1.609375 C 0.375 -2.191406 0.539062 -2.640625 0.875 -2.953125 C 1.207031 -3.273438 1.679688 -3.453125 2.296875 -3.484375 L 2.96875 -3.53125 L 2.96875 -3.921875 C 2.96875 -4.390625 2.90625 -4.734375 2.78125 -4.953125 C 2.65625 -5.171875 2.445312 -5.28125 2.15625 -5.28125 C 2 -5.28125 1.828125 -5.25 1.640625 -5.1875 C 1.460938 -5.132812 1.269531 -5.046875 1.0625 -4.921875 L 0.796875 -5.546875 C 1.015625 -5.679688 1.25 -5.785156 1.5 -5.859375 C 1.75 -5.929688 2.007812 -5.96875 2.28125 -5.96875 Z M 2.984375 -2.921875 L 2.4375 -2.890625 C 2.019531 -2.859375 1.710938 -2.738281 1.515625 -2.53125 C 1.316406 -2.320312 1.21875 -2.019531 1.21875 -1.625 C 1.21875 -1.257812 1.28125 -0.988281 1.40625 -0.8125 C 1.539062 -0.644531 1.722656 -0.5625 1.953125 -0.5625 C 2.273438 -0.5625 2.523438 -0.71875 2.703125 -1.03125 C 2.890625 -1.34375 2.984375 -1.773438 2.984375 -2.328125 Z M 2.984375 -2.921875 "/></g></g><g style="fill:#2d6d5e;fill-opacity:1;"><g transform="translate(107.617695, 123.147501)"><path style="stroke:none" d="M 1.546875 -5.859375 L 1.546875 0 L 0.71875 0 L 0.71875 -5.859375 Z M 1.140625 -8.046875 C 1.304688 -8.046875 1.425781 -7.992188 1.5 -7.890625 C 1.582031 -7.785156 1.625 -7.640625 1.625 -7.453125 C 1.625 -7.265625 1.582031 -7.117188 1.5 -7.015625 C 1.414062 -6.910156 1.296875 -6.859375 1.140625 -6.859375 C 0.992188 -6.859375 0.875 -6.910156 0.78125 -7.015625 C 0.695312 -7.117188 0.65625 -7.265625 0.65625 -7.453125 C 0.65625 -7.648438 0.695312 -7.796875 0.78125 -7.890625 C 0.863281 -7.992188 0.984375 -8.046875 1.140625 -8.046875 Z M 1.140625 -8.046875 "/></g></g><g style="fill:#2d6d5e;fill-opacity:1;"><g transform="translate(111.408717, 123.147501)"><path style="stroke:none" d="M 2.828125 -5.96875 C 3.285156 -5.96875 3.632812 -5.800781 3.875 -5.46875 C 4.113281 -5.144531 4.234375 -4.648438 4.234375 -3.984375 L 4.234375 0 L 3.40625 0 L 3.40625 -3.828125 C 3.40625 -4.296875 3.34375 -4.644531 3.21875 -4.875 C 3.101562 -5.113281 2.910156 -5.234375 2.640625 -5.234375 C 2.253906 -5.234375 1.972656 -5.0625 1.796875 -4.71875 C 1.617188 -4.382812 1.53125 -3.835938 1.53125 -3.078125 L 1.53125 0 L 0.71875 0 L 0.71875 -5.859375 L 1.375 -5.859375 L 1.46875 -5 L 1.515625 -5 C 1.597656 -5.195312 1.703125 -5.367188 1.828125 -5.515625 C 1.953125 -5.660156 2.097656 -5.769531 2.265625 -5.84375 C 2.429688 -5.925781 2.617188 -5.96875 2.828125 -5.96875 Z M 2.828125 -5.96875 "/></g></g><g style="fill:#2d6d5e;fill-opacity:1;"><g transform="translate(51.574728, 135.815001)"><path style="stroke:none" d="M 2.09375 -0.625 C 2.175781 -0.625 2.257812 -0.628906 2.34375 -0.640625 C 2.4375 -0.660156 2.523438 -0.691406 2.609375 -0.734375 L 2.609375 -0.0625 C 2.503906 -0.0078125 2.382812 0.03125 2.25 0.0625 C 2.125 0.09375 1.984375 0.109375 1.828125 0.109375 C 1.578125 0.109375 1.367188 0.0507812 1.203125 -0.0625 C 1.046875 -0.175781 0.925781 -0.34375 0.84375 -0.5625 C 0.769531 -0.789062 0.734375 -1.078125 0.734375 -1.421875 L 0.734375 -5.171875 L 0.1875 -5.171875 L 0.1875 -5.609375 L 0.765625 -5.828125 L 0.984375 -7.1875 L 1.5625 -7.1875 L 1.5625 -5.859375 L 2.546875 -5.859375 L 2.546875 -5.171875 L 1.5625 -5.171875 L 1.5625 -1.515625 C 1.5625 -1.210938 1.597656 -0.988281 1.671875 -0.84375 C 1.742188 -0.695312 1.882812 -0.625 2.09375 -0.625 Z M 2.09375 -0.625 "/></g></g><g style="fill:#2d6d5e;fill-opacity:1;"><g transform="translate(55.872342, 135.815001)"><path style="stroke:none" d="M 4.34375 -2.9375 C 4.34375 -2.46875 4.300781 -2.046875 4.21875 -1.671875 C 4.144531 -1.304688 4.023438 -0.988281 3.859375 -0.71875 C 3.703125 -0.445312 3.5 -0.238281 3.25 -0.09375 C 3.007812 0.0390625 2.722656 0.109375 2.390625 0.109375 C 2.078125 0.109375 1.796875 0.0390625 1.546875 -0.09375 C 1.304688 -0.238281 1.101562 -0.441406 0.9375 -0.703125 C 0.78125 -0.972656 0.660156 -1.296875 0.578125 -1.671875 C 0.503906 -2.046875 0.46875 -2.46875 0.46875 -2.9375 C 0.46875 -3.582031 0.535156 -4.128906 0.671875 -4.578125 C 0.804688 -5.023438 1.019531 -5.367188 1.3125 -5.609375 C 1.601562 -5.847656 1.96875 -5.96875 2.40625 -5.96875 C 2.820312 -5.96875 3.171875 -5.851562 3.453125 -5.625 C 3.742188 -5.394531 3.960938 -5.050781 4.109375 -4.59375 C 4.265625 -4.144531 4.34375 -3.59375 4.34375 -2.9375 Z M 1.296875 -2.9375 C 1.296875 -2.425781 1.332031 -2 1.40625 -1.65625 C 1.488281 -1.3125 1.613281 -1.050781 1.78125 -0.875 C 1.945312 -0.695312 2.160156 -0.609375 2.421875 -0.609375 C 2.671875 -0.609375 2.875 -0.691406 3.03125 -0.859375 C 3.195312 -1.035156 3.316406 -1.296875 3.390625 -1.640625 C 3.472656 -1.984375 3.515625 -2.414062 3.515625 -2.9375 C 3.515625 -3.445312 3.472656 -3.867188 3.390625 -4.203125 C 3.316406 -4.546875 3.195312 -4.804688 3.03125 -4.984375 C 2.875 -5.160156 2.664062 -5.25 2.40625 -5.25 C 2.019531 -5.25 1.738281 -5.050781 1.5625 -4.65625 C 1.382812 -4.269531 1.296875 -3.695312 1.296875 -2.9375 Z M 1.296875 -2.9375 "/></g></g><g style="fill:#2d6d5e;fill-opacity:1;"><g transform="translate(62.212322, 135.815001)"><path style="stroke:none" d=""/></g></g><g style="fill:#2d6d5e;fill-opacity:1;"><g transform="translate(65.768712, 135.815001)"><path style="stroke:none" d="M 0.0625 -5.859375 L 0.90625 -5.859375 L 1.734375 -2.4375 C 1.765625 -2.28125 1.796875 -2.128906 1.828125 -1.984375 C 1.859375 -1.847656 1.882812 -1.707031 1.90625 -1.5625 C 1.9375 -1.425781 1.960938 -1.285156 1.984375 -1.140625 L 2.03125 -1.140625 C 2.050781 -1.347656 2.082031 -1.554688 2.125 -1.765625 C 2.175781 -1.984375 2.226562 -2.207031 2.28125 -2.4375 L 3.09375 -5.859375 L 3.9375 -5.859375 L 2.1875 0.9375 C 2.082031 1.332031 1.960938 1.648438 1.828125 1.890625 C 1.691406 2.140625 1.53125 2.320312 1.34375 2.4375 C 1.15625 2.5625 0.929688 2.625 0.671875 2.625 C 0.585938 2.625 0.503906 2.613281 0.421875 2.59375 C 0.335938 2.582031 0.25 2.5625 0.15625 2.53125 L 0.15625 1.796875 C 0.21875 1.828125 0.285156 1.847656 0.359375 1.859375 C 0.429688 1.867188 0.503906 1.875 0.578125 1.875 C 0.703125 1.875 0.8125 1.835938 0.90625 1.765625 C 1.007812 1.703125 1.097656 1.585938 1.171875 1.421875 C 1.242188 1.265625 1.316406 1.050781 1.390625 0.78125 L 1.59375 -0.046875 Z M 0.0625 -5.859375 "/></g></g><g style="fill:#2d6d5e;fill-opacity:1;"><g transform="translate(71.276815, 135.815001)"><path style="stroke:none" d="M 4.34375 -2.9375 C 4.34375 -2.46875 4.300781 -2.046875 4.21875 -1.671875 C 4.144531 -1.304688 4.023438 -0.988281 3.859375 -0.71875 C 3.703125 -0.445312 3.5 -0.238281 3.25 -0.09375 C 3.007812 0.0390625 2.722656 0.109375 2.390625 0.109375 C 2.078125 0.109375 1.796875 0.0390625 1.546875 -0.09375 C 1.304688 -0.238281 1.101562 -0.441406 0.9375 -0.703125 C 0.78125 -0.972656 0.660156 -1.296875 0.578125 -1.671875 C 0.503906 -2.046875 0.46875 -2.46875 0.46875 -2.9375 C 0.46875 -3.582031 0.535156 -4.128906 0.671875 -4.578125 C 0.804688 -5.023438 1.019531 -5.367188 1.3125 -5.609375 C 1.601562 -5.847656 1.96875 -5.96875 2.40625 -5.96875 C 2.820312 -5.96875 3.171875 -5.851562 3.453125 -5.625 C 3.742188 -5.394531 3.960938 -5.050781 4.109375 -4.59375 C 4.265625 -4.144531 4.34375 -3.59375 4.34375 -2.9375 Z M 1.296875 -2.9375 C 1.296875 -2.425781 1.332031 -2 1.40625 -1.65625 C 1.488281 -1.3125 1.613281 -1.050781 1.78125 -0.875 C 1.945312 -0.695312 2.160156 -0.609375 2.421875 -0.609375 C 2.671875 -0.609375 2.875 -0.691406 3.03125 -0.859375 C 3.195312 -1.035156 3.316406 -1.296875 3.390625 -1.640625 C 3.472656 -1.984375 3.515625 -2.414062 3.515625 -2.9375 C 3.515625 -3.445312 3.472656 -3.867188 3.390625 -4.203125 C 3.316406 -4.546875 3.195312 -4.804688 3.03125 -4.984375 C 2.875 -5.160156 2.664062 -5.25 2.40625 -5.25 C 2.019531 -5.25 1.738281 -5.050781 1.5625 -4.65625 C 1.382812 -4.269531 1.296875 -3.695312 1.296875 -2.9375 Z M 1.296875 -2.9375 "/></g></g><g style="fill:#2d6d5e;fill-opacity:1;"><g transform="translate(77.616795, 135.815001)"><path style="stroke:none" d="M 4.203125 -5.859375 L 4.203125 0 L 3.546875 0 L 3.46875 -0.828125 L 3.40625 -0.828125 C 3.320312 -0.640625 3.21875 -0.472656 3.09375 -0.328125 C 2.96875 -0.191406 2.820312 -0.0820312 2.65625 0 C 2.5 0.0703125 2.316406 0.109375 2.109375 0.109375 C 1.765625 0.109375 1.488281 0.0234375 1.28125 -0.140625 C 1.070312 -0.316406 0.921875 -0.5625 0.828125 -0.875 C 0.734375 -1.195312 0.6875 -1.578125 0.6875 -2.015625 L 0.6875 -5.859375 L 1.515625 -5.859375 L 1.515625 -2.171875 C 1.515625 -1.640625 1.570312 -1.25 1.6875 -1 C 1.8125 -0.75 2.003906 -0.625 2.265625 -0.625 C 2.535156 -0.625 2.75 -0.695312 2.90625 -0.84375 C 3.070312 -1 3.191406 -1.226562 3.265625 -1.53125 C 3.347656 -1.84375 3.390625 -2.238281 3.390625 -2.71875 L 3.390625 -5.859375 Z M 4.203125 -5.859375 "/></g></g></g></svg>