<svg xmlns="http://www.w3.org/2000/svg" xmlns:xlink="http://www.w3.org/1999/xlink" width="180" zoomAndPan="magnify" viewBox="0 0 135 161.249994" height="215" preserveAspectRatio="xMidYMid meet" version="1.0"><defs><g/><clipPath id="3fd88a63ea"><path d="M 31.027344 13.113281 L 108 13.113281 L 108 42 L 31.027344 42 Z M 31.027344 13.113281 " clip-rule="nonzero"/></clipPath><clipPath id="d38b6f5720"><path d="M 45 40 L 70 40 L 70 52.679688 L 45 52.679688 Z M 45 40 " clip-rule="nonzero"/></clipPath><clipPath id="ed47e86410"><path d="M 72 14 L 108.667969 14 L 108.667969 51 L 72 51 Z M 72 14 " clip-rule="nonzero"/></clipPath></defs><g fill="#0661aa" fill-opacity="1"><g transform="translate(19.122952, 67.523607)"><g><path d="M 3.640625 0 L 3.640625 -10.140625 L 0.265625 -10.140625 L 0.265625 -12.765625 L 10.078125 -12.765625 L 10.078125 -10.140625 L 6.703125 -10.140625 L 6.703125 0 Z M 3.640625 0 "/></g></g></g><g fill="#0661aa" fill-opacity="1"><g transform="translate(30.858335, 67.523607)"><g><path d="M 5.625 -9.421875 C 6.375 -9.421875 6.976562 -9.140625 7.4375 -8.578125 C 7.894531 -8.023438 8.144531 -7.234375 8.1875 -6.203125 L 5.875 -5.578125 C 5.863281 -6.171875 5.753906 -6.617188 5.546875 -6.921875 C 5.347656 -7.234375 5.082031 -7.390625 4.75 -7.390625 C 4.34375 -7.390625 4.015625 -7.1875 3.765625 -6.78125 C 3.523438 -6.375 3.40625 -5.8125 3.40625 -5.09375 L 3.40625 0 L 0.6875 0 L 0.6875 -9.171875 L 2.890625 -9.171875 L 3.265625 -7.59375 L 3.28125 -7.59375 C 3.476562 -8.164062 3.785156 -8.613281 4.203125 -8.9375 C 4.628906 -9.257812 5.101562 -9.421875 5.625 -9.421875 Z M 5.625 -9.421875 "/></g></g></g><g fill="#0661aa" fill-opacity="1"><g transform="translate(41.321649, 67.523607)"><g><path d="M 5.359375 0.296875 C 4.367188 0.296875 3.492188 0.0976562 2.734375 -0.296875 C 1.984375 -0.703125 1.398438 -1.28125 0.984375 -2.03125 C 0.578125 -2.78125 0.375 -3.648438 0.375 -4.640625 C 0.375 -5.617188 0.5625 -6.46875 0.9375 -7.1875 C 1.3125 -7.914062 1.835938 -8.484375 2.515625 -8.890625 C 3.203125 -9.296875 4.003906 -9.5 4.921875 -9.5 C 5.804688 -9.5 6.570312 -9.300781 7.21875 -8.90625 C 7.863281 -8.519531 8.367188 -7.976562 8.734375 -7.28125 C 9.097656 -6.582031 9.28125 -5.765625 9.28125 -4.828125 C 9.28125 -4.628906 9.269531 -4.441406 9.25 -4.265625 C 9.238281 -4.097656 9.210938 -3.953125 9.171875 -3.828125 L 3.125 -3.828125 C 3.175781 -3.160156 3.40625 -2.632812 3.8125 -2.25 C 4.21875 -1.863281 4.738281 -1.671875 5.375 -1.671875 C 5.863281 -1.671875 6.296875 -1.789062 6.671875 -2.03125 C 7.046875 -2.269531 7.332031 -2.597656 7.53125 -3.015625 L 9.4375 -2.171875 C 9.175781 -1.398438 8.671875 -0.796875 7.921875 -0.359375 C 7.171875 0.078125 6.316406 0.296875 5.359375 0.296875 Z M 3.125 -5.390625 L 6.5625 -5.390625 C 6.519531 -6.054688 6.351562 -6.578125 6.0625 -6.953125 C 5.78125 -7.328125 5.394531 -7.515625 4.90625 -7.515625 C 4.394531 -7.515625 3.984375 -7.320312 3.671875 -6.9375 C 3.359375 -6.5625 3.175781 -6.046875 3.125 -5.390625 Z M 3.125 -5.390625 "/></g></g></g><g fill="#0661aa" fill-opacity="1"><g transform="translate(53.218285, 67.523607)"><g><path d="M 2.109375 -10.4375 C 1.617188 -10.4375 1.226562 -10.578125 0.9375 -10.859375 C 0.644531 -11.148438 0.5 -11.523438 0.5 -11.984375 C 0.5 -12.460938 0.644531 -12.84375 0.9375 -13.125 C 1.226562 -13.414062 1.617188 -13.5625 2.109375 -13.5625 C 2.597656 -13.5625 2.988281 -13.414062 3.28125 -13.125 C 3.582031 -12.84375 3.734375 -12.460938 3.734375 -11.984375 C 3.734375 -11.523438 3.582031 -11.148438 3.28125 -10.859375 C 2.988281 -10.578125 2.597656 -10.4375 2.109375 -10.4375 Z M 0.734375 0 L 0.734375 -9.171875 L 3.484375 -9.171875 L 3.484375 0 Z M 0.734375 0 "/></g></g></g><g fill="#0661aa" fill-opacity="1"><g transform="translate(59.560774, 67.523607)"><g><path d="M 6.25 -9.40625 C 7.101562 -9.40625 7.773438 -9.148438 8.265625 -8.640625 C 8.753906 -8.140625 9 -7.4375 9 -6.53125 L 9 0 L 6.25 0 L 6.25 -5.828125 C 6.25 -6.253906 6.140625 -6.585938 5.921875 -6.828125 C 5.710938 -7.066406 5.414062 -7.1875 5.03125 -7.1875 C 4.539062 -7.1875 4.144531 -7.023438 3.84375 -6.703125 C 3.550781 -6.390625 3.40625 -5.953125 3.40625 -5.390625 L 3.40625 0 L 0.6875 0 L 0.6875 -9.171875 L 2.9375 -9.171875 L 3.3125 -7.609375 L 3.328125 -7.609375 C 3.609375 -8.191406 4.003906 -8.632812 4.515625 -8.9375 C 5.023438 -9.25 5.601562 -9.40625 6.25 -9.40625 Z M 6.25 -9.40625 "/></g></g></g><g fill="#0661aa" fill-opacity="1"><g transform="translate(71.296157, 67.523607)"><g><path d="M 5.03125 0.296875 C 4.09375 0.296875 3.269531 0.0976562 2.5625 -0.296875 C 1.863281 -0.691406 1.320312 -1.253906 0.9375 -1.984375 C 0.5625 -2.722656 0.375 -3.59375 0.375 -4.59375 C 0.375 -5.59375 0.5625 -6.457031 0.9375 -7.1875 C 1.320312 -7.925781 1.863281 -8.492188 2.5625 -8.890625 C 3.269531 -9.296875 4.09375 -9.5 5.03125 -9.5 C 5.976562 -9.5 6.796875 -9.296875 7.484375 -8.890625 C 8.179688 -8.492188 8.71875 -7.925781 9.09375 -7.1875 C 9.476562 -6.457031 9.671875 -5.59375 9.671875 -4.59375 C 9.671875 -3.59375 9.476562 -2.722656 9.09375 -1.984375 C 8.71875 -1.253906 8.179688 -0.691406 7.484375 -0.296875 C 6.796875 0.0976562 5.976562 0.296875 5.03125 0.296875 Z M 5.03125 -1.984375 C 5.632812 -1.984375 6.101562 -2.210938 6.4375 -2.671875 C 6.78125 -3.140625 6.953125 -3.78125 6.953125 -4.59375 C 6.953125 -5.40625 6.78125 -6.039062 6.4375 -6.5 C 6.101562 -6.957031 5.632812 -7.1875 5.03125 -7.1875 C 4.4375 -7.1875 3.960938 -6.957031 3.609375 -6.5 C 3.265625 -6.039062 3.09375 -5.40625 3.09375 -4.59375 C 3.09375 -3.78125 3.265625 -3.140625 3.609375 -2.671875 C 3.960938 -2.210938 4.4375 -1.984375 5.03125 -1.984375 Z M 5.03125 -1.984375 "/></g></g></g><g fill="#0661aa" fill-opacity="1"><g transform="translate(83.47946, 67.523607)"><g/></g></g><g fill="#0661aa" fill-opacity="1"><g transform="translate(88.926119, 67.523607)"><g><path d="M 5.359375 0.296875 C 4.367188 0.296875 3.492188 0.0976562 2.734375 -0.296875 C 1.984375 -0.703125 1.398438 -1.28125 0.984375 -2.03125 C 0.578125 -2.78125 0.375 -3.648438 0.375 -4.640625 C 0.375 -5.617188 0.5625 -6.46875 0.9375 -7.1875 C 1.3125 -7.914062 1.835938 -8.484375 2.515625 -8.890625 C 3.203125 -9.296875 4.003906 -9.5 4.921875 -9.5 C 5.804688 -9.5 6.570312 -9.300781 7.21875 -8.90625 C 7.863281 -8.519531 8.367188 -7.976562 8.734375 -7.28125 C 9.097656 -6.582031 9.28125 -5.765625 9.28125 -4.828125 C 9.28125 -4.628906 9.269531 -4.441406 9.25 -4.265625 C 9.238281 -4.097656 9.210938 -3.953125 9.171875 -3.828125 L 3.125 -3.828125 C 3.175781 -3.160156 3.40625 -2.632812 3.8125 -2.25 C 4.21875 -1.863281 4.738281 -1.671875 5.375 -1.671875 C 5.863281 -1.671875 6.296875 -1.789062 6.671875 -2.03125 C 7.046875 -2.269531 7.332031 -2.597656 7.53125 -3.015625 L 9.4375 -2.171875 C 9.175781 -1.398438 8.671875 -0.796875 7.921875 -0.359375 C 7.171875 0.078125 6.316406 0.296875 5.359375 0.296875 Z M 3.125 -5.390625 L 6.5625 -5.390625 C 6.519531 -6.054688 6.351562 -6.578125 6.0625 -6.953125 C 5.78125 -7.328125 5.394531 -7.515625 4.90625 -7.515625 C 4.394531 -7.515625 3.984375 -7.320312 3.671875 -6.9375 C 3.359375 -6.5625 3.175781 -6.046875 3.125 -5.390625 Z M 3.125 -5.390625 "/></g></g></g><g fill="#0661aa" fill-opacity="1"><g transform="translate(100.822754, 67.523607)"><g><path d="M 0.6875 0 L 0.6875 -9.171875 L 2.875 -9.171875 L 3.25 -7.53125 L 3.265625 -7.53125 C 3.503906 -8.125 3.878906 -8.585938 4.390625 -8.921875 C 4.898438 -9.253906 5.476562 -9.421875 6.125 -9.421875 C 6.800781 -9.421875 7.359375 -9.253906 7.796875 -8.921875 C 8.234375 -8.585938 8.550781 -8.109375 8.75 -7.484375 L 8.765625 -7.484375 C 9.066406 -8.117188 9.476562 -8.597656 10 -8.921875 C 10.519531 -9.253906 11.101562 -9.421875 11.75 -9.421875 C 12.601562 -9.421875 13.257812 -9.148438 13.71875 -8.609375 C 14.1875 -8.066406 14.421875 -7.3125 14.421875 -6.34375 L 14.421875 0 L 11.6875 0 L 11.6875 -5.765625 C 11.6875 -6.179688 11.578125 -6.503906 11.359375 -6.734375 C 11.148438 -6.972656 10.847656 -7.09375 10.453125 -7.09375 C 9.972656 -7.09375 9.597656 -6.925781 9.328125 -6.59375 C 9.054688 -6.257812 8.921875 -5.804688 8.921875 -5.234375 L 8.921875 0 L 6.1875 0 L 6.1875 -5.765625 C 6.1875 -6.179688 6.078125 -6.503906 5.859375 -6.734375 C 5.640625 -6.972656 5.335938 -7.09375 4.953125 -7.09375 C 4.472656 -7.09375 4.09375 -6.925781 3.8125 -6.59375 C 3.539062 -6.257812 3.40625 -5.804688 3.40625 -5.234375 L 3.40625 0 Z M 0.6875 0 "/></g></g></g><g fill="#0661aa" fill-opacity="1"><g transform="translate(27.03148, 89.17291)"><g><path d="M 0.09375 0 L 4.171875 -12.765625 L 7.96875 -12.765625 L 12.0625 0 L 8.921875 0 L 8.203125 -2.515625 L 3.921875 -2.515625 L 3.1875 0 Z M 4.390625 -4.671875 L 7.71875 -4.671875 L 6.109375 -10.28125 L 6.078125 -10.28125 Z M 4.390625 -4.671875 "/></g></g></g><g fill="#0661aa" fill-opacity="1"><g transform="translate(41.293115, 89.17291)"><g><path d="M 0.6875 0 L 0.6875 -13.296875 L 3.40625 -13.296875 L 3.40625 0 Z M 0.6875 0 "/></g></g></g><g fill="#0661aa" fill-opacity="1"><g transform="translate(47.49227, 89.17291)"><g><path d="M 4.90625 0.28125 C 3.851562 0.28125 3.039062 -0.00390625 2.46875 -0.578125 C 1.90625 -1.148438 1.625 -1.925781 1.625 -2.90625 L 1.609375 -7.09375 L 0.078125 -7.09375 L 0.078125 -9.171875 L 1.625 -9.171875 L 1.625 -11.609375 L 4.359375 -12.21875 L 4.359375 -9.171875 L 7.484375 -9.171875 L 7.484375 -7.09375 L 4.359375 -7.09375 L 4.375 -3.390625 C 4.375 -2.929688 4.476562 -2.570312 4.6875 -2.3125 C 4.90625 -2.0625 5.195312 -1.9375 5.5625 -1.9375 C 6.238281 -1.9375 6.734375 -2.3125 7.046875 -3.0625 L 7.9375 -1.390625 C 7.65625 -0.859375 7.25 -0.445312 6.71875 -0.15625 C 6.1875 0.132812 5.582031 0.28125 4.90625 0.28125 Z M 4.90625 0.28125 "/></g></g></g><g fill="#0661aa" fill-opacity="1"><g transform="translate(57.668916, 89.17291)"><g><path d="M 2.109375 -10.4375 C 1.617188 -10.4375 1.226562 -10.578125 0.9375 -10.859375 C 0.644531 -11.148438 0.5 -11.523438 0.5 -11.984375 C 0.5 -12.460938 0.644531 -12.84375 0.9375 -13.125 C 1.226562 -13.414062 1.617188 -13.5625 2.109375 -13.5625 C 2.597656 -13.5625 2.988281 -13.414062 3.28125 -13.125 C 3.582031 -12.84375 3.734375 -12.460938 3.734375 -11.984375 C 3.734375 -11.523438 3.582031 -11.148438 3.28125 -10.859375 C 2.988281 -10.578125 2.597656 -10.4375 2.109375 -10.4375 Z M 0.734375 0 L 0.734375 -9.171875 L 3.484375 -9.171875 L 3.484375 0 Z M 0.734375 0 "/></g></g></g><g fill="#0661aa" fill-opacity="1"><g transform="translate(64.011406, 89.17291)"><g><path d="M 4.90625 0.28125 C 3.851562 0.28125 3.039062 -0.00390625 2.46875 -0.578125 C 1.90625 -1.148438 1.625 -1.925781 1.625 -2.90625 L 1.609375 -7.09375 L 0.078125 -7.09375 L 0.078125 -9.171875 L 1.625 -9.171875 L 1.625 -11.609375 L 4.359375 -12.21875 L 4.359375 -9.171875 L 7.484375 -9.171875 L 7.484375 -7.09375 L 4.359375 -7.09375 L 4.375 -3.390625 C 4.375 -2.929688 4.476562 -2.570312 4.6875 -2.3125 C 4.90625 -2.0625 5.195312 -1.9375 5.5625 -1.9375 C 6.238281 -1.9375 6.734375 -2.3125 7.046875 -3.0625 L 7.9375 -1.390625 C 7.65625 -0.859375 7.25 -0.445312 6.71875 -0.15625 C 6.1875 0.132812 5.582031 0.28125 4.90625 0.28125 Z M 4.90625 0.28125 "/></g></g></g><g fill="#0661aa" fill-opacity="1"><g transform="translate(74.152215, 89.17291)"><g><path d="M 3.375 0.234375 C 2.53125 0.234375 1.859375 -0.0195312 1.359375 -0.53125 C 0.867188 -1.039062 0.625 -1.75 0.625 -2.65625 L 0.625 -9.171875 L 3.375 -9.171875 L 3.375 -3.34375 C 3.375 -2.914062 3.484375 -2.582031 3.703125 -2.34375 C 3.921875 -2.101562 4.21875 -1.984375 4.59375 -1.984375 C 5.082031 -1.984375 5.472656 -2.144531 5.765625 -2.46875 C 6.066406 -2.789062 6.21875 -3.226562 6.21875 -3.78125 L 6.21875 -9.171875 L 8.9375 -9.171875 L 8.9375 0 L 6.6875 0 L 6.3125 -1.5625 L 6.296875 -1.5625 C 6.015625 -0.988281 5.617188 -0.546875 5.109375 -0.234375 C 4.597656 0.078125 4.019531 0.234375 3.375 0.234375 Z M 3.375 0.234375 "/></g></g></g><g fill="#0661aa" fill-opacity="1"><g transform="translate(85.887598, 89.17291)"><g><path d="M 4 0.25 C 3.269531 0.25 2.628906 0.0507812 2.078125 -0.34375 C 1.535156 -0.738281 1.113281 -1.300781 0.8125 -2.03125 C 0.519531 -2.757812 0.375 -3.613281 0.375 -4.59375 C 0.375 -5.582031 0.519531 -6.4375 0.8125 -7.15625 C 1.113281 -7.882812 1.535156 -8.441406 2.078125 -8.828125 C 2.628906 -9.222656 3.265625 -9.421875 3.984375 -9.421875 C 4.597656 -9.421875 5.144531 -9.265625 5.625 -8.953125 C 6.101562 -8.648438 6.472656 -8.203125 6.734375 -7.609375 L 6.75 -7.609375 L 6.75 -13.296875 L 9.5 -13.296875 L 9.5 0 L 7.171875 0 L 6.828125 -1.59375 L 6.8125 -1.59375 C 6.550781 -1 6.175781 -0.539062 5.6875 -0.21875 C 5.195312 0.09375 4.632812 0.25 4 0.25 Z M 5 -2.09375 C 5.5625 -2.09375 6.007812 -2.316406 6.34375 -2.765625 C 6.6875 -3.222656 6.859375 -3.832031 6.859375 -4.59375 C 6.859375 -5.34375 6.6875 -5.941406 6.34375 -6.390625 C 6.007812 -6.847656 5.5625 -7.078125 5 -7.078125 C 4.4375 -7.078125 3.984375 -6.847656 3.640625 -6.390625 C 3.296875 -5.941406 3.125 -5.34375 3.125 -4.59375 C 3.125 -3.832031 3.296875 -3.222656 3.640625 -2.765625 C 3.984375 -2.316406 4.4375 -2.09375 5 -2.09375 Z M 5 -2.09375 "/></g></g></g><g fill="#0661aa" fill-opacity="1"><g transform="translate(98.178399, 89.17291)"><g><path d="M 5.359375 0.296875 C 4.367188 0.296875 3.492188 0.0976562 2.734375 -0.296875 C 1.984375 -0.703125 1.398438 -1.28125 0.984375 -2.03125 C 0.578125 -2.78125 0.375 -3.648438 0.375 -4.640625 C 0.375 -5.617188 0.5625 -6.46875 0.9375 -7.1875 C 1.3125 -7.914062 1.835938 -8.484375 2.515625 -8.890625 C 3.203125 -9.296875 4.003906 -9.5 4.921875 -9.5 C 5.804688 -9.5 6.570312 -9.300781 7.21875 -8.90625 C 7.863281 -8.519531 8.367188 -7.976562 8.734375 -7.28125 C 9.097656 -6.582031 9.28125 -5.765625 9.28125 -4.828125 C 9.28125 -4.628906 9.269531 -4.441406 9.25 -4.265625 C 9.238281 -4.097656 9.210938 -3.953125 9.171875 -3.828125 L 3.125 -3.828125 C 3.175781 -3.160156 3.40625 -2.632812 3.8125 -2.25 C 4.21875 -1.863281 4.738281 -1.671875 5.375 -1.671875 C 5.863281 -1.671875 6.296875 -1.789062 6.671875 -2.03125 C 7.046875 -2.269531 7.332031 -2.597656 7.53125 -3.015625 L 9.4375 -2.171875 C 9.175781 -1.398438 8.671875 -0.796875 7.921875 -0.359375 C 7.171875 0.078125 6.316406 0.296875 5.359375 0.296875 Z M 3.125 -5.390625 L 6.5625 -5.390625 C 6.519531 -6.054688 6.351562 -6.578125 6.0625 -6.953125 C 5.78125 -7.328125 5.394531 -7.515625 4.90625 -7.515625 C 4.394531 -7.515625 3.984375 -7.320312 3.671875 -6.9375 C 3.359375 -6.5625 3.175781 -6.046875 3.125 -5.390625 Z M 3.125 -5.390625 "/></g></g></g><g fill="#2d6d5e" fill-opacity="1"><g transform="translate(37.943704, 118.807378)"><g><path d="M 3.1875 -7.15625 C 2.875 -7.15625 2.601562 -7.066406 2.375 -6.890625 C 2.15625 -6.722656 1.972656 -6.484375 1.828125 -6.171875 C 1.691406 -5.867188 1.59375 -5.519531 1.53125 -5.125 C 1.46875 -4.738281 1.4375 -4.332031 1.4375 -3.90625 C 1.4375 -3.238281 1.507812 -2.660156 1.65625 -2.171875 C 1.800781 -1.691406 2.007812 -1.316406 2.28125 -1.046875 C 2.550781 -0.785156 2.867188 -0.65625 3.234375 -0.65625 C 3.453125 -0.65625 3.660156 -0.679688 3.859375 -0.734375 C 4.054688 -0.796875 4.238281 -0.867188 4.40625 -0.953125 L 4.40625 -0.1875 C 4.226562 -0.0820312 4.035156 -0.0078125 3.828125 0.03125 C 3.617188 0.0820312 3.390625 0.109375 3.140625 0.109375 C 2.609375 0.109375 2.148438 -0.0507812 1.765625 -0.375 C 1.378906 -0.695312 1.078125 -1.15625 0.859375 -1.75 C 0.648438 -2.351562 0.546875 -3.078125 0.546875 -3.921875 C 0.546875 -4.472656 0.597656 -4.988281 0.703125 -5.46875 C 0.804688 -5.945312 0.96875 -6.375 1.1875 -6.75 C 1.40625 -7.125 1.675781 -7.414062 2 -7.625 C 2.332031 -7.832031 2.71875 -7.9375 3.15625 -7.9375 C 3.414062 -7.9375 3.660156 -7.898438 3.890625 -7.828125 C 4.128906 -7.765625 4.359375 -7.671875 4.578125 -7.546875 L 4.265625 -6.828125 C 4.109375 -6.929688 3.9375 -7.007812 3.75 -7.0625 C 3.570312 -7.125 3.382812 -7.15625 3.1875 -7.15625 Z M 3.1875 -7.15625 "/></g></g></g><g fill="#2d6d5e" fill-opacity="1"><g transform="translate(44.316802, 118.807378)"><g><path d="M 4.359375 -2.9375 C 4.359375 -2.476562 4.316406 -2.0625 4.234375 -1.6875 C 4.160156 -1.3125 4.039062 -0.988281 3.875 -0.71875 C 3.71875 -0.457031 3.515625 -0.253906 3.265625 -0.109375 C 3.023438 0.0351562 2.734375 0.109375 2.390625 0.109375 C 2.078125 0.109375 1.796875 0.0351562 1.546875 -0.109375 C 1.304688 -0.253906 1.101562 -0.457031 0.9375 -0.71875 C 0.78125 -0.976562 0.660156 -1.296875 0.578125 -1.671875 C 0.503906 -2.054688 0.46875 -2.476562 0.46875 -2.9375 C 0.46875 -3.582031 0.535156 -4.128906 0.671875 -4.578125 C 0.804688 -5.035156 1.019531 -5.378906 1.3125 -5.609375 C 1.601562 -5.847656 1.96875 -5.96875 2.40625 -5.96875 C 2.820312 -5.96875 3.175781 -5.851562 3.46875 -5.625 C 3.757812 -5.394531 3.976562 -5.054688 4.125 -4.609375 C 4.28125 -4.160156 4.359375 -3.601562 4.359375 -2.9375 Z M 1.296875 -2.9375 C 1.296875 -2.425781 1.332031 -2 1.40625 -1.65625 C 1.488281 -1.3125 1.613281 -1.050781 1.78125 -0.875 C 1.945312 -0.695312 2.160156 -0.609375 2.421875 -0.609375 C 2.671875 -0.609375 2.875 -0.691406 3.03125 -0.859375 C 3.195312 -1.035156 3.316406 -1.296875 3.390625 -1.640625 C 3.472656 -1.984375 3.515625 -2.414062 3.515625 -2.9375 C 3.515625 -3.445312 3.472656 -3.875 3.390625 -4.21875 C 3.316406 -4.5625 3.195312 -4.816406 3.03125 -4.984375 C 2.875 -5.160156 2.664062 -5.25 2.40625 -5.25 C 2.019531 -5.25 1.738281 -5.054688 1.5625 -4.671875 C 1.382812 -4.285156 1.296875 -3.707031 1.296875 -2.9375 Z M 1.296875 -2.9375 "/></g></g></g><g fill="#2d6d5e" fill-opacity="1"><g transform="translate(50.66853, 118.807378)"><g><path d="M 2.828125 -5.96875 C 3.285156 -5.96875 3.632812 -5.804688 3.875 -5.484375 C 4.113281 -5.160156 4.234375 -4.664062 4.234375 -4 L 4.234375 0 L 3.40625 0 L 3.40625 -3.828125 C 3.40625 -4.304688 3.34375 -4.660156 3.21875 -4.890625 C 3.101562 -5.128906 2.914062 -5.25 2.65625 -5.25 C 2.269531 -5.25 1.984375 -5.078125 1.796875 -4.734375 C 1.617188 -4.390625 1.53125 -3.84375 1.53125 -3.09375 L 1.53125 0 L 0.71875 0 L 0.71875 -5.859375 L 1.375 -5.859375 L 1.46875 -5.015625 L 1.515625 -5.015625 C 1.597656 -5.210938 1.703125 -5.378906 1.828125 -5.515625 C 1.960938 -5.660156 2.113281 -5.769531 2.28125 -5.84375 C 2.445312 -5.925781 2.628906 -5.96875 2.828125 -5.96875 Z M 2.828125 -5.96875 "/></g></g></g><g fill="#2d6d5e" fill-opacity="1"><g transform="translate(57.132449, 118.807378)"><g><path d="M 2.09375 -0.625 C 2.1875 -0.625 2.273438 -0.628906 2.359375 -0.640625 C 2.453125 -0.660156 2.535156 -0.691406 2.609375 -0.734375 L 2.609375 -0.0625 C 2.503906 -0.0078125 2.382812 0.03125 2.25 0.0625 C 2.125 0.09375 1.984375 0.109375 1.828125 0.109375 C 1.578125 0.109375 1.367188 0.0507812 1.203125 -0.0625 C 1.046875 -0.175781 0.925781 -0.34375 0.84375 -0.5625 C 0.769531 -0.789062 0.734375 -1.078125 0.734375 -1.421875 L 0.734375 -5.171875 L 0.1875 -5.171875 L 0.1875 -5.625 L 0.78125 -5.84375 L 1 -7.1875 L 1.5625 -7.1875 L 1.5625 -5.859375 L 2.546875 -5.859375 L 2.546875 -5.171875 L 1.5625 -5.171875 L 1.5625 -1.515625 C 1.5625 -1.210938 1.597656 -0.988281 1.671875 -0.84375 C 1.742188 -0.695312 1.882812 -0.625 2.09375 -0.625 Z M 2.09375 -0.625 "/></g></g></g><g fill="#2d6d5e" fill-opacity="1"><g transform="translate(61.438026, 118.807378)"><g><path d="M 2.671875 -5.96875 C 2.753906 -5.96875 2.835938 -5.957031 2.921875 -5.9375 C 3.003906 -5.925781 3.085938 -5.910156 3.171875 -5.890625 L 3.046875 -5.046875 C 2.984375 -5.066406 2.914062 -5.082031 2.84375 -5.09375 C 2.769531 -5.101562 2.691406 -5.109375 2.609375 -5.109375 C 2.453125 -5.109375 2.304688 -5.054688 2.171875 -4.953125 C 2.035156 -4.847656 1.921875 -4.703125 1.828125 -4.515625 C 1.734375 -4.328125 1.660156 -4.109375 1.609375 -3.859375 C 1.554688 -3.609375 1.53125 -3.34375 1.53125 -3.0625 L 1.53125 0 L 0.71875 0 L 0.71875 -5.859375 L 1.359375 -5.859375 L 1.46875 -4.828125 L 1.515625 -4.828125 C 1.597656 -5.046875 1.691406 -5.238281 1.796875 -5.40625 C 1.910156 -5.582031 2.039062 -5.71875 2.1875 -5.8125 C 2.332031 -5.914062 2.492188 -5.96875 2.671875 -5.96875 Z M 2.671875 -5.96875 "/></g></g></g><g fill="#2d6d5e" fill-opacity="1"><g transform="translate(66.251134, 118.807378)"><g><path d="M 4.359375 -2.9375 C 4.359375 -2.476562 4.316406 -2.0625 4.234375 -1.6875 C 4.160156 -1.3125 4.039062 -0.988281 3.875 -0.71875 C 3.71875 -0.457031 3.515625 -0.253906 3.265625 -0.109375 C 3.023438 0.0351562 2.734375 0.109375 2.390625 0.109375 C 2.078125 0.109375 1.796875 0.0351562 1.546875 -0.109375 C 1.304688 -0.253906 1.101562 -0.457031 0.9375 -0.71875 C 0.78125 -0.976562 0.660156 -1.296875 0.578125 -1.671875 C 0.503906 -2.054688 0.46875 -2.476562 0.46875 -2.9375 C 0.46875 -3.582031 0.535156 -4.128906 0.671875 -4.578125 C 0.804688 -5.035156 1.019531 -5.378906 1.3125 -5.609375 C 1.601562 -5.847656 1.96875 -5.96875 2.40625 -5.96875 C 2.820312 -5.96875 3.175781 -5.851562 3.46875 -5.625 C 3.757812 -5.394531 3.976562 -5.054688 4.125 -4.609375 C 4.28125 -4.160156 4.359375 -3.601562 4.359375 -2.9375 Z M 1.296875 -2.9375 C 1.296875 -2.425781 1.332031 -2 1.40625 -1.65625 C 1.488281 -1.3125 1.613281 -1.050781 1.78125 -0.875 C 1.945312 -0.695312 2.160156 -0.609375 2.421875 -0.609375 C 2.671875 -0.609375 2.875 -0.691406 3.03125 -0.859375 C 3.195312 -1.035156 3.316406 -1.296875 3.390625 -1.640625 C 3.472656 -1.984375 3.515625 -2.414062 3.515625 -2.9375 C 3.515625 -3.445312 3.472656 -3.875 3.390625 -4.21875 C 3.316406 -4.5625 3.195312 -4.816406 3.03125 -4.984375 C 2.875 -5.160156 2.664062 -5.25 2.40625 -5.25 C 2.019531 -5.25 1.738281 -5.054688 1.5625 -4.671875 C 1.382812 -4.285156 1.296875 -3.707031 1.296875 -2.9375 Z M 1.296875 -2.9375 "/></g></g></g><g fill="#2d6d5e" fill-opacity="1"><g transform="translate(72.602862, 118.807378)"><g><path d="M 1.53125 0 L 0.71875 0 L 0.71875 -8.3125 L 1.53125 -8.3125 Z M 1.53125 0 "/></g></g></g><g fill="#2d6d5e" fill-opacity="1"><g transform="translate(76.379539, 118.807378)"><g><path d="M 2.328125 -5.953125 C 2.722656 -5.953125 3.050781 -5.835938 3.3125 -5.609375 C 3.570312 -5.378906 3.765625 -5.066406 3.890625 -4.671875 C 4.015625 -4.285156 4.078125 -3.851562 4.078125 -3.375 L 4.078125 -2.78125 L 1.28125 -2.78125 C 1.289062 -2.050781 1.40625 -1.503906 1.625 -1.140625 C 1.84375 -0.773438 2.171875 -0.59375 2.609375 -0.59375 C 2.828125 -0.59375 3.035156 -0.625 3.234375 -0.6875 C 3.441406 -0.75 3.648438 -0.851562 3.859375 -1 L 3.859375 -0.265625 C 3.660156 -0.140625 3.453125 -0.046875 3.234375 0.015625 C 3.015625 0.078125 2.78125 0.109375 2.53125 0.109375 C 2.039062 0.109375 1.644531 -0.0195312 1.34375 -0.28125 C 1.039062 -0.539062 0.816406 -0.898438 0.671875 -1.359375 C 0.535156 -1.816406 0.46875 -2.332031 0.46875 -2.90625 C 0.46875 -3.550781 0.535156 -4.101562 0.671875 -4.5625 C 0.816406 -5.019531 1.023438 -5.363281 1.296875 -5.59375 C 1.578125 -5.832031 1.921875 -5.953125 2.328125 -5.953125 Z M 2.328125 -5.28125 C 2.015625 -5.28125 1.769531 -5.128906 1.59375 -4.828125 C 1.425781 -4.535156 1.328125 -4.070312 1.296875 -3.4375 L 3.3125 -3.4375 C 3.3125 -3.769531 3.273438 -4.078125 3.203125 -4.359375 C 3.140625 -4.640625 3.035156 -4.863281 2.890625 -5.03125 C 2.742188 -5.195312 2.554688 -5.28125 2.328125 -5.28125 Z M 2.328125 -5.28125 "/></g></g></g><g fill="#2d6d5e" fill-opacity="1"><g transform="translate(82.437433, 118.807378)"><g/></g></g><g fill="#2d6d5e" fill-opacity="1"><g transform="translate(86.000413, 118.807378)"><g><path d="M 2.171875 0.109375 C 1.609375 0.109375 1.179688 -0.144531 0.890625 -0.65625 C 0.609375 -1.175781 0.46875 -1.929688 0.46875 -2.921875 C 0.46875 -3.898438 0.613281 -4.648438 0.90625 -5.171875 C 1.195312 -5.703125 1.609375 -5.96875 2.140625 -5.96875 C 2.335938 -5.96875 2.519531 -5.929688 2.6875 -5.859375 C 2.851562 -5.785156 3 -5.679688 3.125 -5.546875 C 3.257812 -5.410156 3.375 -5.25 3.46875 -5.0625 L 3.515625 -5.0625 C 3.503906 -5.226562 3.492188 -5.375 3.484375 -5.5 C 3.484375 -5.632812 3.484375 -5.757812 3.484375 -5.875 L 3.484375 -8.3125 L 4.296875 -8.3125 L 4.296875 0 L 3.640625 0 L 3.53125 -0.796875 L 3.484375 -0.796875 C 3.378906 -0.609375 3.265625 -0.445312 3.140625 -0.3125 C 3.015625 -0.175781 2.875 -0.0703125 2.71875 0 C 2.5625 0.0703125 2.378906 0.109375 2.171875 0.109375 Z M 2.359375 -0.59375 C 2.722656 -0.59375 3 -0.765625 3.1875 -1.109375 C 3.382812 -1.453125 3.484375 -1.960938 3.484375 -2.640625 L 3.484375 -3.046875 C 3.484375 -3.785156 3.390625 -4.332031 3.203125 -4.6875 C 3.023438 -5.050781 2.738281 -5.234375 2.34375 -5.234375 C 1.988281 -5.234375 1.722656 -5.035156 1.546875 -4.640625 C 1.378906 -4.242188 1.296875 -3.671875 1.296875 -2.921875 C 1.296875 -2.148438 1.378906 -1.566406 1.546875 -1.171875 C 1.722656 -0.785156 1.992188 -0.59375 2.359375 -0.59375 Z M 2.359375 -0.59375 "/></g></g></g><g fill="#2d6d5e" fill-opacity="1"><g transform="translate(92.539126, 118.807378)"><g><path d="M 2.28125 -5.96875 C 2.820312 -5.96875 3.207031 -5.796875 3.4375 -5.453125 C 3.675781 -5.109375 3.796875 -4.609375 3.796875 -3.953125 L 3.796875 0 L 3.171875 0 L 3.046875 -0.828125 L 3.015625 -0.828125 C 2.929688 -0.628906 2.820312 -0.457031 2.6875 -0.3125 C 2.5625 -0.175781 2.414062 -0.0703125 2.25 0 C 2.09375 0.0703125 1.90625 0.109375 1.6875 0.109375 C 1.382812 0.109375 1.132812 0.03125 0.9375 -0.125 C 0.75 -0.289062 0.609375 -0.503906 0.515625 -0.765625 C 0.421875 -1.023438 0.375 -1.304688 0.375 -1.609375 C 0.375 -2.191406 0.539062 -2.640625 0.875 -2.953125 C 1.21875 -3.273438 1.695312 -3.453125 2.3125 -3.484375 L 2.96875 -3.53125 L 2.96875 -3.9375 C 2.96875 -4.40625 2.90625 -4.742188 2.78125 -4.953125 C 2.65625 -5.171875 2.445312 -5.28125 2.15625 -5.28125 C 2 -5.28125 1.828125 -5.25 1.640625 -5.1875 C 1.460938 -5.132812 1.269531 -5.046875 1.0625 -4.921875 L 0.796875 -5.546875 C 1.015625 -5.691406 1.25 -5.796875 1.5 -5.859375 C 1.757812 -5.929688 2.019531 -5.96875 2.28125 -5.96875 Z M 2.984375 -2.921875 L 2.4375 -2.890625 C 2.03125 -2.867188 1.722656 -2.753906 1.515625 -2.546875 C 1.316406 -2.335938 1.21875 -2.035156 1.21875 -1.640625 C 1.21875 -1.265625 1.28125 -0.988281 1.40625 -0.8125 C 1.539062 -0.644531 1.722656 -0.5625 1.953125 -0.5625 C 2.285156 -0.5625 2.539062 -0.71875 2.71875 -1.03125 C 2.894531 -1.34375 2.984375 -1.773438 2.984375 -2.328125 Z M 2.984375 -2.921875 "/></g></g></g><g fill="#2d6d5e" fill-opacity="1"><g transform="translate(31.539896, 131.498349)"><g><path d="M 2.671875 -5.96875 C 2.753906 -5.96875 2.835938 -5.957031 2.921875 -5.9375 C 3.003906 -5.925781 3.085938 -5.910156 3.171875 -5.890625 L 3.046875 -5.046875 C 2.984375 -5.066406 2.914062 -5.082031 2.84375 -5.09375 C 2.769531 -5.101562 2.691406 -5.109375 2.609375 -5.109375 C 2.453125 -5.109375 2.304688 -5.054688 2.171875 -4.953125 C 2.035156 -4.847656 1.921875 -4.703125 1.828125 -4.515625 C 1.734375 -4.328125 1.660156 -4.109375 1.609375 -3.859375 C 1.554688 -3.609375 1.53125 -3.34375 1.53125 -3.0625 L 1.53125 0 L 0.71875 0 L 0.71875 -5.859375 L 1.359375 -5.859375 L 1.46875 -4.828125 L 1.515625 -4.828125 C 1.597656 -5.046875 1.691406 -5.238281 1.796875 -5.40625 C 1.910156 -5.582031 2.039062 -5.71875 2.1875 -5.8125 C 2.332031 -5.914062 2.492188 -5.96875 2.671875 -5.96875 Z M 2.671875 -5.96875 "/></g></g></g><g fill="#2d6d5e" fill-opacity="1"><g transform="translate(36.353004, 131.498349)"><g><path d="M 2.328125 -5.953125 C 2.722656 -5.953125 3.050781 -5.835938 3.3125 -5.609375 C 3.570312 -5.378906 3.765625 -5.066406 3.890625 -4.671875 C 4.015625 -4.285156 4.078125 -3.851562 4.078125 -3.375 L 4.078125 -2.78125 L 1.28125 -2.78125 C 1.289062 -2.050781 1.40625 -1.503906 1.625 -1.140625 C 1.84375 -0.773438 2.171875 -0.59375 2.609375 -0.59375 C 2.828125 -0.59375 3.035156 -0.625 3.234375 -0.6875 C 3.441406 -0.75 3.648438 -0.851562 3.859375 -1 L 3.859375 -0.265625 C 3.660156 -0.140625 3.453125 -0.046875 3.234375 0.015625 C 3.015625 0.078125 2.78125 0.109375 2.53125 0.109375 C 2.039062 0.109375 1.644531 -0.0195312 1.34375 -0.28125 C 1.039062 -0.539062 0.816406 -0.898438 0.671875 -1.359375 C 0.535156 -1.816406 0.46875 -2.332031 0.46875 -2.90625 C 0.46875 -3.550781 0.535156 -4.101562 0.671875 -4.5625 C 0.816406 -5.019531 1.023438 -5.363281 1.296875 -5.59375 C 1.578125 -5.832031 1.921875 -5.953125 2.328125 -5.953125 Z M 2.328125 -5.28125 C 2.015625 -5.28125 1.769531 -5.128906 1.59375 -4.828125 C 1.425781 -4.535156 1.328125 -4.070312 1.296875 -3.4375 L 3.3125 -3.4375 C 3.3125 -3.769531 3.273438 -4.078125 3.203125 -4.359375 C 3.140625 -4.640625 3.035156 -4.863281 2.890625 -5.03125 C 2.742188 -5.195312 2.554688 -5.28125 2.328125 -5.28125 Z M 2.328125 -5.28125 "/></g></g></g><g fill="#2d6d5e" fill-opacity="1"><g transform="translate(42.410899, 131.498349)"><g><path d="M 3.328125 -1.546875 C 3.328125 -1.191406 3.257812 -0.890625 3.125 -0.640625 C 3 -0.398438 2.8125 -0.210938 2.5625 -0.078125 C 2.320312 0.046875 2.03125 0.109375 1.6875 0.109375 C 1.414062 0.109375 1.164062 0.078125 0.9375 0.015625 C 0.71875 -0.046875 0.53125 -0.125 0.375 -0.21875 L 0.375 -1.078125 C 0.53125 -0.941406 0.722656 -0.832031 0.953125 -0.75 C 1.179688 -0.664062 1.414062 -0.625 1.65625 -0.625 C 1.925781 -0.625 2.132812 -0.703125 2.28125 -0.859375 C 2.4375 -1.015625 2.515625 -1.234375 2.515625 -1.515625 C 2.515625 -1.679688 2.484375 -1.828125 2.421875 -1.953125 C 2.359375 -2.078125 2.257812 -2.195312 2.125 -2.3125 C 1.988281 -2.425781 1.816406 -2.546875 1.609375 -2.671875 C 1.359375 -2.816406 1.140625 -2.96875 0.953125 -3.125 C 0.765625 -3.289062 0.617188 -3.476562 0.515625 -3.6875 C 0.421875 -3.894531 0.375 -4.144531 0.375 -4.4375 C 0.375 -4.894531 0.519531 -5.265625 0.8125 -5.546875 C 1.113281 -5.828125 1.503906 -5.96875 1.984375 -5.96875 C 2.234375 -5.96875 2.46875 -5.9375 2.6875 -5.875 C 2.90625 -5.8125 3.113281 -5.71875 3.3125 -5.59375 L 3 -4.9375 C 2.851562 -5.039062 2.691406 -5.117188 2.515625 -5.171875 C 2.347656 -5.234375 2.175781 -5.265625 2 -5.265625 C 1.738281 -5.265625 1.53125 -5.191406 1.375 -5.046875 C 1.226562 -4.898438 1.15625 -4.707031 1.15625 -4.46875 C 1.15625 -4.300781 1.1875 -4.15625 1.25 -4.03125 C 1.3125 -3.914062 1.410156 -3.800781 1.546875 -3.6875 C 1.679688 -3.582031 1.863281 -3.460938 2.09375 -3.328125 C 2.34375 -3.171875 2.554688 -3.015625 2.734375 -2.859375 C 2.921875 -2.703125 3.066406 -2.519531 3.171875 -2.3125 C 3.273438 -2.101562 3.328125 -1.847656 3.328125 -1.546875 Z M 3.328125 -1.546875 "/></g></g></g><g fill="#2d6d5e" fill-opacity="1"><g transform="translate(47.619347, 131.498349)"><g><path d="M 2.828125 -5.96875 C 3.390625 -5.96875 3.816406 -5.710938 4.109375 -5.203125 C 4.398438 -4.703125 4.546875 -3.945312 4.546875 -2.9375 C 4.546875 -2.289062 4.476562 -1.738281 4.34375 -1.28125 C 4.21875 -0.832031 4.03125 -0.488281 3.78125 -0.25 C 3.53125 -0.0078125 3.226562 0.109375 2.875 0.109375 C 2.675781 0.109375 2.488281 0.0703125 2.3125 0 C 2.144531 -0.0820312 1.992188 -0.191406 1.859375 -0.328125 C 1.734375 -0.472656 1.625 -0.640625 1.53125 -0.828125 L 1.5 -0.828125 C 1.507812 -0.679688 1.515625 -0.539062 1.515625 -0.40625 C 1.523438 -0.28125 1.53125 -0.160156 1.53125 -0.046875 L 1.53125 2.609375 L 0.71875 2.609375 L 0.71875 -5.859375 L 1.390625 -5.859375 L 1.484375 -5 L 1.53125 -5 C 1.632812 -5.21875 1.75 -5.394531 1.875 -5.53125 C 2.007812 -5.675781 2.15625 -5.785156 2.3125 -5.859375 C 2.46875 -5.929688 2.640625 -5.96875 2.828125 -5.96875 Z M 2.65625 -5.265625 C 2.40625 -5.265625 2.195312 -5.1875 2.03125 -5.03125 C 1.875 -4.875 1.75 -4.632812 1.65625 -4.3125 C 1.570312 -4 1.53125 -3.601562 1.53125 -3.125 L 1.53125 -2.84375 C 1.53125 -2.34375 1.570312 -1.925781 1.65625 -1.59375 C 1.75 -1.257812 1.878906 -1.007812 2.046875 -0.84375 C 2.210938 -0.6875 2.421875 -0.609375 2.671875 -0.609375 C 2.898438 -0.609375 3.09375 -0.691406 3.25 -0.859375 C 3.40625 -1.023438 3.519531 -1.273438 3.59375 -1.609375 C 3.675781 -1.953125 3.71875 -2.394531 3.71875 -2.9375 C 3.71875 -3.707031 3.632812 -4.285156 3.46875 -4.671875 C 3.300781 -5.066406 3.03125 -5.265625 2.65625 -5.265625 Z M 2.65625 -5.265625 "/></g></g></g><g fill="#2d6d5e" fill-opacity="1"><g transform="translate(54.15806, 131.498349)"><g><path d="M 1.546875 -5.859375 L 1.546875 0 L 0.71875 0 L 0.71875 -5.859375 Z M 1.140625 -8.0625 C 1.316406 -8.0625 1.441406 -8.007812 1.515625 -7.90625 C 1.585938 -7.800781 1.625 -7.648438 1.625 -7.453125 C 1.625 -7.273438 1.582031 -7.128906 1.5 -7.015625 C 1.425781 -6.910156 1.304688 -6.859375 1.140625 -6.859375 C 0.992188 -6.859375 0.875 -6.910156 0.78125 -7.015625 C 0.695312 -7.128906 0.65625 -7.273438 0.65625 -7.453125 C 0.65625 -7.648438 0.695312 -7.800781 0.78125 -7.90625 C 0.863281 -8.007812 0.984375 -8.0625 1.140625 -8.0625 Z M 1.140625 -8.0625 "/></g></g></g><g fill="#2d6d5e" fill-opacity="1"><g transform="translate(57.956106, 131.498349)"><g><path d="M 2.671875 -5.96875 C 2.753906 -5.96875 2.835938 -5.957031 2.921875 -5.9375 C 3.003906 -5.925781 3.085938 -5.910156 3.171875 -5.890625 L 3.046875 -5.046875 C 2.984375 -5.066406 2.914062 -5.082031 2.84375 -5.09375 C 2.769531 -5.101562 2.691406 -5.109375 2.609375 -5.109375 C 2.453125 -5.109375 2.304688 -5.054688 2.171875 -4.953125 C 2.035156 -4.847656 1.921875 -4.703125 1.828125 -4.515625 C 1.734375 -4.328125 1.660156 -4.109375 1.609375 -3.859375 C 1.554688 -3.609375 1.53125 -3.34375 1.53125 -3.0625 L 1.53125 0 L 0.71875 0 L 0.71875 -5.859375 L 1.359375 -5.859375 L 1.46875 -4.828125 L 1.515625 -4.828125 C 1.597656 -5.046875 1.691406 -5.238281 1.796875 -5.40625 C 1.910156 -5.582031 2.039062 -5.71875 2.1875 -5.8125 C 2.332031 -5.914062 2.492188 -5.96875 2.671875 -5.96875 Z M 2.671875 -5.96875 "/></g></g></g><g fill="#2d6d5e" fill-opacity="1"><g transform="translate(62.769214, 131.498349)"><g><path d="M 2.28125 -5.96875 C 2.820312 -5.96875 3.207031 -5.796875 3.4375 -5.453125 C 3.675781 -5.109375 3.796875 -4.609375 3.796875 -3.953125 L 3.796875 0 L 3.171875 0 L 3.046875 -0.828125 L 3.015625 -0.828125 C 2.929688 -0.628906 2.820312 -0.457031 2.6875 -0.3125 C 2.5625 -0.175781 2.414062 -0.0703125 2.25 0 C 2.09375 0.0703125 1.90625 0.109375 1.6875 0.109375 C 1.382812 0.109375 1.132812 0.03125 0.9375 -0.125 C 0.75 -0.289062 0.609375 -0.503906 0.515625 -0.765625 C 0.421875 -1.023438 0.375 -1.304688 0.375 -1.609375 C 0.375 -2.191406 0.539062 -2.640625 0.875 -2.953125 C 1.21875 -3.273438 1.695312 -3.453125 2.3125 -3.484375 L 2.96875 -3.53125 L 2.96875 -3.9375 C 2.96875 -4.40625 2.90625 -4.742188 2.78125 -4.953125 C 2.65625 -5.171875 2.445312 -5.28125 2.15625 -5.28125 C 2 -5.28125 1.828125 -5.25 1.640625 -5.1875 C 1.460938 -5.132812 1.269531 -5.046875 1.0625 -4.921875 L 0.796875 -5.546875 C 1.015625 -5.691406 1.25 -5.796875 1.5 -5.859375 C 1.757812 -5.929688 2.019531 -5.96875 2.28125 -5.96875 Z M 2.984375 -2.921875 L 2.4375 -2.890625 C 2.03125 -2.867188 1.722656 -2.753906 1.515625 -2.546875 C 1.316406 -2.335938 1.21875 -2.035156 1.21875 -1.640625 C 1.21875 -1.265625 1.28125 -0.988281 1.40625 -0.8125 C 1.539062 -0.644531 1.722656 -0.5625 1.953125 -0.5625 C 2.285156 -0.5625 2.539062 -0.71875 2.71875 -1.03125 C 2.894531 -1.34375 2.984375 -1.773438 2.984375 -2.328125 Z M 2.984375 -2.921875 "/></g></g></g><g fill="#2d6d5e" fill-opacity="1"><g transform="translate(68.795054, 131.498349)"><g><path d="M 2.40625 0.109375 C 1.976562 0.109375 1.617188 0 1.328125 -0.21875 C 1.046875 -0.445312 0.832031 -0.785156 0.6875 -1.234375 C 0.539062 -1.679688 0.46875 -2.234375 0.46875 -2.890625 C 0.46875 -3.535156 0.539062 -4.085938 0.6875 -4.546875 C 0.832031 -5.003906 1.050781 -5.351562 1.34375 -5.59375 C 1.632812 -5.84375 2 -5.96875 2.4375 -5.96875 C 2.65625 -5.96875 2.851562 -5.941406 3.03125 -5.890625 C 3.207031 -5.847656 3.375 -5.785156 3.53125 -5.703125 L 3.265625 -5.03125 C 3.140625 -5.09375 3.007812 -5.140625 2.875 -5.171875 C 2.75 -5.210938 2.625 -5.234375 2.5 -5.234375 C 2.238281 -5.234375 2.019531 -5.144531 1.84375 -4.96875 C 1.675781 -4.789062 1.546875 -4.53125 1.453125 -4.1875 C 1.359375 -3.84375 1.3125 -3.414062 1.3125 -2.90625 C 1.3125 -2.394531 1.351562 -1.96875 1.4375 -1.625 C 1.53125 -1.289062 1.664062 -1.035156 1.84375 -0.859375 C 2.019531 -0.691406 2.238281 -0.609375 2.5 -0.609375 C 2.65625 -0.609375 2.8125 -0.628906 2.96875 -0.671875 C 3.132812 -0.722656 3.300781 -0.789062 3.46875 -0.875 L 3.46875 -0.1875 C 3.3125 -0.09375 3.132812 -0.0195312 2.9375 0.03125 C 2.75 0.0820312 2.570312 0.109375 2.40625 0.109375 Z M 3.3125 1.515625 C 3.3125 1.867188 3.195312 2.140625 2.96875 2.328125 C 2.738281 2.523438 2.425781 2.625 2.03125 2.625 C 1.90625 2.625 1.789062 2.617188 1.6875 2.609375 C 1.582031 2.597656 1.492188 2.582031 1.421875 2.5625 L 1.421875 2.015625 C 1.492188 2.035156 1.570312 2.050781 1.65625 2.0625 C 1.738281 2.070312 1.820312 2.078125 1.90625 2.078125 C 2.144531 2.078125 2.320312 2.023438 2.4375 1.921875 C 2.5625 1.816406 2.625 1.679688 2.625 1.515625 C 2.625 1.316406 2.546875 1.164062 2.390625 1.0625 C 2.234375 0.96875 2.023438 0.898438 1.765625 0.859375 L 2.140625 0 L 2.640625 0 L 2.40625 0.5625 C 2.601562 0.601562 2.769531 0.664062 2.90625 0.75 C 3.039062 0.832031 3.140625 0.9375 3.203125 1.0625 C 3.273438 1.195312 3.3125 1.347656 3.3125 1.515625 Z M 3.3125 1.515625 "/></g></g></g><g fill="#2d6d5e" fill-opacity="1"><g transform="translate(74.083638, 131.498349)"><g><path d="M 2.28125 -5.96875 C 2.820312 -5.96875 3.207031 -5.796875 3.4375 -5.453125 C 3.675781 -5.109375 3.796875 -4.609375 3.796875 -3.953125 L 3.796875 0 L 3.171875 0 L 3.046875 -0.828125 L 3.015625 -0.828125 C 2.929688 -0.628906 2.820312 -0.457031 2.6875 -0.3125 C 2.5625 -0.175781 2.414062 -0.0703125 2.25 0 C 2.09375 0.0703125 1.90625 0.109375 1.6875 0.109375 C 1.382812 0.109375 1.132812 0.03125 0.9375 -0.125 C 0.75 -0.289062 0.609375 -0.503906 0.515625 -0.765625 C 0.421875 -1.023438 0.375 -1.304688 0.375 -1.609375 C 0.375 -2.191406 0.539062 -2.640625 0.875 -2.953125 C 1.21875 -3.273438 1.695312 -3.453125 2.3125 -3.484375 L 2.96875 -3.53125 L 2.96875 -3.9375 C 2.96875 -4.40625 2.90625 -4.742188 2.78125 -4.953125 C 2.65625 -5.171875 2.445312 -5.28125 2.15625 -5.28125 C 2 -5.28125 1.828125 -5.25 1.640625 -5.1875 C 1.460938 -5.132812 1.269531 -5.046875 1.0625 -4.921875 L 0.796875 -5.546875 C 1.015625 -5.691406 1.25 -5.796875 1.5 -5.859375 C 1.757812 -5.929688 2.019531 -5.96875 2.28125 -5.96875 Z M 2.984375 -2.921875 L 2.4375 -2.890625 C 2.03125 -2.867188 1.722656 -2.753906 1.515625 -2.546875 C 1.316406 -2.335938 1.21875 -2.035156 1.21875 -1.640625 C 1.21875 -1.265625 1.28125 -0.988281 1.40625 -0.8125 C 1.539062 -0.644531 1.722656 -0.5625 1.953125 -0.5625 C 2.285156 -0.5625 2.539062 -0.71875 2.71875 -1.03125 C 2.894531 -1.34375 2.984375 -1.773438 2.984375 -2.328125 Z M 0.703125 -6.640625 C 0.722656 -6.804688 0.75 -6.96875 0.78125 -7.125 C 0.820312 -7.28125 0.878906 -7.414062 0.953125 -7.53125 C 1.023438 -7.65625 1.113281 -7.75 1.21875 -7.8125 C 1.320312 -7.882812 1.445312 -7.921875 1.59375 -7.921875 C 1.726562 -7.921875 1.851562 -7.890625 1.96875 -7.828125 C 2.09375 -7.765625 2.210938 -7.691406 2.328125 -7.609375 C 2.441406 -7.523438 2.550781 -7.453125 2.65625 -7.390625 C 2.769531 -7.328125 2.878906 -7.296875 2.984375 -7.296875 C 3.097656 -7.296875 3.179688 -7.351562 3.234375 -7.46875 C 3.296875 -7.582031 3.34375 -7.738281 3.375 -7.9375 L 3.890625 -7.9375 C 3.867188 -7.519531 3.773438 -7.195312 3.609375 -6.96875 C 3.453125 -6.75 3.253906 -6.640625 3.015625 -6.640625 C 2.878906 -6.640625 2.75 -6.671875 2.625 -6.734375 C 2.5 -6.804688 2.378906 -6.882812 2.265625 -6.96875 C 2.148438 -7.050781 2.039062 -7.125 1.9375 -7.1875 C 1.832031 -7.25 1.734375 -7.28125 1.640625 -7.28125 C 1.546875 -7.28125 1.457031 -7.222656 1.375 -7.109375 C 1.300781 -6.992188 1.25 -6.835938 1.21875 -6.640625 Z M 0.703125 -6.640625 "/></g></g></g><g fill="#2d6d5e" fill-opacity="1"><g transform="translate(80.109478, 131.498349)"><g><path d="M 4.359375 -2.9375 C 4.359375 -2.476562 4.316406 -2.0625 4.234375 -1.6875 C 4.160156 -1.3125 4.039062 -0.988281 3.875 -0.71875 C 3.71875 -0.457031 3.515625 -0.253906 3.265625 -0.109375 C 3.023438 0.0351562 2.734375 0.109375 2.390625 0.109375 C 2.078125 0.109375 1.796875 0.0351562 1.546875 -0.109375 C 1.304688 -0.253906 1.101562 -0.457031 0.9375 -0.71875 C 0.78125 -0.976562 0.660156 -1.296875 0.578125 -1.671875 C 0.503906 -2.054688 0.46875 -2.476562 0.46875 -2.9375 C 0.46875 -3.582031 0.535156 -4.128906 0.671875 -4.578125 C 0.804688 -5.035156 1.019531 -5.378906 1.3125 -5.609375 C 1.601562 -5.847656 1.96875 -5.96875 2.40625 -5.96875 C 2.820312 -5.96875 3.175781 -5.851562 3.46875 -5.625 C 3.757812 -5.394531 3.976562 -5.054688 4.125 -4.609375 C 4.28125 -4.160156 4.359375 -3.601562 4.359375 -2.9375 Z M 1.296875 -2.9375 C 1.296875 -2.425781 1.332031 -2 1.40625 -1.65625 C 1.488281 -1.3125 1.613281 -1.050781 1.78125 -0.875 C 1.945312 -0.695312 2.160156 -0.609375 2.421875 -0.609375 C 2.671875 -0.609375 2.875 -0.691406 3.03125 -0.859375 C 3.195312 -1.035156 3.316406 -1.296875 3.390625 -1.640625 C 3.472656 -1.984375 3.515625 -2.414062 3.515625 -2.9375 C 3.515625 -3.445312 3.472656 -3.875 3.390625 -4.21875 C 3.316406 -4.5625 3.195312 -4.816406 3.03125 -4.984375 C 2.875 -5.160156 2.664062 -5.25 2.40625 -5.25 C 2.019531 -5.25 1.738281 -5.054688 1.5625 -4.671875 C 1.382812 -4.285156 1.296875 -3.707031 1.296875 -2.9375 Z M 1.296875 -2.9375 "/></g></g></g><g fill="#2d6d5e" fill-opacity="1"><g transform="translate(86.461206, 131.498349)"><g/></g></g><g fill="#2d6d5e" fill-opacity="1"><g transform="translate(90.024185, 131.498349)"><g><path d="M 2.328125 -5.953125 C 2.722656 -5.953125 3.050781 -5.835938 3.3125 -5.609375 C 3.570312 -5.378906 3.765625 -5.066406 3.890625 -4.671875 C 4.015625 -4.285156 4.078125 -3.851562 4.078125 -3.375 L 4.078125 -2.78125 L 1.28125 -2.78125 C 1.289062 -2.050781 1.40625 -1.503906 1.625 -1.140625 C 1.84375 -0.773438 2.171875 -0.59375 2.609375 -0.59375 C 2.828125 -0.59375 3.035156 -0.625 3.234375 -0.6875 C 3.441406 -0.75 3.648438 -0.851562 3.859375 -1 L 3.859375 -0.265625 C 3.660156 -0.140625 3.453125 -0.046875 3.234375 0.015625 C 3.015625 0.078125 2.78125 0.109375 2.53125 0.109375 C 2.039062 0.109375 1.644531 -0.0195312 1.34375 -0.28125 C 1.039062 -0.539062 0.816406 -0.898438 0.671875 -1.359375 C 0.535156 -1.816406 0.46875 -2.332031 0.46875 -2.90625 C 0.46875 -3.550781 0.535156 -4.101562 0.671875 -4.5625 C 0.816406 -5.019531 1.023438 -5.363281 1.296875 -5.59375 C 1.578125 -5.832031 1.921875 -5.953125 2.328125 -5.953125 Z M 2.328125 -5.28125 C 2.015625 -5.28125 1.769531 -5.128906 1.59375 -4.828125 C 1.425781 -4.535156 1.328125 -4.070312 1.296875 -3.4375 L 3.3125 -3.4375 C 3.3125 -3.769531 3.273438 -4.078125 3.203125 -4.359375 C 3.140625 -4.640625 3.035156 -4.863281 2.890625 -5.03125 C 2.742188 -5.195312 2.554688 -5.28125 2.328125 -5.28125 Z M 2.328125 -5.28125 "/></g></g></g><g fill="#2d6d5e" fill-opacity="1"><g transform="translate(96.08208, 131.498349)"><g><path d="M 5.3125 -5.96875 C 5.78125 -5.96875 6.125 -5.800781 6.34375 -5.46875 C 6.5625 -5.132812 6.671875 -4.628906 6.671875 -3.953125 L 6.671875 0 L 5.859375 0 L 5.859375 -3.8125 C 5.859375 -4.320312 5.789062 -4.6875 5.65625 -4.90625 C 5.53125 -5.132812 5.34375 -5.25 5.09375 -5.25 C 4.738281 -5.25 4.484375 -5.078125 4.328125 -4.734375 C 4.179688 -4.398438 4.109375 -3.921875 4.109375 -3.296875 L 4.109375 0 L 3.296875 0 L 3.296875 -3.8125 C 3.296875 -4.164062 3.265625 -4.445312 3.203125 -4.65625 C 3.148438 -4.863281 3.066406 -5.015625 2.953125 -5.109375 C 2.835938 -5.203125 2.695312 -5.25 2.53125 -5.25 C 2.257812 -5.25 2.050781 -5.15625 1.90625 -4.96875 C 1.769531 -4.789062 1.671875 -4.539062 1.609375 -4.21875 C 1.554688 -3.90625 1.53125 -3.546875 1.53125 -3.140625 L 1.53125 0 L 0.71875 0 L 0.71875 -5.859375 L 1.375 -5.859375 L 1.46875 -5.03125 L 1.515625 -5.03125 C 1.585938 -5.226562 1.679688 -5.394531 1.796875 -5.53125 C 1.921875 -5.675781 2.0625 -5.785156 2.21875 -5.859375 C 2.382812 -5.929688 2.566406 -5.96875 2.765625 -5.96875 C 3.109375 -5.96875 3.375 -5.875 3.5625 -5.6875 C 3.757812 -5.507812 3.890625 -5.28125 3.953125 -5 L 4.015625 -5 C 4.148438 -5.332031 4.316406 -5.578125 4.515625 -5.734375 C 4.722656 -5.890625 4.988281 -5.96875 5.3125 -5.96875 Z M 5.3125 -5.96875 "/></g></g></g><g fill="#2d6d5e" fill-opacity="1"><g transform="translate(27.99389, 144.189321)"><g><path d="M 2.328125 -5.953125 C 2.722656 -5.953125 3.050781 -5.835938 3.3125 -5.609375 C 3.570312 -5.378906 3.765625 -5.066406 3.890625 -4.671875 C 4.015625 -4.285156 4.078125 -3.851562 4.078125 -3.375 L 4.078125 -2.78125 L 1.28125 -2.78125 C 1.289062 -2.050781 1.40625 -1.503906 1.625 -1.140625 C 1.84375 -0.773438 2.171875 -0.59375 2.609375 -0.59375 C 2.828125 -0.59375 3.035156 -0.625 3.234375 -0.6875 C 3.441406 -0.75 3.648438 -0.851562 3.859375 -1 L 3.859375 -0.265625 C 3.660156 -0.140625 3.453125 -0.046875 3.234375 0.015625 C 3.015625 0.078125 2.78125 0.109375 2.53125 0.109375 C 2.039062 0.109375 1.644531 -0.0195312 1.34375 -0.28125 C 1.039062 -0.539062 0.816406 -0.898438 0.671875 -1.359375 C 0.535156 -1.816406 0.46875 -2.332031 0.46875 -2.90625 C 0.46875 -3.550781 0.535156 -4.101562 0.671875 -4.5625 C 0.816406 -5.019531 1.023438 -5.363281 1.296875 -5.59375 C 1.578125 -5.832031 1.921875 -5.953125 2.328125 -5.953125 Z M 2.328125 -5.28125 C 2.015625 -5.28125 1.769531 -5.128906 1.59375 -4.828125 C 1.425781 -4.535156 1.328125 -4.070312 1.296875 -3.4375 L 3.3125 -3.4375 C 3.3125 -3.769531 3.273438 -4.078125 3.203125 -4.359375 C 3.140625 -4.640625 3.035156 -4.863281 2.890625 -5.03125 C 2.742188 -5.195312 2.554688 -5.28125 2.328125 -5.28125 Z M 2.328125 -5.28125 "/></g></g></g><g fill="#2d6d5e" fill-opacity="1"><g transform="translate(34.051784, 144.189321)"><g><path d="M 3.328125 -1.546875 C 3.328125 -1.191406 3.257812 -0.890625 3.125 -0.640625 C 3 -0.398438 2.8125 -0.210938 2.5625 -0.078125 C 2.320312 0.046875 2.03125 0.109375 1.6875 0.109375 C 1.414062 0.109375 1.164062 0.078125 0.9375 0.015625 C 0.71875 -0.046875 0.53125 -0.125 0.375 -0.21875 L 0.375 -1.078125 C 0.53125 -0.941406 0.722656 -0.832031 0.953125 -0.75 C 1.179688 -0.664062 1.414062 -0.625 1.65625 -0.625 C 1.925781 -0.625 2.132812 -0.703125 2.28125 -0.859375 C 2.4375 -1.015625 2.515625 -1.234375 2.515625 -1.515625 C 2.515625 -1.679688 2.484375 -1.828125 2.421875 -1.953125 C 2.359375 -2.078125 2.257812 -2.195312 2.125 -2.3125 C 1.988281 -2.425781 1.816406 -2.546875 1.609375 -2.671875 C 1.359375 -2.816406 1.140625 -2.96875 0.953125 -3.125 C 0.765625 -3.289062 0.617188 -3.476562 0.515625 -3.6875 C 0.421875 -3.894531 0.375 -4.144531 0.375 -4.4375 C 0.375 -4.894531 0.519531 -5.265625 0.8125 -5.546875 C 1.113281 -5.828125 1.503906 -5.96875 1.984375 -5.96875 C 2.234375 -5.96875 2.46875 -5.9375 2.6875 -5.875 C 2.90625 -5.8125 3.113281 -5.71875 3.3125 -5.59375 L 3 -4.9375 C 2.851562 -5.039062 2.691406 -5.117188 2.515625 -5.171875 C 2.347656 -5.234375 2.175781 -5.265625 2 -5.265625 C 1.738281 -5.265625 1.53125 -5.191406 1.375 -5.046875 C 1.226562 -4.898438 1.15625 -4.707031 1.15625 -4.46875 C 1.15625 -4.300781 1.1875 -4.15625 1.25 -4.03125 C 1.3125 -3.914062 1.410156 -3.800781 1.546875 -3.6875 C 1.679688 -3.582031 1.863281 -3.460938 2.09375 -3.328125 C 2.34375 -3.171875 2.554688 -3.015625 2.734375 -2.859375 C 2.921875 -2.703125 3.066406 -2.519531 3.171875 -2.3125 C 3.273438 -2.101562 3.328125 -1.847656 3.328125 -1.546875 Z M 3.328125 -1.546875 "/></g></g></g><g fill="#2d6d5e" fill-opacity="1"><g transform="translate(39.260232, 144.189321)"><g><path d="M 2.5625 -5.171875 L 1.640625 -5.171875 L 1.640625 0 L 0.8125 0 L 0.8125 -5.171875 L 0.09375 -5.171875 L 0.09375 -5.609375 L 0.8125 -5.890625 L 0.8125 -6.28125 C 0.8125 -6.726562 0.847656 -7.101562 0.921875 -7.40625 C 1.003906 -7.71875 1.140625 -7.957031 1.328125 -8.125 C 1.523438 -8.289062 1.789062 -8.375 2.125 -8.375 C 2.28125 -8.375 2.421875 -8.359375 2.546875 -8.328125 C 2.679688 -8.296875 2.820312 -8.253906 2.96875 -8.203125 L 2.75 -7.53125 C 2.65625 -7.570312 2.5625 -7.597656 2.46875 -7.609375 C 2.382812 -7.628906 2.300781 -7.640625 2.21875 -7.640625 C 2 -7.640625 1.847656 -7.539062 1.765625 -7.34375 C 1.679688 -7.15625 1.640625 -6.8125 1.640625 -6.3125 L 1.640625 -5.859375 L 2.5625 -5.859375 Z M 2.5625 -5.171875 "/></g></g></g><g fill="#2d6d5e" fill-opacity="1"><g transform="translate(43.512385, 144.189321)"><g><path d="M 4.359375 -2.9375 C 4.359375 -2.476562 4.316406 -2.0625 4.234375 -1.6875 C 4.160156 -1.3125 4.039062 -0.988281 3.875 -0.71875 C 3.71875 -0.457031 3.515625 -0.253906 3.265625 -0.109375 C 3.023438 0.0351562 2.734375 0.109375 2.390625 0.109375 C 2.078125 0.109375 1.796875 0.0351562 1.546875 -0.109375 C 1.304688 -0.253906 1.101562 -0.457031 0.9375 -0.71875 C 0.78125 -0.976562 0.660156 -1.296875 0.578125 -1.671875 C 0.503906 -2.054688 0.46875 -2.476562 0.46875 -2.9375 C 0.46875 -3.582031 0.535156 -4.128906 0.671875 -4.578125 C 0.804688 -5.035156 1.019531 -5.378906 1.3125 -5.609375 C 1.601562 -5.847656 1.96875 -5.96875 2.40625 -5.96875 C 2.820312 -5.96875 3.175781 -5.851562 3.46875 -5.625 C 3.757812 -5.394531 3.976562 -5.054688 4.125 -4.609375 C 4.28125 -4.160156 4.359375 -3.601562 4.359375 -2.9375 Z M 1.296875 -2.9375 C 1.296875 -2.425781 1.332031 -2 1.40625 -1.65625 C 1.488281 -1.3125 1.613281 -1.050781 1.78125 -0.875 C 1.945312 -0.695312 2.160156 -0.609375 2.421875 -0.609375 C 2.671875 -0.609375 2.875 -0.691406 3.03125 -0.859375 C 3.195312 -1.035156 3.316406 -1.296875 3.390625 -1.640625 C 3.472656 -1.984375 3.515625 -2.414062 3.515625 -2.9375 C 3.515625 -3.445312 3.472656 -3.875 3.390625 -4.21875 C 3.316406 -4.5625 3.195312 -4.816406 3.03125 -4.984375 C 2.875 -5.160156 2.664062 -5.25 2.40625 -5.25 C 2.019531 -5.25 1.738281 -5.054688 1.5625 -4.671875 C 1.382812 -4.285156 1.296875 -3.707031 1.296875 -2.9375 Z M 1.296875 -2.9375 "/></g></g></g><g fill="#2d6d5e" fill-opacity="1"><g transform="translate(49.864113, 144.189321)"><g><path d="M 2.671875 -5.96875 C 2.753906 -5.96875 2.835938 -5.957031 2.921875 -5.9375 C 3.003906 -5.925781 3.085938 -5.910156 3.171875 -5.890625 L 3.046875 -5.046875 C 2.984375 -5.066406 2.914062 -5.082031 2.84375 -5.09375 C 2.769531 -5.101562 2.691406 -5.109375 2.609375 -5.109375 C 2.453125 -5.109375 2.304688 -5.054688 2.171875 -4.953125 C 2.035156 -4.847656 1.921875 -4.703125 1.828125 -4.515625 C 1.734375 -4.328125 1.660156 -4.109375 1.609375 -3.859375 C 1.554688 -3.609375 1.53125 -3.34375 1.53125 -3.0625 L 1.53125 0 L 0.71875 0 L 0.71875 -5.859375 L 1.359375 -5.859375 L 1.46875 -4.828125 L 1.515625 -4.828125 C 1.597656 -5.046875 1.691406 -5.238281 1.796875 -5.40625 C 1.910156 -5.582031 2.039062 -5.71875 2.1875 -5.8125 C 2.332031 -5.914062 2.492188 -5.96875 2.671875 -5.96875 Z M 2.671875 -5.96875 "/></g></g></g><g fill="#2d6d5e" fill-opacity="1"><g transform="translate(54.677221, 144.189321)"><g><path d="M 2.40625 0.109375 C 1.976562 0.109375 1.617188 0 1.328125 -0.21875 C 1.046875 -0.445312 0.832031 -0.785156 0.6875 -1.234375 C 0.539062 -1.679688 0.46875 -2.234375 0.46875 -2.890625 C 0.46875 -3.535156 0.539062 -4.085938 0.6875 -4.546875 C 0.832031 -5.003906 1.050781 -5.351562 1.34375 -5.59375 C 1.632812 -5.84375 2 -5.96875 2.4375 -5.96875 C 2.65625 -5.96875 2.851562 -5.941406 3.03125 -5.890625 C 3.207031 -5.847656 3.375 -5.785156 3.53125 -5.703125 L 3.265625 -5.03125 C 3.140625 -5.09375 3.007812 -5.140625 2.875 -5.171875 C 2.75 -5.210938 2.625 -5.234375 2.5 -5.234375 C 2.238281 -5.234375 2.019531 -5.144531 1.84375 -4.96875 C 1.675781 -4.789062 1.546875 -4.53125 1.453125 -4.1875 C 1.359375 -3.84375 1.3125 -3.414062 1.3125 -2.90625 C 1.3125 -2.394531 1.351562 -1.96875 1.4375 -1.625 C 1.53125 -1.289062 1.664062 -1.035156 1.84375 -0.859375 C 2.019531 -0.691406 2.238281 -0.609375 2.5 -0.609375 C 2.65625 -0.609375 2.8125 -0.628906 2.96875 -0.671875 C 3.132812 -0.722656 3.300781 -0.789062 3.46875 -0.875 L 3.46875 -0.1875 C 3.3125 -0.09375 3.132812 -0.0195312 2.9375 0.03125 C 2.75 0.0820312 2.570312 0.109375 2.40625 0.109375 Z M 3.3125 1.515625 C 3.3125 1.867188 3.195312 2.140625 2.96875 2.328125 C 2.738281 2.523438 2.425781 2.625 2.03125 2.625 C 1.90625 2.625 1.789062 2.617188 1.6875 2.609375 C 1.582031 2.597656 1.492188 2.582031 1.421875 2.5625 L 1.421875 2.015625 C 1.492188 2.035156 1.570312 2.050781 1.65625 2.0625 C 1.738281 2.070312 1.820312 2.078125 1.90625 2.078125 C 2.144531 2.078125 2.320312 2.023438 2.4375 1.921875 C 2.5625 1.816406 2.625 1.679688 2.625 1.515625 C 2.625 1.316406 2.546875 1.164062 2.390625 1.0625 C 2.234375 0.96875 2.023438 0.898438 1.765625 0.859375 L 2.140625 0 L 2.640625 0 L 2.40625 0.5625 C 2.601562 0.601562 2.769531 0.664062 2.90625 0.75 C 3.039062 0.832031 3.140625 0.9375 3.203125 1.0625 C 3.273438 1.195312 3.3125 1.347656 3.3125 1.515625 Z M 3.3125 1.515625 "/></g></g></g><g fill="#2d6d5e" fill-opacity="1"><g transform="translate(59.965805, 144.189321)"><g><path d="M 4.359375 -2.9375 C 4.359375 -2.476562 4.316406 -2.0625 4.234375 -1.6875 C 4.160156 -1.3125 4.039062 -0.988281 3.875 -0.71875 C 3.71875 -0.457031 3.515625 -0.253906 3.265625 -0.109375 C 3.023438 0.0351562 2.734375 0.109375 2.390625 0.109375 C 2.078125 0.109375 1.796875 0.0351562 1.546875 -0.109375 C 1.304688 -0.253906 1.101562 -0.457031 0.9375 -0.71875 C 0.78125 -0.976562 0.660156 -1.296875 0.578125 -1.671875 C 0.503906 -2.054688 0.46875 -2.476562 0.46875 -2.9375 C 0.46875 -3.582031 0.535156 -4.128906 0.671875 -4.578125 C 0.804688 -5.035156 1.019531 -5.378906 1.3125 -5.609375 C 1.601562 -5.847656 1.96875 -5.96875 2.40625 -5.96875 C 2.820312 -5.96875 3.175781 -5.851562 3.46875 -5.625 C 3.757812 -5.394531 3.976562 -5.054688 4.125 -4.609375 C 4.28125 -4.160156 4.359375 -3.601562 4.359375 -2.9375 Z M 1.296875 -2.9375 C 1.296875 -2.425781 1.332031 -2 1.40625 -1.65625 C 1.488281 -1.3125 1.613281 -1.050781 1.78125 -0.875 C 1.945312 -0.695312 2.160156 -0.609375 2.421875 -0.609375 C 2.671875 -0.609375 2.875 -0.691406 3.03125 -0.859375 C 3.195312 -1.035156 3.316406 -1.296875 3.390625 -1.640625 C 3.472656 -1.984375 3.515625 -2.414062 3.515625 -2.9375 C 3.515625 -3.445312 3.472656 -3.875 3.390625 -4.21875 C 3.316406 -4.5625 3.195312 -4.816406 3.03125 -4.984375 C 2.875 -5.160156 2.664062 -5.25 2.40625 -5.25 C 2.019531 -5.25 1.738281 -5.054688 1.5625 -4.671875 C 1.382812 -4.285156 1.296875 -3.707031 1.296875 -2.9375 Z M 1.296875 -2.9375 "/></g></g></g><g fill="#2d6d5e" fill-opacity="1"><g transform="translate(66.317533, 144.189321)"><g/></g></g><g fill="#2d6d5e" fill-opacity="1"><g transform="translate(69.880513, 144.189321)"><g><path d="M 1.546875 -5.859375 L 1.546875 0 L 0.71875 0 L 0.71875 -5.859375 Z M 1.140625 -8.0625 C 1.316406 -8.0625 1.441406 -8.007812 1.515625 -7.90625 C 1.585938 -7.800781 1.625 -7.648438 1.625 -7.453125 C 1.625 -7.273438 1.582031 -7.128906 1.5 -7.015625 C 1.425781 -6.910156 1.304688 -6.859375 1.140625 -6.859375 C 0.992188 -6.859375 0.875 -6.910156 0.78125 -7.015625 C 0.695312 -7.128906 0.65625 -7.273438 0.65625 -7.453125 C 0.65625 -7.648438 0.695312 -7.800781 0.78125 -7.90625 C 0.863281 -8.007812 0.984375 -8.0625 1.140625 -8.0625 Z M 1.140625 -8.0625 "/></g></g></g><g fill="#2d6d5e" fill-opacity="1"><g transform="translate(73.678559, 144.189321)"><g><path d="M 2.828125 -5.96875 C 3.285156 -5.96875 3.632812 -5.804688 3.875 -5.484375 C 4.113281 -5.160156 4.234375 -4.664062 4.234375 -4 L 4.234375 0 L 3.40625 0 L 3.40625 -3.828125 C 3.40625 -4.304688 3.34375 -4.660156 3.21875 -4.890625 C 3.101562 -5.128906 2.914062 -5.25 2.65625 -5.25 C 2.269531 -5.25 1.984375 -5.078125 1.796875 -4.734375 C 1.617188 -4.390625 1.53125 -3.84375 1.53125 -3.09375 L 1.53125 0 L 0.71875 0 L 0.71875 -5.859375 L 1.375 -5.859375 L 1.46875 -5.015625 L 1.515625 -5.015625 C 1.597656 -5.210938 1.703125 -5.378906 1.828125 -5.515625 C 1.960938 -5.660156 2.113281 -5.769531 2.28125 -5.84375 C 2.445312 -5.925781 2.628906 -5.96875 2.828125 -5.96875 Z M 2.828125 -5.96875 "/></g></g></g><g fill="#2d6d5e" fill-opacity="1"><g transform="translate(80.142478, 144.189321)"><g><path d="M 2.09375 -0.625 C 2.1875 -0.625 2.273438 -0.628906 2.359375 -0.640625 C 2.453125 -0.660156 2.535156 -0.691406 2.609375 -0.734375 L 2.609375 -0.0625 C 2.503906 -0.0078125 2.382812 0.03125 2.25 0.0625 C 2.125 0.09375 1.984375 0.109375 1.828125 0.109375 C 1.578125 0.109375 1.367188 0.0507812 1.203125 -0.0625 C 1.046875 -0.175781 0.925781 -0.34375 0.84375 -0.5625 C 0.769531 -0.789062 0.734375 -1.078125 0.734375 -1.421875 L 0.734375 -5.171875 L 0.1875 -5.171875 L 0.1875 -5.625 L 0.78125 -5.84375 L 1 -7.1875 L 1.5625 -7.1875 L 1.5625 -5.859375 L 2.546875 -5.859375 L 2.546875 -5.171875 L 1.5625 -5.171875 L 1.5625 -1.515625 C 1.5625 -1.210938 1.597656 -0.988281 1.671875 -0.84375 C 1.742188 -0.695312 1.882812 -0.625 2.09375 -0.625 Z M 2.09375 -0.625 "/></g></g></g><g fill="#2d6d5e" fill-opacity="1"><g transform="translate(84.448055, 144.189321)"><g><path d="M 2.328125 -5.953125 C 2.722656 -5.953125 3.050781 -5.835938 3.3125 -5.609375 C 3.570312 -5.378906 3.765625 -5.066406 3.890625 -4.671875 C 4.015625 -4.285156 4.078125 -3.851562 4.078125 -3.375 L 4.078125 -2.78125 L 1.28125 -2.78125 C 1.289062 -2.050781 1.40625 -1.503906 1.625 -1.140625 C 1.84375 -0.773438 2.171875 -0.59375 2.609375 -0.59375 C 2.828125 -0.59375 3.035156 -0.625 3.234375 -0.6875 C 3.441406 -0.75 3.648438 -0.851562 3.859375 -1 L 3.859375 -0.265625 C 3.660156 -0.140625 3.453125 -0.046875 3.234375 0.015625 C 3.015625 0.078125 2.78125 0.109375 2.53125 0.109375 C 2.039062 0.109375 1.644531 -0.0195312 1.34375 -0.28125 C 1.039062 -0.539062 0.816406 -0.898438 0.671875 -1.359375 C 0.535156 -1.816406 0.46875 -2.332031 0.46875 -2.90625 C 0.46875 -3.550781 0.535156 -4.101562 0.671875 -4.5625 C 0.816406 -5.019531 1.023438 -5.363281 1.296875 -5.59375 C 1.578125 -5.832031 1.921875 -5.953125 2.328125 -5.953125 Z M 2.328125 -5.28125 C 2.015625 -5.28125 1.769531 -5.128906 1.59375 -4.828125 C 1.425781 -4.535156 1.328125 -4.070312 1.296875 -3.4375 L 3.3125 -3.4375 C 3.3125 -3.769531 3.273438 -4.078125 3.203125 -4.359375 C 3.140625 -4.640625 3.035156 -4.863281 2.890625 -5.03125 C 2.742188 -5.195312 2.554688 -5.28125 2.328125 -5.28125 Z M 2.328125 -5.28125 "/></g></g></g><g fill="#2d6d5e" fill-opacity="1"><g transform="translate(90.505949, 144.189321)"><g><path d="M 2.828125 -5.96875 C 3.285156 -5.96875 3.632812 -5.804688 3.875 -5.484375 C 4.113281 -5.160156 4.234375 -4.664062 4.234375 -4 L 4.234375 0 L 3.40625 0 L 3.40625 -3.828125 C 3.40625 -4.304688 3.34375 -4.660156 3.21875 -4.890625 C 3.101562 -5.128906 2.914062 -5.25 2.65625 -5.25 C 2.269531 -5.25 1.984375 -5.078125 1.796875 -4.734375 C 1.617188 -4.390625 1.53125 -3.84375 1.53125 -3.09375 L 1.53125 0 L 0.71875 0 L 0.71875 -5.859375 L 1.375 -5.859375 L 1.46875 -5.015625 L 1.515625 -5.015625 C 1.597656 -5.210938 1.703125 -5.378906 1.828125 -5.515625 C 1.960938 -5.660156 2.113281 -5.769531 2.28125 -5.84375 C 2.445312 -5.925781 2.628906 -5.96875 2.828125 -5.96875 Z M 2.828125 -5.96875 "/></g></g></g><g fill="#2d6d5e" fill-opacity="1"><g transform="translate(96.969868, 144.189321)"><g><path d="M 3.328125 -1.546875 C 3.328125 -1.191406 3.257812 -0.890625 3.125 -0.640625 C 3 -0.398438 2.8125 -0.210938 2.5625 -0.078125 C 2.320312 0.046875 2.03125 0.109375 1.6875 0.109375 C 1.414062 0.109375 1.164062 0.078125 0.9375 0.015625 C 0.71875 -0.046875 0.53125 -0.125 0.375 -0.21875 L 0.375 -1.078125 C 0.53125 -0.941406 0.722656 -0.832031 0.953125 -0.75 C 1.179688 -0.664062 1.414062 -0.625 1.65625 -0.625 C 1.925781 -0.625 2.132812 -0.703125 2.28125 -0.859375 C 2.4375 -1.015625 2.515625 -1.234375 2.515625 -1.515625 C 2.515625 -1.679688 2.484375 -1.828125 2.421875 -1.953125 C 2.359375 -2.078125 2.257812 -2.195312 2.125 -2.3125 C 1.988281 -2.425781 1.816406 -2.546875 1.609375 -2.671875 C 1.359375 -2.816406 1.140625 -2.96875 0.953125 -3.125 C 0.765625 -3.289062 0.617188 -3.476562 0.515625 -3.6875 C 0.421875 -3.894531 0.375 -4.144531 0.375 -4.4375 C 0.375 -4.894531 0.519531 -5.265625 0.8125 -5.546875 C 1.113281 -5.828125 1.503906 -5.96875 1.984375 -5.96875 C 2.234375 -5.96875 2.46875 -5.9375 2.6875 -5.875 C 2.90625 -5.8125 3.113281 -5.71875 3.3125 -5.59375 L 3 -4.9375 C 2.851562 -5.039062 2.691406 -5.117188 2.515625 -5.171875 C 2.347656 -5.234375 2.175781 -5.265625 2 -5.265625 C 1.738281 -5.265625 1.53125 -5.191406 1.375 -5.046875 C 1.226562 -4.898438 1.15625 -4.707031 1.15625 -4.46875 C 1.15625 -4.300781 1.1875 -4.15625 1.25 -4.03125 C 1.3125 -3.914062 1.410156 -3.800781 1.546875 -3.6875 C 1.679688 -3.582031 1.863281 -3.460938 2.09375 -3.328125 C 2.34375 -3.171875 2.554688 -3.015625 2.734375 -2.859375 C 2.921875 -2.703125 3.066406 -2.519531 3.171875 -2.3125 C 3.273438 -2.101562 3.328125 -1.847656 3.328125 -1.546875 Z M 3.328125 -1.546875 "/></g></g></g><g fill="#2d6d5e" fill-opacity="1"><g transform="translate(102.178316, 144.189321)"><g><path d="M 4.359375 -2.9375 C 4.359375 -2.476562 4.316406 -2.0625 4.234375 -1.6875 C 4.160156 -1.3125 4.039062 -0.988281 3.875 -0.71875 C 3.71875 -0.457031 3.515625 -0.253906 3.265625 -0.109375 C 3.023438 0.0351562 2.734375 0.109375 2.390625 0.109375 C 2.078125 0.109375 1.796875 0.0351562 1.546875 -0.109375 C 1.304688 -0.253906 1.101562 -0.457031 0.9375 -0.71875 C 0.78125 -0.976562 0.660156 -1.296875 0.578125 -1.671875 C 0.503906 -2.054688 0.46875 -2.476562 0.46875 -2.9375 C 0.46875 -3.582031 0.535156 -4.128906 0.671875 -4.578125 C 0.804688 -5.035156 1.019531 -5.378906 1.3125 -5.609375 C 1.601562 -5.847656 1.96875 -5.96875 2.40625 -5.96875 C 2.820312 -5.96875 3.175781 -5.851562 3.46875 -5.625 C 3.757812 -5.394531 3.976562 -5.054688 4.125 -4.609375 C 4.28125 -4.160156 4.359375 -3.601562 4.359375 -2.9375 Z M 1.296875 -2.9375 C 1.296875 -2.425781 1.332031 -2 1.40625 -1.65625 C 1.488281 -1.3125 1.613281 -1.050781 1.78125 -0.875 C 1.945312 -0.695312 2.160156 -0.609375 2.421875 -0.609375 C 2.671875 -0.609375 2.875 -0.691406 3.03125 -0.859375 C 3.195312 -1.035156 3.316406 -1.296875 3.390625 -1.640625 C 3.472656 -1.984375 3.515625 -2.414062 3.515625 -2.9375 C 3.515625 -3.445312 3.472656 -3.875 3.390625 -4.21875 C 3.316406 -4.5625 3.195312 -4.816406 3.03125 -4.984375 C 2.875 -5.160156 2.664062 -5.25 2.40625 -5.25 C 2.019531 -5.25 1.738281 -5.054688 1.5625 -4.671875 C 1.382812 -4.285156 1.296875 -3.707031 1.296875 -2.9375 Z M 1.296875 -2.9375 "/></g></g></g><g fill="#0661aa" fill-opacity="1"><g transform="translate(43.685159, 101.585158)"><g><path d="M 2.640625 0.171875 C 2.171875 0.171875 1.757812 0.0625 1.40625 -0.15625 C 1.050781 -0.382812 0.773438 -0.695312 0.578125 -1.09375 C 0.390625 -1.5 0.296875 -1.972656 0.296875 -2.515625 C 0.304688 -3.054688 0.398438 -3.523438 0.578125 -3.921875 C 0.753906 -4.328125 1.003906 -4.640625 1.328125 -4.859375 C 1.660156 -5.085938 2.046875 -5.203125 2.484375 -5.203125 C 2.992188 -5.203125 3.429688 -5.046875 3.796875 -4.734375 C 4.160156 -4.421875 4.394531 -4.003906 4.5 -3.484375 L 3.765625 -3.296875 C 3.679688 -3.671875 3.523438 -3.96875 3.296875 -4.1875 C 3.066406 -4.40625 2.796875 -4.515625 2.484375 -4.515625 C 2.054688 -4.515625 1.710938 -4.332031 1.453125 -3.96875 C 1.191406 -3.601562 1.0625 -3.117188 1.0625 -2.515625 C 1.0625 -1.910156 1.207031 -1.421875 1.5 -1.046875 C 1.789062 -0.679688 2.171875 -0.5 2.640625 -0.5 C 3.035156 -0.5 3.375 -0.632812 3.65625 -0.90625 C 3.9375 -1.175781 4.109375 -1.535156 4.171875 -1.984375 L 4.890625 -1.8125 C 4.835938 -1.414062 4.707031 -1.066406 4.5 -0.765625 C 4.289062 -0.472656 4.023438 -0.242188 3.703125 -0.078125 C 3.390625 0.0859375 3.035156 0.171875 2.640625 0.171875 Z M 2.640625 0.171875 "/></g></g></g><g fill="#0661aa" fill-opacity="1"><g transform="translate(49.954005, 101.585158)"><g><path d="M 2.671875 0.171875 C 2.191406 0.171875 1.773438 0.0625 1.421875 -0.15625 C 1.066406 -0.382812 0.789062 -0.703125 0.59375 -1.109375 C 0.394531 -1.515625 0.296875 -1.984375 0.296875 -2.515625 C 0.296875 -3.054688 0.394531 -3.523438 0.59375 -3.921875 C 0.789062 -4.328125 1.066406 -4.640625 1.421875 -4.859375 C 1.773438 -5.085938 2.191406 -5.203125 2.671875 -5.203125 C 3.160156 -5.203125 3.582031 -5.085938 3.9375 -4.859375 C 4.289062 -4.640625 4.566406 -4.328125 4.765625 -3.921875 C 4.960938 -3.523438 5.0625 -3.054688 5.0625 -2.515625 C 5.0625 -1.984375 4.960938 -1.515625 4.765625 -1.109375 C 4.566406 -0.703125 4.289062 -0.382812 3.9375 -0.15625 C 3.582031 0.0625 3.160156 0.171875 2.671875 0.171875 Z M 2.671875 -0.515625 C 3.160156 -0.515625 3.550781 -0.695312 3.84375 -1.0625 C 4.144531 -1.425781 4.296875 -1.910156 4.296875 -2.515625 C 4.296875 -3.117188 4.144531 -3.597656 3.84375 -3.953125 C 3.550781 -4.316406 3.160156 -4.5 2.671875 -4.5 C 2.179688 -4.5 1.789062 -4.316406 1.5 -3.953125 C 1.207031 -3.597656 1.0625 -3.117188 1.0625 -2.515625 C 1.0625 -1.910156 1.207031 -1.425781 1.5 -1.0625 C 1.789062 -0.695312 2.179688 -0.515625 2.671875 -0.515625 Z M 2.671875 -0.515625 "/></g></g></g><g fill="#0661aa" fill-opacity="1"><g transform="translate(56.491499, 101.585158)"><g><path d="M 2.484375 -5.203125 C 2.878906 -5.203125 3.195312 -5.0625 3.4375 -4.78125 C 3.675781 -4.507812 3.804688 -4.117188 3.828125 -3.609375 L 3.171875 -3.390625 C 3.148438 -3.753906 3.066406 -4.03125 2.921875 -4.21875 C 2.773438 -4.414062 2.582031 -4.515625 2.34375 -4.515625 C 2.007812 -4.515625 1.742188 -4.347656 1.546875 -4.015625 C 1.347656 -3.691406 1.25 -3.242188 1.25 -2.671875 L 1.25 0 L 0.5 0 L 0.5 -5.03125 L 1.125 -5.03125 L 1.203125 -4.234375 L 1.21875 -4.234375 C 1.332031 -4.535156 1.5 -4.769531 1.71875 -4.9375 C 1.945312 -5.113281 2.203125 -5.203125 2.484375 -5.203125 Z M 2.484375 -5.203125 "/></g></g></g><g fill="#0661aa" fill-opacity="1"><g transform="translate(61.695721, 101.585158)"><g><path d="M 2.484375 -5.203125 C 2.878906 -5.203125 3.195312 -5.0625 3.4375 -4.78125 C 3.675781 -4.507812 3.804688 -4.117188 3.828125 -3.609375 L 3.171875 -3.390625 C 3.148438 -3.753906 3.066406 -4.03125 2.921875 -4.21875 C 2.773438 -4.414062 2.582031 -4.515625 2.34375 -4.515625 C 2.007812 -4.515625 1.742188 -4.347656 1.546875 -4.015625 C 1.347656 -3.691406 1.25 -3.242188 1.25 -2.671875 L 1.25 0 L 0.5 0 L 0.5 -5.03125 L 1.125 -5.03125 L 1.203125 -4.234375 L 1.21875 -4.234375 C 1.332031 -4.535156 1.5 -4.769531 1.71875 -4.9375 C 1.945312 -5.113281 2.203125 -5.203125 2.484375 -5.203125 Z M 2.484375 -5.203125 "/></g></g></g><g fill="#0661aa" fill-opacity="1"><g transform="translate(66.899943, 101.585158)"><g><path d="M 2.796875 0.171875 C 2.296875 0.171875 1.859375 0.0625 1.484375 -0.15625 C 1.109375 -0.382812 0.816406 -0.703125 0.609375 -1.109375 C 0.398438 -1.523438 0.296875 -2.007812 0.296875 -2.5625 C 0.296875 -3.09375 0.390625 -3.554688 0.578125 -3.953125 C 0.765625 -4.347656 1.03125 -4.65625 1.375 -4.875 C 1.71875 -5.09375 2.117188 -5.203125 2.578125 -5.203125 C 3.023438 -5.203125 3.410156 -5.09375 3.734375 -4.875 C 4.054688 -4.65625 4.304688 -4.347656 4.484375 -3.953125 C 4.671875 -3.554688 4.765625 -3.09375 4.765625 -2.5625 C 4.765625 -2.5 4.765625 -2.441406 4.765625 -2.390625 C 4.765625 -2.335938 4.757812 -2.296875 4.75 -2.265625 L 1.078125 -2.265625 C 1.117188 -1.734375 1.289062 -1.304688 1.59375 -0.984375 C 1.90625 -0.671875 2.300781 -0.515625 2.78125 -0.515625 C 3.132812 -0.515625 3.441406 -0.601562 3.703125 -0.78125 C 3.960938 -0.96875 4.148438 -1.210938 4.265625 -1.515625 L 4.921875 -1.234375 C 4.773438 -0.804688 4.507812 -0.460938 4.125 -0.203125 C 3.75 0.046875 3.304688 0.171875 2.796875 0.171875 Z M 1.078125 -2.921875 L 3.96875 -2.921875 C 3.925781 -3.421875 3.785156 -3.804688 3.546875 -4.078125 C 3.304688 -4.359375 2.984375 -4.5 2.578125 -4.5 C 2.148438 -4.5 1.804688 -4.359375 1.546875 -4.078125 C 1.285156 -3.796875 1.128906 -3.410156 1.078125 -2.921875 Z M 1.078125 -2.921875 "/></g></g></g><g fill="#0661aa" fill-opacity="1"><g transform="translate(73.218534, 101.585158)"><g><path d="M 2.890625 -5.1875 C 3.390625 -5.1875 3.773438 -5.035156 4.046875 -4.734375 C 4.328125 -4.441406 4.46875 -4.023438 4.46875 -3.484375 L 4.46875 0 L 3.71875 0 L 3.71875 -3.421875 C 3.71875 -3.765625 3.625 -4.035156 3.4375 -4.234375 C 3.25 -4.429688 2.992188 -4.53125 2.671875 -4.53125 C 2.253906 -4.53125 1.910156 -4.394531 1.640625 -4.125 C 1.378906 -3.863281 1.25 -3.507812 1.25 -3.0625 L 1.25 0 L 0.5 0 L 0.5 -5.03125 L 1.1875 -5.03125 L 1.25 -4.34375 L 1.265625 -4.34375 C 1.617188 -4.90625 2.160156 -5.1875 2.890625 -5.1875 Z M 2.890625 -5.1875 "/></g></g></g><g fill="#0661aa" fill-opacity="1"><g transform="translate(79.308289, 101.585158)"><g><path d="M 2.515625 0.171875 C 2.078125 0.171875 1.691406 0.0625 1.359375 -0.15625 C 1.023438 -0.382812 0.765625 -0.703125 0.578125 -1.109375 C 0.390625 -1.515625 0.296875 -1.984375 0.296875 -2.515625 C 0.296875 -3.046875 0.390625 -3.515625 0.578125 -3.921875 C 0.765625 -4.328125 1.019531 -4.640625 1.34375 -4.859375 C 1.675781 -5.085938 2.066406 -5.203125 2.515625 -5.203125 C 2.878906 -5.203125 3.207031 -5.113281 3.5 -4.9375 C 3.789062 -4.769531 4.019531 -4.53125 4.1875 -4.21875 L 4.203125 -4.21875 L 4.203125 -7.3125 L 4.953125 -7.3125 L 4.953125 0 L 4.296875 0 L 4.21875 -0.84375 L 4.203125 -0.84375 C 4.046875 -0.519531 3.816406 -0.269531 3.515625 -0.09375 C 3.222656 0.0820312 2.890625 0.171875 2.515625 0.171875 Z M 2.640625 -0.546875 C 2.953125 -0.546875 3.226562 -0.628906 3.46875 -0.796875 C 3.707031 -0.960938 3.890625 -1.191406 4.015625 -1.484375 C 4.148438 -1.785156 4.21875 -2.128906 4.21875 -2.515625 C 4.21875 -2.898438 4.148438 -3.238281 4.015625 -3.53125 C 3.890625 -3.832031 3.707031 -4.066406 3.46875 -4.234375 C 3.226562 -4.398438 2.953125 -4.484375 2.640625 -4.484375 C 2.335938 -4.484375 2.0625 -4.398438 1.8125 -4.234375 C 1.570312 -4.066406 1.382812 -3.832031 1.25 -3.53125 C 1.125 -3.238281 1.0625 -2.898438 1.0625 -2.515625 C 1.0625 -2.128906 1.125 -1.785156 1.25 -1.484375 C 1.382812 -1.191406 1.570312 -0.960938 1.8125 -0.796875 C 2.0625 -0.628906 2.335938 -0.546875 2.640625 -0.546875 Z M 2.640625 -0.546875 "/></g></g></g><g fill="#0661aa" fill-opacity="1"><g transform="translate(85.935329, 101.585158)"><g><path d="M 2.671875 0.171875 C 2.191406 0.171875 1.773438 0.0625 1.421875 -0.15625 C 1.066406 -0.382812 0.789062 -0.703125 0.59375 -1.109375 C 0.394531 -1.515625 0.296875 -1.984375 0.296875 -2.515625 C 0.296875 -3.054688 0.394531 -3.523438 0.59375 -3.921875 C 0.789062 -4.328125 1.066406 -4.640625 1.421875 -4.859375 C 1.773438 -5.085938 2.191406 -5.203125 2.671875 -5.203125 C 3.160156 -5.203125 3.582031 -5.085938 3.9375 -4.859375 C 4.289062 -4.640625 4.566406 -4.328125 4.765625 -3.921875 C 4.960938 -3.523438 5.0625 -3.054688 5.0625 -2.515625 C 5.0625 -1.984375 4.960938 -1.515625 4.765625 -1.109375 C 4.566406 -0.703125 4.289062 -0.382812 3.9375 -0.15625 C 3.582031 0.0625 3.160156 0.171875 2.671875 0.171875 Z M 2.671875 -0.515625 C 3.160156 -0.515625 3.550781 -0.695312 3.84375 -1.0625 C 4.144531 -1.425781 4.296875 -1.910156 4.296875 -2.515625 C 4.296875 -3.117188 4.144531 -3.597656 3.84375 -3.953125 C 3.550781 -4.316406 3.160156 -4.5 2.671875 -4.5 C 2.179688 -4.5 1.789062 -4.316406 1.5 -3.953125 C 1.207031 -3.597656 1.0625 -3.117188 1.0625 -2.515625 C 1.0625 -1.910156 1.207031 -1.425781 1.5 -1.0625 C 1.789062 -0.695312 2.179688 -0.515625 2.671875 -0.515625 Z M 2.671875 -0.515625 "/></g></g></g><g clip-path="url(#3fd88a63ea)"><path fill="#0661aa" d="M 83.8125 14.683594 C 84.695312 15.648438 84.421875 15.433594 84.992188 16.535156 C 86.1875 18.855469 87.347656 19.007812 88.511719 20.648438 C 89.171875 21.574219 89.34375 22.863281 90.082031 23.753906 C 91.019531 22.5625 91.019531 22.261719 92.539062 22.859375 C 94.984375 23.824219 95.289062 25.269531 96.929688 26.792969 C 99.605469 29.277344 103.421875 31.308594 106.128906 33.898438 C 106.429688 34.1875 107.46875 35.050781 106.828125 35.46875 C 106.058594 35.96875 105.75 35.054688 105.351562 34.675781 C 102.503906 31.988281 98.863281 29.90625 96.0625 27.3125 C 94.914062 26.246094 94.1875 24.753906 92.828125 23.960938 C 91.3125 23.074219 91.890625 23.640625 91.910156 24.527344 C 91.933594 25.410156 91.757812 26.015625 91.714844 26.789062 C 91.695312 27.101562 91.882812 27.398438 91.882812 27.664062 C 91.878906 28.484375 90.578125 28.832031 90.261719 29.488281 C 90.171875 29.664062 90.285156 29.886719 90.234375 30.007812 C 89.898438 30.828125 87.792969 34.625 87.097656 34.828125 C 86.710938 34.945312 86.167969 34.679688 86.207031 34.277344 C 86.242188 33.878906 87.085938 33.234375 87.367188 32.832031 C 88.023438 31.890625 88.371094 30.777344 89.109375 29.882812 L 88.855469 29.304688 L 90.65625 27.453125 L 91.039062 24.625 C 88.214844 25.058594 88.585938 22.574219 87.476562 20.992188 C 86.726562 19.921875 85.429688 19.296875 84.554688 18.015625 C 83.84375 16.972656 83.089844 13.96875 81.609375 14.257812 C 81.257812 14.324219 79.664062 16.464844 79.230469 16.890625 C 76.863281 19.21875 74.164062 21.238281 71.527344 23.234375 C 71.023438 23.613281 70.429688 24.449219 69.753906 24.59375 C 69.261719 24.699219 68.617188 24.320312 68.351562 24.476562 C 68.28125 24.523438 67.582031 25.613281 67.367188 25.835938 C 66.304688 26.972656 65.71875 27.78125 64.214844 26.550781 L 63.988281 26.605469 C 63.484375 27.089844 63.015625 27.628906 62.625 28.207031 C 61.496094 29.886719 60.769531 32.292969 59.621094 33.871094 C 59.269531 34.355469 58.363281 34.535156 58.101562 34.144531 C 57.976562 33.957031 58.238281 33.484375 58.214844 33.226562 C 58.128906 32.28125 54.402344 30.214844 53.523438 29.617188 C 53.132812 29.355469 52.796875 28.820312 52.371094 28.679688 C 51.316406 28.328125 50.742188 30.085938 49.523438 29.988281 C 49.117188 29.953125 48.152344 29.511719 47.796875 29.273438 C 47.152344 28.839844 46.472656 27.484375 45.679688 28.078125 C 44.992188 28.589844 46.214844 28.941406 46.304688 29.726562 C 46.464844 31.164062 46.050781 32.425781 45.777344 33.800781 C 46.503906 33.867188 47.195312 34.484375 47.851562 34.605469 C 48.585938 34.75 49.175781 34.414062 49.984375 35.015625 C 51.148438 35.882812 50.007812 37.152344 50.976562 38.230469 C 51.257812 38.546875 51.960938 38.90625 52.363281 39.097656 C 53.128906 39.46875 54.503906 39.542969 54.449219 40.566406 C 54.027344 40.589844 53.640625 40.59375 53.230469 40.488281 C 52.847656 40.386719 50.382812 39.152344 50.121094 38.914062 C 49.988281 38.789062 49.277344 37.519531 49.246094 37.351562 C 49.148438 36.765625 49.507812 36.160156 49.226562 35.558594 C 48.574219 35.550781 45.203125 34.714844 44.90625 34.417969 C 44.175781 33.6875 45.21875 31.355469 45.265625 30.261719 C 45.269531 30.066406 45.339844 29.117188 44.910156 29.472656 C 44.835938 29.535156 44.367188 30.851562 44.117188 31.195312 C 43.832031 31.597656 42.09375 33.523438 41.742188 33.675781 C 41.058594 33.972656 40.4375 33.742188 39.820312 33.429688 C 39.207031 33.117188 38.722656 32.25 38.042969 32.757812 L 32.25 41.539062 C 32.003906 41.730469 31.222656 41.441406 31.035156 41.171875 C 30.929688 40.699219 32.371094 39.105469 32.667969 38.65625 C 33.871094 36.835938 35.292969 33.945312 36.664062 32.425781 C 37.65625 31.324219 38.164062 31.335938 39.410156 32.109375 C 40.046875 32.5 40.195312 33.253906 41.074219 32.675781 C 42.796875 31.550781 44.164062 28.671875 44.5625 26.707031 C 45.3125 26.609375 46.15625 26.953125 46.816406 27.300781 C 47.480469 27.648438 48.679688 28.914062 48.988281 28.960938 C 50.074219 29.121094 50.40625 27.035156 52.414062 27.78125 C 53.371094 28.136719 53.976562 28.976562 54.734375 29.449219 C 56.160156 30.34375 57.828125 30.816406 58.867188 32.25 C 59.828125 31.046875 62.203125 25.367188 63.863281 25.363281 C 64.578125 25.363281 64.851562 25.90625 65.144531 25.988281 C 66.054688 26.242188 67.132812 23.289062 68.234375 23.304688 C 69.1875 23.316406 68.859375 23.828125 70.039062 22.953125 C 73.011719 20.746094 76.71875 17.855469 79.164062 15.082031 C 79.429688 14.78125 80.398438 13.265625 80.496094 13.210938 C 80.785156 13.042969 82.121094 13.335938 82.492188 13.480469 C 83.257812 13.777344 83.355469 14.171875 83.816406 14.675781 Z M 83.8125 14.683594 " fill-opacity="1" fill-rule="nonzero"/></g><g clip-path="url(#d38b6f5720)"><path fill="#0661aa" d="M 58.78125 44.046875 C 59.269531 44.386719 59.515625 42.503906 60.902344 42.871094 C 61.800781 43.113281 63.886719 46.082031 64.671875 46.914062 C 66.148438 48.480469 67.917969 49.871094 69.535156 51.289062 C 70.277344 52.171875 69.554688 53.09375 68.929688 52.539062 C 67.933594 50.949219 66.171875 49.917969 64.910156 48.667969 C 63.445312 47.222656 62.277344 45.460938 60.769531 44.050781 C 60.433594 43.96875 60.554688 44.144531 60.46875 44.265625 C 60.015625 44.894531 59.910156 45.851562 58.945312 45.535156 C 58.035156 45.230469 57.117188 42.859375 56.089844 42.3125 C 55.015625 43.863281 53.746094 46.28125 52.101562 43.699219 C 51.789062 44.023438 51.445312 44.316406 51.152344 44.65625 C 49.953125 46.039062 48.667969 48.703125 47.421875 49.769531 C 47.078125 50.0625 46.082031 50.367188 45.945312 49.847656 C 45.824219 49.386719 46.550781 48.960938 46.804688 48.632812 C 47.714844 47.453125 50.550781 42.910156 51.660156 42.550781 C 52.898438 42.148438 53.246094 43.597656 53.644531 43.511719 C 54.472656 42.917969 54.882812 40.683594 56.046875 40.777344 C 56.898438 40.847656 56.785156 41.351562 57.140625 41.777344 C 57.726562 42.480469 58.484375 43.144531 58.78125 44.039062 Z M 58.78125 44.046875 " fill-opacity="1" fill-rule="nonzero"/></g><path fill="#0661aa" d="M 61.574219 36.742188 C 62.253906 37.003906 63.207031 37.636719 63.71875 38.148438 C 64.300781 38.738281 64.589844 39.695312 65.015625 40.148438 C 65.28125 40.429688 65.679688 40.507812 65.972656 40.75 C 67.171875 41.730469 66.679688 42.578125 67.238281 43.644531 C 67.574219 44.289062 68.300781 44.78125 68.578125 45.601562 C 68.652344 45.828125 68.949219 47.085938 68.570312 47.164062 C 68.226562 47.230469 67.660156 45.765625 67.414062 45.378906 C 67.042969 44.808594 66.378906 44.253906 66.082031 43.761719 C 65.617188 42.980469 65.875 42.035156 65.449219 41.449219 C 65.128906 41.011719 64.332031 40.832031 63.90625 40.390625 C 63.429688 39.890625 63.277344 39.097656 62.769531 38.578125 C 62.207031 38 60.355469 37.117188 60.152344 36.8125 C 59.773438 36.234375 60.898438 35.316406 60.765625 34.503906 C 60.988281 34.128906 61.695312 34.621094 61.8125 34.851562 C 62.160156 35.5625 61.40625 36.046875 61.570312 36.742188 Z M 61.574219 36.742188 " fill-opacity="1" fill-rule="nonzero"/><g clip-path="url(#ed47e86410)"><path fill="#0661aa" d="M 77.511719 24.453125 C 78.921875 24.757812 78.300781 25.21875 78.238281 25.964844 C 78.210938 26.273438 78.386719 26.53125 78.382812 26.800781 C 78.375 27.578125 76.71875 29.855469 76.121094 30.4375 C 75.664062 30.878906 74.027344 31.839844 73.890625 32.378906 C 73.726562 33.03125 74.367188 33.113281 74.539062 33.394531 C 74.773438 33.773438 74.660156 34.328125 75.070312 34.601562 C 76.804688 34.429688 77.992188 33.359375 79.808594 33.6875 C 81.191406 33.933594 80.574219 34.777344 80.972656 35.121094 C 81.507812 35.585938 84.335938 35.882812 85.261719 36.382812 C 87.527344 37.609375 88.699219 41.242188 90.804688 42.628906 C 91.84375 43.316406 93.195312 43.867188 94.242188 44.566406 L 97.996094 36.789062 C 99.394531 36.425781 99.734375 37.695312 100.484375 38.5 C 101.117188 39.175781 102.378906 40.460938 103.191406 40.820312 C 105.445312 41.824219 105.3125 41.378906 107.296875 43.183594 C 107.683594 43.535156 108.523438 43.621094 108.378906 44.390625 C 108.132812 44.390625 107.953125 44.609375 107.691406 44.484375 C 106.652344 43.984375 105.722656 42.699219 104.617188 42.167969 C 103.960938 41.851562 103.371094 41.859375 102.765625 41.585938 C 101.261719 40.910156 100.097656 39.238281 98.757812 38.316406 C 96.921875 40.917969 95.949219 43.992188 94.625 46.847656 C 93.910156 48.382812 93.351562 50.003906 91.554688 50.457031 C 91.28125 50.160156 94.144531 46.226562 93.730469 45.433594 C 93.53125 45.050781 89.949219 43.203125 89.203125 42.488281 C 87.980469 41.316406 85.851562 37.484375 84.441406 36.847656 C 84.011719 36.65625 83.574219 36.828125 83.148438 36.753906 C 82.644531 36.667969 82.367188 36.078125 81.589844 36.230469 C 81.410156 36.261719 81.558594 36.589844 81.464844 36.714844 C 81.359375 36.859375 81.003906 36.820312 80.839844 36.976562 C 80.695312 37.113281 80.523438 37.746094 80.28125 38.0625 C 79.179688 39.476562 77.4375 41.554688 76.207031 42.832031 C 75.410156 43.660156 74.503906 44.304688 73.425781 44.734375 L 80.203125 36.425781 C 80.117188 35.492188 78.8125 35.679688 79.410156 34.507812 C 79.234375 34.335938 75.773438 35.761719 75.070312 35.648438 C 73.714844 35.429688 73.761719 33.878906 73.265625 33.453125 C 72.847656 33.097656 71.617188 33.183594 72.292969 32.15625 C 72.785156 31.40625 74.277344 30.507812 74.972656 29.808594 C 75.546875 29.230469 77.09375 27.347656 77.160156 26.601562 C 77.203125 26.128906 76.863281 25.671875 77.160156 25.144531 C 76.542969 25.148438 75.761719 24.742188 75.96875 24.054688 C 76.082031 23.6875 77.769531 21.679688 78.167969 21.039062 C 78.746094 20.09375 79.214844 18.960938 79.796875 17.984375 C 80.433594 16.90625 81.445312 16.023438 81.671875 14.742188 C 82.789062 14.765625 82.554688 15.695312 82.269531 16.472656 C 81.855469 17.625 79.804688 20.628906 79.035156 21.90625 C 78.804688 22.285156 77.316406 24.199219 77.507812 24.453125 Z M 77.511719 24.453125 " fill-opacity="1" fill-rule="nonzero"/></g></svg>