<svg xmlns="http://www.w3.org/2000/svg" xmlns:xlink="http://www.w3.org/1999/xlink" width="180" zoomAndPan="magnify" viewBox="0 0 135 161.249994" height="215" preserveAspectRatio="xMidYMid meet" version="1.0"><defs><g/><clipPath id="a63b22e406"><path d="M 27.925781 17.191406 L 106 17.191406 L 106 47 L 27.925781 47 Z M 27.925781 17.191406 " clip-rule="nonzero"/></clipPath><clipPath id="f461dfb1d0"><path d="M 43 45 L 68 45 L 68 57.503906 L 43 57.503906 Z M 43 45 " clip-rule="nonzero"/></clipPath><clipPath id="29f9dd9d12"><path d="M 69 18 L 107.058594 18 L 107.058594 56 L 69 56 Z M 69 18 " clip-rule="nonzero"/></clipPath></defs><g fill="#0661aa" fill-opacity="1"><g transform="translate(27.03148, 75.492031)"><g><path d="M 0.09375 0 L 4.171875 -12.765625 L 7.96875 -12.765625 L 12.0625 0 L 8.921875 0 L 8.203125 -2.515625 L 3.921875 -2.515625 L 3.1875 0 Z M 4.390625 -4.671875 L 7.71875 -4.671875 L 6.109375 -10.28125 L 6.078125 -10.28125 Z M 4.390625 -4.671875 "/></g></g></g><g fill="#0661aa" fill-opacity="1"><g transform="translate(41.293115, 75.492031)"><g><path d="M 0.6875 0 L 0.6875 -13.296875 L 3.40625 -13.296875 L 3.40625 0 Z M 0.6875 0 "/></g></g></g><g fill="#0661aa" fill-opacity="1"><g transform="translate(47.49227, 75.492031)"><g><path d="M 4.90625 0.28125 C 3.851562 0.28125 3.039062 -0.00390625 2.46875 -0.578125 C 1.90625 -1.148438 1.625 -1.925781 1.625 -2.90625 L 1.609375 -7.09375 L 0.078125 -7.09375 L 0.078125 -9.171875 L 1.625 -9.171875 L 1.625 -11.609375 L 4.359375 -12.21875 L 4.359375 -9.171875 L 7.484375 -9.171875 L 7.484375 -7.09375 L 4.359375 -7.09375 L 4.375 -3.390625 C 4.375 -2.929688 4.476562 -2.570312 4.6875 -2.3125 C 4.90625 -2.0625 5.195312 -1.9375 5.5625 -1.9375 C 6.238281 -1.9375 6.734375 -2.3125 7.046875 -3.0625 L 7.9375 -1.390625 C 7.65625 -0.859375 7.25 -0.445312 6.71875 -0.15625 C 6.1875 0.132812 5.582031 0.28125 4.90625 0.28125 Z M 4.90625 0.28125 "/></g></g></g><g fill="#0661aa" fill-opacity="1"><g transform="translate(57.668916, 75.492031)"><g><path d="M 2.109375 -10.4375 C 1.617188 -10.4375 1.226562 -10.578125 0.9375 -10.859375 C 0.644531 -11.148438 0.5 -11.523438 0.5 -11.984375 C 0.5 -12.460938 0.644531 -12.84375 0.9375 -13.125 C 1.226562 -13.414062 1.617188 -13.5625 2.109375 -13.5625 C 2.597656 -13.5625 2.988281 -13.414062 3.28125 -13.125 C 3.582031 -12.84375 3.734375 -12.460938 3.734375 -11.984375 C 3.734375 -11.523438 3.582031 -11.148438 3.28125 -10.859375 C 2.988281 -10.578125 2.597656 -10.4375 2.109375 -10.4375 Z M 0.734375 0 L 0.734375 -9.171875 L 3.484375 -9.171875 L 3.484375 0 Z M 0.734375 0 "/></g></g></g><g fill="#0661aa" fill-opacity="1"><g transform="translate(64.011406, 75.492031)"><g><path d="M 4.90625 0.28125 C 3.851562 0.28125 3.039062 -0.00390625 2.46875 -0.578125 C 1.90625 -1.148438 1.625 -1.925781 1.625 -2.90625 L 1.609375 -7.09375 L 0.078125 -7.09375 L 0.078125 -9.171875 L 1.625 -9.171875 L 1.625 -11.609375 L 4.359375 -12.21875 L 4.359375 -9.171875 L 7.484375 -9.171875 L 7.484375 -7.09375 L 4.359375 -7.09375 L 4.375 -3.390625 C 4.375 -2.929688 4.476562 -2.570312 4.6875 -2.3125 C 4.90625 -2.0625 5.195312 -1.9375 5.5625 -1.9375 C 6.238281 -1.9375 6.734375 -2.3125 7.046875 -3.0625 L 7.9375 -1.390625 C 7.65625 -0.859375 7.25 -0.445312 6.71875 -0.15625 C 6.1875 0.132812 5.582031 0.28125 4.90625 0.28125 Z M 4.90625 0.28125 "/></g></g></g><g fill="#0661aa" fill-opacity="1"><g transform="translate(74.152215, 75.492031)"><g><path d="M 3.375 0.234375 C 2.53125 0.234375 1.859375 -0.0195312 1.359375 -0.53125 C 0.867188 -1.039062 0.625 -1.75 0.625 -2.65625 L 0.625 -9.171875 L 3.375 -9.171875 L 3.375 -3.34375 C 3.375 -2.914062 3.484375 -2.582031 3.703125 -2.34375 C 3.921875 -2.101562 4.21875 -1.984375 4.59375 -1.984375 C 5.082031 -1.984375 5.472656 -2.144531 5.765625 -2.46875 C 6.066406 -2.789062 6.21875 -3.226562 6.21875 -3.78125 L 6.21875 -9.171875 L 8.9375 -9.171875 L 8.9375 0 L 6.6875 0 L 6.3125 -1.5625 L 6.296875 -1.5625 C 6.015625 -0.988281 5.617188 -0.546875 5.109375 -0.234375 C 4.597656 0.078125 4.019531 0.234375 3.375 0.234375 Z M 3.375 0.234375 "/></g></g></g><g fill="#0661aa" fill-opacity="1"><g transform="translate(85.887598, 75.492031)"><g><path d="M 4 0.25 C 3.269531 0.25 2.628906 0.0507812 2.078125 -0.34375 C 1.535156 -0.738281 1.113281 -1.300781 0.8125 -2.03125 C 0.519531 -2.757812 0.375 -3.613281 0.375 -4.59375 C 0.375 -5.582031 0.519531 -6.4375 0.8125 -7.15625 C 1.113281 -7.882812 1.535156 -8.441406 2.078125 -8.828125 C 2.628906 -9.222656 3.265625 -9.421875 3.984375 -9.421875 C 4.597656 -9.421875 5.144531 -9.265625 5.625 -8.953125 C 6.101562 -8.648438 6.472656 -8.203125 6.734375 -7.609375 L 6.75 -7.609375 L 6.75 -13.296875 L 9.5 -13.296875 L 9.5 0 L 7.171875 0 L 6.828125 -1.59375 L 6.8125 -1.59375 C 6.550781 -1 6.175781 -0.539062 5.6875 -0.21875 C 5.195312 0.09375 4.632812 0.25 4 0.25 Z M 5 -2.09375 C 5.5625 -2.09375 6.007812 -2.316406 6.34375 -2.765625 C 6.6875 -3.222656 6.859375 -3.832031 6.859375 -4.59375 C 6.859375 -5.34375 6.6875 -5.941406 6.34375 -6.390625 C 6.007812 -6.847656 5.5625 -7.078125 5 -7.078125 C 4.4375 -7.078125 3.984375 -6.847656 3.640625 -6.390625 C 3.296875 -5.941406 3.125 -5.34375 3.125 -4.59375 C 3.125 -3.832031 3.296875 -3.222656 3.640625 -2.765625 C 3.984375 -2.316406 4.4375 -2.09375 5 -2.09375 Z M 5 -2.09375 "/></g></g></g><g fill="#0661aa" fill-opacity="1"><g transform="translate(98.178399, 75.492031)"><g><path d="M 5.359375 0.296875 C 4.367188 0.296875 3.492188 0.0976562 2.734375 -0.296875 C 1.984375 -0.703125 1.398438 -1.28125 0.984375 -2.03125 C 0.578125 -2.78125 0.375 -3.648438 0.375 -4.640625 C 0.375 -5.617188 0.5625 -6.46875 0.9375 -7.1875 C 1.3125 -7.914062 1.835938 -8.484375 2.515625 -8.890625 C 3.203125 -9.296875 4.003906 -9.5 4.921875 -9.5 C 5.804688 -9.5 6.570312 -9.300781 7.21875 -8.90625 C 7.863281 -8.519531 8.367188 -7.976562 8.734375 -7.28125 C 9.097656 -6.582031 9.28125 -5.765625 9.28125 -4.828125 C 9.28125 -4.628906 9.269531 -4.441406 9.25 -4.265625 C 9.238281 -4.097656 9.210938 -3.953125 9.171875 -3.828125 L 3.125 -3.828125 C 3.175781 -3.160156 3.40625 -2.632812 3.8125 -2.25 C 4.21875 -1.863281 4.738281 -1.671875 5.375 -1.671875 C 5.863281 -1.671875 6.296875 -1.789062 6.671875 -2.03125 C 7.046875 -2.269531 7.332031 -2.597656 7.53125 -3.015625 L 9.4375 -2.171875 C 9.175781 -1.398438 8.671875 -0.796875 7.921875 -0.359375 C 7.171875 0.078125 6.316406 0.296875 5.359375 0.296875 Z M 3.125 -5.390625 L 6.5625 -5.390625 C 6.519531 -6.054688 6.351562 -6.578125 6.0625 -6.953125 C 5.78125 -7.328125 5.394531 -7.515625 4.90625 -7.515625 C 4.394531 -7.515625 3.984375 -7.320312 3.671875 -6.9375 C 3.359375 -6.5625 3.175781 -6.046875 3.125 -5.390625 Z M 3.125 -5.390625 "/></g></g></g><g fill="#0661aa" fill-opacity="1"><g transform="translate(26.891507, 97.141335)"><g><path d="M 3.640625 0 L 3.640625 -10.140625 L 0.265625 -10.140625 L 0.265625 -12.765625 L 10.078125 -12.765625 L 10.078125 -10.140625 L 6.703125 -10.140625 L 6.703125 0 Z M 3.640625 0 "/></g></g></g><g fill="#0661aa" fill-opacity="1"><g transform="translate(38.626889, 97.141335)"><g><path d="M 5.625 -9.421875 C 6.375 -9.421875 6.976562 -9.140625 7.4375 -8.578125 C 7.894531 -8.023438 8.144531 -7.234375 8.1875 -6.203125 L 5.875 -5.578125 C 5.863281 -6.171875 5.753906 -6.617188 5.546875 -6.921875 C 5.347656 -7.234375 5.082031 -7.390625 4.75 -7.390625 C 4.34375 -7.390625 4.015625 -7.1875 3.765625 -6.78125 C 3.523438 -6.375 3.40625 -5.8125 3.40625 -5.09375 L 3.40625 0 L 0.6875 0 L 0.6875 -9.171875 L 2.890625 -9.171875 L 3.265625 -7.59375 L 3.28125 -7.59375 C 3.476562 -8.164062 3.785156 -8.613281 4.203125 -8.9375 C 4.628906 -9.257812 5.101562 -9.421875 5.625 -9.421875 Z M 5.625 -9.421875 "/></g></g></g><g fill="#0661aa" fill-opacity="1"><g transform="translate(49.143947, 97.141335)"><g><path d="M 3.171875 0.21875 C 2.296875 0.21875 1.585938 -0.015625 1.046875 -0.484375 C 0.515625 -0.953125 0.25 -1.578125 0.25 -2.359375 C 0.25 -3.203125 0.566406 -3.878906 1.203125 -4.390625 C 1.847656 -4.910156 2.785156 -5.238281 4.015625 -5.375 L 5.4375 -5.53125 C 5.632812 -5.5625 5.796875 -5.632812 5.921875 -5.75 C 6.046875 -5.875 6.109375 -6.046875 6.109375 -6.265625 C 6.109375 -6.671875 5.984375 -6.984375 5.734375 -7.203125 C 5.484375 -7.421875 5.15625 -7.53125 4.75 -7.53125 C 4.28125 -7.53125 3.898438 -7.367188 3.609375 -7.046875 C 3.328125 -6.722656 3.175781 -6.316406 3.15625 -5.828125 L 0.5625 -6.203125 C 0.582031 -6.847656 0.769531 -7.414062 1.125 -7.90625 C 1.476562 -8.40625 1.960938 -8.796875 2.578125 -9.078125 C 3.191406 -9.359375 3.910156 -9.5 4.734375 -9.5 C 5.984375 -9.5 6.972656 -9.171875 7.703125 -8.515625 C 8.429688 -7.859375 8.796875 -6.96875 8.796875 -5.84375 L 8.796875 -2.296875 C 8.796875 -1.890625 8.945312 -1.6875 9.25 -1.6875 C 9.488281 -1.6875 9.710938 -1.804688 9.921875 -2.046875 L 10.515625 -0.578125 C 10.234375 -0.296875 9.890625 -0.09375 9.484375 0.03125 C 9.078125 0.164062 8.675781 0.234375 8.28125 0.234375 C 7.726562 0.234375 7.265625 0.09375 6.890625 -0.1875 C 6.515625 -0.46875 6.28125 -0.820312 6.1875 -1.25 L 6.140625 -1.484375 L 6.125 -1.484375 C 5.851562 -0.960938 5.457031 -0.546875 4.9375 -0.234375 C 4.425781 0.0664062 3.835938 0.21875 3.171875 0.21875 Z M 4.296875 -1.703125 C 4.816406 -1.703125 5.242188 -1.882812 5.578125 -2.25 C 5.910156 -2.613281 6.078125 -3.085938 6.078125 -3.671875 L 6.078125 -4.109375 L 4.734375 -3.953125 C 4.109375 -3.890625 3.660156 -3.742188 3.390625 -3.515625 C 3.128906 -3.285156 3 -3.015625 3 -2.703125 C 3 -2.410156 3.117188 -2.171875 3.359375 -1.984375 C 3.609375 -1.796875 3.921875 -1.703125 4.296875 -1.703125 Z M 4.296875 -1.703125 "/></g></g></g><g fill="#0661aa" fill-opacity="1"><g transform="translate(61.77516, 97.141335)"><g><path d="M 2.109375 -10.4375 C 1.617188 -10.4375 1.226562 -10.578125 0.9375 -10.859375 C 0.644531 -11.148438 0.5 -11.523438 0.5 -11.984375 C 0.5 -12.460938 0.644531 -12.84375 0.9375 -13.125 C 1.226562 -13.414062 1.617188 -13.5625 2.109375 -13.5625 C 2.597656 -13.5625 2.988281 -13.414062 3.28125 -13.125 C 3.582031 -12.84375 3.734375 -12.460938 3.734375 -11.984375 C 3.734375 -11.523438 3.582031 -11.148438 3.28125 -10.859375 C 2.988281 -10.578125 2.597656 -10.4375 2.109375 -10.4375 Z M 0.734375 0 L 0.734375 -9.171875 L 3.484375 -9.171875 L 3.484375 0 Z M 0.734375 0 "/></g></g></g><g fill="#0661aa" fill-opacity="1"><g transform="translate(68.11765, 97.141335)"><g><path d="M 6.25 -9.40625 C 7.101562 -9.40625 7.773438 -9.148438 8.265625 -8.640625 C 8.753906 -8.140625 9 -7.4375 9 -6.53125 L 9 0 L 6.25 0 L 6.25 -5.828125 C 6.25 -6.253906 6.140625 -6.585938 5.921875 -6.828125 C 5.710938 -7.066406 5.414062 -7.1875 5.03125 -7.1875 C 4.539062 -7.1875 4.144531 -7.023438 3.84375 -6.703125 C 3.550781 -6.390625 3.40625 -5.953125 3.40625 -5.390625 L 3.40625 0 L 0.6875 0 L 0.6875 -9.171875 L 2.9375 -9.171875 L 3.3125 -7.609375 L 3.328125 -7.609375 C 3.609375 -8.191406 4.003906 -8.632812 4.515625 -8.9375 C 5.023438 -9.25 5.601562 -9.40625 6.25 -9.40625 Z M 6.25 -9.40625 "/></g></g></g><g fill="#0661aa" fill-opacity="1"><g transform="translate(79.853032, 97.141335)"><g><path d="M 2.109375 -10.4375 C 1.617188 -10.4375 1.226562 -10.578125 0.9375 -10.859375 C 0.644531 -11.148438 0.5 -11.523438 0.5 -11.984375 C 0.5 -12.460938 0.644531 -12.84375 0.9375 -13.125 C 1.226562 -13.414062 1.617188 -13.5625 2.109375 -13.5625 C 2.597656 -13.5625 2.988281 -13.414062 3.28125 -13.125 C 3.582031 -12.84375 3.734375 -12.460938 3.734375 -11.984375 C 3.734375 -11.523438 3.582031 -11.148438 3.28125 -10.859375 C 2.988281 -10.578125 2.597656 -10.4375 2.109375 -10.4375 Z M 0.734375 0 L 0.734375 -9.171875 L 3.484375 -9.171875 L 3.484375 0 Z M 0.734375 0 "/></g></g></g><g fill="#0661aa" fill-opacity="1"><g transform="translate(86.195522, 97.141335)"><g><path d="M 6.25 -9.40625 C 7.101562 -9.40625 7.773438 -9.148438 8.265625 -8.640625 C 8.753906 -8.140625 9 -7.4375 9 -6.53125 L 9 0 L 6.25 0 L 6.25 -5.828125 C 6.25 -6.253906 6.140625 -6.585938 5.921875 -6.828125 C 5.710938 -7.066406 5.414062 -7.1875 5.03125 -7.1875 C 4.539062 -7.1875 4.144531 -7.023438 3.84375 -6.703125 C 3.550781 -6.390625 3.40625 -5.953125 3.40625 -5.390625 L 3.40625 0 L 0.6875 0 L 0.6875 -9.171875 L 2.9375 -9.171875 L 3.3125 -7.609375 L 3.328125 -7.609375 C 3.609375 -8.191406 4.003906 -8.632812 4.515625 -8.9375 C 5.023438 -9.25 5.601562 -9.40625 6.25 -9.40625 Z M 6.25 -9.40625 "/></g></g></g><g fill="#0661aa" fill-opacity="1"><g transform="translate(97.930904, 97.141335)"><g><path d="M 4.359375 4.0625 C 3.460938 4.0625 2.613281 3.910156 1.8125 3.609375 C 1.019531 3.316406 0.382812 2.914062 -0.09375 2.40625 L 0.96875 0.4375 C 1.332031 0.851562 1.789062 1.1875 2.34375 1.4375 C 2.90625 1.695312 3.472656 1.828125 4.046875 1.828125 C 4.867188 1.828125 5.523438 1.597656 6.015625 1.140625 C 6.503906 0.679688 6.75 0.0546875 6.75 -0.734375 L 6.75 -1.65625 L 6.734375 -1.65625 C 6.472656 -1.132812 6.09375 -0.71875 5.59375 -0.40625 C 5.09375 -0.101562 4.546875 0.046875 3.953125 0.046875 C 3.242188 0.046875 2.625 -0.140625 2.09375 -0.515625 C 1.5625 -0.898438 1.144531 -1.441406 0.84375 -2.140625 C 0.550781 -2.835938 0.40625 -3.660156 0.40625 -4.609375 C 0.40625 -5.597656 0.546875 -6.453125 0.828125 -7.171875 C 1.117188 -7.898438 1.523438 -8.457031 2.046875 -8.84375 C 2.578125 -9.238281 3.195312 -9.4375 3.90625 -9.4375 C 4.53125 -9.4375 5.097656 -9.269531 5.609375 -8.9375 C 6.117188 -8.601562 6.5 -8.15625 6.75 -7.59375 L 6.78125 -7.59375 L 7.09375 -9.171875 L 9.5 -9.171875 L 9.5 -0.703125 C 9.5 0.285156 9.289062 1.140625 8.875 1.859375 C 8.457031 2.578125 7.863281 3.125 7.09375 3.5 C 6.320312 3.875 5.410156 4.0625 4.359375 4.0625 Z M 5.015625 -2.1875 C 5.578125 -2.1875 6.023438 -2.410156 6.359375 -2.859375 C 6.691406 -3.304688 6.859375 -3.90625 6.859375 -4.65625 C 6.859375 -5.40625 6.691406 -6.007812 6.359375 -6.46875 C 6.023438 -6.925781 5.578125 -7.15625 5.015625 -7.15625 C 4.453125 -7.15625 4 -6.929688 3.65625 -6.484375 C 3.320312 -6.035156 3.15625 -5.425781 3.15625 -4.65625 C 3.15625 -3.894531 3.320312 -3.289062 3.65625 -2.84375 C 4 -2.40625 4.453125 -2.1875 5.015625 -2.1875 Z M 5.015625 -2.1875 "/></g></g></g><g fill="#2d6d5e" fill-opacity="1"><g transform="translate(28.650428, 127.743461)"><g><path d="M 0.8125 -7.8125 L 2.515625 -7.8125 C 3.191406 -7.8125 3.703125 -7.65625 4.046875 -7.34375 C 4.398438 -7.03125 4.578125 -6.5625 4.578125 -5.9375 C 4.578125 -5.601562 4.535156 -5.3125 4.453125 -5.0625 C 4.367188 -4.8125 4.242188 -4.609375 4.078125 -4.453125 C 3.910156 -4.296875 3.703125 -4.191406 3.453125 -4.140625 L 3.453125 -4.09375 C 3.742188 -4.019531 3.984375 -3.90625 4.171875 -3.75 C 4.359375 -3.59375 4.5 -3.382812 4.59375 -3.125 C 4.6875 -2.875 4.734375 -2.578125 4.734375 -2.234375 C 4.734375 -1.785156 4.65625 -1.394531 4.5 -1.0625 C 4.351562 -0.726562 4.128906 -0.46875 3.828125 -0.28125 C 3.535156 -0.09375 3.179688 0 2.765625 0 L 0.8125 0 Z M 1.65625 -4.4375 L 2.5 -4.4375 C 2.925781 -4.4375 3.234375 -4.554688 3.421875 -4.796875 C 3.617188 -5.035156 3.71875 -5.390625 3.71875 -5.859375 C 3.71875 -6.253906 3.613281 -6.554688 3.40625 -6.765625 C 3.207031 -6.972656 2.898438 -7.078125 2.484375 -7.078125 L 1.65625 -7.078125 Z M 1.65625 -3.71875 L 1.65625 -0.75 L 2.671875 -0.75 C 3.054688 -0.75 3.347656 -0.875 3.546875 -1.125 C 3.753906 -1.375 3.859375 -1.757812 3.859375 -2.28125 C 3.859375 -2.59375 3.804688 -2.851562 3.703125 -3.0625 C 3.597656 -3.28125 3.445312 -3.441406 3.25 -3.546875 C 3.0625 -3.660156 2.832031 -3.71875 2.5625 -3.71875 Z M 1.65625 -3.71875 "/></g></g></g><g fill="#2d6d5e" fill-opacity="1"><g transform="translate(35.349414, 127.743461)"><g><path d="M 2.671875 -5.96875 C 2.753906 -5.96875 2.835938 -5.957031 2.921875 -5.9375 C 3.003906 -5.925781 3.085938 -5.910156 3.171875 -5.890625 L 3.046875 -5.046875 C 2.984375 -5.066406 2.914062 -5.082031 2.84375 -5.09375 C 2.769531 -5.101562 2.691406 -5.109375 2.609375 -5.109375 C 2.453125 -5.109375 2.304688 -5.054688 2.171875 -4.953125 C 2.035156 -4.847656 1.921875 -4.703125 1.828125 -4.515625 C 1.734375 -4.328125 1.660156 -4.109375 1.609375 -3.859375 C 1.554688 -3.609375 1.53125 -3.34375 1.53125 -3.0625 L 1.53125 0 L 0.71875 0 L 0.71875 -5.859375 L 1.359375 -5.859375 L 1.46875 -4.828125 L 1.515625 -4.828125 C 1.597656 -5.046875 1.691406 -5.238281 1.796875 -5.40625 C 1.910156 -5.582031 2.039062 -5.71875 2.1875 -5.8125 C 2.332031 -5.914062 2.492188 -5.96875 2.671875 -5.96875 Z M 2.671875 -5.96875 "/></g></g></g><g fill="#2d6d5e" fill-opacity="1"><g transform="translate(40.162522, 127.743461)"><g><path d="M 2.328125 -5.953125 C 2.722656 -5.953125 3.050781 -5.835938 3.3125 -5.609375 C 3.570312 -5.378906 3.765625 -5.066406 3.890625 -4.671875 C 4.015625 -4.285156 4.078125 -3.851562 4.078125 -3.375 L 4.078125 -2.78125 L 1.28125 -2.78125 C 1.289062 -2.050781 1.40625 -1.503906 1.625 -1.140625 C 1.84375 -0.773438 2.171875 -0.59375 2.609375 -0.59375 C 2.828125 -0.59375 3.035156 -0.625 3.234375 -0.6875 C 3.441406 -0.75 3.648438 -0.851562 3.859375 -1 L 3.859375 -0.265625 C 3.660156 -0.140625 3.453125 -0.046875 3.234375 0.015625 C 3.015625 0.078125 2.78125 0.109375 2.53125 0.109375 C 2.039062 0.109375 1.644531 -0.0195312 1.34375 -0.28125 C 1.039062 -0.539062 0.816406 -0.898438 0.671875 -1.359375 C 0.535156 -1.816406 0.46875 -2.332031 0.46875 -2.90625 C 0.46875 -3.550781 0.535156 -4.101562 0.671875 -4.5625 C 0.816406 -5.019531 1.023438 -5.363281 1.296875 -5.59375 C 1.578125 -5.832031 1.921875 -5.953125 2.328125 -5.953125 Z M 2.328125 -5.28125 C 2.015625 -5.28125 1.769531 -5.128906 1.59375 -4.828125 C 1.425781 -4.535156 1.328125 -4.070312 1.296875 -3.4375 L 3.3125 -3.4375 C 3.3125 -3.769531 3.273438 -4.078125 3.203125 -4.359375 C 3.140625 -4.640625 3.035156 -4.863281 2.890625 -5.03125 C 2.742188 -5.195312 2.554688 -5.28125 2.328125 -5.28125 Z M 2.328125 -5.28125 "/></g></g></g><g fill="#2d6d5e" fill-opacity="1"><g transform="translate(46.220416, 127.743461)"><g><path d="M 2.28125 -5.96875 C 2.820312 -5.96875 3.207031 -5.796875 3.4375 -5.453125 C 3.675781 -5.109375 3.796875 -4.609375 3.796875 -3.953125 L 3.796875 0 L 3.171875 0 L 3.046875 -0.828125 L 3.015625 -0.828125 C 2.929688 -0.628906 2.820312 -0.457031 2.6875 -0.3125 C 2.5625 -0.175781 2.414062 -0.0703125 2.25 0 C 2.09375 0.0703125 1.90625 0.109375 1.6875 0.109375 C 1.382812 0.109375 1.132812 0.03125 0.9375 -0.125 C 0.75 -0.289062 0.609375 -0.503906 0.515625 -0.765625 C 0.421875 -1.023438 0.375 -1.304688 0.375 -1.609375 C 0.375 -2.191406 0.539062 -2.640625 0.875 -2.953125 C 1.21875 -3.273438 1.695312 -3.453125 2.3125 -3.484375 L 2.96875 -3.53125 L 2.96875 -3.9375 C 2.96875 -4.40625 2.90625 -4.742188 2.78125 -4.953125 C 2.65625 -5.171875 2.445312 -5.28125 2.15625 -5.28125 C 2 -5.28125 1.828125 -5.25 1.640625 -5.1875 C 1.460938 -5.132812 1.269531 -5.046875 1.0625 -4.921875 L 0.796875 -5.546875 C 1.015625 -5.691406 1.25 -5.796875 1.5 -5.859375 C 1.757812 -5.929688 2.019531 -5.96875 2.28125 -5.96875 Z M 2.984375 -2.921875 L 2.4375 -2.890625 C 2.03125 -2.867188 1.722656 -2.753906 1.515625 -2.546875 C 1.316406 -2.335938 1.21875 -2.035156 1.21875 -1.640625 C 1.21875 -1.265625 1.28125 -0.988281 1.40625 -0.8125 C 1.539062 -0.644531 1.722656 -0.5625 1.953125 -0.5625 C 2.285156 -0.5625 2.539062 -0.71875 2.71875 -1.03125 C 2.894531 -1.34375 2.984375 -1.773438 2.984375 -2.328125 Z M 2.984375 -2.921875 "/></g></g></g><g fill="#2d6d5e" fill-opacity="1"><g transform="translate(52.246256, 127.743461)"><g><path d="M 2.09375 -0.625 C 2.1875 -0.625 2.273438 -0.628906 2.359375 -0.640625 C 2.453125 -0.660156 2.535156 -0.691406 2.609375 -0.734375 L 2.609375 -0.0625 C 2.503906 -0.0078125 2.382812 0.03125 2.25 0.0625 C 2.125 0.09375 1.984375 0.109375 1.828125 0.109375 C 1.578125 0.109375 1.367188 0.0507812 1.203125 -0.0625 C 1.046875 -0.175781 0.925781 -0.34375 0.84375 -0.5625 C 0.769531 -0.789062 0.734375 -1.078125 0.734375 -1.421875 L 0.734375 -5.171875 L 0.1875 -5.171875 L 0.1875 -5.625 L 0.78125 -5.84375 L 1 -7.1875 L 1.5625 -7.1875 L 1.5625 -5.859375 L 2.546875 -5.859375 L 2.546875 -5.171875 L 1.5625 -5.171875 L 1.5625 -1.515625 C 1.5625 -1.210938 1.597656 -0.988281 1.671875 -0.84375 C 1.742188 -0.695312 1.882812 -0.625 2.09375 -0.625 Z M 2.09375 -0.625 "/></g></g></g><g fill="#2d6d5e" fill-opacity="1"><g transform="translate(56.551833, 127.743461)"><g><path d="M 1.53125 -8.3125 L 1.53125 -5.890625 C 1.53125 -5.734375 1.523438 -5.582031 1.515625 -5.4375 C 1.515625 -5.300781 1.503906 -5.164062 1.484375 -5.03125 L 1.53125 -5.03125 C 1.601562 -5.226562 1.703125 -5.394531 1.828125 -5.53125 C 1.960938 -5.664062 2.113281 -5.769531 2.28125 -5.84375 C 2.445312 -5.925781 2.625 -5.96875 2.8125 -5.96875 C 3.144531 -5.96875 3.414062 -5.890625 3.625 -5.734375 C 3.832031 -5.585938 3.984375 -5.367188 4.078125 -5.078125 C 4.179688 -4.785156 4.234375 -4.421875 4.234375 -3.984375 L 4.234375 0 L 3.40625 0 L 3.40625 -3.828125 C 3.40625 -4.328125 3.34375 -4.6875 3.21875 -4.90625 C 3.101562 -5.125 2.910156 -5.234375 2.640625 -5.234375 C 2.390625 -5.234375 2.179688 -5.15625 2.015625 -5 C 1.859375 -4.851562 1.738281 -4.617188 1.65625 -4.296875 C 1.570312 -3.972656 1.53125 -3.566406 1.53125 -3.078125 L 1.53125 0 L 0.71875 0 L 0.71875 -8.3125 Z M 1.53125 -8.3125 "/></g></g></g><g fill="#2d6d5e" fill-opacity="1"><g transform="translate(63.015752, 127.743461)"><g/></g></g><g fill="#2d6d5e" fill-opacity="1"><g transform="translate(66.578731, 127.743461)"><g><path d="M 1.53125 -8.3125 L 1.53125 -5.890625 C 1.53125 -5.734375 1.523438 -5.582031 1.515625 -5.4375 C 1.515625 -5.300781 1.503906 -5.164062 1.484375 -5.03125 L 1.53125 -5.03125 C 1.601562 -5.226562 1.703125 -5.394531 1.828125 -5.53125 C 1.960938 -5.664062 2.113281 -5.769531 2.28125 -5.84375 C 2.445312 -5.925781 2.625 -5.96875 2.8125 -5.96875 C 3.144531 -5.96875 3.414062 -5.890625 3.625 -5.734375 C 3.832031 -5.585938 3.984375 -5.367188 4.078125 -5.078125 C 4.179688 -4.785156 4.234375 -4.421875 4.234375 -3.984375 L 4.234375 0 L 3.40625 0 L 3.40625 -3.828125 C 3.40625 -4.328125 3.34375 -4.6875 3.21875 -4.90625 C 3.101562 -5.125 2.910156 -5.234375 2.640625 -5.234375 C 2.390625 -5.234375 2.179688 -5.15625 2.015625 -5 C 1.859375 -4.851562 1.738281 -4.617188 1.65625 -4.296875 C 1.570312 -3.972656 1.53125 -3.566406 1.53125 -3.078125 L 1.53125 0 L 0.71875 0 L 0.71875 -8.3125 Z M 1.53125 -8.3125 "/></g></g></g><g fill="#2d6d5e" fill-opacity="1"><g transform="translate(73.04265, 127.743461)"><g><path d="M 4.359375 -2.9375 C 4.359375 -2.476562 4.316406 -2.0625 4.234375 -1.6875 C 4.160156 -1.3125 4.039062 -0.988281 3.875 -0.71875 C 3.71875 -0.457031 3.515625 -0.253906 3.265625 -0.109375 C 3.023438 0.0351562 2.734375 0.109375 2.390625 0.109375 C 2.078125 0.109375 1.796875 0.0351562 1.546875 -0.109375 C 1.304688 -0.253906 1.101562 -0.457031 0.9375 -0.71875 C 0.78125 -0.976562 0.660156 -1.296875 0.578125 -1.671875 C 0.503906 -2.054688 0.46875 -2.476562 0.46875 -2.9375 C 0.46875 -3.582031 0.535156 -4.128906 0.671875 -4.578125 C 0.804688 -5.035156 1.019531 -5.378906 1.3125 -5.609375 C 1.601562 -5.847656 1.96875 -5.96875 2.40625 -5.96875 C 2.820312 -5.96875 3.175781 -5.851562 3.46875 -5.625 C 3.757812 -5.394531 3.976562 -5.054688 4.125 -4.609375 C 4.28125 -4.160156 4.359375 -3.601562 4.359375 -2.9375 Z M 1.296875 -2.9375 C 1.296875 -2.425781 1.332031 -2 1.40625 -1.65625 C 1.488281 -1.3125 1.613281 -1.050781 1.78125 -0.875 C 1.945312 -0.695312 2.160156 -0.609375 2.421875 -0.609375 C 2.671875 -0.609375 2.875 -0.691406 3.03125 -0.859375 C 3.195312 -1.035156 3.316406 -1.296875 3.390625 -1.640625 C 3.472656 -1.984375 3.515625 -2.414062 3.515625 -2.9375 C 3.515625 -3.445312 3.472656 -3.875 3.390625 -4.21875 C 3.316406 -4.5625 3.195312 -4.816406 3.03125 -4.984375 C 2.875 -5.160156 2.664062 -5.25 2.40625 -5.25 C 2.019531 -5.25 1.738281 -5.054688 1.5625 -4.671875 C 1.382812 -4.285156 1.296875 -3.707031 1.296875 -2.9375 Z M 1.296875 -2.9375 "/></g></g></g><g fill="#2d6d5e" fill-opacity="1"><g transform="translate(79.394378, 127.743461)"><g><path d="M 1.53125 0 L 0.71875 0 L 0.71875 -8.3125 L 1.53125 -8.3125 Z M 1.53125 0 "/></g></g></g><g fill="#2d6d5e" fill-opacity="1"><g transform="translate(83.171055, 127.743461)"><g><path d="M 2.171875 0.109375 C 1.609375 0.109375 1.179688 -0.144531 0.890625 -0.65625 C 0.609375 -1.175781 0.46875 -1.929688 0.46875 -2.921875 C 0.46875 -3.898438 0.613281 -4.648438 0.90625 -5.171875 C 1.195312 -5.703125 1.609375 -5.96875 2.140625 -5.96875 C 2.335938 -5.96875 2.519531 -5.929688 2.6875 -5.859375 C 2.851562 -5.785156 3 -5.679688 3.125 -5.546875 C 3.257812 -5.410156 3.375 -5.25 3.46875 -5.0625 L 3.515625 -5.0625 C 3.503906 -5.226562 3.492188 -5.375 3.484375 -5.5 C 3.484375 -5.632812 3.484375 -5.757812 3.484375 -5.875 L 3.484375 -8.3125 L 4.296875 -8.3125 L 4.296875 0 L 3.640625 0 L 3.53125 -0.796875 L 3.484375 -0.796875 C 3.378906 -0.609375 3.265625 -0.445312 3.140625 -0.3125 C 3.015625 -0.175781 2.875 -0.0703125 2.71875 0 C 2.5625 0.0703125 2.378906 0.109375 2.171875 0.109375 Z M 2.359375 -0.59375 C 2.722656 -0.59375 3 -0.765625 3.1875 -1.109375 C 3.382812 -1.453125 3.484375 -1.960938 3.484375 -2.640625 L 3.484375 -3.046875 C 3.484375 -3.785156 3.390625 -4.332031 3.203125 -4.6875 C 3.023438 -5.050781 2.738281 -5.234375 2.34375 -5.234375 C 1.988281 -5.234375 1.722656 -5.035156 1.546875 -4.640625 C 1.378906 -4.242188 1.296875 -3.671875 1.296875 -2.921875 C 1.296875 -2.148438 1.378906 -1.566406 1.546875 -1.171875 C 1.722656 -0.785156 1.992188 -0.59375 2.359375 -0.59375 Z M 2.359375 -0.59375 "/></g></g></g><g fill="#2d6d5e" fill-opacity="1"><g transform="translate(89.709768, 127.743461)"><g><path d="M 1.546875 -5.859375 L 1.546875 0 L 0.71875 0 L 0.71875 -5.859375 Z M 1.140625 -8.0625 C 1.316406 -8.0625 1.441406 -8.007812 1.515625 -7.90625 C 1.585938 -7.800781 1.625 -7.648438 1.625 -7.453125 C 1.625 -7.273438 1.582031 -7.128906 1.5 -7.015625 C 1.425781 -6.910156 1.304688 -6.859375 1.140625 -6.859375 C 0.992188 -6.859375 0.875 -6.910156 0.78125 -7.015625 C 0.695312 -7.128906 0.65625 -7.273438 0.65625 -7.453125 C 0.65625 -7.648438 0.695312 -7.800781 0.78125 -7.90625 C 0.863281 -8.007812 0.984375 -8.0625 1.140625 -8.0625 Z M 1.140625 -8.0625 "/></g></g></g><g fill="#2d6d5e" fill-opacity="1"><g transform="translate(93.507814, 127.743461)"><g><path d="M 2.828125 -5.96875 C 3.285156 -5.96875 3.632812 -5.804688 3.875 -5.484375 C 4.113281 -5.160156 4.234375 -4.664062 4.234375 -4 L 4.234375 0 L 3.40625 0 L 3.40625 -3.828125 C 3.40625 -4.304688 3.34375 -4.660156 3.21875 -4.890625 C 3.101562 -5.128906 2.914062 -5.25 2.65625 -5.25 C 2.269531 -5.25 1.984375 -5.078125 1.796875 -4.734375 C 1.617188 -4.390625 1.53125 -3.84375 1.53125 -3.09375 L 1.53125 0 L 0.71875 0 L 0.71875 -5.859375 L 1.375 -5.859375 L 1.46875 -5.015625 L 1.515625 -5.015625 C 1.597656 -5.210938 1.703125 -5.378906 1.828125 -5.515625 C 1.960938 -5.660156 2.113281 -5.769531 2.28125 -5.84375 C 2.445312 -5.925781 2.628906 -5.96875 2.828125 -5.96875 Z M 2.828125 -5.96875 "/></g></g></g><g fill="#2d6d5e" fill-opacity="1"><g transform="translate(99.971733, 127.743461)"><g><path d="M 1.875 2.625 C 1.3125 2.625 0.867188 2.476562 0.546875 2.1875 C 0.234375 1.90625 0.078125 1.507812 0.078125 1 C 0.078125 0.601562 0.171875 0.273438 0.359375 0.015625 C 0.554688 -0.242188 0.804688 -0.414062 1.109375 -0.5 C 0.953125 -0.570312 0.828125 -0.675781 0.734375 -0.8125 C 0.640625 -0.957031 0.59375 -1.128906 0.59375 -1.328125 C 0.59375 -1.523438 0.640625 -1.703125 0.734375 -1.859375 C 0.828125 -2.023438 0.960938 -2.1875 1.140625 -2.34375 C 0.910156 -2.476562 0.726562 -2.691406 0.59375 -2.984375 C 0.46875 -3.285156 0.40625 -3.628906 0.40625 -4.015625 C 0.40625 -4.421875 0.46875 -4.765625 0.59375 -5.046875 C 0.726562 -5.335938 0.914062 -5.5625 1.15625 -5.71875 C 1.40625 -5.882812 1.703125 -5.96875 2.046875 -5.96875 C 2.148438 -5.96875 2.242188 -5.960938 2.328125 -5.953125 C 2.410156 -5.941406 2.484375 -5.925781 2.546875 -5.90625 C 2.609375 -5.894531 2.664062 -5.875 2.71875 -5.84375 L 4.171875 -5.84375 L 4.171875 -5.3125 L 3.375 -5.21875 C 3.476562 -5.0625 3.550781 -4.878906 3.59375 -4.671875 C 3.644531 -4.472656 3.671875 -4.265625 3.671875 -4.046875 C 3.671875 -3.453125 3.523438 -2.984375 3.234375 -2.640625 C 2.953125 -2.296875 2.550781 -2.125 2.03125 -2.125 C 1.875 -2.125 1.75 -2.140625 1.65625 -2.171875 C 1.550781 -2.078125 1.460938 -1.972656 1.390625 -1.859375 C 1.316406 -1.742188 1.28125 -1.601562 1.28125 -1.4375 C 1.28125 -1.332031 1.304688 -1.238281 1.359375 -1.15625 C 1.410156 -1.082031 1.476562 -1.023438 1.5625 -0.984375 C 1.65625 -0.941406 1.769531 -0.921875 1.90625 -0.921875 L 2.75 -0.921875 C 3.1875 -0.921875 3.523438 -0.796875 3.765625 -0.546875 C 4.003906 -0.296875 4.125 0.0859375 4.125 0.609375 C 4.125 1.242188 3.929688 1.738281 3.546875 2.09375 C 3.160156 2.445312 2.601562 2.625 1.875 2.625 Z M 1.9375 1.96875 C 2.25 1.96875 2.507812 1.921875 2.71875 1.828125 C 2.925781 1.734375 3.082031 1.585938 3.1875 1.390625 C 3.289062 1.203125 3.34375 0.96875 3.34375 0.6875 C 3.34375 0.457031 3.304688 0.28125 3.234375 0.15625 C 3.160156 0.03125 3.054688 -0.0507812 2.921875 -0.09375 C 2.785156 -0.144531 2.625 -0.171875 2.4375 -0.171875 L 1.734375 -0.171875 C 1.566406 -0.171875 1.414062 -0.132812 1.28125 -0.0625 C 1.15625 0.0078125 1.050781 0.125 0.96875 0.28125 C 0.894531 0.445312 0.859375 0.660156 0.859375 0.921875 C 0.859375 1.273438 0.953125 1.535156 1.140625 1.703125 C 1.335938 1.878906 1.601562 1.96875 1.9375 1.96875 Z M 2.046875 -2.734375 C 2.296875 -2.734375 2.488281 -2.84375 2.625 -3.0625 C 2.769531 -3.28125 2.84375 -3.601562 2.84375 -4.03125 C 2.84375 -4.476562 2.769531 -4.8125 2.625 -5.03125 C 2.476562 -5.257812 2.28125 -5.375 2.03125 -5.375 C 1.78125 -5.375 1.582031 -5.253906 1.4375 -5.015625 C 1.300781 -4.773438 1.234375 -4.441406 1.234375 -4.015625 C 1.234375 -3.609375 1.300781 -3.289062 1.4375 -3.0625 C 1.570312 -2.84375 1.773438 -2.734375 2.046875 -2.734375 Z M 2.046875 -2.734375 "/></g></g></g><g fill="#2d6d5e" fill-opacity="1"><g transform="translate(12.506766, 140.434432)"><g><path d="M 2.171875 0.109375 C 1.609375 0.109375 1.179688 -0.144531 0.890625 -0.65625 C 0.609375 -1.175781 0.46875 -1.929688 0.46875 -2.921875 C 0.46875 -3.898438 0.613281 -4.648438 0.90625 -5.171875 C 1.195312 -5.703125 1.609375 -5.96875 2.140625 -5.96875 C 2.335938 -5.96875 2.519531 -5.929688 2.6875 -5.859375 C 2.851562 -5.785156 3 -5.679688 3.125 -5.546875 C 3.257812 -5.410156 3.375 -5.25 3.46875 -5.0625 L 3.515625 -5.0625 C 3.503906 -5.226562 3.492188 -5.375 3.484375 -5.5 C 3.484375 -5.632812 3.484375 -5.757812 3.484375 -5.875 L 3.484375 -8.3125 L 4.296875 -8.3125 L 4.296875 0 L 3.640625 0 L 3.53125 -0.796875 L 3.484375 -0.796875 C 3.378906 -0.609375 3.265625 -0.445312 3.140625 -0.3125 C 3.015625 -0.175781 2.875 -0.0703125 2.71875 0 C 2.5625 0.0703125 2.378906 0.109375 2.171875 0.109375 Z M 2.359375 -0.59375 C 2.722656 -0.59375 3 -0.765625 3.1875 -1.109375 C 3.382812 -1.453125 3.484375 -1.960938 3.484375 -2.640625 L 3.484375 -3.046875 C 3.484375 -3.785156 3.390625 -4.332031 3.203125 -4.6875 C 3.023438 -5.050781 2.738281 -5.234375 2.34375 -5.234375 C 1.988281 -5.234375 1.722656 -5.035156 1.546875 -4.640625 C 1.378906 -4.242188 1.296875 -3.671875 1.296875 -2.921875 C 1.296875 -2.148438 1.378906 -1.566406 1.546875 -1.171875 C 1.722656 -0.785156 1.992188 -0.59375 2.359375 -0.59375 Z M 2.359375 -0.59375 "/></g></g></g><g fill="#2d6d5e" fill-opacity="1"><g transform="translate(19.045479, 140.434432)"><g><path d="M 4.21875 -5.859375 L 4.21875 0 L 3.5625 0 L 3.46875 -0.828125 L 3.40625 -0.828125 C 3.332031 -0.640625 3.226562 -0.472656 3.09375 -0.328125 C 2.96875 -0.191406 2.820312 -0.0820312 2.65625 0 C 2.5 0.0703125 2.316406 0.109375 2.109375 0.109375 C 1.773438 0.109375 1.503906 0.0234375 1.296875 -0.140625 C 1.085938 -0.316406 0.929688 -0.5625 0.828125 -0.875 C 0.734375 -1.195312 0.6875 -1.578125 0.6875 -2.015625 L 0.6875 -5.859375 L 1.515625 -5.859375 L 1.515625 -2.171875 C 1.515625 -1.640625 1.578125 -1.25 1.703125 -1 C 1.828125 -0.75 2.015625 -0.625 2.265625 -0.625 C 2.535156 -0.625 2.753906 -0.695312 2.921875 -0.84375 C 3.085938 -1 3.207031 -1.234375 3.28125 -1.546875 C 3.351562 -1.859375 3.390625 -2.25 3.390625 -2.71875 L 3.390625 -5.859375 Z M 4.21875 -5.859375 "/></g></g></g><g fill="#2d6d5e" fill-opacity="1"><g transform="translate(25.509398, 140.434432)"><g><path d="M 2.671875 -5.96875 C 2.753906 -5.96875 2.835938 -5.957031 2.921875 -5.9375 C 3.003906 -5.925781 3.085938 -5.910156 3.171875 -5.890625 L 3.046875 -5.046875 C 2.984375 -5.066406 2.914062 -5.082031 2.84375 -5.09375 C 2.769531 -5.101562 2.691406 -5.109375 2.609375 -5.109375 C 2.453125 -5.109375 2.304688 -5.054688 2.171875 -4.953125 C 2.035156 -4.847656 1.921875 -4.703125 1.828125 -4.515625 C 1.734375 -4.328125 1.660156 -4.109375 1.609375 -3.859375 C 1.554688 -3.609375 1.53125 -3.34375 1.53125 -3.0625 L 1.53125 0 L 0.71875 0 L 0.71875 -5.859375 L 1.359375 -5.859375 L 1.46875 -4.828125 L 1.515625 -4.828125 C 1.597656 -5.046875 1.691406 -5.238281 1.796875 -5.40625 C 1.910156 -5.582031 2.039062 -5.71875 2.1875 -5.8125 C 2.332031 -5.914062 2.492188 -5.96875 2.671875 -5.96875 Z M 2.671875 -5.96875 "/></g></g></g><g fill="#2d6d5e" fill-opacity="1"><g transform="translate(30.322506, 140.434432)"><g><path d="M 1.546875 -5.859375 L 1.546875 0 L 0.71875 0 L 0.71875 -5.859375 Z M 1.140625 -8.0625 C 1.316406 -8.0625 1.441406 -8.007812 1.515625 -7.90625 C 1.585938 -7.800781 1.625 -7.648438 1.625 -7.453125 C 1.625 -7.273438 1.582031 -7.128906 1.5 -7.015625 C 1.425781 -6.910156 1.304688 -6.859375 1.140625 -6.859375 C 0.992188 -6.859375 0.875 -6.910156 0.78125 -7.015625 C 0.695312 -7.128906 0.65625 -7.273438 0.65625 -7.453125 C 0.65625 -7.648438 0.695312 -7.800781 0.78125 -7.90625 C 0.863281 -8.007812 0.984375 -8.0625 1.140625 -8.0625 Z M 1.140625 -8.0625 "/></g></g></g><g fill="#2d6d5e" fill-opacity="1"><g transform="translate(34.120552, 140.434432)"><g><path d="M 2.828125 -5.96875 C 3.285156 -5.96875 3.632812 -5.804688 3.875 -5.484375 C 4.113281 -5.160156 4.234375 -4.664062 4.234375 -4 L 4.234375 0 L 3.40625 0 L 3.40625 -3.828125 C 3.40625 -4.304688 3.34375 -4.660156 3.21875 -4.890625 C 3.101562 -5.128906 2.914062 -5.25 2.65625 -5.25 C 2.269531 -5.25 1.984375 -5.078125 1.796875 -4.734375 C 1.617188 -4.390625 1.53125 -3.84375 1.53125 -3.09375 L 1.53125 0 L 0.71875 0 L 0.71875 -5.859375 L 1.375 -5.859375 L 1.46875 -5.015625 L 1.515625 -5.015625 C 1.597656 -5.210938 1.703125 -5.378906 1.828125 -5.515625 C 1.960938 -5.660156 2.113281 -5.769531 2.28125 -5.84375 C 2.445312 -5.925781 2.628906 -5.96875 2.828125 -5.96875 Z M 2.828125 -5.96875 "/></g></g></g><g fill="#2d6d5e" fill-opacity="1"><g transform="translate(40.584471, 140.434432)"><g><path d="M 1.875 2.625 C 1.3125 2.625 0.867188 2.476562 0.546875 2.1875 C 0.234375 1.90625 0.078125 1.507812 0.078125 1 C 0.078125 0.601562 0.171875 0.273438 0.359375 0.015625 C 0.554688 -0.242188 0.804688 -0.414062 1.109375 -0.5 C 0.953125 -0.570312 0.828125 -0.675781 0.734375 -0.8125 C 0.640625 -0.957031 0.59375 -1.128906 0.59375 -1.328125 C 0.59375 -1.523438 0.640625 -1.703125 0.734375 -1.859375 C 0.828125 -2.023438 0.960938 -2.1875 1.140625 -2.34375 C 0.910156 -2.476562 0.726562 -2.691406 0.59375 -2.984375 C 0.46875 -3.285156 0.40625 -3.628906 0.40625 -4.015625 C 0.40625 -4.421875 0.46875 -4.765625 0.59375 -5.046875 C 0.726562 -5.335938 0.914062 -5.5625 1.15625 -5.71875 C 1.40625 -5.882812 1.703125 -5.96875 2.046875 -5.96875 C 2.148438 -5.96875 2.242188 -5.960938 2.328125 -5.953125 C 2.410156 -5.941406 2.484375 -5.925781 2.546875 -5.90625 C 2.609375 -5.894531 2.664062 -5.875 2.71875 -5.84375 L 4.171875 -5.84375 L 4.171875 -5.3125 L 3.375 -5.21875 C 3.476562 -5.0625 3.550781 -4.878906 3.59375 -4.671875 C 3.644531 -4.472656 3.671875 -4.265625 3.671875 -4.046875 C 3.671875 -3.453125 3.523438 -2.984375 3.234375 -2.640625 C 2.953125 -2.296875 2.550781 -2.125 2.03125 -2.125 C 1.875 -2.125 1.75 -2.140625 1.65625 -2.171875 C 1.550781 -2.078125 1.460938 -1.972656 1.390625 -1.859375 C 1.316406 -1.742188 1.28125 -1.601562 1.28125 -1.4375 C 1.28125 -1.332031 1.304688 -1.238281 1.359375 -1.15625 C 1.410156 -1.082031 1.476562 -1.023438 1.5625 -0.984375 C 1.65625 -0.941406 1.769531 -0.921875 1.90625 -0.921875 L 2.75 -0.921875 C 3.1875 -0.921875 3.523438 -0.796875 3.765625 -0.546875 C 4.003906 -0.296875 4.125 0.0859375 4.125 0.609375 C 4.125 1.242188 3.929688 1.738281 3.546875 2.09375 C 3.160156 2.445312 2.601562 2.625 1.875 2.625 Z M 1.9375 1.96875 C 2.25 1.96875 2.507812 1.921875 2.71875 1.828125 C 2.925781 1.734375 3.082031 1.585938 3.1875 1.390625 C 3.289062 1.203125 3.34375 0.96875 3.34375 0.6875 C 3.34375 0.457031 3.304688 0.28125 3.234375 0.15625 C 3.160156 0.03125 3.054688 -0.0507812 2.921875 -0.09375 C 2.785156 -0.144531 2.625 -0.171875 2.4375 -0.171875 L 1.734375 -0.171875 C 1.566406 -0.171875 1.414062 -0.132812 1.28125 -0.0625 C 1.15625 0.0078125 1.050781 0.125 0.96875 0.28125 C 0.894531 0.445312 0.859375 0.660156 0.859375 0.921875 C 0.859375 1.273438 0.953125 1.535156 1.140625 1.703125 C 1.335938 1.878906 1.601562 1.96875 1.9375 1.96875 Z M 2.046875 -2.734375 C 2.296875 -2.734375 2.488281 -2.84375 2.625 -3.0625 C 2.769531 -3.28125 2.84375 -3.601562 2.84375 -4.03125 C 2.84375 -4.476562 2.769531 -4.8125 2.625 -5.03125 C 2.476562 -5.257812 2.28125 -5.375 2.03125 -5.375 C 1.78125 -5.375 1.582031 -5.253906 1.4375 -5.015625 C 1.300781 -4.773438 1.234375 -4.441406 1.234375 -4.015625 C 1.234375 -3.609375 1.300781 -3.289062 1.4375 -3.0625 C 1.570312 -2.84375 1.773438 -2.734375 2.046875 -2.734375 Z M 2.046875 -2.734375 "/></g></g></g><g fill="#2d6d5e" fill-opacity="1"><g transform="translate(46.337847, 140.434432)"><g/></g></g><g fill="#2d6d5e" fill-opacity="1"><g transform="translate(49.900826, 140.434432)"><g><path d="M 1.546875 -5.859375 L 1.546875 0 L 0.71875 0 L 0.71875 -5.859375 Z M 1.140625 -8.0625 C 1.316406 -8.0625 1.441406 -8.007812 1.515625 -7.90625 C 1.585938 -7.800781 1.625 -7.648438 1.625 -7.453125 C 1.625 -7.273438 1.582031 -7.128906 1.5 -7.015625 C 1.425781 -6.910156 1.304688 -6.859375 1.140625 -6.859375 C 0.992188 -6.859375 0.875 -6.910156 0.78125 -7.015625 C 0.695312 -7.128906 0.65625 -7.273438 0.65625 -7.453125 C 0.65625 -7.648438 0.695312 -7.800781 0.78125 -7.90625 C 0.863281 -8.007812 0.984375 -8.0625 1.140625 -8.0625 Z M 1.140625 -8.0625 "/></g></g></g><g fill="#2d6d5e" fill-opacity="1"><g transform="translate(53.698873, 140.434432)"><g><path d="M 2.828125 -5.96875 C 3.285156 -5.96875 3.632812 -5.804688 3.875 -5.484375 C 4.113281 -5.160156 4.234375 -4.664062 4.234375 -4 L 4.234375 0 L 3.40625 0 L 3.40625 -3.828125 C 3.40625 -4.304688 3.34375 -4.660156 3.21875 -4.890625 C 3.101562 -5.128906 2.914062 -5.25 2.65625 -5.25 C 2.269531 -5.25 1.984375 -5.078125 1.796875 -4.734375 C 1.617188 -4.390625 1.53125 -3.84375 1.53125 -3.09375 L 1.53125 0 L 0.71875 0 L 0.71875 -5.859375 L 1.375 -5.859375 L 1.46875 -5.015625 L 1.515625 -5.015625 C 1.597656 -5.210938 1.703125 -5.378906 1.828125 -5.515625 C 1.960938 -5.660156 2.113281 -5.769531 2.28125 -5.84375 C 2.445312 -5.925781 2.628906 -5.96875 2.828125 -5.96875 Z M 2.828125 -5.96875 "/></g></g></g><g fill="#2d6d5e" fill-opacity="1"><g transform="translate(60.162792, 140.434432)"><g><path d="M 2.09375 -0.625 C 2.1875 -0.625 2.273438 -0.628906 2.359375 -0.640625 C 2.453125 -0.660156 2.535156 -0.691406 2.609375 -0.734375 L 2.609375 -0.0625 C 2.503906 -0.0078125 2.382812 0.03125 2.25 0.0625 C 2.125 0.09375 1.984375 0.109375 1.828125 0.109375 C 1.578125 0.109375 1.367188 0.0507812 1.203125 -0.0625 C 1.046875 -0.175781 0.925781 -0.34375 0.84375 -0.5625 C 0.769531 -0.789062 0.734375 -1.078125 0.734375 -1.421875 L 0.734375 -5.171875 L 0.1875 -5.171875 L 0.1875 -5.625 L 0.78125 -5.84375 L 1 -7.1875 L 1.5625 -7.1875 L 1.5625 -5.859375 L 2.546875 -5.859375 L 2.546875 -5.171875 L 1.5625 -5.171875 L 1.5625 -1.515625 C 1.5625 -1.210938 1.597656 -0.988281 1.671875 -0.84375 C 1.742188 -0.695312 1.882812 -0.625 2.09375 -0.625 Z M 2.09375 -0.625 "/></g></g></g><g fill="#2d6d5e" fill-opacity="1"><g transform="translate(64.468369, 140.434432)"><g><path d="M 2.328125 -5.953125 C 2.722656 -5.953125 3.050781 -5.835938 3.3125 -5.609375 C 3.570312 -5.378906 3.765625 -5.066406 3.890625 -4.671875 C 4.015625 -4.285156 4.078125 -3.851562 4.078125 -3.375 L 4.078125 -2.78125 L 1.28125 -2.78125 C 1.289062 -2.050781 1.40625 -1.503906 1.625 -1.140625 C 1.84375 -0.773438 2.171875 -0.59375 2.609375 -0.59375 C 2.828125 -0.59375 3.035156 -0.625 3.234375 -0.6875 C 3.441406 -0.75 3.648438 -0.851562 3.859375 -1 L 3.859375 -0.265625 C 3.660156 -0.140625 3.453125 -0.046875 3.234375 0.015625 C 3.015625 0.078125 2.78125 0.109375 2.53125 0.109375 C 2.039062 0.109375 1.644531 -0.0195312 1.34375 -0.28125 C 1.039062 -0.539062 0.816406 -0.898438 0.671875 -1.359375 C 0.535156 -1.816406 0.46875 -2.332031 0.46875 -2.90625 C 0.46875 -3.550781 0.535156 -4.101562 0.671875 -4.5625 C 0.816406 -5.019531 1.023438 -5.363281 1.296875 -5.59375 C 1.578125 -5.832031 1.921875 -5.953125 2.328125 -5.953125 Z M 2.328125 -5.28125 C 2.015625 -5.28125 1.769531 -5.128906 1.59375 -4.828125 C 1.425781 -4.535156 1.328125 -4.070312 1.296875 -3.4375 L 3.3125 -3.4375 C 3.3125 -3.769531 3.273438 -4.078125 3.203125 -4.359375 C 3.140625 -4.640625 3.035156 -4.863281 2.890625 -5.03125 C 2.742188 -5.195312 2.554688 -5.28125 2.328125 -5.28125 Z M 2.328125 -5.28125 "/></g></g></g><g fill="#2d6d5e" fill-opacity="1"><g transform="translate(70.526263, 140.434432)"><g><path d="M 2.828125 -5.96875 C 3.285156 -5.96875 3.632812 -5.804688 3.875 -5.484375 C 4.113281 -5.160156 4.234375 -4.664062 4.234375 -4 L 4.234375 0 L 3.40625 0 L 3.40625 -3.828125 C 3.40625 -4.304688 3.34375 -4.660156 3.21875 -4.890625 C 3.101562 -5.128906 2.914062 -5.25 2.65625 -5.25 C 2.269531 -5.25 1.984375 -5.078125 1.796875 -4.734375 C 1.617188 -4.390625 1.53125 -3.84375 1.53125 -3.09375 L 1.53125 0 L 0.71875 0 L 0.71875 -5.859375 L 1.375 -5.859375 L 1.46875 -5.015625 L 1.515625 -5.015625 C 1.597656 -5.210938 1.703125 -5.378906 1.828125 -5.515625 C 1.960938 -5.660156 2.113281 -5.769531 2.28125 -5.84375 C 2.445312 -5.925781 2.628906 -5.96875 2.828125 -5.96875 Z M 2.828125 -5.96875 "/></g></g></g><g fill="#2d6d5e" fill-opacity="1"><g transform="translate(76.990182, 140.434432)"><g><path d="M 3.328125 -1.546875 C 3.328125 -1.191406 3.257812 -0.890625 3.125 -0.640625 C 3 -0.398438 2.8125 -0.210938 2.5625 -0.078125 C 2.320312 0.046875 2.03125 0.109375 1.6875 0.109375 C 1.414062 0.109375 1.164062 0.078125 0.9375 0.015625 C 0.71875 -0.046875 0.53125 -0.125 0.375 -0.21875 L 0.375 -1.078125 C 0.53125 -0.941406 0.722656 -0.832031 0.953125 -0.75 C 1.179688 -0.664062 1.414062 -0.625 1.65625 -0.625 C 1.925781 -0.625 2.132812 -0.703125 2.28125 -0.859375 C 2.4375 -1.015625 2.515625 -1.234375 2.515625 -1.515625 C 2.515625 -1.679688 2.484375 -1.828125 2.421875 -1.953125 C 2.359375 -2.078125 2.257812 -2.195312 2.125 -2.3125 C 1.988281 -2.425781 1.816406 -2.546875 1.609375 -2.671875 C 1.359375 -2.816406 1.140625 -2.96875 0.953125 -3.125 C 0.765625 -3.289062 0.617188 -3.476562 0.515625 -3.6875 C 0.421875 -3.894531 0.375 -4.144531 0.375 -4.4375 C 0.375 -4.894531 0.519531 -5.265625 0.8125 -5.546875 C 1.113281 -5.828125 1.503906 -5.96875 1.984375 -5.96875 C 2.234375 -5.96875 2.46875 -5.9375 2.6875 -5.875 C 2.90625 -5.8125 3.113281 -5.71875 3.3125 -5.59375 L 3 -4.9375 C 2.851562 -5.039062 2.691406 -5.117188 2.515625 -5.171875 C 2.347656 -5.234375 2.175781 -5.265625 2 -5.265625 C 1.738281 -5.265625 1.53125 -5.191406 1.375 -5.046875 C 1.226562 -4.898438 1.15625 -4.707031 1.15625 -4.46875 C 1.15625 -4.300781 1.1875 -4.15625 1.25 -4.03125 C 1.3125 -3.914062 1.410156 -3.800781 1.546875 -3.6875 C 1.679688 -3.582031 1.863281 -3.460938 2.09375 -3.328125 C 2.34375 -3.171875 2.554688 -3.015625 2.734375 -2.859375 C 2.921875 -2.703125 3.066406 -2.519531 3.171875 -2.3125 C 3.273438 -2.101562 3.328125 -1.847656 3.328125 -1.546875 Z M 3.328125 -1.546875 "/></g></g></g><g fill="#2d6d5e" fill-opacity="1"><g transform="translate(82.19863, 140.434432)"><g><path d="M 2.328125 -5.953125 C 2.722656 -5.953125 3.050781 -5.835938 3.3125 -5.609375 C 3.570312 -5.378906 3.765625 -5.066406 3.890625 -4.671875 C 4.015625 -4.285156 4.078125 -3.851562 4.078125 -3.375 L 4.078125 -2.78125 L 1.28125 -2.78125 C 1.289062 -2.050781 1.40625 -1.503906 1.625 -1.140625 C 1.84375 -0.773438 2.171875 -0.59375 2.609375 -0.59375 C 2.828125 -0.59375 3.035156 -0.625 3.234375 -0.6875 C 3.441406 -0.75 3.648438 -0.851562 3.859375 -1 L 3.859375 -0.265625 C 3.660156 -0.140625 3.453125 -0.046875 3.234375 0.015625 C 3.015625 0.078125 2.78125 0.109375 2.53125 0.109375 C 2.039062 0.109375 1.644531 -0.0195312 1.34375 -0.28125 C 1.039062 -0.539062 0.816406 -0.898438 0.671875 -1.359375 C 0.535156 -1.816406 0.46875 -2.332031 0.46875 -2.90625 C 0.46875 -3.550781 0.535156 -4.101562 0.671875 -4.5625 C 0.816406 -5.019531 1.023438 -5.363281 1.296875 -5.59375 C 1.578125 -5.832031 1.921875 -5.953125 2.328125 -5.953125 Z M 2.328125 -5.28125 C 2.015625 -5.28125 1.769531 -5.128906 1.59375 -4.828125 C 1.425781 -4.535156 1.328125 -4.070312 1.296875 -3.4375 L 3.3125 -3.4375 C 3.3125 -3.769531 3.273438 -4.078125 3.203125 -4.359375 C 3.140625 -4.640625 3.035156 -4.863281 2.890625 -5.03125 C 2.742188 -5.195312 2.554688 -5.28125 2.328125 -5.28125 Z M 2.328125 -5.28125 "/></g></g></g><g fill="#2d6d5e" fill-opacity="1"><g transform="translate(88.256524, 140.434432)"><g/></g></g><g fill="#2d6d5e" fill-opacity="1"><g transform="translate(91.819504, 140.434432)"><g><path d="M 2.328125 -5.953125 C 2.722656 -5.953125 3.050781 -5.835938 3.3125 -5.609375 C 3.570312 -5.378906 3.765625 -5.066406 3.890625 -4.671875 C 4.015625 -4.285156 4.078125 -3.851562 4.078125 -3.375 L 4.078125 -2.78125 L 1.28125 -2.78125 C 1.289062 -2.050781 1.40625 -1.503906 1.625 -1.140625 C 1.84375 -0.773438 2.171875 -0.59375 2.609375 -0.59375 C 2.828125 -0.59375 3.035156 -0.625 3.234375 -0.6875 C 3.441406 -0.75 3.648438 -0.851562 3.859375 -1 L 3.859375 -0.265625 C 3.660156 -0.140625 3.453125 -0.046875 3.234375 0.015625 C 3.015625 0.078125 2.78125 0.109375 2.53125 0.109375 C 2.039062 0.109375 1.644531 -0.0195312 1.34375 -0.28125 C 1.039062 -0.539062 0.816406 -0.898438 0.671875 -1.359375 C 0.535156 -1.816406 0.46875 -2.332031 0.46875 -2.90625 C 0.46875 -3.550781 0.535156 -4.101562 0.671875 -4.5625 C 0.816406 -5.019531 1.023438 -5.363281 1.296875 -5.59375 C 1.578125 -5.832031 1.921875 -5.953125 2.328125 -5.953125 Z M 2.328125 -5.28125 C 2.015625 -5.28125 1.769531 -5.128906 1.59375 -4.828125 C 1.425781 -4.535156 1.328125 -4.070312 1.296875 -3.4375 L 3.3125 -3.4375 C 3.3125 -3.769531 3.273438 -4.078125 3.203125 -4.359375 C 3.140625 -4.640625 3.035156 -4.863281 2.890625 -5.03125 C 2.742188 -5.195312 2.554688 -5.28125 2.328125 -5.28125 Z M 2.328125 -5.28125 "/></g></g></g><g fill="#2d6d5e" fill-opacity="1"><g transform="translate(97.877398, 140.434432)"><g><path d="M 2.5625 -5.171875 L 1.640625 -5.171875 L 1.640625 0 L 0.8125 0 L 0.8125 -5.171875 L 0.09375 -5.171875 L 0.09375 -5.609375 L 0.8125 -5.890625 L 0.8125 -6.28125 C 0.8125 -6.726562 0.847656 -7.101562 0.921875 -7.40625 C 1.003906 -7.71875 1.140625 -7.957031 1.328125 -8.125 C 1.523438 -8.289062 1.789062 -8.375 2.125 -8.375 C 2.28125 -8.375 2.421875 -8.359375 2.546875 -8.328125 C 2.679688 -8.296875 2.820312 -8.253906 2.96875 -8.203125 L 2.75 -7.53125 C 2.65625 -7.570312 2.5625 -7.597656 2.46875 -7.609375 C 2.382812 -7.628906 2.300781 -7.640625 2.21875 -7.640625 C 2 -7.640625 1.847656 -7.539062 1.765625 -7.34375 C 1.679688 -7.15625 1.640625 -6.8125 1.640625 -6.3125 L 1.640625 -5.859375 L 2.5625 -5.859375 Z M 2.5625 -5.171875 "/></g></g></g><g fill="#2d6d5e" fill-opacity="1"><g transform="translate(102.129551, 140.434432)"><g><path d="M 2.5625 -5.171875 L 1.640625 -5.171875 L 1.640625 0 L 0.8125 0 L 0.8125 -5.171875 L 0.09375 -5.171875 L 0.09375 -5.609375 L 0.8125 -5.890625 L 0.8125 -6.28125 C 0.8125 -6.726562 0.847656 -7.101562 0.921875 -7.40625 C 1.003906 -7.71875 1.140625 -7.957031 1.328125 -8.125 C 1.523438 -8.289062 1.789062 -8.375 2.125 -8.375 C 2.28125 -8.375 2.421875 -8.359375 2.546875 -8.328125 C 2.679688 -8.296875 2.820312 -8.253906 2.96875 -8.203125 L 2.75 -7.53125 C 2.65625 -7.570312 2.5625 -7.597656 2.46875 -7.609375 C 2.382812 -7.628906 2.300781 -7.640625 2.21875 -7.640625 C 2 -7.640625 1.847656 -7.539062 1.765625 -7.34375 C 1.679688 -7.15625 1.640625 -6.8125 1.640625 -6.3125 L 1.640625 -5.859375 L 2.5625 -5.859375 Z M 2.5625 -5.171875 "/></g></g></g><g fill="#2d6d5e" fill-opacity="1"><g transform="translate(106.381704, 140.434432)"><g><path d="M 4.359375 -2.9375 C 4.359375 -2.476562 4.316406 -2.0625 4.234375 -1.6875 C 4.160156 -1.3125 4.039062 -0.988281 3.875 -0.71875 C 3.71875 -0.457031 3.515625 -0.253906 3.265625 -0.109375 C 3.023438 0.0351562 2.734375 0.109375 2.390625 0.109375 C 2.078125 0.109375 1.796875 0.0351562 1.546875 -0.109375 C 1.304688 -0.253906 1.101562 -0.457031 0.9375 -0.71875 C 0.78125 -0.976562 0.660156 -1.296875 0.578125 -1.671875 C 0.503906 -2.054688 0.46875 -2.476562 0.46875 -2.9375 C 0.46875 -3.582031 0.535156 -4.128906 0.671875 -4.578125 C 0.804688 -5.035156 1.019531 -5.378906 1.3125 -5.609375 C 1.601562 -5.847656 1.96875 -5.96875 2.40625 -5.96875 C 2.820312 -5.96875 3.175781 -5.851562 3.46875 -5.625 C 3.757812 -5.394531 3.976562 -5.054688 4.125 -4.609375 C 4.28125 -4.160156 4.359375 -3.601562 4.359375 -2.9375 Z M 1.296875 -2.9375 C 1.296875 -2.425781 1.332031 -2 1.40625 -1.65625 C 1.488281 -1.3125 1.613281 -1.050781 1.78125 -0.875 C 1.945312 -0.695312 2.160156 -0.609375 2.421875 -0.609375 C 2.671875 -0.609375 2.875 -0.691406 3.03125 -0.859375 C 3.195312 -1.035156 3.316406 -1.296875 3.390625 -1.640625 C 3.472656 -1.984375 3.515625 -2.414062 3.515625 -2.9375 C 3.515625 -3.445312 3.472656 -3.875 3.390625 -4.21875 C 3.316406 -4.5625 3.195312 -4.816406 3.03125 -4.984375 C 2.875 -5.160156 2.664062 -5.25 2.40625 -5.25 C 2.019531 -5.25 1.738281 -5.054688 1.5625 -4.671875 C 1.382812 -4.285156 1.296875 -3.707031 1.296875 -2.9375 Z M 1.296875 -2.9375 "/></g></g></g><g fill="#2d6d5e" fill-opacity="1"><g transform="translate(112.733432, 140.434432)"><g><path d="M 2.671875 -5.96875 C 2.753906 -5.96875 2.835938 -5.957031 2.921875 -5.9375 C 3.003906 -5.925781 3.085938 -5.910156 3.171875 -5.890625 L 3.046875 -5.046875 C 2.984375 -5.066406 2.914062 -5.082031 2.84375 -5.09375 C 2.769531 -5.101562 2.691406 -5.109375 2.609375 -5.109375 C 2.453125 -5.109375 2.304688 -5.054688 2.171875 -4.953125 C 2.035156 -4.847656 1.921875 -4.703125 1.828125 -4.515625 C 1.734375 -4.328125 1.660156 -4.109375 1.609375 -3.859375 C 1.554688 -3.609375 1.53125 -3.34375 1.53125 -3.0625 L 1.53125 0 L 0.71875 0 L 0.71875 -5.859375 L 1.359375 -5.859375 L 1.46875 -4.828125 L 1.515625 -4.828125 C 1.597656 -5.046875 1.691406 -5.238281 1.796875 -5.40625 C 1.910156 -5.582031 2.039062 -5.71875 2.1875 -5.8125 C 2.332031 -5.914062 2.492188 -5.96875 2.671875 -5.96875 Z M 2.671875 -5.96875 "/></g></g></g><g fill="#2d6d5e" fill-opacity="1"><g transform="translate(117.54654, 140.434432)"><g><path d="M 2.09375 -0.625 C 2.1875 -0.625 2.273438 -0.628906 2.359375 -0.640625 C 2.453125 -0.660156 2.535156 -0.691406 2.609375 -0.734375 L 2.609375 -0.0625 C 2.503906 -0.0078125 2.382812 0.03125 2.25 0.0625 C 2.125 0.09375 1.984375 0.109375 1.828125 0.109375 C 1.578125 0.109375 1.367188 0.0507812 1.203125 -0.0625 C 1.046875 -0.175781 0.925781 -0.34375 0.84375 -0.5625 C 0.769531 -0.789062 0.734375 -1.078125 0.734375 -1.421875 L 0.734375 -5.171875 L 0.1875 -5.171875 L 0.1875 -5.625 L 0.78125 -5.84375 L 1 -7.1875 L 1.5625 -7.1875 L 1.5625 -5.859375 L 2.546875 -5.859375 L 2.546875 -5.171875 L 1.5625 -5.171875 L 1.5625 -1.515625 C 1.5625 -1.210938 1.597656 -0.988281 1.671875 -0.84375 C 1.742188 -0.695312 1.882812 -0.625 2.09375 -0.625 Z M 2.09375 -0.625 "/></g></g></g><g fill="#0661aa" fill-opacity="1"><g transform="translate(48.450105, 109.553585)"><g><path d="M 2.484375 -5.203125 C 2.878906 -5.203125 3.195312 -5.0625 3.4375 -4.78125 C 3.675781 -4.507812 3.804688 -4.117188 3.828125 -3.609375 L 3.171875 -3.390625 C 3.148438 -3.753906 3.066406 -4.03125 2.921875 -4.21875 C 2.773438 -4.414062 2.582031 -4.515625 2.34375 -4.515625 C 2.007812 -4.515625 1.742188 -4.347656 1.546875 -4.015625 C 1.347656 -3.691406 1.25 -3.242188 1.25 -2.671875 L 1.25 0 L 0.5 0 L 0.5 -5.03125 L 1.125 -5.03125 L 1.203125 -4.234375 L 1.21875 -4.234375 C 1.332031 -4.535156 1.5 -4.769531 1.71875 -4.9375 C 1.945312 -5.113281 2.203125 -5.203125 2.484375 -5.203125 Z M 2.484375 -5.203125 "/></g></g></g><g fill="#0661aa" fill-opacity="1"><g transform="translate(53.654327, 109.553585)"><g><path d="M 2.015625 0.15625 C 1.535156 0.15625 1.15625 0.0078125 0.875 -0.28125 C 0.59375 -0.582031 0.453125 -1.003906 0.453125 -1.546875 L 0.453125 -5.03125 L 1.21875 -5.03125 L 1.21875 -1.609375 C 1.21875 -1.253906 1.304688 -0.976562 1.484375 -0.78125 C 1.671875 -0.59375 1.925781 -0.5 2.25 -0.5 C 2.675781 -0.5 3.015625 -0.628906 3.265625 -0.890625 C 3.523438 -1.160156 3.65625 -1.523438 3.65625 -1.984375 L 3.65625 -5.03125 L 4.421875 -5.03125 L 4.421875 0 L 3.734375 0 L 3.65625 -0.703125 C 3.488281 -0.421875 3.265625 -0.207031 2.984375 -0.0625 C 2.710938 0.0820312 2.390625 0.15625 2.015625 0.15625 Z M 2.015625 0.15625 "/></g></g></g><g fill="#0661aa" fill-opacity="1"><g transform="translate(59.744082, 109.553585)"><g><path d="M 2.890625 -5.1875 C 3.390625 -5.1875 3.773438 -5.035156 4.046875 -4.734375 C 4.328125 -4.441406 4.46875 -4.023438 4.46875 -3.484375 L 4.46875 0 L 3.71875 0 L 3.71875 -3.421875 C 3.71875 -3.765625 3.625 -4.035156 3.4375 -4.234375 C 3.25 -4.429688 2.992188 -4.53125 2.671875 -4.53125 C 2.253906 -4.53125 1.910156 -4.394531 1.640625 -4.125 C 1.378906 -3.863281 1.25 -3.507812 1.25 -3.0625 L 1.25 0 L 0.5 0 L 0.5 -5.03125 L 1.1875 -5.03125 L 1.25 -4.34375 L 1.265625 -4.34375 C 1.617188 -4.90625 2.160156 -5.1875 2.890625 -5.1875 Z M 2.890625 -5.1875 "/></g></g></g><g fill="#0661aa" fill-opacity="1"><g transform="translate(65.833838, 109.553585)"><g><path d="M 2.890625 -5.1875 C 3.390625 -5.1875 3.773438 -5.035156 4.046875 -4.734375 C 4.328125 -4.441406 4.46875 -4.023438 4.46875 -3.484375 L 4.46875 0 L 3.71875 0 L 3.71875 -3.421875 C 3.71875 -3.765625 3.625 -4.035156 3.4375 -4.234375 C 3.25 -4.429688 2.992188 -4.53125 2.671875 -4.53125 C 2.253906 -4.53125 1.910156 -4.394531 1.640625 -4.125 C 1.378906 -3.863281 1.25 -3.507812 1.25 -3.0625 L 1.25 0 L 0.5 0 L 0.5 -5.03125 L 1.1875 -5.03125 L 1.25 -4.34375 L 1.265625 -4.34375 C 1.617188 -4.90625 2.160156 -5.1875 2.890625 -5.1875 Z M 2.890625 -5.1875 "/></g></g></g><g fill="#0661aa" fill-opacity="1"><g transform="translate(71.923593, 109.553585)"><g><path d="M 0.953125 -6 C 0.785156 -6 0.648438 -6.050781 0.546875 -6.15625 C 0.441406 -6.257812 0.390625 -6.394531 0.390625 -6.5625 C 0.390625 -6.726562 0.441406 -6.859375 0.546875 -6.953125 C 0.648438 -7.054688 0.785156 -7.109375 0.953125 -7.109375 C 1.117188 -7.109375 1.253906 -7.054688 1.359375 -6.953125 C 1.460938 -6.859375 1.515625 -6.726562 1.515625 -6.5625 C 1.515625 -6.394531 1.460938 -6.257812 1.359375 -6.15625 C 1.253906 -6.050781 1.117188 -6 0.953125 -6 Z M 0.5625 0 L 0.5625 -5.03125 L 1.328125 -5.03125 L 1.328125 0 Z M 0.5625 0 "/></g></g></g><g fill="#0661aa" fill-opacity="1"><g transform="translate(75.00851, 109.553585)"><g><path d="M 2.890625 -5.1875 C 3.390625 -5.1875 3.773438 -5.035156 4.046875 -4.734375 C 4.328125 -4.441406 4.46875 -4.023438 4.46875 -3.484375 L 4.46875 0 L 3.71875 0 L 3.71875 -3.421875 C 3.71875 -3.765625 3.625 -4.035156 3.4375 -4.234375 C 3.25 -4.429688 2.992188 -4.53125 2.671875 -4.53125 C 2.253906 -4.53125 1.910156 -4.394531 1.640625 -4.125 C 1.378906 -3.863281 1.25 -3.507812 1.25 -3.0625 L 1.25 0 L 0.5 0 L 0.5 -5.03125 L 1.1875 -5.03125 L 1.25 -4.34375 L 1.265625 -4.34375 C 1.617188 -4.90625 2.160156 -5.1875 2.890625 -5.1875 Z M 2.890625 -5.1875 "/></g></g></g><g fill="#0661aa" fill-opacity="1"><g transform="translate(81.098265, 109.553585)"><g><path d="M 2.40625 2.265625 C 1.863281 2.265625 1.367188 2.144531 0.921875 1.90625 C 0.472656 1.664062 0.144531 1.351562 -0.0625 0.96875 L 0.53125 0.484375 C 0.707031 0.804688 0.960938 1.066406 1.296875 1.265625 C 1.628906 1.472656 1.988281 1.578125 2.375 1.578125 C 2.925781 1.578125 3.363281 1.410156 3.6875 1.078125 C 4.019531 0.742188 4.1875 0.289062 4.1875 -0.28125 L 4.1875 -0.921875 L 4.171875 -0.921875 C 4.003906 -0.617188 3.769531 -0.375 3.46875 -0.1875 C 3.164062 0 2.847656 0.09375 2.515625 0.09375 C 2.085938 0.09375 1.707031 -0.015625 1.375 -0.234375 C 1.039062 -0.453125 0.78125 -0.757812 0.59375 -1.15625 C 0.40625 -1.550781 0.3125 -2.007812 0.3125 -2.53125 C 0.3125 -3.0625 0.40625 -3.523438 0.59375 -3.921875 C 0.78125 -4.316406 1.039062 -4.625 1.375 -4.84375 C 1.707031 -5.070312 2.085938 -5.1875 2.515625 -5.1875 C 2.859375 -5.1875 3.179688 -5.097656 3.484375 -4.921875 C 3.785156 -4.753906 4.019531 -4.523438 4.1875 -4.234375 L 4.265625 -5.03125 L 4.9375 -5.03125 L 4.953125 -0.28125 C 4.953125 0.238281 4.847656 0.6875 4.640625 1.0625 C 4.429688 1.445312 4.132812 1.742188 3.75 1.953125 C 3.375 2.160156 2.925781 2.265625 2.40625 2.265625 Z M 2.640625 -0.59375 C 2.953125 -0.59375 3.222656 -0.675781 3.453125 -0.84375 C 3.691406 -1.007812 3.875 -1.238281 4 -1.53125 C 4.132812 -1.820312 4.203125 -2.15625 4.203125 -2.53125 C 4.203125 -2.914062 4.132812 -3.253906 4 -3.546875 C 3.875 -3.847656 3.691406 -4.082031 3.453125 -4.25 C 3.222656 -4.425781 2.953125 -4.515625 2.640625 -4.515625 C 2.335938 -4.515625 2.066406 -4.429688 1.828125 -4.265625 C 1.585938 -4.097656 1.398438 -3.863281 1.265625 -3.5625 C 1.140625 -3.269531 1.078125 -2.925781 1.078125 -2.53125 C 1.078125 -2.144531 1.140625 -1.804688 1.265625 -1.515625 C 1.398438 -1.222656 1.585938 -0.992188 1.828125 -0.828125 C 2.066406 -0.671875 2.335938 -0.59375 2.640625 -0.59375 Z M 2.640625 -0.59375 "/></g></g></g><g clip-path="url(#a63b22e406)"><path fill="#0661aa" d="M 81.921875 18.796875 C 82.824219 19.785156 82.542969 19.5625 83.128906 20.691406 C 84.351562 23.0625 85.535156 23.222656 86.726562 24.898438 C 87.402344 25.847656 87.578125 27.164062 88.335938 28.078125 C 89.292969 26.855469 89.292969 26.550781 90.851562 27.160156 C 93.347656 28.144531 93.660156 29.625 95.339844 31.183594 C 98.074219 33.726562 101.980469 35.800781 104.75 38.453125 C 105.058594 38.746094 106.121094 39.632812 105.464844 40.058594 C 104.675781 40.570312 104.363281 39.636719 103.953125 39.246094 C 101.042969 36.496094 97.320312 34.367188 94.453125 31.71875 C 93.277344 30.625 92.53125 29.097656 91.140625 28.285156 C 89.59375 27.382812 90.1875 27.960938 90.207031 28.863281 C 90.226562 29.769531 90.046875 30.390625 90.003906 31.179688 C 89.984375 31.5 90.175781 31.804688 90.175781 32.074219 C 90.171875 32.914062 88.84375 33.269531 88.515625 33.941406 C 88.425781 34.121094 88.539062 34.351562 88.488281 34.472656 C 88.144531 35.308594 85.992188 39.195312 85.28125 39.40625 C 84.886719 39.523438 84.332031 39.25 84.371094 38.839844 C 84.410156 38.429688 85.269531 37.773438 85.558594 37.359375 C 86.226562 36.398438 86.582031 35.257812 87.339844 34.347656 L 87.082031 33.753906 L 88.921875 31.859375 L 89.316406 28.964844 C 86.425781 29.410156 86.804688 26.871094 85.667969 25.253906 C 84.898438 24.15625 83.574219 23.519531 82.679688 22.207031 C 81.953125 21.140625 81.179688 18.066406 79.667969 18.363281 C 79.308594 18.433594 77.675781 20.621094 77.234375 21.054688 C 74.816406 23.433594 72.050781 25.503906 69.355469 27.542969 C 68.835938 27.933594 68.230469 28.785156 67.539062 28.933594 C 67.039062 29.042969 66.378906 28.65625 66.105469 28.816406 C 66.03125 28.863281 65.316406 29.976562 65.101562 30.207031 C 64.011719 31.371094 63.410156 32.195312 61.871094 30.9375 L 61.640625 30.992188 C 61.125 31.488281 60.648438 32.039062 60.25 32.628906 C 59.09375 34.351562 58.347656 36.808594 57.175781 38.425781 C 56.816406 38.917969 55.890625 39.101562 55.621094 38.703125 C 55.492188 38.515625 55.761719 38.027344 55.738281 37.761719 C 55.648438 36.796875 51.839844 34.683594 50.9375 34.074219 C 50.539062 33.804688 50.195312 33.257812 49.761719 33.113281 C 48.679688 32.753906 48.089844 34.554688 46.847656 34.453125 C 46.429688 34.417969 45.445312 33.964844 45.082031 33.71875 C 44.421875 33.28125 43.726562 31.890625 42.914062 32.5 C 42.210938 33.023438 43.464844 33.382812 43.554688 34.183594 C 43.71875 35.65625 43.292969 36.945312 43.015625 38.351562 C 43.757812 38.421875 44.464844 39.050781 45.136719 39.179688 C 45.886719 39.324219 46.492188 38.976562 47.316406 39.59375 C 48.507812 40.480469 47.339844 41.78125 48.332031 42.882812 C 48.621094 43.207031 49.339844 43.574219 49.75 43.773438 C 50.535156 44.148438 51.941406 44.226562 51.882812 45.277344 C 51.453125 45.296875 51.058594 45.304688 50.636719 45.191406 C 50.246094 45.089844 47.726562 43.828125 47.457031 43.582031 C 47.320312 43.457031 46.59375 42.15625 46.5625 41.984375 C 46.464844 41.386719 46.832031 40.769531 46.542969 40.152344 C 45.875 40.140625 42.425781 39.289062 42.125 38.984375 C 41.378906 38.234375 42.445312 35.851562 42.488281 34.730469 C 42.496094 34.53125 42.566406 33.5625 42.128906 33.925781 C 42.050781 33.988281 41.570312 35.335938 41.316406 35.6875 C 41.023438 36.097656 39.246094 38.070312 38.886719 38.226562 C 38.1875 38.527344 37.550781 38.292969 36.921875 37.972656 C 36.292969 37.652344 35.800781 36.765625 35.101562 37.285156 L 29.175781 46.269531 C 28.925781 46.464844 28.125 46.171875 27.933594 45.890625 C 27.828125 45.410156 29.300781 43.777344 29.601562 43.320312 C 30.835938 41.460938 32.289062 38.5 33.691406 36.945312 C 34.707031 35.820312 35.226562 35.832031 36.503906 36.621094 C 37.152344 37.019531 37.304688 37.792969 38.207031 37.203125 C 39.96875 36.050781 41.363281 33.105469 41.769531 31.097656 C 42.539062 31 43.402344 31.347656 44.078125 31.703125 C 44.757812 32.058594 45.980469 33.355469 46.300781 33.402344 C 47.410156 33.566406 47.75 31.433594 49.800781 32.195312 C 50.78125 32.5625 51.402344 33.417969 52.175781 33.902344 C 53.636719 34.816406 55.34375 35.300781 56.40625 36.765625 C 57.390625 35.539062 59.816406 29.726562 61.515625 29.722656 C 62.246094 29.722656 62.527344 30.28125 62.824219 30.363281 C 63.757812 30.621094 64.859375 27.601562 65.984375 27.617188 C 66.960938 27.628906 66.625 28.152344 67.832031 27.257812 C 70.875 25 74.667969 22.042969 77.164062 19.207031 C 77.441406 18.894531 78.425781 17.347656 78.527344 17.289062 C 78.824219 17.117188 80.191406 17.421875 80.570312 17.566406 C 81.351562 17.871094 81.453125 18.273438 81.921875 18.789062 Z M 81.921875 18.796875 " fill-opacity="1" fill-rule="nonzero"/></g><g clip-path="url(#f461dfb1d0)"><path fill="#0661aa" d="M 56.316406 48.832031 C 56.816406 49.179688 57.070312 47.257812 58.488281 47.632812 C 59.40625 47.875 61.539062 50.914062 62.339844 51.765625 C 63.851562 53.367188 65.660156 54.792969 67.316406 56.242188 C 68.078125 57.148438 67.335938 58.089844 66.695312 57.523438 C 65.679688 55.894531 63.875 54.839844 62.585938 53.5625 C 61.089844 52.082031 59.890625 50.28125 58.347656 48.835938 C 58.003906 48.753906 58.132812 48.933594 58.042969 49.058594 C 57.578125 49.699219 57.472656 50.679688 56.484375 50.355469 C 55.550781 50.042969 54.617188 47.617188 53.5625 47.0625 C 52.464844 48.648438 51.167969 51.117188 49.480469 48.480469 C 49.164062 48.808594 48.8125 49.109375 48.511719 49.457031 C 47.285156 50.871094 45.972656 53.597656 44.695312 54.6875 C 44.34375 54.984375 43.324219 55.300781 43.183594 54.765625 C 43.0625 54.296875 43.808594 53.859375 44.066406 53.523438 C 45 52.320312 47.898438 47.671875 49.03125 47.300781 C 50.300781 46.894531 50.65625 48.375 51.0625 48.285156 C 51.90625 47.675781 52.328125 45.390625 53.519531 45.488281 C 54.390625 45.5625 54.273438 46.078125 54.636719 46.511719 C 55.238281 47.230469 56.011719 47.910156 56.316406 48.828125 Z M 56.316406 48.832031 " fill-opacity="1" fill-rule="nonzero"/></g><path fill="#0661aa" d="M 59.171875 41.363281 C 59.871094 41.632812 60.84375 42.273438 61.367188 42.800781 C 61.960938 43.402344 62.257812 44.378906 62.691406 44.84375 C 62.964844 45.132812 63.375 45.214844 63.671875 45.460938 C 64.898438 46.464844 64.394531 47.328125 64.964844 48.425781 C 65.308594 49.082031 66.054688 49.582031 66.335938 50.421875 C 66.414062 50.65625 66.71875 51.945312 66.328125 52.023438 C 65.976562 52.09375 65.398438 50.589844 65.144531 50.195312 C 64.765625 49.613281 64.089844 49.046875 63.785156 48.539062 C 63.308594 47.742188 63.574219 46.777344 63.136719 46.175781 C 62.808594 45.730469 61.992188 45.546875 61.558594 45.09375 C 61.070312 44.582031 60.917969 43.773438 60.398438 43.238281 C 59.820312 42.648438 57.925781 41.746094 57.71875 41.433594 C 57.332031 40.84375 58.484375 39.902344 58.347656 39.070312 C 58.574219 38.6875 59.300781 39.191406 59.417969 39.429688 C 59.773438 40.15625 59.003906 40.652344 59.167969 41.363281 Z M 59.171875 41.363281 " fill-opacity="1" fill-rule="nonzero"/><g clip-path="url(#29f9dd9d12)"><path fill="#0661aa" d="M 75.476562 28.789062 C 76.921875 29.101562 76.285156 29.574219 76.21875 30.339844 C 76.191406 30.65625 76.371094 30.914062 76.367188 31.191406 C 76.359375 31.984375 74.667969 34.316406 74.054688 34.910156 C 73.585938 35.367188 71.914062 36.347656 71.773438 36.898438 C 71.605469 37.5625 72.257812 37.648438 72.4375 37.9375 C 72.675781 38.324219 72.5625 38.890625 72.980469 39.171875 C 74.753906 38.996094 75.96875 37.902344 77.824219 38.234375 C 79.238281 38.488281 78.609375 39.351562 79.015625 39.703125 C 79.5625 40.179688 82.457031 40.480469 83.402344 40.996094 C 85.722656 42.25 86.921875 45.964844 89.074219 47.382812 C 90.136719 48.085938 91.515625 48.652344 92.589844 49.363281 L 96.429688 41.410156 C 97.859375 41.039062 98.207031 42.335938 98.972656 43.160156 C 99.621094 43.851562 100.914062 45.164062 101.742188 45.535156 C 104.050781 46.558594 103.914062 46.105469 105.941406 47.949219 C 106.335938 48.308594 107.199219 48.394531 107.050781 49.183594 C 106.800781 49.183594 106.617188 49.40625 106.347656 49.28125 C 105.285156 48.769531 104.335938 47.457031 103.203125 46.910156 C 102.53125 46.585938 101.925781 46.597656 101.308594 46.316406 C 99.773438 45.625 98.578125 43.917969 97.207031 42.972656 C 95.328125 45.632812 94.335938 48.777344 92.980469 51.699219 C 92.25 53.269531 91.679688 54.925781 89.839844 55.390625 C 89.558594 55.085938 92.492188 51.0625 92.066406 50.25 C 91.863281 49.859375 88.199219 47.96875 87.4375 47.238281 C 86.183594 46.039062 84.003906 42.121094 82.5625 41.46875 C 82.125 41.273438 81.679688 41.449219 81.242188 41.375 C 80.726562 41.285156 80.445312 40.679688 79.644531 40.835938 C 79.464844 40.871094 79.613281 41.203125 79.519531 41.335938 C 79.410156 41.484375 79.046875 41.441406 78.882812 41.601562 C 78.734375 41.742188 78.558594 42.386719 78.308594 42.710938 C 77.183594 44.15625 75.398438 46.285156 74.140625 47.589844 C 73.324219 48.4375 72.398438 49.097656 71.296875 49.535156 L 78.226562 41.039062 C 78.140625 40.082031 76.808594 40.277344 77.417969 39.074219 C 77.238281 38.898438 73.695312 40.359375 72.976562 40.242188 C 71.589844 40.015625 71.640625 38.429688 71.132812 37.996094 C 70.707031 37.632812 69.445312 37.722656 70.136719 36.667969 C 70.640625 35.90625 72.167969 34.984375 72.878906 34.265625 C 73.464844 33.679688 75.046875 31.753906 75.117188 30.988281 C 75.160156 30.507812 74.816406 30.039062 75.117188 29.5 C 74.484375 29.5 73.6875 29.085938 73.898438 28.382812 C 74.011719 28.007812 75.742188 25.953125 76.144531 25.296875 C 76.738281 24.328125 77.214844 23.171875 77.8125 22.171875 C 78.464844 21.070312 79.5 20.167969 79.730469 18.859375 C 80.875 18.882812 80.632812 19.832031 80.34375 20.628906 C 79.917969 21.808594 77.820312 24.878906 77.035156 26.183594 C 76.800781 26.574219 75.277344 28.53125 75.472656 28.789062 Z M 75.476562 28.789062 " fill-opacity="1" fill-rule="nonzero"/></g></svg>