<svg xmlns="http://www.w3.org/2000/svg" xmlns:xlink="http://www.w3.org/1999/xlink" width="177" zoomAndPan="magnify" viewBox="0 0 132.75 119.999999" height="160" preserveAspectRatio="xMidYMid meet" version="1.0"><defs><clipPath id="21860bcacb"><path d="M 13 16.121094 L 119.785156 16.121094 L 119.785156 103.703125 L 13 103.703125 Z M 13 16.121094 " clip-rule="nonzero"/></clipPath></defs><g clip-path="url(#21860bcacb)"><path fill="#0661aa" d="M 88.347656 89.144531 C 88.28125 88.84375 88.171875 88.496094 88.003906 88.394531 C 87.980469 88.375 87.933594 88.363281 87.855469 88.363281 C 87.8125 88.363281 87.753906 88.375 87.675781 88.386719 C 87.644531 88.394531 87.578125 88.40625 87.589844 88.542969 C 87.632812 88.742188 87.855469 89.035156 88.347656 89.144531 Z M 92.601562 98.382812 C 92.703125 98.695312 92.683594 98.941406 92.535156 99.121094 C 92.265625 99.46875 91.730469 99.421875 91.035156 99.355469 C 90.757812 99.332031 90.453125 99.3125 90.164062 99.3125 C 89.144531 99.3125 88.785156 99.703125 88.785156 99.703125 C 88.71875 99.78125 88.628906 99.828125 88.539062 99.828125 C 88.472656 99.828125 88.394531 99.804688 88.339844 99.757812 C 88.191406 99.648438 88.179688 99.433594 88.292969 99.300781 C 88.347656 99.234375 88.832031 98.671875 90.175781 98.671875 C 90.5 98.671875 90.824219 98.695312 91.101562 98.730469 C 91.417969 98.75 91.886719 98.796875 92.019531 98.742188 C 92.019531 98.71875 92.011719 98.671875 91.988281 98.605469 C 91.84375 98.203125 89.433594 97.296875 86.75 96.648438 C 86.648438 96.625 86.558594 96.546875 86.523438 96.445312 C 86.492188 96.34375 86.503906 96.234375 86.558594 96.144531 C 88.179688 93.78125 88.394531 90.769531 88.425781 89.828125 C 87.554688 89.71875 87.027344 89.179688 86.960938 88.640625 C 86.90625 88.226562 87.128906 87.882812 87.519531 87.769531 C 87.84375 87.679688 88.125 87.714844 88.359375 87.859375 C 88.695312 88.070312 88.875 88.519531 89.007812 89.113281 C 90.65625 88.464844 91.179688 86.136719 91.179688 86.113281 C 91.214844 85.933594 91.394531 85.820312 91.5625 85.867188 C 91.742188 85.898438 91.851562 86.078125 91.808594 86.246094 C 91.785156 86.371094 91.179688 89.078125 89.078125 89.773438 C 89.066406 90.644531 88.898438 93.601562 87.339844 96.121094 C 89.109375 96.558594 92.300781 97.488281 92.601562 98.382812 Z M 76.917969 61.5625 C 76.761719 61.652344 76.707031 61.839844 76.796875 62 C 76.851562 62.097656 76.964844 62.167969 77.074219 62.167969 C 77.132812 62.167969 77.1875 62.15625 77.234375 62.121094 C 77.242188 62.109375 78.488281 61.417969 79.71875 60.644531 C 81.753906 59.355469 82.238281 58.839844 82.347656 58.539062 C 83.042969 58.460938 83.714844 58.425781 84.363281 58.449219 C 84.542969 58.460938 84.6875 58.316406 84.699219 58.136719 C 84.710938 57.957031 84.566406 57.8125 84.386719 57.800781 C 83.660156 57.777344 82.875 57.8125 82.058594 57.921875 C 81.742188 57.8125 80.78125 57.710938 76.953125 58.035156 C 74.644531 58.226562 72.394531 58.484375 72.375 58.484375 C 72.195312 58.503906 72.070312 58.660156 72.082031 58.839844 C 72.105469 59.019531 72.261719 59.144531 72.441406 59.132812 C 74.804688 58.863281 77.300781 58.640625 79.136719 58.527344 C 76.304688 59.3125 73.066406 60.722656 69.453125 62.757812 C 69.160156 62.917969 68.882812 63.085938 68.613281 63.242188 C 68.21875 63.242188 67.449219 63.332031 65.835938 63.621094 C 64.480469 63.867188 63.148438 64.160156 63.136719 64.171875 C 62.957031 64.203125 62.847656 64.382812 62.890625 64.550781 C 62.925781 64.730469 63.105469 64.839844 63.273438 64.796875 C 64.683594 64.496094 66.183594 64.203125 67.269531 64.023438 C 63.867188 66.09375 61.46875 67.921875 61.449219 67.929688 C 61.300781 68.042969 61.28125 68.246094 61.390625 68.390625 C 61.457031 68.46875 61.546875 68.515625 61.648438 68.515625 C 61.714844 68.515625 61.785156 68.492188 61.851562 68.445312 C 61.90625 68.402344 64.707031 66.285156 68.566406 64.011719 C 68.367188 64.773438 67.515625 66.644531 66.710938 68.246094 C 66.628906 68.402344 66.6875 68.601562 66.855469 68.683594 C 66.898438 68.703125 66.957031 68.714844 67 68.714844 C 67.125 68.714844 67.234375 68.648438 67.292969 68.535156 C 68.992188 65.1875 69.304688 64.058594 69.25 63.609375 C 72.910156 61.503906 77.402344 59.355469 81.410156 58.660156 C 80.636719 59.332031 78.6875 60.566406 76.917969 61.5625 Z M 57.664062 39.292969 C 57.71875 39.417969 57.832031 39.484375 57.953125 39.484375 C 58 39.484375 58.042969 39.472656 58.089844 39.453125 C 58.101562 39.453125 59.265625 38.902344 60.40625 38.332031 C 61.972656 37.558594 62.554688 37.210938 62.769531 37 C 66.125 37 69.820312 37.246094 72.753906 38.0625 C 71.78125 38.5 69.105469 39.136719 66.71875 39.574219 C 66.542969 39.609375 66.429688 39.777344 66.460938 39.957031 C 66.496094 40.113281 66.628906 40.222656 66.777344 40.222656 C 66.796875 40.222656 66.808594 40.222656 66.832031 40.222656 C 66.84375 40.222656 68.445312 39.933594 70.054688 39.539062 C 72.542969 38.949219 73.304688 38.566406 73.558594 38.320312 C 74.074219 38.5 74.566406 38.691406 75.015625 38.902344 C 75.0625 38.925781 75.105469 38.9375 75.160156 38.9375 C 75.285156 38.9375 75.394531 38.871094 75.453125 38.757812 C 75.53125 38.601562 75.464844 38.398438 75.308594 38.320312 C 74.792969 38.074219 74.242188 37.851562 73.648438 37.660156 C 73.640625 37.648438 73.628906 37.636719 73.617188 37.625 C 72.96875 36.867188 63.394531 28.960938 62.992188 28.625 C 62.859375 28.515625 62.644531 28.535156 62.535156 28.671875 C 62.421875 28.804688 62.445312 29.015625 62.578125 29.128906 C 64.851562 31.011719 70.191406 35.445312 72.285156 37.28125 C 69.304688 36.550781 65.722656 36.339844 62.5 36.351562 C 61.75 36.058594 58.546875 34.761719 56.824219 34.054688 C 56.65625 33.988281 56.464844 34.066406 56.398438 34.234375 C 56.332031 34.402344 56.410156 34.59375 56.578125 34.660156 C 56.722656 34.714844 59.128906 35.699219 60.820312 36.382812 C 56.992188 36.484375 53.992188 36.84375 53.722656 36.875 C 53.542969 36.898438 53.421875 37.054688 53.441406 37.234375 C 53.464844 37.414062 53.632812 37.535156 53.800781 37.515625 C 53.867188 37.503906 57.292969 37.089844 61.546875 37.023438 C 60.675781 37.492188 59.195312 38.21875 57.808594 38.871094 C 57.664062 38.9375 57.585938 39.136719 57.664062 39.292969 Z M 71.398438 78.65625 C 71.367188 78.691406 68.253906 81.703125 60.304688 86.425781 C 58.03125 87.769531 56.117188 89.359375 54.082031 91.039062 C 50.675781 93.847656 46.828125 97.039062 40.332031 99.769531 C 40.164062 99.835938 40.085938 100.027344 40.164062 100.195312 C 40.222656 100.320312 40.332031 100.398438 40.46875 100.398438 C 40.511719 100.398438 40.558594 100.386719 40.589844 100.375 C 47.171875 97.597656 51.070312 94.386719 54.507812 91.542969 C 56.523438 89.886719 58.414062 88.316406 60.640625 86.984375 C 68.667969 82.226562 71.734375 79.25 71.859375 79.125 C 71.980469 79.003906 71.992188 78.789062 71.859375 78.667969 C 71.734375 78.535156 71.535156 78.523438 71.398438 78.65625 Z M 83.085938 87.714844 C 83.054688 87.457031 82.996094 87.210938 82.953125 86.953125 C 82.617188 85.363281 82.148438 84.578125 81.945312 84.5 C 81.921875 84.523438 81.855469 84.601562 81.777344 84.8125 C 81.464844 85.699219 81.765625 86.660156 82.550781 87.34375 C 82.707031 87.476562 82.886719 87.601562 83.085938 87.714844 Z M 100.28125 95.683594 C 100.195312 95.660156 100.113281 95.652344 100.046875 95.652344 C 99.980469 95.652344 99.925781 95.660156 99.878906 95.683594 C 99.601562 95.820312 99.5 96.121094 99.488281 96.34375 C 99.476562 96.546875 99.542969 96.667969 99.578125 96.691406 C 99.578125 96.691406 99.757812 96.667969 100.058594 96.164062 C 100.136719 96.054688 100.203125 95.898438 100.28125 95.683594 Z M 102.140625 81.109375 C 102.128906 81.050781 102.109375 81.019531 102.097656 80.984375 C 101.367188 81.152344 100.585938 81.792969 100.371094 82.105469 C 100.496094 82.105469 100.730469 82.082031 101.132812 81.960938 C 101.367188 81.890625 101.703125 81.679688 102.140625 81.109375 Z M 104.246094 95.316406 C 104.191406 95.292969 104.144531 95.28125 104.125 95.269531 C 104.113281 95.269531 104.101562 95.269531 104.078125 95.269531 C 103.84375 95.269531 103.730469 95.347656 103.730469 95.394531 C 103.730469 95.449219 103.832031 95.570312 104.066406 95.628906 C 104.125 95.5625 104.179688 95.460938 104.246094 95.316406 Z M 106.855469 81.800781 C 106.855469 81.78125 106.84375 81.769531 106.84375 81.746094 C 106.195312 81.824219 105.667969 82.195312 105.613281 82.351562 C 105.632812 82.375 105.722656 82.429688 105.949219 82.472656 C 105.980469 82.496094 106.25 82.519531 106.855469 81.800781 Z M 110.382812 77.054688 C 110.324219 77.167969 109.070312 79.886719 107.816406 81.632812 C 107.714844 81.769531 107.628906 81.890625 107.539062 82.015625 C 107.660156 83.570312 107.035156 86.964844 106.71875 88.542969 C 106.25 90.9375 105.601562 93.613281 105.050781 95.078125 C 105.488281 95.449219 105.9375 95.976562 106.292969 96.457031 C 106.375 96.558594 108.152344 98.917969 107.941406 99.828125 C 107.851562 100.207031 107.628906 100.375 107.449219 100.464844 C 107.3125 100.53125 107.15625 100.554688 107.011719 100.554688 C 106.621094 100.554688 106.25 100.375 106.195312 100.351562 C 106.171875 100.339844 106.160156 100.332031 106.136719 100.320312 C 106.207031 100.542969 106.195312 100.734375 106.09375 100.890625 C 105.824219 101.328125 105.121094 101.226562 104.46875 101.058594 C 103.753906 100.878906 103.5625 100.945312 103.195312 101.082031 C 102.9375 101.179688 102.578125 101.316406 101.953125 101.394531 C 101.714844 101.425781 101.515625 101.4375 101.335938 101.4375 C 100.742188 101.4375 100.417969 101.28125 100.035156 101.089844 C 99.746094 100.945312 99.410156 100.789062 98.851562 100.644531 C 98.222656 100.476562 97.765625 100.6875 97.359375 100.867188 C 97.035156 101.011719 96.734375 101.148438 96.433594 101 C 96.152344 100.867188 96.039062 100.566406 95.984375 100.351562 C 95.636719 99.109375 96.914062 95.75 97.125 95.179688 C 97.171875 94.632812 97.617188 89.058594 96.230469 84.140625 C 93.65625 85.753906 89.78125 85.898438 89.601562 85.898438 C 89.601562 85.898438 89.59375 85.898438 89.59375 85.898438 C 89.425781 85.898438 89.277344 85.765625 89.265625 85.597656 C 88.371094 86.804688 87.386719 87.757812 86.492188 88.226562 C 85.539062 88.722656 84.632812 88.808594 83.847656 88.652344 C 83.925781 89.71875 83.882812 90.824219 83.679688 91.789062 C 82.863281 95.59375 81.003906 98.539062 80.925781 98.664062 C 80.859375 98.761719 80.757812 98.808594 80.65625 98.808594 C 80.601562 98.808594 80.535156 98.796875 80.480469 98.75 C 80.324219 98.652344 80.289062 98.449219 80.378906 98.304688 C 80.402344 98.269531 82.246094 95.324219 83.042969 91.644531 C 83.246094 90.714844 83.289062 89.59375 83.175781 88.441406 C 82.761719 88.273438 82.40625 88.050781 82.125 87.804688 C 81.128906 86.941406 80.769531 85.699219 81.160156 84.566406 C 81.441406 83.773438 81.867188 83.773438 82.101562 83.828125 C 82.828125 84.03125 83.523438 85.855469 83.78125 87.949219 C 84.476562 88.128906 85.304688 88.082031 86.1875 87.625 C 88.964844 86.167969 93.769531 78.613281 90.65625 72.644531 C 90.0625 71.503906 89.121094 70.730469 87.867188 70.351562 C 83.433594 69.027344 76.425781 72.777344 76.347656 72.8125 C 76.191406 72.902344 75.988281 72.835938 75.910156 72.679688 C 75.820312 72.523438 75.890625 72.320312 76.046875 72.242188 C 76.335938 72.085938 83.367188 68.324219 88.058594 69.757812 C 89.492188 70.191406 90.554688 71.078125 91.238281 72.375 C 92.691406 75.164062 92.691406 78.621094 91.238281 82.136719 C 90.777344 83.246094 90.175781 84.320312 89.523438 85.273438 C 89.546875 85.261719 89.570312 85.261719 89.59375 85.261719 C 89.636719 85.261719 93.621094 85.117188 96.039062 83.503906 C 95.90625 83.078125 95.761719 82.664062 95.59375 82.261719 C 94.238281 78.96875 93.601562 76.53125 93.5 74.367188 C 93.375 71.738281 94.101562 69.5 95.714844 67.527344 C 95.828125 67.394531 96.027344 67.371094 96.175781 67.484375 C 96.308594 67.597656 96.332031 67.796875 96.21875 67.941406 C 93.015625 71.859375 93.902344 76.40625 96.195312 82.027344 C 96.386719 82.496094 96.566406 82.976562 96.710938 83.46875 C 96.746094 83.515625 96.757812 83.570312 96.757812 83.628906 C 98.367188 88.957031 97.796875 95.023438 97.777344 95.304688 C 97.777344 95.335938 97.765625 95.359375 97.753906 95.394531 C 97.351562 96.421875 96.363281 99.277344 96.609375 100.195312 C 96.65625 100.363281 96.699219 100.417969 96.710938 100.429688 C 96.777344 100.429688 96.957031 100.351562 97.105469 100.285156 C 97.527344 100.09375 98.179688 99.804688 99.019531 100.027344 C 99.644531 100.195312 100.027344 100.375 100.328125 100.519531 C 100.785156 100.746094 101.042969 100.867188 101.871094 100.753906 C 102.421875 100.675781 102.710938 100.578125 102.96875 100.476562 C 103.441406 100.296875 103.753906 100.207031 104.625 100.429688 C 105.207031 100.578125 105.445312 100.554688 105.535156 100.542969 C 105.511719 100.453125 105.410156 100.183594 104.917969 99.601562 C 103.628906 98.089844 101.972656 96.589844 100.886719 95.964844 C 100.796875 96.210938 100.71875 96.402344 100.640625 96.523438 C 100.160156 97.308594 99.734375 97.398438 99.464844 97.339844 C 99.152344 97.273438 98.929688 96.984375 98.882812 96.570312 C 98.816406 96.074219 99.027344 95.414062 99.621094 95.113281 C 99.867188 94.988281 100.171875 95 100.507812 95.089844 C 100.921875 93.636719 101.414062 91.0625 101.792969 88.273438 C 102.21875 85.117188 102.320312 83.089844 102.277344 81.980469 C 101.960938 82.292969 101.648438 82.496094 101.347656 82.585938 C 100.539062 82.820312 100.082031 82.808594 99.847656 82.574219 C 99.710938 82.441406 99.667969 82.238281 99.734375 82.027344 C 99.9375 81.398438 101.15625 80.515625 102.074219 80.335938 C 102.265625 80.300781 102.445312 80.371094 102.578125 80.515625 C 102.667969 80.371094 102.757812 80.210938 102.847656 80.042969 C 104.59375 76.84375 105.992188 70.964844 106.015625 70.910156 C 106.058594 70.730469 106.226562 70.628906 106.40625 70.664062 C 106.585938 70.707031 106.6875 70.875 106.652344 71.054688 C 106.597656 71.300781 105.21875 77.066406 103.429688 80.347656 C 103.238281 80.695312 103.046875 81.007812 102.859375 81.277344 C 103.285156 83.941406 102.03125 92.089844 101.101562 95.324219 C 102.925781 96.265625 105.296875 99.019531 105.433594 99.164062 C 105.710938 99.5 105.925781 99.78125 106.046875 100.015625 C 106.046875 99.984375 106.058594 99.9375 106.082031 99.90625 C 106.160156 99.746094 106.363281 99.679688 106.519531 99.757812 C 106.664062 99.828125 107.035156 99.949219 107.214844 99.871094 C 107.234375 99.859375 107.300781 99.828125 107.347656 99.667969 C 107.402344 99.414062 106.832031 98.167969 105.792969 96.804688 C 105.410156 96.300781 105.085938 95.941406 104.816406 95.695312 C 104.773438 95.785156 104.726562 95.863281 104.683594 95.929688 C 104.625 96.019531 104.4375 96.3125 104.144531 96.277344 C 103.441406 96.199219 103.105469 95.75 103.136719 95.335938 C 103.160156 94.957031 103.507812 94.585938 104.191406 94.609375 C 104.300781 94.609375 104.414062 94.644531 104.527344 94.699219 C 104.941406 93.535156 105.5 91.429688 106.046875 88.765625 C 106.621094 85.96875 106.886719 83.863281 106.945312 82.699219 C 106.542969 83.046875 106.195312 83.191406 105.878906 83.125 C 105.0625 82.957031 105.007812 82.507812 105.019531 82.328125 C 105.0625 81.679688 106.09375 81.140625 106.976562 81.097656 C 107.125 81.085938 107.246094 81.140625 107.347656 81.242188 C 108.566406 79.550781 109.832031 76.808594 109.84375 76.785156 C 109.921875 76.617188 110.113281 76.550781 110.269531 76.628906 C 110.382812 76.707031 110.449219 76.898438 110.382812 77.054688 Z M 16.902344 77.359375 C 17.316406 77.191406 17.628906 76.886719 17.652344 76.609375 C 17.472656 76.707031 17.203125 76.976562 16.902344 77.359375 Z M 89.234375 100.507812 C 89.300781 100.667969 89.277344 100.832031 89.1875 100.980469 C 88.875 101.449219 88.226562 101.585938 87.542969 101.730469 C 86.804688 101.886719 86.042969 102.042969 85.671875 102.601562 C 85.046875 103.542969 84.375 103.261719 83.726562 102.996094 C 83.300781 102.816406 82.808594 102.613281 82.160156 102.613281 C 81.171875 102.613281 80.984375 102.769531 80.679688 103.050781 C 80.480469 103.230469 80.222656 103.453125 79.730469 103.675781 C 79.394531 103.824219 79.101562 103.878906 78.8125 103.878906 C 78.308594 103.878906 77.824219 103.6875 77.242188 103.464844 C 76.75 103.273438 76.203125 103.0625 75.464844 102.871094 C 74.535156 102.636719 73.648438 102.90625 72.933594 103.105469 C 72.285156 103.296875 71.78125 103.441406 71.398438 103.183594 C 71.1875 103.039062 71.0625 102.792969 71.03125 102.445312 C 70.917969 101.238281 72.285156 100.488281 73.71875 99.679688 C 74.378906 99.3125 75.0625 98.929688 75.621094 98.503906 C 76.472656 97.855469 75.867188 96.667969 74.558594 94.273438 C 73.816406 92.929688 72.898438 91.25 72.140625 89.28125 C 71.914062 88.699219 71.769531 88.09375 71.667969 87.488281 C 71.636719 87.613281 71.546875 87.703125 71.410156 87.734375 C 71.320312 87.746094 62.050781 89.402344 54.628906 94.320312 C 51.023438 96.703125 47.09375 99.121094 42.742188 100.722656 C 39.148438 102.042969 35.542969 102.703125 31.8125 102.703125 C 30.683594 102.703125 29.542969 102.648438 28.386719 102.523438 C 22.914062 101.953125 18.792969 99.691406 16.152344 95.785156 C 12.738281 90.769531 12.917969 84.722656 13.519531 82.585938 C 13.96875 81.042969 14.785156 79.328125 15.625 78.019531 C 15.089844 77.828125 14.597656 77.378906 14.328125 76.550781 C 14.238281 76.273438 14.28125 75.96875 14.460938 75.699219 C 15.828125 73.574219 26.136719 72.21875 27.3125 72.074219 C 27.480469 72.050781 27.636719 72.175781 27.671875 72.34375 C 27.707031 72.511719 27.59375 72.679688 27.425781 72.710938 C 21.191406 74.121094 16.691406 78.835938 16.207031 84.445312 C 15.792969 89.292969 18.636719 93.480469 23.832031 95.628906 C 29.285156 97.890625 35.464844 97.152344 42.203125 93.421875 C 47.632812 90.421875 52.234375 86.089844 54.730469 83.035156 C 60.597656 75.847656 64.929688 74.042969 65.109375 73.976562 C 65.277344 73.910156 65.464844 73.988281 65.535156 74.15625 C 65.601562 74.324219 65.523438 74.515625 65.355469 74.582031 C 65.289062 74.605469 60.976562 76.429688 55.234375 83.449219 C 52.691406 86.550781 48.023438 90.949219 42.515625 93.992188 C 39.382812 95.730469 36.292969 96.835938 33.347656 97.296875 C 29.878906 97.832031 26.597656 97.476562 23.574219 96.222656 C 18.109375 93.960938 15.109375 89.527344 15.558594 84.378906 C 15.792969 81.644531 17.015625 78.949219 19.007812 76.765625 C 20.339844 75.296875 21.972656 74.109375 23.808594 73.25 C 20.203125 73.875 15.738281 74.894531 15.011719 76.035156 C 14.921875 76.183594 14.933594 76.273438 14.953125 76.339844 C 15.1875 77.089844 15.625 77.359375 16.019531 77.4375 C 16.699219 76.484375 17.359375 75.867188 17.785156 75.890625 C 17.886719 75.890625 18.199219 75.949219 18.277344 76.371094 C 18.414062 77.15625 17.640625 77.839844 16.8125 78.039062 C 16.65625 78.074219 16.5 78.097656 16.332031 78.109375 C 15.546875 79.273438 14.652344 80.960938 14.136719 82.742188 C 13.578125 84.714844 13.433594 90.625 16.644531 95.382812 C 19.175781 99.121094 23.136719 101.292969 28.410156 101.839844 C 39.226562 102.960938 46.792969 98.652344 54.226562 93.734375 C 61.773438 88.753906 71.164062 87.074219 71.253906 87.0625 C 71.386719 87.042969 71.523438 87.109375 71.589844 87.222656 C 71.300781 84.871094 71.824219 82.40625 72.40625 80.570312 C 73.234375 77.941406 74.410156 75.835938 74.734375 75.523438 C 74.859375 75.398438 75.070312 75.398438 75.195312 75.523438 C 75.316406 75.644531 75.316406 75.859375 75.195312 75.980469 C 74.859375 76.316406 70.671875 83.75 72.699219 89.023438 C 73.449219 90.960938 74.355469 92.617188 75.082031 93.9375 C 76.371094 96.289062 77.300781 97.980469 75.980469 98.996094 C 75.386719 99.457031 74.679688 99.847656 73.996094 100.230469 C 72.742188 100.921875 71.566406 101.574219 71.644531 102.367188 C 71.65625 102.503906 71.691406 102.601562 71.734375 102.636719 C 71.859375 102.726562 72.339844 102.582031 72.722656 102.46875 C 73.472656 102.246094 74.5 101.953125 75.597656 102.222656 C 76.382812 102.414062 76.976562 102.648438 77.457031 102.835938 C 78.308594 103.171875 78.777344 103.351562 79.449219 103.050781 C 79.851562 102.871094 80.054688 102.703125 80.242188 102.535156 C 80.667969 102.167969 81.003906 101.941406 82.160156 101.941406 C 82.941406 101.941406 83.511719 102.175781 83.972656 102.378906 C 84.644531 102.660156 84.8125 102.703125 85.136719 102.222656 C 85.652344 101.4375 86.589844 101.25 87.410156 101.082031 C 87.878906 100.980469 88.328125 100.890625 88.550781 100.699219 C 88.148438 100.488281 86.816406 100.230469 85.910156 100.0625 C 83.960938 99.691406 82.652344 99.414062 82.214844 98.941406 C 82.089844 98.808594 82.101562 98.605469 82.238281 98.484375 C 82.371094 98.359375 82.574219 98.371094 82.695312 98.503906 C 83.019531 98.863281 84.765625 99.1875 86.03125 99.433594 C 88.203125 99.847656 89.042969 100.050781 89.234375 100.507812 Z M 114.457031 44.128906 C 114.5 43.953125 114.390625 43.785156 114.222656 43.738281 C 114.042969 43.695312 113.875 43.804688 113.828125 43.972656 L 113.179688 46.570312 C 111.890625 42.304688 110.191406 39.40625 110.15625 39.351562 C 110.066406 39.195312 109.867188 39.148438 109.710938 39.238281 C 109.550781 39.328125 109.507812 39.53125 109.597656 39.6875 C 109.621094 39.730469 111.253906 42.507812 112.507812 46.59375 L 110.953125 45.417969 C 110.804688 45.304688 110.605469 45.339844 110.492188 45.484375 C 110.382812 45.632812 110.414062 45.832031 110.558594 45.945312 L 112.808594 47.644531 C 113.460938 50.019531 113.953125 52.761719 113.941406 55.628906 L 112.050781 52.738281 C 111.949219 52.59375 111.746094 52.550781 111.601562 52.648438 C 111.457031 52.75 111.410156 52.953125 111.511719 53.097656 L 113.917969 56.757812 C 113.785156 59.378906 113.167969 62.007812 112.351562 64.425781 C 111.9375 63.027344 111.300781 60.867188 111.210938 60.585938 C 111.152344 60.417969 110.972656 60.332031 110.796875 60.386719 C 110.628906 60.441406 110.539062 60.621094 110.59375 60.800781 C 110.707031 61.136719 111.679688 64.425781 111.980469 65.480469 C 111.230469 67.507812 110.382812 69.34375 109.609375 70.84375 L 109.664062 69.855469 C 109.675781 69.679688 109.542969 69.519531 109.363281 69.511719 C 109.183594 69.5 109.027344 69.632812 109.015625 69.8125 L 108.882812 72.039062 C 108.882812 72.085938 108.882812 72.117188 108.902344 72.152344 C 107.984375 73.808594 107.300781 74.816406 107.28125 74.851562 C 107.179688 74.996094 107.214844 75.195312 107.371094 75.296875 C 107.425781 75.332031 107.492188 75.355469 107.546875 75.355469 C 107.648438 75.355469 107.75 75.308594 107.816406 75.207031 C 107.839844 75.175781 108.625 74.023438 109.640625 72.140625 L 111.421875 70.898438 C 111.566406 70.796875 111.601562 70.597656 111.5 70.449219 C 111.398438 70.304688 111.199219 70.269531 111.054688 70.371094 L 110.304688 70.898438 C 111.019531 69.5 111.78125 67.84375 112.472656 66.015625 C 112.519531 66.007812 112.554688 65.984375 112.597656 65.960938 L 114.757812 64.203125 C 114.894531 64.089844 114.914062 63.890625 114.804688 63.746094 C 114.691406 63.609375 114.488281 63.589844 114.34375 63.699219 L 112.878906 64.886719 C 113.75 62.34375 114.421875 59.570312 114.558594 56.792969 L 116.148438 54.742188 C 116.257812 54.597656 116.234375 54.398438 116.089844 54.285156 C 115.945312 54.171875 115.742188 54.195312 115.632812 54.339844 L 114.578125 55.695312 C 114.589844 52.863281 114.132812 50.144531 113.503906 47.769531 C 113.539062 47.734375 113.550781 47.691406 113.570312 47.644531 Z M 106.328125 68.402344 C 106.382812 68.433594 106.441406 68.445312 106.496094 68.445312 C 106.609375 68.445312 106.710938 68.390625 106.777344 68.289062 C 109.195312 64.394531 110.382812 50.488281 109.789062 48.472656 C 109.351562 46.996094 108.433594 47.21875 107.941406 47.34375 C 107.828125 47.367188 107.671875 47.410156 107.617188 47.398438 C 107.539062 47.308594 107.539062 47.265625 107.75 46.796875 C 107.90625 46.460938 108.121094 46.011719 108.300781 45.328125 C 108.722656 43.695312 107.335938 40.011719 107.269531 39.855469 C 107.203125 39.6875 107.023438 39.609375 106.855469 39.664062 C 106.6875 39.730469 106.609375 39.910156 106.664062 40.078125 C 107.046875 41.085938 107.972656 43.964844 107.671875 45.160156 C 107.515625 45.777344 107.3125 46.203125 107.167969 46.515625 C 106.945312 46.984375 106.765625 47.386719 107.132812 47.824219 C 107.402344 48.140625 107.804688 48.039062 108.109375 47.972656 C 108.589844 47.847656 108.902344 47.769531 109.171875 48.652344 C 109.699219 50.445312 108.554688 64.191406 106.226562 67.929688 C 106.128906 68.109375 106.171875 68.3125 106.328125 68.402344 Z M 119.449219 57.207031 C 118.753906 55.191406 117.902344 46.953125 117.949219 45.699219 C 117.992188 45.710938 118.039062 45.71875 118.070312 45.71875 C 118.320312 45.777344 118.644531 45.84375 118.910156 45.632812 C 119.101562 45.472656 119.191406 45.226562 119.191406 44.859375 C 119.191406 44.164062 118.585938 42.742188 117.992188 41.375 C 117.566406 40.371094 117.121094 39.328125 117.085938 38.957031 C 117.074219 38.871094 117.085938 38.8125 117.085938 38.78125 C 117.109375 38.78125 117.144531 38.78125 117.164062 38.78125 C 117.390625 38.789062 117.757812 38.800781 118.027344 38.433594 C 118.386719 37.960938 117.859375 37.28125 117.253906 36.496094 C 116.976562 36.125 116.503906 35.523438 116.503906 35.320312 C 116.539062 35.265625 116.59375 35.253906 116.863281 35.253906 C 117.085938 35.253906 117.378906 35.253906 117.578125 35.039062 C 117.714844 34.894531 117.769531 34.695312 117.746094 34.425781 C 117.679688 33.496094 115.339844 30.5625 114.871094 29.980469 C 114.757812 29.847656 114.558594 29.824219 114.410156 29.933594 C 114.277344 30.046875 114.253906 30.25 114.367188 30.394531 C 115.476562 31.769531 117.066406 33.941406 117.097656 34.480469 C 117.097656 34.535156 117.097656 34.582031 117.097656 34.59375 C 117.042969 34.605469 116.941406 34.605469 116.875 34.605469 C 116.59375 34.605469 116.125 34.59375 115.910156 35.0625 C 115.699219 35.53125 116.15625 36.136719 116.738281 36.886719 C 117.019531 37.246094 117.480469 37.851562 117.488281 38.0625 C 117.433594 38.128906 117.367188 38.140625 117.175781 38.140625 C 117.007812 38.140625 116.773438 38.128906 116.59375 38.308594 C 116.414062 38.5 116.402344 38.78125 116.425781 39.003906 C 116.460938 39.484375 116.886719 40.480469 117.378906 41.632812 C 117.882812 42.820312 118.519531 44.296875 118.519531 44.859375 C 118.519531 45.058594 118.488281 45.128906 118.488281 45.128906 C 118.441406 45.136719 118.273438 45.105469 118.195312 45.09375 C 117.960938 45.039062 117.535156 44.949219 117.34375 45.328125 C 117.144531 45.742188 117.570312 49.59375 117.703125 50.769531 C 117.835938 51.96875 118.328125 55.996094 118.820312 57.417969 C 119.070312 58.148438 119.035156 58.371094 119.011719 58.414062 C 118.957031 58.425781 118.800781 58.40625 118.710938 58.394531 C 118.488281 58.359375 118.207031 58.316406 118.015625 58.503906 C 117.871094 58.652344 117.847656 58.875 117.804688 59.355469 C 117.703125 60.519531 117.46875 63.261719 115.171875 68 C 112.207031 74.132812 105.535156 78.925781 105.464844 78.96875 C 105.320312 79.070312 105.289062 79.273438 105.386719 79.417969 C 105.457031 79.507812 105.554688 79.550781 105.65625 79.550781 C 105.722656 79.550781 105.792969 79.53125 105.847656 79.496094 C 105.914062 79.453125 112.710938 74.570312 115.753906 68.277344 C 118.09375 63.441406 118.339844 60.621094 118.441406 59.414062 C 118.453125 59.265625 118.464844 59.121094 118.476562 59.019531 C 118.507812 59.019531 118.554688 59.03125 118.585938 59.042969 C 118.84375 59.085938 119.238281 59.144531 119.484375 58.851562 C 119.761719 58.550781 119.75 58.058594 119.449219 57.207031 Z M 55.792969 53.5 C 55.828125 53.648438 55.960938 53.734375 56.105469 53.734375 C 56.128906 53.734375 56.164062 53.734375 56.195312 53.726562 C 56.273438 53.703125 60.628906 52.539062 65.703125 51.8125 C 64.929688 52.347656 63.789062 53.066406 62.710938 53.703125 C 62.554688 53.792969 62.511719 53.992188 62.601562 54.152344 C 62.65625 54.25 62.769531 54.308594 62.878906 54.308594 C 62.9375 54.308594 62.992188 54.296875 63.046875 54.261719 C 64.289062 53.523438 66.273438 52.304688 66.988281 51.644531 C 70.035156 51.261719 73.226562 51.082031 75.832031 51.417969 C 75.621094 51.664062 74.824219 52.304688 71.8125 53.546875 C 69.777344 54.386719 67.738281 55.089844 67.726562 55.089844 C 67.558594 55.148438 67.46875 55.335938 67.527344 55.503906 C 67.570312 55.640625 67.695312 55.730469 67.828125 55.730469 C 67.863281 55.730469 67.894531 55.71875 67.929688 55.707031 C 69.25 55.246094 75.890625 52.917969 76.492188 51.574219 C 76.503906 51.554688 76.503906 51.542969 76.515625 51.519531 C 77.054688 51.621094 77.566406 51.730469 78.039062 51.890625 C 78.207031 51.945312 78.398438 51.84375 78.441406 51.675781 C 78.496094 51.507812 78.398438 51.316406 78.230469 51.273438 C 77.648438 51.09375 77.019531 50.949219 76.347656 50.835938 C 76.046875 50.476562 75.09375 49.726562 71.734375 48.050781 C 69.597656 46.984375 67.492188 46.046875 67.46875 46.035156 C 67.300781 45.96875 67.113281 46.035156 67.046875 46.203125 C 66.976562 46.371094 67.046875 46.558594 67.210938 46.628906 C 70.382812 48.027344 73.71875 49.707031 75.171875 50.679688 C 72.730469 50.445312 69.910156 50.613281 67.191406 50.9375 C 67.078125 50.757812 66.699219 50.445312 64.15625 49.683594 C 62.8125 49.28125 61.480469 48.933594 61.46875 48.933594 C 61.289062 48.890625 61.121094 48.988281 61.078125 49.167969 C 61.03125 49.335938 61.132812 49.515625 61.3125 49.558594 C 63.214844 50.054688 65.289062 50.679688 66.207031 51.070312 C 60.976562 51.777344 56.375 53.007812 56.027344 53.097656 C 55.851562 53.152344 55.75 53.332031 55.792969 53.5 Z M 93.386719 57.890625 C 93.933594 57.890625 94.417969 57.824219 94.785156 57.675781 C 94.953125 57.609375 95.03125 57.417969 94.964844 57.25 C 94.898438 57.082031 94.707031 57.003906 94.539062 57.074219 C 92.972656 57.699219 88.527344 56.402344 86.960938 55.851562 C 86.792969 55.796875 86.601562 55.886719 86.546875 56.054688 C 86.492188 56.222656 86.582031 56.410156 86.75 56.46875 C 86.9375 56.535156 90.835938 57.890625 93.386719 57.890625 Z M 78.339844 37.023438 C 77.804688 34.246094 76.179688 33.5625 76.113281 33.539062 C 75.945312 33.472656 75.765625 33.550781 75.699219 33.71875 C 75.632812 33.886719 75.710938 34.078125 75.878906 34.144531 C 75.933594 34.167969 77.242188 34.75 77.714844 37.15625 C 77.882812 38.039062 77.847656 39.160156 77.816406 40.457031 C 77.746094 42.855469 77.667969 45.84375 78.957031 48.496094 C 80.894531 52.480469 84.578125 55.292969 84.734375 55.414062 C 84.789062 55.460938 84.855469 55.484375 84.921875 55.484375 C 85.023438 55.484375 85.113281 55.4375 85.179688 55.359375 C 85.292969 55.214844 85.257812 55.011719 85.113281 54.902344 C 85.082031 54.878906 81.398438 52.058594 79.527344 48.21875 C 78.308594 45.710938 78.386719 42.933594 78.453125 40.480469 C 78.496094 39.136719 78.519531 37.972656 78.339844 37.023438 Z M 73.964844 32.566406 C 74.019531 32.621094 74.097656 32.644531 74.175781 32.644531 C 74.265625 32.644531 74.367188 32.601562 74.421875 32.53125 C 74.535156 32.398438 74.523438 32.1875 74.378906 32.074219 C 72.542969 30.539062 69.753906 29.332031 69.632812 29.285156 C 69.464844 29.21875 69.273438 29.296875 69.207031 29.453125 C 69.136719 29.621094 69.214844 29.8125 69.375 29.878906 C 69.394531 29.890625 72.195312 31.089844 73.964844 32.566406 Z M 71.433594 69.980469 C 71.5 69.980469 71.566406 69.957031 71.625 69.914062 C 74.175781 68.019531 80.15625 65.3125 85.4375 65.210938 C 90.800781 65.109375 96.019531 58.574219 96.242188 58.292969 C 96.355469 58.148438 96.332031 57.945312 96.1875 57.832031 C 96.039062 57.722656 95.839844 57.742188 95.726562 57.890625 C 95.671875 57.957031 90.488281 64.460938 85.425781 64.5625 C 80.3125 64.664062 74.300781 67.125 71.242188 69.398438 C 71.097656 69.511719 71.0625 69.710938 71.175781 69.855469 C 71.230469 69.933594 71.332031 69.980469 71.433594 69.980469 Z M 38.363281 40.875 C 38.53125 40.960938 39.023438 41.128906 40.410156 41.230469 C 41.621094 41.320312 43.324219 40.660156 45.226562 39.453125 C 44.476562 39.507812 43.835938 39.585938 43.378906 39.652344 C 39.953125 40.089844 38.664062 40.636719 38.363281 40.875 Z M 68.109375 75.644531 C 67.347656 76.550781 66.964844 77.222656 66.976562 77.449219 C 67.011719 77.839844 67.234375 78.074219 67.4375 78.175781 C 67.539062 78.21875 67.738281 78.277344 67.929688 78.140625 C 68.265625 77.894531 68.386719 77.210938 68.265625 76.304688 C 68.230469 76.070312 68.1875 75.859375 68.109375 75.644531 Z M 56.097656 71.714844 C 54.394531 72.152344 53.0625 72.757812 52.769531 73.09375 C 52.847656 73.125 53.007812 73.160156 53.296875 73.183594 C 54.238281 73.25 55.210938 72.679688 56.097656 71.714844 Z M 50.632812 55.839844 C 47.96875 55.929688 46.210938 56.835938 45.773438 57.476562 C 45.695312 57.585938 45.664062 57.6875 45.683594 57.742188 C 45.742188 57.84375 46.019531 57.992188 46.769531 57.980469 C 47.667969 57.933594 49.089844 57.105469 50.632812 55.839844 Z M 37.65625 40.90625 C 37.648438 40.46875 38.140625 40.132812 39.304688 39.777344 C 40.289062 39.484375 41.664062 39.214844 43.289062 38.992188 C 44.09375 38.890625 45.125 38.78125 46.289062 38.710938 C 47.0625 38.152344 47.855469 37.503906 48.652344 36.785156 C 51.761719 33.976562 54.003906 30.808594 54.371094 28.714844 C 55.144531 24.25 51.339844 19.589844 51.292969 19.546875 C 51.179688 19.410156 51.191406 19.199219 51.339844 19.085938 C 51.472656 18.976562 51.683594 18.988281 51.796875 19.132812 C 51.964844 19.332031 55.839844 24.070312 55.011719 28.828125 C 54.539062 31.523438 51.640625 34.949219 49.089844 37.269531 C 48.5625 37.738281 48.003906 38.21875 47.421875 38.667969 C 51.652344 38.554688 56.945312 39.195312 58.839844 42.71875 C 59.554688 44.0625 59.152344 46.125 57.664062 48.6875 C 56.332031 50.992188 54.316406 53.390625 52.324219 55.246094 C 52.582031 55.269531 52.847656 55.304688 53.117188 55.335938 C 55.949219 55.738281 57.976562 56.792969 59.152344 58.449219 C 60.292969 60.050781 60.609375 62.175781 60.09375 64.753906 C 59.679688 66.835938 58.78125 69.050781 57.695312 70.742188 C 58.378906 70.640625 59.050781 70.574219 59.667969 70.5625 C 61.785156 70.507812 64 71.078125 65.746094 72.117188 C 66.878906 72.789062 67.738281 73.597656 68.289062 74.492188 C 69.070312 73.664062 70.035156 72.757812 71.097656 71.894531 C 73.125 70.25 77.164062 67.4375 81.453125 67.011719 C 81.632812 66.992188 81.789062 67.125 81.8125 67.304688 C 81.832031 67.484375 81.699219 67.640625 81.519531 67.664062 C 77.402344 68.066406 73.480469 70.796875 71.511719 72.398438 C 70.3125 73.371094 69.339844 74.300781 68.613281 75.109375 C 68.769531 75.476562 68.871094 75.847656 68.925781 76.226562 C 69.136719 77.816406 68.644531 78.445312 68.332031 78.679688 C 68.140625 78.824219 67.917969 78.890625 67.683594 78.890625 C 67.515625 78.890625 67.347656 78.859375 67.191406 78.78125 C 66.71875 78.554688 66.394531 78.074219 66.351562 77.515625 C 66.316406 77.023438 66.886719 76.09375 67.828125 75.007812 C 66.609375 72.800781 63.203125 71.144531 59.679688 71.222656 C 58.839844 71.246094 57.976562 71.347656 57.160156 71.515625 C 55.917969 73.148438 54.574219 73.953125 53.253906 73.863281 C 52.960938 73.84375 52.066406 73.785156 52.078125 73.171875 C 52.089844 72.5 53.5 71.894531 54.675781 71.492188 C 55.355469 71.269531 56.0625 71.078125 56.777344 70.921875 C 58 69.253906 58.996094 66.902344 59.453125 64.640625 C 59.9375 62.246094 59.65625 60.285156 58.625 58.828125 C 57.5625 57.320312 55.683594 56.367188 53.027344 55.988281 C 52.546875 55.917969 52.089844 55.875 51.652344 55.851562 C 49.769531 57.488281 47.957031 58.59375 46.792969 58.628906 C 45.910156 58.652344 45.335938 58.460938 45.125 58.058594 C 45.035156 57.902344 44.933594 57.554688 45.25 57.117188 C 45.898438 56.175781 48.148438 55.113281 51.40625 55.203125 C 53.519531 53.320312 55.738281 50.746094 57.113281 48.375 C 58.457031 46.046875 58.871094 44.152344 58.277344 43.046875 C 56.398438 39.550781 50.511719 39.183594 46.503906 39.382812 C 44.398438 40.875 42.113281 42.015625 40.390625 41.890625 C 38.453125 41.734375 37.667969 41.457031 37.65625 40.90625 Z M 104.816406 37.949219 C 105.164062 37.726562 105.445312 37.503906 105.601562 37.300781 C 105.667969 37.210938 105.746094 37.078125 105.703125 36.976562 C 105.691406 36.933594 105.601562 36.707031 105.488281 36.707031 C 105.488281 36.707031 105.476562 36.707031 105.476562 36.707031 C 105.277344 36.742188 104.953125 37.144531 104.816406 37.949219 Z M 47.789062 16.367188 C 47.855469 16.199219 48.046875 16.121094 48.214844 16.1875 C 49.132812 16.570312 70.761719 25.511719 77.03125 31.683594 C 81.09375 35.691406 81.230469 38.722656 81.375 42.25 C 81.464844 44.289062 81.542969 46.390625 82.394531 48.957031 C 84.5 55.359375 92.097656 55.808594 95.347656 55.996094 C 95.59375 56.007812 95.816406 56.019531 96.007812 56.042969 C 96.867188 56.109375 97.429688 55.964844 97.550781 55.652344 C 97.695312 55.269531 97.304688 54.621094 96.957031 54.339844 C 96.398438 53.882812 96.128906 53.34375 96.253906 52.90625 C 96.375 52.492188 96.777344 52.234375 97.484375 52.148438 C 98.613281 52 101.390625 50.300781 102.019531 49.683594 C 101.953125 49.648438 101.871094 49.628906 101.816406 49.605469 C 101.492188 49.480469 101.121094 49.347656 101.078125 48.988281 C 101.035156 48.652344 101.347656 48.394531 101.582031 48.238281 C 102.511719 47.601562 104.234375 45.375 104.390625 44.769531 C 104.28125 44.734375 104.066406 44.722656 103.945312 44.714844 C 103.585938 44.691406 103.226562 44.667969 103.125 44.355469 C 103.027344 44.019531 103.363281 43.738281 103.742188 43.460938 C 104.515625 42.898438 104.449219 42.136719 104.269531 40.738281 C 104.203125 40.234375 104.132812 39.675781 104.113281 39.058594 C 102.835938 39.621094 101.246094 40 100.003906 39.957031 C 97.707031 39.875 96.699219 40.347656 96.53125 40.785156 C 96.363281 41.230469 96.074219 41.535156 95.714844 41.632812 C 95.480469 41.703125 95.089844 41.703125 94.628906 41.332031 C 94.351562 41.109375 94.082031 41.097656 93.667969 41.074219 C 93.285156 41.050781 92.804688 41.03125 92.234375 40.792969 C 91.292969 40.414062 91.125 39.550781 91.179688 38.96875 C 90.890625 38.980469 90.609375 38.957031 90.375 38.757812 C 90.308594 38.703125 90.195312 38.566406 90.21875 38.320312 C 90.320312 37.449219 92.570312 34.972656 93.039062 34.714844 C 93.542969 34.4375 93.980469 34.683594 94.214844 34.804688 C 94.226562 34.816406 94.25 34.828125 94.261719 34.828125 C 94.507812 34.660156 95.289062 33.941406 95.972656 32.710938 C 96.734375 31.355469 97.953125 29.554688 100.617188 27.652344 C 101.984375 26.675781 102.800781 25.246094 103.40625 24.191406 C 103.957031 23.230469 104.3125 22.601562 104.882812 22.636719 C 105.0625 22.648438 105.210938 22.738281 105.289062 22.871094 C 105.511719 23.261719 105.1875 23.933594 104.546875 25.199219 C 104.269531 25.738281 103.832031 26.609375 103.777344 26.96875 C 104.132812 26.890625 105.019531 26.308594 105.632812 25.917969 C 106.640625 25.265625 107.59375 24.652344 108.199219 24.628906 C 109.117188 24.59375 109.375 24.953125 109.507812 25.355469 C 109.5625 25.34375 109.632812 25.324219 109.6875 25.300781 C 110.113281 25.175781 110.738281 24.988281 111.164062 25.445312 C 111.445312 25.757812 111.433594 26.117188 111.367188 26.429688 C 111.511719 26.296875 111.667969 26.152344 111.804688 26.007812 C 113.226562 24.628906 114.480469 23.5 115.339844 23.621094 C 115.699219 23.675781 115.832031 23.890625 115.890625 24.011719 C 116.148438 24.652344 115.351562 25.757812 114.289062 27.136719 C 114.054688 27.4375 113.851562 27.707031 113.773438 27.84375 C 113.660156 28.019531 113.660156 28.257812 113.648438 28.535156 C 113.640625 29.074219 113.628906 29.757812 112.84375 30.40625 C 111.691406 31.367188 109.507812 31.515625 109.40625 31.515625 C 109.226562 31.523438 109.070312 31.390625 109.058594 31.210938 C 109.050781 31.03125 109.183594 30.875 109.363281 30.863281 C 109.386719 30.863281 111.433594 30.71875 112.417969 29.902344 C 112.976562 29.433594 112.988281 29.007812 112.988281 28.515625 C 113 28.179688 113 27.832031 113.203125 27.507812 C 113.304688 27.339844 113.503906 27.070312 113.761719 26.734375 C 114.164062 26.21875 115.375 24.640625 115.273438 24.257812 C 115.261719 24.257812 115.25 24.25 115.230469 24.25 C 114.613281 24.160156 113.066406 25.648438 112.238281 26.453125 C 111.9375 26.746094 111.679688 26.992188 111.476562 27.160156 C 111.277344 27.328125 110.941406 27.617188 110.671875 27.347656 C 110.4375 27.113281 110.539062 26.800781 110.628906 26.519531 C 110.726562 26.207031 110.785156 25.996094 110.660156 25.847656 C 110.515625 25.691406 110.136719 25.804688 109.855469 25.894531 C 109.550781 25.984375 109.261719 26.074219 109.050781 25.859375 C 108.949219 25.757812 108.902344 25.636719 108.882812 25.535156 C 108.824219 25.355469 108.78125 25.210938 108.210938 25.234375 C 107.785156 25.257812 106.777344 25.90625 105.96875 26.421875 C 104.527344 27.359375 103.742188 27.832031 103.292969 27.460938 C 102.859375 27.09375 103.214844 26.320312 103.957031 24.875 C 104.191406 24.417969 104.503906 23.789062 104.636719 23.410156 C 104.4375 23.65625 104.15625 24.136719 103.957031 24.496094 C 103.328125 25.589844 102.464844 27.101562 100.988281 28.15625 C 98.425781 29.980469 97.261719 31.714844 96.53125 33.015625 C 95.816406 34.277344 94.71875 35.476562 94.269531 35.476562 C 94.136719 35.476562 94.023438 35.410156 93.902344 35.34375 C 93.6875 35.21875 93.53125 35.152344 93.351562 35.253906 C 92.960938 35.464844 91.070312 37.648438 90.878906 38.285156 C 90.957031 38.308594 91.082031 38.308594 91.304688 38.296875 C 91.640625 38.277344 92.097656 38.253906 92.738281 38.398438 C 93.152344 38.488281 93.398438 38.589844 93.566406 38.65625 C 93.835938 38.769531 93.855469 38.769531 94.394531 38.542969 C 94.773438 38.386719 95.011719 38.199219 95.222656 38.03125 C 95.515625 37.792969 95.816406 37.546875 96.363281 37.617188 C 96.589844 37.636719 96.789062 37.695312 96.992188 37.738281 C 97.460938 37.851562 97.742188 37.90625 97.964844 37.726562 C 98.101562 37.617188 98.121094 37.535156 98.167969 37.402344 C 98.257812 37.101562 98.378906 36.832031 98.929688 36.5625 C 99.445312 36.304688 99.949219 36.273438 100.441406 36.238281 C 100.796875 36.214844 101.144531 36.195312 101.503906 36.082031 C 102.320312 35.835938 102.8125 35.386719 102.824219 35.386719 C 102.957031 35.265625 103.160156 35.277344 103.285156 35.410156 C 103.40625 35.542969 103.394531 35.746094 103.261719 35.867188 C 103.238281 35.890625 102.65625 36.417969 101.695312 36.707031 C 101.269531 36.84375 100.867188 36.867188 100.484375 36.886719 C 100.027344 36.921875 99.621094 36.945312 99.21875 37.144531 C 98.871094 37.3125 98.839844 37.425781 98.792969 37.59375 C 98.738281 37.761719 98.671875 37.996094 98.378906 38.230469 C 97.898438 38.621094 97.339844 38.488281 96.847656 38.367188 C 96.667969 38.320312 96.476562 38.277344 96.285156 38.253906 C 96.027344 38.21875 95.917969 38.296875 95.636719 38.523438 C 95.414062 38.703125 95.121094 38.9375 94.652344 39.125 C 94.261719 39.285156 94.023438 39.363281 93.824219 39.363281 C 93.667969 39.363281 93.519531 39.316406 93.332031 39.238281 C 93.175781 39.183594 92.960938 39.09375 92.601562 39.015625 C 92.3125 38.949219 92.066406 38.925781 91.84375 38.914062 C 91.796875 39.183594 91.773438 39.867188 92.480469 40.15625 C 92.960938 40.347656 93.34375 40.371094 93.710938 40.390625 C 94.171875 40.414062 94.605469 40.4375 95.042969 40.792969 C 95.179688 40.90625 95.378906 41.03125 95.546875 40.972656 C 95.691406 40.929688 95.839844 40.773438 95.929688 40.527344 C 96.128906 40.011719 96.925781 39.171875 100.027344 39.285156 C 101.3125 39.328125 102.9375 38.878906 104.125 38.320312 C 104.222656 36.964844 104.792969 36.160156 105.367188 36.058594 C 105.523438 36.027344 106.046875 35.992188 106.316406 36.742188 C 106.394531 36.945312 106.417969 37.269531 106.128906 37.671875 C 105.859375 38.039062 105.367188 38.398438 104.761719 38.722656 C 104.761719 38.769531 104.761719 38.824219 104.761719 38.871094 C 104.773438 39.507812 104.851562 40.101562 104.917969 40.625 C 105.097656 41.980469 105.242188 43.144531 104.132812 43.964844 C 104.089844 43.996094 104.054688 44.019531 104.023438 44.050781 C 104.371094 44.074219 104.761719 44.097656 104.960938 44.367188 C 105.050781 44.476562 105.074219 44.613281 105.050781 44.792969 C 104.917969 45.710938 102.878906 48.117188 101.960938 48.753906 C 101.882812 48.808594 101.839844 48.84375 101.804688 48.878906 C 101.882812 48.910156 101.996094 48.957031 102.0625 48.976562 C 102.320312 49.078125 102.601562 49.179688 102.734375 49.390625 C 102.78125 49.460938 102.835938 49.605469 102.746094 49.808594 C 102.410156 50.523438 98.960938 52.59375 97.585938 52.773438 C 97.125 52.828125 96.925781 52.964844 96.902344 53.074219 C 96.859375 53.222656 97.015625 53.523438 97.394531 53.824219 C 97.886719 54.21875 98.46875 55.148438 98.179688 55.875 C 97.964844 56.421875 97.359375 56.691406 96.398438 56.691406 C 96.265625 56.691406 96.117188 56.691406 95.972656 56.679688 C 95.78125 56.667969 95.558594 56.65625 95.324219 56.636719 C 91.941406 56.433594 84.039062 55.976562 81.789062 49.144531 C 80.914062 46.492188 80.824219 44.242188 80.738281 42.261719 C 80.589844 38.878906 80.480469 35.945312 76.59375 32.128906 C 70.402344 26.074219 48.191406 16.882812 47.96875 16.792969 C 47.800781 16.726562 47.722656 16.535156 47.789062 16.367188 Z M 109.910156 32.476562 C 109.464844 32.195312 108.523438 32.601562 108.007812 32.867188 C 107.851562 32.945312 107.785156 33.148438 107.875 33.304688 C 107.953125 33.460938 108.152344 33.527344 108.308594 33.441406 C 108.769531 33.203125 109.285156 33.023438 109.507812 33.015625 C 109.484375 33.105469 109.417969 33.226562 109.382812 33.304688 C 109.261719 33.5625 109.136719 33.84375 109.285156 34.078125 C 109.484375 34.402344 109.867188 34.257812 110.125 34.167969 C 110.222656 34.132812 110.425781 34.054688 110.515625 34.054688 C 110.515625 34.121094 110.425781 34.324219 110.371094 34.457031 C 110.203125 34.839844 109.96875 35.355469 110.054688 36.027344 C 110.078125 36.195312 110.214844 36.304688 110.382812 36.304688 C 110.390625 36.304688 110.402344 36.304688 110.425781 36.304688 C 110.605469 36.28125 110.726562 36.125 110.707031 35.945312 C 110.636719 35.453125 110.816406 35.0625 110.972656 34.726562 C 111.132812 34.378906 111.289062 34.023438 111.0625 33.6875 C 110.796875 33.292969 110.335938 33.40625 110.023438 33.519531 C 110.144531 33.238281 110.335938 32.746094 109.910156 32.476562 Z M 101.535156 34.703125 C 101.546875 34.703125 101.546875 34.703125 101.558594 34.703125 C 101.617188 34.703125 102.992188 34.605469 103.988281 34.078125 C 104.480469 33.820312 104.738281 33.527344 104.917969 33.316406 C 105.109375 33.09375 105.175781 33.035156 105.375 33.035156 C 106.058594 33.035156 106.550781 32.992188 106.574219 32.992188 C 106.753906 32.980469 106.886719 32.8125 106.867188 32.644531 C 106.855469 32.464844 106.699219 32.332031 106.519531 32.355469 C 106.519531 32.355469 106.027344 32.398438 105.375 32.398438 C 104.875 32.398438 104.648438 32.65625 104.425781 32.914062 C 104.257812 33.105469 104.078125 33.316406 103.6875 33.519531 C 102.8125 33.976562 101.527344 34.066406 101.515625 34.066406 C 101.335938 34.078125 101.199219 34.234375 101.210938 34.414062 C 101.222656 34.570312 101.367188 34.703125 101.535156 34.703125 Z M 95.246094 36.304688 L 95.132812 36.609375 Z M 97.058594 35.613281 C 97.304688 35.722656 97.429688 35.925781 97.394531 36.160156 C 97.339844 36.53125 96.902344 36.777344 96.5 36.84375 C 96.398438 36.855469 96.296875 36.875 96.195312 36.886719 C 95.917969 36.933594 95.636719 36.976562 95.402344 36.976562 C 95.257812 36.976562 95.132812 36.964844 95.019531 36.921875 C 94.785156 36.832031 94.742188 36.652344 94.730469 36.585938 C 94.71875 36.472656 94.742188 36.292969 94.964844 36.136719 C 95.300781 35.867188 96.601562 35.398438 97.058594 35.613281 Z M 100.6875 33.855469 C 100.742188 33.898438 100.820312 33.921875 100.886719 33.921875 C 100.988281 33.921875 101.078125 33.875 101.144531 33.796875 C 101.4375 33.429688 102.355469 32.421875 103.105469 32.21875 C 103.171875 32.195312 103.25 32.1875 103.316406 32.164062 C 103.316406 32.164062 103.316406 32.175781 103.328125 32.175781 C 103.40625 32.265625 103.550781 32.488281 103.53125 32.65625 C 103.53125 32.679688 103.519531 32.746094 103.394531 32.824219 C 102.871094 33.160156 101.984375 33.09375 101.972656 33.09375 C 101.792969 33.082031 101.636719 33.203125 101.625 33.382812 C 101.617188 33.5625 101.738281 33.71875 101.917969 33.730469 C 101.929688 33.730469 102.03125 33.742188 102.1875 33.742188 C 102.554688 33.742188 103.238281 33.695312 103.742188 33.359375 C 104.042969 33.171875 104.132812 32.914062 104.167969 32.734375 C 104.203125 32.476562 104.113281 32.230469 104.023438 32.039062 C 104.707031 31.960938 105.308594 31.972656 105.308594 31.972656 C 105.488281 31.972656 105.632812 31.839844 105.644531 31.660156 C 105.644531 31.480469 105.511719 31.335938 105.332031 31.324219 C 105.277344 31.324219 103.988281 31.289062 102.9375 31.570312 C 101.828125 31.859375 100.6875 33.316406 100.628906 33.371094 C 100.519531 33.539062 100.539062 33.742188 100.6875 33.855469 Z M 109.375 28.929688 C 109.273438 28.984375 106.964844 30.371094 104.714844 30.238281 C 102.902344 30.125 102.445312 30.6875 101.527344 31.816406 C 101.4375 31.929688 101.347656 32.039062 101.246094 32.152344 C 100.082031 33.550781 99.140625 33.976562 99.097656 34 C 99.050781 34.023438 99.007812 34.03125 98.960938 34.03125 C 98.839844 34.03125 98.714844 33.964844 98.671875 33.84375 C 98.59375 33.675781 98.671875 33.484375 98.828125 33.417969 C 98.839844 33.417969 99.691406 33.015625 100.742188 31.75 C 100.84375 31.636719 100.933594 31.523438 101.023438 31.414062 C 101.984375 30.238281 102.613281 29.464844 104.761719 29.601562 C 106.796875 29.722656 109.015625 28.402344 109.039062 28.378906 C 109.195312 28.289062 109.394531 28.335938 109.484375 28.492188 C 109.574219 28.636719 109.53125 28.839844 109.375 28.929688 " fill-opacity="1" fill-rule="nonzero"/></g></svg>