<svg xmlns="http://www.w3.org/2000/svg" xmlns:xlink="http://www.w3.org/1999/xlink" width="180" zoomAndPan="magnify" viewBox="0 0 135 161.249994" height="215" preserveAspectRatio="xMidYMid meet" version="1.0"><defs><g/><clipPath id="e1bba5d1a2"><path d="M 41.042969 20.941406 L 94 20.941406 L 94 79.171875 L 41.042969 79.171875 Z M 41.042969 20.941406 " clip-rule="nonzero"/></clipPath></defs><g fill="#0661aa" fill-opacity="1"><g transform="translate(26.085842, 94.182709)"><g><path d="M 0.796875 0 L 0.796875 -11.34375 L 7.953125 -11.34375 L 7.953125 -9.171875 L 3.421875 -9.171875 L 3.421875 -6.765625 L 7.328125 -6.765625 L 7.328125 -4.859375 L 3.421875 -4.859375 L 3.421875 -2.1875 L 8.125 -2.1875 L 8.125 0 Z M 0.796875 0 "/></g></g></g><g fill="#0661aa" fill-opacity="1"><g transform="translate(36.435644, 94.182709)"><g><path d="M 0.078125 0 L 2.71875 -4.234375 L 0.21875 -8.15625 L 2.890625 -8.15625 L 4.3125 -5.5625 L 5.734375 -8.15625 L 8.421875 -8.15625 L 5.90625 -4.234375 L 8.546875 0 L 5.796875 0 L 4.3125 -2.734375 L 2.8125 0 Z M 0.078125 0 "/></g></g></g><g fill="#0661aa" fill-opacity="1"><g transform="translate(46.944671, 94.182709)"><g><path d="M 0.609375 3.34375 L 0.609375 -8.15625 L 2.671875 -8.15625 L 2.984375 -6.734375 L 3 -6.734375 C 3.226562 -7.265625 3.5625 -7.671875 4 -7.953125 C 4.445312 -8.234375 4.945312 -8.375 5.5 -8.375 C 6.144531 -8.375 6.703125 -8.195312 7.171875 -7.84375 C 7.648438 -7.5 8.019531 -7.003906 8.28125 -6.359375 C 8.550781 -5.710938 8.6875 -4.953125 8.6875 -4.078125 C 8.6875 -3.203125 8.550781 -2.441406 8.28125 -1.796875 C 8.019531 -1.148438 7.648438 -0.648438 7.171875 -0.296875 C 6.703125 0.046875 6.144531 0.21875 5.5 0.21875 C 4.957031 0.21875 4.472656 0.0820312 4.046875 -0.1875 C 3.617188 -0.46875 3.285156 -0.867188 3.046875 -1.390625 L 3.03125 -1.390625 L 3.03125 3.34375 Z M 4.59375 -1.859375 C 5.09375 -1.859375 5.492188 -2.0625 5.796875 -2.46875 C 6.097656 -2.875 6.25 -3.410156 6.25 -4.078125 C 6.25 -4.753906 6.097656 -5.289062 5.796875 -5.6875 C 5.492188 -6.09375 5.09375 -6.296875 4.59375 -6.296875 C 4.101562 -6.296875 3.703125 -6.09375 3.390625 -5.6875 C 3.078125 -5.28125 2.921875 -4.742188 2.921875 -4.078125 C 2.921875 -3.410156 3.078125 -2.875 3.390625 -2.46875 C 3.703125 -2.0625 4.101562 -1.859375 4.59375 -1.859375 Z M 4.59375 -1.859375 "/></g></g></g><g fill="#0661aa" fill-opacity="1"><g transform="translate(57.867674, 94.182709)"><g><path d="M 2.8125 0.1875 C 2.039062 0.1875 1.414062 -0.015625 0.9375 -0.421875 C 0.457031 -0.835938 0.21875 -1.398438 0.21875 -2.109375 C 0.21875 -2.847656 0.5 -3.445312 1.0625 -3.90625 C 1.632812 -4.363281 2.46875 -4.65625 3.5625 -4.78125 L 4.828125 -4.921875 C 5.003906 -4.941406 5.144531 -5.003906 5.25 -5.109375 C 5.363281 -5.210938 5.421875 -5.367188 5.421875 -5.578125 C 5.421875 -5.929688 5.3125 -6.203125 5.09375 -6.390625 C 4.875 -6.585938 4.582031 -6.6875 4.21875 -6.6875 C 3.800781 -6.6875 3.460938 -6.539062 3.203125 -6.25 C 2.953125 -5.96875 2.816406 -5.609375 2.796875 -5.171875 L 0.5 -5.515625 C 0.519531 -6.085938 0.6875 -6.59375 1 -7.03125 C 1.3125 -7.46875 1.738281 -7.8125 2.28125 -8.0625 C 2.832031 -8.3125 3.472656 -8.4375 4.203125 -8.4375 C 5.316406 -8.4375 6.195312 -8.144531 6.84375 -7.5625 C 7.488281 -6.976562 7.8125 -6.1875 7.8125 -5.1875 L 7.8125 -2.03125 C 7.8125 -1.675781 7.945312 -1.5 8.21875 -1.5 C 8.425781 -1.5 8.628906 -1.601562 8.828125 -1.8125 L 9.34375 -0.515625 C 9.09375 -0.265625 8.785156 -0.0820312 8.421875 0.03125 C 8.054688 0.144531 7.703125 0.203125 7.359375 0.203125 C 6.867188 0.203125 6.457031 0.078125 6.125 -0.171875 C 5.789062 -0.421875 5.582031 -0.734375 5.5 -1.109375 L 5.46875 -1.328125 L 5.4375 -1.328125 C 5.195312 -0.859375 4.847656 -0.488281 4.390625 -0.21875 C 3.929688 0.0507812 3.40625 0.1875 2.8125 0.1875 Z M 3.828125 -1.515625 C 4.273438 -1.515625 4.644531 -1.675781 4.9375 -2 C 5.238281 -2.320312 5.390625 -2.742188 5.390625 -3.265625 L 5.390625 -3.640625 L 4.203125 -3.515625 C 3.648438 -3.453125 3.253906 -3.316406 3.015625 -3.109375 C 2.773438 -2.910156 2.65625 -2.675781 2.65625 -2.40625 C 2.65625 -2.132812 2.765625 -1.914062 2.984375 -1.75 C 3.203125 -1.59375 3.484375 -1.515625 3.828125 -1.515625 Z M 3.828125 -1.515625 "/></g></g></g><g fill="#0661aa" fill-opacity="1"><g transform="translate(69.09319, 94.182709)"><g><path d="M 5.5625 -8.359375 C 6.3125 -8.359375 6.90625 -8.128906 7.34375 -7.671875 C 7.78125 -7.222656 8 -6.597656 8 -5.796875 L 8 0 L 5.5625 0 L 5.5625 -5.171875 C 5.5625 -5.554688 5.460938 -5.851562 5.265625 -6.0625 C 5.078125 -6.28125 4.8125 -6.390625 4.46875 -6.390625 C 4.039062 -6.390625 3.691406 -6.25 3.421875 -5.96875 C 3.160156 -5.6875 3.03125 -5.296875 3.03125 -4.796875 L 3.03125 0 L 0.609375 0 L 0.609375 -8.15625 L 2.609375 -8.15625 L 2.953125 -6.765625 L 2.96875 -6.765625 C 3.207031 -7.273438 3.554688 -7.664062 4.015625 -7.9375 C 4.472656 -8.21875 4.988281 -8.359375 5.5625 -8.359375 Z M 5.5625 -8.359375 "/></g></g></g><g fill="#0661aa" fill-opacity="1"><g transform="translate(79.522605, 94.182709)"><g><path d="M 3.953125 0.25 C 3.285156 0.25 2.675781 0.148438 2.125 -0.046875 C 1.582031 -0.253906 1.140625 -0.566406 0.796875 -0.984375 C 0.460938 -1.398438 0.28125 -1.914062 0.25 -2.53125 L 2.40625 -2.796875 C 2.425781 -2.347656 2.585938 -1.992188 2.890625 -1.734375 C 3.191406 -1.484375 3.570312 -1.359375 4.03125 -1.359375 C 4.394531 -1.359375 4.703125 -1.4375 4.953125 -1.59375 C 5.210938 -1.75 5.34375 -1.957031 5.34375 -2.21875 C 5.34375 -2.457031 5.234375 -2.65625 5.015625 -2.8125 C 4.796875 -2.96875 4.4375 -3.101562 3.9375 -3.21875 L 2.859375 -3.484375 C 2.066406 -3.679688 1.492188 -3.960938 1.140625 -4.328125 C 0.785156 -4.703125 0.609375 -5.195312 0.609375 -5.8125 C 0.609375 -6.613281 0.90625 -7.242188 1.5 -7.703125 C 2.101562 -8.171875 2.882812 -8.40625 3.84375 -8.40625 C 4.414062 -8.40625 4.9375 -8.304688 5.40625 -8.109375 C 5.882812 -7.921875 6.273438 -7.644531 6.578125 -7.28125 C 6.878906 -6.914062 7.054688 -6.457031 7.109375 -5.90625 L 5 -5.65625 C 4.976562 -6.03125 4.851562 -6.316406 4.625 -6.515625 C 4.394531 -6.722656 4.101562 -6.828125 3.75 -6.828125 C 3.445312 -6.828125 3.195312 -6.75 3 -6.59375 C 2.800781 -6.445312 2.703125 -6.257812 2.703125 -6.03125 C 2.703125 -5.8125 2.800781 -5.628906 3 -5.484375 C 3.207031 -5.335938 3.535156 -5.203125 3.984375 -5.078125 L 5.078125 -4.8125 C 5.941406 -4.59375 6.570312 -4.289062 6.96875 -3.90625 C 7.375 -3.53125 7.582031 -3.035156 7.59375 -2.421875 C 7.59375 -1.867188 7.4375 -1.390625 7.125 -0.984375 C 6.8125 -0.585938 6.378906 -0.28125 5.828125 -0.0625 C 5.285156 0.144531 4.660156 0.25 3.953125 0.25 Z M 3.953125 0.25 "/></g></g></g><g fill="#0661aa" fill-opacity="1"><g transform="translate(89.251443, 94.182709)"><g><path d="M 5.265625 -9.390625 C 4.972656 -9.390625 4.726562 -9.484375 4.53125 -9.671875 C 4.34375 -9.859375 4.171875 -10.054688 4.015625 -10.265625 C 3.878906 -10.472656 3.738281 -10.65625 3.59375 -10.8125 C 3.457031 -10.976562 3.300781 -11.0625 3.125 -11.0625 C 2.90625 -11.0625 2.726562 -10.914062 2.59375 -10.625 C 2.457031 -10.34375 2.390625 -9.984375 2.390625 -9.546875 L 1.765625 -9.546875 C 1.765625 -10.171875 1.882812 -10.679688 2.125 -11.078125 C 2.375 -11.472656 2.710938 -11.671875 3.140625 -11.671875 C 3.441406 -11.671875 3.6875 -11.570312 3.875 -11.375 C 4.070312 -11.1875 4.242188 -10.988281 4.390625 -10.78125 C 4.546875 -10.582031 4.6875 -10.398438 4.8125 -10.234375 C 4.9375 -10.078125 5.082031 -10 5.25 -10 C 5.488281 -10 5.675781 -10.140625 5.8125 -10.421875 C 5.957031 -10.710938 6.03125 -11.082031 6.03125 -11.53125 L 6.65625 -11.53125 C 6.65625 -10.914062 6.523438 -10.40625 6.265625 -10 C 6.015625 -9.59375 5.679688 -9.390625 5.265625 -9.390625 Z M 2.8125 0.1875 C 2.039062 0.1875 1.414062 -0.015625 0.9375 -0.421875 C 0.457031 -0.835938 0.21875 -1.398438 0.21875 -2.109375 C 0.21875 -2.847656 0.5 -3.445312 1.0625 -3.90625 C 1.632812 -4.363281 2.46875 -4.65625 3.5625 -4.78125 L 4.828125 -4.921875 C 5.003906 -4.941406 5.144531 -5.003906 5.25 -5.109375 C 5.363281 -5.210938 5.421875 -5.367188 5.421875 -5.578125 C 5.421875 -5.929688 5.3125 -6.203125 5.09375 -6.390625 C 4.875 -6.585938 4.582031 -6.6875 4.21875 -6.6875 C 3.800781 -6.6875 3.460938 -6.539062 3.203125 -6.25 C 2.953125 -5.96875 2.816406 -5.609375 2.796875 -5.171875 L 0.5 -5.515625 C 0.519531 -6.085938 0.6875 -6.59375 1 -7.03125 C 1.3125 -7.46875 1.738281 -7.8125 2.28125 -8.0625 C 2.832031 -8.3125 3.472656 -8.4375 4.203125 -8.4375 C 5.316406 -8.4375 6.195312 -8.144531 6.84375 -7.5625 C 7.488281 -6.976562 7.8125 -6.1875 7.8125 -5.1875 L 7.8125 -2.03125 C 7.8125 -1.675781 7.945312 -1.5 8.21875 -1.5 C 8.425781 -1.5 8.628906 -1.601562 8.828125 -1.8125 L 9.34375 -0.515625 C 9.09375 -0.265625 8.785156 -0.0820312 8.421875 0.03125 C 8.054688 0.144531 7.703125 0.203125 7.359375 0.203125 C 6.867188 0.203125 6.457031 0.078125 6.125 -0.171875 C 5.789062 -0.421875 5.582031 -0.734375 5.5 -1.109375 L 5.46875 -1.328125 L 5.4375 -1.328125 C 5.195312 -0.859375 4.847656 -0.488281 4.390625 -0.21875 C 3.929688 0.0507812 3.40625 0.1875 2.8125 0.1875 Z M 3.828125 -1.515625 C 4.273438 -1.515625 4.644531 -1.675781 4.9375 -2 C 5.238281 -2.320312 5.390625 -2.742188 5.390625 -3.265625 L 5.390625 -3.640625 L 4.203125 -3.515625 C 3.648438 -3.453125 3.253906 -3.316406 3.015625 -3.109375 C 2.773438 -2.910156 2.65625 -2.675781 2.65625 -2.40625 C 2.65625 -2.132812 2.765625 -1.914062 2.984375 -1.75 C 3.203125 -1.59375 3.484375 -1.515625 3.828125 -1.515625 Z M 3.828125 -1.515625 "/></g></g></g><g fill="#0661aa" fill-opacity="1"><g transform="translate(99.951488, 94.182709)"><g><path d="M 4.46875 0.265625 C 3.632812 0.265625 2.90625 0.0859375 2.28125 -0.265625 C 1.664062 -0.617188 1.1875 -1.117188 0.84375 -1.765625 C 0.5 -2.421875 0.328125 -3.191406 0.328125 -4.078125 C 0.328125 -4.960938 0.5 -5.734375 0.84375 -6.390625 C 1.1875 -7.046875 1.664062 -7.550781 2.28125 -7.90625 C 2.90625 -8.257812 3.632812 -8.4375 4.46875 -8.4375 C 5.3125 -8.4375 6.039062 -8.257812 6.65625 -7.90625 C 7.269531 -7.550781 7.742188 -7.046875 8.078125 -6.390625 C 8.421875 -5.734375 8.59375 -4.960938 8.59375 -4.078125 C 8.59375 -3.191406 8.421875 -2.421875 8.078125 -1.765625 C 7.742188 -1.117188 7.269531 -0.617188 6.65625 -0.265625 C 6.039062 0.0859375 5.3125 0.265625 4.46875 0.265625 Z M 4.46875 -1.765625 C 5 -1.765625 5.414062 -1.96875 5.71875 -2.375 C 6.019531 -2.789062 6.171875 -3.359375 6.171875 -4.078125 C 6.171875 -4.796875 6.019531 -5.359375 5.71875 -5.765625 C 5.414062 -6.179688 5 -6.390625 4.46875 -6.390625 C 3.9375 -6.390625 3.515625 -6.179688 3.203125 -5.765625 C 2.898438 -5.359375 2.75 -4.796875 2.75 -4.078125 C 2.75 -3.359375 2.898438 -2.789062 3.203125 -2.375 C 3.515625 -1.96875 3.9375 -1.765625 4.46875 -1.765625 Z M 4.46875 -1.765625 "/></g></g></g><g fill="#0661aa" fill-opacity="1"><g transform="translate(18.212307, 113.592429)"><g><path d="M 0.796875 0 L 0.796875 -11.34375 L 5.671875 -11.34375 C 6.515625 -11.34375 7.25 -11.1875 7.875 -10.875 C 8.5 -10.5625 8.976562 -10.125 9.3125 -9.5625 C 9.65625 -9.007812 9.828125 -8.359375 9.828125 -7.609375 C 9.828125 -6.859375 9.660156 -6.203125 9.328125 -5.640625 C 8.992188 -5.078125 8.519531 -4.644531 7.90625 -4.34375 C 7.289062 -4.039062 6.570312 -3.890625 5.75 -3.890625 L 3.5 -3.890625 L 3.5 0 Z M 3.5 -5.90625 L 5.234375 -5.90625 C 5.796875 -5.90625 6.242188 -6.054688 6.578125 -6.359375 C 6.921875 -6.671875 7.09375 -7.085938 7.09375 -7.609375 C 7.09375 -8.128906 6.921875 -8.546875 6.578125 -8.859375 C 6.242188 -9.171875 5.796875 -9.328125 5.234375 -9.328125 L 3.5 -9.328125 Z M 3.5 -5.90625 "/></g></g></g><g fill="#0661aa" fill-opacity="1"><g transform="translate(30.186163, 113.592429)"><g><path d="M 3 0.203125 C 2.25 0.203125 1.65625 -0.0195312 1.21875 -0.46875 C 0.78125 -0.914062 0.5625 -1.546875 0.5625 -2.359375 L 0.5625 -8.15625 L 3 -8.15625 L 3 -2.984375 C 3 -2.597656 3.09375 -2.296875 3.28125 -2.078125 C 3.476562 -1.867188 3.742188 -1.765625 4.078125 -1.765625 C 4.515625 -1.765625 4.863281 -1.90625 5.125 -2.1875 C 5.394531 -2.476562 5.53125 -2.867188 5.53125 -3.359375 L 5.53125 -8.15625 L 7.9375 -8.15625 L 7.9375 0 L 5.9375 0 L 5.609375 -1.390625 L 5.59375 -1.390625 C 5.34375 -0.878906 4.988281 -0.484375 4.53125 -0.203125 C 4.082031 0.0664062 3.570312 0.203125 3 0.203125 Z M 3 0.203125 "/></g></g></g><g fill="#0661aa" fill-opacity="1"><g transform="translate(40.615577, 113.592429)"><g><path d="M 0.609375 0 L 0.609375 -11.8125 L 3.03125 -11.8125 L 3.03125 0 Z M 0.609375 0 "/></g></g></g><g fill="#0661aa" fill-opacity="1"><g transform="translate(46.125069, 113.592429)"><g><path d="M 0.609375 0 L 0.609375 -8.15625 L 2.546875 -8.15625 L 2.875 -6.6875 L 2.890625 -6.6875 C 3.109375 -7.21875 3.441406 -7.628906 3.890625 -7.921875 C 4.347656 -8.222656 4.863281 -8.375 5.4375 -8.375 C 6.039062 -8.375 6.535156 -8.222656 6.921875 -7.921875 C 7.316406 -7.628906 7.597656 -7.207031 7.765625 -6.65625 L 7.78125 -6.65625 C 8.050781 -7.21875 8.414062 -7.644531 8.875 -7.9375 C 9.34375 -8.226562 9.863281 -8.375 10.4375 -8.375 C 11.195312 -8.375 11.78125 -8.128906 12.1875 -7.640625 C 12.601562 -7.160156 12.8125 -6.492188 12.8125 -5.640625 L 12.8125 0 L 10.375 0 L 10.375 -5.125 C 10.375 -5.5 10.28125 -5.789062 10.09375 -6 C 9.90625 -6.207031 9.632812 -6.3125 9.28125 -6.3125 C 8.851562 -6.3125 8.519531 -6.160156 8.28125 -5.859375 C 8.039062 -5.554688 7.921875 -5.15625 7.921875 -4.65625 L 7.921875 0 L 5.5 0 L 5.5 -5.125 C 5.5 -5.5 5.398438 -5.789062 5.203125 -6 C 5.015625 -6.207031 4.742188 -6.3125 4.390625 -6.3125 C 3.960938 -6.3125 3.628906 -6.160156 3.390625 -5.859375 C 3.148438 -5.554688 3.03125 -5.15625 3.03125 -4.65625 L 3.03125 0 Z M 0.609375 0 "/></g></g></g><g fill="#0661aa" fill-opacity="1"><g transform="translate(61.378881, 113.592429)"><g><path d="M 4.46875 0.265625 C 3.632812 0.265625 2.90625 0.0859375 2.28125 -0.265625 C 1.664062 -0.617188 1.1875 -1.117188 0.84375 -1.765625 C 0.5 -2.421875 0.328125 -3.191406 0.328125 -4.078125 C 0.328125 -4.960938 0.5 -5.734375 0.84375 -6.390625 C 1.1875 -7.046875 1.664062 -7.550781 2.28125 -7.90625 C 2.90625 -8.257812 3.632812 -8.4375 4.46875 -8.4375 C 5.3125 -8.4375 6.039062 -8.257812 6.65625 -7.90625 C 7.269531 -7.550781 7.742188 -7.046875 8.078125 -6.390625 C 8.421875 -5.734375 8.59375 -4.960938 8.59375 -4.078125 C 8.59375 -3.191406 8.421875 -2.421875 8.078125 -1.765625 C 7.742188 -1.117188 7.269531 -0.617188 6.65625 -0.265625 C 6.039062 0.0859375 5.3125 0.265625 4.46875 0.265625 Z M 4.46875 -1.765625 C 5 -1.765625 5.414062 -1.96875 5.71875 -2.375 C 6.019531 -2.789062 6.171875 -3.359375 6.171875 -4.078125 C 6.171875 -4.796875 6.019531 -5.359375 5.71875 -5.765625 C 5.414062 -6.179688 5 -6.390625 4.46875 -6.390625 C 3.9375 -6.390625 3.515625 -6.179688 3.203125 -5.765625 C 2.898438 -5.359375 2.75 -4.796875 2.75 -4.078125 C 2.75 -3.359375 2.898438 -2.789062 3.203125 -2.375 C 3.515625 -1.96875 3.9375 -1.765625 4.46875 -1.765625 Z M 4.46875 -1.765625 "/></g></g></g><g fill="#0661aa" fill-opacity="1"><g transform="translate(72.206346, 113.592429)"><g><path d="M 5.5625 -8.359375 C 6.3125 -8.359375 6.90625 -8.128906 7.34375 -7.671875 C 7.78125 -7.222656 8 -6.597656 8 -5.796875 L 8 0 L 5.5625 0 L 5.5625 -5.171875 C 5.5625 -5.554688 5.460938 -5.851562 5.265625 -6.0625 C 5.078125 -6.28125 4.8125 -6.390625 4.46875 -6.390625 C 4.039062 -6.390625 3.691406 -6.25 3.421875 -5.96875 C 3.160156 -5.6875 3.03125 -5.296875 3.03125 -4.796875 L 3.03125 0 L 0.609375 0 L 0.609375 -8.15625 L 2.609375 -8.15625 L 2.953125 -6.765625 L 2.96875 -6.765625 C 3.207031 -7.273438 3.554688 -7.664062 4.015625 -7.9375 C 4.472656 -8.21875 4.988281 -8.359375 5.5625 -8.359375 Z M 5.5625 -8.359375 "/></g></g></g><g fill="#0661aa" fill-opacity="1"><g transform="translate(82.635761, 113.592429)"><g><path d="M 2.8125 0.1875 C 2.039062 0.1875 1.414062 -0.015625 0.9375 -0.421875 C 0.457031 -0.835938 0.21875 -1.398438 0.21875 -2.109375 C 0.21875 -2.847656 0.5 -3.445312 1.0625 -3.90625 C 1.632812 -4.363281 2.46875 -4.65625 3.5625 -4.78125 L 4.828125 -4.921875 C 5.003906 -4.941406 5.144531 -5.003906 5.25 -5.109375 C 5.363281 -5.210938 5.421875 -5.367188 5.421875 -5.578125 C 5.421875 -5.929688 5.3125 -6.203125 5.09375 -6.390625 C 4.875 -6.585938 4.582031 -6.6875 4.21875 -6.6875 C 3.800781 -6.6875 3.460938 -6.539062 3.203125 -6.25 C 2.953125 -5.96875 2.816406 -5.609375 2.796875 -5.171875 L 0.5 -5.515625 C 0.519531 -6.085938 0.6875 -6.59375 1 -7.03125 C 1.3125 -7.46875 1.738281 -7.8125 2.28125 -8.0625 C 2.832031 -8.3125 3.472656 -8.4375 4.203125 -8.4375 C 5.316406 -8.4375 6.195312 -8.144531 6.84375 -7.5625 C 7.488281 -6.976562 7.8125 -6.1875 7.8125 -5.1875 L 7.8125 -2.03125 C 7.8125 -1.675781 7.945312 -1.5 8.21875 -1.5 C 8.425781 -1.5 8.628906 -1.601562 8.828125 -1.8125 L 9.34375 -0.515625 C 9.09375 -0.265625 8.785156 -0.0820312 8.421875 0.03125 C 8.054688 0.144531 7.703125 0.203125 7.359375 0.203125 C 6.867188 0.203125 6.457031 0.078125 6.125 -0.171875 C 5.789062 -0.421875 5.582031 -0.734375 5.5 -1.109375 L 5.46875 -1.328125 L 5.4375 -1.328125 C 5.195312 -0.859375 4.847656 -0.488281 4.390625 -0.21875 C 3.929688 0.0507812 3.40625 0.1875 2.8125 0.1875 Z M 3.828125 -1.515625 C 4.273438 -1.515625 4.644531 -1.675781 4.9375 -2 C 5.238281 -2.320312 5.390625 -2.742188 5.390625 -3.265625 L 5.390625 -3.640625 L 4.203125 -3.515625 C 3.648438 -3.453125 3.253906 -3.316406 3.015625 -3.109375 C 2.773438 -2.910156 2.65625 -2.675781 2.65625 -2.40625 C 2.65625 -2.132812 2.765625 -1.914062 2.984375 -1.75 C 3.203125 -1.59375 3.484375 -1.515625 3.828125 -1.515625 Z M 3.828125 -1.515625 "/></g></g></g><g fill="#0661aa" fill-opacity="1"><g transform="translate(93.861277, 113.592429)"><g><path d="M 5 -8.375 C 5.664062 -8.375 6.203125 -8.125 6.609375 -7.625 C 7.015625 -7.125 7.238281 -6.421875 7.28125 -5.515625 L 5.21875 -4.953125 C 5.207031 -5.484375 5.113281 -5.882812 4.9375 -6.15625 C 4.757812 -6.425781 4.519531 -6.5625 4.21875 -6.5625 C 3.851562 -6.5625 3.5625 -6.378906 3.34375 -6.015625 C 3.132812 -5.660156 3.03125 -5.160156 3.03125 -4.515625 L 3.03125 0 L 0.609375 0 L 0.609375 -8.15625 L 2.5625 -8.15625 L 2.890625 -6.75 L 2.90625 -6.75 C 3.09375 -7.257812 3.367188 -7.65625 3.734375 -7.9375 C 4.109375 -8.226562 4.53125 -8.375 5 -8.375 Z M 5 -8.375 "/></g></g></g><g fill="#0661aa" fill-opacity="1"><g transform="translate(103.239839, 113.592429)"><g/></g></g><g fill="#0661aa" fill-opacity="1"><g transform="translate(108.080593, 113.592429)"><g><path d="M 4.765625 0.265625 C 3.878906 0.265625 3.101562 0.0859375 2.4375 -0.265625 C 1.769531 -0.628906 1.25 -1.140625 0.875 -1.796875 C 0.507812 -2.460938 0.328125 -3.238281 0.328125 -4.125 C 0.328125 -4.988281 0.492188 -5.742188 0.828125 -6.390625 C 1.171875 -7.035156 1.644531 -7.535156 2.25 -7.890625 C 2.851562 -8.253906 3.5625 -8.4375 4.375 -8.4375 C 5.164062 -8.4375 5.847656 -8.265625 6.421875 -7.921875 C 6.992188 -7.578125 7.441406 -7.09375 7.765625 -6.46875 C 8.085938 -5.851562 8.25 -5.125 8.25 -4.28125 C 8.25 -4.113281 8.238281 -3.953125 8.21875 -3.796875 C 8.207031 -3.640625 8.1875 -3.507812 8.15625 -3.40625 L 2.765625 -3.40625 C 2.816406 -2.8125 3.023438 -2.34375 3.390625 -2 C 3.753906 -1.65625 4.21875 -1.484375 4.78125 -1.484375 C 5.207031 -1.484375 5.585938 -1.585938 5.921875 -1.796875 C 6.265625 -2.015625 6.519531 -2.304688 6.6875 -2.671875 L 8.390625 -1.921875 C 8.160156 -1.242188 7.707031 -0.707031 7.03125 -0.3125 C 6.363281 0.0703125 5.609375 0.265625 4.765625 0.265625 Z M 2.765625 -4.796875 L 5.828125 -4.796875 C 5.796875 -5.390625 5.648438 -5.847656 5.390625 -6.171875 C 5.140625 -6.503906 4.796875 -6.671875 4.359375 -6.671875 C 3.898438 -6.671875 3.53125 -6.503906 3.25 -6.171875 C 2.976562 -5.835938 2.816406 -5.378906 2.765625 -4.796875 Z M 2.765625 -4.796875 "/></g></g></g><g fill="#0661aa" fill-opacity="1"><g transform="translate(19.367092, 133.00215)"><g><path d="M 0.796875 0 L 0.796875 -11.34375 L 4.421875 -11.34375 L 7.296875 -3.078125 L 7.328125 -3.078125 L 10.203125 -11.34375 L 13.796875 -11.34375 L 13.796875 0 L 11.328125 0 L 11.328125 -8.09375 L 11.28125 -8.09375 L 8.40625 0 L 6.1875 0 L 3.3125 -8.078125 L 3.28125 -8.078125 L 3.28125 0 Z M 0.796875 0 "/></g></g></g><g fill="#0661aa" fill-opacity="1"><g transform="translate(35.846906, 133.00215)"><g><path d="M 4.46875 0.265625 C 3.632812 0.265625 2.90625 0.0859375 2.28125 -0.265625 C 1.664062 -0.617188 1.1875 -1.117188 0.84375 -1.765625 C 0.5 -2.421875 0.328125 -3.191406 0.328125 -4.078125 C 0.328125 -4.960938 0.5 -5.734375 0.84375 -6.390625 C 1.1875 -7.046875 1.664062 -7.550781 2.28125 -7.90625 C 2.90625 -8.257812 3.632812 -8.4375 4.46875 -8.4375 C 5.3125 -8.4375 6.039062 -8.257812 6.65625 -7.90625 C 7.269531 -7.550781 7.742188 -7.046875 8.078125 -6.390625 C 8.421875 -5.734375 8.59375 -4.960938 8.59375 -4.078125 C 8.59375 -3.191406 8.421875 -2.421875 8.078125 -1.765625 C 7.742188 -1.117188 7.269531 -0.617188 6.65625 -0.265625 C 6.039062 0.0859375 5.3125 0.265625 4.46875 0.265625 Z M 4.46875 -1.765625 C 5 -1.765625 5.414062 -1.96875 5.71875 -2.375 C 6.019531 -2.789062 6.171875 -3.359375 6.171875 -4.078125 C 6.171875 -4.796875 6.019531 -5.359375 5.71875 -5.765625 C 5.414062 -6.179688 5 -6.390625 4.46875 -6.390625 C 3.9375 -6.390625 3.515625 -6.179688 3.203125 -5.765625 C 2.898438 -5.359375 2.75 -4.796875 2.75 -4.078125 C 2.75 -3.359375 2.898438 -2.789062 3.203125 -2.375 C 3.515625 -1.96875 3.9375 -1.765625 4.46875 -1.765625 Z M 4.46875 -1.765625 "/></g></g></g><g fill="#0661aa" fill-opacity="1"><g transform="translate(46.674371, 133.00215)"><g><path d="M 5.5 0.21875 C 4.945312 0.21875 4.445312 0.078125 4 -0.203125 C 3.5625 -0.484375 3.226562 -0.890625 3 -1.421875 L 2.984375 -1.421875 L 2.671875 0 L 0.609375 0 L 0.609375 -11.8125 L 3.03125 -11.8125 L 3.03125 -6.765625 L 3.046875 -6.765625 C 3.285156 -7.285156 3.617188 -7.679688 4.046875 -7.953125 C 4.472656 -8.234375 4.957031 -8.375 5.5 -8.375 C 6.144531 -8.375 6.703125 -8.195312 7.171875 -7.84375 C 7.648438 -7.5 8.019531 -7.003906 8.28125 -6.359375 C 8.550781 -5.710938 8.6875 -4.953125 8.6875 -4.078125 C 8.6875 -3.203125 8.550781 -2.441406 8.28125 -1.796875 C 8.019531 -1.148438 7.648438 -0.648438 7.171875 -0.296875 C 6.703125 0.046875 6.144531 0.21875 5.5 0.21875 Z M 4.59375 -1.859375 C 5.09375 -1.859375 5.492188 -2.0625 5.796875 -2.46875 C 6.097656 -2.875 6.25 -3.410156 6.25 -4.078125 C 6.25 -4.742188 6.097656 -5.28125 5.796875 -5.6875 C 5.492188 -6.09375 5.09375 -6.296875 4.59375 -6.296875 C 4.101562 -6.296875 3.703125 -6.09375 3.390625 -5.6875 C 3.078125 -5.28125 2.921875 -4.742188 2.921875 -4.078125 C 2.921875 -3.410156 3.078125 -2.875 3.390625 -2.46875 C 3.703125 -2.0625 4.101562 -1.859375 4.59375 -1.859375 Z M 4.59375 -1.859375 "/></g></g></g><g fill="#0661aa" fill-opacity="1"><g transform="translate(57.597374, 133.00215)"><g><path d="M 1.875 -9.265625 C 1.4375 -9.265625 1.085938 -9.390625 0.828125 -9.640625 C 0.578125 -9.898438 0.453125 -10.238281 0.453125 -10.65625 C 0.453125 -11.070312 0.578125 -11.40625 0.828125 -11.65625 C 1.085938 -11.914062 1.4375 -12.046875 1.875 -12.046875 C 2.3125 -12.046875 2.660156 -11.914062 2.921875 -11.65625 C 3.179688 -11.40625 3.3125 -11.070312 3.3125 -10.65625 C 3.3125 -10.238281 3.179688 -9.898438 2.921875 -9.640625 C 2.660156 -9.390625 2.3125 -9.265625 1.875 -9.265625 Z M 0.65625 0 L 0.65625 -8.15625 L 3.09375 -8.15625 L 3.09375 0 Z M 0.65625 0 "/></g></g></g><g fill="#0661aa" fill-opacity="1"><g transform="translate(63.234242, 133.00215)"><g><path d="M 0.609375 0 L 0.609375 -11.8125 L 3.03125 -11.8125 L 3.03125 0 Z M 0.609375 0 "/></g></g></g><g fill="#0661aa" fill-opacity="1"><g transform="translate(68.743734, 133.00215)"><g><path d="M 1.875 -9.265625 C 1.4375 -9.265625 1.085938 -9.390625 0.828125 -9.640625 C 0.578125 -9.898438 0.453125 -10.238281 0.453125 -10.65625 C 0.453125 -11.070312 0.578125 -11.40625 0.828125 -11.65625 C 1.085938 -11.914062 1.4375 -12.046875 1.875 -12.046875 C 2.3125 -12.046875 2.660156 -11.914062 2.921875 -11.65625 C 3.179688 -11.40625 3.3125 -11.070312 3.3125 -10.65625 C 3.3125 -10.238281 3.179688 -9.898438 2.921875 -9.640625 C 2.660156 -9.390625 2.3125 -9.265625 1.875 -9.265625 Z M 0.65625 0 L 0.65625 -8.15625 L 3.09375 -8.15625 L 3.09375 0 Z M 0.65625 0 "/></g></g></g><g fill="#0661aa" fill-opacity="1"><g transform="translate(74.380601, 133.00215)"><g><path d="M 3.546875 0.21875 C 2.898438 0.21875 2.332031 0.046875 1.84375 -0.296875 C 1.363281 -0.648438 0.988281 -1.148438 0.71875 -1.796875 C 0.457031 -2.441406 0.328125 -3.203125 0.328125 -4.078125 C 0.328125 -4.953125 0.457031 -5.710938 0.71875 -6.359375 C 0.988281 -7.003906 1.363281 -7.5 1.84375 -7.84375 C 2.332031 -8.195312 2.894531 -8.375 3.53125 -8.375 C 4.082031 -8.375 4.570312 -8.234375 5 -7.953125 C 5.425781 -7.679688 5.753906 -7.285156 5.984375 -6.765625 L 6 -6.765625 L 6 -11.8125 L 8.4375 -11.8125 L 8.4375 0 L 6.375 0 L 6.0625 -1.421875 L 6.046875 -1.421875 C 5.816406 -0.890625 5.484375 -0.484375 5.046875 -0.203125 C 4.609375 0.078125 4.109375 0.21875 3.546875 0.21875 Z M 4.4375 -1.859375 C 4.9375 -1.859375 5.335938 -2.0625 5.640625 -2.46875 C 5.941406 -2.875 6.09375 -3.410156 6.09375 -4.078125 C 6.09375 -4.742188 5.941406 -5.28125 5.640625 -5.6875 C 5.335938 -6.09375 4.9375 -6.296875 4.4375 -6.296875 C 3.9375 -6.296875 3.53125 -6.09375 3.21875 -5.6875 C 2.914062 -5.28125 2.765625 -4.742188 2.765625 -4.078125 C 2.765625 -3.410156 2.914062 -2.875 3.21875 -2.46875 C 3.53125 -2.0625 3.9375 -1.859375 4.4375 -1.859375 Z M 4.4375 -1.859375 "/></g></g></g><g fill="#0661aa" fill-opacity="1"><g transform="translate(85.303604, 133.00215)"><g><path d="M 2.8125 0.1875 C 2.039062 0.1875 1.414062 -0.015625 0.9375 -0.421875 C 0.457031 -0.835938 0.21875 -1.398438 0.21875 -2.109375 C 0.21875 -2.847656 0.5 -3.445312 1.0625 -3.90625 C 1.632812 -4.363281 2.46875 -4.65625 3.5625 -4.78125 L 4.828125 -4.921875 C 5.003906 -4.941406 5.144531 -5.003906 5.25 -5.109375 C 5.363281 -5.210938 5.421875 -5.367188 5.421875 -5.578125 C 5.421875 -5.929688 5.3125 -6.203125 5.09375 -6.390625 C 4.875 -6.585938 4.582031 -6.6875 4.21875 -6.6875 C 3.800781 -6.6875 3.460938 -6.539062 3.203125 -6.25 C 2.953125 -5.96875 2.816406 -5.609375 2.796875 -5.171875 L 0.5 -5.515625 C 0.519531 -6.085938 0.6875 -6.59375 1 -7.03125 C 1.3125 -7.46875 1.738281 -7.8125 2.28125 -8.0625 C 2.832031 -8.3125 3.472656 -8.4375 4.203125 -8.4375 C 5.316406 -8.4375 6.195312 -8.144531 6.84375 -7.5625 C 7.488281 -6.976562 7.8125 -6.1875 7.8125 -5.1875 L 7.8125 -2.03125 C 7.8125 -1.675781 7.945312 -1.5 8.21875 -1.5 C 8.425781 -1.5 8.628906 -1.601562 8.828125 -1.8125 L 9.34375 -0.515625 C 9.09375 -0.265625 8.785156 -0.0820312 8.421875 0.03125 C 8.054688 0.144531 7.703125 0.203125 7.359375 0.203125 C 6.867188 0.203125 6.457031 0.078125 6.125 -0.171875 C 5.789062 -0.421875 5.582031 -0.734375 5.5 -1.109375 L 5.46875 -1.328125 L 5.4375 -1.328125 C 5.195312 -0.859375 4.847656 -0.488281 4.390625 -0.21875 C 3.929688 0.0507812 3.40625 0.1875 2.8125 0.1875 Z M 3.828125 -1.515625 C 4.273438 -1.515625 4.644531 -1.675781 4.9375 -2 C 5.238281 -2.320312 5.390625 -2.742188 5.390625 -3.265625 L 5.390625 -3.640625 L 4.203125 -3.515625 C 3.648438 -3.453125 3.253906 -3.316406 3.015625 -3.109375 C 2.773438 -2.910156 2.65625 -2.675781 2.65625 -2.40625 C 2.65625 -2.132812 2.765625 -1.914062 2.984375 -1.75 C 3.203125 -1.59375 3.484375 -1.515625 3.828125 -1.515625 Z M 3.828125 -1.515625 "/></g></g></g><g fill="#0661aa" fill-opacity="1"><g transform="translate(96.003649, 133.00215)"><g><path d="M 3.546875 0.21875 C 2.898438 0.21875 2.332031 0.046875 1.84375 -0.296875 C 1.363281 -0.648438 0.988281 -1.148438 0.71875 -1.796875 C 0.457031 -2.441406 0.328125 -3.203125 0.328125 -4.078125 C 0.328125 -4.953125 0.457031 -5.710938 0.71875 -6.359375 C 0.988281 -7.003906 1.363281 -7.5 1.84375 -7.84375 C 2.332031 -8.195312 2.894531 -8.375 3.53125 -8.375 C 4.082031 -8.375 4.570312 -8.234375 5 -7.953125 C 5.425781 -7.679688 5.753906 -7.285156 5.984375 -6.765625 L 6 -6.765625 L 6 -11.8125 L 8.4375 -11.8125 L 8.4375 0 L 6.375 0 L 6.0625 -1.421875 L 6.046875 -1.421875 C 5.816406 -0.890625 5.484375 -0.484375 5.046875 -0.203125 C 4.609375 0.078125 4.109375 0.21875 3.546875 0.21875 Z M 4.4375 -1.859375 C 4.9375 -1.859375 5.335938 -2.0625 5.640625 -2.46875 C 5.941406 -2.875 6.09375 -3.410156 6.09375 -4.078125 C 6.09375 -4.742188 5.941406 -5.28125 5.640625 -5.6875 C 5.335938 -6.09375 4.9375 -6.296875 4.4375 -6.296875 C 3.9375 -6.296875 3.53125 -6.09375 3.21875 -5.6875 C 2.914062 -5.28125 2.765625 -4.742188 2.765625 -4.078125 C 2.765625 -3.410156 2.914062 -2.875 3.21875 -2.46875 C 3.53125 -2.0625 3.9375 -1.859375 4.4375 -1.859375 Z M 4.4375 -1.859375 "/></g></g></g><g fill="#0661aa" fill-opacity="1"><g transform="translate(106.926652, 133.00215)"><g><path d="M 4.765625 0.265625 C 3.878906 0.265625 3.101562 0.0859375 2.4375 -0.265625 C 1.769531 -0.628906 1.25 -1.140625 0.875 -1.796875 C 0.507812 -2.460938 0.328125 -3.238281 0.328125 -4.125 C 0.328125 -4.988281 0.492188 -5.742188 0.828125 -6.390625 C 1.171875 -7.035156 1.644531 -7.535156 2.25 -7.890625 C 2.851562 -8.253906 3.5625 -8.4375 4.375 -8.4375 C 5.164062 -8.4375 5.847656 -8.265625 6.421875 -7.921875 C 6.992188 -7.578125 7.441406 -7.09375 7.765625 -6.46875 C 8.085938 -5.851562 8.25 -5.125 8.25 -4.28125 C 8.25 -4.113281 8.238281 -3.953125 8.21875 -3.796875 C 8.207031 -3.640625 8.1875 -3.507812 8.15625 -3.40625 L 2.765625 -3.40625 C 2.816406 -2.8125 3.023438 -2.34375 3.390625 -2 C 3.753906 -1.65625 4.21875 -1.484375 4.78125 -1.484375 C 5.207031 -1.484375 5.585938 -1.585938 5.921875 -1.796875 C 6.265625 -2.015625 6.519531 -2.304688 6.6875 -2.671875 L 8.390625 -1.921875 C 8.160156 -1.242188 7.707031 -0.707031 7.03125 -0.3125 C 6.363281 0.0703125 5.609375 0.265625 4.765625 0.265625 Z M 2.765625 -4.796875 L 5.828125 -4.796875 C 5.796875 -5.390625 5.648438 -5.847656 5.390625 -6.171875 C 5.140625 -6.503906 4.796875 -6.671875 4.359375 -6.671875 C 3.898438 -6.671875 3.53125 -6.503906 3.25 -6.171875 C 2.976562 -5.835938 2.816406 -5.378906 2.765625 -4.796875 Z M 2.765625 -4.796875 "/></g></g></g><g clip-path="url(#e1bba5d1a2)"><path fill="#0661aa" d="M 42.300781 79.171875 L 44.082031 79.171875 C 44.140625 79.171875 44.203125 79.164062 44.261719 79.15625 L 45.265625 78.988281 C 45.640625 78.925781 45.953125 78.679688 46.105469 78.328125 L 46.585938 77.203125 L 58.082031 73.066406 C 58.089844 73.0625 58.101562 73.058594 58.109375 73.054688 L 65.820312 69.785156 L 72.992188 66.78125 C 74.933594 65.96875 76.789062 64.929688 78.496094 63.699219 L 83.53125 60.066406 L 84.804688 67.976562 L 84.609375 71.699219 C 84.144531 71.59375 83.644531 71.722656 83.296875 72.074219 C 83.082031 72.285156 82.941406 72.570312 82.898438 72.871094 L 82.5 75.660156 L 80.917969 77.042969 C 80.714844 77.21875 80.601562 77.476562 80.601562 77.746094 L 80.601562 78.039062 C 80.601562 78.519531 80.976562 78.929688 81.457031 78.96875 L 83.664062 79.15625 C 83.691406 79.15625 83.714844 79.15625 83.742188 79.15625 C 83.933594 79.15625 84.121094 79.097656 84.277344 78.988281 L 85.511719 78.125 C 85.652344 78.316406 85.808594 78.496094 85.976562 78.664062 C 86.453125 79.140625 87.089844 79.402344 87.765625 79.402344 C 88.382812 79.402344 88.980469 79.175781 89.441406 78.765625 C 90.5 77.824219 91.222656 76.542969 91.472656 75.152344 L 91.578125 74.578125 C 91.585938 74.527344 92.523438 69.382812 93.214844 65.222656 C 93.878906 61.253906 93.71875 58.957031 93.503906 55.78125 L 93.453125 55.0625 C 93.21875 51.5 92.019531 47.671875 90.863281 43.96875 C 90.4375 42.609375 89.445312 40.675781 87.90625 38.21875 C 85.863281 34.957031 83.300781 32.042969 80.28125 29.554688 C 77.417969 27.199219 74.234375 25.308594 70.808594 23.925781 C 69.464844 23.386719 68.328125 22.949219 67.433594 22.628906 C 64.15625 21.460938 55.234375 21.433594 54.667969 21.433594 L 47.332031 20.949219 C 47.316406 20.949219 47.304688 20.949219 47.289062 20.949219 C 46.746094 20.964844 46.253906 21.296875 46.039062 21.796875 C 45.871094 22.195312 45.890625 22.640625 46.097656 23.019531 C 46.300781 23.398438 46.664062 23.660156 47.089844 23.730469 L 50.320312 24.292969 C 50.113281 24.527344 50.019531 24.839844 50.070312 25.160156 C 50.128906 25.527344 50.371094 25.832031 50.71875 25.972656 C 51.007812 26.089844 51.332031 26.070312 51.609375 25.925781 L 54.71875 24.265625 L 60.375 25.570312 C 60.554688 25.613281 60.738281 25.644531 60.921875 25.671875 L 65.71875 26.324219 L 71.054688 29.449219 C 70.425781 29.265625 69.667969 29.261719 69.226562 29.28125 L 68.683594 28.296875 C 68.625 28.191406 68.523438 28.109375 68.40625 28.074219 C 68.285156 28.039062 68.15625 28.054688 68.050781 28.113281 L 66.507812 28.964844 C 66.128906 29.0625 64.109375 29.582031 63.003906 29.996094 C 61.929688 30.398438 60.921875 31.484375 60.601562 32.582031 C 60.140625 34.175781 60.351562 36.003906 61.132812 37.332031 C 60.175781 38.21875 59.90625 39.640625 60.542969 40.761719 C 61.0625 41.671875 62.015625 42.179688 62.996094 42.179688 C 63.464844 42.179688 63.945312 42.0625 64.382812 41.8125 C 65.171875 41.363281 65.710938 40.65625 65.871094 39.890625 C 65.898438 39.890625 65.921875 39.894531 65.949219 39.894531 C 66.304688 39.894531 66.652344 39.855469 66.980469 39.773438 C 68.375 39.4375 70.101562 38.816406 71.152344 37.714844 L 71.234375 38.023438 L 70.582031 40.414062 L 68.746094 43.394531 C 68.726562 43.425781 68.714844 43.457031 68.703125 43.492188 L 65.6875 52.539062 L 62.6875 56.691406 C 62.683594 56.699219 62.675781 56.707031 62.671875 56.71875 L 58.5 63.4375 L 53.464844 67.8125 C 53.160156 68.078125 53.019531 68.488281 53.101562 68.882812 C 53.132812 69.039062 53.195312 69.179688 53.28125 69.308594 L 45.296875 74.09375 C 45.277344 74.105469 45.261719 74.117188 45.246094 74.128906 L 41.738281 76.933594 C 41.699219 76.964844 41.667969 77 41.640625 77.039062 L 41.375 77.441406 C 41.148438 77.78125 41.125 78.21875 41.320312 78.582031 C 41.515625 78.945312 41.890625 79.171875 42.300781 79.171875 Z M 83.742188 78.222656 L 81.535156 78.039062 L 81.535156 77.746094 L 83.246094 76.25 C 83.328125 76.175781 83.382812 76.074219 83.398438 75.964844 L 83.824219 73.003906 C 83.835938 72.902344 83.886719 72.804688 83.957031 72.734375 C 84.101562 72.589844 84.320312 72.554688 84.503906 72.644531 L 84.558594 72.671875 L 84.453125 74.6875 C 84.402344 75.613281 84.601562 76.523438 85.011719 77.335938 Z M 92.570312 55.84375 C 92.785156 58.957031 92.9375 61.207031 92.292969 65.066406 C 91.601562 69.222656 90.667969 74.359375 90.660156 74.410156 L 90.554688 74.984375 C 90.339844 76.171875 89.722656 77.265625 88.820312 78.066406 C 88.53125 78.328125 88.15625 78.46875 87.765625 78.46875 C 87.339844 78.46875 86.9375 78.304688 86.636719 78.003906 C 85.777344 77.144531 85.320312 75.953125 85.386719 74.738281 L 85.742188 67.976562 C 85.742188 67.941406 85.742188 67.910156 85.738281 67.875 L 84.382812 59.457031 L 86.015625 58.277344 L 85.46875 57.519531 L 77.949219 62.941406 C 76.296875 64.128906 74.507812 65.132812 72.628906 65.917969 L 65.457031 68.921875 L 64.730469 69.230469 L 61.738281 66.089844 L 63.957031 65.105469 C 64.003906 65.085938 64.046875 65.058594 64.082031 65.023438 L 70.167969 59.507812 C 71.078125 58.683594 72.054688 57.914062 73.066406 57.226562 L 75.382812 55.644531 C 76.277344 55.035156 77.019531 54.207031 77.53125 53.25 L 77.671875 52.984375 C 77.824219 52.703125 77.949219 52.410156 78.054688 52.109375 C 78.992188 52.285156 81.378906 52.683594 83.746094 52.683594 C 84.5625 52.683594 85.375 52.636719 86.128906 52.515625 C 88.367188 52.160156 90.652344 50.828125 91.6875 50.164062 C 92.101562 51.855469 92.414062 53.527344 92.523438 55.125 Z M 75.675781 45.566406 C 76.609375 46.433594 77.242188 47.605469 77.449219 48.863281 C 77.660156 50.117188 77.445312 51.421875 76.847656 52.542969 L 76.703125 52.8125 C 76.265625 53.636719 75.625 54.347656 74.855469 54.875 L 72.539062 56.453125 C 71.492188 57.167969 70.480469 57.964844 69.542969 58.816406 L 63.511719 64.28125 L 61.023438 65.386719 L 61.328125 64.96875 L 67.160156 58.203125 C 67.179688 58.183594 67.191406 58.164062 67.207031 58.144531 L 71.160156 51.6875 C 71.496094 51.144531 71.792969 50.570312 72.042969 49.980469 L 74.425781 44.40625 Z M 78.378906 48.769531 C 78.929688 48.820312 79.777344 48.878906 80.757812 48.878906 C 82.105469 48.878906 83.699219 48.769531 85.089844 48.375 C 87.417969 47.71875 89.597656 46.640625 90.554688 46.132812 C 90.867188 47.15625 91.171875 48.183594 91.441406 49.207031 C 90.65625 49.726562 88.242188 51.234375 85.980469 51.59375 C 83.285156 52.023438 79.601562 51.441406 78.3125 51.207031 C 78.480469 50.40625 78.507812 49.578125 78.378906 48.769531 Z M 89.972656 44.246094 C 90.074219 44.570312 90.171875 44.894531 90.273438 45.222656 C 89.453125 45.660156 87.195312 46.808594 84.835938 47.476562 C 82.386719 48.167969 79.136719 47.90625 78.152344 47.804688 C 77.800781 46.695312 77.171875 45.679688 76.3125 44.882812 L 71.542969 40.449219 L 72.035156 38.632812 C 73.332031 38.96875 74.730469 38.464844 75.507812 37.328125 L 75.703125 37.042969 C 76.613281 35.710938 76.371094 33.90625 75.199219 32.824219 L 75.691406 32.003906 L 82.96875 33.355469 C 84.527344 35.007812 85.914062 36.796875 87.113281 38.714844 C 88.609375 41.101562 89.570312 42.964844 89.972656 44.246094 Z M 72.632812 34.550781 C 72.667969 34.34375 72.707031 34.066406 72.734375 33.75 L 74.464844 33.429688 C 75.386719 34.1875 75.601562 35.53125 74.929688 36.515625 L 74.734375 36.800781 C 74.152344 37.652344 73.074219 38.003906 72.109375 37.679688 L 71.859375 36.683594 C 72.191406 36.011719 72.503906 35.292969 72.632812 34.550781 Z M 65.9375 25.410156 L 61.046875 24.746094 C 60.894531 24.722656 60.738281 24.695312 60.585938 24.660156 L 54.757812 23.316406 C 54.648438 23.289062 54.53125 23.304688 54.433594 23.359375 L 51.167969 25.097656 C 51.136719 25.117188 51.097656 25.117188 51.066406 25.105469 C 51.015625 25.082031 50.996094 25.042969 50.992188 25.011719 C 50.988281 24.980469 50.992188 24.9375 51.035156 24.902344 L 51.679688 24.363281 C 51.820312 24.246094 51.878906 24.058594 51.832031 23.882812 C 51.785156 23.707031 51.640625 23.574219 51.460938 23.542969 L 47.25 22.8125 C 47.109375 22.785156 46.988281 22.699219 46.917969 22.574219 C 46.851562 22.445312 46.84375 22.296875 46.898438 22.164062 C 46.96875 22.003906 47.125 21.894531 47.296875 21.882812 L 54.621094 22.367188 C 54.632812 22.367188 54.640625 22.367188 54.652344 22.367188 C 54.746094 22.367188 63.960938 22.382812 67.117188 23.507812 C 68.003906 23.824219 69.128906 24.257812 70.460938 24.792969 C 73.792969 26.136719 76.898438 27.984375 79.683594 30.277344 C 80.429688 30.890625 81.140625 31.527344 81.828125 32.191406 L 75.621094 31.039062 L 66.109375 25.46875 C 66.054688 25.441406 65.996094 25.417969 65.9375 25.410156 Z M 74.8125 31.648438 L 74.292969 32.511719 L 72.773438 32.792969 C 72.761719 31.808594 72.566406 30.699219 71.898438 29.941406 Z M 63.921875 41 C 63.019531 41.511719 61.867188 41.199219 61.355469 40.296875 C 60.953125 39.585938 61.109375 38.683594 61.695312 38.085938 C 62.5 38.945312 63.707031 39.566406 64.933594 39.796875 C 64.800781 40.261719 64.441406 40.703125 63.921875 41 Z M 66.761719 38.867188 C 65.175781 39.25 62.984375 38.410156 62.070312 37.0625 C 61.304688 35.941406 61.082031 34.285156 61.5 32.84375 C 61.738281 32.035156 62.539062 31.167969 63.328125 30.871094 C 63.359375 30.863281 63.390625 30.851562 63.421875 30.839844 C 63.773438 32.199219 65.003906 35.9375 68.242188 38.414062 C 67.792969 38.585938 67.296875 38.734375 66.761719 38.867188 Z M 69.230469 37.972656 C 65.890625 35.679688 64.640625 31.785156 64.3125 30.546875 C 65.453125 30.195312 66.777344 29.859375 66.792969 29.855469 C 66.832031 29.847656 66.871094 29.832031 66.90625 29.8125 L 68.089844 29.160156 L 68.546875 29.992188 C 68.636719 30.152344 68.8125 30.246094 68.996094 30.230469 C 69.734375 30.167969 70.898438 30.234375 71.167969 30.523438 C 72.113281 31.539062 71.820312 33.742188 71.710938 34.394531 C 71.59375 35.070312 71.273438 35.769531 70.945312 36.421875 C 70.652344 37.003906 70.0625 37.53125 69.230469 37.972656 Z M 54.078125 68.519531 L 59.167969 64.09375 C 59.203125 64.066406 59.234375 64.027344 59.257812 63.988281 L 63.457031 57.222656 L 66.484375 53.03125 C 66.515625 52.992188 66.535156 52.949219 66.550781 52.902344 L 69.570312 43.839844 L 71.113281 41.332031 L 73.699219 43.730469 L 71.183594 49.613281 C 70.949219 50.160156 70.675781 50.695312 70.363281 51.199219 L 66.429688 57.621094 L 60.609375 64.371094 C 60.601562 64.382812 60.59375 64.390625 60.585938 64.398438 L 57.75 68.253906 C 57.59375 68.464844 57.398438 68.648438 57.183594 68.789062 L 57.394531 68.414062 C 57.496094 68.242188 57.472656 68.023438 57.339844 67.871094 C 57.203125 67.722656 56.992188 67.675781 56.804688 67.753906 L 54.277344 68.835938 C 54.207031 68.871094 54.144531 68.847656 54.113281 68.832031 C 54.085938 68.816406 54.03125 68.777344 54.015625 68.699219 C 54.003906 68.632812 54.027344 68.566406 54.078125 68.519531 Z M 42.152344 77.957031 L 42.378906 77.621094 L 45.804688 74.878906 L 54.308594 69.78125 C 54.421875 69.769531 54.539062 69.742188 54.644531 69.695312 L 56.058594 69.089844 C 56.058594 69.285156 56.132812 69.472656 56.269531 69.628906 C 56.429688 69.808594 56.648438 69.90625 56.875 69.90625 C 56.984375 69.90625 57.097656 69.882812 57.203125 69.835938 C 57.71875 69.617188 58.167969 69.257812 58.5 68.808594 L 59.902344 66.90625 L 60.832031 66.496094 L 63.808594 69.621094 L 57.753906 72.191406 L 46.078125 76.394531 C 45.957031 76.4375 45.859375 76.53125 45.808594 76.648438 L 45.246094 77.960938 C 45.222656 78.015625 45.171875 78.054688 45.109375 78.066406 L 44.109375 78.234375 C 44.101562 78.234375 44.089844 78.234375 44.082031 78.234375 L 42.300781 78.234375 C 42.210938 78.234375 42.164062 78.175781 42.144531 78.140625 C 42.125 78.105469 42.101562 78.035156 42.152344 77.957031 Z M 42.152344 77.957031 " fill-opacity="1" fill-rule="nonzero"/></g></svg>