<svg xmlns="http://www.w3.org/2000/svg" xmlns:xlink="http://www.w3.org/1999/xlink" width="180" zoomAndPan="magnify" viewBox="0 0 135 161.249994" height="215" preserveAspectRatio="xMidYMid meet" version="1.0"><defs><g/><clipPath id="41044de5ba"><path d="M 41.042969 19.832031 L 94 19.832031 L 94 78.0625 L 41.042969 78.0625 Z M 41.042969 19.832031 " clip-rule="nonzero"/></clipPath></defs><g clip-path="url(#41044de5ba)"><path fill="#0661aa" d="M 42.300781 78.0625 L 44.082031 78.0625 C 44.140625 78.0625 44.203125 78.054688 44.261719 78.046875 L 45.265625 77.878906 C 45.640625 77.816406 45.953125 77.570312 46.105469 77.21875 L 46.585938 76.09375 L 58.082031 71.957031 C 58.089844 71.953125 58.101562 71.949219 58.109375 71.945312 L 65.820312 68.671875 L 72.992188 65.671875 C 74.933594 64.859375 76.789062 63.820312 78.496094 62.589844 L 83.53125 58.957031 L 84.804688 66.863281 L 84.609375 70.589844 C 84.144531 70.480469 83.644531 70.613281 83.296875 70.964844 C 83.082031 71.175781 82.941406 71.460938 82.898438 71.757812 L 82.5 74.550781 L 80.917969 75.933594 C 80.714844 76.109375 80.601562 76.367188 80.601562 76.636719 L 80.601562 76.929688 C 80.601562 77.410156 80.976562 77.820312 81.457031 77.859375 L 83.664062 78.042969 C 83.691406 78.046875 83.714844 78.046875 83.742188 78.046875 C 83.933594 78.046875 84.121094 77.988281 84.277344 77.878906 L 85.511719 77.015625 C 85.652344 77.203125 85.808594 77.386719 85.976562 77.554688 C 86.453125 78.03125 87.089844 78.292969 87.765625 78.292969 C 88.382812 78.292969 88.980469 78.066406 89.441406 77.65625 C 90.5 76.714844 91.222656 75.433594 91.472656 74.042969 L 91.578125 73.46875 C 91.585938 73.417969 92.523438 68.273438 93.214844 64.113281 C 93.878906 60.144531 93.71875 57.847656 93.503906 54.671875 L 93.453125 53.953125 C 93.21875 50.390625 92.019531 46.5625 90.863281 42.859375 C 90.4375 41.5 89.445312 39.566406 87.90625 37.109375 C 85.863281 33.847656 83.300781 30.933594 80.28125 28.445312 C 77.417969 26.089844 74.234375 24.195312 70.808594 22.816406 C 69.464844 22.277344 68.328125 21.839844 67.433594 21.519531 C 64.15625 20.347656 55.234375 20.324219 54.667969 20.324219 L 47.332031 19.839844 C 47.316406 19.835938 47.304688 19.835938 47.289062 19.839844 C 46.746094 19.855469 46.253906 20.1875 46.039062 20.6875 C 45.871094 21.085938 45.890625 21.53125 46.097656 21.910156 C 46.300781 22.289062 46.664062 22.546875 47.089844 22.621094 L 50.320312 23.183594 C 50.113281 23.417969 50.019531 23.730469 50.070312 24.046875 C 50.128906 24.417969 50.371094 24.722656 50.71875 24.863281 C 51.007812 24.980469 51.332031 24.960938 51.609375 24.816406 L 54.71875 23.15625 L 60.375 24.460938 C 60.554688 24.503906 60.738281 24.535156 60.921875 24.5625 L 65.71875 25.214844 L 71.054688 28.339844 C 70.425781 28.15625 69.667969 28.152344 69.226562 28.167969 L 68.683594 27.1875 C 68.625 27.078125 68.523438 27 68.40625 26.964844 C 68.285156 26.929688 68.15625 26.945312 68.050781 27.003906 L 66.507812 27.855469 C 66.128906 27.949219 64.109375 28.472656 63.003906 28.886719 C 61.929688 29.289062 60.921875 30.375 60.601562 31.472656 C 60.140625 33.066406 60.351562 34.894531 61.132812 36.222656 C 60.175781 37.109375 59.90625 38.53125 60.542969 39.648438 C 61.0625 40.5625 62.015625 41.070312 62.996094 41.070312 C 63.464844 41.070312 63.945312 40.953125 64.382812 40.703125 C 65.171875 40.253906 65.710938 39.542969 65.871094 38.78125 C 65.898438 38.78125 65.921875 38.78125 65.949219 38.78125 C 66.304688 38.78125 66.652344 38.746094 66.980469 38.664062 C 68.375 38.328125 70.101562 37.707031 71.152344 36.605469 L 71.234375 36.914062 L 70.582031 39.304688 L 68.746094 42.285156 C 68.726562 42.316406 68.714844 42.347656 68.703125 42.382812 L 65.6875 51.429688 L 62.6875 55.578125 C 62.683594 55.589844 62.675781 55.597656 62.671875 55.605469 L 58.5 62.328125 L 53.464844 66.703125 C 53.160156 66.96875 53.019531 67.378906 53.101562 67.773438 C 53.132812 67.929688 53.195312 68.070312 53.28125 68.199219 L 45.296875 72.984375 C 45.277344 72.996094 45.261719 73.007812 45.246094 73.019531 L 41.738281 75.824219 C 41.699219 75.855469 41.667969 75.890625 41.640625 75.929688 L 41.375 76.328125 C 41.148438 76.671875 41.125 77.109375 41.320312 77.472656 C 41.515625 77.835938 41.890625 78.0625 42.300781 78.0625 Z M 83.742188 77.113281 L 81.535156 76.929688 L 81.535156 76.636719 L 83.246094 75.140625 C 83.328125 75.066406 83.382812 74.964844 83.398438 74.855469 L 83.824219 71.890625 C 83.835938 71.792969 83.886719 71.695312 83.957031 71.625 C 84.101562 71.480469 84.320312 71.445312 84.503906 71.535156 L 84.558594 71.5625 L 84.453125 73.578125 C 84.402344 74.503906 84.601562 75.414062 85.011719 76.222656 Z M 92.570312 54.734375 C 92.785156 57.847656 92.9375 60.097656 92.292969 63.957031 C 91.601562 68.113281 90.667969 73.25 90.660156 73.300781 L 90.554688 73.875 C 90.339844 75.0625 89.722656 76.15625 88.820312 76.957031 C 88.53125 77.214844 88.15625 77.359375 87.765625 77.359375 C 87.339844 77.359375 86.9375 77.195312 86.636719 76.894531 C 85.777344 76.03125 85.320312 74.84375 85.386719 73.628906 L 85.742188 66.863281 C 85.742188 66.832031 85.742188 66.796875 85.738281 66.765625 L 84.382812 58.347656 L 86.015625 57.167969 L 85.46875 56.410156 L 77.949219 61.828125 C 76.296875 63.019531 74.507812 64.023438 72.628906 64.808594 L 65.457031 67.8125 L 64.730469 68.121094 L 61.738281 64.980469 L 63.957031 63.996094 C 64.003906 63.976562 64.046875 63.949219 64.082031 63.914062 L 70.167969 58.398438 C 71.078125 57.574219 72.054688 56.804688 73.066406 56.113281 L 75.382812 54.535156 C 76.277344 53.925781 77.019531 53.097656 77.53125 52.140625 L 77.671875 51.875 C 77.824219 51.59375 77.949219 51.300781 78.054688 51 C 78.992188 51.175781 81.378906 51.574219 83.746094 51.574219 C 84.5625 51.574219 85.375 51.523438 86.128906 51.40625 C 88.367188 51.050781 90.652344 49.71875 91.6875 49.054688 C 92.101562 50.746094 92.414062 52.414062 92.523438 54.015625 Z M 75.675781 44.457031 C 76.609375 45.324219 77.242188 46.496094 77.449219 47.753906 C 77.660156 49.007812 77.445312 50.3125 76.847656 51.433594 L 76.703125 51.703125 C 76.265625 52.527344 75.625 53.238281 74.855469 53.765625 L 72.539062 55.34375 C 71.492188 56.058594 70.480469 56.851562 69.542969 57.707031 L 63.511719 63.171875 L 61.023438 64.277344 L 61.328125 63.859375 L 67.160156 57.09375 C 67.179688 57.074219 67.191406 57.054688 67.207031 57.03125 L 71.160156 50.578125 C 71.496094 50.035156 71.792969 49.460938 72.042969 48.871094 L 74.425781 43.296875 Z M 78.378906 47.660156 C 78.929688 47.710938 79.777344 47.769531 80.757812 47.769531 C 82.105469 47.769531 83.699219 47.65625 85.089844 47.265625 C 87.417969 46.609375 89.597656 45.53125 90.554688 45.023438 C 90.867188 46.046875 91.171875 47.074219 91.441406 48.09375 C 90.65625 48.617188 88.242188 50.125 85.980469 50.484375 C 83.285156 50.910156 79.601562 50.328125 78.3125 50.097656 C 78.480469 49.296875 78.507812 48.46875 78.378906 47.660156 Z M 89.972656 43.136719 C 90.074219 43.460938 90.171875 43.785156 90.273438 44.109375 C 89.453125 44.550781 87.195312 45.699219 84.835938 46.367188 C 82.386719 47.054688 79.136719 46.796875 78.152344 46.695312 C 77.800781 45.585938 77.171875 44.566406 76.3125 43.773438 L 71.542969 39.339844 L 72.035156 37.523438 C 73.332031 37.859375 74.730469 37.355469 75.507812 36.21875 L 75.703125 35.933594 C 76.613281 34.601562 76.371094 32.792969 75.199219 31.714844 L 75.691406 30.894531 L 82.96875 32.246094 C 84.527344 33.898438 85.914062 35.6875 87.113281 37.605469 C 88.609375 39.992188 89.570312 41.855469 89.972656 43.136719 Z M 72.632812 33.441406 C 72.667969 33.234375 72.707031 32.957031 72.734375 32.640625 L 74.464844 32.320312 C 75.386719 33.078125 75.601562 34.421875 74.929688 35.40625 L 74.734375 35.691406 C 74.152344 36.542969 73.074219 36.894531 72.109375 36.570312 L 71.859375 35.574219 C 72.191406 34.902344 72.503906 34.183594 72.632812 33.441406 Z M 65.9375 24.300781 L 61.046875 23.632812 C 60.894531 23.613281 60.738281 23.585938 60.585938 23.550781 L 54.757812 22.203125 C 54.648438 22.179688 54.53125 22.195312 54.433594 22.246094 L 51.167969 23.988281 C 51.136719 24.007812 51.097656 24.007812 51.066406 23.996094 C 51.015625 23.972656 50.996094 23.933594 50.992188 23.902344 C 50.988281 23.871094 50.992188 23.828125 51.035156 23.792969 L 51.679688 23.253906 C 51.820312 23.136719 51.878906 22.949219 51.832031 22.773438 C 51.785156 22.597656 51.640625 22.464844 51.460938 22.433594 L 47.25 21.699219 C 47.109375 21.675781 46.988281 21.589844 46.917969 21.464844 C 46.851562 21.335938 46.84375 21.1875 46.898438 21.054688 C 46.96875 20.894531 47.125 20.785156 47.296875 20.773438 L 54.621094 21.257812 C 54.632812 21.257812 54.640625 21.257812 54.652344 21.257812 C 54.746094 21.257812 63.960938 21.269531 67.117188 22.398438 C 68.003906 22.714844 69.128906 23.148438 70.460938 23.683594 C 73.792969 25.027344 76.898438 26.875 79.683594 29.167969 C 80.429688 29.78125 81.140625 30.417969 81.828125 31.082031 L 75.621094 29.929688 L 66.109375 24.359375 C 66.054688 24.328125 65.996094 24.308594 65.9375 24.300781 Z M 74.8125 30.539062 L 74.292969 31.402344 L 72.773438 31.683594 C 72.761719 30.699219 72.566406 29.589844 71.898438 28.832031 Z M 63.921875 39.890625 C 63.019531 40.402344 61.867188 40.089844 61.355469 39.1875 C 60.953125 38.476562 61.109375 37.574219 61.695312 36.976562 C 62.5 37.835938 63.707031 38.457031 64.933594 38.683594 C 64.800781 39.152344 64.441406 39.59375 63.921875 39.890625 Z M 66.761719 37.757812 C 65.175781 38.140625 62.984375 37.296875 62.070312 35.953125 C 61.304688 34.832031 61.082031 33.175781 61.5 31.734375 C 61.738281 30.925781 62.539062 30.058594 63.328125 29.761719 C 63.359375 29.75 63.390625 29.742188 63.421875 29.730469 C 63.773438 31.085938 65.003906 34.828125 68.242188 37.304688 C 67.792969 37.472656 67.296875 37.625 66.761719 37.757812 Z M 69.230469 36.863281 C 65.890625 34.566406 64.640625 30.675781 64.3125 29.4375 C 65.453125 29.085938 66.777344 28.75 66.792969 28.746094 C 66.832031 28.738281 66.871094 28.722656 66.90625 28.703125 L 68.089844 28.050781 L 68.546875 28.878906 C 68.636719 29.042969 68.8125 29.136719 68.996094 29.121094 C 69.734375 29.058594 70.898438 29.125 71.167969 29.414062 C 72.113281 30.429688 71.820312 32.632812 71.710938 33.285156 C 71.59375 33.960938 71.273438 34.660156 70.945312 35.3125 C 70.652344 35.894531 70.0625 36.421875 69.230469 36.863281 Z M 54.078125 67.410156 L 59.167969 62.984375 C 59.203125 62.957031 59.234375 62.917969 59.257812 62.878906 L 63.457031 56.113281 L 66.484375 51.921875 C 66.515625 51.882812 66.535156 51.839844 66.550781 51.792969 L 69.570312 42.730469 L 71.113281 40.222656 L 73.699219 42.621094 L 71.183594 48.503906 C 70.949219 49.050781 70.675781 49.585938 70.363281 50.089844 L 66.429688 56.511719 L 60.609375 63.261719 C 60.601562 63.273438 60.59375 63.28125 60.585938 63.289062 L 57.75 67.144531 C 57.59375 67.355469 57.398438 67.535156 57.183594 67.679688 L 57.394531 67.304688 C 57.496094 67.132812 57.472656 66.914062 57.339844 66.761719 C 57.203125 66.613281 56.992188 66.566406 56.804688 66.644531 L 54.277344 67.726562 C 54.207031 67.757812 54.144531 67.738281 54.113281 67.722656 C 54.085938 67.707031 54.03125 67.667969 54.015625 67.589844 C 54.003906 67.523438 54.027344 67.453125 54.078125 67.410156 Z M 42.152344 76.847656 L 42.378906 76.511719 L 45.804688 73.769531 L 54.308594 68.671875 C 54.421875 68.660156 54.539062 68.632812 54.644531 68.585938 L 56.058594 67.980469 C 56.058594 68.175781 56.132812 68.363281 56.269531 68.519531 C 56.429688 68.699219 56.648438 68.796875 56.875 68.796875 C 56.984375 68.796875 57.097656 68.773438 57.203125 68.726562 C 57.71875 68.503906 58.167969 68.148438 58.5 67.699219 L 59.902344 65.796875 L 60.832031 65.386719 L 63.808594 68.511719 L 57.753906 71.078125 L 46.078125 75.28125 C 45.957031 75.328125 45.859375 75.417969 45.808594 75.539062 L 45.246094 76.851562 C 45.222656 76.90625 45.171875 76.945312 45.109375 76.957031 L 44.109375 77.125 C 44.101562 77.125 44.089844 77.125 44.082031 77.125 L 42.300781 77.125 C 42.210938 77.125 42.164062 77.066406 42.144531 77.03125 C 42.125 76.996094 42.101562 76.925781 42.152344 76.847656 Z M 42.152344 76.847656 " fill-opacity="1" fill-rule="nonzero"/></g><g fill="#0661aa" fill-opacity="1"><g transform="translate(41.407559, 94.555958)"><g><path d="M 0.84375 0 L 0.84375 -12.046875 L 3.734375 -12.046875 L 3.734375 -2.484375 L 8.078125 -2.484375 L 8.078125 0 Z M 0.84375 0 "/></g></g></g><g fill="#0661aa" fill-opacity="1"><g transform="translate(51.471946, 94.555958)"><g><path d="M 3.1875 0.21875 C 2.394531 0.21875 1.765625 -0.0195312 1.296875 -0.5 C 0.828125 -0.976562 0.59375 -1.644531 0.59375 -2.5 L 0.59375 -8.65625 L 3.1875 -8.65625 L 3.1875 -3.171875 C 3.1875 -2.765625 3.289062 -2.445312 3.5 -2.21875 C 3.707031 -1.988281 3.984375 -1.875 4.328125 -1.875 C 4.796875 -1.875 5.171875 -2.023438 5.453125 -2.328125 C 5.734375 -2.640625 5.875 -3.054688 5.875 -3.578125 L 5.875 -8.65625 L 8.4375 -8.65625 L 8.4375 0 L 6.3125 0 L 5.953125 -1.46875 L 5.9375 -1.46875 C 5.675781 -0.925781 5.300781 -0.507812 4.8125 -0.21875 C 4.332031 0.0703125 3.789062 0.21875 3.1875 0.21875 Z M 3.1875 0.21875 "/></g></g></g><g fill="#0661aa" fill-opacity="1"><g transform="translate(62.551189, 94.555958)"><g><path d="M 5.90625 -8.890625 C 6.707031 -8.890625 7.335938 -8.648438 7.796875 -8.171875 C 8.265625 -7.691406 8.5 -7.019531 8.5 -6.15625 L 8.5 0 L 5.90625 0 L 5.90625 -5.5 C 5.90625 -5.90625 5.800781 -6.21875 5.59375 -6.4375 C 5.394531 -6.664062 5.113281 -6.78125 4.75 -6.78125 C 4.289062 -6.78125 3.921875 -6.628906 3.640625 -6.328125 C 3.359375 -6.035156 3.21875 -5.625 3.21875 -5.09375 L 3.21875 0 L 0.640625 0 L 0.640625 -8.65625 L 2.78125 -8.65625 L 3.125 -7.1875 L 3.140625 -7.1875 C 3.398438 -7.726562 3.769531 -8.144531 4.25 -8.4375 C 4.738281 -8.738281 5.289062 -8.890625 5.90625 -8.890625 Z M 5.90625 -8.890625 "/></g></g></g><g fill="#0661aa" fill-opacity="1"><g transform="translate(73.630432, 94.555958)"><g><path d="M 4.109375 3.84375 C 3.265625 3.84375 2.46875 3.703125 1.71875 3.421875 C 0.96875 3.140625 0.367188 2.753906 -0.078125 2.265625 L 0.90625 0.40625 C 1.257812 0.800781 1.695312 1.117188 2.21875 1.359375 C 2.75 1.597656 3.285156 1.71875 3.828125 1.71875 C 4.597656 1.71875 5.210938 1.5 5.671875 1.0625 C 6.140625 0.632812 6.375 0.0507812 6.375 -0.6875 L 6.375 -1.5625 L 6.359375 -1.5625 C 6.109375 -1.070312 5.742188 -0.679688 5.265625 -0.390625 C 4.796875 -0.0976562 4.285156 0.046875 3.734375 0.046875 C 3.054688 0.046875 2.46875 -0.128906 1.96875 -0.484375 C 1.46875 -0.847656 1.078125 -1.359375 0.796875 -2.015625 C 0.523438 -2.679688 0.390625 -3.457031 0.390625 -4.34375 C 0.390625 -5.28125 0.523438 -6.085938 0.796875 -6.765625 C 1.066406 -7.453125 1.445312 -7.984375 1.9375 -8.359375 C 2.4375 -8.734375 3.019531 -8.921875 3.6875 -8.921875 C 4.269531 -8.921875 4.804688 -8.757812 5.296875 -8.4375 C 5.785156 -8.125 6.144531 -7.703125 6.375 -7.171875 L 6.390625 -7.171875 L 6.703125 -8.65625 L 8.96875 -8.65625 L 8.96875 -0.65625 C 8.96875 0.28125 8.769531 1.085938 8.375 1.765625 C 7.976562 2.441406 7.414062 2.957031 6.6875 3.3125 C 5.957031 3.664062 5.097656 3.84375 4.109375 3.84375 Z M 4.734375 -2.0625 C 5.265625 -2.0625 5.6875 -2.269531 6 -2.6875 C 6.320312 -3.113281 6.484375 -3.6875 6.484375 -4.40625 C 6.484375 -5.113281 6.320312 -5.679688 6 -6.109375 C 5.6875 -6.535156 5.265625 -6.75 4.734375 -6.75 C 4.203125 -6.75 3.773438 -6.535156 3.453125 -6.109375 C 3.140625 -5.691406 2.984375 -5.125 2.984375 -4.40625 C 2.984375 -3.675781 3.140625 -3.101562 3.453125 -2.6875 C 3.773438 -2.269531 4.203125 -2.0625 4.734375 -2.0625 Z M 4.734375 -2.0625 "/></g></g></g><g fill="#0661aa" fill-opacity="1"><g transform="translate(85.233997, 94.555958)"><g><path d="M 4.203125 0.265625 C 3.484375 0.265625 2.832031 0.15625 2.25 -0.0625 C 1.675781 -0.28125 1.210938 -0.609375 0.859375 -1.046875 C 0.503906 -1.484375 0.304688 -2.03125 0.265625 -2.6875 L 2.5625 -2.984375 C 2.582031 -2.492188 2.75 -2.113281 3.0625 -1.84375 C 3.382812 -1.570312 3.789062 -1.4375 4.28125 -1.4375 C 4.675781 -1.4375 5.007812 -1.519531 5.28125 -1.6875 C 5.550781 -1.863281 5.6875 -2.085938 5.6875 -2.359375 C 5.6875 -2.609375 5.566406 -2.816406 5.328125 -2.984375 C 5.085938 -3.148438 4.703125 -3.296875 4.171875 -3.421875 L 3.046875 -3.703125 C 2.203125 -3.910156 1.585938 -4.207031 1.203125 -4.59375 C 0.828125 -4.988281 0.640625 -5.515625 0.640625 -6.171875 C 0.640625 -7.035156 0.957031 -7.710938 1.59375 -8.203125 C 2.238281 -8.691406 3.066406 -8.9375 4.078125 -8.9375 C 4.679688 -8.9375 5.238281 -8.832031 5.75 -8.625 C 6.257812 -8.425781 6.675781 -8.128906 7 -7.734375 C 7.320312 -7.347656 7.507812 -6.863281 7.5625 -6.28125 L 5.3125 -6 C 5.289062 -6.40625 5.15625 -6.71875 4.90625 -6.9375 C 4.664062 -7.15625 4.363281 -7.265625 4 -7.265625 C 3.664062 -7.265625 3.394531 -7.179688 3.1875 -7.015625 C 2.976562 -6.847656 2.875 -6.644531 2.875 -6.40625 C 2.875 -6.175781 2.976562 -5.984375 3.1875 -5.828125 C 3.40625 -5.671875 3.753906 -5.523438 4.234375 -5.390625 L 5.390625 -5.109375 C 6.304688 -4.878906 6.976562 -4.5625 7.40625 -4.15625 C 7.84375 -3.75 8.066406 -3.222656 8.078125 -2.578125 C 8.078125 -1.984375 7.910156 -1.472656 7.578125 -1.046875 C 7.242188 -0.628906 6.785156 -0.304688 6.203125 -0.078125 C 5.617188 0.148438 4.953125 0.265625 4.203125 0.265625 Z M 4.203125 0.265625 "/></g></g></g><g fill="#0661aa" fill-opacity="1"><g transform="translate(20.656422, 114.712207)"><g><path d="M 0.84375 0 L 0.84375 -12.046875 L 8.453125 -12.046875 L 8.453125 -9.75 L 3.640625 -9.75 L 3.640625 -7.1875 L 7.78125 -7.1875 L 7.78125 -5.15625 L 3.640625 -5.15625 L 3.640625 -2.3125 L 8.625 -2.3125 L 8.625 0 Z M 0.84375 0 "/></g></g></g><g fill="#0661aa" fill-opacity="1"><g transform="translate(31.651097, 114.712207)"><g><path d="M 0.078125 0 L 2.890625 -4.5 L 0.234375 -8.65625 L 3.078125 -8.65625 L 4.578125 -5.90625 L 6.09375 -8.65625 L 8.953125 -8.65625 L 6.28125 -4.5 L 9.09375 0 L 6.15625 0 L 4.578125 -2.90625 L 3 0 Z M 0.078125 0 "/></g></g></g><g fill="#0661aa" fill-opacity="1"><g transform="translate(42.814908, 114.712207)"><g><path d="M 0.640625 3.546875 L 0.640625 -8.65625 L 2.84375 -8.65625 L 3.171875 -7.15625 L 3.1875 -7.15625 C 3.425781 -7.71875 3.78125 -8.148438 4.25 -8.453125 C 4.71875 -8.753906 5.25 -8.90625 5.84375 -8.90625 C 6.53125 -8.90625 7.125 -8.71875 7.625 -8.34375 C 8.132812 -7.96875 8.53125 -7.4375 8.8125 -6.75 C 9.09375 -6.070312 9.234375 -5.265625 9.234375 -4.328125 C 9.234375 -3.398438 9.09375 -2.59375 8.8125 -1.90625 C 8.53125 -1.21875 8.132812 -0.6875 7.625 -0.3125 C 7.125 0.0507812 6.53125 0.234375 5.84375 0.234375 C 5.257812 0.234375 4.742188 0.0859375 4.296875 -0.203125 C 3.847656 -0.492188 3.492188 -0.914062 3.234375 -1.46875 L 3.21875 -1.46875 L 3.21875 3.546875 Z M 4.890625 -1.984375 C 5.421875 -1.984375 5.847656 -2.195312 6.171875 -2.625 C 6.492188 -3.050781 6.65625 -3.617188 6.65625 -4.328125 C 6.65625 -5.054688 6.492188 -5.628906 6.171875 -6.046875 C 5.847656 -6.472656 5.421875 -6.6875 4.890625 -6.6875 C 4.359375 -6.6875 3.925781 -6.46875 3.59375 -6.03125 C 3.269531 -5.601562 3.109375 -5.035156 3.109375 -4.328125 C 3.109375 -3.617188 3.269531 -3.050781 3.59375 -2.625 C 3.925781 -2.195312 4.359375 -1.984375 4.890625 -1.984375 Z M 4.890625 -1.984375 "/></g></g></g><g fill="#0661aa" fill-opacity="1"><g transform="translate(54.418473, 114.712207)"><g><path d="M 3 0.203125 C 2.175781 0.203125 1.507812 -0.015625 1 -0.453125 C 0.488281 -0.890625 0.234375 -1.484375 0.234375 -2.234375 C 0.234375 -3.023438 0.535156 -3.664062 1.140625 -4.15625 C 1.742188 -4.644531 2.628906 -4.953125 3.796875 -5.078125 L 5.125 -5.234375 C 5.320312 -5.253906 5.476562 -5.316406 5.59375 -5.421875 C 5.707031 -5.535156 5.765625 -5.703125 5.765625 -5.921875 C 5.765625 -6.304688 5.644531 -6.597656 5.40625 -6.796875 C 5.175781 -7.003906 4.867188 -7.109375 4.484375 -7.109375 C 4.046875 -7.109375 3.691406 -6.953125 3.421875 -6.640625 C 3.148438 -6.335938 3.003906 -5.957031 2.984375 -5.5 L 0.53125 -5.859375 C 0.550781 -6.460938 0.726562 -7 1.0625 -7.46875 C 1.394531 -7.9375 1.847656 -8.300781 2.421875 -8.5625 C 3.003906 -8.832031 3.6875 -8.96875 4.46875 -8.96875 C 5.65625 -8.96875 6.59375 -8.65625 7.28125 -8.03125 C 7.96875 -7.414062 8.3125 -6.578125 8.3125 -5.515625 L 8.3125 -2.171875 C 8.3125 -1.785156 8.453125 -1.59375 8.734375 -1.59375 C 8.953125 -1.59375 9.164062 -1.703125 9.375 -1.921875 L 9.9375 -0.546875 C 9.664062 -0.285156 9.335938 -0.09375 8.953125 0.03125 C 8.566406 0.15625 8.1875 0.21875 7.8125 0.21875 C 7.300781 0.21875 6.863281 0.0859375 6.5 -0.171875 C 6.144531 -0.441406 5.925781 -0.78125 5.84375 -1.1875 L 5.796875 -1.40625 L 5.78125 -1.40625 C 5.519531 -0.90625 5.144531 -0.507812 4.65625 -0.21875 C 4.175781 0.0625 3.625 0.203125 3 0.203125 Z M 4.0625 -1.609375 C 4.539062 -1.609375 4.9375 -1.78125 5.25 -2.125 C 5.570312 -2.46875 5.734375 -2.914062 5.734375 -3.46875 L 5.734375 -3.875 L 4.46875 -3.734375 C 3.882812 -3.671875 3.460938 -3.53125 3.203125 -3.3125 C 2.953125 -3.101562 2.828125 -2.851562 2.828125 -2.5625 C 2.828125 -2.269531 2.941406 -2.035156 3.171875 -1.859375 C 3.398438 -1.691406 3.695312 -1.609375 4.0625 -1.609375 Z M 4.0625 -1.609375 "/></g></g></g><g fill="#0661aa" fill-opacity="1"><g transform="translate(66.343392, 114.712207)"><g><path d="M 5.90625 -8.890625 C 6.707031 -8.890625 7.335938 -8.648438 7.796875 -8.171875 C 8.265625 -7.691406 8.5 -7.019531 8.5 -6.15625 L 8.5 0 L 5.90625 0 L 5.90625 -5.5 C 5.90625 -5.90625 5.800781 -6.21875 5.59375 -6.4375 C 5.394531 -6.664062 5.113281 -6.78125 4.75 -6.78125 C 4.289062 -6.78125 3.921875 -6.628906 3.640625 -6.328125 C 3.359375 -6.035156 3.21875 -5.625 3.21875 -5.09375 L 3.21875 0 L 0.640625 0 L 0.640625 -8.65625 L 2.78125 -8.65625 L 3.125 -7.1875 L 3.140625 -7.1875 C 3.398438 -7.726562 3.769531 -8.144531 4.25 -8.4375 C 4.738281 -8.738281 5.289062 -8.890625 5.90625 -8.890625 Z M 5.90625 -8.890625 "/></g></g></g><g fill="#0661aa" fill-opacity="1"><g transform="translate(77.422635, 114.712207)"><g><path d="M 4.203125 0.265625 C 3.484375 0.265625 2.832031 0.15625 2.25 -0.0625 C 1.675781 -0.28125 1.210938 -0.609375 0.859375 -1.046875 C 0.503906 -1.484375 0.304688 -2.03125 0.265625 -2.6875 L 2.5625 -2.984375 C 2.582031 -2.492188 2.75 -2.113281 3.0625 -1.84375 C 3.382812 -1.570312 3.789062 -1.4375 4.28125 -1.4375 C 4.675781 -1.4375 5.007812 -1.519531 5.28125 -1.6875 C 5.550781 -1.863281 5.6875 -2.085938 5.6875 -2.359375 C 5.6875 -2.609375 5.566406 -2.816406 5.328125 -2.984375 C 5.085938 -3.148438 4.703125 -3.296875 4.171875 -3.421875 L 3.046875 -3.703125 C 2.203125 -3.910156 1.585938 -4.207031 1.203125 -4.59375 C 0.828125 -4.988281 0.640625 -5.515625 0.640625 -6.171875 C 0.640625 -7.035156 0.957031 -7.710938 1.59375 -8.203125 C 2.238281 -8.691406 3.066406 -8.9375 4.078125 -8.9375 C 4.679688 -8.9375 5.238281 -8.832031 5.75 -8.625 C 6.257812 -8.425781 6.675781 -8.128906 7 -7.734375 C 7.320312 -7.347656 7.507812 -6.863281 7.5625 -6.28125 L 5.3125 -6 C 5.289062 -6.40625 5.15625 -6.71875 4.90625 -6.9375 C 4.664062 -7.15625 4.363281 -7.265625 4 -7.265625 C 3.664062 -7.265625 3.394531 -7.179688 3.1875 -7.015625 C 2.976562 -6.847656 2.875 -6.644531 2.875 -6.40625 C 2.875 -6.175781 2.976562 -5.984375 3.1875 -5.828125 C 3.40625 -5.671875 3.753906 -5.523438 4.234375 -5.390625 L 5.390625 -5.109375 C 6.304688 -4.878906 6.976562 -4.5625 7.40625 -4.15625 C 7.84375 -3.75 8.066406 -3.222656 8.078125 -2.578125 C 8.078125 -1.984375 7.910156 -1.472656 7.578125 -1.046875 C 7.242188 -0.628906 6.785156 -0.304688 6.203125 -0.078125 C 5.617188 0.148438 4.953125 0.265625 4.203125 0.265625 Z M 4.203125 0.265625 "/></g></g></g><g fill="#0661aa" fill-opacity="1"><g transform="translate(87.757686, 114.712207)"><g><path d="M 2 -9.84375 C 1.53125 -9.84375 1.15625 -9.976562 0.875 -10.25 C 0.601562 -10.519531 0.46875 -10.878906 0.46875 -11.328125 C 0.46875 -11.773438 0.601562 -12.132812 0.875 -12.40625 C 1.15625 -12.675781 1.53125 -12.8125 2 -12.8125 C 2.457031 -12.8125 2.820312 -12.675781 3.09375 -12.40625 C 3.375 -12.132812 3.515625 -11.773438 3.515625 -11.328125 C 3.515625 -10.878906 3.375 -10.519531 3.09375 -10.25 C 2.820312 -9.976562 2.457031 -9.84375 2 -9.84375 Z M 0.6875 0 L 0.6875 -8.65625 L 3.28125 -8.65625 L 3.28125 0 Z M 0.6875 0 "/></g></g></g><g fill="#0661aa" fill-opacity="1"><g transform="translate(93.745969, 114.712207)"><g><path d="M 4.75 0.28125 C 3.863281 0.28125 3.085938 0.09375 2.421875 -0.28125 C 1.765625 -0.65625 1.253906 -1.1875 0.890625 -1.875 C 0.535156 -2.570312 0.359375 -3.390625 0.359375 -4.328125 C 0.359375 -5.273438 0.535156 -6.09375 0.890625 -6.78125 C 1.253906 -7.476562 1.765625 -8.015625 2.421875 -8.390625 C 3.085938 -8.773438 3.863281 -8.96875 4.75 -8.96875 C 5.644531 -8.96875 6.421875 -8.773438 7.078125 -8.390625 C 7.734375 -8.015625 8.238281 -7.476562 8.59375 -6.78125 C 8.957031 -6.09375 9.140625 -5.273438 9.140625 -4.328125 C 9.140625 -3.390625 8.957031 -2.570312 8.59375 -1.875 C 8.238281 -1.1875 7.734375 -0.65625 7.078125 -0.28125 C 6.421875 0.09375 5.644531 0.28125 4.75 0.28125 Z M 4.75 -1.875 C 5.3125 -1.875 5.753906 -2.09375 6.078125 -2.53125 C 6.398438 -2.96875 6.5625 -3.566406 6.5625 -4.328125 C 6.5625 -5.097656 6.398438 -5.695312 6.078125 -6.125 C 5.753906 -6.5625 5.3125 -6.78125 4.75 -6.78125 C 4.1875 -6.78125 3.738281 -6.5625 3.40625 -6.125 C 3.082031 -5.695312 2.921875 -5.097656 2.921875 -4.328125 C 2.921875 -3.566406 3.082031 -2.96875 3.40625 -2.53125 C 3.738281 -2.09375 4.1875 -1.875 4.75 -1.875 Z M 4.75 -1.875 "/></g></g></g><g fill="#0661aa" fill-opacity="1"><g transform="translate(105.24805, 114.712207)"><g><path d="M 5.90625 -8.890625 C 6.707031 -8.890625 7.335938 -8.648438 7.796875 -8.171875 C 8.265625 -7.691406 8.5 -7.019531 8.5 -6.15625 L 8.5 0 L 5.90625 0 L 5.90625 -5.5 C 5.90625 -5.90625 5.800781 -6.21875 5.59375 -6.4375 C 5.394531 -6.664062 5.113281 -6.78125 4.75 -6.78125 C 4.289062 -6.78125 3.921875 -6.628906 3.640625 -6.328125 C 3.359375 -6.035156 3.21875 -5.625 3.21875 -5.09375 L 3.21875 0 L 0.640625 0 L 0.640625 -8.65625 L 2.78125 -8.65625 L 3.125 -7.1875 L 3.140625 -7.1875 C 3.398438 -7.726562 3.769531 -8.144531 4.25 -8.4375 C 4.738281 -8.738281 5.289062 -8.890625 5.90625 -8.890625 Z M 5.90625 -8.890625 "/></g></g></g><g fill="#0661aa" fill-opacity="1"><g transform="translate(19.315005, 134.868455)"><g><path d="M 9.75 -2.375 L 12.140625 0 L 9.1875 0 L 8.203125 -1.015625 C 7.097656 -0.148438 5.859375 0.28125 4.484375 0.28125 C 3.660156 0.28125 2.9375 0.144531 2.3125 -0.125 C 1.695312 -0.40625 1.21875 -0.800781 0.875 -1.3125 C 0.53125 -1.832031 0.359375 -2.460938 0.359375 -3.203125 C 0.359375 -4.003906 0.554688 -4.660156 0.953125 -5.171875 C 1.347656 -5.691406 1.921875 -6.140625 2.671875 -6.515625 C 2.421875 -6.867188 2.210938 -7.253906 2.046875 -7.671875 C 1.878906 -8.085938 1.800781 -8.515625 1.8125 -8.953125 C 1.8125 -9.628906 1.96875 -10.21875 2.28125 -10.71875 C 2.601562 -11.21875 3.039062 -11.609375 3.59375 -11.890625 C 4.144531 -12.171875 4.773438 -12.3125 5.484375 -12.3125 C 6.160156 -12.3125 6.769531 -12.191406 7.3125 -11.953125 C 7.863281 -11.710938 8.296875 -11.359375 8.609375 -10.890625 C 8.929688 -10.429688 9.09375 -9.863281 9.09375 -9.1875 C 9.09375 -8.445312 8.851562 -7.816406 8.375 -7.296875 C 7.894531 -6.773438 7.140625 -6.332031 6.109375 -5.96875 L 8.3125 -3.78125 C 8.882812 -4.425781 9.347656 -5.1875 9.703125 -6.0625 L 11.265625 -4.65625 C 10.828125 -3.769531 10.320312 -3.007812 9.75 -2.375 Z M 5.53125 -10.421875 C 5.125 -10.421875 4.796875 -10.28125 4.546875 -10 C 4.296875 -9.726562 4.171875 -9.375 4.171875 -8.9375 C 4.171875 -8.375 4.410156 -7.800781 4.890625 -7.21875 C 5.578125 -7.445312 6.078125 -7.710938 6.390625 -8.015625 C 6.710938 -8.328125 6.875 -8.671875 6.875 -9.046875 C 6.875 -9.453125 6.75 -9.78125 6.5 -10.03125 C 6.25 -10.289062 5.925781 -10.421875 5.53125 -10.421875 Z M 4.8125 -1.640625 C 5.175781 -1.640625 5.523438 -1.707031 5.859375 -1.84375 C 6.203125 -1.988281 6.503906 -2.1875 6.765625 -2.4375 L 4.109375 -5.078125 C 3.703125 -4.878906 3.394531 -4.640625 3.1875 -4.359375 C 2.988281 -4.085938 2.890625 -3.742188 2.890625 -3.328125 C 2.890625 -2.847656 3.066406 -2.445312 3.421875 -2.125 C 3.773438 -1.800781 4.238281 -1.640625 4.8125 -1.640625 Z M 4.8125 -1.640625 "/></g></g></g><g fill="#0661aa" fill-opacity="1"><g transform="translate(33.43867, 134.868455)"><g/></g></g><g fill="#0661aa" fill-opacity="1"><g transform="translate(38.581277, 134.868455)"><g><path d="M 0.84375 0 L 0.84375 -12.046875 L 4.703125 -12.046875 L 7.75 -3.265625 L 7.78125 -3.265625 L 10.84375 -12.046875 L 14.671875 -12.046875 L 14.671875 0 L 12.03125 0 L 12.03125 -8.59375 L 12 -8.59375 L 8.9375 0 L 6.578125 0 L 3.515625 -8.578125 L 3.484375 -8.578125 L 3.484375 0 Z M 0.84375 0 "/></g></g></g><g fill="#0661aa" fill-opacity="1"><g transform="translate(56.087646, 134.868455)"><g><path d="M 4.75 0.28125 C 3.863281 0.28125 3.085938 0.09375 2.421875 -0.28125 C 1.765625 -0.65625 1.253906 -1.1875 0.890625 -1.875 C 0.535156 -2.570312 0.359375 -3.390625 0.359375 -4.328125 C 0.359375 -5.273438 0.535156 -6.09375 0.890625 -6.78125 C 1.253906 -7.476562 1.765625 -8.015625 2.421875 -8.390625 C 3.085938 -8.773438 3.863281 -8.96875 4.75 -8.96875 C 5.644531 -8.96875 6.421875 -8.773438 7.078125 -8.390625 C 7.734375 -8.015625 8.238281 -7.476562 8.59375 -6.78125 C 8.957031 -6.09375 9.140625 -5.273438 9.140625 -4.328125 C 9.140625 -3.390625 8.957031 -2.570312 8.59375 -1.875 C 8.238281 -1.1875 7.734375 -0.65625 7.078125 -0.28125 C 6.421875 0.09375 5.644531 0.28125 4.75 0.28125 Z M 4.75 -1.875 C 5.3125 -1.875 5.753906 -2.09375 6.078125 -2.53125 C 6.398438 -2.96875 6.5625 -3.566406 6.5625 -4.328125 C 6.5625 -5.097656 6.398438 -5.695312 6.078125 -6.125 C 5.753906 -6.5625 5.3125 -6.78125 4.75 -6.78125 C 4.1875 -6.78125 3.738281 -6.5625 3.40625 -6.125 C 3.082031 -5.695312 2.921875 -5.097656 2.921875 -4.328125 C 2.921875 -3.566406 3.082031 -2.96875 3.40625 -2.53125 C 3.738281 -2.09375 4.1875 -1.875 4.75 -1.875 Z M 4.75 -1.875 "/></g></g></g><g fill="#0661aa" fill-opacity="1"><g transform="translate(67.589728, 134.868455)"><g><path d="M 5.84375 0.234375 C 5.25 0.234375 4.71875 0.0859375 4.25 -0.203125 C 3.78125 -0.503906 3.425781 -0.9375 3.1875 -1.5 L 3.171875 -1.5 L 2.84375 0 L 0.640625 0 L 0.640625 -12.5625 L 3.21875 -12.5625 L 3.21875 -7.1875 L 3.234375 -7.1875 C 3.492188 -7.738281 3.847656 -8.160156 4.296875 -8.453125 C 4.742188 -8.753906 5.257812 -8.90625 5.84375 -8.90625 C 6.53125 -8.90625 7.125 -8.71875 7.625 -8.34375 C 8.132812 -7.96875 8.53125 -7.4375 8.8125 -6.75 C 9.09375 -6.070312 9.234375 -5.265625 9.234375 -4.328125 C 9.234375 -3.398438 9.09375 -2.59375 8.8125 -1.90625 C 8.53125 -1.21875 8.132812 -0.6875 7.625 -0.3125 C 7.125 0.0507812 6.53125 0.234375 5.84375 0.234375 Z M 4.890625 -1.984375 C 5.421875 -1.984375 5.847656 -2.195312 6.171875 -2.625 C 6.492188 -3.050781 6.65625 -3.617188 6.65625 -4.328125 C 6.65625 -5.035156 6.492188 -5.601562 6.171875 -6.03125 C 5.847656 -6.46875 5.421875 -6.6875 4.890625 -6.6875 C 4.359375 -6.6875 3.925781 -6.46875 3.59375 -6.03125 C 3.269531 -5.601562 3.109375 -5.035156 3.109375 -4.328125 C 3.109375 -3.617188 3.269531 -3.050781 3.59375 -2.625 C 3.925781 -2.195312 4.359375 -1.984375 4.890625 -1.984375 Z M 4.890625 -1.984375 "/></g></g></g><g fill="#0661aa" fill-opacity="1"><g transform="translate(79.193292, 134.868455)"><g><path d="M 2 -9.84375 C 1.53125 -9.84375 1.15625 -9.976562 0.875 -10.25 C 0.601562 -10.519531 0.46875 -10.878906 0.46875 -11.328125 C 0.46875 -11.773438 0.601562 -12.132812 0.875 -12.40625 C 1.15625 -12.675781 1.53125 -12.8125 2 -12.8125 C 2.457031 -12.8125 2.820312 -12.675781 3.09375 -12.40625 C 3.375 -12.132812 3.515625 -11.773438 3.515625 -11.328125 C 3.515625 -10.878906 3.375 -10.519531 3.09375 -10.25 C 2.820312 -9.976562 2.457031 -9.84375 2 -9.84375 Z M 0.6875 0 L 0.6875 -8.65625 L 3.28125 -8.65625 L 3.28125 0 Z M 0.6875 0 "/></g></g></g><g fill="#0661aa" fill-opacity="1"><g transform="translate(85.181575, 134.868455)"><g><path d="M 0.640625 0 L 0.640625 -12.5625 L 3.21875 -12.5625 L 3.21875 0 Z M 0.640625 0 "/></g></g></g><g fill="#0661aa" fill-opacity="1"><g transform="translate(91.034555, 134.868455)"><g><path d="M 2 -9.84375 C 1.53125 -9.84375 1.15625 -9.976562 0.875 -10.25 C 0.601562 -10.519531 0.46875 -10.878906 0.46875 -11.328125 C 0.46875 -11.773438 0.601562 -12.132812 0.875 -12.40625 C 1.15625 -12.675781 1.53125 -12.8125 2 -12.8125 C 2.457031 -12.8125 2.820312 -12.675781 3.09375 -12.40625 C 3.375 -12.132812 3.515625 -11.773438 3.515625 -11.328125 C 3.515625 -10.878906 3.375 -10.519531 3.09375 -10.25 C 2.820312 -9.976562 2.457031 -9.84375 2 -9.84375 Z M 0.6875 0 L 0.6875 -8.65625 L 3.28125 -8.65625 L 3.28125 0 Z M 0.6875 0 "/></g></g></g><g fill="#0661aa" fill-opacity="1"><g transform="translate(97.022838, 134.868455)"><g><path d="M 4.640625 0.265625 C 3.640625 0.265625 2.875 -0.00390625 2.34375 -0.546875 C 1.8125 -1.085938 1.546875 -1.816406 1.546875 -2.734375 L 1.515625 -6.703125 L 0.0625 -6.703125 L 0.0625 -8.65625 L 1.546875 -8.65625 L 1.546875 -10.96875 L 4.109375 -11.546875 L 4.109375 -8.65625 L 7.078125 -8.65625 L 7.078125 -6.703125 L 4.109375 -6.703125 L 4.125 -3.203125 C 4.125 -2.773438 4.222656 -2.4375 4.421875 -2.1875 C 4.628906 -1.945312 4.90625 -1.828125 5.25 -1.828125 C 5.882812 -1.828125 6.351562 -2.179688 6.65625 -2.890625 L 7.5 -1.3125 C 7.226562 -0.8125 6.835938 -0.421875 6.328125 -0.140625 C 5.828125 0.128906 5.265625 0.265625 4.640625 0.265625 Z M 4.640625 0.265625 "/></g></g></g><g fill="#0661aa" fill-opacity="1"><g transform="translate(106.596781, 134.868455)"><g><path d="M 3.78125 3.84375 C 2.96875 3.84375 2.203125 3.703125 1.484375 3.421875 C 0.773438 3.140625 0.203125 2.753906 -0.234375 2.265625 L 0.78125 0.4375 C 1.101562 0.820312 1.503906 1.128906 1.984375 1.359375 C 2.460938 1.585938 2.972656 1.703125 3.515625 1.703125 C 4.253906 1.703125 4.832031 1.492188 5.25 1.078125 C 5.675781 0.660156 5.890625 0.09375 5.890625 -0.625 L 5.890625 -1.375 L 5.875 -1.375 C 5.625 -0.851562 5.273438 -0.4375 4.828125 -0.125 C 4.390625 0.175781 3.910156 0.328125 3.390625 0.328125 C 2.515625 0.328125 1.828125 0.0390625 1.328125 -0.53125 C 0.828125 -1.113281 0.578125 -1.890625 0.578125 -2.859375 L 0.578125 -8.65625 L 3.171875 -8.65625 L 3.171875 -3.28125 C 3.171875 -2.832031 3.28125 -2.472656 3.5 -2.203125 C 3.71875 -1.929688 4.019531 -1.796875 4.40625 -1.796875 C 4.832031 -1.796875 5.179688 -1.941406 5.453125 -2.234375 C 5.722656 -2.535156 5.859375 -2.929688 5.859375 -3.421875 L 5.859375 -8.65625 L 8.421875 -8.65625 L 8.4375 -0.453125 C 8.4375 0.429688 8.25 1.195312 7.875 1.84375 C 7.5 2.488281 6.960938 2.984375 6.265625 3.328125 C 5.566406 3.671875 4.738281 3.84375 3.78125 3.84375 Z M 3.78125 3.84375 "/></g></g></g></svg>