<svg xmlns="http://www.w3.org/2000/svg" xmlns:xlink="http://www.w3.org/1999/xlink" width="180" zoomAndPan="magnify" viewBox="0 0 135 161.249994" height="215" preserveAspectRatio="xMidYMid meet" version="1.2"><defs><clipPath id="51c2bee0a1"><path d="M 37.394531 14.53125 L 97.863281 14.53125 L 97.863281 80.972656 L 37.394531 80.972656 Z M 37.394531 14.53125 "/></clipPath></defs><g id="2295147c43"><g style="fill:#2d6d5e;fill-opacity:1;"><g transform="translate(18.027447, 130.403753)"><path style="stroke:none" d="M 3.9375 0 L 3.34375 -2.515625 L 1.5 -2.515625 L 0.90625 0 L 0 0 L 1.890625 -7.8125 L 2.921875 -7.8125 L 4.84375 0 Z M 3.1875 -3.296875 L 2.59375 -5.9375 C 2.5625 -6.070312 2.535156 -6.203125 2.515625 -6.328125 C 2.492188 -6.453125 2.472656 -6.570312 2.453125 -6.6875 C 2.429688 -6.8125 2.410156 -6.929688 2.390625 -7.046875 C 2.378906 -6.929688 2.363281 -6.8125 2.34375 -6.6875 C 2.332031 -6.570312 2.3125 -6.453125 2.28125 -6.328125 C 2.257812 -6.203125 2.238281 -6.078125 2.21875 -5.953125 L 1.625 -3.296875 Z M 3.1875 -3.296875 "/></g></g><g style="fill:#2d6d5e;fill-opacity:1;"><g transform="translate(24.400544, 130.403753)"><path style="stroke:none" d="M 1.53125 -8.3125 L 1.53125 -5.859375 C 1.53125 -5.742188 1.523438 -5.613281 1.515625 -5.46875 C 1.515625 -5.332031 1.515625 -5.1875 1.515625 -5.03125 L 1.546875 -5.03125 C 1.691406 -5.34375 1.875 -5.570312 2.09375 -5.71875 C 2.3125 -5.875 2.5625 -5.953125 2.84375 -5.953125 C 3.40625 -5.953125 3.832031 -5.695312 4.125 -5.1875 C 4.414062 -4.675781 4.5625 -3.925781 4.5625 -2.9375 C 4.5625 -2.28125 4.492188 -1.722656 4.359375 -1.265625 C 4.234375 -0.816406 4.039062 -0.472656 3.78125 -0.234375 C 3.53125 -0.00390625 3.226562 0.109375 2.875 0.109375 C 2.582031 0.109375 2.328125 0.0351562 2.109375 -0.109375 C 1.890625 -0.253906 1.703125 -0.476562 1.546875 -0.78125 L 1.5 -0.78125 L 1.390625 0 L 0.71875 0 L 0.71875 -8.3125 Z M 2.671875 -5.234375 C 2.367188 -5.234375 2.132812 -5.140625 1.96875 -4.953125 C 1.8125 -4.765625 1.695312 -4.503906 1.625 -4.171875 C 1.5625 -3.835938 1.53125 -3.457031 1.53125 -3.03125 L 1.53125 -2.78125 C 1.53125 -2.039062 1.625 -1.492188 1.8125 -1.140625 C 2.007812 -0.785156 2.296875 -0.609375 2.671875 -0.609375 C 3.023438 -0.609375 3.285156 -0.796875 3.453125 -1.171875 C 3.628906 -1.554688 3.71875 -2.148438 3.71875 -2.953125 C 3.71875 -3.703125 3.632812 -4.269531 3.46875 -4.65625 C 3.300781 -5.039062 3.035156 -5.234375 2.671875 -5.234375 Z M 2.671875 -5.234375 "/></g></g><g style="fill:#2d6d5e;fill-opacity:1;"><g transform="translate(30.939257, 130.403753)"><path style="stroke:none" d="M 2.328125 -5.953125 C 2.722656 -5.953125 3.050781 -5.835938 3.3125 -5.609375 C 3.570312 -5.378906 3.765625 -5.066406 3.890625 -4.671875 C 4.015625 -4.285156 4.078125 -3.851562 4.078125 -3.375 L 4.078125 -2.78125 L 1.28125 -2.78125 C 1.289062 -2.050781 1.40625 -1.503906 1.625 -1.140625 C 1.84375 -0.773438 2.171875 -0.59375 2.609375 -0.59375 C 2.828125 -0.59375 3.035156 -0.625 3.234375 -0.6875 C 3.441406 -0.75 3.648438 -0.851562 3.859375 -1 L 3.859375 -0.265625 C 3.660156 -0.140625 3.453125 -0.046875 3.234375 0.015625 C 3.015625 0.078125 2.78125 0.109375 2.53125 0.109375 C 2.039062 0.109375 1.644531 -0.0195312 1.34375 -0.28125 C 1.039062 -0.539062 0.816406 -0.898438 0.671875 -1.359375 C 0.535156 -1.816406 0.46875 -2.332031 0.46875 -2.90625 C 0.46875 -3.550781 0.535156 -4.101562 0.671875 -4.5625 C 0.816406 -5.019531 1.023438 -5.363281 1.296875 -5.59375 C 1.578125 -5.832031 1.921875 -5.953125 2.328125 -5.953125 Z M 2.328125 -5.28125 C 2.015625 -5.28125 1.769531 -5.128906 1.59375 -4.828125 C 1.425781 -4.535156 1.328125 -4.070312 1.296875 -3.4375 L 3.3125 -3.4375 C 3.3125 -3.769531 3.273438 -4.078125 3.203125 -4.359375 C 3.140625 -4.640625 3.035156 -4.863281 2.890625 -5.03125 C 2.742188 -5.195312 2.554688 -5.28125 2.328125 -5.28125 Z M 2.328125 -5.28125 "/></g></g><g style="fill:#2d6d5e;fill-opacity:1;"><g transform="translate(36.997152, 130.403753)"><path style="stroke:none" d="M 2.671875 -5.96875 C 2.753906 -5.96875 2.835938 -5.957031 2.921875 -5.9375 C 3.003906 -5.925781 3.085938 -5.910156 3.171875 -5.890625 L 3.046875 -5.046875 C 2.984375 -5.066406 2.914062 -5.082031 2.84375 -5.09375 C 2.769531 -5.101562 2.691406 -5.109375 2.609375 -5.109375 C 2.453125 -5.109375 2.304688 -5.054688 2.171875 -4.953125 C 2.035156 -4.847656 1.921875 -4.703125 1.828125 -4.515625 C 1.734375 -4.328125 1.660156 -4.109375 1.609375 -3.859375 C 1.554688 -3.609375 1.53125 -3.34375 1.53125 -3.0625 L 1.53125 0 L 0.71875 0 L 0.71875 -5.859375 L 1.359375 -5.859375 L 1.46875 -4.828125 L 1.515625 -4.828125 C 1.597656 -5.046875 1.691406 -5.238281 1.796875 -5.40625 C 1.910156 -5.582031 2.039062 -5.71875 2.1875 -5.8125 C 2.332031 -5.914062 2.492188 -5.96875 2.671875 -5.96875 Z M 2.671875 -5.96875 "/></g></g><g style="fill:#2d6d5e;fill-opacity:1;"><g transform="translate(41.81026, 130.403753)"><path style="stroke:none" d="M 2.09375 -0.625 C 2.1875 -0.625 2.273438 -0.628906 2.359375 -0.640625 C 2.453125 -0.660156 2.535156 -0.691406 2.609375 -0.734375 L 2.609375 -0.0625 C 2.503906 -0.0078125 2.382812 0.03125 2.25 0.0625 C 2.125 0.09375 1.984375 0.109375 1.828125 0.109375 C 1.578125 0.109375 1.367188 0.0507812 1.203125 -0.0625 C 1.046875 -0.175781 0.925781 -0.34375 0.84375 -0.5625 C 0.769531 -0.789062 0.734375 -1.078125 0.734375 -1.421875 L 0.734375 -5.171875 L 0.1875 -5.171875 L 0.1875 -5.625 L 0.78125 -5.84375 L 1 -7.1875 L 1.5625 -7.1875 L 1.5625 -5.859375 L 2.546875 -5.859375 L 2.546875 -5.171875 L 1.5625 -5.171875 L 1.5625 -1.515625 C 1.5625 -1.210938 1.597656 -0.988281 1.671875 -0.84375 C 1.742188 -0.695312 1.882812 -0.625 2.09375 -0.625 Z M 2.09375 -0.625 "/></g></g><g style="fill:#2d6d5e;fill-opacity:1;"><g transform="translate(46.115837, 130.403753)"><path style="stroke:none" d="M 4.21875 -5.859375 L 4.21875 0 L 3.5625 0 L 3.46875 -0.828125 L 3.40625 -0.828125 C 3.332031 -0.640625 3.226562 -0.472656 3.09375 -0.328125 C 2.96875 -0.191406 2.820312 -0.0820312 2.65625 0 C 2.5 0.0703125 2.316406 0.109375 2.109375 0.109375 C 1.773438 0.109375 1.503906 0.0234375 1.296875 -0.140625 C 1.085938 -0.316406 0.929688 -0.5625 0.828125 -0.875 C 0.734375 -1.195312 0.6875 -1.578125 0.6875 -2.015625 L 0.6875 -5.859375 L 1.515625 -5.859375 L 1.515625 -2.171875 C 1.515625 -1.640625 1.578125 -1.25 1.703125 -1 C 1.828125 -0.75 2.015625 -0.625 2.265625 -0.625 C 2.535156 -0.625 2.753906 -0.695312 2.921875 -0.84375 C 3.085938 -1 3.207031 -1.234375 3.28125 -1.546875 C 3.351562 -1.859375 3.390625 -2.25 3.390625 -2.71875 L 3.390625 -5.859375 Z M 4.21875 -5.859375 "/></g></g><g style="fill:#2d6d5e;fill-opacity:1;"><g transform="translate(52.579756, 130.403753)"><path style="stroke:none" d="M 2.671875 -5.96875 C 2.753906 -5.96875 2.835938 -5.957031 2.921875 -5.9375 C 3.003906 -5.925781 3.085938 -5.910156 3.171875 -5.890625 L 3.046875 -5.046875 C 2.984375 -5.066406 2.914062 -5.082031 2.84375 -5.09375 C 2.769531 -5.101562 2.691406 -5.109375 2.609375 -5.109375 C 2.453125 -5.109375 2.304688 -5.054688 2.171875 -4.953125 C 2.035156 -4.847656 1.921875 -4.703125 1.828125 -4.515625 C 1.734375 -4.328125 1.660156 -4.109375 1.609375 -3.859375 C 1.554688 -3.609375 1.53125 -3.34375 1.53125 -3.0625 L 1.53125 0 L 0.71875 0 L 0.71875 -5.859375 L 1.359375 -5.859375 L 1.46875 -4.828125 L 1.515625 -4.828125 C 1.597656 -5.046875 1.691406 -5.238281 1.796875 -5.40625 C 1.910156 -5.582031 2.039062 -5.71875 2.1875 -5.8125 C 2.332031 -5.914062 2.492188 -5.96875 2.671875 -5.96875 Z M 2.671875 -5.96875 "/></g></g><g style="fill:#2d6d5e;fill-opacity:1;"><g transform="translate(57.392864, 130.403753)"><path style="stroke:none" d="M 2.28125 -5.96875 C 2.820312 -5.96875 3.207031 -5.796875 3.4375 -5.453125 C 3.675781 -5.109375 3.796875 -4.609375 3.796875 -3.953125 L 3.796875 0 L 3.171875 0 L 3.046875 -0.828125 L 3.015625 -0.828125 C 2.929688 -0.628906 2.820312 -0.457031 2.6875 -0.3125 C 2.5625 -0.175781 2.414062 -0.0703125 2.25 0 C 2.09375 0.0703125 1.90625 0.109375 1.6875 0.109375 C 1.382812 0.109375 1.132812 0.03125 0.9375 -0.125 C 0.75 -0.289062 0.609375 -0.503906 0.515625 -0.765625 C 0.421875 -1.023438 0.375 -1.304688 0.375 -1.609375 C 0.375 -2.191406 0.539062 -2.640625 0.875 -2.953125 C 1.21875 -3.273438 1.695312 -3.453125 2.3125 -3.484375 L 2.96875 -3.53125 L 2.96875 -3.9375 C 2.96875 -4.40625 2.90625 -4.742188 2.78125 -4.953125 C 2.65625 -5.171875 2.445312 -5.28125 2.15625 -5.28125 C 2 -5.28125 1.828125 -5.25 1.640625 -5.1875 C 1.460938 -5.132812 1.269531 -5.046875 1.0625 -4.921875 L 0.796875 -5.546875 C 1.015625 -5.691406 1.25 -5.796875 1.5 -5.859375 C 1.757812 -5.929688 2.019531 -5.96875 2.28125 -5.96875 Z M 2.984375 -2.921875 L 2.4375 -2.890625 C 2.03125 -2.867188 1.722656 -2.753906 1.515625 -2.546875 C 1.316406 -2.335938 1.21875 -2.035156 1.21875 -1.640625 C 1.21875 -1.265625 1.28125 -0.988281 1.40625 -0.8125 C 1.539062 -0.644531 1.722656 -0.5625 1.953125 -0.5625 C 2.285156 -0.5625 2.539062 -0.71875 2.71875 -1.03125 C 2.894531 -1.34375 2.984375 -1.773438 2.984375 -2.328125 Z M 2.984375 -2.921875 "/></g></g><g style="fill:#2d6d5e;fill-opacity:1;"><g transform="translate(63.418704, 130.403753)"><path style="stroke:none" d=""/></g></g><g style="fill:#2d6d5e;fill-opacity:1;"><g transform="translate(66.981683, 130.403753)"><path style="stroke:none" d="M 2.09375 -0.625 C 2.1875 -0.625 2.273438 -0.628906 2.359375 -0.640625 C 2.453125 -0.660156 2.535156 -0.691406 2.609375 -0.734375 L 2.609375 -0.0625 C 2.503906 -0.0078125 2.382812 0.03125 2.25 0.0625 C 2.125 0.09375 1.984375 0.109375 1.828125 0.109375 C 1.578125 0.109375 1.367188 0.0507812 1.203125 -0.0625 C 1.046875 -0.175781 0.925781 -0.34375 0.84375 -0.5625 C 0.769531 -0.789062 0.734375 -1.078125 0.734375 -1.421875 L 0.734375 -5.171875 L 0.1875 -5.171875 L 0.1875 -5.625 L 0.78125 -5.84375 L 1 -7.1875 L 1.5625 -7.1875 L 1.5625 -5.859375 L 2.546875 -5.859375 L 2.546875 -5.171875 L 1.5625 -5.171875 L 1.5625 -1.515625 C 1.5625 -1.210938 1.597656 -0.988281 1.671875 -0.84375 C 1.742188 -0.695312 1.882812 -0.625 2.09375 -0.625 Z M 2.09375 -0.625 "/></g></g><g style="fill:#2d6d5e;fill-opacity:1;"><g transform="translate(71.28726, 130.403753)"><path style="stroke:none" d="M 4.359375 -2.9375 C 4.359375 -2.476562 4.316406 -2.0625 4.234375 -1.6875 C 4.160156 -1.3125 4.039062 -0.988281 3.875 -0.71875 C 3.71875 -0.457031 3.515625 -0.253906 3.265625 -0.109375 C 3.023438 0.0351562 2.734375 0.109375 2.390625 0.109375 C 2.078125 0.109375 1.796875 0.0351562 1.546875 -0.109375 C 1.304688 -0.253906 1.101562 -0.457031 0.9375 -0.71875 C 0.78125 -0.976562 0.660156 -1.296875 0.578125 -1.671875 C 0.503906 -2.054688 0.46875 -2.476562 0.46875 -2.9375 C 0.46875 -3.582031 0.535156 -4.128906 0.671875 -4.578125 C 0.804688 -5.035156 1.019531 -5.378906 1.3125 -5.609375 C 1.601562 -5.847656 1.96875 -5.96875 2.40625 -5.96875 C 2.820312 -5.96875 3.175781 -5.851562 3.46875 -5.625 C 3.757812 -5.394531 3.976562 -5.054688 4.125 -4.609375 C 4.28125 -4.160156 4.359375 -3.601562 4.359375 -2.9375 Z M 1.296875 -2.9375 C 1.296875 -2.425781 1.332031 -2 1.40625 -1.65625 C 1.488281 -1.3125 1.613281 -1.050781 1.78125 -0.875 C 1.945312 -0.695312 2.160156 -0.609375 2.421875 -0.609375 C 2.671875 -0.609375 2.875 -0.691406 3.03125 -0.859375 C 3.195312 -1.035156 3.316406 -1.296875 3.390625 -1.640625 C 3.472656 -1.984375 3.515625 -2.414062 3.515625 -2.9375 C 3.515625 -3.445312 3.472656 -3.875 3.390625 -4.21875 C 3.316406 -4.5625 3.195312 -4.816406 3.03125 -4.984375 C 2.875 -5.160156 2.664062 -5.25 2.40625 -5.25 C 2.019531 -5.25 1.738281 -5.054688 1.5625 -4.671875 C 1.382812 -4.285156 1.296875 -3.707031 1.296875 -2.9375 Z M 1.296875 -2.9375 "/></g></g><g style="fill:#2d6d5e;fill-opacity:1;"><g transform="translate(77.638988, 130.403753)"><path style="stroke:none" d="M 2.671875 -5.96875 C 2.753906 -5.96875 2.835938 -5.957031 2.921875 -5.9375 C 3.003906 -5.925781 3.085938 -5.910156 3.171875 -5.890625 L 3.046875 -5.046875 C 2.984375 -5.066406 2.914062 -5.082031 2.84375 -5.09375 C 2.769531 -5.101562 2.691406 -5.109375 2.609375 -5.109375 C 2.453125 -5.109375 2.304688 -5.054688 2.171875 -4.953125 C 2.035156 -4.847656 1.921875 -4.703125 1.828125 -4.515625 C 1.734375 -4.328125 1.660156 -4.109375 1.609375 -3.859375 C 1.554688 -3.609375 1.53125 -3.34375 1.53125 -3.0625 L 1.53125 0 L 0.71875 0 L 0.71875 -5.859375 L 1.359375 -5.859375 L 1.46875 -4.828125 L 1.515625 -4.828125 C 1.597656 -5.046875 1.691406 -5.238281 1.796875 -5.40625 C 1.910156 -5.582031 2.039062 -5.71875 2.1875 -5.8125 C 2.332031 -5.914062 2.492188 -5.96875 2.671875 -5.96875 Z M 2.671875 -5.96875 "/></g></g><g style="fill:#2d6d5e;fill-opacity:1;"><g transform="translate(82.452096, 130.403753)"><path style="stroke:none" d="M 2.28125 -5.96875 C 2.820312 -5.96875 3.207031 -5.796875 3.4375 -5.453125 C 3.675781 -5.109375 3.796875 -4.609375 3.796875 -3.953125 L 3.796875 0 L 3.171875 0 L 3.046875 -0.828125 L 3.015625 -0.828125 C 2.929688 -0.628906 2.820312 -0.457031 2.6875 -0.3125 C 2.5625 -0.175781 2.414062 -0.0703125 2.25 0 C 2.09375 0.0703125 1.90625 0.109375 1.6875 0.109375 C 1.382812 0.109375 1.132812 0.03125 0.9375 -0.125 C 0.75 -0.289062 0.609375 -0.503906 0.515625 -0.765625 C 0.421875 -1.023438 0.375 -1.304688 0.375 -1.609375 C 0.375 -2.191406 0.539062 -2.640625 0.875 -2.953125 C 1.21875 -3.273438 1.695312 -3.453125 2.3125 -3.484375 L 2.96875 -3.53125 L 2.96875 -3.9375 C 2.96875 -4.40625 2.90625 -4.742188 2.78125 -4.953125 C 2.65625 -5.171875 2.445312 -5.28125 2.15625 -5.28125 C 2 -5.28125 1.828125 -5.25 1.640625 -5.1875 C 1.460938 -5.132812 1.269531 -5.046875 1.0625 -4.921875 L 0.796875 -5.546875 C 1.015625 -5.691406 1.25 -5.796875 1.5 -5.859375 C 1.757812 -5.929688 2.019531 -5.96875 2.28125 -5.96875 Z M 2.984375 -2.921875 L 2.4375 -2.890625 C 2.03125 -2.867188 1.722656 -2.753906 1.515625 -2.546875 C 1.316406 -2.335938 1.21875 -2.035156 1.21875 -1.640625 C 1.21875 -1.265625 1.28125 -0.988281 1.40625 -0.8125 C 1.539062 -0.644531 1.722656 -0.5625 1.953125 -0.5625 C 2.285156 -0.5625 2.539062 -0.71875 2.71875 -1.03125 C 2.894531 -1.34375 2.984375 -1.773438 2.984375 -2.328125 Z M 3.53125 -8.375 L 3.53125 -8.28125 C 3.457031 -8.164062 3.359375 -8.03125 3.234375 -7.875 C 3.117188 -7.726562 2.992188 -7.578125 2.859375 -7.421875 C 2.722656 -7.265625 2.582031 -7.117188 2.4375 -6.984375 C 2.300781 -6.847656 2.179688 -6.726562 2.078125 -6.625 L 1.546875 -6.625 L 1.546875 -6.75 C 1.691406 -6.945312 1.820312 -7.132812 1.9375 -7.3125 C 2.0625 -7.5 2.171875 -7.679688 2.265625 -7.859375 C 2.367188 -8.035156 2.460938 -8.207031 2.546875 -8.375 Z M 3.53125 -8.375 "/></g></g><g style="fill:#2d6d5e;fill-opacity:1;"><g transform="translate(88.477936, 130.403753)"><path style="stroke:none" d="M 2.40625 0.109375 C 1.976562 0.109375 1.617188 0 1.328125 -0.21875 C 1.046875 -0.445312 0.832031 -0.785156 0.6875 -1.234375 C 0.539062 -1.679688 0.46875 -2.234375 0.46875 -2.890625 C 0.46875 -3.535156 0.539062 -4.085938 0.6875 -4.546875 C 0.832031 -5.003906 1.050781 -5.351562 1.34375 -5.59375 C 1.632812 -5.84375 2 -5.96875 2.4375 -5.96875 C 2.65625 -5.96875 2.851562 -5.941406 3.03125 -5.890625 C 3.207031 -5.847656 3.375 -5.785156 3.53125 -5.703125 L 3.265625 -5.03125 C 3.140625 -5.09375 3.007812 -5.140625 2.875 -5.171875 C 2.75 -5.210938 2.625 -5.234375 2.5 -5.234375 C 2.238281 -5.234375 2.019531 -5.144531 1.84375 -4.96875 C 1.675781 -4.789062 1.546875 -4.53125 1.453125 -4.1875 C 1.359375 -3.84375 1.3125 -3.414062 1.3125 -2.90625 C 1.3125 -2.394531 1.351562 -1.96875 1.4375 -1.625 C 1.53125 -1.289062 1.664062 -1.035156 1.84375 -0.859375 C 2.019531 -0.691406 2.238281 -0.609375 2.5 -0.609375 C 2.65625 -0.609375 2.8125 -0.628906 2.96875 -0.671875 C 3.132812 -0.722656 3.300781 -0.789062 3.46875 -0.875 L 3.46875 -0.1875 C 3.3125 -0.09375 3.132812 -0.0195312 2.9375 0.03125 C 2.75 0.0820312 2.570312 0.109375 2.40625 0.109375 Z M 2.40625 0.109375 "/></g></g><g style="fill:#2d6d5e;fill-opacity:1;"><g transform="translate(93.76652, 130.403753)"><path style="stroke:none" d="M 1.546875 -5.859375 L 1.546875 0 L 0.71875 0 L 0.71875 -5.859375 Z M 1.140625 -8.0625 C 1.316406 -8.0625 1.441406 -8.007812 1.515625 -7.90625 C 1.585938 -7.800781 1.625 -7.648438 1.625 -7.453125 C 1.625 -7.273438 1.582031 -7.128906 1.5 -7.015625 C 1.425781 -6.910156 1.304688 -6.859375 1.140625 -6.859375 C 0.992188 -6.859375 0.875 -6.910156 0.78125 -7.015625 C 0.695312 -7.128906 0.65625 -7.273438 0.65625 -7.453125 C 0.65625 -7.648438 0.695312 -7.800781 0.78125 -7.90625 C 0.863281 -8.007812 0.984375 -8.0625 1.140625 -8.0625 Z M 1.140625 -8.0625 "/></g></g><g style="fill:#2d6d5e;fill-opacity:1;"><g transform="translate(97.564567, 130.403753)"><path style="stroke:none" d="M 2.40625 0.109375 C 1.976562 0.109375 1.617188 0 1.328125 -0.21875 C 1.046875 -0.445312 0.832031 -0.785156 0.6875 -1.234375 C 0.539062 -1.679688 0.46875 -2.234375 0.46875 -2.890625 C 0.46875 -3.535156 0.539062 -4.085938 0.6875 -4.546875 C 0.832031 -5.003906 1.050781 -5.351562 1.34375 -5.59375 C 1.632812 -5.84375 2 -5.96875 2.4375 -5.96875 C 2.65625 -5.96875 2.851562 -5.941406 3.03125 -5.890625 C 3.207031 -5.847656 3.375 -5.785156 3.53125 -5.703125 L 3.265625 -5.03125 C 3.140625 -5.09375 3.007812 -5.140625 2.875 -5.171875 C 2.75 -5.210938 2.625 -5.234375 2.5 -5.234375 C 2.238281 -5.234375 2.019531 -5.144531 1.84375 -4.96875 C 1.675781 -4.789062 1.546875 -4.53125 1.453125 -4.1875 C 1.359375 -3.84375 1.3125 -3.414062 1.3125 -2.90625 C 1.3125 -2.394531 1.351562 -1.96875 1.4375 -1.625 C 1.53125 -1.289062 1.664062 -1.035156 1.84375 -0.859375 C 2.019531 -0.691406 2.238281 -0.609375 2.5 -0.609375 C 2.65625 -0.609375 2.8125 -0.628906 2.96875 -0.671875 C 3.132812 -0.722656 3.300781 -0.789062 3.46875 -0.875 L 3.46875 -0.1875 C 3.3125 -0.09375 3.132812 -0.0195312 2.9375 0.03125 C 2.75 0.0820312 2.570312 0.109375 2.40625 0.109375 Z M 2.40625 0.109375 "/></g></g><g style="fill:#2d6d5e;fill-opacity:1;"><g transform="translate(102.853151, 130.403753)"><path style="stroke:none" d="M 2.28125 -5.96875 C 2.820312 -5.96875 3.207031 -5.796875 3.4375 -5.453125 C 3.675781 -5.109375 3.796875 -4.609375 3.796875 -3.953125 L 3.796875 0 L 3.171875 0 L 3.046875 -0.828125 L 3.015625 -0.828125 C 2.929688 -0.628906 2.820312 -0.457031 2.6875 -0.3125 C 2.5625 -0.175781 2.414062 -0.0703125 2.25 0 C 2.09375 0.0703125 1.90625 0.109375 1.6875 0.109375 C 1.382812 0.109375 1.132812 0.03125 0.9375 -0.125 C 0.75 -0.289062 0.609375 -0.503906 0.515625 -0.765625 C 0.421875 -1.023438 0.375 -1.304688 0.375 -1.609375 C 0.375 -2.191406 0.539062 -2.640625 0.875 -2.953125 C 1.21875 -3.273438 1.695312 -3.453125 2.3125 -3.484375 L 2.96875 -3.53125 L 2.96875 -3.9375 C 2.96875 -4.40625 2.90625 -4.742188 2.78125 -4.953125 C 2.65625 -5.171875 2.445312 -5.28125 2.15625 -5.28125 C 2 -5.28125 1.828125 -5.25 1.640625 -5.1875 C 1.460938 -5.132812 1.269531 -5.046875 1.0625 -4.921875 L 0.796875 -5.546875 C 1.015625 -5.691406 1.25 -5.796875 1.5 -5.859375 C 1.757812 -5.929688 2.019531 -5.96875 2.28125 -5.96875 Z M 2.984375 -2.921875 L 2.4375 -2.890625 C 2.03125 -2.867188 1.722656 -2.753906 1.515625 -2.546875 C 1.316406 -2.335938 1.21875 -2.035156 1.21875 -1.640625 C 1.21875 -1.265625 1.28125 -0.988281 1.40625 -0.8125 C 1.539062 -0.644531 1.722656 -0.5625 1.953125 -0.5625 C 2.285156 -0.5625 2.539062 -0.71875 2.71875 -1.03125 C 2.894531 -1.34375 2.984375 -1.773438 2.984375 -2.328125 Z M 2.984375 -2.921875 "/></g></g><g style="fill:#2d6d5e;fill-opacity:1;"><g transform="translate(108.878991, 130.403753)"><path style="stroke:none" d=""/></g></g><g style="fill:#2d6d5e;fill-opacity:1;"><g transform="translate(112.44197, 130.403753)"><path style="stroke:none" d="M 2.328125 -5.953125 C 2.722656 -5.953125 3.050781 -5.835938 3.3125 -5.609375 C 3.570312 -5.378906 3.765625 -5.066406 3.890625 -4.671875 C 4.015625 -4.285156 4.078125 -3.851562 4.078125 -3.375 L 4.078125 -2.78125 L 1.28125 -2.78125 C 1.289062 -2.050781 1.40625 -1.503906 1.625 -1.140625 C 1.84375 -0.773438 2.171875 -0.59375 2.609375 -0.59375 C 2.828125 -0.59375 3.035156 -0.625 3.234375 -0.6875 C 3.441406 -0.75 3.648438 -0.851562 3.859375 -1 L 3.859375 -0.265625 C 3.660156 -0.140625 3.453125 -0.046875 3.234375 0.015625 C 3.015625 0.078125 2.78125 0.109375 2.53125 0.109375 C 2.039062 0.109375 1.644531 -0.0195312 1.34375 -0.28125 C 1.039062 -0.539062 0.816406 -0.898438 0.671875 -1.359375 C 0.535156 -1.816406 0.46875 -2.332031 0.46875 -2.90625 C 0.46875 -3.550781 0.535156 -4.101562 0.671875 -4.5625 C 0.816406 -5.019531 1.023438 -5.363281 1.296875 -5.59375 C 1.578125 -5.832031 1.921875 -5.953125 2.328125 -5.953125 Z M 2.328125 -5.28125 C 2.015625 -5.28125 1.769531 -5.128906 1.59375 -4.828125 C 1.425781 -4.535156 1.328125 -4.070312 1.296875 -3.4375 L 3.3125 -3.4375 C 3.3125 -3.769531 3.273438 -4.078125 3.203125 -4.359375 C 3.140625 -4.640625 3.035156 -4.863281 2.890625 -5.03125 C 2.742188 -5.195312 2.554688 -5.28125 2.328125 -5.28125 Z M 2.328125 -5.28125 "/></g></g><g style="fill:#2d6d5e;fill-opacity:1;"><g transform="translate(39.093526, 143.094725)"><path style="stroke:none" d="M 5.3125 -5.96875 C 5.78125 -5.96875 6.125 -5.800781 6.34375 -5.46875 C 6.5625 -5.132812 6.671875 -4.628906 6.671875 -3.953125 L 6.671875 0 L 5.859375 0 L 5.859375 -3.8125 C 5.859375 -4.320312 5.789062 -4.6875 5.65625 -4.90625 C 5.53125 -5.132812 5.34375 -5.25 5.09375 -5.25 C 4.738281 -5.25 4.484375 -5.078125 4.328125 -4.734375 C 4.179688 -4.398438 4.109375 -3.921875 4.109375 -3.296875 L 4.109375 0 L 3.296875 0 L 3.296875 -3.8125 C 3.296875 -4.164062 3.265625 -4.445312 3.203125 -4.65625 C 3.148438 -4.863281 3.066406 -5.015625 2.953125 -5.109375 C 2.835938 -5.203125 2.695312 -5.25 2.53125 -5.25 C 2.257812 -5.25 2.050781 -5.15625 1.90625 -4.96875 C 1.769531 -4.789062 1.671875 -4.539062 1.609375 -4.21875 C 1.554688 -3.90625 1.53125 -3.546875 1.53125 -3.140625 L 1.53125 0 L 0.71875 0 L 0.71875 -5.859375 L 1.375 -5.859375 L 1.46875 -5.03125 L 1.515625 -5.03125 C 1.585938 -5.226562 1.679688 -5.394531 1.796875 -5.53125 C 1.921875 -5.675781 2.0625 -5.785156 2.21875 -5.859375 C 2.382812 -5.929688 2.566406 -5.96875 2.765625 -5.96875 C 3.109375 -5.96875 3.375 -5.875 3.5625 -5.6875 C 3.757812 -5.507812 3.890625 -5.28125 3.953125 -5 L 4.015625 -5 C 4.148438 -5.332031 4.316406 -5.578125 4.515625 -5.734375 C 4.722656 -5.890625 4.988281 -5.96875 5.3125 -5.96875 Z M 5.3125 -5.96875 "/></g></g><g style="fill:#2d6d5e;fill-opacity:1;"><g transform="translate(47.998935, 143.094725)"><path style="stroke:none" d="M 4.359375 -2.9375 C 4.359375 -2.476562 4.316406 -2.0625 4.234375 -1.6875 C 4.160156 -1.3125 4.039062 -0.988281 3.875 -0.71875 C 3.71875 -0.457031 3.515625 -0.253906 3.265625 -0.109375 C 3.023438 0.0351562 2.734375 0.109375 2.390625 0.109375 C 2.078125 0.109375 1.796875 0.0351562 1.546875 -0.109375 C 1.304688 -0.253906 1.101562 -0.457031 0.9375 -0.71875 C 0.78125 -0.976562 0.660156 -1.296875 0.578125 -1.671875 C 0.503906 -2.054688 0.46875 -2.476562 0.46875 -2.9375 C 0.46875 -3.582031 0.535156 -4.128906 0.671875 -4.578125 C 0.804688 -5.035156 1.019531 -5.378906 1.3125 -5.609375 C 1.601562 -5.847656 1.96875 -5.96875 2.40625 -5.96875 C 2.820312 -5.96875 3.175781 -5.851562 3.46875 -5.625 C 3.757812 -5.394531 3.976562 -5.054688 4.125 -4.609375 C 4.28125 -4.160156 4.359375 -3.601562 4.359375 -2.9375 Z M 1.296875 -2.9375 C 1.296875 -2.425781 1.332031 -2 1.40625 -1.65625 C 1.488281 -1.3125 1.613281 -1.050781 1.78125 -0.875 C 1.945312 -0.695312 2.160156 -0.609375 2.421875 -0.609375 C 2.671875 -0.609375 2.875 -0.691406 3.03125 -0.859375 C 3.195312 -1.035156 3.316406 -1.296875 3.390625 -1.640625 C 3.472656 -1.984375 3.515625 -2.414062 3.515625 -2.9375 C 3.515625 -3.445312 3.472656 -3.875 3.390625 -4.21875 C 3.316406 -4.5625 3.195312 -4.816406 3.03125 -4.984375 C 2.875 -5.160156 2.664062 -5.25 2.40625 -5.25 C 2.019531 -5.25 1.738281 -5.054688 1.5625 -4.671875 C 1.382812 -4.285156 1.296875 -3.707031 1.296875 -2.9375 Z M 1.296875 -2.9375 "/></g></g><g style="fill:#2d6d5e;fill-opacity:1;"><g transform="translate(54.350663, 143.094725)"><path style="stroke:none" d="M 1.53125 -8.3125 L 1.53125 -5.859375 C 1.53125 -5.742188 1.523438 -5.613281 1.515625 -5.46875 C 1.515625 -5.332031 1.515625 -5.1875 1.515625 -5.03125 L 1.546875 -5.03125 C 1.691406 -5.34375 1.875 -5.570312 2.09375 -5.71875 C 2.3125 -5.875 2.5625 -5.953125 2.84375 -5.953125 C 3.40625 -5.953125 3.832031 -5.695312 4.125 -5.1875 C 4.414062 -4.675781 4.5625 -3.925781 4.5625 -2.9375 C 4.5625 -2.28125 4.492188 -1.722656 4.359375 -1.265625 C 4.234375 -0.816406 4.039062 -0.472656 3.78125 -0.234375 C 3.53125 -0.00390625 3.226562 0.109375 2.875 0.109375 C 2.582031 0.109375 2.328125 0.0351562 2.109375 -0.109375 C 1.890625 -0.253906 1.703125 -0.476562 1.546875 -0.78125 L 1.5 -0.78125 L 1.390625 0 L 0.71875 0 L 0.71875 -8.3125 Z M 2.671875 -5.234375 C 2.367188 -5.234375 2.132812 -5.140625 1.96875 -4.953125 C 1.8125 -4.765625 1.695312 -4.503906 1.625 -4.171875 C 1.5625 -3.835938 1.53125 -3.457031 1.53125 -3.03125 L 1.53125 -2.78125 C 1.53125 -2.039062 1.625 -1.492188 1.8125 -1.140625 C 2.007812 -0.785156 2.296875 -0.609375 2.671875 -0.609375 C 3.023438 -0.609375 3.285156 -0.796875 3.453125 -1.171875 C 3.628906 -1.554688 3.71875 -2.148438 3.71875 -2.953125 C 3.71875 -3.703125 3.632812 -4.269531 3.46875 -4.65625 C 3.300781 -5.039062 3.035156 -5.234375 2.671875 -5.234375 Z M 2.671875 -5.234375 "/></g></g><g style="fill:#2d6d5e;fill-opacity:1;"><g transform="translate(60.889376, 143.094725)"><path style="stroke:none" d="M 1.546875 -5.859375 L 1.546875 0 L 0.71875 0 L 0.71875 -5.859375 Z M 1.140625 -8.0625 C 1.316406 -8.0625 1.441406 -8.007812 1.515625 -7.90625 C 1.585938 -7.800781 1.625 -7.648438 1.625 -7.453125 C 1.625 -7.273438 1.582031 -7.128906 1.5 -7.015625 C 1.425781 -6.910156 1.304688 -6.859375 1.140625 -6.859375 C 0.992188 -6.859375 0.875 -6.910156 0.78125 -7.015625 C 0.695312 -7.128906 0.65625 -7.273438 0.65625 -7.453125 C 0.65625 -7.648438 0.695312 -7.800781 0.78125 -7.90625 C 0.863281 -8.007812 0.984375 -8.0625 1.140625 -8.0625 Z M 1.140625 -8.0625 "/></g></g><g style="fill:#2d6d5e;fill-opacity:1;"><g transform="translate(64.687423, 143.094725)"><path style="stroke:none" d="M 1.53125 0 L 0.71875 0 L 0.71875 -8.3125 L 1.53125 -8.3125 Z M 1.53125 0 "/></g></g><g style="fill:#2d6d5e;fill-opacity:1;"><g transform="translate(68.464099, 143.094725)"><path style="stroke:none" d="M 1.546875 -5.859375 L 1.546875 0 L 0.71875 0 L 0.71875 -5.859375 Z M 1.140625 -8.0625 C 1.316406 -8.0625 1.441406 -8.007812 1.515625 -7.90625 C 1.585938 -7.800781 1.625 -7.648438 1.625 -7.453125 C 1.625 -7.273438 1.582031 -7.128906 1.5 -7.015625 C 1.425781 -6.910156 1.304688 -6.859375 1.140625 -6.859375 C 0.992188 -6.859375 0.875 -6.910156 0.78125 -7.015625 C 0.695312 -7.128906 0.65625 -7.273438 0.65625 -7.453125 C 0.65625 -7.648438 0.695312 -7.800781 0.78125 -7.90625 C 0.863281 -8.007812 0.984375 -8.0625 1.140625 -8.0625 Z M 1.140625 -8.0625 "/></g></g><g style="fill:#2d6d5e;fill-opacity:1;"><g transform="translate(72.262146, 143.094725)"><path style="stroke:none" d="M 2.171875 0.109375 C 1.609375 0.109375 1.179688 -0.144531 0.890625 -0.65625 C 0.609375 -1.175781 0.46875 -1.929688 0.46875 -2.921875 C 0.46875 -3.898438 0.613281 -4.648438 0.90625 -5.171875 C 1.195312 -5.703125 1.609375 -5.96875 2.140625 -5.96875 C 2.335938 -5.96875 2.519531 -5.929688 2.6875 -5.859375 C 2.851562 -5.785156 3 -5.679688 3.125 -5.546875 C 3.257812 -5.410156 3.375 -5.25 3.46875 -5.0625 L 3.515625 -5.0625 C 3.503906 -5.226562 3.492188 -5.375 3.484375 -5.5 C 3.484375 -5.632812 3.484375 -5.757812 3.484375 -5.875 L 3.484375 -8.3125 L 4.296875 -8.3125 L 4.296875 0 L 3.640625 0 L 3.53125 -0.796875 L 3.484375 -0.796875 C 3.378906 -0.609375 3.265625 -0.445312 3.140625 -0.3125 C 3.015625 -0.175781 2.875 -0.0703125 2.71875 0 C 2.5625 0.0703125 2.378906 0.109375 2.171875 0.109375 Z M 2.359375 -0.59375 C 2.722656 -0.59375 3 -0.765625 3.1875 -1.109375 C 3.382812 -1.453125 3.484375 -1.960938 3.484375 -2.640625 L 3.484375 -3.046875 C 3.484375 -3.785156 3.390625 -4.332031 3.203125 -4.6875 C 3.023438 -5.050781 2.738281 -5.234375 2.34375 -5.234375 C 1.988281 -5.234375 1.722656 -5.035156 1.546875 -4.640625 C 1.378906 -4.242188 1.296875 -3.671875 1.296875 -2.921875 C 1.296875 -2.148438 1.378906 -1.566406 1.546875 -1.171875 C 1.722656 -0.785156 1.992188 -0.59375 2.359375 -0.59375 Z M 2.359375 -0.59375 "/></g></g><g style="fill:#2d6d5e;fill-opacity:1;"><g transform="translate(78.800859, 143.094725)"><path style="stroke:none" d="M 2.28125 -5.96875 C 2.820312 -5.96875 3.207031 -5.796875 3.4375 -5.453125 C 3.675781 -5.109375 3.796875 -4.609375 3.796875 -3.953125 L 3.796875 0 L 3.171875 0 L 3.046875 -0.828125 L 3.015625 -0.828125 C 2.929688 -0.628906 2.820312 -0.457031 2.6875 -0.3125 C 2.5625 -0.175781 2.414062 -0.0703125 2.25 0 C 2.09375 0.0703125 1.90625 0.109375 1.6875 0.109375 C 1.382812 0.109375 1.132812 0.03125 0.9375 -0.125 C 0.75 -0.289062 0.609375 -0.503906 0.515625 -0.765625 C 0.421875 -1.023438 0.375 -1.304688 0.375 -1.609375 C 0.375 -2.191406 0.539062 -2.640625 0.875 -2.953125 C 1.21875 -3.273438 1.695312 -3.453125 2.3125 -3.484375 L 2.96875 -3.53125 L 2.96875 -3.9375 C 2.96875 -4.40625 2.90625 -4.742188 2.78125 -4.953125 C 2.65625 -5.171875 2.445312 -5.28125 2.15625 -5.28125 C 2 -5.28125 1.828125 -5.25 1.640625 -5.1875 C 1.460938 -5.132812 1.269531 -5.046875 1.0625 -4.921875 L 0.796875 -5.546875 C 1.015625 -5.691406 1.25 -5.796875 1.5 -5.859375 C 1.757812 -5.929688 2.019531 -5.96875 2.28125 -5.96875 Z M 2.984375 -2.921875 L 2.4375 -2.890625 C 2.03125 -2.867188 1.722656 -2.753906 1.515625 -2.546875 C 1.316406 -2.335938 1.21875 -2.035156 1.21875 -1.640625 C 1.21875 -1.265625 1.28125 -0.988281 1.40625 -0.8125 C 1.539062 -0.644531 1.722656 -0.5625 1.953125 -0.5625 C 2.285156 -0.5625 2.539062 -0.71875 2.71875 -1.03125 C 2.894531 -1.34375 2.984375 -1.773438 2.984375 -2.328125 Z M 2.984375 -2.921875 "/></g></g><g style="fill:#2d6d5e;fill-opacity:1;"><g transform="translate(84.826698, 143.094725)"><path style="stroke:none" d="M 2.171875 0.109375 C 1.609375 0.109375 1.179688 -0.144531 0.890625 -0.65625 C 0.609375 -1.175781 0.46875 -1.929688 0.46875 -2.921875 C 0.46875 -3.898438 0.613281 -4.648438 0.90625 -5.171875 C 1.195312 -5.703125 1.609375 -5.96875 2.140625 -5.96875 C 2.335938 -5.96875 2.519531 -5.929688 2.6875 -5.859375 C 2.851562 -5.785156 3 -5.679688 3.125 -5.546875 C 3.257812 -5.410156 3.375 -5.25 3.46875 -5.0625 L 3.515625 -5.0625 C 3.503906 -5.226562 3.492188 -5.375 3.484375 -5.5 C 3.484375 -5.632812 3.484375 -5.757812 3.484375 -5.875 L 3.484375 -8.3125 L 4.296875 -8.3125 L 4.296875 0 L 3.640625 0 L 3.53125 -0.796875 L 3.484375 -0.796875 C 3.378906 -0.609375 3.265625 -0.445312 3.140625 -0.3125 C 3.015625 -0.175781 2.875 -0.0703125 2.71875 0 C 2.5625 0.0703125 2.378906 0.109375 2.171875 0.109375 Z M 2.359375 -0.59375 C 2.722656 -0.59375 3 -0.765625 3.1875 -1.109375 C 3.382812 -1.453125 3.484375 -1.960938 3.484375 -2.640625 L 3.484375 -3.046875 C 3.484375 -3.785156 3.390625 -4.332031 3.203125 -4.6875 C 3.023438 -5.050781 2.738281 -5.234375 2.34375 -5.234375 C 1.988281 -5.234375 1.722656 -5.035156 1.546875 -4.640625 C 1.378906 -4.242188 1.296875 -3.671875 1.296875 -2.921875 C 1.296875 -2.148438 1.378906 -1.566406 1.546875 -1.171875 C 1.722656 -0.785156 1.992188 -0.59375 2.359375 -0.59375 Z M 2.359375 -0.59375 "/></g></g><g style="fill:#2d6d5e;fill-opacity:1;"><g transform="translate(91.365411, 143.094725)"><path style="stroke:none" d="M 2.328125 -5.953125 C 2.722656 -5.953125 3.050781 -5.835938 3.3125 -5.609375 C 3.570312 -5.378906 3.765625 -5.066406 3.890625 -4.671875 C 4.015625 -4.285156 4.078125 -3.851562 4.078125 -3.375 L 4.078125 -2.78125 L 1.28125 -2.78125 C 1.289062 -2.050781 1.40625 -1.503906 1.625 -1.140625 C 1.84375 -0.773438 2.171875 -0.59375 2.609375 -0.59375 C 2.828125 -0.59375 3.035156 -0.625 3.234375 -0.6875 C 3.441406 -0.75 3.648438 -0.851562 3.859375 -1 L 3.859375 -0.265625 C 3.660156 -0.140625 3.453125 -0.046875 3.234375 0.015625 C 3.015625 0.078125 2.78125 0.109375 2.53125 0.109375 C 2.039062 0.109375 1.644531 -0.0195312 1.34375 -0.28125 C 1.039062 -0.539062 0.816406 -0.898438 0.671875 -1.359375 C 0.535156 -1.816406 0.46875 -2.332031 0.46875 -2.90625 C 0.46875 -3.550781 0.535156 -4.101562 0.671875 -4.5625 C 0.816406 -5.019531 1.023438 -5.363281 1.296875 -5.59375 C 1.578125 -5.832031 1.921875 -5.953125 2.328125 -5.953125 Z M 2.328125 -5.28125 C 2.015625 -5.28125 1.769531 -5.128906 1.59375 -4.828125 C 1.425781 -4.535156 1.328125 -4.070312 1.296875 -3.4375 L 3.3125 -3.4375 C 3.3125 -3.769531 3.273438 -4.078125 3.203125 -4.359375 C 3.140625 -4.640625 3.035156 -4.863281 2.890625 -5.03125 C 2.742188 -5.195312 2.554688 -5.28125 2.328125 -5.28125 Z M 2.328125 -5.28125 "/></g></g><g style="fill:#0661aa;fill-opacity:1;"><g transform="translate(20.604343, 93.9085)"><path style="stroke:none" d="M 0.890625 0 L 0.890625 -12.765625 L 8.96875 -12.765625 L 8.96875 -10.328125 L 3.859375 -10.328125 L 3.859375 -7.609375 L 8.25 -7.609375 L 8.25 -5.46875 L 3.859375 -5.46875 L 3.859375 -2.453125 L 9.140625 -2.453125 L 9.140625 0 Z M 0.890625 0 "/></g></g><g style="fill:#0661aa;fill-opacity:1;"><g transform="translate(32.250146, 93.9085)"><path style="stroke:none" d="M 0.09375 0 L 3.0625 -4.765625 L 0.25 -9.171875 L 3.265625 -9.171875 L 4.859375 -6.25 L 6.453125 -9.171875 L 9.484375 -9.171875 L 6.65625 -4.765625 L 9.625 0 L 6.53125 0 L 4.859375 -3.078125 L 3.171875 0 Z M 0.09375 0 "/></g></g><g style="fill:#0661aa;fill-opacity:1;"><g transform="translate(44.07512, 93.9085)"><path style="stroke:none" d="M 0.6875 3.765625 L 0.6875 -9.171875 L 3.015625 -9.171875 L 3.34375 -7.578125 L 3.375 -7.578125 C 3.632812 -8.179688 4.007812 -8.640625 4.5 -8.953125 C 5 -9.265625 5.5625 -9.421875 6.1875 -9.421875 C 6.914062 -9.421875 7.546875 -9.222656 8.078125 -8.828125 C 8.617188 -8.441406 9.035156 -7.882812 9.328125 -7.15625 C 9.628906 -6.4375 9.78125 -5.582031 9.78125 -4.59375 C 9.78125 -3.613281 9.628906 -2.757812 9.328125 -2.03125 C 9.035156 -1.300781 8.617188 -0.738281 8.078125 -0.34375 C 7.546875 0.0507812 6.914062 0.25 6.1875 0.25 C 5.570312 0.25 5.023438 0.09375 4.546875 -0.21875 C 4.066406 -0.53125 3.691406 -0.976562 3.421875 -1.5625 L 3.40625 -1.5625 L 3.40625 3.765625 Z M 5.171875 -2.09375 C 5.734375 -2.09375 6.1875 -2.316406 6.53125 -2.765625 C 6.875 -3.222656 7.046875 -3.832031 7.046875 -4.59375 C 7.046875 -5.351562 6.875 -5.957031 6.53125 -6.40625 C 6.1875 -6.851562 5.734375 -7.078125 5.171875 -7.078125 C 4.617188 -7.078125 4.164062 -6.847656 3.8125 -6.390625 C 3.46875 -5.941406 3.296875 -5.34375 3.296875 -4.59375 C 3.296875 -3.832031 3.46875 -3.222656 3.8125 -2.765625 C 4.164062 -2.316406 4.617188 -2.09375 5.171875 -2.09375 Z M 5.171875 -2.09375 "/></g></g><g style="fill:#0661aa;fill-opacity:1;"><g transform="translate(56.365921, 93.9085)"><path style="stroke:none" d="M 3.171875 0.21875 C 2.296875 0.21875 1.585938 -0.015625 1.046875 -0.484375 C 0.515625 -0.953125 0.25 -1.578125 0.25 -2.359375 C 0.25 -3.203125 0.566406 -3.878906 1.203125 -4.390625 C 1.847656 -4.910156 2.785156 -5.238281 4.015625 -5.375 L 5.4375 -5.53125 C 5.632812 -5.5625 5.796875 -5.632812 5.921875 -5.75 C 6.046875 -5.875 6.109375 -6.046875 6.109375 -6.265625 C 6.109375 -6.671875 5.984375 -6.984375 5.734375 -7.203125 C 5.484375 -7.421875 5.15625 -7.53125 4.75 -7.53125 C 4.28125 -7.53125 3.898438 -7.367188 3.609375 -7.046875 C 3.328125 -6.722656 3.175781 -6.316406 3.15625 -5.828125 L 0.5625 -6.203125 C 0.582031 -6.847656 0.769531 -7.414062 1.125 -7.90625 C 1.476562 -8.40625 1.960938 -8.796875 2.578125 -9.078125 C 3.191406 -9.359375 3.910156 -9.5 4.734375 -9.5 C 5.984375 -9.5 6.972656 -9.171875 7.703125 -8.515625 C 8.429688 -7.859375 8.796875 -6.96875 8.796875 -5.84375 L 8.796875 -2.296875 C 8.796875 -1.890625 8.945312 -1.6875 9.25 -1.6875 C 9.488281 -1.6875 9.710938 -1.804688 9.921875 -2.046875 L 10.515625 -0.578125 C 10.234375 -0.296875 9.890625 -0.09375 9.484375 0.03125 C 9.078125 0.164062 8.675781 0.234375 8.28125 0.234375 C 7.726562 0.234375 7.265625 0.09375 6.890625 -0.1875 C 6.515625 -0.46875 6.28125 -0.820312 6.1875 -1.25 L 6.140625 -1.484375 L 6.125 -1.484375 C 5.851562 -0.960938 5.457031 -0.546875 4.9375 -0.234375 C 4.425781 0.0664062 3.835938 0.21875 3.171875 0.21875 Z M 4.296875 -1.703125 C 4.816406 -1.703125 5.242188 -1.882812 5.578125 -2.25 C 5.910156 -2.613281 6.078125 -3.085938 6.078125 -3.671875 L 6.078125 -4.109375 L 4.734375 -3.953125 C 4.109375 -3.890625 3.660156 -3.742188 3.390625 -3.515625 C 3.128906 -3.285156 3 -3.015625 3 -2.703125 C 3 -2.410156 3.117188 -2.171875 3.359375 -1.984375 C 3.609375 -1.796875 3.921875 -1.703125 4.296875 -1.703125 Z M 4.296875 -1.703125 "/></g></g><g style="fill:#0661aa;fill-opacity:1;"><g transform="translate(68.997134, 93.9085)"><path style="stroke:none" d="M 6.25 -9.40625 C 7.101562 -9.40625 7.773438 -9.148438 8.265625 -8.640625 C 8.753906 -8.140625 9 -7.4375 9 -6.53125 L 9 0 L 6.25 0 L 6.25 -5.828125 C 6.25 -6.253906 6.140625 -6.585938 5.921875 -6.828125 C 5.710938 -7.066406 5.414062 -7.1875 5.03125 -7.1875 C 4.539062 -7.1875 4.144531 -7.023438 3.84375 -6.703125 C 3.550781 -6.390625 3.40625 -5.953125 3.40625 -5.390625 L 3.40625 0 L 0.6875 0 L 0.6875 -9.171875 L 2.9375 -9.171875 L 3.3125 -7.609375 L 3.328125 -7.609375 C 3.609375 -8.191406 4.003906 -8.632812 4.515625 -8.9375 C 5.023438 -9.25 5.601562 -9.40625 6.25 -9.40625 Z M 6.25 -9.40625 "/></g></g><g style="fill:#0661aa;fill-opacity:1;"><g transform="translate(80.732517, 93.9085)"><path style="stroke:none" d="M 4.4375 0.28125 C 3.6875 0.28125 3.003906 0.164062 2.390625 -0.0625 C 1.773438 -0.289062 1.28125 -0.640625 0.90625 -1.109375 C 0.53125 -1.578125 0.320312 -2.15625 0.28125 -2.84375 L 2.703125 -3.15625 C 2.722656 -2.644531 2.90625 -2.242188 3.25 -1.953125 C 3.59375 -1.660156 4.019531 -1.515625 4.53125 -1.515625 C 4.945312 -1.515625 5.296875 -1.601562 5.578125 -1.78125 C 5.867188 -1.96875 6.015625 -2.203125 6.015625 -2.484375 C 6.015625 -2.765625 5.890625 -2.988281 5.640625 -3.15625 C 5.390625 -3.332031 4.984375 -3.488281 4.421875 -3.625 L 3.21875 -3.921875 C 2.320312 -4.140625 1.675781 -4.457031 1.28125 -4.875 C 0.882812 -5.289062 0.6875 -5.847656 0.6875 -6.546875 C 0.6875 -7.453125 1.019531 -8.164062 1.6875 -8.6875 C 2.363281 -9.207031 3.238281 -9.46875 4.3125 -9.46875 C 4.957031 -9.46875 5.550781 -9.359375 6.09375 -9.140625 C 6.632812 -8.921875 7.070312 -8.601562 7.40625 -8.1875 C 7.75 -7.78125 7.953125 -7.269531 8.015625 -6.65625 L 5.625 -6.359375 C 5.601562 -6.785156 5.460938 -7.113281 5.203125 -7.34375 C 4.953125 -7.570312 4.628906 -7.6875 4.234375 -7.6875 C 3.878906 -7.6875 3.59375 -7.597656 3.375 -7.421875 C 3.15625 -7.253906 3.046875 -7.046875 3.046875 -6.796875 C 3.046875 -6.546875 3.160156 -6.335938 3.390625 -6.171875 C 3.617188 -6.015625 3.984375 -5.863281 4.484375 -5.71875 L 5.71875 -5.40625 C 6.6875 -5.164062 7.394531 -4.832031 7.84375 -4.40625 C 8.300781 -3.976562 8.535156 -3.414062 8.546875 -2.71875 C 8.546875 -2.101562 8.367188 -1.570312 8.015625 -1.125 C 7.660156 -0.675781 7.175781 -0.328125 6.5625 -0.078125 C 5.945312 0.160156 5.238281 0.28125 4.4375 0.28125 Z M 4.4375 0.28125 "/></g></g><g style="fill:#0661aa;fill-opacity:1;"><g transform="translate(91.679578, 93.9085)"><path style="stroke:none" d="M 5.9375 -10.578125 C 5.601562 -10.578125 5.328125 -10.679688 5.109375 -10.890625 C 4.890625 -11.097656 4.691406 -11.320312 4.515625 -11.5625 C 4.359375 -11.789062 4.203125 -11.992188 4.046875 -12.171875 C 3.890625 -12.359375 3.710938 -12.453125 3.515625 -12.453125 C 3.273438 -12.453125 3.078125 -12.289062 2.921875 -11.96875 C 2.765625 -11.644531 2.6875 -11.238281 2.6875 -10.75 L 1.984375 -10.75 C 1.984375 -11.445312 2.117188 -12.019531 2.390625 -12.46875 C 2.671875 -12.914062 3.050781 -13.140625 3.53125 -13.140625 C 3.875 -13.140625 4.15625 -13.03125 4.375 -12.8125 C 4.59375 -12.59375 4.785156 -12.367188 4.953125 -12.140625 C 5.117188 -11.910156 5.269531 -11.703125 5.40625 -11.515625 C 5.550781 -11.335938 5.722656 -11.25 5.921875 -11.25 C 6.179688 -11.25 6.390625 -11.410156 6.546875 -11.734375 C 6.710938 -12.054688 6.796875 -12.46875 6.796875 -12.96875 L 7.484375 -12.96875 C 7.484375 -12.28125 7.335938 -11.707031 7.046875 -11.25 C 6.765625 -10.800781 6.394531 -10.578125 5.9375 -10.578125 Z M 3.171875 0.21875 C 2.296875 0.21875 1.585938 -0.015625 1.046875 -0.484375 C 0.515625 -0.953125 0.25 -1.578125 0.25 -2.359375 C 0.25 -3.203125 0.566406 -3.878906 1.203125 -4.390625 C 1.847656 -4.910156 2.785156 -5.238281 4.015625 -5.375 L 5.4375 -5.53125 C 5.632812 -5.5625 5.796875 -5.632812 5.921875 -5.75 C 6.046875 -5.875 6.109375 -6.046875 6.109375 -6.265625 C 6.109375 -6.671875 5.984375 -6.984375 5.734375 -7.203125 C 5.484375 -7.421875 5.15625 -7.53125 4.75 -7.53125 C 4.28125 -7.53125 3.898438 -7.367188 3.609375 -7.046875 C 3.328125 -6.722656 3.175781 -6.316406 3.15625 -5.828125 L 0.5625 -6.203125 C 0.582031 -6.847656 0.769531 -7.414062 1.125 -7.90625 C 1.476562 -8.40625 1.960938 -8.796875 2.578125 -9.078125 C 3.191406 -9.359375 3.910156 -9.5 4.734375 -9.5 C 5.984375 -9.5 6.972656 -9.171875 7.703125 -8.515625 C 8.429688 -7.859375 8.796875 -6.96875 8.796875 -5.84375 L 8.796875 -2.296875 C 8.796875 -1.890625 8.945312 -1.6875 9.25 -1.6875 C 9.488281 -1.6875 9.710938 -1.804688 9.921875 -2.046875 L 10.515625 -0.578125 C 10.234375 -0.296875 9.890625 -0.09375 9.484375 0.03125 C 9.078125 0.164062 8.675781 0.234375 8.28125 0.234375 C 7.726562 0.234375 7.265625 0.09375 6.890625 -0.1875 C 6.515625 -0.46875 6.28125 -0.820312 6.1875 -1.25 L 6.140625 -1.484375 L 6.125 -1.484375 C 5.851562 -0.960938 5.457031 -0.546875 4.9375 -0.234375 C 4.425781 0.0664062 3.835938 0.21875 3.171875 0.21875 Z M 4.296875 -1.703125 C 4.816406 -1.703125 5.242188 -1.882812 5.578125 -2.25 C 5.910156 -2.613281 6.078125 -3.085938 6.078125 -3.671875 L 6.078125 -4.109375 L 4.734375 -3.953125 C 4.109375 -3.890625 3.660156 -3.742188 3.390625 -3.515625 C 3.128906 -3.285156 3 -3.015625 3 -2.703125 C 3 -2.410156 3.117188 -2.171875 3.359375 -1.984375 C 3.609375 -1.796875 3.921875 -1.703125 4.296875 -1.703125 Z M 4.296875 -1.703125 "/></g></g><g style="fill:#0661aa;fill-opacity:1;"><g transform="translate(104.310791, 93.9085)"><path style="stroke:none" d="M 5.03125 0.296875 C 4.09375 0.296875 3.269531 0.0976562 2.5625 -0.296875 C 1.863281 -0.691406 1.320312 -1.253906 0.9375 -1.984375 C 0.5625 -2.722656 0.375 -3.59375 0.375 -4.59375 C 0.375 -5.59375 0.5625 -6.457031 0.9375 -7.1875 C 1.320312 -7.925781 1.863281 -8.492188 2.5625 -8.890625 C 3.269531 -9.296875 4.09375 -9.5 5.03125 -9.5 C 5.976562 -9.5 6.796875 -9.296875 7.484375 -8.890625 C 8.179688 -8.492188 8.71875 -7.925781 9.09375 -7.1875 C 9.476562 -6.457031 9.671875 -5.59375 9.671875 -4.59375 C 9.671875 -3.59375 9.476562 -2.722656 9.09375 -1.984375 C 8.71875 -1.253906 8.179688 -0.691406 7.484375 -0.296875 C 6.796875 0.0976562 5.976562 0.296875 5.03125 0.296875 Z M 5.03125 -1.984375 C 5.632812 -1.984375 6.101562 -2.210938 6.4375 -2.671875 C 6.78125 -3.140625 6.953125 -3.78125 6.953125 -4.59375 C 6.953125 -5.40625 6.78125 -6.039062 6.4375 -6.5 C 6.101562 -6.957031 5.632812 -7.1875 5.03125 -7.1875 C 4.4375 -7.1875 3.960938 -6.957031 3.609375 -6.5 C 3.265625 -6.039062 3.09375 -5.40625 3.09375 -4.59375 C 3.09375 -3.78125 3.265625 -3.140625 3.609375 -2.671875 C 3.960938 -2.210938 4.4375 -1.984375 5.03125 -1.984375 Z M 5.03125 -1.984375 "/></g></g><g style="fill:#0661aa;fill-opacity:1;"><g transform="translate(20.709324, 115.557804)"><path style="stroke:none" d="M 0.890625 0 L 0.890625 -12.765625 L 6.375 -12.765625 C 7.332031 -12.765625 8.160156 -12.585938 8.859375 -12.234375 C 9.554688 -11.890625 10.097656 -11.40625 10.484375 -10.78125 C 10.867188 -10.15625 11.0625 -9.414062 11.0625 -8.5625 C 11.0625 -7.71875 10.867188 -6.976562 10.484375 -6.34375 C 10.109375 -5.707031 9.578125 -5.21875 8.890625 -4.875 C 8.210938 -4.539062 7.40625 -4.375 6.46875 -4.375 L 3.9375 -4.375 L 3.9375 0 Z M 3.9375 -6.65625 L 5.890625 -6.65625 C 6.523438 -6.65625 7.035156 -6.828125 7.421875 -7.171875 C 7.804688 -7.515625 8 -7.976562 8 -8.5625 C 8 -9.144531 7.804688 -9.613281 7.421875 -9.96875 C 7.035156 -10.320312 6.523438 -10.5 5.890625 -10.5 L 3.9375 -10.5 Z M 3.9375 -6.65625 "/></g></g><g style="fill:#0661aa;fill-opacity:1;"><g transform="translate(34.182625, 115.557804)"><path style="stroke:none" d="M 3.375 0.234375 C 2.53125 0.234375 1.859375 -0.0195312 1.359375 -0.53125 C 0.867188 -1.039062 0.625 -1.75 0.625 -2.65625 L 0.625 -9.171875 L 3.375 -9.171875 L 3.375 -3.34375 C 3.375 -2.914062 3.484375 -2.582031 3.703125 -2.34375 C 3.921875 -2.101562 4.21875 -1.984375 4.59375 -1.984375 C 5.082031 -1.984375 5.472656 -2.144531 5.765625 -2.46875 C 6.066406 -2.789062 6.21875 -3.226562 6.21875 -3.78125 L 6.21875 -9.171875 L 8.9375 -9.171875 L 8.9375 0 L 6.6875 0 L 6.3125 -1.5625 L 6.296875 -1.5625 C 6.015625 -0.988281 5.617188 -0.546875 5.109375 -0.234375 C 4.597656 0.078125 4.019531 0.234375 3.375 0.234375 Z M 3.375 0.234375 "/></g></g><g style="fill:#0661aa;fill-opacity:1;"><g transform="translate(45.918007, 115.557804)"><path style="stroke:none" d="M 0.6875 0 L 0.6875 -13.296875 L 3.40625 -13.296875 L 3.40625 0 Z M 0.6875 0 "/></g></g><g style="fill:#0661aa;fill-opacity:1;"><g transform="translate(52.117163, 115.557804)"><path style="stroke:none" d="M 0.6875 0 L 0.6875 -9.171875 L 2.875 -9.171875 L 3.25 -7.53125 L 3.265625 -7.53125 C 3.503906 -8.125 3.878906 -8.585938 4.390625 -8.921875 C 4.898438 -9.253906 5.476562 -9.421875 6.125 -9.421875 C 6.800781 -9.421875 7.359375 -9.253906 7.796875 -8.921875 C 8.234375 -8.585938 8.550781 -8.109375 8.75 -7.484375 L 8.765625 -7.484375 C 9.066406 -8.117188 9.476562 -8.597656 10 -8.921875 C 10.519531 -9.253906 11.101562 -9.421875 11.75 -9.421875 C 12.601562 -9.421875 13.257812 -9.148438 13.71875 -8.609375 C 14.1875 -8.066406 14.421875 -7.3125 14.421875 -6.34375 L 14.421875 0 L 11.6875 0 L 11.6875 -5.765625 C 11.6875 -6.179688 11.578125 -6.503906 11.359375 -6.734375 C 11.148438 -6.972656 10.847656 -7.09375 10.453125 -7.09375 C 9.972656 -7.09375 9.597656 -6.925781 9.328125 -6.59375 C 9.054688 -6.257812 8.921875 -5.804688 8.921875 -5.234375 L 8.921875 0 L 6.1875 0 L 6.1875 -5.765625 C 6.1875 -6.179688 6.078125 -6.503906 5.859375 -6.734375 C 5.640625 -6.972656 5.335938 -7.09375 4.953125 -7.09375 C 4.472656 -7.09375 4.09375 -6.925781 3.8125 -6.59375 C 3.539062 -6.257812 3.40625 -5.804688 3.40625 -5.234375 L 3.40625 0 Z M 0.6875 0 "/></g></g><g style="fill:#0661aa;fill-opacity:1;"><g transform="translate(69.281285, 115.557804)"><path style="stroke:none" d="M 5.03125 0.296875 C 4.09375 0.296875 3.269531 0.0976562 2.5625 -0.296875 C 1.863281 -0.691406 1.320312 -1.253906 0.9375 -1.984375 C 0.5625 -2.722656 0.375 -3.59375 0.375 -4.59375 C 0.375 -5.59375 0.5625 -6.457031 0.9375 -7.1875 C 1.320312 -7.925781 1.863281 -8.492188 2.5625 -8.890625 C 3.269531 -9.296875 4.09375 -9.5 5.03125 -9.5 C 5.976562 -9.5 6.796875 -9.296875 7.484375 -8.890625 C 8.179688 -8.492188 8.71875 -7.925781 9.09375 -7.1875 C 9.476562 -6.457031 9.671875 -5.59375 9.671875 -4.59375 C 9.671875 -3.59375 9.476562 -2.722656 9.09375 -1.984375 C 8.71875 -1.253906 8.179688 -0.691406 7.484375 -0.296875 C 6.796875 0.0976562 5.976562 0.296875 5.03125 0.296875 Z M 5.03125 -1.984375 C 5.632812 -1.984375 6.101562 -2.210938 6.4375 -2.671875 C 6.78125 -3.140625 6.953125 -3.78125 6.953125 -4.59375 C 6.953125 -5.40625 6.78125 -6.039062 6.4375 -6.5 C 6.101562 -6.957031 5.632812 -7.1875 5.03125 -7.1875 C 4.4375 -7.1875 3.960938 -6.957031 3.609375 -6.5 C 3.265625 -6.039062 3.09375 -5.40625 3.09375 -4.59375 C 3.09375 -3.78125 3.265625 -3.140625 3.609375 -2.671875 C 3.960938 -2.210938 4.4375 -1.984375 5.03125 -1.984375 Z M 5.03125 -1.984375 "/></g></g><g style="fill:#0661aa;fill-opacity:1;"><g transform="translate(81.464589, 115.557804)"><path style="stroke:none" d="M 6.25 -9.40625 C 7.101562 -9.40625 7.773438 -9.148438 8.265625 -8.640625 C 8.753906 -8.140625 9 -7.4375 9 -6.53125 L 9 0 L 6.25 0 L 6.25 -5.828125 C 6.25 -6.253906 6.140625 -6.585938 5.921875 -6.828125 C 5.710938 -7.066406 5.414062 -7.1875 5.03125 -7.1875 C 4.539062 -7.1875 4.144531 -7.023438 3.84375 -6.703125 C 3.550781 -6.390625 3.40625 -5.953125 3.40625 -5.390625 L 3.40625 0 L 0.6875 0 L 0.6875 -9.171875 L 2.9375 -9.171875 L 3.3125 -7.609375 L 3.328125 -7.609375 C 3.609375 -8.191406 4.003906 -8.632812 4.515625 -8.9375 C 5.023438 -9.25 5.601562 -9.40625 6.25 -9.40625 Z M 6.25 -9.40625 "/></g></g><g style="fill:#0661aa;fill-opacity:1;"><g transform="translate(93.199971, 115.557804)"><path style="stroke:none" d="M 3.171875 0.21875 C 2.296875 0.21875 1.585938 -0.015625 1.046875 -0.484375 C 0.515625 -0.953125 0.25 -1.578125 0.25 -2.359375 C 0.25 -3.203125 0.566406 -3.878906 1.203125 -4.390625 C 1.847656 -4.910156 2.785156 -5.238281 4.015625 -5.375 L 5.4375 -5.53125 C 5.632812 -5.5625 5.796875 -5.632812 5.921875 -5.75 C 6.046875 -5.875 6.109375 -6.046875 6.109375 -6.265625 C 6.109375 -6.671875 5.984375 -6.984375 5.734375 -7.203125 C 5.484375 -7.421875 5.15625 -7.53125 4.75 -7.53125 C 4.28125 -7.53125 3.898438 -7.367188 3.609375 -7.046875 C 3.328125 -6.722656 3.175781 -6.316406 3.15625 -5.828125 L 0.5625 -6.203125 C 0.582031 -6.847656 0.769531 -7.414062 1.125 -7.90625 C 1.476562 -8.40625 1.960938 -8.796875 2.578125 -9.078125 C 3.191406 -9.359375 3.910156 -9.5 4.734375 -9.5 C 5.984375 -9.5 6.972656 -9.171875 7.703125 -8.515625 C 8.429688 -7.859375 8.796875 -6.96875 8.796875 -5.84375 L 8.796875 -2.296875 C 8.796875 -1.890625 8.945312 -1.6875 9.25 -1.6875 C 9.488281 -1.6875 9.710938 -1.804688 9.921875 -2.046875 L 10.515625 -0.578125 C 10.234375 -0.296875 9.890625 -0.09375 9.484375 0.03125 C 9.078125 0.164062 8.675781 0.234375 8.28125 0.234375 C 7.726562 0.234375 7.265625 0.09375 6.890625 -0.1875 C 6.515625 -0.46875 6.28125 -0.820312 6.1875 -1.25 L 6.140625 -1.484375 L 6.125 -1.484375 C 5.851562 -0.960938 5.457031 -0.546875 4.9375 -0.234375 C 4.425781 0.0664062 3.835938 0.21875 3.171875 0.21875 Z M 4.296875 -1.703125 C 4.816406 -1.703125 5.242188 -1.882812 5.578125 -2.25 C 5.910156 -2.613281 6.078125 -3.085938 6.078125 -3.671875 L 6.078125 -4.109375 L 4.734375 -3.953125 C 4.109375 -3.890625 3.660156 -3.742188 3.390625 -3.515625 C 3.128906 -3.285156 3 -3.015625 3 -2.703125 C 3 -2.410156 3.117188 -2.171875 3.359375 -1.984375 C 3.609375 -1.796875 3.921875 -1.703125 4.296875 -1.703125 Z M 4.296875 -1.703125 "/></g></g><g style="fill:#0661aa;fill-opacity:1;"><g transform="translate(105.831185, 115.557804)"><path style="stroke:none" d="M 5.625 -9.421875 C 6.375 -9.421875 6.976562 -9.140625 7.4375 -8.578125 C 7.894531 -8.023438 8.144531 -7.234375 8.1875 -6.203125 L 5.875 -5.578125 C 5.863281 -6.171875 5.753906 -6.617188 5.546875 -6.921875 C 5.347656 -7.234375 5.082031 -7.390625 4.75 -7.390625 C 4.34375 -7.390625 4.015625 -7.1875 3.765625 -6.78125 C 3.523438 -6.375 3.40625 -5.8125 3.40625 -5.09375 L 3.40625 0 L 0.6875 0 L 0.6875 -9.171875 L 2.890625 -9.171875 L 3.265625 -7.59375 L 3.28125 -7.59375 C 3.476562 -8.164062 3.785156 -8.613281 4.203125 -8.9375 C 4.628906 -9.257812 5.101562 -9.421875 5.625 -9.421875 Z M 5.625 -9.421875 "/></g></g><g clip-rule="nonzero" clip-path="url(#51c2bee0a1)"><path style=" stroke:none;fill-rule:nonzero;fill:#0661aa;fill-opacity:1;" d="M 38.824219 80.707031 L 40.847656 80.707031 C 40.914062 80.707031 40.984375 80.703125 41.054688 80.691406 L 42.191406 80.5 C 42.621094 80.429688 42.976562 80.148438 43.148438 79.75 L 43.695312 78.472656 L 56.761719 73.769531 C 56.769531 73.765625 56.78125 73.761719 56.789062 73.757812 L 65.554688 70.039062 L 73.703125 66.628906 C 75.910156 65.703125 78.015625 64.523438 79.960938 63.125 L 85.683594 58.996094 L 87.128906 67.984375 L 86.90625 72.21875 C 86.375 72.09375 85.8125 72.242188 85.414062 72.640625 C 85.171875 72.882812 85.011719 73.207031 84.960938 73.546875 L 84.507812 76.71875 L 82.710938 78.289062 C 82.480469 78.492188 82.351562 78.78125 82.351562 79.089844 L 82.351562 79.421875 C 82.351562 79.96875 82.777344 80.433594 83.324219 80.480469 L 85.832031 80.6875 C 85.863281 80.691406 85.890625 80.691406 85.921875 80.691406 C 86.136719 80.691406 86.351562 80.625 86.53125 80.5 L 87.929688 79.519531 C 88.09375 79.734375 88.269531 79.9375 88.460938 80.132812 C 89.003906 80.675781 89.726562 80.972656 90.492188 80.972656 C 91.195312 80.972656 91.875 80.714844 92.398438 80.246094 C 93.601562 79.179688 94.421875 77.71875 94.707031 76.140625 L 94.828125 75.488281 C 94.835938 75.429688 95.898438 69.585938 96.6875 64.855469 C 97.4375 60.347656 97.261719 57.738281 97.015625 54.125 L 96.960938 53.308594 C 96.691406 49.261719 95.328125 44.910156 94.015625 40.699219 C 93.53125 39.15625 92.402344 36.957031 90.652344 34.164062 C 88.332031 30.460938 85.417969 27.148438 81.988281 24.324219 C 78.734375 21.644531 75.113281 19.492188 71.222656 17.925781 C 69.695312 17.308594 68.40625 16.8125 67.386719 16.449219 C 63.664062 15.121094 53.523438 15.089844 52.878906 15.089844 L 44.542969 14.539062 C 44.527344 14.539062 44.507812 14.539062 44.492188 14.539062 C 43.875 14.558594 43.316406 14.9375 43.074219 15.503906 C 42.878906 15.957031 42.902344 16.460938 43.136719 16.894531 C 43.371094 17.324219 43.78125 17.621094 44.265625 17.703125 L 47.9375 18.34375 C 47.699219 18.609375 47.59375 18.964844 47.652344 19.324219 C 47.71875 19.746094 47.996094 20.09375 48.390625 20.25 C 48.71875 20.382812 49.089844 20.363281 49.402344 20.195312 L 52.9375 18.308594 L 59.367188 19.792969 C 59.570312 19.839844 59.777344 19.878906 59.988281 19.90625 L 65.4375 20.648438 L 71.5 24.199219 C 70.785156 23.992188 69.925781 23.988281 69.421875 24.007812 L 68.808594 22.894531 C 68.742188 22.769531 68.625 22.679688 68.492188 22.640625 C 68.355469 22.597656 68.210938 22.617188 68.085938 22.683594 L 66.332031 23.648438 C 65.902344 23.757812 63.609375 24.351562 62.351562 24.824219 C 61.132812 25.277344 59.988281 26.515625 59.625 27.761719 C 59.097656 29.574219 59.335938 31.648438 60.226562 33.160156 C 59.140625 34.167969 58.832031 35.785156 59.554688 37.054688 C 60.144531 38.089844 61.230469 38.671875 62.34375 38.671875 C 62.878906 38.671875 63.421875 38.535156 63.921875 38.25 C 64.816406 37.742188 65.429688 36.933594 65.613281 36.066406 C 65.640625 36.066406 65.671875 36.070312 65.699219 36.070312 C 66.101562 36.070312 66.5 36.027344 66.871094 35.9375 C 68.457031 35.550781 70.417969 34.847656 71.617188 33.59375 L 71.707031 33.945312 L 70.964844 36.660156 L 68.878906 40.046875 C 68.859375 40.082031 68.839844 40.121094 68.828125 40.160156 L 65.402344 50.441406 L 61.996094 55.160156 C 61.988281 55.167969 61.980469 55.179688 61.972656 55.1875 L 57.234375 62.824219 L 51.511719 67.800781 C 51.167969 68.101562 51.007812 68.566406 51.097656 69.015625 C 51.132812 69.191406 51.203125 69.355469 51.304688 69.5 L 42.226562 74.9375 C 42.207031 74.949219 42.1875 74.964844 42.167969 74.980469 L 38.183594 78.167969 C 38.140625 78.203125 38.105469 78.242188 38.074219 78.289062 L 37.773438 78.738281 C 37.511719 79.128906 37.488281 79.628906 37.710938 80.039062 C 37.929688 80.453125 38.359375 80.707031 38.824219 80.707031 Z M 85.921875 79.628906 L 83.414062 79.421875 L 83.414062 79.089844 L 85.355469 77.386719 C 85.453125 77.304688 85.515625 77.1875 85.53125 77.0625 L 86.011719 73.695312 C 86.03125 73.582031 86.082031 73.476562 86.164062 73.394531 C 86.328125 73.230469 86.578125 73.1875 86.785156 73.292969 L 86.847656 73.324219 L 86.726562 75.613281 C 86.671875 76.664062 86.898438 77.699219 87.363281 78.621094 Z M 95.953125 54.199219 C 96.195312 57.738281 96.371094 60.292969 95.640625 64.679688 C 94.851562 69.402344 93.792969 75.242188 93.78125 75.300781 L 93.664062 75.949219 C 93.417969 77.296875 92.71875 78.542969 91.695312 79.453125 C 91.363281 79.75 90.9375 79.910156 90.492188 79.910156 C 90.007812 79.910156 89.554688 79.722656 89.210938 79.378906 C 88.234375 78.402344 87.714844 77.050781 87.789062 75.671875 L 88.195312 67.984375 C 88.195312 67.945312 88.195312 67.910156 88.1875 67.871094 L 86.648438 58.300781 L 88.503906 56.964844 L 87.882812 56.101562 L 79.339844 62.261719 C 77.460938 63.613281 75.425781 64.753906 73.292969 65.648438 L 65.140625 69.058594 L 64.3125 69.410156 L 60.914062 65.84375 L 63.4375 64.722656 C 63.488281 64.699219 63.539062 64.667969 63.578125 64.628906 L 70.496094 58.363281 C 71.527344 57.425781 72.636719 56.550781 73.789062 55.765625 L 76.417969 53.972656 C 77.4375 53.28125 78.28125 52.339844 78.859375 51.25 L 79.023438 50.945312 C 79.195312 50.628906 79.335938 50.292969 79.457031 49.953125 C 80.523438 50.152344 83.234375 50.605469 85.925781 50.605469 C 86.851562 50.605469 87.777344 50.550781 88.632812 50.414062 C 91.175781 50.011719 93.777344 48.496094 94.949219 47.742188 C 95.421875 49.667969 95.777344 51.5625 95.898438 53.378906 Z M 76.753906 42.519531 C 77.816406 43.503906 78.53125 44.835938 78.769531 46.265625 C 79.007812 47.6875 78.765625 49.175781 78.085938 50.449219 L 77.921875 50.753906 C 77.425781 51.6875 76.695312 52.5 75.820312 53.097656 L 73.191406 54.890625 C 71.996094 55.703125 70.851562 56.605469 69.78125 57.574219 L 62.929688 63.785156 L 60.101562 65.042969 L 60.449219 64.566406 L 67.078125 56.878906 C 67.097656 56.859375 67.113281 56.835938 67.128906 56.808594 L 71.625 49.476562 C 72.003906 48.855469 72.339844 48.203125 72.625 47.535156 L 75.332031 41.199219 Z M 79.828125 46.15625 C 80.449219 46.214844 81.414062 46.28125 82.53125 46.28125 C 84.0625 46.28125 85.871094 46.15625 87.453125 45.710938 C 90.101562 44.964844 92.574219 43.738281 93.664062 43.160156 C 94.019531 44.324219 94.363281 45.492188 94.671875 46.652344 C 93.78125 47.246094 91.035156 48.957031 88.464844 49.367188 C 85.402344 49.851562 81.21875 49.191406 79.75 48.925781 C 79.941406 48.019531 79.972656 47.078125 79.828125 46.15625 Z M 93 41.015625 C 93.117188 41.386719 93.230469 41.753906 93.34375 42.125 C 92.410156 42.625 89.84375 43.929688 87.164062 44.6875 C 84.378906 45.472656 80.6875 45.179688 79.566406 45.0625 C 79.171875 43.800781 78.453125 42.644531 77.480469 41.738281 L 72.054688 36.703125 L 72.617188 34.640625 C 74.09375 35.019531 75.679688 34.445312 76.5625 33.15625 L 76.78125 32.832031 C 77.820312 31.316406 77.542969 29.261719 76.210938 28.035156 L 76.769531 27.101562 L 85.042969 28.640625 C 86.8125 30.519531 88.390625 32.554688 89.753906 34.730469 C 91.453125 37.445312 92.542969 39.558594 93 41.015625 Z M 73.292969 30 C 73.335938 29.761719 73.378906 29.449219 73.414062 29.089844 L 75.378906 28.722656 C 76.425781 29.585938 76.671875 31.113281 75.90625 32.230469 L 75.683594 32.554688 C 75.019531 33.523438 73.796875 33.921875 72.703125 33.554688 L 72.414062 32.421875 C 72.792969 31.65625 73.152344 30.839844 73.292969 30 Z M 65.683594 19.609375 L 60.128906 18.855469 C 59.953125 18.828125 59.777344 18.796875 59.605469 18.757812 L 52.980469 17.230469 C 52.855469 17.199219 52.726562 17.21875 52.613281 17.277344 L 48.902344 19.257812 C 48.867188 19.277344 48.824219 19.277344 48.785156 19.261719 C 48.726562 19.238281 48.707031 19.191406 48.703125 19.15625 C 48.695312 19.121094 48.699219 19.074219 48.75 19.03125 L 49.484375 18.421875 C 49.640625 18.289062 49.710938 18.074219 49.65625 17.875 C 49.601562 17.675781 49.4375 17.523438 49.234375 17.488281 L 44.449219 16.65625 C 44.289062 16.628906 44.148438 16.53125 44.070312 16.386719 C 43.996094 16.242188 43.988281 16.074219 44.050781 15.921875 C 44.128906 15.738281 44.304688 15.617188 44.503906 15.601562 L 52.828125 16.152344 C 52.839844 16.152344 52.851562 16.152344 52.863281 16.152344 C 52.96875 16.152344 63.4375 16.167969 67.027344 17.449219 C 68.035156 17.808594 69.3125 18.300781 70.828125 18.910156 C 74.617188 20.4375 78.144531 22.535156 81.3125 25.144531 C 82.15625 25.839844 82.964844 26.5625 83.746094 27.316406 L 76.695312 26.007812 L 65.882812 19.679688 C 65.820312 19.644531 65.753906 19.621094 65.683594 19.609375 Z M 75.773438 26.699219 L 75.183594 27.679688 L 73.457031 28 C 73.441406 26.878906 73.21875 25.625 72.460938 24.761719 Z M 63.394531 37.328125 C 62.371094 37.910156 61.0625 37.554688 60.480469 36.527344 C 60.019531 35.722656 60.199219 34.695312 60.867188 34.015625 C 61.78125 34.996094 63.152344 35.699219 64.542969 35.957031 C 64.394531 36.492188 63.984375 36.992188 63.394531 37.328125 Z M 66.621094 34.902344 C 64.824219 35.339844 62.328125 34.382812 61.289062 32.855469 C 60.421875 31.582031 60.167969 29.699219 60.644531 28.058594 C 60.914062 27.136719 61.824219 26.15625 62.722656 25.816406 C 62.757812 25.804688 62.792969 25.792969 62.828125 25.78125 C 63.230469 27.324219 64.625 31.574219 68.308594 34.390625 C 67.796875 34.582031 67.234375 34.753906 66.621094 34.902344 Z M 69.425781 33.886719 C 65.636719 31.28125 64.210938 26.855469 63.839844 25.445312 C 65.136719 25.050781 66.640625 24.667969 66.660156 24.664062 C 66.703125 24.652344 66.746094 24.636719 66.785156 24.613281 L 68.132812 23.871094 L 68.652344 24.816406 C 68.753906 25 68.953125 25.105469 69.164062 25.089844 C 70.003906 25.015625 71.324219 25.09375 71.632812 25.421875 C 72.703125 26.578125 72.375 29.082031 72.246094 29.820312 C 72.117188 30.589844 71.75 31.382812 71.375 32.125 C 71.042969 32.785156 70.375 33.382812 69.425781 33.886719 Z M 52.210938 68.605469 L 57.992188 63.574219 C 58.03125 63.539062 58.066406 63.5 58.09375 63.453125 L 62.867188 55.765625 L 66.308594 51 C 66.339844 50.957031 66.367188 50.90625 66.382812 50.855469 L 69.816406 40.554688 L 71.570312 37.703125 L 74.507812 40.429688 L 71.648438 47.117188 C 71.382812 47.738281 71.070312 48.34375 70.71875 48.921875 L 66.246094 56.21875 L 59.632812 63.890625 C 59.621094 63.898438 59.613281 63.910156 59.605469 63.921875 L 56.378906 68.300781 C 56.203125 68.539062 55.984375 68.746094 55.734375 68.910156 L 55.980469 68.484375 C 56.09375 68.285156 56.066406 68.039062 55.914062 67.867188 C 55.761719 67.699219 55.519531 67.644531 55.308594 67.734375 L 52.4375 68.964844 C 52.355469 69 52.285156 68.976562 52.25 68.957031 C 52.214844 68.9375 52.15625 68.894531 52.140625 68.808594 C 52.125 68.734375 52.152344 68.652344 52.210938 68.605469 Z M 38.65625 79.328125 L 38.914062 78.945312 L 42.804688 75.832031 L 52.46875 70.039062 C 52.601562 70.023438 52.730469 69.992188 52.855469 69.941406 L 54.460938 69.253906 C 54.460938 69.472656 54.542969 69.6875 54.699219 69.863281 C 54.882812 70.070312 55.128906 70.175781 55.386719 70.175781 C 55.511719 70.175781 55.636719 70.152344 55.761719 70.101562 C 56.347656 69.847656 56.855469 69.445312 57.234375 68.929688 L 58.824219 66.773438 L 59.882812 66.300781 L 63.269531 69.855469 L 56.386719 72.773438 L 43.117188 77.550781 C 42.980469 77.601562 42.867188 77.707031 42.808594 77.839844 L 42.171875 79.332031 C 42.144531 79.394531 42.085938 79.441406 42.019531 79.453125 L 40.878906 79.640625 C 40.871094 79.644531 40.859375 79.644531 40.847656 79.644531 L 38.824219 79.644531 C 38.71875 79.644531 38.667969 79.578125 38.648438 79.539062 C 38.625 79.496094 38.597656 79.417969 38.65625 79.328125 Z M 38.65625 79.328125 "/></g></g></svg>