<svg xmlns="http://www.w3.org/2000/svg" xmlns:xlink="http://www.w3.org/1999/xlink" width="180" zoomAndPan="magnify" viewBox="0 0 135 119.999999" height="160" preserveAspectRatio="xMidYMid meet" version="1.0"><defs><clipPath id="c39885fcff"><path d="M 13.648438 1.863281 L 121.648438 1.863281 L 121.648438 118.113281 L 13.648438 118.113281 Z M 13.648438 1.863281 " clip-rule="nonzero"/></clipPath></defs><rect x="-13.5" width="162" fill="#ffffff" y="-12" height="143.999998" fill-opacity="1"/><rect x="-13.5" width="162" fill="#ffffff" y="-12" height="143.999998" fill-opacity="1"/><g clip-path="url(#c39885fcff)"><path fill="#0661aa" d="M 106.132812 83.132812 C 97.59375 80.394531 95.511719 74.363281 92.625 66.023438 C 91.476562 62.699219 88.425781 53.867188 79.84375 53.867188 L 70.023438 53.867188 C 76.578125 52.460938 81.507812 46.625 81.507812 39.65625 C 81.507812 31.640625 74.988281 25.117188 66.972656 25.117188 C 58.953125 25.117188 52.433594 31.640625 52.433594 39.65625 C 52.433594 46.625 57.363281 52.460938 63.917969 53.867188 L 55.152344 53.867188 C 46.570312 53.867188 43.515625 62.699219 42.367188 66.023438 C 39.484375 74.363281 37.398438 80.394531 28.859375 83.132812 C 25.175781 84.316406 23.140625 88.277344 24.324219 91.960938 C 25.277344 94.933594 28.039062 96.835938 31.007812 96.835938 C 31.296875 96.835938 31.585938 96.8125 31.875 96.777344 C 28.074219 98.574219 25.441406 102.445312 25.441406 106.917969 C 25.441406 113.101562 30.472656 118.136719 36.65625 118.136719 L 96.082031 118.136719 C 102.265625 118.136719 107.296875 113.101562 107.296875 106.917969 C 107.296875 100.734375 102.265625 95.703125 96.082031 95.703125 C 95.921875 95.703125 95.765625 95.722656 95.609375 95.765625 L 86.5625 98.1875 C 83.644531 94.222656 83.769531 89.988281 83.921875 84.726562 C 83.949219 83.886719 83.972656 83.023438 83.988281 82.132812 C 84.867188 83.800781 85.871094 85.402344 87.0625 86.90625 C 90.574219 91.339844 95.269531 94.386719 101.84375 96.5 C 103.628906 97.070312 105.53125 96.914062 107.199219 96.058594 C 108.863281 95.199219 110.097656 93.746094 110.671875 91.960938 C 111.855469 88.277344 109.820312 84.316406 106.132812 83.132812 Z M 56.082031 39.65625 C 56.082031 33.652344 60.964844 28.765625 66.972656 28.765625 C 72.976562 28.765625 77.859375 33.652344 77.859375 39.65625 C 77.859375 45.660156 72.976562 50.546875 66.972656 50.546875 C 60.964844 50.546875 56.082031 45.660156 56.082031 39.65625 Z M 48.046875 98.691406 L 37.128906 95.765625 C 36.972656 95.722656 36.816406 95.703125 36.65625 95.703125 C 36.136719 95.703125 35.628906 95.742188 35.128906 95.808594 C 40.679688 93.738281 44.785156 90.878906 47.933594 86.90625 C 49.125 85.402344 50.128906 83.800781 51.007812 82.132812 C 51.019531 83.023438 51.046875 83.886719 51.070312 84.726562 C 51.238281 90.394531 51.359375 94.589844 48.046875 98.691406 Z M 29.089844 106.917969 C 29.089844 102.820312 32.359375 99.472656 36.429688 99.351562 L 59.324219 105.488281 L 50.851562 107.757812 C 48.304688 108.441406 46.640625 110.929688 46.984375 113.542969 C 47.027344 113.871094 47.101562 114.183594 47.199219 114.488281 L 36.65625 114.488281 C 32.484375 114.488281 29.089844 111.09375 29.089844 106.917969 Z M 96.308594 99.351562 C 100.378906 99.472656 103.652344 102.820312 103.652344 106.917969 C 103.652344 111.09375 100.253906 114.488281 96.082031 114.488281 L 52.21875 114.488281 C 51.390625 114.488281 50.710938 113.890625 50.601562 113.070312 C 50.492188 112.246094 50.996094 111.496094 51.796875 111.28125 Z M 107.199219 90.847656 C 106.921875 91.703125 106.332031 92.402344 105.53125 92.8125 C 104.730469 93.226562 103.816406 93.300781 102.960938 93.023438 C 90.53125 89.035156 87.230469 81.988281 83.613281 71.691406 C 83.28125 70.742188 82.320312 70.179688 81.328125 70.347656 C 80.339844 70.515625 79.617188 71.367188 79.617188 72.371094 C 79.617188 72.488281 79.628906 72.601562 79.652344 72.714844 C 80.496094 77.117188 80.386719 80.929688 80.277344 84.617188 C 80.128906 89.710938 79.988281 94.5625 82.839844 99.1875 L 66.371094 103.597656 L 51.820312 99.703125 C 55.015625 94.917969 54.871094 89.894531 54.71875 84.617188 C 54.609375 80.929688 54.496094 77.117188 55.34375 72.714844 C 55.363281 72.601562 55.375 72.488281 55.375 72.371094 C 55.375 71.367188 54.65625 70.515625 53.664062 70.347656 C 52.675781 70.179688 51.714844 70.742188 51.378906 71.691406 C 47.765625 81.988281 44.464844 89.035156 32.035156 93.023438 C 31.175781 93.300781 30.265625 93.226562 29.464844 92.8125 C 28.664062 92.402344 28.070312 91.703125 27.796875 90.847656 C 27.519531 89.988281 27.597656 89.074219 28.007812 88.277344 C 28.417969 87.476562 29.117188 86.882812 29.976562 86.609375 C 40.25 83.308594 42.828125 75.851562 45.816406 67.214844 C 48.132812 60.507812 51.011719 57.515625 55.152344 57.515625 L 79.84375 57.515625 C 83.980469 57.515625 86.859375 60.507812 89.179688 67.214844 C 92.164062 75.851562 94.746094 83.308594 105.019531 86.609375 C 105.875 86.882812 106.574219 87.476562 106.988281 88.277344 C 107.398438 89.078125 107.472656 89.988281 107.199219 90.847656 Z M 65.148438 14.996094 L 65.148438 3.6875 C 65.148438 2.679688 65.964844 1.863281 66.972656 1.863281 C 67.980469 1.863281 68.796875 2.679688 68.796875 3.6875 L 68.796875 14.996094 C 68.796875 16.003906 67.980469 16.820312 66.972656 16.820312 C 65.964844 16.820312 65.148438 16.003906 65.148438 14.996094 Z M 39.457031 11.828125 C 38.953125 10.957031 39.253906 9.839844 40.125 9.335938 C 41 8.832031 42.113281 9.132812 42.617188 10.003906 L 48.273438 19.800781 C 48.777344 20.671875 48.480469 21.789062 47.605469 22.292969 C 47.320312 22.457031 47.003906 22.539062 46.695312 22.539062 C 46.066406 22.539062 45.453125 22.210938 45.113281 21.625 Z M 20.613281 29.234375 C 21.117188 28.359375 22.234375 28.0625 23.105469 28.566406 L 32.902344 34.222656 C 33.777344 34.726562 34.074219 35.839844 33.570312 36.710938 C 33.234375 37.296875 32.621094 37.625 31.988281 37.625 C 31.679688 37.625 31.367188 37.546875 31.078125 37.378906 L 21.28125 31.722656 C 20.410156 31.21875 20.109375 30.105469 20.613281 29.234375 Z M 26.800781 58.042969 L 15.488281 58.042969 C 14.484375 58.042969 13.664062 57.226562 13.664062 56.21875 C 13.664062 55.210938 14.484375 54.394531 15.488281 54.394531 L 26.800781 54.394531 C 27.808594 54.394531 28.625 55.210938 28.625 56.21875 C 28.625 57.226562 27.808594 58.042969 26.800781 58.042969 Z M 85.808594 19.273438 L 91.464844 9.476562 C 91.96875 8.605469 93.085938 8.308594 93.957031 8.8125 C 94.828125 9.316406 95.128906 10.429688 94.625 11.300781 L 88.96875 21.097656 C 88.632812 21.683594 88.019531 22.011719 87.386719 22.011719 C 87.078125 22.011719 86.765625 21.933594 86.476562 21.765625 C 85.605469 21.261719 85.304688 20.148438 85.808594 19.273438 Z M 100.898438 35.800781 C 100.394531 34.929688 100.691406 33.8125 101.566406 33.3125 L 111.363281 27.65625 C 112.234375 27.152344 113.347656 27.449219 113.851562 28.320312 C 114.355469 29.195312 114.058594 30.308594 113.1875 30.8125 L 103.390625 36.46875 C 103.101562 36.636719 102.789062 36.714844 102.480469 36.714844 C 101.847656 36.714844 101.234375 36.386719 100.898438 35.800781 Z M 121.328125 55.167969 C 121.328125 56.175781 120.511719 56.992188 119.503906 56.992188 L 108.191406 56.992188 C 107.183594 56.992188 106.367188 56.175781 106.367188 55.167969 C 106.367188 54.160156 107.183594 53.34375 108.191406 53.34375 L 119.503906 53.34375 C 120.511719 53.34375 121.328125 54.160156 121.328125 55.167969 Z M 121.328125 55.167969 " fill-opacity="1" fill-rule="nonzero"/></g></svg>