<svg xmlns="http://www.w3.org/2000/svg" xmlns:xlink="http://www.w3.org/1999/xlink" width="180" zoomAndPan="magnify" viewBox="0 0 135 119.999999" height="160" preserveAspectRatio="xMidYMid meet" version="1.0"><defs><clipPath id="d309fc1457"><path d="M 1.292969 34.179688 L 134 34.179688 L 134 85.929688 L 1.292969 85.929688 Z M 1.292969 34.179688 " clip-rule="nonzero"/></clipPath></defs><rect x="-13.5" width="162" fill="#ffffff" y="-12" height="143.999998" fill-opacity="1"/><rect x="-13.5" width="162" fill="#ffffff" y="-12" height="143.999998" fill-opacity="1"/><g clip-path="url(#d309fc1457)"><path fill="#0661aa" d="M 67.625 34.304688 C 68.609375 34.597656 69.230469 35.367188 69.871094 36.078125 C 70.546875 36.808594 71.074219 37.664062 71.566406 38.542969 C 71.988281 39.289062 72.515625 39.929688 73.136719 40.515625 C 73.558594 40.914062 73.960938 41.335938 74.398438 41.738281 C 74.871094 42.175781 75.273438 42.6875 75.640625 43.234375 C 76.425781 44.476562 77.390625 45.570312 78.488281 46.558594 C 79.234375 47.25 79.984375 47.964844 80.75 48.636719 C 81.464844 49.257812 82.195312 49.863281 82.925781 50.445312 C 83.636719 51.03125 84.074219 51.796875 84.457031 52.617188 C 84.585938 52.910156 84.75 53.203125 84.914062 53.476562 C 85.609375 54.574219 86.320312 55.648438 86.976562 56.761719 C 87.453125 57.566406 87.855469 58.40625 88.308594 59.210938 C 89.09375 60.632812 89.878906 62.058594 90.683594 63.480469 C 90.976562 63.992188 91.449219 64.339844 91.90625 64.722656 C 92.765625 65.453125 93.679688 66.109375 94.5 66.894531 C 95.066406 67.460938 95.523438 68.082031 95.921875 68.777344 C 96.03125 68.960938 96.125 69.140625 96.199219 69.324219 C 96.871094 70.820312 97.949219 71.972656 99.335938 72.8125 C 100.214844 73.359375 101.070312 73.960938 101.746094 74.746094 C 102.53125 75.679688 103.316406 76.609375 104.101562 77.539062 C 104.285156 77.757812 104.484375 77.980469 104.722656 78.234375 C 104.816406 78.035156 104.742188 77.925781 104.6875 77.816406 C 104.25 76.847656 103.757812 75.914062 102.988281 75.128906 C 102.695312 74.820312 102.421875 74.492188 102.132812 74.179688 C 101.964844 74 101.800781 73.816406 101.621094 73.652344 C 100.726562 72.886719 99.832031 72.117188 98.953125 71.332031 C 98.679688 71.09375 98.441406 70.820312 98.1875 70.566406 C 97.4375 69.726562 96.78125 68.8125 96.214844 67.828125 C 95.648438 66.824219 94.902344 65.964844 94.023438 65.234375 C 93.53125 64.816406 93.058594 64.394531 92.472656 64.085938 C 92.308594 64.011719 92.164062 63.882812 92.035156 63.773438 C 91.324219 63.097656 90.683594 62.386719 90.246094 61.492188 C 90.097656 61.183594 90.027344 60.871094 90.007812 60.523438 C 89.933594 59.320312 90.574219 58.480469 91.433594 57.765625 C 91.886719 57.382812 92.382812 57.054688 92.875 56.707031 C 93.148438 56.507812 93.421875 56.289062 93.714844 56.070312 C 94.28125 55.648438 94.628906 55.066406 94.847656 54.390625 C 94.957031 54.042969 95.046875 53.695312 95.175781 53.347656 C 95.265625 53.09375 95.359375 52.839844 95.484375 52.601562 C 95.90625 51.886719 96.453125 51.25 97.054688 50.703125 C 97.730469 50.097656 98.917969 50.0625 99.59375 50.867188 C 99.683594 50.957031 99.757812 51.066406 99.832031 51.160156 C 100.050781 51.46875 100.34375 51.707031 100.652344 51.925781 C 101.4375 52.492188 102.222656 53.058594 102.988281 53.660156 C 103.226562 53.84375 103.445312 54.078125 103.644531 54.316406 C 104.339844 55.136719 104.996094 55.996094 105.671875 56.816406 C 107.117188 58.570312 108.574219 60.304688 110.019531 62.039062 C 110.492188 62.625 110.984375 63.191406 111.40625 63.8125 C 112.136719 64.851562 113.03125 65.765625 114.015625 66.566406 C 115.332031 67.644531 116.535156 68.832031 117.613281 70.164062 C 117.8125 70.402344 118.015625 70.640625 118.179688 70.914062 C 119.328125 72.703125 120.753906 74.253906 122.195312 75.789062 C 123.128906 76.792969 124.222656 77.578125 125.5 78.125 C 126.269531 78.453125 127.054688 78.78125 127.78125 79.183594 C 128.367188 79.496094 128.914062 79.914062 129.460938 80.316406 C 129.917969 80.644531 130.375 80.9375 130.886719 81.175781 C 131.398438 81.410156 131.910156 81.667969 132.421875 81.921875 C 132.824219 82.125 133.167969 82.398438 133.40625 82.78125 C 133.664062 83.183594 133.664062 83.621094 133.40625 83.949219 C 133.222656 84.1875 132.988281 84.367188 132.675781 84.421875 C 132.457031 84.460938 132.238281 84.480469 132.019531 84.480469 C 131.160156 84.480469 130.300781 84.496094 129.460938 84.480469 C 128.566406 84.441406 127.65625 84.367188 126.761719 84.296875 C 125.773438 84.203125 124.789062 84.257812 123.820312 84.351562 C 123.019531 84.421875 122.234375 84.515625 121.429688 84.535156 C 120.480469 84.570312 119.550781 84.570312 118.597656 84.535156 C 117.832031 84.515625 117.085938 84.441406 116.316406 84.40625 C 115.859375 84.367188 115.421875 84.351562 114.964844 84.3125 C 113.945312 84.222656 112.941406 84.132812 111.917969 84.023438 C 111.003906 83.929688 110.089844 83.839844 109.179688 83.765625 C 107.570312 83.640625 105.984375 83.511719 104.375 83.417969 C 103.738281 83.382812 103.082031 83.4375 102.441406 83.492188 C 101.292969 83.621094 100.140625 83.785156 98.972656 83.929688 C 98.605469 83.984375 98.261719 84.058594 97.894531 84.078125 C 97.257812 84.113281 96.636719 84.113281 95.996094 84.167969 C 94.574219 84.277344 93.222656 83.949219 91.871094 83.582031 C 90.921875 83.328125 89.972656 83.109375 88.984375 83.019531 C 88.621094 82.980469 88.238281 83 87.855469 83.019531 C 85.515625 83.164062 83.253906 82.835938 81.007812 82.125 C 79.636719 81.683594 78.558594 80.882812 77.5 79.949219 C 76.40625 78.984375 75.476562 77.886719 74.5625 76.753906 C 73.996094 76.042969 73.375 75.351562 72.679688 74.746094 C 72.1875 74.328125 71.640625 74.035156 71.039062 73.816406 C 70.234375 73.503906 69.429688 73.214844 68.644531 72.921875 C 68.316406 72.792969 68.007812 72.648438 67.679688 72.5 C 67.09375 72.246094 66.675781 71.84375 66.328125 71.316406 C 66 70.820312 65.671875 70.328125 65.304688 69.855469 C 65.195312 69.707031 65.050781 69.597656 64.921875 69.472656 C 64.832031 69.378906 64.738281 69.398438 64.667969 69.507812 C 64.613281 69.582031 64.574219 69.671875 64.519531 69.746094 C 64.210938 70.164062 63.660156 70.183594 63.371094 69.746094 C 63.222656 69.527344 63.132812 69.234375 63.058594 68.960938 C 63.003906 68.757812 62.988281 68.519531 62.949219 68.300781 C 62.894531 67.9375 62.75 67.609375 62.4375 67.371094 C 61.980469 67.023438 61.652344 66.550781 61.398438 66.039062 C 61.179688 65.601562 60.886719 65.199219 60.578125 64.816406 C 60.230469 64.394531 59.957031 64.394531 59.554688 64.761719 C 59.316406 64.980469 59.117188 65.234375 58.953125 65.507812 C 58.3125 66.566406 57.527344 67.5 56.578125 68.300781 C 56.324219 68.519531 56.046875 68.722656 55.773438 68.90625 C 55.097656 69.359375 54.496094 69.910156 53.984375 70.566406 C 53.839844 70.765625 53.675781 70.949219 53.492188 71.167969 C 53.65625 71.296875 53.820312 71.425781 53.96875 71.550781 C 54.769531 72.210938 55.574219 72.902344 56.394531 73.542969 C 57.417969 74.328125 58.457031 75.09375 59.5 75.859375 C 60.265625 76.425781 60.90625 77.121094 61.417969 77.925781 C 61.636719 78.253906 61.855469 78.597656 62.074219 78.929688 C 62.675781 79.914062 63.550781 80.609375 64.484375 81.246094 C 64.847656 81.503906 65.214844 81.792969 65.542969 82.105469 C 65.835938 82.378906 66.015625 82.726562 66.070312 83.128906 C 66.164062 83.75 65.671875 84.386719 64.976562 84.589844 C 64.613281 84.679688 64.226562 84.714844 63.863281 84.679688 C 63.40625 84.625 62.949219 84.535156 62.476562 84.480469 C 61.527344 84.367188 60.59375 84.167969 59.628906 84.132812 C 59.023438 84.113281 58.421875 84.023438 57.820312 83.949219 C 56.632812 83.804688 55.429688 83.65625 54.222656 83.75 C 53.402344 83.820312 52.597656 83.984375 51.777344 84.167969 C 50.625 84.40625 49.476562 84.660156 48.308594 84.808594 C 47.066406 84.953125 45.804688 84.988281 44.566406 84.714844 C 43.761719 84.550781 42.921875 84.570312 42.101562 84.644531 C 41.644531 84.699219 41.1875 84.714844 40.75 84.699219 C 39.746094 84.644531 38.742188 84.734375 37.71875 84.769531 C 37.425781 84.789062 37.117188 84.769531 36.824219 84.734375 C 36.457031 84.679688 36.203125 84.40625 36.164062 84.023438 C 36.128906 83.730469 36.183594 83.457031 36.332031 83.199219 C 36.53125 82.855469 36.769531 82.5625 37.078125 82.324219 C 37.808594 81.738281 38.59375 81.230469 39.398438 80.789062 C 39.800781 80.570312 40.199219 80.335938 40.621094 80.097656 C 41.425781 79.640625 42.117188 79.039062 42.757812 78.363281 C 43.03125 78.070312 43.304688 77.777344 43.578125 77.484375 C 44.566406 76.410156 45.734375 75.605469 47.046875 75.003906 C 47.980469 74.566406 48.910156 74.089844 49.824219 73.613281 C 50.625 73.175781 51.265625 72.539062 51.886719 71.863281 C 52.070312 71.679688 52.214844 71.480469 52.414062 71.242188 C 52.304688 71.152344 52.214844 71.039062 52.105469 70.96875 C 51.210938 70.253906 50.5 69.398438 49.933594 68.410156 C 49.382812 67.460938 48.835938 66.511719 48.289062 65.546875 C 47.832031 64.722656 47.25 63.957031 46.683594 63.207031 C 46.371094 62.808594 46.007812 62.476562 45.585938 62.222656 C 44.949219 61.839844 44.566406 61.253906 44.308594 60.5625 C 44.125 60.050781 43.925781 59.539062 43.742188 59.046875 C 43.558594 58.570312 43.359375 58.078125 43.175781 57.601562 C 42.921875 56.925781 42.792969 56.214844 42.703125 55.484375 C 42.664062 55.15625 42.574219 54.828125 42.375 54.554688 C 42.15625 54.261719 41.863281 54.207031 41.570312 54.425781 C 41.480469 54.480469 41.425781 54.574219 41.351562 54.644531 C 40.984375 55.066406 40.566406 55.394531 40.089844 55.667969 C 39.414062 56.070312 38.960938 56.652344 38.683594 57.367188 C 38.410156 58.058594 38.175781 58.773438 37.992188 59.503906 C 37.664062 60.796875 36.988281 61.894531 36.148438 62.917969 C 36.09375 62.988281 36.019531 63.0625 35.964844 63.117188 C 35.144531 63.957031 34.484375 64.90625 33.9375 65.945312 C 33.574219 66.621094 33.136719 67.261719 32.695312 67.917969 C 32.585938 68.101562 32.421875 68.265625 32.257812 68.410156 C 32.019531 68.613281 31.765625 68.648438 31.582031 68.519531 C 31.347656 68.355469 31.363281 68.121094 31.4375 67.882812 C 31.546875 67.554688 31.636719 67.207031 31.800781 66.894531 C 32.3125 65.910156 32.84375 64.925781 33.355469 63.9375 C 33.425781 63.792969 33.519531 63.648438 33.589844 63.5 C 33.773438 63.0625 34.03125 62.679688 34.359375 62.332031 C 34.925781 61.730469 35.398438 61.070312 35.710938 60.304688 C 35.855469 59.941406 35.945312 59.574219 36.019531 59.191406 C 36.054688 59.027344 36.039062 58.828125 35.984375 58.664062 C 35.890625 58.332031 35.671875 58.1875 35.34375 58.277344 C 35.050781 58.371094 34.761719 58.480469 34.503906 58.664062 C 33.992188 59.046875 33.480469 59.445312 33.007812 59.902344 C 31.546875 61.273438 30.195312 62.714844 28.828125 64.175781 C 28.152344 64.90625 27.457031 65.636719 26.726562 66.292969 C 26.195312 66.769531 25.578125 67.171875 24.972656 67.570312 C 23.074219 68.851562 21.101562 70.019531 19.058594 71.078125 C 18.035156 71.605469 17.179688 72.335938 16.449219 73.230469 C 15.554688 74.328125 14.640625 75.421875 13.746094 76.535156 C 12.558594 78.015625 11.078125 79.09375 9.398438 79.914062 C 8.359375 80.40625 7.320312 80.972656 6.242188 81.394531 C 5.820312 81.558594 5.421875 81.777344 5.035156 82.015625 C 4.289062 82.453125 3.503906 82.816406 2.828125 83.382812 C 2.679688 83.492188 2.554688 83.621094 2.425781 83.75 C 2.261719 83.929688 2.28125 84.09375 2.5 84.222656 C 2.589844 84.277344 2.71875 84.3125 2.828125 84.351562 C 3.539062 84.605469 4.289062 84.679688 5.054688 84.625 C 5.96875 84.550781 6.878906 84.460938 7.792969 84.332031 C 8.414062 84.242188 9.015625 84.039062 9.65625 83.914062 C 10.515625 83.75 11.355469 83.566406 12.210938 83.472656 C 12.8125 83.402344 13.417969 83.402344 14.039062 83.4375 C 15.644531 83.546875 17.214844 83.875 18.785156 84.203125 C 20.007812 84.460938 21.269531 84.605469 22.507812 84.714844 C 23.53125 84.808594 24.554688 84.863281 25.578125 84.789062 C 26.945312 84.699219 28.316406 84.589844 29.683594 84.496094 C 29.792969 84.496094 29.886719 84.480469 29.996094 84.496094 C 30.03125 84.496094 30.085938 84.550781 30.105469 84.589844 C 30.121094 84.625 30.085938 84.699219 30.050781 84.714844 C 29.957031 84.769531 29.867188 84.824219 29.777344 84.863281 C 29.320312 84.972656 28.84375 85.117188 28.386719 85.191406 C 27.367188 85.355469 26.34375 85.484375 25.320312 85.628906 C 24.992188 85.664062 24.683594 85.71875 24.351562 85.71875 C 22.820312 85.738281 21.304688 85.8125 19.789062 85.554688 C 18.546875 85.355469 17.324219 85.117188 16.082031 84.917969 C 15.589844 84.84375 15.078125 84.808594 14.585938 84.753906 C 13.34375 84.625 12.101562 84.660156 10.859375 84.824219 C 9.730469 84.972656 8.597656 85.097656 7.464844 85.246094 C 7.390625 85.246094 7.335938 85.261719 7.265625 85.261719 C 6.351562 85.300781 5.457031 85.320312 4.542969 85.355469 C 3.90625 85.375 3.285156 85.28125 2.664062 85.117188 C 2.460938 85.0625 2.261719 84.988281 2.097656 84.878906 C 1.457031 84.496094 1.332031 83.730469 1.769531 83.144531 C 1.878906 83 2.023438 82.855469 2.171875 82.726562 C 2.644531 82.34375 3.136719 81.996094 3.683594 81.703125 C 4.105469 81.484375 4.507812 81.210938 4.925781 80.992188 C 5.492188 80.679688 6.078125 80.40625 6.660156 80.113281 C 8.085938 79.402344 9.507812 78.710938 10.859375 77.851562 C 11.699219 77.304688 12.429688 76.628906 13.179688 75.96875 C 14.203125 75.09375 15.003906 74.035156 15.84375 72.996094 C 16.355469 72.355469 16.902344 71.753906 17.488281 71.1875 C 18.144531 70.566406 18.949219 70.183594 19.753906 69.761719 C 20.484375 69.398438 21.210938 69.03125 21.925781 68.667969 C 22.035156 68.613281 22.144531 68.539062 22.273438 68.503906 C 23.347656 68.15625 24.207031 67.445312 25.136719 66.824219 C 26.417969 65.964844 27.382812 64.796875 28.386719 63.683594 C 29.757812 62.148438 31.144531 60.652344 32.585938 59.210938 C 33.207031 58.589844 33.9375 58.132812 34.707031 57.710938 C 35.050781 57.511719 35.4375 57.511719 35.800781 57.585938 C 36.277344 57.675781 36.53125 58.003906 36.660156 58.441406 C 36.785156 58.863281 36.75 59.28125 36.640625 59.703125 C 36.347656 60.742188 35.835938 61.65625 35.144531 62.476562 C 34.6875 63.007812 34.230469 63.535156 33.847656 64.121094 C 33.519531 64.613281 33.261719 65.160156 32.988281 65.691406 C 32.625 66.421875 32.1875 67.117188 31.984375 67.917969 C 31.964844 67.992188 31.949219 68.066406 31.984375 68.175781 C 32.078125 68.082031 32.1875 68.011719 32.257812 67.902344 C 32.441406 67.644531 32.625 67.390625 32.769531 67.117188 C 33.191406 66.367188 33.589844 65.617188 33.976562 64.851562 C 34.320312 64.15625 34.777344 63.519531 35.308594 62.953125 C 36.292969 61.839844 36.988281 60.578125 37.371094 59.136719 C 37.625 58.152344 38.011719 57.203125 38.59375 56.34375 C 38.90625 55.886719 39.269531 55.503906 39.707031 55.175781 C 40.089844 54.882812 40.457031 54.535156 40.804688 54.1875 C 41.132812 53.859375 41.460938 53.566406 41.953125 53.550781 C 42.355469 53.53125 42.683594 53.679688 42.941406 53.988281 C 43.324219 54.460938 43.488281 55.011719 43.558594 55.59375 C 43.652344 56.378906 43.871094 57.109375 44.144531 57.839844 C 44.4375 58.605469 44.710938 59.355469 45.019531 60.121094 C 45.148438 60.433594 45.292969 60.742188 45.441406 61.035156 C 45.625 61.363281 45.859375 61.65625 46.1875 61.875 C 46.699219 62.222656 47.121094 62.695312 47.503906 63.171875 C 48.417969 64.285156 49.148438 65.492188 49.859375 66.730469 C 50.515625 67.902344 51.230469 69.050781 52.195312 70 C 52.433594 70.238281 52.671875 70.476562 52.925781 70.710938 C 53.074219 70.53125 53.21875 70.367188 53.328125 70.199219 C 53.859375 69.433594 54.515625 68.8125 55.28125 68.285156 C 56.578125 67.40625 57.65625 66.347656 58.476562 64.996094 C 58.734375 64.578125 59.042969 64.195312 59.515625 63.976562 C 59.972656 63.757812 60.414062 63.773438 60.832031 64.085938 C 61.34375 64.46875 61.726562 64.941406 62 65.507812 C 62.273438 66.054688 62.601562 66.53125 63.058594 66.933594 C 63.515625 67.335938 63.625 67.882812 63.699219 68.429688 C 63.734375 68.742188 63.773438 69.070312 63.972656 69.378906 C 64.0625 69.25 64.136719 69.160156 64.210938 69.050781 C 64.464844 68.703125 64.777344 68.613281 65.160156 68.851562 C 65.378906 68.976562 65.578125 69.160156 65.742188 69.34375 C 66.054688 69.707031 66.382812 70.089844 66.636719 70.511719 C 67.039062 71.152344 67.550781 71.625 68.28125 71.84375 C 68.609375 71.953125 68.9375 72.082031 69.265625 72.191406 C 70.035156 72.464844 70.800781 72.757812 71.550781 73.03125 C 72.644531 73.449219 73.503906 74.179688 74.25 75.058594 C 74.636719 75.53125 74.980469 76.023438 75.382812 76.480469 C 75.75 76.902344 76.132812 77.320312 76.550781 77.667969 C 77.484375 78.472656 78.433594 79.257812 79.382812 80.023438 C 79.875 80.425781 80.421875 80.679688 81.023438 80.882812 C 82.667969 81.449219 84.347656 81.777344 86.0625 81.902344 C 87.070312 81.976562 88.074219 82.070312 89.078125 82.179688 C 90.191406 82.304688 91.25 82.617188 92.34375 82.871094 C 93.128906 83.074219 93.933594 83.238281 94.738281 83.402344 C 95.632812 83.582031 96.507812 83.492188 97.402344 83.347656 C 98.679688 83.144531 99.957031 82.945312 101.238281 82.761719 C 101.964844 82.652344 102.695312 82.542969 103.425781 82.507812 C 104.175781 82.46875 104.925781 82.523438 105.671875 82.542969 C 106.277344 82.5625 106.859375 82.617188 107.460938 82.652344 C 108.742188 82.742188 110.019531 82.816406 111.296875 82.945312 C 112.554688 83.074219 113.816406 83.253906 115.074219 83.382812 C 117.195312 83.601562 119.3125 83.695312 121.429688 83.582031 C 122.433594 83.527344 123.4375 83.4375 124.441406 83.347656 C 125.539062 83.253906 126.632812 83.292969 127.726562 83.417969 C 128.75 83.527344 129.753906 83.695312 130.777344 83.785156 C 131.324219 83.839844 131.890625 83.820312 132.4375 83.820312 C 132.75 83.820312 132.949219 83.675781 133.023438 83.402344 C 133.097656 83.164062 132.96875 82.964844 132.785156 82.835938 C 132.566406 82.6875 132.3125 82.5625 132.074219 82.453125 C 131.453125 82.179688 130.8125 81.921875 130.175781 81.648438 C 129.683594 81.429688 129.242188 81.101562 128.84375 80.71875 C 128.128906 80.058594 127.308594 79.550781 126.414062 79.148438 C 125.628906 78.800781 124.863281 78.433594 124.113281 78.015625 C 123.183594 77.46875 122.34375 76.792969 121.613281 75.988281 C 120.589844 74.875 119.585938 73.726562 118.582031 72.59375 C 118.433594 72.410156 118.269531 72.226562 118.144531 72.046875 C 117.03125 70.402344 115.605469 69.085938 114.144531 67.789062 C 113.816406 67.5 113.46875 67.226562 113.121094 66.949219 C 112.136719 66.183594 111.277344 65.289062 110.53125 64.285156 C 109.890625 63.425781 109.195312 62.605469 108.539062 61.746094 C 107.117188 59.921875 105.691406 58.097656 104.265625 56.269531 C 103.847656 55.722656 103.445312 55.175781 102.988281 54.664062 C 102.640625 54.261719 102.242188 53.914062 101.820312 53.585938 C 101.253906 53.128906 100.652344 52.726562 100.105469 52.253906 C 99.792969 52 99.519531 51.667969 99.300781 51.324219 C 98.898438 50.71875 98.351562 50.59375 97.804688 51.066406 C 97.109375 51.6875 96.507812 52.398438 96.234375 53.332031 C 96.105469 53.769531 95.960938 54.1875 95.8125 54.628906 C 95.558594 55.394531 95.121094 56.03125 94.460938 56.542969 C 93.75 57.09375 93.019531 57.640625 92.289062 58.167969 C 91.796875 58.535156 91.394531 58.992188 91.066406 59.519531 C 90.8125 59.921875 90.792969 60.324219 91.046875 60.726562 C 91.613281 61.636719 92.289062 62.476562 93.148438 63.136719 C 93.953125 63.738281 94.609375 64.488281 95.265625 65.234375 C 95.921875 65.964844 96.472656 66.785156 96.964844 67.644531 C 97.878906 69.214844 98.992188 70.621094 100.34375 71.824219 C 100.796875 72.226562 101.253906 72.628906 101.691406 73.050781 C 102.863281 74.21875 104.046875 75.386719 104.886719 76.828125 C 105.070312 77.121094 105.199219 77.449219 105.34375 77.777344 C 105.398438 77.886719 105.398438 78.035156 105.382812 78.160156 C 105.324219 78.582031 104.980469 78.800781 104.597656 78.636719 C 104.394531 78.542969 104.175781 78.417969 104.03125 78.253906 C 103.628906 77.851562 103.246094 77.429688 102.863281 77.011719 C 102.332031 76.410156 101.820312 75.804688 101.292969 75.183594 C 100.632812 74.398438 99.832031 73.796875 98.9375 73.304688 C 98.332031 72.976562 97.765625 72.59375 97.257812 72.117188 C 96.582031 71.480469 96.105469 70.695312 95.6875 69.871094 C 95.394531 69.324219 95.121094 68.777344 94.792969 68.246094 C 94.28125 67.445312 93.550781 66.878906 92.820312 66.277344 C 92.34375 65.890625 91.851562 65.546875 91.394531 65.144531 C 90.316406 64.210938 89.332031 63.191406 88.621094 61.929688 C 87.796875 60.488281 86.996094 59.046875 86.15625 57.621094 C 85.882812 57.148438 85.570312 56.707031 85.261719 56.253906 C 84.878906 55.703125 84.660156 55.082031 84.476562 54.445312 C 84.203125 53.511719 83.875 52.601562 83.542969 51.6875 C 83.34375 51.160156 82.90625 50.828125 82.414062 50.554688 C 81.828125 50.226562 81.246094 49.898438 80.660156 49.570312 C 80.058594 49.242188 79.507812 48.820312 79.015625 48.347656 C 78.195312 47.597656 77.375 46.847656 76.605469 46.046875 C 76.078125 45.5 75.566406 44.878906 75.144531 44.238281 C 74.46875 43.253906 73.722656 42.320312 72.84375 41.519531 C 71.824219 40.585938 71 39.492188 70.324219 38.285156 C 69.761719 37.265625 69.03125 36.386719 68.171875 35.601562 C 68.027344 35.476562 67.878906 35.347656 67.714844 35.238281 C 67.421875 35.054688 67.277344 35.074219 67.039062 35.328125 C 66.949219 35.4375 66.855469 35.585938 66.800781 35.710938 C 66.675781 36.039062 66.546875 36.386719 66.4375 36.734375 C 66.328125 37.136719 66.164062 37.484375 65.890625 37.792969 C 65.851562 37.847656 65.816406 37.902344 65.761719 37.941406 C 65.433594 38.324219 65.359375 38.742188 65.5625 39.234375 C 65.980469 40.3125 66.457031 41.355469 67.296875 42.195312 C 67.734375 42.648438 68.152344 43.144531 68.628906 43.542969 C 69.667969 44.421875 70.363281 45.554688 70.964844 46.757812 C 71.183594 47.195312 71.386719 47.652344 71.566406 48.109375 C 72.207031 49.679688 73.175781 50.992188 74.46875 52.089844 C 74.964844 52.492188 75.4375 52.894531 75.949219 53.292969 C 78.050781 54.9375 79.65625 57 80.953125 59.320312 C 81.371094 60.066406 81.71875 60.871094 82.085938 61.65625 C 82.15625 61.800781 82.195312 61.96875 82.25 62.132812 C 82.320312 62.40625 82.25 62.640625 82.03125 62.824219 C 81.828125 62.988281 81.519531 62.988281 81.261719 62.789062 C 81.0625 62.625 80.859375 62.441406 80.714844 62.242188 C 80.40625 61.800781 80.074219 61.347656 79.820312 60.871094 C 79.273438 59.832031 78.578125 58.863281 77.886719 57.914062 C 77.117188 56.855469 76.167969 55.996094 75.054688 55.285156 C 74.160156 54.699219 73.300781 54.097656 72.425781 53.476562 C 71.675781 52.949219 71.054688 52.289062 70.636719 51.46875 C 70.601562 51.394531 70.546875 51.304688 70.507812 51.230469 C 70.253906 50.59375 69.980469 49.972656 69.761719 49.332031 C 69.320312 48 68.628906 46.8125 67.640625 45.808594 C 67.351562 45.515625 67.058594 45.222656 66.746094 44.949219 C 66.015625 44.3125 65.46875 43.527344 64.886719 42.777344 C 64.484375 42.265625 64.101562 41.753906 63.679688 41.261719 C 63.535156 41.097656 63.332031 40.953125 63.152344 40.824219 C 63.003906 40.734375 62.839844 40.75 62.730469 40.878906 C 62.53125 41.132812 62.3125 41.371094 62.148438 41.644531 C 61.855469 42.121094 61.707031 42.667969 61.597656 43.214844 C 61.507812 43.65625 61.417969 44.074219 61.289062 44.496094 C 61.125 45.058594 60.8125 45.515625 60.429688 45.9375 C 59.445312 47.015625 58.257812 47.796875 57.054688 48.582031 C 55.609375 49.535156 54.476562 50.773438 53.75 52.363281 C 53.402344 53.113281 53.035156 53.859375 52.578125 54.554688 C 51.921875 55.539062 51.0625 56.289062 50.113281 56.945312 C 49.347656 57.476562 48.582031 58.003906 47.8125 58.535156 C 47.6875 58.625 47.578125 58.734375 47.449219 58.828125 C 47.15625 59.046875 46.882812 59.265625 46.574219 59.484375 C 46.519531 59.519531 46.410156 59.519531 46.335938 59.519531 C 46.355469 59.429688 46.355469 59.355469 46.371094 59.265625 C 46.390625 59.210938 46.425781 59.15625 46.480469 59.101562 C 46.917969 58.550781 47.359375 57.988281 47.925781 57.53125 C 48.835938 56.761719 49.730469 55.976562 50.609375 55.175781 C 51.300781 54.535156 51.832031 53.769531 52.234375 52.929688 C 52.507812 52.328125 52.78125 51.722656 53.109375 51.160156 C 53.820312 49.898438 54.808594 48.839844 55.976562 47.980469 C 56.46875 47.617188 57.015625 47.304688 57.546875 46.976562 C 58.457031 46.429688 59.226562 45.71875 59.9375 44.96875 C 60.136719 44.769531 60.265625 44.457031 60.339844 44.183594 C 60.503906 43.710938 60.59375 43.214844 60.722656 42.722656 C 60.941406 41.863281 61.308594 41.097656 61.945312 40.460938 C 62.585938 39.839844 63.167969 39.675781 63.972656 40.441406 C 64.519531 40.953125 64.941406 41.574219 65.398438 42.175781 C 66.070312 43.089844 66.765625 43.984375 67.625 44.75 C 68.316406 45.371094 68.9375 46.082031 69.429688 46.867188 C 69.851562 47.542969 70.214844 48.253906 70.453125 49.039062 C 70.527344 49.277344 70.65625 49.515625 70.746094 49.753906 C 70.820312 49.933594 70.929688 50.136719 70.984375 50.320312 C 71.238281 51.230469 71.75 51.980469 72.460938 52.601562 C 72.9375 53.003906 73.429688 53.367188 73.941406 53.734375 C 74.652344 54.226562 75.382812 54.699219 76.09375 55.191406 C 77.0625 55.886719 77.886719 56.761719 78.578125 57.730469 C 79.363281 58.828125 80.09375 59.957031 80.75 61.125 C 80.898438 61.382812 81.097656 61.601562 81.316406 61.820312 C 81.300781 61.765625 81.300781 61.730469 81.28125 61.675781 C 80.824219 60.78125 80.441406 59.867188 79.910156 59.027344 C 79.34375 58.097656 78.707031 57.183594 78.03125 56.324219 C 77.101562 55.136719 75.96875 54.152344 74.726562 53.292969 C 73.796875 52.636719 72.9375 51.941406 72.242188 51.03125 C 71.621094 50.207031 71.109375 49.332031 70.78125 48.347656 C 70.4375 47.34375 69.960938 46.394531 69.429688 45.480469 C 69.175781 45.058594 68.8125 44.695312 68.464844 44.328125 C 67.859375 43.726562 67.242188 43.144531 66.621094 42.558594 C 65.652344 41.644531 65.085938 40.515625 64.683594 39.289062 C 64.5 38.726562 64.519531 38.175781 64.886719 37.703125 C 65.339844 37.117188 65.617188 36.460938 65.835938 35.765625 C 65.871094 35.675781 65.90625 35.601562 65.945312 35.511719 C 66.21875 34.855469 66.65625 34.378906 67.367188 34.179688 C 67.421875 34.304688 67.515625 34.304688 67.625 34.304688 Z M 39.871094 84.023438 C 39.871094 84.039062 39.871094 84.058594 39.871094 84.078125 C 40.601562 84.039062 41.351562 84.039062 42.082031 83.984375 C 43.160156 83.894531 44.21875 83.96875 45.277344 84.1875 C 45.625 84.257812 45.988281 84.277344 46.355469 84.296875 C 48.160156 84.386719 49.933594 84.078125 51.683594 83.65625 C 53.328125 83.253906 54.972656 83.089844 56.652344 83.273438 C 57.671875 83.382812 58.695312 83.417969 59.699219 83.511719 C 60.632812 83.582031 61.5625 83.675781 62.476562 83.765625 C 63.023438 83.820312 63.550781 83.914062 64.101562 83.96875 C 64.519531 84.023438 64.886719 83.894531 65.175781 83.566406 C 65.324219 83.402344 65.378906 83.21875 65.304688 82.980469 C 65.195312 82.632812 65.03125 82.304688 64.738281 82.070312 C 64.519531 81.886719 64.300781 81.703125 64.0625 81.539062 C 62.988281 80.84375 62.148438 79.933594 61.453125 78.875 C 60.722656 77.757812 59.773438 76.828125 58.660156 76.0625 C 57.492188 75.238281 56.359375 74.34375 55.246094 73.449219 C 54.625 72.957031 54.039062 72.429688 53.382812 71.992188 C 52.945312 71.699219 52.964844 71.699219 52.5625 72.0625 C 52.160156 72.445312 51.777344 72.867188 51.355469 73.230469 C 50.332031 74.125 49.164062 74.785156 47.996094 75.441406 C 47.449219 75.734375 46.882812 76.007812 46.355469 76.316406 C 45.386719 76.882812 44.582031 77.667969 43.851562 78.507812 C 42.648438 79.914062 41.222656 80.972656 39.527344 81.703125 C 38.8125 81.996094 38.121094 82.378906 37.515625 82.855469 C 37.296875 83.035156 37.117188 83.253906 36.933594 83.472656 C 36.859375 83.566406 36.824219 83.675781 36.804688 83.785156 C 36.769531 84.003906 36.824219 84.078125 37.042969 84.09375 C 37.351562 84.132812 37.664062 84.132812 37.972656 84.113281 C 38.59375 84.09375 39.234375 84.058594 39.871094 84.023438 Z M 39.871094 84.023438 " fill-opacity="1" fill-rule="nonzero"/></g></svg>