<svg xmlns="http://www.w3.org/2000/svg" xmlns:xlink="http://www.w3.org/1999/xlink" width="177" zoomAndPan="magnify" viewBox="0 0 132.75 119.999999" height="160" preserveAspectRatio="xMidYMid meet" version="1.0"><path fill="#0661aa" d="M 78.019531 13.230469 L 78.375 13.34375 C 80.121094 18.398438 83.230469 22.972656 87.753906 26.203125 L 88.113281 26.316406 C 91.367188 28.265625 92.644531 31.785156 92.863281 35.261719 L 91.316406 37.609375 L 88.347656 39.289062 C 87.726562 48.164062 86.691406 57.015625 85.144531 65.789062 L 85.023438 64.113281 C 85.515625 63.855469 85.375 63.183594 85.261719 62.773438 L 85.738281 57.628906 L 85.972656 56.507812 L 86.210938 53.378906 C 87.390625 48.847656 87.84375 44.167969 87.875 39.511719 L 87.28125 39.398438 L 86.332031 39.847656 L 86.332031 39.625 C 87.332031 39.410156 88.308594 39.082031 89.207031 38.613281 C 90.25 38.066406 91.613281 37.164062 92.097656 36.078125 C 93.699219 32.496094 90.019531 28.332031 87.28125 26.203125 L 86.925781 26.09375 C 82.527344 22.828125 79.542969 18.277344 78.019531 13.230469 Z M 78.019531 13.230469 " fill-opacity="1" fill-rule="nonzero"/><path fill="#0661aa" d="M 83.242188 21.507812 L 84.191406 22.625 Z M 84.191406 23.296875 L 86.804688 25.980469 Z M 88.230469 26.425781 L 89.417969 27.769531 Z M 88.230469 26.425781 " fill-opacity="1" fill-rule="evenodd"/><path fill="#0661aa" d="M 76.59375 30.453125 L 76.472656 30.789062 C 74.730469 32.5625 74.585938 35.21875 74.8125 37.5 L 76.355469 39.398438 L 78.136719 39.957031 L 77.066406 40.070312 L 75.285156 39.0625 C 74.695312 38.554688 74.378906 37.796875 74.304688 37.054688 C 74.070312 34.734375 74.933594 32.183594 76.59375 30.453125 Z M 83.957031 36.492188 C 84.785156 36.347656 85.925781 36.28125 86.449219 37.050781 L 85.378906 37.835938 L 85.855469 36.941406 C 84.285156 36.769531 82.574219 36.757812 81.105469 37.386719 L 81.105469 37.164062 Z M 92.503906 36.941406 C 94.753906 37.398438 95.519531 39.570312 95.472656 41.523438 L 94.40625 45.660156 L 94.285156 44.878906 C 95.375 42.625 95.734375 38.753906 92.980469 37.386719 Z M 92.503906 36.941406 " fill-opacity="1" fill-rule="evenodd"/><path fill="#0661aa" d="M 94.878906 40.070312 L 95 41.972656 L 94.761719 41.972656 Z M 94.878906 40.070312 " fill-opacity="1" fill-rule="nonzero"/><path fill="#0661aa" d="M 82.292969 43.203125 C 82.046875 46.5625 82.800781 48.988281 84.550781 50.46875 C 84.292969 51.792969 83.617188 52.726562 82.53125 53.265625 L 81.34375 53.714844 L 81.34375 53.488281 L 83.597656 51.8125 L 84.074219 50.246094 C 82.5 48.882812 81.988281 46.824219 81.9375 44.878906 Z M 80.867188 48.570312 L 80.511719 49.128906 L 78.96875 50.804688 C 75.039062 52.984375 70.769531 54.585938 66.378906 55.726562 L 66.617188 55.277344 C 71.890625 54.25 76.984375 52.15625 80.867188 48.570312 Z M 95.355469 49.6875 C 98.460938 49.398438 99.277344 53.171875 99.710938 55.402344 C 100.253906 58.203125 99.871094 60.863281 99.75 63.667969 C 99.570312 67.777344 99.558594 71.796875 98.679688 75.855469 L 98.5625 73.953125 C 99.570312 69.089844 99.886719 63.574219 99.511719 57.402344 C 99.519531 54.339844 98.6875 52.066406 97.019531 50.582031 C 95.800781 50.464844 95.246094 50.164062 95.355469 49.6875 Z M 95.355469 49.6875 " fill-opacity="1" fill-rule="evenodd"/><path fill="#0661aa" d="M 83.957031 51.925781 L 83.003906 53.042969 Z M 93.21875 53.042969 C 93.722656 53.445312 93.675781 54.171875 93.574219 54.71875 L 93.097656 54.496094 Z M 93.21875 53.042969 " fill-opacity="1" fill-rule="evenodd"/><path fill="#0661aa" d="M 75.167969 54.160156 C 75.730469 54.027344 76.628906 53.890625 76.949219 54.496094 L 76.832031 54.832031 L 76.59375 54.382812 C 74.898438 54.40625 73.167969 54.625 71.605469 55.277344 L 71.605469 55.054688 Z M 75.167969 54.160156 " fill-opacity="1" fill-rule="nonzero"/><path fill="#0661aa" d="M 79.679688 54.832031 L 79.800781 56.957031 L 79.5625 56.957031 L 79.324219 55.167969 Z M 79.679688 54.832031 " fill-opacity="1" fill-rule="nonzero"/><path fill="#0661aa" d="M 99.867188 56.84375 L 99.988281 60.984375 L 99.75 60.984375 Z M 99.394531 57.292969 L 99.511719 60.757812 L 99.273438 60.757812 Z M 72.554688 58.410156 L 74.574219 58.746094 L 72.082031 58.859375 L 72.082031 58.632812 Z M 72.554688 58.410156 " fill-opacity="1" fill-rule="evenodd"/><path fill="#0661aa" d="M 73.503906 55.949219 C 75.195312 55.875 77.074219 56.070312 78.40625 57.152344 C 80.785156 59.082031 79.664062 63.15625 77.304688 64.671875 L 78.136719 63.667969 C 80.007812 61.582031 79.773438 58.34375 77.304688 56.875 C 76.621094 56.46875 75.960938 56.378906 75.167969 56.371094 C 74.863281 56.367188 73.257812 56.605469 73.503906 55.949219 Z M 73.503906 55.949219 " fill-opacity="1" fill-rule="nonzero"/><path fill="#0661aa" d="M 92.742188 59.304688 L 92.863281 60.984375 L 92.503906 61.542969 L 92.386719 60.984375 Z M 93.457031 59.304688 L 93.574219 64.5625 L 93.335938 64.5625 Z M 93.457031 59.304688 " fill-opacity="1" fill-rule="evenodd"/><path fill="#0661aa" d="M 68.992188 57.292969 C 70.554688 59.695312 72.46875 61.894531 74.691406 63.777344 L 75.523438 64.335938 L 75.167969 64.449219 L 72.199219 62.101562 C 70.847656 60.6875 69.730469 59.066406 68.992188 57.292969 Z M 92.503906 59.082031 L 92.625 60.535156 C 91.792969 61.152344 91.953125 62.367188 92.148438 63.21875 L 91.316406 68.921875 L 91.199219 67.46875 C 91.714844 67.132812 91.792969 66.386719 91.4375 65.230469 C 91.871094 64.972656 91.953125 64.375 91.675781 63.441406 Z M 92.503906 59.082031 " fill-opacity="1" fill-rule="evenodd"/><path fill="#0661aa" d="M 93.929688 61.765625 L 94.050781 65.457031 L 93.8125 65.457031 Z M 99.15625 63.777344 L 99.273438 69.480469 L 99.035156 69.480469 Z M 99.628906 63.777344 L 99.75 69.035156 L 99.511719 69.035156 Z M 84.90625 65.34375 L 85.261719 65.902344 L 84.90625 67.582031 Z M 78.019531 66.015625 C 78.570312 66.3125 78.492188 66.609375 77.78125 66.910156 C 77.582031 66.574219 77.382812 66.609375 77.1875 67.019531 L 77.066406 67.355469 L 76.710938 67.246094 Z M 72.316406 68.921875 L 72.675781 69.035156 L 71.367188 70.039062 L 71.605469 69.144531 C 71.882812 69.578125 72.167969 69.253906 72.316406 68.921875 Z M 72.316406 68.921875 " fill-opacity="1" fill-rule="evenodd"/><path fill="#0661aa" d="M 71.84375 69.144531 L 71.25 69.929688 C 71.253906 75.300781 69.632812 79.140625 66.378906 81.445312 C 64.457031 82.992188 61.6875 83.738281 58.066406 83.683594 C 52.410156 82.152344 46.355469 80.996094 39.898438 80.21875 L 40.019531 79.882812 C 43.976562 80.128906 47.679688 80.9375 51.417969 82.117188 C 56.839844 83.832031 64.039062 84.148438 67.933594 79.5 C 69.171875 78.019531 70.152344 76.070312 70.300781 74.179688 C 70.433594 72.476562 69.660156 70.65625 71.367188 69.371094 Z M 71.84375 69.144531 " fill-opacity="1" fill-rule="nonzero"/><path fill="#0661aa" d="M 70.417969 71.160156 L 70.535156 73.058594 L 70.300781 73.058594 Z M 70.417969 71.160156 " fill-opacity="1" fill-rule="nonzero"/><path fill="#0661aa" d="M 92.503906 74.511719 L 95 76.414062 L 95.472656 77.085938 L 93.457031 75.40625 Z M 92.503906 74.511719 " fill-opacity="1" fill-rule="nonzero"/><path fill="#0661aa" d="M 93.457031 75.40625 L 94.285156 75.742188 C 93.710938 76.136719 94.171875 76.53125 94.644531 76.75 Z M 98.441406 75.40625 L 98.800781 76.414062 L 98.441406 77.644531 Z M 79.679688 76.304688 L 81.222656 77.980469 L 79.5625 76.636719 Z M 72.082031 77.867188 L 73.863281 79.324219 L 73.503906 79.433594 L 73.03125 78.761719 Z M 67.566406 79.65625 L 66.378906 81 Z M 68.28125 79.65625 L 67.09375 81 Z M 76.832031 79.882812 L 77.066406 80.328125 L 77.898438 80.886719 L 77.542969 81 C 76.957031 80.84375 76.503906 80.472656 76.832031 79.882812 Z M 76.832031 79.882812 " fill-opacity="1" fill-rule="evenodd"/><path fill="#0661aa" d="M 98.207031 79.882812 L 98.324219 89.835938 C 98.390625 93.476562 98.078125 97.164062 97.019531 100.679688 L 96.660156 100.570312 C 98.019531 93.761719 98.394531 86.796875 98.207031 79.882812 Z M 85.617188 80.777344 L 87.160156 82.007812 L 86.332031 81.445312 Z M 78.96875 81.671875 L 80.394531 83.234375 Z M 78.96875 81.671875 " fill-opacity="1" fill-rule="evenodd"/><path fill="#0661aa" d="M 87.042969 81.671875 L 88.941406 83.683594 L 87.160156 82.230469 Z M 87.042969 81.671875 " fill-opacity="1" fill-rule="nonzero"/><path fill="#0661aa" d="M 67.804688 82.339844 C 71.296875 85.816406 72.871094 90.53125 73.386719 95.203125 L 73.03125 96.65625 C 73.113281 93.695312 72.683594 90.5 70.773438 88.042969 L 68.636719 84.691406 C 67.753906 84.160156 67.539062 83.269531 67.804688 82.339844 Z M 67.804688 82.339844 " fill-opacity="1" fill-rule="nonzero"/><path fill="#0661aa" d="M 57.832031 83.011719 L 60.324219 83.125 L 57.832031 83.234375 Z M 57.832031 83.011719 " fill-opacity="1" fill-rule="nonzero"/><path fill="#0661aa" d="M 80.867188 83.460938 L 82.054688 84.800781 Z M 56.167969 85.25 L 56.285156 88.714844 C 55.5625 92.394531 55.410156 96.164062 55.574219 99.898438 L 55.8125 100.570312 L 55.457031 100.679688 C 54.765625 99.539062 54.648438 97.863281 55.097656 95.648438 C 55.730469 95.203125 55.8125 94.234375 55.335938 92.742188 C 55.890625 92.367188 55.96875 91.546875 55.574219 90.28125 Z M 56.167969 85.25 " fill-opacity="1" fill-rule="evenodd"/><path fill="#0661aa" d="M 97.730469 88.828125 L 97.847656 90.953125 L 97.613281 90.953125 Z M 97.730469 88.828125 " fill-opacity="1" fill-rule="nonzero"/></svg>