<svg xmlns="http://www.w3.org/2000/svg" xmlns:xlink="http://www.w3.org/1999/xlink" width="180" zoomAndPan="magnify" viewBox="0 0 135 161.249994" height="215" preserveAspectRatio="xMidYMid meet" version="1.2"><defs><clipPath id="af2cd3a56a"><path d="M 38.046875 14.347656 L 97 14.347656 L 97 74.816406 L 38.046875 74.816406 Z M 38.046875 14.347656 "/></clipPath></defs><g id="be50a82766"><g clip-rule="nonzero" clip-path="url(#af2cd3a56a)"><path style=" stroke:none;fill-rule:nonzero;fill:#0661aa;fill-opacity:1;" d="M 38.289062 47.1875 C 38.316406 47.605469 38.339844 48.019531 38.390625 48.4375 C 38.390625 48.460938 38.402344 48.488281 38.402344 48.511719 C 38.972656 54 41.078125 59.199219 44.507812 63.601562 C 44.066406 63.777344 43.625 63.964844 43.199219 64.15625 C 41.445312 64.9375 39.488281 65.921875 38.644531 67.816406 C 38.074219 69.074219 38.378906 70.375 38.78125 71.597656 C 39.4375 73.554688 41.671875 74.613281 43.449219 74.613281 L 47.109375 74.613281 C 49.089844 74.613281 51.726562 74.613281 54.726562 74.613281 L 70.851562 74.613281 C 71.785156 74.613281 72.707031 74.613281 73.625 74.613281 C 74.445312 74.613281 75.253906 74.613281 76.046875 74.613281 C 78.054688 74.613281 79.972656 74.613281 81.738281 74.613281 L 86.546875 74.613281 C 87.644531 74.613281 88.601562 74.613281 89.421875 74.613281 C 91.199219 74.613281 93.445312 73.554688 94.089844 71.597656 C 94.339844 70.828125 94.554688 70.035156 94.542969 69.226562 C 94.972656 69.316406 95.414062 69.390625 95.855469 69.441406 L 96.195312 69.480469 L 96.296875 69.152344 C 96.878906 67.257812 96.398438 65.101562 95.074219 63.636719 C 94.429688 62.933594 93.609375 62.390625 92.664062 62.074219 C 92.550781 62.035156 92.4375 62.011719 92.308594 61.984375 C 91.589844 61.859375 90.796875 61.542969 90.089844 61.128906 C 91.453125 58.945312 92.550781 56.585938 93.320312 54.089844 C 93.332031 54.039062 93.34375 53.988281 93.359375 53.9375 C 93.472656 53.570312 93.570312 53.191406 93.671875 52.8125 C 93.710938 52.6875 93.734375 52.5625 93.761719 52.4375 C 93.835938 52.132812 93.914062 51.816406 93.976562 51.503906 C 94.011719 51.339844 94.039062 51.1875 94.078125 51.023438 C 94.128906 50.746094 94.175781 50.457031 94.226562 50.164062 C 94.253906 49.988281 94.292969 49.8125 94.316406 49.648438 C 94.355469 49.371094 94.390625 49.078125 94.429688 48.800781 C 94.457031 48.625 94.46875 48.449219 94.492188 48.273438 C 94.519531 47.96875 94.542969 47.65625 94.570312 47.351562 C 94.582031 47.199219 94.59375 47.050781 94.59375 46.898438 C 94.617188 46.429688 94.632812 45.976562 94.632812 45.511719 C 94.632812 45.054688 94.617188 44.613281 94.59375 44.171875 C 94.59375 44.046875 94.582031 43.921875 94.570312 43.808594 C 94.542969 43.480469 94.53125 43.152344 94.492188 42.824219 C 94.480469 42.695312 94.46875 42.570312 94.457031 42.445312 C 94.417969 42.117188 94.378906 41.789062 94.328125 41.460938 C 94.316406 41.359375 94.304688 41.257812 94.277344 41.15625 C 94.214844 40.792969 94.152344 40.425781 94.078125 40.058594 C 94.0625 39.996094 94.050781 39.945312 94.039062 39.882812 C 93.773438 38.582031 93.40625 37.308594 92.953125 36.0625 L 92.839844 35.769531 L 92.828125 35.769531 C 89.445312 26.964844 81.5625 20.441406 71.746094 18.703125 C 70.9375 16.191406 68.871094 14.398438 66.433594 14.398438 C 64.011719 14.398438 61.945312 16.191406 61.125 18.703125 C 50.351562 20.617188 41.910156 28.277344 39.183594 38.40625 L 39.171875 38.433594 L 39.148438 38.535156 C 38.792969 39.871094 38.554688 41.246094 38.414062 42.632812 C 38.414062 42.660156 38.414062 42.683594 38.402344 42.710938 C 38.367188 43.125 38.328125 43.554688 38.300781 43.984375 C 38.300781 44.070312 38.289062 44.148438 38.289062 44.234375 C 38.265625 44.664062 38.25 45.09375 38.25 45.523438 C 38.25 46.015625 38.265625 46.492188 38.289062 46.972656 C 38.277344 47.050781 38.277344 47.113281 38.289062 47.1875 Z M 62.03125 18.550781 C 62.816406 16.582031 64.480469 15.21875 66.410156 15.21875 C 68.339844 15.21875 70.003906 16.582031 70.789062 18.550781 C 70.851562 18.703125 70.902344 18.839844 70.953125 18.992188 C 71.003906 19.128906 71.039062 19.28125 71.078125 19.421875 C 71.203125 19.9375 71.265625 20.46875 71.265625 21.035156 C 71.265625 22.75 70.636719 24.289062 69.652344 25.351562 C 69.527344 25.488281 69.398438 25.613281 69.261719 25.726562 C 69.136719 25.84375 68.996094 25.941406 68.871094 26.042969 C 68.757812 26.132812 68.628906 26.207031 68.515625 26.269531 C 68.554688 26.167969 68.566406 26.070312 68.566406 25.957031 C 68.566406 25.714844 68.480469 25.5 68.339844 25.3125 C 68.277344 25.222656 68.203125 25.148438 68.113281 25.085938 C 68.011719 25.023438 67.925781 24.957031 67.835938 24.894531 C 67.609375 24.746094 67.394531 24.605469 67.179688 24.480469 C 66.574219 24.113281 66.007812 23.835938 65.476562 23.648438 C 65.25 23.558594 64.984375 23.558594 64.746094 23.632812 C 64 23.886719 63.308594 24.265625 62.703125 24.746094 C 61.996094 23.734375 61.566406 22.4375 61.566406 21.011719 C 61.566406 20.453125 61.640625 19.914062 61.753906 19.394531 C 61.792969 19.242188 61.832031 19.105469 61.882812 18.964844 C 61.917969 18.839844 61.96875 18.703125 62.03125 18.550781 Z M 59.9375 73.769531 L 55.535156 73.769531 L 55.535156 73.265625 C 55.609375 72.949219 55.800781 72.671875 56.027344 72.445312 C 56.128906 72.34375 56.253906 72.253906 56.367188 72.167969 C 56.519531 72.066406 56.671875 71.964844 56.824219 71.890625 C 56.972656 71.8125 57.125 71.738281 57.25 71.699219 C 57.503906 71.597656 57.769531 71.511719 58.019531 71.421875 C 58.6875 71.195312 59.371094 70.96875 59.964844 70.527344 C 60.328125 70.261719 60.632812 69.933594 60.933594 69.59375 C 61.011719 69.503906 61.097656 69.402344 61.175781 69.316406 C 61.703125 68.683594 62.210938 68.09375 62.902344 67.929688 C 62.929688 67.929688 62.953125 67.929688 62.980469 67.914062 C 63.472656 67.828125 64.039062 67.941406 64.683594 68.269531 C 64.984375 68.421875 65.273438 68.609375 65.566406 68.796875 C 65.867188 68.988281 66.183594 69.191406 66.511719 69.367188 C 66.511719 69.367188 66.523438 69.367188 66.523438 69.367188 C 66.8125 69.519531 67.128906 69.644531 67.496094 69.746094 C 67.496094 69.746094 67.496094 69.757812 67.496094 69.757812 C 67.042969 71.042969 66.800781 72.382812 66.761719 73.742188 C 66.761719 73.742188 66.761719 73.757812 66.761719 73.757812 L 59.9375 73.757812 Z M 86.316406 73.769531 C 82.796875 73.769531 78.003906 73.769531 72.90625 73.769531 L 67.597656 73.769531 C 67.597656 73.757812 67.597656 73.742188 67.597656 73.730469 C 67.648438 72.445312 67.886719 71.183594 68.316406 69.960938 C 68.808594 70.046875 69.3125 70.085938 69.816406 70.085938 C 69.957031 70.085938 70.09375 70.085938 70.234375 70.074219 C 70.371094 70.074219 70.511719 70.058594 70.648438 70.046875 C 71.59375 69.984375 72.554688 69.820312 73.5 69.65625 C 73.902344 69.59375 74.308594 69.519531 74.699219 69.453125 C 77.726562 68.988281 79.996094 68.734375 81.839844 68.671875 C 81.851562 68.671875 81.878906 68.671875 81.890625 68.671875 C 82.128906 68.660156 82.355469 68.660156 82.582031 68.660156 C 82.582031 68.660156 82.582031 68.660156 82.597656 68.660156 C 82.8125 68.660156 83.023438 68.660156 83.226562 68.660156 C 83.238281 68.660156 83.253906 68.660156 83.265625 68.660156 C 84.855469 68.699219 86.117188 68.9375 87.363281 69.339844 C 87.578125 69.417969 87.804688 69.289062 87.882812 69.074219 C 87.957031 68.863281 87.832031 68.632812 87.617188 68.558594 C 86.546875 68.207031 85.460938 67.976562 84.210938 67.878906 C 84.199219 67.878906 84.1875 67.878906 84.171875 67.878906 C 83.996094 67.863281 83.808594 67.851562 83.617188 67.839844 C 83.417969 67.828125 83.214844 67.828125 83.011719 67.828125 C 83 67.828125 82.976562 67.828125 82.960938 67.828125 C 80.894531 67.800781 78.308594 68.066406 74.609375 68.632812 C 74.207031 68.699219 73.804688 68.761719 73.386719 68.835938 C 72.429688 69 71.457031 69.164062 70.496094 69.226562 C 70.359375 69.238281 70.21875 69.238281 70.082031 69.238281 C 69.941406 69.238281 69.804688 69.238281 69.664062 69.238281 C 69.300781 69.226562 68.933594 69.203125 68.582031 69.140625 C 68.113281 69.0625 67.660156 68.9375 67.230469 68.746094 C 67.128906 68.710938 67.042969 68.660156 66.953125 68.621094 C 66.648438 68.46875 66.371094 68.28125 66.070312 68.09375 C 65.765625 67.902344 65.453125 67.699219 65.125 67.523438 C 64.59375 67.246094 64.078125 67.082031 63.609375 67.042969 C 63.320312 67.019531 63.042969 67.042969 62.789062 67.109375 C 62.675781 67.132812 62.550781 67.171875 62.449219 67.222656 C 62.070312 67.371094 61.742188 67.601562 61.441406 67.878906 C 61.148438 68.15625 60.882812 68.457031 60.621094 68.773438 C 60.554688 68.835938 60.507812 68.910156 60.441406 68.976562 C 60.152344 69.316406 59.875 69.617188 59.546875 69.859375 C 59.054688 70.222656 58.460938 70.425781 57.832031 70.640625 C 57.554688 70.730469 57.289062 70.828125 57.023438 70.929688 C 56.621094 71.09375 56.265625 71.285156 55.964844 71.5 C 55.824219 71.597656 55.699219 71.699219 55.585938 71.800781 C 55.484375 71.890625 55.398438 71.992188 55.308594 72.089844 C 55.042969 72.40625 54.867188 72.746094 54.792969 73.125 L 54.792969 73.757812 C 51.777344 73.757812 49.140625 73.757812 47.160156 73.757812 L 43.5 73.757812 C 41.984375 73.757812 40.117188 72.835938 39.613281 71.308594 C 39.210938 70.085938 39.023438 69.0625 39.449219 68.117188 C 40.183594 66.488281 41.972656 65.59375 43.589844 64.875 C 44.09375 64.648438 44.609375 64.433594 45.113281 64.230469 C 45.128906 64.230469 45.128906 64.230469 45.140625 64.21875 C 45.265625 64.167969 45.390625 64.117188 45.519531 64.066406 C 45.65625 64.015625 45.785156 63.964844 45.910156 63.917969 C 45.921875 63.917969 45.921875 63.917969 45.933594 63.902344 C 46.578125 63.652344 47.234375 63.410156 47.878906 63.183594 C 48.09375 63.109375 48.320312 63.019531 48.535156 62.945312 C 48.75 62.867188 48.960938 62.804688 49.175781 62.730469 C 51.75 61.871094 54.25 61.179688 56.507812 60.585938 C 56.785156 60.699219 57.164062 60.75 57.476562 60.851562 L 57.84375 61.015625 L 57.90625 61.039062 C 58.3125 61.152344 58.777344 61.230469 59.21875 61.328125 C 59.621094 61.417969 60 61.519531 60.429688 61.59375 C 61.617188 61.808594 62.851562 61.972656 64.164062 62.050781 C 64.53125 62.074219 64.894531 62.085938 65.261719 62.097656 C 65.3125 62.097656 65.363281 62.097656 65.414062 62.097656 C 65.765625 62.113281 66.132812 62.113281 66.5 62.113281 C 66.863281 62.113281 67.21875 62.097656 67.582031 62.097656 C 67.632812 62.097656 67.683594 62.097656 67.734375 62.097656 C 67.949219 62.085938 68.152344 62.085938 68.351562 62.074219 C 68.492188 62.0625 68.628906 62.0625 68.757812 62.050781 C 68.78125 62.050781 68.792969 62.050781 68.820312 62.050781 C 68.933594 62.035156 69.046875 62.035156 69.171875 62.023438 C 69.300781 62.011719 69.398438 61.984375 69.527344 61.972656 C 70.636719 61.886719 71.695312 61.746094 72.707031 61.558594 C 73.132812 61.480469 73.5 61.378906 73.890625 61.292969 C 74.28125 61.203125 74.710938 61.128906 75.078125 61.027344 L 75.457031 60.851562 C 75.769531 60.75 76.175781 60.6875 76.464844 60.574219 C 79.226562 61.292969 82.320312 62.164062 85.484375 63.296875 L 86.078125 64.105469 C 86.101562 64.144531 86.253906 64.292969 86.496094 64.535156 C 86.496094 64.546875 86.507812 64.546875 86.519531 64.558594 C 86.609375 64.648438 86.695312 64.734375 86.808594 64.835938 C 86.898438 64.925781 86.988281 65 87.085938 65.101562 C 87.101562 65.113281 87.101562 65.113281 87.113281 65.128906 C 88.386719 66.273438 90.757812 68.105469 93.773438 68.976562 C 93.835938 69.679688 93.671875 70.425781 93.382812 71.296875 C 92.878906 72.835938 91 73.742188 89.496094 73.742188 C 88.527344 73.769531 87.492188 73.769531 86.316406 73.769531 Z M 93.15625 51.324219 C 93.09375 51.640625 93.015625 51.945312 92.941406 52.246094 C 92.914062 52.359375 92.890625 52.472656 92.851562 52.585938 C 92.753906 52.992188 92.636719 53.382812 92.511719 53.785156 C 92.511719 53.796875 92.5 53.8125 92.5 53.824219 C 91.753906 56.246094 90.695312 58.554688 89.359375 60.675781 C 89.359375 60.675781 89.347656 60.660156 89.347656 60.660156 C 89.003906 60.394531 88.703125 60.117188 88.488281 59.839844 C 87.832031 58.984375 87.265625 58.203125 86.746094 57.457031 C 84.527344 54.277344 82.988281 51.425781 81.992188 48.636719 C 85.8125 48.070312 89.824219 48.964844 93.042969 51.109375 C 93.09375 51.136719 93.144531 51.160156 93.195312 51.175781 C 93.179688 51.226562 93.167969 51.273438 93.15625 51.324219 Z M 53.65625 40.652344 C 53.667969 40.414062 53.679688 40.171875 53.707031 39.945312 C 53.730469 39.65625 53.769531 39.351562 53.808594 39.0625 C 53.84375 38.773438 53.882812 38.496094 53.90625 38.21875 C 53.933594 37.941406 53.957031 37.648438 53.972656 37.359375 C 54.023438 36.714844 54.058594 36.109375 54.199219 35.519531 C 54.386719 34.722656 55.207031 33.726562 55.851562 33.296875 C 56.960938 32.566406 58.246094 31.898438 59.671875 31.304688 C 58.878906 32.945312 57.804688 34.710938 56.214844 37.058594 C 56.089844 37.246094 56.140625 37.5 56.332031 37.625 C 56.40625 37.675781 56.496094 37.6875 56.582031 37.6875 C 56.707031 37.675781 56.824219 37.625 56.898438 37.511719 C 57.136719 37.15625 57.351562 36.832031 57.578125 36.503906 C 57.933594 35.960938 58.273438 35.441406 58.574219 34.949219 C 59.28125 33.828125 59.835938 32.832031 60.316406 31.871094 C 60.355469 31.796875 60.390625 31.722656 60.429688 31.644531 C 60.53125 31.429688 60.632812 31.214844 60.734375 31 C 60.746094 30.976562 60.757812 30.953125 60.769531 30.925781 C 60.769531 30.925781 60.769531 30.914062 60.769531 30.914062 C 60.859375 30.722656 60.949219 30.523438 61.023438 30.332031 C 61.046875 30.257812 61.085938 30.183594 61.113281 30.105469 C 61.148438 30.003906 61.1875 29.917969 61.226562 29.816406 C 61.375 29.425781 61.515625 29.035156 61.652344 28.640625 C 61.769531 28.328125 61.84375 28.011719 61.917969 27.710938 C 62.09375 27.039062 62.257812 26.449219 62.625 25.957031 C 62.703125 25.855469 62.789062 25.753906 62.890625 25.652344 C 62.980469 25.578125 63.066406 25.5 63.167969 25.425781 C 63.179688 25.414062 63.191406 25.398438 63.207031 25.386719 C 63.332031 25.285156 63.457031 25.199219 63.585938 25.109375 C 63.699219 25.035156 63.796875 24.957031 63.925781 24.894531 C 64.203125 24.730469 64.503906 24.605469 64.808594 24.480469 C 64.871094 24.453125 64.933594 24.429688 64.996094 24.402344 C 65.058594 24.378906 65.125 24.378906 65.175781 24.402344 C 65.222656 24.429688 65.289062 24.453125 65.339844 24.480469 C 65.617188 24.59375 65.90625 24.730469 66.222656 24.894531 C 66.449219 25.023438 66.6875 25.148438 66.941406 25.300781 C 67.167969 25.4375 67.394531 25.589844 67.632812 25.753906 C 67.722656 25.816406 67.734375 25.890625 67.734375 25.941406 C 67.734375 25.980469 67.722656 26.082031 67.621094 26.144531 C 67.34375 26.332031 67.140625 26.5625 66.964844 26.789062 C 66.964844 26.824219 66.953125 26.839844 66.941406 26.839844 C 66.863281 26.925781 66.789062 27.027344 66.699219 27.117188 C 66.664062 27.167969 66.613281 27.203125 66.574219 27.242188 C 66.421875 27.394531 66.285156 27.519531 66.132812 27.644531 C 66.09375 27.683594 66.042969 27.722656 65.992188 27.757812 C 65.160156 28.464844 64.289062 29.199219 63.144531 32.691406 C 62.851562 33.5625 62.5625 34.484375 62.234375 35.429688 C 62.234375 35.429688 62.234375 35.441406 62.234375 35.441406 C 62.171875 35.632812 62.109375 35.808594 62.046875 35.996094 C 62.046875 35.996094 62.046875 35.996094 62.046875 36.011719 C 61.980469 36.1875 61.917969 36.363281 61.855469 36.539062 C 61.855469 36.539062 61.855469 36.550781 61.84375 36.550781 C 60.910156 39.1875 59.835938 41.941406 58.539062 44.234375 C 58.539062 44.234375 58.476562 44.335938 58.375 44.460938 C 58.273438 44.589844 58.132812 44.742188 57.96875 44.878906 C 57.84375 44.980469 57.707031 45.082031 57.566406 45.15625 C 57.390625 45.246094 57.199219 45.308594 57 45.308594 C 56.984375 45.308594 56.984375 45.308594 56.972656 45.308594 C 56.378906 45.382812 55.761719 45.207031 55.320312 44.816406 C 55.234375 44.742188 55.144531 44.652344 55.070312 44.550781 C 54.992188 44.449219 54.929688 44.347656 54.855469 44.25 C 54.640625 43.945312 54.449219 43.644531 54.285156 43.351562 C 54.136719 43.074219 53.996094 42.796875 53.894531 42.519531 C 53.78125 42.21875 53.71875 41.902344 53.679688 41.5625 C 53.644531 41.269531 53.644531 40.96875 53.65625 40.652344 Z M 69.070312 28.480469 C 69.171875 29.347656 69.792969 30.09375 70.648438 30.371094 C 70.988281 30.484375 71.34375 30.597656 71.683594 30.722656 C 71.671875 30.835938 71.660156 30.9375 71.644531 31.050781 C 71.632812 31.203125 71.621094 31.34375 71.59375 31.480469 C 71.570312 31.644531 71.558594 31.796875 71.53125 31.949219 C 71.507812 32.085938 71.496094 32.226562 71.46875 32.363281 C 71.445312 32.515625 71.40625 32.667969 71.382812 32.820312 C 71.355469 32.957031 71.332031 33.082031 71.292969 33.222656 C 71.253906 33.375 71.21875 33.511719 71.179688 33.652344 C 71.140625 33.777344 71.117188 33.902344 71.078125 34.03125 C 71.039062 34.167969 70.988281 34.308594 70.953125 34.433594 C 70.914062 34.558594 70.875 34.671875 70.839844 34.785156 C 70.789062 34.914062 70.738281 35.039062 70.6875 35.164062 C 70.648438 35.277344 70.597656 35.390625 70.546875 35.503906 C 70.496094 35.632812 70.433594 35.746094 70.382812 35.859375 C 70.332031 35.960938 70.285156 36.074219 70.234375 36.175781 C 70.167969 36.289062 70.121094 36.386719 70.054688 36.503906 C 70.003906 36.601562 69.957031 36.691406 69.890625 36.792969 C 69.828125 36.894531 69.765625 36.996094 69.703125 37.09375 C 69.640625 37.183594 69.589844 37.273438 69.527344 37.359375 C 69.464844 37.449219 69.386719 37.535156 69.324219 37.625 C 69.261719 37.699219 69.199219 37.777344 69.136719 37.851562 C 69.058594 37.941406 68.984375 38.003906 68.90625 38.089844 C 68.84375 38.15625 68.78125 38.230469 68.71875 38.28125 C 68.644531 38.355469 68.554688 38.417969 68.480469 38.484375 C 68.417969 38.535156 68.351562 38.597656 68.289062 38.648438 C 68.203125 38.710938 68.113281 38.761719 68.039062 38.8125 C 67.976562 38.847656 67.910156 38.898438 67.835938 38.9375 C 67.746094 38.988281 67.648438 39.023438 67.558594 39.0625 C 67.496094 39.089844 67.433594 39.125 67.367188 39.152344 C 67.269531 39.1875 67.15625 39.214844 67.054688 39.238281 C 67.003906 39.253906 66.941406 39.277344 66.890625 39.277344 C 66.726562 39.304688 66.5625 39.316406 66.398438 39.316406 C 66.246094 39.316406 66.082031 39.304688 65.929688 39.277344 C 65.804688 39.253906 65.679688 39.214844 65.550781 39.175781 C 65.527344 39.164062 65.515625 39.164062 65.488281 39.164062 C 64.441406 38.8125 63.484375 37.878906 62.738281 36.515625 C 62.738281 36.515625 62.738281 36.503906 62.738281 36.503906 C 63.167969 35.277344 63.558594 34.078125 63.925781 32.96875 C 64.996094 29.691406 65.742188 29.070312 66.523438 28.402344 C 66.777344 28.199219 67.027344 27.972656 67.292969 27.683594 C 67.332031 27.644531 67.355469 27.609375 67.394531 27.570312 C 67.925781 27.457031 68.441406 27.253906 68.90625 26.988281 C 68.957031 27.480469 69.007812 27.988281 69.070312 28.480469 Z M 72.476562 31.027344 C 73.375 31.378906 74.246094 31.769531 75.066406 32.1875 C 75.050781 32.226562 75.050781 32.261719 75.039062 32.300781 C 75.015625 32.390625 75 32.492188 74.976562 32.578125 C 74.949219 32.667969 74.9375 32.753906 74.914062 32.855469 C 74.886719 32.957031 74.875 33.046875 74.851562 33.144531 C 74.824219 33.234375 74.8125 33.324219 74.789062 33.410156 C 74.761719 33.511719 74.75 33.601562 74.722656 33.703125 C 74.710938 33.789062 74.6875 33.878906 74.671875 33.964844 C 74.648438 34.066406 74.636719 34.15625 74.625 34.257812 C 74.609375 34.34375 74.585938 34.433594 74.574219 34.523438 C 74.558594 34.621094 74.535156 34.710938 74.523438 34.8125 C 74.507812 34.898438 74.496094 34.988281 74.472656 35.078125 C 74.460938 35.175781 74.445312 35.265625 74.433594 35.367188 C 74.421875 35.453125 74.410156 35.554688 74.394531 35.644531 C 74.382812 35.734375 74.371094 35.832031 74.359375 35.921875 C 74.34375 36.011719 74.332031 36.109375 74.332031 36.199219 C 74.320312 36.289062 74.308594 36.375 74.308594 36.476562 C 74.296875 36.566406 74.296875 36.667969 74.28125 36.753906 C 74.269531 36.84375 74.269531 36.929688 74.269531 37.019531 C 74.269531 37.121094 74.257812 37.207031 74.257812 37.308594 C 74.257812 37.398438 74.246094 37.484375 74.246094 37.574219 C 74.246094 37.675781 74.246094 37.777344 74.246094 37.863281 C 74.246094 37.953125 74.246094 38.027344 74.246094 38.117188 C 74.246094 38.21875 74.257812 38.320312 74.257812 38.417969 C 74.257812 38.496094 74.257812 38.570312 74.269531 38.660156 C 74.28125 38.773438 74.28125 38.875 74.296875 38.976562 C 74.308594 39.050781 74.308594 39.113281 74.320312 39.1875 C 74.332031 39.304688 74.359375 39.417969 74.371094 39.53125 C 74.382812 39.59375 74.382812 39.65625 74.394531 39.71875 C 74.421875 39.859375 74.445312 39.984375 74.472656 40.121094 C 74.484375 40.160156 74.484375 40.199219 74.496094 40.25 C 74.535156 40.425781 74.585938 40.601562 74.636719 40.765625 L 74.636719 40.792969 L 74.671875 41.121094 C 74.699219 41.988281 74.671875 42.875 74.609375 43.757812 C 74.597656 43.933594 74.585938 44.109375 74.574219 44.285156 C 74.558594 44.460938 74.546875 44.640625 74.523438 44.816406 C 74.472656 45.28125 74.410156 45.75 74.332031 46.214844 C 74.257812 46.203125 74.167969 46.191406 74.09375 46.230469 C 73.460938 46.46875 72.804688 46.621094 72.136719 46.671875 C 71.921875 46.683594 71.707031 46.695312 71.496094 46.695312 C 71.304688 46.695312 71.117188 46.683594 70.914062 46.671875 C 70.421875 46.632812 69.929688 46.542969 69.449219 46.40625 C 69.234375 46.34375 69.007812 46.46875 68.945312 46.683594 C 68.882812 46.898438 69.007812 47.125 69.222656 47.1875 C 69.550781 47.289062 69.878906 47.351562 70.207031 47.414062 C 70.371094 47.441406 70.546875 47.464844 70.710938 47.476562 C 70.890625 47.492188 71.066406 47.503906 71.242188 47.515625 C 71.332031 47.515625 71.40625 47.527344 71.496094 47.527344 C 72.402344 47.527344 73.3125 47.363281 74.167969 47.0625 C 74.082031 47.539062 73.980469 48.019531 73.867188 48.5 C 73.789062 48.800781 73.726562 49.117188 73.675781 49.457031 C 73.5 50.570312 73.625 51.691406 74.066406 52.699219 C 74.988281 54.84375 75.53125 57.253906 75.671875 59.867188 L 75.101562 60.132812 C 74.609375 60.28125 74.117188 60.433594 73.5625 60.558594 C 73.183594 60.648438 72.820312 60.738281 72.414062 60.8125 C 71.40625 60.988281 70.347656 61.128906 69.222656 61.214844 C 69.136719 61.230469 69.046875 61.242188 68.957031 61.242188 C 68.820312 61.253906 68.679688 61.265625 68.542969 61.265625 C 68.402344 61.28125 68.265625 61.28125 68.136719 61.28125 C 67.960938 61.292969 67.785156 61.292969 67.609375 61.304688 C 67.558594 61.304688 67.507812 61.304688 67.457031 61.304688 C 67.117188 61.316406 66.761719 61.316406 66.410156 61.316406 C 66.058594 61.316406 65.703125 61.304688 65.363281 61.304688 C 65.3125 61.304688 65.261719 61.304688 65.210938 61.304688 C 63.722656 61.253906 62.324219 61.101562 61 60.902344 C 60.53125 60.824219 60.113281 60.710938 59.671875 60.625 C 58.953125 60.472656 58.273438 60.296875 57.65625 60.09375 L 57.164062 59.867188 C 57.300781 57.253906 57.84375 54.84375 58.765625 52.699219 C 59.195312 51.691406 59.332031 50.570312 59.15625 49.457031 C 59.105469 49.117188 59.042969 48.800781 58.96875 48.5 C 58.851562 48.019531 58.738281 47.515625 58.652344 46.972656 C 58.664062 46.972656 58.675781 46.984375 58.6875 47 C 59.609375 47.351562 60.59375 47.527344 61.578125 47.527344 C 62.347656 47.527344 63.117188 47.414062 63.863281 47.199219 C 64.078125 47.136719 64.203125 46.910156 64.140625 46.695312 C 64.078125 46.480469 63.847656 46.355469 63.636719 46.417969 C 62.121094 46.871094 60.480469 46.808594 59.003906 46.242188 C 58.851562 46.179688 58.675781 46.230469 58.5625 46.328125 C 58.527344 46.089844 58.488281 45.851562 58.460938 45.597656 C 58.96875 45.195312 59.269531 44.726562 59.308594 44.675781 C 60.53125 42.507812 61.554688 39.984375 62.449219 37.511719 C 63.242188 38.722656 64.203125 39.554688 65.261719 39.921875 C 65.300781 39.933594 65.339844 39.945312 65.386719 39.957031 C 65.453125 39.984375 65.527344 39.996094 65.589844 40.023438 C 65.703125 40.046875 65.828125 40.074219 65.945312 40.097656 C 65.980469 40.097656 66.019531 40.109375 66.058594 40.109375 C 66.195312 40.121094 66.335938 40.136719 66.472656 40.136719 C 66.664062 40.136719 66.839844 40.121094 67.015625 40.097656 C 67.027344 40.097656 67.027344 40.097656 67.042969 40.097656 C 67.21875 40.074219 67.382812 40.023438 67.558594 39.972656 C 67.570312 39.972656 67.582031 39.957031 67.597656 39.957031 C 67.761719 39.910156 67.925781 39.832031 68.089844 39.757812 C 68.101562 39.746094 68.125 39.746094 68.136719 39.730469 C 68.289062 39.65625 68.453125 39.566406 68.605469 39.46875 C 68.617188 39.453125 68.644531 39.441406 68.65625 39.429688 C 68.808594 39.328125 68.945312 39.214844 69.097656 39.101562 C 69.121094 39.089844 69.136719 39.0625 69.160156 39.050781 C 69.300781 38.925781 69.4375 38.796875 69.578125 38.660156 C 69.601562 38.632812 69.613281 38.621094 69.640625 38.597656 C 69.777344 38.457031 69.90625 38.304688 70.03125 38.140625 C 70.042969 38.117188 70.070312 38.089844 70.082031 38.066406 C 70.207031 37.902344 70.332031 37.738281 70.449219 37.5625 C 70.460938 37.535156 70.484375 37.511719 70.496094 37.484375 C 70.613281 37.308594 70.726562 37.121094 70.839844 36.929688 C 70.851562 36.90625 70.863281 36.878906 70.890625 36.84375 C 71.003906 36.640625 71.101562 36.4375 71.203125 36.226562 C 71.21875 36.199219 71.230469 36.175781 71.242188 36.136719 C 71.34375 35.921875 71.445312 35.695312 71.53125 35.46875 C 71.542969 35.441406 71.558594 35.417969 71.558594 35.390625 C 71.644531 35.152344 71.734375 34.914062 71.824219 34.660156 C 71.835938 34.636719 71.835938 34.609375 71.847656 34.585938 C 71.921875 34.332031 72.011719 34.066406 72.074219 33.800781 C 72.074219 33.789062 72.085938 33.765625 72.085938 33.75 C 72.164062 33.472656 72.226562 33.195312 72.289062 32.90625 C 72.289062 32.894531 72.289062 32.894531 72.289062 32.882812 C 72.414062 32.289062 72.503906 31.671875 72.566406 31.027344 C 72.476562 31.039062 72.476562 31.027344 72.476562 31.027344 Z M 76.476562 59.789062 C 76.328125 57.089844 75.769531 54.59375 74.824219 52.371094 C 74.460938 51.515625 74.34375 50.542969 74.496094 49.585938 C 74.546875 49.269531 74.609375 48.964844 74.671875 48.6875 C 75 47.363281 75.230469 45.976562 75.355469 44.5625 C 76.441406 49.710938 77.347656 52.648438 78.144531 53.507812 L 84.527344 62.148438 C 81.699219 61.191406 78.949219 60.433594 76.476562 59.789062 Z M 49.984375 61.480469 L 50.023438 61.417969 C 50.109375 61.230469 50.1875 61.050781 50.25 60.863281 C 50.273438 60.800781 50.289062 60.722656 50.3125 60.660156 C 50.351562 60.535156 50.402344 60.421875 50.4375 60.296875 C 50.464844 60.21875 50.476562 60.132812 50.5 60.054688 C 50.527344 59.941406 50.566406 59.828125 50.589844 59.714844 C 50.601562 59.625 50.617188 59.539062 50.628906 59.460938 C 50.652344 59.347656 50.664062 59.234375 50.679688 59.136719 C 50.691406 59.046875 50.691406 58.957031 50.703125 58.871094 C 50.714844 58.757812 50.730469 58.65625 50.730469 58.542969 C 50.730469 58.453125 50.730469 58.351562 50.742188 58.265625 C 50.742188 58.152344 50.753906 58.050781 50.742188 57.9375 C 50.742188 57.847656 50.730469 57.746094 50.730469 57.660156 C 50.730469 57.558594 50.714844 57.445312 50.714844 57.34375 C 50.703125 57.253906 50.691406 57.152344 50.679688 57.066406 C 50.664062 56.964844 50.652344 56.851562 50.640625 56.75 C 50.628906 56.664062 50.601562 56.5625 50.589844 56.472656 C 50.566406 56.371094 50.550781 56.269531 50.527344 56.15625 C 50.5 56.070312 50.476562 55.96875 50.453125 55.878906 C 50.425781 55.777344 50.402344 55.679688 50.363281 55.578125 C 50.335938 55.488281 50.300781 55.402344 50.273438 55.3125 C 50.238281 55.210938 50.210938 55.109375 50.171875 55.023438 C 50.136719 54.933594 50.097656 54.84375 50.058594 54.757812 C 50.023438 54.65625 49.984375 54.566406 49.933594 54.46875 C 49.894531 54.378906 49.847656 54.289062 49.808594 54.214844 C 49.757812 54.125 49.707031 54.027344 49.65625 53.9375 C 49.605469 53.847656 49.554688 53.773438 49.503906 53.683594 C 49.453125 53.597656 49.390625 53.507812 49.339844 53.417969 C 49.289062 53.34375 49.226562 53.257812 49.175781 53.179688 C 49.113281 53.09375 49.050781 53.015625 48.988281 52.929688 C 48.925781 52.851562 48.863281 52.777344 48.796875 52.699219 C 48.761719 52.648438 48.722656 52.613281 48.683594 52.5625 C 48.710938 52.5625 48.734375 52.5625 48.761719 52.5625 C 50.148438 52.5625 51.523438 52.144531 52.609375 51.363281 C 54.160156 50.226562 55.121094 48.359375 55.296875 46.101562 C 55.308594 46 55.308594 45.902344 55.308594 45.800781 C 55.738281 46.027344 56.203125 46.152344 56.695312 46.152344 C 56.835938 46.152344 56.972656 46.140625 57.113281 46.128906 C 57.300781 46.117188 57.476562 46.078125 57.640625 46.027344 C 57.78125 47.011719 57.945312 47.894531 58.148438 48.703125 C 58.222656 48.992188 58.273438 49.28125 58.324219 49.597656 C 58.476562 50.554688 58.363281 51.515625 57.996094 52.386719 C 57.035156 54.617188 56.480469 57.117188 56.34375 59.804688 C 54.335938 60.320312 52.140625 60.925781 49.882812 61.644531 Z M 40.886719 37.8125 C 40.964844 37.765625 41.050781 37.714844 41.140625 37.648438 C 41.230469 37.601562 41.304688 37.550781 41.394531 37.5 C 41.480469 37.449219 41.582031 37.398438 41.683594 37.347656 C 41.773438 37.308594 41.847656 37.257812 41.9375 37.222656 C 42.035156 37.171875 42.136719 37.132812 42.238281 37.09375 C 42.328125 37.058594 42.414062 37.019531 42.503906 36.980469 C 42.605469 36.945312 42.71875 36.90625 42.832031 36.878906 C 42.917969 36.855469 43.007812 36.816406 43.097656 36.792969 C 43.210938 36.765625 43.324219 36.742188 43.4375 36.714844 C 43.523438 36.691406 43.613281 36.667969 43.703125 36.652344 C 43.828125 36.628906 43.941406 36.617188 44.066406 36.589844 C 44.15625 36.578125 44.246094 36.566406 44.332031 36.550781 C 44.457031 36.539062 44.585938 36.527344 44.710938 36.515625 C 44.800781 36.503906 44.875 36.503906 44.964844 36.488281 C 45.089844 36.476562 45.226562 36.476562 45.367188 36.476562 C 45.457031 36.476562 45.53125 36.476562 45.621094 36.476562 C 45.757812 36.476562 45.898438 36.488281 46.035156 36.503906 C 46.113281 36.503906 46.199219 36.503906 46.277344 36.515625 C 46.414062 36.527344 46.554688 36.539062 46.703125 36.566406 C 46.78125 36.578125 46.855469 36.578125 46.929688 36.589844 C 47.070312 36.617188 47.222656 36.640625 47.359375 36.667969 C 47.4375 36.679688 47.5 36.691406 47.574219 36.703125 C 47.726562 36.742188 47.878906 36.78125 48.015625 36.816406 C 48.078125 36.832031 48.144531 36.84375 48.207031 36.867188 C 48.355469 36.917969 48.507812 36.96875 48.660156 37.019531 C 48.710938 37.042969 48.773438 37.058594 48.824219 37.070312 C 48.976562 37.132812 49.140625 37.195312 49.289062 37.257812 C 49.339844 37.285156 49.378906 37.296875 49.429688 37.320312 C 49.582031 37.398438 49.746094 37.472656 49.894531 37.550781 C 49.933594 37.574219 49.972656 37.585938 50.023438 37.613281 C 50.210938 37.714844 50.402344 37.828125 50.578125 37.953125 C 51.484375 38.546875 52.253906 39.304688 52.859375 40.160156 C 52.785156 41.070312 52.808594 41.964844 53.125 42.808594 C 53.402344 43.542969 53.820312 44.273438 54.414062 45.042969 C 54.4375 45.082031 54.476562 45.105469 54.5 45.144531 C 54.511719 45.433594 54.5 45.738281 54.476562 46.039062 C 54.386719 47.214844 53.957031 49.371094 52.128906 50.707031 C 51.953125 50.832031 51.777344 50.945312 51.585938 51.046875 C 51.535156 51.074219 51.484375 51.097656 51.449219 51.109375 C 51.296875 51.1875 51.144531 51.25 50.992188 51.3125 C 50.945312 51.339844 50.878906 51.351562 50.828125 51.375 C 50.679688 51.425781 50.527344 51.476562 50.363281 51.527344 C 50.300781 51.539062 50.238281 51.554688 50.171875 51.578125 C 50.023438 51.617188 49.871094 51.640625 49.71875 51.667969 C 49.644531 51.679688 49.566406 51.691406 49.492188 51.691406 C 49.355469 51.703125 49.226562 51.714844 49.089844 51.730469 C 48.988281 51.730469 48.886719 51.742188 48.785156 51.742188 C 48.683594 51.742188 48.585938 51.742188 48.496094 51.730469 C 48.355469 51.730469 48.230469 51.714844 48.09375 51.703125 C 48.042969 51.703125 47.992188 51.691406 47.941406 51.679688 C 47.765625 51.652344 47.601562 51.628906 47.421875 51.589844 C 47.246094 51.554688 47.070312 51.503906 46.894531 51.453125 C 45.191406 50.871094 43.890625 49.433594 43.652344 47.867188 C 43.449219 46.582031 43.992188 45.28125 45.039062 44.5625 C 46.175781 43.769531 47.902344 43.769531 48.898438 44.550781 C 49.378906 44.929688 49.632812 45.523438 49.59375 46.140625 C 49.554688 46.707031 49.265625 47.1875 48.8125 47.476562 C 48.621094 47.589844 48.558594 47.84375 48.671875 48.046875 C 48.785156 48.234375 49.039062 48.296875 49.242188 48.183594 C 49.933594 47.753906 50.363281 47.035156 50.414062 46.203125 C 50.464844 45.320312 50.097656 44.460938 49.417969 43.921875 C 48.144531 42.910156 46.023438 42.898438 44.585938 43.894531 C 43.285156 44.789062 42.617188 46.40625 42.855469 47.996094 C 43.148438 49.875 44.636719 51.539062 46.640625 52.222656 C 46.816406 52.285156 47.007812 52.335938 47.183594 52.371094 L 47.941406 52.953125 C 48.003906 53.027344 48.078125 53.105469 48.144531 53.179688 C 48.191406 53.242188 48.242188 53.292969 48.292969 53.355469 C 48.355469 53.445312 48.421875 53.519531 48.484375 53.609375 C 48.519531 53.671875 48.570312 53.722656 48.621094 53.785156 C 48.683594 53.875 48.734375 53.976562 48.796875 54.0625 C 48.835938 54.125 48.875 54.175781 48.914062 54.238281 C 48.976562 54.339844 49.027344 54.441406 49.078125 54.554688 C 49.101562 54.605469 49.140625 54.667969 49.164062 54.71875 C 49.214844 54.832031 49.265625 54.945312 49.316406 55.058594 C 49.339844 55.109375 49.367188 55.160156 49.378906 55.210938 C 49.429688 55.335938 49.480469 55.476562 49.519531 55.601562 C 49.53125 55.640625 49.542969 55.679688 49.554688 55.714844 C 49.605469 55.894531 49.65625 56.054688 49.695312 56.234375 C 49.78125 56.585938 49.847656 56.953125 49.871094 57.316406 C 49.871094 57.34375 49.871094 57.355469 49.871094 57.382812 C 49.882812 57.546875 49.894531 57.695312 49.894531 57.859375 C 49.894531 57.910156 49.894531 57.949219 49.894531 58 C 49.894531 58.136719 49.894531 58.277344 49.894531 58.414062 C 49.894531 58.480469 49.882812 58.542969 49.882812 58.59375 C 49.871094 58.71875 49.871094 58.832031 49.859375 58.957031 C 49.847656 59.019531 49.832031 59.085938 49.832031 59.160156 C 49.820312 59.273438 49.796875 59.386719 49.78125 59.5 C 49.769531 59.578125 49.746094 59.640625 49.730469 59.703125 C 49.707031 59.804688 49.683594 59.917969 49.65625 60.019531 C 49.632812 60.09375 49.605469 60.15625 49.59375 60.230469 C 49.554688 60.332031 49.53125 60.433594 49.492188 60.535156 C 49.46875 60.609375 49.429688 60.6875 49.402344 60.761719 C 49.367188 60.851562 49.328125 60.9375 49.289062 61.027344 L 48.597656 62.035156 C 47.511719 62.402344 46.414062 62.804688 45.316406 63.234375 C 45.316406 63.234375 45.304688 63.234375 45.304688 63.234375 C 42.175781 59.300781 40.144531 54.679688 39.398438 49.785156 C 39.398438 49.761719 39.386719 49.734375 39.386719 49.710938 C 39.324219 49.320312 39.273438 48.917969 39.234375 48.511719 C 39.222656 48.4375 39.222656 48.359375 39.210938 48.296875 C 39.171875 47.933594 39.148438 47.554688 39.121094 47.1875 C 39.121094 47.085938 39.109375 47 39.097656 46.898438 C 39.070312 46.429688 39.058594 45.964844 39.058594 45.496094 C 39.058594 45.082031 39.070312 44.664062 39.085938 44.25 C 39.085938 44.171875 39.097656 44.097656 39.097656 44.019531 C 39.121094 43.605469 39.148438 43.1875 39.183594 42.785156 C 39.183594 42.757812 39.183594 42.734375 39.199219 42.710938 C 39.335938 41.398438 39.5625 40.097656 39.890625 38.824219 L 39.90625 38.8125 Z M 93.914062 68.21875 C 93.75 68.167969 93.570312 68.117188 93.40625 68.066406 C 90.785156 67.183594 88.691406 65.554688 87.554688 64.535156 C 87.542969 64.523438 87.542969 64.523438 87.527344 64.507812 C 87.429688 64.421875 87.328125 64.332031 87.238281 64.246094 C 87.125 64.144531 87.035156 64.042969 86.949219 63.964844 C 86.9375 63.964844 86.9375 63.953125 86.921875 63.953125 C 86.898438 63.929688 86.886719 63.917969 86.871094 63.902344 C 86.710938 63.738281 86.621094 63.636719 86.621094 63.636719 L 86.332031 63.246094 L 85.890625 62.65625 L 78.773438 53.003906 L 78.734375 52.964844 C 78.230469 52.449219 77.375 50.390625 76.023438 43.820312 C 76 43.679688 75.960938 43.527344 75.933594 43.390625 C 75.910156 43.25 75.871094 43.101562 75.847656 42.949219 C 75.757812 42.519531 75.671875 42.066406 75.582031 41.597656 C 75.53125 41.371094 75.507812 41.195312 75.46875 41.054688 C 75.46875 41.054688 75.46875 41.042969 75.46875 41.042969 L 75.417969 40.640625 L 75.40625 40.5625 C 75.355469 40.402344 75.316406 40.25 75.277344 40.085938 C 75.265625 40.035156 75.253906 39.984375 75.242188 39.933594 C 75.214844 39.820312 75.191406 39.707031 75.179688 39.59375 C 75.164062 39.53125 75.164062 39.46875 75.152344 39.402344 C 75.140625 39.304688 75.113281 39.203125 75.101562 39.089844 C 75.089844 39.023438 75.089844 38.949219 75.078125 38.886719 C 75.066406 38.785156 75.050781 38.683594 75.050781 38.582031 C 75.050781 38.519531 75.039062 38.445312 75.039062 38.382812 C 75.039062 38.28125 75.027344 38.179688 75.027344 38.078125 C 75.027344 38.003906 75.027344 37.941406 75.027344 37.863281 C 75.027344 37.765625 75.027344 37.664062 75.027344 37.5625 C 75.027344 37.484375 75.027344 37.421875 75.027344 37.347656 C 75.027344 37.246094 75.039062 37.144531 75.039062 37.042969 C 75.039062 36.96875 75.050781 36.894531 75.050781 36.832031 C 75.066406 36.730469 75.066406 36.628906 75.078125 36.527344 C 75.089844 36.453125 75.089844 36.386719 75.101562 36.3125 C 75.113281 36.210938 75.128906 36.109375 75.140625 35.996094 C 75.152344 35.921875 75.152344 35.859375 75.164062 35.78125 C 75.179688 35.683594 75.191406 35.570312 75.214844 35.46875 C 75.230469 35.390625 75.242188 35.328125 75.253906 35.253906 C 75.265625 35.152344 75.292969 35.039062 75.304688 34.9375 C 75.316406 34.863281 75.328125 34.800781 75.34375 34.722656 C 75.367188 34.609375 75.378906 34.507812 75.40625 34.394531 C 75.417969 34.320312 75.429688 34.257812 75.441406 34.195312 C 75.46875 34.078125 75.480469 33.980469 75.507812 33.867188 C 75.519531 33.789062 75.53125 33.726562 75.542969 33.652344 C 75.570312 33.550781 75.582031 33.449219 75.605469 33.347656 C 75.621094 33.273438 75.644531 33.195312 75.65625 33.121094 C 75.671875 33.046875 75.695312 32.96875 75.707031 32.90625 C 75.734375 32.804688 75.757812 32.703125 75.785156 32.605469 C 76.226562 32.855469 76.605469 33.082031 76.957031 33.308594 C 77.601562 33.738281 78.421875 34.722656 78.609375 35.53125 C 78.75 36.125 78.785156 36.730469 78.835938 37.371094 C 78.863281 37.664062 78.875 37.941406 78.898438 38.230469 C 78.988281 39.164062 79.128906 40.136719 79.289062 41.121094 C 79.316406 41.257812 79.328125 41.398438 79.355469 41.546875 C 79.378906 41.6875 79.40625 41.824219 79.429688 41.964844 C 79.746094 43.707031 80.148438 45.472656 80.628906 47.175781 C 81.601562 50.621094 83.328125 54.050781 86.066406 57.960938 C 86.59375 58.71875 87.175781 59.511719 87.832031 60.371094 C 88.109375 60.738281 88.488281 61.078125 88.890625 61.378906 C 88.890625 61.378906 88.902344 61.394531 88.902344 61.394531 C 89.003906 61.46875 89.117188 61.558594 89.230469 61.621094 C 89.347656 61.695312 89.460938 61.757812 89.574219 61.820312 C 89.574219 61.820312 89.585938 61.820312 89.585938 61.835938 C 90.441406 62.339844 91.375 62.679688 92.132812 62.804688 C 92.210938 62.820312 92.285156 62.832031 92.359375 62.855469 C 93.167969 63.121094 93.875 63.589844 94.417969 64.195312 C 95.476562 65.367188 95.90625 67.058594 95.550781 68.585938 C 95.148438 68.535156 94.757812 68.445312 94.367188 68.355469 C 94.226562 68.304688 94.0625 68.257812 93.914062 68.21875 Z M 93.734375 46.859375 C 93.722656 47.011719 93.710938 47.148438 93.710938 47.300781 C 93.683594 47.605469 93.671875 47.894531 93.648438 48.195312 C 93.636719 48.375 93.609375 48.539062 93.597656 48.703125 C 93.558594 48.980469 93.535156 49.257812 93.496094 49.523438 C 93.472656 49.6875 93.445312 49.863281 93.421875 50.027344 C 93.40625 50.128906 93.394531 50.226562 93.371094 50.328125 C 89.988281 48.121094 85.789062 47.214844 81.800781 47.832031 C 81.789062 47.832031 81.761719 47.84375 81.75 47.84375 C 81.648438 47.527344 81.550781 47.214844 81.460938 46.910156 C 80.96875 45.167969 80.550781 43.351562 80.25 41.574219 L 80.273438 41.5625 L 80.339844 41.496094 C 83.152344 38.457031 87.25 36.679688 91.375 36.679688 C 91.515625 36.679688 91.65625 36.679688 91.792969 36.679688 L 91.820312 36.679688 L 92.261719 36.640625 L 92.273438 36.640625 C 92.816406 38.167969 93.207031 39.730469 93.457031 41.347656 C 93.472656 41.421875 93.484375 41.496094 93.496094 41.574219 C 93.546875 41.914062 93.585938 42.253906 93.621094 42.582031 C 93.636719 42.695312 93.648438 42.808594 93.660156 42.921875 C 93.683594 43.238281 93.710938 43.554688 93.734375 43.882812 C 93.75 43.996094 93.75 44.109375 93.761719 44.234375 C 93.785156 44.664062 93.800781 45.09375 93.800781 45.523438 C 93.773438 45.964844 93.761719 46.417969 93.734375 46.859375 Z M 91.769531 35.871094 C 87.441406 35.757812 83.101562 37.511719 80.046875 40.589844 C 79.921875 39.746094 79.808594 38.925781 79.734375 38.128906 C 79.707031 37.851562 79.683594 37.574219 79.667969 37.296875 C 79.617188 36.652344 79.582031 35.984375 79.429688 35.316406 C 79.191406 34.28125 78.21875 33.121094 77.4375 32.605469 C 77.308594 32.527344 77.195312 32.441406 77.058594 32.363281 C 77.121094 32.3125 77.171875 32.238281 77.195312 32.148438 C 78.015625 29.058594 79.769531 26.167969 82.15625 24.039062 C 82.21875 23.976562 82.253906 23.898438 82.269531 23.824219 C 86.621094 26.777344 90 30.9375 91.945312 35.847656 Z M 81.636719 23.417969 C 81.625 23.433594 81.613281 23.433594 81.601562 23.445312 C 79.101562 25.691406 77.261719 28.707031 76.402344 31.960938 C 76.402344 31.972656 76.402344 31.984375 76.402344 31.984375 C 76.277344 31.910156 76.148438 31.835938 76.011719 31.769531 L 75.746094 31.632812 C 75.746094 31.632812 75.734375 31.621094 75.734375 31.621094 L 75.265625 31.367188 L 75.265625 31.378906 C 74.394531 30.9375 73.488281 30.535156 72.554688 30.183594 L 72.277344 30.082031 C 72.277344 30.082031 72.265625 30.082031 72.265625 30.082031 L 71.746094 29.890625 C 71.46875 29.789062 71.191406 29.691406 70.902344 29.601562 C 70.359375 29.425781 69.957031 28.957031 69.890625 28.390625 C 69.816406 27.746094 69.753906 27.089844 69.714844 26.449219 C 71.152344 25.25 72.101562 23.28125 72.101562 21.046875 C 72.101562 20.542969 72.050781 20.050781 71.960938 19.585938 C 75.492188 20.253906 78.761719 21.578125 81.636719 23.417969 Z M 62.082031 25.324219 C 61.527344 25.96875 61.324219 26.75 61.125 27.507812 C 61.046875 27.796875 60.972656 28.101562 60.871094 28.390625 C 60.65625 29.007812 60.429688 29.613281 60.179688 30.21875 C 58.804688 30.75 57.554688 31.328125 56.429688 31.984375 C 56.429688 31.972656 56.429688 31.972656 56.429688 31.960938 C 55.574219 28.71875 53.730469 25.691406 51.234375 23.445312 C 51.222656 23.433594 51.207031 23.433594 51.195312 23.417969 C 54.070312 21.578125 57.351562 20.265625 60.898438 19.585938 C 60.808594 20.050781 60.757812 20.542969 60.757812 21.046875 C 60.734375 22.675781 61.25 24.164062 62.082031 25.324219 Z M 50.679688 24.050781 C 53.0625 26.183594 54.816406 29.070312 55.636719 32.164062 C 55.660156 32.25 55.710938 32.328125 55.773438 32.375 C 55.648438 32.453125 55.523438 32.527344 55.398438 32.617188 C 54.601562 33.132812 53.644531 34.292969 53.402344 35.328125 C 53.253906 35.984375 53.203125 36.652344 53.164062 37.296875 C 53.152344 37.574219 53.125 37.851562 53.101562 38.128906 C 53.074219 38.394531 53.039062 38.671875 53 38.949219 C 53 38.960938 53 38.976562 53 39 C 52.433594 38.34375 51.777344 37.765625 51.042969 37.273438 C 47.878906 35.175781 43.3125 35.128906 40.421875 37.144531 C 42.25 31.671875 45.835938 27.039062 50.566406 23.835938 C 50.578125 23.910156 50.601562 23.988281 50.679688 24.050781 Z M 50.679688 24.050781 "/></g><path style=" stroke:none;fill-rule:nonzero;fill:#0661aa;fill-opacity:1;" d="M 59.484375 68.875 C 59.066406 68.796875 58.664062 68.734375 58.246094 68.671875 C 54.550781 68.105469 51.964844 67.839844 49.894531 67.863281 C 49.667969 67.863281 49.441406 67.878906 49.226562 67.878906 C 49.039062 67.890625 48.847656 67.890625 48.660156 67.914062 C 47.386719 68.015625 46.300781 68.242188 45.203125 68.597656 C 44.988281 68.671875 44.875 68.898438 44.9375 69.113281 C 45.015625 69.328125 45.242188 69.441406 45.457031 69.378906 C 46.71875 68.960938 47.992188 68.734375 49.59375 68.683594 C 49.796875 68.683594 50.011719 68.683594 50.222656 68.683594 C 50.464844 68.683594 50.714844 68.699219 50.980469 68.699219 C 52.824219 68.761719 55.082031 69.027344 58.121094 69.480469 C 58.527344 69.542969 58.929688 69.605469 59.332031 69.679688 L 59.433594 69.695312 C 59.460938 69.695312 59.484375 69.695312 59.507812 69.695312 C 59.710938 69.695312 59.875 69.554688 59.914062 69.355469 C 59.949219 69.125 59.800781 68.925781 59.585938 68.875 Z M 59.484375 68.875 "/><g style="fill:#0661aa;fill-opacity:1;"><g transform="translate(42.989316, 93.539312)"><path style="stroke:none" d="M 1 0 L 1 -14.171875 L 5.09375 -14.171875 L 10.09375 -4.015625 L 10.125 -4.015625 L 10.125 -14.171875 L 13.296875 -14.171875 L 13.296875 0 L 9.21875 0 L 4.203125 -10.125 L 4.15625 -10.125 L 4.15625 0 Z M 1 0 "/></g></g><g style="fill:#0661aa;fill-opacity:1;"><g transform="translate(59.62627, 93.539312)"><path style="stroke:none" d="M 3.515625 0.234375 C 2.546875 0.234375 1.765625 -0.0195312 1.171875 -0.53125 C 0.578125 -1.050781 0.28125 -1.75 0.28125 -2.625 C 0.28125 -3.550781 0.632812 -4.300781 1.34375 -4.875 C 2.050781 -5.457031 3.085938 -5.820312 4.453125 -5.96875 L 6.03125 -6.15625 C 6.257812 -6.175781 6.441406 -6.253906 6.578125 -6.390625 C 6.710938 -6.523438 6.78125 -6.71875 6.78125 -6.96875 C 6.78125 -7.414062 6.640625 -7.757812 6.359375 -8 C 6.085938 -8.238281 5.726562 -8.359375 5.28125 -8.359375 C 4.757812 -8.359375 4.335938 -8.175781 4.015625 -7.8125 C 3.703125 -7.457031 3.53125 -7.007812 3.5 -6.46875 L 0.609375 -6.890625 C 0.640625 -7.609375 0.847656 -8.238281 1.234375 -8.78125 C 1.628906 -9.332031 2.164062 -9.765625 2.84375 -10.078125 C 3.53125 -10.390625 4.332031 -10.546875 5.25 -10.546875 C 6.644531 -10.546875 7.75 -10.179688 8.5625 -9.453125 C 9.375 -8.722656 9.78125 -7.734375 9.78125 -6.484375 L 9.78125 -2.546875 C 9.78125 -2.097656 9.941406 -1.875 10.265625 -1.875 C 10.535156 -1.875 10.789062 -2.003906 11.03125 -2.265625 L 11.6875 -0.640625 C 11.363281 -0.328125 10.976562 -0.0976562 10.53125 0.046875 C 10.082031 0.191406 9.640625 0.265625 9.203125 0.265625 C 8.585938 0.265625 8.070312 0.109375 7.65625 -0.203125 C 7.238281 -0.515625 6.976562 -0.910156 6.875 -1.390625 L 6.828125 -1.65625 L 6.8125 -1.65625 C 6.5 -1.070312 6.054688 -0.609375 5.484375 -0.265625 C 4.921875 0.0664062 4.265625 0.234375 3.515625 0.234375 Z M 4.78125 -1.890625 C 5.351562 -1.890625 5.820312 -2.09375 6.1875 -2.5 C 6.5625 -2.90625 6.75 -3.429688 6.75 -4.078125 L 6.75 -4.5625 L 5.25 -4.40625 C 4.5625 -4.320312 4.066406 -4.148438 3.765625 -3.890625 C 3.472656 -3.640625 3.328125 -3.34375 3.328125 -3 C 3.328125 -2.675781 3.460938 -2.410156 3.734375 -2.203125 C 4.003906 -1.992188 4.351562 -1.890625 4.78125 -1.890625 Z M 4.78125 -1.890625 "/></g></g><g style="fill:#0661aa;fill-opacity:1;"><g transform="translate(73.65638, 93.539312)"><path style="stroke:none" d="M 4.4375 0.28125 C 3.625 0.28125 2.914062 0.0625 2.3125 -0.375 C 1.707031 -0.8125 1.238281 -1.4375 0.90625 -2.25 C 0.582031 -3.0625 0.421875 -4.007812 0.421875 -5.09375 C 0.421875 -6.195312 0.582031 -7.148438 0.90625 -7.953125 C 1.238281 -8.753906 1.707031 -9.375 2.3125 -9.8125 C 2.914062 -10.25 3.617188 -10.46875 4.421875 -10.46875 C 5.109375 -10.46875 5.71875 -10.296875 6.25 -9.953125 C 6.78125 -9.609375 7.191406 -9.109375 7.484375 -8.453125 L 7.5 -8.453125 L 7.5 -14.765625 L 10.546875 -14.765625 L 10.546875 0 L 7.96875 0 L 7.578125 -1.765625 L 7.5625 -1.765625 C 7.269531 -1.109375 6.851562 -0.601562 6.3125 -0.25 C 5.769531 0.101562 5.144531 0.28125 4.4375 0.28125 Z M 5.546875 -2.328125 C 6.171875 -2.328125 6.671875 -2.578125 7.046875 -3.078125 C 7.429688 -3.585938 7.625 -4.257812 7.625 -5.09375 C 7.625 -5.925781 7.429688 -6.59375 7.046875 -7.09375 C 6.671875 -7.601562 6.171875 -7.859375 5.546875 -7.859375 C 4.929688 -7.859375 4.429688 -7.601562 4.046875 -7.09375 C 3.660156 -6.59375 3.46875 -5.925781 3.46875 -5.09375 C 3.46875 -4.257812 3.660156 -3.585938 4.046875 -3.078125 C 4.429688 -2.578125 4.929688 -2.328125 5.546875 -2.328125 Z M 5.546875 -2.328125 "/></g></g><g style="fill:#0661aa;fill-opacity:1;"><g transform="translate(87.308408, 93.539312)"><path style="stroke:none" d="M 2.34375 -11.578125 C 1.800781 -11.578125 1.367188 -11.738281 1.046875 -12.0625 C 0.722656 -12.382812 0.5625 -12.800781 0.5625 -13.3125 C 0.5625 -13.84375 0.722656 -14.265625 1.046875 -14.578125 C 1.367188 -14.898438 1.800781 -15.0625 2.34375 -15.0625 C 2.894531 -15.0625 3.332031 -14.898438 3.65625 -14.578125 C 3.976562 -14.265625 4.140625 -13.84375 4.140625 -13.3125 C 4.140625 -12.800781 3.976562 -12.382812 3.65625 -12.0625 C 3.332031 -11.738281 2.894531 -11.578125 2.34375 -11.578125 Z M 0.8125 0 L 0.8125 -10.1875 L 3.859375 -10.1875 L 3.859375 0 Z M 0.8125 0 "/></g></g><g style="fill:#0661aa;fill-opacity:1;"><g transform="translate(14.201341, 117.428199)"><path style="stroke:none" d="M 6.25 0.4375 C 5.132812 0.4375 4.144531 0.25 3.28125 -0.125 C 2.414062 -0.507812 1.734375 -1.054688 1.234375 -1.765625 C 0.734375 -2.472656 0.445312 -3.320312 0.375 -4.3125 L 3.5 -4.859375 C 3.539062 -4.003906 3.832031 -3.332031 4.375 -2.84375 C 4.925781 -2.351562 5.597656 -2.109375 6.390625 -2.109375 C 7.085938 -2.109375 7.644531 -2.273438 8.0625 -2.609375 C 8.488281 -2.941406 8.703125 -3.351562 8.703125 -3.84375 C 8.703125 -4.269531 8.539062 -4.617188 8.21875 -4.890625 C 7.90625 -5.171875 7.390625 -5.40625 6.671875 -5.59375 L 4.875 -6.046875 C 3.46875 -6.378906 2.4375 -6.875 1.78125 -7.53125 C 1.132812 -8.1875 0.8125 -9.070312 0.8125 -10.1875 C 0.8125 -11.082031 1.023438 -11.859375 1.453125 -12.515625 C 1.878906 -13.179688 2.484375 -13.695312 3.265625 -14.0625 C 4.046875 -14.425781 4.960938 -14.609375 6.015625 -14.609375 C 6.960938 -14.609375 7.804688 -14.4375 8.546875 -14.09375 C 9.296875 -13.757812 9.898438 -13.285156 10.359375 -12.671875 C 10.816406 -12.054688 11.078125 -11.320312 11.140625 -10.46875 L 8.109375 -9.859375 C 8.066406 -10.546875 7.84375 -11.09375 7.4375 -11.5 C 7.039062 -11.90625 6.546875 -12.109375 5.953125 -12.109375 C 5.378906 -12.109375 4.921875 -11.953125 4.578125 -11.640625 C 4.242188 -11.328125 4.078125 -10.9375 4.078125 -10.46875 C 4.078125 -10.0625 4.226562 -9.722656 4.53125 -9.453125 C 4.832031 -9.191406 5.316406 -8.972656 5.984375 -8.796875 L 7.765625 -8.359375 C 9.210938 -8.023438 10.269531 -7.523438 10.9375 -6.859375 C 11.601562 -6.191406 11.9375 -5.289062 11.9375 -4.15625 C 11.9375 -3.226562 11.703125 -2.421875 11.234375 -1.734375 C 10.773438 -1.046875 10.117188 -0.507812 9.265625 -0.125 C 8.421875 0.25 7.414062 0.4375 6.25 0.4375 Z M 6.25 0.4375 "/></g></g><g style="fill:#0661aa;fill-opacity:1;"><g transform="translate(28.788647, 117.428199)"><path style="stroke:none" d="M 0.75 0 L 0.75 -14.765625 L 3.78125 -14.765625 L 3.78125 -8.453125 L 3.796875 -8.453125 C 4.117188 -9.097656 4.554688 -9.59375 5.109375 -9.9375 C 5.660156 -10.28125 6.289062 -10.453125 7 -10.453125 C 7.945312 -10.453125 8.679688 -10.171875 9.203125 -9.609375 C 9.734375 -9.054688 10 -8.269531 10 -7.25 L 10 0 L 6.953125 0 L 6.953125 -6.46875 C 6.953125 -6.945312 6.832031 -7.316406 6.59375 -7.578125 C 6.351562 -7.847656 6.019531 -7.984375 5.59375 -7.984375 C 5.050781 -7.984375 4.613281 -7.804688 4.28125 -7.453125 C 3.945312 -7.097656 3.78125 -6.609375 3.78125 -5.984375 L 3.78125 0 Z M 0.75 0 "/></g></g><g style="fill:#0661aa;fill-opacity:1;"><g transform="translate(41.823778, 117.428199)"><path style="stroke:none" d="M 5.59375 0.34375 C 4.539062 0.34375 3.625 0.117188 2.84375 -0.328125 C 2.070312 -0.773438 1.472656 -1.40625 1.046875 -2.21875 C 0.628906 -3.03125 0.421875 -3.988281 0.421875 -5.09375 C 0.421875 -6.207031 0.628906 -7.171875 1.046875 -7.984375 C 1.472656 -8.804688 2.070312 -9.4375 2.84375 -9.875 C 3.625 -10.320312 4.539062 -10.546875 5.59375 -10.546875 C 6.644531 -10.546875 7.550781 -10.320312 8.3125 -9.875 C 9.082031 -9.4375 9.679688 -8.804688 10.109375 -7.984375 C 10.535156 -7.171875 10.75 -6.207031 10.75 -5.09375 C 10.75 -3.988281 10.535156 -3.03125 10.109375 -2.21875 C 9.679688 -1.40625 9.082031 -0.773438 8.3125 -0.328125 C 7.550781 0.117188 6.644531 0.34375 5.59375 0.34375 Z M 5.59375 -2.203125 C 6.257812 -2.203125 6.78125 -2.457031 7.15625 -2.96875 C 7.53125 -3.488281 7.71875 -4.195312 7.71875 -5.09375 C 7.71875 -6 7.53125 -6.707031 7.15625 -7.21875 C 6.78125 -7.726562 6.257812 -7.984375 5.59375 -7.984375 C 4.925781 -7.984375 4.398438 -7.726562 4.015625 -7.21875 C 3.628906 -6.707031 3.4375 -6 3.4375 -5.09375 C 3.4375 -4.195312 3.628906 -3.488281 4.015625 -2.96875 C 4.398438 -2.457031 4.925781 -2.203125 5.59375 -2.203125 Z M 5.59375 -2.203125 "/></g></g><g style="fill:#0661aa;fill-opacity:1;"><g transform="translate(55.356404, 117.428199)"><path style="stroke:none" d="M 4.4375 0.28125 C 3.625 0.28125 2.914062 0.0625 2.3125 -0.375 C 1.707031 -0.8125 1.238281 -1.4375 0.90625 -2.25 C 0.582031 -3.0625 0.421875 -4.007812 0.421875 -5.09375 C 0.421875 -6.195312 0.582031 -7.148438 0.90625 -7.953125 C 1.238281 -8.753906 1.707031 -9.375 2.3125 -9.8125 C 2.914062 -10.25 3.617188 -10.46875 4.421875 -10.46875 C 5.109375 -10.46875 5.71875 -10.296875 6.25 -9.953125 C 6.78125 -9.609375 7.191406 -9.109375 7.484375 -8.453125 L 7.5 -8.453125 L 7.5 -14.765625 L 10.546875 -14.765625 L 10.546875 0 L 7.96875 0 L 7.578125 -1.765625 L 7.5625 -1.765625 C 7.269531 -1.109375 6.851562 -0.601562 6.3125 -0.25 C 5.769531 0.101562 5.144531 0.28125 4.4375 0.28125 Z M 5.546875 -2.328125 C 6.171875 -2.328125 6.671875 -2.578125 7.046875 -3.078125 C 7.429688 -3.585938 7.625 -4.257812 7.625 -5.09375 C 7.625 -5.925781 7.429688 -6.59375 7.046875 -7.09375 C 6.671875 -7.601562 6.171875 -7.859375 5.546875 -7.859375 C 4.929688 -7.859375 4.429688 -7.601562 4.046875 -7.09375 C 3.660156 -6.59375 3.46875 -5.925781 3.46875 -5.09375 C 3.46875 -4.257812 3.660156 -3.585938 4.046875 -3.078125 C 4.429688 -2.578125 4.929688 -2.328125 5.546875 -2.328125 Z M 5.546875 -2.328125 "/></g></g><g style="fill:#0661aa;fill-opacity:1;"><g transform="translate(69.008432, 117.428199)"><path style="stroke:none" d="M 0.75 0 L 0.75 -14.765625 L 3.78125 -14.765625 L 3.78125 -8.453125 L 3.796875 -8.453125 C 4.117188 -9.097656 4.554688 -9.59375 5.109375 -9.9375 C 5.660156 -10.28125 6.289062 -10.453125 7 -10.453125 C 7.945312 -10.453125 8.679688 -10.171875 9.203125 -9.609375 C 9.734375 -9.054688 10 -8.269531 10 -7.25 L 10 0 L 6.953125 0 L 6.953125 -6.46875 C 6.953125 -6.945312 6.832031 -7.316406 6.59375 -7.578125 C 6.351562 -7.847656 6.019531 -7.984375 5.59375 -7.984375 C 5.050781 -7.984375 4.613281 -7.804688 4.28125 -7.453125 C 3.945312 -7.097656 3.78125 -6.609375 3.78125 -5.984375 L 3.78125 0 Z M 0.75 0 "/></g></g><g style="fill:#0661aa;fill-opacity:1;"><g transform="translate(82.043563, 117.428199)"><path style="stroke:none" d="M 3.515625 0.234375 C 2.546875 0.234375 1.765625 -0.0195312 1.171875 -0.53125 C 0.578125 -1.050781 0.28125 -1.75 0.28125 -2.625 C 0.28125 -3.550781 0.632812 -4.300781 1.34375 -4.875 C 2.050781 -5.457031 3.085938 -5.820312 4.453125 -5.96875 L 6.03125 -6.15625 C 6.257812 -6.175781 6.441406 -6.253906 6.578125 -6.390625 C 6.710938 -6.523438 6.78125 -6.71875 6.78125 -6.96875 C 6.78125 -7.414062 6.640625 -7.757812 6.359375 -8 C 6.085938 -8.238281 5.726562 -8.359375 5.28125 -8.359375 C 4.757812 -8.359375 4.335938 -8.175781 4.015625 -7.8125 C 3.703125 -7.457031 3.53125 -7.007812 3.5 -6.46875 L 0.609375 -6.890625 C 0.640625 -7.609375 0.847656 -8.238281 1.234375 -8.78125 C 1.628906 -9.332031 2.164062 -9.765625 2.84375 -10.078125 C 3.53125 -10.390625 4.332031 -10.546875 5.25 -10.546875 C 6.644531 -10.546875 7.75 -10.179688 8.5625 -9.453125 C 9.375 -8.722656 9.78125 -7.734375 9.78125 -6.484375 L 9.78125 -2.546875 C 9.78125 -2.097656 9.941406 -1.875 10.265625 -1.875 C 10.535156 -1.875 10.789062 -2.003906 11.03125 -2.265625 L 11.6875 -0.640625 C 11.363281 -0.328125 10.976562 -0.0976562 10.53125 0.046875 C 10.082031 0.191406 9.640625 0.265625 9.203125 0.265625 C 8.585938 0.265625 8.070312 0.109375 7.65625 -0.203125 C 7.238281 -0.515625 6.976562 -0.910156 6.875 -1.390625 L 6.828125 -1.65625 L 6.8125 -1.65625 C 6.5 -1.070312 6.054688 -0.609375 5.484375 -0.265625 C 4.921875 0.0664062 4.265625 0.234375 3.515625 0.234375 Z M 4.78125 -1.890625 C 5.351562 -1.890625 5.820312 -2.09375 6.1875 -2.5 C 6.5625 -2.90625 6.75 -3.429688 6.75 -4.078125 L 6.75 -4.5625 L 5.25 -4.40625 C 4.5625 -4.320312 4.066406 -4.148438 3.765625 -3.890625 C 3.472656 -3.640625 3.328125 -3.34375 3.328125 -3 C 3.328125 -2.675781 3.460938 -2.410156 3.734375 -2.203125 C 4.003906 -1.992188 4.351562 -1.890625 4.78125 -1.890625 Z M 4.78125 -1.890625 "/></g></g><g style="fill:#0661aa;fill-opacity:1;"><g transform="translate(96.073673, 117.428199)"><path style="stroke:none" d="M 6.953125 -10.453125 C 7.890625 -10.453125 8.628906 -10.171875 9.171875 -9.609375 C 9.722656 -9.046875 10 -8.257812 10 -7.25 L 10 0 L 6.953125 0 L 6.953125 -6.46875 C 6.953125 -6.945312 6.832031 -7.316406 6.59375 -7.578125 C 6.351562 -7.847656 6.019531 -7.984375 5.59375 -7.984375 C 5.050781 -7.984375 4.613281 -7.804688 4.28125 -7.453125 C 3.945312 -7.097656 3.78125 -6.609375 3.78125 -5.984375 L 3.78125 0 L 0.75 0 L 0.75 -10.1875 L 3.265625 -10.1875 L 3.6875 -8.453125 L 3.703125 -8.453125 C 4.003906 -9.097656 4.441406 -9.59375 5.015625 -9.9375 C 5.585938 -10.28125 6.234375 -10.453125 6.953125 -10.453125 Z M 6.953125 -10.453125 "/></g></g><g style="fill:#0661aa;fill-opacity:1;"><g transform="translate(109.108804, 117.428199)"><path style="stroke:none" d="M 3.515625 0.234375 C 2.546875 0.234375 1.765625 -0.0195312 1.171875 -0.53125 C 0.578125 -1.050781 0.28125 -1.75 0.28125 -2.625 C 0.28125 -3.550781 0.632812 -4.300781 1.34375 -4.875 C 2.050781 -5.457031 3.085938 -5.820312 4.453125 -5.96875 L 6.03125 -6.15625 C 6.257812 -6.175781 6.441406 -6.253906 6.578125 -6.390625 C 6.710938 -6.523438 6.78125 -6.71875 6.78125 -6.96875 C 6.78125 -7.414062 6.640625 -7.757812 6.359375 -8 C 6.085938 -8.238281 5.726562 -8.359375 5.28125 -8.359375 C 4.757812 -8.359375 4.335938 -8.175781 4.015625 -7.8125 C 3.703125 -7.457031 3.53125 -7.007812 3.5 -6.46875 L 0.609375 -6.890625 C 0.640625 -7.609375 0.847656 -8.238281 1.234375 -8.78125 C 1.628906 -9.332031 2.164062 -9.765625 2.84375 -10.078125 C 3.53125 -10.390625 4.332031 -10.546875 5.25 -10.546875 C 6.644531 -10.546875 7.75 -10.179688 8.5625 -9.453125 C 9.375 -8.722656 9.78125 -7.734375 9.78125 -6.484375 L 9.78125 -2.546875 C 9.78125 -2.097656 9.941406 -1.875 10.265625 -1.875 C 10.535156 -1.875 10.789062 -2.003906 11.03125 -2.265625 L 11.6875 -0.640625 C 11.363281 -0.328125 10.976562 -0.0976562 10.53125 0.046875 C 10.082031 0.191406 9.640625 0.265625 9.203125 0.265625 C 8.585938 0.265625 8.070312 0.109375 7.65625 -0.203125 C 7.238281 -0.515625 6.976562 -0.910156 6.875 -1.390625 L 6.828125 -1.65625 L 6.8125 -1.65625 C 6.5 -1.070312 6.054688 -0.609375 5.484375 -0.265625 C 4.921875 0.0664062 4.265625 0.234375 3.515625 0.234375 Z M 4.78125 -1.890625 C 5.351562 -1.890625 5.820312 -2.09375 6.1875 -2.5 C 6.5625 -2.90625 6.75 -3.429688 6.75 -4.078125 L 6.75 -4.5625 L 5.25 -4.40625 C 4.5625 -4.320312 4.066406 -4.148438 3.765625 -3.890625 C 3.472656 -3.640625 3.328125 -3.34375 3.328125 -3 C 3.328125 -2.675781 3.460938 -2.410156 3.734375 -2.203125 C 4.003906 -1.992188 4.351562 -1.890625 4.78125 -1.890625 Z M 4.78125 -1.890625 "/></g></g><g style="fill:#2d6d5e;fill-opacity:1;"><g transform="translate(25.026144, 130.586945)"><path style="stroke:none" d="M 3.9375 0 L 3.34375 -2.515625 L 1.5 -2.515625 L 0.90625 0 L 0 0 L 1.890625 -7.8125 L 2.921875 -7.8125 L 4.84375 0 Z M 3.1875 -3.296875 L 2.59375 -5.9375 C 2.5625 -6.070312 2.535156 -6.203125 2.515625 -6.328125 C 2.492188 -6.453125 2.472656 -6.570312 2.453125 -6.6875 C 2.429688 -6.8125 2.410156 -6.929688 2.390625 -7.046875 C 2.378906 -6.929688 2.363281 -6.8125 2.34375 -6.6875 C 2.332031 -6.570312 2.3125 -6.453125 2.28125 -6.328125 C 2.257812 -6.203125 2.238281 -6.078125 2.21875 -5.953125 L 1.625 -3.296875 Z M 3.1875 -3.296875 "/></g></g><g style="fill:#2d6d5e;fill-opacity:1;"><g transform="translate(31.399242, 130.586945)"><path style="stroke:none" d="M 1.53125 0 L 0.71875 0 L 0.71875 -8.3125 L 1.53125 -8.3125 Z M 1.53125 0 "/></g></g><g style="fill:#2d6d5e;fill-opacity:1;"><g transform="translate(35.175918, 130.586945)"><path style="stroke:none" d="M 2.09375 -0.625 C 2.1875 -0.625 2.273438 -0.628906 2.359375 -0.640625 C 2.453125 -0.660156 2.535156 -0.691406 2.609375 -0.734375 L 2.609375 -0.0625 C 2.503906 -0.0078125 2.382812 0.03125 2.25 0.0625 C 2.125 0.09375 1.984375 0.109375 1.828125 0.109375 C 1.578125 0.109375 1.367188 0.0507812 1.203125 -0.0625 C 1.046875 -0.175781 0.925781 -0.34375 0.84375 -0.5625 C 0.769531 -0.789062 0.734375 -1.078125 0.734375 -1.421875 L 0.734375 -5.171875 L 0.1875 -5.171875 L 0.1875 -5.625 L 0.78125 -5.84375 L 1 -7.1875 L 1.5625 -7.1875 L 1.5625 -5.859375 L 2.546875 -5.859375 L 2.546875 -5.171875 L 1.5625 -5.171875 L 1.5625 -1.515625 C 1.5625 -1.210938 1.597656 -0.988281 1.671875 -0.84375 C 1.742188 -0.695312 1.882812 -0.625 2.09375 -0.625 Z M 2.09375 -0.625 "/></g></g><g style="fill:#2d6d5e;fill-opacity:1;"><g transform="translate(39.481496, 130.586945)"><path style="stroke:none" d="M 2.328125 -5.953125 C 2.722656 -5.953125 3.050781 -5.835938 3.3125 -5.609375 C 3.570312 -5.378906 3.765625 -5.066406 3.890625 -4.671875 C 4.015625 -4.285156 4.078125 -3.851562 4.078125 -3.375 L 4.078125 -2.78125 L 1.28125 -2.78125 C 1.289062 -2.050781 1.40625 -1.503906 1.625 -1.140625 C 1.84375 -0.773438 2.171875 -0.59375 2.609375 -0.59375 C 2.828125 -0.59375 3.035156 -0.625 3.234375 -0.6875 C 3.441406 -0.75 3.648438 -0.851562 3.859375 -1 L 3.859375 -0.265625 C 3.660156 -0.140625 3.453125 -0.046875 3.234375 0.015625 C 3.015625 0.078125 2.78125 0.109375 2.53125 0.109375 C 2.039062 0.109375 1.644531 -0.0195312 1.34375 -0.28125 C 1.039062 -0.539062 0.816406 -0.898438 0.671875 -1.359375 C 0.535156 -1.816406 0.46875 -2.332031 0.46875 -2.90625 C 0.46875 -3.550781 0.535156 -4.101562 0.671875 -4.5625 C 0.816406 -5.019531 1.023438 -5.363281 1.296875 -5.59375 C 1.578125 -5.832031 1.921875 -5.953125 2.328125 -5.953125 Z M 2.328125 -5.28125 C 2.015625 -5.28125 1.769531 -5.128906 1.59375 -4.828125 C 1.425781 -4.535156 1.328125 -4.070312 1.296875 -3.4375 L 3.3125 -3.4375 C 3.3125 -3.769531 3.273438 -4.078125 3.203125 -4.359375 C 3.140625 -4.640625 3.035156 -4.863281 2.890625 -5.03125 C 2.742188 -5.195312 2.554688 -5.28125 2.328125 -5.28125 Z M 2.328125 -5.28125 "/></g></g><g style="fill:#2d6d5e;fill-opacity:1;"><g transform="translate(45.53939, 130.586945)"><path style="stroke:none" d="M 2.671875 -5.96875 C 2.753906 -5.96875 2.835938 -5.957031 2.921875 -5.9375 C 3.003906 -5.925781 3.085938 -5.910156 3.171875 -5.890625 L 3.046875 -5.046875 C 2.984375 -5.066406 2.914062 -5.082031 2.84375 -5.09375 C 2.769531 -5.101562 2.691406 -5.109375 2.609375 -5.109375 C 2.453125 -5.109375 2.304688 -5.054688 2.171875 -4.953125 C 2.035156 -4.847656 1.921875 -4.703125 1.828125 -4.515625 C 1.734375 -4.328125 1.660156 -4.109375 1.609375 -3.859375 C 1.554688 -3.609375 1.53125 -3.34375 1.53125 -3.0625 L 1.53125 0 L 0.71875 0 L 0.71875 -5.859375 L 1.359375 -5.859375 L 1.46875 -4.828125 L 1.515625 -4.828125 C 1.597656 -5.046875 1.691406 -5.238281 1.796875 -5.40625 C 1.910156 -5.582031 2.039062 -5.71875 2.1875 -5.8125 C 2.332031 -5.914062 2.492188 -5.96875 2.671875 -5.96875 Z M 2.671875 -5.96875 "/></g></g><g style="fill:#2d6d5e;fill-opacity:1;"><g transform="translate(50.352498, 130.586945)"><path style="stroke:none" d="M 2.828125 -5.96875 C 3.285156 -5.96875 3.632812 -5.804688 3.875 -5.484375 C 4.113281 -5.160156 4.234375 -4.664062 4.234375 -4 L 4.234375 0 L 3.40625 0 L 3.40625 -3.828125 C 3.40625 -4.304688 3.34375 -4.660156 3.21875 -4.890625 C 3.101562 -5.128906 2.914062 -5.25 2.65625 -5.25 C 2.269531 -5.25 1.984375 -5.078125 1.796875 -4.734375 C 1.617188 -4.390625 1.53125 -3.84375 1.53125 -3.09375 L 1.53125 0 L 0.71875 0 L 0.71875 -5.859375 L 1.375 -5.859375 L 1.46875 -5.015625 L 1.515625 -5.015625 C 1.597656 -5.210938 1.703125 -5.378906 1.828125 -5.515625 C 1.960938 -5.660156 2.113281 -5.769531 2.28125 -5.84375 C 2.445312 -5.925781 2.628906 -5.96875 2.828125 -5.96875 Z M 2.828125 -5.96875 "/></g></g><g style="fill:#2d6d5e;fill-opacity:1;"><g transform="translate(56.816417, 130.586945)"><path style="stroke:none" d="M 2.28125 -5.96875 C 2.820312 -5.96875 3.207031 -5.796875 3.4375 -5.453125 C 3.675781 -5.109375 3.796875 -4.609375 3.796875 -3.953125 L 3.796875 0 L 3.171875 0 L 3.046875 -0.828125 L 3.015625 -0.828125 C 2.929688 -0.628906 2.820312 -0.457031 2.6875 -0.3125 C 2.5625 -0.175781 2.414062 -0.0703125 2.25 0 C 2.09375 0.0703125 1.90625 0.109375 1.6875 0.109375 C 1.382812 0.109375 1.132812 0.03125 0.9375 -0.125 C 0.75 -0.289062 0.609375 -0.503906 0.515625 -0.765625 C 0.421875 -1.023438 0.375 -1.304688 0.375 -1.609375 C 0.375 -2.191406 0.539062 -2.640625 0.875 -2.953125 C 1.21875 -3.273438 1.695312 -3.453125 2.3125 -3.484375 L 2.96875 -3.53125 L 2.96875 -3.9375 C 2.96875 -4.40625 2.90625 -4.742188 2.78125 -4.953125 C 2.65625 -5.171875 2.445312 -5.28125 2.15625 -5.28125 C 2 -5.28125 1.828125 -5.25 1.640625 -5.1875 C 1.460938 -5.132812 1.269531 -5.046875 1.0625 -4.921875 L 0.796875 -5.546875 C 1.015625 -5.691406 1.25 -5.796875 1.5 -5.859375 C 1.757812 -5.929688 2.019531 -5.96875 2.28125 -5.96875 Z M 2.984375 -2.921875 L 2.4375 -2.890625 C 2.03125 -2.867188 1.722656 -2.753906 1.515625 -2.546875 C 1.316406 -2.335938 1.21875 -2.035156 1.21875 -1.640625 C 1.21875 -1.265625 1.28125 -0.988281 1.40625 -0.8125 C 1.539062 -0.644531 1.722656 -0.5625 1.953125 -0.5625 C 2.285156 -0.5625 2.539062 -0.71875 2.71875 -1.03125 C 2.894531 -1.34375 2.984375 -1.773438 2.984375 -2.328125 Z M 2.984375 -2.921875 "/></g></g><g style="fill:#2d6d5e;fill-opacity:1;"><g transform="translate(62.842257, 130.586945)"><path style="stroke:none" d="M 2.09375 -0.625 C 2.1875 -0.625 2.273438 -0.628906 2.359375 -0.640625 C 2.453125 -0.660156 2.535156 -0.691406 2.609375 -0.734375 L 2.609375 -0.0625 C 2.503906 -0.0078125 2.382812 0.03125 2.25 0.0625 C 2.125 0.09375 1.984375 0.109375 1.828125 0.109375 C 1.578125 0.109375 1.367188 0.0507812 1.203125 -0.0625 C 1.046875 -0.175781 0.925781 -0.34375 0.84375 -0.5625 C 0.769531 -0.789062 0.734375 -1.078125 0.734375 -1.421875 L 0.734375 -5.171875 L 0.1875 -5.171875 L 0.1875 -5.625 L 0.78125 -5.84375 L 1 -7.1875 L 1.5625 -7.1875 L 1.5625 -5.859375 L 2.546875 -5.859375 L 2.546875 -5.171875 L 1.5625 -5.171875 L 1.5625 -1.515625 C 1.5625 -1.210938 1.597656 -0.988281 1.671875 -0.84375 C 1.742188 -0.695312 1.882812 -0.625 2.09375 -0.625 Z M 2.09375 -0.625 "/></g></g><g style="fill:#2d6d5e;fill-opacity:1;"><g transform="translate(67.147834, 130.586945)"><path style="stroke:none" d="M 2.328125 -5.953125 C 2.722656 -5.953125 3.050781 -5.835938 3.3125 -5.609375 C 3.570312 -5.378906 3.765625 -5.066406 3.890625 -4.671875 C 4.015625 -4.285156 4.078125 -3.851562 4.078125 -3.375 L 4.078125 -2.78125 L 1.28125 -2.78125 C 1.289062 -2.050781 1.40625 -1.503906 1.625 -1.140625 C 1.84375 -0.773438 2.171875 -0.59375 2.609375 -0.59375 C 2.828125 -0.59375 3.035156 -0.625 3.234375 -0.6875 C 3.441406 -0.75 3.648438 -0.851562 3.859375 -1 L 3.859375 -0.265625 C 3.660156 -0.140625 3.453125 -0.046875 3.234375 0.015625 C 3.015625 0.078125 2.78125 0.109375 2.53125 0.109375 C 2.039062 0.109375 1.644531 -0.0195312 1.34375 -0.28125 C 1.039062 -0.539062 0.816406 -0.898438 0.671875 -1.359375 C 0.535156 -1.816406 0.46875 -2.332031 0.46875 -2.90625 C 0.46875 -3.550781 0.535156 -4.101562 0.671875 -4.5625 C 0.816406 -5.019531 1.023438 -5.363281 1.296875 -5.59375 C 1.578125 -5.832031 1.921875 -5.953125 2.328125 -5.953125 Z M 2.328125 -5.28125 C 2.015625 -5.28125 1.769531 -5.128906 1.59375 -4.828125 C 1.425781 -4.535156 1.328125 -4.070312 1.296875 -3.4375 L 3.3125 -3.4375 C 3.3125 -3.769531 3.273438 -4.078125 3.203125 -4.359375 C 3.140625 -4.640625 3.035156 -4.863281 2.890625 -5.03125 C 2.742188 -5.195312 2.554688 -5.28125 2.328125 -5.28125 Z M 2.328125 -5.28125 "/></g></g><g style="fill:#2d6d5e;fill-opacity:1;"><g transform="translate(73.205728, 130.586945)"><path style="stroke:none" d=""/></g></g><g style="fill:#2d6d5e;fill-opacity:1;"><g transform="translate(76.768708, 130.586945)"><path style="stroke:none" d="M 2.828125 -5.96875 C 3.285156 -5.96875 3.632812 -5.804688 3.875 -5.484375 C 4.113281 -5.160156 4.234375 -4.664062 4.234375 -4 L 4.234375 0 L 3.40625 0 L 3.40625 -3.828125 C 3.40625 -4.304688 3.34375 -4.660156 3.21875 -4.890625 C 3.101562 -5.128906 2.914062 -5.25 2.65625 -5.25 C 2.269531 -5.25 1.984375 -5.078125 1.796875 -4.734375 C 1.617188 -4.390625 1.53125 -3.84375 1.53125 -3.09375 L 1.53125 0 L 0.71875 0 L 0.71875 -5.859375 L 1.375 -5.859375 L 1.46875 -5.015625 L 1.515625 -5.015625 C 1.597656 -5.210938 1.703125 -5.378906 1.828125 -5.515625 C 1.960938 -5.660156 2.113281 -5.769531 2.28125 -5.84375 C 2.445312 -5.925781 2.628906 -5.96875 2.828125 -5.96875 Z M 2.828125 -5.96875 "/></g></g><g style="fill:#2d6d5e;fill-opacity:1;"><g transform="translate(83.232627, 130.586945)"><path style="stroke:none" d="M 4.359375 -2.9375 C 4.359375 -2.476562 4.316406 -2.0625 4.234375 -1.6875 C 4.160156 -1.3125 4.039062 -0.988281 3.875 -0.71875 C 3.71875 -0.457031 3.515625 -0.253906 3.265625 -0.109375 C 3.023438 0.0351562 2.734375 0.109375 2.390625 0.109375 C 2.078125 0.109375 1.796875 0.0351562 1.546875 -0.109375 C 1.304688 -0.253906 1.101562 -0.457031 0.9375 -0.71875 C 0.78125 -0.976562 0.660156 -1.296875 0.578125 -1.671875 C 0.503906 -2.054688 0.46875 -2.476562 0.46875 -2.9375 C 0.46875 -3.582031 0.535156 -4.128906 0.671875 -4.578125 C 0.804688 -5.035156 1.019531 -5.378906 1.3125 -5.609375 C 1.601562 -5.847656 1.96875 -5.96875 2.40625 -5.96875 C 2.820312 -5.96875 3.175781 -5.851562 3.46875 -5.625 C 3.757812 -5.394531 3.976562 -5.054688 4.125 -4.609375 C 4.28125 -4.160156 4.359375 -3.601562 4.359375 -2.9375 Z M 1.296875 -2.9375 C 1.296875 -2.425781 1.332031 -2 1.40625 -1.65625 C 1.488281 -1.3125 1.613281 -1.050781 1.78125 -0.875 C 1.945312 -0.695312 2.160156 -0.609375 2.421875 -0.609375 C 2.671875 -0.609375 2.875 -0.691406 3.03125 -0.859375 C 3.195312 -1.035156 3.316406 -1.296875 3.390625 -1.640625 C 3.472656 -1.984375 3.515625 -2.414062 3.515625 -2.9375 C 3.515625 -3.445312 3.472656 -3.875 3.390625 -4.21875 C 3.316406 -4.5625 3.195312 -4.816406 3.03125 -4.984375 C 2.875 -5.160156 2.664062 -5.25 2.40625 -5.25 C 2.019531 -5.25 1.738281 -5.054688 1.5625 -4.671875 C 1.382812 -4.285156 1.296875 -3.707031 1.296875 -2.9375 Z M 1.296875 -2.9375 "/></g></g><g style="fill:#2d6d5e;fill-opacity:1;"><g transform="translate(89.584354, 130.586945)"><path style="stroke:none" d="M 3.328125 -1.546875 C 3.328125 -1.191406 3.257812 -0.890625 3.125 -0.640625 C 3 -0.398438 2.8125 -0.210938 2.5625 -0.078125 C 2.320312 0.046875 2.03125 0.109375 1.6875 0.109375 C 1.414062 0.109375 1.164062 0.078125 0.9375 0.015625 C 0.71875 -0.046875 0.53125 -0.125 0.375 -0.21875 L 0.375 -1.078125 C 0.53125 -0.941406 0.722656 -0.832031 0.953125 -0.75 C 1.179688 -0.664062 1.414062 -0.625 1.65625 -0.625 C 1.925781 -0.625 2.132812 -0.703125 2.28125 -0.859375 C 2.4375 -1.015625 2.515625 -1.234375 2.515625 -1.515625 C 2.515625 -1.679688 2.484375 -1.828125 2.421875 -1.953125 C 2.359375 -2.078125 2.257812 -2.195312 2.125 -2.3125 C 1.988281 -2.425781 1.816406 -2.546875 1.609375 -2.671875 C 1.359375 -2.816406 1.140625 -2.96875 0.953125 -3.125 C 0.765625 -3.289062 0.617188 -3.476562 0.515625 -3.6875 C 0.421875 -3.894531 0.375 -4.144531 0.375 -4.4375 C 0.375 -4.894531 0.519531 -5.265625 0.8125 -5.546875 C 1.113281 -5.828125 1.503906 -5.96875 1.984375 -5.96875 C 2.234375 -5.96875 2.46875 -5.9375 2.6875 -5.875 C 2.90625 -5.8125 3.113281 -5.71875 3.3125 -5.59375 L 3 -4.9375 C 2.851562 -5.039062 2.691406 -5.117188 2.515625 -5.171875 C 2.347656 -5.234375 2.175781 -5.265625 2 -5.265625 C 1.738281 -5.265625 1.53125 -5.191406 1.375 -5.046875 C 1.226562 -4.898438 1.15625 -4.707031 1.15625 -4.46875 C 1.15625 -4.300781 1.1875 -4.15625 1.25 -4.03125 C 1.3125 -3.914062 1.410156 -3.800781 1.546875 -3.6875 C 1.679688 -3.582031 1.863281 -3.460938 2.09375 -3.328125 C 2.34375 -3.171875 2.554688 -3.015625 2.734375 -2.859375 C 2.921875 -2.703125 3.066406 -2.519531 3.171875 -2.3125 C 3.273438 -2.101562 3.328125 -1.847656 3.328125 -1.546875 Z M 3.328125 -1.546875 "/></g></g><g style="fill:#2d6d5e;fill-opacity:1;"><g transform="translate(94.792802, 130.586945)"><path style="stroke:none" d="M 2.09375 -0.625 C 2.1875 -0.625 2.273438 -0.628906 2.359375 -0.640625 C 2.453125 -0.660156 2.535156 -0.691406 2.609375 -0.734375 L 2.609375 -0.0625 C 2.503906 -0.0078125 2.382812 0.03125 2.25 0.0625 C 2.125 0.09375 1.984375 0.109375 1.828125 0.109375 C 1.578125 0.109375 1.367188 0.0507812 1.203125 -0.0625 C 1.046875 -0.175781 0.925781 -0.34375 0.84375 -0.5625 C 0.769531 -0.789062 0.734375 -1.078125 0.734375 -1.421875 L 0.734375 -5.171875 L 0.1875 -5.171875 L 0.1875 -5.625 L 0.78125 -5.84375 L 1 -7.1875 L 1.5625 -7.1875 L 1.5625 -5.859375 L 2.546875 -5.859375 L 2.546875 -5.171875 L 1.5625 -5.171875 L 1.5625 -1.515625 C 1.5625 -1.210938 1.597656 -0.988281 1.671875 -0.84375 C 1.742188 -0.695312 1.882812 -0.625 2.09375 -0.625 Z M 2.09375 -0.625 "/></g></g><g style="fill:#2d6d5e;fill-opacity:1;"><g transform="translate(99.09838, 130.586945)"><path style="stroke:none" d="M 2.671875 -5.96875 C 2.753906 -5.96875 2.835938 -5.957031 2.921875 -5.9375 C 3.003906 -5.925781 3.085938 -5.910156 3.171875 -5.890625 L 3.046875 -5.046875 C 2.984375 -5.066406 2.914062 -5.082031 2.84375 -5.09375 C 2.769531 -5.101562 2.691406 -5.109375 2.609375 -5.109375 C 2.453125 -5.109375 2.304688 -5.054688 2.171875 -4.953125 C 2.035156 -4.847656 1.921875 -4.703125 1.828125 -4.515625 C 1.734375 -4.328125 1.660156 -4.109375 1.609375 -3.859375 C 1.554688 -3.609375 1.53125 -3.34375 1.53125 -3.0625 L 1.53125 0 L 0.71875 0 L 0.71875 -5.859375 L 1.359375 -5.859375 L 1.46875 -4.828125 L 1.515625 -4.828125 C 1.597656 -5.046875 1.691406 -5.238281 1.796875 -5.40625 C 1.910156 -5.582031 2.039062 -5.71875 2.1875 -5.8125 C 2.332031 -5.914062 2.492188 -5.96875 2.671875 -5.96875 Z M 2.671875 -5.96875 "/></g></g><g style="fill:#2d6d5e;fill-opacity:1;"><g transform="translate(103.911488, 130.586945)"><path style="stroke:none" d="M 1.546875 -5.859375 L 1.546875 0 L 0.71875 0 L 0.71875 -5.859375 Z M 1.140625 -8.0625 C 1.316406 -8.0625 1.441406 -8.007812 1.515625 -7.90625 C 1.585938 -7.800781 1.625 -7.648438 1.625 -7.453125 C 1.625 -7.273438 1.582031 -7.128906 1.5 -7.015625 C 1.425781 -6.910156 1.304688 -6.859375 1.140625 -6.859375 C 0.992188 -6.859375 0.875 -6.910156 0.78125 -7.015625 C 0.695312 -7.128906 0.65625 -7.273438 0.65625 -7.453125 C 0.65625 -7.648438 0.695312 -7.800781 0.78125 -7.90625 C 0.863281 -8.007812 0.984375 -8.0625 1.140625 -8.0625 Z M 1.140625 -8.0625 "/></g></g><g style="fill:#2d6d5e;fill-opacity:1;"><g transform="translate(107.709534, 130.586945)"><path style="stroke:none" d="M 1.53125 0 L 0.71875 0 L 0.71875 -8.3125 L 1.53125 -8.3125 Z M 1.53125 0 "/></g></g><g style="fill:#2d6d5e;fill-opacity:1;"><g transform="translate(43.15277, 143.277917)"><path style="stroke:none" d="M 1.53125 -8.3125 L 1.53125 -5.859375 C 1.53125 -5.742188 1.523438 -5.613281 1.515625 -5.46875 C 1.515625 -5.332031 1.515625 -5.1875 1.515625 -5.03125 L 1.546875 -5.03125 C 1.691406 -5.34375 1.875 -5.570312 2.09375 -5.71875 C 2.3125 -5.875 2.5625 -5.953125 2.84375 -5.953125 C 3.40625 -5.953125 3.832031 -5.695312 4.125 -5.1875 C 4.414062 -4.675781 4.5625 -3.925781 4.5625 -2.9375 C 4.5625 -2.28125 4.492188 -1.722656 4.359375 -1.265625 C 4.234375 -0.816406 4.039062 -0.472656 3.78125 -0.234375 C 3.53125 -0.00390625 3.226562 0.109375 2.875 0.109375 C 2.582031 0.109375 2.328125 0.0351562 2.109375 -0.109375 C 1.890625 -0.253906 1.703125 -0.476562 1.546875 -0.78125 L 1.5 -0.78125 L 1.390625 0 L 0.71875 0 L 0.71875 -8.3125 Z M 2.671875 -5.234375 C 2.367188 -5.234375 2.132812 -5.140625 1.96875 -4.953125 C 1.8125 -4.765625 1.695312 -4.503906 1.625 -4.171875 C 1.5625 -3.835938 1.53125 -3.457031 1.53125 -3.03125 L 1.53125 -2.78125 C 1.53125 -2.039062 1.625 -1.492188 1.8125 -1.140625 C 2.007812 -0.785156 2.296875 -0.609375 2.671875 -0.609375 C 3.023438 -0.609375 3.285156 -0.796875 3.453125 -1.171875 C 3.628906 -1.554688 3.71875 -2.148438 3.71875 -2.953125 C 3.71875 -3.703125 3.632812 -4.269531 3.46875 -4.65625 C 3.300781 -5.039062 3.035156 -5.234375 2.671875 -5.234375 Z M 2.671875 -5.234375 "/></g></g><g style="fill:#2d6d5e;fill-opacity:1;"><g transform="translate(49.691483, 143.277917)"><path style="stroke:none" d="M 2.671875 -5.96875 C 2.753906 -5.96875 2.835938 -5.957031 2.921875 -5.9375 C 3.003906 -5.925781 3.085938 -5.910156 3.171875 -5.890625 L 3.046875 -5.046875 C 2.984375 -5.066406 2.914062 -5.082031 2.84375 -5.09375 C 2.769531 -5.101562 2.691406 -5.109375 2.609375 -5.109375 C 2.453125 -5.109375 2.304688 -5.054688 2.171875 -4.953125 C 2.035156 -4.847656 1.921875 -4.703125 1.828125 -4.515625 C 1.734375 -4.328125 1.660156 -4.109375 1.609375 -3.859375 C 1.554688 -3.609375 1.53125 -3.34375 1.53125 -3.0625 L 1.53125 0 L 0.71875 0 L 0.71875 -5.859375 L 1.359375 -5.859375 L 1.46875 -4.828125 L 1.515625 -4.828125 C 1.597656 -5.046875 1.691406 -5.238281 1.796875 -5.40625 C 1.910156 -5.582031 2.039062 -5.71875 2.1875 -5.8125 C 2.332031 -5.914062 2.492188 -5.96875 2.671875 -5.96875 Z M 2.671875 -5.96875 "/></g></g><g style="fill:#2d6d5e;fill-opacity:1;"><g transform="translate(54.504591, 143.277917)"><path style="stroke:none" d="M 2.328125 -5.953125 C 2.722656 -5.953125 3.050781 -5.835938 3.3125 -5.609375 C 3.570312 -5.378906 3.765625 -5.066406 3.890625 -4.671875 C 4.015625 -4.285156 4.078125 -3.851562 4.078125 -3.375 L 4.078125 -2.78125 L 1.28125 -2.78125 C 1.289062 -2.050781 1.40625 -1.503906 1.625 -1.140625 C 1.84375 -0.773438 2.171875 -0.59375 2.609375 -0.59375 C 2.828125 -0.59375 3.035156 -0.625 3.234375 -0.6875 C 3.441406 -0.75 3.648438 -0.851562 3.859375 -1 L 3.859375 -0.265625 C 3.660156 -0.140625 3.453125 -0.046875 3.234375 0.015625 C 3.015625 0.078125 2.78125 0.109375 2.53125 0.109375 C 2.039062 0.109375 1.644531 -0.0195312 1.34375 -0.28125 C 1.039062 -0.539062 0.816406 -0.898438 0.671875 -1.359375 C 0.535156 -1.816406 0.46875 -2.332031 0.46875 -2.90625 C 0.46875 -3.550781 0.535156 -4.101562 0.671875 -4.5625 C 0.816406 -5.019531 1.023438 -5.363281 1.296875 -5.59375 C 1.578125 -5.832031 1.921875 -5.953125 2.328125 -5.953125 Z M 2.328125 -5.28125 C 2.015625 -5.28125 1.769531 -5.128906 1.59375 -4.828125 C 1.425781 -4.535156 1.328125 -4.070312 1.296875 -3.4375 L 3.3125 -3.4375 C 3.3125 -3.769531 3.273438 -4.078125 3.203125 -4.359375 C 3.140625 -4.640625 3.035156 -4.863281 2.890625 -5.03125 C 2.742188 -5.195312 2.554688 -5.28125 2.328125 -5.28125 Z M 2.328125 -5.28125 "/></g></g><g style="fill:#2d6d5e;fill-opacity:1;"><g transform="translate(60.562486, 143.277917)"><path style="stroke:none" d="M 2.28125 -5.96875 C 2.820312 -5.96875 3.207031 -5.796875 3.4375 -5.453125 C 3.675781 -5.109375 3.796875 -4.609375 3.796875 -3.953125 L 3.796875 0 L 3.171875 0 L 3.046875 -0.828125 L 3.015625 -0.828125 C 2.929688 -0.628906 2.820312 -0.457031 2.6875 -0.3125 C 2.5625 -0.175781 2.414062 -0.0703125 2.25 0 C 2.09375 0.0703125 1.90625 0.109375 1.6875 0.109375 C 1.382812 0.109375 1.132812 0.03125 0.9375 -0.125 C 0.75 -0.289062 0.609375 -0.503906 0.515625 -0.765625 C 0.421875 -1.023438 0.375 -1.304688 0.375 -1.609375 C 0.375 -2.191406 0.539062 -2.640625 0.875 -2.953125 C 1.21875 -3.273438 1.695312 -3.453125 2.3125 -3.484375 L 2.96875 -3.53125 L 2.96875 -3.9375 C 2.96875 -4.40625 2.90625 -4.742188 2.78125 -4.953125 C 2.65625 -5.171875 2.445312 -5.28125 2.15625 -5.28125 C 2 -5.28125 1.828125 -5.25 1.640625 -5.1875 C 1.460938 -5.132812 1.269531 -5.046875 1.0625 -4.921875 L 0.796875 -5.546875 C 1.015625 -5.691406 1.25 -5.796875 1.5 -5.859375 C 1.757812 -5.929688 2.019531 -5.96875 2.28125 -5.96875 Z M 2.984375 -2.921875 L 2.4375 -2.890625 C 2.03125 -2.867188 1.722656 -2.753906 1.515625 -2.546875 C 1.316406 -2.335938 1.21875 -2.035156 1.21875 -1.640625 C 1.21875 -1.265625 1.28125 -0.988281 1.40625 -0.8125 C 1.539062 -0.644531 1.722656 -0.5625 1.953125 -0.5625 C 2.285156 -0.5625 2.539062 -0.71875 2.71875 -1.03125 C 2.894531 -1.34375 2.984375 -1.773438 2.984375 -2.328125 Z M 2.984375 -2.921875 "/></g></g><g style="fill:#2d6d5e;fill-opacity:1;"><g transform="translate(66.588325, 143.277917)"><path style="stroke:none" d="M 2.09375 -0.625 C 2.1875 -0.625 2.273438 -0.628906 2.359375 -0.640625 C 2.453125 -0.660156 2.535156 -0.691406 2.609375 -0.734375 L 2.609375 -0.0625 C 2.503906 -0.0078125 2.382812 0.03125 2.25 0.0625 C 2.125 0.09375 1.984375 0.109375 1.828125 0.109375 C 1.578125 0.109375 1.367188 0.0507812 1.203125 -0.0625 C 1.046875 -0.175781 0.925781 -0.34375 0.84375 -0.5625 C 0.769531 -0.789062 0.734375 -1.078125 0.734375 -1.421875 L 0.734375 -5.171875 L 0.1875 -5.171875 L 0.1875 -5.625 L 0.78125 -5.84375 L 1 -7.1875 L 1.5625 -7.1875 L 1.5625 -5.859375 L 2.546875 -5.859375 L 2.546875 -5.171875 L 1.5625 -5.171875 L 1.5625 -1.515625 C 1.5625 -1.210938 1.597656 -0.988281 1.671875 -0.84375 C 1.742188 -0.695312 1.882812 -0.625 2.09375 -0.625 Z M 2.09375 -0.625 "/></g></g><g style="fill:#2d6d5e;fill-opacity:1;"><g transform="translate(70.893903, 143.277917)"><path style="stroke:none" d="M 1.53125 -8.3125 L 1.53125 -5.890625 C 1.53125 -5.734375 1.523438 -5.582031 1.515625 -5.4375 C 1.515625 -5.300781 1.503906 -5.164062 1.484375 -5.03125 L 1.53125 -5.03125 C 1.601562 -5.226562 1.703125 -5.394531 1.828125 -5.53125 C 1.960938 -5.664062 2.113281 -5.769531 2.28125 -5.84375 C 2.445312 -5.925781 2.625 -5.96875 2.8125 -5.96875 C 3.144531 -5.96875 3.414062 -5.890625 3.625 -5.734375 C 3.832031 -5.585938 3.984375 -5.367188 4.078125 -5.078125 C 4.179688 -4.785156 4.234375 -4.421875 4.234375 -3.984375 L 4.234375 0 L 3.40625 0 L 3.40625 -3.828125 C 3.40625 -4.328125 3.34375 -4.6875 3.21875 -4.90625 C 3.101562 -5.125 2.910156 -5.234375 2.640625 -5.234375 C 2.390625 -5.234375 2.179688 -5.15625 2.015625 -5 C 1.859375 -4.851562 1.738281 -4.617188 1.65625 -4.296875 C 1.570312 -3.972656 1.53125 -3.566406 1.53125 -3.078125 L 1.53125 0 L 0.71875 0 L 0.71875 -8.3125 Z M 1.53125 -8.3125 "/></g></g><g style="fill:#2d6d5e;fill-opacity:1;"><g transform="translate(77.357822, 143.277917)"><path style="stroke:none" d="M 1.546875 -5.859375 L 1.546875 0 L 0.71875 0 L 0.71875 -5.859375 Z M 1.140625 -8.0625 C 1.316406 -8.0625 1.441406 -8.007812 1.515625 -7.90625 C 1.585938 -7.800781 1.625 -7.648438 1.625 -7.453125 C 1.625 -7.273438 1.582031 -7.128906 1.5 -7.015625 C 1.425781 -6.910156 1.304688 -6.859375 1.140625 -6.859375 C 0.992188 -6.859375 0.875 -6.910156 0.78125 -7.015625 C 0.695312 -7.128906 0.65625 -7.273438 0.65625 -7.453125 C 0.65625 -7.648438 0.695312 -7.800781 0.78125 -7.90625 C 0.863281 -8.007812 0.984375 -8.0625 1.140625 -8.0625 Z M 1.140625 -8.0625 "/></g></g><g style="fill:#2d6d5e;fill-opacity:1;"><g transform="translate(81.155868, 143.277917)"><path style="stroke:none" d="M 2.828125 -5.96875 C 3.285156 -5.96875 3.632812 -5.804688 3.875 -5.484375 C 4.113281 -5.160156 4.234375 -4.664062 4.234375 -4 L 4.234375 0 L 3.40625 0 L 3.40625 -3.828125 C 3.40625 -4.304688 3.34375 -4.660156 3.21875 -4.890625 C 3.101562 -5.128906 2.914062 -5.25 2.65625 -5.25 C 2.269531 -5.25 1.984375 -5.078125 1.796875 -4.734375 C 1.617188 -4.390625 1.53125 -3.84375 1.53125 -3.09375 L 1.53125 0 L 0.71875 0 L 0.71875 -5.859375 L 1.375 -5.859375 L 1.46875 -5.015625 L 1.515625 -5.015625 C 1.597656 -5.210938 1.703125 -5.378906 1.828125 -5.515625 C 1.960938 -5.660156 2.113281 -5.769531 2.28125 -5.84375 C 2.445312 -5.925781 2.628906 -5.96875 2.828125 -5.96875 Z M 2.828125 -5.96875 "/></g></g><g style="fill:#2d6d5e;fill-opacity:1;"><g transform="translate(87.619787, 143.277917)"><path style="stroke:none" d="M 1.875 2.625 C 1.3125 2.625 0.867188 2.476562 0.546875 2.1875 C 0.234375 1.90625 0.078125 1.507812 0.078125 1 C 0.078125 0.601562 0.171875 0.273438 0.359375 0.015625 C 0.554688 -0.242188 0.804688 -0.414062 1.109375 -0.5 C 0.953125 -0.570312 0.828125 -0.675781 0.734375 -0.8125 C 0.640625 -0.957031 0.59375 -1.128906 0.59375 -1.328125 C 0.59375 -1.523438 0.640625 -1.703125 0.734375 -1.859375 C 0.828125 -2.023438 0.960938 -2.1875 1.140625 -2.34375 C 0.910156 -2.476562 0.726562 -2.691406 0.59375 -2.984375 C 0.46875 -3.285156 0.40625 -3.628906 0.40625 -4.015625 C 0.40625 -4.421875 0.46875 -4.765625 0.59375 -5.046875 C 0.726562 -5.335938 0.914062 -5.5625 1.15625 -5.71875 C 1.40625 -5.882812 1.703125 -5.96875 2.046875 -5.96875 C 2.148438 -5.96875 2.242188 -5.960938 2.328125 -5.953125 C 2.410156 -5.941406 2.484375 -5.925781 2.546875 -5.90625 C 2.609375 -5.894531 2.664062 -5.875 2.71875 -5.84375 L 4.171875 -5.84375 L 4.171875 -5.3125 L 3.375 -5.21875 C 3.476562 -5.0625 3.550781 -4.878906 3.59375 -4.671875 C 3.644531 -4.472656 3.671875 -4.265625 3.671875 -4.046875 C 3.671875 -3.453125 3.523438 -2.984375 3.234375 -2.640625 C 2.953125 -2.296875 2.550781 -2.125 2.03125 -2.125 C 1.875 -2.125 1.75 -2.140625 1.65625 -2.171875 C 1.550781 -2.078125 1.460938 -1.972656 1.390625 -1.859375 C 1.316406 -1.742188 1.28125 -1.601562 1.28125 -1.4375 C 1.28125 -1.332031 1.304688 -1.238281 1.359375 -1.15625 C 1.410156 -1.082031 1.476562 -1.023438 1.5625 -0.984375 C 1.65625 -0.941406 1.769531 -0.921875 1.90625 -0.921875 L 2.75 -0.921875 C 3.1875 -0.921875 3.523438 -0.796875 3.765625 -0.546875 C 4.003906 -0.296875 4.125 0.0859375 4.125 0.609375 C 4.125 1.242188 3.929688 1.738281 3.546875 2.09375 C 3.160156 2.445312 2.601562 2.625 1.875 2.625 Z M 1.9375 1.96875 C 2.25 1.96875 2.507812 1.921875 2.71875 1.828125 C 2.925781 1.734375 3.082031 1.585938 3.1875 1.390625 C 3.289062 1.203125 3.34375 0.96875 3.34375 0.6875 C 3.34375 0.457031 3.304688 0.28125 3.234375 0.15625 C 3.160156 0.03125 3.054688 -0.0507812 2.921875 -0.09375 C 2.785156 -0.144531 2.625 -0.171875 2.4375 -0.171875 L 1.734375 -0.171875 C 1.566406 -0.171875 1.414062 -0.132812 1.28125 -0.0625 C 1.15625 0.0078125 1.050781 0.125 0.96875 0.28125 C 0.894531 0.445312 0.859375 0.660156 0.859375 0.921875 C 0.859375 1.273438 0.953125 1.535156 1.140625 1.703125 C 1.335938 1.878906 1.601562 1.96875 1.9375 1.96875 Z M 2.046875 -2.734375 C 2.296875 -2.734375 2.488281 -2.84375 2.625 -3.0625 C 2.769531 -3.28125 2.84375 -3.601562 2.84375 -4.03125 C 2.84375 -4.476562 2.769531 -4.8125 2.625 -5.03125 C 2.476562 -5.257812 2.28125 -5.375 2.03125 -5.375 C 1.78125 -5.375 1.582031 -5.253906 1.4375 -5.015625 C 1.300781 -4.773438 1.234375 -4.441406 1.234375 -4.015625 C 1.234375 -3.609375 1.300781 -3.289062 1.4375 -3.0625 C 1.570312 -2.84375 1.773438 -2.734375 2.046875 -2.734375 Z M 2.046875 -2.734375 "/></g></g></g></svg>