<svg xmlns="http://www.w3.org/2000/svg" xmlns:xlink="http://www.w3.org/1999/xlink" width="180" zoomAndPan="magnify" viewBox="0 0 135 161.249994" height="215" preserveAspectRatio="xMidYMid meet" version="1.0"><defs><g/><clipPath id="5e9affa553"><path d="M 40.109375 15.167969 L 94.605469 15.167969 L 94.605469 71.15625 L 40.109375 71.15625 Z M 40.109375 15.167969 " clip-rule="nonzero"/></clipPath></defs><g fill="#0661aa" fill-opacity="1"><g transform="translate(45.42639, 90.926245)"><g><path d="M 0.890625 0 L 0.890625 -12.765625 L 4.59375 -12.765625 L 9.09375 -3.625 L 9.125 -3.625 L 9.125 -12.765625 L 11.96875 -12.765625 L 11.96875 0 L 8.296875 0 L 3.78125 -9.125 L 3.75 -9.125 L 3.75 0 Z M 0.890625 0 "/></g></g></g><g fill="#0661aa" fill-opacity="1"><g transform="translate(60.404685, 90.926245)"><g><path d="M 3.171875 0.21875 C 2.296875 0.21875 1.585938 -0.015625 1.046875 -0.484375 C 0.515625 -0.953125 0.25 -1.578125 0.25 -2.359375 C 0.25 -3.203125 0.566406 -3.878906 1.203125 -4.390625 C 1.847656 -4.910156 2.785156 -5.238281 4.015625 -5.375 L 5.4375 -5.53125 C 5.632812 -5.5625 5.796875 -5.632812 5.921875 -5.75 C 6.046875 -5.875 6.109375 -6.046875 6.109375 -6.265625 C 6.109375 -6.671875 5.984375 -6.984375 5.734375 -7.203125 C 5.484375 -7.421875 5.15625 -7.53125 4.75 -7.53125 C 4.28125 -7.53125 3.898438 -7.367188 3.609375 -7.046875 C 3.328125 -6.722656 3.175781 -6.316406 3.15625 -5.828125 L 0.5625 -6.203125 C 0.582031 -6.847656 0.769531 -7.414062 1.125 -7.90625 C 1.476562 -8.40625 1.960938 -8.796875 2.578125 -9.078125 C 3.191406 -9.359375 3.910156 -9.5 4.734375 -9.5 C 5.984375 -9.5 6.972656 -9.171875 7.703125 -8.515625 C 8.429688 -7.859375 8.796875 -6.96875 8.796875 -5.84375 L 8.796875 -2.296875 C 8.796875 -1.890625 8.945312 -1.6875 9.25 -1.6875 C 9.488281 -1.6875 9.710938 -1.804688 9.921875 -2.046875 L 10.515625 -0.578125 C 10.234375 -0.296875 9.890625 -0.09375 9.484375 0.03125 C 9.078125 0.164062 8.675781 0.234375 8.28125 0.234375 C 7.726562 0.234375 7.265625 0.09375 6.890625 -0.1875 C 6.515625 -0.46875 6.28125 -0.820312 6.1875 -1.25 L 6.140625 -1.484375 L 6.125 -1.484375 C 5.851562 -0.960938 5.457031 -0.546875 4.9375 -0.234375 C 4.425781 0.0664062 3.835938 0.21875 3.171875 0.21875 Z M 4.296875 -1.703125 C 4.816406 -1.703125 5.242188 -1.882812 5.578125 -2.25 C 5.910156 -2.613281 6.078125 -3.085938 6.078125 -3.671875 L 6.078125 -4.109375 L 4.734375 -3.953125 C 4.109375 -3.890625 3.660156 -3.742188 3.390625 -3.515625 C 3.128906 -3.285156 3 -3.015625 3 -2.703125 C 3 -2.410156 3.117188 -2.171875 3.359375 -1.984375 C 3.609375 -1.796875 3.921875 -1.703125 4.296875 -1.703125 Z M 4.296875 -1.703125 "/></g></g></g><g fill="#0661aa" fill-opacity="1"><g transform="translate(73.035898, 90.926245)"><g><path d="M 4 0.25 C 3.269531 0.25 2.628906 0.0507812 2.078125 -0.34375 C 1.535156 -0.738281 1.113281 -1.300781 0.8125 -2.03125 C 0.519531 -2.757812 0.375 -3.613281 0.375 -4.59375 C 0.375 -5.582031 0.519531 -6.4375 0.8125 -7.15625 C 1.113281 -7.882812 1.535156 -8.441406 2.078125 -8.828125 C 2.628906 -9.222656 3.265625 -9.421875 3.984375 -9.421875 C 4.597656 -9.421875 5.144531 -9.265625 5.625 -8.953125 C 6.101562 -8.648438 6.472656 -8.203125 6.734375 -7.609375 L 6.75 -7.609375 L 6.75 -13.296875 L 9.5 -13.296875 L 9.5 0 L 7.171875 0 L 6.828125 -1.59375 L 6.8125 -1.59375 C 6.550781 -1 6.175781 -0.539062 5.6875 -0.21875 C 5.195312 0.09375 4.632812 0.25 4 0.25 Z M 5 -2.09375 C 5.5625 -2.09375 6.007812 -2.316406 6.34375 -2.765625 C 6.6875 -3.222656 6.859375 -3.832031 6.859375 -4.59375 C 6.859375 -5.34375 6.6875 -5.941406 6.34375 -6.390625 C 6.007812 -6.847656 5.5625 -7.078125 5 -7.078125 C 4.4375 -7.078125 3.984375 -6.847656 3.640625 -6.390625 C 3.296875 -5.941406 3.125 -5.34375 3.125 -4.59375 C 3.125 -3.832031 3.296875 -3.222656 3.640625 -2.765625 C 3.984375 -2.316406 4.4375 -2.09375 5 -2.09375 Z M 5 -2.09375 "/></g></g></g><g fill="#0661aa" fill-opacity="1"><g transform="translate(85.3267, 90.926245)"><g><path d="M 2.109375 -10.4375 C 1.617188 -10.4375 1.226562 -10.578125 0.9375 -10.859375 C 0.644531 -11.148438 0.5 -11.523438 0.5 -11.984375 C 0.5 -12.460938 0.644531 -12.84375 0.9375 -13.125 C 1.226562 -13.414062 1.617188 -13.5625 2.109375 -13.5625 C 2.597656 -13.5625 2.988281 -13.414062 3.28125 -13.125 C 3.582031 -12.84375 3.734375 -12.460938 3.734375 -11.984375 C 3.734375 -11.523438 3.582031 -11.148438 3.28125 -10.859375 C 2.988281 -10.578125 2.597656 -10.4375 2.109375 -10.4375 Z M 0.734375 0 L 0.734375 -9.171875 L 3.484375 -9.171875 L 3.484375 0 Z M 0.734375 0 "/></g></g></g><g fill="#0661aa" fill-opacity="1"><g transform="translate(19.507881, 112.575549)"><g><path d="M 5.625 0.390625 C 4.625 0.390625 3.734375 0.222656 2.953125 -0.109375 C 2.179688 -0.453125 1.566406 -0.941406 1.109375 -1.578125 C 0.660156 -2.222656 0.40625 -2.992188 0.34375 -3.890625 L 3.15625 -4.375 C 3.1875 -3.601562 3.445312 -3 3.9375 -2.5625 C 4.425781 -2.125 5.03125 -1.90625 5.75 -1.90625 C 6.382812 -1.90625 6.890625 -2.050781 7.265625 -2.34375 C 7.640625 -2.644531 7.828125 -3.015625 7.828125 -3.453125 C 7.828125 -3.835938 7.679688 -4.15625 7.390625 -4.40625 C 7.109375 -4.65625 6.644531 -4.863281 6 -5.03125 L 4.390625 -5.453125 C 3.117188 -5.742188 2.191406 -6.1875 1.609375 -6.78125 C 1.023438 -7.375 0.734375 -8.171875 0.734375 -9.171875 C 0.734375 -9.972656 0.921875 -10.671875 1.296875 -11.265625 C 1.679688 -11.867188 2.226562 -12.332031 2.9375 -12.65625 C 3.644531 -12.988281 4.46875 -13.15625 5.40625 -13.15625 C 6.269531 -13.15625 7.035156 -13 7.703125 -12.6875 C 8.367188 -12.382812 8.910156 -11.957031 9.328125 -11.40625 C 9.742188 -10.851562 9.976562 -10.191406 10.03125 -9.421875 L 7.296875 -8.875 C 7.253906 -9.488281 7.054688 -9.976562 6.703125 -10.34375 C 6.347656 -10.707031 5.898438 -10.890625 5.359375 -10.890625 C 4.847656 -10.890625 4.4375 -10.75 4.125 -10.46875 C 3.820312 -10.1875 3.671875 -9.835938 3.671875 -9.421875 C 3.671875 -9.054688 3.804688 -8.753906 4.078125 -8.515625 C 4.347656 -8.273438 4.785156 -8.078125 5.390625 -7.921875 L 6.984375 -7.53125 C 8.285156 -7.226562 9.238281 -6.773438 9.84375 -6.171875 C 10.445312 -5.566406 10.75 -4.757812 10.75 -3.75 C 10.75 -2.90625 10.539062 -2.171875 10.125 -1.546875 C 9.707031 -0.929688 9.113281 -0.453125 8.34375 -0.109375 C 7.582031 0.222656 6.675781 0.390625 5.625 0.390625 Z M 5.625 0.390625 "/></g></g></g><g fill="#0661aa" fill-opacity="1"><g transform="translate(32.64077, 112.575549)"><g><path d="M 0.6875 0 L 0.6875 -13.296875 L 3.40625 -13.296875 L 3.40625 -7.609375 L 3.421875 -7.609375 C 3.710938 -8.191406 4.101562 -8.632812 4.59375 -8.9375 C 5.09375 -9.25 5.664062 -9.40625 6.3125 -9.40625 C 7.15625 -9.40625 7.8125 -9.15625 8.28125 -8.65625 C 8.757812 -8.15625 9 -7.445312 9 -6.53125 L 9 0 L 6.25 0 L 6.25 -5.828125 C 6.25 -6.253906 6.140625 -6.585938 5.921875 -6.828125 C 5.710938 -7.066406 5.414062 -7.1875 5.03125 -7.1875 C 4.539062 -7.1875 4.144531 -7.023438 3.84375 -6.703125 C 3.550781 -6.390625 3.40625 -5.953125 3.40625 -5.390625 L 3.40625 0 Z M 0.6875 0 "/></g></g></g><g fill="#0661aa" fill-opacity="1"><g transform="translate(44.376153, 112.575549)"><g><path d="M 5.03125 0.296875 C 4.09375 0.296875 3.269531 0.0976562 2.5625 -0.296875 C 1.863281 -0.691406 1.320312 -1.253906 0.9375 -1.984375 C 0.5625 -2.722656 0.375 -3.59375 0.375 -4.59375 C 0.375 -5.59375 0.5625 -6.457031 0.9375 -7.1875 C 1.320312 -7.925781 1.863281 -8.492188 2.5625 -8.890625 C 3.269531 -9.296875 4.09375 -9.5 5.03125 -9.5 C 5.976562 -9.5 6.796875 -9.296875 7.484375 -8.890625 C 8.179688 -8.492188 8.71875 -7.925781 9.09375 -7.1875 C 9.476562 -6.457031 9.671875 -5.59375 9.671875 -4.59375 C 9.671875 -3.59375 9.476562 -2.722656 9.09375 -1.984375 C 8.71875 -1.253906 8.179688 -0.691406 7.484375 -0.296875 C 6.796875 0.0976562 5.976562 0.296875 5.03125 0.296875 Z M 5.03125 -1.984375 C 5.632812 -1.984375 6.101562 -2.210938 6.4375 -2.671875 C 6.78125 -3.140625 6.953125 -3.78125 6.953125 -4.59375 C 6.953125 -5.40625 6.78125 -6.039062 6.4375 -6.5 C 6.101562 -6.957031 5.632812 -7.1875 5.03125 -7.1875 C 4.4375 -7.1875 3.960938 -6.957031 3.609375 -6.5 C 3.265625 -6.039062 3.09375 -5.40625 3.09375 -4.59375 C 3.09375 -3.78125 3.265625 -3.140625 3.609375 -2.671875 C 3.960938 -2.210938 4.4375 -1.984375 5.03125 -1.984375 Z M 5.03125 -1.984375 "/></g></g></g><g fill="#0661aa" fill-opacity="1"><g transform="translate(56.559456, 112.575549)"><g><path d="M 4 0.25 C 3.269531 0.25 2.628906 0.0507812 2.078125 -0.34375 C 1.535156 -0.738281 1.113281 -1.300781 0.8125 -2.03125 C 0.519531 -2.757812 0.375 -3.613281 0.375 -4.59375 C 0.375 -5.582031 0.519531 -6.4375 0.8125 -7.15625 C 1.113281 -7.882812 1.535156 -8.441406 2.078125 -8.828125 C 2.628906 -9.222656 3.265625 -9.421875 3.984375 -9.421875 C 4.597656 -9.421875 5.144531 -9.265625 5.625 -8.953125 C 6.101562 -8.648438 6.472656 -8.203125 6.734375 -7.609375 L 6.75 -7.609375 L 6.75 -13.296875 L 9.5 -13.296875 L 9.5 0 L 7.171875 0 L 6.828125 -1.59375 L 6.8125 -1.59375 C 6.550781 -1 6.175781 -0.539062 5.6875 -0.21875 C 5.195312 0.09375 4.632812 0.25 4 0.25 Z M 5 -2.09375 C 5.5625 -2.09375 6.007812 -2.316406 6.34375 -2.765625 C 6.6875 -3.222656 6.859375 -3.832031 6.859375 -4.59375 C 6.859375 -5.34375 6.6875 -5.941406 6.34375 -6.390625 C 6.007812 -6.847656 5.5625 -7.078125 5 -7.078125 C 4.4375 -7.078125 3.984375 -6.847656 3.640625 -6.390625 C 3.296875 -5.941406 3.125 -5.34375 3.125 -4.59375 C 3.125 -3.832031 3.296875 -3.222656 3.640625 -2.765625 C 3.984375 -2.316406 4.4375 -2.09375 5 -2.09375 Z M 5 -2.09375 "/></g></g></g><g fill="#0661aa" fill-opacity="1"><g transform="translate(68.850258, 112.575549)"><g><path d="M 0.6875 0 L 0.6875 -13.296875 L 3.40625 -13.296875 L 3.40625 -7.609375 L 3.421875 -7.609375 C 3.710938 -8.191406 4.101562 -8.632812 4.59375 -8.9375 C 5.09375 -9.25 5.664062 -9.40625 6.3125 -9.40625 C 7.15625 -9.40625 7.8125 -9.15625 8.28125 -8.65625 C 8.757812 -8.15625 9 -7.445312 9 -6.53125 L 9 0 L 6.25 0 L 6.25 -5.828125 C 6.25 -6.253906 6.140625 -6.585938 5.921875 -6.828125 C 5.710938 -7.066406 5.414062 -7.1875 5.03125 -7.1875 C 4.539062 -7.1875 4.144531 -7.023438 3.84375 -6.703125 C 3.550781 -6.390625 3.40625 -5.953125 3.40625 -5.390625 L 3.40625 0 Z M 0.6875 0 "/></g></g></g><g fill="#0661aa" fill-opacity="1"><g transform="translate(80.58564, 112.575549)"><g><path d="M 3.171875 0.21875 C 2.296875 0.21875 1.585938 -0.015625 1.046875 -0.484375 C 0.515625 -0.953125 0.25 -1.578125 0.25 -2.359375 C 0.25 -3.203125 0.566406 -3.878906 1.203125 -4.390625 C 1.847656 -4.910156 2.785156 -5.238281 4.015625 -5.375 L 5.4375 -5.53125 C 5.632812 -5.5625 5.796875 -5.632812 5.921875 -5.75 C 6.046875 -5.875 6.109375 -6.046875 6.109375 -6.265625 C 6.109375 -6.671875 5.984375 -6.984375 5.734375 -7.203125 C 5.484375 -7.421875 5.15625 -7.53125 4.75 -7.53125 C 4.28125 -7.53125 3.898438 -7.367188 3.609375 -7.046875 C 3.328125 -6.722656 3.175781 -6.316406 3.15625 -5.828125 L 0.5625 -6.203125 C 0.582031 -6.847656 0.769531 -7.414062 1.125 -7.90625 C 1.476562 -8.40625 1.960938 -8.796875 2.578125 -9.078125 C 3.191406 -9.359375 3.910156 -9.5 4.734375 -9.5 C 5.984375 -9.5 6.972656 -9.171875 7.703125 -8.515625 C 8.429688 -7.859375 8.796875 -6.96875 8.796875 -5.84375 L 8.796875 -2.296875 C 8.796875 -1.890625 8.945312 -1.6875 9.25 -1.6875 C 9.488281 -1.6875 9.710938 -1.804688 9.921875 -2.046875 L 10.515625 -0.578125 C 10.234375 -0.296875 9.890625 -0.09375 9.484375 0.03125 C 9.078125 0.164062 8.675781 0.234375 8.28125 0.234375 C 7.726562 0.234375 7.265625 0.09375 6.890625 -0.1875 C 6.515625 -0.46875 6.28125 -0.820312 6.1875 -1.25 L 6.140625 -1.484375 L 6.125 -1.484375 C 5.851562 -0.960938 5.457031 -0.546875 4.9375 -0.234375 C 4.425781 0.0664062 3.835938 0.21875 3.171875 0.21875 Z M 4.296875 -1.703125 C 4.816406 -1.703125 5.242188 -1.882812 5.578125 -2.25 C 5.910156 -2.613281 6.078125 -3.085938 6.078125 -3.671875 L 6.078125 -4.109375 L 4.734375 -3.953125 C 4.109375 -3.890625 3.660156 -3.742188 3.390625 -3.515625 C 3.128906 -3.285156 3 -3.015625 3 -2.703125 C 3 -2.410156 3.117188 -2.171875 3.359375 -1.984375 C 3.609375 -1.796875 3.921875 -1.703125 4.296875 -1.703125 Z M 4.296875 -1.703125 "/></g></g></g><g fill="#0661aa" fill-opacity="1"><g transform="translate(93.216854, 112.575549)"><g><path d="M 6.25 -9.40625 C 7.101562 -9.40625 7.773438 -9.148438 8.265625 -8.640625 C 8.753906 -8.140625 9 -7.4375 9 -6.53125 L 9 0 L 6.25 0 L 6.25 -5.828125 C 6.25 -6.253906 6.140625 -6.585938 5.921875 -6.828125 C 5.710938 -7.066406 5.414062 -7.1875 5.03125 -7.1875 C 4.539062 -7.1875 4.144531 -7.023438 3.84375 -6.703125 C 3.550781 -6.390625 3.40625 -5.953125 3.40625 -5.390625 L 3.40625 0 L 0.6875 0 L 0.6875 -9.171875 L 2.9375 -9.171875 L 3.3125 -7.609375 L 3.328125 -7.609375 C 3.609375 -8.191406 4.003906 -8.632812 4.515625 -8.9375 C 5.023438 -9.25 5.601562 -9.40625 6.25 -9.40625 Z M 6.25 -9.40625 "/></g></g></g><g fill="#0661aa" fill-opacity="1"><g transform="translate(104.952236, 112.575549)"><g><path d="M 3.171875 0.21875 C 2.296875 0.21875 1.585938 -0.015625 1.046875 -0.484375 C 0.515625 -0.953125 0.25 -1.578125 0.25 -2.359375 C 0.25 -3.203125 0.566406 -3.878906 1.203125 -4.390625 C 1.847656 -4.910156 2.785156 -5.238281 4.015625 -5.375 L 5.4375 -5.53125 C 5.632812 -5.5625 5.796875 -5.632812 5.921875 -5.75 C 6.046875 -5.875 6.109375 -6.046875 6.109375 -6.265625 C 6.109375 -6.671875 5.984375 -6.984375 5.734375 -7.203125 C 5.484375 -7.421875 5.15625 -7.53125 4.75 -7.53125 C 4.28125 -7.53125 3.898438 -7.367188 3.609375 -7.046875 C 3.328125 -6.722656 3.175781 -6.316406 3.15625 -5.828125 L 0.5625 -6.203125 C 0.582031 -6.847656 0.769531 -7.414062 1.125 -7.90625 C 1.476562 -8.40625 1.960938 -8.796875 2.578125 -9.078125 C 3.191406 -9.359375 3.910156 -9.5 4.734375 -9.5 C 5.984375 -9.5 6.972656 -9.171875 7.703125 -8.515625 C 8.429688 -7.859375 8.796875 -6.96875 8.796875 -5.84375 L 8.796875 -2.296875 C 8.796875 -1.890625 8.945312 -1.6875 9.25 -1.6875 C 9.488281 -1.6875 9.710938 -1.804688 9.921875 -2.046875 L 10.515625 -0.578125 C 10.234375 -0.296875 9.890625 -0.09375 9.484375 0.03125 C 9.078125 0.164062 8.675781 0.234375 8.28125 0.234375 C 7.726562 0.234375 7.265625 0.09375 6.890625 -0.1875 C 6.515625 -0.46875 6.28125 -0.820312 6.1875 -1.25 L 6.140625 -1.484375 L 6.125 -1.484375 C 5.851562 -0.960938 5.457031 -0.546875 4.9375 -0.234375 C 4.425781 0.0664062 3.835938 0.21875 3.171875 0.21875 Z M 4.296875 -1.703125 C 4.816406 -1.703125 5.242188 -1.882812 5.578125 -2.25 C 5.910156 -2.613281 6.078125 -3.085938 6.078125 -3.671875 L 6.078125 -4.109375 L 4.734375 -3.953125 C 4.109375 -3.890625 3.660156 -3.742188 3.390625 -3.515625 C 3.128906 -3.285156 3 -3.015625 3 -2.703125 C 3 -2.410156 3.117188 -2.171875 3.359375 -1.984375 C 3.609375 -1.796875 3.921875 -1.703125 4.296875 -1.703125 Z M 4.296875 -1.703125 "/></g></g></g><g fill="#2d6d5e" fill-opacity="1"><g transform="translate(30.380459, 128.720449)"><g><path d="M 1.5 0 L 0.734375 0 L 0.734375 -7.109375 L 3.53125 -7.109375 L 3.53125 -6.421875 L 1.5 -6.421875 L 1.5 -3.765625 L 3.40625 -3.765625 L 3.40625 -3.0625 L 1.5 -3.0625 Z M 1.5 0 "/></g></g></g><g fill="#2d6d5e" fill-opacity="1"><g transform="translate(35.524581, 128.720449)"><g><path d="M 3.953125 -2.671875 C 3.953125 -2.253906 3.914062 -1.875 3.84375 -1.53125 C 3.78125 -1.1875 3.675781 -0.894531 3.53125 -0.65625 C 3.382812 -0.414062 3.195312 -0.226562 2.96875 -0.09375 C 2.75 0.03125 2.488281 0.09375 2.1875 0.09375 C 1.894531 0.09375 1.632812 0.03125 1.40625 -0.09375 C 1.1875 -0.226562 1.003906 -0.414062 0.859375 -0.65625 C 0.710938 -0.894531 0.601562 -1.1875 0.53125 -1.53125 C 0.457031 -1.875 0.421875 -2.253906 0.421875 -2.671875 C 0.421875 -3.265625 0.484375 -3.765625 0.609375 -4.171875 C 0.734375 -4.578125 0.925781 -4.890625 1.1875 -5.109375 C 1.457031 -5.328125 1.796875 -5.4375 2.203125 -5.4375 C 2.578125 -5.4375 2.894531 -5.332031 3.15625 -5.125 C 3.414062 -4.914062 3.613281 -4.601562 3.75 -4.1875 C 3.882812 -3.78125 3.953125 -3.273438 3.953125 -2.671875 Z M 1.1875 -2.671875 C 1.1875 -2.210938 1.222656 -1.820312 1.296875 -1.5 C 1.367188 -1.1875 1.476562 -0.953125 1.625 -0.796875 C 1.78125 -0.640625 1.972656 -0.5625 2.203125 -0.5625 C 2.429688 -0.5625 2.617188 -0.640625 2.765625 -0.796875 C 2.910156 -0.953125 3.019531 -1.1875 3.09375 -1.5 C 3.164062 -1.8125 3.203125 -2.203125 3.203125 -2.671875 C 3.203125 -3.140625 3.164062 -3.53125 3.09375 -3.84375 C 3.019531 -4.15625 2.910156 -4.390625 2.765625 -4.546875 C 2.617188 -4.703125 2.429688 -4.78125 2.203125 -4.78125 C 1.835938 -4.78125 1.578125 -4.601562 1.421875 -4.25 C 1.265625 -3.894531 1.1875 -3.367188 1.1875 -2.671875 Z M 1.1875 -2.671875 "/></g></g></g><g fill="#2d6d5e" fill-opacity="1"><g transform="translate(41.300284, 128.720449)"><g><path d="M 2.4375 -5.421875 C 2.507812 -5.421875 2.582031 -5.414062 2.65625 -5.40625 C 2.726562 -5.394531 2.804688 -5.378906 2.890625 -5.359375 L 2.78125 -4.59375 C 2.71875 -4.613281 2.65625 -4.628906 2.59375 -4.640625 C 2.53125 -4.648438 2.457031 -4.65625 2.375 -4.65625 C 2.226562 -4.65625 2.09375 -4.609375 1.96875 -4.515625 C 1.851562 -4.421875 1.75 -4.285156 1.65625 -4.109375 C 1.570312 -3.941406 1.503906 -3.742188 1.453125 -3.515625 C 1.410156 -3.285156 1.394531 -3.039062 1.40625 -2.78125 L 1.40625 0 L 0.65625 0 L 0.65625 -5.34375 L 1.234375 -5.34375 L 1.34375 -4.390625 L 1.390625 -4.390625 C 1.460938 -4.585938 1.546875 -4.765625 1.640625 -4.921875 C 1.742188 -5.078125 1.859375 -5.195312 1.984375 -5.28125 C 2.117188 -5.375 2.269531 -5.421875 2.4375 -5.421875 Z M 2.4375 -5.421875 "/></g></g></g><g fill="#2d6d5e" fill-opacity="1"><g transform="translate(45.676793, 128.720449)"><g/></g></g><g fill="#2d6d5e" fill-opacity="1"><g transform="translate(48.916459, 128.720449)"><g><path d="M 1.40625 -7.5625 L 1.40625 -5.34375 C 1.40625 -5.238281 1.398438 -5.117188 1.390625 -4.984375 C 1.390625 -4.859375 1.382812 -4.722656 1.375 -4.578125 L 1.40625 -4.578125 C 1.539062 -4.859375 1.707031 -5.066406 1.90625 -5.203125 C 2.101562 -5.347656 2.332031 -5.421875 2.59375 -5.421875 C 3.101562 -5.421875 3.488281 -5.1875 3.75 -4.71875 C 4.007812 -4.257812 4.140625 -3.578125 4.140625 -2.671875 C 4.140625 -2.078125 4.082031 -1.570312 3.96875 -1.15625 C 3.851562 -0.75 3.679688 -0.4375 3.453125 -0.21875 C 3.222656 -0.0078125 2.941406 0.09375 2.609375 0.09375 C 2.347656 0.09375 2.117188 0.03125 1.921875 -0.09375 C 1.722656 -0.226562 1.550781 -0.429688 1.40625 -0.703125 L 1.359375 -0.703125 L 1.265625 0 L 0.65625 0 L 0.65625 -7.5625 Z M 2.4375 -4.765625 C 2.15625 -4.765625 1.941406 -4.675781 1.796875 -4.5 C 1.648438 -4.332031 1.546875 -4.097656 1.484375 -3.796875 C 1.429688 -3.492188 1.40625 -3.148438 1.40625 -2.765625 L 1.40625 -2.53125 C 1.40625 -1.863281 1.488281 -1.363281 1.65625 -1.03125 C 1.832031 -0.707031 2.09375 -0.546875 2.4375 -0.546875 C 2.75 -0.546875 2.984375 -0.71875 3.140625 -1.0625 C 3.296875 -1.414062 3.375 -1.957031 3.375 -2.6875 C 3.375 -3.375 3.296875 -3.890625 3.140625 -4.234375 C 2.992188 -4.585938 2.757812 -4.765625 2.4375 -4.765625 Z M 2.4375 -4.765625 "/></g></g></g><g fill="#2d6d5e" fill-opacity="1"><g transform="translate(54.862208, 128.720449)"><g><path d="M 2.078125 -5.4375 C 2.566406 -5.4375 2.914062 -5.273438 3.125 -4.953125 C 3.34375 -4.640625 3.453125 -4.1875 3.453125 -3.59375 L 3.453125 0 L 2.875 0 L 2.765625 -0.765625 L 2.75 -0.765625 C 2.664062 -0.578125 2.566406 -0.421875 2.453125 -0.296875 C 2.335938 -0.171875 2.203125 -0.0703125 2.046875 0 C 1.898438 0.0625 1.726562 0.09375 1.53125 0.09375 C 1.257812 0.09375 1.035156 0.0195312 0.859375 -0.125 C 0.679688 -0.269531 0.550781 -0.457031 0.46875 -0.6875 C 0.382812 -0.925781 0.34375 -1.1875 0.34375 -1.46875 C 0.34375 -2 0.492188 -2.410156 0.796875 -2.703125 C 1.109375 -2.992188 1.539062 -3.148438 2.09375 -3.171875 L 2.703125 -3.21875 L 2.703125 -3.578125 C 2.703125 -4.003906 2.644531 -4.316406 2.53125 -4.515625 C 2.414062 -4.710938 2.226562 -4.8125 1.96875 -4.8125 C 1.820312 -4.8125 1.664062 -4.785156 1.5 -4.734375 C 1.332031 -4.679688 1.15625 -4.597656 0.96875 -4.484375 L 0.734375 -5.046875 C 0.929688 -5.179688 1.144531 -5.28125 1.375 -5.34375 C 1.601562 -5.40625 1.835938 -5.4375 2.078125 -5.4375 Z M 2.71875 -2.65625 L 2.21875 -2.625 C 1.84375 -2.601562 1.5625 -2.5 1.375 -2.3125 C 1.195312 -2.125 1.109375 -1.847656 1.109375 -1.484375 C 1.109375 -1.148438 1.164062 -0.90625 1.28125 -0.75 C 1.40625 -0.59375 1.570312 -0.515625 1.78125 -0.515625 C 2.070312 -0.515625 2.300781 -0.65625 2.46875 -0.9375 C 2.632812 -1.21875 2.71875 -1.613281 2.71875 -2.125 Z M 2.71875 -2.65625 "/></g></g></g><g fill="#2d6d5e" fill-opacity="1"><g transform="translate(60.341559, 128.720449)"><g><path d="M 1.40625 0 L 0.65625 0 L 0.65625 -7.5625 L 1.40625 -7.5625 Z M 1.40625 0 "/></g></g></g><g fill="#2d6d5e" fill-opacity="1"><g transform="translate(63.775557, 128.720449)"><g><path d="M 2.078125 -5.4375 C 2.566406 -5.4375 2.914062 -5.273438 3.125 -4.953125 C 3.34375 -4.640625 3.453125 -4.1875 3.453125 -3.59375 L 3.453125 0 L 2.875 0 L 2.765625 -0.765625 L 2.75 -0.765625 C 2.664062 -0.578125 2.566406 -0.421875 2.453125 -0.296875 C 2.335938 -0.171875 2.203125 -0.0703125 2.046875 0 C 1.898438 0.0625 1.726562 0.09375 1.53125 0.09375 C 1.257812 0.09375 1.035156 0.0195312 0.859375 -0.125 C 0.679688 -0.269531 0.550781 -0.457031 0.46875 -0.6875 C 0.382812 -0.925781 0.34375 -1.1875 0.34375 -1.46875 C 0.34375 -2 0.492188 -2.410156 0.796875 -2.703125 C 1.109375 -2.992188 1.539062 -3.148438 2.09375 -3.171875 L 2.703125 -3.21875 L 2.703125 -3.578125 C 2.703125 -4.003906 2.644531 -4.316406 2.53125 -4.515625 C 2.414062 -4.710938 2.226562 -4.8125 1.96875 -4.8125 C 1.820312 -4.8125 1.664062 -4.785156 1.5 -4.734375 C 1.332031 -4.679688 1.15625 -4.597656 0.96875 -4.484375 L 0.734375 -5.046875 C 0.929688 -5.179688 1.144531 -5.28125 1.375 -5.34375 C 1.601562 -5.40625 1.835938 -5.4375 2.078125 -5.4375 Z M 2.71875 -2.65625 L 2.21875 -2.625 C 1.84375 -2.601562 1.5625 -2.5 1.375 -2.3125 C 1.195312 -2.125 1.109375 -1.847656 1.109375 -1.484375 C 1.109375 -1.148438 1.164062 -0.90625 1.28125 -0.75 C 1.40625 -0.59375 1.570312 -0.515625 1.78125 -0.515625 C 2.070312 -0.515625 2.300781 -0.65625 2.46875 -0.9375 C 2.632812 -1.21875 2.71875 -1.613281 2.71875 -2.125 Z M 2.71875 -2.65625 "/></g></g></g><g fill="#2d6d5e" fill-opacity="1"><g transform="translate(69.254908, 128.720449)"><g><path d="M 2.578125 -5.4375 C 2.992188 -5.4375 3.3125 -5.285156 3.53125 -4.984375 C 3.75 -4.691406 3.859375 -4.242188 3.859375 -3.640625 L 3.859375 0 L 3.109375 0 L 3.109375 -3.484375 C 3.109375 -3.910156 3.050781 -4.226562 2.9375 -4.4375 C 2.820312 -4.65625 2.644531 -4.765625 2.40625 -4.765625 C 2.0625 -4.765625 1.804688 -4.609375 1.640625 -4.296875 C 1.484375 -3.992188 1.40625 -3.5 1.40625 -2.8125 L 1.40625 0 L 0.65625 0 L 0.65625 -5.34375 L 1.25 -5.34375 L 1.328125 -4.5625 L 1.375 -4.5625 C 1.445312 -4.738281 1.539062 -4.890625 1.65625 -5.015625 C 1.78125 -5.148438 1.914062 -5.253906 2.0625 -5.328125 C 2.21875 -5.398438 2.390625 -5.4375 2.578125 -5.4375 Z M 2.578125 -5.4375 "/></g></g></g><g fill="#2d6d5e" fill-opacity="1"><g transform="translate(75.132641, 128.720449)"><g><path d="M 2.1875 0.09375 C 1.800781 0.09375 1.476562 -0.00390625 1.21875 -0.203125 C 0.957031 -0.410156 0.757812 -0.71875 0.625 -1.125 C 0.5 -1.53125 0.4375 -2.03125 0.4375 -2.625 C 0.4375 -3.21875 0.5 -3.722656 0.625 -4.140625 C 0.757812 -4.554688 0.957031 -4.875 1.21875 -5.09375 C 1.488281 -5.320312 1.820312 -5.4375 2.21875 -5.4375 C 2.414062 -5.4375 2.59375 -5.414062 2.75 -5.375 C 2.914062 -5.332031 3.070312 -5.269531 3.21875 -5.1875 L 2.96875 -4.578125 C 2.851562 -4.640625 2.734375 -4.6875 2.609375 -4.71875 C 2.492188 -4.75 2.378906 -4.765625 2.265625 -4.765625 C 2.035156 -4.765625 1.835938 -4.679688 1.671875 -4.515625 C 1.515625 -4.359375 1.394531 -4.125 1.3125 -3.8125 C 1.238281 -3.5 1.203125 -3.109375 1.203125 -2.640625 C 1.203125 -2.179688 1.238281 -1.796875 1.3125 -1.484375 C 1.394531 -1.179688 1.515625 -0.953125 1.671875 -0.796875 C 1.835938 -0.640625 2.039062 -0.5625 2.28125 -0.5625 C 2.414062 -0.5625 2.554688 -0.582031 2.703125 -0.625 C 2.859375 -0.664062 3.007812 -0.722656 3.15625 -0.796875 L 3.15625 -0.171875 C 3.019531 -0.078125 2.859375 -0.0078125 2.671875 0.03125 C 2.492188 0.0703125 2.332031 0.09375 2.1875 0.09375 Z M 2.1875 0.09375 "/></g></g></g><g fill="#2d6d5e" fill-opacity="1"><g transform="translate(79.941545, 128.720449)"><g><path d="M 2.125 -5.421875 C 2.476562 -5.421875 2.773438 -5.316406 3.015625 -5.109375 C 3.253906 -4.898438 3.429688 -4.613281 3.546875 -4.25 C 3.660156 -3.894531 3.71875 -3.5 3.71875 -3.0625 L 3.71875 -2.53125 L 1.171875 -2.53125 C 1.179688 -1.875 1.285156 -1.378906 1.484375 -1.046875 C 1.679688 -0.710938 1.976562 -0.546875 2.375 -0.546875 C 2.570312 -0.546875 2.757812 -0.570312 2.9375 -0.625 C 3.125 -0.6875 3.316406 -0.78125 3.515625 -0.90625 L 3.515625 -0.234375 C 3.328125 -0.117188 3.132812 -0.0351562 2.9375 0.015625 C 2.738281 0.0664062 2.523438 0.09375 2.296875 0.09375 C 1.859375 0.09375 1.5 -0.0234375 1.21875 -0.265625 C 0.945312 -0.503906 0.75 -0.828125 0.625 -1.234375 C 0.5 -1.648438 0.4375 -2.117188 0.4375 -2.640625 C 0.4375 -3.234375 0.5 -3.738281 0.625 -4.15625 C 0.75 -4.570312 0.9375 -4.882812 1.1875 -5.09375 C 1.4375 -5.3125 1.75 -5.421875 2.125 -5.421875 Z M 2.125 -4.8125 C 1.84375 -4.8125 1.617188 -4.671875 1.453125 -4.390625 C 1.296875 -4.117188 1.207031 -3.703125 1.1875 -3.140625 L 3.015625 -3.140625 C 3.015625 -3.441406 2.984375 -3.71875 2.921875 -3.96875 C 2.859375 -4.21875 2.757812 -4.421875 2.625 -4.578125 C 2.5 -4.734375 2.332031 -4.8125 2.125 -4.8125 Z M 2.125 -4.8125 "/></g></g></g><g fill="#2d6d5e" fill-opacity="1"><g transform="translate(85.450047, 128.720449)"><g/></g></g><g fill="#2d6d5e" fill-opacity="1"><g transform="translate(88.689712, 128.720449)"><g><path d="M 2.078125 -5.4375 C 2.566406 -5.4375 2.914062 -5.273438 3.125 -4.953125 C 3.34375 -4.640625 3.453125 -4.1875 3.453125 -3.59375 L 3.453125 0 L 2.875 0 L 2.765625 -0.765625 L 2.75 -0.765625 C 2.664062 -0.578125 2.566406 -0.421875 2.453125 -0.296875 C 2.335938 -0.171875 2.203125 -0.0703125 2.046875 0 C 1.898438 0.0625 1.726562 0.09375 1.53125 0.09375 C 1.257812 0.09375 1.035156 0.0195312 0.859375 -0.125 C 0.679688 -0.269531 0.550781 -0.457031 0.46875 -0.6875 C 0.382812 -0.925781 0.34375 -1.1875 0.34375 -1.46875 C 0.34375 -2 0.492188 -2.410156 0.796875 -2.703125 C 1.109375 -2.992188 1.539062 -3.148438 2.09375 -3.171875 L 2.703125 -3.21875 L 2.703125 -3.578125 C 2.703125 -4.003906 2.644531 -4.316406 2.53125 -4.515625 C 2.414062 -4.710938 2.226562 -4.8125 1.96875 -4.8125 C 1.820312 -4.8125 1.664062 -4.785156 1.5 -4.734375 C 1.332031 -4.679688 1.15625 -4.597656 0.96875 -4.484375 L 0.734375 -5.046875 C 0.929688 -5.179688 1.144531 -5.28125 1.375 -5.34375 C 1.601562 -5.40625 1.835938 -5.4375 2.078125 -5.4375 Z M 2.71875 -2.65625 L 2.21875 -2.625 C 1.84375 -2.601562 1.5625 -2.5 1.375 -2.3125 C 1.195312 -2.125 1.109375 -1.847656 1.109375 -1.484375 C 1.109375 -1.148438 1.164062 -0.90625 1.28125 -0.75 C 1.40625 -0.59375 1.570312 -0.515625 1.78125 -0.515625 C 2.070312 -0.515625 2.300781 -0.65625 2.46875 -0.9375 C 2.632812 -1.21875 2.71875 -1.613281 2.71875 -2.125 Z M 2.71875 -2.65625 "/></g></g></g><g fill="#2d6d5e" fill-opacity="1"><g transform="translate(94.169063, 128.720449)"><g><path d="M 2.578125 -5.4375 C 2.992188 -5.4375 3.3125 -5.285156 3.53125 -4.984375 C 3.75 -4.691406 3.859375 -4.242188 3.859375 -3.640625 L 3.859375 0 L 3.109375 0 L 3.109375 -3.484375 C 3.109375 -3.910156 3.050781 -4.226562 2.9375 -4.4375 C 2.820312 -4.65625 2.644531 -4.765625 2.40625 -4.765625 C 2.0625 -4.765625 1.804688 -4.609375 1.640625 -4.296875 C 1.484375 -3.992188 1.40625 -3.5 1.40625 -2.8125 L 1.40625 0 L 0.65625 0 L 0.65625 -5.34375 L 1.25 -5.34375 L 1.328125 -4.5625 L 1.375 -4.5625 C 1.445312 -4.738281 1.539062 -4.890625 1.65625 -5.015625 C 1.78125 -5.148438 1.914062 -5.253906 2.0625 -5.328125 C 2.21875 -5.398438 2.390625 -5.4375 2.578125 -5.4375 Z M 2.578125 -5.4375 "/></g></g></g><g fill="#2d6d5e" fill-opacity="1"><g transform="translate(100.046796, 128.720449)"><g><path d="M 1.984375 0.09375 C 1.472656 0.09375 1.082031 -0.140625 0.8125 -0.609375 C 0.550781 -1.078125 0.421875 -1.757812 0.421875 -2.65625 C 0.421875 -3.539062 0.550781 -4.222656 0.8125 -4.703125 C 1.082031 -5.191406 1.460938 -5.4375 1.953125 -5.4375 C 2.128906 -5.4375 2.289062 -5.398438 2.4375 -5.328125 C 2.59375 -5.265625 2.726562 -5.171875 2.84375 -5.046875 C 2.96875 -4.929688 3.070312 -4.785156 3.15625 -4.609375 L 3.1875 -4.609375 C 3.1875 -4.753906 3.179688 -4.882812 3.171875 -5 C 3.171875 -5.125 3.171875 -5.238281 3.171875 -5.34375 L 3.171875 -7.5625 L 3.90625 -7.5625 L 3.90625 0 L 3.3125 0 L 3.21875 -0.71875 L 3.171875 -0.71875 C 3.078125 -0.550781 2.972656 -0.40625 2.859375 -0.28125 C 2.742188 -0.15625 2.613281 -0.0625 2.46875 0 C 2.320312 0.0625 2.160156 0.09375 1.984375 0.09375 Z M 2.140625 -0.546875 C 2.484375 -0.546875 2.738281 -0.703125 2.90625 -1.015625 C 3.082031 -1.328125 3.171875 -1.789062 3.171875 -2.40625 L 3.171875 -2.765625 C 3.171875 -3.441406 3.085938 -3.941406 2.921875 -4.265625 C 2.753906 -4.597656 2.492188 -4.765625 2.140625 -4.765625 C 1.804688 -4.765625 1.5625 -4.582031 1.40625 -4.21875 C 1.257812 -3.863281 1.1875 -3.34375 1.1875 -2.65625 C 1.1875 -1.957031 1.257812 -1.429688 1.40625 -1.078125 C 1.5625 -0.722656 1.804688 -0.546875 2.140625 -0.546875 Z M 2.140625 -0.546875 "/></g></g></g><g fill="#2d6d5e" fill-opacity="1"><g transform="translate(23.241788, 140.664893)"><g><path d="M 2.125 -5.421875 C 2.476562 -5.421875 2.773438 -5.316406 3.015625 -5.109375 C 3.253906 -4.898438 3.429688 -4.613281 3.546875 -4.25 C 3.660156 -3.894531 3.71875 -3.5 3.71875 -3.0625 L 3.71875 -2.53125 L 1.171875 -2.53125 C 1.179688 -1.875 1.285156 -1.378906 1.484375 -1.046875 C 1.679688 -0.710938 1.976562 -0.546875 2.375 -0.546875 C 2.570312 -0.546875 2.757812 -0.570312 2.9375 -0.625 C 3.125 -0.6875 3.316406 -0.78125 3.515625 -0.90625 L 3.515625 -0.234375 C 3.328125 -0.117188 3.132812 -0.0351562 2.9375 0.015625 C 2.738281 0.0664062 2.523438 0.09375 2.296875 0.09375 C 1.859375 0.09375 1.5 -0.0234375 1.21875 -0.265625 C 0.945312 -0.503906 0.75 -0.828125 0.625 -1.234375 C 0.5 -1.648438 0.4375 -2.117188 0.4375 -2.640625 C 0.4375 -3.234375 0.5 -3.738281 0.625 -4.15625 C 0.75 -4.570312 0.9375 -4.882812 1.1875 -5.09375 C 1.4375 -5.3125 1.75 -5.421875 2.125 -5.421875 Z M 2.125 -4.8125 C 1.84375 -4.8125 1.617188 -4.671875 1.453125 -4.390625 C 1.296875 -4.117188 1.207031 -3.703125 1.1875 -3.140625 L 3.015625 -3.140625 C 3.015625 -3.441406 2.984375 -3.71875 2.921875 -3.96875 C 2.859375 -4.21875 2.757812 -4.421875 2.625 -4.578125 C 2.5 -4.734375 2.332031 -4.8125 2.125 -4.8125 Z M 2.125 -4.8125 "/></g></g></g><g fill="#2d6d5e" fill-opacity="1"><g transform="translate(28.750289, 140.664893)"><g><path d="M 4.84375 -5.4375 C 5.257812 -5.4375 5.566406 -5.285156 5.765625 -4.984375 C 5.972656 -4.679688 6.078125 -4.21875 6.078125 -3.59375 L 6.078125 0 L 5.328125 0 L 5.328125 -3.46875 C 5.328125 -3.9375 5.265625 -4.269531 5.140625 -4.46875 C 5.023438 -4.664062 4.859375 -4.765625 4.640625 -4.765625 C 4.316406 -4.765625 4.082031 -4.613281 3.9375 -4.3125 C 3.800781 -4.007812 3.734375 -3.570312 3.734375 -3 L 3.734375 0 L 3 0 L 3 -3.46875 C 3 -3.789062 2.972656 -4.046875 2.921875 -4.234375 C 2.867188 -4.421875 2.789062 -4.554688 2.6875 -4.640625 C 2.582031 -4.722656 2.453125 -4.765625 2.296875 -4.765625 C 2.054688 -4.765625 1.867188 -4.679688 1.734375 -4.515625 C 1.609375 -4.359375 1.519531 -4.132812 1.46875 -3.84375 C 1.425781 -3.550781 1.40625 -3.222656 1.40625 -2.859375 L 1.40625 0 L 0.65625 0 L 0.65625 -5.34375 L 1.25 -5.34375 L 1.34375 -4.578125 L 1.375 -4.578125 C 1.445312 -4.753906 1.535156 -4.90625 1.640625 -5.03125 C 1.742188 -5.164062 1.867188 -5.265625 2.015625 -5.328125 C 2.171875 -5.398438 2.335938 -5.4375 2.515625 -5.4375 C 2.828125 -5.4375 3.070312 -5.351562 3.25 -5.1875 C 3.425781 -5.019531 3.539062 -4.804688 3.59375 -4.546875 L 3.65625 -4.546875 C 3.78125 -4.847656 3.929688 -5.070312 4.109375 -5.21875 C 4.296875 -5.363281 4.539062 -5.4375 4.84375 -5.4375 Z M 4.84375 -5.4375 "/></g></g></g><g fill="#2d6d5e" fill-opacity="1"><g transform="translate(36.848262, 140.664893)"><g><path d="M 3.953125 -2.671875 C 3.953125 -2.253906 3.914062 -1.875 3.84375 -1.53125 C 3.78125 -1.1875 3.675781 -0.894531 3.53125 -0.65625 C 3.382812 -0.414062 3.195312 -0.226562 2.96875 -0.09375 C 2.75 0.03125 2.488281 0.09375 2.1875 0.09375 C 1.894531 0.09375 1.632812 0.03125 1.40625 -0.09375 C 1.1875 -0.226562 1.003906 -0.414062 0.859375 -0.65625 C 0.710938 -0.894531 0.601562 -1.1875 0.53125 -1.53125 C 0.457031 -1.875 0.421875 -2.253906 0.421875 -2.671875 C 0.421875 -3.265625 0.484375 -3.765625 0.609375 -4.171875 C 0.734375 -4.578125 0.925781 -4.890625 1.1875 -5.109375 C 1.457031 -5.328125 1.796875 -5.4375 2.203125 -5.4375 C 2.578125 -5.4375 2.894531 -5.332031 3.15625 -5.125 C 3.414062 -4.914062 3.613281 -4.601562 3.75 -4.1875 C 3.882812 -3.78125 3.953125 -3.273438 3.953125 -2.671875 Z M 1.1875 -2.671875 C 1.1875 -2.210938 1.222656 -1.820312 1.296875 -1.5 C 1.367188 -1.1875 1.476562 -0.953125 1.625 -0.796875 C 1.78125 -0.640625 1.972656 -0.5625 2.203125 -0.5625 C 2.429688 -0.5625 2.617188 -0.640625 2.765625 -0.796875 C 2.910156 -0.953125 3.019531 -1.1875 3.09375 -1.5 C 3.164062 -1.8125 3.203125 -2.203125 3.203125 -2.671875 C 3.203125 -3.140625 3.164062 -3.53125 3.09375 -3.84375 C 3.019531 -4.15625 2.910156 -4.390625 2.765625 -4.546875 C 2.617188 -4.703125 2.429688 -4.78125 2.203125 -4.78125 C 1.835938 -4.78125 1.578125 -4.601562 1.421875 -4.25 C 1.265625 -3.894531 1.1875 -3.367188 1.1875 -2.671875 Z M 1.1875 -2.671875 "/></g></g></g><g fill="#2d6d5e" fill-opacity="1"><g transform="translate(42.623965, 140.664893)"><g><path d="M 1.90625 -0.5625 C 1.988281 -0.5625 2.066406 -0.570312 2.140625 -0.59375 C 2.222656 -0.613281 2.300781 -0.640625 2.375 -0.671875 L 2.375 -0.046875 C 2.28125 -0.00390625 2.171875 0.0234375 2.046875 0.046875 C 1.929688 0.078125 1.804688 0.09375 1.671875 0.09375 C 1.441406 0.09375 1.25 0.0390625 1.09375 -0.0625 C 0.945312 -0.164062 0.835938 -0.316406 0.765625 -0.515625 C 0.703125 -0.722656 0.671875 -0.984375 0.671875 -1.296875 L 0.671875 -4.703125 L 0.171875 -4.703125 L 0.171875 -5.125 L 0.703125 -5.3125 L 0.90625 -6.546875 L 1.421875 -6.546875 L 1.421875 -5.34375 L 2.328125 -5.34375 L 2.328125 -4.703125 L 1.421875 -4.703125 L 1.421875 -1.390625 C 1.421875 -1.109375 1.453125 -0.898438 1.515625 -0.765625 C 1.585938 -0.628906 1.71875 -0.5625 1.90625 -0.5625 Z M 1.90625 -0.5625 "/></g></g></g><g fill="#2d6d5e" fill-opacity="1"><g transform="translate(46.538941, 140.664893)"><g><path d="M 1.40625 -5.34375 L 1.40625 0 L 0.65625 0 L 0.65625 -5.34375 Z M 1.046875 -7.34375 C 1.191406 -7.34375 1.300781 -7.289062 1.375 -7.1875 C 1.445312 -7.09375 1.484375 -6.960938 1.484375 -6.796875 C 1.484375 -6.617188 1.445312 -6.484375 1.375 -6.390625 C 1.300781 -6.296875 1.191406 -6.25 1.046875 -6.25 C 0.898438 -6.25 0.785156 -6.296875 0.703125 -6.390625 C 0.628906 -6.484375 0.59375 -6.617188 0.59375 -6.796875 C 0.59375 -6.972656 0.628906 -7.109375 0.703125 -7.203125 C 0.785156 -7.296875 0.898438 -7.34375 1.046875 -7.34375 Z M 1.046875 -7.34375 "/></g></g></g><g fill="#2d6d5e" fill-opacity="1"><g transform="translate(49.992372, 140.664893)"><g><path d="M 3.953125 -2.671875 C 3.953125 -2.253906 3.914062 -1.875 3.84375 -1.53125 C 3.78125 -1.1875 3.675781 -0.894531 3.53125 -0.65625 C 3.382812 -0.414062 3.195312 -0.226562 2.96875 -0.09375 C 2.75 0.03125 2.488281 0.09375 2.1875 0.09375 C 1.894531 0.09375 1.632812 0.03125 1.40625 -0.09375 C 1.1875 -0.226562 1.003906 -0.414062 0.859375 -0.65625 C 0.710938 -0.894531 0.601562 -1.1875 0.53125 -1.53125 C 0.457031 -1.875 0.421875 -2.253906 0.421875 -2.671875 C 0.421875 -3.265625 0.484375 -3.765625 0.609375 -4.171875 C 0.734375 -4.578125 0.925781 -4.890625 1.1875 -5.109375 C 1.457031 -5.328125 1.796875 -5.4375 2.203125 -5.4375 C 2.578125 -5.4375 2.894531 -5.332031 3.15625 -5.125 C 3.414062 -4.914062 3.613281 -4.601562 3.75 -4.1875 C 3.882812 -3.78125 3.953125 -3.273438 3.953125 -2.671875 Z M 1.1875 -2.671875 C 1.1875 -2.210938 1.222656 -1.820312 1.296875 -1.5 C 1.367188 -1.1875 1.476562 -0.953125 1.625 -0.796875 C 1.78125 -0.640625 1.972656 -0.5625 2.203125 -0.5625 C 2.429688 -0.5625 2.617188 -0.640625 2.765625 -0.796875 C 2.910156 -0.953125 3.019531 -1.1875 3.09375 -1.5 C 3.164062 -1.8125 3.203125 -2.203125 3.203125 -2.671875 C 3.203125 -3.140625 3.164062 -3.53125 3.09375 -3.84375 C 3.019531 -4.15625 2.910156 -4.390625 2.765625 -4.546875 C 2.617188 -4.703125 2.429688 -4.78125 2.203125 -4.78125 C 1.835938 -4.78125 1.578125 -4.601562 1.421875 -4.25 C 1.265625 -3.894531 1.1875 -3.367188 1.1875 -2.671875 Z M 1.1875 -2.671875 "/></g></g></g><g fill="#2d6d5e" fill-opacity="1"><g transform="translate(55.768074, 140.664893)"><g><path d="M 2.578125 -5.4375 C 2.992188 -5.4375 3.3125 -5.285156 3.53125 -4.984375 C 3.75 -4.691406 3.859375 -4.242188 3.859375 -3.640625 L 3.859375 0 L 3.109375 0 L 3.109375 -3.484375 C 3.109375 -3.910156 3.050781 -4.226562 2.9375 -4.4375 C 2.820312 -4.65625 2.644531 -4.765625 2.40625 -4.765625 C 2.0625 -4.765625 1.804688 -4.609375 1.640625 -4.296875 C 1.484375 -3.992188 1.40625 -3.5 1.40625 -2.8125 L 1.40625 0 L 0.65625 0 L 0.65625 -5.34375 L 1.25 -5.34375 L 1.328125 -4.5625 L 1.375 -4.5625 C 1.445312 -4.738281 1.539062 -4.890625 1.65625 -5.015625 C 1.78125 -5.148438 1.914062 -5.253906 2.0625 -5.328125 C 2.21875 -5.398438 2.390625 -5.4375 2.578125 -5.4375 Z M 2.578125 -5.4375 "/></g></g></g><g fill="#2d6d5e" fill-opacity="1"><g transform="translate(61.645807, 140.664893)"><g><path d="M 2.078125 -5.4375 C 2.566406 -5.4375 2.914062 -5.273438 3.125 -4.953125 C 3.34375 -4.640625 3.453125 -4.1875 3.453125 -3.59375 L 3.453125 0 L 2.875 0 L 2.765625 -0.765625 L 2.75 -0.765625 C 2.664062 -0.578125 2.566406 -0.421875 2.453125 -0.296875 C 2.335938 -0.171875 2.203125 -0.0703125 2.046875 0 C 1.898438 0.0625 1.726562 0.09375 1.53125 0.09375 C 1.257812 0.09375 1.035156 0.0195312 0.859375 -0.125 C 0.679688 -0.269531 0.550781 -0.457031 0.46875 -0.6875 C 0.382812 -0.925781 0.34375 -1.1875 0.34375 -1.46875 C 0.34375 -2 0.492188 -2.410156 0.796875 -2.703125 C 1.109375 -2.992188 1.539062 -3.148438 2.09375 -3.171875 L 2.703125 -3.21875 L 2.703125 -3.578125 C 2.703125 -4.003906 2.644531 -4.316406 2.53125 -4.515625 C 2.414062 -4.710938 2.226562 -4.8125 1.96875 -4.8125 C 1.820312 -4.8125 1.664062 -4.785156 1.5 -4.734375 C 1.332031 -4.679688 1.15625 -4.597656 0.96875 -4.484375 L 0.734375 -5.046875 C 0.929688 -5.179688 1.144531 -5.28125 1.375 -5.34375 C 1.601562 -5.40625 1.835938 -5.4375 2.078125 -5.4375 Z M 2.71875 -2.65625 L 2.21875 -2.625 C 1.84375 -2.601562 1.5625 -2.5 1.375 -2.3125 C 1.195312 -2.125 1.109375 -1.847656 1.109375 -1.484375 C 1.109375 -1.148438 1.164062 -0.90625 1.28125 -0.75 C 1.40625 -0.59375 1.570312 -0.515625 1.78125 -0.515625 C 2.070312 -0.515625 2.300781 -0.65625 2.46875 -0.9375 C 2.632812 -1.21875 2.71875 -1.613281 2.71875 -2.125 Z M 2.71875 -2.65625 "/></g></g></g><g fill="#2d6d5e" fill-opacity="1"><g transform="translate(67.125158, 140.664893)"><g><path d="M 1.40625 0 L 0.65625 0 L 0.65625 -7.5625 L 1.40625 -7.5625 Z M 1.40625 0 "/></g></g></g><g fill="#2d6d5e" fill-opacity="1"><g transform="translate(70.559156, 140.664893)"><g/></g></g><g fill="#2d6d5e" fill-opacity="1"><g transform="translate(73.798821, 140.664893)"><g><path d="M 3.015625 -1.40625 C 3.015625 -1.082031 2.957031 -0.804688 2.84375 -0.578125 C 2.726562 -0.359375 2.554688 -0.191406 2.328125 -0.078125 C 2.109375 0.0351562 1.84375 0.09375 1.53125 0.09375 C 1.28125 0.09375 1.050781 0.0625 0.84375 0 C 0.644531 -0.0507812 0.472656 -0.117188 0.328125 -0.203125 L 0.328125 -0.984375 C 0.472656 -0.859375 0.648438 -0.757812 0.859375 -0.6875 C 1.078125 -0.613281 1.289062 -0.578125 1.5 -0.578125 C 1.75 -0.578125 1.941406 -0.644531 2.078125 -0.78125 C 2.210938 -0.925781 2.28125 -1.128906 2.28125 -1.390625 C 2.28125 -1.535156 2.253906 -1.664062 2.203125 -1.78125 C 2.148438 -1.894531 2.0625 -2 1.9375 -2.09375 C 1.8125 -2.195312 1.648438 -2.304688 1.453125 -2.421875 C 1.234375 -2.554688 1.039062 -2.695312 0.875 -2.84375 C 0.707031 -2.988281 0.570312 -3.15625 0.46875 -3.34375 C 0.375 -3.539062 0.328125 -3.773438 0.328125 -4.046875 C 0.328125 -4.460938 0.460938 -4.796875 0.734375 -5.046875 C 1.003906 -5.304688 1.363281 -5.4375 1.8125 -5.4375 C 2.03125 -5.4375 2.238281 -5.40625 2.4375 -5.34375 C 2.644531 -5.289062 2.835938 -5.207031 3.015625 -5.09375 L 2.734375 -4.484375 C 2.597656 -4.578125 2.453125 -4.648438 2.296875 -4.703125 C 2.140625 -4.765625 1.984375 -4.796875 1.828125 -4.796875 C 1.585938 -4.796875 1.394531 -4.726562 1.25 -4.59375 C 1.113281 -4.457031 1.046875 -4.28125 1.046875 -4.0625 C 1.046875 -3.914062 1.070312 -3.785156 1.125 -3.671875 C 1.1875 -3.566406 1.28125 -3.460938 1.40625 -3.359375 C 1.53125 -3.265625 1.695312 -3.15625 1.90625 -3.03125 C 2.125 -2.882812 2.316406 -2.738281 2.484375 -2.59375 C 2.648438 -2.457031 2.78125 -2.296875 2.875 -2.109375 C 2.96875 -1.921875 3.015625 -1.6875 3.015625 -1.40625 Z M 3.015625 -1.40625 "/></g></g></g><g fill="#2d6d5e" fill-opacity="1"><g transform="translate(78.534846, 140.664893)"><g><path d="M 1.90625 -0.5625 C 1.988281 -0.5625 2.066406 -0.570312 2.140625 -0.59375 C 2.222656 -0.613281 2.300781 -0.640625 2.375 -0.671875 L 2.375 -0.046875 C 2.28125 -0.00390625 2.171875 0.0234375 2.046875 0.046875 C 1.929688 0.078125 1.804688 0.09375 1.671875 0.09375 C 1.441406 0.09375 1.25 0.0390625 1.09375 -0.0625 C 0.945312 -0.164062 0.835938 -0.316406 0.765625 -0.515625 C 0.703125 -0.722656 0.671875 -0.984375 0.671875 -1.296875 L 0.671875 -4.703125 L 0.171875 -4.703125 L 0.171875 -5.125 L 0.703125 -5.3125 L 0.90625 -6.546875 L 1.421875 -6.546875 L 1.421875 -5.34375 L 2.328125 -5.34375 L 2.328125 -4.703125 L 1.421875 -4.703125 L 1.421875 -1.390625 C 1.421875 -1.109375 1.453125 -0.898438 1.515625 -0.765625 C 1.585938 -0.628906 1.71875 -0.5625 1.90625 -0.5625 Z M 1.90625 -0.5625 "/></g></g></g><g fill="#2d6d5e" fill-opacity="1"><g transform="translate(82.449822, 140.664893)"><g><path d="M 2.078125 -5.4375 C 2.566406 -5.4375 2.914062 -5.273438 3.125 -4.953125 C 3.34375 -4.640625 3.453125 -4.1875 3.453125 -3.59375 L 3.453125 0 L 2.875 0 L 2.765625 -0.765625 L 2.75 -0.765625 C 2.664062 -0.578125 2.566406 -0.421875 2.453125 -0.296875 C 2.335938 -0.171875 2.203125 -0.0703125 2.046875 0 C 1.898438 0.0625 1.726562 0.09375 1.53125 0.09375 C 1.257812 0.09375 1.035156 0.0195312 0.859375 -0.125 C 0.679688 -0.269531 0.550781 -0.457031 0.46875 -0.6875 C 0.382812 -0.925781 0.34375 -1.1875 0.34375 -1.46875 C 0.34375 -2 0.492188 -2.410156 0.796875 -2.703125 C 1.109375 -2.992188 1.539062 -3.148438 2.09375 -3.171875 L 2.703125 -3.21875 L 2.703125 -3.578125 C 2.703125 -4.003906 2.644531 -4.316406 2.53125 -4.515625 C 2.414062 -4.710938 2.226562 -4.8125 1.96875 -4.8125 C 1.820312 -4.8125 1.664062 -4.785156 1.5 -4.734375 C 1.332031 -4.679688 1.15625 -4.597656 0.96875 -4.484375 L 0.734375 -5.046875 C 0.929688 -5.179688 1.144531 -5.28125 1.375 -5.34375 C 1.601562 -5.40625 1.835938 -5.4375 2.078125 -5.4375 Z M 2.71875 -2.65625 L 2.21875 -2.625 C 1.84375 -2.601562 1.5625 -2.5 1.375 -2.3125 C 1.195312 -2.125 1.109375 -1.847656 1.109375 -1.484375 C 1.109375 -1.148438 1.164062 -0.90625 1.28125 -0.75 C 1.40625 -0.59375 1.570312 -0.515625 1.78125 -0.515625 C 2.070312 -0.515625 2.300781 -0.65625 2.46875 -0.9375 C 2.632812 -1.21875 2.71875 -1.613281 2.71875 -2.125 Z M 2.71875 -2.65625 "/></g></g></g><g fill="#2d6d5e" fill-opacity="1"><g transform="translate(87.929173, 140.664893)"><g><path d="M 1.40625 -7.5625 L 1.40625 -5.34375 C 1.40625 -5.238281 1.398438 -5.117188 1.390625 -4.984375 C 1.390625 -4.859375 1.382812 -4.722656 1.375 -4.578125 L 1.40625 -4.578125 C 1.539062 -4.859375 1.707031 -5.066406 1.90625 -5.203125 C 2.101562 -5.347656 2.332031 -5.421875 2.59375 -5.421875 C 3.101562 -5.421875 3.488281 -5.1875 3.75 -4.71875 C 4.007812 -4.257812 4.140625 -3.578125 4.140625 -2.671875 C 4.140625 -2.078125 4.082031 -1.570312 3.96875 -1.15625 C 3.851562 -0.75 3.679688 -0.4375 3.453125 -0.21875 C 3.222656 -0.0078125 2.941406 0.09375 2.609375 0.09375 C 2.347656 0.09375 2.117188 0.03125 1.921875 -0.09375 C 1.722656 -0.226562 1.550781 -0.429688 1.40625 -0.703125 L 1.359375 -0.703125 L 1.265625 0 L 0.65625 0 L 0.65625 -7.5625 Z M 2.4375 -4.765625 C 2.15625 -4.765625 1.941406 -4.675781 1.796875 -4.5 C 1.648438 -4.332031 1.546875 -4.097656 1.484375 -3.796875 C 1.429688 -3.492188 1.40625 -3.148438 1.40625 -2.765625 L 1.40625 -2.53125 C 1.40625 -1.863281 1.488281 -1.363281 1.65625 -1.03125 C 1.832031 -0.707031 2.09375 -0.546875 2.4375 -0.546875 C 2.75 -0.546875 2.984375 -0.71875 3.140625 -1.0625 C 3.296875 -1.414062 3.375 -1.957031 3.375 -2.6875 C 3.375 -3.375 3.296875 -3.890625 3.140625 -4.234375 C 2.992188 -4.585938 2.757812 -4.765625 2.4375 -4.765625 Z M 2.4375 -4.765625 "/></g></g></g><g fill="#2d6d5e" fill-opacity="1"><g transform="translate(93.874922, 140.664893)"><g><path d="M 1.40625 -5.34375 L 1.40625 0 L 0.65625 0 L 0.65625 -5.34375 Z M 1.046875 -7.34375 C 1.191406 -7.34375 1.300781 -7.289062 1.375 -7.1875 C 1.445312 -7.09375 1.484375 -6.960938 1.484375 -6.796875 C 1.484375 -6.617188 1.445312 -6.484375 1.375 -6.390625 C 1.300781 -6.296875 1.191406 -6.25 1.046875 -6.25 C 0.898438 -6.25 0.785156 -6.296875 0.703125 -6.390625 C 0.628906 -6.484375 0.59375 -6.617188 0.59375 -6.796875 C 0.59375 -6.972656 0.628906 -7.109375 0.703125 -7.203125 C 0.785156 -7.296875 0.898438 -7.34375 1.046875 -7.34375 Z M 1.046875 -7.34375 "/></g></g></g><g fill="#2d6d5e" fill-opacity="1"><g transform="translate(97.328353, 140.664893)"><g><path d="M 1.40625 0 L 0.65625 0 L 0.65625 -7.5625 L 1.40625 -7.5625 Z M 1.40625 0 "/></g></g></g><g fill="#2d6d5e" fill-opacity="1"><g transform="translate(100.762351, 140.664893)"><g><path d="M 1.40625 -5.34375 L 1.40625 0 L 0.65625 0 L 0.65625 -5.34375 Z M 1.046875 -7.34375 C 1.191406 -7.34375 1.300781 -7.289062 1.375 -7.1875 C 1.445312 -7.09375 1.484375 -6.960938 1.484375 -6.796875 C 1.484375 -6.617188 1.445312 -6.484375 1.375 -6.390625 C 1.300781 -6.296875 1.191406 -6.25 1.046875 -6.25 C 0.898438 -6.25 0.785156 -6.296875 0.703125 -6.390625 C 0.628906 -6.484375 0.59375 -6.617188 0.59375 -6.796875 C 0.59375 -6.972656 0.628906 -7.109375 0.703125 -7.203125 C 0.785156 -7.296875 0.898438 -7.34375 1.046875 -7.34375 Z M 1.046875 -7.34375 "/></g></g></g><g fill="#2d6d5e" fill-opacity="1"><g transform="translate(104.215782, 140.664893)"><g><path d="M 1.90625 -0.5625 C 1.988281 -0.5625 2.066406 -0.570312 2.140625 -0.59375 C 2.222656 -0.613281 2.300781 -0.640625 2.375 -0.671875 L 2.375 -0.046875 C 2.28125 -0.00390625 2.171875 0.0234375 2.046875 0.046875 C 1.929688 0.078125 1.804688 0.09375 1.671875 0.09375 C 1.441406 0.09375 1.25 0.0390625 1.09375 -0.0625 C 0.945312 -0.164062 0.835938 -0.316406 0.765625 -0.515625 C 0.703125 -0.722656 0.671875 -0.984375 0.671875 -1.296875 L 0.671875 -4.703125 L 0.171875 -4.703125 L 0.171875 -5.125 L 0.703125 -5.3125 L 0.90625 -6.546875 L 1.421875 -6.546875 L 1.421875 -5.34375 L 2.328125 -5.34375 L 2.328125 -4.703125 L 1.421875 -4.703125 L 1.421875 -1.390625 C 1.421875 -1.109375 1.453125 -0.898438 1.515625 -0.765625 C 1.585938 -0.628906 1.71875 -0.5625 1.90625 -0.5625 Z M 1.90625 -0.5625 "/></g></g></g><g fill="#2d6d5e" fill-opacity="1"><g transform="translate(108.130758, 140.664893)"><g><path d="M 0.0625 -5.34375 L 0.828125 -5.34375 L 1.578125 -2.21875 C 1.609375 -2.082031 1.632812 -1.945312 1.65625 -1.8125 C 1.6875 -1.6875 1.710938 -1.554688 1.734375 -1.421875 C 1.765625 -1.296875 1.789062 -1.171875 1.8125 -1.046875 L 1.84375 -1.046875 C 1.875 -1.234375 1.90625 -1.421875 1.9375 -1.609375 C 1.976562 -1.804688 2.023438 -2.007812 2.078125 -2.21875 L 2.8125 -5.34375 L 3.578125 -5.34375 L 2 0.859375 C 1.90625 1.210938 1.796875 1.503906 1.671875 1.734375 C 1.546875 1.960938 1.394531 2.128906 1.21875 2.234375 C 1.050781 2.335938 0.851562 2.390625 0.625 2.390625 C 0.539062 2.390625 0.457031 2.378906 0.375 2.359375 C 0.300781 2.347656 0.222656 2.332031 0.140625 2.3125 L 0.140625 1.640625 C 0.203125 1.660156 0.265625 1.675781 0.328125 1.6875 C 0.390625 1.707031 0.453125 1.71875 0.515625 1.71875 C 0.640625 1.71875 0.742188 1.6875 0.828125 1.625 C 0.921875 1.5625 1 1.457031 1.0625 1.3125 C 1.132812 1.164062 1.203125 0.960938 1.265625 0.703125 L 1.453125 -0.03125 Z M 0.0625 -5.34375 "/></g></g></g><g clip-path="url(#5e9affa553)"><path fill="#0661aa" d="M 40.335938 45.710938 C 40.359375 46.097656 40.382812 46.484375 40.429688 46.871094 C 40.429688 46.894531 40.441406 46.917969 40.441406 46.941406 C 40.96875 52.046875 42.925781 56.878906 46.117188 60.972656 C 45.707031 61.136719 45.296875 61.3125 44.898438 61.488281 C 43.265625 62.21875 41.449219 63.132812 40.664062 64.894531 C 40.132812 66.066406 40.417969 67.273438 40.792969 68.414062 C 41.402344 70.230469 43.480469 71.21875 45.132812 71.21875 L 48.535156 71.21875 C 50.378906 71.21875 52.828125 71.21875 55.621094 71.21875 L 70.617188 71.21875 C 71.484375 71.21875 72.339844 71.21875 73.199219 71.21875 C 73.960938 71.21875 74.710938 71.21875 75.449219 71.21875 C 77.316406 71.21875 79.101562 71.21875 80.742188 71.21875 L 85.210938 71.21875 C 86.234375 71.21875 87.125 71.21875 87.886719 71.21875 C 89.542969 71.21875 91.628906 70.230469 92.230469 68.414062 C 92.464844 67.695312 92.664062 66.957031 92.652344 66.207031 C 93.050781 66.289062 93.460938 66.359375 93.871094 66.40625 L 94.1875 66.441406 L 94.28125 66.136719 C 94.820312 64.375 94.375 62.371094 93.144531 61.007812 C 92.546875 60.351562 91.78125 59.847656 90.902344 59.554688 C 90.796875 59.519531 90.691406 59.496094 90.574219 59.472656 C 89.90625 59.355469 89.167969 59.0625 88.507812 58.675781 C 89.777344 56.644531 90.796875 54.449219 91.511719 52.128906 C 91.523438 52.082031 91.535156 52.035156 91.546875 51.988281 C 91.652344 51.644531 91.746094 51.292969 91.84375 50.941406 C 91.878906 50.824219 91.902344 50.707031 91.925781 50.589844 C 91.996094 50.308594 92.066406 50.015625 92.125 49.722656 C 92.160156 49.570312 92.183594 49.429688 92.21875 49.277344 C 92.265625 49.019531 92.3125 48.75 92.359375 48.476562 C 92.382812 48.3125 92.417969 48.148438 92.441406 47.996094 C 92.476562 47.738281 92.511719 47.46875 92.546875 47.210938 C 92.570312 47.046875 92.582031 46.882812 92.605469 46.71875 C 92.628906 46.4375 92.652344 46.144531 92.675781 45.863281 C 92.6875 45.722656 92.699219 45.582031 92.699219 45.441406 C 92.722656 45.003906 92.734375 44.582031 92.734375 44.148438 C 92.734375 43.726562 92.722656 43.316406 92.699219 42.90625 C 92.699219 42.789062 92.6875 42.671875 92.675781 42.566406 C 92.652344 42.261719 92.640625 41.953125 92.605469 41.648438 C 92.59375 41.53125 92.582031 41.414062 92.570312 41.296875 C 92.535156 40.992188 92.5 40.6875 92.453125 40.382812 C 92.441406 40.289062 92.429688 40.195312 92.40625 40.101562 C 92.347656 39.761719 92.289062 39.421875 92.21875 39.082031 C 92.207031 39.023438 92.195312 38.976562 92.183594 38.914062 C 91.9375 37.707031 91.59375 36.523438 91.171875 35.359375 L 91.066406 35.089844 L 91.054688 35.089844 C 87.910156 26.902344 80.578125 20.835938 71.449219 19.214844 C 70.699219 16.882812 68.773438 15.214844 66.511719 15.214844 C 64.257812 15.214844 62.332031 16.882812 61.570312 19.214844 C 51.550781 21 43.703125 28.121094 41.167969 37.542969 L 41.15625 37.566406 L 41.132812 37.660156 C 40.804688 38.902344 40.582031 40.183594 40.453125 41.472656 C 40.453125 41.496094 40.453125 41.519531 40.441406 41.542969 C 40.40625 41.929688 40.371094 42.332031 40.347656 42.730469 C 40.347656 42.8125 40.335938 42.882812 40.335938 42.964844 C 40.3125 43.363281 40.300781 43.761719 40.300781 44.160156 C 40.300781 44.617188 40.3125 45.0625 40.335938 45.511719 C 40.324219 45.582031 40.324219 45.640625 40.335938 45.710938 Z M 62.414062 19.074219 C 63.144531 17.246094 64.691406 15.976562 66.488281 15.976562 C 68.28125 15.976562 69.832031 17.246094 70.558594 19.074219 C 70.617188 19.214844 70.664062 19.34375 70.710938 19.484375 C 70.757812 19.617188 70.792969 19.757812 70.828125 19.886719 C 70.945312 20.367188 71.003906 20.859375 71.003906 21.386719 C 71.003906 22.984375 70.417969 24.414062 69.503906 25.398438 C 69.386719 25.527344 69.269531 25.644531 69.136719 25.75 C 69.019531 25.855469 68.890625 25.949219 68.773438 26.042969 C 68.667969 26.128906 68.550781 26.199219 68.445312 26.257812 C 68.480469 26.164062 68.492188 26.070312 68.492188 25.960938 C 68.492188 25.738281 68.410156 25.539062 68.28125 25.363281 C 68.222656 25.28125 68.152344 25.210938 68.070312 25.152344 C 67.976562 25.09375 67.894531 25.035156 67.8125 24.976562 C 67.601562 24.835938 67.402344 24.707031 67.203125 24.589844 C 66.640625 24.25 66.113281 23.992188 65.617188 23.816406 C 65.40625 23.734375 65.160156 23.734375 64.9375 23.804688 C 64.246094 24.039062 63.601562 24.390625 63.039062 24.835938 C 62.378906 23.898438 61.980469 22.6875 61.980469 21.363281 C 61.980469 20.847656 62.050781 20.34375 62.15625 19.863281 C 62.191406 19.722656 62.226562 19.589844 62.273438 19.460938 C 62.308594 19.34375 62.355469 19.214844 62.414062 19.074219 Z M 60.46875 70.429688 L 56.375 70.429688 L 56.375 69.960938 C 56.445312 69.667969 56.621094 69.410156 56.832031 69.199219 C 56.925781 69.105469 57.042969 69.023438 57.148438 68.941406 C 57.289062 68.847656 57.429688 68.753906 57.570312 68.683594 C 57.710938 68.613281 57.851562 68.542969 57.96875 68.507812 C 58.203125 68.414062 58.449219 68.332031 58.683594 68.25 C 59.304688 68.039062 59.941406 67.824219 60.492188 67.414062 C 60.832031 67.167969 61.113281 66.863281 61.394531 66.546875 C 61.464844 66.464844 61.546875 66.371094 61.617188 66.289062 C 62.109375 65.703125 62.578125 65.152344 63.226562 65 C 63.25 65 63.273438 65 63.296875 64.988281 C 63.753906 64.90625 64.28125 65.011719 64.878906 65.316406 C 65.160156 65.457031 65.429688 65.632812 65.699219 65.808594 C 65.980469 65.984375 66.277344 66.171875 66.582031 66.335938 C 66.582031 66.335938 66.59375 66.335938 66.59375 66.335938 C 66.863281 66.476562 67.15625 66.59375 67.496094 66.6875 C 67.496094 66.6875 67.496094 66.699219 67.496094 66.699219 C 67.074219 67.894531 66.851562 69.140625 66.816406 70.40625 C 66.816406 70.40625 66.816406 70.417969 66.816406 70.417969 L 60.46875 70.417969 Z M 85 70.429688 C 81.726562 70.429688 77.269531 70.429688 72.53125 70.429688 L 67.589844 70.429688 C 67.589844 70.417969 67.589844 70.40625 67.589844 70.394531 C 67.636719 69.199219 67.859375 68.027344 68.257812 66.886719 C 68.714844 66.96875 69.183594 67.003906 69.65625 67.003906 C 69.785156 67.003906 69.914062 67.003906 70.042969 66.992188 C 70.171875 66.992188 70.300781 66.980469 70.429688 66.96875 C 71.308594 66.910156 72.199219 66.757812 73.082031 66.605469 C 73.457031 66.546875 73.832031 66.476562 74.195312 66.417969 C 77.011719 65.984375 79.125 65.75 80.835938 65.691406 C 80.847656 65.691406 80.871094 65.691406 80.882812 65.691406 C 81.105469 65.679688 81.316406 65.679688 81.527344 65.679688 C 81.527344 65.679688 81.527344 65.679688 81.539062 65.679688 C 81.738281 65.679688 81.9375 65.679688 82.128906 65.679688 C 82.140625 65.679688 82.152344 65.679688 82.164062 65.679688 C 83.640625 65.714844 84.8125 65.9375 85.976562 66.3125 C 86.175781 66.382812 86.386719 66.265625 86.457031 66.066406 C 86.527344 65.867188 86.410156 65.65625 86.210938 65.585938 C 85.210938 65.257812 84.203125 65.046875 83.042969 64.953125 C 83.03125 64.953125 83.019531 64.953125 83.007812 64.953125 C 82.84375 64.941406 82.667969 64.929688 82.492188 64.917969 C 82.304688 64.90625 82.113281 64.90625 81.925781 64.90625 C 81.914062 64.90625 81.890625 64.90625 81.878906 64.90625 C 79.957031 64.882812 77.550781 65.128906 74.113281 65.65625 C 73.738281 65.714844 73.363281 65.773438 72.976562 65.84375 C 72.082031 65.996094 71.179688 66.148438 70.289062 66.207031 C 70.160156 66.21875 70.03125 66.21875 69.902344 66.21875 C 69.773438 66.21875 69.644531 66.21875 69.515625 66.21875 C 69.171875 66.207031 68.832031 66.183594 68.503906 66.125 C 68.070312 66.054688 67.648438 65.9375 67.25 65.761719 C 67.15625 65.726562 67.074219 65.679688 66.992188 65.644531 C 66.710938 65.503906 66.453125 65.328125 66.171875 65.152344 C 65.886719 64.976562 65.59375 64.789062 65.289062 64.621094 C 64.796875 64.363281 64.316406 64.210938 63.882812 64.175781 C 63.613281 64.152344 63.355469 64.175781 63.121094 64.234375 C 63.015625 64.257812 62.898438 64.292969 62.804688 64.339844 C 62.449219 64.480469 62.144531 64.691406 61.863281 64.953125 C 61.59375 65.210938 61.347656 65.492188 61.101562 65.785156 C 61.042969 65.84375 60.996094 65.914062 60.9375 65.972656 C 60.667969 66.289062 60.410156 66.570312 60.105469 66.792969 C 59.648438 67.132812 59.09375 67.320312 58.507812 67.519531 C 58.25 67.601562 58.003906 67.695312 57.757812 67.789062 C 57.382812 67.941406 57.054688 68.121094 56.773438 68.320312 C 56.644531 68.414062 56.527344 68.507812 56.421875 68.601562 C 56.324219 68.683594 56.242188 68.777344 56.160156 68.871094 C 55.914062 69.164062 55.75 69.480469 55.679688 69.832031 L 55.679688 70.417969 C 52.875 70.417969 50.425781 70.417969 48.582031 70.417969 L 45.179688 70.417969 C 43.773438 70.417969 42.035156 69.5625 41.566406 68.144531 C 41.191406 67.003906 41.015625 66.054688 41.414062 65.175781 C 42.09375 63.660156 43.761719 62.828125 45.261719 62.160156 C 45.730469 61.949219 46.210938 61.75 46.683594 61.5625 C 46.695312 61.5625 46.695312 61.5625 46.707031 61.550781 C 46.824219 61.5 46.941406 61.453125 47.058594 61.40625 C 47.1875 61.359375 47.304688 61.3125 47.421875 61.265625 C 47.433594 61.265625 47.433594 61.265625 47.445312 61.253906 C 48.042969 61.019531 48.652344 60.796875 49.25 60.585938 C 49.449219 60.515625 49.660156 60.433594 49.859375 60.363281 C 50.0625 60.292969 50.261719 60.234375 50.460938 60.164062 C 52.851562 59.367188 55.175781 58.722656 57.277344 58.167969 C 57.535156 58.273438 57.886719 58.324219 58.179688 58.417969 L 58.519531 58.570312 L 58.578125 58.59375 C 58.953125 58.699219 59.386719 58.769531 59.800781 58.863281 C 60.175781 58.945312 60.527344 59.039062 60.925781 59.109375 C 62.027344 59.308594 63.179688 59.460938 64.398438 59.53125 C 64.738281 59.554688 65.078125 59.566406 65.417969 59.578125 C 65.464844 59.578125 65.511719 59.578125 65.558594 59.578125 C 65.886719 59.589844 66.230469 59.589844 66.570312 59.589844 C 66.910156 59.589844 67.238281 59.578125 67.578125 59.578125 C 67.625 59.578125 67.671875 59.578125 67.71875 59.578125 C 67.917969 59.566406 68.105469 59.566406 68.292969 59.554688 C 68.421875 59.542969 68.550781 59.542969 68.667969 59.53125 C 68.691406 59.53125 68.703125 59.53125 68.726562 59.53125 C 68.832031 59.519531 68.9375 59.519531 69.054688 59.507812 C 69.171875 59.496094 69.269531 59.472656 69.386719 59.460938 C 70.417969 59.378906 71.402344 59.25 72.339844 59.074219 C 72.742188 59.003906 73.082031 58.910156 73.445312 58.828125 C 73.808594 58.746094 74.207031 58.675781 74.546875 58.582031 L 74.898438 58.417969 C 75.191406 58.324219 75.566406 58.261719 75.839844 58.15625 C 78.40625 58.828125 81.28125 59.636719 84.226562 60.691406 L 84.777344 61.441406 C 84.800781 61.476562 84.941406 61.621094 85.164062 61.84375 C 85.164062 61.855469 85.175781 61.855469 85.1875 61.867188 C 85.269531 61.949219 85.355469 62.03125 85.460938 62.125 C 85.542969 62.207031 85.625 62.277344 85.71875 62.371094 C 85.730469 62.382812 85.730469 62.382812 85.742188 62.394531 C 86.925781 63.460938 89.132812 65.164062 91.9375 65.972656 C 91.996094 66.628906 91.84375 67.320312 91.570312 68.132812 C 91.101562 69.5625 89.355469 70.40625 87.957031 70.40625 C 87.054688 70.429688 86.09375 70.429688 85 70.429688 Z M 91.359375 49.558594 C 91.300781 49.851562 91.230469 50.132812 91.160156 50.414062 C 91.136719 50.519531 91.113281 50.625 91.078125 50.730469 C 90.984375 51.105469 90.878906 51.46875 90.761719 51.847656 C 90.761719 51.859375 90.75 51.871094 90.75 51.882812 C 90.058594 54.132812 89.074219 56.28125 87.828125 58.25 C 87.828125 58.25 87.816406 58.238281 87.816406 58.238281 C 87.5 57.992188 87.21875 57.734375 87.019531 57.476562 C 86.410156 56.679688 85.882812 55.953125 85.402344 55.261719 C 83.335938 52.304688 81.902344 49.652344 80.976562 47.058594 C 84.53125 46.53125 88.261719 47.363281 91.253906 49.359375 C 91.300781 49.382812 91.347656 49.40625 91.394531 49.417969 C 91.382812 49.464844 91.371094 49.511719 91.359375 49.558594 Z M 54.625 39.632812 C 54.636719 39.410156 54.648438 39.1875 54.671875 38.976562 C 54.695312 38.703125 54.730469 38.421875 54.765625 38.152344 C 54.800781 37.882812 54.835938 37.625 54.859375 37.367188 C 54.882812 37.109375 54.90625 36.839844 54.917969 36.570312 C 54.964844 35.972656 55 35.40625 55.128906 34.855469 C 55.304688 34.117188 56.066406 33.191406 56.667969 32.792969 C 57.699219 32.109375 58.894531 31.488281 60.222656 30.9375 C 59.480469 32.460938 58.484375 34.105469 57.007812 36.289062 C 56.890625 36.464844 56.9375 36.699219 57.113281 36.816406 C 57.183594 36.863281 57.265625 36.875 57.347656 36.875 C 57.464844 36.863281 57.570312 36.816406 57.640625 36.710938 C 57.863281 36.382812 58.0625 36.078125 58.273438 35.773438 C 58.601562 35.265625 58.917969 34.785156 59.199219 34.328125 C 59.859375 33.285156 60.375 32.355469 60.820312 31.464844 C 60.855469 31.394531 60.890625 31.324219 60.925781 31.253906 C 61.019531 31.054688 61.113281 30.855469 61.207031 30.65625 C 61.21875 30.632812 61.230469 30.609375 61.242188 30.585938 C 61.242188 30.585938 61.242188 30.574219 61.242188 30.574219 C 61.324219 30.398438 61.40625 30.210938 61.476562 30.035156 C 61.5 29.964844 61.535156 29.894531 61.558594 29.824219 C 61.59375 29.730469 61.628906 29.648438 61.664062 29.554688 C 61.804688 29.1875 61.933594 28.824219 62.0625 28.460938 C 62.167969 28.167969 62.238281 27.875 62.308594 27.59375 C 62.472656 26.972656 62.625 26.421875 62.96875 25.960938 C 63.039062 25.867188 63.121094 25.773438 63.214844 25.679688 C 63.296875 25.609375 63.378906 25.539062 63.472656 25.46875 C 63.484375 25.457031 63.496094 25.445312 63.507812 25.433594 C 63.625 25.339844 63.742188 25.257812 63.859375 25.175781 C 63.964844 25.105469 64.058594 25.035156 64.175781 24.976562 C 64.433594 24.824219 64.714844 24.707031 64.996094 24.589844 C 65.054688 24.566406 65.113281 24.542969 65.171875 24.519531 C 65.230469 24.496094 65.289062 24.496094 65.335938 24.519531 C 65.382812 24.542969 65.441406 24.566406 65.488281 24.589844 C 65.746094 24.695312 66.019531 24.824219 66.3125 24.976562 C 66.523438 25.09375 66.746094 25.210938 66.980469 25.351562 C 67.191406 25.480469 67.402344 25.621094 67.625 25.773438 C 67.707031 25.832031 67.71875 25.902344 67.71875 25.949219 C 67.71875 25.984375 67.707031 26.082031 67.613281 26.140625 C 67.355469 26.316406 67.167969 26.527344 67.003906 26.738281 C 67.003906 26.773438 66.992188 26.785156 66.980469 26.785156 C 66.910156 26.867188 66.839844 26.960938 66.757812 27.042969 C 66.722656 27.089844 66.675781 27.125 66.640625 27.160156 C 66.5 27.300781 66.371094 27.417969 66.230469 27.535156 C 66.195312 27.570312 66.148438 27.605469 66.101562 27.640625 C 65.324219 28.296875 64.515625 28.976562 63.449219 32.226562 C 63.179688 33.039062 62.910156 33.894531 62.601562 34.773438 C 62.601562 34.773438 62.601562 34.785156 62.601562 34.785156 C 62.542969 34.960938 62.484375 35.125 62.425781 35.300781 C 62.425781 35.300781 62.425781 35.300781 62.425781 35.3125 C 62.367188 35.476562 62.308594 35.640625 62.25 35.808594 C 62.25 35.808594 62.25 35.820312 62.238281 35.820312 C 61.371094 38.269531 60.375 40.828125 59.164062 42.964844 C 59.164062 42.964844 59.105469 43.058594 59.011719 43.175781 C 58.917969 43.292969 58.789062 43.433594 58.636719 43.5625 C 58.519531 43.65625 58.390625 43.75 58.261719 43.820312 C 58.097656 43.902344 57.921875 43.960938 57.734375 43.960938 C 57.722656 43.960938 57.722656 43.960938 57.710938 43.960938 C 57.160156 44.03125 56.585938 43.867188 56.171875 43.503906 C 56.089844 43.433594 56.007812 43.351562 55.9375 43.257812 C 55.867188 43.164062 55.808594 43.070312 55.738281 42.976562 C 55.539062 42.695312 55.363281 42.414062 55.210938 42.140625 C 55.070312 41.882812 54.941406 41.625 54.847656 41.367188 C 54.742188 41.085938 54.683594 40.792969 54.648438 40.476562 C 54.613281 40.207031 54.613281 39.925781 54.625 39.632812 Z M 68.960938 28.308594 C 69.054688 29.117188 69.632812 29.8125 70.429688 30.070312 C 70.746094 30.175781 71.074219 30.28125 71.390625 30.398438 C 71.378906 30.503906 71.367188 30.597656 71.355469 30.703125 C 71.34375 30.84375 71.332031 30.972656 71.308594 31.101562 C 71.285156 31.253906 71.273438 31.394531 71.25 31.535156 C 71.226562 31.664062 71.214844 31.792969 71.191406 31.921875 C 71.167969 32.0625 71.132812 32.203125 71.109375 32.34375 C 71.085938 32.472656 71.0625 32.59375 71.027344 32.722656 C 70.992188 32.863281 70.957031 32.992188 70.921875 33.121094 C 70.886719 33.238281 70.863281 33.355469 70.828125 33.472656 C 70.792969 33.601562 70.746094 33.730469 70.710938 33.847656 C 70.675781 33.964844 70.640625 34.070312 70.605469 34.175781 C 70.558594 34.292969 70.511719 34.410156 70.464844 34.527344 C 70.429688 34.632812 70.382812 34.738281 70.335938 34.84375 C 70.289062 34.960938 70.230469 35.066406 70.183594 35.171875 C 70.136719 35.265625 70.089844 35.371094 70.042969 35.464844 C 69.984375 35.570312 69.9375 35.664062 69.878906 35.773438 C 69.832031 35.867188 69.785156 35.949219 69.726562 36.042969 C 69.667969 36.136719 69.609375 36.230469 69.550781 36.324219 C 69.492188 36.40625 69.445312 36.488281 69.386719 36.570312 C 69.328125 36.652344 69.257812 36.734375 69.195312 36.816406 C 69.136719 36.886719 69.078125 36.957031 69.019531 37.027344 C 68.949219 37.109375 68.878906 37.167969 68.808594 37.25 C 68.75 37.308594 68.691406 37.378906 68.632812 37.425781 C 68.5625 37.496094 68.480469 37.554688 68.410156 37.613281 C 68.351562 37.660156 68.292969 37.71875 68.234375 37.765625 C 68.152344 37.824219 68.070312 37.871094 68 37.917969 C 67.941406 37.953125 67.882812 38 67.8125 38.035156 C 67.730469 38.082031 67.636719 38.117188 67.554688 38.152344 C 67.496094 38.175781 67.4375 38.210938 67.378906 38.234375 C 67.285156 38.269531 67.179688 38.292969 67.085938 38.316406 C 67.039062 38.328125 66.980469 38.351562 66.933594 38.351562 C 66.78125 38.375 66.628906 38.386719 66.476562 38.386719 C 66.335938 38.386719 66.183594 38.375 66.042969 38.351562 C 65.921875 38.328125 65.804688 38.292969 65.6875 38.257812 C 65.664062 38.246094 65.652344 38.246094 65.628906 38.246094 C 64.65625 37.917969 63.765625 37.050781 63.074219 35.785156 C 63.074219 35.785156 63.074219 35.773438 63.074219 35.773438 C 63.472656 34.632812 63.835938 33.519531 64.175781 32.484375 C 65.171875 29.4375 65.863281 28.859375 66.59375 28.238281 C 66.828125 28.050781 67.0625 27.839844 67.308594 27.570312 C 67.34375 27.535156 67.367188 27.5 67.402344 27.464844 C 67.894531 27.359375 68.375 27.171875 68.808594 26.925781 C 68.855469 27.382812 68.902344 27.851562 68.960938 28.308594 Z M 72.128906 30.679688 C 72.964844 31.007812 73.773438 31.371094 74.535156 31.757812 C 74.523438 31.792969 74.523438 31.828125 74.511719 31.863281 C 74.488281 31.945312 74.476562 32.039062 74.453125 32.121094 C 74.429688 32.203125 74.417969 32.285156 74.394531 32.378906 C 74.371094 32.472656 74.359375 32.558594 74.335938 32.652344 C 74.3125 32.734375 74.300781 32.816406 74.277344 32.898438 C 74.253906 32.992188 74.242188 33.074219 74.21875 33.167969 C 74.207031 33.25 74.183594 33.332031 74.171875 33.414062 C 74.148438 33.507812 74.136719 33.589844 74.125 33.683594 C 74.113281 33.765625 74.089844 33.847656 74.078125 33.929688 C 74.066406 34.023438 74.042969 34.105469 74.03125 34.199219 C 74.019531 34.28125 74.007812 34.363281 73.984375 34.445312 C 73.972656 34.539062 73.960938 34.621094 73.949219 34.714844 C 73.9375 34.796875 73.925781 34.890625 73.914062 34.972656 C 73.902344 35.054688 73.890625 35.148438 73.878906 35.230469 C 73.867188 35.3125 73.855469 35.40625 73.855469 35.488281 C 73.84375 35.570312 73.832031 35.652344 73.832031 35.75 C 73.820312 35.832031 73.820312 35.925781 73.808594 36.007812 C 73.796875 36.089844 73.796875 36.171875 73.796875 36.253906 C 73.796875 36.347656 73.785156 36.429688 73.785156 36.523438 C 73.785156 36.605469 73.773438 36.6875 73.773438 36.769531 C 73.773438 36.863281 73.773438 36.957031 73.773438 37.039062 C 73.773438 37.121094 73.773438 37.191406 73.773438 37.273438 C 73.773438 37.367188 73.785156 37.460938 73.785156 37.554688 C 73.785156 37.625 73.785156 37.695312 73.796875 37.777344 C 73.808594 37.882812 73.808594 37.976562 73.820312 38.070312 C 73.832031 38.140625 73.832031 38.199219 73.84375 38.269531 C 73.855469 38.375 73.878906 38.480469 73.890625 38.585938 C 73.902344 38.644531 73.902344 38.703125 73.914062 38.761719 C 73.9375 38.890625 73.960938 39.011719 73.984375 39.140625 C 73.996094 39.175781 73.996094 39.210938 74.007812 39.257812 C 74.042969 39.421875 74.089844 39.585938 74.136719 39.738281 L 74.136719 39.761719 L 74.171875 40.066406 C 74.195312 40.875 74.171875 41.695312 74.113281 42.519531 C 74.101562 42.683594 74.089844 42.847656 74.078125 43.011719 C 74.066406 43.175781 74.054688 43.339844 74.03125 43.503906 C 73.984375 43.9375 73.925781 44.371094 73.855469 44.804688 C 73.785156 44.792969 73.703125 44.78125 73.632812 44.816406 C 73.046875 45.039062 72.433594 45.179688 71.8125 45.226562 C 71.613281 45.238281 71.414062 45.25 71.214844 45.25 C 71.039062 45.25 70.863281 45.238281 70.675781 45.226562 C 70.21875 45.191406 69.761719 45.109375 69.316406 44.980469 C 69.113281 44.921875 68.902344 45.039062 68.84375 45.238281 C 68.785156 45.441406 68.902344 45.652344 69.101562 45.710938 C 69.410156 45.804688 69.714844 45.863281 70.019531 45.921875 C 70.171875 45.945312 70.335938 45.96875 70.488281 45.980469 C 70.652344 45.992188 70.816406 46.003906 70.980469 46.015625 C 71.0625 46.015625 71.132812 46.027344 71.214844 46.027344 C 72.058594 46.027344 72.90625 45.875 73.703125 45.59375 C 73.621094 46.039062 73.527344 46.484375 73.421875 46.929688 C 73.351562 47.210938 73.292969 47.503906 73.246094 47.820312 C 73.082031 48.855469 73.199219 49.898438 73.609375 50.835938 C 74.464844 52.832031 74.96875 55.070312 75.097656 57.5 L 74.570312 57.746094 C 74.113281 57.886719 73.65625 58.027344 73.140625 58.144531 C 72.789062 58.226562 72.449219 58.3125 72.070312 58.382812 C 71.132812 58.546875 70.148438 58.675781 69.101562 58.757812 C 69.019531 58.769531 68.9375 58.78125 68.855469 58.78125 C 68.726562 58.792969 68.597656 58.804688 68.46875 58.804688 C 68.339844 58.816406 68.210938 58.816406 68.09375 58.816406 C 67.929688 58.828125 67.765625 58.828125 67.601562 58.839844 C 67.554688 58.839844 67.507812 58.839844 67.460938 58.839844 C 67.144531 58.851562 66.816406 58.851562 66.488281 58.851562 C 66.160156 58.851562 65.828125 58.839844 65.511719 58.839844 C 65.464844 58.839844 65.417969 58.839844 65.371094 58.839844 C 63.988281 58.792969 62.683594 58.652344 61.453125 58.464844 C 61.019531 58.394531 60.632812 58.285156 60.222656 58.203125 C 59.554688 58.0625 58.917969 57.898438 58.34375 57.710938 L 57.886719 57.5 C 58.015625 55.074219 58.519531 52.832031 59.375 50.835938 C 59.777344 49.898438 59.90625 48.855469 59.742188 47.820312 C 59.695312 47.503906 59.636719 47.210938 59.566406 46.929688 C 59.457031 46.484375 59.351562 46.015625 59.269531 45.511719 C 59.28125 45.511719 59.292969 45.523438 59.304688 45.535156 C 60.164062 45.863281 61.078125 46.027344 61.992188 46.027344 C 62.707031 46.027344 63.425781 45.921875 64.117188 45.722656 C 64.316406 45.664062 64.433594 45.453125 64.375 45.25 C 64.316406 45.050781 64.105469 44.933594 63.90625 44.992188 C 62.496094 45.417969 60.972656 45.355469 59.601562 44.828125 C 59.457031 44.769531 59.292969 44.816406 59.1875 44.910156 C 59.152344 44.6875 59.117188 44.464844 59.09375 44.230469 C 59.566406 43.855469 59.847656 43.421875 59.882812 43.375 C 61.019531 41.355469 61.96875 39.011719 62.804688 36.710938 C 63.542969 37.835938 64.433594 38.609375 65.417969 38.953125 C 65.453125 38.964844 65.488281 38.976562 65.535156 38.988281 C 65.59375 39.011719 65.664062 39.023438 65.722656 39.046875 C 65.828125 39.070312 65.945312 39.09375 66.054688 39.117188 C 66.089844 39.117188 66.125 39.128906 66.160156 39.128906 C 66.289062 39.140625 66.417969 39.152344 66.546875 39.152344 C 66.722656 39.152344 66.886719 39.140625 67.050781 39.117188 C 67.0625 39.117188 67.0625 39.117188 67.074219 39.117188 C 67.238281 39.09375 67.390625 39.046875 67.554688 39 C 67.566406 39 67.578125 38.988281 67.589844 38.988281 C 67.742188 38.9375 67.894531 38.867188 68.046875 38.796875 C 68.058594 38.785156 68.082031 38.785156 68.09375 38.773438 C 68.234375 38.703125 68.386719 38.621094 68.527344 38.527344 C 68.539062 38.515625 68.5625 38.503906 68.574219 38.492188 C 68.714844 38.398438 68.84375 38.292969 68.984375 38.1875 C 69.007812 38.175781 69.019531 38.152344 69.042969 38.140625 C 69.171875 38.023438 69.304688 37.90625 69.433594 37.777344 C 69.457031 37.753906 69.46875 37.742188 69.492188 37.71875 C 69.621094 37.589844 69.738281 37.449219 69.855469 37.296875 C 69.867188 37.273438 69.890625 37.25 69.902344 37.226562 C 70.019531 37.074219 70.136719 36.921875 70.242188 36.757812 C 70.253906 36.734375 70.277344 36.710938 70.289062 36.6875 C 70.394531 36.523438 70.5 36.347656 70.605469 36.171875 C 70.617188 36.148438 70.628906 36.125 70.652344 36.089844 C 70.757812 35.902344 70.851562 35.710938 70.945312 35.511719 C 70.957031 35.488281 70.96875 35.464844 70.980469 35.429688 C 71.074219 35.230469 71.167969 35.019531 71.25 34.808594 C 71.261719 34.785156 71.273438 34.761719 71.273438 34.738281 C 71.355469 34.515625 71.4375 34.292969 71.519531 34.058594 C 71.53125 34.035156 71.53125 34.011719 71.542969 33.988281 C 71.613281 33.753906 71.695312 33.507812 71.753906 33.261719 C 71.753906 33.25 71.765625 33.226562 71.765625 33.214844 C 71.835938 32.957031 71.894531 32.699219 71.953125 32.425781 C 71.953125 32.414062 71.953125 32.414062 71.953125 32.402344 C 72.070312 31.851562 72.152344 31.277344 72.210938 30.679688 C 72.128906 30.691406 72.128906 30.679688 72.128906 30.679688 Z M 75.851562 57.429688 C 75.710938 54.917969 75.191406 52.597656 74.3125 50.53125 C 73.972656 49.734375 73.867188 48.832031 74.007812 47.9375 C 74.054688 47.644531 74.113281 47.363281 74.171875 47.105469 C 74.476562 45.875 74.6875 44.582031 74.804688 43.269531 C 75.816406 48.054688 76.660156 50.789062 77.398438 51.585938 L 83.335938 59.625 C 80.707031 58.734375 78.148438 58.027344 75.851562 57.429688 Z M 51.210938 59.003906 L 51.246094 58.945312 C 51.328125 58.769531 51.398438 58.605469 51.457031 58.429688 C 51.480469 58.371094 51.492188 58.300781 51.515625 58.238281 C 51.550781 58.121094 51.597656 58.015625 51.632812 57.898438 C 51.65625 57.828125 51.667969 57.746094 51.691406 57.675781 C 51.714844 57.570312 51.75 57.464844 51.773438 57.359375 C 51.785156 57.277344 51.796875 57.195312 51.808594 57.125 C 51.832031 57.019531 51.84375 56.914062 51.855469 56.820312 C 51.867188 56.738281 51.867188 56.65625 51.878906 56.574219 C 51.890625 56.46875 51.902344 56.375 51.902344 56.269531 C 51.902344 56.1875 51.902344 56.09375 51.914062 56.011719 C 51.914062 55.90625 51.925781 55.8125 51.914062 55.707031 C 51.914062 55.625 51.902344 55.53125 51.902344 55.449219 C 51.902344 55.355469 51.890625 55.25 51.890625 55.15625 C 51.878906 55.074219 51.867188 54.976562 51.855469 54.894531 C 51.84375 54.800781 51.832031 54.695312 51.820312 54.601562 C 51.808594 54.519531 51.785156 54.425781 51.773438 54.34375 C 51.75 54.25 51.738281 54.15625 51.714844 54.050781 C 51.691406 53.96875 51.667969 53.875 51.644531 53.792969 C 51.621094 53.699219 51.597656 53.605469 51.5625 53.511719 C 51.539062 53.429688 51.503906 53.347656 51.480469 53.265625 C 51.445312 53.171875 51.421875 53.078125 51.386719 52.996094 C 51.351562 52.914062 51.316406 52.832031 51.28125 52.75 C 51.246094 52.65625 51.210938 52.574219 51.164062 52.480469 C 51.128906 52.398438 51.082031 52.316406 51.046875 52.246094 C 51 52.164062 50.953125 52.070312 50.90625 51.988281 C 50.859375 51.90625 50.8125 51.832031 50.765625 51.75 C 50.71875 51.667969 50.660156 51.585938 50.613281 51.503906 C 50.566406 51.433594 50.507812 51.351562 50.460938 51.28125 C 50.402344 51.199219 50.34375 51.128906 50.285156 51.046875 C 50.226562 50.976562 50.167969 50.90625 50.109375 50.835938 C 50.074219 50.789062 50.039062 50.753906 50.003906 50.707031 C 50.027344 50.707031 50.050781 50.707031 50.074219 50.707031 C 51.363281 50.707031 52.640625 50.320312 53.652344 49.59375 C 55.09375 48.535156 55.984375 46.800781 56.148438 44.699219 C 56.160156 44.605469 56.160156 44.511719 56.160156 44.417969 C 56.5625 44.628906 56.996094 44.746094 57.453125 44.746094 C 57.582031 44.746094 57.710938 44.734375 57.839844 44.722656 C 58.015625 44.710938 58.179688 44.675781 58.332031 44.628906 C 58.460938 45.546875 58.613281 46.367188 58.800781 47.117188 C 58.871094 47.386719 58.917969 47.65625 58.964844 47.949219 C 59.105469 48.84375 59 49.734375 58.660156 50.542969 C 57.769531 52.621094 57.253906 54.941406 57.125 57.441406 C 55.257812 57.921875 53.21875 58.488281 51.117188 59.15625 Z M 42.75 36.992188 C 42.820312 36.945312 42.902344 36.898438 42.984375 36.839844 C 43.066406 36.792969 43.136719 36.746094 43.21875 36.699219 C 43.300781 36.652344 43.394531 36.605469 43.492188 36.558594 C 43.574219 36.523438 43.644531 36.476562 43.726562 36.441406 C 43.820312 36.394531 43.914062 36.359375 44.007812 36.324219 C 44.089844 36.289062 44.171875 36.253906 44.253906 36.21875 C 44.347656 36.183594 44.453125 36.148438 44.558594 36.125 C 44.640625 36.101562 44.722656 36.066406 44.804688 36.042969 C 44.910156 36.019531 45.015625 35.996094 45.121094 35.972656 C 45.203125 35.949219 45.285156 35.925781 45.367188 35.914062 C 45.484375 35.890625 45.589844 35.878906 45.707031 35.855469 C 45.789062 35.84375 45.871094 35.832031 45.953125 35.820312 C 46.070312 35.808594 46.1875 35.796875 46.304688 35.785156 C 46.386719 35.773438 46.457031 35.773438 46.539062 35.761719 C 46.660156 35.75 46.789062 35.75 46.917969 35.75 C 47 35.75 47.070312 35.75 47.152344 35.75 C 47.28125 35.75 47.410156 35.761719 47.539062 35.773438 C 47.609375 35.773438 47.691406 35.773438 47.761719 35.785156 C 47.890625 35.796875 48.019531 35.808594 48.160156 35.832031 C 48.230469 35.84375 48.300781 35.84375 48.371094 35.855469 C 48.5 35.878906 48.640625 35.902344 48.769531 35.925781 C 48.839844 35.9375 48.898438 35.949219 48.96875 35.960938 C 49.109375 35.996094 49.25 36.03125 49.378906 36.066406 C 49.4375 36.078125 49.496094 36.089844 49.554688 36.113281 C 49.695312 36.160156 49.835938 36.207031 49.980469 36.253906 C 50.027344 36.277344 50.085938 36.289062 50.132812 36.300781 C 50.273438 36.359375 50.425781 36.417969 50.566406 36.476562 C 50.613281 36.5 50.648438 36.511719 50.695312 36.535156 C 50.835938 36.605469 50.988281 36.675781 51.128906 36.746094 C 51.164062 36.769531 51.199219 36.78125 51.246094 36.804688 C 51.421875 36.898438 51.597656 37.003906 51.761719 37.121094 C 52.605469 37.671875 53.324219 38.375 53.886719 39.175781 C 53.816406 40.019531 53.839844 40.851562 54.132812 41.636719 C 54.390625 42.320312 54.777344 43 55.328125 43.714844 C 55.351562 43.75 55.386719 43.773438 55.410156 43.808594 C 55.421875 44.078125 55.410156 44.359375 55.386719 44.640625 C 55.304688 45.734375 54.90625 47.738281 53.207031 48.984375 C 53.039062 49.101562 52.875 49.207031 52.699219 49.300781 C 52.652344 49.324219 52.605469 49.347656 52.570312 49.359375 C 52.429688 49.429688 52.289062 49.488281 52.148438 49.546875 C 52.101562 49.570312 52.042969 49.582031 51.996094 49.605469 C 51.855469 49.652344 51.714844 49.699219 51.5625 49.746094 C 51.503906 49.757812 51.445312 49.769531 51.386719 49.792969 C 51.246094 49.828125 51.105469 49.851562 50.964844 49.875 C 50.894531 49.886719 50.824219 49.898438 50.753906 49.898438 C 50.625 49.910156 50.507812 49.921875 50.378906 49.933594 C 50.285156 49.933594 50.191406 49.945312 50.097656 49.945312 C 50.003906 49.945312 49.910156 49.945312 49.824219 49.933594 C 49.695312 49.933594 49.578125 49.921875 49.449219 49.910156 C 49.402344 49.910156 49.355469 49.898438 49.308594 49.886719 C 49.144531 49.863281 48.992188 49.839844 48.828125 49.804688 C 48.664062 49.769531 48.5 49.722656 48.335938 49.675781 C 46.753906 49.136719 45.542969 47.796875 45.320312 46.34375 C 45.132812 45.144531 45.636719 43.9375 46.609375 43.269531 C 47.667969 42.53125 49.273438 42.53125 50.203125 43.257812 C 50.648438 43.609375 50.882812 44.160156 50.847656 44.734375 C 50.8125 45.261719 50.542969 45.710938 50.121094 45.980469 C 49.945312 46.085938 49.886719 46.320312 49.992188 46.507812 C 50.097656 46.683594 50.332031 46.742188 50.519531 46.636719 C 51.164062 46.238281 51.5625 45.570312 51.609375 44.792969 C 51.65625 43.972656 51.316406 43.175781 50.683594 42.671875 C 49.496094 41.730469 47.527344 41.71875 46.1875 42.648438 C 44.980469 43.480469 44.359375 44.980469 44.582031 46.460938 C 44.851562 48.207031 46.234375 49.757812 48.101562 50.390625 C 48.265625 50.449219 48.441406 50.496094 48.605469 50.53125 L 49.308594 51.070312 C 49.367188 51.140625 49.4375 51.210938 49.496094 51.28125 C 49.542969 51.339844 49.589844 51.386719 49.636719 51.445312 C 49.695312 51.527344 49.753906 51.597656 49.8125 51.679688 C 49.847656 51.738281 49.898438 51.785156 49.945312 51.847656 C 50.003906 51.929688 50.050781 52.023438 50.109375 52.105469 C 50.144531 52.164062 50.179688 52.210938 50.214844 52.269531 C 50.273438 52.363281 50.320312 52.457031 50.367188 52.5625 C 50.390625 52.609375 50.425781 52.667969 50.449219 52.714844 C 50.496094 52.820312 50.542969 52.925781 50.589844 53.03125 C 50.613281 53.078125 50.636719 53.125 50.648438 53.171875 C 50.695312 53.289062 50.742188 53.417969 50.777344 53.535156 C 50.789062 53.570312 50.800781 53.605469 50.8125 53.640625 C 50.859375 53.804688 50.90625 53.957031 50.941406 54.121094 C 51.023438 54.449219 51.082031 54.789062 51.105469 55.132812 C 51.105469 55.15625 51.105469 55.167969 51.105469 55.191406 C 51.117188 55.34375 51.128906 55.484375 51.128906 55.636719 C 51.128906 55.683594 51.128906 55.71875 51.128906 55.765625 C 51.128906 55.894531 51.128906 56.023438 51.128906 56.152344 C 51.128906 56.210938 51.117188 56.269531 51.117188 56.316406 C 51.105469 56.433594 51.105469 56.539062 51.09375 56.65625 C 51.082031 56.714844 51.070312 56.773438 51.070312 56.84375 C 51.058594 56.949219 51.035156 57.054688 51.023438 57.160156 C 51.011719 57.230469 50.988281 57.289062 50.976562 57.347656 C 50.953125 57.441406 50.929688 57.546875 50.90625 57.640625 C 50.882812 57.710938 50.859375 57.769531 50.847656 57.839844 C 50.8125 57.933594 50.789062 58.027344 50.753906 58.121094 C 50.730469 58.191406 50.695312 58.261719 50.671875 58.335938 C 50.636719 58.417969 50.601562 58.5 50.566406 58.582031 L 49.921875 59.519531 C 48.910156 59.859375 47.890625 60.234375 46.871094 60.632812 C 46.871094 60.632812 46.859375 60.632812 46.859375 60.632812 C 43.949219 56.972656 42.058594 52.679688 41.367188 48.125 C 41.367188 48.101562 41.355469 48.078125 41.355469 48.054688 C 41.296875 47.691406 41.25 47.316406 41.214844 46.941406 C 41.203125 46.871094 41.203125 46.800781 41.191406 46.742188 C 41.15625 46.402344 41.132812 46.050781 41.109375 45.710938 C 41.109375 45.617188 41.097656 45.535156 41.085938 45.441406 C 41.0625 45.003906 41.050781 44.570312 41.050781 44.136719 C 41.050781 43.75 41.0625 43.363281 41.074219 42.976562 C 41.074219 42.90625 41.085938 42.835938 41.085938 42.765625 C 41.109375 42.378906 41.132812 41.988281 41.167969 41.613281 C 41.167969 41.589844 41.167969 41.566406 41.179688 41.542969 C 41.308594 40.324219 41.519531 39.117188 41.824219 37.929688 L 41.835938 37.917969 Z M 92.066406 65.269531 C 91.914062 65.222656 91.746094 65.175781 91.59375 65.128906 C 89.15625 64.304688 87.207031 62.792969 86.152344 61.84375 C 86.140625 61.832031 86.140625 61.832031 86.128906 61.820312 C 86.035156 61.738281 85.941406 61.65625 85.859375 61.574219 C 85.753906 61.476562 85.671875 61.382812 85.589844 61.3125 C 85.578125 61.3125 85.578125 61.300781 85.566406 61.300781 C 85.542969 61.277344 85.53125 61.265625 85.519531 61.253906 C 85.367188 61.101562 85.28125 61.007812 85.28125 61.007812 L 85.011719 60.644531 L 84.601562 60.09375 L 77.984375 51.117188 L 77.949219 51.082031 C 77.480469 50.601562 76.683594 48.691406 75.425781 42.578125 C 75.402344 42.449219 75.367188 42.308594 75.34375 42.179688 C 75.320312 42.046875 75.285156 41.90625 75.261719 41.765625 C 75.179688 41.367188 75.097656 40.945312 75.015625 40.511719 C 74.96875 40.300781 74.945312 40.136719 74.910156 40.007812 C 74.910156 40.007812 74.910156 39.996094 74.910156 39.996094 L 74.863281 39.621094 L 74.851562 39.550781 C 74.804688 39.398438 74.769531 39.257812 74.734375 39.105469 C 74.722656 39.058594 74.710938 39.011719 74.699219 38.964844 C 74.675781 38.855469 74.652344 38.75 74.640625 38.644531 C 74.628906 38.585938 74.628906 38.527344 74.617188 38.46875 C 74.605469 38.375 74.582031 38.28125 74.570312 38.175781 C 74.558594 38.117188 74.558594 38.046875 74.546875 37.988281 C 74.535156 37.894531 74.523438 37.800781 74.523438 37.707031 C 74.523438 37.648438 74.511719 37.578125 74.511719 37.519531 C 74.511719 37.425781 74.5 37.332031 74.5 37.238281 C 74.5 37.167969 74.5 37.109375 74.5 37.039062 C 74.5 36.945312 74.5 36.851562 74.5 36.757812 C 74.5 36.6875 74.5 36.628906 74.5 36.558594 C 74.5 36.464844 74.511719 36.371094 74.511719 36.277344 C 74.511719 36.207031 74.523438 36.136719 74.523438 36.078125 C 74.535156 35.984375 74.535156 35.890625 74.546875 35.796875 C 74.558594 35.726562 74.558594 35.664062 74.570312 35.59375 C 74.582031 35.5 74.59375 35.40625 74.605469 35.300781 C 74.617188 35.230469 74.617188 35.171875 74.628906 35.101562 C 74.640625 35.007812 74.652344 34.902344 74.675781 34.808594 C 74.6875 34.738281 74.699219 34.679688 74.710938 34.609375 C 74.722656 34.515625 74.746094 34.410156 74.757812 34.316406 C 74.769531 34.246094 74.78125 34.1875 74.792969 34.117188 C 74.816406 34.011719 74.828125 33.917969 74.851562 33.8125 C 74.863281 33.742188 74.875 33.683594 74.886719 33.625 C 74.910156 33.519531 74.921875 33.425781 74.945312 33.320312 C 74.957031 33.25 74.96875 33.191406 74.980469 33.121094 C 75.003906 33.027344 75.015625 32.933594 75.039062 32.839844 C 75.050781 32.769531 75.074219 32.699219 75.085938 32.628906 C 75.097656 32.558594 75.121094 32.484375 75.132812 32.425781 C 75.15625 32.332031 75.179688 32.238281 75.203125 32.144531 C 75.613281 32.378906 75.96875 32.59375 76.296875 32.804688 C 76.894531 33.203125 77.65625 34.117188 77.832031 34.867188 C 77.960938 35.417969 77.996094 35.984375 78.042969 36.582031 C 78.066406 36.851562 78.078125 37.109375 78.101562 37.378906 C 78.183594 38.246094 78.3125 39.152344 78.464844 40.066406 C 78.488281 40.195312 78.5 40.324219 78.523438 40.464844 C 78.546875 40.59375 78.570312 40.722656 78.59375 40.851562 C 78.890625 42.472656 79.265625 44.113281 79.710938 45.699219 C 80.613281 48.902344 82.222656 52.09375 84.765625 55.730469 C 85.257812 56.433594 85.800781 57.171875 86.410156 57.96875 C 86.667969 58.3125 87.019531 58.628906 87.394531 58.910156 C 87.394531 58.910156 87.40625 58.921875 87.40625 58.921875 C 87.5 58.992188 87.605469 59.074219 87.710938 59.132812 C 87.816406 59.203125 87.921875 59.261719 88.027344 59.320312 C 88.027344 59.320312 88.039062 59.320312 88.039062 59.332031 C 88.839844 59.800781 89.707031 60.117188 90.410156 60.234375 C 90.480469 60.246094 90.550781 60.257812 90.621094 60.28125 C 91.371094 60.527344 92.03125 60.960938 92.535156 61.527344 C 93.519531 62.617188 93.917969 64.1875 93.589844 65.609375 C 93.214844 65.5625 92.851562 65.480469 92.488281 65.398438 C 92.359375 65.351562 92.207031 65.304688 92.066406 65.269531 Z M 91.902344 45.40625 C 91.890625 45.546875 91.878906 45.675781 91.878906 45.816406 C 91.855469 46.097656 91.84375 46.367188 91.820312 46.648438 C 91.808594 46.8125 91.78125 46.964844 91.769531 47.117188 C 91.734375 47.375 91.710938 47.632812 91.675781 47.878906 C 91.652344 48.03125 91.628906 48.195312 91.605469 48.347656 C 91.59375 48.441406 91.582031 48.535156 91.558594 48.632812 C 88.414062 46.578125 84.507812 45.734375 80.800781 46.308594 C 80.789062 46.308594 80.765625 46.320312 80.753906 46.320312 C 80.660156 46.027344 80.566406 45.734375 80.484375 45.453125 C 80.027344 43.832031 79.640625 42.140625 79.359375 40.488281 L 79.382812 40.476562 L 79.441406 40.417969 C 82.054688 37.589844 85.871094 35.9375 89.707031 35.9375 C 89.835938 35.9375 89.964844 35.9375 90.09375 35.9375 L 90.117188 35.9375 L 90.527344 35.902344 L 90.539062 35.902344 C 91.042969 37.320312 91.40625 38.773438 91.640625 40.277344 C 91.652344 40.347656 91.664062 40.417969 91.675781 40.488281 C 91.722656 40.804688 91.757812 41.121094 91.792969 41.425781 C 91.808594 41.53125 91.820312 41.636719 91.832031 41.742188 C 91.855469 42.035156 91.878906 42.332031 91.902344 42.636719 C 91.914062 42.742188 91.914062 42.847656 91.925781 42.964844 C 91.949219 43.363281 91.960938 43.761719 91.960938 44.160156 C 91.9375 44.570312 91.925781 44.992188 91.902344 45.40625 Z M 90.070312 35.183594 C 86.046875 35.078125 82.007812 36.710938 79.171875 39.574219 C 79.054688 38.785156 78.949219 38.023438 78.875 37.285156 C 78.851562 37.027344 78.828125 36.769531 78.816406 36.511719 C 78.769531 35.914062 78.734375 35.289062 78.59375 34.667969 C 78.371094 33.707031 77.46875 32.628906 76.742188 32.144531 C 76.625 32.074219 76.519531 31.992188 76.390625 31.921875 C 76.449219 31.875 76.496094 31.804688 76.519531 31.722656 C 77.28125 28.847656 78.914062 26.164062 81.128906 24.179688 C 81.1875 24.121094 81.222656 24.050781 81.234375 23.980469 C 85.28125 26.726562 88.425781 30.597656 90.234375 35.160156 Z M 80.648438 23.605469 C 80.636719 23.617188 80.625 23.617188 80.613281 23.628906 C 78.289062 25.714844 76.578125 28.519531 75.78125 31.546875 C 75.78125 31.558594 75.78125 31.570312 75.78125 31.570312 C 75.660156 31.5 75.542969 31.429688 75.414062 31.371094 L 75.167969 31.242188 C 75.167969 31.242188 75.15625 31.230469 75.15625 31.230469 L 74.722656 30.996094 L 74.722656 31.007812 C 73.914062 30.597656 73.070312 30.222656 72.199219 29.894531 L 71.941406 29.800781 C 71.941406 29.800781 71.929688 29.800781 71.929688 29.800781 L 71.449219 29.625 C 71.191406 29.53125 70.933594 29.4375 70.664062 29.355469 C 70.160156 29.1875 69.785156 28.753906 69.726562 28.226562 C 69.65625 27.628906 69.597656 27.019531 69.5625 26.421875 C 70.898438 25.304688 71.777344 23.476562 71.777344 21.398438 C 71.777344 20.929688 71.730469 20.472656 71.648438 20.039062 C 74.933594 20.660156 77.972656 21.890625 80.648438 23.605469 Z M 62.460938 25.375 C 61.945312 25.972656 61.757812 26.703125 61.570312 27.40625 C 61.5 27.675781 61.429688 27.957031 61.335938 28.226562 C 61.136719 28.800781 60.925781 29.367188 60.691406 29.929688 C 59.410156 30.421875 58.25 30.960938 57.207031 31.570312 C 57.207031 31.558594 57.207031 31.558594 57.207031 31.546875 C 56.410156 28.53125 54.695312 25.714844 52.371094 23.628906 C 52.359375 23.617188 52.347656 23.617188 52.335938 23.605469 C 55.011719 21.890625 58.0625 20.671875 61.359375 20.039062 C 61.277344 20.472656 61.230469 20.929688 61.230469 21.398438 C 61.207031 22.914062 61.6875 24.296875 62.460938 25.375 Z M 51.855469 24.191406 C 54.074219 26.175781 55.703125 28.859375 56.46875 31.734375 C 56.492188 31.816406 56.539062 31.886719 56.597656 31.933594 C 56.480469 32.003906 56.363281 32.074219 56.242188 32.15625 C 55.503906 32.640625 54.613281 33.71875 54.390625 34.679688 C 54.25 35.289062 54.203125 35.914062 54.167969 36.511719 C 54.15625 36.769531 54.132812 37.027344 54.109375 37.285156 C 54.085938 37.53125 54.050781 37.789062 54.015625 38.046875 C 54.015625 38.058594 54.015625 38.070312 54.015625 38.09375 C 53.488281 37.484375 52.875 36.945312 52.195312 36.488281 C 49.25 34.539062 45.003906 34.492188 42.316406 36.371094 C 44.019531 31.277344 47.351562 26.972656 51.75 23.992188 C 51.761719 24.0625 51.785156 24.132812 51.855469 24.191406 Z M 51.855469 24.191406 " fill-opacity="1" fill-rule="nonzero"/></g><path fill="#0661aa" d="M 60.046875 65.878906 C 59.660156 65.808594 59.28125 65.75 58.894531 65.691406 C 55.457031 65.164062 53.050781 64.917969 51.128906 64.941406 C 50.917969 64.941406 50.707031 64.953125 50.507812 64.953125 C 50.332031 64.964844 50.15625 64.964844 49.980469 64.988281 C 48.792969 65.082031 47.785156 65.292969 46.765625 65.621094 C 46.5625 65.691406 46.457031 65.902344 46.515625 66.101562 C 46.585938 66.300781 46.800781 66.40625 47 66.347656 C 48.171875 65.960938 49.355469 65.75 50.847656 65.703125 C 51.035156 65.703125 51.234375 65.703125 51.433594 65.703125 C 51.65625 65.703125 51.890625 65.714844 52.136719 65.714844 C 53.851562 65.773438 55.949219 66.019531 58.777344 66.441406 C 59.152344 66.5 59.527344 66.558594 59.90625 66.628906 L 60 66.640625 C 60.023438 66.640625 60.046875 66.640625 60.070312 66.640625 C 60.257812 66.640625 60.410156 66.511719 60.445312 66.324219 C 60.480469 66.113281 60.339844 65.925781 60.140625 65.878906 Z M 60.046875 65.878906 " fill-opacity="1" fill-rule="nonzero"/></svg>