<svg xmlns="http://www.w3.org/2000/svg" xmlns:xlink="http://www.w3.org/1999/xlink" width="180" zoomAndPan="magnify" viewBox="0 0 135 161.249994" height="215" preserveAspectRatio="xMidYMid meet" version="1.0"><defs><g/><clipPath id="c7f87646e6"><path d="M 40.109375 10.460938 L 94.605469 10.460938 L 94.605469 66.449219 L 40.109375 66.449219 Z M 40.109375 10.460938 " clip-rule="nonzero"/></clipPath></defs><g fill="#0661aa" fill-opacity="1"><g transform="translate(45.42639, 86.219023)"><g><path d="M 0.890625 0 L 0.890625 -12.765625 L 4.59375 -12.765625 L 9.09375 -3.625 L 9.125 -3.625 L 9.125 -12.765625 L 11.96875 -12.765625 L 11.96875 0 L 8.296875 0 L 3.78125 -9.125 L 3.75 -9.125 L 3.75 0 Z M 0.890625 0 "/></g></g></g><g fill="#0661aa" fill-opacity="1"><g transform="translate(60.404685, 86.219023)"><g><path d="M 3.171875 0.21875 C 2.296875 0.21875 1.585938 -0.015625 1.046875 -0.484375 C 0.515625 -0.953125 0.25 -1.578125 0.25 -2.359375 C 0.25 -3.203125 0.566406 -3.878906 1.203125 -4.390625 C 1.847656 -4.910156 2.785156 -5.238281 4.015625 -5.375 L 5.4375 -5.53125 C 5.632812 -5.5625 5.796875 -5.632812 5.921875 -5.75 C 6.046875 -5.875 6.109375 -6.046875 6.109375 -6.265625 C 6.109375 -6.671875 5.984375 -6.984375 5.734375 -7.203125 C 5.484375 -7.421875 5.15625 -7.53125 4.75 -7.53125 C 4.28125 -7.53125 3.898438 -7.367188 3.609375 -7.046875 C 3.328125 -6.722656 3.175781 -6.316406 3.15625 -5.828125 L 0.5625 -6.203125 C 0.582031 -6.847656 0.769531 -7.414062 1.125 -7.90625 C 1.476562 -8.40625 1.960938 -8.796875 2.578125 -9.078125 C 3.191406 -9.359375 3.910156 -9.5 4.734375 -9.5 C 5.984375 -9.5 6.972656 -9.171875 7.703125 -8.515625 C 8.429688 -7.859375 8.796875 -6.96875 8.796875 -5.84375 L 8.796875 -2.296875 C 8.796875 -1.890625 8.945312 -1.6875 9.25 -1.6875 C 9.488281 -1.6875 9.710938 -1.804688 9.921875 -2.046875 L 10.515625 -0.578125 C 10.234375 -0.296875 9.890625 -0.09375 9.484375 0.03125 C 9.078125 0.164062 8.675781 0.234375 8.28125 0.234375 C 7.726562 0.234375 7.265625 0.09375 6.890625 -0.1875 C 6.515625 -0.46875 6.28125 -0.820312 6.1875 -1.25 L 6.140625 -1.484375 L 6.125 -1.484375 C 5.851562 -0.960938 5.457031 -0.546875 4.9375 -0.234375 C 4.425781 0.0664062 3.835938 0.21875 3.171875 0.21875 Z M 4.296875 -1.703125 C 4.816406 -1.703125 5.242188 -1.882812 5.578125 -2.25 C 5.910156 -2.613281 6.078125 -3.085938 6.078125 -3.671875 L 6.078125 -4.109375 L 4.734375 -3.953125 C 4.109375 -3.890625 3.660156 -3.742188 3.390625 -3.515625 C 3.128906 -3.285156 3 -3.015625 3 -2.703125 C 3 -2.410156 3.117188 -2.171875 3.359375 -1.984375 C 3.609375 -1.796875 3.921875 -1.703125 4.296875 -1.703125 Z M 4.296875 -1.703125 "/></g></g></g><g fill="#0661aa" fill-opacity="1"><g transform="translate(73.035898, 86.219023)"><g><path d="M 4 0.25 C 3.269531 0.25 2.628906 0.0507812 2.078125 -0.34375 C 1.535156 -0.738281 1.113281 -1.300781 0.8125 -2.03125 C 0.519531 -2.757812 0.375 -3.613281 0.375 -4.59375 C 0.375 -5.582031 0.519531 -6.4375 0.8125 -7.15625 C 1.113281 -7.882812 1.535156 -8.441406 2.078125 -8.828125 C 2.628906 -9.222656 3.265625 -9.421875 3.984375 -9.421875 C 4.597656 -9.421875 5.144531 -9.265625 5.625 -8.953125 C 6.101562 -8.648438 6.472656 -8.203125 6.734375 -7.609375 L 6.75 -7.609375 L 6.75 -13.296875 L 9.5 -13.296875 L 9.5 0 L 7.171875 0 L 6.828125 -1.59375 L 6.8125 -1.59375 C 6.550781 -1 6.175781 -0.539062 5.6875 -0.21875 C 5.195312 0.09375 4.632812 0.25 4 0.25 Z M 5 -2.09375 C 5.5625 -2.09375 6.007812 -2.316406 6.34375 -2.765625 C 6.6875 -3.222656 6.859375 -3.832031 6.859375 -4.59375 C 6.859375 -5.34375 6.6875 -5.941406 6.34375 -6.390625 C 6.007812 -6.847656 5.5625 -7.078125 5 -7.078125 C 4.4375 -7.078125 3.984375 -6.847656 3.640625 -6.390625 C 3.296875 -5.941406 3.125 -5.34375 3.125 -4.59375 C 3.125 -3.832031 3.296875 -3.222656 3.640625 -2.765625 C 3.984375 -2.316406 4.4375 -2.09375 5 -2.09375 Z M 5 -2.09375 "/></g></g></g><g fill="#0661aa" fill-opacity="1"><g transform="translate(85.3267, 86.219023)"><g><path d="M 2.109375 -10.4375 C 1.617188 -10.4375 1.226562 -10.578125 0.9375 -10.859375 C 0.644531 -11.148438 0.5 -11.523438 0.5 -11.984375 C 0.5 -12.460938 0.644531 -12.84375 0.9375 -13.125 C 1.226562 -13.414062 1.617188 -13.5625 2.109375 -13.5625 C 2.597656 -13.5625 2.988281 -13.414062 3.28125 -13.125 C 3.582031 -12.84375 3.734375 -12.460938 3.734375 -11.984375 C 3.734375 -11.523438 3.582031 -11.148438 3.28125 -10.859375 C 2.988281 -10.578125 2.597656 -10.4375 2.109375 -10.4375 Z M 0.734375 0 L 0.734375 -9.171875 L 3.484375 -9.171875 L 3.484375 0 Z M 0.734375 0 "/></g></g></g><g fill="#0661aa" fill-opacity="1"><g transform="translate(19.507881, 107.868327)"><g><path d="M 5.625 0.390625 C 4.625 0.390625 3.734375 0.222656 2.953125 -0.109375 C 2.179688 -0.453125 1.566406 -0.941406 1.109375 -1.578125 C 0.660156 -2.222656 0.40625 -2.992188 0.34375 -3.890625 L 3.15625 -4.375 C 3.1875 -3.601562 3.445312 -3 3.9375 -2.5625 C 4.425781 -2.125 5.03125 -1.90625 5.75 -1.90625 C 6.382812 -1.90625 6.890625 -2.050781 7.265625 -2.34375 C 7.640625 -2.644531 7.828125 -3.015625 7.828125 -3.453125 C 7.828125 -3.835938 7.679688 -4.15625 7.390625 -4.40625 C 7.109375 -4.65625 6.644531 -4.863281 6 -5.03125 L 4.390625 -5.453125 C 3.117188 -5.742188 2.191406 -6.1875 1.609375 -6.78125 C 1.023438 -7.375 0.734375 -8.171875 0.734375 -9.171875 C 0.734375 -9.972656 0.921875 -10.671875 1.296875 -11.265625 C 1.679688 -11.867188 2.226562 -12.332031 2.9375 -12.65625 C 3.644531 -12.988281 4.46875 -13.15625 5.40625 -13.15625 C 6.269531 -13.15625 7.035156 -13 7.703125 -12.6875 C 8.367188 -12.382812 8.910156 -11.957031 9.328125 -11.40625 C 9.742188 -10.851562 9.976562 -10.191406 10.03125 -9.421875 L 7.296875 -8.875 C 7.253906 -9.488281 7.054688 -9.976562 6.703125 -10.34375 C 6.347656 -10.707031 5.898438 -10.890625 5.359375 -10.890625 C 4.847656 -10.890625 4.4375 -10.75 4.125 -10.46875 C 3.820312 -10.1875 3.671875 -9.835938 3.671875 -9.421875 C 3.671875 -9.054688 3.804688 -8.753906 4.078125 -8.515625 C 4.347656 -8.273438 4.785156 -8.078125 5.390625 -7.921875 L 6.984375 -7.53125 C 8.285156 -7.226562 9.238281 -6.773438 9.84375 -6.171875 C 10.445312 -5.566406 10.75 -4.757812 10.75 -3.75 C 10.75 -2.90625 10.539062 -2.171875 10.125 -1.546875 C 9.707031 -0.929688 9.113281 -0.453125 8.34375 -0.109375 C 7.582031 0.222656 6.675781 0.390625 5.625 0.390625 Z M 5.625 0.390625 "/></g></g></g><g fill="#0661aa" fill-opacity="1"><g transform="translate(32.64077, 107.868327)"><g><path d="M 0.6875 0 L 0.6875 -13.296875 L 3.40625 -13.296875 L 3.40625 -7.609375 L 3.421875 -7.609375 C 3.710938 -8.191406 4.101562 -8.632812 4.59375 -8.9375 C 5.09375 -9.25 5.664062 -9.40625 6.3125 -9.40625 C 7.15625 -9.40625 7.8125 -9.15625 8.28125 -8.65625 C 8.757812 -8.15625 9 -7.445312 9 -6.53125 L 9 0 L 6.25 0 L 6.25 -5.828125 C 6.25 -6.253906 6.140625 -6.585938 5.921875 -6.828125 C 5.710938 -7.066406 5.414062 -7.1875 5.03125 -7.1875 C 4.539062 -7.1875 4.144531 -7.023438 3.84375 -6.703125 C 3.550781 -6.390625 3.40625 -5.953125 3.40625 -5.390625 L 3.40625 0 Z M 0.6875 0 "/></g></g></g><g fill="#0661aa" fill-opacity="1"><g transform="translate(44.376153, 107.868327)"><g><path d="M 5.03125 0.296875 C 4.09375 0.296875 3.269531 0.0976562 2.5625 -0.296875 C 1.863281 -0.691406 1.320312 -1.253906 0.9375 -1.984375 C 0.5625 -2.722656 0.375 -3.59375 0.375 -4.59375 C 0.375 -5.59375 0.5625 -6.457031 0.9375 -7.1875 C 1.320312 -7.925781 1.863281 -8.492188 2.5625 -8.890625 C 3.269531 -9.296875 4.09375 -9.5 5.03125 -9.5 C 5.976562 -9.5 6.796875 -9.296875 7.484375 -8.890625 C 8.179688 -8.492188 8.71875 -7.925781 9.09375 -7.1875 C 9.476562 -6.457031 9.671875 -5.59375 9.671875 -4.59375 C 9.671875 -3.59375 9.476562 -2.722656 9.09375 -1.984375 C 8.71875 -1.253906 8.179688 -0.691406 7.484375 -0.296875 C 6.796875 0.0976562 5.976562 0.296875 5.03125 0.296875 Z M 5.03125 -1.984375 C 5.632812 -1.984375 6.101562 -2.210938 6.4375 -2.671875 C 6.78125 -3.140625 6.953125 -3.78125 6.953125 -4.59375 C 6.953125 -5.40625 6.78125 -6.039062 6.4375 -6.5 C 6.101562 -6.957031 5.632812 -7.1875 5.03125 -7.1875 C 4.4375 -7.1875 3.960938 -6.957031 3.609375 -6.5 C 3.265625 -6.039062 3.09375 -5.40625 3.09375 -4.59375 C 3.09375 -3.78125 3.265625 -3.140625 3.609375 -2.671875 C 3.960938 -2.210938 4.4375 -1.984375 5.03125 -1.984375 Z M 5.03125 -1.984375 "/></g></g></g><g fill="#0661aa" fill-opacity="1"><g transform="translate(56.559456, 107.868327)"><g><path d="M 4 0.25 C 3.269531 0.25 2.628906 0.0507812 2.078125 -0.34375 C 1.535156 -0.738281 1.113281 -1.300781 0.8125 -2.03125 C 0.519531 -2.757812 0.375 -3.613281 0.375 -4.59375 C 0.375 -5.582031 0.519531 -6.4375 0.8125 -7.15625 C 1.113281 -7.882812 1.535156 -8.441406 2.078125 -8.828125 C 2.628906 -9.222656 3.265625 -9.421875 3.984375 -9.421875 C 4.597656 -9.421875 5.144531 -9.265625 5.625 -8.953125 C 6.101562 -8.648438 6.472656 -8.203125 6.734375 -7.609375 L 6.75 -7.609375 L 6.75 -13.296875 L 9.5 -13.296875 L 9.5 0 L 7.171875 0 L 6.828125 -1.59375 L 6.8125 -1.59375 C 6.550781 -1 6.175781 -0.539062 5.6875 -0.21875 C 5.195312 0.09375 4.632812 0.25 4 0.25 Z M 5 -2.09375 C 5.5625 -2.09375 6.007812 -2.316406 6.34375 -2.765625 C 6.6875 -3.222656 6.859375 -3.832031 6.859375 -4.59375 C 6.859375 -5.34375 6.6875 -5.941406 6.34375 -6.390625 C 6.007812 -6.847656 5.5625 -7.078125 5 -7.078125 C 4.4375 -7.078125 3.984375 -6.847656 3.640625 -6.390625 C 3.296875 -5.941406 3.125 -5.34375 3.125 -4.59375 C 3.125 -3.832031 3.296875 -3.222656 3.640625 -2.765625 C 3.984375 -2.316406 4.4375 -2.09375 5 -2.09375 Z M 5 -2.09375 "/></g></g></g><g fill="#0661aa" fill-opacity="1"><g transform="translate(68.850258, 107.868327)"><g><path d="M 0.6875 0 L 0.6875 -13.296875 L 3.40625 -13.296875 L 3.40625 -7.609375 L 3.421875 -7.609375 C 3.710938 -8.191406 4.101562 -8.632812 4.59375 -8.9375 C 5.09375 -9.25 5.664062 -9.40625 6.3125 -9.40625 C 7.15625 -9.40625 7.8125 -9.15625 8.28125 -8.65625 C 8.757812 -8.15625 9 -7.445312 9 -6.53125 L 9 0 L 6.25 0 L 6.25 -5.828125 C 6.25 -6.253906 6.140625 -6.585938 5.921875 -6.828125 C 5.710938 -7.066406 5.414062 -7.1875 5.03125 -7.1875 C 4.539062 -7.1875 4.144531 -7.023438 3.84375 -6.703125 C 3.550781 -6.390625 3.40625 -5.953125 3.40625 -5.390625 L 3.40625 0 Z M 0.6875 0 "/></g></g></g><g fill="#0661aa" fill-opacity="1"><g transform="translate(80.58564, 107.868327)"><g><path d="M 3.171875 0.21875 C 2.296875 0.21875 1.585938 -0.015625 1.046875 -0.484375 C 0.515625 -0.953125 0.25 -1.578125 0.25 -2.359375 C 0.25 -3.203125 0.566406 -3.878906 1.203125 -4.390625 C 1.847656 -4.910156 2.785156 -5.238281 4.015625 -5.375 L 5.4375 -5.53125 C 5.632812 -5.5625 5.796875 -5.632812 5.921875 -5.75 C 6.046875 -5.875 6.109375 -6.046875 6.109375 -6.265625 C 6.109375 -6.671875 5.984375 -6.984375 5.734375 -7.203125 C 5.484375 -7.421875 5.15625 -7.53125 4.75 -7.53125 C 4.28125 -7.53125 3.898438 -7.367188 3.609375 -7.046875 C 3.328125 -6.722656 3.175781 -6.316406 3.15625 -5.828125 L 0.5625 -6.203125 C 0.582031 -6.847656 0.769531 -7.414062 1.125 -7.90625 C 1.476562 -8.40625 1.960938 -8.796875 2.578125 -9.078125 C 3.191406 -9.359375 3.910156 -9.5 4.734375 -9.5 C 5.984375 -9.5 6.972656 -9.171875 7.703125 -8.515625 C 8.429688 -7.859375 8.796875 -6.96875 8.796875 -5.84375 L 8.796875 -2.296875 C 8.796875 -1.890625 8.945312 -1.6875 9.25 -1.6875 C 9.488281 -1.6875 9.710938 -1.804688 9.921875 -2.046875 L 10.515625 -0.578125 C 10.234375 -0.296875 9.890625 -0.09375 9.484375 0.03125 C 9.078125 0.164062 8.675781 0.234375 8.28125 0.234375 C 7.726562 0.234375 7.265625 0.09375 6.890625 -0.1875 C 6.515625 -0.46875 6.28125 -0.820312 6.1875 -1.25 L 6.140625 -1.484375 L 6.125 -1.484375 C 5.851562 -0.960938 5.457031 -0.546875 4.9375 -0.234375 C 4.425781 0.0664062 3.835938 0.21875 3.171875 0.21875 Z M 4.296875 -1.703125 C 4.816406 -1.703125 5.242188 -1.882812 5.578125 -2.25 C 5.910156 -2.613281 6.078125 -3.085938 6.078125 -3.671875 L 6.078125 -4.109375 L 4.734375 -3.953125 C 4.109375 -3.890625 3.660156 -3.742188 3.390625 -3.515625 C 3.128906 -3.285156 3 -3.015625 3 -2.703125 C 3 -2.410156 3.117188 -2.171875 3.359375 -1.984375 C 3.609375 -1.796875 3.921875 -1.703125 4.296875 -1.703125 Z M 4.296875 -1.703125 "/></g></g></g><g fill="#0661aa" fill-opacity="1"><g transform="translate(93.216854, 107.868327)"><g><path d="M 6.25 -9.40625 C 7.101562 -9.40625 7.773438 -9.148438 8.265625 -8.640625 C 8.753906 -8.140625 9 -7.4375 9 -6.53125 L 9 0 L 6.25 0 L 6.25 -5.828125 C 6.25 -6.253906 6.140625 -6.585938 5.921875 -6.828125 C 5.710938 -7.066406 5.414062 -7.1875 5.03125 -7.1875 C 4.539062 -7.1875 4.144531 -7.023438 3.84375 -6.703125 C 3.550781 -6.390625 3.40625 -5.953125 3.40625 -5.390625 L 3.40625 0 L 0.6875 0 L 0.6875 -9.171875 L 2.9375 -9.171875 L 3.3125 -7.609375 L 3.328125 -7.609375 C 3.609375 -8.191406 4.003906 -8.632812 4.515625 -8.9375 C 5.023438 -9.25 5.601562 -9.40625 6.25 -9.40625 Z M 6.25 -9.40625 "/></g></g></g><g fill="#0661aa" fill-opacity="1"><g transform="translate(104.952236, 107.868327)"><g><path d="M 3.171875 0.21875 C 2.296875 0.21875 1.585938 -0.015625 1.046875 -0.484375 C 0.515625 -0.953125 0.25 -1.578125 0.25 -2.359375 C 0.25 -3.203125 0.566406 -3.878906 1.203125 -4.390625 C 1.847656 -4.910156 2.785156 -5.238281 4.015625 -5.375 L 5.4375 -5.53125 C 5.632812 -5.5625 5.796875 -5.632812 5.921875 -5.75 C 6.046875 -5.875 6.109375 -6.046875 6.109375 -6.265625 C 6.109375 -6.671875 5.984375 -6.984375 5.734375 -7.203125 C 5.484375 -7.421875 5.15625 -7.53125 4.75 -7.53125 C 4.28125 -7.53125 3.898438 -7.367188 3.609375 -7.046875 C 3.328125 -6.722656 3.175781 -6.316406 3.15625 -5.828125 L 0.5625 -6.203125 C 0.582031 -6.847656 0.769531 -7.414062 1.125 -7.90625 C 1.476562 -8.40625 1.960938 -8.796875 2.578125 -9.078125 C 3.191406 -9.359375 3.910156 -9.5 4.734375 -9.5 C 5.984375 -9.5 6.972656 -9.171875 7.703125 -8.515625 C 8.429688 -7.859375 8.796875 -6.96875 8.796875 -5.84375 L 8.796875 -2.296875 C 8.796875 -1.890625 8.945312 -1.6875 9.25 -1.6875 C 9.488281 -1.6875 9.710938 -1.804688 9.921875 -2.046875 L 10.515625 -0.578125 C 10.234375 -0.296875 9.890625 -0.09375 9.484375 0.03125 C 9.078125 0.164062 8.675781 0.234375 8.28125 0.234375 C 7.726562 0.234375 7.265625 0.09375 6.890625 -0.1875 C 6.515625 -0.46875 6.28125 -0.820312 6.1875 -1.25 L 6.140625 -1.484375 L 6.125 -1.484375 C 5.851562 -0.960938 5.457031 -0.546875 4.9375 -0.234375 C 4.425781 0.0664062 3.835938 0.21875 3.171875 0.21875 Z M 4.296875 -1.703125 C 4.816406 -1.703125 5.242188 -1.882812 5.578125 -2.25 C 5.910156 -2.613281 6.078125 -3.085938 6.078125 -3.671875 L 6.078125 -4.109375 L 4.734375 -3.953125 C 4.109375 -3.890625 3.660156 -3.742188 3.390625 -3.515625 C 3.128906 -3.285156 3 -3.015625 3 -2.703125 C 3 -2.410156 3.117188 -2.171875 3.359375 -1.984375 C 3.609375 -1.796875 3.921875 -1.703125 4.296875 -1.703125 Z M 4.296875 -1.703125 "/></g></g></g><g fill="#2d6d5e" fill-opacity="1"><g transform="translate(28.04756, 124.013273)"><g><path d="M 2 -7.109375 C 2.695312 -7.109375 3.210938 -6.9375 3.546875 -6.59375 C 3.878906 -6.257812 4.046875 -5.738281 4.046875 -5.03125 C 4.046875 -4.65625 4.003906 -4.328125 3.921875 -4.046875 C 3.835938 -3.773438 3.707031 -3.546875 3.53125 -3.359375 C 3.363281 -3.171875 3.148438 -3.03125 2.890625 -2.9375 C 2.628906 -2.84375 2.328125 -2.796875 1.984375 -2.796875 L 1.5 -2.796875 L 1.5 0 L 0.734375 0 L 0.734375 -7.109375 Z M 1.984375 -6.421875 L 1.5 -6.421875 L 1.5 -3.484375 L 1.921875 -3.484375 C 2.234375 -3.484375 2.488281 -3.535156 2.6875 -3.640625 C 2.882812 -3.742188 3.023438 -3.90625 3.109375 -4.125 C 3.203125 -4.351562 3.25 -4.648438 3.25 -5.015625 C 3.25 -5.515625 3.144531 -5.875 2.9375 -6.09375 C 2.738281 -6.3125 2.421875 -6.421875 1.984375 -6.421875 Z M 1.984375 -6.421875 "/></g></g></g><g fill="#2d6d5e" fill-opacity="1"><g transform="translate(33.794112, 124.013273)"><g><path d="M 2.078125 -5.4375 C 2.566406 -5.4375 2.914062 -5.273438 3.125 -4.953125 C 3.34375 -4.640625 3.453125 -4.1875 3.453125 -3.59375 L 3.453125 0 L 2.875 0 L 2.765625 -0.765625 L 2.75 -0.765625 C 2.664062 -0.578125 2.566406 -0.421875 2.453125 -0.296875 C 2.335938 -0.171875 2.203125 -0.0703125 2.046875 0 C 1.898438 0.0625 1.726562 0.09375 1.53125 0.09375 C 1.257812 0.09375 1.035156 0.0195312 0.859375 -0.125 C 0.679688 -0.269531 0.550781 -0.457031 0.46875 -0.6875 C 0.382812 -0.925781 0.34375 -1.1875 0.34375 -1.46875 C 0.34375 -2 0.492188 -2.410156 0.796875 -2.703125 C 1.109375 -2.992188 1.539062 -3.148438 2.09375 -3.171875 L 2.703125 -3.21875 L 2.703125 -3.578125 C 2.703125 -4.003906 2.644531 -4.316406 2.53125 -4.515625 C 2.414062 -4.710938 2.226562 -4.8125 1.96875 -4.8125 C 1.820312 -4.8125 1.664062 -4.785156 1.5 -4.734375 C 1.332031 -4.679688 1.15625 -4.597656 0.96875 -4.484375 L 0.734375 -5.046875 C 0.929688 -5.179688 1.144531 -5.28125 1.375 -5.34375 C 1.601562 -5.40625 1.835938 -5.4375 2.078125 -5.4375 Z M 2.71875 -2.65625 L 2.21875 -2.625 C 1.84375 -2.601562 1.5625 -2.5 1.375 -2.3125 C 1.195312 -2.125 1.109375 -1.847656 1.109375 -1.484375 C 1.109375 -1.148438 1.164062 -0.90625 1.28125 -0.75 C 1.40625 -0.59375 1.570312 -0.515625 1.78125 -0.515625 C 2.070312 -0.515625 2.300781 -0.65625 2.46875 -0.9375 C 2.632812 -1.21875 2.71875 -1.613281 2.71875 -2.125 Z M 2.71875 -2.65625 "/></g></g></g><g fill="#2d6d5e" fill-opacity="1"><g transform="translate(39.273464, 124.013273)"><g><path d="M 2.4375 -5.421875 C 2.507812 -5.421875 2.582031 -5.414062 2.65625 -5.40625 C 2.726562 -5.394531 2.804688 -5.378906 2.890625 -5.359375 L 2.78125 -4.59375 C 2.71875 -4.613281 2.65625 -4.628906 2.59375 -4.640625 C 2.53125 -4.648438 2.457031 -4.65625 2.375 -4.65625 C 2.226562 -4.65625 2.09375 -4.609375 1.96875 -4.515625 C 1.851562 -4.421875 1.75 -4.285156 1.65625 -4.109375 C 1.570312 -3.941406 1.503906 -3.742188 1.453125 -3.515625 C 1.410156 -3.285156 1.394531 -3.039062 1.40625 -2.78125 L 1.40625 0 L 0.65625 0 L 0.65625 -5.34375 L 1.234375 -5.34375 L 1.34375 -4.390625 L 1.390625 -4.390625 C 1.460938 -4.585938 1.546875 -4.765625 1.640625 -4.921875 C 1.742188 -5.078125 1.859375 -5.195312 1.984375 -5.28125 C 2.117188 -5.375 2.269531 -5.421875 2.4375 -5.421875 Z M 2.4375 -5.421875 "/></g></g></g><g fill="#2d6d5e" fill-opacity="1"><g transform="translate(43.649973, 124.013273)"><g><path d="M 2.078125 -5.4375 C 2.566406 -5.4375 2.914062 -5.273438 3.125 -4.953125 C 3.34375 -4.640625 3.453125 -4.1875 3.453125 -3.59375 L 3.453125 0 L 2.875 0 L 2.765625 -0.765625 L 2.75 -0.765625 C 2.664062 -0.578125 2.566406 -0.421875 2.453125 -0.296875 C 2.335938 -0.171875 2.203125 -0.0703125 2.046875 0 C 1.898438 0.0625 1.726562 0.09375 1.53125 0.09375 C 1.257812 0.09375 1.035156 0.0195312 0.859375 -0.125 C 0.679688 -0.269531 0.550781 -0.457031 0.46875 -0.6875 C 0.382812 -0.925781 0.34375 -1.1875 0.34375 -1.46875 C 0.34375 -2 0.492188 -2.410156 0.796875 -2.703125 C 1.109375 -2.992188 1.539062 -3.148438 2.09375 -3.171875 L 2.703125 -3.21875 L 2.703125 -3.578125 C 2.703125 -4.003906 2.644531 -4.316406 2.53125 -4.515625 C 2.414062 -4.710938 2.226562 -4.8125 1.96875 -4.8125 C 1.820312 -4.8125 1.664062 -4.785156 1.5 -4.734375 C 1.332031 -4.679688 1.15625 -4.597656 0.96875 -4.484375 L 0.734375 -5.046875 C 0.929688 -5.179688 1.144531 -5.28125 1.375 -5.34375 C 1.601562 -5.40625 1.835938 -5.4375 2.078125 -5.4375 Z M 2.71875 -2.65625 L 2.21875 -2.625 C 1.84375 -2.601562 1.5625 -2.5 1.375 -2.3125 C 1.195312 -2.125 1.109375 -1.847656 1.109375 -1.484375 C 1.109375 -1.148438 1.164062 -0.90625 1.28125 -0.75 C 1.40625 -0.59375 1.570312 -0.515625 1.78125 -0.515625 C 2.070312 -0.515625 2.300781 -0.65625 2.46875 -0.9375 C 2.632812 -1.21875 2.71875 -1.613281 2.71875 -2.125 Z M 2.71875 -2.65625 "/></g></g></g><g fill="#2d6d5e" fill-opacity="1"><g transform="translate(49.129325, 124.013273)"><g/></g></g><g fill="#2d6d5e" fill-opacity="1"><g transform="translate(52.36899, 124.013273)"><g><path d="M 2.125 -5.421875 C 2.476562 -5.421875 2.773438 -5.316406 3.015625 -5.109375 C 3.253906 -4.898438 3.429688 -4.613281 3.546875 -4.25 C 3.660156 -3.894531 3.71875 -3.5 3.71875 -3.0625 L 3.71875 -2.53125 L 1.171875 -2.53125 C 1.179688 -1.875 1.285156 -1.378906 1.484375 -1.046875 C 1.679688 -0.710938 1.976562 -0.546875 2.375 -0.546875 C 2.570312 -0.546875 2.757812 -0.570312 2.9375 -0.625 C 3.125 -0.6875 3.316406 -0.78125 3.515625 -0.90625 L 3.515625 -0.234375 C 3.328125 -0.117188 3.132812 -0.0351562 2.9375 0.015625 C 2.738281 0.0664062 2.523438 0.09375 2.296875 0.09375 C 1.859375 0.09375 1.5 -0.0234375 1.21875 -0.265625 C 0.945312 -0.503906 0.75 -0.828125 0.625 -1.234375 C 0.5 -1.648438 0.4375 -2.117188 0.4375 -2.640625 C 0.4375 -3.234375 0.5 -3.738281 0.625 -4.15625 C 0.75 -4.570312 0.9375 -4.882812 1.1875 -5.09375 C 1.4375 -5.3125 1.75 -5.421875 2.125 -5.421875 Z M 2.125 -4.8125 C 1.84375 -4.8125 1.617188 -4.671875 1.453125 -4.390625 C 1.296875 -4.117188 1.207031 -3.703125 1.1875 -3.140625 L 3.015625 -3.140625 C 3.015625 -3.441406 2.984375 -3.71875 2.921875 -3.96875 C 2.859375 -4.21875 2.757812 -4.421875 2.625 -4.578125 C 2.5 -4.734375 2.332031 -4.8125 2.125 -4.8125 Z M 2.125 -4.8125 "/></g></g></g><g fill="#2d6d5e" fill-opacity="1"><g transform="translate(57.877491, 124.013273)"><g><path d="M 3.15625 2.375 L 3.15625 0.125 C 3.15625 0.0195312 3.160156 -0.109375 3.171875 -0.265625 C 3.179688 -0.421875 3.191406 -0.59375 3.203125 -0.78125 L 3.15625 -0.78125 C 3.019531 -0.488281 2.851562 -0.269531 2.65625 -0.125 C 2.457031 0.0195312 2.222656 0.09375 1.953125 0.09375 C 1.460938 0.09375 1.082031 -0.132812 0.8125 -0.59375 C 0.550781 -1.0625 0.421875 -1.742188 0.421875 -2.640625 C 0.421875 -3.253906 0.484375 -3.765625 0.609375 -4.171875 C 0.734375 -4.585938 0.910156 -4.898438 1.140625 -5.109375 C 1.378906 -5.328125 1.660156 -5.4375 1.984375 -5.4375 C 2.242188 -5.4375 2.46875 -5.367188 2.65625 -5.234375 C 2.851562 -5.097656 3.019531 -4.882812 3.15625 -4.59375 L 3.203125 -4.59375 L 3.28125 -5.34375 L 3.90625 -5.34375 L 3.90625 2.375 Z M 2.15625 -0.5625 C 2.375 -0.5625 2.554688 -0.628906 2.703125 -0.765625 C 2.859375 -0.910156 2.972656 -1.117188 3.046875 -1.390625 C 3.117188 -1.660156 3.15625 -2 3.15625 -2.40625 L 3.15625 -2.75 C 3.15625 -3.4375 3.070312 -3.941406 2.90625 -4.265625 C 2.738281 -4.597656 2.484375 -4.765625 2.140625 -4.765625 C 1.804688 -4.765625 1.5625 -4.582031 1.40625 -4.21875 C 1.257812 -3.851562 1.1875 -3.328125 1.1875 -2.640625 C 1.1875 -1.910156 1.265625 -1.378906 1.421875 -1.046875 C 1.585938 -0.722656 1.832031 -0.5625 2.15625 -0.5625 Z M 2.15625 -0.5625 "/></g></g></g><g fill="#2d6d5e" fill-opacity="1"><g transform="translate(63.82324, 124.013273)"><g><path d="M 3.828125 -5.34375 L 3.828125 0 L 3.234375 0 L 3.15625 -0.765625 L 3.09375 -0.765625 C 3.03125 -0.585938 2.941406 -0.429688 2.828125 -0.296875 C 2.710938 -0.171875 2.578125 -0.0703125 2.421875 0 C 2.273438 0.0625 2.109375 0.09375 1.921875 0.09375 C 1.609375 0.09375 1.359375 0.015625 1.171875 -0.140625 C 0.984375 -0.296875 0.84375 -0.515625 0.75 -0.796875 C 0.664062 -1.085938 0.625 -1.429688 0.625 -1.828125 L 0.625 -5.34375 L 1.375 -5.34375 L 1.375 -1.96875 C 1.375 -1.488281 1.429688 -1.132812 1.546875 -0.90625 C 1.660156 -0.6875 1.832031 -0.578125 2.0625 -0.578125 C 2.3125 -0.578125 2.507812 -0.644531 2.65625 -0.78125 C 2.800781 -0.914062 2.910156 -1.125 2.984375 -1.40625 C 3.054688 -1.6875 3.09375 -2.039062 3.09375 -2.46875 L 3.09375 -5.34375 Z M 3.828125 -5.34375 "/></g></g></g><g fill="#2d6d5e" fill-opacity="1"><g transform="translate(69.700973, 124.013273)"><g><path d="M 1.40625 -5.34375 L 1.40625 0 L 0.65625 0 L 0.65625 -5.34375 Z M 1.046875 -7.34375 C 1.191406 -7.34375 1.300781 -7.289062 1.375 -7.1875 C 1.445312 -7.09375 1.484375 -6.960938 1.484375 -6.796875 C 1.484375 -6.617188 1.445312 -6.484375 1.375 -6.390625 C 1.300781 -6.296875 1.191406 -6.25 1.046875 -6.25 C 0.898438 -6.25 0.785156 -6.296875 0.703125 -6.390625 C 0.628906 -6.484375 0.59375 -6.617188 0.59375 -6.796875 C 0.59375 -6.972656 0.628906 -7.109375 0.703125 -7.203125 C 0.785156 -7.296875 0.898438 -7.34375 1.046875 -7.34375 Z M 1.046875 -7.34375 "/></g></g></g><g fill="#2d6d5e" fill-opacity="1"><g transform="translate(73.154404, 124.013273)"><g><path d="M 1.40625 0 L 0.65625 0 L 0.65625 -7.5625 L 1.40625 -7.5625 Z M 1.40625 0 "/></g></g></g><g fill="#2d6d5e" fill-opacity="1"><g transform="translate(76.588402, 124.013273)"><g><path d="M 1.40625 0 L 0.65625 0 L 0.65625 -5.34375 L 1.40625 -5.34375 Z M 2.328125 -7.625 L 2.328125 -7.53125 C 2.265625 -7.425781 2.175781 -7.304688 2.0625 -7.171875 C 1.957031 -7.035156 1.84375 -6.894531 1.71875 -6.75 C 1.59375 -6.613281 1.46875 -6.484375 1.34375 -6.359375 C 1.21875 -6.234375 1.101562 -6.125 1 -6.03125 L 0.53125 -6.03125 L 0.53125 -6.140625 C 0.65625 -6.316406 0.769531 -6.488281 0.875 -6.65625 C 0.988281 -6.832031 1.09375 -7 1.1875 -7.15625 C 1.28125 -7.3125 1.363281 -7.46875 1.4375 -7.625 Z M 2.328125 -7.625 "/></g></g></g><g fill="#2d6d5e" fill-opacity="1"><g transform="translate(80.032116, 124.013273)"><g><path d="M 1.40625 -7.5625 L 1.40625 -5.34375 C 1.40625 -5.238281 1.398438 -5.117188 1.390625 -4.984375 C 1.390625 -4.859375 1.382812 -4.722656 1.375 -4.578125 L 1.40625 -4.578125 C 1.539062 -4.859375 1.707031 -5.066406 1.90625 -5.203125 C 2.101562 -5.347656 2.332031 -5.421875 2.59375 -5.421875 C 3.101562 -5.421875 3.488281 -5.1875 3.75 -4.71875 C 4.007812 -4.257812 4.140625 -3.578125 4.140625 -2.671875 C 4.140625 -2.078125 4.082031 -1.570312 3.96875 -1.15625 C 3.851562 -0.75 3.679688 -0.4375 3.453125 -0.21875 C 3.222656 -0.0078125 2.941406 0.09375 2.609375 0.09375 C 2.347656 0.09375 2.117188 0.03125 1.921875 -0.09375 C 1.722656 -0.226562 1.550781 -0.429688 1.40625 -0.703125 L 1.359375 -0.703125 L 1.265625 0 L 0.65625 0 L 0.65625 -7.5625 Z M 2.4375 -4.765625 C 2.15625 -4.765625 1.941406 -4.675781 1.796875 -4.5 C 1.648438 -4.332031 1.546875 -4.097656 1.484375 -3.796875 C 1.429688 -3.492188 1.40625 -3.148438 1.40625 -2.765625 L 1.40625 -2.53125 C 1.40625 -1.863281 1.488281 -1.363281 1.65625 -1.03125 C 1.832031 -0.707031 2.09375 -0.546875 2.4375 -0.546875 C 2.75 -0.546875 2.984375 -0.71875 3.140625 -1.0625 C 3.296875 -1.414062 3.375 -1.957031 3.375 -2.6875 C 3.375 -3.375 3.296875 -3.890625 3.140625 -4.234375 C 2.992188 -4.585938 2.757812 -4.765625 2.4375 -4.765625 Z M 2.4375 -4.765625 "/></g></g></g><g fill="#2d6d5e" fill-opacity="1"><g transform="translate(85.977865, 124.013273)"><g><path d="M 2.4375 -5.421875 C 2.507812 -5.421875 2.582031 -5.414062 2.65625 -5.40625 C 2.726562 -5.394531 2.804688 -5.378906 2.890625 -5.359375 L 2.78125 -4.59375 C 2.71875 -4.613281 2.65625 -4.628906 2.59375 -4.640625 C 2.53125 -4.648438 2.457031 -4.65625 2.375 -4.65625 C 2.226562 -4.65625 2.09375 -4.609375 1.96875 -4.515625 C 1.851562 -4.421875 1.75 -4.285156 1.65625 -4.109375 C 1.570312 -3.941406 1.503906 -3.742188 1.453125 -3.515625 C 1.410156 -3.285156 1.394531 -3.039062 1.40625 -2.78125 L 1.40625 0 L 0.65625 0 L 0.65625 -5.34375 L 1.234375 -5.34375 L 1.34375 -4.390625 L 1.390625 -4.390625 C 1.460938 -4.585938 1.546875 -4.765625 1.640625 -4.921875 C 1.742188 -5.078125 1.859375 -5.195312 1.984375 -5.28125 C 2.117188 -5.375 2.269531 -5.421875 2.4375 -5.421875 Z M 2.4375 -5.421875 "/></g></g></g><g fill="#2d6d5e" fill-opacity="1"><g transform="translate(90.354375, 124.013273)"><g><path d="M 1.40625 -5.34375 L 1.40625 0 L 0.65625 0 L 0.65625 -5.34375 Z M 1.046875 -7.34375 C 1.191406 -7.34375 1.300781 -7.289062 1.375 -7.1875 C 1.445312 -7.09375 1.484375 -6.960938 1.484375 -6.796875 C 1.484375 -6.617188 1.445312 -6.484375 1.375 -6.390625 C 1.300781 -6.296875 1.191406 -6.25 1.046875 -6.25 C 0.898438 -6.25 0.785156 -6.296875 0.703125 -6.390625 C 0.628906 -6.484375 0.59375 -6.617188 0.59375 -6.796875 C 0.59375 -6.972656 0.628906 -7.109375 0.703125 -7.203125 C 0.785156 -7.296875 0.898438 -7.34375 1.046875 -7.34375 Z M 1.046875 -7.34375 "/></g></g></g><g fill="#2d6d5e" fill-opacity="1"><g transform="translate(93.807806, 124.013273)"><g><path d="M 3.953125 -2.671875 C 3.953125 -2.253906 3.914062 -1.875 3.84375 -1.53125 C 3.78125 -1.1875 3.675781 -0.894531 3.53125 -0.65625 C 3.382812 -0.414062 3.195312 -0.226562 2.96875 -0.09375 C 2.75 0.03125 2.488281 0.09375 2.1875 0.09375 C 1.894531 0.09375 1.632812 0.03125 1.40625 -0.09375 C 1.1875 -0.226562 1.003906 -0.414062 0.859375 -0.65625 C 0.710938 -0.894531 0.601562 -1.1875 0.53125 -1.53125 C 0.457031 -1.875 0.421875 -2.253906 0.421875 -2.671875 C 0.421875 -3.265625 0.484375 -3.765625 0.609375 -4.171875 C 0.734375 -4.578125 0.925781 -4.890625 1.1875 -5.109375 C 1.457031 -5.328125 1.796875 -5.4375 2.203125 -5.4375 C 2.578125 -5.4375 2.894531 -5.332031 3.15625 -5.125 C 3.414062 -4.914062 3.613281 -4.601562 3.75 -4.1875 C 3.882812 -3.78125 3.953125 -3.273438 3.953125 -2.671875 Z M 1.1875 -2.671875 C 1.1875 -2.210938 1.222656 -1.820312 1.296875 -1.5 C 1.367188 -1.1875 1.476562 -0.953125 1.625 -0.796875 C 1.78125 -0.640625 1.972656 -0.5625 2.203125 -0.5625 C 2.429688 -0.5625 2.617188 -0.640625 2.765625 -0.796875 C 2.910156 -0.953125 3.019531 -1.1875 3.09375 -1.5 C 3.164062 -1.8125 3.203125 -2.203125 3.203125 -2.671875 C 3.203125 -3.140625 3.164062 -3.53125 3.09375 -3.84375 C 3.019531 -4.15625 2.910156 -4.390625 2.765625 -4.546875 C 2.617188 -4.703125 2.429688 -4.78125 2.203125 -4.78125 C 1.835938 -4.78125 1.578125 -4.601562 1.421875 -4.25 C 1.265625 -3.894531 1.1875 -3.367188 1.1875 -2.671875 Z M 1.1875 -2.671875 "/></g></g></g><g fill="#2d6d5e" fill-opacity="1"><g transform="translate(99.583508, 124.013273)"><g/></g></g><g fill="#2d6d5e" fill-opacity="1"><g transform="translate(102.823174, 124.013273)"><g><path d="M 2.125 -5.421875 C 2.476562 -5.421875 2.773438 -5.316406 3.015625 -5.109375 C 3.253906 -4.898438 3.429688 -4.613281 3.546875 -4.25 C 3.660156 -3.894531 3.71875 -3.5 3.71875 -3.0625 L 3.71875 -2.53125 L 1.171875 -2.53125 C 1.179688 -1.875 1.285156 -1.378906 1.484375 -1.046875 C 1.679688 -0.710938 1.976562 -0.546875 2.375 -0.546875 C 2.570312 -0.546875 2.757812 -0.570312 2.9375 -0.625 C 3.125 -0.6875 3.316406 -0.78125 3.515625 -0.90625 L 3.515625 -0.234375 C 3.328125 -0.117188 3.132812 -0.0351562 2.9375 0.015625 C 2.738281 0.0664062 2.523438 0.09375 2.296875 0.09375 C 1.859375 0.09375 1.5 -0.0234375 1.21875 -0.265625 C 0.945312 -0.503906 0.75 -0.828125 0.625 -1.234375 C 0.5 -1.648438 0.4375 -2.117188 0.4375 -2.640625 C 0.4375 -3.234375 0.5 -3.738281 0.625 -4.15625 C 0.75 -4.570312 0.9375 -4.882812 1.1875 -5.09375 C 1.4375 -5.3125 1.75 -5.421875 2.125 -5.421875 Z M 2.125 -4.8125 C 1.84375 -4.8125 1.617188 -4.671875 1.453125 -4.390625 C 1.296875 -4.117188 1.207031 -3.703125 1.1875 -3.140625 L 3.015625 -3.140625 C 3.015625 -3.441406 2.984375 -3.71875 2.921875 -3.96875 C 2.859375 -4.21875 2.757812 -4.421875 2.625 -4.578125 C 2.5 -4.734375 2.332031 -4.8125 2.125 -4.8125 Z M 2.125 -4.8125 "/></g></g></g><g fill="#2d6d5e" fill-opacity="1"><g transform="translate(38.79056, 135.957717)"><g><path d="M 2.125 -5.421875 C 2.476562 -5.421875 2.773438 -5.316406 3.015625 -5.109375 C 3.253906 -4.898438 3.429688 -4.613281 3.546875 -4.25 C 3.660156 -3.894531 3.71875 -3.5 3.71875 -3.0625 L 3.71875 -2.53125 L 1.171875 -2.53125 C 1.179688 -1.875 1.285156 -1.378906 1.484375 -1.046875 C 1.679688 -0.710938 1.976562 -0.546875 2.375 -0.546875 C 2.570312 -0.546875 2.757812 -0.570312 2.9375 -0.625 C 3.125 -0.6875 3.316406 -0.78125 3.515625 -0.90625 L 3.515625 -0.234375 C 3.328125 -0.117188 3.132812 -0.0351562 2.9375 0.015625 C 2.738281 0.0664062 2.523438 0.09375 2.296875 0.09375 C 1.859375 0.09375 1.5 -0.0234375 1.21875 -0.265625 C 0.945312 -0.503906 0.75 -0.828125 0.625 -1.234375 C 0.5 -1.648438 0.4375 -2.117188 0.4375 -2.640625 C 0.4375 -3.234375 0.5 -3.738281 0.625 -4.15625 C 0.75 -4.570312 0.9375 -4.882812 1.1875 -5.09375 C 1.4375 -5.3125 1.75 -5.421875 2.125 -5.421875 Z M 2.125 -4.8125 C 1.84375 -4.8125 1.617188 -4.671875 1.453125 -4.390625 C 1.296875 -4.117188 1.207031 -3.703125 1.1875 -3.140625 L 3.015625 -3.140625 C 3.015625 -3.441406 2.984375 -3.71875 2.921875 -3.96875 C 2.859375 -4.21875 2.757812 -4.421875 2.625 -4.578125 C 2.5 -4.734375 2.332031 -4.8125 2.125 -4.8125 Z M 2.125 -4.8125 "/></g></g></g><g fill="#2d6d5e" fill-opacity="1"><g transform="translate(44.299062, 135.957717)"><g><path d="M 3.015625 -1.40625 C 3.015625 -1.082031 2.957031 -0.804688 2.84375 -0.578125 C 2.726562 -0.359375 2.554688 -0.191406 2.328125 -0.078125 C 2.109375 0.0351562 1.84375 0.09375 1.53125 0.09375 C 1.28125 0.09375 1.050781 0.0625 0.84375 0 C 0.644531 -0.0507812 0.472656 -0.117188 0.328125 -0.203125 L 0.328125 -0.984375 C 0.472656 -0.859375 0.648438 -0.757812 0.859375 -0.6875 C 1.078125 -0.613281 1.289062 -0.578125 1.5 -0.578125 C 1.75 -0.578125 1.941406 -0.644531 2.078125 -0.78125 C 2.210938 -0.925781 2.28125 -1.128906 2.28125 -1.390625 C 2.28125 -1.535156 2.253906 -1.664062 2.203125 -1.78125 C 2.148438 -1.894531 2.0625 -2 1.9375 -2.09375 C 1.8125 -2.195312 1.648438 -2.304688 1.453125 -2.421875 C 1.234375 -2.554688 1.039062 -2.695312 0.875 -2.84375 C 0.707031 -2.988281 0.570312 -3.15625 0.46875 -3.34375 C 0.375 -3.539062 0.328125 -3.773438 0.328125 -4.046875 C 0.328125 -4.460938 0.460938 -4.796875 0.734375 -5.046875 C 1.003906 -5.304688 1.363281 -5.4375 1.8125 -5.4375 C 2.03125 -5.4375 2.238281 -5.40625 2.4375 -5.34375 C 2.644531 -5.289062 2.835938 -5.207031 3.015625 -5.09375 L 2.734375 -4.484375 C 2.597656 -4.578125 2.453125 -4.648438 2.296875 -4.703125 C 2.140625 -4.765625 1.984375 -4.796875 1.828125 -4.796875 C 1.585938 -4.796875 1.394531 -4.726562 1.25 -4.59375 C 1.113281 -4.457031 1.046875 -4.28125 1.046875 -4.0625 C 1.046875 -3.914062 1.070312 -3.785156 1.125 -3.671875 C 1.1875 -3.566406 1.28125 -3.460938 1.40625 -3.359375 C 1.53125 -3.265625 1.695312 -3.15625 1.90625 -3.03125 C 2.125 -2.882812 2.316406 -2.738281 2.484375 -2.59375 C 2.648438 -2.457031 2.78125 -2.296875 2.875 -2.109375 C 2.96875 -1.921875 3.015625 -1.6875 3.015625 -1.40625 Z M 3.015625 -1.40625 "/></g></g></g><g fill="#2d6d5e" fill-opacity="1"><g transform="translate(49.035086, 135.957717)"><g><path d="M 1.90625 -0.5625 C 1.988281 -0.5625 2.066406 -0.570312 2.140625 -0.59375 C 2.222656 -0.613281 2.300781 -0.640625 2.375 -0.671875 L 2.375 -0.046875 C 2.28125 -0.00390625 2.171875 0.0234375 2.046875 0.046875 C 1.929688 0.078125 1.804688 0.09375 1.671875 0.09375 C 1.441406 0.09375 1.25 0.0390625 1.09375 -0.0625 C 0.945312 -0.164062 0.835938 -0.316406 0.765625 -0.515625 C 0.703125 -0.722656 0.671875 -0.984375 0.671875 -1.296875 L 0.671875 -4.703125 L 0.171875 -4.703125 L 0.171875 -5.125 L 0.703125 -5.3125 L 0.90625 -6.546875 L 1.421875 -6.546875 L 1.421875 -5.34375 L 2.328125 -5.34375 L 2.328125 -4.703125 L 1.421875 -4.703125 L 1.421875 -1.390625 C 1.421875 -1.109375 1.453125 -0.898438 1.515625 -0.765625 C 1.585938 -0.628906 1.71875 -0.5625 1.90625 -0.5625 Z M 1.90625 -0.5625 "/></g></g></g><g fill="#2d6d5e" fill-opacity="1"><g transform="translate(52.950062, 135.957717)"><g><path d="M 2.078125 -5.4375 C 2.566406 -5.4375 2.914062 -5.273438 3.125 -4.953125 C 3.34375 -4.640625 3.453125 -4.1875 3.453125 -3.59375 L 3.453125 0 L 2.875 0 L 2.765625 -0.765625 L 2.75 -0.765625 C 2.664062 -0.578125 2.566406 -0.421875 2.453125 -0.296875 C 2.335938 -0.171875 2.203125 -0.0703125 2.046875 0 C 1.898438 0.0625 1.726562 0.09375 1.53125 0.09375 C 1.257812 0.09375 1.035156 0.0195312 0.859375 -0.125 C 0.679688 -0.269531 0.550781 -0.457031 0.46875 -0.6875 C 0.382812 -0.925781 0.34375 -1.1875 0.34375 -1.46875 C 0.34375 -2 0.492188 -2.410156 0.796875 -2.703125 C 1.109375 -2.992188 1.539062 -3.148438 2.09375 -3.171875 L 2.703125 -3.21875 L 2.703125 -3.578125 C 2.703125 -4.003906 2.644531 -4.316406 2.53125 -4.515625 C 2.414062 -4.710938 2.226562 -4.8125 1.96875 -4.8125 C 1.820312 -4.8125 1.664062 -4.785156 1.5 -4.734375 C 1.332031 -4.679688 1.15625 -4.597656 0.96875 -4.484375 L 0.734375 -5.046875 C 0.929688 -5.179688 1.144531 -5.28125 1.375 -5.34375 C 1.601562 -5.40625 1.835938 -5.4375 2.078125 -5.4375 Z M 2.71875 -2.65625 L 2.21875 -2.625 C 1.84375 -2.601562 1.5625 -2.5 1.375 -2.3125 C 1.195312 -2.125 1.109375 -1.847656 1.109375 -1.484375 C 1.109375 -1.148438 1.164062 -0.90625 1.28125 -0.75 C 1.40625 -0.59375 1.570312 -0.515625 1.78125 -0.515625 C 2.070312 -0.515625 2.300781 -0.65625 2.46875 -0.9375 C 2.632812 -1.21875 2.71875 -1.613281 2.71875 -2.125 Z M 2.71875 -2.65625 "/></g></g></g><g fill="#2d6d5e" fill-opacity="1"><g transform="translate(58.429413, 135.957717)"><g><path d="M 1.40625 -7.5625 L 1.40625 -5.34375 C 1.40625 -5.238281 1.398438 -5.117188 1.390625 -4.984375 C 1.390625 -4.859375 1.382812 -4.722656 1.375 -4.578125 L 1.40625 -4.578125 C 1.539062 -4.859375 1.707031 -5.066406 1.90625 -5.203125 C 2.101562 -5.347656 2.332031 -5.421875 2.59375 -5.421875 C 3.101562 -5.421875 3.488281 -5.1875 3.75 -4.71875 C 4.007812 -4.257812 4.140625 -3.578125 4.140625 -2.671875 C 4.140625 -2.078125 4.082031 -1.570312 3.96875 -1.15625 C 3.851562 -0.75 3.679688 -0.4375 3.453125 -0.21875 C 3.222656 -0.0078125 2.941406 0.09375 2.609375 0.09375 C 2.347656 0.09375 2.117188 0.03125 1.921875 -0.09375 C 1.722656 -0.226562 1.550781 -0.429688 1.40625 -0.703125 L 1.359375 -0.703125 L 1.265625 0 L 0.65625 0 L 0.65625 -7.5625 Z M 2.4375 -4.765625 C 2.15625 -4.765625 1.941406 -4.675781 1.796875 -4.5 C 1.648438 -4.332031 1.546875 -4.097656 1.484375 -3.796875 C 1.429688 -3.492188 1.40625 -3.148438 1.40625 -2.765625 L 1.40625 -2.53125 C 1.40625 -1.863281 1.488281 -1.363281 1.65625 -1.03125 C 1.832031 -0.707031 2.09375 -0.546875 2.4375 -0.546875 C 2.75 -0.546875 2.984375 -0.71875 3.140625 -1.0625 C 3.296875 -1.414062 3.375 -1.957031 3.375 -2.6875 C 3.375 -3.375 3.296875 -3.890625 3.140625 -4.234375 C 2.992188 -4.585938 2.757812 -4.765625 2.4375 -4.765625 Z M 2.4375 -4.765625 "/></g></g></g><g fill="#2d6d5e" fill-opacity="1"><g transform="translate(64.375162, 135.957717)"><g><path d="M 1.40625 -5.34375 L 1.40625 0 L 0.65625 0 L 0.65625 -5.34375 Z M 1.046875 -7.34375 C 1.191406 -7.34375 1.300781 -7.289062 1.375 -7.1875 C 1.445312 -7.09375 1.484375 -6.960938 1.484375 -6.796875 C 1.484375 -6.617188 1.445312 -6.484375 1.375 -6.390625 C 1.300781 -6.296875 1.191406 -6.25 1.046875 -6.25 C 0.898438 -6.25 0.785156 -6.296875 0.703125 -6.390625 C 0.628906 -6.484375 0.59375 -6.617188 0.59375 -6.796875 C 0.59375 -6.972656 0.628906 -7.109375 0.703125 -7.203125 C 0.785156 -7.296875 0.898438 -7.34375 1.046875 -7.34375 Z M 1.046875 -7.34375 "/></g></g></g><g fill="#2d6d5e" fill-opacity="1"><g transform="translate(67.828593, 135.957717)"><g><path d="M 1.40625 0 L 0.65625 0 L 0.65625 -7.5625 L 1.40625 -7.5625 Z M 1.40625 0 "/></g></g></g><g fill="#2d6d5e" fill-opacity="1"><g transform="translate(71.262591, 135.957717)"><g><path d="M 1.40625 -5.34375 L 1.40625 0 L 0.65625 0 L 0.65625 -5.34375 Z M 1.046875 -7.34375 C 1.191406 -7.34375 1.300781 -7.289062 1.375 -7.1875 C 1.445312 -7.09375 1.484375 -6.960938 1.484375 -6.796875 C 1.484375 -6.617188 1.445312 -6.484375 1.375 -6.390625 C 1.300781 -6.296875 1.191406 -6.25 1.046875 -6.25 C 0.898438 -6.25 0.785156 -6.296875 0.703125 -6.390625 C 0.628906 -6.484375 0.59375 -6.617188 0.59375 -6.796875 C 0.59375 -6.972656 0.628906 -7.109375 0.703125 -7.203125 C 0.785156 -7.296875 0.898438 -7.34375 1.046875 -7.34375 Z M 1.046875 -7.34375 "/></g></g></g><g fill="#2d6d5e" fill-opacity="1"><g transform="translate(74.716022, 135.957717)"><g><path d="M 1.984375 0.09375 C 1.472656 0.09375 1.082031 -0.140625 0.8125 -0.609375 C 0.550781 -1.078125 0.421875 -1.757812 0.421875 -2.65625 C 0.421875 -3.539062 0.550781 -4.222656 0.8125 -4.703125 C 1.082031 -5.191406 1.460938 -5.4375 1.953125 -5.4375 C 2.128906 -5.4375 2.289062 -5.398438 2.4375 -5.328125 C 2.59375 -5.265625 2.726562 -5.171875 2.84375 -5.046875 C 2.96875 -4.929688 3.070312 -4.785156 3.15625 -4.609375 L 3.1875 -4.609375 C 3.1875 -4.753906 3.179688 -4.882812 3.171875 -5 C 3.171875 -5.125 3.171875 -5.238281 3.171875 -5.34375 L 3.171875 -7.5625 L 3.90625 -7.5625 L 3.90625 0 L 3.3125 0 L 3.21875 -0.71875 L 3.171875 -0.71875 C 3.078125 -0.550781 2.972656 -0.40625 2.859375 -0.28125 C 2.742188 -0.15625 2.613281 -0.0625 2.46875 0 C 2.320312 0.0625 2.160156 0.09375 1.984375 0.09375 Z M 2.140625 -0.546875 C 2.484375 -0.546875 2.738281 -0.703125 2.90625 -1.015625 C 3.082031 -1.328125 3.171875 -1.789062 3.171875 -2.40625 L 3.171875 -2.765625 C 3.171875 -3.441406 3.085938 -3.941406 2.921875 -4.265625 C 2.753906 -4.597656 2.492188 -4.765625 2.140625 -4.765625 C 1.804688 -4.765625 1.5625 -4.582031 1.40625 -4.21875 C 1.257812 -3.863281 1.1875 -3.34375 1.1875 -2.65625 C 1.1875 -1.957031 1.257812 -1.429688 1.40625 -1.078125 C 1.5625 -0.722656 1.804688 -0.546875 2.140625 -0.546875 Z M 2.140625 -0.546875 "/></g></g></g><g fill="#2d6d5e" fill-opacity="1"><g transform="translate(80.661771, 135.957717)"><g><path d="M 2.078125 -5.4375 C 2.566406 -5.4375 2.914062 -5.273438 3.125 -4.953125 C 3.34375 -4.640625 3.453125 -4.1875 3.453125 -3.59375 L 3.453125 0 L 2.875 0 L 2.765625 -0.765625 L 2.75 -0.765625 C 2.664062 -0.578125 2.566406 -0.421875 2.453125 -0.296875 C 2.335938 -0.171875 2.203125 -0.0703125 2.046875 0 C 1.898438 0.0625 1.726562 0.09375 1.53125 0.09375 C 1.257812 0.09375 1.035156 0.0195312 0.859375 -0.125 C 0.679688 -0.269531 0.550781 -0.457031 0.46875 -0.6875 C 0.382812 -0.925781 0.34375 -1.1875 0.34375 -1.46875 C 0.34375 -2 0.492188 -2.410156 0.796875 -2.703125 C 1.109375 -2.992188 1.539062 -3.148438 2.09375 -3.171875 L 2.703125 -3.21875 L 2.703125 -3.578125 C 2.703125 -4.003906 2.644531 -4.316406 2.53125 -4.515625 C 2.414062 -4.710938 2.226562 -4.8125 1.96875 -4.8125 C 1.820312 -4.8125 1.664062 -4.785156 1.5 -4.734375 C 1.332031 -4.679688 1.15625 -4.597656 0.96875 -4.484375 L 0.734375 -5.046875 C 0.929688 -5.179688 1.144531 -5.28125 1.375 -5.34375 C 1.601562 -5.40625 1.835938 -5.4375 2.078125 -5.4375 Z M 2.71875 -2.65625 L 2.21875 -2.625 C 1.84375 -2.601562 1.5625 -2.5 1.375 -2.3125 C 1.195312 -2.125 1.109375 -1.847656 1.109375 -1.484375 C 1.109375 -1.148438 1.164062 -0.90625 1.28125 -0.75 C 1.40625 -0.59375 1.570312 -0.515625 1.78125 -0.515625 C 2.070312 -0.515625 2.300781 -0.65625 2.46875 -0.9375 C 2.632812 -1.21875 2.71875 -1.613281 2.71875 -2.125 Z M 2.71875 -2.65625 "/></g></g></g><g fill="#2d6d5e" fill-opacity="1"><g transform="translate(86.141122, 135.957717)"><g><path d="M 1.984375 0.09375 C 1.472656 0.09375 1.082031 -0.140625 0.8125 -0.609375 C 0.550781 -1.078125 0.421875 -1.757812 0.421875 -2.65625 C 0.421875 -3.539062 0.550781 -4.222656 0.8125 -4.703125 C 1.082031 -5.191406 1.460938 -5.4375 1.953125 -5.4375 C 2.128906 -5.4375 2.289062 -5.398438 2.4375 -5.328125 C 2.59375 -5.265625 2.726562 -5.171875 2.84375 -5.046875 C 2.96875 -4.929688 3.070312 -4.785156 3.15625 -4.609375 L 3.1875 -4.609375 C 3.1875 -4.753906 3.179688 -4.882812 3.171875 -5 C 3.171875 -5.125 3.171875 -5.238281 3.171875 -5.34375 L 3.171875 -7.5625 L 3.90625 -7.5625 L 3.90625 0 L 3.3125 0 L 3.21875 -0.71875 L 3.171875 -0.71875 C 3.078125 -0.550781 2.972656 -0.40625 2.859375 -0.28125 C 2.742188 -0.15625 2.613281 -0.0625 2.46875 0 C 2.320312 0.0625 2.160156 0.09375 1.984375 0.09375 Z M 2.140625 -0.546875 C 2.484375 -0.546875 2.738281 -0.703125 2.90625 -1.015625 C 3.082031 -1.328125 3.171875 -1.789062 3.171875 -2.40625 L 3.171875 -2.765625 C 3.171875 -3.441406 3.085938 -3.941406 2.921875 -4.265625 C 2.753906 -4.597656 2.492188 -4.765625 2.140625 -4.765625 C 1.804688 -4.765625 1.5625 -4.582031 1.40625 -4.21875 C 1.257812 -3.863281 1.1875 -3.34375 1.1875 -2.65625 C 1.1875 -1.957031 1.257812 -1.429688 1.40625 -1.078125 C 1.5625 -0.722656 1.804688 -0.546875 2.140625 -0.546875 Z M 2.140625 -0.546875 "/></g></g></g><g fill="#2d6d5e" fill-opacity="1"><g transform="translate(92.086871, 135.957717)"><g><path d="M 2.125 -5.421875 C 2.476562 -5.421875 2.773438 -5.316406 3.015625 -5.109375 C 3.253906 -4.898438 3.429688 -4.613281 3.546875 -4.25 C 3.660156 -3.894531 3.71875 -3.5 3.71875 -3.0625 L 3.71875 -2.53125 L 1.171875 -2.53125 C 1.179688 -1.875 1.285156 -1.378906 1.484375 -1.046875 C 1.679688 -0.710938 1.976562 -0.546875 2.375 -0.546875 C 2.570312 -0.546875 2.757812 -0.570312 2.9375 -0.625 C 3.125 -0.6875 3.316406 -0.78125 3.515625 -0.90625 L 3.515625 -0.234375 C 3.328125 -0.117188 3.132812 -0.0351562 2.9375 0.015625 C 2.738281 0.0664062 2.523438 0.09375 2.296875 0.09375 C 1.859375 0.09375 1.5 -0.0234375 1.21875 -0.265625 C 0.945312 -0.503906 0.75 -0.828125 0.625 -1.234375 C 0.5 -1.648438 0.4375 -2.117188 0.4375 -2.640625 C 0.4375 -3.234375 0.5 -3.738281 0.625 -4.15625 C 0.75 -4.570312 0.9375 -4.882812 1.1875 -5.09375 C 1.4375 -5.3125 1.75 -5.421875 2.125 -5.421875 Z M 2.125 -4.8125 C 1.84375 -4.8125 1.617188 -4.671875 1.453125 -4.390625 C 1.296875 -4.117188 1.207031 -3.703125 1.1875 -3.140625 L 3.015625 -3.140625 C 3.015625 -3.441406 2.984375 -3.71875 2.921875 -3.96875 C 2.859375 -4.21875 2.757812 -4.421875 2.625 -4.578125 C 2.5 -4.734375 2.332031 -4.8125 2.125 -4.8125 Z M 2.125 -4.8125 "/></g></g></g><g fill="#2d6d5e" fill-opacity="1"><g transform="translate(44.086241, 147.90216)"><g><path d="M 2.125 -5.421875 C 2.476562 -5.421875 2.773438 -5.316406 3.015625 -5.109375 C 3.253906 -4.898438 3.429688 -4.613281 3.546875 -4.25 C 3.660156 -3.894531 3.71875 -3.5 3.71875 -3.0625 L 3.71875 -2.53125 L 1.171875 -2.53125 C 1.179688 -1.875 1.285156 -1.378906 1.484375 -1.046875 C 1.679688 -0.710938 1.976562 -0.546875 2.375 -0.546875 C 2.570312 -0.546875 2.757812 -0.570312 2.9375 -0.625 C 3.125 -0.6875 3.316406 -0.78125 3.515625 -0.90625 L 3.515625 -0.234375 C 3.328125 -0.117188 3.132812 -0.0351562 2.9375 0.015625 C 2.738281 0.0664062 2.523438 0.09375 2.296875 0.09375 C 1.859375 0.09375 1.5 -0.0234375 1.21875 -0.265625 C 0.945312 -0.503906 0.75 -0.828125 0.625 -1.234375 C 0.5 -1.648438 0.4375 -2.117188 0.4375 -2.640625 C 0.4375 -3.234375 0.5 -3.738281 0.625 -4.15625 C 0.75 -4.570312 0.9375 -4.882812 1.1875 -5.09375 C 1.4375 -5.3125 1.75 -5.421875 2.125 -5.421875 Z M 2.125 -4.8125 C 1.84375 -4.8125 1.617188 -4.671875 1.453125 -4.390625 C 1.296875 -4.117188 1.207031 -3.703125 1.1875 -3.140625 L 3.015625 -3.140625 C 3.015625 -3.441406 2.984375 -3.71875 2.921875 -3.96875 C 2.859375 -4.21875 2.757812 -4.421875 2.625 -4.578125 C 2.5 -4.734375 2.332031 -4.8125 2.125 -4.8125 Z M 2.125 -4.8125 "/></g></g></g><g fill="#2d6d5e" fill-opacity="1"><g transform="translate(49.594743, 147.90216)"><g><path d="M 4.84375 -5.4375 C 5.257812 -5.4375 5.566406 -5.285156 5.765625 -4.984375 C 5.972656 -4.679688 6.078125 -4.21875 6.078125 -3.59375 L 6.078125 0 L 5.328125 0 L 5.328125 -3.46875 C 5.328125 -3.9375 5.265625 -4.269531 5.140625 -4.46875 C 5.023438 -4.664062 4.859375 -4.765625 4.640625 -4.765625 C 4.316406 -4.765625 4.082031 -4.613281 3.9375 -4.3125 C 3.800781 -4.007812 3.734375 -3.570312 3.734375 -3 L 3.734375 0 L 3 0 L 3 -3.46875 C 3 -3.789062 2.972656 -4.046875 2.921875 -4.234375 C 2.867188 -4.421875 2.789062 -4.554688 2.6875 -4.640625 C 2.582031 -4.722656 2.453125 -4.765625 2.296875 -4.765625 C 2.054688 -4.765625 1.867188 -4.679688 1.734375 -4.515625 C 1.609375 -4.359375 1.519531 -4.132812 1.46875 -3.84375 C 1.425781 -3.550781 1.40625 -3.222656 1.40625 -2.859375 L 1.40625 0 L 0.65625 0 L 0.65625 -5.34375 L 1.25 -5.34375 L 1.34375 -4.578125 L 1.375 -4.578125 C 1.445312 -4.753906 1.535156 -4.90625 1.640625 -5.03125 C 1.742188 -5.164062 1.867188 -5.265625 2.015625 -5.328125 C 2.171875 -5.398438 2.335938 -5.4375 2.515625 -5.4375 C 2.828125 -5.4375 3.070312 -5.351562 3.25 -5.1875 C 3.425781 -5.019531 3.539062 -4.804688 3.59375 -4.546875 L 3.65625 -4.546875 C 3.78125 -4.847656 3.929688 -5.070312 4.109375 -5.21875 C 4.296875 -5.363281 4.539062 -5.4375 4.84375 -5.4375 Z M 4.84375 -5.4375 "/></g></g></g><g fill="#2d6d5e" fill-opacity="1"><g transform="translate(57.692716, 147.90216)"><g><path d="M 3.953125 -2.671875 C 3.953125 -2.253906 3.914062 -1.875 3.84375 -1.53125 C 3.78125 -1.1875 3.675781 -0.894531 3.53125 -0.65625 C 3.382812 -0.414062 3.195312 -0.226562 2.96875 -0.09375 C 2.75 0.03125 2.488281 0.09375 2.1875 0.09375 C 1.894531 0.09375 1.632812 0.03125 1.40625 -0.09375 C 1.1875 -0.226562 1.003906 -0.414062 0.859375 -0.65625 C 0.710938 -0.894531 0.601562 -1.1875 0.53125 -1.53125 C 0.457031 -1.875 0.421875 -2.253906 0.421875 -2.671875 C 0.421875 -3.265625 0.484375 -3.765625 0.609375 -4.171875 C 0.734375 -4.578125 0.925781 -4.890625 1.1875 -5.109375 C 1.457031 -5.328125 1.796875 -5.4375 2.203125 -5.4375 C 2.578125 -5.4375 2.894531 -5.332031 3.15625 -5.125 C 3.414062 -4.914062 3.613281 -4.601562 3.75 -4.1875 C 3.882812 -3.78125 3.953125 -3.273438 3.953125 -2.671875 Z M 1.1875 -2.671875 C 1.1875 -2.210938 1.222656 -1.820312 1.296875 -1.5 C 1.367188 -1.1875 1.476562 -0.953125 1.625 -0.796875 C 1.78125 -0.640625 1.972656 -0.5625 2.203125 -0.5625 C 2.429688 -0.5625 2.617188 -0.640625 2.765625 -0.796875 C 2.910156 -0.953125 3.019531 -1.1875 3.09375 -1.5 C 3.164062 -1.8125 3.203125 -2.203125 3.203125 -2.671875 C 3.203125 -3.140625 3.164062 -3.53125 3.09375 -3.84375 C 3.019531 -4.15625 2.910156 -4.390625 2.765625 -4.546875 C 2.617188 -4.703125 2.429688 -4.78125 2.203125 -4.78125 C 1.835938 -4.78125 1.578125 -4.601562 1.421875 -4.25 C 1.265625 -3.894531 1.1875 -3.367188 1.1875 -2.671875 Z M 1.1875 -2.671875 "/></g></g></g><g fill="#2d6d5e" fill-opacity="1"><g transform="translate(63.468418, 147.90216)"><g><path d="M 2.1875 0.09375 C 1.800781 0.09375 1.476562 -0.00390625 1.21875 -0.203125 C 0.957031 -0.410156 0.757812 -0.71875 0.625 -1.125 C 0.5 -1.53125 0.4375 -2.03125 0.4375 -2.625 C 0.4375 -3.21875 0.5 -3.722656 0.625 -4.140625 C 0.757812 -4.554688 0.957031 -4.875 1.21875 -5.09375 C 1.488281 -5.320312 1.820312 -5.4375 2.21875 -5.4375 C 2.414062 -5.4375 2.59375 -5.414062 2.75 -5.375 C 2.914062 -5.332031 3.070312 -5.269531 3.21875 -5.1875 L 2.96875 -4.578125 C 2.851562 -4.640625 2.734375 -4.6875 2.609375 -4.71875 C 2.492188 -4.75 2.378906 -4.765625 2.265625 -4.765625 C 2.035156 -4.765625 1.835938 -4.679688 1.671875 -4.515625 C 1.515625 -4.359375 1.394531 -4.125 1.3125 -3.8125 C 1.238281 -3.5 1.203125 -3.109375 1.203125 -2.640625 C 1.203125 -2.179688 1.238281 -1.796875 1.3125 -1.484375 C 1.394531 -1.179688 1.515625 -0.953125 1.671875 -0.796875 C 1.835938 -0.640625 2.039062 -0.5625 2.28125 -0.5625 C 2.414062 -0.5625 2.554688 -0.582031 2.703125 -0.625 C 2.859375 -0.664062 3.007812 -0.722656 3.15625 -0.796875 L 3.15625 -0.171875 C 3.019531 -0.078125 2.859375 -0.0078125 2.671875 0.03125 C 2.492188 0.0703125 2.332031 0.09375 2.1875 0.09375 Z M 2.1875 0.09375 "/></g></g></g><g fill="#2d6d5e" fill-opacity="1"><g transform="translate(68.277323, 147.90216)"><g><path d="M 1.40625 -5.34375 L 1.40625 0 L 0.65625 0 L 0.65625 -5.34375 Z M 1.046875 -7.34375 C 1.191406 -7.34375 1.300781 -7.289062 1.375 -7.1875 C 1.445312 -7.09375 1.484375 -6.960938 1.484375 -6.796875 C 1.484375 -6.617188 1.445312 -6.484375 1.375 -6.390625 C 1.300781 -6.296875 1.191406 -6.25 1.046875 -6.25 C 0.898438 -6.25 0.785156 -6.296875 0.703125 -6.390625 C 0.628906 -6.484375 0.59375 -6.617188 0.59375 -6.796875 C 0.59375 -6.972656 0.628906 -7.109375 0.703125 -7.203125 C 0.785156 -7.296875 0.898438 -7.34375 1.046875 -7.34375 Z M 1.046875 -7.34375 "/></g></g></g><g fill="#2d6d5e" fill-opacity="1"><g transform="translate(71.730754, 147.90216)"><g><path d="M 3.953125 -2.671875 C 3.953125 -2.253906 3.914062 -1.875 3.84375 -1.53125 C 3.78125 -1.1875 3.675781 -0.894531 3.53125 -0.65625 C 3.382812 -0.414062 3.195312 -0.226562 2.96875 -0.09375 C 2.75 0.03125 2.488281 0.09375 2.1875 0.09375 C 1.894531 0.09375 1.632812 0.03125 1.40625 -0.09375 C 1.1875 -0.226562 1.003906 -0.414062 0.859375 -0.65625 C 0.710938 -0.894531 0.601562 -1.1875 0.53125 -1.53125 C 0.457031 -1.875 0.421875 -2.253906 0.421875 -2.671875 C 0.421875 -3.265625 0.484375 -3.765625 0.609375 -4.171875 C 0.734375 -4.578125 0.925781 -4.890625 1.1875 -5.109375 C 1.457031 -5.328125 1.796875 -5.4375 2.203125 -5.4375 C 2.578125 -5.4375 2.894531 -5.332031 3.15625 -5.125 C 3.414062 -4.914062 3.613281 -4.601562 3.75 -4.1875 C 3.882812 -3.78125 3.953125 -3.273438 3.953125 -2.671875 Z M 1.1875 -2.671875 C 1.1875 -2.210938 1.222656 -1.820312 1.296875 -1.5 C 1.367188 -1.1875 1.476562 -0.953125 1.625 -0.796875 C 1.78125 -0.640625 1.972656 -0.5625 2.203125 -0.5625 C 2.429688 -0.5625 2.617188 -0.640625 2.765625 -0.796875 C 2.910156 -0.953125 3.019531 -1.1875 3.09375 -1.5 C 3.164062 -1.8125 3.203125 -2.203125 3.203125 -2.671875 C 3.203125 -3.140625 3.164062 -3.53125 3.09375 -3.84375 C 3.019531 -4.15625 2.910156 -4.390625 2.765625 -4.546875 C 2.617188 -4.703125 2.429688 -4.78125 2.203125 -4.78125 C 1.835938 -4.78125 1.578125 -4.601562 1.421875 -4.25 C 1.265625 -3.894531 1.1875 -3.367188 1.1875 -2.671875 Z M 1.1875 -2.671875 "/></g></g></g><g fill="#2d6d5e" fill-opacity="1"><g transform="translate(77.506457, 147.90216)"><g><path d="M 2.578125 -5.4375 C 2.992188 -5.4375 3.3125 -5.285156 3.53125 -4.984375 C 3.75 -4.691406 3.859375 -4.242188 3.859375 -3.640625 L 3.859375 0 L 3.109375 0 L 3.109375 -3.484375 C 3.109375 -3.910156 3.050781 -4.226562 2.9375 -4.4375 C 2.820312 -4.65625 2.644531 -4.765625 2.40625 -4.765625 C 2.0625 -4.765625 1.804688 -4.609375 1.640625 -4.296875 C 1.484375 -3.992188 1.40625 -3.5 1.40625 -2.8125 L 1.40625 0 L 0.65625 0 L 0.65625 -5.34375 L 1.25 -5.34375 L 1.328125 -4.5625 L 1.375 -4.5625 C 1.445312 -4.738281 1.539062 -4.890625 1.65625 -5.015625 C 1.78125 -5.148438 1.914062 -5.253906 2.0625 -5.328125 C 2.21875 -5.398438 2.390625 -5.4375 2.578125 -5.4375 Z M 2.578125 -5.4375 "/></g></g></g><g fill="#2d6d5e" fill-opacity="1"><g transform="translate(83.384189, 147.90216)"><g><path d="M 2.078125 -5.4375 C 2.566406 -5.4375 2.914062 -5.273438 3.125 -4.953125 C 3.34375 -4.640625 3.453125 -4.1875 3.453125 -3.59375 L 3.453125 0 L 2.875 0 L 2.765625 -0.765625 L 2.75 -0.765625 C 2.664062 -0.578125 2.566406 -0.421875 2.453125 -0.296875 C 2.335938 -0.171875 2.203125 -0.0703125 2.046875 0 C 1.898438 0.0625 1.726562 0.09375 1.53125 0.09375 C 1.257812 0.09375 1.035156 0.0195312 0.859375 -0.125 C 0.679688 -0.269531 0.550781 -0.457031 0.46875 -0.6875 C 0.382812 -0.925781 0.34375 -1.1875 0.34375 -1.46875 C 0.34375 -2 0.492188 -2.410156 0.796875 -2.703125 C 1.109375 -2.992188 1.539062 -3.148438 2.09375 -3.171875 L 2.703125 -3.21875 L 2.703125 -3.578125 C 2.703125 -4.003906 2.644531 -4.316406 2.53125 -4.515625 C 2.414062 -4.710938 2.226562 -4.8125 1.96875 -4.8125 C 1.820312 -4.8125 1.664062 -4.785156 1.5 -4.734375 C 1.332031 -4.679688 1.15625 -4.597656 0.96875 -4.484375 L 0.734375 -5.046875 C 0.929688 -5.179688 1.144531 -5.28125 1.375 -5.34375 C 1.601562 -5.40625 1.835938 -5.4375 2.078125 -5.4375 Z M 2.71875 -2.65625 L 2.21875 -2.625 C 1.84375 -2.601562 1.5625 -2.5 1.375 -2.3125 C 1.195312 -2.125 1.109375 -1.847656 1.109375 -1.484375 C 1.109375 -1.148438 1.164062 -0.90625 1.28125 -0.75 C 1.40625 -0.59375 1.570312 -0.515625 1.78125 -0.515625 C 2.070312 -0.515625 2.300781 -0.65625 2.46875 -0.9375 C 2.632812 -1.21875 2.71875 -1.613281 2.71875 -2.125 Z M 2.71875 -2.65625 "/></g></g></g><g fill="#2d6d5e" fill-opacity="1"><g transform="translate(88.86354, 147.90216)"><g><path d="M 1.40625 0 L 0.65625 0 L 0.65625 -7.5625 L 1.40625 -7.5625 Z M 1.40625 0 "/></g></g></g><g clip-path="url(#c7f87646e6)"><path fill="#0661aa" d="M 40.335938 41.003906 C 40.359375 41.390625 40.382812 41.777344 40.429688 42.164062 C 40.429688 42.1875 40.441406 42.210938 40.441406 42.234375 C 40.96875 47.339844 42.925781 52.171875 46.117188 56.265625 C 45.707031 56.429688 45.296875 56.605469 44.898438 56.78125 C 43.265625 57.511719 41.449219 58.425781 40.664062 60.1875 C 40.132812 61.359375 40.417969 62.566406 40.792969 63.707031 C 41.402344 65.523438 43.480469 66.507812 45.132812 66.507812 L 48.535156 66.507812 C 50.378906 66.507812 52.828125 66.507812 55.621094 66.507812 L 70.617188 66.507812 C 71.484375 66.507812 72.339844 66.507812 73.199219 66.507812 C 73.960938 66.507812 74.710938 66.507812 75.449219 66.507812 C 77.316406 66.507812 79.101562 66.507812 80.742188 66.507812 L 85.210938 66.507812 C 86.234375 66.507812 87.125 66.507812 87.886719 66.507812 C 89.542969 66.507812 91.628906 65.523438 92.230469 63.707031 C 92.464844 62.988281 92.664062 62.25 92.652344 61.5 C 93.050781 61.582031 93.460938 61.652344 93.871094 61.699219 L 94.1875 61.734375 L 94.28125 61.429688 C 94.820312 59.667969 94.375 57.664062 93.144531 56.300781 C 92.546875 55.644531 91.78125 55.140625 90.902344 54.847656 C 90.796875 54.8125 90.691406 54.789062 90.574219 54.765625 C 89.90625 54.648438 89.167969 54.355469 88.507812 53.96875 C 89.777344 51.9375 90.796875 49.742188 91.511719 47.421875 C 91.523438 47.375 91.535156 47.328125 91.546875 47.28125 C 91.652344 46.9375 91.746094 46.585938 91.84375 46.234375 C 91.878906 46.117188 91.902344 46 91.925781 45.882812 C 91.996094 45.601562 92.066406 45.308594 92.125 45.015625 C 92.160156 44.863281 92.183594 44.722656 92.21875 44.570312 C 92.265625 44.3125 92.3125 44.042969 92.359375 43.769531 C 92.382812 43.605469 92.417969 43.441406 92.441406 43.289062 C 92.476562 43.03125 92.511719 42.761719 92.546875 42.503906 C 92.570312 42.339844 92.582031 42.175781 92.605469 42.011719 C 92.628906 41.730469 92.652344 41.4375 92.675781 41.15625 C 92.6875 41.015625 92.699219 40.875 92.699219 40.730469 C 92.722656 40.296875 92.734375 39.875 92.734375 39.441406 C 92.734375 39.019531 92.722656 38.609375 92.699219 38.199219 C 92.699219 38.082031 92.6875 37.964844 92.675781 37.859375 C 92.652344 37.550781 92.640625 37.246094 92.605469 36.941406 C 92.59375 36.824219 92.582031 36.707031 92.570312 36.589844 C 92.535156 36.285156 92.5 35.980469 92.453125 35.675781 C 92.441406 35.582031 92.429688 35.488281 92.40625 35.394531 C 92.347656 35.054688 92.289062 34.714844 92.21875 34.375 C 92.207031 34.3125 92.195312 34.265625 92.183594 34.207031 C 91.9375 33 91.59375 31.816406 91.171875 30.652344 L 91.066406 30.382812 L 91.054688 30.382812 C 87.910156 22.195312 80.578125 16.128906 71.449219 14.507812 C 70.699219 12.175781 68.773438 10.507812 66.511719 10.507812 C 64.257812 10.507812 62.332031 12.175781 61.570312 14.507812 C 51.550781 16.292969 43.703125 23.414062 41.167969 32.835938 L 41.15625 32.859375 L 41.132812 32.953125 C 40.804688 34.195312 40.582031 35.476562 40.453125 36.765625 C 40.453125 36.789062 40.453125 36.8125 40.441406 36.835938 C 40.40625 37.222656 40.371094 37.625 40.347656 38.023438 C 40.347656 38.105469 40.335938 38.175781 40.335938 38.257812 C 40.3125 38.65625 40.300781 39.054688 40.300781 39.453125 C 40.300781 39.910156 40.3125 40.355469 40.335938 40.800781 C 40.324219 40.875 40.324219 40.933594 40.335938 41.003906 Z M 62.414062 14.367188 C 63.144531 12.539062 64.691406 11.269531 66.488281 11.269531 C 68.28125 11.269531 69.832031 12.539062 70.558594 14.367188 C 70.617188 14.507812 70.664062 14.636719 70.710938 14.777344 C 70.757812 14.90625 70.792969 15.050781 70.828125 15.179688 C 70.945312 15.660156 71.003906 16.152344 71.003906 16.679688 C 71.003906 18.277344 70.417969 19.707031 69.503906 20.691406 C 69.386719 20.820312 69.269531 20.9375 69.136719 21.042969 C 69.019531 21.148438 68.890625 21.242188 68.773438 21.335938 C 68.667969 21.417969 68.550781 21.492188 68.445312 21.550781 C 68.480469 21.453125 68.492188 21.359375 68.492188 21.253906 C 68.492188 21.03125 68.410156 20.832031 68.28125 20.65625 C 68.222656 20.574219 68.152344 20.503906 68.070312 20.445312 C 67.976562 20.386719 67.894531 20.328125 67.8125 20.269531 C 67.601562 20.128906 67.402344 20 67.203125 19.882812 C 66.640625 19.542969 66.113281 19.285156 65.617188 19.109375 C 65.40625 19.027344 65.160156 19.027344 64.9375 19.097656 C 64.246094 19.332031 63.601562 19.683594 63.039062 20.128906 C 62.378906 19.191406 61.980469 17.980469 61.980469 16.65625 C 61.980469 16.140625 62.050781 15.636719 62.15625 15.15625 C 62.191406 15.011719 62.226562 14.882812 62.273438 14.753906 C 62.308594 14.636719 62.355469 14.507812 62.414062 14.367188 Z M 60.46875 65.722656 L 56.375 65.722656 L 56.375 65.253906 C 56.445312 64.960938 56.621094 64.703125 56.832031 64.492188 C 56.925781 64.398438 57.042969 64.316406 57.148438 64.234375 C 57.289062 64.140625 57.429688 64.046875 57.570312 63.976562 C 57.710938 63.90625 57.851562 63.835938 57.96875 63.800781 C 58.203125 63.707031 58.449219 63.625 58.683594 63.542969 C 59.304688 63.328125 59.941406 63.117188 60.492188 62.707031 C 60.832031 62.460938 61.113281 62.15625 61.394531 61.839844 C 61.464844 61.757812 61.546875 61.664062 61.617188 61.582031 C 62.109375 60.996094 62.578125 60.445312 63.226562 60.292969 C 63.25 60.292969 63.273438 60.292969 63.296875 60.28125 C 63.753906 60.199219 64.28125 60.304688 64.878906 60.609375 C 65.160156 60.75 65.429688 60.925781 65.699219 61.101562 C 65.980469 61.277344 66.277344 61.464844 66.582031 61.628906 C 66.582031 61.628906 66.59375 61.628906 66.59375 61.628906 C 66.863281 61.769531 67.15625 61.886719 67.496094 61.980469 C 67.496094 61.980469 67.496094 61.992188 67.496094 61.992188 C 67.074219 63.1875 66.851562 64.433594 66.816406 65.699219 C 66.816406 65.699219 66.816406 65.710938 66.816406 65.710938 L 60.46875 65.710938 Z M 85 65.722656 C 81.726562 65.722656 77.269531 65.722656 72.53125 65.722656 L 67.589844 65.722656 C 67.589844 65.710938 67.589844 65.699219 67.589844 65.6875 C 67.636719 64.492188 67.859375 63.316406 68.257812 62.179688 C 68.714844 62.261719 69.183594 62.296875 69.65625 62.296875 C 69.785156 62.296875 69.914062 62.296875 70.042969 62.285156 C 70.171875 62.285156 70.300781 62.273438 70.429688 62.261719 C 71.308594 62.203125 72.199219 62.050781 73.082031 61.898438 C 73.457031 61.839844 73.832031 61.769531 74.195312 61.710938 C 77.011719 61.277344 79.125 61.042969 80.835938 60.984375 C 80.847656 60.984375 80.871094 60.984375 80.882812 60.984375 C 81.105469 60.972656 81.316406 60.972656 81.527344 60.972656 C 81.527344 60.972656 81.527344 60.972656 81.539062 60.972656 C 81.738281 60.972656 81.9375 60.972656 82.128906 60.972656 C 82.140625 60.972656 82.152344 60.972656 82.164062 60.972656 C 83.640625 61.007812 84.8125 61.230469 85.976562 61.605469 C 86.175781 61.675781 86.386719 61.558594 86.457031 61.359375 C 86.527344 61.160156 86.410156 60.949219 86.210938 60.878906 C 85.210938 60.550781 84.203125 60.339844 83.042969 60.246094 C 83.03125 60.246094 83.019531 60.246094 83.007812 60.246094 C 82.84375 60.234375 82.667969 60.222656 82.492188 60.210938 C 82.304688 60.199219 82.113281 60.199219 81.925781 60.199219 C 81.914062 60.199219 81.890625 60.199219 81.878906 60.199219 C 79.957031 60.175781 77.550781 60.421875 74.113281 60.949219 C 73.738281 61.007812 73.363281 61.066406 72.976562 61.136719 C 72.082031 61.289062 71.179688 61.441406 70.289062 61.5 C 70.160156 61.511719 70.03125 61.511719 69.902344 61.511719 C 69.773438 61.511719 69.644531 61.511719 69.515625 61.511719 C 69.171875 61.5 68.832031 61.476562 68.503906 61.417969 C 68.070312 61.347656 67.648438 61.230469 67.25 61.054688 C 67.15625 61.019531 67.074219 60.972656 66.992188 60.9375 C 66.710938 60.796875 66.453125 60.621094 66.171875 60.445312 C 65.886719 60.269531 65.59375 60.078125 65.289062 59.914062 C 64.796875 59.65625 64.316406 59.503906 63.882812 59.46875 C 63.613281 59.445312 63.355469 59.46875 63.121094 59.527344 C 63.015625 59.550781 62.898438 59.585938 62.804688 59.632812 C 62.449219 59.773438 62.144531 59.984375 61.863281 60.246094 C 61.59375 60.503906 61.347656 60.785156 61.101562 61.078125 C 61.042969 61.136719 60.996094 61.207031 60.9375 61.265625 C 60.667969 61.582031 60.410156 61.863281 60.105469 62.085938 C 59.648438 62.425781 59.09375 62.613281 58.507812 62.8125 C 58.25 62.894531 58.003906 62.988281 57.757812 63.082031 C 57.382812 63.234375 57.054688 63.414062 56.773438 63.613281 C 56.644531 63.707031 56.527344 63.800781 56.421875 63.894531 C 56.324219 63.976562 56.242188 64.070312 56.160156 64.164062 C 55.914062 64.457031 55.75 64.773438 55.679688 65.125 L 55.679688 65.710938 C 52.875 65.710938 50.425781 65.710938 48.582031 65.710938 L 45.179688 65.710938 C 43.773438 65.710938 42.035156 64.855469 41.566406 63.4375 C 41.191406 62.296875 41.015625 61.347656 41.414062 60.46875 C 42.09375 58.953125 43.761719 58.121094 45.261719 57.453125 C 45.730469 57.242188 46.210938 57.042969 46.683594 56.851562 C 46.695312 56.851562 46.695312 56.851562 46.707031 56.839844 C 46.824219 56.792969 46.941406 56.746094 47.058594 56.699219 C 47.1875 56.652344 47.304688 56.605469 47.421875 56.558594 C 47.433594 56.558594 47.433594 56.558594 47.445312 56.546875 C 48.042969 56.3125 48.652344 56.089844 49.25 55.878906 C 49.449219 55.808594 49.660156 55.726562 49.859375 55.65625 C 50.0625 55.585938 50.261719 55.527344 50.460938 55.457031 C 52.851562 54.660156 55.175781 54.015625 57.277344 53.460938 C 57.535156 53.566406 57.886719 53.613281 58.179688 53.710938 L 58.519531 53.863281 L 58.578125 53.886719 C 58.953125 53.992188 59.386719 54.0625 59.800781 54.15625 C 60.175781 54.238281 60.527344 54.332031 60.925781 54.402344 C 62.027344 54.601562 63.179688 54.753906 64.398438 54.824219 C 64.738281 54.847656 65.078125 54.859375 65.417969 54.871094 C 65.464844 54.871094 65.511719 54.871094 65.558594 54.871094 C 65.886719 54.882812 66.230469 54.882812 66.570312 54.882812 C 66.910156 54.882812 67.238281 54.871094 67.578125 54.871094 C 67.625 54.871094 67.671875 54.871094 67.71875 54.871094 C 67.917969 54.859375 68.105469 54.859375 68.292969 54.847656 C 68.421875 54.835938 68.550781 54.835938 68.667969 54.824219 C 68.691406 54.824219 68.703125 54.824219 68.726562 54.824219 C 68.832031 54.8125 68.9375 54.8125 69.054688 54.800781 C 69.171875 54.789062 69.269531 54.765625 69.386719 54.753906 C 70.417969 54.671875 71.402344 54.542969 72.339844 54.367188 C 72.742188 54.296875 73.082031 54.203125 73.445312 54.121094 C 73.808594 54.039062 74.207031 53.96875 74.546875 53.875 L 74.898438 53.710938 C 75.191406 53.613281 75.566406 53.554688 75.839844 53.449219 C 78.40625 54.121094 81.28125 54.929688 84.226562 55.984375 L 84.777344 56.734375 C 84.800781 56.769531 84.941406 56.910156 85.164062 57.136719 C 85.164062 57.148438 85.175781 57.148438 85.1875 57.160156 C 85.269531 57.242188 85.355469 57.324219 85.460938 57.417969 C 85.542969 57.5 85.625 57.570312 85.71875 57.664062 C 85.730469 57.675781 85.730469 57.675781 85.742188 57.6875 C 86.925781 58.753906 89.132812 60.457031 91.9375 61.265625 C 91.996094 61.921875 91.84375 62.613281 91.570312 63.425781 C 91.101562 64.855469 89.355469 65.699219 87.957031 65.699219 C 87.054688 65.722656 86.09375 65.722656 85 65.722656 Z M 91.359375 44.851562 C 91.300781 45.144531 91.230469 45.425781 91.160156 45.707031 C 91.136719 45.8125 91.113281 45.917969 91.078125 46.023438 C 90.984375 46.398438 90.878906 46.761719 90.761719 47.136719 C 90.761719 47.148438 90.75 47.160156 90.75 47.171875 C 90.058594 49.425781 89.074219 51.574219 87.828125 53.542969 C 87.828125 53.542969 87.816406 53.53125 87.816406 53.53125 C 87.5 53.285156 87.21875 53.027344 87.019531 52.769531 C 86.410156 51.972656 85.882812 51.246094 85.402344 50.554688 C 83.335938 47.597656 81.902344 44.945312 80.976562 42.351562 C 84.53125 41.824219 88.261719 42.65625 91.253906 44.652344 C 91.300781 44.675781 91.347656 44.699219 91.394531 44.710938 C 91.382812 44.757812 91.371094 44.804688 91.359375 44.851562 Z M 54.625 34.925781 C 54.636719 34.703125 54.648438 34.480469 54.671875 34.265625 C 54.695312 33.996094 54.730469 33.714844 54.765625 33.445312 C 54.800781 33.175781 54.835938 32.917969 54.859375 32.660156 C 54.882812 32.402344 54.90625 32.132812 54.917969 31.863281 C 54.964844 31.265625 55 30.699219 55.128906 30.148438 C 55.304688 29.410156 56.066406 28.484375 56.667969 28.085938 C 57.699219 27.402344 58.894531 26.78125 60.222656 26.230469 C 59.480469 27.753906 58.484375 29.398438 57.007812 31.582031 C 56.890625 31.757812 56.9375 31.992188 57.113281 32.109375 C 57.183594 32.15625 57.265625 32.167969 57.347656 32.167969 C 57.464844 32.15625 57.570312 32.109375 57.640625 32.003906 C 57.863281 31.675781 58.0625 31.371094 58.273438 31.0625 C 58.601562 30.558594 58.917969 30.078125 59.199219 29.621094 C 59.859375 28.578125 60.375 27.648438 60.820312 26.757812 C 60.855469 26.6875 60.890625 26.617188 60.925781 26.546875 C 61.019531 26.347656 61.113281 26.148438 61.207031 25.949219 C 61.21875 25.925781 61.230469 25.902344 61.242188 25.878906 C 61.242188 25.878906 61.242188 25.867188 61.242188 25.867188 C 61.324219 25.691406 61.40625 25.503906 61.476562 25.328125 C 61.5 25.257812 61.535156 25.1875 61.558594 25.117188 C 61.59375 25.023438 61.628906 24.941406 61.664062 24.847656 C 61.804688 24.480469 61.933594 24.117188 62.0625 23.753906 C 62.167969 23.460938 62.238281 23.167969 62.308594 22.886719 C 62.472656 22.265625 62.625 21.714844 62.96875 21.253906 C 63.039062 21.160156 63.121094 21.066406 63.214844 20.972656 C 63.296875 20.902344 63.378906 20.832031 63.472656 20.761719 C 63.484375 20.75 63.496094 20.738281 63.507812 20.726562 C 63.625 20.632812 63.742188 20.550781 63.859375 20.46875 C 63.964844 20.398438 64.058594 20.328125 64.175781 20.269531 C 64.433594 20.117188 64.714844 20 64.996094 19.882812 C 65.054688 19.859375 65.113281 19.835938 65.171875 19.8125 C 65.230469 19.789062 65.289062 19.789062 65.335938 19.8125 C 65.382812 19.835938 65.441406 19.859375 65.488281 19.882812 C 65.746094 19.988281 66.019531 20.117188 66.3125 20.269531 C 66.523438 20.386719 66.746094 20.503906 66.980469 20.644531 C 67.191406 20.773438 67.402344 20.914062 67.625 21.066406 C 67.707031 21.125 67.71875 21.195312 67.71875 21.242188 C 67.71875 21.277344 67.707031 21.371094 67.613281 21.429688 C 67.355469 21.609375 67.167969 21.820312 67.003906 22.03125 C 67.003906 22.066406 66.992188 22.078125 66.980469 22.078125 C 66.910156 22.160156 66.839844 22.253906 66.757812 22.335938 C 66.722656 22.382812 66.675781 22.417969 66.640625 22.453125 C 66.5 22.59375 66.371094 22.710938 66.230469 22.828125 C 66.195312 22.863281 66.148438 22.898438 66.101562 22.933594 C 65.324219 23.589844 64.515625 24.269531 63.449219 27.519531 C 63.179688 28.332031 62.910156 29.1875 62.601562 30.066406 C 62.601562 30.066406 62.601562 30.078125 62.601562 30.078125 C 62.542969 30.253906 62.484375 30.417969 62.425781 30.59375 C 62.425781 30.59375 62.425781 30.59375 62.425781 30.605469 C 62.367188 30.769531 62.308594 30.933594 62.25 31.097656 C 62.25 31.097656 62.25 31.109375 62.238281 31.109375 C 61.371094 33.5625 60.375 36.121094 59.164062 38.257812 C 59.164062 38.257812 59.105469 38.351562 59.011719 38.46875 C 58.917969 38.585938 58.789062 38.726562 58.636719 38.855469 C 58.519531 38.949219 58.390625 39.042969 58.261719 39.113281 C 58.097656 39.195312 57.921875 39.253906 57.734375 39.253906 C 57.722656 39.253906 57.722656 39.253906 57.710938 39.253906 C 57.160156 39.324219 56.585938 39.160156 56.171875 38.796875 C 56.089844 38.726562 56.007812 38.644531 55.9375 38.550781 C 55.867188 38.457031 55.808594 38.363281 55.738281 38.269531 C 55.539062 37.988281 55.363281 37.707031 55.210938 37.433594 C 55.070312 37.175781 54.941406 36.917969 54.847656 36.660156 C 54.742188 36.378906 54.683594 36.085938 54.648438 35.769531 C 54.613281 35.5 54.613281 35.21875 54.625 34.925781 Z M 68.960938 23.601562 C 69.054688 24.410156 69.632812 25.105469 70.429688 25.363281 C 70.746094 25.46875 71.074219 25.574219 71.390625 25.691406 C 71.378906 25.796875 71.367188 25.890625 71.355469 25.996094 C 71.34375 26.136719 71.332031 26.265625 71.308594 26.394531 C 71.285156 26.546875 71.273438 26.6875 71.25 26.828125 C 71.226562 26.957031 71.214844 27.085938 71.191406 27.214844 C 71.167969 27.355469 71.132812 27.496094 71.109375 27.636719 C 71.085938 27.765625 71.0625 27.882812 71.027344 28.015625 C 70.992188 28.15625 70.957031 28.285156 70.921875 28.414062 C 70.886719 28.53125 70.863281 28.648438 70.828125 28.765625 C 70.792969 28.894531 70.746094 29.023438 70.710938 29.140625 C 70.675781 29.257812 70.640625 29.363281 70.605469 29.46875 C 70.558594 29.585938 70.511719 29.703125 70.464844 29.820312 C 70.429688 29.925781 70.382812 30.03125 70.335938 30.136719 C 70.289062 30.253906 70.230469 30.359375 70.183594 30.464844 C 70.136719 30.558594 70.089844 30.664062 70.042969 30.757812 C 69.984375 30.863281 69.9375 30.957031 69.878906 31.0625 C 69.832031 31.160156 69.785156 31.242188 69.726562 31.335938 C 69.667969 31.429688 69.609375 31.523438 69.550781 31.617188 C 69.492188 31.699219 69.445312 31.78125 69.386719 31.863281 C 69.328125 31.945312 69.257812 32.027344 69.195312 32.109375 C 69.136719 32.179688 69.078125 32.25 69.019531 32.320312 C 68.949219 32.402344 68.878906 32.460938 68.808594 32.542969 C 68.75 32.601562 68.691406 32.671875 68.632812 32.71875 C 68.5625 32.789062 68.480469 32.847656 68.410156 32.90625 C 68.351562 32.953125 68.292969 33.011719 68.234375 33.058594 C 68.152344 33.117188 68.070312 33.164062 68 33.210938 C 67.941406 33.246094 67.882812 33.292969 67.8125 33.328125 C 67.730469 33.375 67.636719 33.410156 67.554688 33.445312 C 67.496094 33.46875 67.4375 33.503906 67.378906 33.527344 C 67.285156 33.5625 67.179688 33.585938 67.085938 33.609375 C 67.039062 33.621094 66.980469 33.644531 66.933594 33.644531 C 66.78125 33.667969 66.628906 33.679688 66.476562 33.679688 C 66.335938 33.679688 66.183594 33.667969 66.042969 33.644531 C 65.921875 33.621094 65.804688 33.585938 65.6875 33.550781 C 65.664062 33.539062 65.652344 33.539062 65.628906 33.539062 C 64.65625 33.210938 63.765625 32.34375 63.074219 31.074219 C 63.074219 31.074219 63.074219 31.0625 63.074219 31.0625 C 63.472656 29.925781 63.835938 28.8125 64.175781 27.777344 C 65.171875 24.730469 65.863281 24.152344 66.59375 23.53125 C 66.828125 23.34375 67.0625 23.132812 67.308594 22.863281 C 67.34375 22.828125 67.367188 22.792969 67.402344 22.757812 C 67.894531 22.652344 68.375 22.464844 68.808594 22.21875 C 68.855469 22.675781 68.902344 23.144531 68.960938 23.601562 Z M 72.128906 25.972656 C 72.964844 26.300781 73.773438 26.664062 74.535156 27.050781 C 74.523438 27.085938 74.523438 27.121094 74.511719 27.15625 C 74.488281 27.238281 74.476562 27.332031 74.453125 27.414062 C 74.429688 27.496094 74.417969 27.578125 74.394531 27.671875 C 74.371094 27.765625 74.359375 27.847656 74.335938 27.945312 C 74.3125 28.027344 74.300781 28.109375 74.277344 28.191406 C 74.253906 28.285156 74.242188 28.367188 74.21875 28.460938 C 74.207031 28.542969 74.183594 28.625 74.171875 28.707031 C 74.148438 28.800781 74.136719 28.882812 74.125 28.976562 C 74.113281 29.058594 74.089844 29.140625 74.078125 29.222656 C 74.066406 29.316406 74.042969 29.398438 74.03125 29.492188 C 74.019531 29.574219 74.007812 29.65625 73.984375 29.738281 C 73.972656 29.832031 73.960938 29.914062 73.949219 30.007812 C 73.9375 30.089844 73.925781 30.183594 73.914062 30.265625 C 73.902344 30.347656 73.890625 30.441406 73.878906 30.523438 C 73.867188 30.605469 73.855469 30.699219 73.855469 30.78125 C 73.84375 30.863281 73.832031 30.945312 73.832031 31.039062 C 73.820312 31.121094 73.820312 31.21875 73.808594 31.300781 C 73.796875 31.382812 73.796875 31.464844 73.796875 31.546875 C 73.796875 31.640625 73.785156 31.722656 73.785156 31.816406 C 73.785156 31.898438 73.773438 31.980469 73.773438 32.0625 C 73.773438 32.15625 73.773438 32.25 73.773438 32.332031 C 73.773438 32.414062 73.773438 32.484375 73.773438 32.566406 C 73.773438 32.660156 73.785156 32.753906 73.785156 32.847656 C 73.785156 32.917969 73.785156 32.988281 73.796875 33.070312 C 73.808594 33.175781 73.808594 33.269531 73.820312 33.363281 C 73.832031 33.433594 73.832031 33.492188 73.84375 33.5625 C 73.855469 33.667969 73.878906 33.773438 73.890625 33.878906 C 73.902344 33.9375 73.902344 33.996094 73.914062 34.054688 C 73.9375 34.183594 73.960938 34.300781 73.984375 34.433594 C 73.996094 34.46875 73.996094 34.503906 74.007812 34.550781 C 74.042969 34.714844 74.089844 34.878906 74.136719 35.03125 L 74.136719 35.054688 L 74.171875 35.359375 C 74.195312 36.167969 74.171875 36.988281 74.113281 37.8125 C 74.101562 37.976562 74.089844 38.140625 74.078125 38.304688 C 74.066406 38.46875 74.054688 38.632812 74.03125 38.796875 C 73.984375 39.230469 73.925781 39.664062 73.855469 40.097656 C 73.785156 40.085938 73.703125 40.074219 73.632812 40.109375 C 73.046875 40.332031 72.433594 40.472656 71.8125 40.519531 C 71.613281 40.53125 71.414062 40.542969 71.214844 40.542969 C 71.039062 40.542969 70.863281 40.53125 70.675781 40.519531 C 70.21875 40.484375 69.761719 40.402344 69.316406 40.273438 C 69.113281 40.214844 68.902344 40.332031 68.84375 40.53125 C 68.785156 40.730469 68.902344 40.945312 69.101562 41.003906 C 69.410156 41.097656 69.714844 41.15625 70.019531 41.214844 C 70.171875 41.238281 70.335938 41.261719 70.488281 41.273438 C 70.652344 41.285156 70.816406 41.296875 70.980469 41.308594 C 71.0625 41.308594 71.132812 41.320312 71.214844 41.320312 C 72.058594 41.320312 72.90625 41.167969 73.703125 40.886719 C 73.621094 41.332031 73.527344 41.777344 73.421875 42.222656 C 73.351562 42.503906 73.292969 42.796875 73.246094 43.113281 C 73.082031 44.148438 73.199219 45.191406 73.609375 46.128906 C 74.464844 48.125 74.96875 50.363281 75.097656 52.792969 L 74.570312 53.039062 C 74.113281 53.179688 73.65625 53.320312 73.140625 53.4375 C 72.789062 53.519531 72.449219 53.601562 72.070312 53.671875 C 71.132812 53.839844 70.148438 53.96875 69.101562 54.050781 C 69.019531 54.0625 68.9375 54.074219 68.855469 54.074219 C 68.726562 54.085938 68.597656 54.097656 68.46875 54.097656 C 68.339844 54.109375 68.210938 54.109375 68.09375 54.109375 C 67.929688 54.121094 67.765625 54.121094 67.601562 54.132812 C 67.554688 54.132812 67.507812 54.132812 67.460938 54.132812 C 67.144531 54.144531 66.816406 54.144531 66.488281 54.144531 C 66.160156 54.144531 65.828125 54.132812 65.511719 54.132812 C 65.464844 54.132812 65.417969 54.132812 65.371094 54.132812 C 63.988281 54.085938 62.683594 53.945312 61.453125 53.757812 C 61.019531 53.683594 60.632812 53.578125 60.222656 53.496094 C 59.554688 53.355469 58.917969 53.191406 58.34375 53.003906 L 57.886719 52.792969 C 58.015625 50.363281 58.519531 48.125 59.375 46.128906 C 59.777344 45.191406 59.90625 44.148438 59.742188 43.113281 C 59.695312 42.796875 59.636719 42.503906 59.566406 42.222656 C 59.457031 41.777344 59.351562 41.308594 59.269531 40.800781 C 59.28125 40.800781 59.292969 40.816406 59.304688 40.828125 C 60.164062 41.15625 61.078125 41.320312 61.992188 41.320312 C 62.707031 41.320312 63.425781 41.214844 64.117188 41.015625 C 64.316406 40.957031 64.433594 40.742188 64.375 40.542969 C 64.316406 40.34375 64.105469 40.226562 63.90625 40.285156 C 62.496094 40.707031 60.972656 40.648438 59.601562 40.121094 C 59.457031 40.0625 59.292969 40.109375 59.1875 40.203125 C 59.152344 39.980469 59.117188 39.757812 59.09375 39.523438 C 59.566406 39.148438 59.847656 38.714844 59.882812 38.667969 C 61.019531 36.648438 61.96875 34.300781 62.804688 32.003906 C 63.542969 33.128906 64.433594 33.902344 65.417969 34.242188 C 65.453125 34.253906 65.488281 34.265625 65.535156 34.277344 C 65.59375 34.300781 65.664062 34.3125 65.722656 34.335938 C 65.828125 34.359375 65.945312 34.386719 66.054688 34.410156 C 66.089844 34.410156 66.125 34.421875 66.160156 34.421875 C 66.289062 34.433594 66.417969 34.445312 66.546875 34.445312 C 66.722656 34.445312 66.886719 34.433594 67.050781 34.410156 C 67.0625 34.410156 67.0625 34.410156 67.074219 34.410156 C 67.238281 34.386719 67.390625 34.335938 67.554688 34.289062 C 67.566406 34.289062 67.578125 34.277344 67.589844 34.277344 C 67.742188 34.230469 67.894531 34.160156 68.046875 34.089844 C 68.058594 34.078125 68.082031 34.078125 68.09375 34.066406 C 68.234375 33.996094 68.386719 33.914062 68.527344 33.820312 C 68.539062 33.808594 68.5625 33.796875 68.574219 33.785156 C 68.714844 33.691406 68.84375 33.585938 68.984375 33.480469 C 69.007812 33.46875 69.019531 33.445312 69.042969 33.433594 C 69.171875 33.316406 69.304688 33.199219 69.433594 33.070312 C 69.457031 33.046875 69.46875 33.035156 69.492188 33.011719 C 69.621094 32.882812 69.738281 32.742188 69.855469 32.589844 C 69.867188 32.566406 69.890625 32.542969 69.902344 32.519531 C 70.019531 32.367188 70.136719 32.214844 70.242188 32.050781 C 70.253906 32.027344 70.277344 32.003906 70.289062 31.980469 C 70.394531 31.816406 70.5 31.640625 70.605469 31.464844 C 70.617188 31.441406 70.628906 31.417969 70.652344 31.382812 C 70.757812 31.195312 70.851562 31.003906 70.945312 30.804688 C 70.957031 30.78125 70.96875 30.757812 70.980469 30.722656 C 71.074219 30.523438 71.167969 30.3125 71.25 30.101562 C 71.261719 30.078125 71.273438 30.054688 71.273438 30.03125 C 71.355469 29.808594 71.4375 29.585938 71.519531 29.351562 C 71.53125 29.328125 71.53125 29.304688 71.542969 29.28125 C 71.613281 29.046875 71.695312 28.800781 71.753906 28.554688 C 71.753906 28.542969 71.765625 28.519531 71.765625 28.507812 C 71.835938 28.25 71.894531 27.992188 71.953125 27.71875 C 71.953125 27.707031 71.953125 27.707031 71.953125 27.695312 C 72.070312 27.144531 72.152344 26.570312 72.210938 25.972656 C 72.128906 25.984375 72.128906 25.972656 72.128906 25.972656 Z M 75.851562 52.722656 C 75.710938 50.210938 75.191406 47.890625 74.3125 45.824219 C 73.972656 45.027344 73.867188 44.125 74.007812 43.230469 C 74.054688 42.9375 74.113281 42.65625 74.171875 42.398438 C 74.476562 41.167969 74.6875 39.875 74.804688 38.5625 C 75.816406 43.347656 76.660156 46.082031 77.398438 46.878906 L 83.335938 54.917969 C 80.707031 54.027344 78.148438 53.320312 75.851562 52.722656 Z M 51.210938 54.296875 L 51.246094 54.238281 C 51.328125 54.0625 51.398438 53.898438 51.457031 53.722656 C 51.480469 53.660156 51.492188 53.589844 51.515625 53.53125 C 51.550781 53.414062 51.597656 53.308594 51.632812 53.191406 C 51.65625 53.121094 51.667969 53.039062 51.691406 52.96875 C 51.714844 52.863281 51.75 52.757812 51.773438 52.652344 C 51.785156 52.570312 51.796875 52.488281 51.808594 52.417969 C 51.832031 52.3125 51.84375 52.207031 51.855469 52.113281 C 51.867188 52.03125 51.867188 51.949219 51.878906 51.867188 C 51.890625 51.761719 51.902344 51.667969 51.902344 51.5625 C 51.902344 51.480469 51.902344 51.386719 51.914062 51.304688 C 51.914062 51.199219 51.925781 51.105469 51.914062 51 C 51.914062 50.917969 51.902344 50.824219 51.902344 50.742188 C 51.902344 50.648438 51.890625 50.542969 51.890625 50.445312 C 51.878906 50.363281 51.867188 50.269531 51.855469 50.1875 C 51.84375 50.09375 51.832031 49.988281 51.820312 49.894531 C 51.808594 49.8125 51.785156 49.71875 51.773438 49.636719 C 51.75 49.542969 51.738281 49.449219 51.714844 49.34375 C 51.691406 49.261719 51.667969 49.167969 51.644531 49.085938 C 51.621094 48.992188 51.597656 48.898438 51.5625 48.804688 C 51.539062 48.722656 51.503906 48.640625 51.480469 48.558594 C 51.445312 48.464844 51.421875 48.371094 51.386719 48.289062 C 51.351562 48.207031 51.316406 48.125 51.28125 48.042969 C 51.246094 47.949219 51.210938 47.867188 51.164062 47.773438 C 51.128906 47.691406 51.082031 47.609375 51.046875 47.539062 C 51 47.457031 50.953125 47.363281 50.90625 47.28125 C 50.859375 47.195312 50.8125 47.125 50.765625 47.042969 C 50.71875 46.960938 50.660156 46.878906 50.613281 46.796875 C 50.566406 46.726562 50.507812 46.644531 50.460938 46.574219 C 50.402344 46.492188 50.34375 46.421875 50.285156 46.339844 C 50.226562 46.269531 50.167969 46.199219 50.109375 46.128906 C 50.074219 46.082031 50.039062 46.046875 50.003906 46 C 50.027344 46 50.050781 46 50.074219 46 C 51.363281 46 52.640625 45.613281 53.652344 44.886719 C 55.09375 43.828125 55.984375 42.09375 56.148438 39.992188 C 56.160156 39.898438 56.160156 39.804688 56.160156 39.710938 C 56.5625 39.921875 56.996094 40.039062 57.453125 40.039062 C 57.582031 40.039062 57.710938 40.027344 57.839844 40.015625 C 58.015625 40.003906 58.179688 39.96875 58.332031 39.921875 C 58.460938 40.839844 58.613281 41.660156 58.800781 42.410156 C 58.871094 42.679688 58.917969 42.949219 58.964844 43.242188 C 59.105469 44.136719 59 45.027344 58.660156 45.835938 C 57.769531 47.914062 57.253906 50.234375 57.125 52.734375 C 55.257812 53.214844 53.21875 53.78125 51.117188 54.449219 Z M 42.75 32.285156 C 42.820312 32.238281 42.902344 32.191406 42.984375 32.132812 C 43.066406 32.085938 43.136719 32.039062 43.21875 31.992188 C 43.300781 31.945312 43.394531 31.898438 43.492188 31.851562 C 43.574219 31.816406 43.644531 31.769531 43.726562 31.734375 C 43.820312 31.6875 43.914062 31.652344 44.007812 31.617188 C 44.089844 31.582031 44.171875 31.546875 44.253906 31.511719 C 44.347656 31.476562 44.453125 31.441406 44.558594 31.417969 C 44.640625 31.394531 44.722656 31.359375 44.804688 31.335938 C 44.910156 31.3125 45.015625 31.289062 45.121094 31.265625 C 45.203125 31.242188 45.285156 31.21875 45.367188 31.207031 C 45.484375 31.183594 45.589844 31.171875 45.707031 31.148438 C 45.789062 31.132812 45.871094 31.121094 45.953125 31.109375 C 46.070312 31.097656 46.1875 31.085938 46.304688 31.074219 C 46.386719 31.0625 46.457031 31.0625 46.539062 31.050781 C 46.660156 31.039062 46.789062 31.039062 46.917969 31.039062 C 47 31.039062 47.070312 31.039062 47.152344 31.039062 C 47.28125 31.039062 47.410156 31.050781 47.539062 31.0625 C 47.609375 31.0625 47.691406 31.0625 47.761719 31.074219 C 47.890625 31.085938 48.019531 31.097656 48.160156 31.121094 C 48.230469 31.132812 48.300781 31.132812 48.371094 31.148438 C 48.5 31.171875 48.640625 31.195312 48.769531 31.21875 C 48.839844 31.230469 48.898438 31.242188 48.96875 31.253906 C 49.109375 31.289062 49.25 31.324219 49.378906 31.359375 C 49.4375 31.371094 49.496094 31.382812 49.554688 31.40625 C 49.695312 31.453125 49.835938 31.5 49.980469 31.546875 C 50.027344 31.570312 50.085938 31.582031 50.132812 31.59375 C 50.273438 31.652344 50.425781 31.710938 50.566406 31.769531 C 50.613281 31.792969 50.648438 31.804688 50.695312 31.828125 C 50.835938 31.898438 50.988281 31.96875 51.128906 32.039062 C 51.164062 32.0625 51.199219 32.074219 51.246094 32.097656 C 51.421875 32.191406 51.597656 32.296875 51.761719 32.414062 C 52.605469 32.964844 53.324219 33.667969 53.886719 34.46875 C 53.816406 35.3125 53.839844 36.144531 54.132812 36.929688 C 54.390625 37.613281 54.777344 38.292969 55.328125 39.007812 C 55.351562 39.042969 55.386719 39.066406 55.410156 39.101562 C 55.421875 39.371094 55.410156 39.652344 55.386719 39.933594 C 55.304688 41.027344 54.90625 43.03125 53.207031 44.277344 C 53.039062 44.394531 52.875 44.5 52.699219 44.59375 C 52.652344 44.617188 52.605469 44.640625 52.570312 44.652344 C 52.429688 44.722656 52.289062 44.78125 52.148438 44.839844 C 52.101562 44.863281 52.042969 44.875 51.996094 44.898438 C 51.855469 44.945312 51.714844 44.992188 51.5625 45.039062 C 51.503906 45.050781 51.445312 45.0625 51.386719 45.085938 C 51.246094 45.121094 51.105469 45.144531 50.964844 45.167969 C 50.894531 45.179688 50.824219 45.191406 50.753906 45.191406 C 50.625 45.203125 50.507812 45.214844 50.378906 45.226562 C 50.285156 45.226562 50.191406 45.238281 50.097656 45.238281 C 50.003906 45.238281 49.910156 45.238281 49.824219 45.226562 C 49.695312 45.226562 49.578125 45.214844 49.449219 45.203125 C 49.402344 45.203125 49.355469 45.191406 49.308594 45.179688 C 49.144531 45.15625 48.992188 45.132812 48.828125 45.097656 C 48.664062 45.0625 48.5 45.015625 48.335938 44.96875 C 46.753906 44.429688 45.542969 43.089844 45.320312 41.636719 C 45.132812 40.4375 45.636719 39.230469 46.609375 38.5625 C 47.667969 37.824219 49.273438 37.824219 50.203125 38.550781 C 50.648438 38.902344 50.882812 39.453125 50.847656 40.027344 C 50.8125 40.554688 50.542969 41.003906 50.121094 41.273438 C 49.945312 41.378906 49.886719 41.613281 49.992188 41.800781 C 50.097656 41.976562 50.332031 42.035156 50.519531 41.929688 C 51.164062 41.53125 51.5625 40.863281 51.609375 40.085938 C 51.65625 39.265625 51.316406 38.46875 50.683594 37.964844 C 49.496094 37.023438 47.527344 37.011719 46.1875 37.941406 C 44.980469 38.773438 44.359375 40.273438 44.582031 41.753906 C 44.851562 43.5 46.234375 45.050781 48.101562 45.683594 C 48.265625 45.742188 48.441406 45.789062 48.605469 45.824219 L 49.308594 46.363281 C 49.367188 46.433594 49.4375 46.503906 49.496094 46.574219 C 49.542969 46.632812 49.589844 46.679688 49.636719 46.738281 C 49.695312 46.820312 49.753906 46.890625 49.8125 46.972656 C 49.847656 47.03125 49.898438 47.078125 49.945312 47.136719 C 50.003906 47.21875 50.050781 47.316406 50.109375 47.398438 C 50.144531 47.457031 50.179688 47.503906 50.214844 47.5625 C 50.273438 47.65625 50.320312 47.75 50.367188 47.855469 C 50.390625 47.902344 50.425781 47.960938 50.449219 48.007812 C 50.496094 48.113281 50.542969 48.21875 50.589844 48.324219 C 50.613281 48.371094 50.636719 48.417969 50.648438 48.464844 C 50.695312 48.582031 50.742188 48.710938 50.777344 48.828125 C 50.789062 48.863281 50.800781 48.898438 50.8125 48.933594 C 50.859375 49.097656 50.90625 49.25 50.941406 49.414062 C 51.023438 49.742188 51.082031 50.082031 51.105469 50.421875 C 51.105469 50.445312 51.105469 50.457031 51.105469 50.484375 C 51.117188 50.636719 51.128906 50.777344 51.128906 50.929688 C 51.128906 50.976562 51.128906 51.011719 51.128906 51.058594 C 51.128906 51.1875 51.128906 51.316406 51.128906 51.445312 C 51.128906 51.503906 51.117188 51.5625 51.117188 51.609375 C 51.105469 51.726562 51.105469 51.832031 51.09375 51.949219 C 51.082031 52.007812 51.070312 52.066406 51.070312 52.136719 C 51.058594 52.242188 51.035156 52.347656 51.023438 52.453125 C 51.011719 52.523438 50.988281 52.582031 50.976562 52.640625 C 50.953125 52.734375 50.929688 52.839844 50.90625 52.933594 C 50.882812 53.003906 50.859375 53.0625 50.847656 53.132812 C 50.8125 53.226562 50.789062 53.320312 50.753906 53.414062 C 50.730469 53.484375 50.695312 53.554688 50.671875 53.625 C 50.636719 53.710938 50.601562 53.792969 50.566406 53.875 L 49.921875 54.8125 C 48.910156 55.152344 47.890625 55.527344 46.871094 55.925781 C 46.871094 55.925781 46.859375 55.925781 46.859375 55.925781 C 43.949219 52.265625 42.058594 47.972656 41.367188 43.417969 C 41.367188 43.394531 41.355469 43.371094 41.355469 43.347656 C 41.296875 42.984375 41.25 42.609375 41.214844 42.234375 C 41.203125 42.164062 41.203125 42.09375 41.191406 42.035156 C 41.15625 41.695312 41.132812 41.34375 41.109375 41.003906 C 41.109375 40.910156 41.097656 40.828125 41.085938 40.730469 C 41.0625 40.296875 41.050781 39.863281 41.050781 39.429688 C 41.050781 39.042969 41.0625 38.65625 41.074219 38.269531 C 41.074219 38.199219 41.085938 38.128906 41.085938 38.058594 C 41.109375 37.671875 41.132812 37.28125 41.167969 36.90625 C 41.167969 36.882812 41.167969 36.859375 41.179688 36.835938 C 41.308594 35.617188 41.519531 34.410156 41.824219 33.222656 L 41.835938 33.210938 Z M 92.066406 60.5625 C 91.914062 60.515625 91.746094 60.46875 91.59375 60.421875 C 89.15625 59.597656 87.207031 58.085938 86.152344 57.136719 C 86.140625 57.125 86.140625 57.125 86.128906 57.113281 C 86.035156 57.03125 85.941406 56.949219 85.859375 56.863281 C 85.753906 56.769531 85.671875 56.675781 85.589844 56.605469 C 85.578125 56.605469 85.578125 56.59375 85.566406 56.59375 C 85.542969 56.570312 85.53125 56.558594 85.519531 56.546875 C 85.367188 56.394531 85.28125 56.300781 85.28125 56.300781 L 85.011719 55.9375 L 84.601562 55.386719 L 77.984375 46.410156 L 77.949219 46.375 C 77.480469 45.894531 76.683594 43.980469 75.425781 37.871094 C 75.402344 37.742188 75.367188 37.601562 75.34375 37.46875 C 75.320312 37.339844 75.285156 37.199219 75.261719 37.058594 C 75.179688 36.660156 75.097656 36.238281 75.015625 35.804688 C 74.96875 35.59375 74.945312 35.429688 74.910156 35.300781 C 74.910156 35.300781 74.910156 35.289062 74.910156 35.289062 L 74.863281 34.914062 L 74.851562 34.84375 C 74.804688 34.691406 74.769531 34.550781 74.734375 34.398438 C 74.722656 34.347656 74.710938 34.300781 74.699219 34.253906 C 74.675781 34.148438 74.652344 34.042969 74.640625 33.9375 C 74.628906 33.878906 74.628906 33.820312 74.617188 33.761719 C 74.605469 33.667969 74.582031 33.574219 74.570312 33.46875 C 74.558594 33.410156 74.558594 33.339844 74.546875 33.28125 C 74.535156 33.1875 74.523438 33.09375 74.523438 33 C 74.523438 32.941406 74.511719 32.871094 74.511719 32.8125 C 74.511719 32.71875 74.5 32.625 74.5 32.53125 C 74.5 32.460938 74.5 32.402344 74.5 32.332031 C 74.5 32.238281 74.5 32.144531 74.5 32.050781 C 74.5 31.980469 74.5 31.921875 74.5 31.851562 C 74.5 31.757812 74.511719 31.664062 74.511719 31.570312 C 74.511719 31.5 74.523438 31.429688 74.523438 31.371094 C 74.535156 31.277344 74.535156 31.183594 74.546875 31.085938 C 74.558594 31.015625 74.558594 30.957031 74.570312 30.886719 C 74.582031 30.792969 74.59375 30.699219 74.605469 30.59375 C 74.617188 30.523438 74.617188 30.464844 74.628906 30.394531 C 74.640625 30.300781 74.652344 30.195312 74.675781 30.101562 C 74.6875 30.03125 74.699219 29.972656 74.710938 29.902344 C 74.722656 29.808594 74.746094 29.703125 74.757812 29.609375 C 74.769531 29.539062 74.78125 29.480469 74.792969 29.410156 C 74.816406 29.304688 74.828125 29.210938 74.851562 29.105469 C 74.863281 29.035156 74.875 28.976562 74.886719 28.917969 C 74.910156 28.8125 74.921875 28.71875 74.945312 28.613281 C 74.957031 28.542969 74.96875 28.484375 74.980469 28.414062 C 75.003906 28.320312 75.015625 28.226562 75.039062 28.132812 C 75.050781 28.0625 75.074219 27.992188 75.085938 27.921875 C 75.097656 27.847656 75.121094 27.777344 75.132812 27.71875 C 75.15625 27.625 75.179688 27.53125 75.203125 27.4375 C 75.613281 27.671875 75.96875 27.882812 76.296875 28.097656 C 76.894531 28.496094 77.65625 29.410156 77.832031 30.160156 C 77.960938 30.710938 77.996094 31.277344 78.042969 31.875 C 78.066406 32.144531 78.078125 32.402344 78.101562 32.671875 C 78.183594 33.539062 78.3125 34.445312 78.464844 35.359375 C 78.488281 35.488281 78.5 35.617188 78.523438 35.757812 C 78.546875 35.886719 78.570312 36.015625 78.59375 36.144531 C 78.890625 37.765625 79.265625 39.40625 79.710938 40.992188 C 80.613281 44.195312 82.222656 47.386719 84.765625 51.023438 C 85.257812 51.726562 85.800781 52.464844 86.410156 53.261719 C 86.667969 53.601562 87.019531 53.921875 87.394531 54.203125 C 87.394531 54.203125 87.40625 54.214844 87.40625 54.214844 C 87.5 54.285156 87.605469 54.367188 87.710938 54.425781 C 87.816406 54.496094 87.921875 54.554688 88.027344 54.613281 C 88.027344 54.613281 88.039062 54.613281 88.039062 54.625 C 88.839844 55.09375 89.707031 55.410156 90.410156 55.527344 C 90.480469 55.539062 90.550781 55.550781 90.621094 55.574219 C 91.371094 55.820312 92.03125 56.253906 92.535156 56.816406 C 93.519531 57.910156 93.917969 59.480469 93.589844 60.902344 C 93.214844 60.855469 92.851562 60.773438 92.488281 60.691406 C 92.359375 60.644531 92.207031 60.597656 92.066406 60.5625 Z M 91.902344 40.695312 C 91.890625 40.839844 91.878906 40.96875 91.878906 41.109375 C 91.855469 41.390625 91.84375 41.660156 91.820312 41.941406 C 91.808594 42.105469 91.78125 42.257812 91.769531 42.410156 C 91.734375 42.667969 91.710938 42.925781 91.675781 43.171875 C 91.652344 43.324219 91.628906 43.488281 91.605469 43.640625 C 91.59375 43.734375 91.582031 43.828125 91.558594 43.921875 C 88.414062 41.871094 84.507812 41.027344 80.800781 41.601562 C 80.789062 41.601562 80.765625 41.613281 80.753906 41.613281 C 80.660156 41.320312 80.566406 41.027344 80.484375 40.742188 C 80.027344 39.125 79.640625 37.433594 79.359375 35.78125 L 79.382812 35.769531 L 79.441406 35.710938 C 82.054688 32.882812 85.871094 31.230469 89.707031 31.230469 C 89.835938 31.230469 89.964844 31.230469 90.09375 31.230469 L 90.117188 31.230469 L 90.527344 31.195312 L 90.539062 31.195312 C 91.042969 32.613281 91.40625 34.066406 91.640625 35.570312 C 91.652344 35.640625 91.664062 35.710938 91.675781 35.78125 C 91.722656 36.097656 91.757812 36.414062 91.792969 36.71875 C 91.808594 36.824219 91.820312 36.929688 91.832031 37.035156 C 91.855469 37.328125 91.878906 37.625 91.902344 37.929688 C 91.914062 38.035156 91.914062 38.140625 91.925781 38.257812 C 91.949219 38.65625 91.960938 39.054688 91.960938 39.453125 C 91.9375 39.863281 91.925781 40.285156 91.902344 40.695312 Z M 90.070312 30.476562 C 86.046875 30.371094 82.007812 32.003906 79.171875 34.867188 C 79.054688 34.078125 78.949219 33.316406 78.875 32.578125 C 78.851562 32.320312 78.828125 32.0625 78.816406 31.804688 C 78.769531 31.207031 78.734375 30.582031 78.59375 29.960938 C 78.371094 29 77.46875 27.921875 76.742188 27.4375 C 76.625 27.367188 76.519531 27.285156 76.390625 27.214844 C 76.449219 27.167969 76.496094 27.097656 76.519531 27.015625 C 77.28125 24.140625 78.914062 21.453125 81.128906 19.472656 C 81.1875 19.414062 81.222656 19.34375 81.234375 19.273438 C 85.28125 22.019531 88.425781 25.890625 90.234375 30.453125 Z M 80.648438 18.898438 C 80.636719 18.910156 80.625 18.910156 80.613281 18.921875 C 78.289062 21.007812 76.578125 23.8125 75.78125 26.839844 C 75.78125 26.851562 75.78125 26.863281 75.78125 26.863281 C 75.660156 26.792969 75.542969 26.722656 75.414062 26.664062 L 75.167969 26.535156 C 75.167969 26.535156 75.15625 26.523438 75.15625 26.523438 L 74.722656 26.289062 L 74.722656 26.300781 C 73.914062 25.890625 73.070312 25.515625 72.199219 25.1875 L 71.941406 25.09375 C 71.941406 25.09375 71.929688 25.09375 71.929688 25.09375 L 71.449219 24.917969 C 71.191406 24.824219 70.933594 24.730469 70.664062 24.644531 C 70.160156 24.480469 69.785156 24.046875 69.726562 23.519531 C 69.65625 22.921875 69.597656 22.3125 69.5625 21.714844 C 70.898438 20.597656 71.777344 18.769531 71.777344 16.691406 C 71.777344 16.222656 71.730469 15.765625 71.648438 15.332031 C 74.933594 15.953125 77.972656 17.183594 80.648438 18.898438 Z M 62.460938 20.667969 C 61.945312 21.265625 61.757812 21.996094 61.570312 22.699219 C 61.5 22.96875 61.429688 23.25 61.335938 23.519531 C 61.136719 24.09375 60.925781 24.65625 60.691406 25.222656 C 59.410156 25.714844 58.25 26.253906 57.207031 26.863281 C 57.207031 26.851562 57.207031 26.851562 57.207031 26.839844 C 56.410156 23.824219 54.695312 21.007812 52.371094 18.921875 C 52.359375 18.910156 52.347656 18.910156 52.335938 18.898438 C 55.011719 17.183594 58.0625 15.964844 61.359375 15.332031 C 61.277344 15.765625 61.230469 16.222656 61.230469 16.691406 C 61.207031 18.203125 61.6875 19.589844 62.460938 20.667969 Z M 51.855469 19.484375 C 54.074219 21.464844 55.703125 24.152344 56.46875 27.027344 C 56.492188 27.109375 56.539062 27.179688 56.597656 27.226562 C 56.480469 27.296875 56.363281 27.367188 56.242188 27.449219 C 55.503906 27.933594 54.613281 29.011719 54.390625 29.972656 C 54.25 30.582031 54.203125 31.207031 54.167969 31.804688 C 54.15625 32.0625 54.132812 32.320312 54.109375 32.578125 C 54.085938 32.824219 54.050781 33.082031 54.015625 33.339844 C 54.015625 33.351562 54.015625 33.363281 54.015625 33.386719 C 53.488281 32.777344 52.875 32.238281 52.195312 31.78125 C 49.25 29.832031 45.003906 29.785156 42.316406 31.664062 C 44.019531 26.570312 47.351562 22.265625 51.75 19.285156 C 51.761719 19.355469 51.785156 19.425781 51.855469 19.484375 Z M 51.855469 19.484375 " fill-opacity="1" fill-rule="nonzero"/></g><path fill="#0661aa" d="M 60.046875 61.171875 C 59.660156 61.101562 59.28125 61.042969 58.894531 60.984375 C 55.457031 60.457031 53.050781 60.210938 51.128906 60.234375 C 50.917969 60.234375 50.707031 60.246094 50.507812 60.246094 C 50.332031 60.257812 50.15625 60.257812 49.980469 60.28125 C 48.792969 60.375 47.785156 60.585938 46.765625 60.914062 C 46.5625 60.984375 46.457031 61.195312 46.515625 61.394531 C 46.585938 61.59375 46.800781 61.699219 47 61.640625 C 48.171875 61.253906 49.355469 61.042969 50.847656 60.996094 C 51.035156 60.996094 51.234375 60.996094 51.433594 60.996094 C 51.65625 60.996094 51.890625 61.007812 52.136719 61.007812 C 53.851562 61.066406 55.949219 61.3125 58.777344 61.734375 C 59.152344 61.792969 59.527344 61.851562 59.90625 61.921875 L 60 61.933594 C 60.023438 61.933594 60.046875 61.933594 60.070312 61.933594 C 60.257812 61.933594 60.410156 61.804688 60.445312 61.617188 C 60.480469 61.40625 60.339844 61.21875 60.140625 61.171875 Z M 60.046875 61.171875 " fill-opacity="1" fill-rule="nonzero"/></svg>