<svg xmlns="http://www.w3.org/2000/svg" xmlns:xlink="http://www.w3.org/1999/xlink" width="180" zoomAndPan="magnify" viewBox="0 0 135 161.249994" height="215" preserveAspectRatio="xMidYMid meet" version="1.2"><defs><clipPath id="a683950ceb"><path d="M 38.046875 14.722656 L 97 14.722656 L 97 75 L 38.046875 75 Z M 38.046875 14.722656 "/></clipPath></defs><g id="7eda3baec2"><g clip-rule="nonzero" clip-path="url(#a683950ceb)"><path style=" stroke:none;fill-rule:nonzero;fill:#0661aa;fill-opacity:1;" d="M 38.289062 47.5625 C 38.316406 47.976562 38.339844 48.394531 38.390625 48.808594 C 38.390625 48.835938 38.402344 48.859375 38.402344 48.886719 C 38.972656 54.375 41.078125 59.570312 44.507812 63.972656 C 44.066406 64.152344 43.625 64.339844 43.199219 64.527344 C 41.445312 65.3125 39.488281 66.296875 38.644531 68.1875 C 38.074219 69.449219 38.378906 70.75 38.78125 71.972656 C 39.4375 73.929688 41.671875 74.988281 43.449219 74.988281 L 47.109375 74.988281 C 49.089844 74.988281 51.726562 74.988281 54.726562 74.988281 L 70.851562 74.988281 C 71.785156 74.988281 72.707031 74.988281 73.625 74.988281 C 74.445312 74.988281 75.253906 74.988281 76.046875 74.988281 C 78.054688 74.988281 79.972656 74.988281 81.738281 74.988281 L 86.546875 74.988281 C 87.644531 74.988281 88.601562 74.988281 89.421875 74.988281 C 91.199219 74.988281 93.445312 73.929688 94.089844 71.972656 C 94.339844 71.203125 94.554688 70.40625 94.542969 69.601562 C 94.972656 69.6875 95.414062 69.765625 95.855469 69.816406 L 96.195312 69.851562 L 96.296875 69.523438 C 96.878906 67.632812 96.398438 65.476562 95.074219 64.011719 C 94.429688 63.304688 93.609375 62.761719 92.664062 62.449219 C 92.550781 62.410156 92.4375 62.382812 92.308594 62.359375 C 91.589844 62.234375 90.796875 61.917969 90.089844 61.5 C 91.453125 59.320312 92.550781 56.960938 93.320312 54.460938 C 93.332031 54.410156 93.34375 54.359375 93.359375 54.308594 C 93.472656 53.945312 93.570312 53.566406 93.671875 53.1875 C 93.710938 53.0625 93.734375 52.933594 93.761719 52.808594 C 93.835938 52.507812 93.914062 52.191406 93.976562 51.875 C 94.011719 51.710938 94.039062 51.558594 94.078125 51.394531 C 94.128906 51.117188 94.175781 50.828125 94.226562 50.539062 C 94.253906 50.363281 94.292969 50.183594 94.316406 50.019531 C 94.355469 49.742188 94.390625 49.453125 94.429688 49.175781 C 94.457031 49 94.46875 48.824219 94.492188 48.644531 C 94.519531 48.34375 94.542969 48.027344 94.570312 47.726562 C 94.582031 47.574219 94.59375 47.421875 94.59375 47.269531 C 94.617188 46.804688 94.632812 46.351562 94.632812 45.882812 C 94.632812 45.429688 94.617188 44.988281 94.59375 44.546875 C 94.59375 44.417969 94.582031 44.292969 94.570312 44.179688 C 94.542969 43.851562 94.53125 43.523438 94.492188 43.195312 C 94.480469 43.070312 94.46875 42.945312 94.457031 42.816406 C 94.417969 42.488281 94.378906 42.160156 94.328125 41.832031 C 94.316406 41.734375 94.304688 41.632812 94.277344 41.53125 C 94.214844 41.164062 94.152344 40.800781 94.078125 40.433594 C 94.0625 40.371094 94.050781 40.320312 94.039062 40.257812 C 93.773438 38.957031 93.40625 37.683594 92.953125 36.433594 L 92.839844 36.144531 L 92.828125 36.144531 C 89.445312 27.339844 81.5625 20.816406 71.746094 19.074219 C 70.9375 16.5625 68.871094 14.773438 66.433594 14.773438 C 64.011719 14.773438 61.945312 16.5625 61.125 19.074219 C 50.351562 20.992188 41.910156 28.648438 39.183594 38.78125 L 39.171875 38.804688 L 39.148438 38.90625 C 38.792969 40.242188 38.554688 41.617188 38.414062 43.007812 C 38.414062 43.03125 38.414062 43.058594 38.402344 43.082031 C 38.367188 43.5 38.328125 43.925781 38.300781 44.355469 C 38.300781 44.445312 38.289062 44.519531 38.289062 44.609375 C 38.265625 45.039062 38.25 45.464844 38.25 45.894531 C 38.25 46.386719 38.265625 46.867188 38.289062 47.347656 C 38.277344 47.421875 38.277344 47.484375 38.289062 47.5625 Z M 62.03125 18.921875 C 62.816406 16.957031 64.480469 15.59375 66.410156 15.59375 C 68.339844 15.59375 70.003906 16.957031 70.789062 18.921875 C 70.851562 19.074219 70.902344 19.214844 70.953125 19.363281 C 71.003906 19.503906 71.039062 19.65625 71.078125 19.792969 C 71.203125 20.3125 71.265625 20.839844 71.265625 21.410156 C 71.265625 23.125 70.636719 24.664062 69.652344 25.722656 C 69.527344 25.863281 69.398438 25.988281 69.261719 26.101562 C 69.136719 26.214844 68.996094 26.316406 68.871094 26.417969 C 68.757812 26.503906 68.628906 26.582031 68.515625 26.644531 C 68.554688 26.542969 68.566406 26.441406 68.566406 26.328125 C 68.566406 26.089844 68.480469 25.875 68.339844 25.683594 C 68.277344 25.597656 68.203125 25.519531 68.113281 25.457031 C 68.011719 25.394531 67.925781 25.332031 67.835938 25.269531 C 67.609375 25.117188 67.394531 24.980469 67.179688 24.851562 C 66.574219 24.488281 66.007812 24.210938 65.476562 24.019531 C 65.25 23.933594 64.984375 23.933594 64.746094 24.007812 C 64 24.257812 63.308594 24.636719 62.703125 25.117188 C 61.996094 24.109375 61.566406 22.808594 61.566406 21.382812 C 61.566406 20.828125 61.640625 20.285156 61.753906 19.769531 C 61.792969 19.617188 61.832031 19.476562 61.882812 19.339844 C 61.917969 19.214844 61.96875 19.074219 62.03125 18.921875 Z M 59.9375 74.140625 L 55.535156 74.140625 L 55.535156 73.636719 C 55.609375 73.324219 55.800781 73.042969 56.027344 72.816406 C 56.128906 72.71875 56.253906 72.628906 56.367188 72.539062 C 56.519531 72.4375 56.671875 72.339844 56.824219 72.261719 C 56.972656 72.1875 57.125 72.109375 57.25 72.074219 C 57.503906 71.972656 57.769531 71.882812 58.019531 71.796875 C 58.6875 71.570312 59.371094 71.339844 59.964844 70.898438 C 60.328125 70.636719 60.632812 70.308594 60.933594 69.964844 C 61.011719 69.878906 61.097656 69.777344 61.175781 69.6875 C 61.703125 69.058594 62.210938 68.464844 62.902344 68.300781 C 62.929688 68.300781 62.953125 68.300781 62.980469 68.289062 C 63.472656 68.199219 64.039062 68.3125 64.683594 68.640625 C 64.984375 68.792969 65.273438 68.984375 65.566406 69.171875 C 65.867188 69.359375 66.183594 69.5625 66.511719 69.738281 C 66.511719 69.738281 66.523438 69.738281 66.523438 69.738281 C 66.8125 69.890625 67.128906 70.015625 67.496094 70.117188 C 67.496094 70.117188 67.496094 70.128906 67.496094 70.128906 C 67.042969 71.417969 66.800781 72.753906 66.761719 74.117188 C 66.761719 74.117188 66.761719 74.128906 66.761719 74.128906 L 59.9375 74.128906 Z M 86.316406 74.140625 C 82.796875 74.140625 78.003906 74.140625 72.90625 74.140625 L 67.597656 74.140625 C 67.597656 74.128906 67.597656 74.117188 67.597656 74.105469 C 67.648438 72.816406 67.886719 71.554688 68.316406 70.332031 C 68.808594 70.421875 69.3125 70.457031 69.816406 70.457031 C 69.957031 70.457031 70.09375 70.457031 70.234375 70.445312 C 70.371094 70.445312 70.511719 70.433594 70.648438 70.421875 C 71.59375 70.359375 72.554688 70.195312 73.5 70.03125 C 73.902344 69.964844 74.308594 69.890625 74.699219 69.828125 C 77.726562 69.359375 79.996094 69.109375 81.839844 69.046875 C 81.851562 69.046875 81.878906 69.046875 81.890625 69.046875 C 82.128906 69.03125 82.355469 69.03125 82.582031 69.03125 C 82.582031 69.03125 82.582031 69.03125 82.597656 69.03125 C 82.8125 69.03125 83.023438 69.03125 83.226562 69.03125 C 83.238281 69.03125 83.253906 69.03125 83.265625 69.03125 C 84.855469 69.070312 86.117188 69.3125 87.363281 69.714844 C 87.578125 69.789062 87.804688 69.664062 87.882812 69.449219 C 87.957031 69.234375 87.832031 69.007812 87.617188 68.933594 C 86.546875 68.578125 85.460938 68.351562 84.210938 68.25 C 84.199219 68.25 84.1875 68.25 84.171875 68.25 C 83.996094 68.238281 83.808594 68.226562 83.617188 68.214844 C 83.417969 68.199219 83.214844 68.199219 83.011719 68.199219 C 83 68.199219 82.976562 68.199219 82.960938 68.199219 C 80.894531 68.175781 78.308594 68.441406 74.609375 69.007812 C 74.207031 69.070312 73.804688 69.132812 73.386719 69.210938 C 72.429688 69.375 71.457031 69.539062 70.496094 69.601562 C 70.359375 69.613281 70.21875 69.613281 70.082031 69.613281 C 69.941406 69.613281 69.804688 69.613281 69.664062 69.613281 C 69.300781 69.601562 68.933594 69.574219 68.582031 69.511719 C 68.113281 69.4375 67.660156 69.3125 67.230469 69.121094 C 67.128906 69.082031 67.042969 69.03125 66.953125 68.996094 C 66.648438 68.84375 66.371094 68.65625 66.070312 68.464844 C 65.765625 68.277344 65.453125 68.074219 65.125 67.898438 C 64.59375 67.621094 64.078125 67.457031 63.609375 67.417969 C 63.320312 67.394531 63.042969 67.417969 62.789062 67.480469 C 62.675781 67.507812 62.550781 67.542969 62.449219 67.59375 C 62.070312 67.746094 61.742188 67.972656 61.441406 68.25 C 61.148438 68.527344 60.882812 68.832031 60.621094 69.148438 C 60.554688 69.210938 60.507812 69.285156 60.441406 69.347656 C 60.152344 69.6875 59.875 69.992188 59.546875 70.230469 C 59.054688 70.597656 58.460938 70.800781 57.832031 71.015625 C 57.554688 71.101562 57.289062 71.203125 57.023438 71.304688 C 56.621094 71.46875 56.265625 71.65625 55.964844 71.871094 C 55.824219 71.972656 55.699219 72.074219 55.585938 72.175781 C 55.484375 72.261719 55.398438 72.363281 55.308594 72.464844 C 55.042969 72.78125 54.867188 73.121094 54.792969 73.5 L 54.792969 74.128906 C 51.777344 74.128906 49.140625 74.128906 47.160156 74.128906 L 43.5 74.128906 C 41.984375 74.128906 40.117188 73.207031 39.613281 71.683594 C 39.210938 70.457031 39.023438 69.4375 39.449219 68.492188 C 40.183594 66.863281 41.972656 65.96875 43.589844 65.25 C 44.09375 65.019531 44.609375 64.808594 45.113281 64.605469 C 45.128906 64.605469 45.128906 64.605469 45.140625 64.59375 C 45.265625 64.542969 45.390625 64.492188 45.519531 64.441406 C 45.65625 64.390625 45.785156 64.339844 45.910156 64.289062 C 45.921875 64.289062 45.921875 64.289062 45.933594 64.277344 C 46.578125 64.023438 47.234375 63.785156 47.878906 63.558594 C 48.09375 63.480469 48.320312 63.394531 48.535156 63.316406 C 48.75 63.242188 48.960938 63.179688 49.175781 63.105469 C 51.75 62.246094 54.25 61.550781 56.507812 60.957031 C 56.785156 61.074219 57.164062 61.121094 57.476562 61.222656 L 57.84375 61.386719 L 57.90625 61.414062 C 58.3125 61.527344 58.777344 61.601562 59.21875 61.703125 C 59.621094 61.792969 60 61.890625 60.429688 61.96875 C 61.617188 62.183594 62.851562 62.347656 64.164062 62.421875 C 64.53125 62.449219 64.894531 62.460938 65.261719 62.472656 C 65.3125 62.472656 65.363281 62.472656 65.414062 62.472656 C 65.765625 62.484375 66.132812 62.484375 66.5 62.484375 C 66.863281 62.484375 67.21875 62.472656 67.582031 62.472656 C 67.632812 62.472656 67.683594 62.472656 67.734375 62.472656 C 67.949219 62.460938 68.152344 62.460938 68.351562 62.449219 C 68.492188 62.433594 68.628906 62.433594 68.757812 62.421875 C 68.78125 62.421875 68.792969 62.421875 68.820312 62.421875 C 68.933594 62.410156 69.046875 62.410156 69.171875 62.398438 C 69.300781 62.382812 69.398438 62.359375 69.527344 62.347656 C 70.636719 62.257812 71.695312 62.121094 72.707031 61.929688 C 73.132812 61.855469 73.5 61.753906 73.890625 61.664062 C 74.28125 61.578125 74.710938 61.5 75.078125 61.402344 L 75.457031 61.222656 C 75.769531 61.121094 76.175781 61.058594 76.464844 60.945312 C 79.226562 61.664062 82.320312 62.535156 85.484375 63.671875 L 86.078125 64.480469 C 86.101562 64.515625 86.253906 64.667969 86.496094 64.90625 C 86.496094 64.921875 86.507812 64.921875 86.519531 64.933594 C 86.609375 65.019531 86.695312 65.109375 86.808594 65.210938 C 86.898438 65.296875 86.988281 65.375 87.085938 65.476562 C 87.101562 65.488281 87.101562 65.488281 87.113281 65.5 C 88.386719 66.648438 90.757812 68.476562 93.773438 69.347656 C 93.835938 70.054688 93.671875 70.800781 93.382812 71.667969 C 92.878906 73.207031 91 74.117188 89.496094 74.117188 C 88.527344 74.140625 87.492188 74.140625 86.316406 74.140625 Z M 93.15625 51.699219 C 93.09375 52.015625 93.015625 52.316406 92.941406 52.621094 C 92.914062 52.734375 92.890625 52.847656 92.851562 52.960938 C 92.753906 53.363281 92.636719 53.753906 92.511719 54.160156 C 92.511719 54.171875 92.5 54.183594 92.5 54.195312 C 91.753906 56.617188 90.695312 58.929688 89.359375 61.046875 C 89.359375 61.046875 89.347656 61.035156 89.347656 61.035156 C 89.003906 60.769531 88.703125 60.492188 88.488281 60.214844 C 87.832031 59.355469 87.265625 58.574219 86.746094 57.832031 C 84.527344 54.652344 82.988281 51.800781 81.992188 49.011719 C 85.8125 48.445312 89.824219 49.339844 93.042969 51.484375 C 93.09375 51.507812 93.144531 51.535156 93.195312 51.546875 C 93.179688 51.597656 93.167969 51.648438 93.15625 51.699219 Z M 53.65625 41.027344 C 53.667969 40.785156 53.679688 40.546875 53.707031 40.320312 C 53.730469 40.03125 53.769531 39.726562 53.808594 39.4375 C 53.84375 39.144531 53.882812 38.867188 53.90625 38.589844 C 53.933594 38.3125 53.957031 38.023438 53.972656 37.734375 C 54.023438 37.089844 54.058594 36.484375 54.199219 35.890625 C 54.386719 35.097656 55.207031 34.101562 55.851562 33.671875 C 56.960938 32.9375 58.246094 32.269531 59.671875 31.679688 C 58.878906 33.316406 57.804688 35.085938 56.214844 37.429688 C 56.089844 37.621094 56.140625 37.871094 56.332031 38 C 56.40625 38.046875 56.496094 38.0625 56.582031 38.0625 C 56.707031 38.046875 56.824219 38 56.898438 37.882812 C 57.136719 37.53125 57.351562 37.203125 57.578125 36.875 C 57.933594 36.332031 58.273438 35.816406 58.574219 35.324219 C 59.28125 34.199219 59.835938 33.203125 60.316406 32.246094 C 60.355469 32.167969 60.390625 32.09375 60.429688 32.019531 C 60.53125 31.804688 60.632812 31.589844 60.734375 31.375 C 60.746094 31.351562 60.757812 31.324219 60.769531 31.300781 C 60.769531 31.300781 60.769531 31.285156 60.769531 31.285156 C 60.859375 31.097656 60.949219 30.894531 61.023438 30.707031 C 61.046875 30.628906 61.085938 30.554688 61.113281 30.480469 C 61.148438 30.378906 61.1875 30.289062 61.226562 30.1875 C 61.375 29.796875 61.515625 29.40625 61.652344 29.015625 C 61.769531 28.699219 61.84375 28.386719 61.917969 28.082031 C 62.09375 27.414062 62.257812 26.820312 62.625 26.328125 C 62.703125 26.226562 62.789062 26.125 62.890625 26.027344 C 62.980469 25.949219 63.066406 25.875 63.167969 25.800781 C 63.179688 25.785156 63.191406 25.773438 63.207031 25.761719 C 63.332031 25.660156 63.457031 25.570312 63.585938 25.484375 C 63.699219 25.40625 63.796875 25.332031 63.925781 25.269531 C 64.203125 25.105469 64.503906 24.980469 64.808594 24.851562 C 64.871094 24.828125 64.933594 24.800781 64.996094 24.777344 C 65.058594 24.75 65.125 24.75 65.175781 24.777344 C 65.222656 24.800781 65.289062 24.828125 65.339844 24.851562 C 65.617188 24.964844 65.90625 25.105469 66.222656 25.269531 C 66.449219 25.394531 66.6875 25.519531 66.941406 25.671875 C 67.167969 25.8125 67.394531 25.960938 67.632812 26.125 C 67.722656 26.191406 67.734375 26.265625 67.734375 26.316406 C 67.734375 26.355469 67.722656 26.453125 67.621094 26.519531 C 67.34375 26.707031 67.140625 26.933594 66.964844 27.160156 C 66.964844 27.199219 66.953125 27.210938 66.941406 27.210938 C 66.863281 27.300781 66.789062 27.402344 66.699219 27.488281 C 66.664062 27.539062 66.613281 27.578125 66.574219 27.617188 C 66.421875 27.765625 66.285156 27.894531 66.132812 28.019531 C 66.09375 28.058594 66.042969 28.09375 65.992188 28.132812 C 65.160156 28.839844 64.289062 29.570312 63.144531 33.066406 C 62.851562 33.9375 62.5625 34.855469 62.234375 35.804688 C 62.234375 35.804688 62.234375 35.816406 62.234375 35.816406 C 62.171875 36.003906 62.109375 36.179688 62.046875 36.371094 C 62.046875 36.371094 62.046875 36.371094 62.046875 36.382812 C 61.980469 36.558594 61.917969 36.738281 61.855469 36.914062 C 61.855469 36.914062 61.855469 36.925781 61.84375 36.925781 C 60.910156 39.5625 59.835938 42.3125 58.539062 44.609375 C 58.539062 44.609375 58.476562 44.710938 58.375 44.835938 C 58.273438 44.960938 58.132812 45.113281 57.96875 45.253906 C 57.84375 45.351562 57.707031 45.453125 57.566406 45.53125 C 57.390625 45.617188 57.199219 45.679688 57 45.679688 C 56.984375 45.679688 56.984375 45.679688 56.972656 45.679688 C 56.378906 45.757812 55.761719 45.582031 55.320312 45.1875 C 55.234375 45.113281 55.144531 45.023438 55.070312 44.925781 C 54.992188 44.824219 54.929688 44.722656 54.855469 44.621094 C 54.640625 44.320312 54.449219 44.015625 54.285156 43.726562 C 54.136719 43.449219 53.996094 43.171875 53.894531 42.894531 C 53.78125 42.589844 53.71875 42.273438 53.679688 41.933594 C 53.644531 41.644531 53.644531 41.339844 53.65625 41.027344 Z M 69.070312 28.851562 C 69.171875 29.722656 69.792969 30.464844 70.648438 30.746094 C 70.988281 30.859375 71.34375 30.972656 71.683594 31.097656 C 71.671875 31.210938 71.660156 31.3125 71.644531 31.425781 C 71.632812 31.578125 71.621094 31.714844 71.59375 31.855469 C 71.570312 32.019531 71.558594 32.167969 71.53125 32.320312 C 71.507812 32.460938 71.496094 32.597656 71.46875 32.738281 C 71.445312 32.890625 71.40625 33.039062 71.382812 33.191406 C 71.355469 33.332031 71.332031 33.457031 71.292969 33.59375 C 71.253906 33.746094 71.21875 33.886719 71.179688 34.023438 C 71.140625 34.152344 71.117188 34.277344 71.078125 34.402344 C 71.039062 34.542969 70.988281 34.679688 70.953125 34.804688 C 70.914062 34.933594 70.875 35.046875 70.839844 35.160156 C 70.789062 35.285156 70.738281 35.410156 70.6875 35.539062 C 70.648438 35.652344 70.597656 35.765625 70.546875 35.878906 C 70.496094 36.003906 70.433594 36.117188 70.382812 36.230469 C 70.332031 36.332031 70.285156 36.445312 70.234375 36.546875 C 70.167969 36.660156 70.121094 36.761719 70.054688 36.875 C 70.003906 36.976562 69.957031 37.066406 69.890625 37.164062 C 69.828125 37.265625 69.765625 37.367188 69.703125 37.46875 C 69.640625 37.558594 69.589844 37.644531 69.527344 37.734375 C 69.464844 37.820312 69.386719 37.910156 69.324219 38 C 69.261719 38.074219 69.199219 38.148438 69.136719 38.226562 C 69.058594 38.3125 68.984375 38.375 68.90625 38.464844 C 68.84375 38.527344 68.78125 38.605469 68.71875 38.652344 C 68.644531 38.730469 68.554688 38.792969 68.480469 38.855469 C 68.417969 38.90625 68.351562 38.96875 68.289062 39.019531 C 68.203125 39.082031 68.113281 39.132812 68.039062 39.183594 C 67.976562 39.222656 67.910156 39.273438 67.835938 39.308594 C 67.746094 39.359375 67.648438 39.398438 67.558594 39.4375 C 67.496094 39.460938 67.433594 39.5 67.367188 39.523438 C 67.269531 39.5625 67.15625 39.585938 67.054688 39.613281 C 67.003906 39.625 66.941406 39.652344 66.890625 39.652344 C 66.726562 39.675781 66.5625 39.6875 66.398438 39.6875 C 66.246094 39.6875 66.082031 39.675781 65.929688 39.652344 C 65.804688 39.625 65.679688 39.585938 65.550781 39.550781 C 65.527344 39.539062 65.515625 39.539062 65.488281 39.539062 C 64.441406 39.183594 63.484375 38.25 62.738281 36.886719 C 62.738281 36.886719 62.738281 36.875 62.738281 36.875 C 63.167969 35.652344 63.558594 34.453125 63.925781 33.34375 C 64.996094 30.0625 65.742188 29.445312 66.523438 28.777344 C 66.777344 28.574219 67.027344 28.347656 67.292969 28.058594 C 67.332031 28.019531 67.355469 27.980469 67.394531 27.945312 C 67.925781 27.828125 68.441406 27.628906 68.90625 27.363281 C 68.957031 27.855469 69.007812 28.359375 69.070312 28.851562 Z M 72.476562 31.398438 C 73.375 31.753906 74.246094 32.144531 75.066406 32.5625 C 75.050781 32.597656 75.050781 32.636719 75.039062 32.675781 C 75.015625 32.761719 75 32.863281 74.976562 32.953125 C 74.949219 33.039062 74.9375 33.128906 74.914062 33.230469 C 74.886719 33.332031 74.875 33.417969 74.851562 33.519531 C 74.824219 33.609375 74.8125 33.695312 74.789062 33.785156 C 74.761719 33.886719 74.75 33.972656 74.722656 34.074219 C 74.710938 34.164062 74.6875 34.25 74.671875 34.339844 C 74.648438 34.441406 74.636719 34.527344 74.625 34.628906 C 74.609375 34.71875 74.585938 34.804688 74.574219 34.894531 C 74.558594 34.996094 74.535156 35.085938 74.523438 35.183594 C 74.507812 35.273438 74.496094 35.363281 74.472656 35.449219 C 74.460938 35.550781 74.445312 35.640625 74.433594 35.738281 C 74.421875 35.828125 74.410156 35.929688 74.394531 36.015625 C 74.382812 36.105469 74.371094 36.207031 74.359375 36.296875 C 74.34375 36.382812 74.332031 36.484375 74.332031 36.574219 C 74.320312 36.660156 74.308594 36.75 74.308594 36.851562 C 74.296875 36.9375 74.296875 37.039062 74.28125 37.128906 C 74.269531 37.214844 74.269531 37.304688 74.269531 37.394531 C 74.269531 37.492188 74.257812 37.582031 74.257812 37.683594 C 74.257812 37.769531 74.246094 37.859375 74.246094 37.949219 C 74.246094 38.046875 74.246094 38.148438 74.246094 38.238281 C 74.246094 38.328125 74.246094 38.402344 74.246094 38.492188 C 74.246094 38.589844 74.257812 38.691406 74.257812 38.792969 C 74.257812 38.867188 74.257812 38.945312 74.269531 39.03125 C 74.28125 39.144531 74.28125 39.246094 74.296875 39.347656 C 74.308594 39.421875 74.308594 39.488281 74.320312 39.5625 C 74.332031 39.675781 74.359375 39.789062 74.371094 39.902344 C 74.382812 39.964844 74.382812 40.03125 74.394531 40.09375 C 74.421875 40.230469 74.445312 40.355469 74.472656 40.496094 C 74.484375 40.535156 74.484375 40.570312 74.496094 40.621094 C 74.535156 40.800781 74.585938 40.976562 74.636719 41.140625 L 74.636719 41.164062 L 74.671875 41.492188 C 74.699219 42.363281 74.671875 43.246094 74.609375 44.128906 C 74.597656 44.304688 74.585938 44.484375 74.574219 44.660156 C 74.558594 44.835938 74.546875 45.011719 74.523438 45.1875 C 74.472656 45.65625 74.410156 46.121094 74.332031 46.589844 C 74.257812 46.578125 74.167969 46.5625 74.09375 46.601562 C 73.460938 46.84375 72.804688 46.992188 72.136719 47.042969 C 71.921875 47.054688 71.707031 47.070312 71.496094 47.070312 C 71.304688 47.070312 71.117188 47.054688 70.914062 47.042969 C 70.421875 47.007812 69.929688 46.917969 69.449219 46.777344 C 69.234375 46.714844 69.007812 46.84375 68.945312 47.054688 C 68.882812 47.269531 69.007812 47.496094 69.222656 47.5625 C 69.550781 47.660156 69.878906 47.726562 70.207031 47.789062 C 70.371094 47.8125 70.546875 47.839844 70.710938 47.851562 C 70.890625 47.863281 71.066406 47.875 71.242188 47.890625 C 71.332031 47.890625 71.40625 47.902344 71.496094 47.902344 C 72.402344 47.902344 73.3125 47.738281 74.167969 47.433594 C 74.082031 47.914062 73.980469 48.394531 73.867188 48.871094 C 73.789062 49.175781 73.726562 49.492188 73.675781 49.832031 C 73.5 50.941406 73.625 52.066406 74.066406 53.074219 C 74.988281 55.21875 75.53125 57.628906 75.671875 60.238281 L 75.101562 60.503906 C 74.609375 60.65625 74.117188 60.808594 73.5625 60.933594 C 73.183594 61.023438 72.820312 61.109375 72.414062 61.1875 C 71.40625 61.363281 70.347656 61.5 69.222656 61.589844 C 69.136719 61.601562 69.046875 61.613281 68.957031 61.613281 C 68.820312 61.628906 68.679688 61.640625 68.542969 61.640625 C 68.402344 61.652344 68.265625 61.652344 68.136719 61.652344 C 67.960938 61.664062 67.785156 61.664062 67.609375 61.679688 C 67.558594 61.679688 67.507812 61.679688 67.457031 61.679688 C 67.117188 61.691406 66.761719 61.691406 66.410156 61.691406 C 66.058594 61.691406 65.703125 61.679688 65.363281 61.679688 C 65.3125 61.679688 65.261719 61.679688 65.210938 61.679688 C 63.722656 61.628906 62.324219 61.476562 61 61.273438 C 60.53125 61.199219 60.113281 61.085938 59.671875 60.996094 C 58.953125 60.84375 58.273438 60.667969 57.65625 60.46875 L 57.164062 60.238281 C 57.300781 57.628906 57.84375 55.21875 58.765625 53.074219 C 59.195312 52.066406 59.332031 50.941406 59.15625 49.832031 C 59.105469 49.492188 59.042969 49.175781 58.96875 48.871094 C 58.851562 48.394531 58.738281 47.890625 58.652344 47.347656 C 58.664062 47.347656 58.675781 47.359375 58.6875 47.371094 C 59.609375 47.726562 60.59375 47.902344 61.578125 47.902344 C 62.347656 47.902344 63.117188 47.789062 63.863281 47.574219 C 64.078125 47.511719 64.203125 47.285156 64.140625 47.070312 C 64.078125 46.855469 63.847656 46.726562 63.636719 46.792969 C 62.121094 47.246094 60.480469 47.183594 59.003906 46.613281 C 58.851562 46.550781 58.675781 46.601562 58.5625 46.703125 C 58.527344 46.464844 58.488281 46.222656 58.460938 45.972656 C 58.96875 45.566406 59.269531 45.101562 59.308594 45.050781 C 60.53125 42.878906 61.554688 40.355469 62.449219 37.882812 C 63.242188 39.097656 64.203125 39.929688 65.261719 40.292969 C 65.300781 40.308594 65.339844 40.320312 65.386719 40.332031 C 65.453125 40.355469 65.527344 40.371094 65.589844 40.394531 C 65.703125 40.421875 65.828125 40.445312 65.945312 40.472656 C 65.980469 40.472656 66.019531 40.484375 66.058594 40.484375 C 66.195312 40.496094 66.335938 40.507812 66.472656 40.507812 C 66.664062 40.507812 66.839844 40.496094 67.015625 40.472656 C 67.027344 40.472656 67.027344 40.472656 67.042969 40.472656 C 67.21875 40.445312 67.382812 40.394531 67.558594 40.34375 C 67.570312 40.34375 67.582031 40.332031 67.597656 40.332031 C 67.761719 40.28125 67.925781 40.207031 68.089844 40.128906 C 68.101562 40.117188 68.125 40.117188 68.136719 40.105469 C 68.289062 40.03125 68.453125 39.941406 68.605469 39.839844 C 68.617188 39.828125 68.644531 39.816406 68.65625 39.800781 C 68.808594 39.703125 68.945312 39.585938 69.097656 39.472656 C 69.121094 39.460938 69.136719 39.4375 69.160156 39.425781 C 69.300781 39.296875 69.4375 39.171875 69.578125 39.03125 C 69.601562 39.007812 69.613281 38.996094 69.640625 38.96875 C 69.777344 38.832031 69.90625 38.679688 70.03125 38.515625 C 70.042969 38.492188 70.070312 38.464844 70.082031 38.441406 C 70.207031 38.277344 70.332031 38.113281 70.449219 37.933594 C 70.460938 37.910156 70.484375 37.882812 70.496094 37.859375 C 70.613281 37.683594 70.726562 37.492188 70.839844 37.304688 C 70.851562 37.277344 70.863281 37.253906 70.890625 37.214844 C 71.003906 37.015625 71.101562 36.8125 71.203125 36.597656 C 71.21875 36.574219 71.230469 36.546875 71.242188 36.507812 C 71.34375 36.296875 71.445312 36.066406 71.53125 35.839844 C 71.542969 35.816406 71.558594 35.789062 71.558594 35.765625 C 71.644531 35.527344 71.734375 35.285156 71.824219 35.035156 C 71.835938 35.007812 71.835938 34.984375 71.847656 34.957031 C 71.921875 34.707031 72.011719 34.441406 72.074219 34.175781 C 72.074219 34.164062 72.085938 34.136719 72.085938 34.125 C 72.164062 33.847656 72.226562 33.570312 72.289062 33.28125 C 72.289062 33.265625 72.289062 33.265625 72.289062 33.253906 C 72.414062 32.660156 72.503906 32.042969 72.566406 31.398438 C 72.476562 31.414062 72.476562 31.398438 72.476562 31.398438 Z M 76.476562 60.164062 C 76.328125 57.464844 75.769531 54.964844 74.824219 52.746094 C 74.460938 51.886719 74.34375 50.917969 74.496094 49.957031 C 74.546875 49.644531 74.609375 49.339844 74.671875 49.0625 C 75 47.738281 75.230469 46.351562 75.355469 44.9375 C 76.441406 50.085938 77.347656 53.023438 78.144531 53.882812 L 84.527344 62.523438 C 81.699219 61.566406 78.949219 60.808594 76.476562 60.164062 Z M 49.984375 61.855469 L 50.023438 61.792969 C 50.109375 61.601562 50.1875 61.425781 50.25 61.238281 C 50.273438 61.171875 50.289062 61.097656 50.3125 61.035156 C 50.351562 60.910156 50.402344 60.796875 50.4375 60.667969 C 50.464844 60.59375 50.476562 60.503906 50.5 60.429688 C 50.527344 60.316406 50.566406 60.203125 50.589844 60.089844 C 50.601562 60 50.617188 59.910156 50.628906 59.835938 C 50.652344 59.722656 50.664062 59.609375 50.679688 59.507812 C 50.691406 59.417969 50.691406 59.332031 50.703125 59.242188 C 50.714844 59.128906 50.730469 59.027344 50.730469 58.914062 C 50.730469 58.828125 50.730469 58.726562 50.742188 58.636719 C 50.742188 58.523438 50.753906 58.421875 50.742188 58.308594 C 50.742188 58.222656 50.730469 58.121094 50.730469 58.03125 C 50.730469 57.929688 50.714844 57.816406 50.714844 57.714844 C 50.703125 57.628906 50.691406 57.527344 50.679688 57.4375 C 50.664062 57.339844 50.652344 57.226562 50.640625 57.125 C 50.628906 57.035156 50.601562 56.933594 50.589844 56.847656 C 50.566406 56.746094 50.550781 56.644531 50.527344 56.53125 C 50.5 56.441406 50.476562 56.339844 50.453125 56.253906 C 50.425781 56.152344 50.402344 56.050781 50.363281 55.949219 C 50.335938 55.863281 50.300781 55.773438 50.273438 55.683594 C 50.238281 55.585938 50.210938 55.484375 50.171875 55.394531 C 50.136719 55.308594 50.097656 55.21875 50.058594 55.128906 C 50.023438 55.03125 49.984375 54.941406 49.933594 54.839844 C 49.894531 54.753906 49.847656 54.664062 49.808594 54.589844 C 49.757812 54.5 49.707031 54.398438 49.65625 54.308594 C 49.605469 54.222656 49.554688 54.144531 49.503906 54.058594 C 49.453125 53.96875 49.390625 53.882812 49.339844 53.792969 C 49.289062 53.71875 49.226562 53.628906 49.175781 53.554688 C 49.113281 53.464844 49.050781 53.390625 48.988281 53.300781 C 48.925781 53.226562 48.863281 53.148438 48.796875 53.074219 C 48.761719 53.023438 48.722656 52.984375 48.683594 52.933594 C 48.710938 52.933594 48.734375 52.933594 48.761719 52.933594 C 50.148438 52.933594 51.523438 52.519531 52.609375 51.738281 C 54.160156 50.601562 55.121094 48.734375 55.296875 46.476562 C 55.308594 46.375 55.308594 46.273438 55.308594 46.171875 C 55.738281 46.398438 56.203125 46.527344 56.695312 46.527344 C 56.835938 46.527344 56.972656 46.515625 57.113281 46.5 C 57.300781 46.488281 57.476562 46.449219 57.640625 46.398438 C 57.78125 47.382812 57.945312 48.265625 58.148438 49.074219 C 58.222656 49.363281 58.273438 49.65625 58.324219 49.96875 C 58.476562 50.929688 58.363281 51.886719 57.996094 52.757812 C 57.035156 54.992188 56.480469 57.488281 56.34375 60.175781 C 54.335938 60.695312 52.140625 61.300781 49.882812 62.019531 Z M 40.886719 38.1875 C 40.964844 38.136719 41.050781 38.085938 41.140625 38.023438 C 41.230469 37.972656 41.304688 37.921875 41.394531 37.871094 C 41.480469 37.820312 41.582031 37.769531 41.683594 37.722656 C 41.773438 37.683594 41.847656 37.632812 41.9375 37.59375 C 42.035156 37.542969 42.136719 37.507812 42.238281 37.46875 C 42.328125 37.429688 42.414062 37.394531 42.503906 37.355469 C 42.605469 37.316406 42.71875 37.277344 42.832031 37.253906 C 42.917969 37.230469 43.007812 37.191406 43.097656 37.164062 C 43.210938 37.140625 43.324219 37.113281 43.4375 37.089844 C 43.523438 37.066406 43.613281 37.039062 43.703125 37.027344 C 43.828125 37 43.941406 36.988281 44.066406 36.964844 C 44.15625 36.949219 44.246094 36.9375 44.332031 36.925781 C 44.457031 36.914062 44.585938 36.902344 44.710938 36.886719 C 44.800781 36.875 44.875 36.875 44.964844 36.863281 C 45.089844 36.851562 45.226562 36.851562 45.367188 36.851562 C 45.457031 36.851562 45.53125 36.851562 45.621094 36.851562 C 45.757812 36.851562 45.898438 36.863281 46.035156 36.875 C 46.113281 36.875 46.199219 36.875 46.277344 36.886719 C 46.414062 36.902344 46.554688 36.914062 46.703125 36.9375 C 46.78125 36.949219 46.855469 36.949219 46.929688 36.964844 C 47.070312 36.988281 47.222656 37.015625 47.359375 37.039062 C 47.4375 37.050781 47.5 37.066406 47.574219 37.078125 C 47.726562 37.113281 47.878906 37.152344 48.015625 37.191406 C 48.078125 37.203125 48.144531 37.214844 48.207031 37.242188 C 48.355469 37.292969 48.507812 37.34375 48.660156 37.394531 C 48.710938 37.417969 48.773438 37.429688 48.824219 37.441406 C 48.976562 37.507812 49.140625 37.570312 49.289062 37.632812 C 49.339844 37.65625 49.378906 37.671875 49.429688 37.695312 C 49.582031 37.769531 49.746094 37.847656 49.894531 37.921875 C 49.933594 37.949219 49.972656 37.960938 50.023438 37.984375 C 50.210938 38.085938 50.402344 38.199219 50.578125 38.328125 C 51.484375 38.917969 52.253906 39.675781 52.859375 40.535156 C 52.785156 41.441406 52.808594 42.339844 53.125 43.183594 C 53.402344 43.914062 53.820312 44.648438 54.414062 45.417969 C 54.4375 45.453125 54.476562 45.480469 54.5 45.515625 C 54.511719 45.808594 54.5 46.109375 54.476562 46.414062 C 54.386719 47.585938 53.957031 49.742188 52.128906 51.082031 C 51.953125 51.207031 51.777344 51.320312 51.585938 51.421875 C 51.535156 51.445312 51.484375 51.472656 51.449219 51.484375 C 51.296875 51.558594 51.144531 51.625 50.992188 51.6875 C 50.945312 51.710938 50.878906 51.722656 50.828125 51.75 C 50.679688 51.800781 50.527344 51.851562 50.363281 51.902344 C 50.300781 51.914062 50.238281 51.925781 50.171875 51.953125 C 50.023438 51.988281 49.871094 52.015625 49.71875 52.039062 C 49.644531 52.050781 49.566406 52.066406 49.492188 52.066406 C 49.355469 52.078125 49.226562 52.089844 49.089844 52.101562 C 48.988281 52.101562 48.886719 52.117188 48.785156 52.117188 C 48.683594 52.117188 48.585938 52.117188 48.496094 52.101562 C 48.355469 52.101562 48.230469 52.089844 48.09375 52.078125 C 48.042969 52.078125 47.992188 52.066406 47.941406 52.050781 C 47.765625 52.027344 47.601562 52 47.421875 51.964844 C 47.246094 51.925781 47.070312 51.875 46.894531 51.824219 C 45.191406 51.246094 43.890625 49.804688 43.652344 48.242188 C 43.449219 46.957031 43.992188 45.65625 45.039062 44.9375 C 46.175781 44.140625 47.902344 44.140625 48.898438 44.925781 C 49.378906 45.304688 49.632812 45.894531 49.59375 46.515625 C 49.554688 47.082031 49.265625 47.5625 48.8125 47.851562 C 48.621094 47.964844 48.558594 48.21875 48.671875 48.417969 C 48.785156 48.609375 49.039062 48.671875 49.242188 48.558594 C 49.933594 48.128906 50.363281 47.410156 50.414062 46.578125 C 50.464844 45.695312 50.097656 44.835938 49.417969 44.292969 C 48.144531 43.285156 46.023438 43.273438 44.585938 44.269531 C 43.285156 45.164062 42.617188 46.777344 42.855469 48.367188 C 43.148438 50.25 44.636719 51.914062 46.640625 52.59375 C 46.816406 52.65625 47.007812 52.707031 47.183594 52.746094 L 47.941406 53.328125 C 48.003906 53.402344 48.078125 53.476562 48.144531 53.554688 C 48.191406 53.617188 48.242188 53.667969 48.292969 53.730469 C 48.355469 53.820312 48.421875 53.894531 48.484375 53.980469 C 48.519531 54.046875 48.570312 54.097656 48.621094 54.160156 C 48.683594 54.246094 48.734375 54.347656 48.796875 54.4375 C 48.835938 54.5 48.875 54.550781 48.914062 54.613281 C 48.976562 54.714844 49.027344 54.816406 49.078125 54.929688 C 49.101562 54.980469 49.140625 55.042969 49.164062 55.09375 C 49.214844 55.207031 49.265625 55.320312 49.316406 55.433594 C 49.339844 55.484375 49.367188 55.535156 49.378906 55.585938 C 49.429688 55.710938 49.480469 55.847656 49.519531 55.976562 C 49.53125 56.011719 49.542969 56.050781 49.554688 56.089844 C 49.605469 56.265625 49.65625 56.429688 49.695312 56.605469 C 49.78125 56.960938 49.847656 57.324219 49.871094 57.691406 C 49.871094 57.714844 49.871094 57.730469 49.871094 57.753906 C 49.882812 57.917969 49.894531 58.070312 49.894531 58.234375 C 49.894531 58.285156 49.894531 58.320312 49.894531 58.371094 C 49.894531 58.511719 49.894531 58.648438 49.894531 58.789062 C 49.894531 58.851562 49.882812 58.914062 49.882812 58.964844 C 49.871094 59.09375 49.871094 59.207031 49.859375 59.332031 C 49.847656 59.394531 49.832031 59.457031 49.832031 59.535156 C 49.820312 59.648438 49.796875 59.761719 49.78125 59.875 C 49.769531 59.949219 49.746094 60.011719 49.730469 60.074219 C 49.707031 60.175781 49.683594 60.289062 49.65625 60.390625 C 49.632812 60.46875 49.605469 60.53125 49.59375 60.605469 C 49.554688 60.707031 49.53125 60.808594 49.492188 60.910156 C 49.46875 60.984375 49.429688 61.058594 49.402344 61.136719 C 49.367188 61.222656 49.328125 61.3125 49.289062 61.402344 L 48.597656 62.410156 C 47.511719 62.777344 46.414062 63.179688 45.316406 63.609375 C 45.316406 63.609375 45.304688 63.609375 45.304688 63.609375 C 42.175781 59.671875 40.144531 55.054688 39.398438 50.160156 C 39.398438 50.132812 39.386719 50.109375 39.386719 50.085938 C 39.324219 49.691406 39.273438 49.289062 39.234375 48.886719 C 39.222656 48.808594 39.222656 48.734375 39.210938 48.671875 C 39.171875 48.304688 39.148438 47.925781 39.121094 47.5625 C 39.121094 47.460938 39.109375 47.371094 39.097656 47.269531 C 39.070312 46.804688 39.058594 46.335938 39.058594 45.871094 C 39.058594 45.453125 39.070312 45.039062 39.085938 44.621094 C 39.085938 44.546875 39.097656 44.46875 39.097656 44.394531 C 39.121094 43.976562 39.148438 43.5625 39.183594 43.15625 C 39.183594 43.132812 39.183594 43.109375 39.199219 43.082031 C 39.335938 41.769531 39.5625 40.472656 39.890625 39.195312 L 39.90625 39.183594 Z M 93.914062 68.589844 C 93.75 68.539062 93.570312 68.492188 93.40625 68.441406 C 90.785156 67.558594 88.691406 65.929688 87.554688 64.90625 C 87.542969 64.894531 87.542969 64.894531 87.527344 64.882812 C 87.429688 64.792969 87.328125 64.707031 87.238281 64.617188 C 87.125 64.515625 87.035156 64.414062 86.949219 64.339844 C 86.9375 64.339844 86.9375 64.328125 86.921875 64.328125 C 86.898438 64.300781 86.886719 64.289062 86.871094 64.277344 C 86.710938 64.113281 86.621094 64.011719 86.621094 64.011719 L 86.332031 63.621094 L 85.890625 63.027344 L 78.773438 53.375 L 78.734375 53.339844 C 78.230469 52.820312 77.375 50.765625 76.023438 44.191406 C 76 44.054688 75.960938 43.902344 75.933594 43.761719 C 75.910156 43.625 75.871094 43.472656 75.847656 43.320312 C 75.757812 42.894531 75.671875 42.4375 75.582031 41.972656 C 75.53125 41.746094 75.507812 41.570312 75.46875 41.429688 C 75.46875 41.429688 75.46875 41.417969 75.46875 41.417969 L 75.417969 41.011719 L 75.40625 40.9375 C 75.355469 40.773438 75.316406 40.621094 75.277344 40.457031 C 75.265625 40.40625 75.253906 40.355469 75.242188 40.308594 C 75.214844 40.195312 75.191406 40.078125 75.179688 39.964844 C 75.164062 39.902344 75.164062 39.839844 75.152344 39.777344 C 75.140625 39.675781 75.113281 39.574219 75.101562 39.460938 C 75.089844 39.398438 75.089844 39.324219 75.078125 39.261719 C 75.066406 39.160156 75.050781 39.058594 75.050781 38.957031 C 75.050781 38.894531 75.039062 38.816406 75.039062 38.753906 C 75.039062 38.652344 75.027344 38.554688 75.027344 38.453125 C 75.027344 38.375 75.027344 38.3125 75.027344 38.238281 C 75.027344 38.136719 75.027344 38.035156 75.027344 37.933594 C 75.027344 37.859375 75.027344 37.796875 75.027344 37.722656 C 75.027344 37.621094 75.039062 37.519531 75.039062 37.417969 C 75.039062 37.34375 75.050781 37.265625 75.050781 37.203125 C 75.066406 37.101562 75.066406 37 75.078125 36.902344 C 75.089844 36.824219 75.089844 36.761719 75.101562 36.6875 C 75.113281 36.585938 75.128906 36.484375 75.140625 36.371094 C 75.152344 36.296875 75.152344 36.230469 75.164062 36.15625 C 75.179688 36.054688 75.191406 35.941406 75.214844 35.839844 C 75.230469 35.765625 75.242188 35.703125 75.253906 35.625 C 75.265625 35.527344 75.292969 35.410156 75.304688 35.3125 C 75.316406 35.234375 75.328125 35.171875 75.34375 35.097656 C 75.367188 34.984375 75.378906 34.882812 75.40625 34.769531 C 75.417969 34.691406 75.429688 34.628906 75.441406 34.566406 C 75.46875 34.453125 75.480469 34.351562 75.507812 34.238281 C 75.519531 34.164062 75.53125 34.101562 75.542969 34.023438 C 75.570312 33.921875 75.582031 33.824219 75.605469 33.722656 C 75.621094 33.644531 75.644531 33.570312 75.65625 33.496094 C 75.671875 33.417969 75.695312 33.34375 75.707031 33.28125 C 75.734375 33.179688 75.757812 33.078125 75.785156 32.976562 C 76.226562 33.230469 76.605469 33.457031 76.957031 33.683594 C 77.601562 34.113281 78.421875 35.097656 78.609375 35.902344 C 78.75 36.496094 78.785156 37.101562 78.835938 37.746094 C 78.863281 38.035156 78.875 38.3125 78.898438 38.605469 C 78.988281 39.539062 79.128906 40.507812 79.289062 41.492188 C 79.316406 41.632812 79.328125 41.769531 79.355469 41.921875 C 79.378906 42.058594 79.40625 42.199219 79.429688 42.339844 C 79.746094 44.078125 80.148438 45.84375 80.628906 47.546875 C 81.601562 50.992188 83.328125 54.425781 86.066406 58.335938 C 86.59375 59.089844 87.175781 59.886719 87.832031 60.746094 C 88.109375 61.109375 88.488281 61.449219 88.890625 61.753906 C 88.890625 61.753906 88.902344 61.765625 88.902344 61.765625 C 89.003906 61.84375 89.117188 61.929688 89.230469 61.992188 C 89.347656 62.070312 89.460938 62.132812 89.574219 62.195312 C 89.574219 62.195312 89.585938 62.195312 89.585938 62.207031 C 90.441406 62.710938 91.375 63.054688 92.132812 63.179688 C 92.210938 63.191406 92.285156 63.203125 92.359375 63.230469 C 93.167969 63.496094 93.875 63.960938 94.417969 64.566406 C 95.476562 65.742188 95.90625 67.429688 95.550781 68.957031 C 95.148438 68.90625 94.757812 68.820312 94.367188 68.730469 C 94.226562 68.679688 94.0625 68.628906 93.914062 68.589844 Z M 93.734375 47.234375 C 93.722656 47.382812 93.710938 47.523438 93.710938 47.675781 C 93.683594 47.976562 93.671875 48.265625 93.648438 48.570312 C 93.636719 48.746094 93.609375 48.910156 93.597656 49.074219 C 93.558594 49.351562 93.535156 49.628906 93.496094 49.894531 C 93.472656 50.058594 93.445312 50.234375 93.421875 50.398438 C 93.40625 50.5 93.394531 50.601562 93.371094 50.703125 C 89.988281 48.496094 85.789062 47.585938 81.800781 48.203125 C 81.789062 48.203125 81.761719 48.21875 81.75 48.21875 C 81.648438 47.902344 81.550781 47.585938 81.460938 47.285156 C 80.96875 45.542969 80.550781 43.726562 80.25 41.945312 L 80.273438 41.933594 L 80.339844 41.871094 C 83.152344 38.832031 87.25 37.050781 91.375 37.050781 C 91.515625 37.050781 91.65625 37.050781 91.792969 37.050781 L 91.820312 37.050781 L 92.261719 37.015625 L 92.273438 37.015625 C 92.816406 38.539062 93.207031 40.105469 93.457031 41.71875 C 93.472656 41.796875 93.484375 41.871094 93.496094 41.945312 C 93.546875 42.289062 93.585938 42.628906 93.621094 42.957031 C 93.636719 43.070312 93.648438 43.183594 93.660156 43.296875 C 93.683594 43.613281 93.710938 43.925781 93.734375 44.253906 C 93.75 44.371094 93.75 44.484375 93.761719 44.609375 C 93.785156 45.039062 93.800781 45.464844 93.800781 45.894531 C 93.773438 46.335938 93.761719 46.792969 93.734375 47.234375 Z M 91.769531 36.246094 C 87.441406 36.132812 83.101562 37.882812 80.046875 40.964844 C 79.921875 40.117188 79.808594 39.296875 79.734375 38.503906 C 79.707031 38.226562 79.683594 37.949219 79.667969 37.671875 C 79.617188 37.027344 79.582031 36.359375 79.429688 35.691406 C 79.191406 34.65625 78.21875 33.496094 77.4375 32.976562 C 77.308594 32.902344 77.195312 32.8125 77.058594 32.738281 C 77.121094 32.6875 77.171875 32.613281 77.195312 32.523438 C 78.015625 29.433594 79.769531 26.542969 82.15625 24.410156 C 82.21875 24.347656 82.253906 24.273438 82.269531 24.195312 C 86.621094 27.148438 90 31.3125 91.945312 36.21875 Z M 81.636719 23.792969 C 81.625 23.804688 81.613281 23.804688 81.601562 23.816406 C 79.101562 26.0625 77.261719 29.078125 76.402344 32.332031 C 76.402344 32.347656 76.402344 32.359375 76.402344 32.359375 C 76.277344 32.285156 76.148438 32.207031 76.011719 32.144531 L 75.746094 32.003906 C 75.746094 32.003906 75.734375 31.992188 75.734375 31.992188 L 75.265625 31.742188 L 75.265625 31.753906 C 74.394531 31.3125 73.488281 30.910156 72.554688 30.554688 L 72.277344 30.453125 C 72.277344 30.453125 72.265625 30.453125 72.265625 30.453125 L 71.746094 30.265625 C 71.46875 30.164062 71.191406 30.0625 70.902344 29.976562 C 70.359375 29.796875 69.957031 29.332031 69.890625 28.761719 C 69.816406 28.121094 69.753906 27.464844 69.714844 26.820312 C 71.152344 25.621094 72.101562 23.652344 72.101562 21.421875 C 72.101562 20.917969 72.050781 20.425781 71.960938 19.957031 C 75.492188 20.625 78.761719 21.949219 81.636719 23.792969 Z M 62.082031 25.699219 C 61.527344 26.339844 61.324219 27.125 61.125 27.878906 C 61.046875 28.171875 60.972656 28.472656 60.871094 28.761719 C 60.65625 29.382812 60.429688 29.988281 60.179688 30.59375 C 58.804688 31.121094 57.554688 31.703125 56.429688 32.359375 C 56.429688 32.347656 56.429688 32.347656 56.429688 32.332031 C 55.574219 29.089844 53.730469 26.0625 51.234375 23.816406 C 51.222656 23.804688 51.207031 23.804688 51.195312 23.792969 C 54.070312 21.949219 57.351562 20.640625 60.898438 19.957031 C 60.808594 20.425781 60.757812 20.917969 60.757812 21.421875 C 60.734375 23.046875 61.25 24.539062 62.082031 25.699219 Z M 50.679688 24.421875 C 53.0625 26.554688 54.816406 29.445312 55.636719 32.535156 C 55.660156 32.625 55.710938 32.699219 55.773438 32.75 C 55.648438 32.824219 55.523438 32.902344 55.398438 32.988281 C 54.601562 33.507812 53.644531 34.667969 53.402344 35.703125 C 53.253906 36.359375 53.203125 37.027344 53.164062 37.671875 C 53.152344 37.949219 53.125 38.226562 53.101562 38.503906 C 53.074219 38.769531 53.039062 39.046875 53 39.324219 C 53 39.335938 53 39.347656 53 39.375 C 52.433594 38.71875 51.777344 38.136719 51.042969 37.644531 C 47.878906 35.550781 43.3125 35.5 40.421875 37.519531 C 42.25 32.042969 45.835938 27.414062 50.566406 24.210938 C 50.578125 24.285156 50.601562 24.359375 50.679688 24.421875 Z M 50.679688 24.421875 "/></g><path style=" stroke:none;fill-rule:nonzero;fill:#0661aa;fill-opacity:1;" d="M 59.484375 69.246094 C 59.066406 69.171875 58.664062 69.109375 58.246094 69.046875 C 54.550781 68.476562 51.964844 68.214844 49.894531 68.238281 C 49.667969 68.238281 49.441406 68.25 49.226562 68.25 C 49.039062 68.261719 48.847656 68.261719 48.660156 68.289062 C 47.386719 68.390625 46.300781 68.617188 45.203125 68.96875 C 44.988281 69.046875 44.875 69.273438 44.9375 69.488281 C 45.015625 69.703125 45.242188 69.816406 45.457031 69.753906 C 46.71875 69.335938 47.992188 69.109375 49.59375 69.058594 C 49.796875 69.058594 50.011719 69.058594 50.222656 69.058594 C 50.464844 69.058594 50.714844 69.070312 50.980469 69.070312 C 52.824219 69.132812 55.082031 69.398438 58.121094 69.851562 C 58.527344 69.917969 58.929688 69.980469 59.332031 70.054688 L 59.433594 70.066406 C 59.460938 70.066406 59.484375 70.066406 59.507812 70.066406 C 59.710938 70.066406 59.875 69.929688 59.914062 69.726562 C 59.949219 69.5 59.800781 69.296875 59.585938 69.246094 Z M 59.484375 69.246094 "/><g style="fill:#0661aa;fill-opacity:1;"><g transform="translate(42.989316, 93.912575)"><path style="stroke:none" d="M 1 0 L 1 -14.171875 L 5.09375 -14.171875 L 10.09375 -4.015625 L 10.125 -4.015625 L 10.125 -14.171875 L 13.296875 -14.171875 L 13.296875 0 L 9.21875 0 L 4.203125 -10.125 L 4.15625 -10.125 L 4.15625 0 Z M 1 0 "/></g></g><g style="fill:#0661aa;fill-opacity:1;"><g transform="translate(59.62627, 93.912575)"><path style="stroke:none" d="M 3.515625 0.234375 C 2.546875 0.234375 1.765625 -0.0195312 1.171875 -0.53125 C 0.578125 -1.050781 0.28125 -1.75 0.28125 -2.625 C 0.28125 -3.550781 0.632812 -4.300781 1.34375 -4.875 C 2.050781 -5.457031 3.085938 -5.820312 4.453125 -5.96875 L 6.03125 -6.15625 C 6.257812 -6.175781 6.441406 -6.253906 6.578125 -6.390625 C 6.710938 -6.523438 6.78125 -6.71875 6.78125 -6.96875 C 6.78125 -7.414062 6.640625 -7.757812 6.359375 -8 C 6.085938 -8.238281 5.726562 -8.359375 5.28125 -8.359375 C 4.757812 -8.359375 4.335938 -8.175781 4.015625 -7.8125 C 3.703125 -7.457031 3.53125 -7.007812 3.5 -6.46875 L 0.609375 -6.890625 C 0.640625 -7.609375 0.847656 -8.238281 1.234375 -8.78125 C 1.628906 -9.332031 2.164062 -9.765625 2.84375 -10.078125 C 3.53125 -10.390625 4.332031 -10.546875 5.25 -10.546875 C 6.644531 -10.546875 7.75 -10.179688 8.5625 -9.453125 C 9.375 -8.722656 9.78125 -7.734375 9.78125 -6.484375 L 9.78125 -2.546875 C 9.78125 -2.097656 9.941406 -1.875 10.265625 -1.875 C 10.535156 -1.875 10.789062 -2.003906 11.03125 -2.265625 L 11.6875 -0.640625 C 11.363281 -0.328125 10.976562 -0.0976562 10.53125 0.046875 C 10.082031 0.191406 9.640625 0.265625 9.203125 0.265625 C 8.585938 0.265625 8.070312 0.109375 7.65625 -0.203125 C 7.238281 -0.515625 6.976562 -0.910156 6.875 -1.390625 L 6.828125 -1.65625 L 6.8125 -1.65625 C 6.5 -1.070312 6.054688 -0.609375 5.484375 -0.265625 C 4.921875 0.0664062 4.265625 0.234375 3.515625 0.234375 Z M 4.78125 -1.890625 C 5.351562 -1.890625 5.820312 -2.09375 6.1875 -2.5 C 6.5625 -2.90625 6.75 -3.429688 6.75 -4.078125 L 6.75 -4.5625 L 5.25 -4.40625 C 4.5625 -4.320312 4.066406 -4.148438 3.765625 -3.890625 C 3.472656 -3.640625 3.328125 -3.34375 3.328125 -3 C 3.328125 -2.675781 3.460938 -2.410156 3.734375 -2.203125 C 4.003906 -1.992188 4.351562 -1.890625 4.78125 -1.890625 Z M 4.78125 -1.890625 "/></g></g><g style="fill:#0661aa;fill-opacity:1;"><g transform="translate(73.65638, 93.912575)"><path style="stroke:none" d="M 4.4375 0.28125 C 3.625 0.28125 2.914062 0.0625 2.3125 -0.375 C 1.707031 -0.8125 1.238281 -1.4375 0.90625 -2.25 C 0.582031 -3.0625 0.421875 -4.007812 0.421875 -5.09375 C 0.421875 -6.195312 0.582031 -7.148438 0.90625 -7.953125 C 1.238281 -8.753906 1.707031 -9.375 2.3125 -9.8125 C 2.914062 -10.25 3.617188 -10.46875 4.421875 -10.46875 C 5.109375 -10.46875 5.71875 -10.296875 6.25 -9.953125 C 6.78125 -9.609375 7.191406 -9.109375 7.484375 -8.453125 L 7.5 -8.453125 L 7.5 -14.765625 L 10.546875 -14.765625 L 10.546875 0 L 7.96875 0 L 7.578125 -1.765625 L 7.5625 -1.765625 C 7.269531 -1.109375 6.851562 -0.601562 6.3125 -0.25 C 5.769531 0.101562 5.144531 0.28125 4.4375 0.28125 Z M 5.546875 -2.328125 C 6.171875 -2.328125 6.671875 -2.578125 7.046875 -3.078125 C 7.429688 -3.585938 7.625 -4.257812 7.625 -5.09375 C 7.625 -5.925781 7.429688 -6.59375 7.046875 -7.09375 C 6.671875 -7.601562 6.171875 -7.859375 5.546875 -7.859375 C 4.929688 -7.859375 4.429688 -7.601562 4.046875 -7.09375 C 3.660156 -6.59375 3.46875 -5.925781 3.46875 -5.09375 C 3.46875 -4.257812 3.660156 -3.585938 4.046875 -3.078125 C 4.429688 -2.578125 4.929688 -2.328125 5.546875 -2.328125 Z M 5.546875 -2.328125 "/></g></g><g style="fill:#0661aa;fill-opacity:1;"><g transform="translate(87.308408, 93.912575)"><path style="stroke:none" d="M 2.34375 -11.578125 C 1.800781 -11.578125 1.367188 -11.738281 1.046875 -12.0625 C 0.722656 -12.382812 0.5625 -12.800781 0.5625 -13.3125 C 0.5625 -13.84375 0.722656 -14.265625 1.046875 -14.578125 C 1.367188 -14.898438 1.800781 -15.0625 2.34375 -15.0625 C 2.894531 -15.0625 3.332031 -14.898438 3.65625 -14.578125 C 3.976562 -14.265625 4.140625 -13.84375 4.140625 -13.3125 C 4.140625 -12.800781 3.976562 -12.382812 3.65625 -12.0625 C 3.332031 -11.738281 2.894531 -11.578125 2.34375 -11.578125 Z M 0.8125 0 L 0.8125 -10.1875 L 3.859375 -10.1875 L 3.859375 0 Z M 0.8125 0 "/></g></g><g style="fill:#0661aa;fill-opacity:1;"><g transform="translate(14.201341, 117.801462)"><path style="stroke:none" d="M 6.25 0.4375 C 5.132812 0.4375 4.144531 0.25 3.28125 -0.125 C 2.414062 -0.507812 1.734375 -1.054688 1.234375 -1.765625 C 0.734375 -2.472656 0.445312 -3.320312 0.375 -4.3125 L 3.5 -4.859375 C 3.539062 -4.003906 3.832031 -3.332031 4.375 -2.84375 C 4.925781 -2.351562 5.597656 -2.109375 6.390625 -2.109375 C 7.085938 -2.109375 7.644531 -2.273438 8.0625 -2.609375 C 8.488281 -2.941406 8.703125 -3.351562 8.703125 -3.84375 C 8.703125 -4.269531 8.539062 -4.617188 8.21875 -4.890625 C 7.90625 -5.171875 7.390625 -5.40625 6.671875 -5.59375 L 4.875 -6.046875 C 3.46875 -6.378906 2.4375 -6.875 1.78125 -7.53125 C 1.132812 -8.1875 0.8125 -9.070312 0.8125 -10.1875 C 0.8125 -11.082031 1.023438 -11.859375 1.453125 -12.515625 C 1.878906 -13.179688 2.484375 -13.695312 3.265625 -14.0625 C 4.046875 -14.425781 4.960938 -14.609375 6.015625 -14.609375 C 6.960938 -14.609375 7.804688 -14.4375 8.546875 -14.09375 C 9.296875 -13.757812 9.898438 -13.285156 10.359375 -12.671875 C 10.816406 -12.054688 11.078125 -11.320312 11.140625 -10.46875 L 8.109375 -9.859375 C 8.066406 -10.546875 7.84375 -11.09375 7.4375 -11.5 C 7.039062 -11.90625 6.546875 -12.109375 5.953125 -12.109375 C 5.378906 -12.109375 4.921875 -11.953125 4.578125 -11.640625 C 4.242188 -11.328125 4.078125 -10.9375 4.078125 -10.46875 C 4.078125 -10.0625 4.226562 -9.722656 4.53125 -9.453125 C 4.832031 -9.191406 5.316406 -8.972656 5.984375 -8.796875 L 7.765625 -8.359375 C 9.210938 -8.023438 10.269531 -7.523438 10.9375 -6.859375 C 11.601562 -6.191406 11.9375 -5.289062 11.9375 -4.15625 C 11.9375 -3.226562 11.703125 -2.421875 11.234375 -1.734375 C 10.773438 -1.046875 10.117188 -0.507812 9.265625 -0.125 C 8.421875 0.25 7.414062 0.4375 6.25 0.4375 Z M 6.25 0.4375 "/></g></g><g style="fill:#0661aa;fill-opacity:1;"><g transform="translate(28.788647, 117.801462)"><path style="stroke:none" d="M 0.75 0 L 0.75 -14.765625 L 3.78125 -14.765625 L 3.78125 -8.453125 L 3.796875 -8.453125 C 4.117188 -9.097656 4.554688 -9.59375 5.109375 -9.9375 C 5.660156 -10.28125 6.289062 -10.453125 7 -10.453125 C 7.945312 -10.453125 8.679688 -10.171875 9.203125 -9.609375 C 9.734375 -9.054688 10 -8.269531 10 -7.25 L 10 0 L 6.953125 0 L 6.953125 -6.46875 C 6.953125 -6.945312 6.832031 -7.316406 6.59375 -7.578125 C 6.351562 -7.847656 6.019531 -7.984375 5.59375 -7.984375 C 5.050781 -7.984375 4.613281 -7.804688 4.28125 -7.453125 C 3.945312 -7.097656 3.78125 -6.609375 3.78125 -5.984375 L 3.78125 0 Z M 0.75 0 "/></g></g><g style="fill:#0661aa;fill-opacity:1;"><g transform="translate(41.823778, 117.801462)"><path style="stroke:none" d="M 5.59375 0.34375 C 4.539062 0.34375 3.625 0.117188 2.84375 -0.328125 C 2.070312 -0.773438 1.472656 -1.40625 1.046875 -2.21875 C 0.628906 -3.03125 0.421875 -3.988281 0.421875 -5.09375 C 0.421875 -6.207031 0.628906 -7.171875 1.046875 -7.984375 C 1.472656 -8.804688 2.070312 -9.4375 2.84375 -9.875 C 3.625 -10.320312 4.539062 -10.546875 5.59375 -10.546875 C 6.644531 -10.546875 7.550781 -10.320312 8.3125 -9.875 C 9.082031 -9.4375 9.679688 -8.804688 10.109375 -7.984375 C 10.535156 -7.171875 10.75 -6.207031 10.75 -5.09375 C 10.75 -3.988281 10.535156 -3.03125 10.109375 -2.21875 C 9.679688 -1.40625 9.082031 -0.773438 8.3125 -0.328125 C 7.550781 0.117188 6.644531 0.34375 5.59375 0.34375 Z M 5.59375 -2.203125 C 6.257812 -2.203125 6.78125 -2.457031 7.15625 -2.96875 C 7.53125 -3.488281 7.71875 -4.195312 7.71875 -5.09375 C 7.71875 -6 7.53125 -6.707031 7.15625 -7.21875 C 6.78125 -7.726562 6.257812 -7.984375 5.59375 -7.984375 C 4.925781 -7.984375 4.398438 -7.726562 4.015625 -7.21875 C 3.628906 -6.707031 3.4375 -6 3.4375 -5.09375 C 3.4375 -4.195312 3.628906 -3.488281 4.015625 -2.96875 C 4.398438 -2.457031 4.925781 -2.203125 5.59375 -2.203125 Z M 5.59375 -2.203125 "/></g></g><g style="fill:#0661aa;fill-opacity:1;"><g transform="translate(55.356404, 117.801462)"><path style="stroke:none" d="M 4.4375 0.28125 C 3.625 0.28125 2.914062 0.0625 2.3125 -0.375 C 1.707031 -0.8125 1.238281 -1.4375 0.90625 -2.25 C 0.582031 -3.0625 0.421875 -4.007812 0.421875 -5.09375 C 0.421875 -6.195312 0.582031 -7.148438 0.90625 -7.953125 C 1.238281 -8.753906 1.707031 -9.375 2.3125 -9.8125 C 2.914062 -10.25 3.617188 -10.46875 4.421875 -10.46875 C 5.109375 -10.46875 5.71875 -10.296875 6.25 -9.953125 C 6.78125 -9.609375 7.191406 -9.109375 7.484375 -8.453125 L 7.5 -8.453125 L 7.5 -14.765625 L 10.546875 -14.765625 L 10.546875 0 L 7.96875 0 L 7.578125 -1.765625 L 7.5625 -1.765625 C 7.269531 -1.109375 6.851562 -0.601562 6.3125 -0.25 C 5.769531 0.101562 5.144531 0.28125 4.4375 0.28125 Z M 5.546875 -2.328125 C 6.171875 -2.328125 6.671875 -2.578125 7.046875 -3.078125 C 7.429688 -3.585938 7.625 -4.257812 7.625 -5.09375 C 7.625 -5.925781 7.429688 -6.59375 7.046875 -7.09375 C 6.671875 -7.601562 6.171875 -7.859375 5.546875 -7.859375 C 4.929688 -7.859375 4.429688 -7.601562 4.046875 -7.09375 C 3.660156 -6.59375 3.46875 -5.925781 3.46875 -5.09375 C 3.46875 -4.257812 3.660156 -3.585938 4.046875 -3.078125 C 4.429688 -2.578125 4.929688 -2.328125 5.546875 -2.328125 Z M 5.546875 -2.328125 "/></g></g><g style="fill:#0661aa;fill-opacity:1;"><g transform="translate(69.008432, 117.801462)"><path style="stroke:none" d="M 0.75 0 L 0.75 -14.765625 L 3.78125 -14.765625 L 3.78125 -8.453125 L 3.796875 -8.453125 C 4.117188 -9.097656 4.554688 -9.59375 5.109375 -9.9375 C 5.660156 -10.28125 6.289062 -10.453125 7 -10.453125 C 7.945312 -10.453125 8.679688 -10.171875 9.203125 -9.609375 C 9.734375 -9.054688 10 -8.269531 10 -7.25 L 10 0 L 6.953125 0 L 6.953125 -6.46875 C 6.953125 -6.945312 6.832031 -7.316406 6.59375 -7.578125 C 6.351562 -7.847656 6.019531 -7.984375 5.59375 -7.984375 C 5.050781 -7.984375 4.613281 -7.804688 4.28125 -7.453125 C 3.945312 -7.097656 3.78125 -6.609375 3.78125 -5.984375 L 3.78125 0 Z M 0.75 0 "/></g></g><g style="fill:#0661aa;fill-opacity:1;"><g transform="translate(82.043563, 117.801462)"><path style="stroke:none" d="M 3.515625 0.234375 C 2.546875 0.234375 1.765625 -0.0195312 1.171875 -0.53125 C 0.578125 -1.050781 0.28125 -1.75 0.28125 -2.625 C 0.28125 -3.550781 0.632812 -4.300781 1.34375 -4.875 C 2.050781 -5.457031 3.085938 -5.820312 4.453125 -5.96875 L 6.03125 -6.15625 C 6.257812 -6.175781 6.441406 -6.253906 6.578125 -6.390625 C 6.710938 -6.523438 6.78125 -6.71875 6.78125 -6.96875 C 6.78125 -7.414062 6.640625 -7.757812 6.359375 -8 C 6.085938 -8.238281 5.726562 -8.359375 5.28125 -8.359375 C 4.757812 -8.359375 4.335938 -8.175781 4.015625 -7.8125 C 3.703125 -7.457031 3.53125 -7.007812 3.5 -6.46875 L 0.609375 -6.890625 C 0.640625 -7.609375 0.847656 -8.238281 1.234375 -8.78125 C 1.628906 -9.332031 2.164062 -9.765625 2.84375 -10.078125 C 3.53125 -10.390625 4.332031 -10.546875 5.25 -10.546875 C 6.644531 -10.546875 7.75 -10.179688 8.5625 -9.453125 C 9.375 -8.722656 9.78125 -7.734375 9.78125 -6.484375 L 9.78125 -2.546875 C 9.78125 -2.097656 9.941406 -1.875 10.265625 -1.875 C 10.535156 -1.875 10.789062 -2.003906 11.03125 -2.265625 L 11.6875 -0.640625 C 11.363281 -0.328125 10.976562 -0.0976562 10.53125 0.046875 C 10.082031 0.191406 9.640625 0.265625 9.203125 0.265625 C 8.585938 0.265625 8.070312 0.109375 7.65625 -0.203125 C 7.238281 -0.515625 6.976562 -0.910156 6.875 -1.390625 L 6.828125 -1.65625 L 6.8125 -1.65625 C 6.5 -1.070312 6.054688 -0.609375 5.484375 -0.265625 C 4.921875 0.0664062 4.265625 0.234375 3.515625 0.234375 Z M 4.78125 -1.890625 C 5.351562 -1.890625 5.820312 -2.09375 6.1875 -2.5 C 6.5625 -2.90625 6.75 -3.429688 6.75 -4.078125 L 6.75 -4.5625 L 5.25 -4.40625 C 4.5625 -4.320312 4.066406 -4.148438 3.765625 -3.890625 C 3.472656 -3.640625 3.328125 -3.34375 3.328125 -3 C 3.328125 -2.675781 3.460938 -2.410156 3.734375 -2.203125 C 4.003906 -1.992188 4.351562 -1.890625 4.78125 -1.890625 Z M 4.78125 -1.890625 "/></g></g><g style="fill:#0661aa;fill-opacity:1;"><g transform="translate(96.073673, 117.801462)"><path style="stroke:none" d="M 6.953125 -10.453125 C 7.890625 -10.453125 8.628906 -10.171875 9.171875 -9.609375 C 9.722656 -9.046875 10 -8.257812 10 -7.25 L 10 0 L 6.953125 0 L 6.953125 -6.46875 C 6.953125 -6.945312 6.832031 -7.316406 6.59375 -7.578125 C 6.351562 -7.847656 6.019531 -7.984375 5.59375 -7.984375 C 5.050781 -7.984375 4.613281 -7.804688 4.28125 -7.453125 C 3.945312 -7.097656 3.78125 -6.609375 3.78125 -5.984375 L 3.78125 0 L 0.75 0 L 0.75 -10.1875 L 3.265625 -10.1875 L 3.6875 -8.453125 L 3.703125 -8.453125 C 4.003906 -9.097656 4.441406 -9.59375 5.015625 -9.9375 C 5.585938 -10.28125 6.234375 -10.453125 6.953125 -10.453125 Z M 6.953125 -10.453125 "/></g></g><g style="fill:#0661aa;fill-opacity:1;"><g transform="translate(109.108804, 117.801462)"><path style="stroke:none" d="M 3.515625 0.234375 C 2.546875 0.234375 1.765625 -0.0195312 1.171875 -0.53125 C 0.578125 -1.050781 0.28125 -1.75 0.28125 -2.625 C 0.28125 -3.550781 0.632812 -4.300781 1.34375 -4.875 C 2.050781 -5.457031 3.085938 -5.820312 4.453125 -5.96875 L 6.03125 -6.15625 C 6.257812 -6.175781 6.441406 -6.253906 6.578125 -6.390625 C 6.710938 -6.523438 6.78125 -6.71875 6.78125 -6.96875 C 6.78125 -7.414062 6.640625 -7.757812 6.359375 -8 C 6.085938 -8.238281 5.726562 -8.359375 5.28125 -8.359375 C 4.757812 -8.359375 4.335938 -8.175781 4.015625 -7.8125 C 3.703125 -7.457031 3.53125 -7.007812 3.5 -6.46875 L 0.609375 -6.890625 C 0.640625 -7.609375 0.847656 -8.238281 1.234375 -8.78125 C 1.628906 -9.332031 2.164062 -9.765625 2.84375 -10.078125 C 3.53125 -10.390625 4.332031 -10.546875 5.25 -10.546875 C 6.644531 -10.546875 7.75 -10.179688 8.5625 -9.453125 C 9.375 -8.722656 9.78125 -7.734375 9.78125 -6.484375 L 9.78125 -2.546875 C 9.78125 -2.097656 9.941406 -1.875 10.265625 -1.875 C 10.535156 -1.875 10.789062 -2.003906 11.03125 -2.265625 L 11.6875 -0.640625 C 11.363281 -0.328125 10.976562 -0.0976562 10.53125 0.046875 C 10.082031 0.191406 9.640625 0.265625 9.203125 0.265625 C 8.585938 0.265625 8.070312 0.109375 7.65625 -0.203125 C 7.238281 -0.515625 6.976562 -0.910156 6.875 -1.390625 L 6.828125 -1.65625 L 6.8125 -1.65625 C 6.5 -1.070312 6.054688 -0.609375 5.484375 -0.265625 C 4.921875 0.0664062 4.265625 0.234375 3.515625 0.234375 Z M 4.78125 -1.890625 C 5.351562 -1.890625 5.820312 -2.09375 6.1875 -2.5 C 6.5625 -2.90625 6.75 -3.429688 6.75 -4.078125 L 6.75 -4.5625 L 5.25 -4.40625 C 4.5625 -4.320312 4.066406 -4.148438 3.765625 -3.890625 C 3.472656 -3.640625 3.328125 -3.34375 3.328125 -3 C 3.328125 -2.675781 3.460938 -2.410156 3.734375 -2.203125 C 4.003906 -1.992188 4.351562 -1.890625 4.78125 -1.890625 Z M 4.78125 -1.890625 "/></g></g><g style="fill:#2d6d5e;fill-opacity:1;"><g transform="translate(24.41959, 130.213681)"><path style="stroke:none" d="M 2.140625 -7.8125 C 2.671875 -7.8125 3.101562 -7.726562 3.4375 -7.5625 C 3.78125 -7.40625 4.035156 -7.164062 4.203125 -6.84375 C 4.367188 -6.519531 4.453125 -6.113281 4.453125 -5.625 C 4.453125 -5.28125 4.410156 -4.96875 4.328125 -4.6875 C 4.242188 -4.414062 4.113281 -4.179688 3.9375 -3.984375 C 3.757812 -3.796875 3.523438 -3.640625 3.234375 -3.515625 L 4.828125 0 L 3.875 0 L 2.46875 -3.296875 L 1.65625 -3.296875 L 1.65625 0 L 0.8125 0 L 0.8125 -7.8125 Z M 2.140625 -7.03125 L 1.65625 -7.03125 L 1.65625 -4.015625 L 2.265625 -4.015625 C 2.691406 -4.015625 3.019531 -4.144531 3.25 -4.40625 C 3.476562 -4.664062 3.59375 -5.0625 3.59375 -5.59375 C 3.59375 -6.101562 3.472656 -6.46875 3.234375 -6.6875 C 3.003906 -6.914062 2.640625 -7.03125 2.140625 -7.03125 Z M 2.140625 -7.03125 "/></g></g><g style="fill:#2d6d5e;fill-opacity:1;"><g transform="translate(30.926249, 130.213681)"><path style="stroke:none" d="M 2.328125 -5.953125 C 2.722656 -5.953125 3.050781 -5.835938 3.3125 -5.609375 C 3.570312 -5.378906 3.765625 -5.066406 3.890625 -4.671875 C 4.015625 -4.285156 4.078125 -3.851562 4.078125 -3.375 L 4.078125 -2.78125 L 1.28125 -2.78125 C 1.289062 -2.050781 1.40625 -1.503906 1.625 -1.140625 C 1.84375 -0.773438 2.171875 -0.59375 2.609375 -0.59375 C 2.828125 -0.59375 3.035156 -0.625 3.234375 -0.6875 C 3.441406 -0.75 3.648438 -0.851562 3.859375 -1 L 3.859375 -0.265625 C 3.660156 -0.140625 3.453125 -0.046875 3.234375 0.015625 C 3.015625 0.078125 2.78125 0.109375 2.53125 0.109375 C 2.039062 0.109375 1.644531 -0.0195312 1.34375 -0.28125 C 1.039062 -0.539062 0.816406 -0.898438 0.671875 -1.359375 C 0.535156 -1.816406 0.46875 -2.332031 0.46875 -2.90625 C 0.46875 -3.550781 0.535156 -4.101562 0.671875 -4.5625 C 0.816406 -5.019531 1.023438 -5.363281 1.296875 -5.59375 C 1.578125 -5.832031 1.921875 -5.953125 2.328125 -5.953125 Z M 2.328125 -5.28125 C 2.015625 -5.28125 1.769531 -5.128906 1.59375 -4.828125 C 1.425781 -4.535156 1.328125 -4.070312 1.296875 -3.4375 L 3.3125 -3.4375 C 3.3125 -3.769531 3.273438 -4.078125 3.203125 -4.359375 C 3.140625 -4.640625 3.035156 -4.863281 2.890625 -5.03125 C 2.742188 -5.195312 2.554688 -5.28125 2.328125 -5.28125 Z M 2.328125 -5.28125 "/></g></g><g style="fill:#2d6d5e;fill-opacity:1;"><g transform="translate(36.984143, 130.213681)"><path style="stroke:none" d="M 3.328125 -1.546875 C 3.328125 -1.191406 3.257812 -0.890625 3.125 -0.640625 C 3 -0.398438 2.8125 -0.210938 2.5625 -0.078125 C 2.320312 0.046875 2.03125 0.109375 1.6875 0.109375 C 1.414062 0.109375 1.164062 0.078125 0.9375 0.015625 C 0.71875 -0.046875 0.53125 -0.125 0.375 -0.21875 L 0.375 -1.078125 C 0.53125 -0.941406 0.722656 -0.832031 0.953125 -0.75 C 1.179688 -0.664062 1.414062 -0.625 1.65625 -0.625 C 1.925781 -0.625 2.132812 -0.703125 2.28125 -0.859375 C 2.4375 -1.015625 2.515625 -1.234375 2.515625 -1.515625 C 2.515625 -1.679688 2.484375 -1.828125 2.421875 -1.953125 C 2.359375 -2.078125 2.257812 -2.195312 2.125 -2.3125 C 1.988281 -2.425781 1.816406 -2.546875 1.609375 -2.671875 C 1.359375 -2.816406 1.140625 -2.96875 0.953125 -3.125 C 0.765625 -3.289062 0.617188 -3.476562 0.515625 -3.6875 C 0.421875 -3.894531 0.375 -4.144531 0.375 -4.4375 C 0.375 -4.894531 0.519531 -5.265625 0.8125 -5.546875 C 1.113281 -5.828125 1.503906 -5.96875 1.984375 -5.96875 C 2.234375 -5.96875 2.46875 -5.9375 2.6875 -5.875 C 2.90625 -5.8125 3.113281 -5.71875 3.3125 -5.59375 L 3 -4.9375 C 2.851562 -5.039062 2.691406 -5.117188 2.515625 -5.171875 C 2.347656 -5.234375 2.175781 -5.265625 2 -5.265625 C 1.738281 -5.265625 1.53125 -5.191406 1.375 -5.046875 C 1.226562 -4.898438 1.15625 -4.707031 1.15625 -4.46875 C 1.15625 -4.300781 1.1875 -4.15625 1.25 -4.03125 C 1.3125 -3.914062 1.410156 -3.800781 1.546875 -3.6875 C 1.679688 -3.582031 1.863281 -3.460938 2.09375 -3.328125 C 2.34375 -3.171875 2.554688 -3.015625 2.734375 -2.859375 C 2.921875 -2.703125 3.066406 -2.519531 3.171875 -2.3125 C 3.273438 -2.101562 3.328125 -1.847656 3.328125 -1.546875 Z M 3.328125 -1.546875 "/></g></g><g style="fill:#2d6d5e;fill-opacity:1;"><g transform="translate(42.192591, 130.213681)"><path style="stroke:none" d="M 2.828125 -5.96875 C 3.390625 -5.96875 3.816406 -5.710938 4.109375 -5.203125 C 4.398438 -4.703125 4.546875 -3.945312 4.546875 -2.9375 C 4.546875 -2.289062 4.476562 -1.738281 4.34375 -1.28125 C 4.21875 -0.832031 4.03125 -0.488281 3.78125 -0.25 C 3.53125 -0.0078125 3.226562 0.109375 2.875 0.109375 C 2.675781 0.109375 2.488281 0.0703125 2.3125 0 C 2.144531 -0.0820312 1.992188 -0.191406 1.859375 -0.328125 C 1.734375 -0.472656 1.625 -0.640625 1.53125 -0.828125 L 1.5 -0.828125 C 1.507812 -0.679688 1.515625 -0.539062 1.515625 -0.40625 C 1.523438 -0.28125 1.53125 -0.160156 1.53125 -0.046875 L 1.53125 2.609375 L 0.71875 2.609375 L 0.71875 -5.859375 L 1.390625 -5.859375 L 1.484375 -5 L 1.53125 -5 C 1.632812 -5.21875 1.75 -5.394531 1.875 -5.53125 C 2.007812 -5.675781 2.15625 -5.785156 2.3125 -5.859375 C 2.46875 -5.929688 2.640625 -5.96875 2.828125 -5.96875 Z M 2.65625 -5.265625 C 2.40625 -5.265625 2.195312 -5.1875 2.03125 -5.03125 C 1.875 -4.875 1.75 -4.632812 1.65625 -4.3125 C 1.570312 -4 1.53125 -3.601562 1.53125 -3.125 L 1.53125 -2.84375 C 1.53125 -2.34375 1.570312 -1.925781 1.65625 -1.59375 C 1.75 -1.257812 1.878906 -1.007812 2.046875 -0.84375 C 2.210938 -0.6875 2.421875 -0.609375 2.671875 -0.609375 C 2.898438 -0.609375 3.09375 -0.691406 3.25 -0.859375 C 3.40625 -1.023438 3.519531 -1.273438 3.59375 -1.609375 C 3.675781 -1.953125 3.71875 -2.394531 3.71875 -2.9375 C 3.71875 -3.707031 3.632812 -4.285156 3.46875 -4.671875 C 3.300781 -5.066406 3.03125 -5.265625 2.65625 -5.265625 Z M 2.65625 -5.265625 "/></g></g><g style="fill:#2d6d5e;fill-opacity:1;"><g transform="translate(48.731304, 130.213681)"><path style="stroke:none" d="M 1.546875 -5.859375 L 1.546875 0 L 0.71875 0 L 0.71875 -5.859375 Z M 1.140625 -8.0625 C 1.316406 -8.0625 1.441406 -8.007812 1.515625 -7.90625 C 1.585938 -7.800781 1.625 -7.648438 1.625 -7.453125 C 1.625 -7.273438 1.582031 -7.128906 1.5 -7.015625 C 1.425781 -6.910156 1.304688 -6.859375 1.140625 -6.859375 C 0.992188 -6.859375 0.875 -6.910156 0.78125 -7.015625 C 0.695312 -7.128906 0.65625 -7.273438 0.65625 -7.453125 C 0.65625 -7.648438 0.695312 -7.800781 0.78125 -7.90625 C 0.863281 -8.007812 0.984375 -8.0625 1.140625 -8.0625 Z M 1.140625 -8.0625 "/></g></g><g style="fill:#2d6d5e;fill-opacity:1;"><g transform="translate(52.52935, 130.213681)"><path style="stroke:none" d="M 2.671875 -5.96875 C 2.753906 -5.96875 2.835938 -5.957031 2.921875 -5.9375 C 3.003906 -5.925781 3.085938 -5.910156 3.171875 -5.890625 L 3.046875 -5.046875 C 2.984375 -5.066406 2.914062 -5.082031 2.84375 -5.09375 C 2.769531 -5.101562 2.691406 -5.109375 2.609375 -5.109375 C 2.453125 -5.109375 2.304688 -5.054688 2.171875 -4.953125 C 2.035156 -4.847656 1.921875 -4.703125 1.828125 -4.515625 C 1.734375 -4.328125 1.660156 -4.109375 1.609375 -3.859375 C 1.554688 -3.609375 1.53125 -3.34375 1.53125 -3.0625 L 1.53125 0 L 0.71875 0 L 0.71875 -5.859375 L 1.359375 -5.859375 L 1.46875 -4.828125 L 1.515625 -4.828125 C 1.597656 -5.046875 1.691406 -5.238281 1.796875 -5.40625 C 1.910156 -5.582031 2.039062 -5.71875 2.1875 -5.8125 C 2.332031 -5.914062 2.492188 -5.96875 2.671875 -5.96875 Z M 2.671875 -5.96875 "/></g></g><g style="fill:#2d6d5e;fill-opacity:1;"><g transform="translate(57.342458, 130.213681)"><path style="stroke:none" d="M 2.28125 -5.96875 C 2.820312 -5.96875 3.207031 -5.796875 3.4375 -5.453125 C 3.675781 -5.109375 3.796875 -4.609375 3.796875 -3.953125 L 3.796875 0 L 3.171875 0 L 3.046875 -0.828125 L 3.015625 -0.828125 C 2.929688 -0.628906 2.820312 -0.457031 2.6875 -0.3125 C 2.5625 -0.175781 2.414062 -0.0703125 2.25 0 C 2.09375 0.0703125 1.90625 0.109375 1.6875 0.109375 C 1.382812 0.109375 1.132812 0.03125 0.9375 -0.125 C 0.75 -0.289062 0.609375 -0.503906 0.515625 -0.765625 C 0.421875 -1.023438 0.375 -1.304688 0.375 -1.609375 C 0.375 -2.191406 0.539062 -2.640625 0.875 -2.953125 C 1.21875 -3.273438 1.695312 -3.453125 2.3125 -3.484375 L 2.96875 -3.53125 L 2.96875 -3.9375 C 2.96875 -4.40625 2.90625 -4.742188 2.78125 -4.953125 C 2.65625 -5.171875 2.445312 -5.28125 2.15625 -5.28125 C 2 -5.28125 1.828125 -5.25 1.640625 -5.1875 C 1.460938 -5.132812 1.269531 -5.046875 1.0625 -4.921875 L 0.796875 -5.546875 C 1.015625 -5.691406 1.25 -5.796875 1.5 -5.859375 C 1.757812 -5.929688 2.019531 -5.96875 2.28125 -5.96875 Z M 2.984375 -2.921875 L 2.4375 -2.890625 C 2.03125 -2.867188 1.722656 -2.753906 1.515625 -2.546875 C 1.316406 -2.335938 1.21875 -2.035156 1.21875 -1.640625 C 1.21875 -1.265625 1.28125 -0.988281 1.40625 -0.8125 C 1.539062 -0.644531 1.722656 -0.5625 1.953125 -0.5625 C 2.285156 -0.5625 2.539062 -0.71875 2.71875 -1.03125 C 2.894531 -1.34375 2.984375 -1.773438 2.984375 -2.328125 Z M 2.984375 -2.921875 "/></g></g><g style="fill:#2d6d5e;fill-opacity:1;"><g transform="translate(63.368298, 130.213681)"><path style="stroke:none" d="M 2.40625 0.109375 C 1.976562 0.109375 1.617188 0 1.328125 -0.21875 C 1.046875 -0.445312 0.832031 -0.785156 0.6875 -1.234375 C 0.539062 -1.679688 0.46875 -2.234375 0.46875 -2.890625 C 0.46875 -3.535156 0.539062 -4.085938 0.6875 -4.546875 C 0.832031 -5.003906 1.050781 -5.351562 1.34375 -5.59375 C 1.632812 -5.84375 2 -5.96875 2.4375 -5.96875 C 2.65625 -5.96875 2.851562 -5.941406 3.03125 -5.890625 C 3.207031 -5.847656 3.375 -5.785156 3.53125 -5.703125 L 3.265625 -5.03125 C 3.140625 -5.09375 3.007812 -5.140625 2.875 -5.171875 C 2.75 -5.210938 2.625 -5.234375 2.5 -5.234375 C 2.238281 -5.234375 2.019531 -5.144531 1.84375 -4.96875 C 1.675781 -4.789062 1.546875 -4.53125 1.453125 -4.1875 C 1.359375 -3.84375 1.3125 -3.414062 1.3125 -2.90625 C 1.3125 -2.394531 1.351562 -1.96875 1.4375 -1.625 C 1.53125 -1.289062 1.664062 -1.035156 1.84375 -0.859375 C 2.019531 -0.691406 2.238281 -0.609375 2.5 -0.609375 C 2.65625 -0.609375 2.8125 -0.628906 2.96875 -0.671875 C 3.132812 -0.722656 3.300781 -0.789062 3.46875 -0.875 L 3.46875 -0.1875 C 3.3125 -0.09375 3.132812 -0.0195312 2.9375 0.03125 C 2.75 0.0820312 2.570312 0.109375 2.40625 0.109375 Z M 3.3125 1.515625 C 3.3125 1.867188 3.195312 2.140625 2.96875 2.328125 C 2.738281 2.523438 2.425781 2.625 2.03125 2.625 C 1.90625 2.625 1.789062 2.617188 1.6875 2.609375 C 1.582031 2.597656 1.492188 2.582031 1.421875 2.5625 L 1.421875 2.015625 C 1.492188 2.035156 1.570312 2.050781 1.65625 2.0625 C 1.738281 2.070312 1.820312 2.078125 1.90625 2.078125 C 2.144531 2.078125 2.320312 2.023438 2.4375 1.921875 C 2.5625 1.816406 2.625 1.679688 2.625 1.515625 C 2.625 1.316406 2.546875 1.164062 2.390625 1.0625 C 2.234375 0.96875 2.023438 0.898438 1.765625 0.859375 L 2.140625 0 L 2.640625 0 L 2.40625 0.5625 C 2.601562 0.601562 2.769531 0.664062 2.90625 0.75 C 3.039062 0.832031 3.140625 0.9375 3.203125 1.0625 C 3.273438 1.195312 3.3125 1.347656 3.3125 1.515625 Z M 3.3125 1.515625 "/></g></g><g style="fill:#2d6d5e;fill-opacity:1;"><g transform="translate(68.656882, 130.213681)"><path style="stroke:none" d="M 2.28125 -5.96875 C 2.820312 -5.96875 3.207031 -5.796875 3.4375 -5.453125 C 3.675781 -5.109375 3.796875 -4.609375 3.796875 -3.953125 L 3.796875 0 L 3.171875 0 L 3.046875 -0.828125 L 3.015625 -0.828125 C 2.929688 -0.628906 2.820312 -0.457031 2.6875 -0.3125 C 2.5625 -0.175781 2.414062 -0.0703125 2.25 0 C 2.09375 0.0703125 1.90625 0.109375 1.6875 0.109375 C 1.382812 0.109375 1.132812 0.03125 0.9375 -0.125 C 0.75 -0.289062 0.609375 -0.503906 0.515625 -0.765625 C 0.421875 -1.023438 0.375 -1.304688 0.375 -1.609375 C 0.375 -2.191406 0.539062 -2.640625 0.875 -2.953125 C 1.21875 -3.273438 1.695312 -3.453125 2.3125 -3.484375 L 2.96875 -3.53125 L 2.96875 -3.9375 C 2.96875 -4.40625 2.90625 -4.742188 2.78125 -4.953125 C 2.65625 -5.171875 2.445312 -5.28125 2.15625 -5.28125 C 2 -5.28125 1.828125 -5.25 1.640625 -5.1875 C 1.460938 -5.132812 1.269531 -5.046875 1.0625 -4.921875 L 0.796875 -5.546875 C 1.015625 -5.691406 1.25 -5.796875 1.5 -5.859375 C 1.757812 -5.929688 2.019531 -5.96875 2.28125 -5.96875 Z M 2.984375 -2.921875 L 2.4375 -2.890625 C 2.03125 -2.867188 1.722656 -2.753906 1.515625 -2.546875 C 1.316406 -2.335938 1.21875 -2.035156 1.21875 -1.640625 C 1.21875 -1.265625 1.28125 -0.988281 1.40625 -0.8125 C 1.539062 -0.644531 1.722656 -0.5625 1.953125 -0.5625 C 2.285156 -0.5625 2.539062 -0.71875 2.71875 -1.03125 C 2.894531 -1.34375 2.984375 -1.773438 2.984375 -2.328125 Z M 0.703125 -6.640625 C 0.722656 -6.804688 0.75 -6.96875 0.78125 -7.125 C 0.820312 -7.28125 0.878906 -7.414062 0.953125 -7.53125 C 1.023438 -7.65625 1.113281 -7.75 1.21875 -7.8125 C 1.320312 -7.882812 1.445312 -7.921875 1.59375 -7.921875 C 1.726562 -7.921875 1.851562 -7.890625 1.96875 -7.828125 C 2.09375 -7.765625 2.210938 -7.691406 2.328125 -7.609375 C 2.441406 -7.523438 2.550781 -7.453125 2.65625 -7.390625 C 2.769531 -7.328125 2.878906 -7.296875 2.984375 -7.296875 C 3.097656 -7.296875 3.179688 -7.351562 3.234375 -7.46875 C 3.296875 -7.582031 3.34375 -7.738281 3.375 -7.9375 L 3.890625 -7.9375 C 3.867188 -7.519531 3.773438 -7.195312 3.609375 -6.96875 C 3.453125 -6.75 3.253906 -6.640625 3.015625 -6.640625 C 2.878906 -6.640625 2.75 -6.671875 2.625 -6.734375 C 2.5 -6.804688 2.378906 -6.882812 2.265625 -6.96875 C 2.148438 -7.050781 2.039062 -7.125 1.9375 -7.1875 C 1.832031 -7.25 1.734375 -7.28125 1.640625 -7.28125 C 1.546875 -7.28125 1.457031 -7.222656 1.375 -7.109375 C 1.300781 -6.992188 1.25 -6.835938 1.21875 -6.640625 Z M 0.703125 -6.640625 "/></g></g><g style="fill:#2d6d5e;fill-opacity:1;"><g transform="translate(74.682722, 130.213681)"><path style="stroke:none" d="M 4.359375 -2.9375 C 4.359375 -2.476562 4.316406 -2.0625 4.234375 -1.6875 C 4.160156 -1.3125 4.039062 -0.988281 3.875 -0.71875 C 3.71875 -0.457031 3.515625 -0.253906 3.265625 -0.109375 C 3.023438 0.0351562 2.734375 0.109375 2.390625 0.109375 C 2.078125 0.109375 1.796875 0.0351562 1.546875 -0.109375 C 1.304688 -0.253906 1.101562 -0.457031 0.9375 -0.71875 C 0.78125 -0.976562 0.660156 -1.296875 0.578125 -1.671875 C 0.503906 -2.054688 0.46875 -2.476562 0.46875 -2.9375 C 0.46875 -3.582031 0.535156 -4.128906 0.671875 -4.578125 C 0.804688 -5.035156 1.019531 -5.378906 1.3125 -5.609375 C 1.601562 -5.847656 1.96875 -5.96875 2.40625 -5.96875 C 2.820312 -5.96875 3.175781 -5.851562 3.46875 -5.625 C 3.757812 -5.394531 3.976562 -5.054688 4.125 -4.609375 C 4.28125 -4.160156 4.359375 -3.601562 4.359375 -2.9375 Z M 1.296875 -2.9375 C 1.296875 -2.425781 1.332031 -2 1.40625 -1.65625 C 1.488281 -1.3125 1.613281 -1.050781 1.78125 -0.875 C 1.945312 -0.695312 2.160156 -0.609375 2.421875 -0.609375 C 2.671875 -0.609375 2.875 -0.691406 3.03125 -0.859375 C 3.195312 -1.035156 3.316406 -1.296875 3.390625 -1.640625 C 3.472656 -1.984375 3.515625 -2.414062 3.515625 -2.9375 C 3.515625 -3.445312 3.472656 -3.875 3.390625 -4.21875 C 3.316406 -4.5625 3.195312 -4.816406 3.03125 -4.984375 C 2.875 -5.160156 2.664062 -5.25 2.40625 -5.25 C 2.019531 -5.25 1.738281 -5.054688 1.5625 -4.671875 C 1.382812 -4.285156 1.296875 -3.707031 1.296875 -2.9375 Z M 1.296875 -2.9375 "/></g></g><g style="fill:#2d6d5e;fill-opacity:1;"><g transform="translate(81.03445, 130.213681)"><path style="stroke:none" d=""/></g></g><g style="fill:#2d6d5e;fill-opacity:1;"><g transform="translate(84.59743, 130.213681)"><path style="stroke:none" d="M 2.828125 -5.96875 C 3.285156 -5.96875 3.632812 -5.804688 3.875 -5.484375 C 4.113281 -5.160156 4.234375 -4.664062 4.234375 -4 L 4.234375 0 L 3.40625 0 L 3.40625 -3.828125 C 3.40625 -4.304688 3.34375 -4.660156 3.21875 -4.890625 C 3.101562 -5.128906 2.914062 -5.25 2.65625 -5.25 C 2.269531 -5.25 1.984375 -5.078125 1.796875 -4.734375 C 1.617188 -4.390625 1.53125 -3.84375 1.53125 -3.09375 L 1.53125 0 L 0.71875 0 L 0.71875 -5.859375 L 1.375 -5.859375 L 1.46875 -5.015625 L 1.515625 -5.015625 C 1.597656 -5.210938 1.703125 -5.378906 1.828125 -5.515625 C 1.960938 -5.660156 2.113281 -5.769531 2.28125 -5.84375 C 2.445312 -5.925781 2.628906 -5.96875 2.828125 -5.96875 Z M 2.828125 -5.96875 "/></g></g><g style="fill:#2d6d5e;fill-opacity:1;"><g transform="translate(91.061348, 130.213681)"><path style="stroke:none" d="M 2.28125 -5.96875 C 2.820312 -5.96875 3.207031 -5.796875 3.4375 -5.453125 C 3.675781 -5.109375 3.796875 -4.609375 3.796875 -3.953125 L 3.796875 0 L 3.171875 0 L 3.046875 -0.828125 L 3.015625 -0.828125 C 2.929688 -0.628906 2.820312 -0.457031 2.6875 -0.3125 C 2.5625 -0.175781 2.414062 -0.0703125 2.25 0 C 2.09375 0.0703125 1.90625 0.109375 1.6875 0.109375 C 1.382812 0.109375 1.132812 0.03125 0.9375 -0.125 C 0.75 -0.289062 0.609375 -0.503906 0.515625 -0.765625 C 0.421875 -1.023438 0.375 -1.304688 0.375 -1.609375 C 0.375 -2.191406 0.539062 -2.640625 0.875 -2.953125 C 1.21875 -3.273438 1.695312 -3.453125 2.3125 -3.484375 L 2.96875 -3.53125 L 2.96875 -3.9375 C 2.96875 -4.40625 2.90625 -4.742188 2.78125 -4.953125 C 2.65625 -5.171875 2.445312 -5.28125 2.15625 -5.28125 C 2 -5.28125 1.828125 -5.25 1.640625 -5.1875 C 1.460938 -5.132812 1.269531 -5.046875 1.0625 -4.921875 L 0.796875 -5.546875 C 1.015625 -5.691406 1.25 -5.796875 1.5 -5.859375 C 1.757812 -5.929688 2.019531 -5.96875 2.28125 -5.96875 Z M 2.984375 -2.921875 L 2.4375 -2.890625 C 2.03125 -2.867188 1.722656 -2.753906 1.515625 -2.546875 C 1.316406 -2.335938 1.21875 -2.035156 1.21875 -1.640625 C 1.21875 -1.265625 1.28125 -0.988281 1.40625 -0.8125 C 1.539062 -0.644531 1.722656 -0.5625 1.953125 -0.5625 C 2.285156 -0.5625 2.539062 -0.71875 2.71875 -1.03125 C 2.894531 -1.34375 2.984375 -1.773438 2.984375 -2.328125 Z M 2.984375 -2.921875 "/></g></g><g style="fill:#2d6d5e;fill-opacity:1;"><g transform="translate(97.087188, 130.213681)"><path style="stroke:none" d="M 3.328125 -1.546875 C 3.328125 -1.191406 3.257812 -0.890625 3.125 -0.640625 C 3 -0.398438 2.8125 -0.210938 2.5625 -0.078125 C 2.320312 0.046875 2.03125 0.109375 1.6875 0.109375 C 1.414062 0.109375 1.164062 0.078125 0.9375 0.015625 C 0.71875 -0.046875 0.53125 -0.125 0.375 -0.21875 L 0.375 -1.078125 C 0.53125 -0.941406 0.722656 -0.832031 0.953125 -0.75 C 1.179688 -0.664062 1.414062 -0.625 1.65625 -0.625 C 1.925781 -0.625 2.132812 -0.703125 2.28125 -0.859375 C 2.4375 -1.015625 2.515625 -1.234375 2.515625 -1.515625 C 2.515625 -1.679688 2.484375 -1.828125 2.421875 -1.953125 C 2.359375 -2.078125 2.257812 -2.195312 2.125 -2.3125 C 1.988281 -2.425781 1.816406 -2.546875 1.609375 -2.671875 C 1.359375 -2.816406 1.140625 -2.96875 0.953125 -3.125 C 0.765625 -3.289062 0.617188 -3.476562 0.515625 -3.6875 C 0.421875 -3.894531 0.375 -4.144531 0.375 -4.4375 C 0.375 -4.894531 0.519531 -5.265625 0.8125 -5.546875 C 1.113281 -5.828125 1.503906 -5.96875 1.984375 -5.96875 C 2.234375 -5.96875 2.46875 -5.9375 2.6875 -5.875 C 2.90625 -5.8125 3.113281 -5.71875 3.3125 -5.59375 L 3 -4.9375 C 2.851562 -5.039062 2.691406 -5.117188 2.515625 -5.171875 C 2.347656 -5.234375 2.175781 -5.265625 2 -5.265625 C 1.738281 -5.265625 1.53125 -5.191406 1.375 -5.046875 C 1.226562 -4.898438 1.15625 -4.707031 1.15625 -4.46875 C 1.15625 -4.300781 1.1875 -4.15625 1.25 -4.03125 C 1.3125 -3.914062 1.410156 -3.800781 1.546875 -3.6875 C 1.679688 -3.582031 1.863281 -3.460938 2.09375 -3.328125 C 2.34375 -3.171875 2.554688 -3.015625 2.734375 -2.859375 C 2.921875 -2.703125 3.066406 -2.519531 3.171875 -2.3125 C 3.273438 -2.101562 3.328125 -1.847656 3.328125 -1.546875 Z M 3.328125 -1.546875 "/></g></g><g style="fill:#2d6d5e;fill-opacity:1;"><g transform="translate(102.295636, 130.213681)"><path style="stroke:none" d="M 2.28125 -5.96875 C 2.820312 -5.96875 3.207031 -5.796875 3.4375 -5.453125 C 3.675781 -5.109375 3.796875 -4.609375 3.796875 -3.953125 L 3.796875 0 L 3.171875 0 L 3.046875 -0.828125 L 3.015625 -0.828125 C 2.929688 -0.628906 2.820312 -0.457031 2.6875 -0.3125 C 2.5625 -0.175781 2.414062 -0.0703125 2.25 0 C 2.09375 0.0703125 1.90625 0.109375 1.6875 0.109375 C 1.382812 0.109375 1.132812 0.03125 0.9375 -0.125 C 0.75 -0.289062 0.609375 -0.503906 0.515625 -0.765625 C 0.421875 -1.023438 0.375 -1.304688 0.375 -1.609375 C 0.375 -2.191406 0.539062 -2.640625 0.875 -2.953125 C 1.21875 -3.273438 1.695312 -3.453125 2.3125 -3.484375 L 2.96875 -3.53125 L 2.96875 -3.9375 C 2.96875 -4.40625 2.90625 -4.742188 2.78125 -4.953125 C 2.65625 -5.171875 2.445312 -5.28125 2.15625 -5.28125 C 2 -5.28125 1.828125 -5.25 1.640625 -5.1875 C 1.460938 -5.132812 1.269531 -5.046875 1.0625 -4.921875 L 0.796875 -5.546875 C 1.015625 -5.691406 1.25 -5.796875 1.5 -5.859375 C 1.757812 -5.929688 2.019531 -5.96875 2.28125 -5.96875 Z M 2.984375 -2.921875 L 2.4375 -2.890625 C 2.03125 -2.867188 1.722656 -2.753906 1.515625 -2.546875 C 1.316406 -2.335938 1.21875 -2.035156 1.21875 -1.640625 C 1.21875 -1.265625 1.28125 -0.988281 1.40625 -0.8125 C 1.539062 -0.644531 1.722656 -0.5625 1.953125 -0.5625 C 2.285156 -0.5625 2.539062 -0.71875 2.71875 -1.03125 C 2.894531 -1.34375 2.984375 -1.773438 2.984375 -2.328125 Z M 2.984375 -2.921875 "/></g></g><g style="fill:#2d6d5e;fill-opacity:1;"><g transform="translate(108.321476, 130.213681)"><path style="stroke:none" d="M 1.53125 0 L 0.71875 0 L 0.71875 -8.3125 L 1.53125 -8.3125 Z M 1.53125 0 "/></g></g><g style="fill:#2d6d5e;fill-opacity:1;"><g transform="translate(43.246086, 142.904653)"><path style="stroke:none" d="M 2.28125 -5.96875 C 2.820312 -5.96875 3.207031 -5.796875 3.4375 -5.453125 C 3.675781 -5.109375 3.796875 -4.609375 3.796875 -3.953125 L 3.796875 0 L 3.171875 0 L 3.046875 -0.828125 L 3.015625 -0.828125 C 2.929688 -0.628906 2.820312 -0.457031 2.6875 -0.3125 C 2.5625 -0.175781 2.414062 -0.0703125 2.25 0 C 2.09375 0.0703125 1.90625 0.109375 1.6875 0.109375 C 1.382812 0.109375 1.132812 0.03125 0.9375 -0.125 C 0.75 -0.289062 0.609375 -0.503906 0.515625 -0.765625 C 0.421875 -1.023438 0.375 -1.304688 0.375 -1.609375 C 0.375 -2.191406 0.539062 -2.640625 0.875 -2.953125 C 1.21875 -3.273438 1.695312 -3.453125 2.3125 -3.484375 L 2.96875 -3.53125 L 2.96875 -3.9375 C 2.96875 -4.40625 2.90625 -4.742188 2.78125 -4.953125 C 2.65625 -5.171875 2.445312 -5.28125 2.15625 -5.28125 C 2 -5.28125 1.828125 -5.25 1.640625 -5.1875 C 1.460938 -5.132812 1.269531 -5.046875 1.0625 -4.921875 L 0.796875 -5.546875 C 1.015625 -5.691406 1.25 -5.796875 1.5 -5.859375 C 1.757812 -5.929688 2.019531 -5.96875 2.28125 -5.96875 Z M 2.984375 -2.921875 L 2.4375 -2.890625 C 2.03125 -2.867188 1.722656 -2.753906 1.515625 -2.546875 C 1.316406 -2.335938 1.21875 -2.035156 1.21875 -1.640625 C 1.21875 -1.265625 1.28125 -0.988281 1.40625 -0.8125 C 1.539062 -0.644531 1.722656 -0.5625 1.953125 -0.5625 C 2.285156 -0.5625 2.539062 -0.71875 2.71875 -1.03125 C 2.894531 -1.34375 2.984375 -1.773438 2.984375 -2.328125 Z M 2.984375 -2.921875 "/></g></g><g style="fill:#2d6d5e;fill-opacity:1;"><g transform="translate(49.271926, 142.904653)"><path style="stroke:none" d="M 1.53125 0 L 0.71875 0 L 0.71875 -8.3125 L 1.53125 -8.3125 Z M 1.53125 0 "/></g></g><g style="fill:#2d6d5e;fill-opacity:1;"><g transform="translate(53.048603, 142.904653)"><path style="stroke:none" d="M 2.09375 -0.625 C 2.1875 -0.625 2.273438 -0.628906 2.359375 -0.640625 C 2.453125 -0.660156 2.535156 -0.691406 2.609375 -0.734375 L 2.609375 -0.0625 C 2.503906 -0.0078125 2.382812 0.03125 2.25 0.0625 C 2.125 0.09375 1.984375 0.109375 1.828125 0.109375 C 1.578125 0.109375 1.367188 0.0507812 1.203125 -0.0625 C 1.046875 -0.175781 0.925781 -0.34375 0.84375 -0.5625 C 0.769531 -0.789062 0.734375 -1.078125 0.734375 -1.421875 L 0.734375 -5.171875 L 0.1875 -5.171875 L 0.1875 -5.625 L 0.78125 -5.84375 L 1 -7.1875 L 1.5625 -7.1875 L 1.5625 -5.859375 L 2.546875 -5.859375 L 2.546875 -5.171875 L 1.5625 -5.171875 L 1.5625 -1.515625 C 1.5625 -1.210938 1.597656 -0.988281 1.671875 -0.84375 C 1.742188 -0.695312 1.882812 -0.625 2.09375 -0.625 Z M 2.09375 -0.625 "/></g></g><g style="fill:#2d6d5e;fill-opacity:1;"><g transform="translate(57.35418, 142.904653)"><path style="stroke:none" d="M 2.328125 -5.953125 C 2.722656 -5.953125 3.050781 -5.835938 3.3125 -5.609375 C 3.570312 -5.378906 3.765625 -5.066406 3.890625 -4.671875 C 4.015625 -4.285156 4.078125 -3.851562 4.078125 -3.375 L 4.078125 -2.78125 L 1.28125 -2.78125 C 1.289062 -2.050781 1.40625 -1.503906 1.625 -1.140625 C 1.84375 -0.773438 2.171875 -0.59375 2.609375 -0.59375 C 2.828125 -0.59375 3.035156 -0.625 3.234375 -0.6875 C 3.441406 -0.75 3.648438 -0.851562 3.859375 -1 L 3.859375 -0.265625 C 3.660156 -0.140625 3.453125 -0.046875 3.234375 0.015625 C 3.015625 0.078125 2.78125 0.109375 2.53125 0.109375 C 2.039062 0.109375 1.644531 -0.0195312 1.34375 -0.28125 C 1.039062 -0.539062 0.816406 -0.898438 0.671875 -1.359375 C 0.535156 -1.816406 0.46875 -2.332031 0.46875 -2.90625 C 0.46875 -3.550781 0.535156 -4.101562 0.671875 -4.5625 C 0.816406 -5.019531 1.023438 -5.363281 1.296875 -5.59375 C 1.578125 -5.832031 1.921875 -5.953125 2.328125 -5.953125 Z M 2.328125 -5.28125 C 2.015625 -5.28125 1.769531 -5.128906 1.59375 -4.828125 C 1.425781 -4.535156 1.328125 -4.070312 1.296875 -3.4375 L 3.3125 -3.4375 C 3.3125 -3.769531 3.273438 -4.078125 3.203125 -4.359375 C 3.140625 -4.640625 3.035156 -4.863281 2.890625 -5.03125 C 2.742188 -5.195312 2.554688 -5.28125 2.328125 -5.28125 Z M 2.328125 -5.28125 "/></g></g><g style="fill:#2d6d5e;fill-opacity:1;"><g transform="translate(63.412074, 142.904653)"><path style="stroke:none" d="M 2.671875 -5.96875 C 2.753906 -5.96875 2.835938 -5.957031 2.921875 -5.9375 C 3.003906 -5.925781 3.085938 -5.910156 3.171875 -5.890625 L 3.046875 -5.046875 C 2.984375 -5.066406 2.914062 -5.082031 2.84375 -5.09375 C 2.769531 -5.101562 2.691406 -5.109375 2.609375 -5.109375 C 2.453125 -5.109375 2.304688 -5.054688 2.171875 -4.953125 C 2.035156 -4.847656 1.921875 -4.703125 1.828125 -4.515625 C 1.734375 -4.328125 1.660156 -4.109375 1.609375 -3.859375 C 1.554688 -3.609375 1.53125 -3.34375 1.53125 -3.0625 L 1.53125 0 L 0.71875 0 L 0.71875 -5.859375 L 1.359375 -5.859375 L 1.46875 -4.828125 L 1.515625 -4.828125 C 1.597656 -5.046875 1.691406 -5.238281 1.796875 -5.40625 C 1.910156 -5.582031 2.039062 -5.71875 2.1875 -5.8125 C 2.332031 -5.914062 2.492188 -5.96875 2.671875 -5.96875 Z M 2.671875 -5.96875 "/></g></g><g style="fill:#2d6d5e;fill-opacity:1;"><g transform="translate(68.225182, 142.904653)"><path style="stroke:none" d="M 2.828125 -5.96875 C 3.285156 -5.96875 3.632812 -5.804688 3.875 -5.484375 C 4.113281 -5.160156 4.234375 -4.664062 4.234375 -4 L 4.234375 0 L 3.40625 0 L 3.40625 -3.828125 C 3.40625 -4.304688 3.34375 -4.660156 3.21875 -4.890625 C 3.101562 -5.128906 2.914062 -5.25 2.65625 -5.25 C 2.269531 -5.25 1.984375 -5.078125 1.796875 -4.734375 C 1.617188 -4.390625 1.53125 -3.84375 1.53125 -3.09375 L 1.53125 0 L 0.71875 0 L 0.71875 -5.859375 L 1.375 -5.859375 L 1.46875 -5.015625 L 1.515625 -5.015625 C 1.597656 -5.210938 1.703125 -5.378906 1.828125 -5.515625 C 1.960938 -5.660156 2.113281 -5.769531 2.28125 -5.84375 C 2.445312 -5.925781 2.628906 -5.96875 2.828125 -5.96875 Z M 2.828125 -5.96875 "/></g></g><g style="fill:#2d6d5e;fill-opacity:1;"><g transform="translate(74.689101, 142.904653)"><path style="stroke:none" d="M 2.28125 -5.96875 C 2.820312 -5.96875 3.207031 -5.796875 3.4375 -5.453125 C 3.675781 -5.109375 3.796875 -4.609375 3.796875 -3.953125 L 3.796875 0 L 3.171875 0 L 3.046875 -0.828125 L 3.015625 -0.828125 C 2.929688 -0.628906 2.820312 -0.457031 2.6875 -0.3125 C 2.5625 -0.175781 2.414062 -0.0703125 2.25 0 C 2.09375 0.0703125 1.90625 0.109375 1.6875 0.109375 C 1.382812 0.109375 1.132812 0.03125 0.9375 -0.125 C 0.75 -0.289062 0.609375 -0.503906 0.515625 -0.765625 C 0.421875 -1.023438 0.375 -1.304688 0.375 -1.609375 C 0.375 -2.191406 0.539062 -2.640625 0.875 -2.953125 C 1.21875 -3.273438 1.695312 -3.453125 2.3125 -3.484375 L 2.96875 -3.53125 L 2.96875 -3.9375 C 2.96875 -4.40625 2.90625 -4.742188 2.78125 -4.953125 C 2.65625 -5.171875 2.445312 -5.28125 2.15625 -5.28125 C 2 -5.28125 1.828125 -5.25 1.640625 -5.1875 C 1.460938 -5.132812 1.269531 -5.046875 1.0625 -4.921875 L 0.796875 -5.546875 C 1.015625 -5.691406 1.25 -5.796875 1.5 -5.859375 C 1.757812 -5.929688 2.019531 -5.96875 2.28125 -5.96875 Z M 2.984375 -2.921875 L 2.4375 -2.890625 C 2.03125 -2.867188 1.722656 -2.753906 1.515625 -2.546875 C 1.316406 -2.335938 1.21875 -2.035156 1.21875 -1.640625 C 1.21875 -1.265625 1.28125 -0.988281 1.40625 -0.8125 C 1.539062 -0.644531 1.722656 -0.5625 1.953125 -0.5625 C 2.285156 -0.5625 2.539062 -0.71875 2.71875 -1.03125 C 2.894531 -1.34375 2.984375 -1.773438 2.984375 -2.328125 Z M 2.984375 -2.921875 "/></g></g><g style="fill:#2d6d5e;fill-opacity:1;"><g transform="translate(80.714941, 142.904653)"><path style="stroke:none" d="M 2.171875 0.109375 C 1.609375 0.109375 1.179688 -0.144531 0.890625 -0.65625 C 0.609375 -1.175781 0.46875 -1.929688 0.46875 -2.921875 C 0.46875 -3.898438 0.613281 -4.648438 0.90625 -5.171875 C 1.195312 -5.703125 1.609375 -5.96875 2.140625 -5.96875 C 2.335938 -5.96875 2.519531 -5.929688 2.6875 -5.859375 C 2.851562 -5.785156 3 -5.679688 3.125 -5.546875 C 3.257812 -5.410156 3.375 -5.25 3.46875 -5.0625 L 3.515625 -5.0625 C 3.503906 -5.226562 3.492188 -5.375 3.484375 -5.5 C 3.484375 -5.632812 3.484375 -5.757812 3.484375 -5.875 L 3.484375 -8.3125 L 4.296875 -8.3125 L 4.296875 0 L 3.640625 0 L 3.53125 -0.796875 L 3.484375 -0.796875 C 3.378906 -0.609375 3.265625 -0.445312 3.140625 -0.3125 C 3.015625 -0.175781 2.875 -0.0703125 2.71875 0 C 2.5625 0.0703125 2.378906 0.109375 2.171875 0.109375 Z M 2.359375 -0.59375 C 2.722656 -0.59375 3 -0.765625 3.1875 -1.109375 C 3.382812 -1.453125 3.484375 -1.960938 3.484375 -2.640625 L 3.484375 -3.046875 C 3.484375 -3.785156 3.390625 -4.332031 3.203125 -4.6875 C 3.023438 -5.050781 2.738281 -5.234375 2.34375 -5.234375 C 1.988281 -5.234375 1.722656 -5.035156 1.546875 -4.640625 C 1.378906 -4.242188 1.296875 -3.671875 1.296875 -2.921875 C 1.296875 -2.148438 1.378906 -1.566406 1.546875 -1.171875 C 1.722656 -0.785156 1.992188 -0.59375 2.359375 -0.59375 Z M 2.359375 -0.59375 "/></g></g><g style="fill:#2d6d5e;fill-opacity:1;"><g transform="translate(87.253654, 142.904653)"><path style="stroke:none" d="M 2.28125 -5.96875 C 2.820312 -5.96875 3.207031 -5.796875 3.4375 -5.453125 C 3.675781 -5.109375 3.796875 -4.609375 3.796875 -3.953125 L 3.796875 0 L 3.171875 0 L 3.046875 -0.828125 L 3.015625 -0.828125 C 2.929688 -0.628906 2.820312 -0.457031 2.6875 -0.3125 C 2.5625 -0.175781 2.414062 -0.0703125 2.25 0 C 2.09375 0.0703125 1.90625 0.109375 1.6875 0.109375 C 1.382812 0.109375 1.132812 0.03125 0.9375 -0.125 C 0.75 -0.289062 0.609375 -0.503906 0.515625 -0.765625 C 0.421875 -1.023438 0.375 -1.304688 0.375 -1.609375 C 0.375 -2.191406 0.539062 -2.640625 0.875 -2.953125 C 1.21875 -3.273438 1.695312 -3.453125 2.3125 -3.484375 L 2.96875 -3.53125 L 2.96875 -3.9375 C 2.96875 -4.40625 2.90625 -4.742188 2.78125 -4.953125 C 2.65625 -5.171875 2.445312 -5.28125 2.15625 -5.28125 C 2 -5.28125 1.828125 -5.25 1.640625 -5.1875 C 1.460938 -5.132812 1.269531 -5.046875 1.0625 -4.921875 L 0.796875 -5.546875 C 1.015625 -5.691406 1.25 -5.796875 1.5 -5.859375 C 1.757812 -5.929688 2.019531 -5.96875 2.28125 -5.96875 Z M 2.984375 -2.921875 L 2.4375 -2.890625 C 2.03125 -2.867188 1.722656 -2.753906 1.515625 -2.546875 C 1.316406 -2.335938 1.21875 -2.035156 1.21875 -1.640625 C 1.21875 -1.265625 1.28125 -0.988281 1.40625 -0.8125 C 1.539062 -0.644531 1.722656 -0.5625 1.953125 -0.5625 C 2.285156 -0.5625 2.539062 -0.71875 2.71875 -1.03125 C 2.894531 -1.34375 2.984375 -1.773438 2.984375 -2.328125 Z M 2.984375 -2.921875 "/></g></g></g></svg>