<svg xmlns="http://www.w3.org/2000/svg" xmlns:xlink="http://www.w3.org/1999/xlink" width="180" zoomAndPan="magnify" viewBox="0 0 135 119.999999" height="160" preserveAspectRatio="xMidYMid meet" version="1.0"><defs><clipPath id="a24772b6ea"><path d="M 29.4375 3.589844 L 118.757812 3.589844 L 118.757812 116.089844 L 29.4375 116.089844 Z M 29.4375 3.589844 " clip-rule="nonzero"/></clipPath><clipPath id="e756a9bbf6"><path d="M 17 3.589844 L 69 3.589844 L 69 55 L 17 55 Z M 17 3.589844 " clip-rule="nonzero"/></clipPath></defs><rect x="-13.5" width="162" fill="#ffffff" y="-12" height="143.999998" fill-opacity="1"/><rect x="-13.5" width="162" fill="#ffffff" y="-12" height="143.999998" fill-opacity="1"/><g clip-path="url(#a24772b6ea)"><path fill="#0661aa" d="M 109.875 60.632812 C 103.003906 47.382812 94.453125 30.894531 93.957031 5.894531 C 93.929688 4.613281 92.882812 3.589844 91.605469 3.589844 C 91.589844 3.589844 91.574219 3.589844 91.558594 3.589844 C 90.261719 3.617188 89.230469 4.691406 89.257812 5.988281 C 89.773438 32.085938 98.605469 49.113281 105.699219 62.796875 C 110.367188 71.796875 114.054688 78.902344 114.054688 85.964844 C 114.054688 89.953125 111.535156 94.113281 107.144531 97.375 C 103.320312 100.21875 98.433594 102.078125 94.109375 102.375 C 95.632812 99.207031 98.152344 96.582031 101.277344 94.933594 C 102.425781 94.328125 102.863281 92.90625 102.257812 91.757812 C 101.652344 90.609375 100.230469 90.167969 99.082031 90.773438 C 94.847656 93.011719 91.480469 96.636719 89.5625 101.007812 C 89.488281 101.125 89.429688 101.246094 89.375 101.375 C 89.074219 102.128906 88.71875 102.851562 88.320312 103.542969 C 88.292969 103.585938 88.265625 103.628906 88.242188 103.675781 C 85.308594 108.625 79.996094 111.707031 74.097656 111.707031 C 68.203125 111.707031 62.894531 108.625 59.960938 103.679688 C 59.933594 103.628906 59.902344 103.578125 59.871094 103.527344 C 59.476562 102.84375 59.121094 102.125 58.820312 101.375 C 58.769531 101.246094 58.707031 101.125 58.636719 101.007812 C 56.71875 96.636719 53.351562 93.011719 49.113281 90.773438 C 47.964844 90.167969 46.542969 90.609375 45.9375 91.757812 C 45.332031 92.90625 45.773438 94.328125 46.921875 94.933594 C 50.046875 96.582031 52.566406 99.207031 54.089844 102.375 C 49.765625 102.078125 44.878906 100.21875 41.054688 97.375 C 36.660156 94.113281 34.144531 89.953125 34.144531 85.964844 C 34.144531 78.902344 37.828125 71.796875 42.496094 62.796875 C 42.757812 62.296875 43.019531 61.789062 43.28125 61.28125 C 43.878906 60.128906 43.429688 58.710938 42.273438 58.113281 C 41.121094 57.515625 39.703125 57.96875 39.109375 59.121094 C 38.84375 59.628906 38.582031 60.132812 38.324219 60.632812 C 33.558594 69.820312 29.441406 77.757812 29.441406 85.964844 C 29.441406 88.894531 30.304688 91.773438 32.007812 94.523438 C 33.515625 96.964844 35.617188 99.191406 38.25 101.148438 C 43.277344 104.886719 49.652344 107.117188 55.296875 107.117188 L 56.582031 107.117188 C 58.054688 109.289062 59.917969 111.175781 62.109375 112.683594 C 65.644531 115.121094 69.792969 116.410156 74.097656 116.410156 C 78.40625 116.410156 82.554688 115.121094 86.089844 112.683594 C 88.28125 111.175781 90.144531 109.289062 91.613281 107.117188 L 92.902344 107.117188 C 98.546875 107.117188 104.917969 104.886719 109.949219 101.148438 C 112.582031 99.191406 114.679688 96.964844 116.191406 94.523438 C 117.894531 91.773438 118.753906 88.894531 118.753906 85.964844 C 118.753906 77.757812 114.640625 69.820312 109.875 60.632812 " fill-opacity="1" fill-rule="nonzero"/></g><g clip-path="url(#e756a9bbf6)"><path fill="#0661aa" d="M 22.980469 48.839844 C 21.402344 47.261719 21.402344 44.691406 22.980469 43.109375 L 35.269531 30.824219 C 35.710938 30.382812 35.960938 29.785156 35.960938 29.160156 C 35.960938 28.539062 35.710938 27.9375 35.269531 27.5 L 22.980469 15.210938 C 21.402344 13.628906 21.402344 11.058594 22.980469 9.480469 C 23.746094 8.714844 24.765625 8.292969 25.847656 8.292969 C 26.929688 8.292969 27.949219 8.714844 28.710938 9.480469 L 41 21.769531 C 41.917969 22.6875 43.40625 22.6875 44.324219 21.769531 L 56.613281 9.480469 C 57.378906 8.714844 58.398438 8.292969 59.480469 8.292969 C 60.5625 8.292969 61.578125 8.714844 62.34375 9.480469 C 63.109375 10.246094 63.53125 11.261719 63.53125 12.34375 C 63.53125 13.425781 63.109375 14.445312 62.34375 15.210938 L 50.054688 27.5 C 49.136719 28.417969 49.136719 29.90625 50.054688 30.824219 L 62.34375 43.109375 C 63.109375 43.875 63.53125 44.894531 63.53125 45.976562 C 63.53125 47.058594 63.109375 48.074219 62.34375 48.839844 C 60.765625 50.421875 58.195312 50.421875 56.613281 48.839844 L 44.324219 36.550781 C 43.40625 35.632812 41.917969 35.632812 41 36.550781 L 28.710938 48.839844 C 27.132812 50.421875 24.5625 50.421875 22.980469 48.839844 Z M 42.664062 41.539062 L 53.289062 52.164062 C 54.996094 53.871094 57.238281 54.726562 59.480469 54.726562 C 61.71875 54.726562 63.960938 53.871094 65.667969 52.164062 C 67.320312 50.511719 68.230469 48.3125 68.230469 45.976562 C 68.230469 43.636719 67.320312 41.441406 65.667969 39.789062 L 55.042969 29.160156 L 65.667969 18.535156 C 67.320312 16.878906 68.230469 14.683594 68.230469 12.34375 C 68.230469 10.007812 67.320312 7.808594 65.667969 6.15625 C 64.015625 4.503906 61.816406 3.59375 59.480469 3.59375 C 57.140625 3.59375 54.941406 4.503906 53.289062 6.15625 L 42.664062 16.78125 L 32.035156 6.15625 C 30.382812 4.503906 28.1875 3.59375 25.847656 3.59375 C 23.507812 3.59375 21.3125 4.503906 19.660156 6.15625 C 16.246094 9.566406 16.246094 15.121094 19.660156 18.535156 L 30.285156 29.160156 L 19.660156 39.789062 C 16.246094 43.199219 16.246094 48.753906 19.660156 52.164062 C 23.070312 55.578125 28.625 55.578125 32.035156 52.164062 L 42.664062 41.539062 " fill-opacity="1" fill-rule="nonzero"/></g></svg>