<svg xmlns="http://www.w3.org/2000/svg" xmlns:xlink="http://www.w3.org/1999/xlink" width="180" zoomAndPan="magnify" viewBox="0 0 135 119.999999" height="160" preserveAspectRatio="xMidYMid meet" version="1.0"><defs><clipPath id="93a8094f89"><path d="M 9 3.324219 L 126.289062 3.324219 L 126.289062 113 L 9 113 Z M 9 3.324219 " clip-rule="nonzero"/></clipPath></defs><rect x="-13.5" width="162" fill="#ffffff" y="-12" height="143.999998" fill-opacity="1"/><rect x="-13.5" width="162" fill="#ffffff" y="-12" height="143.999998" fill-opacity="1"/><g clip-path="url(#93a8094f89)"><path fill="#0661aa" d="M 123.894531 46.933594 C 123.441406 47.113281 113.425781 50.757812 102.320312 59.3125 C 95.21875 64.777344 90.304688 76.613281 86.753906 85.167969 C 85.296875 88.628906 84.113281 91.632812 83.109375 93.089844 C 82.835938 93.546875 82.472656 94.089844 82.199219 94.730469 C 80.472656 97.914062 79.015625 100.007812 75.644531 99.191406 C 74.097656 96.277344 72.460938 94.089844 70.820312 92.453125 C 70.910156 91.816406 71.003906 91.179688 71.183594 90.449219 C 72.1875 86.445312 75.738281 74.792969 76.011719 73.878906 C 77.191406 70.785156 77.101562 67.871094 75.738281 65.050781 C 72.914062 59.222656 65.449219 56.035156 63.171875 55.21875 L 64.8125 52.941406 C 65.359375 52.121094 65.175781 51.03125 64.449219 50.390625 C 63.628906 49.847656 62.535156 50.027344 61.898438 50.757812 L 52.976562 63.046875 C 51.792969 64.6875 51.15625 66.597656 51.246094 68.601562 L 51.792969 87.355469 C 51.792969 87.445312 51.792969 87.535156 51.792969 87.628906 C 53.523438 96.457031 50.429688 97.550781 48.878906 98.007812 C 47.332031 98.550781 45.421875 97.460938 44.144531 95.367188 C 43.507812 94.363281 43.144531 93.089844 43.054688 91.722656 L 41.960938 79.890625 C 41.960938 79.796875 41.960938 79.617188 41.960938 79.523438 L 41.140625 70.511719 C 41.050781 69.148438 41.234375 67.691406 41.6875 66.324219 L 49.515625 46.296875 C 52.613281 40.652344 56.710938 36.464844 56.710938 36.371094 C 57.4375 35.644531 57.347656 34.460938 56.617188 33.824219 C 55.890625 33.09375 54.707031 33.1875 54.070312 33.914062 C 53.886719 34.097656 49.609375 38.558594 46.238281 44.65625 C 46.238281 44.75 46.148438 44.839844 46.148438 44.839844 L 38.320312 65.050781 C 37.589844 66.871094 37.316406 68.875 37.5 70.875 L 38.320312 79.433594 L 31.308594 89.8125 C 30.125 91.542969 27.757812 92.179688 26.121094 91.085938 C 25.210938 90.449219 24.664062 89.539062 24.480469 88.355469 C 24.390625 87.71875 24.480469 86.992188 24.753906 86.351562 L 32.585938 68.328125 L 44.054688 38.464844 C 46.96875 29.910156 59.804688 26.8125 59.988281 26.8125 C 60.078125 26.8125 60.167969 26.8125 60.167969 26.722656 C 80.835938 19.257812 112.152344 7.878906 114.703125 7.238281 C 115.339844 7.148438 115.976562 6.695312 116.25 5.964844 C 116.523438 5.054688 116.066406 3.960938 115.066406 3.691406 C 114.246094 3.417969 114.0625 3.324219 86.207031 13.429688 C 73.1875 18.164062 60.261719 22.808594 58.984375 23.261719 C 58.167969 23.445312 53.886719 24.628906 49.515625 27.269531 C 48.242188 27.996094 41.140625 32.003906 34.40625 36.644531 C 20.292969 46.386719 19.382812 50.574219 20.292969 53.214844 C 20.65625 54.398438 21.570312 56.035156 23.390625 57.039062 C 18.65625 61.5 14.375 65.597656 12.828125 66.960938 C 8.550781 70.785156 9.734375 75.519531 10.917969 77.523438 C 10.917969 77.613281 11.007812 77.613281 11.007812 77.613281 C 12.828125 79.980469 14.921875 80.617188 16.289062 80.707031 C 16.46875 80.707031 16.5625 80.707031 16.742188 80.707031 C 20.203125 80.707031 22.933594 78.070312 23.207031 77.796875 L 25.390625 75.703125 L 21.296875 84.988281 C 20.75 86.351562 20.476562 87.71875 20.75 89.085938 C 21.113281 91.359375 22.207031 93.179688 24.027344 94.273438 C 25.210938 95.09375 26.574219 95.457031 27.941406 95.457031 C 30.398438 95.457031 32.765625 94.273438 34.222656 91.996094 L 38.773438 85.261719 L 39.410156 92.269531 C 39.59375 94.273438 40.140625 96.003906 41.050781 97.460938 C 42.050781 99.191406 43.507812 100.464844 44.964844 101.191406 C 37.226562 112.117188 23.664062 107.472656 23.023438 107.199219 C 22.113281 106.835938 21.023438 107.382812 20.65625 108.292969 C 20.292969 109.203125 20.839844 110.296875 21.75 110.660156 C 21.933594 110.75 38.957031 116.667969 48.242188 102.832031 C 48.425781 102.558594 48.605469 102.195312 48.789062 101.921875 C 49.152344 101.828125 49.609375 101.828125 49.972656 101.648438 C 54.070312 100.28125 55.980469 97.1875 55.890625 91.996094 C 57.074219 91.359375 58.347656 90.996094 59.988281 90.996094 C 59.988281 90.996094 60.078125 90.996094 60.078125 90.996094 C 60.167969 90.996094 60.261719 90.996094 60.441406 90.996094 C 60.714844 90.996094 66.722656 90.175781 72.730469 101.554688 C 77.558594 110.75 87.480469 112.84375 95.675781 112.84375 C 102.410156 112.84375 108.054688 111.390625 108.511719 111.296875 C 109.511719 111.023438 110.058594 110.023438 109.785156 109.113281 C 109.511719 108.113281 108.511719 107.566406 107.507812 107.839844 C 107.328125 107.929688 87.117188 113.117188 78.011719 103.011719 C 81.925781 102.46875 83.929688 98.917969 85.203125 96.550781 C 85.476562 96.003906 85.75 95.546875 86.023438 95.183594 C 87.117188 93.453125 88.390625 90.449219 89.9375 86.71875 C 93.308594 78.523438 98.042969 67.234375 104.324219 62.320312 C 114.972656 54.125 124.808594 50.484375 124.988281 50.484375 C 125.898438 50.121094 126.445312 49.117188 126.082031 48.117188 C 125.898438 47.113281 124.898438 46.660156 123.894531 46.933594 Z M 23.753906 52.121094 C 23.753906 52.121094 23.753906 52.03125 23.753906 52.03125 C 23.753906 51.941406 22.933594 49.027344 36.5 39.648438 C 37.957031 38.648438 39.410156 37.648438 40.867188 36.738281 C 40.777344 36.917969 40.777344 37.101562 40.6875 37.28125 L 38.867188 42.015625 C 37.589844 43.199219 32.128906 48.570312 26.484375 54.035156 C 24.480469 54.035156 23.84375 52.578125 23.753906 52.121094 Z M 20.65625 75.15625 C 20.113281 75.703125 18.289062 77.066406 16.5625 76.976562 C 15.652344 76.886719 14.742188 76.429688 14.011719 75.335938 C 13.738281 74.882812 12.375 72.152344 15.285156 69.511719 C 18.019531 67.234375 28.761719 56.765625 35.679688 50.027344 L 29.308594 66.597656 Z M 60.078125 87.445312 C 58.347656 87.445312 56.890625 87.71875 55.617188 88.265625 C 55.527344 87.992188 55.527344 87.628906 55.433594 87.355469 L 54.890625 68.691406 C 54.890625 67.507812 55.253906 66.324219 55.890625 65.324219 L 60.988281 58.3125 C 61.078125 58.402344 61.261719 58.496094 61.445312 58.496094 C 63.8125 59.222656 70.367188 62.226562 72.460938 66.6875 C 73.371094 68.601562 73.371094 70.511719 72.550781 72.695312 C 72.550781 72.695312 72.550781 72.789062 72.550781 72.789062 C 72.367188 73.335938 68.726562 85.351562 67.726562 89.628906 C 67.726562 89.722656 67.726562 89.722656 67.726562 89.8125 C 63.992188 87.171875 60.988281 87.261719 60.078125 87.445312 Z M 60.078125 87.445312 " fill-opacity="1" fill-rule="nonzero"/></g></svg>