<svg xmlns="http://www.w3.org/2000/svg" xmlns:xlink="http://www.w3.org/1999/xlink" width="180" zoomAndPan="magnify" viewBox="0 0 135 161.249994" height="215" preserveAspectRatio="xMidYMid meet" version="1.0"><defs><g/><clipPath id="9c150040e1"><path d="M 29.132812 31.046875 L 106 31.046875 L 106 75.835938 L 29.132812 75.835938 Z M 29.132812 31.046875 " clip-rule="nonzero"/></clipPath></defs><g fill="#0661aa" fill-opacity="1"><g transform="translate(13.009942, 102.015667)"><g><path d="M 8.546875 0.265625 C 7.984375 0.265625 7.523438 0.109375 7.171875 -0.203125 C 6.816406 -0.523438 6.578125 -0.945312 6.453125 -1.46875 L 5.984375 -3.25 C 5.910156 -3.550781 5.769531 -3.800781 5.5625 -4 C 5.351562 -4.207031 5.109375 -4.3125 4.828125 -4.3125 L 3.515625 -4.3125 L 3.515625 0 L 0.796875 0 L 0.796875 -11.34375 L 5.71875 -11.34375 C 7.039062 -11.34375 8.082031 -11.023438 8.84375 -10.390625 C 9.613281 -9.765625 10 -8.898438 10 -7.796875 C 10 -7.078125 9.785156 -6.445312 9.359375 -5.90625 C 8.929688 -5.363281 8.34375 -5 7.59375 -4.8125 L 7.59375 -4.796875 C 7.90625 -4.660156 8.132812 -4.476562 8.28125 -4.25 C 8.4375 -4.019531 8.550781 -3.742188 8.625 -3.421875 L 8.96875 -2.078125 C 9.050781 -1.703125 9.226562 -1.515625 9.5 -1.515625 C 9.738281 -1.515625 9.960938 -1.644531 10.171875 -1.90625 L 10.765625 -0.625 C 10.492188 -0.34375 10.160156 -0.125 9.765625 0.03125 C 9.367188 0.1875 8.960938 0.265625 8.546875 0.265625 Z M 3.515625 -6.15625 L 5.484375 -6.15625 C 6.023438 -6.15625 6.457031 -6.296875 6.78125 -6.578125 C 7.101562 -6.867188 7.265625 -7.253906 7.265625 -7.734375 C 7.265625 -8.234375 7.101562 -8.625 6.78125 -8.90625 C 6.457031 -9.1875 6.023438 -9.328125 5.484375 -9.328125 L 3.515625 -9.328125 Z M 3.515625 -6.15625 "/></g></g></g><g fill="#0661aa" fill-opacity="1"><g transform="translate(25.381826, 102.015667)"><g><path d="M 4.765625 0.265625 C 3.878906 0.265625 3.101562 0.0859375 2.4375 -0.265625 C 1.769531 -0.628906 1.25 -1.140625 0.875 -1.796875 C 0.507812 -2.460938 0.328125 -3.238281 0.328125 -4.125 C 0.328125 -4.988281 0.492188 -5.742188 0.828125 -6.390625 C 1.171875 -7.035156 1.644531 -7.535156 2.25 -7.890625 C 2.851562 -8.253906 3.5625 -8.4375 4.375 -8.4375 C 5.164062 -8.4375 5.847656 -8.265625 6.421875 -7.921875 C 6.992188 -7.578125 7.441406 -7.09375 7.765625 -6.46875 C 8.085938 -5.851562 8.25 -5.125 8.25 -4.28125 C 8.25 -4.113281 8.238281 -3.953125 8.21875 -3.796875 C 8.207031 -3.640625 8.1875 -3.507812 8.15625 -3.40625 L 2.765625 -3.40625 C 2.816406 -2.8125 3.023438 -2.34375 3.390625 -2 C 3.753906 -1.65625 4.21875 -1.484375 4.78125 -1.484375 C 5.207031 -1.484375 5.585938 -1.585938 5.921875 -1.796875 C 6.265625 -2.015625 6.519531 -2.304688 6.6875 -2.671875 L 8.390625 -1.921875 C 8.160156 -1.242188 7.707031 -0.707031 7.03125 -0.3125 C 6.363281 0.0703125 5.609375 0.265625 4.765625 0.265625 Z M 2.765625 -4.796875 L 5.828125 -4.796875 C 5.796875 -5.390625 5.648438 -5.847656 5.390625 -6.171875 C 5.140625 -6.503906 4.796875 -6.671875 4.359375 -6.671875 C 3.898438 -6.671875 3.53125 -6.503906 3.25 -6.171875 C 2.976562 -5.835938 2.816406 -5.378906 2.765625 -4.796875 Z M 2.765625 -4.796875 "/></g></g></g><g fill="#0661aa" fill-opacity="1"><g transform="translate(35.95454, 102.015667)"><g><path d="M 3.953125 0.25 C 3.285156 0.25 2.675781 0.148438 2.125 -0.046875 C 1.582031 -0.253906 1.140625 -0.566406 0.796875 -0.984375 C 0.460938 -1.398438 0.28125 -1.914062 0.25 -2.53125 L 2.40625 -2.796875 C 2.425781 -2.347656 2.585938 -1.992188 2.890625 -1.734375 C 3.191406 -1.484375 3.570312 -1.359375 4.03125 -1.359375 C 4.394531 -1.359375 4.703125 -1.4375 4.953125 -1.59375 C 5.210938 -1.75 5.34375 -1.957031 5.34375 -2.21875 C 5.34375 -2.457031 5.234375 -2.65625 5.015625 -2.8125 C 4.796875 -2.96875 4.4375 -3.101562 3.9375 -3.21875 L 2.859375 -3.484375 C 2.066406 -3.679688 1.492188 -3.960938 1.140625 -4.328125 C 0.785156 -4.703125 0.609375 -5.195312 0.609375 -5.8125 C 0.609375 -6.613281 0.90625 -7.242188 1.5 -7.703125 C 2.101562 -8.171875 2.882812 -8.40625 3.84375 -8.40625 C 4.414062 -8.40625 4.9375 -8.304688 5.40625 -8.109375 C 5.882812 -7.921875 6.273438 -7.644531 6.578125 -7.28125 C 6.878906 -6.914062 7.054688 -6.457031 7.109375 -5.90625 L 5 -5.65625 C 4.976562 -6.03125 4.851562 -6.316406 4.625 -6.515625 C 4.394531 -6.722656 4.101562 -6.828125 3.75 -6.828125 C 3.445312 -6.828125 3.195312 -6.75 3 -6.59375 C 2.800781 -6.445312 2.703125 -6.257812 2.703125 -6.03125 C 2.703125 -5.8125 2.800781 -5.628906 3 -5.484375 C 3.207031 -5.335938 3.535156 -5.203125 3.984375 -5.078125 L 5.078125 -4.8125 C 5.941406 -4.59375 6.570312 -4.289062 6.96875 -3.90625 C 7.375 -3.53125 7.582031 -3.035156 7.59375 -2.421875 C 7.59375 -1.867188 7.4375 -1.390625 7.125 -0.984375 C 6.8125 -0.585938 6.378906 -0.28125 5.828125 -0.0625 C 5.285156 0.144531 4.660156 0.25 3.953125 0.25 Z M 3.953125 0.25 "/></g></g></g><g fill="#0661aa" fill-opacity="1"><g transform="translate(45.683379, 102.015667)"><g><path d="M 0.609375 3.34375 L 0.609375 -8.15625 L 2.671875 -8.15625 L 2.984375 -6.734375 L 3 -6.734375 C 3.226562 -7.265625 3.5625 -7.671875 4 -7.953125 C 4.445312 -8.234375 4.945312 -8.375 5.5 -8.375 C 6.144531 -8.375 6.703125 -8.195312 7.171875 -7.84375 C 7.648438 -7.5 8.019531 -7.003906 8.28125 -6.359375 C 8.550781 -5.710938 8.6875 -4.953125 8.6875 -4.078125 C 8.6875 -3.203125 8.550781 -2.441406 8.28125 -1.796875 C 8.019531 -1.148438 7.648438 -0.648438 7.171875 -0.296875 C 6.703125 0.046875 6.144531 0.21875 5.5 0.21875 C 4.957031 0.21875 4.472656 0.0820312 4.046875 -0.1875 C 3.617188 -0.46875 3.285156 -0.867188 3.046875 -1.390625 L 3.03125 -1.390625 L 3.03125 3.34375 Z M 4.59375 -1.859375 C 5.09375 -1.859375 5.492188 -2.0625 5.796875 -2.46875 C 6.097656 -2.875 6.25 -3.410156 6.25 -4.078125 C 6.25 -4.753906 6.097656 -5.289062 5.796875 -5.6875 C 5.492188 -6.09375 5.09375 -6.296875 4.59375 -6.296875 C 4.101562 -6.296875 3.703125 -6.09375 3.390625 -5.6875 C 3.078125 -5.28125 2.921875 -4.742188 2.921875 -4.078125 C 2.921875 -3.410156 3.078125 -2.875 3.390625 -2.46875 C 3.703125 -2.0625 4.101562 -1.859375 4.59375 -1.859375 Z M 4.59375 -1.859375 "/></g></g></g><g fill="#0661aa" fill-opacity="1"><g transform="translate(56.606382, 102.015667)"><g><path d="M 1.875 -9.265625 C 1.4375 -9.265625 1.085938 -9.390625 0.828125 -9.640625 C 0.578125 -9.898438 0.453125 -10.238281 0.453125 -10.65625 C 0.453125 -11.070312 0.578125 -11.40625 0.828125 -11.65625 C 1.085938 -11.914062 1.4375 -12.046875 1.875 -12.046875 C 2.3125 -12.046875 2.660156 -11.914062 2.921875 -11.65625 C 3.179688 -11.40625 3.3125 -11.070312 3.3125 -10.65625 C 3.3125 -10.238281 3.179688 -9.898438 2.921875 -9.640625 C 2.660156 -9.390625 2.3125 -9.265625 1.875 -9.265625 Z M 0.65625 0 L 0.65625 -8.15625 L 3.09375 -8.15625 L 3.09375 0 Z M 0.65625 0 "/></g></g></g><g fill="#0661aa" fill-opacity="1"><g transform="translate(62.243249, 102.015667)"><g><path d="M 5 -8.375 C 5.664062 -8.375 6.203125 -8.125 6.609375 -7.625 C 7.015625 -7.125 7.238281 -6.421875 7.28125 -5.515625 L 5.21875 -4.953125 C 5.207031 -5.484375 5.113281 -5.882812 4.9375 -6.15625 C 4.757812 -6.425781 4.519531 -6.5625 4.21875 -6.5625 C 3.851562 -6.5625 3.5625 -6.378906 3.34375 -6.015625 C 3.132812 -5.660156 3.03125 -5.160156 3.03125 -4.515625 L 3.03125 0 L 0.609375 0 L 0.609375 -8.15625 L 2.5625 -8.15625 L 2.890625 -6.75 L 2.90625 -6.75 C 3.09375 -7.257812 3.367188 -7.65625 3.734375 -7.9375 C 4.109375 -8.226562 4.53125 -8.375 5 -8.375 Z M 5 -8.375 "/></g></g></g><g fill="#0661aa" fill-opacity="1"><g transform="translate(71.589962, 102.015667)"><g><path d="M 2.8125 0.1875 C 2.039062 0.1875 1.414062 -0.015625 0.9375 -0.421875 C 0.457031 -0.835938 0.21875 -1.398438 0.21875 -2.109375 C 0.21875 -2.847656 0.5 -3.445312 1.0625 -3.90625 C 1.632812 -4.363281 2.46875 -4.65625 3.5625 -4.78125 L 4.828125 -4.921875 C 5.003906 -4.941406 5.144531 -5.003906 5.25 -5.109375 C 5.363281 -5.210938 5.421875 -5.367188 5.421875 -5.578125 C 5.421875 -5.929688 5.3125 -6.203125 5.09375 -6.390625 C 4.875 -6.585938 4.582031 -6.6875 4.21875 -6.6875 C 3.800781 -6.6875 3.460938 -6.539062 3.203125 -6.25 C 2.953125 -5.96875 2.816406 -5.609375 2.796875 -5.171875 L 0.5 -5.515625 C 0.519531 -6.085938 0.6875 -6.59375 1 -7.03125 C 1.3125 -7.46875 1.738281 -7.8125 2.28125 -8.0625 C 2.832031 -8.3125 3.472656 -8.4375 4.203125 -8.4375 C 5.316406 -8.4375 6.195312 -8.144531 6.84375 -7.5625 C 7.488281 -6.976562 7.8125 -6.1875 7.8125 -5.1875 L 7.8125 -2.03125 C 7.8125 -1.675781 7.945312 -1.5 8.21875 -1.5 C 8.425781 -1.5 8.628906 -1.601562 8.828125 -1.8125 L 9.34375 -0.515625 C 9.09375 -0.265625 8.785156 -0.0820312 8.421875 0.03125 C 8.054688 0.144531 7.703125 0.203125 7.359375 0.203125 C 6.867188 0.203125 6.457031 0.078125 6.125 -0.171875 C 5.789062 -0.421875 5.582031 -0.734375 5.5 -1.109375 L 5.46875 -1.328125 L 5.4375 -1.328125 C 5.195312 -0.859375 4.847656 -0.488281 4.390625 -0.21875 C 3.929688 0.0507812 3.40625 0.1875 2.8125 0.1875 Z M 3.828125 -1.515625 C 4.273438 -1.515625 4.644531 -1.675781 4.9375 -2 C 5.238281 -2.320312 5.390625 -2.742188 5.390625 -3.265625 L 5.390625 -3.640625 L 4.203125 -3.515625 C 3.648438 -3.453125 3.253906 -3.316406 3.015625 -3.109375 C 2.773438 -2.910156 2.65625 -2.675781 2.65625 -2.40625 C 2.65625 -2.132812 2.765625 -1.914062 2.984375 -1.75 C 3.203125 -1.59375 3.484375 -1.515625 3.828125 -1.515625 Z M 3.828125 -1.515625 "/></g></g></g><g fill="#0661aa" fill-opacity="1"><g transform="translate(82.290006, 102.015667)"><g><path d="M 8.28125 -3.21875 C 8.164062 -2.195312 7.78125 -1.375 7.125 -0.75 C 6.476562 -0.125 5.65625 0.210938 4.65625 0.265625 L 4.578125 0.765625 C 5.046875 0.796875 5.414062 0.914062 5.6875 1.125 C 5.96875 1.34375 6.109375 1.640625 6.109375 2.015625 C 6.109375 2.398438 5.972656 2.707031 5.703125 2.9375 C 5.441406 3.164062 5.097656 3.28125 4.671875 3.28125 C 4.359375 3.28125 4.0625 3.195312 3.78125 3.03125 C 3.5 2.863281 3.296875 2.660156 3.171875 2.421875 L 3.640625 2.03125 C 3.734375 2.21875 3.875 2.367188 4.0625 2.484375 C 4.25 2.597656 4.453125 2.65625 4.671875 2.65625 C 4.910156 2.65625 5.109375 2.597656 5.265625 2.484375 C 5.421875 2.378906 5.5 2.234375 5.5 2.046875 C 5.5 1.828125 5.398438 1.65625 5.203125 1.53125 C 5.015625 1.40625 4.765625 1.34375 4.453125 1.34375 L 3.90625 1.34375 L 4.03125 0.25 C 3.269531 0.195312 2.613281 -0.00390625 2.0625 -0.359375 C 1.507812 -0.722656 1.082031 -1.222656 0.78125 -1.859375 C 0.476562 -2.492188 0.328125 -3.234375 0.328125 -4.078125 C 0.335938 -4.960938 0.503906 -5.734375 0.828125 -6.390625 C 1.148438 -7.046875 1.597656 -7.550781 2.171875 -7.90625 C 2.753906 -8.257812 3.429688 -8.4375 4.203125 -8.4375 C 5.179688 -8.4375 5.992188 -8.15625 6.640625 -7.59375 C 7.285156 -7.03125 7.6875 -6.269531 7.84375 -5.3125 L 5.625 -4.8125 C 5.550781 -5.351562 5.390625 -5.765625 5.140625 -6.046875 C 4.890625 -6.328125 4.59375 -6.46875 4.25 -6.46875 C 3.800781 -6.46875 3.441406 -6.253906 3.171875 -5.828125 C 2.898438 -5.398438 2.765625 -4.816406 2.765625 -4.078125 C 2.773438 -3.335938 2.929688 -2.753906 3.234375 -2.328125 C 3.535156 -1.910156 3.929688 -1.703125 4.421875 -1.703125 C 4.847656 -1.703125 5.207031 -1.863281 5.5 -2.1875 C 5.789062 -2.507812 5.96875 -2.960938 6.03125 -3.546875 Z M 8.28125 -3.21875 "/></g></g></g><g fill="#0661aa" fill-opacity="1"><g transform="translate(92.719421, 102.015667)"><g><path d="M 5.53125 -9.390625 C 5.226562 -9.390625 4.976562 -9.484375 4.78125 -9.671875 C 4.59375 -9.859375 4.421875 -10.054688 4.265625 -10.265625 C 4.128906 -10.472656 3.988281 -10.65625 3.84375 -10.8125 C 3.707031 -10.976562 3.550781 -11.0625 3.375 -11.0625 C 3.164062 -11.0625 2.988281 -10.914062 2.84375 -10.625 C 2.707031 -10.34375 2.640625 -9.984375 2.640625 -9.546875 L 2.015625 -9.546875 C 2.015625 -10.171875 2.132812 -10.679688 2.375 -11.078125 C 2.625 -11.472656 2.960938 -11.671875 3.390625 -11.671875 C 3.703125 -11.671875 3.953125 -11.570312 4.140625 -11.375 C 4.328125 -11.1875 4.5 -10.988281 4.65625 -10.78125 C 4.800781 -10.582031 4.9375 -10.398438 5.0625 -10.234375 C 5.1875 -10.078125 5.335938 -10 5.515625 -10 C 5.742188 -10 5.929688 -10.140625 6.078125 -10.421875 C 6.222656 -10.710938 6.296875 -11.082031 6.296875 -11.53125 L 6.90625 -11.53125 C 6.90625 -10.914062 6.773438 -10.40625 6.515625 -10 C 6.265625 -9.59375 5.9375 -9.390625 5.53125 -9.390625 Z M 4.46875 0.265625 C 3.632812 0.265625 2.90625 0.0859375 2.28125 -0.265625 C 1.664062 -0.617188 1.1875 -1.117188 0.84375 -1.765625 C 0.5 -2.421875 0.328125 -3.191406 0.328125 -4.078125 C 0.328125 -4.960938 0.5 -5.734375 0.84375 -6.390625 C 1.1875 -7.046875 1.664062 -7.550781 2.28125 -7.90625 C 2.90625 -8.257812 3.632812 -8.4375 4.46875 -8.4375 C 5.3125 -8.4375 6.039062 -8.257812 6.65625 -7.90625 C 7.269531 -7.550781 7.742188 -7.046875 8.078125 -6.390625 C 8.421875 -5.734375 8.59375 -4.960938 8.59375 -4.078125 C 8.59375 -3.191406 8.421875 -2.421875 8.078125 -1.765625 C 7.742188 -1.117188 7.269531 -0.617188 6.65625 -0.265625 C 6.039062 0.0859375 5.3125 0.265625 4.46875 0.265625 Z M 4.46875 -1.765625 C 5 -1.765625 5.414062 -1.96875 5.71875 -2.375 C 6.019531 -2.789062 6.171875 -3.359375 6.171875 -4.078125 C 6.171875 -4.796875 6.019531 -5.359375 5.71875 -5.765625 C 5.414062 -6.179688 5 -6.390625 4.46875 -6.390625 C 3.9375 -6.390625 3.515625 -6.179688 3.203125 -5.765625 C 2.898438 -5.359375 2.75 -4.796875 2.75 -4.078125 C 2.75 -3.359375 2.898438 -2.789062 3.203125 -2.375 C 3.515625 -1.96875 3.9375 -1.765625 4.46875 -1.765625 Z M 4.46875 -1.765625 "/></g></g></g><g fill="#0661aa" fill-opacity="1"><g transform="translate(103.562811, 102.015667)"><g><path d="M 4.765625 0.265625 C 3.878906 0.265625 3.101562 0.0859375 2.4375 -0.265625 C 1.769531 -0.628906 1.25 -1.140625 0.875 -1.796875 C 0.507812 -2.460938 0.328125 -3.238281 0.328125 -4.125 C 0.328125 -4.988281 0.492188 -5.742188 0.828125 -6.390625 C 1.171875 -7.035156 1.644531 -7.535156 2.25 -7.890625 C 2.851562 -8.253906 3.5625 -8.4375 4.375 -8.4375 C 5.164062 -8.4375 5.847656 -8.265625 6.421875 -7.921875 C 6.992188 -7.578125 7.441406 -7.09375 7.765625 -6.46875 C 8.085938 -5.851562 8.25 -5.125 8.25 -4.28125 C 8.25 -4.113281 8.238281 -3.953125 8.21875 -3.796875 C 8.207031 -3.640625 8.1875 -3.507812 8.15625 -3.40625 L 2.765625 -3.40625 C 2.816406 -2.8125 3.023438 -2.34375 3.390625 -2 C 3.753906 -1.65625 4.21875 -1.484375 4.78125 -1.484375 C 5.207031 -1.484375 5.585938 -1.585938 5.921875 -1.796875 C 6.265625 -2.015625 6.519531 -2.304688 6.6875 -2.671875 L 8.390625 -1.921875 C 8.160156 -1.242188 7.707031 -0.707031 7.03125 -0.3125 C 6.363281 0.0703125 5.609375 0.265625 4.765625 0.265625 Z M 2.765625 -4.796875 L 5.828125 -4.796875 C 5.796875 -5.390625 5.648438 -5.847656 5.390625 -6.171875 C 5.140625 -6.503906 4.796875 -6.671875 4.359375 -6.671875 C 3.898438 -6.671875 3.53125 -6.503906 3.25 -6.171875 C 2.976562 -5.835938 2.816406 -5.378906 2.765625 -4.796875 Z M 2.765625 -4.796875 "/></g></g></g><g fill="#0661aa" fill-opacity="1"><g transform="translate(114.135526, 102.015667)"><g><path d="M 3.953125 0.25 C 3.285156 0.25 2.675781 0.148438 2.125 -0.046875 C 1.582031 -0.253906 1.140625 -0.566406 0.796875 -0.984375 C 0.460938 -1.398438 0.28125 -1.914062 0.25 -2.53125 L 2.40625 -2.796875 C 2.425781 -2.347656 2.585938 -1.992188 2.890625 -1.734375 C 3.191406 -1.484375 3.570312 -1.359375 4.03125 -1.359375 C 4.394531 -1.359375 4.703125 -1.4375 4.953125 -1.59375 C 5.210938 -1.75 5.34375 -1.957031 5.34375 -2.21875 C 5.34375 -2.457031 5.234375 -2.65625 5.015625 -2.8125 C 4.796875 -2.96875 4.4375 -3.101562 3.9375 -3.21875 L 2.859375 -3.484375 C 2.066406 -3.679688 1.492188 -3.960938 1.140625 -4.328125 C 0.785156 -4.703125 0.609375 -5.195312 0.609375 -5.8125 C 0.609375 -6.613281 0.90625 -7.242188 1.5 -7.703125 C 2.101562 -8.171875 2.882812 -8.40625 3.84375 -8.40625 C 4.414062 -8.40625 4.9375 -8.304688 5.40625 -8.109375 C 5.882812 -7.921875 6.273438 -7.644531 6.578125 -7.28125 C 6.878906 -6.914062 7.054688 -6.457031 7.109375 -5.90625 L 5 -5.65625 C 4.976562 -6.03125 4.851562 -6.316406 4.625 -6.515625 C 4.394531 -6.722656 4.101562 -6.828125 3.75 -6.828125 C 3.445312 -6.828125 3.195312 -6.75 3 -6.59375 C 2.800781 -6.445312 2.703125 -6.257812 2.703125 -6.03125 C 2.703125 -5.8125 2.800781 -5.628906 3 -5.484375 C 3.207031 -5.335938 3.535156 -5.203125 3.984375 -5.078125 L 5.078125 -4.8125 C 5.941406 -4.59375 6.570312 -4.289062 6.96875 -3.90625 C 7.375 -3.53125 7.582031 -3.035156 7.59375 -2.421875 C 7.59375 -1.867188 7.4375 -1.390625 7.125 -0.984375 C 6.8125 -0.585938 6.378906 -0.28125 5.828125 -0.0625 C 5.285156 0.144531 4.660156 0.25 3.953125 0.25 Z M 3.953125 0.25 "/></g></g></g><g fill="#0661aa" fill-opacity="1"><g transform="translate(12.963284, 121.425388)"><g><path d="M 3.234375 0 L 3.234375 -9.015625 L 0.234375 -9.015625 L 0.234375 -11.34375 L 8.953125 -11.34375 L 8.953125 -9.015625 L 5.953125 -9.015625 L 5.953125 0 Z M 3.234375 0 "/></g></g></g><g fill="#0661aa" fill-opacity="1"><g transform="translate(23.392653, 121.425388)"><g><path d="M 5 -8.375 C 5.664062 -8.375 6.203125 -8.125 6.609375 -7.625 C 7.015625 -7.125 7.238281 -6.421875 7.28125 -5.515625 L 5.21875 -4.953125 C 5.207031 -5.484375 5.113281 -5.882812 4.9375 -6.15625 C 4.757812 -6.425781 4.519531 -6.5625 4.21875 -6.5625 C 3.851562 -6.5625 3.5625 -6.378906 3.34375 -6.015625 C 3.132812 -5.660156 3.03125 -5.160156 3.03125 -4.515625 L 3.03125 0 L 0.609375 0 L 0.609375 -8.15625 L 2.5625 -8.15625 L 2.890625 -6.75 L 2.90625 -6.75 C 3.09375 -7.257812 3.367188 -7.65625 3.734375 -7.9375 C 4.109375 -8.226562 4.53125 -8.375 5 -8.375 Z M 5 -8.375 "/></g></g></g><g fill="#0661aa" fill-opacity="1"><g transform="translate(32.739366, 121.425388)"><g><path d="M 2.8125 0.1875 C 2.039062 0.1875 1.414062 -0.015625 0.9375 -0.421875 C 0.457031 -0.835938 0.21875 -1.398438 0.21875 -2.109375 C 0.21875 -2.847656 0.5 -3.445312 1.0625 -3.90625 C 1.632812 -4.363281 2.46875 -4.65625 3.5625 -4.78125 L 4.828125 -4.921875 C 5.003906 -4.941406 5.144531 -5.003906 5.25 -5.109375 C 5.363281 -5.210938 5.421875 -5.367188 5.421875 -5.578125 C 5.421875 -5.929688 5.3125 -6.203125 5.09375 -6.390625 C 4.875 -6.585938 4.582031 -6.6875 4.21875 -6.6875 C 3.800781 -6.6875 3.460938 -6.539062 3.203125 -6.25 C 2.953125 -5.96875 2.816406 -5.609375 2.796875 -5.171875 L 0.5 -5.515625 C 0.519531 -6.085938 0.6875 -6.59375 1 -7.03125 C 1.3125 -7.46875 1.738281 -7.8125 2.28125 -8.0625 C 2.832031 -8.3125 3.472656 -8.4375 4.203125 -8.4375 C 5.316406 -8.4375 6.195312 -8.144531 6.84375 -7.5625 C 7.488281 -6.976562 7.8125 -6.1875 7.8125 -5.1875 L 7.8125 -2.03125 C 7.8125 -1.675781 7.945312 -1.5 8.21875 -1.5 C 8.425781 -1.5 8.628906 -1.601562 8.828125 -1.8125 L 9.34375 -0.515625 C 9.09375 -0.265625 8.785156 -0.0820312 8.421875 0.03125 C 8.054688 0.144531 7.703125 0.203125 7.359375 0.203125 C 6.867188 0.203125 6.457031 0.078125 6.125 -0.171875 C 5.789062 -0.421875 5.582031 -0.734375 5.5 -1.109375 L 5.46875 -1.328125 L 5.4375 -1.328125 C 5.195312 -0.859375 4.847656 -0.488281 4.390625 -0.21875 C 3.929688 0.0507812 3.40625 0.1875 2.8125 0.1875 Z M 3.828125 -1.515625 C 4.273438 -1.515625 4.644531 -1.675781 4.9375 -2 C 5.238281 -2.320312 5.390625 -2.742188 5.390625 -3.265625 L 5.390625 -3.640625 L 4.203125 -3.515625 C 3.648438 -3.453125 3.253906 -3.316406 3.015625 -3.109375 C 2.773438 -2.910156 2.65625 -2.675781 2.65625 -2.40625 C 2.65625 -2.132812 2.765625 -1.914062 2.984375 -1.75 C 3.203125 -1.59375 3.484375 -1.515625 3.828125 -1.515625 Z M 3.828125 -1.515625 "/></g></g></g><g fill="#0661aa" fill-opacity="1"><g transform="translate(43.43941, 121.425388)"><g><path d="M 3.546875 0.21875 C 2.898438 0.21875 2.332031 0.046875 1.84375 -0.296875 C 1.363281 -0.648438 0.988281 -1.148438 0.71875 -1.796875 C 0.457031 -2.441406 0.328125 -3.203125 0.328125 -4.078125 C 0.328125 -4.953125 0.457031 -5.710938 0.71875 -6.359375 C 0.988281 -7.003906 1.363281 -7.5 1.84375 -7.84375 C 2.332031 -8.195312 2.894531 -8.375 3.53125 -8.375 C 4.082031 -8.375 4.570312 -8.234375 5 -7.953125 C 5.425781 -7.679688 5.753906 -7.285156 5.984375 -6.765625 L 6 -6.765625 L 6 -11.8125 L 8.4375 -11.8125 L 8.4375 0 L 6.375 0 L 6.0625 -1.421875 L 6.046875 -1.421875 C 5.816406 -0.890625 5.484375 -0.484375 5.046875 -0.203125 C 4.609375 0.078125 4.109375 0.21875 3.546875 0.21875 Z M 4.4375 -1.859375 C 4.9375 -1.859375 5.335938 -2.0625 5.640625 -2.46875 C 5.941406 -2.875 6.09375 -3.410156 6.09375 -4.078125 C 6.09375 -4.742188 5.941406 -5.28125 5.640625 -5.6875 C 5.335938 -6.09375 4.9375 -6.296875 4.4375 -6.296875 C 3.9375 -6.296875 3.53125 -6.09375 3.21875 -5.6875 C 2.914062 -5.28125 2.765625 -4.742188 2.765625 -4.078125 C 2.765625 -3.410156 2.914062 -2.875 3.21875 -2.46875 C 3.53125 -2.0625 3.9375 -1.859375 4.4375 -1.859375 Z M 4.4375 -1.859375 "/></g></g></g><g fill="#0661aa" fill-opacity="1"><g transform="translate(54.362413, 121.425388)"><g><path d="M 1.875 -9.265625 C 1.4375 -9.265625 1.085938 -9.390625 0.828125 -9.640625 C 0.578125 -9.898438 0.453125 -10.238281 0.453125 -10.65625 C 0.453125 -11.070312 0.578125 -11.40625 0.828125 -11.65625 C 1.085938 -11.914062 1.4375 -12.046875 1.875 -12.046875 C 2.3125 -12.046875 2.660156 -11.914062 2.921875 -11.65625 C 3.179688 -11.40625 3.3125 -11.070312 3.3125 -10.65625 C 3.3125 -10.238281 3.179688 -9.898438 2.921875 -9.640625 C 2.660156 -9.390625 2.3125 -9.265625 1.875 -9.265625 Z M 0.65625 0 L 0.65625 -8.15625 L 3.09375 -8.15625 L 3.09375 0 Z M 0.65625 0 "/></g></g></g><g fill="#0661aa" fill-opacity="1"><g transform="translate(59.999281, 121.425388)"><g><path d="M 4.375 0.265625 C 3.5625 0.265625 2.851562 0.0859375 2.25 -0.265625 C 1.644531 -0.617188 1.171875 -1.117188 0.828125 -1.765625 C 0.492188 -2.421875 0.328125 -3.191406 0.328125 -4.078125 C 0.335938 -4.960938 0.503906 -5.734375 0.828125 -6.390625 C 1.148438 -7.046875 1.597656 -7.550781 2.171875 -7.90625 C 2.753906 -8.257812 3.429688 -8.4375 4.203125 -8.4375 C 5.179688 -8.4375 5.992188 -8.15625 6.640625 -7.59375 C 7.285156 -7.03125 7.6875 -6.269531 7.84375 -5.3125 L 5.625 -4.8125 C 5.550781 -5.351562 5.390625 -5.765625 5.140625 -6.046875 C 4.890625 -6.328125 4.59375 -6.46875 4.25 -6.46875 C 3.800781 -6.46875 3.441406 -6.253906 3.171875 -5.828125 C 2.898438 -5.398438 2.765625 -4.816406 2.765625 -4.078125 C 2.773438 -3.335938 2.929688 -2.753906 3.234375 -2.328125 C 3.535156 -1.910156 3.929688 -1.703125 4.421875 -1.703125 C 4.847656 -1.703125 5.207031 -1.863281 5.5 -2.1875 C 5.789062 -2.507812 5.96875 -2.960938 6.03125 -3.546875 L 8.28125 -3.21875 C 8.15625 -2.15625 7.738281 -1.304688 7.03125 -0.671875 C 6.332031 -0.046875 5.445312 0.265625 4.375 0.265625 Z M 4.375 0.265625 "/></g></g></g><g fill="#0661aa" fill-opacity="1"><g transform="translate(70.41277, 121.425388)"><g><path d="M 1.875 -9.265625 C 1.4375 -9.265625 1.085938 -9.390625 0.828125 -9.640625 C 0.578125 -9.898438 0.453125 -10.238281 0.453125 -10.65625 C 0.453125 -11.070312 0.578125 -11.40625 0.828125 -11.65625 C 1.085938 -11.914062 1.4375 -12.046875 1.875 -12.046875 C 2.3125 -12.046875 2.660156 -11.914062 2.921875 -11.65625 C 3.179688 -11.40625 3.3125 -11.070312 3.3125 -10.65625 C 3.3125 -10.238281 3.179688 -9.898438 2.921875 -9.640625 C 2.660156 -9.390625 2.3125 -9.265625 1.875 -9.265625 Z M 0.65625 0 L 0.65625 -8.15625 L 3.09375 -8.15625 L 3.09375 0 Z M 0.65625 0 "/></g></g></g><g fill="#0661aa" fill-opacity="1"><g transform="translate(76.049638, 121.425388)"><g><path d="M 4.46875 0.265625 C 3.632812 0.265625 2.90625 0.0859375 2.28125 -0.265625 C 1.664062 -0.617188 1.1875 -1.117188 0.84375 -1.765625 C 0.5 -2.421875 0.328125 -3.191406 0.328125 -4.078125 C 0.328125 -4.960938 0.5 -5.734375 0.84375 -6.390625 C 1.1875 -7.046875 1.664062 -7.550781 2.28125 -7.90625 C 2.90625 -8.257812 3.632812 -8.4375 4.46875 -8.4375 C 5.3125 -8.4375 6.039062 -8.257812 6.65625 -7.90625 C 7.269531 -7.550781 7.742188 -7.046875 8.078125 -6.390625 C 8.421875 -5.734375 8.59375 -4.960938 8.59375 -4.078125 C 8.59375 -3.191406 8.421875 -2.421875 8.078125 -1.765625 C 7.742188 -1.117188 7.269531 -0.617188 6.65625 -0.265625 C 6.039062 0.0859375 5.3125 0.265625 4.46875 0.265625 Z M 4.46875 -1.765625 C 5 -1.765625 5.414062 -1.96875 5.71875 -2.375 C 6.019531 -2.789062 6.171875 -3.359375 6.171875 -4.078125 C 6.171875 -4.796875 6.019531 -5.359375 5.71875 -5.765625 C 5.414062 -6.179688 5 -6.390625 4.46875 -6.390625 C 3.9375 -6.390625 3.515625 -6.179688 3.203125 -5.765625 C 2.898438 -5.359375 2.75 -4.796875 2.75 -4.078125 C 2.75 -3.359375 2.898438 -2.789062 3.203125 -2.375 C 3.515625 -1.96875 3.9375 -1.765625 4.46875 -1.765625 Z M 4.46875 -1.765625 "/></g></g></g><g fill="#0661aa" fill-opacity="1"><g transform="translate(86.877104, 121.425388)"><g><path d="M 5.5625 -8.359375 C 6.3125 -8.359375 6.90625 -8.128906 7.34375 -7.671875 C 7.78125 -7.222656 8 -6.597656 8 -5.796875 L 8 0 L 5.5625 0 L 5.5625 -5.171875 C 5.5625 -5.554688 5.460938 -5.851562 5.265625 -6.0625 C 5.078125 -6.28125 4.8125 -6.390625 4.46875 -6.390625 C 4.039062 -6.390625 3.691406 -6.25 3.421875 -5.96875 C 3.160156 -5.6875 3.03125 -5.296875 3.03125 -4.796875 L 3.03125 0 L 0.609375 0 L 0.609375 -8.15625 L 2.609375 -8.15625 L 2.953125 -6.765625 L 2.96875 -6.765625 C 3.207031 -7.273438 3.554688 -7.664062 4.015625 -7.9375 C 4.472656 -8.21875 4.988281 -8.359375 5.5625 -8.359375 Z M 5.5625 -8.359375 "/></g></g></g><g fill="#0661aa" fill-opacity="1"><g transform="translate(97.306518, 121.425388)"><g><path d="M 2.8125 0.1875 C 2.039062 0.1875 1.414062 -0.015625 0.9375 -0.421875 C 0.457031 -0.835938 0.21875 -1.398438 0.21875 -2.109375 C 0.21875 -2.847656 0.5 -3.445312 1.0625 -3.90625 C 1.632812 -4.363281 2.46875 -4.65625 3.5625 -4.78125 L 4.828125 -4.921875 C 5.003906 -4.941406 5.144531 -5.003906 5.25 -5.109375 C 5.363281 -5.210938 5.421875 -5.367188 5.421875 -5.578125 C 5.421875 -5.929688 5.3125 -6.203125 5.09375 -6.390625 C 4.875 -6.585938 4.582031 -6.6875 4.21875 -6.6875 C 3.800781 -6.6875 3.460938 -6.539062 3.203125 -6.25 C 2.953125 -5.96875 2.816406 -5.609375 2.796875 -5.171875 L 0.5 -5.515625 C 0.519531 -6.085938 0.6875 -6.59375 1 -7.03125 C 1.3125 -7.46875 1.738281 -7.8125 2.28125 -8.0625 C 2.832031 -8.3125 3.472656 -8.4375 4.203125 -8.4375 C 5.316406 -8.4375 6.195312 -8.144531 6.84375 -7.5625 C 7.488281 -6.976562 7.8125 -6.1875 7.8125 -5.1875 L 7.8125 -2.03125 C 7.8125 -1.675781 7.945312 -1.5 8.21875 -1.5 C 8.425781 -1.5 8.628906 -1.601562 8.828125 -1.8125 L 9.34375 -0.515625 C 9.09375 -0.265625 8.785156 -0.0820312 8.421875 0.03125 C 8.054688 0.144531 7.703125 0.203125 7.359375 0.203125 C 6.867188 0.203125 6.457031 0.078125 6.125 -0.171875 C 5.789062 -0.421875 5.582031 -0.734375 5.5 -1.109375 L 5.46875 -1.328125 L 5.4375 -1.328125 C 5.195312 -0.859375 4.847656 -0.488281 4.390625 -0.21875 C 3.929688 0.0507812 3.40625 0.1875 2.8125 0.1875 Z M 3.828125 -1.515625 C 4.273438 -1.515625 4.644531 -1.675781 4.9375 -2 C 5.238281 -2.320312 5.390625 -2.742188 5.390625 -3.265625 L 5.390625 -3.640625 L 4.203125 -3.515625 C 3.648438 -3.453125 3.253906 -3.316406 3.015625 -3.109375 C 2.773438 -2.910156 2.65625 -2.675781 2.65625 -2.40625 C 2.65625 -2.132812 2.765625 -1.914062 2.984375 -1.75 C 3.203125 -1.59375 3.484375 -1.515625 3.828125 -1.515625 Z M 3.828125 -1.515625 "/></g></g></g><g fill="#0661aa" fill-opacity="1"><g transform="translate(108.532035, 121.425388)"><g><path d="M 1.875 -9.265625 C 1.4375 -9.265625 1.085938 -9.390625 0.828125 -9.640625 C 0.578125 -9.898438 0.453125 -10.238281 0.453125 -10.65625 C 0.453125 -11.070312 0.578125 -11.40625 0.828125 -11.65625 C 1.085938 -11.914062 1.4375 -12.046875 1.875 -12.046875 C 2.3125 -12.046875 2.660156 -11.914062 2.921875 -11.65625 C 3.179688 -11.40625 3.3125 -11.070312 3.3125 -10.65625 C 3.3125 -10.238281 3.179688 -9.898438 2.921875 -9.640625 C 2.660156 -9.390625 2.3125 -9.265625 1.875 -9.265625 Z M 0.65625 0 L 0.65625 -8.15625 L 3.09375 -8.15625 L 3.09375 0 Z M 0.65625 0 "/></g></g></g><g fill="#0661aa" fill-opacity="1"><g transform="translate(114.168902, 121.425388)"><g><path d="M 3.953125 0.25 C 3.285156 0.25 2.675781 0.148438 2.125 -0.046875 C 1.582031 -0.253906 1.140625 -0.566406 0.796875 -0.984375 C 0.460938 -1.398438 0.28125 -1.914062 0.25 -2.53125 L 2.40625 -2.796875 C 2.425781 -2.347656 2.585938 -1.992188 2.890625 -1.734375 C 3.191406 -1.484375 3.570312 -1.359375 4.03125 -1.359375 C 4.394531 -1.359375 4.703125 -1.4375 4.953125 -1.59375 C 5.210938 -1.75 5.34375 -1.957031 5.34375 -2.21875 C 5.34375 -2.457031 5.234375 -2.65625 5.015625 -2.8125 C 4.796875 -2.96875 4.4375 -3.101562 3.9375 -3.21875 L 2.859375 -3.484375 C 2.066406 -3.679688 1.492188 -3.960938 1.140625 -4.328125 C 0.785156 -4.703125 0.609375 -5.195312 0.609375 -5.8125 C 0.609375 -6.613281 0.90625 -7.242188 1.5 -7.703125 C 2.101562 -8.171875 2.882812 -8.40625 3.84375 -8.40625 C 4.414062 -8.40625 4.9375 -8.304688 5.40625 -8.109375 C 5.882812 -7.921875 6.273438 -7.644531 6.578125 -7.28125 C 6.878906 -6.914062 7.054688 -6.457031 7.109375 -5.90625 L 5 -5.65625 C 4.976562 -6.03125 4.851562 -6.316406 4.625 -6.515625 C 4.394531 -6.722656 4.101562 -6.828125 3.75 -6.828125 C 3.445312 -6.828125 3.195312 -6.75 3 -6.59375 C 2.800781 -6.445312 2.703125 -6.257812 2.703125 -6.03125 C 2.703125 -5.8125 2.800781 -5.628906 3 -5.484375 C 3.207031 -5.335938 3.535156 -5.203125 3.984375 -5.078125 L 5.078125 -4.8125 C 5.941406 -4.59375 6.570312 -4.289062 6.96875 -3.90625 C 7.375 -3.53125 7.582031 -3.035156 7.59375 -2.421875 C 7.59375 -1.867188 7.4375 -1.390625 7.125 -0.984375 C 6.8125 -0.585938 6.378906 -0.28125 5.828125 -0.0625 C 5.285156 0.144531 4.660156 0.25 3.953125 0.25 Z M 3.953125 0.25 "/></g></g></g><g clip-path="url(#9c150040e1)"><path fill="#0661aa" d="M 29.40625 60.195312 C 29.464844 60.160156 30.84375 59.292969 33.097656 58.292969 C 35.074219 57.414062 38.101562 56.277344 41.523438 55.714844 C 40.300781 52.46875 39.773438 49.277344 39.542969 47.128906 C 39.285156 44.675781 39.34375 43.046875 39.347656 42.980469 C 39.355469 42.75 39.539062 42.570312 39.765625 42.558594 C 39.878906 42.554688 42.535156 42.457031 46.183594 43.066406 C 48.324219 43.421875 50.359375 43.949219 52.230469 44.636719 C 54.332031 45.402344 56.234375 46.371094 57.890625 47.519531 C 58.25 45.535156 58.910156 43.507812 59.851562 41.480469 C 60.691406 39.671875 61.757812 37.859375 63.019531 36.089844 C 65.167969 33.082031 67.117188 31.273438 67.199219 31.195312 C 67.367188 31.042969 67.625 31.042969 67.792969 31.195312 C 67.875 31.273438 69.820312 33.082031 71.96875 36.089844 C 73.230469 37.859375 74.296875 39.671875 75.136719 41.480469 C 76.082031 43.507812 76.738281 45.535156 77.101562 47.519531 C 78.757812 46.371094 80.65625 45.402344 82.757812 44.636719 C 84.628906 43.953125 86.664062 43.421875 88.808594 43.066406 C 92.453125 42.457031 95.109375 42.554688 95.222656 42.558594 C 95.449219 42.570312 95.632812 42.75 95.640625 42.980469 C 95.644531 43.046875 95.707031 44.671875 95.445312 47.128906 C 95.214844 49.277344 94.6875 52.46875 93.464844 55.714844 C 96.886719 56.277344 99.914062 57.414062 101.890625 58.292969 C 104.144531 59.292969 105.523438 60.160156 105.582031 60.195312 C 105.773438 60.316406 105.839844 60.566406 105.734375 60.769531 C 105.671875 60.886719 104.175781 63.714844 101.363281 66.925781 C 99.707031 68.816406 97.945312 70.441406 96.117188 71.757812 C 93.824219 73.414062 91.429688 74.582031 88.992188 75.234375 C 87.296875 75.691406 85.488281 75.917969 83.597656 75.917969 C 82.777344 75.917969 81.9375 75.875 81.085938 75.789062 C 78.84375 75.558594 76.503906 75.035156 74.125 74.222656 C 70.707031 73.058594 68.242188 71.664062 67.492188 71.21875 C 66.746094 71.664062 64.28125 73.058594 60.863281 74.222656 C 58.484375 75.035156 56.144531 75.558594 53.902344 75.789062 C 53.050781 75.875 52.210938 75.917969 51.386719 75.917969 C 49.496094 75.917969 47.691406 75.691406 45.996094 75.234375 C 43.558594 74.582031 41.160156 73.414062 38.871094 71.757812 C 37.042969 70.441406 35.277344 68.816406 33.625 66.925781 C 30.816406 63.714844 29.316406 60.886719 29.253906 60.769531 C 29.148438 60.566406 29.214844 60.316406 29.40625 60.195312 Z M 74.003906 62.953125 C 72.578125 65.472656 70.976562 67.523438 69.878906 68.804688 C 69.359375 69.414062 68.90625 69.90625 68.554688 70.269531 C 69.824219 70.242188 72.144531 70.113281 74.847656 69.574219 C 78.601562 68.832031 83.890625 67.128906 87.757812 63.261719 C 89.589844 61.433594 91.09375 59.132812 92.242188 56.417969 C 89.320312 56.058594 86.574219 56.210938 84.078125 56.882812 C 80.558594 57.824219 77.171875 59.867188 74.003906 62.953125 Z M 60.988281 62.953125 C 57.820312 59.867188 54.429688 57.824219 50.914062 56.882812 C 48.414062 56.210938 45.671875 56.058594 42.746094 56.417969 C 43.894531 59.132812 45.402344 61.433594 47.230469 63.261719 C 51.101562 67.128906 56.386719 68.832031 60.140625 69.574219 C 62.847656 70.113281 65.164062 70.242188 66.4375 70.269531 C 66.078125 69.898438 65.613281 69.394531 65.082031 68.773438 C 63.992188 67.496094 62.402344 65.457031 60.988281 62.953125 Z M 46.058594 43.933594 C 43.3125 43.472656 41.097656 43.425781 40.214844 43.429688 C 40.214844 44.058594 40.238281 45.363281 40.417969 47.054688 C 40.644531 49.1875 41.175781 52.371094 42.410156 55.582031 C 45.53125 55.167969 48.46875 55.320312 51.140625 56.039062 C 54.160156 56.847656 57.082031 58.425781 59.851562 60.746094 C 58.328125 57.472656 57.558594 54.238281 57.558594 51.113281 C 57.558594 50.25 57.617188 49.363281 57.738281 48.480469 C 53.878906 45.695312 49.273438 44.46875 46.058594 43.933594 Z M 71.269531 36.617188 C 69.652344 34.351562 68.121094 32.75 67.496094 32.128906 C 66.871094 32.75 65.335938 34.351562 63.71875 36.617188 C 61.796875 39.316406 59.351562 43.542969 58.640625 48.34375 C 58.640625 48.34375 58.640625 48.34375 58.640625 48.347656 C 58.503906 49.273438 58.433594 50.207031 58.433594 51.113281 C 58.433594 54.769531 59.539062 58.589844 61.71875 62.46875 C 61.71875 62.46875 61.722656 62.472656 61.722656 62.476562 C 63.109375 64.9375 64.675781 66.949219 65.746094 68.203125 C 66.523438 69.109375 67.148438 69.753906 67.496094 70.101562 C 67.84375 69.753906 68.46875 69.113281 69.226562 68.222656 C 70.300781 66.964844 71.875 64.949219 73.269531 62.476562 C 73.269531 62.472656 73.269531 62.472656 73.273438 62.46875 C 75.453125 58.589844 76.558594 54.773438 76.558594 51.113281 C 76.558594 50.207031 76.488281 49.277344 76.351562 48.347656 C 76.351562 48.347656 76.351562 48.34375 76.351562 48.34375 C 75.640625 43.542969 73.195312 39.316406 71.269531 36.617188 Z M 94.777344 43.429688 C 93.894531 43.425781 91.679688 43.472656 88.933594 43.933594 C 85.71875 44.46875 81.113281 45.695312 77.253906 48.480469 C 77.375 49.363281 77.433594 50.25 77.433594 51.113281 C 77.433594 54.238281 76.664062 57.472656 75.140625 60.746094 C 77.910156 58.425781 80.832031 56.847656 83.851562 56.039062 C 86.527344 55.320312 89.460938 55.167969 92.582031 55.582031 C 93.816406 52.371094 94.347656 49.1875 94.574219 47.054688 C 94.757812 45.363281 94.777344 44.058594 94.777344 43.429688 Z M 74.429688 73.402344 C 78.054688 74.636719 83.484375 75.808594 88.769531 74.390625 C 94.054688 72.972656 98.171875 69.246094 100.691406 66.367188 C 102.867188 63.882812 104.265625 61.585938 104.761719 60.722656 C 104.21875 60.40625 103.085938 59.777344 101.539062 59.09375 C 99.574219 58.21875 96.546875 57.085938 93.140625 56.546875 C 91.9375 59.457031 90.335938 61.921875 88.378906 63.878906 C 86.597656 65.664062 84.386719 67.15625 81.804688 68.3125 C 79.753906 69.234375 77.460938 69.949219 74.996094 70.4375 C 72.582031 70.917969 70.496094 71.078125 69.136719 71.132812 C 70.320312 71.753906 72.175781 72.636719 74.429688 73.402344 Z M 34.285156 66.351562 C 36.808594 69.234375 40.929688 72.972656 46.222656 74.390625 C 51.507812 75.808594 56.9375 74.636719 60.558594 73.402344 C 62.816406 72.636719 64.671875 71.753906 65.851562 71.132812 C 64.492188 71.078125 62.410156 70.914062 59.992188 70.4375 C 57.527344 69.953125 55.238281 69.238281 53.183594 68.3125 C 50.605469 67.15625 48.394531 65.664062 46.609375 63.878906 C 44.652344 61.921875 43.054688 59.457031 41.851562 56.546875 C 38.449219 57.082031 35.429688 58.214844 33.46875 59.085938 C 31.917969 59.773438 30.773438 60.40625 30.230469 60.722656 C 30.722656 61.585938 32.113281 63.871094 34.285156 66.351562 Z M 34.285156 66.351562 " fill-opacity="1" fill-rule="nonzero"/></g></svg>