<svg xmlns="http://www.w3.org/2000/svg" xmlns:xlink="http://www.w3.org/1999/xlink" width="180" zoomAndPan="magnify" viewBox="0 0 135 161.249994" height="215" preserveAspectRatio="xMidYMid meet" version="1.0"><defs><g/><clipPath id="679184f051"><path d="M 29.132812 30.457031 L 106 30.457031 L 106 75.25 L 29.132812 75.25 Z M 29.132812 30.457031 " clip-rule="nonzero"/></clipPath></defs><g fill="#0661aa" fill-opacity="1"><g transform="translate(15.529876, 104.08561)"><g><path d="M 3.4375 0 L 3.4375 -9.578125 L 0.25 -9.578125 L 0.25 -12.046875 L 9.515625 -12.046875 L 9.515625 -9.578125 L 6.328125 -9.578125 L 6.328125 0 Z M 3.4375 0 "/></g></g></g><g fill="#0661aa" fill-opacity="1"><g transform="translate(26.609005, 104.08561)"><g><path d="M 5.3125 -8.90625 C 6.019531 -8.90625 6.585938 -8.640625 7.015625 -8.109375 C 7.453125 -7.578125 7.691406 -6.828125 7.734375 -5.859375 L 5.546875 -5.265625 C 5.535156 -5.828125 5.429688 -6.25 5.234375 -6.53125 C 5.046875 -6.820312 4.796875 -6.96875 4.484375 -6.96875 C 4.097656 -6.96875 3.789062 -6.773438 3.5625 -6.390625 C 3.332031 -6.015625 3.21875 -5.488281 3.21875 -4.8125 L 3.21875 0 L 0.640625 0 L 0.640625 -8.65625 L 2.71875 -8.65625 L 3.078125 -7.171875 L 3.09375 -7.171875 C 3.289062 -7.710938 3.582031 -8.132812 3.96875 -8.4375 C 4.363281 -8.75 4.8125 -8.90625 5.3125 -8.90625 Z M 5.3125 -8.90625 "/></g></g></g><g fill="#0661aa" fill-opacity="1"><g transform="translate(36.538122, 104.08561)"><g><path d="M 3 0.203125 C 2.175781 0.203125 1.507812 -0.015625 1 -0.453125 C 0.488281 -0.890625 0.234375 -1.484375 0.234375 -2.234375 C 0.234375 -3.023438 0.535156 -3.664062 1.140625 -4.15625 C 1.742188 -4.644531 2.628906 -4.953125 3.796875 -5.078125 L 5.125 -5.234375 C 5.320312 -5.253906 5.476562 -5.316406 5.59375 -5.421875 C 5.707031 -5.535156 5.765625 -5.703125 5.765625 -5.921875 C 5.765625 -6.304688 5.644531 -6.597656 5.40625 -6.796875 C 5.175781 -7.003906 4.867188 -7.109375 4.484375 -7.109375 C 4.046875 -7.109375 3.691406 -6.953125 3.421875 -6.640625 C 3.148438 -6.335938 3.003906 -5.957031 2.984375 -5.5 L 0.53125 -5.859375 C 0.550781 -6.460938 0.726562 -7 1.0625 -7.46875 C 1.394531 -7.9375 1.847656 -8.300781 2.421875 -8.5625 C 3.003906 -8.832031 3.6875 -8.96875 4.46875 -8.96875 C 5.65625 -8.96875 6.59375 -8.65625 7.28125 -8.03125 C 7.96875 -7.414062 8.3125 -6.578125 8.3125 -5.515625 L 8.3125 -2.171875 C 8.3125 -1.785156 8.453125 -1.59375 8.734375 -1.59375 C 8.953125 -1.59375 9.164062 -1.703125 9.375 -1.921875 L 9.9375 -0.546875 C 9.664062 -0.285156 9.335938 -0.09375 8.953125 0.03125 C 8.566406 0.15625 8.1875 0.21875 7.8125 0.21875 C 7.300781 0.21875 6.863281 0.0859375 6.5 -0.171875 C 6.144531 -0.441406 5.925781 -0.78125 5.84375 -1.1875 L 5.796875 -1.40625 L 5.78125 -1.40625 C 5.519531 -0.90625 5.144531 -0.507812 4.65625 -0.21875 C 4.175781 0.0625 3.625 0.203125 3 0.203125 Z M 4.0625 -1.609375 C 4.539062 -1.609375 4.9375 -1.78125 5.25 -2.125 C 5.570312 -2.46875 5.734375 -2.914062 5.734375 -3.46875 L 5.734375 -3.875 L 4.46875 -3.734375 C 3.882812 -3.671875 3.460938 -3.53125 3.203125 -3.3125 C 2.953125 -3.101562 2.828125 -2.851562 2.828125 -2.5625 C 2.828125 -2.269531 2.941406 -2.035156 3.171875 -1.859375 C 3.398438 -1.691406 3.695312 -1.609375 4.0625 -1.609375 Z M 4.0625 -1.609375 "/></g></g></g><g fill="#0661aa" fill-opacity="1"><g transform="translate(47.904809, 104.08561)"><g><path d="M 3.78125 0.234375 C 3.082031 0.234375 2.476562 0.0507812 1.96875 -0.3125 C 1.457031 -0.6875 1.0625 -1.21875 0.78125 -1.90625 C 0.5 -2.59375 0.359375 -3.398438 0.359375 -4.328125 C 0.359375 -5.265625 0.5 -6.070312 0.78125 -6.75 C 1.0625 -7.4375 1.457031 -7.96875 1.96875 -8.34375 C 2.476562 -8.71875 3.070312 -8.90625 3.75 -8.90625 C 4.34375 -8.90625 4.863281 -8.753906 5.3125 -8.453125 C 5.757812 -8.160156 6.109375 -7.738281 6.359375 -7.1875 L 6.375 -7.1875 L 6.375 -12.5625 L 8.96875 -12.5625 L 8.96875 0 L 6.765625 0 L 6.453125 -1.5 L 6.4375 -1.5 C 6.1875 -0.9375 5.828125 -0.503906 5.359375 -0.203125 C 4.898438 0.0859375 4.375 0.234375 3.78125 0.234375 Z M 4.71875 -1.984375 C 5.25 -1.984375 5.675781 -2.195312 6 -2.625 C 6.320312 -3.050781 6.484375 -3.617188 6.484375 -4.328125 C 6.484375 -5.035156 6.320312 -5.601562 6 -6.03125 C 5.675781 -6.46875 5.25 -6.6875 4.71875 -6.6875 C 4.1875 -6.6875 3.753906 -6.46875 3.421875 -6.03125 C 3.097656 -5.601562 2.9375 -5.035156 2.9375 -4.328125 C 2.9375 -3.617188 3.097656 -3.050781 3.421875 -2.625 C 3.753906 -2.195312 4.1875 -1.984375 4.71875 -1.984375 Z M 4.71875 -1.984375 "/></g></g></g><g fill="#0661aa" fill-opacity="1"><g transform="translate(59.508373, 104.08561)"><g><path d="M 2 -9.84375 C 1.53125 -9.84375 1.15625 -9.976562 0.875 -10.25 C 0.601562 -10.519531 0.46875 -10.878906 0.46875 -11.328125 C 0.46875 -11.773438 0.601562 -12.132812 0.875 -12.40625 C 1.15625 -12.675781 1.53125 -12.8125 2 -12.8125 C 2.457031 -12.8125 2.820312 -12.675781 3.09375 -12.40625 C 3.375 -12.132812 3.515625 -11.773438 3.515625 -11.328125 C 3.515625 -10.878906 3.375 -10.519531 3.09375 -10.25 C 2.820312 -9.976562 2.457031 -9.84375 2 -9.84375 Z M 0.6875 0 L 0.6875 -8.65625 L 3.28125 -8.65625 L 3.28125 0 Z M 0.6875 0 "/></g></g></g><g fill="#0661aa" fill-opacity="1"><g transform="translate(65.496657, 104.08561)"><g><path d="M 4.640625 0.265625 C 3.640625 0.265625 2.875 -0.00390625 2.34375 -0.546875 C 1.8125 -1.085938 1.546875 -1.816406 1.546875 -2.734375 L 1.515625 -6.703125 L 0.0625 -6.703125 L 0.0625 -8.65625 L 1.546875 -8.65625 L 1.546875 -10.96875 L 4.109375 -11.546875 L 4.109375 -8.65625 L 7.078125 -8.65625 L 7.078125 -6.703125 L 4.109375 -6.703125 L 4.125 -3.203125 C 4.125 -2.773438 4.222656 -2.4375 4.421875 -2.1875 C 4.628906 -1.945312 4.90625 -1.828125 5.25 -1.828125 C 5.882812 -1.828125 6.351562 -2.179688 6.65625 -2.890625 L 7.5 -1.3125 C 7.226562 -0.8125 6.835938 -0.421875 6.328125 -0.140625 C 5.828125 0.128906 5.265625 0.265625 4.640625 0.265625 Z M 4.640625 0.265625 "/></g></g></g><g fill="#0661aa" fill-opacity="1"><g transform="translate(75.10443, 104.08561)"><g><path d="M 2 -9.84375 C 1.53125 -9.84375 1.15625 -9.976562 0.875 -10.25 C 0.601562 -10.519531 0.46875 -10.878906 0.46875 -11.328125 C 0.46875 -11.773438 0.601562 -12.132812 0.875 -12.40625 C 1.15625 -12.675781 1.53125 -12.8125 2 -12.8125 C 2.457031 -12.8125 2.820312 -12.675781 3.09375 -12.40625 C 3.375 -12.132812 3.515625 -11.773438 3.515625 -11.328125 C 3.515625 -10.878906 3.375 -10.519531 3.09375 -10.25 C 2.820312 -9.976562 2.457031 -9.84375 2 -9.84375 Z M 0.6875 0 L 0.6875 -8.65625 L 3.28125 -8.65625 L 3.28125 0 Z M 0.6875 0 "/></g></g></g><g fill="#0661aa" fill-opacity="1"><g transform="translate(81.092714, 104.08561)"><g><path d="M 4.75 0.28125 C 3.863281 0.28125 3.085938 0.09375 2.421875 -0.28125 C 1.765625 -0.65625 1.253906 -1.1875 0.890625 -1.875 C 0.535156 -2.570312 0.359375 -3.390625 0.359375 -4.328125 C 0.359375 -5.273438 0.535156 -6.09375 0.890625 -6.78125 C 1.253906 -7.476562 1.765625 -8.015625 2.421875 -8.390625 C 3.085938 -8.773438 3.863281 -8.96875 4.75 -8.96875 C 5.644531 -8.96875 6.421875 -8.773438 7.078125 -8.390625 C 7.734375 -8.015625 8.238281 -7.476562 8.59375 -6.78125 C 8.957031 -6.09375 9.140625 -5.273438 9.140625 -4.328125 C 9.140625 -3.390625 8.957031 -2.570312 8.59375 -1.875 C 8.238281 -1.1875 7.734375 -0.65625 7.078125 -0.28125 C 6.421875 0.09375 5.644531 0.28125 4.75 0.28125 Z M 4.75 -1.875 C 5.3125 -1.875 5.753906 -2.09375 6.078125 -2.53125 C 6.398438 -2.96875 6.5625 -3.566406 6.5625 -4.328125 C 6.5625 -5.097656 6.398438 -5.695312 6.078125 -6.125 C 5.753906 -6.5625 5.3125 -6.78125 4.75 -6.78125 C 4.1875 -6.78125 3.738281 -6.5625 3.40625 -6.125 C 3.082031 -5.695312 2.921875 -5.097656 2.921875 -4.328125 C 2.921875 -3.566406 3.082031 -2.96875 3.40625 -2.53125 C 3.738281 -2.09375 4.1875 -1.875 4.75 -1.875 Z M 4.75 -1.875 "/></g></g></g><g fill="#0661aa" fill-opacity="1"><g transform="translate(92.594795, 104.08561)"><g><path d="M 5.90625 -8.890625 C 6.707031 -8.890625 7.335938 -8.648438 7.796875 -8.171875 C 8.265625 -7.691406 8.5 -7.019531 8.5 -6.15625 L 8.5 0 L 5.90625 0 L 5.90625 -5.5 C 5.90625 -5.90625 5.800781 -6.21875 5.59375 -6.4375 C 5.394531 -6.664062 5.113281 -6.78125 4.75 -6.78125 C 4.289062 -6.78125 3.921875 -6.628906 3.640625 -6.328125 C 3.359375 -6.035156 3.21875 -5.625 3.21875 -5.09375 L 3.21875 0 L 0.640625 0 L 0.640625 -8.65625 L 2.78125 -8.65625 L 3.125 -7.1875 L 3.140625 -7.1875 C 3.398438 -7.726562 3.769531 -8.144531 4.25 -8.4375 C 4.738281 -8.738281 5.289062 -8.890625 5.90625 -8.890625 Z M 5.90625 -8.890625 "/></g></g></g><g fill="#0661aa" fill-opacity="1"><g transform="translate(103.674038, 104.08561)"><g><path d="M 3 0.203125 C 2.175781 0.203125 1.507812 -0.015625 1 -0.453125 C 0.488281 -0.890625 0.234375 -1.484375 0.234375 -2.234375 C 0.234375 -3.023438 0.535156 -3.664062 1.140625 -4.15625 C 1.742188 -4.644531 2.628906 -4.953125 3.796875 -5.078125 L 5.125 -5.234375 C 5.320312 -5.253906 5.476562 -5.316406 5.59375 -5.421875 C 5.707031 -5.535156 5.765625 -5.703125 5.765625 -5.921875 C 5.765625 -6.304688 5.644531 -6.597656 5.40625 -6.796875 C 5.175781 -7.003906 4.867188 -7.109375 4.484375 -7.109375 C 4.046875 -7.109375 3.691406 -6.953125 3.421875 -6.640625 C 3.148438 -6.335938 3.003906 -5.957031 2.984375 -5.5 L 0.53125 -5.859375 C 0.550781 -6.460938 0.726562 -7 1.0625 -7.46875 C 1.394531 -7.9375 1.847656 -8.300781 2.421875 -8.5625 C 3.003906 -8.832031 3.6875 -8.96875 4.46875 -8.96875 C 5.65625 -8.96875 6.59375 -8.65625 7.28125 -8.03125 C 7.96875 -7.414062 8.3125 -6.578125 8.3125 -5.515625 L 8.3125 -2.171875 C 8.3125 -1.785156 8.453125 -1.59375 8.734375 -1.59375 C 8.953125 -1.59375 9.164062 -1.703125 9.375 -1.921875 L 9.9375 -0.546875 C 9.664062 -0.285156 9.335938 -0.09375 8.953125 0.03125 C 8.566406 0.15625 8.1875 0.21875 7.8125 0.21875 C 7.300781 0.21875 6.863281 0.0859375 6.5 -0.171875 C 6.144531 -0.441406 5.925781 -0.78125 5.84375 -1.1875 L 5.796875 -1.40625 L 5.78125 -1.40625 C 5.519531 -0.90625 5.144531 -0.507812 4.65625 -0.21875 C 4.175781 0.0625 3.625 0.203125 3 0.203125 Z M 4.0625 -1.609375 C 4.539062 -1.609375 4.9375 -1.78125 5.25 -2.125 C 5.570312 -2.46875 5.734375 -2.914062 5.734375 -3.46875 L 5.734375 -3.875 L 4.46875 -3.734375 C 3.882812 -3.671875 3.460938 -3.53125 3.203125 -3.3125 C 2.953125 -3.101562 2.828125 -2.851562 2.828125 -2.5625 C 2.828125 -2.269531 2.941406 -2.035156 3.171875 -1.859375 C 3.398438 -1.691406 3.695312 -1.609375 4.0625 -1.609375 Z M 4.0625 -1.609375 "/></g></g></g><g fill="#0661aa" fill-opacity="1"><g transform="translate(115.598957, 104.08561)"><g><path d="M 0.640625 0 L 0.640625 -12.5625 L 3.21875 -12.5625 L 3.21875 0 Z M 0.640625 0 "/></g></g></g><g fill="#0661aa" fill-opacity="1"><g transform="translate(11.96054, 124.241859)"><g><path d="M 0.84375 0 L 0.84375 -12.046875 L 6.375 -12.046875 C 7.644531 -12.046875 8.625 -11.765625 9.3125 -11.203125 C 10.007812 -10.648438 10.359375 -9.851562 10.359375 -8.8125 C 10.359375 -8.132812 10.179688 -7.5625 9.828125 -7.09375 C 9.472656 -6.632812 8.972656 -6.328125 8.328125 -6.171875 L 8.328125 -6.15625 C 9.054688 -6.007812 9.617188 -5.691406 10.015625 -5.203125 C 10.410156 -4.710938 10.609375 -4.082031 10.609375 -3.3125 C 10.609375 -2.269531 10.253906 -1.457031 9.546875 -0.875 C 8.835938 -0.289062 7.828125 0 6.515625 0 Z M 3.734375 -7.0625 L 5.90625 -7.0625 C 6.414062 -7.0625 6.804688 -7.1875 7.078125 -7.4375 C 7.359375 -7.695312 7.5 -8.054688 7.5 -8.515625 C 7.5 -8.972656 7.359375 -9.328125 7.078125 -9.578125 C 6.804688 -9.828125 6.421875 -9.953125 5.921875 -9.953125 L 3.734375 -9.953125 Z M 3.734375 -2.09375 L 5.9375 -2.09375 C 6.5 -2.09375 6.9375 -2.222656 7.25 -2.484375 C 7.5625 -2.753906 7.71875 -3.132812 7.71875 -3.625 C 7.71875 -4.125 7.5625 -4.515625 7.25 -4.796875 C 6.9375 -5.078125 6.5 -5.21875 5.9375 -5.21875 L 3.734375 -5.21875 Z M 3.734375 -2.09375 "/></g></g></g><g fill="#0661aa" fill-opacity="1"><g transform="translate(24.967922, 124.241859)"><g><path d="M 5.3125 -8.90625 C 6.019531 -8.90625 6.585938 -8.640625 7.015625 -8.109375 C 7.453125 -7.578125 7.691406 -6.828125 7.734375 -5.859375 L 5.546875 -5.265625 C 5.535156 -5.828125 5.429688 -6.25 5.234375 -6.53125 C 5.046875 -6.820312 4.796875 -6.96875 4.484375 -6.96875 C 4.097656 -6.96875 3.789062 -6.773438 3.5625 -6.390625 C 3.332031 -6.015625 3.21875 -5.488281 3.21875 -4.8125 L 3.21875 0 L 0.640625 0 L 0.640625 -8.65625 L 2.71875 -8.65625 L 3.078125 -7.171875 L 3.09375 -7.171875 C 3.289062 -7.710938 3.582031 -8.132812 3.96875 -8.4375 C 4.363281 -8.75 4.8125 -8.90625 5.3125 -8.90625 Z M 5.3125 -8.90625 "/></g></g></g><g fill="#0661aa" fill-opacity="1"><g transform="translate(34.846292, 124.241859)"><g><path d="M 5.0625 0.28125 C 4.125 0.28125 3.296875 0.09375 2.578125 -0.28125 C 1.867188 -0.664062 1.320312 -1.210938 0.9375 -1.921875 C 0.550781 -2.628906 0.359375 -3.445312 0.359375 -4.375 C 0.359375 -5.300781 0.535156 -6.101562 0.890625 -6.78125 C 1.242188 -7.46875 1.738281 -8.003906 2.375 -8.390625 C 3.019531 -8.773438 3.78125 -8.96875 4.65625 -8.96875 C 5.488281 -8.96875 6.207031 -8.785156 6.8125 -8.421875 C 7.425781 -8.054688 7.90625 -7.539062 8.25 -6.875 C 8.59375 -6.21875 8.765625 -5.441406 8.765625 -4.546875 C 8.765625 -4.367188 8.753906 -4.195312 8.734375 -4.03125 C 8.722656 -3.875 8.695312 -3.738281 8.65625 -3.625 L 2.9375 -3.625 C 3 -2.988281 3.21875 -2.488281 3.59375 -2.125 C 3.976562 -1.757812 4.472656 -1.578125 5.078125 -1.578125 C 5.535156 -1.578125 5.941406 -1.6875 6.296875 -1.90625 C 6.660156 -2.132812 6.929688 -2.445312 7.109375 -2.84375 L 8.921875 -2.046875 C 8.671875 -1.328125 8.1875 -0.757812 7.46875 -0.34375 C 6.757812 0.0703125 5.957031 0.28125 5.0625 0.28125 Z M 2.9375 -5.09375 L 6.1875 -5.09375 C 6.15625 -5.726562 6.003906 -6.21875 5.734375 -6.5625 C 5.460938 -6.914062 5.097656 -7.09375 4.640625 -7.09375 C 4.148438 -7.09375 3.757812 -6.914062 3.46875 -6.5625 C 3.175781 -6.207031 3 -5.71875 2.9375 -5.09375 Z M 2.9375 -5.09375 "/></g></g></g><g fill="#0661aa" fill-opacity="1"><g transform="translate(46.077754, 124.241859)"><g><path d="M 3 0.203125 C 2.175781 0.203125 1.507812 -0.015625 1 -0.453125 C 0.488281 -0.890625 0.234375 -1.484375 0.234375 -2.234375 C 0.234375 -3.023438 0.535156 -3.664062 1.140625 -4.15625 C 1.742188 -4.644531 2.628906 -4.953125 3.796875 -5.078125 L 5.125 -5.234375 C 5.320312 -5.253906 5.476562 -5.316406 5.59375 -5.421875 C 5.707031 -5.535156 5.765625 -5.703125 5.765625 -5.921875 C 5.765625 -6.304688 5.644531 -6.597656 5.40625 -6.796875 C 5.175781 -7.003906 4.867188 -7.109375 4.484375 -7.109375 C 4.046875 -7.109375 3.691406 -6.953125 3.421875 -6.640625 C 3.148438 -6.335938 3.003906 -5.957031 2.984375 -5.5 L 0.53125 -5.859375 C 0.550781 -6.460938 0.726562 -7 1.0625 -7.46875 C 1.394531 -7.9375 1.847656 -8.300781 2.421875 -8.5625 C 3.003906 -8.832031 3.6875 -8.96875 4.46875 -8.96875 C 5.65625 -8.96875 6.59375 -8.65625 7.28125 -8.03125 C 7.96875 -7.414062 8.3125 -6.578125 8.3125 -5.515625 L 8.3125 -2.171875 C 8.3125 -1.785156 8.453125 -1.59375 8.734375 -1.59375 C 8.953125 -1.59375 9.164062 -1.703125 9.375 -1.921875 L 9.9375 -0.546875 C 9.664062 -0.285156 9.335938 -0.09375 8.953125 0.03125 C 8.566406 0.15625 8.1875 0.21875 7.8125 0.21875 C 7.300781 0.21875 6.863281 0.0859375 6.5 -0.171875 C 6.144531 -0.441406 5.925781 -0.78125 5.84375 -1.1875 L 5.796875 -1.40625 L 5.78125 -1.40625 C 5.519531 -0.90625 5.144531 -0.507812 4.65625 -0.21875 C 4.175781 0.0625 3.625 0.203125 3 0.203125 Z M 4.0625 -1.609375 C 4.539062 -1.609375 4.9375 -1.78125 5.25 -2.125 C 5.570312 -2.46875 5.734375 -2.914062 5.734375 -3.46875 L 5.734375 -3.875 L 4.46875 -3.734375 C 3.882812 -3.671875 3.460938 -3.53125 3.203125 -3.3125 C 2.953125 -3.101562 2.828125 -2.851562 2.828125 -2.5625 C 2.828125 -2.269531 2.941406 -2.035156 3.171875 -1.859375 C 3.398438 -1.691406 3.695312 -1.609375 4.0625 -1.609375 Z M 4.0625 -1.609375 "/></g></g></g><g fill="#0661aa" fill-opacity="1"><g transform="translate(57.021523, 124.241859)"><g><path d="M 4.640625 0.265625 C 3.640625 0.265625 2.875 -0.00390625 2.34375 -0.546875 C 1.8125 -1.085938 1.546875 -1.816406 1.546875 -2.734375 L 1.515625 -6.703125 L 0.0625 -6.703125 L 0.0625 -8.65625 L 1.546875 -8.65625 L 1.546875 -10.96875 L 4.109375 -11.546875 L 4.109375 -8.65625 L 7.078125 -8.65625 L 7.078125 -6.703125 L 4.109375 -6.703125 L 4.125 -3.203125 C 4.125 -2.773438 4.222656 -2.4375 4.421875 -2.1875 C 4.628906 -1.945312 4.90625 -1.828125 5.25 -1.828125 C 5.882812 -1.828125 6.351562 -2.179688 6.65625 -2.890625 L 7.5 -1.3125 C 7.226562 -0.8125 6.835938 -0.421875 6.328125 -0.140625 C 5.828125 0.128906 5.265625 0.265625 4.640625 0.265625 Z M 4.640625 0.265625 "/></g></g></g><g fill="#0661aa" fill-opacity="1"><g transform="translate(66.629297, 124.241859)"><g><path d="M 0.640625 0 L 0.640625 -12.5625 L 3.21875 -12.5625 L 3.21875 -7.1875 L 3.234375 -7.1875 C 3.503906 -7.726562 3.875 -8.144531 4.34375 -8.4375 C 4.8125 -8.738281 5.347656 -8.890625 5.953125 -8.890625 C 6.753906 -8.890625 7.378906 -8.648438 7.828125 -8.171875 C 8.273438 -7.703125 8.5 -7.03125 8.5 -6.15625 L 8.5 0 L 5.90625 0 L 5.90625 -5.5 C 5.90625 -5.90625 5.800781 -6.21875 5.59375 -6.4375 C 5.394531 -6.664062 5.113281 -6.78125 4.75 -6.78125 C 4.289062 -6.78125 3.921875 -6.628906 3.640625 -6.328125 C 3.359375 -6.035156 3.21875 -5.625 3.21875 -5.09375 L 3.21875 0 Z M 0.640625 0 "/></g></g></g><g fill="#0661aa" fill-opacity="1"><g transform="translate(77.336381, 124.241859)"><g><path d="M 2.40625 0 L 0.078125 -8.65625 L 2.6875 -8.65625 L 4.0625 -2.5 L 4.078125 -2.5 L 5.734375 -8.65625 L 8.109375 -8.65625 L 9.796875 -2.453125 L 9.8125 -2.453125 L 11.1875 -8.65625 L 13.78125 -8.65625 L 11.46875 0 L 8.546875 0 L 6.9375 -6 L 6.90625 -6 L 5.328125 0 Z M 2.40625 0 "/></g></g></g><g fill="#0661aa" fill-opacity="1"><g transform="translate(92.813071, 124.241859)"><g><path d="M 4.75 0.28125 C 3.863281 0.28125 3.085938 0.09375 2.421875 -0.28125 C 1.765625 -0.65625 1.253906 -1.1875 0.890625 -1.875 C 0.535156 -2.570312 0.359375 -3.390625 0.359375 -4.328125 C 0.359375 -5.273438 0.535156 -6.09375 0.890625 -6.78125 C 1.253906 -7.476562 1.765625 -8.015625 2.421875 -8.390625 C 3.085938 -8.773438 3.863281 -8.96875 4.75 -8.96875 C 5.644531 -8.96875 6.421875 -8.773438 7.078125 -8.390625 C 7.734375 -8.015625 8.238281 -7.476562 8.59375 -6.78125 C 8.957031 -6.09375 9.140625 -5.273438 9.140625 -4.328125 C 9.140625 -3.390625 8.957031 -2.570312 8.59375 -1.875 C 8.238281 -1.1875 7.734375 -0.65625 7.078125 -0.28125 C 6.421875 0.09375 5.644531 0.28125 4.75 0.28125 Z M 4.75 -1.875 C 5.3125 -1.875 5.753906 -2.09375 6.078125 -2.53125 C 6.398438 -2.96875 6.5625 -3.566406 6.5625 -4.328125 C 6.5625 -5.097656 6.398438 -5.695312 6.078125 -6.125 C 5.753906 -6.5625 5.3125 -6.78125 4.75 -6.78125 C 4.1875 -6.78125 3.738281 -6.5625 3.40625 -6.125 C 3.082031 -5.695312 2.921875 -5.097656 2.921875 -4.328125 C 2.921875 -3.566406 3.082031 -2.96875 3.40625 -2.53125 C 3.738281 -2.09375 4.1875 -1.875 4.75 -1.875 Z M 4.75 -1.875 "/></g></g></g><g fill="#0661aa" fill-opacity="1"><g transform="translate(104.315152, 124.241859)"><g><path d="M 5.3125 -8.90625 C 6.019531 -8.90625 6.585938 -8.640625 7.015625 -8.109375 C 7.453125 -7.578125 7.691406 -6.828125 7.734375 -5.859375 L 5.546875 -5.265625 C 5.535156 -5.828125 5.429688 -6.25 5.234375 -6.53125 C 5.046875 -6.820312 4.796875 -6.96875 4.484375 -6.96875 C 4.097656 -6.96875 3.789062 -6.773438 3.5625 -6.390625 C 3.332031 -6.015625 3.21875 -5.488281 3.21875 -4.8125 L 3.21875 0 L 0.640625 0 L 0.640625 -8.65625 L 2.71875 -8.65625 L 3.078125 -7.171875 L 3.09375 -7.171875 C 3.289062 -7.710938 3.582031 -8.132812 3.96875 -8.4375 C 4.363281 -8.75 4.8125 -8.90625 5.3125 -8.90625 Z M 5.3125 -8.90625 "/></g></g></g><g fill="#0661aa" fill-opacity="1"><g transform="translate(114.278101, 124.241859)"><g><path d="M 0.640625 0 L 0.640625 -12.5625 L 3.21875 -12.5625 L 3.21875 -5.734375 L 3.234375 -5.734375 L 5.734375 -8.65625 L 8.640625 -8.65625 L 5.75 -5.484375 L 8.734375 0 L 5.96875 0 L 4.0625 -3.8125 L 3.21875 -2.875 L 3.21875 0 Z M 0.640625 0 "/></g></g></g><g clip-path="url(#679184f051)"><path fill="#0661aa" d="M 29.40625 59.609375 C 29.464844 59.570312 30.84375 58.707031 33.097656 57.707031 C 35.074219 56.828125 38.101562 55.691406 41.523438 55.125 C 40.300781 51.882812 39.773438 48.691406 39.542969 46.539062 C 39.285156 44.085938 39.34375 42.460938 39.347656 42.390625 C 39.355469 42.164062 39.539062 41.980469 39.765625 41.972656 C 39.878906 41.96875 42.535156 41.871094 46.183594 42.480469 C 48.324219 42.835938 50.359375 43.363281 52.230469 44.046875 C 54.332031 44.816406 56.234375 45.785156 57.890625 46.929688 C 58.25 44.949219 58.910156 42.921875 59.851562 40.890625 C 60.691406 39.085938 61.757812 37.269531 63.019531 35.503906 C 65.167969 32.496094 67.117188 30.683594 67.199219 30.609375 C 67.367188 30.453125 67.625 30.453125 67.792969 30.609375 C 67.875 30.683594 69.820312 32.496094 71.96875 35.503906 C 73.230469 37.269531 74.296875 39.082031 75.136719 40.890625 C 76.082031 42.921875 76.738281 44.949219 77.101562 46.929688 C 78.757812 45.785156 80.65625 44.816406 82.757812 44.046875 C 84.628906 43.363281 86.664062 42.835938 88.808594 42.480469 C 92.453125 41.871094 95.109375 41.96875 95.222656 41.972656 C 95.449219 41.980469 95.632812 42.164062 95.640625 42.390625 C 95.644531 42.460938 95.707031 44.085938 95.445312 46.539062 C 95.214844 48.691406 94.6875 51.882812 93.464844 55.125 C 96.886719 55.691406 99.914062 56.828125 101.890625 57.707031 C 104.144531 58.707031 105.523438 59.574219 105.582031 59.609375 C 105.773438 59.730469 105.839844 59.980469 105.734375 60.179688 C 105.671875 60.300781 104.175781 63.125 101.363281 66.339844 C 99.707031 68.230469 97.945312 69.855469 96.117188 71.171875 C 93.824219 72.828125 91.429688 73.996094 88.992188 74.648438 C 87.296875 75.101562 85.488281 75.332031 83.597656 75.332031 C 82.777344 75.332031 81.9375 75.289062 81.085938 75.199219 C 78.84375 74.972656 76.503906 74.445312 74.125 73.636719 C 70.707031 72.472656 68.242188 71.078125 67.492188 70.632812 C 66.746094 71.078125 64.28125 72.472656 60.863281 73.636719 C 58.484375 74.445312 56.144531 74.972656 53.902344 75.199219 C 53.050781 75.289062 52.210938 75.332031 51.386719 75.332031 C 49.496094 75.332031 47.691406 75.101562 45.996094 74.648438 C 43.558594 73.996094 41.160156 72.828125 38.871094 71.171875 C 37.042969 69.855469 35.277344 68.230469 33.625 66.339844 C 30.816406 63.125 29.316406 60.300781 29.253906 60.179688 C 29.148438 59.980469 29.214844 59.730469 29.40625 59.609375 Z M 74.003906 62.367188 C 72.578125 64.886719 70.976562 66.9375 69.878906 68.21875 C 69.359375 68.824219 68.90625 69.316406 68.554688 69.683594 C 69.824219 69.65625 72.144531 69.527344 74.847656 68.988281 C 78.601562 68.242188 83.890625 66.542969 87.757812 62.675781 C 89.589844 60.84375 91.09375 58.546875 92.242188 55.832031 C 89.320312 55.472656 86.574219 55.625 84.078125 56.296875 C 80.558594 57.238281 77.171875 59.28125 74.003906 62.367188 Z M 60.988281 62.367188 C 57.820312 59.28125 54.429688 57.238281 50.914062 56.296875 C 48.414062 55.625 45.671875 55.472656 42.746094 55.832031 C 43.894531 58.546875 45.402344 60.84375 47.230469 62.675781 C 51.101562 66.542969 56.386719 68.242188 60.140625 68.988281 C 62.847656 69.523438 65.164062 69.65625 66.4375 69.683594 C 66.078125 69.3125 65.613281 68.804688 65.082031 68.183594 C 63.992188 66.910156 62.402344 64.871094 60.988281 62.367188 Z M 46.058594 43.347656 C 43.3125 42.886719 41.097656 42.839844 40.214844 42.839844 C 40.214844 43.472656 40.238281 44.777344 40.417969 46.464844 C 40.644531 48.601562 41.175781 51.78125 42.410156 54.996094 C 45.53125 54.582031 48.46875 54.734375 51.140625 55.449219 C 54.160156 56.261719 57.082031 57.839844 59.851562 60.160156 C 58.328125 56.882812 57.558594 53.652344 57.558594 50.527344 C 57.558594 49.664062 57.617188 48.777344 57.738281 47.894531 C 53.878906 45.109375 49.273438 43.882812 46.058594 43.347656 Z M 71.269531 36.03125 C 69.652344 33.765625 68.121094 32.164062 67.496094 31.539062 C 66.871094 32.164062 65.335938 33.765625 63.71875 36.03125 C 61.796875 38.730469 59.351562 42.953125 58.640625 47.757812 C 58.503906 48.6875 58.433594 49.617188 58.433594 50.527344 C 58.433594 54.183594 59.539062 58.003906 61.71875 61.882812 C 61.71875 61.882812 61.722656 61.886719 61.722656 61.886719 C 61.722656 61.886719 61.722656 61.886719 61.722656 61.890625 C 63.109375 64.351562 64.675781 66.363281 65.746094 67.617188 C 66.523438 68.523438 67.148438 69.167969 67.496094 69.511719 C 67.84375 69.167969 68.46875 68.523438 69.226562 67.636719 C 70.300781 66.378906 71.875 64.363281 73.269531 61.890625 C 73.269531 61.886719 73.269531 61.882812 73.273438 61.882812 C 75.453125 58.003906 76.558594 54.183594 76.558594 50.527344 C 76.558594 49.621094 76.488281 48.6875 76.351562 47.761719 C 76.351562 47.757812 76.351562 47.757812 76.351562 47.757812 C 75.640625 42.957031 73.195312 38.730469 71.269531 36.03125 Z M 94.777344 42.839844 C 93.894531 42.839844 91.679688 42.886719 88.933594 43.347656 C 85.71875 43.882812 81.113281 45.109375 77.253906 47.894531 C 77.375 48.777344 77.433594 49.664062 77.433594 50.527344 C 77.433594 53.652344 76.664062 56.882812 75.140625 60.160156 C 77.910156 57.839844 80.832031 56.261719 83.851562 55.449219 C 86.527344 54.734375 89.460938 54.582031 92.582031 54.996094 C 93.816406 51.78125 94.347656 48.601562 94.574219 46.464844 C 94.757812 44.777344 94.777344 43.472656 94.777344 42.839844 Z M 74.429688 72.816406 C 78.054688 74.050781 83.484375 75.222656 88.769531 73.804688 C 94.054688 72.386719 98.171875 68.660156 100.691406 65.78125 C 102.867188 63.296875 104.265625 61 104.761719 60.136719 C 104.21875 59.820312 103.085938 59.191406 101.539062 58.503906 C 99.574219 57.632812 96.546875 56.496094 93.140625 55.960938 C 91.9375 58.871094 90.335938 61.335938 88.378906 63.292969 C 86.597656 65.074219 84.386719 66.566406 81.804688 67.726562 C 79.753906 68.648438 77.460938 69.363281 74.996094 69.851562 C 72.582031 70.328125 70.496094 70.492188 69.136719 70.546875 C 70.320312 71.167969 72.175781 72.050781 74.429688 72.816406 Z M 34.285156 65.761719 C 36.808594 68.648438 40.929688 72.386719 46.222656 73.804688 C 51.507812 75.222656 56.9375 74.046875 60.558594 72.816406 C 62.816406 72.050781 64.671875 71.167969 65.851562 70.546875 C 64.492188 70.492188 62.410156 70.328125 59.992188 69.851562 C 57.527344 69.363281 55.238281 68.648438 53.183594 67.726562 C 50.605469 66.566406 48.394531 65.078125 46.609375 63.292969 C 44.652344 61.335938 43.054688 58.871094 41.851562 55.960938 C 38.449219 56.496094 35.429688 57.628906 33.46875 58.5 C 31.917969 59.1875 30.773438 59.820312 30.230469 60.136719 C 30.722656 60.996094 32.113281 63.28125 34.285156 65.765625 Z M 34.285156 65.761719 " fill-opacity="1" fill-rule="nonzero"/></g></svg>