<svg xmlns="http://www.w3.org/2000/svg" xmlns:xlink="http://www.w3.org/1999/xlink" width="180" zoomAndPan="magnify" viewBox="0 0 135 119.999999" height="160" preserveAspectRatio="xMidYMid meet" version="1.0"><defs><clipPath id="18bd074156"><path d="M 26.261719 0.984375 L 108.761719 0.984375 L 108.761719 118.734375 L 26.261719 118.734375 Z M 26.261719 0.984375 " clip-rule="nonzero"/></clipPath></defs><rect x="-13.5" width="162" fill="#ffffff" y="-12" height="143.999998" fill-opacity="1"/><rect x="-13.5" width="162" fill="#ffffff" y="-12" height="143.999998" fill-opacity="1"/><g clip-path="url(#18bd074156)"><path fill="#0661aa" d="M 75.890625 41.746094 C 75.039062 43.382812 73.695312 44.71875 72.003906 45.605469 C 69.582031 46.878906 68.078125 49.324219 68.078125 51.996094 L 68.078125 73.484375 C 68.078125 75.246094 69.363281 76.796875 71.136719 77.171875 C 79.453125 78.929688 86.003906 86.421875 86.269531 94.363281 C 82.234375 94.597656 52.753906 94.597656 48.71875 94.363281 C 48.984375 86.421875 55.535156 78.929688 63.851562 77.171875 C 65.625 76.796875 66.910156 75.246094 66.910156 73.484375 L 66.910156 52.035156 C 66.910156 49.351562 65.390625 46.894531 62.945312 45.628906 C 61.238281 44.742188 59.878906 43.398438 59.019531 41.746094 C 58.800781 41.332031 58.820312 40.859375 59.0625 40.457031 C 59.335938 40.007812 59.828125 39.738281 60.378906 39.738281 L 74.53125 39.738281 C 75.082031 39.738281 75.574219 40.007812 75.847656 40.457031 C 76.089844 40.859375 76.109375 41.328125 75.890625 41.746094 Z M 74.53125 38.59375 L 60.378906 38.59375 C 59.425781 38.59375 58.570312 39.070312 58.089844 39.863281 C 57.636719 40.605469 57.605469 41.507812 58.007812 42.273438 C 58.976562 44.136719 60.503906 45.648438 62.421875 46.640625 C 64.484375 47.710938 65.765625 49.777344 65.765625 52.035156 L 65.765625 73.484375 C 65.765625 74.710938 64.863281 75.792969 63.617188 76.054688 C 54.617188 77.957031 47.570312 86.21875 47.570312 94.859375 C 47.570312 95.425781 48.128906 95.464844 48.535156 95.492188 C 48.820312 95.511719 49.242188 95.53125 49.785156 95.546875 C 50.8125 95.578125 52.289062 95.605469 54.179688 95.628906 C 57.695312 95.671875 62.421875 95.695312 67.492188 95.695312 C 72.566406 95.695312 77.292969 95.671875 80.804688 95.628906 C 82.699219 95.605469 84.175781 95.578125 85.203125 95.546875 C 85.746094 95.53125 86.167969 95.511719 86.449219 95.492188 C 86.859375 95.464844 87.417969 95.425781 87.417969 94.859375 C 87.417969 86.21875 80.371094 77.957031 71.371094 76.054688 C 70.125 75.792969 69.21875 74.710938 69.21875 73.484375 L 69.21875 51.996094 C 69.21875 49.75 70.492188 47.691406 72.535156 46.617188 C 74.433594 45.621094 75.945312 44.121094 76.90625 42.273438 C 77.304688 41.503906 77.273438 40.605469 76.824219 39.863281 C 76.339844 39.070312 75.484375 38.59375 74.53125 38.59375 Z M 31.421875 69.976562 L 32.957031 69.976562 L 32.957031 104.089844 L 31.421875 104.089844 Z M 30.28125 105.230469 L 34.097656 105.230469 L 34.097656 68.835938 L 30.28125 68.835938 Z M 32.957031 50.359375 L 31.421875 50.359375 L 31.421875 15.828125 L 32.957031 15.828125 Z M 34.097656 14.6875 L 30.28125 14.6875 L 30.28125 51.5 L 34.097656 51.5 Z M 33.347656 117.863281 L 31.035156 117.863281 C 30.546875 117.863281 30.152344 117.46875 30.152344 116.980469 C 30.152344 116.492188 30.546875 116.097656 31.035156 116.097656 L 33.347656 116.097656 C 33.832031 116.097656 34.230469 116.492188 34.230469 116.980469 C 34.230469 117.46875 33.832031 117.863281 33.347656 117.863281 Z M 33.347656 114.957031 L 31.035156 114.957031 C 29.914062 114.957031 29.007812 115.863281 29.007812 116.980469 C 29.007812 118.097656 29.914062 119.007812 31.035156 119.007812 L 33.347656 119.007812 C 34.464844 119.007812 35.371094 118.097656 35.371094 116.980469 C 35.371094 115.863281 34.464844 114.957031 33.347656 114.957031 Z M 31.035156 2.121094 L 33.347656 2.121094 C 33.832031 2.121094 34.230469 2.519531 34.230469 3.003906 C 34.230469 3.492188 33.832031 3.890625 33.347656 3.890625 L 31.035156 3.890625 C 30.546875 3.890625 30.152344 3.492188 30.152344 3.003906 C 30.152344 2.519531 30.546875 2.121094 31.035156 2.121094 Z M 31.035156 5.03125 L 33.347656 5.03125 C 34.464844 5.03125 35.371094 4.125 35.371094 3.003906 C 35.371094 1.886719 34.464844 0.980469 33.347656 0.980469 L 31.035156 0.980469 C 29.914062 0.980469 29.007812 1.886719 29.007812 3.003906 C 29.007812 4.125 29.914062 5.03125 31.035156 5.03125 Z M 31.035156 64.347656 L 33.347656 64.347656 C 33.832031 64.347656 34.230469 64.742188 34.230469 65.230469 C 34.230469 65.71875 33.832031 66.113281 33.347656 66.113281 L 31.035156 66.113281 C 30.546875 66.113281 30.152344 65.71875 30.152344 65.230469 C 30.152344 64.742188 30.546875 64.347656 31.035156 64.347656 Z M 31.035156 67.253906 L 33.347656 67.253906 C 34.464844 67.253906 35.371094 66.347656 35.371094 65.230469 C 35.371094 64.113281 34.464844 63.207031 33.347656 63.207031 L 31.035156 63.207031 C 29.914062 63.207031 29.007812 64.113281 29.007812 65.230469 C 29.007812 66.347656 29.914062 67.253906 31.035156 67.253906 Z M 31.035156 59.109375 L 33.347656 59.109375 C 33.832031 59.109375 34.230469 59.507812 34.230469 59.992188 C 34.230469 60.480469 33.832031 60.875 33.347656 60.875 L 31.035156 60.875 C 30.546875 60.875 30.152344 60.480469 30.152344 59.992188 C 30.152344 59.507812 30.546875 59.109375 31.035156 59.109375 Z M 31.035156 62.019531 L 33.347656 62.019531 C 34.464844 62.019531 35.371094 61.109375 35.371094 59.992188 C 35.371094 58.875 34.464844 57.96875 33.347656 57.96875 L 31.035156 57.96875 C 29.914062 57.96875 29.007812 58.875 29.007812 59.992188 C 29.007812 61.109375 29.914062 62.019531 31.035156 62.019531 Z M 31.035156 53.871094 L 33.347656 53.871094 C 33.832031 53.871094 34.230469 54.269531 34.230469 54.753906 C 34.230469 55.242188 33.832031 55.636719 33.347656 55.636719 L 31.035156 55.636719 C 30.546875 55.636719 30.152344 55.242188 30.152344 54.753906 C 30.152344 54.269531 30.546875 53.871094 31.035156 53.871094 Z M 29.007812 54.753906 C 29.007812 55.875 29.914062 56.78125 31.035156 56.78125 L 33.347656 56.78125 C 34.464844 56.78125 35.371094 55.875 35.371094 54.753906 C 35.371094 53.636719 34.464844 52.730469 33.347656 52.730469 L 31.035156 52.730469 C 29.914062 52.730469 29.007812 53.636719 29.007812 54.753906 Z M 102.027344 69.976562 L 103.5625 69.976562 L 103.5625 104.089844 L 102.027344 104.089844 Z M 100.886719 105.230469 L 104.707031 105.230469 L 104.707031 68.835938 L 100.886719 68.835938 Z M 103.5625 50.128906 L 102.027344 50.128906 L 102.027344 15.828125 L 103.5625 15.828125 Z M 104.707031 14.6875 L 100.886719 14.6875 L 100.886719 51.273438 L 104.707031 51.273438 Z M 103.953125 117.863281 L 101.640625 117.863281 C 101.152344 117.863281 100.757812 117.46875 100.757812 116.980469 C 100.757812 116.492188 101.152344 116.097656 101.640625 116.097656 L 103.953125 116.097656 C 104.441406 116.097656 104.835938 116.492188 104.835938 116.980469 C 104.835938 117.46875 104.441406 117.863281 103.953125 117.863281 Z M 103.953125 114.957031 L 101.640625 114.957031 C 100.519531 114.957031 99.613281 115.863281 99.613281 116.980469 C 99.613281 118.097656 100.519531 119.007812 101.640625 119.007812 L 103.953125 119.007812 C 105.070312 119.007812 105.976562 118.097656 105.976562 116.980469 C 105.976562 115.863281 105.070312 114.957031 103.953125 114.957031 Z M 101.640625 2.121094 L 103.953125 2.121094 C 104.441406 2.121094 104.835938 2.519531 104.835938 3.003906 C 104.835938 3.492188 104.441406 3.890625 103.953125 3.890625 L 101.640625 3.890625 C 101.152344 3.890625 100.757812 3.492188 100.757812 3.003906 C 100.757812 2.519531 101.152344 2.121094 101.640625 2.121094 Z M 101.640625 5.03125 L 103.953125 5.03125 C 105.070312 5.03125 105.976562 4.125 105.976562 3.003906 C 105.976562 1.886719 105.070312 0.980469 103.953125 0.980469 L 101.640625 0.980469 C 100.519531 0.980469 99.613281 1.886719 99.613281 3.003906 C 99.613281 4.125 100.519531 5.03125 101.640625 5.03125 Z M 101.640625 64.347656 L 103.953125 64.347656 C 104.441406 64.347656 104.835938 64.742188 104.835938 65.230469 C 104.835938 65.71875 104.441406 66.113281 103.953125 66.113281 L 101.640625 66.113281 C 101.152344 66.113281 100.757812 65.71875 100.757812 65.230469 C 100.757812 64.742188 101.152344 64.347656 101.640625 64.347656 Z M 101.640625 67.253906 L 103.953125 67.253906 C 105.070312 67.253906 105.976562 66.347656 105.976562 65.230469 C 105.976562 64.113281 105.070312 63.207031 103.953125 63.207031 L 101.640625 63.207031 C 100.519531 63.207031 99.613281 64.113281 99.613281 65.230469 C 99.613281 66.347656 100.519531 67.253906 101.640625 67.253906 Z M 101.640625 59.109375 L 103.953125 59.109375 C 104.441406 59.109375 104.835938 59.507812 104.835938 59.992188 C 104.835938 60.480469 104.441406 60.875 103.953125 60.875 L 101.640625 60.875 C 101.152344 60.875 100.757812 60.480469 100.757812 59.992188 C 100.757812 59.507812 101.152344 59.109375 101.640625 59.109375 Z M 101.640625 62.019531 L 103.953125 62.019531 C 105.070312 62.019531 105.976562 61.109375 105.976562 59.992188 C 105.976562 58.875 105.070312 57.96875 103.953125 57.96875 L 101.640625 57.96875 C 100.519531 57.96875 99.613281 58.875 99.613281 59.992188 C 99.613281 61.109375 100.519531 62.019531 101.640625 62.019531 Z M 101.640625 53.871094 L 103.953125 53.871094 C 104.441406 53.871094 104.835938 54.269531 104.835938 54.753906 C 104.835938 55.242188 104.441406 55.636719 103.953125 55.636719 L 101.640625 55.636719 C 101.152344 55.636719 100.757812 55.242188 100.757812 54.753906 C 100.757812 54.269531 101.152344 53.871094 101.640625 53.871094 Z M 99.613281 54.753906 C 99.613281 55.875 100.519531 56.78125 101.640625 56.78125 L 103.953125 56.78125 C 105.070312 56.78125 105.976562 55.875 105.976562 54.753906 C 105.976562 53.636719 105.070312 52.730469 103.953125 52.730469 L 101.640625 52.730469 C 100.519531 52.730469 99.613281 53.636719 99.613281 54.753906 Z M 40.328125 103.398438 C 40.328125 101.382812 41.96875 99.742188 43.984375 99.742188 L 91.003906 99.742188 C 93.019531 99.742188 94.65625 101.382812 94.65625 103.398438 L 94.65625 104.042969 L 40.328125 104.042969 Z M 39.1875 105.183594 L 95.800781 105.183594 L 95.800781 103.398438 C 95.800781 100.753906 93.648438 98.601562 91.003906 98.601562 L 43.984375 98.601562 C 41.339844 98.601562 39.1875 100.753906 39.1875 103.398438 Z M 107.566406 112.246094 C 107.566406 112.597656 107.28125 112.886719 106.925781 112.886719 L 28.058594 112.886719 C 27.707031 112.886719 27.417969 112.597656 27.417969 112.246094 L 27.417969 107.542969 C 27.417969 107.191406 27.707031 106.902344 28.058594 106.902344 L 106.925781 106.902344 C 107.28125 106.902344 107.566406 107.191406 107.566406 107.542969 Z M 106.925781 105.761719 L 28.058594 105.761719 C 27.078125 105.761719 26.277344 106.5625 26.277344 107.542969 L 26.277344 112.246094 C 26.277344 113.226562 27.078125 114.027344 28.058594 114.027344 L 106.925781 114.027344 C 107.910156 114.027344 108.710938 113.226562 108.710938 112.246094 L 108.710938 107.542969 C 108.710938 106.5625 107.910156 105.761719 106.925781 105.761719 Z M 91.003906 20.242188 L 43.984375 20.242188 C 41.96875 20.242188 40.328125 18.601562 40.328125 16.585938 L 40.328125 15.941406 L 94.65625 15.941406 L 94.65625 16.585938 C 94.65625 18.601562 93.019531 20.242188 91.003906 20.242188 Z M 95.800781 16.585938 L 95.800781 14.800781 L 39.1875 14.800781 L 39.1875 16.585938 C 39.1875 19.234375 41.339844 21.382812 43.984375 21.382812 L 91.003906 21.382812 C 93.648438 21.382812 95.800781 19.234375 95.800781 16.585938 Z M 107.566406 12.441406 C 107.566406 12.796875 107.28125 13.082031 106.925781 13.082031 L 28.058594 13.082031 C 27.707031 13.082031 27.417969 12.796875 27.417969 12.441406 L 27.417969 7.742188 C 27.417969 7.386719 27.707031 7.101562 28.058594 7.101562 L 106.925781 7.101562 C 107.28125 7.101562 107.566406 7.386719 107.566406 7.742188 Z M 106.925781 5.957031 L 28.058594 5.957031 C 27.078125 5.957031 26.277344 6.757812 26.277344 7.742188 L 26.277344 12.441406 C 26.277344 13.425781 27.078125 14.222656 28.058594 14.222656 L 106.925781 14.222656 C 107.910156 14.222656 108.710938 13.425781 108.710938 12.441406 L 108.710938 7.742188 C 108.710938 6.757812 107.910156 5.957031 106.925781 5.957031 Z M 75.4375 67.894531 C 76.492188 69.570312 77.988281 71.488281 79.574219 73.519531 C 84.304688 79.589844 90.199219 87.144531 90.199219 95.464844 L 90.199219 96.722656 L 44.785156 96.722656 L 44.785156 95.464844 C 44.789062 87.144531 50.679688 79.589844 55.414062 73.519531 C 56.996094 71.488281 58.492188 69.570312 59.550781 67.894531 C 62.574219 63.09375 62.574219 56.890625 59.550781 52.089844 C 58.492188 50.414062 57 48.5 55.414062 46.464844 C 50.679688 40.394531 44.789062 32.839844 44.785156 24.519531 L 44.785156 23.261719 L 90.199219 23.261719 L 90.199219 24.519531 C 90.199219 32.839844 84.304688 40.394531 79.574219 46.464844 C 77.988281 48.496094 76.496094 50.414062 75.4375 52.089844 C 72.414062 56.890625 72.414062 63.09375 75.4375 67.894531 Z M 80.472656 47.167969 C 85.3125 40.960938 91.339844 33.230469 91.34375 24.519531 L 91.34375 22.121094 L 43.644531 22.121094 L 43.644531 24.519531 C 43.648438 33.234375 49.671875 40.960938 54.515625 47.171875 C 56.082031 49.175781 57.558594 51.074219 58.582031 52.699219 C 61.375 57.128906 61.375 62.855469 58.582031 67.285156 C 57.558594 68.914062 56.078125 70.808594 54.515625 72.816406 C 49.671875 79.027344 43.648438 86.753906 43.644531 95.464844 L 43.644531 97.863281 L 91.34375 97.863281 L 91.34375 95.464844 C 91.339844 86.753906 85.3125 79.027344 80.472656 72.816406 C 78.90625 70.808594 77.429688 68.914062 76.40625 67.285156 C 73.613281 62.855469 73.613281 57.128906 76.40625 52.699219 C 77.429688 51.070312 78.90625 49.175781 80.472656 47.167969 " fill-opacity="1" fill-rule="nonzero"/></g></svg>