<svg xmlns="http://www.w3.org/2000/svg" xmlns:xlink="http://www.w3.org/1999/xlink" width="180" zoomAndPan="magnify" viewBox="0 0 135 119.999999" height="160" preserveAspectRatio="xMidYMid meet" version="1.0"><defs><clipPath id="b35ff0f890"><path d="M 9.675781 0 L 125.175781 0 L 125.175781 120 L 9.675781 120 Z M 9.675781 0 " clip-rule="nonzero"/></clipPath></defs><rect x="-13.5" width="162" fill="#ffffff" y="-12" height="143.999998" fill-opacity="1"/><rect x="-13.5" width="162" fill="#ffffff" y="-12" height="143.999998" fill-opacity="1"/><g clip-path="url(#b35ff0f890)"><path fill="#0661aa" d="M 120.152344 101.738281 C 120.601562 104.796875 119.929688 107.628906 117.917969 110.160156 C 113.222656 116.347656 102.863281 118.957031 98.015625 119.476562 C 95.410156 119.777344 92.726562 119.703125 90.191406 119.703125 C 88.925781 119.703125 87.582031 119.703125 86.242188 119.703125 C 82.214844 119.777344 78.117188 119.777344 74.167969 119.851562 L 73.570312 119.851562 C 70.8125 119.851562 68.128906 119.925781 65.371094 119.925781 C 61.792969 120 58.214844 120 54.636719 120 C 50.6875 120 46.8125 119.925781 42.863281 119.777344 C 35.78125 119.402344 29.96875 118.0625 25.273438 115.527344 C 17.667969 111.429688 14.167969 106.808594 14.910156 101.8125 C 15.058594 100.992188 15.804688 100.472656 16.625 100.546875 C 17.445312 100.695312 17.96875 101.441406 17.894531 102.261719 C 17.371094 105.914062 20.351562 109.492188 26.761719 112.917969 C 31.085938 115.230469 36.453125 116.496094 43.085938 116.796875 C 50.464844 117.167969 58.066406 117.019531 65.371094 116.945312 C 68.128906 116.871094 70.886719 116.871094 73.570312 116.871094 L 74.167969 116.871094 C 78.117188 116.871094 82.140625 116.796875 86.167969 116.71875 C 87.507812 116.71875 88.925781 116.71875 90.191406 116.71875 C 92.726562 116.71875 95.183594 116.796875 97.644531 116.496094 C 102.710938 115.902344 111.730469 113.292969 115.53125 108.296875 C 116.949219 106.359375 117.546875 104.347656 117.171875 102.113281 C 117.023438 101.292969 117.621094 100.546875 118.4375 100.398438 C 119.257812 100.324219 120.003906 100.917969 120.152344 101.738281 Z M 48.453125 95.554688 C 47.257812 95.402344 45.320312 95.105469 43.011719 94.882812 C 42.191406 94.808594 41.445312 95.328125 41.371094 96.148438 C 41.296875 96.96875 41.816406 97.714844 42.636719 97.789062 C 45.695312 98.160156 48.152344 98.460938 48.972656 98.609375 C 54.9375 102.039062 61.121094 105.09375 67.457031 107.628906 C 73.941406 110.234375 80.726562 112.472656 87.507812 114.113281 C 87.65625 114.113281 87.730469 114.1875 87.878906 114.1875 C 88.550781 114.1875 89.148438 113.738281 89.296875 113.066406 C 89.519531 112.25 89 111.429688 88.179688 111.28125 C 81.546875 109.640625 74.910156 107.476562 68.5 104.945312 C 62.613281 102.558594 56.800781 99.800781 51.210938 96.597656 L 52.179688 93.765625 C 54.5625 86.832031 54.042969 79.304688 53.519531 72.074219 L 53.445312 71.03125 C 53.371094 70.210938 52.699219 69.613281 51.878906 69.613281 C 51.058594 69.691406 50.464844 70.359375 50.464844 71.179688 L 50.539062 72.222656 C 50.984375 79.15625 51.507812 86.3125 49.347656 92.71875 Z M 124.925781 93.464844 C 124.773438 93.839844 124.476562 94.210938 124.105469 94.359375 L 117.394531 96.96875 C 117.246094 97.042969 117.023438 97.042969 116.875 97.042969 C 116.652344 97.042969 116.351562 96.96875 116.128906 96.894531 L 106.589844 91.75 C 106.4375 91.675781 106.214844 91.527344 106.140625 91.378906 C 104.054688 88.695312 101.296875 85.339844 99.359375 83.03125 C 95.484375 78.410156 93.171875 72.597656 92.875 66.558594 C 92.574219 59.253906 92.054688 53.367188 91.457031 49.117188 C 90.863281 44.871094 89.445312 42.335938 86.910156 41.21875 C 85.273438 40.472656 83.332031 40.175781 81.394531 39.949219 C 80.054688 39.726562 78.636719 39.578125 77.222656 39.203125 C 75.953125 38.90625 72.152344 37.863281 72.152344 33.539062 C 72.152344 33.316406 72.152344 33.019531 72.226562 32.796875 C 71.035156 33.464844 69.621094 33.914062 67.90625 33.988281 C 67.757812 33.988281 67.679688 33.988281 67.53125 33.988281 C 65.894531 33.988281 64.253906 33.539062 62.835938 32.796875 C 62.835938 33.019531 62.835938 33.316406 62.835938 33.539062 C 62.910156 37.863281 59.035156 38.90625 57.769531 39.203125 C 56.351562 39.578125 54.9375 39.800781 53.59375 39.949219 C 51.582031 40.25 49.71875 40.472656 48.078125 41.21875 C 45.546875 42.335938 44.128906 44.871094 43.53125 49.117188 C 42.9375 53.441406 42.488281 59.253906 42.117188 66.558594 C 41.816406 72.597656 39.582031 78.410156 35.632812 83.03125 C 33.695312 85.339844 30.9375 88.695312 28.847656 91.378906 C 28.699219 91.527344 28.550781 91.675781 28.402344 91.75 L 18.863281 96.894531 C 18.636719 97.042969 18.414062 97.042969 18.117188 97.042969 C 17.96875 97.042969 17.742188 97.042969 17.59375 96.96875 L 10.886719 94.359375 C 10.515625 94.210938 10.214844 93.914062 10.066406 93.464844 C 9.917969 93.09375 9.917969 92.644531 10.140625 92.273438 L 13.273438 86.160156 C 13.644531 85.417969 14.539062 85.117188 15.285156 85.492188 C 16.03125 85.863281 16.328125 86.757812 15.953125 87.503906 L 13.570312 92.125 L 18.042969 93.839844 L 20.652344 92.421875 L 18.117188 90.335938 C 17.445312 89.8125 17.371094 88.84375 17.894531 88.25 C 18.414062 87.578125 19.382812 87.503906 19.980469 88.023438 L 23.484375 90.855469 L 26.6875 89.144531 C 28.773438 86.460938 31.457031 83.179688 33.394531 80.945312 C 36.898438 76.84375 38.910156 71.628906 39.136719 66.261719 C 39.65625 58.957031 40.105469 52.992188 40.699219 48.597656 C 41.445312 43.304688 43.457031 39.949219 46.960938 38.386719 C 49.046875 37.417969 51.210938 37.117188 53.296875 36.820312 C 54.636719 36.671875 55.90625 36.445312 57.097656 36.148438 C 59.484375 35.476562 59.929688 34.660156 59.929688 33.390625 C 59.929688 31.902344 59.484375 30.1875 58.664062 28.398438 C 58.664062 28.324219 58.664062 28.324219 58.589844 28.25 C 56.054688 22.957031 56.054688 15.203125 56.054688 14.90625 C 56.054688 14.386719 56.054688 13.789062 56.054688 13.265625 C 56.054688 12.523438 56.128906 11.851562 56.203125 11.179688 C 56.425781 8.71875 57.171875 6.558594 58.4375 4.84375 C 59.183594 3.800781 60.152344 2.832031 61.195312 2.160156 C 61.195312 2.160156 61.195312 2.160156 61.273438 2.160156 C 64.328125 0 67.605469 0.148438 68.875 0.296875 C 70.886719 0.523438 72.304688 1.265625 72.675781 1.492188 C 73.046875 1.714844 73.421875 1.9375 73.792969 2.160156 C 77.445312 4.695312 78.710938 9.316406 78.863281 10.808594 C 79.011719 11.925781 79.011719 13.191406 79.011719 14.535156 C 79.011719 14.980469 79.011719 15.429688 79.011719 15.875 L 79.011719 15.949219 C 79.011719 16.25 78.9375 23.554688 76.476562 28.472656 C 76.476562 28.472656 76.476562 28.546875 76.402344 28.546875 C 75.878906 29.8125 75.210938 31.675781 75.136719 33.539062 C 75.136719 34.808594 75.582031 35.703125 77.96875 36.296875 C 79.160156 36.597656 80.425781 36.820312 81.769531 36.96875 C 83.855469 37.265625 86.015625 37.566406 88.105469 38.535156 C 91.605469 40.097656 93.621094 43.453125 94.363281 48.746094 C 94.960938 53.144531 95.484375 59.105469 95.78125 66.484375 C 96.003906 71.851562 98.089844 77.066406 101.519531 81.167969 C 103.382812 83.402344 106.140625 86.683594 108.226562 89.367188 L 111.433594 91.082031 L 114.9375 88.25 C 115.605469 87.726562 116.5 87.800781 117.023438 88.472656 C 117.546875 89.144531 117.46875 90.039062 116.800781 90.558594 L 114.265625 92.644531 L 116.875 94.0625 L 121.347656 92.347656 L 118.960938 87.726562 C 118.589844 86.980469 118.886719 86.085938 119.632812 85.714844 C 120.378906 85.339844 121.273438 85.640625 121.644531 86.386719 L 124.773438 92.496094 C 125.074219 92.644531 125.074219 93.09375 124.925781 93.464844 Z M 73.71875 27.128906 C 73.71875 27.054688 73.71875 27.054688 73.792969 27.054688 C 75.953125 22.734375 76.03125 15.875 76.03125 15.800781 L 76.03125 15.652344 C 76.03125 15.203125 76.03125 14.832031 76.03125 14.386719 C 76.03125 13.117188 75.953125 12 75.878906 10.957031 C 75.878906 10.882812 75.285156 6.632812 72.078125 4.398438 C 71.855469 4.25 71.558594 4.023438 71.257812 3.875 C 71.035156 3.726562 70.066406 3.203125 68.5 3.054688 C 67.757812 2.980469 65.222656 2.832031 62.910156 4.472656 C 62.910156 4.472656 62.910156 4.472656 62.835938 4.472656 C 62.089844 4.992188 61.421875 5.664062 60.824219 6.484375 C 59.855469 7.824219 59.332031 9.464844 59.109375 11.402344 C 59.035156 12 59.035156 12.671875 59.035156 13.339844 C 59.035156 13.863281 59.035156 14.386719 59.035156 14.832031 C 59.035156 14.980469 59.035156 22.359375 61.347656 27.054688 L 61.421875 27.203125 C 62.761719 29.515625 65.222656 30.933594 67.832031 30.855469 C 71.558594 30.707031 73.570312 27.429688 73.71875 27.128906 Z M 102.710938 95.476562 C 103.011719 95.703125 103.308594 95.777344 103.605469 95.777344 C 104.054688 95.777344 104.5 95.554688 104.800781 95.179688 C 105.320312 94.507812 105.171875 93.613281 104.5 93.09375 L 92.5 84 C 91.832031 83.476562 90.9375 83.628906 90.414062 84.296875 C 89.894531 84.96875 90.042969 85.863281 90.710938 86.386719 Z M 42.636719 83.925781 L 30.636719 93.019531 C 29.96875 93.539062 29.816406 94.433594 30.339844 95.105469 C 30.636719 95.476562 31.085938 95.703125 31.53125 95.703125 C 31.832031 95.703125 32.128906 95.628906 32.425781 95.402344 L 44.425781 86.3125 C 45.097656 85.789062 45.246094 84.894531 44.726562 84.222656 C 44.203125 83.628906 43.308594 83.476562 42.636719 83.925781 Z M 73.273438 103.378906 C 73.496094 103.902344 74.089844 104.199219 74.613281 104.199219 C 74.835938 104.199219 75.058594 104.125 75.285156 104.050781 L 86.6875 98.535156 C 87.433594 98.460938 90.042969 98.085938 93.394531 97.714844 C 94.214844 97.640625 94.8125 96.894531 94.738281 96.074219 C 94.664062 95.253906 93.917969 94.660156 93.097656 94.808594 C 90.117188 95.179688 87.730469 95.476562 86.6875 95.628906 L 86.089844 93.914062 C 83.929688 87.429688 84.152344 78.484375 84.675781 70.660156 C 84.75 69.839844 84.078125 69.09375 83.257812 69.09375 C 82.4375 69.019531 81.695312 69.691406 81.695312 70.507812 C 81.097656 79.082031 80.875 88.023438 83.257812 94.957031 L 83.855469 96.746094 L 73.941406 101.441406 C 73.273438 101.8125 72.898438 102.632812 73.273438 103.378906 Z M 73.273438 103.378906 " fill-opacity="1" fill-rule="nonzero"/></g></svg>