<svg xmlns="http://www.w3.org/2000/svg" xmlns:xlink="http://www.w3.org/1999/xlink" width="177" zoomAndPan="magnify" viewBox="0 0 132.75 119.999999" height="160" preserveAspectRatio="xMidYMid meet" version="1.0"><defs><clipPath id="3d140638b0"><path d="M 132 80 L 132.5 80 L 132.5 82 L 132 82 Z M 132 80 " clip-rule="nonzero"/></clipPath></defs><path fill="#0661aa" d="M 69.3125 49.675781 C 65.992188 49.546875 62.457031 49.742188 59.175781 50.234375 C 57.296875 50.511719 55.453125 51.066406 53.847656 52.09375 C 49.078125 55.148438 47.695312 56.277344 49.089844 64.53125 C 49.355469 66.09375 49.261719 67.667969 49.222656 69.253906 C 49.175781 71.101562 49.191406 72.957031 49.25 74.808594 C 49 77.503906 48.863281 79.941406 52.066406 80.488281 C 53.355469 80.707031 54.824219 80.066406 55.964844 79.550781 C 57.441406 78.878906 58.730469 78.460938 60.371094 78.4375 C 62.25 78.40625 64.128906 78.789062 65.992188 78.988281 C 67.457031 79.144531 69.792969 79.136719 70.730469 77.898438 C 71.589844 77.359375 72.023438 75.585938 72.269531 74.851562 C 72.792969 73.289062 73.652344 71.832031 74.054688 70.230469 C 74.386719 68.90625 73.949219 68.121094 73.921875 66.957031 C 73.882812 65.226562 74.128906 63.496094 74.425781 61.765625 C 74.640625 60.519531 74.742188 59.242188 74.890625 57.984375 C 75.027344 56.785156 75.359375 55.625 75.4375 54.417969 C 75.6875 50.734375 72.339844 49.792969 69.3125 49.675781 Z M 70.714844 63.992188 C 70.503906 65.386719 70.445312 66.792969 70.296875 68.195312 C 70 71.003906 70.011719 73.898438 70.246094 76.71875 C 70.238281 76.746094 70.230469 76.773438 70.222656 76.800781 C 70.1875 76.894531 70.136719 77.03125 70.074219 77.1875 C 69.671875 77.601562 69.265625 77.921875 68.484375 78.050781 C 67.582031 78.203125 66.578125 78.136719 65.667969 78.039062 C 63.324219 77.792969 60.992188 77.339844 58.625 77.644531 C 56.304688 77.941406 54.375 79.976562 51.949219 79.566406 C 49 79.066406 50.042969 73.074219 50.082031 71.050781 C 50.136719 68.207031 50.144531 65.488281 49.839844 62.652344 C 49.691406 61.253906 49.359375 59.453125 49.984375 58.132812 C 50.433594 57.191406 51.472656 56.738281 52.402344 56.421875 C 54.910156 55.574219 57.824219 56.09375 60.425781 56.109375 C 62.875 56.125 65.328125 56.097656 67.777344 56.109375 C 68.671875 56.117188 69.640625 56.144531 70.453125 56.5625 C 71.632812 57.167969 71.320312 59.234375 71.238281 60.304688 C 71.144531 61.542969 70.902344 62.769531 70.714844 63.992188 Z M 74.140625 56.566406 C 73.667969 58.648438 73.585938 60.855469 73.253906 62.972656 C 72.945312 64.953125 73.375 66.960938 73.171875 68.949219 C 72.996094 70.691406 72.308594 72.394531 71.761719 74.046875 C 71.605469 74.519531 71.414062 75.601562 71.105469 76.476562 C 71.089844 76.453125 71.070312 76.433594 71.046875 76.417969 C 70.949219 73.390625 70.9375 70.398438 71.335938 67.378906 C 71.53125 65.882812 71.613281 64.386719 71.855469 62.890625 C 72.082031 61.496094 72.316406 60.074219 72.246094 58.65625 C 72.132812 56.433594 71.175781 55.441406 68.960938 55.199219 C 66.148438 54.886719 63.296875 55.128906 60.476562 55.144531 C 58.15625 55.160156 54.328125 54.675781 51.671875 55.628906 C 52.367188 54.769531 53.050781 53.894531 53.902344 53.1875 C 55.410156 51.9375 57.480469 51.488281 59.363281 51.179688 C 62.394531 50.679688 65.609375 50.617188 68.683594 50.625 C 70.140625 50.628906 71.726562 50.71875 73.039062 51.402344 C 74.96875 52.410156 74.542969 54.800781 74.140625 56.566406 " fill-opacity="1" fill-rule="nonzero"/><path fill="#0661aa" d="M 73.328125 52.546875 C 72.902344 52.625 72.71875 53.132812 72.503906 53.453125 C 72.25 53.835938 72.003906 54.230469 71.667969 54.546875 C 71.550781 54.660156 71.675781 54.851562 71.820312 54.757812 C 72.214844 54.492188 72.539062 54.191406 72.859375 53.839844 C 73.125 53.550781 73.574219 53.136719 73.53125 52.703125 C 73.519531 52.597656 73.441406 52.523438 73.328125 52.546875 " fill-opacity="1" fill-rule="nonzero"/><path fill="#0661aa" d="M 63.3125 63.183594 C 62.152344 63.75 61.097656 64.5625 59.984375 65.222656 C 58.777344 65.9375 57.757812 67.160156 56.398438 67.574219 C 56.269531 67.613281 56.289062 67.832031 56.429688 67.8125 C 57.632812 67.65625 58.539062 66.753906 59.484375 66.074219 C 60.785156 65.132812 62.40625 64.679688 63.46875 63.40625 C 63.566406 63.289062 63.460938 63.109375 63.3125 63.183594 " fill-opacity="1" fill-rule="nonzero"/><path fill="#0661aa" d="M 61.632812 62.835938 C 60.164062 63.433594 59.164062 64.746094 57.597656 65.179688 C 57.347656 65.25 57.445312 65.636719 57.695312 65.574219 C 59.230469 65.191406 60.644531 64.105469 61.753906 63.007812 C 61.832031 62.933594 61.726562 62.796875 61.632812 62.835938 " fill-opacity="1" fill-rule="nonzero"/><path fill="#0661aa" d="M 62.34375 65.148438 C 60.589844 66.191406 58.933594 67.324219 57.441406 68.71875 C 57.351562 68.804688 57.492188 68.949219 57.589844 68.878906 C 58.378906 68.292969 59.160156 67.695312 59.964844 67.132812 C 60.839844 66.515625 61.863281 66.242188 62.503906 65.316406 C 62.570312 65.21875 62.445312 65.089844 62.34375 65.148438 " fill-opacity="1" fill-rule="nonzero"/><path fill="#0661aa" d="M 63.226562 66.113281 C 62.351562 66.292969 61.648438 66.953125 60.945312 67.472656 C 60.085938 68.105469 59.25 68.738281 58.4375 69.433594 C 58.328125 69.523438 58.453125 69.699219 58.566406 69.609375 C 60.078125 68.414062 61.839844 67.535156 63.332031 66.316406 C 63.429688 66.238281 63.339844 66.09375 63.226562 66.113281 " fill-opacity="1" fill-rule="nonzero"/><path fill="#0661aa" d="M 62.816406 67.585938 C 61.667969 68.265625 60.492188 68.996094 59.402344 69.765625 C 59.253906 69.867188 59.390625 70.105469 59.546875 70.007812 C 60.6875 69.320312 62.125 68.835938 62.984375 67.777344 C 63.078125 67.660156 62.941406 67.515625 62.816406 67.585938 " fill-opacity="1" fill-rule="nonzero"/><path fill="#0661aa" d="M 62.945312 68.839844 C 62.0625 69.597656 61.234375 70.363281 60.253906 71 C 60.113281 71.089844 60.265625 71.296875 60.40625 71.210938 C 61.382812 70.609375 62.453125 69.945312 63.089844 68.964844 C 63.152344 68.871094 63.03125 68.765625 62.945312 68.839844 " fill-opacity="1" fill-rule="nonzero"/><path fill="#0661aa" d="M 54.8125 78.714844 C 54.761719 78.636719 54.710938 78.617188 54.621094 78.597656 C 54.453125 78.554688 54.292969 78.5 54.132812 78.417969 C 53.933594 78.316406 53.730469 78.199219 53.503906 78.171875 C 53.398438 78.160156 53.367188 78.285156 53.398438 78.359375 C 53.449219 78.464844 53.476562 78.515625 53.570312 78.601562 C 53.621094 78.648438 53.675781 78.621094 53.699219 78.574219 C 54.054688 78.816406 54.597656 79.136719 54.808594 78.851562 C 54.839844 78.808594 54.839844 78.761719 54.8125 78.714844 " fill-opacity="1" fill-rule="nonzero"/><path fill="#0661aa" d="M 55.730469 78.253906 C 55.398438 78.054688 54.984375 77.984375 54.6875 77.726562 C 54.578125 77.632812 54.402344 77.777344 54.515625 77.886719 C 54.722656 78.09375 55.003906 78.210938 55.261719 78.347656 C 55.363281 78.398438 55.773438 78.695312 55.792969 78.394531 C 55.796875 78.34375 55.777344 78.28125 55.730469 78.253906 " fill-opacity="1" fill-rule="nonzero"/><path fill="#0661aa" d="M 56.976562 78.113281 C 56.515625 77.734375 55.96875 77.492188 55.460938 77.179688 C 54.949219 76.863281 54.480469 76.410156 53.890625 76.238281 C 53.773438 76.207031 53.710938 76.394531 53.824219 76.441406 C 54.351562 76.648438 54.835938 77.117188 55.292969 77.449219 C 55.769531 77.796875 56.347656 78.046875 56.894531 78.253906 C 56.972656 78.28125 57.035156 78.167969 56.976562 78.113281 " fill-opacity="1" fill-rule="nonzero"/><path fill="#0661aa" d="M 57.960938 77.472656 C 57.550781 77.160156 57.042969 76.972656 56.59375 76.722656 C 56.046875 76.425781 55.550781 76.054688 55.101562 75.625 C 54.941406 75.472656 54.667969 75.6875 54.832031 75.847656 C 55.632812 76.628906 56.753906 77.464844 57.878906 77.675781 C 57.992188 77.695312 58.046875 77.539062 57.960938 77.472656 " fill-opacity="1" fill-rule="nonzero"/><path fill="#0661aa" d="M 59.0625 77.128906 C 58.871094 76.96875 58.636719 76.871094 58.421875 76.75 C 58.320312 76.6875 58.21875 76.625 58.121094 76.554688 C 58.058594 76.511719 57.984375 76.4375 57.902344 76.441406 C 57.898438 76.4375 57.894531 76.4375 57.886719 76.4375 C 57.882812 76.4375 57.882812 76.441406 57.875 76.441406 C 57.871094 76.445312 57.871094 76.441406 57.867188 76.441406 C 57.867188 76.445312 57.867188 76.445312 57.871094 76.445312 C 57.863281 76.449219 57.855469 76.449219 57.847656 76.457031 C 57.816406 76.484375 57.804688 76.53125 57.824219 76.570312 C 57.9375 76.800781 58.179688 76.988281 58.378906 77.136719 C 58.546875 77.257812 58.832031 77.425781 59.039062 77.285156 C 59.085938 77.253906 59.113281 77.171875 59.0625 77.128906 " fill-opacity="1" fill-rule="nonzero"/><path fill="#0661aa" d="M 64.507812 78.214844 C 64.105469 77.96875 63.625 77.910156 63.214844 77.667969 C 62.980469 77.527344 62.648438 77.445312 62.410156 77.316406 C 62.183594 77.191406 61.957031 77.074219 61.726562 76.960938 C 61.574219 76.890625 61.472656 77.109375 61.613281 77.191406 C 62.453125 77.667969 63.464844 78.433594 64.480469 78.382812 C 64.582031 78.378906 64.578125 78.253906 64.507812 78.214844 " fill-opacity="1" fill-rule="nonzero"/><path fill="#0661aa" d="M 65.851562 77.605469 C 65.511719 77.457031 65.121094 77.382812 64.761719 77.265625 C 64.421875 77.152344 64.082031 76.980469 63.8125 76.75 C 63.703125 76.65625 63.570312 76.820312 63.671875 76.914062 C 63.957031 77.191406 64.316406 77.398438 64.6875 77.539062 C 65.058594 77.679688 65.4375 77.902344 65.84375 77.769531 C 65.914062 77.742188 65.921875 77.636719 65.851562 77.605469 " fill-opacity="1" fill-rule="nonzero"/><path fill="#0661aa" d="M 67.195312 77.746094 C 66.933594 77.566406 66.621094 77.472656 66.351562 77.289062 C 66.027344 77.066406 65.734375 76.800781 65.398438 76.589844 C 65.242188 76.492188 65.097656 76.734375 65.253906 76.832031 C 65.769531 77.15625 66.488281 78.019531 67.167969 77.878906 C 67.226562 77.867188 67.25 77.785156 67.195312 77.746094 " fill-opacity="1" fill-rule="nonzero"/><path fill="#0661aa" d="M 67.578125 76.773438 C 66.996094 76.175781 66.242188 75.707031 65.558594 75.242188 C 65.378906 75.125 65.15625 75.375 65.339844 75.496094 C 66.035156 75.964844 66.699219 76.589844 67.480469 76.90625 C 67.566406 76.941406 67.644531 76.84375 67.578125 76.773438 " fill-opacity="1" fill-rule="nonzero"/><path fill="#0661aa" d="M 72.710938 64.359375 C 71.96875 65.382812 71.894531 66.726562 71.425781 67.878906 C 71.363281 68.03125 71.589844 68.144531 71.65625 67.992188 C 72.152344 66.847656 72.414062 65.597656 72.824219 64.414062 C 72.84375 64.355469 72.75 64.308594 72.710938 64.359375 " fill-opacity="1" fill-rule="nonzero"/><path fill="#0661aa" d="M 73.332031 65.253906 C 73.324219 65.15625 73.191406 65.144531 73.164062 65.238281 C 72.773438 66.503906 72.425781 67.667969 71.796875 68.851562 C 71.722656 68.992188 71.933594 69.109375 72.015625 68.972656 C 72.640625 67.875 73.429688 66.5625 73.332031 65.253906 " fill-opacity="1" fill-rule="nonzero"/><path fill="#0661aa" d="M 73.402344 66.910156 C 72.933594 67.625 72.765625 68.542969 72.515625 69.347656 C 72.460938 69.511719 72.703125 69.613281 72.761719 69.449219 C 73.042969 68.640625 73.402344 67.820312 73.589844 66.984375 C 73.617188 66.871094 73.464844 66.816406 73.402344 66.910156 " fill-opacity="1" fill-rule="nonzero"/><path fill="#0661aa" d="M 54.171875 54.957031 C 53.503906 54.398438 52.273438 54.769531 51.617188 55.1875 C 51.535156 55.242188 51.605469 55.371094 51.691406 55.355469 C 52 55.296875 52.296875 55.199219 52.601562 55.132812 C 53.105469 55.015625 53.589844 55.035156 54.09375 55.101562 C 54.171875 55.109375 54.242188 55.015625 54.171875 54.957031 " fill-opacity="1" fill-rule="nonzero"/><path fill="#0661aa" d="M 54.535156 54.222656 C 54.265625 54.035156 53.78125 54.089844 53.460938 54.074219 C 53.035156 54.050781 52.578125 54.066406 52.21875 54.320312 C 52.101562 54.402344 52.230469 54.570312 52.351562 54.496094 C 52.734375 54.269531 53.253906 54.339844 53.675781 54.378906 C 53.933594 54.402344 54.292969 54.503906 54.527344 54.359375 C 54.570312 54.332031 54.582031 54.253906 54.535156 54.222656 " fill-opacity="1" fill-rule="nonzero"/><path fill="#0661aa" d="M 55.113281 53.484375 C 54.839844 53.367188 54.523438 53.417969 54.234375 53.425781 C 53.910156 53.4375 53.585938 53.464844 53.257812 53.472656 C 53.152344 53.476562 53.15625 53.632812 53.261719 53.636719 C 53.542969 53.644531 53.824219 53.667969 54.105469 53.679688 C 54.4375 53.691406 54.8125 53.757812 55.121094 53.625 C 55.1875 53.59375 55.167969 53.507812 55.113281 53.484375 " fill-opacity="1" fill-rule="nonzero"/><path fill="#0661aa" d="M 55.84375 52.382812 C 55.320312 52.25 54.6875 52.230469 54.199219 52.480469 C 54.078125 52.539062 54.140625 52.734375 54.273438 52.683594 C 54.785156 52.476562 55.316406 52.652344 55.835938 52.535156 C 55.910156 52.519531 55.917969 52.40625 55.84375 52.382812 " fill-opacity="1" fill-rule="nonzero"/><path fill="#0661aa" d="M 31.417969 61.171875 C 31.457031 61.121094 31.488281 61.007812 31.515625 60.863281 C 30.523438 61.222656 28.875 61.496094 27.921875 61.644531 C 25.105469 62.074219 22.480469 62.773438 19.742188 63.554688 C 17.796875 64.109375 12.269531 66.648438 11.03125 63.921875 C 10.015625 61.683594 11.492188 59.300781 11.1875 56.976562 C 10.878906 54.613281 9.84375 52.476562 9.003906 50.269531 C 8.679688 49.414062 8.359375 48.460938 8.273438 47.550781 C 8.199219 46.761719 8.40625 46.289062 8.703125 45.792969 C 8.835938 45.691406 8.960938 45.609375 9.039062 45.550781 C 9.0625 45.535156 9.085938 45.523438 9.113281 45.503906 C 11.902344 45.011719 14.703125 44.285156 17.34375 43.28125 C 18.65625 42.78125 20.003906 42.363281 21.296875 41.800781 C 22.433594 41.308594 23.558594 40.761719 24.726562 40.355469 C 25.742188 40 27.660156 39.171875 28.550781 40.160156 C 29.160156 40.835938 29.433594 41.769531 29.667969 42.632812 C 30.027344 43.957031 30.375 45.289062 30.71875 46.617188 C 30.832031 46.277344 30.988281 45.945312 31.199219 45.632812 C 31.285156 45.507812 31.375 45.390625 31.464844 45.273438 C 31.128906 43.910156 30.75 42.5625 30.246094 41.253906 C 29.445312 39.175781 28.242188 38.5 26.0625 38.960938 C 24.675781 39.253906 23.363281 39.847656 22.074219 40.417969 C 20.6875 41.035156 19.261719 41.496094 17.867188 42.070312 C 15.046875 43.222656 12.152344 43.976562 9.199219 44.65625 C 9.179688 44.636719 9.15625 44.625 9.125 44.617188 C 9.894531 44.09375 10.894531 43.628906 11.308594 43.359375 C 12.769531 42.40625 14.238281 41.308594 15.878906 40.695312 C 17.75 39.992188 19.796875 39.894531 21.636719 39.085938 C 23.59375 38.226562 25.710938 37.582031 27.601562 36.59375 C 29.207031 35.757812 31.414062 34.734375 32.875 36.34375 C 33.875 37.4375 34.363281 38.949219 34.738281 40.351562 C 34.933594 41.078125 35.304688 42.316406 35.488281 43.058594 C 35.796875 42.929688 36.109375 42.8125 36.421875 42.699219 C 36.195312 41.785156 35.769531 40.382812 35.5 39.503906 C 34.609375 36.609375 32.84375 33.613281 29.347656 34.789062 C 28.199219 35.179688 27.164062 35.792969 26.039062 36.234375 C 24.859375 36.695312 23.65625 37.121094 22.503906 37.648438 C 20.90625 38.375 19.292969 39.054688 17.613281 39.457031 C 16.480469 39.726562 15.609375 39.511719 14.414062 40.167969 C 12.96875 40.964844 11.78125 42.167969 10.402344 43.070312 C 9.753906 43.496094 8.148438 44.371094 7.847656 45.339844 C 6.890625 46.5625 7.476562 48.824219 8.003906 50.199219 C 8.671875 51.949219 9.523438 53.667969 9.976562 55.492188 C 10.367188 57.085938 10.292969 58.441406 10.023438 60.035156 C 9.8125 61.273438 9.570312 62.851562 10.113281 64.042969 C 11.457031 67.003906 13.78125 66.246094 16.320312 65.320312 C 18.128906 64.90625 19.921875 64.445312 21.699219 63.925781 C 23.222656 63.484375 24.71875 62.992188 26.300781 62.847656 C 28.117188 62.683594 30.0625 62.3125 31.246094 62.035156 C 31.167969 61.773438 31.207031 61.476562 31.417969 61.171875 " fill-opacity="1" fill-rule="nonzero"/><path fill="#0661aa" d="M 31.695312 36.351562 C 31.730469 36.785156 31.285156 37.09375 31.03125 37.382812 C 30.726562 37.726562 30.40625 38.066406 30.1875 38.46875 C 30.109375 38.613281 29.890625 38.539062 29.945312 38.378906 C 30.097656 37.925781 30.308594 37.535156 30.566406 37.136719 C 30.777344 36.808594 31.066406 36.265625 31.492188 36.199219 C 31.597656 36.179688 31.6875 36.242188 31.695312 36.351562 " fill-opacity="1" fill-rule="nonzero"/><path fill="#0661aa" d="M 23.972656 48.757812 C 23.71875 50.019531 23.203125 51.246094 22.851562 52.492188 C 22.46875 53.84375 21.542969 55.140625 21.488281 56.5625 C 21.484375 56.695312 21.269531 56.734375 21.25 56.589844 C 21.097656 55.386719 21.738281 54.28125 22.152344 53.191406 C 22.730469 51.695312 22.757812 50.011719 23.714844 48.660156 C 23.800781 48.535156 24.003906 48.589844 23.972656 48.757812 " fill-opacity="1" fill-rule="nonzero"/><path fill="#0661aa" d="M 24.734375 50.289062 C 24.535156 51.859375 23.515625 53.160156 23.5 54.789062 C 23.496094 55.046875 23.097656 55.054688 23.09375 54.792969 C 23.070312 53.214844 23.761719 51.570312 24.535156 50.21875 C 24.589844 50.121094 24.746094 50.1875 24.734375 50.289062 " fill-opacity="1" fill-rule="nonzero"/><path fill="#0661aa" d="M 22.316406 50.195312 C 21.757812 52.15625 21.085938 54.042969 20.117188 55.84375 C 20.058594 55.953125 19.882812 55.855469 19.925781 55.742188 C 20.289062 54.828125 20.667969 53.921875 21.007812 53 C 21.378906 51.992188 21.382812 50.9375 22.113281 50.082031 C 22.191406 49.992188 22.347656 50.078125 22.316406 50.195312 " fill-opacity="1" fill-rule="nonzero"/><path fill="#0661aa" d="M 21.15625 49.585938 C 21.207031 50.476562 20.75 51.324219 20.429688 52.136719 C 20.035156 53.132812 19.636719 54.101562 19.175781 55.066406 C 19.113281 55.191406 18.910156 55.113281 18.96875 54.984375 C 19.742188 53.214844 20.136719 51.289062 20.933594 49.535156 C 20.984375 49.421875 21.152344 49.46875 21.15625 49.585938 " fill-opacity="1" fill-rule="nonzero"/><path fill="#0661aa" d="M 19.839844 50.359375 C 19.476562 51.640625 19.074219 52.964844 18.605469 54.214844 C 18.542969 54.382812 18.28125 54.3125 18.332031 54.136719 C 18.707031 52.859375 18.808594 51.34375 19.613281 50.242188 C 19.703125 50.121094 19.878906 50.21875 19.839844 50.359375 " fill-opacity="1" fill-rule="nonzero"/><path fill="#0661aa" d="M 18.597656 50.550781 C 18.089844 51.601562 17.5625 52.597656 17.195312 53.707031 C 17.140625 53.867188 16.90625 53.773438 16.953125 53.613281 C 17.28125 52.515625 17.652344 51.3125 18.4375 50.445312 C 18.511719 50.363281 18.644531 50.453125 18.597656 50.550781 " fill-opacity="1" fill-rule="nonzero"/><path fill="#0661aa" d="M 11.121094 60.9375 C 11.214844 60.96875 11.242188 61.011719 11.285156 61.089844 C 11.371094 61.246094 11.464844 61.386719 11.582031 61.519531 C 11.734375 61.6875 11.898438 61.851562 11.984375 62.066406 C 12.019531 62.160156 11.910156 62.226562 11.828125 62.214844 C 11.714844 62.195312 11.65625 62.179688 11.550781 62.113281 C 11.492188 62.074219 11.503906 62.011719 11.542969 61.980469 C 11.222656 61.699219 10.769531 61.253906 10.992188 60.976562 C 11.027344 60.933594 11.074219 60.921875 11.121094 60.9375 " fill-opacity="1" fill-rule="nonzero"/><path fill="#0661aa" d="M 11.335938 59.933594 C 11.613281 60.199219 11.785156 60.585938 12.109375 60.804688 C 12.234375 60.890625 12.132812 61.09375 12 61.015625 C 11.746094 60.863281 11.5625 60.625 11.367188 60.410156 C 11.289062 60.324219 10.898438 60.003906 11.183594 59.910156 C 11.230469 59.890625 11.296875 59.894531 11.335938 59.933594 " fill-opacity="1" fill-rule="nonzero"/><path fill="#0661aa" d="M 11.152344 58.695312 C 11.636719 59.042969 12.011719 59.507812 12.441406 59.917969 C 12.878906 60.335938 13.4375 60.671875 13.753906 61.199219 C 13.8125 61.300781 13.648438 61.410156 13.574219 61.316406 C 13.242188 60.855469 12.664062 60.507812 12.222656 60.152344 C 11.769531 59.78125 11.378906 59.28125 11.039062 58.804688 C 10.992188 58.738281 11.089844 58.648438 11.152344 58.695312 " fill-opacity="1" fill-rule="nonzero"/><path fill="#0661aa" d="M 11.519531 57.578125 C 11.929688 57.894531 12.242188 58.335938 12.59375 58.710938 C 13.023438 59.160156 13.507812 59.546875 14.039062 59.867188 C 14.226562 59.984375 14.085938 60.304688 13.894531 60.1875 C 12.933594 59.613281 11.835938 58.742188 11.347656 57.710938 C 11.296875 57.605469 11.433594 57.511719 11.519531 57.578125 " fill-opacity="1" fill-rule="nonzero"/><path fill="#0661aa" d="M 11.574219 56.425781 C 11.773438 56.570312 11.929688 56.769531 12.105469 56.945312 C 12.1875 57.027344 12.277344 57.109375 12.367188 57.1875 C 12.425781 57.238281 12.515625 57.289062 12.535156 57.371094 C 12.535156 57.375 12.539062 57.378906 12.542969 57.382812 C 12.542969 57.386719 12.539062 57.390625 12.539062 57.394531 C 12.539062 57.398438 12.542969 57.402344 12.542969 57.40625 C 12.539062 57.40625 12.539062 57.402344 12.539062 57.402344 C 12.535156 57.410156 12.535156 57.417969 12.53125 57.425781 C 12.515625 57.464844 12.46875 57.484375 12.425781 57.476562 C 12.175781 57.429688 11.933594 57.242188 11.742188 57.085938 C 11.578125 56.953125 11.34375 56.722656 11.425781 56.488281 C 11.445312 56.433594 11.519531 56.386719 11.574219 56.425781 " fill-opacity="1" fill-rule="nonzero"/><path fill="#0661aa" d="M 9.132812 51.433594 C 9.472656 51.761719 9.652344 52.214844 9.992188 52.546875 C 10.1875 52.738281 10.347656 53.039062 10.535156 53.234375 C 10.714844 53.421875 10.886719 53.609375 11.054688 53.804688 C 11.164062 53.933594 10.976562 54.089844 10.863281 53.972656 C 10.1875 53.28125 9.1875 52.5 8.976562 51.503906 C 8.953125 51.40625 9.078125 51.378906 9.132812 51.433594 " fill-opacity="1" fill-rule="nonzero"/><path fill="#0661aa" d="M 9.378906 49.984375 C 9.609375 50.273438 9.78125 50.632812 9.984375 50.949219 C 10.179688 51.246094 10.433594 51.53125 10.726562 51.734375 C 10.84375 51.816406 10.71875 51.984375 10.601562 51.914062 C 10.261719 51.707031 9.96875 51.414062 9.738281 51.089844 C 9.507812 50.765625 9.195312 50.457031 9.222656 50.03125 C 9.230469 49.957031 9.328125 49.925781 9.378906 49.984375 " fill-opacity="1" fill-rule="nonzero"/><path fill="#0661aa" d="M 8.898438 48.71875 C 9.140625 48.925781 9.3125 49.203125 9.554688 49.417969 C 9.855469 49.675781 10.1875 49.890625 10.476562 50.160156 C 10.609375 50.285156 10.410156 50.488281 10.277344 50.363281 C 9.835938 49.945312 8.8125 49.472656 8.777344 48.78125 C 8.773438 48.71875 8.847656 48.675781 8.898438 48.71875 " fill-opacity="1" fill-rule="nonzero"/><path fill="#0661aa" d="M 9.742188 48.101562 C 10.464844 48.511719 11.113281 49.117188 11.738281 49.664062 C 11.898438 49.804688 11.710938 50.082031 11.546875 49.941406 C 10.917969 49.386719 10.144531 48.902344 9.636719 48.230469 C 9.582031 48.15625 9.65625 48.050781 9.742188 48.101562 " fill-opacity="1" fill-rule="nonzero"/><path fill="#0661aa" d="M 20.433594 39.96875 C 19.632812 40.949219 18.351562 41.363281 17.359375 42.109375 C 17.226562 42.207031 17.0625 42.019531 17.191406 41.914062 C 18.171875 41.144531 19.3125 40.570312 20.351562 39.871094 C 20.402344 39.839844 20.472656 39.917969 20.433594 39.96875 " fill-opacity="1" fill-rule="nonzero"/><path fill="#0661aa" d="M 19.414062 39.59375 C 19.507812 39.578125 19.546875 39.703125 19.46875 39.753906 C 18.34375 40.457031 17.308594 41.089844 16.324219 41.996094 C 16.207031 42.105469 16.039062 41.929688 16.152344 41.816406 C 17.050781 40.929688 18.117188 39.835938 19.414062 39.59375 " fill-opacity="1" fill-rule="nonzero"/><path fill="#0661aa" d="M 17.789062 39.953125 C 17.21875 40.585938 16.375 40.984375 15.660156 41.433594 C 15.515625 41.523438 15.355469 41.316406 15.5 41.21875 C 16.207031 40.738281 16.910156 40.183594 17.667969 39.789062 C 17.773438 39.734375 17.867188 39.867188 17.789062 39.953125 " fill-opacity="1" fill-rule="nonzero"/><path fill="#0661aa" d="M 49.796875 68.742188 C 48.800781 69.152344 46.871094 69.65625 45.832031 70.011719 C 45.054688 70.273438 44.257812 70.476562 43.457031 70.636719 C 43.011719 70.726562 42.765625 70.6875 42.621094 70.550781 C 42.863281 69.195312 42.375 67.738281 42.375 66.363281 C 42.375 64.835938 42.375 63.308594 42.371094 61.777344 C 42.371094 60.085938 42.375 58.390625 42.339844 56.699219 C 42.304688 55.011719 42.023438 53.402344 41.847656 51.726562 C 41.839844 51.675781 41.816406 51.636719 41.78125 51.609375 C 41.90625 51.617188 42.011719 51.464844 41.882812 51.378906 C 40.386719 50.347656 38.515625 49.71875 36.804688 49.054688 C 35.644531 48.605469 34.785156 47.722656 33.976562 46.8125 C 33.238281 45.980469 32.757812 44.96875 31.980469 44.183594 C 34.351562 43.734375 36.53125 43.101562 38.773438 42.140625 C 39.953125 41.636719 41.101562 41.046875 42.316406 40.628906 C 43.148438 40.34375 44.039062 40.273438 44.910156 40.179688 C 45.472656 40.117188 46.121094 39.789062 46.648438 39.589844 C 49.296875 38.605469 52.054688 40.75 54.300781 41.976562 C 55.257812 42.5 56.238281 42.96875 57.195312 43.492188 C 58.746094 44.347656 59.871094 45.214844 59.738281 47.203125 C 59.679688 48.003906 59.714844 48.816406 59.710938 49.621094 C 59.707031 49.886719 59.707031 50.15625 59.707031 50.425781 C 59.933594 50.3125 60.175781 50.21875 60.417969 50.144531 C 60.40625 49.410156 60.40625 48.671875 60.445312 47.9375 C 60.695312 43.074219 57.363281 43.019531 54.183594 41.324219 C 52.9375 40.660156 51.683594 40.007812 50.425781 39.371094 C 49.433594 38.871094 48.34375 38.484375 47.222656 38.71875 C 45.976562 38.980469 44.824219 39.34375 43.558594 39.527344 C 42.164062 39.730469 40.925781 40.261719 39.648438 40.832031 C 38.289062 41.4375 36.921875 42.027344 35.519531 42.53125 C 34.175781 43.015625 32.710938 43.195312 31.449219 43.878906 C 31.402344 43.902344 31.375 43.941406 31.363281 43.984375 C 31.308594 44.019531 31.265625 44.066406 31.234375 44.128906 C 29.96875 46.941406 30.265625 50.292969 30.519531 53.285156 C 30.667969 55.035156 30.734375 56.730469 30.71875 58.492188 C 30.707031 59.984375 30.714844 61.761719 31.285156 63.152344 C 31.324219 63.242188 31.433594 63.261719 31.515625 63.226562 C 31.769531 64.101562 32.980469 64.632812 33.703125 64.996094 C 34.832031 65.5625 35.941406 66.148438 37.007812 66.824219 C 37.570312 67.179688 38.152344 67.441406 38.640625 67.90625 C 39.109375 68.347656 39.535156 68.84375 40.007812 69.285156 C 40.742188 69.964844 41.257812 70.613281 42.085938 71.070312 C 42.113281 71.140625 42.167969 71.199219 42.25 71.210938 C 42.300781 71.214844 42.347656 71.21875 42.398438 71.222656 C 42.414062 71.230469 42.429688 71.242188 42.449219 71.25 C 42.515625 71.277344 42.582031 71.269531 42.636719 71.246094 C 44.707031 71.386719 47.746094 70.582031 49.757812 69.71875 C 49.777344 69.394531 49.789062 69.070312 49.796875 68.742188 Z M 41.589844 69.925781 C 41.140625 69.375 40.664062 68.929688 40.144531 68.445312 C 39.316406 67.671875 38.714844 66.972656 37.71875 66.40625 C 36.722656 65.839844 35.761719 65.101562 34.699219 64.675781 C 33.671875 64.265625 32.359375 63.777344 31.660156 62.890625 C 31.867188 61.464844 31.464844 59.894531 31.457031 58.457031 C 31.449219 56.835938 31.46875 55.265625 31.300781 53.648438 C 31.019531 50.878906 30.679688 47.648438 31.691406 44.960938 C 32.300781 45.667969 32.742188 46.539062 33.332031 47.261719 C 34.0625 48.148438 34.808594 48.871094 35.796875 49.453125 C 37.609375 50.515625 39.625 51.046875 41.625 51.574219 C 41.578125 51.585938 41.539062 51.621094 41.523438 51.6875 C 41.238281 53.039062 41.554688 54.441406 41.527344 55.8125 C 41.492188 57.492188 41.492188 59.171875 41.484375 60.851562 C 41.460938 63.90625 41.179688 67.183594 41.867188 70.195312 C 41.769531 70.117188 41.675781 70.03125 41.589844 69.925781 " fill-opacity="1" fill-rule="nonzero"/><path fill="#0661aa" d="M 58.421875 45.707031 C 57.597656 45.886719 56.789062 45.949219 55.957031 46.09375 C 54.496094 46.347656 53.09375 46.984375 51.722656 47.527344 C 50.246094 48.109375 48.753906 48.621094 47.246094 49.121094 C 45.914062 49.558594 44.730469 50.429688 43.371094 50.742188 C 43.230469 50.773438 43.214844 50.996094 43.371094 51.007812 C 44.679688 51.105469 45.824219 50.332031 47.046875 49.976562 C 48.835938 49.449219 50.574219 48.847656 52.308594 48.160156 C 53.804688 47.574219 55.332031 46.90625 56.953125 46.816406 C 57.546875 46.785156 58.761719 46.8125 58.804688 46 C 58.816406 45.796875 58.605469 45.664062 58.421875 45.707031 " fill-opacity="1" fill-rule="nonzero"/><path fill="#0661aa" d="M 39.90625 49.328125 C 39.269531 48.945312 38.519531 48.585938 37.84375 48.273438 C 37.113281 47.9375 36.394531 47.707031 35.890625 47.050781 C 35.847656 46.992188 35.742188 47.035156 35.761719 47.109375 C 35.769531 47.152344 35.777344 47.191406 35.789062 47.234375 C 35.800781 47.28125 35.867188 47.269531 35.878906 47.226562 C 35.78125 47.589844 36.667969 48.082031 37.085938 48.289062 C 37.960938 48.730469 38.847656 49.453125 39.851562 49.511719 C 39.949219 49.515625 39.992188 49.378906 39.90625 49.328125 " fill-opacity="1" fill-rule="nonzero"/><path fill="#0661aa" d="M 41.007812 48.238281 C 40.40625 47.847656 39.667969 47.75 39.070312 47.375 C 38.65625 47.121094 38.160156 46.882812 37.667969 46.855469 C 37.511719 46.847656 37.503906 47.074219 37.65625 47.09375 C 38.203125 47.160156 38.578125 47.519531 39.058594 47.71875 C 39.671875 47.972656 40.289062 48.289062 40.945312 48.410156 C 41.039062 48.429688 41.082031 48.285156 41.007812 48.238281 " fill-opacity="1" fill-rule="nonzero"/><path fill="#0661aa" d="M 41.84375 47.515625 C 41.132812 47.085938 40.289062 46.910156 39.554688 46.515625 C 39.4375 46.449219 39.324219 46.574219 39.402344 46.683594 C 39.621094 46.992188 40.09375 47.160156 40.425781 47.308594 C 40.84375 47.496094 41.332031 47.71875 41.804688 47.664062 C 41.878906 47.65625 41.921875 47.5625 41.84375 47.515625 " fill-opacity="1" fill-rule="nonzero"/><path fill="#0661aa" d="M 42.5625 46.421875 C 42.300781 46.308594 42.007812 46.246094 41.742188 46.148438 C 41.523438 46.066406 41.308594 46.007812 41.074219 46 C 40.914062 45.992188 40.917969 46.234375 41.074219 46.246094 C 41.558594 46.269531 42.082031 46.714844 42.5625 46.554688 C 42.628906 46.535156 42.617188 46.441406 42.5625 46.421875 " fill-opacity="1" fill-rule="nonzero"/><path fill="#0661aa" d="M 43.675781 45.941406 C 43.3125 45.675781 42.742188 45.414062 42.28125 45.507812 C 42.125 45.539062 42.140625 45.792969 42.300781 45.761719 C 42.804688 45.664062 43.160156 46.117188 43.644531 46.070312 C 43.707031 46.066406 43.722656 45.980469 43.675781 45.941406 " fill-opacity="1" fill-rule="nonzero"/><path fill="#0661aa" d="M 44.433594 45.464844 C 44.21875 45.113281 43.769531 45.007812 43.382812 45 C 43.191406 44.996094 43.207031 45.289062 43.394531 45.292969 C 43.742188 45.300781 44.027344 45.429688 44.324219 45.589844 C 44.402344 45.632812 44.480469 45.535156 44.433594 45.464844 " fill-opacity="1" fill-rule="nonzero"/><path fill="#0661aa" d="M 35.144531 64.285156 C 35.140625 64.289062 35.132812 64.289062 35.128906 64.292969 C 35.152344 64.289062 35.152344 64.285156 35.144531 64.285156 " fill-opacity="1" fill-rule="nonzero"/><path fill="#0661aa" d="M 35.324219 63.929688 C 35.289062 63.636719 34.851562 62.90625 34.515625 63.324219 C 34.425781 63.441406 34.539062 63.644531 34.683594 63.550781 C 34.714844 63.53125 34.722656 63.660156 34.734375 63.695312 C 34.75 63.742188 34.765625 63.796875 34.777344 63.84375 C 34.816406 63.988281 34.839844 64.097656 34.941406 64.207031 C 34.984375 64.25 35.011719 64.269531 35.070312 64.285156 C 35.078125 64.289062 35.128906 64.285156 35.144531 64.285156 C 35.285156 64.25 35.34375 64.058594 35.324219 63.929688 " fill-opacity="1" fill-rule="nonzero"/><path fill="#0661aa" d="M 36.910156 65.582031 C 36.578125 64.71875 36.042969 63.894531 35.625 63.066406 C 35.285156 62.394531 34.894531 61.777344 34.335938 61.269531 C 34.21875 61.164062 34.050781 61.328125 34.164062 61.441406 C 34.863281 62.15625 35.210938 63.058594 35.609375 63.957031 C 35.882812 64.578125 36.167969 65.296875 36.738281 65.703125 C 36.820312 65.765625 36.949219 65.691406 36.910156 65.582031 " fill-opacity="1" fill-rule="nonzero"/><path fill="#0661aa" d="M 37.046875 64.058594 C 36.753906 63.578125 36.464844 63.085938 36.335938 62.53125 C 36.300781 62.375 36.035156 62.414062 36.054688 62.578125 C 36.160156 63.496094 36.6875 64.804688 37.472656 65.34375 C 37.546875 65.398438 37.671875 65.339844 37.652344 65.238281 C 37.558594 64.800781 37.277344 64.433594 37.046875 64.058594 " fill-opacity="1" fill-rule="nonzero"/><path fill="#0661aa" d="M 38.058594 64.167969 C 37.882812 63.90625 37.742188 63.558594 37.519531 63.339844 C 37.433594 63.253906 37.332031 63.308594 37.292969 63.382812 L 37.292969 63.378906 C 37.289062 63.382812 37.289062 63.390625 37.289062 63.394531 C 37.28125 63.414062 37.277344 63.429688 37.277344 63.449219 C 37.242188 63.722656 37.378906 64.027344 37.507812 64.261719 C 37.636719 64.507812 37.824219 64.785156 38.085938 64.90625 C 38.195312 64.953125 38.304688 64.863281 38.296875 64.753906 C 38.289062 64.542969 38.175781 64.339844 38.058594 64.167969 " fill-opacity="1" fill-rule="nonzero"/><path fill="#0661aa" d="M 55.957031 45.371094 C 55.9375 45.511719 56.140625 45.546875 56.167969 45.410156 C 56.210938 45.210938 58.152344 46.078125 58.347656 46.175781 C 58.394531 46.199219 58.449219 46.160156 58.4375 46.105469 C 58.332031 45.59375 56.035156 44.785156 55.957031 45.371094 " fill-opacity="1" fill-rule="nonzero"/><path fill="#0661aa" d="M 56.304688 44.660156 C 56.183594 44.675781 56.125 44.875 56.273438 44.898438 C 56.851562 44.984375 57.402344 45.078125 57.949219 45.289062 C 58.453125 45.484375 58.796875 45.832031 59.1875 46.183594 C 59.238281 46.226562 59.316406 46.167969 59.304688 46.109375 C 59.089844 44.945312 57.269531 44.546875 56.304688 44.660156 " fill-opacity="1" fill-rule="nonzero"/><path fill="#0661aa" d="M 59.582031 44.957031 C 59.164062 44.234375 57.894531 43.902344 57.128906 44.054688 C 57.007812 44.078125 57.015625 44.261719 57.128906 44.289062 C 57.488281 44.382812 57.847656 44.445312 58.199219 44.570312 C 58.625 44.71875 59.015625 44.9375 59.417969 45.136719 C 59.535156 45.195312 59.644531 45.066406 59.582031 44.957031 " fill-opacity="1" fill-rule="nonzero"/><path fill="#0661aa" d="M 48.054688 41.160156 C 47.425781 40.996094 46.789062 40.914062 46.136719 40.898438 C 45.476562 40.886719 44.808594 40.734375 44.191406 41.019531 C 44.074219 41.078125 44.136719 41.273438 44.265625 41.238281 C 44.949219 41.066406 45.878906 41.347656 46.589844 41.390625 C 47.085938 41.417969 47.550781 41.441406 48.035156 41.339844 C 48.117188 41.320312 48.148438 41.183594 48.054688 41.160156 " fill-opacity="1" fill-rule="nonzero"/><path fill="#0661aa" d="M 47.6875 40.183594 C 47.171875 40.007812 46.441406 40.058594 45.929688 40.195312 C 45.878906 40.207031 45.851562 40.265625 45.878906 40.3125 C 45.890625 40.339844 45.90625 40.367188 45.917969 40.398438 C 45.921875 40.429688 45.972656 40.433594 45.976562 40.398438 C 45.980469 40.378906 46.773438 40.441406 46.824219 40.445312 C 47.113281 40.457031 47.421875 40.457031 47.695312 40.359375 C 47.773438 40.332031 47.761719 40.207031 47.6875 40.183594 " fill-opacity="1" fill-rule="nonzero"/><path fill="#0661aa" d="M 87.515625 62.222656 C 87.242188 62.339844 86.59375 62.648438 86.34375 62.75 C 85.28125 63.175781 84.320312 63.914062 83.324219 64.480469 C 82.328125 65.046875 81.726562 65.746094 80.898438 66.515625 C 80.375 67 79.902344 67.449219 79.453125 68 C 79.367188 68.105469 79.273438 68.191406 79.175781 68.269531 C 79.863281 65.257812 79.582031 61.980469 79.5625 58.925781 C 79.550781 57.246094 79.550781 55.566406 79.515625 53.882812 C 79.488281 52.515625 79.804688 51.113281 79.519531 49.761719 C 79.503906 49.695312 79.464844 49.660156 79.417969 49.648438 C 81.417969 49.121094 83.433594 48.589844 85.246094 47.523438 C 86.234375 46.945312 86.980469 46.222656 87.710938 45.332031 C 88.300781 44.613281 88.742188 43.742188 89.351562 43.035156 C 89.941406 44.601562 90.070312 46.347656 90.019531 48.082031 C 90.242188 47.890625 90.480469 47.722656 90.746094 47.589844 C 90.757812 45.730469 90.558594 43.871094 89.808594 42.203125 C 89.78125 42.140625 89.734375 42.09375 89.679688 42.058594 C 89.667969 42.015625 89.640625 41.976562 89.59375 41.949219 C 88.332031 41.269531 86.867188 41.089844 85.523438 40.605469 C 84.121094 40.101562 82.757812 39.511719 81.394531 38.90625 C 80.117188 38.335938 78.878906 37.800781 77.484375 37.601562 C 76.21875 37.417969 75.066406 37.050781 73.820312 36.789062 C 72.699219 36.554688 71.609375 36.945312 70.617188 37.445312 C 69.359375 38.082031 68.105469 38.730469 66.859375 39.398438 C 63.679688 41.09375 60.347656 41.148438 60.597656 46.011719 C 60.671875 47.472656 60.597656 48.941406 60.589844 50.40625 C 60.839844 50.371094 61.09375 50.34375 61.347656 50.328125 C 61.339844 49.449219 61.339844 48.570312 61.332031 47.691406 C 61.328125 46.890625 61.363281 46.078125 61.308594 45.273438 C 61.171875 43.289062 62.296875 42.421875 63.847656 41.566406 C 64.804688 41.039062 65.785156 40.574219 66.742188 40.050781 C 68.988281 38.824219 71.746094 36.679688 74.390625 37.664062 C 74.921875 37.863281 75.570312 38.191406 76.136719 38.25 C 77.003906 38.347656 77.898438 38.417969 78.726562 38.703125 C 79.941406 39.121094 81.089844 39.710938 82.269531 40.214844 C 84.511719 41.171875 86.691406 41.808594 89.0625 42.257812 C 88.285156 43.042969 87.804688 44.054688 87.066406 44.882812 C 86.261719 45.796875 85.398438 46.675781 84.234375 47.128906 C 82.527344 47.792969 80.652344 48.421875 79.160156 49.449219 C 79.03125 49.535156 79.136719 49.691406 79.261719 49.683594 C 79.226562 49.710938 79.203125 49.75 79.195312 49.800781 C 79.019531 51.472656 78.738281 53.085938 78.703125 54.773438 C 78.667969 56.464844 78.671875 58.160156 78.671875 59.851562 C 78.667969 61.378906 78.667969 62.910156 78.667969 64.4375 C 78.667969 65.8125 78.179688 67.269531 78.421875 68.625 C 78.277344 68.761719 78.03125 68.800781 77.585938 68.710938 C 76.785156 68.550781 75.988281 68.347656 75.210938 68.082031 C 74.578125 67.867188 73.957031 67.640625 73.339844 67.40625 C 73.359375 67.738281 73.378906 68.070312 73.402344 68.402344 C 75.046875 69.015625 76.742188 69.429688 78.40625 69.320312 C 78.464844 69.34375 78.527344 69.351562 78.59375 69.320312 C 78.613281 69.3125 78.628906 69.304688 78.644531 69.296875 C 78.695312 69.292969 78.742188 69.289062 78.792969 69.28125 C 78.875 69.273438 78.929688 69.214844 78.957031 69.144531 C 79.785156 68.6875 80.300781 68.039062 81.035156 67.359375 C 81.507812 66.917969 81.933594 66.417969 82.402344 65.980469 C 82.890625 65.515625 83.472656 65.253906 84.035156 64.898438 C 85.101562 64.222656 86.210938 63.636719 87.339844 63.070312 C 87.429688 63.027344 87.902344 62.773438 88.003906 62.726562 C 87.839844 62.558594 87.675781 62.390625 87.515625 62.222656 " fill-opacity="1" fill-rule="nonzero"/><path fill="#0661aa" d="M 62.621094 43.777344 C 63.445312 43.957031 64.253906 44.023438 65.085938 44.167969 C 66.546875 44.421875 67.953125 45.058594 69.324219 45.601562 C 70.796875 46.183594 72.289062 46.695312 73.796875 47.191406 C 75.128906 47.632812 76.3125 48.503906 77.675781 48.816406 C 77.8125 48.847656 77.828125 49.070312 77.671875 49.082031 C 76.363281 49.175781 75.21875 48.40625 73.996094 48.046875 C 72.207031 47.519531 70.46875 46.917969 68.734375 46.234375 C 67.242188 45.644531 65.710938 44.980469 64.089844 44.890625 C 63.496094 44.859375 62.28125 44.886719 62.238281 44.074219 C 62.226562 43.871094 62.4375 43.738281 62.621094 43.777344 " fill-opacity="1" fill-rule="nonzero"/><path fill="#0661aa" d="M 81.136719 47.402344 C 81.773438 47.019531 82.523438 46.65625 83.199219 46.34375 C 83.929688 46.007812 84.648438 45.78125 85.152344 45.121094 C 85.199219 45.066406 85.300781 45.109375 85.285156 45.183594 C 85.277344 45.222656 85.265625 45.265625 85.253906 45.304688 C 85.242188 45.355469 85.175781 45.34375 85.164062 45.300781 C 85.261719 45.664062 84.375 46.152344 83.957031 46.363281 C 83.082031 46.800781 82.195312 47.523438 81.191406 47.585938 C 81.09375 47.589844 81.054688 47.453125 81.136719 47.402344 " fill-opacity="1" fill-rule="nonzero"/><path fill="#0661aa" d="M 80.039062 46.3125 C 80.636719 45.921875 81.375 45.824219 81.972656 45.449219 C 82.386719 45.191406 82.882812 44.953125 83.375 44.929688 C 83.53125 44.921875 83.539062 45.148438 83.386719 45.167969 C 82.839844 45.230469 82.464844 45.59375 81.984375 45.792969 C 81.371094 46.046875 80.75 46.363281 80.097656 46.484375 C 80.003906 46.5 79.960938 46.359375 80.039062 46.3125 " fill-opacity="1" fill-rule="nonzero"/><path fill="#0661aa" d="M 79.195312 45.589844 C 79.910156 45.160156 80.753906 44.984375 81.488281 44.585938 C 81.605469 44.523438 81.722656 44.648438 81.640625 44.757812 C 81.421875 45.066406 80.949219 45.234375 80.617188 45.382812 C 80.199219 45.570312 79.710938 45.792969 79.238281 45.738281 C 79.164062 45.730469 79.125 45.632812 79.195312 45.589844 " fill-opacity="1" fill-rule="nonzero"/><path fill="#0661aa" d="M 78.480469 44.492188 C 78.742188 44.382812 79.035156 44.320312 79.300781 44.222656 C 79.519531 44.140625 79.738281 44.082031 79.96875 44.074219 C 80.125 44.066406 80.125 44.308594 79.96875 44.316406 C 79.484375 44.339844 78.960938 44.789062 78.480469 44.628906 C 78.414062 44.605469 78.425781 44.515625 78.480469 44.492188 " fill-opacity="1" fill-rule="nonzero"/><path fill="#0661aa" d="M 77.367188 44.015625 C 77.730469 43.746094 78.300781 43.488281 78.761719 43.582031 C 78.917969 43.613281 78.902344 43.867188 78.742188 43.835938 C 78.238281 43.738281 77.882812 44.191406 77.398438 44.144531 C 77.335938 44.140625 77.320312 44.050781 77.367188 44.015625 " fill-opacity="1" fill-rule="nonzero"/><path fill="#0661aa" d="M 76.609375 43.539062 C 76.824219 43.1875 77.273438 43.082031 77.660156 43.074219 C 77.851562 43.070312 77.835938 43.363281 77.648438 43.367188 C 77.300781 43.371094 77.015625 43.503906 76.71875 43.664062 C 76.640625 43.703125 76.5625 43.609375 76.609375 43.539062 " fill-opacity="1" fill-rule="nonzero"/><path fill="#0661aa" d="M 85.898438 62.359375 C 85.902344 62.359375 85.910156 62.363281 85.914062 62.363281 C 85.890625 62.363281 85.890625 62.359375 85.898438 62.359375 " fill-opacity="1" fill-rule="nonzero"/><path fill="#0661aa" d="M 86.144531 61.320312 C 85.925781 61.453125 85.738281 61.816406 85.71875 62.003906 C 85.703125 62.128906 85.757812 62.324219 85.898438 62.359375 C 85.914062 62.359375 85.964844 62.359375 85.972656 62.359375 C 86.03125 62.34375 86.058594 62.324219 86.101562 62.28125 C 86.203125 62.171875 86.226562 62.0625 86.265625 61.917969 C 86.28125 61.867188 86.289062 61.816406 86.308594 61.765625 C 86.320312 61.734375 86.328125 61.601562 86.359375 61.625 C 86.382812 61.636719 86.402344 61.644531 86.421875 61.644531 C 86.328125 61.539062 86.238281 61.429688 86.144531 61.320312 " fill-opacity="1" fill-rule="nonzero"/><path fill="#0661aa" d="M 85.648438 60.710938 C 85.570312 60.851562 85.492188 60.992188 85.417969 61.136719 C 85 61.96875 84.464844 62.792969 84.132812 63.65625 C 84.09375 63.765625 84.222656 63.835938 84.304688 63.777344 C 84.875 63.371094 85.160156 62.652344 85.433594 62.03125 C 85.585938 61.6875 85.730469 61.34375 85.890625 61.011719 C 85.808594 60.914062 85.726562 60.8125 85.648438 60.710938 " fill-opacity="1" fill-rule="nonzero"/><path fill="#0661aa" d="M 83.996094 62.132812 C 84.289062 61.652344 84.578125 61.15625 84.707031 60.605469 C 84.742188 60.449219 85.007812 60.488281 84.988281 60.652344 C 84.882812 61.570312 84.355469 62.875 83.570312 63.417969 C 83.496094 63.46875 83.371094 63.414062 83.390625 63.3125 C 83.484375 62.875 83.765625 62.507812 83.996094 62.132812 " fill-opacity="1" fill-rule="nonzero"/><path fill="#0661aa" d="M 82.984375 62.242188 C 83.160156 61.976562 83.300781 61.632812 83.523438 61.414062 C 83.609375 61.328125 83.710938 61.378906 83.75 61.457031 L 83.75 61.453125 C 83.753906 61.457031 83.753906 61.464844 83.753906 61.46875 C 83.761719 61.484375 83.765625 61.503906 83.761719 61.523438 C 83.800781 61.796875 83.664062 62.101562 83.535156 62.335938 C 83.40625 62.582031 83.21875 62.859375 82.957031 62.976562 C 82.847656 63.027344 82.738281 62.9375 82.746094 62.824219 C 82.753906 62.617188 82.867188 62.410156 82.984375 62.242188 " fill-opacity="1" fill-rule="nonzero"/><path fill="#0661aa" d="M 65.085938 43.445312 C 65.105469 43.585938 64.902344 43.621094 64.875 43.480469 C 64.832031 43.285156 62.890625 44.152344 62.695312 44.246094 C 62.644531 44.273438 62.59375 44.230469 62.605469 44.179688 C 62.710938 43.667969 65.007812 42.859375 65.085938 43.445312 " fill-opacity="1" fill-rule="nonzero"/><path fill="#0661aa" d="M 64.738281 42.734375 C 64.859375 42.746094 64.917969 42.949219 64.769531 42.972656 C 64.195312 43.058594 63.640625 43.152344 63.09375 43.363281 C 62.589844 43.558594 62.246094 43.90625 61.855469 44.257812 C 61.804688 44.300781 61.726562 44.242188 61.738281 44.183594 C 61.953125 43.019531 63.777344 42.621094 64.738281 42.734375 " fill-opacity="1" fill-rule="nonzero"/><path fill="#0661aa" d="M 61.464844 43.03125 C 61.878906 42.304688 63.144531 41.976562 63.914062 42.128906 C 64.035156 42.152344 64.027344 42.332031 63.914062 42.363281 C 63.554688 42.453125 63.195312 42.519531 62.84375 42.644531 C 62.417969 42.792969 62.027344 43.011719 61.625 43.210938 C 61.507812 43.269531 61.402344 43.136719 61.464844 43.03125 " fill-opacity="1" fill-rule="nonzero"/><path fill="#0661aa" d="M 72.988281 39.234375 C 73.617188 39.070312 74.253906 38.984375 74.90625 38.972656 C 75.566406 38.960938 76.234375 38.804688 76.851562 39.09375 C 76.96875 39.148438 76.90625 39.34375 76.777344 39.3125 C 76.09375 39.140625 75.164062 39.421875 74.453125 39.460938 C 73.957031 39.492188 73.492188 39.515625 73.007812 39.414062 C 72.925781 39.394531 72.894531 39.257812 72.988281 39.234375 " fill-opacity="1" fill-rule="nonzero"/><path fill="#0661aa" d="M 73.355469 38.257812 C 73.871094 38.082031 74.601562 38.132812 75.113281 38.269531 C 75.164062 38.28125 75.195312 38.339844 75.164062 38.386719 C 75.152344 38.414062 75.136719 38.441406 75.125 38.46875 C 75.121094 38.5 75.070312 38.503906 75.066406 38.472656 C 75.066406 38.453125 74.269531 38.515625 74.21875 38.519531 C 73.929688 38.527344 73.621094 38.527344 73.347656 38.429688 C 73.265625 38.402344 73.285156 38.28125 73.355469 38.257812 " fill-opacity="1" fill-rule="nonzero"/><path fill="#0661aa" d="M 111.882812 55.539062 C 111.5 54.320312 110.941406 53.183594 110.300781 52.082031 C 109.152344 50.097656 107.53125 48.464844 105.976562 46.800781 C 104.964844 45.710938 103.707031 43.707031 102.089844 43.515625 C 101.007812 43.386719 99.886719 43.492188 98.800781 43.511719 C 98.226562 43.523438 97.65625 43.59375 97.078125 43.625 C 96.777344 43.648438 96.476562 43.679688 96.175781 43.726562 C 96.046875 43.742188 95.945312 43.753906 95.871094 43.765625 C 95.261719 43.753906 94.617188 43.886719 93.933594 44.207031 C 92.675781 44.800781 91.640625 45.847656 90.6875 46.828125 C 89.410156 48.144531 88.097656 49.402344 86.734375 50.632812 C 85.386719 51.84375 83.792969 52.992188 82.890625 54.605469 C 81.351562 57.351562 85.179688 59.886719 86.761719 61.8125 C 88.140625 63.488281 89.167969 65.429688 90.402344 67.210938 C 90.679688 67.109375 90.988281 67.042969 91.316406 67.011719 C 91.019531 66.597656 90.746094 66.183594 90.480469 65.796875 C 89.277344 64.046875 88.222656 62.230469 86.738281 60.699219 C 86.238281 60.179688 85.738281 59.652344 85.203125 59.171875 C 83.617188 57.753906 82.386719 56.054688 83.929688 54.222656 C 85.167969 52.746094 86.789062 51.570312 88.226562 50.289062 C 90.230469 48.503906 92.046875 45.980469 94.523438 44.851562 C 97.707031 43.402344 100.371094 47.757812 102.125 49.765625 C 103.367188 51.1875 104.582031 52.671875 105.597656 54.261719 C 106.445312 55.59375 107.019531 57.027344 107.632812 58.460938 C 107.738281 59.011719 108.035156 59.488281 107.960938 60.101562 C 107.867188 60.855469 106.898438 61.5625 106.382812 62.03125 C 104.128906 64.074219 101.632812 65.859375 99.339844 67.863281 C 98.980469 68.175781 98.605469 68.472656 98.210938 68.734375 C 98.398438 68.992188 98.554688 69.265625 98.6875 69.550781 C 99.773438 68.714844 100.644531 67.46875 101.757812 66.644531 C 103.941406 65.03125 106.445312 63.300781 108.199219 61.167969 C 108.691406 60.570312 108.796875 59.808594 108.601562 59.113281 C 108.613281 59.074219 108.613281 59.03125 108.605469 58.992188 C 108.597656 58.933594 108.589844 58.875 108.582031 58.820312 C 108.570312 58.75 108.535156 58.691406 108.492188 58.644531 C 107.234375 54.78125 104.882812 51.546875 102.210938 48.523438 C 100.953125 47.109375 99.578125 45.277344 97.917969 44.355469 C 99.160156 44.34375 100.414062 44.382812 101.621094 44.425781 C 102.800781 44.46875 103.425781 45.53125 104.167969 46.292969 C 104.925781 47.074219 105.667969 47.878906 106.414062 48.671875 C 107.945312 50.300781 109.265625 51.980469 110.28125 53.9375 C 110.613281 54.578125 111.179688 56.234375 111.300781 56.972656 C 111.402344 57.605469 111.40625 58.160156 111.324219 58.671875 C 111.144531 59.8125 110.535156 60.734375 109.660156 61.796875 C 108.347656 63.386719 106.738281 64.710938 105.082031 65.921875 C 103.410156 67.140625 101.734375 68.402344 99.898438 69.363281 C 99.550781 69.542969 99.171875 69.671875 98.777344 69.773438 C 98.792969 69.8125 98.8125 69.847656 98.824219 69.886719 C 98.980469 70.070312 99.121094 70.261719 99.230469 70.460938 C 99.691406 70.347656 100.140625 70.1875 100.59375 69.957031 C 102.609375 68.917969 104.460938 67.488281 106.269531 66.128906 C 107.988281 64.839844 109.558594 63.355469 110.863281 61.648438 C 111.648438 60.617188 112.09375 59.652344 112.238281 58.632812 C 112.375 57.683594 112.246094 56.683594 111.882812 55.539062 " fill-opacity="1" fill-rule="nonzero"/><path fill="#0661aa" d="M 96.742188 50.71875 C 95.527344 51.726562 95.113281 53.476562 94.621094 54.90625 C 94.042969 56.582031 93.417969 58.320312 92.558594 59.875 C 92.488281 60 92.691406 60.136719 92.769531 60.015625 C 94.621094 57.238281 95.542969 53.863281 96.910156 50.839844 C 96.960938 50.726562 96.828125 50.644531 96.742188 50.71875 " fill-opacity="1" fill-rule="nonzero"/><path fill="#0661aa" d="M 94.542969 52.742188 C 93.871094 53.160156 93.640625 53.964844 93.375 54.671875 C 92.941406 55.839844 92.519531 57.007812 92.050781 58.164062 C 91.972656 58.347656 92.226562 58.449219 92.324219 58.285156 C 93.308594 56.601562 93.980469 54.714844 94.753906 52.929688 C 94.8125 52.792969 94.671875 52.660156 94.542969 52.742188 " fill-opacity="1" fill-rule="nonzero"/><path fill="#0661aa" d="M 96.230469 54.363281 C 95.054688 55.773438 94.921875 57.78125 94.109375 59.390625 C 94.03125 59.550781 94.292969 59.675781 94.386719 59.53125 C 95.378906 58.027344 95.828125 56.175781 96.449219 54.5 C 96.496094 54.367188 96.328125 54.246094 96.230469 54.363281 " fill-opacity="1" fill-rule="nonzero"/><path fill="#0661aa" d="M 97.683594 55.164062 C 96.941406 55.144531 96.726562 56.324219 96.597656 56.871094 C 96.390625 57.75 95.972656 58.691406 96.15625 59.601562 C 96.195312 59.796875 96.511719 59.78125 96.507812 59.574219 C 96.496094 58.746094 96.976562 57.839844 97.183594 57.035156 C 97.332031 56.4375 97.59375 55.921875 97.796875 55.347656 C 97.824219 55.269531 97.773438 55.167969 97.683594 55.164062 " fill-opacity="1" fill-rule="nonzero"/><path fill="#0661aa" d="M 98.675781 56.085938 C 97.976562 56.964844 98.144531 58.207031 97.539062 59.113281 C 97.441406 59.261719 97.648438 59.441406 97.777344 59.316406 C 98.144531 58.964844 98.21875 58.449219 98.363281 57.984375 C 98.550781 57.382812 98.757812 56.785156 98.882812 56.164062 C 98.90625 56.046875 98.738281 56.003906 98.675781 56.085938 " fill-opacity="1" fill-rule="nonzero"/><path fill="#0661aa" d="M 109.5625 58.921875 C 109.53125 58.6875 109.210938 58.730469 109.171875 58.9375 C 109.023438 59.824219 109.09375 61.117188 108.183594 61.636719 C 108.035156 61.722656 108.171875 61.964844 108.328125 61.898438 C 109.292969 61.476562 109.691406 59.878906 109.5625 58.921875 " fill-opacity="1" fill-rule="nonzero"/><path fill="#0661aa" d="M 110.035156 58.976562 C 109.960938 59.191406 109.957031 59.480469 109.921875 59.710938 C 109.863281 60.101562 109.714844 60.984375 109.316406 61.183594 C 109.226562 61.226562 109.269531 61.386719 109.371094 61.375 C 110.214844 61.273438 110.394531 59.636719 110.398438 59.011719 C 110.402344 58.65625 110.132812 58.699219 110.035156 58.976562 " fill-opacity="1" fill-rule="nonzero"/><path fill="#0661aa" d="M 111.144531 58.796875 C 111.125 58.742188 111.03125 58.742188 111.007812 58.792969 C 110.902344 59.015625 110.878906 59.273438 110.804688 59.507812 C 110.742188 59.71875 110.664062 59.925781 110.601562 60.136719 C 110.558594 60.277344 110.765625 60.351562 110.820312 60.214844 C 110.980469 59.796875 111.328125 59.25 111.144531 58.796875 " fill-opacity="1" fill-rule="nonzero"/><path fill="#0661aa" d="M 99.613281 44.871094 C 99.25 44.554688 98.8125 44.304688 98.355469 44.15625 C 98.128906 44.082031 97.96875 44.417969 98.203125 44.507812 C 98.597656 44.65625 98.921875 44.871094 99.234375 45.152344 C 99.4375 45.335938 99.695312 45.714844 100 45.679688 C 100.054688 45.671875 100.105469 45.628906 100.113281 45.574219 C 100.148438 45.273438 99.8125 45.050781 99.613281 44.871094 " fill-opacity="1" fill-rule="nonzero"/><path fill="#0661aa" d="M 100.726562 44.609375 C 100.34375 44.289062 99.882812 44.058594 99.386719 43.996094 C 99.296875 43.988281 99.25 44.105469 99.320312 44.160156 C 99.683594 44.449219 100.046875 44.738281 100.398438 45.046875 C 100.636719 45.261719 100.871094 45.71875 101.21875 45.71875 C 101.28125 45.71875 101.332031 45.671875 101.359375 45.621094 C 101.546875 45.242188 100.96875 44.8125 100.726562 44.609375 " fill-opacity="1" fill-rule="nonzero"/><path fill="#0661aa" d="M 101.960938 44.46875 C 101.722656 44.234375 101.394531 44.042969 101.050781 44.09375 C 100.882812 44.117188 100.984375 44.300781 101.082031 44.332031 C 101.367188 44.421875 101.574219 44.65625 101.753906 44.882812 C 101.910156 45.085938 102.007812 45.410156 102.226562 45.546875 C 102.285156 45.582031 102.382812 45.570312 102.417969 45.503906 C 102.601562 45.148438 102.195312 44.699219 101.960938 44.46875 " fill-opacity="1" fill-rule="nonzero"/><path fill="#0661aa" d="M 101.039062 68.480469 C 100.527344 68.652344 100.070312 68.953125 99.554688 69.125 C 99.238281 69.226562 98.921875 69.304688 98.597656 69.371094 C 98.648438 69.46875 98.691406 69.566406 98.734375 69.667969 C 99.59375 69.566406 100.707031 69.382812 101.171875 68.652344 C 101.234375 68.554688 101.148438 68.445312 101.039062 68.480469 " fill-opacity="1" fill-rule="nonzero"/><path fill="#0661aa" d="M 101.695312 67.53125 C 100.8125 67.5625 99.890625 68.046875 99.078125 68.355469 C 98.953125 68.40625 99.03125 68.613281 99.160156 68.578125 C 100 68.328125 100.96875 68.125 101.726562 67.675781 C 101.785156 67.640625 101.78125 67.53125 101.695312 67.53125 " fill-opacity="1" fill-rule="nonzero"/><path fill="#0661aa" d="M 102.707031 66.3125 C 101.988281 66.0625 101.164062 66.726562 100.550781 67.015625 C 100.417969 67.078125 100.503906 67.273438 100.640625 67.226562 C 100.9375 67.113281 101.226562 66.984375 101.515625 66.863281 C 101.902344 66.703125 102.316406 66.636719 102.695312 66.472656 C 102.753906 66.445312 102.785156 66.339844 102.707031 66.3125 " fill-opacity="1" fill-rule="nonzero"/><path fill="#0661aa" d="M 130.5625 80.222656 C 129.296875 79.984375 128.03125 80.046875 126.753906 80.027344 C 125.296875 80.003906 123.828125 79.730469 122.394531 79.488281 C 119.992188 79.082031 117.59375 78.417969 115.15625 78.226562 C 113.746094 78.113281 112.355469 78.25 110.964844 77.933594 C 109.75 77.664062 108.59375 77.191406 107.378906 76.929688 C 105.066406 76.4375 102.433594 76.152344 100.078125 76.535156 C 100.105469 75.933594 99.964844 75.273438 99.90625 74.769531 C 99.683594 72.882812 99.984375 70.988281 99.222656 69.195312 C 97.917969 66.128906 94.25 65.703125 91.410156 66.386719 C 90.425781 66.625 89.511719 67.082031 88.570312 67.441406 C 87.480469 67.859375 86.355469 68.191406 85.238281 68.53125 C 83.171875 69.15625 81.25 70.226562 79.414062 71.335938 C 78.433594 71.929688 77.519531 72.664062 76.585938 73.324219 C 75.867188 73.832031 75.085938 74.347656 74.476562 74.988281 C 73.324219 76.207031 74.195312 77.632812 74.507812 79.015625 C 74.488281 79.019531 74.472656 79.019531 74.453125 79.027344 C 73.460938 79.472656 71.488281 79.421875 71.714844 81.027344 C 71.941406 82.652344 74.359375 82.820312 75.527344 82.921875 C 78.070312 83.132812 80.652344 82.925781 83.183594 83.289062 C 85.738281 83.660156 88.078125 84.710938 90.691406 84.769531 C 95.792969 84.886719 100.730469 83.578125 105.765625 83.035156 C 108.460938 82.746094 111.085938 83.113281 113.777344 83.191406 C 116.144531 83.261719 118.539062 82.945312 120.851562 82.425781 C 120.769531 82.519531 120.679688 82.628906 120.644531 82.75 C 120.5 82.847656 120.378906 82.964844 120.386719 83.121094 C 120.402344 83.410156 120.550781 83.628906 120.886719 83.625 C 121.433594 83.617188 122.042969 83.453125 122.550781 83.261719 C 123.957031 82.730469 125.378906 82.273438 126.902344 82.355469 C 128.554688 82.441406 129.824219 82.402344 131.238281 81.515625 C 132.269531 80.867188 131.347656 80.375 130.5625 80.222656 Z M 130.84375 81.3125 C 130.398438 81.59375 129.878906 81.789062 129.378906 81.953125 C 128.632812 82.199219 127.660156 82.046875 126.886719 82.023438 C 126.164062 81.996094 125.515625 82.085938 124.808594 82.242188 C 123.976562 82.429688 123.160156 82.90625 122.328125 83.027344 C 122.089844 83.0625 121.847656 83.167969 121.621094 83.234375 C 121.316406 83.390625 121.097656 83.273438 120.960938 82.875 C 121 82.851562 121.042969 82.832031 121.082031 82.808594 C 121.160156 82.800781 121.242188 82.800781 121.292969 82.785156 C 121.515625 82.734375 121.738281 82.691406 121.894531 82.515625 C 122.082031 82.304688 121.851562 81.976562 121.59375 82.015625 C 121.503906 82.027344 121.425781 82.074219 121.371094 82.140625 C 119.140625 82.449219 116.910156 82.71875 114.65625 82.757812 C 112.441406 82.796875 110.242188 82.453125 108.03125 82.429688 C 103.503906 82.378906 99.011719 83.796875 94.511719 84.164062 C 92.453125 84.332031 90.277344 84.367188 88.246094 83.972656 C 86.136719 83.566406 84.144531 82.789062 81.992188 82.605469 C 79.867188 82.425781 77.71875 82.507812 75.585938 82.371094 C 74.421875 82.296875 72.953125 82.207031 72.3125 81.074219 C 71.753906 80.089844 74.011719 79.707031 74.597656 79.480469 C 74.660156 79.585938 74.863281 79.546875 74.863281 79.40625 C 74.859375 78.78125 74.742188 78.171875 74.609375 77.5625 C 74.503906 77.070312 74.382812 76.613281 74.523438 76.109375 C 74.660156 75.632812 75.488281 75.050781 75.910156 74.765625 C 77.351562 73.789062 78.757812 72.730469 80.253906 71.835938 C 81.917969 70.84375 83.65625 69.988281 85.503906 69.390625 C 87.183594 68.851562 88.847656 68.347656 90.46875 67.644531 C 93.003906 66.542969 96.28125 66.617188 98.046875 68.976562 C 99.105469 70.394531 98.867188 72.382812 98.941406 74.050781 C 98.988281 75.222656 99.261719 76.367188 98.988281 77.535156 C 98.933594 77.765625 99.164062 77.988281 99.390625 77.863281 C 99.835938 77.617188 100.015625 77.191406 100.066406 76.707031 C 102.058594 76.578125 104.097656 76.882812 106.066406 77.179688 C 107.96875 77.464844 109.726562 78.214844 111.609375 78.570312 C 112.34375 78.707031 113.085938 78.65625 113.828125 78.648438 C 115.152344 78.636719 116.476562 78.867188 117.777344 79.105469 C 119.738281 79.472656 121.6875 79.894531 123.667969 80.179688 C 125.554688 80.457031 127.375 80.441406 129.273438 80.5 C 129.679688 80.511719 131.8125 80.699219 130.84375 81.3125 " fill-opacity="1" fill-rule="nonzero"/><path fill="#0661aa" d="M 97.328125 77.667969 C 95.886719 77.589844 94.355469 77.800781 92.90625 77.890625 C 91.164062 77.996094 89.453125 78.09375 87.707031 78.011719 C 84.519531 77.863281 81.445312 77.921875 78.261719 78.125 C 78.160156 78.132812 78.167969 78.273438 78.265625 78.28125 C 81.527344 78.476562 84.792969 78.613281 88.050781 78.824219 C 89.675781 78.929688 91.300781 78.867188 92.917969 78.753906 C 94.394531 78.648438 96.078125 78.910156 97.394531 78.117188 C 97.574219 78.011719 97.589844 77.683594 97.328125 77.667969 " fill-opacity="1" fill-rule="nonzero"/><path fill="#0661aa" d="M 120.03125 84.839844 C 119.5 83.96875 118.371094 83.878906 117.457031 84.023438 C 116.613281 84.160156 115.296875 84.4375 114.722656 85.144531 C 114.664062 85.21875 114.679688 85.324219 114.75 85.386719 C 115.933594 86.40625 118.921875 86.003906 120.015625 85.039062 C 120.070312 84.992188 120.070312 84.894531 120.03125 84.839844 Z M 119.152344 85.164062 C 118.425781 85.460938 117.585938 85.535156 116.808594 85.550781 C 116.453125 85.558594 116.097656 85.523438 115.746094 85.460938 C 115.585938 85.433594 115.433594 85.386719 115.28125 85.324219 C 114.804688 85.125 115.730469 84.84375 115.871094 84.800781 C 116.445312 84.625 117.042969 84.488281 117.632812 84.40625 C 118.066406 84.347656 118.496094 84.34375 118.925781 84.421875 C 119.5625 84.539062 119.792969 84.902344 119.152344 85.164062 " fill-opacity="1" fill-rule="nonzero"/><g clip-path="url(#3d140638b0)"><path fill="#0661aa" d="M 135.769531 80.671875 C 135.695312 80.535156 135.519531 80.457031 135.371094 80.433594 C 134.875 80.359375 134.382812 80.296875 133.882812 80.300781 C 133.617188 80.300781 132.394531 80.265625 132.5 80.808594 C 132.601562 81.308594 133.707031 81.175781 134.277344 81.058594 C 134.625 81.085938 136.039062 81.183594 135.769531 80.671875 Z M 134.980469 80.796875 C 134.730469 80.777344 134.472656 80.765625 134.222656 80.757812 C 134.160156 80.757812 134.121094 80.792969 134.101562 80.84375 C 133.820312 80.851562 133.539062 80.84375 133.257812 80.8125 C 132.746094 80.75 133.324219 80.644531 133.527344 80.632812 C 133.761719 80.617188 133.996094 80.621094 134.230469 80.621094 C 134.597656 80.621094 134.972656 80.722656 135.339844 80.742188 C 135.511719 80.753906 135.070312 80.800781 134.980469 80.796875 " fill-opacity="1" fill-rule="nonzero"/></g><path fill="#0661aa" d="M 122.210938 85.039062 C 121.648438 84.851562 120.902344 84.597656 120.367188 85.011719 C 120.261719 85.097656 120.242188 85.257812 120.375 85.332031 C 120.894531 85.632812 121.492188 85.617188 122.0625 85.503906 C 122.121094 85.492188 122.152344 85.457031 122.164062 85.414062 C 122.234375 85.367188 122.277344 85.3125 122.300781 85.214844 C 122.320312 85.140625 122.285156 85.066406 122.210938 85.039062 Z M 120.875 85.15625 C 121.207031 85.0625 121.617188 85.15625 121.945312 85.25 C 121.585938 85.285156 121.214844 85.269531 120.875 85.15625 " fill-opacity="1" fill-rule="nonzero"/><path fill="#0661aa" d="M 78.917969 77.722656 C 78.882812 77.625 78.859375 77.539062 78.792969 77.460938 C 78.738281 77.402344 78.660156 77.414062 78.609375 77.46875 C 78.605469 77.472656 78.601562 77.484375 78.597656 77.488281 C 78.234375 77.320312 77.863281 77.105469 77.457031 77.15625 C 77.328125 77.171875 77.304688 77.390625 77.4375 77.421875 C 77.628906 77.460938 77.792969 77.53125 77.953125 77.636719 C 78.171875 77.78125 78.378906 77.949219 78.640625 77.992188 C 78.789062 78.015625 78.980469 77.898438 78.917969 77.722656 " fill-opacity="1" fill-rule="nonzero"/><path fill="#0661aa" d="M 79.464844 76.785156 C 78.820312 76.609375 78.265625 76.394531 77.664062 76.125 C 77.457031 76.03125 77.304688 76.375 77.5 76.484375 C 77.894531 76.707031 78.277344 76.949219 78.699219 77.121094 C 79.0625 77.273438 79.566406 77.476562 79.957031 77.425781 C 80.011719 77.417969 80.066406 77.351562 80.0625 77.292969 C 80.039062 76.96875 79.75 76.859375 79.464844 76.785156 " fill-opacity="1" fill-rule="nonzero"/><path fill="#0661aa" d="M 83.382812 77.4375 C 82.355469 76.8125 81.246094 76.183594 80.15625 75.679688 C 79.503906 75.378906 78.839844 74.863281 78.109375 74.769531 C 78 74.753906 77.96875 74.914062 78.074219 74.9375 C 78.941406 75.113281 79.855469 75.859375 80.617188 76.289062 C 81.492188 76.785156 82.265625 77.554688 83.3125 77.640625 C 83.433594 77.648438 83.488281 77.503906 83.382812 77.4375 " fill-opacity="1" fill-rule="nonzero"/><path fill="#0661aa" d="M 85.835938 77.320312 C 85.476562 77.046875 84.921875 76.972656 84.511719 76.765625 C 83.917969 76.464844 83.351562 76.097656 82.828125 75.6875 C 82.648438 75.550781 82.453125 75.824219 82.621094 75.96875 C 83.144531 76.417969 83.675781 76.847656 84.273438 77.195312 C 84.667969 77.425781 85.378906 77.789062 85.820312 77.515625 C 85.890625 77.472656 85.910156 77.375 85.835938 77.320312 " fill-opacity="1" fill-rule="nonzero"/><path fill="#0661aa" d="M 87.929688 77.460938 C 87.542969 76.933594 86.804688 76.550781 86.253906 76.210938 C 85.808594 75.9375 85.308594 75.746094 84.78125 75.820312 C 84.613281 75.84375 84.644531 76.074219 84.808594 76.078125 C 85.460938 76.101562 86.054688 76.613281 86.546875 76.996094 C 86.917969 77.28125 87.367188 77.675781 87.863281 77.648438 C 87.953125 77.640625 87.976562 77.523438 87.929688 77.460938 " fill-opacity="1" fill-rule="nonzero"/><path fill="#0661aa" d="M 89.96875 77.664062 C 89.40625 77.3125 88.792969 77.101562 88.242188 76.707031 C 87.65625 76.285156 87.113281 75.859375 86.386719 75.730469 C 86.289062 75.714844 86.242188 75.863281 86.328125 75.910156 C 86.980469 76.257812 87.539062 76.753906 88.121094 77.207031 C 88.613281 77.589844 89.304688 78.089844 89.957031 77.898438 C 90.074219 77.863281 90.054688 77.71875 89.96875 77.664062 " fill-opacity="1" fill-rule="nonzero"/><path fill="#0661aa" d="M 91.964844 77.679688 C 91.359375 77.195312 90.640625 76.828125 90.007812 76.375 C 89.417969 75.957031 88.816406 75.574219 88.132812 75.335938 C 87.964844 75.277344 87.882812 75.515625 88.039062 75.589844 C 88.75 75.917969 89.34375 76.402344 89.957031 76.882812 C 90.515625 77.320312 91.125 77.847656 91.859375 77.917969 C 91.976562 77.929688 92.0625 77.757812 91.964844 77.679688 " fill-opacity="1" fill-rule="nonzero"/><path fill="#0661aa" d="M 93.101562 77.347656 C 92.957031 76.910156 92.347656 76.582031 91.976562 76.339844 C 91.488281 76.019531 90.886719 75.65625 90.300781 75.578125 C 90.160156 75.558594 90.082031 75.769531 90.226562 75.824219 C 90.800781 76.046875 91.355469 76.484375 91.847656 76.855469 C 92.199219 77.125 92.507812 77.574219 92.984375 77.566406 C 93.09375 77.5625 93.128906 77.433594 93.101562 77.347656 " fill-opacity="1" fill-rule="nonzero"/><path fill="#0661aa" d="M 92.941406 75.863281 C 92.542969 75.582031 92.09375 75.371094 91.601562 75.472656 C 91.480469 75.496094 91.476562 75.695312 91.609375 75.699219 C 92.136719 75.699219 92.589844 76.113281 92.972656 76.429688 C 93.21875 76.632812 93.472656 76.980469 93.800781 77.039062 C 93.875 77.050781 93.941406 76.972656 93.925781 76.90625 C 93.847656 76.492188 93.269531 76.089844 92.941406 75.863281 " fill-opacity="1" fill-rule="nonzero"/><path fill="#0661aa" d="M 94.664062 76.144531 C 94.359375 75.878906 93.984375 75.699219 93.597656 75.609375 C 93.46875 75.578125 93.417969 75.765625 93.542969 75.804688 C 93.859375 75.902344 94.140625 76.105469 94.402344 76.308594 C 94.613281 76.472656 94.769531 76.714844 94.988281 76.859375 C 95.03125 76.890625 95.105469 76.871094 95.105469 76.8125 C 95.105469 76.53125 94.859375 76.3125 94.664062 76.144531 " fill-opacity="1" fill-rule="nonzero"/><path fill="#0661aa" d="M 95.574219 75.832031 C 95.425781 75.753906 95.316406 75.996094 95.464844 76.066406 C 95.675781 76.167969 95.808594 76.320312 95.964844 76.488281 C 96.003906 76.527344 96.085938 76.488281 96.074219 76.433594 C 96.019531 76.144531 95.824219 75.96875 95.574219 75.832031 " fill-opacity="1" fill-rule="nonzero"/><path fill="#0661aa" d="M 88.648438 70.050781 C 88.421875 69.808594 87.03125 69.121094 87 69.722656 C 86.992188 69.847656 87.152344 69.882812 87.207031 69.796875 C 87.390625 69.855469 87.5625 69.921875 87.738281 70.019531 C 87.980469 70.148438 88.222656 70.335938 88.496094 70.382812 C 88.695312 70.417969 88.769531 70.183594 88.648438 70.050781 " fill-opacity="1" fill-rule="nonzero"/><path fill="#0661aa" d="M 90.191406 69.527344 C 89.921875 69.421875 89.632812 69.398438 89.351562 69.339844 C 88.894531 69.246094 88.449219 69.097656 88.027344 68.898438 C 87.882812 68.832031 87.773438 69.019531 87.902344 69.109375 C 88.503906 69.523438 89.46875 69.949219 90.195312 69.699219 C 90.277344 69.671875 90.261719 69.554688 90.191406 69.527344 " fill-opacity="1" fill-rule="nonzero"/><path fill="#0661aa" d="M 91.570312 69.328125 C 91.214844 68.640625 90.125 68.421875 89.429688 68.296875 C 89.324219 68.277344 89.289062 68.460938 89.394531 68.488281 C 90.121094 68.664062 90.851562 68.960938 91.441406 69.425781 C 91.511719 69.484375 91.613281 69.414062 91.570312 69.328125 " fill-opacity="1" fill-rule="nonzero"/><path fill="#0661aa" d="M 102.742188 78.210938 C 101.996094 77.886719 101.175781 77.800781 100.4375 77.433594 C 100.328125 77.378906 100.21875 77.550781 100.324219 77.621094 C 100.972656 78.042969 101.929688 78.378906 102.710938 78.328125 C 102.765625 78.324219 102.800781 78.238281 102.742188 78.210938 " fill-opacity="1" fill-rule="nonzero"/><path fill="#0661aa" d="M 103.960938 78.21875 C 103.355469 77.886719 102.648438 77.804688 102.011719 77.566406 C 101.898438 77.523438 101.832031 77.703125 101.949219 77.746094 C 102.578125 77.992188 103.253906 78.167969 103.910156 78.320312 C 103.96875 78.332031 104.019531 78.253906 103.960938 78.21875 " fill-opacity="1" fill-rule="nonzero"/><path fill="#0661aa" d="M 106.042969 78.453125 C 105.140625 77.953125 104.09375 77.582031 103.089844 77.351562 C 103.015625 77.335938 102.984375 77.449219 103.0625 77.472656 C 104.058594 77.777344 104.976562 78.347656 105.992188 78.582031 C 106.0625 78.597656 106.105469 78.484375 106.042969 78.453125 " fill-opacity="1" fill-rule="nonzero"/><path fill="#0661aa" d="M 74.824219 80.589844 C 74.488281 80.433594 74.144531 80.28125 73.808594 80.117188 C 73.660156 80.042969 73.300781 79.871094 73.175781 80.074219 C 73.144531 80.121094 73.222656 80.164062 73.253906 80.125 C 73.328125 80.035156 74.007812 80.5 74.082031 80.542969 C 74.273438 80.65625 74.539062 80.847656 74.773438 80.828125 C 74.890625 80.816406 74.945312 80.644531 74.824219 80.589844 " fill-opacity="1" fill-rule="nonzero"/><path fill="#0661aa" d="M 75.550781 80.289062 C 75.324219 80.207031 75.113281 80.15625 74.902344 80.027344 C 74.71875 79.914062 74.550781 79.773438 74.371094 79.652344 C 74.269531 79.585938 74.160156 79.734375 74.261719 79.804688 C 74.613281 80.042969 75.070312 80.511719 75.542969 80.390625 C 75.589844 80.378906 75.605469 80.304688 75.550781 80.289062 " fill-opacity="1" fill-rule="nonzero"/><path fill="#0661aa" d="M 76.0625 80.027344 C 75.890625 79.882812 75.65625 79.796875 75.464844 79.667969 C 75.269531 79.539062 75.054688 79.4375 74.824219 79.382812 C 74.691406 79.351562 74.652344 79.546875 74.78125 79.585938 C 75.191406 79.71875 75.582031 80.230469 76.039062 80.167969 C 76.113281 80.160156 76.109375 80.066406 76.0625 80.027344 " fill-opacity="1" fill-rule="nonzero"/><path fill="#0661aa" d="M 64.269531 80.050781 C 62.214844 79.480469 59.96875 79.324219 57.847656 79.148438 C 57.75 79.140625 57.742188 79.285156 57.835938 79.296875 C 59.964844 79.617188 62.097656 80 64.246094 80.183594 C 64.332031 80.191406 64.355469 80.074219 64.269531 80.050781 " fill-opacity="1" fill-rule="nonzero"/><path fill="#0661aa" d="M 65.503906 79.648438 C 64.527344 79.332031 63.488281 79.269531 62.472656 79.125 C 61.65625 79.007812 60.859375 78.789062 60.035156 78.757812 C 59.953125 78.753906 59.957031 78.875 60.035156 78.878906 C 60.972656 78.941406 61.890625 79.226562 62.816406 79.382812 C 63.695312 79.53125 64.585938 79.65625 65.464844 79.777344 C 65.542969 79.789062 65.582031 79.671875 65.503906 79.648438 " fill-opacity="1" fill-rule="nonzero"/><path fill="#0661aa" d="M 68.527344 79.332031 C 68.136719 79 67.34375 78.960938 66.863281 78.886719 C 66.617188 78.851562 65.515625 78.5625 65.363281 78.886719 C 65.347656 78.917969 65.386719 78.941406 65.414062 78.929688 C 65.546875 78.878906 65.871094 78.996094 66.007812 79.015625 C 66.328125 79.0625 66.648438 79.117188 66.964844 79.179688 C 67.464844 79.273438 67.964844 79.394531 68.472656 79.453125 C 68.539062 79.460938 68.578125 79.378906 68.527344 79.332031 " fill-opacity="1" fill-rule="nonzero"/><path fill="#0661aa" d="M 71.109375 78.667969 C 70.714844 78.566406 70.292969 78.546875 69.886719 78.480469 C 69.472656 78.414062 69.0625 78.375 68.640625 78.40625 C 68.53125 78.417969 68.539062 78.582031 68.652344 78.578125 C 69.460938 78.539062 70.304688 78.964844 71.097656 78.808594 C 71.164062 78.796875 71.183594 78.6875 71.109375 78.667969 " fill-opacity="1" fill-rule="nonzero"/><path fill="#0661aa" d="M 72.390625 77.46875 C 71.804688 77.347656 71.199219 77.246094 70.601562 77.238281 C 70.449219 77.234375 70.4375 77.46875 70.589844 77.472656 C 71.1875 77.484375 71.792969 77.671875 72.390625 77.570312 C 72.449219 77.558594 72.445312 77.476562 72.390625 77.46875 " fill-opacity="1" fill-rule="nonzero"/><path fill="#0661aa" d="M 72.886719 76.648438 C 72.421875 76.488281 71.898438 76.332031 71.40625 76.335938 C 71.242188 76.339844 71.253906 76.574219 71.410156 76.585938 C 71.914062 76.621094 72.378906 76.90625 72.886719 76.765625 C 72.949219 76.746094 72.941406 76.667969 72.886719 76.648438 " fill-opacity="1" fill-rule="nonzero"/><path fill="#0661aa" d="M 73.382812 75.5 C 73.199219 75.40625 72.980469 75.394531 72.78125 75.335938 C 72.546875 75.269531 72.324219 75.183594 72.082031 75.140625 C 71.949219 75.117188 71.90625 75.308594 72.035156 75.34375 C 72.433594 75.453125 72.976562 75.8125 73.390625 75.636719 C 73.457031 75.609375 73.4375 75.527344 73.382812 75.5 " fill-opacity="1" fill-rule="nonzero"/><path fill="#0661aa" d="M 74.023438 74.371094 C 73.792969 74.292969 73.542969 74.289062 73.304688 74.25 C 73.054688 74.214844 72.808594 74.179688 72.554688 74.175781 C 72.4375 74.175781 72.414062 74.355469 72.535156 74.363281 C 73.007812 74.378906 73.558594 74.617188 74.023438 74.488281 C 74.085938 74.472656 74.082031 74.390625 74.023438 74.371094 " fill-opacity="1" fill-rule="nonzero"/><path fill="#0661aa" d="M 74.679688 73.496094 C 74.28125 73.269531 73.8125 73.210938 73.371094 73.125 C 73.257812 73.101562 73.230469 73.277344 73.347656 73.300781 C 73.78125 73.386719 74.214844 73.488281 74.648438 73.582031 C 74.703125 73.59375 74.722656 73.519531 74.679688 73.496094 " fill-opacity="1" fill-rule="nonzero"/><path fill="#0661aa" d="M 75.027344 72.414062 C 74.582031 72.140625 73.949219 72.125 73.441406 72.160156 C 73.34375 72.164062 73.335938 72.308594 73.4375 72.316406 C 73.746094 72.339844 74.054688 72.375 74.355469 72.4375 C 74.5625 72.480469 74.765625 72.542969 74.980469 72.558594 C 75.058594 72.5625 75.089844 72.453125 75.027344 72.414062 " fill-opacity="1" fill-rule="nonzero"/><path fill="#0661aa" d="M 46.34375 73.628906 C 45.308594 72.933594 44.148438 72.457031 43.035156 71.902344 C 41.933594 71.359375 40.710938 70.476562 39.496094 70.28125 C 39.382812 70.265625 39.351562 70.433594 39.464844 70.453125 C 40.53125 70.667969 41.53125 71.488281 42.5 71.960938 C 43.757812 72.574219 44.976562 73.269531 46.285156 73.777344 C 46.375 73.8125 46.414062 73.675781 46.34375 73.628906 " fill-opacity="1" fill-rule="nonzero"/><path fill="#0661aa" d="M 47.261719 73.195312 C 46.1875 72.429688 44.945312 71.988281 43.75 71.457031 C 43.605469 71.394531 43.488281 71.628906 43.628906 71.699219 C 44.332031 72.0625 45.066406 72.355469 45.761719 72.738281 C 46.21875 72.988281 46.648438 73.273438 47.160156 73.402344 C 47.28125 73.433594 47.375 73.277344 47.261719 73.195312 " fill-opacity="1" fill-rule="nonzero"/><path fill="#0661aa" d="M 48.066406 72.402344 C 47.453125 71.921875 46.625 71.71875 45.96875 71.308594 C 45.609375 71.078125 45.210938 70.902344 44.835938 71.171875 C 44.824219 71.179688 44.835938 71.195312 44.847656 71.191406 C 45.125 71.101562 45.464844 71.34375 45.683594 71.492188 C 45.980469 71.699219 46.300781 71.847656 46.609375 72.035156 C 47.039062 72.292969 47.507812 72.644531 48.027344 72.574219 C 48.113281 72.5625 48.125 72.449219 48.066406 72.402344 " fill-opacity="1" fill-rule="nonzero"/><path fill="#0661aa" d="M 48.546875 71.816406 C 48.164062 71.601562 47.78125 71.414062 47.414062 71.164062 C 47.089844 70.945312 46.753906 70.820312 46.359375 70.863281 C 46.183594 70.882812 46.195312 71.167969 46.371094 71.171875 C 47.109375 71.191406 47.773438 72.355469 48.53125 72.011719 C 48.617188 71.972656 48.628906 71.863281 48.546875 71.816406 " fill-opacity="1" fill-rule="nonzero"/><path fill="#0661aa" d="M 49.21875 71.050781 C 49.035156 70.808594 48.664062 70.664062 48.40625 70.527344 C 48.125 70.378906 47.816406 70.28125 47.5 70.335938 C 47.371094 70.359375 47.382812 70.566406 47.515625 70.566406 C 47.792969 70.5625 48.027344 70.710938 48.265625 70.839844 C 48.523438 70.976562 48.84375 71.253906 49.15625 71.1875 C 49.214844 71.175781 49.265625 71.109375 49.21875 71.050781 " fill-opacity="1" fill-rule="nonzero"/><path fill="#0661aa" d="M 49.351562 70.164062 C 49.171875 69.976562 48.929688 69.863281 48.714844 69.71875 C 48.609375 69.648438 48.5 69.8125 48.605469 69.878906 C 48.824219 70.023438 49.046875 70.171875 49.292969 70.261719 C 49.351562 70.28125 49.390625 70.207031 49.351562 70.164062 " fill-opacity="1" fill-rule="nonzero"/><path fill="#0661aa" d="M 25.792969 63.503906 C 25.464844 63.101562 24.777344 62.804688 24.265625 62.894531 C 24.171875 62.914062 24.195312 63.0625 24.289062 63.058594 C 24.851562 63.03125 25.214844 63.496094 25.734375 63.601562 C 25.792969 63.613281 25.832031 63.550781 25.792969 63.503906 " fill-opacity="1" fill-rule="nonzero"/><path fill="#0661aa" d="M 27.578125 63.484375 C 27.28125 63.242188 26.851562 63.15625 26.492188 63.019531 C 26.125 62.878906 25.75 62.765625 25.367188 62.660156 C 25.277344 62.636719 25.226562 62.765625 25.316406 62.800781 C 25.730469 62.964844 26.132812 63.15625 26.542969 63.320312 C 26.867188 63.449219 27.195312 63.628906 27.546875 63.613281 C 27.613281 63.613281 27.625 63.519531 27.578125 63.484375 " fill-opacity="1" fill-rule="nonzero"/><path fill="#0661aa" d="M 28.691406 63.324219 C 28.03125 63.054688 27.464844 62.433594 26.699219 62.535156 C 26.566406 62.550781 26.585938 62.765625 26.71875 62.769531 C 27.453125 62.777344 27.941406 63.476562 28.671875 63.441406 C 28.742188 63.4375 28.75 63.351562 28.691406 63.324219 " fill-opacity="1" fill-rule="nonzero"/><path fill="#0661aa" d="M 31.234375 64.230469 C 30.800781 63.710938 30.109375 63.488281 29.550781 63.117188 C 29.101562 62.820312 28.648438 62.496094 28.109375 62.410156 C 28.015625 62.394531 28.003906 62.535156 28.082031 62.5625 C 28.703125 62.769531 29.214844 63.199219 29.765625 63.546875 C 30.214844 63.824219 30.695312 64.085938 31.164062 64.328125 C 31.226562 64.359375 31.277344 64.285156 31.234375 64.230469 " fill-opacity="1" fill-rule="nonzero"/><path fill="#0661aa" d="M 32.058594 64 C 31.785156 63.519531 31.242188 63.261719 30.765625 63.019531 C 30.277344 62.769531 29.914062 62.300781 29.320312 62.324219 C 29.226562 62.324219 29.210938 62.46875 29.304688 62.488281 C 29.855469 62.609375 30.148438 63 30.613281 63.246094 C 31.089844 63.496094 31.496094 63.851562 31.976562 64.085938 C 32.03125 64.113281 32.089844 64.054688 32.058594 64 " fill-opacity="1" fill-rule="nonzero"/><path fill="#0661aa" d="M 31.414062 62.839844 C 31.121094 62.464844 30.613281 62.140625 30.152344 62.03125 C 29.984375 61.992188 29.953125 62.253906 30.121094 62.296875 C 30.585938 62.40625 30.902344 62.796875 31.332031 62.972656 C 31.414062 63.003906 31.457031 62.894531 31.414062 62.839844 " fill-opacity="1" fill-rule="nonzero"/><path fill="#0661aa" d="M 18.964844 65.785156 C 18.78125 65.605469 18.53125 65.507812 18.34375 65.324219 C 18.242188 65.226562 18.105469 65.398438 18.207031 65.5 C 18.390625 65.679688 18.65625 65.898438 18.933594 65.871094 C 18.96875 65.867188 18.996094 65.8125 18.964844 65.785156 " fill-opacity="1" fill-rule="nonzero"/><path fill="#0661aa" d="M 19.058594 65.050781 C 18.902344 64.996094 18.792969 65.234375 18.953125 65.285156 C 19.042969 65.316406 19.132812 65.351562 19.222656 65.394531 C 19.335938 65.449219 19.429688 65.535156 19.550781 65.570312 C 19.605469 65.582031 19.667969 65.535156 19.652344 65.476562 C 19.574219 65.230469 19.28125 65.125 19.058594 65.050781 " fill-opacity="1" fill-rule="nonzero"/><path fill="#0661aa" d="M 20.984375 65.300781 C 20.835938 65.183594 20.660156 65.105469 20.492188 65.019531 C 20.414062 64.976562 20.355469 65.113281 20.441406 65.15625 C 20.609375 65.234375 20.769531 65.324219 20.945312 65.375 C 20.988281 65.386719 21.019531 65.324219 20.984375 65.300781 " fill-opacity="1" fill-rule="nonzero"/><path fill="#0661aa" d="M 17.105469 66.851562 C 17.0625 66.746094 16.921875 66.695312 16.824219 66.644531 C 16.6875 66.570312 16.558594 66.519531 16.402344 66.527344 C 16.285156 66.53125 16.265625 66.71875 16.382812 66.734375 C 16.515625 66.75 16.628906 66.796875 16.742188 66.855469 C 16.84375 66.90625 16.972656 66.980469 17.078125 66.925781 C 17.109375 66.910156 17.117188 66.878906 17.105469 66.851562 " fill-opacity="1" fill-rule="nonzero"/><path fill="#0661aa" d="M 17.128906 66.554688 C 17.027344 66.460938 16.882812 66.617188 16.984375 66.707031 C 17.039062 66.753906 17.097656 66.785156 17.164062 66.8125 C 17.246094 66.84375 17.328125 66.898438 17.414062 66.847656 C 17.429688 66.835938 17.445312 66.8125 17.445312 66.792969 C 17.421875 66.636719 17.226562 66.648438 17.128906 66.554688 " fill-opacity="1" fill-rule="nonzero"/><path fill="#0661aa" d="M 16.527344 67.167969 C 16.375 66.953125 16.085938 66.917969 15.894531 66.742188 C 15.820312 66.671875 15.707031 66.777344 15.78125 66.847656 C 15.972656 67.027344 16.242188 67.117188 16.46875 67.246094 C 16.511719 67.269531 16.550781 67.207031 16.527344 67.167969 " fill-opacity="1" fill-rule="nonzero"/><path fill="#0661aa" d="M 21.453125 70.003906 C 21.15625 69.9375 20.859375 69.894531 20.566406 69.796875 C 20.464844 69.765625 20.429688 69.929688 20.53125 69.960938 C 20.824219 70.054688 21.144531 70.140625 21.453125 70.082031 C 21.496094 70.074219 21.492188 70.011719 21.453125 70.003906 " fill-opacity="1" fill-rule="nonzero"/><path fill="#0661aa" d="M 22.28125 69.488281 C 22.113281 69.425781 21.9375 69.410156 21.761719 69.382812 C 21.488281 69.335938 21.226562 69.300781 20.953125 69.308594 C 20.839844 69.3125 20.855469 69.46875 20.960938 69.476562 C 21.378906 69.515625 21.867188 69.765625 22.285156 69.621094 C 22.347656 69.601562 22.335938 69.511719 22.28125 69.488281 " fill-opacity="1" fill-rule="nonzero"/><path fill="#0661aa" d="M 24.457031 69.1875 C 24.070312 69.121094 23.6875 69.015625 23.300781 68.929688 C 22.921875 68.84375 22.5625 68.683594 22.171875 68.695312 C 22.113281 68.699219 22.113281 68.78125 22.167969 68.789062 C 22.925781 68.933594 23.65625 69.347656 24.449219 69.273438 C 24.5 69.269531 24.511719 69.195312 24.457031 69.1875 " fill-opacity="1" fill-rule="nonzero"/><path fill="#0661aa" d="M 25.941406 68.953125 C 25.421875 68.453125 24.421875 68.238281 23.722656 68.238281 C 23.597656 68.238281 23.585938 68.429688 23.710938 68.433594 C 24.492188 68.472656 25.175781 68.757812 25.890625 69.027344 C 25.941406 69.046875 25.980469 68.988281 25.941406 68.953125 " fill-opacity="1" fill-rule="nonzero"/><path fill="#0661aa" d="M 27.320312 68.683594 C 27.058594 68.585938 26.777344 68.542969 26.515625 68.445312 C 26.238281 68.339844 25.972656 68.230469 25.6875 68.152344 C 25.554688 68.113281 25.519531 68.320312 25.648438 68.359375 C 26.144531 68.527344 26.773438 68.96875 27.3125 68.804688 C 27.363281 68.789062 27.378906 68.707031 27.320312 68.683594 " fill-opacity="1" fill-rule="nonzero"/><path fill="#0661aa" d="M 28.230469 68.460938 C 27.917969 68.207031 27.4375 68.160156 27.046875 68.152344 C 26.914062 68.152344 26.917969 68.355469 27.050781 68.359375 C 27.441406 68.363281 27.792969 68.472656 28.167969 68.558594 C 28.222656 68.566406 28.277344 68.5 28.230469 68.460938 " fill-opacity="1" fill-rule="nonzero"/><path fill="#0661aa" d="M 29.917969 68.511719 C 29.511719 68.40625 29.121094 68.234375 28.714844 68.144531 C 28.570312 68.117188 28.488281 68.332031 28.636719 68.367188 C 29.050781 68.464844 29.464844 68.734375 29.902344 68.652344 C 29.96875 68.640625 29.992188 68.53125 29.917969 68.511719 " fill-opacity="1" fill-rule="nonzero"/><path fill="#0661aa" d="M 16.578125 75.554688 C 16.214844 75.515625 15.910156 75.542969 15.546875 75.40625 C 15.050781 75.21875 14.585938 74.910156 14.300781 74.460938 C 14.242188 74.371094 14.125 74.414062 14.113281 74.511719 C 14.015625 75.25 16.324219 76.519531 16.65625 75.683594 C 16.679688 75.625 16.636719 75.5625 16.578125 75.554688 " fill-opacity="1" fill-rule="nonzero"/><path fill="#0661aa" d="M 16.1875 74.933594 C 15.898438 74.839844 15.578125 74.847656 15.355469 74.605469 C 15.261719 74.5 15.09375 74.625 15.179688 74.742188 C 15.414062 75.0625 15.8125 75.1875 16.1875 75.066406 C 16.246094 75.046875 16.246094 74.953125 16.1875 74.933594 " fill-opacity="1" fill-rule="nonzero"/><path fill="#0661aa" d="M 120.292969 82.5 C 120.15625 82.382812 119.960938 82.390625 119.789062 82.355469 C 119.566406 82.304688 119.351562 82.226562 119.132812 82.171875 C 118.953125 82.125 118.886719 82.40625 119.066406 82.453125 C 119.285156 82.507812 119.5 82.578125 119.71875 82.632812 C 119.90625 82.675781 120.128906 82.738281 120.292969 82.613281 C 120.324219 82.589844 120.324219 82.527344 120.292969 82.5 " fill-opacity="1" fill-rule="nonzero"/><path fill="#0661aa" d="M 120.945312 82.257812 C 120.785156 82.097656 120.554688 82.074219 120.34375 82.027344 C 119.957031 81.941406 119.578125 81.890625 119.210938 81.730469 C 119.109375 81.6875 119.03125 81.855469 119.125 81.90625 C 119.449219 82.074219 119.796875 82.167969 120.148438 82.261719 C 120.386719 82.328125 120.660156 82.429688 120.90625 82.390625 C 120.964844 82.378906 120.984375 82.296875 120.945312 82.257812 " fill-opacity="1" fill-rule="nonzero"/><path fill="#0661aa" d="M 121.484375 81.9375 C 121.15625 81.703125 120.605469 81.542969 120.210938 81.679688 C 120.152344 81.699219 120.15625 81.808594 120.226562 81.808594 C 120.496094 81.820312 120.742188 81.890625 120.992188 81.984375 C 121.15625 82.042969 121.296875 82.074219 121.46875 82.042969 C 121.523438 82.035156 121.523438 81.964844 121.484375 81.9375 " fill-opacity="1" fill-rule="nonzero"/><path fill="#0661aa" d="M 118.222656 85.175781 C 117.921875 85.085938 117.617188 85.109375 117.308594 85.109375 C 116.875 85.109375 116.441406 85.066406 116.011719 85.09375 C 115.945312 85.097656 115.925781 85.203125 115.996094 85.214844 C 116.703125 85.3125 117.519531 85.511719 118.222656 85.296875 C 118.28125 85.277344 118.28125 85.195312 118.222656 85.175781 " fill-opacity="1" fill-rule="nonzero"/><path fill="#0661aa" d="M 80.214844 69.511719 C 79.945312 69.265625 79.585938 69.265625 79.238281 69.195312 C 78.640625 69.070312 78.027344 68.960938 77.421875 68.886719 C 77.308594 68.871094 77.28125 69.066406 77.394531 69.085938 C 78.320312 69.226562 79.261719 69.414062 80.179688 69.609375 C 80.238281 69.621094 80.246094 69.542969 80.214844 69.511719 " fill-opacity="1" fill-rule="nonzero"/><path fill="#0661aa" d="M 80.859375 69.082031 C 80.546875 68.921875 80.113281 68.90625 79.785156 68.835938 C 79.511719 68.773438 79.242188 68.71875 78.964844 68.683594 C 78.804688 68.660156 78.769531 68.9375 78.929688 68.960938 C 79.285156 69.019531 79.628906 69.113281 79.980469 69.195312 C 80.269531 69.269531 80.578125 69.34375 80.863281 69.214844 C 80.921875 69.1875 80.914062 69.109375 80.859375 69.082031 " fill-opacity="1" fill-rule="nonzero"/><path fill="#0661aa" d="M 81.597656 68.574219 C 81.082031 68.410156 80.488281 68.203125 79.945312 68.199219 C 79.765625 68.195312 79.753906 68.464844 79.933594 68.476562 C 80.484375 68.511719 81.019531 68.890625 81.578125 68.753906 C 81.664062 68.734375 81.695312 68.605469 81.597656 68.574219 " fill-opacity="1" fill-rule="nonzero"/><path fill="#0661aa" d="M 82.800781 68.007812 C 82.425781 67.894531 82.023438 67.851562 81.636719 67.777344 C 81.261719 67.707031 80.878906 67.628906 80.5 67.699219 C 80.417969 67.714844 80.421875 67.820312 80.5 67.839844 C 80.902344 67.933594 81.316406 67.992188 81.71875 68.089844 C 82.082031 68.179688 82.445312 68.265625 82.808594 68.175781 C 82.902344 68.152344 82.875 68.03125 82.800781 68.007812 " fill-opacity="1" fill-rule="nonzero"/><path fill="#0661aa" d="M 82.339844 67.0625 C 82.148438 66.933594 81.890625 66.945312 81.667969 66.90625 C 81.445312 66.871094 81.199219 66.8125 80.976562 66.878906 C 80.902344 66.902344 80.898438 67.003906 80.972656 67.03125 C 81.203125 67.113281 81.460938 67.144531 81.703125 67.195312 C 81.914062 67.238281 82.144531 67.300781 82.335938 67.175781 C 82.375 67.152344 82.375 67.085938 82.339844 67.0625 " fill-opacity="1" fill-rule="nonzero"/><path fill="#0661aa" d="M 82.71875 66.496094 C 82.433594 66.382812 82.125 66.539062 81.84375 66.390625 C 81.761719 66.34375 81.667969 66.480469 81.75 66.535156 C 82.019531 66.714844 82.429688 66.726562 82.726562 66.601562 C 82.777344 66.578125 82.761719 66.511719 82.71875 66.496094 " fill-opacity="1" fill-rule="nonzero"/><path fill="#0661aa" d="M 83.378906 65.914062 C 83.199219 65.824219 82.972656 65.851562 82.777344 65.835938 C 82.589844 65.820312 82.398438 65.824219 82.207031 65.832031 C 82.128906 65.835938 82.125 65.960938 82.203125 65.96875 C 82.390625 65.984375 82.574219 66.007812 82.761719 66.042969 C 82.957031 66.078125 83.191406 66.132812 83.378906 66.046875 C 83.441406 66.019531 83.433594 65.941406 83.378906 65.914062 " fill-opacity="1" fill-rule="nonzero"/><path fill="#0661aa" d="M 84.355469 65.191406 C 84 65.0625 83.5625 65.140625 83.195312 65.152344 C 83.070312 65.15625 83.058594 65.34375 83.183594 65.347656 C 83.550781 65.359375 83.996094 65.433594 84.347656 65.3125 C 84.398438 65.296875 84.414062 65.210938 84.355469 65.191406 " fill-opacity="1" fill-rule="nonzero"/><path fill="#0661aa" d="M 85.492188 64.871094 C 85.066406 64.652344 84.457031 64.734375 83.992188 64.757812 C 83.894531 64.761719 83.886719 64.925781 83.984375 64.929688 C 84.25 64.945312 84.511719 64.953125 84.773438 64.964844 C 85.011719 64.976562 85.246094 65.027344 85.480469 64.984375 C 85.539062 64.976562 85.539062 64.890625 85.492188 64.871094 " fill-opacity="1" fill-rule="nonzero"/><path fill="#0661aa" d="M 85.808594 64.230469 C 85.570312 64.152344 85.300781 64.167969 85.050781 64.167969 C 84.914062 64.167969 84.929688 64.382812 85.066406 64.382812 C 85.308594 64.382812 85.570312 64.398438 85.804688 64.320312 C 85.84375 64.308594 85.847656 64.246094 85.808594 64.230469 " fill-opacity="1" fill-rule="nonzero"/><path fill="#0661aa" d="M 86.546875 63.808594 C 86.347656 63.699219 86.035156 63.710938 85.8125 63.710938 C 85.597656 63.714844 85.40625 63.753906 85.257812 63.917969 C 85.214844 63.96875 85.289062 64.023438 85.335938 63.992188 C 85.515625 63.871094 85.785156 63.917969 85.992188 63.933594 C 86.160156 63.949219 86.382812 64.007812 86.542969 63.933594 C 86.59375 63.90625 86.605469 63.839844 86.546875 63.808594 " fill-opacity="1" fill-rule="nonzero"/><path fill="#0661aa" d="M 87.28125 63.5 C 87.113281 63.410156 86.890625 63.433594 86.707031 63.441406 C 86.542969 63.449219 86.378906 63.480469 86.238281 63.570312 C 86.160156 63.617188 86.242188 63.722656 86.316406 63.679688 C 86.476562 63.589844 86.679688 63.601562 86.859375 63.613281 C 86.996094 63.625 87.144531 63.65625 87.273438 63.59375 C 87.304688 63.578125 87.320312 63.519531 87.28125 63.5 " fill-opacity="1" fill-rule="nonzero"/><path fill="#0661aa" d="M 87.25 63.113281 C 87.222656 63.113281 87.199219 63.109375 87.175781 63.109375 C 87.132812 63.105469 87.132812 63.167969 87.171875 63.167969 C 87.199219 63.164062 87.226562 63.164062 87.253906 63.164062 C 87.285156 63.160156 87.28125 63.113281 87.25 63.113281 " fill-opacity="1" fill-rule="nonzero"/><path fill="#0661aa" d="M 49.53125 77.308594 C 48.703125 77.328125 47.730469 77.441406 46.953125 77.09375 C 46.316406 76.8125 45.789062 76.789062 45.09375 76.859375 C 44.882812 76.878906 44.675781 76.902344 44.464844 76.917969 C 43.769531 77.042969 43.402344 76.589844 43.367188 75.558594 C 43.457031 75.339844 43.429688 75.078125 43.375 74.855469 C 43.300781 74.523438 43.054688 74.324219 42.78125 74.152344 C 41.796875 73.527344 40.648438 73.898438 39.566406 73.761719 C 38.628906 73.644531 37.753906 73.433594 36.832031 73.363281 C 35.429688 73.25 34.023438 73.472656 32.621094 73.582031 C 30.800781 73.722656 29.027344 74.246094 27.292969 74.78125 C 25.414062 75.359375 23.710938 75.769531 21.753906 75.941406 C 19.835938 76.109375 17.882812 76.40625 15.960938 76.140625 C 15.28125 76.046875 14.628906 75.839844 14.066406 75.441406 C 13.03125 74.710938 13.710938 73.648438 14.617188 73.292969 C 15.976562 72.765625 17.652344 72.824219 19.074219 72.660156 C 20.726562 72.472656 22.382812 72.464844 24.035156 72.285156 C 25.054688 72.171875 26.03125 71.84375 27.046875 71.714844 C 27.902344 71.605469 28.734375 71.585938 29.574219 71.378906 C 31.101562 70.996094 31.90625 69.203125 29.96875 68.804688 C 28.476562 68.492188 26.675781 69.035156 25.179688 69.167969 C 23.574219 69.316406 22.097656 69.78125 20.515625 70.054688 C 20.054688 70.132812 19.574219 70.117188 19.113281 70.078125 C 18.8125 70.050781 17.949219 69.925781 18.363281 69.28125 C 18.5625 68.96875 19.003906 68.816406 19.324219 68.679688 C 20.359375 68.242188 21.527344 68.042969 22.59375 67.667969 C 23.226562 67.445312 23.851562 67.210938 24.480469 66.984375 C 25.335938 66.679688 26.214844 66.664062 27.101562 66.511719 C 28.042969 66.347656 29.015625 65.824219 29.628906 65.09375 C 30.625 63.910156 28.472656 63.53125 27.742188 63.523438 C 26.300781 63.507812 24.839844 63.4375 23.402344 63.507812 C 22.105469 63.574219 20.828125 63.90625 19.554688 64.140625 C 19.429688 64.164062 19.472656 64.339844 19.59375 64.328125 C 21.445312 64.167969 23.273438 63.753906 25.136719 63.949219 C 25.636719 64.003906 26.140625 63.976562 26.636719 63.960938 C 27.265625 63.9375 30.328125 63.875 28.984375 65.15625 C 28.472656 65.644531 27.691406 65.949219 27.023438 66.121094 C 26.417969 66.277344 25.710938 66.171875 25.128906 66.371094 C 23.53125 66.921875 21.972656 67.570312 20.339844 68 C 19.527344 68.214844 18.675781 68.449219 18.085938 69.074219 C 17.761719 69.414062 17.824219 69.988281 18.253906 70.195312 C 18.917969 70.515625 19.699219 70.484375 20.417969 70.417969 C 21.074219 70.363281 21.726562 70.125 22.363281 69.960938 C 23.445312 69.6875 24.503906 69.59375 25.617188 69.496094 C 26.503906 69.417969 27.382812 69.28125 28.269531 69.199219 C 28.972656 69.132812 31.785156 69.050781 30.417969 70.519531 C 29.816406 71.164062 28.644531 71.214844 27.828125 71.304688 C 26.960938 71.398438 26.167969 71.542969 25.320312 71.742188 C 23.421875 72.191406 21.441406 72.082031 19.511719 72.28125 C 18.019531 72.4375 16.484375 72.496094 15.015625 72.816406 C 13.480469 73.148438 12.460938 74.476562 13.867188 75.730469 C 15.246094 76.957031 17.921875 76.628906 19.59375 76.496094 C 22.296875 76.277344 24.898438 76.09375 27.457031 75.136719 C 29.191406 74.488281 31.019531 74.085938 32.859375 73.867188 C 35.046875 73.613281 36.730469 73.378906 38.816406 74.125 C 39.195312 74.261719 39.621094 74.253906 40.019531 74.265625 C 40.691406 74.285156 41.363281 74.300781 42.023438 74.441406 C 43.128906 74.675781 42.484375 75.796875 42.546875 76.574219 C 42.679688 78.261719 45.761719 77.230469 46.613281 77.644531 C 47.289062 77.972656 49.238281 78.421875 49.71875 77.652344 C 49.816406 77.492188 49.726562 77.300781 49.53125 77.308594 " fill-opacity="1" fill-rule="nonzero"/><path fill="#0661aa" d="M 17.917969 66.007812 C 17.304688 65.652344 16.382812 65.964844 15.765625 66.167969 C 15.582031 66.230469 15.164062 66.390625 15.210938 66.652344 C 15.34375 67.472656 17.078125 67.113281 17.601562 66.972656 C 18.007812 66.863281 18.445312 66.3125 17.917969 66.007812 Z M 17.785156 66.582031 C 17.535156 66.828125 16.945312 66.804688 16.625 66.820312 C 16.335938 66.832031 16.046875 66.828125 15.757812 66.839844 C 15.59375 66.753906 15.449219 66.644531 15.585938 66.558594 C 15.667969 66.503906 15.785156 66.457031 15.878906 66.425781 C 16.074219 66.363281 16.273438 66.308594 16.472656 66.261719 C 16.753906 66.195312 17.035156 66.152344 17.324219 66.148438 C 17.535156 66.144531 18.082031 66.285156 17.785156 66.582031 " fill-opacity="1" fill-rule="nonzero"/><path fill="#0661aa" d="M 78.363281 68.933594 C 77.730469 68.992188 76.175781 69.175781 75.929688 69.988281 C 75.722656 70.652344 75.644531 71.125 74.863281 71.316406 C 74.382812 71.433594 73.90625 71.371094 73.425781 71.445312 C 73.359375 71.457031 73.371094 71.546875 73.425781 71.566406 C 74.214844 71.824219 75.085938 71.773438 75.808594 71.324219 C 75.9375 71.246094 76.117188 71.042969 76.148438 70.886719 C 76.253906 70.289062 76.410156 69.859375 77.003906 69.671875 C 77.503906 69.511719 77.992188 69.4375 78.460938 69.191406 C 78.609375 69.113281 78.511719 68.917969 78.363281 68.933594 " fill-opacity="1" fill-rule="nonzero"/><path fill="#0661aa" d="M 89.167969 64.996094 C 88.710938 64.714844 88.4375 64.984375 87.863281 64.792969 C 87.542969 64.6875 87.101562 64.269531 86.738281 64.347656 C 86.191406 64.460938 85.589844 64.941406 86.058594 65.523438 C 86.296875 65.816406 87.835938 66.449219 86.652344 66.441406 C 85.871094 66.4375 85.167969 66.132812 84.390625 66.195312 C 84.019531 66.226562 83.753906 66.539062 83.566406 66.820312 C 82.917969 67.808594 81.617188 67.457031 80.667969 67.621094 C 80.601562 67.632812 80.578125 67.742188 80.65625 67.75 C 81.675781 67.839844 82.9375 68.015625 83.730469 67.210938 C 84.984375 65.933594 86.382812 67.371094 87.667969 66.652344 C 88.125 66.398438 87.53125 65.863281 87.332031 65.730469 C 87.234375 65.691406 87.132812 65.65625 87.035156 65.617188 C 86.566406 65.5625 86.546875 65.273438 86.972656 64.75 C 87.234375 64.816406 87.5 65.003906 87.746094 65.125 C 88.210938 65.347656 88.636719 65.195312 89.125 65.191406 C 89.234375 65.191406 89.253906 65.046875 89.167969 64.996094 " fill-opacity="1" fill-rule="nonzero"/><path fill="#0661aa" d="M 110.507812 66.199219 C 109.382812 66.167969 108.257812 66.230469 107.132812 66.148438 C 106.394531 66.097656 105.71875 66.050781 105.027344 66.339844 C 104.964844 66.367188 105 66.449219 105.0625 66.433594 C 106.167969 66.144531 107.367188 66.480469 108.488281 66.542969 C 109.023438 66.570312 109.5625 66.570312 110.09375 66.566406 C 110.554688 66.566406 111.007812 66.582031 111.464844 66.644531 C 111.6875 66.632812 111.8125 66.753906 111.828125 67 C 111.59375 67.105469 111.242188 67.089844 110.984375 67.097656 C 109.839844 67.128906 108.703125 67.214844 107.558594 67.265625 C 106.464844 67.320312 105.25 66.921875 104.199219 67.207031 C 104.003906 67.261719 104.0625 67.566406 104.261719 67.515625 C 105.25 67.265625 106.5625 67.652344 107.585938 67.644531 C 108.605469 67.636719 109.613281 67.460938 110.628906 67.472656 C 111.023438 67.476562 112.410156 67.582031 112.378906 66.867188 C 112.347656 66.148438 110.964844 66.214844 110.507812 66.199219 " fill-opacity="1" fill-rule="nonzero"/><path fill="#0661aa" d="M 118.464844 66.699219 C 117.933594 66.355469 117.339844 66.292969 116.722656 66.292969 C 116.355469 66.292969 115.898438 66.3125 115.535156 66.476562 C 115.058594 66.335938 114.527344 67.042969 115.097656 67.179688 C 115.203125 67.203125 115.320312 67.179688 115.429688 67.160156 C 115.8125 67.089844 116.191406 67.097656 116.582031 67.117188 C 117.175781 67.148438 117.824219 67.242188 118.402344 67.0625 C 118.566406 67.015625 118.617188 66.796875 118.464844 66.699219 Z M 115.832031 66.734375 C 115.636719 66.742188 115.4375 66.789062 115.246094 66.816406 C 115.261719 66.8125 115.3125 66.78125 115.367188 66.738281 C 116.074219 66.644531 116.949219 66.566406 117.667969 66.777344 C 117.0625 66.8125 116.425781 66.714844 115.832031 66.734375 " fill-opacity="1" fill-rule="nonzero"/></svg>