<svg xmlns="http://www.w3.org/2000/svg" xmlns:xlink="http://www.w3.org/1999/xlink" width="180" zoomAndPan="magnify" viewBox="0 0 135 119.999999" height="160" preserveAspectRatio="xMidYMid meet" version="1.0"><defs><clipPath id="d5278293a3"><path d="M 0 47 L 87 47 L 87 92.925781 L 0 92.925781 Z M 0 47 " clip-rule="nonzero"/></clipPath></defs><rect x="-13.5" width="162" fill="#ffffff" y="-12" height="143.999998" fill-opacity="1"/><rect x="-13.5" width="162" fill="#ffffff" y="-12" height="143.999998" fill-opacity="1"/><path fill="#0661aa" d="M 47.863281 59.710938 C 40.351562 59.710938 33.507812 57.558594 29.179688 55.804688 C 27.644531 55.183594 25.894531 54.40625 24.539062 53.070312 C 22.972656 51.523438 22.269531 49.429688 22.707031 47.605469 C 23.382812 44.804688 26.269531 43.453125 28.382812 42.679688 C 35.015625 40.253906 42.253906 39.089844 49.3125 39.308594 C 56.398438 39.53125 67.300781 42.746094 68.203125 48.949219 C 68.617188 51.792969 66.4375 54.578125 62.222656 56.597656 C 57.472656 58.878906 52.535156 59.710938 47.863281 59.710938 Z M 47.617188 41.1875 C 41.324219 41.1875 34.933594 42.3125 29.039062 44.472656 C 26.332031 45.460938 24.910156 46.597656 24.5625 48.050781 C 24.28125 49.210938 24.800781 50.648438 25.878906 51.710938 C 26.984375 52.800781 28.53125 53.484375 29.898438 54.039062 C 36.625 56.765625 49.667969 60.503906 61.398438 54.878906 C 63.011719 54.105469 66.71875 52.007812 66.316406 49.222656 C 65.613281 44.386719 55.78125 41.417969 49.253906 41.214844 C 48.710938 41.195312 48.164062 41.1875 47.617188 41.1875 Z M 47.617188 41.1875 " fill-opacity="1" fill-rule="nonzero"/><path fill="#0661aa" d="M 45.179688 73.582031 C 44.714844 73.582031 44.246094 73.578125 43.773438 73.566406 C 30.664062 73.292969 16.902344 69.125 6.960938 62.421875 C 2.582031 59.46875 0 54.710938 0.386719 50.304688 C 0.777344 45.804688 3.988281 41.785156 10.203125 38.011719 C 28.195312 27.085938 53.921875 26.949219 77.34375 37.65625 C 79.464844 38.625 82.386719 40.429688 84.277344 43.523438 C 87.664062 49.078125 85.191406 56.296875 81.140625 60.269531 C 72.363281 68.878906 59.632812 73.582031 45.179688 73.582031 Z M 42.132812 31.621094 C 30.726562 31.621094 19.996094 34.296875 11.191406 39.644531 C 5.535156 43.078125 2.621094 46.621094 2.285156 50.46875 C 1.960938 54.199219 4.214844 58.269531 8.027344 60.839844 C 25.367188 72.535156 59.960938 78.371094 79.804688 58.910156 C 83.332031 55.453125 85.523438 49.230469 82.648438 44.515625 C 81.011719 41.835938 78.429688 40.246094 76.550781 39.390625 C 65.21875 34.210938 53.347656 31.621094 42.132812 31.621094 Z M 10.695312 38.828125 L 10.707031 38.828125 Z M 10.695312 38.828125 " fill-opacity="1" fill-rule="nonzero"/><g clip-path="url(#d5278293a3)"><path fill="#0661aa" d="M 43.613281 93.046875 C 37.941406 93.046875 32.304688 92.402344 26.925781 91.121094 C 17.824219 88.953125 9.816406 84.761719 3.769531 78.996094 C 2.632812 77.910156 1.917969 76.453125 1.761719 74.894531 C 0.980469 67.121094 0.382812 60.378906 0.382812 50.386719 C 0.382812 49.859375 0.808594 49.433594 1.335938 49.433594 C 1.863281 49.433594 2.289062 49.859375 2.289062 50.386719 C 2.289062 60.292969 2.882812 66.984375 3.660156 74.703125 C 3.769531 75.8125 4.277344 76.84375 5.085938 77.617188 C 10.890625 83.148438 18.59375 87.175781 27.367188 89.265625 C 36.179688 91.367188 45.710938 91.707031 54.921875 90.257812 C 67.582031 88.265625 75.058594 85.550781 83.296875 75.53125 C 83.746094 74.984375 84.027344 74.285156 84.09375 73.566406 C 84.679688 67.042969 84.628906 57.757812 83.960938 48.730469 C 83.921875 48.203125 84.320312 47.746094 84.84375 47.707031 C 85.355469 47.671875 85.824219 48.0625 85.863281 48.589844 C 86.539062 57.714844 86.585938 67.113281 85.992188 73.734375 C 85.890625 74.851562 85.46875 75.890625 84.769531 76.742188 C 76.191406 87.175781 68.085938 90.117188 55.214844 92.140625 C 51.378906 92.746094 47.488281 93.046875 43.613281 93.046875 Z M 43.613281 93.046875 " fill-opacity="1" fill-rule="nonzero"/></g><path fill="#0661aa" d="M 65.367188 54.355469 C 65.234375 54.355469 65.097656 54.324219 64.96875 54.265625 C 53.378906 48.945312 37.722656 48.941406 26.894531 54.253906 C 26.421875 54.488281 25.851562 54.289062 25.617188 53.816406 C 25.386719 53.34375 25.582031 52.773438 26.054688 52.542969 C 37.363281 46.992188 53.691406 46.988281 65.765625 52.535156 C 66.242188 52.753906 66.453125 53.320312 66.234375 53.796875 C 66.074219 54.148438 65.726562 54.355469 65.367188 54.355469 Z M 65.367188 54.355469 " fill-opacity="1" fill-rule="nonzero"/><path fill="#0661aa" d="M 99.550781 76.753906 C 94.535156 76.753906 89.542969 76.28125 84.726562 75.316406 C 84.210938 75.210938 83.875 74.707031 83.980469 74.191406 C 84.082031 73.675781 84.582031 73.339844 85.101562 73.445312 C 100.515625 76.535156 117.808594 74.453125 131.355469 67.875 C 132.125 67.503906 132.632812 66.730469 132.683594 65.863281 C 133.089844 59.019531 132.773438 52.605469 131.722656 46.257812 C 131.671875 45.960938 131.46875 45.808594 131.355469 45.742188 C 131.148438 45.632812 130.914062 45.617188 130.699219 45.707031 C 129.417969 46.238281 128.144531 46.785156 126.867188 47.332031 C 121.175781 49.761719 115.292969 52.273438 109.164062 53.769531 C 99.777344 56.066406 92.121094 55.679688 85.066406 52.558594 C 84.585938 52.34375 84.371094 51.78125 84.582031 51.300781 C 84.796875 50.816406 85.359375 50.601562 85.839844 50.8125 C 92.484375 53.757812 99.753906 54.109375 108.710938 51.917969 C 114.6875 50.457031 120.496094 47.976562 126.117188 45.578125 C 127.398438 45.03125 128.679688 44.484375 129.964844 43.945312 C 130.71875 43.632812 131.5625 43.679688 132.277344 44.074219 C 132.988281 44.46875 133.46875 45.152344 133.601562 45.945312 C 134.679688 52.433594 135 58.988281 134.585938 65.976562 C 134.496094 67.53125 133.578125 68.917969 132.1875 69.589844 C 122.515625 74.289062 110.988281 76.753906 99.550781 76.753906 Z M 99.550781 76.753906 " fill-opacity="1" fill-rule="nonzero"/></svg>