<svg xmlns="http://www.w3.org/2000/svg" xmlns:xlink="http://www.w3.org/1999/xlink" width="180" zoomAndPan="magnify" viewBox="0 0 135 161.249994" height="215" preserveAspectRatio="xMidYMid meet" version="1.2"><defs><clipPath id="4e37741b55"><path d="M 0.328125 23.941406 L 134.667969 23.941406 L 134.667969 87.089844 L 0.328125 87.089844 Z M 0.328125 23.941406 "/></clipPath></defs><g id="da8800703f"><g style="fill:#0661aa;fill-opacity:1;"><g transform="translate(36.630318, 104.878549)"><path style="stroke:none" d="M 6.75 0.4375 C 4.90625 0.4375 3.460938 -0.0390625 2.421875 -1 C 1.390625 -1.96875 0.875 -3.300781 0.875 -5 L 0.875 -14.171875 L 4.28125 -14.171875 L 4.28125 -5.203125 C 4.28125 -4.390625 4.5 -3.734375 4.9375 -3.234375 C 5.375 -2.734375 5.976562 -2.484375 6.75 -2.484375 C 7.519531 -2.484375 8.125 -2.722656 8.5625 -3.203125 C 9 -3.691406 9.21875 -4.359375 9.21875 -5.203125 L 9.21875 -14.171875 L 12.625 -14.171875 L 12.625 -5 C 12.625 -3.300781 12.101562 -1.96875 11.0625 -1 C 10.03125 -0.0390625 8.59375 0.4375 6.75 0.4375 Z M 6.75 0.4375 "/></g></g><g style="fill:#0661aa;fill-opacity:1;"><g transform="translate(52.471295, 104.878549)"><path style="stroke:none" d="M 2.3125 -11.578125 C 1.78125 -11.578125 1.347656 -11.738281 1.015625 -12.0625 C 0.679688 -12.382812 0.515625 -12.800781 0.515625 -13.3125 C 0.515625 -13.832031 0.679688 -14.253906 1.015625 -14.578125 C 1.347656 -14.898438 1.78125 -15.0625 2.3125 -15.0625 C 2.851562 -15.0625 3.289062 -14.898438 3.625 -14.578125 C 3.957031 -14.253906 4.125 -13.832031 4.125 -13.3125 C 4.125 -12.800781 3.957031 -12.382812 3.625 -12.0625 C 3.289062 -11.738281 2.851562 -11.578125 2.3125 -11.578125 Z M 0.375 4.515625 C -0.4375 4.515625 -1.160156 4.40625 -1.796875 4.1875 L -1.4375 2.015625 C -1.09375 2.128906 -0.753906 2.1875 -0.421875 2.1875 C -0.0351562 2.1875 0.257812 2.066406 0.46875 1.828125 C 0.6875 1.585938 0.796875 1.265625 0.796875 0.859375 L 0.796875 -10.1875 L 3.84375 -10.1875 L 3.84375 1.171875 C 3.84375 2.222656 3.53125 3.039062 2.90625 3.625 C 2.289062 4.21875 1.445312 4.515625 0.375 4.515625 Z M 0.375 4.515625 "/></g></g><g style="fill:#0661aa;fill-opacity:1;"><g transform="translate(59.496761, 104.878549)"><path style="stroke:none" d="M 2.3125 -11.578125 C 1.78125 -11.578125 1.347656 -11.738281 1.015625 -12.0625 C 0.679688 -12.382812 0.515625 -12.800781 0.515625 -13.3125 C 0.515625 -13.832031 0.679688 -14.253906 1.015625 -14.578125 C 1.347656 -14.898438 1.78125 -15.0625 2.3125 -15.0625 C 2.851562 -15.0625 3.289062 -14.898438 3.625 -14.578125 C 3.957031 -14.253906 4.125 -13.832031 4.125 -13.3125 C 4.125 -12.800781 3.957031 -12.382812 3.625 -12.0625 C 3.289062 -11.738281 2.851562 -11.578125 2.3125 -11.578125 Z M 0.375 4.515625 C -0.4375 4.515625 -1.160156 4.40625 -1.796875 4.1875 L -1.4375 2.015625 C -1.09375 2.128906 -0.753906 2.1875 -0.421875 2.1875 C -0.0351562 2.1875 0.257812 2.066406 0.46875 1.828125 C 0.6875 1.585938 0.796875 1.265625 0.796875 0.859375 L 0.796875 -10.1875 L 3.84375 -10.1875 L 3.84375 1.171875 C 3.84375 2.222656 3.53125 3.039062 2.90625 3.625 C 2.289062 4.21875 1.445312 4.515625 0.375 4.515625 Z M 0.375 4.515625 "/></g></g><g style="fill:#0661aa;fill-opacity:1;"><g transform="translate(66.522228, 104.878549)"><path style="stroke:none" d="M 3.515625 0.234375 C 2.546875 0.234375 1.765625 -0.0195312 1.171875 -0.53125 C 0.578125 -1.050781 0.28125 -1.75 0.28125 -2.625 C 0.28125 -3.550781 0.632812 -4.300781 1.34375 -4.875 C 2.050781 -5.457031 3.085938 -5.820312 4.453125 -5.96875 L 6.03125 -6.15625 C 6.257812 -6.175781 6.441406 -6.253906 6.578125 -6.390625 C 6.710938 -6.523438 6.78125 -6.71875 6.78125 -6.96875 C 6.78125 -7.414062 6.640625 -7.757812 6.359375 -8 C 6.085938 -8.238281 5.726562 -8.359375 5.28125 -8.359375 C 4.757812 -8.359375 4.335938 -8.175781 4.015625 -7.8125 C 3.703125 -7.457031 3.53125 -7.007812 3.5 -6.46875 L 0.609375 -6.890625 C 0.640625 -7.609375 0.847656 -8.238281 1.234375 -8.78125 C 1.628906 -9.332031 2.164062 -9.765625 2.84375 -10.078125 C 3.53125 -10.390625 4.332031 -10.546875 5.25 -10.546875 C 6.644531 -10.546875 7.75 -10.179688 8.5625 -9.453125 C 9.375 -8.722656 9.78125 -7.734375 9.78125 -6.484375 L 9.78125 -2.546875 C 9.78125 -2.097656 9.941406 -1.875 10.265625 -1.875 C 10.535156 -1.875 10.789062 -2.003906 11.03125 -2.265625 L 11.6875 -0.640625 C 11.363281 -0.328125 10.976562 -0.0976562 10.53125 0.046875 C 10.082031 0.191406 9.640625 0.265625 9.203125 0.265625 C 8.585938 0.265625 8.070312 0.109375 7.65625 -0.203125 C 7.238281 -0.515625 6.976562 -0.910156 6.875 -1.390625 L 6.828125 -1.65625 L 6.8125 -1.65625 C 6.5 -1.070312 6.054688 -0.609375 5.484375 -0.265625 C 4.921875 0.0664062 4.265625 0.234375 3.515625 0.234375 Z M 4.78125 -1.890625 C 5.351562 -1.890625 5.820312 -2.09375 6.1875 -2.5 C 6.5625 -2.90625 6.75 -3.429688 6.75 -4.078125 L 6.75 -4.5625 L 5.25 -4.40625 C 4.5625 -4.320312 4.066406 -4.148438 3.765625 -3.890625 C 3.472656 -3.640625 3.328125 -3.34375 3.328125 -3 C 3.328125 -2.675781 3.460938 -2.410156 3.734375 -2.203125 C 4.003906 -1.992188 4.351562 -1.890625 4.78125 -1.890625 Z M 4.78125 -1.890625 "/></g></g><g style="fill:#0661aa;fill-opacity:1;"><g transform="translate(80.552338, 104.878549)"><path style="stroke:none" d="M 4.4375 4.515625 C 3.476562 4.515625 2.582031 4.347656 1.75 4.015625 C 0.914062 3.679688 0.238281 3.234375 -0.28125 2.671875 L 0.921875 0.515625 C 1.304688 0.960938 1.78125 1.320312 2.34375 1.59375 C 2.90625 1.875 3.503906 2.015625 4.140625 2.015625 C 5.003906 2.015625 5.679688 1.765625 6.171875 1.265625 C 6.671875 0.773438 6.921875 0.109375 6.921875 -0.734375 L 6.921875 -1.609375 L 6.90625 -1.609375 C 6.613281 -1.003906 6.207031 -0.519531 5.6875 -0.15625 C 5.175781 0.195312 4.609375 0.375 3.984375 0.375 C 2.960938 0.375 2.15625 0.0351562 1.5625 -0.640625 C 0.96875 -1.316406 0.671875 -2.222656 0.671875 -3.359375 L 0.671875 -10.1875 L 3.71875 -10.1875 L 3.71875 -3.859375 C 3.71875 -3.328125 3.847656 -2.898438 4.109375 -2.578125 C 4.367188 -2.265625 4.722656 -2.109375 5.171875 -2.109375 C 5.679688 -2.109375 6.09375 -2.285156 6.40625 -2.640625 C 6.726562 -2.992188 6.890625 -3.453125 6.890625 -4.015625 L 6.890625 -10.1875 L 9.90625 -10.1875 L 9.9375 -0.53125 C 9.9375 0.507812 9.710938 1.40625 9.265625 2.15625 C 8.816406 2.914062 8.179688 3.5 7.359375 3.90625 C 6.535156 4.3125 5.5625 4.515625 4.4375 4.515625 Z M 4.4375 4.515625 "/></g></g><g style="fill:#0661aa;fill-opacity:1;"><g transform="translate(93.56758, 104.878549)"><path style="stroke:none" d="M 2.34375 -11.578125 C 1.800781 -11.578125 1.367188 -11.738281 1.046875 -12.0625 C 0.722656 -12.382812 0.5625 -12.800781 0.5625 -13.3125 C 0.5625 -13.84375 0.722656 -14.265625 1.046875 -14.578125 C 1.367188 -14.898438 1.800781 -15.0625 2.34375 -15.0625 C 2.894531 -15.0625 3.332031 -14.898438 3.65625 -14.578125 C 3.976562 -14.265625 4.140625 -13.84375 4.140625 -13.3125 C 4.140625 -12.800781 3.976562 -12.382812 3.65625 -12.0625 C 3.332031 -11.738281 2.894531 -11.578125 2.34375 -11.578125 Z M 0.8125 0 L 0.8125 -10.1875 L 3.859375 -10.1875 L 3.859375 0 Z M 0.8125 0 "/></g></g><g style="fill:#2d6d5e;fill-opacity:1;"><g transform="translate(24.169646, 120.993589)"><path style="stroke:none" d="M 5.421875 -3.921875 C 5.421875 -3.359375 5.375 -2.832031 5.28125 -2.34375 C 5.195312 -1.863281 5.0625 -1.4375 4.875 -1.0625 C 4.6875 -0.695312 4.4375 -0.410156 4.125 -0.203125 C 3.8125 0.00390625 3.4375 0.109375 3 0.109375 C 2.550781 0.109375 2.171875 0.00390625 1.859375 -0.203125 C 1.546875 -0.421875 1.289062 -0.710938 1.09375 -1.078125 C 0.90625 -1.453125 0.765625 -1.882812 0.671875 -2.375 C 0.585938 -2.863281 0.546875 -3.378906 0.546875 -3.921875 C 0.546875 -4.816406 0.632812 -5.554688 0.8125 -6.140625 C 1 -6.734375 1.273438 -7.175781 1.640625 -7.46875 C 2.003906 -7.769531 2.457031 -7.921875 3 -7.921875 C 3.582031 -7.921875 4.050781 -7.742188 4.40625 -7.390625 C 4.757812 -7.035156 5.015625 -6.554688 5.171875 -5.953125 C 5.335938 -5.347656 5.421875 -4.671875 5.421875 -3.921875 Z M 1.4375 -3.921875 C 1.4375 -3.210938 1.492188 -2.613281 1.609375 -2.125 C 1.734375 -1.644531 1.910156 -1.28125 2.140625 -1.03125 C 2.367188 -0.789062 2.648438 -0.671875 2.984375 -0.671875 C 3.328125 -0.671875 3.613281 -0.789062 3.84375 -1.03125 C 4.070312 -1.269531 4.242188 -1.628906 4.359375 -2.109375 C 4.472656 -2.585938 4.53125 -3.191406 4.53125 -3.921875 C 4.53125 -4.984375 4.398438 -5.785156 4.140625 -6.328125 C 3.890625 -6.867188 3.507812 -7.140625 3 -7.140625 C 2.644531 -7.140625 2.351562 -7.015625 2.125 -6.765625 C 1.894531 -6.523438 1.722656 -6.164062 1.609375 -5.6875 C 1.492188 -5.21875 1.4375 -4.628906 1.4375 -3.921875 Z M 1.4375 -3.921875 "/></g></g><g style="fill:#2d6d5e;fill-opacity:1;"><g transform="translate(31.669996, 120.993589)"><path style="stroke:none" d="M 2.40625 0.109375 C 1.976562 0.109375 1.617188 0 1.328125 -0.21875 C 1.046875 -0.445312 0.832031 -0.785156 0.6875 -1.234375 C 0.539062 -1.679688 0.46875 -2.234375 0.46875 -2.890625 C 0.46875 -3.535156 0.539062 -4.085938 0.6875 -4.546875 C 0.832031 -5.003906 1.050781 -5.351562 1.34375 -5.59375 C 1.632812 -5.84375 2 -5.96875 2.4375 -5.96875 C 2.65625 -5.96875 2.851562 -5.941406 3.03125 -5.890625 C 3.207031 -5.847656 3.375 -5.785156 3.53125 -5.703125 L 3.265625 -5.03125 C 3.140625 -5.09375 3.007812 -5.140625 2.875 -5.171875 C 2.75 -5.210938 2.625 -5.234375 2.5 -5.234375 C 2.238281 -5.234375 2.019531 -5.144531 1.84375 -4.96875 C 1.675781 -4.789062 1.546875 -4.53125 1.453125 -4.1875 C 1.359375 -3.84375 1.3125 -3.414062 1.3125 -2.90625 C 1.3125 -2.394531 1.351562 -1.96875 1.4375 -1.625 C 1.53125 -1.289062 1.664062 -1.035156 1.84375 -0.859375 C 2.019531 -0.691406 2.238281 -0.609375 2.5 -0.609375 C 2.65625 -0.609375 2.8125 -0.628906 2.96875 -0.671875 C 3.132812 -0.722656 3.300781 -0.789062 3.46875 -0.875 L 3.46875 -0.1875 C 3.3125 -0.09375 3.132812 -0.0195312 2.9375 0.03125 C 2.75 0.0820312 2.570312 0.109375 2.40625 0.109375 Z M 2.40625 0.109375 "/></g></g><g style="fill:#2d6d5e;fill-opacity:1;"><g transform="translate(36.95858, 120.993589)"><path style="stroke:none" d="M 2.328125 -5.953125 C 2.722656 -5.953125 3.050781 -5.835938 3.3125 -5.609375 C 3.570312 -5.378906 3.765625 -5.066406 3.890625 -4.671875 C 4.015625 -4.285156 4.078125 -3.851562 4.078125 -3.375 L 4.078125 -2.78125 L 1.28125 -2.78125 C 1.289062 -2.050781 1.40625 -1.503906 1.625 -1.140625 C 1.84375 -0.773438 2.171875 -0.59375 2.609375 -0.59375 C 2.828125 -0.59375 3.035156 -0.625 3.234375 -0.6875 C 3.441406 -0.75 3.648438 -0.851562 3.859375 -1 L 3.859375 -0.265625 C 3.660156 -0.140625 3.453125 -0.046875 3.234375 0.015625 C 3.015625 0.078125 2.78125 0.109375 2.53125 0.109375 C 2.039062 0.109375 1.644531 -0.0195312 1.34375 -0.28125 C 1.039062 -0.539062 0.816406 -0.898438 0.671875 -1.359375 C 0.535156 -1.816406 0.46875 -2.332031 0.46875 -2.90625 C 0.46875 -3.550781 0.535156 -4.101562 0.671875 -4.5625 C 0.816406 -5.019531 1.023438 -5.363281 1.296875 -5.59375 C 1.578125 -5.832031 1.921875 -5.953125 2.328125 -5.953125 Z M 2.328125 -5.28125 C 2.015625 -5.28125 1.769531 -5.128906 1.59375 -4.828125 C 1.425781 -4.535156 1.328125 -4.070312 1.296875 -3.4375 L 3.3125 -3.4375 C 3.3125 -3.769531 3.273438 -4.078125 3.203125 -4.359375 C 3.140625 -4.640625 3.035156 -4.863281 2.890625 -5.03125 C 2.742188 -5.195312 2.554688 -5.28125 2.328125 -5.28125 Z M 2.328125 -5.28125 "/></g></g><g style="fill:#2d6d5e;fill-opacity:1;"><g transform="translate(43.016475, 120.993589)"><path style="stroke:none" d="M 2.28125 -5.96875 C 2.820312 -5.96875 3.207031 -5.796875 3.4375 -5.453125 C 3.675781 -5.109375 3.796875 -4.609375 3.796875 -3.953125 L 3.796875 0 L 3.171875 0 L 3.046875 -0.828125 L 3.015625 -0.828125 C 2.929688 -0.628906 2.820312 -0.457031 2.6875 -0.3125 C 2.5625 -0.175781 2.414062 -0.0703125 2.25 0 C 2.09375 0.0703125 1.90625 0.109375 1.6875 0.109375 C 1.382812 0.109375 1.132812 0.03125 0.9375 -0.125 C 0.75 -0.289062 0.609375 -0.503906 0.515625 -0.765625 C 0.421875 -1.023438 0.375 -1.304688 0.375 -1.609375 C 0.375 -2.191406 0.539062 -2.640625 0.875 -2.953125 C 1.21875 -3.273438 1.695312 -3.453125 2.3125 -3.484375 L 2.96875 -3.53125 L 2.96875 -3.9375 C 2.96875 -4.40625 2.90625 -4.742188 2.78125 -4.953125 C 2.65625 -5.171875 2.445312 -5.28125 2.15625 -5.28125 C 2 -5.28125 1.828125 -5.25 1.640625 -5.1875 C 1.460938 -5.132812 1.269531 -5.046875 1.0625 -4.921875 L 0.796875 -5.546875 C 1.015625 -5.691406 1.25 -5.796875 1.5 -5.859375 C 1.757812 -5.929688 2.019531 -5.96875 2.28125 -5.96875 Z M 2.984375 -2.921875 L 2.4375 -2.890625 C 2.03125 -2.867188 1.722656 -2.753906 1.515625 -2.546875 C 1.316406 -2.335938 1.21875 -2.035156 1.21875 -1.640625 C 1.21875 -1.265625 1.28125 -0.988281 1.40625 -0.8125 C 1.539062 -0.644531 1.722656 -0.5625 1.953125 -0.5625 C 2.285156 -0.5625 2.539062 -0.71875 2.71875 -1.03125 C 2.894531 -1.34375 2.984375 -1.773438 2.984375 -2.328125 Z M 2.984375 -2.921875 "/></g></g><g style="fill:#2d6d5e;fill-opacity:1;"><g transform="translate(49.042314, 120.993589)"><path style="stroke:none" d="M 2.828125 -5.96875 C 3.285156 -5.96875 3.632812 -5.804688 3.875 -5.484375 C 4.113281 -5.160156 4.234375 -4.664062 4.234375 -4 L 4.234375 0 L 3.40625 0 L 3.40625 -3.828125 C 3.40625 -4.304688 3.34375 -4.660156 3.21875 -4.890625 C 3.101562 -5.128906 2.914062 -5.25 2.65625 -5.25 C 2.269531 -5.25 1.984375 -5.078125 1.796875 -4.734375 C 1.617188 -4.390625 1.53125 -3.84375 1.53125 -3.09375 L 1.53125 0 L 0.71875 0 L 0.71875 -5.859375 L 1.375 -5.859375 L 1.46875 -5.015625 L 1.515625 -5.015625 C 1.597656 -5.210938 1.703125 -5.378906 1.828125 -5.515625 C 1.960938 -5.660156 2.113281 -5.769531 2.28125 -5.84375 C 2.445312 -5.925781 2.628906 -5.96875 2.828125 -5.96875 Z M 2.828125 -5.96875 "/></g></g><g style="fill:#2d6d5e;fill-opacity:1;"><g transform="translate(55.506233, 120.993589)"><path style="stroke:none" d=""/></g></g><g style="fill:#2d6d5e;fill-opacity:1;"><g transform="translate(59.069213, 120.993589)"><path style="stroke:none" d="M 1.53125 -8.3125 L 1.53125 -5.859375 C 1.53125 -5.742188 1.523438 -5.613281 1.515625 -5.46875 C 1.515625 -5.332031 1.515625 -5.1875 1.515625 -5.03125 L 1.546875 -5.03125 C 1.691406 -5.34375 1.875 -5.570312 2.09375 -5.71875 C 2.3125 -5.875 2.5625 -5.953125 2.84375 -5.953125 C 3.40625 -5.953125 3.832031 -5.695312 4.125 -5.1875 C 4.414062 -4.675781 4.5625 -3.925781 4.5625 -2.9375 C 4.5625 -2.28125 4.492188 -1.722656 4.359375 -1.265625 C 4.234375 -0.816406 4.039062 -0.472656 3.78125 -0.234375 C 3.53125 -0.00390625 3.226562 0.109375 2.875 0.109375 C 2.582031 0.109375 2.328125 0.0351562 2.109375 -0.109375 C 1.890625 -0.253906 1.703125 -0.476562 1.546875 -0.78125 L 1.5 -0.78125 L 1.390625 0 L 0.71875 0 L 0.71875 -8.3125 Z M 2.671875 -5.234375 C 2.367188 -5.234375 2.132812 -5.140625 1.96875 -4.953125 C 1.8125 -4.765625 1.695312 -4.503906 1.625 -4.171875 C 1.5625 -3.835938 1.53125 -3.457031 1.53125 -3.03125 L 1.53125 -2.78125 C 1.53125 -2.039062 1.625 -1.492188 1.8125 -1.140625 C 2.007812 -0.785156 2.296875 -0.609375 2.671875 -0.609375 C 3.023438 -0.609375 3.285156 -0.796875 3.453125 -1.171875 C 3.628906 -1.554688 3.71875 -2.148438 3.71875 -2.953125 C 3.71875 -3.703125 3.632812 -4.269531 3.46875 -4.65625 C 3.300781 -5.039062 3.035156 -5.234375 2.671875 -5.234375 Z M 2.671875 -5.234375 "/></g></g><g style="fill:#2d6d5e;fill-opacity:1;"><g transform="translate(65.607926, 120.993589)"><path style="stroke:none" d="M 2.671875 -5.96875 C 2.753906 -5.96875 2.835938 -5.957031 2.921875 -5.9375 C 3.003906 -5.925781 3.085938 -5.910156 3.171875 -5.890625 L 3.046875 -5.046875 C 2.984375 -5.066406 2.914062 -5.082031 2.84375 -5.09375 C 2.769531 -5.101562 2.691406 -5.109375 2.609375 -5.109375 C 2.453125 -5.109375 2.304688 -5.054688 2.171875 -4.953125 C 2.035156 -4.847656 1.921875 -4.703125 1.828125 -4.515625 C 1.734375 -4.328125 1.660156 -4.109375 1.609375 -3.859375 C 1.554688 -3.609375 1.53125 -3.34375 1.53125 -3.0625 L 1.53125 0 L 0.71875 0 L 0.71875 -5.859375 L 1.359375 -5.859375 L 1.46875 -4.828125 L 1.515625 -4.828125 C 1.597656 -5.046875 1.691406 -5.238281 1.796875 -5.40625 C 1.910156 -5.582031 2.039062 -5.71875 2.1875 -5.8125 C 2.332031 -5.914062 2.492188 -5.96875 2.671875 -5.96875 Z M 2.671875 -5.96875 "/></g></g><g style="fill:#2d6d5e;fill-opacity:1;"><g transform="translate(70.421034, 120.993589)"><path style="stroke:none" d="M 2.328125 -5.953125 C 2.722656 -5.953125 3.050781 -5.835938 3.3125 -5.609375 C 3.570312 -5.378906 3.765625 -5.066406 3.890625 -4.671875 C 4.015625 -4.285156 4.078125 -3.851562 4.078125 -3.375 L 4.078125 -2.78125 L 1.28125 -2.78125 C 1.289062 -2.050781 1.40625 -1.503906 1.625 -1.140625 C 1.84375 -0.773438 2.171875 -0.59375 2.609375 -0.59375 C 2.828125 -0.59375 3.035156 -0.625 3.234375 -0.6875 C 3.441406 -0.75 3.648438 -0.851562 3.859375 -1 L 3.859375 -0.265625 C 3.660156 -0.140625 3.453125 -0.046875 3.234375 0.015625 C 3.015625 0.078125 2.78125 0.109375 2.53125 0.109375 C 2.039062 0.109375 1.644531 -0.0195312 1.34375 -0.28125 C 1.039062 -0.539062 0.816406 -0.898438 0.671875 -1.359375 C 0.535156 -1.816406 0.46875 -2.332031 0.46875 -2.90625 C 0.46875 -3.550781 0.535156 -4.101562 0.671875 -4.5625 C 0.816406 -5.019531 1.023438 -5.363281 1.296875 -5.59375 C 1.578125 -5.832031 1.921875 -5.953125 2.328125 -5.953125 Z M 2.328125 -5.28125 C 2.015625 -5.28125 1.769531 -5.128906 1.59375 -4.828125 C 1.425781 -4.535156 1.328125 -4.070312 1.296875 -3.4375 L 3.3125 -3.4375 C 3.3125 -3.769531 3.273438 -4.078125 3.203125 -4.359375 C 3.140625 -4.640625 3.035156 -4.863281 2.890625 -5.03125 C 2.742188 -5.195312 2.554688 -5.28125 2.328125 -5.28125 Z M 2.328125 -5.28125 "/></g></g><g style="fill:#2d6d5e;fill-opacity:1;"><g transform="translate(76.478928, 120.993589)"><path style="stroke:none" d="M 2.28125 -5.96875 C 2.820312 -5.96875 3.207031 -5.796875 3.4375 -5.453125 C 3.675781 -5.109375 3.796875 -4.609375 3.796875 -3.953125 L 3.796875 0 L 3.171875 0 L 3.046875 -0.828125 L 3.015625 -0.828125 C 2.929688 -0.628906 2.820312 -0.457031 2.6875 -0.3125 C 2.5625 -0.175781 2.414062 -0.0703125 2.25 0 C 2.09375 0.0703125 1.90625 0.109375 1.6875 0.109375 C 1.382812 0.109375 1.132812 0.03125 0.9375 -0.125 C 0.75 -0.289062 0.609375 -0.503906 0.515625 -0.765625 C 0.421875 -1.023438 0.375 -1.304688 0.375 -1.609375 C 0.375 -2.191406 0.539062 -2.640625 0.875 -2.953125 C 1.21875 -3.273438 1.695312 -3.453125 2.3125 -3.484375 L 2.96875 -3.53125 L 2.96875 -3.9375 C 2.96875 -4.40625 2.90625 -4.742188 2.78125 -4.953125 C 2.65625 -5.171875 2.445312 -5.28125 2.15625 -5.28125 C 2 -5.28125 1.828125 -5.25 1.640625 -5.1875 C 1.460938 -5.132812 1.269531 -5.046875 1.0625 -4.921875 L 0.796875 -5.546875 C 1.015625 -5.691406 1.25 -5.796875 1.5 -5.859375 C 1.757812 -5.929688 2.019531 -5.96875 2.28125 -5.96875 Z M 2.984375 -2.921875 L 2.4375 -2.890625 C 2.03125 -2.867188 1.722656 -2.753906 1.515625 -2.546875 C 1.316406 -2.335938 1.21875 -2.035156 1.21875 -1.640625 C 1.21875 -1.265625 1.28125 -0.988281 1.40625 -0.8125 C 1.539062 -0.644531 1.722656 -0.5625 1.953125 -0.5625 C 2.285156 -0.5625 2.539062 -0.71875 2.71875 -1.03125 C 2.894531 -1.34375 2.984375 -1.773438 2.984375 -2.328125 Z M 2.984375 -2.921875 "/></g></g><g style="fill:#2d6d5e;fill-opacity:1;"><g transform="translate(82.504768, 120.993589)"><path style="stroke:none" d="M 2.09375 -0.625 C 2.1875 -0.625 2.273438 -0.628906 2.359375 -0.640625 C 2.453125 -0.660156 2.535156 -0.691406 2.609375 -0.734375 L 2.609375 -0.0625 C 2.503906 -0.0078125 2.382812 0.03125 2.25 0.0625 C 2.125 0.09375 1.984375 0.109375 1.828125 0.109375 C 1.578125 0.109375 1.367188 0.0507812 1.203125 -0.0625 C 1.046875 -0.175781 0.925781 -0.34375 0.84375 -0.5625 C 0.769531 -0.789062 0.734375 -1.078125 0.734375 -1.421875 L 0.734375 -5.171875 L 0.1875 -5.171875 L 0.1875 -5.625 L 0.78125 -5.84375 L 1 -7.1875 L 1.5625 -7.1875 L 1.5625 -5.859375 L 2.546875 -5.859375 L 2.546875 -5.171875 L 1.5625 -5.171875 L 1.5625 -1.515625 C 1.5625 -1.210938 1.597656 -0.988281 1.671875 -0.84375 C 1.742188 -0.695312 1.882812 -0.625 2.09375 -0.625 Z M 2.09375 -0.625 "/></g></g><g style="fill:#2d6d5e;fill-opacity:1;"><g transform="translate(86.810345, 120.993589)"><path style="stroke:none" d="M 1.53125 -8.3125 L 1.53125 -5.890625 C 1.53125 -5.734375 1.523438 -5.582031 1.515625 -5.4375 C 1.515625 -5.300781 1.503906 -5.164062 1.484375 -5.03125 L 1.53125 -5.03125 C 1.601562 -5.226562 1.703125 -5.394531 1.828125 -5.53125 C 1.960938 -5.664062 2.113281 -5.769531 2.28125 -5.84375 C 2.445312 -5.925781 2.625 -5.96875 2.8125 -5.96875 C 3.144531 -5.96875 3.414062 -5.890625 3.625 -5.734375 C 3.832031 -5.585938 3.984375 -5.367188 4.078125 -5.078125 C 4.179688 -4.785156 4.234375 -4.421875 4.234375 -3.984375 L 4.234375 0 L 3.40625 0 L 3.40625 -3.828125 C 3.40625 -4.328125 3.34375 -4.6875 3.21875 -4.90625 C 3.101562 -5.125 2.910156 -5.234375 2.640625 -5.234375 C 2.390625 -5.234375 2.179688 -5.15625 2.015625 -5 C 1.859375 -4.851562 1.738281 -4.617188 1.65625 -4.296875 C 1.570312 -3.972656 1.53125 -3.566406 1.53125 -3.078125 L 1.53125 0 L 0.71875 0 L 0.71875 -8.3125 Z M 1.53125 -8.3125 "/></g></g><g style="fill:#2d6d5e;fill-opacity:1;"><g transform="translate(93.274264, 120.993589)"><path style="stroke:none" d=""/></g></g><g style="fill:#2d6d5e;fill-opacity:1;"><g transform="translate(96.837243, 120.993589)"><path style="stroke:none" d="M 2.5625 -5.171875 L 1.640625 -5.171875 L 1.640625 0 L 0.8125 0 L 0.8125 -5.171875 L 0.09375 -5.171875 L 0.09375 -5.609375 L 0.8125 -5.890625 L 0.8125 -6.28125 C 0.8125 -6.726562 0.847656 -7.101562 0.921875 -7.40625 C 1.003906 -7.71875 1.140625 -7.957031 1.328125 -8.125 C 1.523438 -8.289062 1.789062 -8.375 2.125 -8.375 C 2.28125 -8.375 2.421875 -8.359375 2.546875 -8.328125 C 2.679688 -8.296875 2.820312 -8.253906 2.96875 -8.203125 L 2.75 -7.53125 C 2.65625 -7.570312 2.5625 -7.597656 2.46875 -7.609375 C 2.382812 -7.628906 2.300781 -7.640625 2.21875 -7.640625 C 2 -7.640625 1.847656 -7.539062 1.765625 -7.34375 C 1.679688 -7.15625 1.640625 -6.8125 1.640625 -6.3125 L 1.640625 -5.859375 L 2.5625 -5.859375 Z M 2.5625 -5.171875 "/></g></g><g style="fill:#2d6d5e;fill-opacity:1;"><g transform="translate(101.089396, 120.993589)"><path style="stroke:none" d="M 4.359375 -2.9375 C 4.359375 -2.476562 4.316406 -2.0625 4.234375 -1.6875 C 4.160156 -1.3125 4.039062 -0.988281 3.875 -0.71875 C 3.71875 -0.457031 3.515625 -0.253906 3.265625 -0.109375 C 3.023438 0.0351562 2.734375 0.109375 2.390625 0.109375 C 2.078125 0.109375 1.796875 0.0351562 1.546875 -0.109375 C 1.304688 -0.253906 1.101562 -0.457031 0.9375 -0.71875 C 0.78125 -0.976562 0.660156 -1.296875 0.578125 -1.671875 C 0.503906 -2.054688 0.46875 -2.476562 0.46875 -2.9375 C 0.46875 -3.582031 0.535156 -4.128906 0.671875 -4.578125 C 0.804688 -5.035156 1.019531 -5.378906 1.3125 -5.609375 C 1.601562 -5.847656 1.96875 -5.96875 2.40625 -5.96875 C 2.820312 -5.96875 3.175781 -5.851562 3.46875 -5.625 C 3.757812 -5.394531 3.976562 -5.054688 4.125 -4.609375 C 4.28125 -4.160156 4.359375 -3.601562 4.359375 -2.9375 Z M 1.296875 -2.9375 C 1.296875 -2.425781 1.332031 -2 1.40625 -1.65625 C 1.488281 -1.3125 1.613281 -1.050781 1.78125 -0.875 C 1.945312 -0.695312 2.160156 -0.609375 2.421875 -0.609375 C 2.671875 -0.609375 2.875 -0.691406 3.03125 -0.859375 C 3.195312 -1.035156 3.316406 -1.296875 3.390625 -1.640625 C 3.472656 -1.984375 3.515625 -2.414062 3.515625 -2.9375 C 3.515625 -3.445312 3.472656 -3.875 3.390625 -4.21875 C 3.316406 -4.5625 3.195312 -4.816406 3.03125 -4.984375 C 2.875 -5.160156 2.664062 -5.25 2.40625 -5.25 C 2.019531 -5.25 1.738281 -5.054688 1.5625 -4.671875 C 1.382812 -4.285156 1.296875 -3.707031 1.296875 -2.9375 Z M 1.296875 -2.9375 "/></g></g><g style="fill:#2d6d5e;fill-opacity:1;"><g transform="translate(107.441124, 120.993589)"><path style="stroke:none" d="M 2.671875 -5.96875 C 2.753906 -5.96875 2.835938 -5.957031 2.921875 -5.9375 C 3.003906 -5.925781 3.085938 -5.910156 3.171875 -5.890625 L 3.046875 -5.046875 C 2.984375 -5.066406 2.914062 -5.082031 2.84375 -5.09375 C 2.769531 -5.101562 2.691406 -5.109375 2.609375 -5.109375 C 2.453125 -5.109375 2.304688 -5.054688 2.171875 -4.953125 C 2.035156 -4.847656 1.921875 -4.703125 1.828125 -4.515625 C 1.734375 -4.328125 1.660156 -4.109375 1.609375 -3.859375 C 1.554688 -3.609375 1.53125 -3.34375 1.53125 -3.0625 L 1.53125 0 L 0.71875 0 L 0.71875 -5.859375 L 1.359375 -5.859375 L 1.46875 -4.828125 L 1.515625 -4.828125 C 1.597656 -5.046875 1.691406 -5.238281 1.796875 -5.40625 C 1.910156 -5.582031 2.039062 -5.71875 2.1875 -5.8125 C 2.332031 -5.914062 2.492188 -5.96875 2.671875 -5.96875 Z M 2.671875 -5.96875 "/></g></g><g style="fill:#2d6d5e;fill-opacity:1;"><g transform="translate(29.348682, 133.68456)"><path style="stroke:none" d="M 2.5625 -5.171875 L 1.640625 -5.171875 L 1.640625 0 L 0.8125 0 L 0.8125 -5.171875 L 0.09375 -5.171875 L 0.09375 -5.609375 L 0.8125 -5.890625 L 0.8125 -6.28125 C 0.8125 -6.726562 0.847656 -7.101562 0.921875 -7.40625 C 1.003906 -7.71875 1.140625 -7.957031 1.328125 -8.125 C 1.523438 -8.289062 1.789062 -8.375 2.125 -8.375 C 2.28125 -8.375 2.421875 -8.359375 2.546875 -8.328125 C 2.679688 -8.296875 2.820312 -8.253906 2.96875 -8.203125 L 2.75 -7.53125 C 2.65625 -7.570312 2.5625 -7.597656 2.46875 -7.609375 C 2.382812 -7.628906 2.300781 -7.640625 2.21875 -7.640625 C 2 -7.640625 1.847656 -7.539062 1.765625 -7.34375 C 1.679688 -7.15625 1.640625 -6.8125 1.640625 -6.3125 L 1.640625 -5.859375 L 2.5625 -5.859375 Z M 2.5625 -5.171875 "/></g></g><g style="fill:#2d6d5e;fill-opacity:1;"><g transform="translate(33.600835, 133.68456)"><path style="stroke:none" d="M 4.359375 -2.9375 C 4.359375 -2.476562 4.316406 -2.0625 4.234375 -1.6875 C 4.160156 -1.3125 4.039062 -0.988281 3.875 -0.71875 C 3.71875 -0.457031 3.515625 -0.253906 3.265625 -0.109375 C 3.023438 0.0351562 2.734375 0.109375 2.390625 0.109375 C 2.078125 0.109375 1.796875 0.0351562 1.546875 -0.109375 C 1.304688 -0.253906 1.101562 -0.457031 0.9375 -0.71875 C 0.78125 -0.976562 0.660156 -1.296875 0.578125 -1.671875 C 0.503906 -2.054688 0.46875 -2.476562 0.46875 -2.9375 C 0.46875 -3.582031 0.535156 -4.128906 0.671875 -4.578125 C 0.804688 -5.035156 1.019531 -5.378906 1.3125 -5.609375 C 1.601562 -5.847656 1.96875 -5.96875 2.40625 -5.96875 C 2.820312 -5.96875 3.175781 -5.851562 3.46875 -5.625 C 3.757812 -5.394531 3.976562 -5.054688 4.125 -4.609375 C 4.28125 -4.160156 4.359375 -3.601562 4.359375 -2.9375 Z M 1.296875 -2.9375 C 1.296875 -2.425781 1.332031 -2 1.40625 -1.65625 C 1.488281 -1.3125 1.613281 -1.050781 1.78125 -0.875 C 1.945312 -0.695312 2.160156 -0.609375 2.421875 -0.609375 C 2.671875 -0.609375 2.875 -0.691406 3.03125 -0.859375 C 3.195312 -1.035156 3.316406 -1.296875 3.390625 -1.640625 C 3.472656 -1.984375 3.515625 -2.414062 3.515625 -2.9375 C 3.515625 -3.445312 3.472656 -3.875 3.390625 -4.21875 C 3.316406 -4.5625 3.195312 -4.816406 3.03125 -4.984375 C 2.875 -5.160156 2.664062 -5.25 2.40625 -5.25 C 2.019531 -5.25 1.738281 -5.054688 1.5625 -4.671875 C 1.382812 -4.285156 1.296875 -3.707031 1.296875 -2.9375 Z M 1.296875 -2.9375 "/></g></g><g style="fill:#2d6d5e;fill-opacity:1;"><g transform="translate(39.952562, 133.68456)"><path style="stroke:none" d="M 2.40625 0.109375 C 1.976562 0.109375 1.617188 0 1.328125 -0.21875 C 1.046875 -0.445312 0.832031 -0.785156 0.6875 -1.234375 C 0.539062 -1.679688 0.46875 -2.234375 0.46875 -2.890625 C 0.46875 -3.535156 0.539062 -4.085938 0.6875 -4.546875 C 0.832031 -5.003906 1.050781 -5.351562 1.34375 -5.59375 C 1.632812 -5.84375 2 -5.96875 2.4375 -5.96875 C 2.65625 -5.96875 2.851562 -5.941406 3.03125 -5.890625 C 3.207031 -5.847656 3.375 -5.785156 3.53125 -5.703125 L 3.265625 -5.03125 C 3.140625 -5.09375 3.007812 -5.140625 2.875 -5.171875 C 2.75 -5.210938 2.625 -5.234375 2.5 -5.234375 C 2.238281 -5.234375 2.019531 -5.144531 1.84375 -4.96875 C 1.675781 -4.789062 1.546875 -4.53125 1.453125 -4.1875 C 1.359375 -3.84375 1.3125 -3.414062 1.3125 -2.90625 C 1.3125 -2.394531 1.351562 -1.96875 1.4375 -1.625 C 1.53125 -1.289062 1.664062 -1.035156 1.84375 -0.859375 C 2.019531 -0.691406 2.238281 -0.609375 2.5 -0.609375 C 2.65625 -0.609375 2.8125 -0.628906 2.96875 -0.671875 C 3.132812 -0.722656 3.300781 -0.789062 3.46875 -0.875 L 3.46875 -0.1875 C 3.3125 -0.09375 3.132812 -0.0195312 2.9375 0.03125 C 2.75 0.0820312 2.570312 0.109375 2.40625 0.109375 Z M 2.40625 0.109375 "/></g></g><g style="fill:#2d6d5e;fill-opacity:1;"><g transform="translate(45.241147, 133.68456)"><path style="stroke:none" d="M 4.21875 -5.859375 L 4.21875 0 L 3.5625 0 L 3.46875 -0.828125 L 3.40625 -0.828125 C 3.332031 -0.640625 3.226562 -0.472656 3.09375 -0.328125 C 2.96875 -0.191406 2.820312 -0.0820312 2.65625 0 C 2.5 0.0703125 2.316406 0.109375 2.109375 0.109375 C 1.773438 0.109375 1.503906 0.0234375 1.296875 -0.140625 C 1.085938 -0.316406 0.929688 -0.5625 0.828125 -0.875 C 0.734375 -1.195312 0.6875 -1.578125 0.6875 -2.015625 L 0.6875 -5.859375 L 1.515625 -5.859375 L 1.515625 -2.171875 C 1.515625 -1.640625 1.578125 -1.25 1.703125 -1 C 1.828125 -0.75 2.015625 -0.625 2.265625 -0.625 C 2.535156 -0.625 2.753906 -0.695312 2.921875 -0.84375 C 3.085938 -1 3.207031 -1.234375 3.28125 -1.546875 C 3.351562 -1.859375 3.390625 -2.25 3.390625 -2.71875 L 3.390625 -5.859375 Z M 4.21875 -5.859375 "/></g></g><g style="fill:#2d6d5e;fill-opacity:1;"><g transform="translate(51.705066, 133.68456)"><path style="stroke:none" d="M 3.328125 -1.546875 C 3.328125 -1.191406 3.257812 -0.890625 3.125 -0.640625 C 3 -0.398438 2.8125 -0.210938 2.5625 -0.078125 C 2.320312 0.046875 2.03125 0.109375 1.6875 0.109375 C 1.414062 0.109375 1.164062 0.078125 0.9375 0.015625 C 0.71875 -0.046875 0.53125 -0.125 0.375 -0.21875 L 0.375 -1.078125 C 0.53125 -0.941406 0.722656 -0.832031 0.953125 -0.75 C 1.179688 -0.664062 1.414062 -0.625 1.65625 -0.625 C 1.925781 -0.625 2.132812 -0.703125 2.28125 -0.859375 C 2.4375 -1.015625 2.515625 -1.234375 2.515625 -1.515625 C 2.515625 -1.679688 2.484375 -1.828125 2.421875 -1.953125 C 2.359375 -2.078125 2.257812 -2.195312 2.125 -2.3125 C 1.988281 -2.425781 1.816406 -2.546875 1.609375 -2.671875 C 1.359375 -2.816406 1.140625 -2.96875 0.953125 -3.125 C 0.765625 -3.289062 0.617188 -3.476562 0.515625 -3.6875 C 0.421875 -3.894531 0.375 -4.144531 0.375 -4.4375 C 0.375 -4.894531 0.519531 -5.265625 0.8125 -5.546875 C 1.113281 -5.828125 1.503906 -5.96875 1.984375 -5.96875 C 2.234375 -5.96875 2.46875 -5.9375 2.6875 -5.875 C 2.90625 -5.8125 3.113281 -5.71875 3.3125 -5.59375 L 3 -4.9375 C 2.851562 -5.039062 2.691406 -5.117188 2.515625 -5.171875 C 2.347656 -5.234375 2.175781 -5.265625 2 -5.265625 C 1.738281 -5.265625 1.53125 -5.191406 1.375 -5.046875 C 1.226562 -4.898438 1.15625 -4.707031 1.15625 -4.46875 C 1.15625 -4.300781 1.1875 -4.15625 1.25 -4.03125 C 1.3125 -3.914062 1.410156 -3.800781 1.546875 -3.6875 C 1.679688 -3.582031 1.863281 -3.460938 2.09375 -3.328125 C 2.34375 -3.171875 2.554688 -3.015625 2.734375 -2.859375 C 2.921875 -2.703125 3.066406 -2.519531 3.171875 -2.3125 C 3.273438 -2.101562 3.328125 -1.847656 3.328125 -1.546875 Z M 3.328125 -1.546875 "/></g></g><g style="fill:#2d6d5e;fill-opacity:1;"><g transform="translate(56.913514, 133.68456)"><path style="stroke:none" d=""/></g></g><g style="fill:#2d6d5e;fill-opacity:1;"><g transform="translate(60.476493, 133.68456)"><path style="stroke:none" d="M 2.28125 -5.96875 C 2.820312 -5.96875 3.207031 -5.796875 3.4375 -5.453125 C 3.675781 -5.109375 3.796875 -4.609375 3.796875 -3.953125 L 3.796875 0 L 3.171875 0 L 3.046875 -0.828125 L 3.015625 -0.828125 C 2.929688 -0.628906 2.820312 -0.457031 2.6875 -0.3125 C 2.5625 -0.175781 2.414062 -0.0703125 2.25 0 C 2.09375 0.0703125 1.90625 0.109375 1.6875 0.109375 C 1.382812 0.109375 1.132812 0.03125 0.9375 -0.125 C 0.75 -0.289062 0.609375 -0.503906 0.515625 -0.765625 C 0.421875 -1.023438 0.375 -1.304688 0.375 -1.609375 C 0.375 -2.191406 0.539062 -2.640625 0.875 -2.953125 C 1.21875 -3.273438 1.695312 -3.453125 2.3125 -3.484375 L 2.96875 -3.53125 L 2.96875 -3.9375 C 2.96875 -4.40625 2.90625 -4.742188 2.78125 -4.953125 C 2.65625 -5.171875 2.445312 -5.28125 2.15625 -5.28125 C 2 -5.28125 1.828125 -5.25 1.640625 -5.1875 C 1.460938 -5.132812 1.269531 -5.046875 1.0625 -4.921875 L 0.796875 -5.546875 C 1.015625 -5.691406 1.25 -5.796875 1.5 -5.859375 C 1.757812 -5.929688 2.019531 -5.96875 2.28125 -5.96875 Z M 2.984375 -2.921875 L 2.4375 -2.890625 C 2.03125 -2.867188 1.722656 -2.753906 1.515625 -2.546875 C 1.316406 -2.335938 1.21875 -2.035156 1.21875 -1.640625 C 1.21875 -1.265625 1.28125 -0.988281 1.40625 -0.8125 C 1.539062 -0.644531 1.722656 -0.5625 1.953125 -0.5625 C 2.285156 -0.5625 2.539062 -0.71875 2.71875 -1.03125 C 2.894531 -1.34375 2.984375 -1.773438 2.984375 -2.328125 Z M 2.984375 -2.921875 "/></g></g><g style="fill:#2d6d5e;fill-opacity:1;"><g transform="translate(66.502333, 133.68456)"><path style="stroke:none" d="M 2.828125 -5.96875 C 3.285156 -5.96875 3.632812 -5.804688 3.875 -5.484375 C 4.113281 -5.160156 4.234375 -4.664062 4.234375 -4 L 4.234375 0 L 3.40625 0 L 3.40625 -3.828125 C 3.40625 -4.304688 3.34375 -4.660156 3.21875 -4.890625 C 3.101562 -5.128906 2.914062 -5.25 2.65625 -5.25 C 2.269531 -5.25 1.984375 -5.078125 1.796875 -4.734375 C 1.617188 -4.390625 1.53125 -3.84375 1.53125 -3.09375 L 1.53125 0 L 0.71875 0 L 0.71875 -5.859375 L 1.375 -5.859375 L 1.46875 -5.015625 L 1.515625 -5.015625 C 1.597656 -5.210938 1.703125 -5.378906 1.828125 -5.515625 C 1.960938 -5.660156 2.113281 -5.769531 2.28125 -5.84375 C 2.445312 -5.925781 2.628906 -5.96875 2.828125 -5.96875 Z M 2.828125 -5.96875 "/></g></g><g style="fill:#2d6d5e;fill-opacity:1;"><g transform="translate(72.966252, 133.68456)"><path style="stroke:none" d="M 2.171875 0.109375 C 1.609375 0.109375 1.179688 -0.144531 0.890625 -0.65625 C 0.609375 -1.175781 0.46875 -1.929688 0.46875 -2.921875 C 0.46875 -3.898438 0.613281 -4.648438 0.90625 -5.171875 C 1.195312 -5.703125 1.609375 -5.96875 2.140625 -5.96875 C 2.335938 -5.96875 2.519531 -5.929688 2.6875 -5.859375 C 2.851562 -5.785156 3 -5.679688 3.125 -5.546875 C 3.257812 -5.410156 3.375 -5.25 3.46875 -5.0625 L 3.515625 -5.0625 C 3.503906 -5.226562 3.492188 -5.375 3.484375 -5.5 C 3.484375 -5.632812 3.484375 -5.757812 3.484375 -5.875 L 3.484375 -8.3125 L 4.296875 -8.3125 L 4.296875 0 L 3.640625 0 L 3.53125 -0.796875 L 3.484375 -0.796875 C 3.378906 -0.609375 3.265625 -0.445312 3.140625 -0.3125 C 3.015625 -0.175781 2.875 -0.0703125 2.71875 0 C 2.5625 0.0703125 2.378906 0.109375 2.171875 0.109375 Z M 2.359375 -0.59375 C 2.722656 -0.59375 3 -0.765625 3.1875 -1.109375 C 3.382812 -1.453125 3.484375 -1.960938 3.484375 -2.640625 L 3.484375 -3.046875 C 3.484375 -3.785156 3.390625 -4.332031 3.203125 -4.6875 C 3.023438 -5.050781 2.738281 -5.234375 2.34375 -5.234375 C 1.988281 -5.234375 1.722656 -5.035156 1.546875 -4.640625 C 1.378906 -4.242188 1.296875 -3.671875 1.296875 -2.921875 C 1.296875 -2.148438 1.378906 -1.566406 1.546875 -1.171875 C 1.722656 -0.785156 1.992188 -0.59375 2.359375 -0.59375 Z M 2.359375 -0.59375 "/></g></g><g style="fill:#2d6d5e;fill-opacity:1;"><g transform="translate(79.504965, 133.68456)"><path style="stroke:none" d=""/></g></g><g style="fill:#2d6d5e;fill-opacity:1;"><g transform="translate(83.067944, 133.68456)"><path style="stroke:none" d="M 2.40625 0.109375 C 1.976562 0.109375 1.617188 0 1.328125 -0.21875 C 1.046875 -0.445312 0.832031 -0.785156 0.6875 -1.234375 C 0.539062 -1.679688 0.46875 -2.234375 0.46875 -2.890625 C 0.46875 -3.535156 0.539062 -4.085938 0.6875 -4.546875 C 0.832031 -5.003906 1.050781 -5.351562 1.34375 -5.59375 C 1.632812 -5.84375 2 -5.96875 2.4375 -5.96875 C 2.65625 -5.96875 2.851562 -5.941406 3.03125 -5.890625 C 3.207031 -5.847656 3.375 -5.785156 3.53125 -5.703125 L 3.265625 -5.03125 C 3.140625 -5.09375 3.007812 -5.140625 2.875 -5.171875 C 2.75 -5.210938 2.625 -5.234375 2.5 -5.234375 C 2.238281 -5.234375 2.019531 -5.144531 1.84375 -4.96875 C 1.675781 -4.789062 1.546875 -4.53125 1.453125 -4.1875 C 1.359375 -3.84375 1.3125 -3.414062 1.3125 -2.90625 C 1.3125 -2.394531 1.351562 -1.96875 1.4375 -1.625 C 1.53125 -1.289062 1.664062 -1.035156 1.84375 -0.859375 C 2.019531 -0.691406 2.238281 -0.609375 2.5 -0.609375 C 2.65625 -0.609375 2.8125 -0.628906 2.96875 -0.671875 C 3.132812 -0.722656 3.300781 -0.789062 3.46875 -0.875 L 3.46875 -0.1875 C 3.3125 -0.09375 3.132812 -0.0195312 2.9375 0.03125 C 2.75 0.0820312 2.570312 0.109375 2.40625 0.109375 Z M 2.40625 0.109375 "/></g></g><g style="fill:#2d6d5e;fill-opacity:1;"><g transform="translate(88.356528, 133.68456)"><path style="stroke:none" d="M 2.28125 -5.96875 C 2.820312 -5.96875 3.207031 -5.796875 3.4375 -5.453125 C 3.675781 -5.109375 3.796875 -4.609375 3.796875 -3.953125 L 3.796875 0 L 3.171875 0 L 3.046875 -0.828125 L 3.015625 -0.828125 C 2.929688 -0.628906 2.820312 -0.457031 2.6875 -0.3125 C 2.5625 -0.175781 2.414062 -0.0703125 2.25 0 C 2.09375 0.0703125 1.90625 0.109375 1.6875 0.109375 C 1.382812 0.109375 1.132812 0.03125 0.9375 -0.125 C 0.75 -0.289062 0.609375 -0.503906 0.515625 -0.765625 C 0.421875 -1.023438 0.375 -1.304688 0.375 -1.609375 C 0.375 -2.191406 0.539062 -2.640625 0.875 -2.953125 C 1.21875 -3.273438 1.695312 -3.453125 2.3125 -3.484375 L 2.96875 -3.53125 L 2.96875 -3.9375 C 2.96875 -4.40625 2.90625 -4.742188 2.78125 -4.953125 C 2.65625 -5.171875 2.445312 -5.28125 2.15625 -5.28125 C 2 -5.28125 1.828125 -5.25 1.640625 -5.1875 C 1.460938 -5.132812 1.269531 -5.046875 1.0625 -4.921875 L 0.796875 -5.546875 C 1.015625 -5.691406 1.25 -5.796875 1.5 -5.859375 C 1.757812 -5.929688 2.019531 -5.96875 2.28125 -5.96875 Z M 2.984375 -2.921875 L 2.4375 -2.890625 C 2.03125 -2.867188 1.722656 -2.753906 1.515625 -2.546875 C 1.316406 -2.335938 1.21875 -2.035156 1.21875 -1.640625 C 1.21875 -1.265625 1.28125 -0.988281 1.40625 -0.8125 C 1.539062 -0.644531 1.722656 -0.5625 1.953125 -0.5625 C 2.285156 -0.5625 2.539062 -0.71875 2.71875 -1.03125 C 2.894531 -1.34375 2.984375 -1.773438 2.984375 -2.328125 Z M 2.984375 -2.921875 "/></g></g><g style="fill:#2d6d5e;fill-opacity:1;"><g transform="translate(94.382368, 133.68456)"><path style="stroke:none" d="M 1.53125 0 L 0.71875 0 L 0.71875 -8.3125 L 1.53125 -8.3125 Z M 1.53125 0 "/></g></g><g style="fill:#2d6d5e;fill-opacity:1;"><g transform="translate(98.159045, 133.68456)"><path style="stroke:none" d="M 5.3125 -5.96875 C 5.78125 -5.96875 6.125 -5.800781 6.34375 -5.46875 C 6.5625 -5.132812 6.671875 -4.628906 6.671875 -3.953125 L 6.671875 0 L 5.859375 0 L 5.859375 -3.8125 C 5.859375 -4.320312 5.789062 -4.6875 5.65625 -4.90625 C 5.53125 -5.132812 5.34375 -5.25 5.09375 -5.25 C 4.738281 -5.25 4.484375 -5.078125 4.328125 -4.734375 C 4.179688 -4.398438 4.109375 -3.921875 4.109375 -3.296875 L 4.109375 0 L 3.296875 0 L 3.296875 -3.8125 C 3.296875 -4.164062 3.265625 -4.445312 3.203125 -4.65625 C 3.148438 -4.863281 3.066406 -5.015625 2.953125 -5.109375 C 2.835938 -5.203125 2.695312 -5.25 2.53125 -5.25 C 2.257812 -5.25 2.050781 -5.15625 1.90625 -4.96875 C 1.769531 -4.789062 1.671875 -4.539062 1.609375 -4.21875 C 1.554688 -3.90625 1.53125 -3.546875 1.53125 -3.140625 L 1.53125 0 L 0.71875 0 L 0.71875 -5.859375 L 1.375 -5.859375 L 1.46875 -5.03125 L 1.515625 -5.03125 C 1.585938 -5.226562 1.679688 -5.394531 1.796875 -5.53125 C 1.921875 -5.675781 2.0625 -5.785156 2.21875 -5.859375 C 2.382812 -5.929688 2.566406 -5.96875 2.765625 -5.96875 C 3.109375 -5.96875 3.375 -5.875 3.5625 -5.6875 C 3.757812 -5.507812 3.890625 -5.28125 3.953125 -5 L 4.015625 -5 C 4.148438 -5.332031 4.316406 -5.578125 4.515625 -5.734375 C 4.722656 -5.890625 4.988281 -5.96875 5.3125 -5.96875 Z M 5.3125 -5.96875 "/></g></g><path style=" stroke:none;fill-rule:nonzero;fill:#0661aa;fill-opacity:1;" d="M 64.128906 33.214844 C 63.890625 33.023438 63.699219 32.9375 63.375 32.980469 C 63.183594 33 62.839844 33.128906 62.644531 33.066406 C 62.367188 32.980469 62.171875 32.269531 61.980469 32.011719 C 61.527344 31.410156 60.859375 31.257812 60.257812 31.773438 C 59.980469 32.011719 59.851562 32.3125 59.765625 32.65625 C 59.699219 33 59.699219 33.472656 59.355469 33.6875 C 59.074219 33.859375 58.667969 33.882812 58.367188 33.839844 C 58.152344 33.816406 57.613281 33.539062 57.527344 33.925781 C 57.464844 34.160156 57.871094 34.464844 58.085938 34.527344 C 58.429688 34.65625 58.882812 34.613281 59.246094 34.507812 C 59.914062 34.332031 60.257812 33.882812 60.367188 33.195312 C 60.410156 32.871094 60.558594 32.011719 61.097656 32.207031 C 61.570312 32.378906 61.699219 33.214844 62.042969 33.515625 C 62.496094 33.925781 63.289062 33.539062 63.804688 33.839844 C 64.152344 34.03125 64.386719 34.246094 64.796875 34.183594 C 65.226562 34.140625 65.742188 33.839844 65.914062 33.453125 C 66.066406 33.152344 65.933594 32.785156 66.019531 32.464844 C 66.128906 32.03125 66.257812 31.839844 66.105469 31.410156 C 66.066406 31.257812 65.957031 30.957031 66 30.828125 C 66.019531 30.722656 66.171875 30.59375 66.277344 30.507812 C 66.945312 29.992188 67.332031 30.636719 67.933594 30.9375 C 68.300781 31.128906 68.902344 30.914062 69.226562 31.171875 C 69.375 31.300781 69.417969 31.601562 69.503906 31.796875 C 69.65625 32.25 69.785156 32.636719 69.699219 33.128906 C 69.546875 33.96875 69.847656 34.699219 70.730469 34.9375 C 71.269531 35.085938 72.171875 35.109375 72.621094 34.699219 C 72.859375 34.484375 72.792969 34.207031 72.730469 33.902344 C 72.664062 33.601562 72.621094 33.429688 72.988281 33.558594 C 73.398438 33.6875 73.570312 34.011719 73.761719 34.378906 C 74 34.808594 74.34375 35.023438 74.707031 35.34375 C 74.921875 35.558594 74.988281 35.839844 75.265625 36.03125 C 75.589844 36.226562 76.0625 36.246094 76.429688 36.183594 C 76.730469 36.117188 76.988281 35.925781 77.160156 35.6875 C 77.375 35.386719 77.226562 35.085938 77.351562 34.765625 C 77.441406 34.527344 77.570312 34.59375 77.804688 34.679688 C 78.234375 34.828125 78.300781 34.9375 78.40625 35.34375 C 78.558594 35.988281 79.441406 35.902344 79.976562 35.859375 C 80.558594 35.816406 81.136719 35.644531 81.179688 34.980469 C 81.222656 34.613281 80.988281 33.601562 80.492188 33.539062 C 79.914062 33.496094 80.707031 34.59375 80.621094 34.914062 C 80.472656 35.453125 79.527344 35.367188 79.265625 35 C 79.074219 34.722656 79.007812 34.484375 78.707031 34.292969 C 78.40625 34.074219 78.019531 33.945312 77.632812 33.945312 C 77.398438 33.945312 77.074219 33.988281 76.878906 34.140625 C 76.644531 34.355469 76.6875 34.699219 76.644531 34.980469 C 76.578125 35.367188 76.320312 35.601562 75.914062 35.453125 C 75.570312 35.324219 75.460938 34.894531 75.160156 34.65625 C 74.492188 34.183594 74.277344 33.34375 73.503906 32.980469 C 72.945312 32.742188 72.042969 32.742188 72.042969 33.496094 C 72.042969 33.6875 72.191406 34.054688 72.0625 34.207031 C 71.933594 34.378906 71.441406 34.269531 71.269531 34.246094 C 71.03125 34.207031 70.730469 34.140625 70.578125 33.902344 C 70.386719 33.625 70.558594 33.300781 70.625 33 C 70.753906 32.335938 70.429688 31.472656 70.0625 30.914062 C 69.65625 30.292969 69.183594 30.441406 68.539062 30.269531 C 68.148438 30.183594 67.914062 29.859375 67.546875 29.710938 C 67.246094 29.582031 66.816406 29.539062 66.496094 29.625 C 65.957031 29.730469 65.375 30.355469 65.441406 30.9375 C 65.527344 31.539062 65.527344 32.097656 65.460938 32.699219 C 65.3125 33.558594 64.753906 33.730469 64.128906 33.214844 "/><path style=" stroke:none;fill-rule:nonzero;fill:#0661aa;fill-opacity:1;" d="M 82.773438 42.675781 C 82.34375 42.675781 81.871094 42.632812 81.527344 42.894531 C 81.09375 43.214844 81.222656 43.6875 81.179688 44.140625 C 81.136719 44.65625 80.773438 45 80.492188 45.40625 C 80.128906 45.925781 79.890625 46.503906 79.546875 47.019531 C 79.265625 47.472656 79.03125 47.320312 78.578125 47.191406 C 78.234375 47.085938 77.632812 46.976562 77.828125 46.527344 C 78.40625 45.148438 76.902344 44.570312 75.742188 44.65625 C 75.226562 44.699219 75.011719 44.933594 74.707031 45.34375 C 74.449219 45.730469 74.042969 45.796875 73.589844 45.667969 C 73.097656 45.515625 73.011719 45.085938 72.816406 44.632812 C 72.707031 44.398438 72.535156 44.140625 72.320312 43.988281 C 72.105469 43.839844 71.871094 43.839844 71.65625 43.6875 C 71.160156 43.300781 71.65625 42.933594 71.484375 42.441406 C 71.3125 41.96875 70.988281 41.839844 71.269531 41.28125 C 71.460938 40.871094 71.828125 40.570312 71.71875 40.074219 C 71.570312 39.515625 71.054688 39.085938 70.730469 38.65625 C 70.386719 38.203125 70.191406 37.753906 70.191406 37.195312 C 70.191406 37.066406 70.277344 36.527344 70.128906 36.484375 C 69.933594 36.417969 69.804688 36.808594 69.785156 36.9375 C 69.65625 37.410156 69.675781 38.011719 69.761719 38.484375 C 69.871094 39.042969 70.320312 39.367188 70.6875 39.796875 C 71.097656 40.269531 70.773438 40.589844 70.515625 41.066406 C 70.386719 41.300781 70.277344 41.601562 70.300781 41.882812 C 70.320312 42.160156 70.492188 42.355469 70.601562 42.613281 C 70.773438 43.128906 70.535156 43.625 70.945312 44.074219 C 71.3125 44.484375 71.890625 44.570312 72.191406 45.085938 C 72.472656 45.558594 72.6875 46.117188 73.269531 46.332031 C 73.675781 46.484375 74.34375 46.484375 74.730469 46.289062 C 75.179688 46.074219 75.3125 45.453125 75.785156 45.367188 C 76.128906 45.300781 77.03125 45.40625 77.203125 45.796875 C 77.351562 46.203125 76.859375 46.632812 77.050781 47.085938 C 77.265625 47.601562 78.0625 47.816406 78.535156 47.925781 C 78.988281 48.03125 79.613281 48.117188 79.976562 47.773438 C 80.40625 47.34375 80.535156 46.613281 80.878906 46.140625 C 81.203125 45.667969 81.652344 45.28125 81.847656 44.699219 C 81.976562 44.332031 81.71875 43.539062 82.042969 43.386719 C 82.171875 43.324219 82.472656 43.34375 82.601562 43.34375 C 83.007812 43.300781 83.417969 43.300781 83.804688 43.214844 C 84.128906 43.152344 84.40625 43.019531 84.535156 42.699219 C 84.664062 42.355469 84.707031 41.796875 84.515625 41.496094 C 84.386719 41.28125 83.503906 40.527344 83.652344 41.214844 C 83.71875 41.582031 84.363281 41.902344 84.128906 42.355469 C 83.890625 42.742188 83.074219 42.675781 82.773438 42.675781 "/><path style=" stroke:none;fill-rule:nonzero;fill:#0661aa;fill-opacity:1;" d="M 43.785156 36.417969 C 43.3125 36.828125 42.710938 36.871094 42.152344 36.632812 C 41.742188 36.460938 41.917969 36.9375 42.042969 37.042969 C 42.410156 37.410156 43.335938 37.367188 43.765625 37.128906 C 44.128906 36.9375 44.367188 36.785156 44.582031 36.417969 C 44.820312 36.011719 44.691406 35.601562 44.796875 35.171875 C 45.011719 34.269531 45.871094 35.601562 46.171875 35.710938 C 47.035156 36.03125 47.65625 35.195312 48.042969 34.570312 C 48.28125 34.183594 48.410156 33.644531 48.777344 33.367188 C 49.121094 33.085938 49.269531 33.28125 49.570312 33.472656 C 50.324219 34.011719 51.378906 33.171875 51.3125 32.355469 C 51.269531 31.925781 51.378906 31.773438 51.851562 31.667969 C 52.386719 31.558594 52.753906 31.90625 53.269531 31.96875 C 54.171875 32.074219 54.945312 31.601562 54.859375 30.65625 C 54.839844 30.335938 54.753906 30.164062 55.054688 29.96875 C 55.441406 29.753906 55.785156 29.6875 56.152344 29.96875 C 56.753906 30.421875 57.527344 31.300781 58.410156 30.808594 C 58.730469 30.613281 58.773438 30.226562 58.753906 29.882812 C 58.730469 29.429688 58.453125 29.28125 58.300781 29.796875 C 58.214844 30.097656 58.195312 30.355469 57.808594 30.25 C 57.332031 30.140625 57.011719 29.644531 56.625 29.386719 C 56.066406 28.980469 54.925781 29.128906 54.453125 29.601562 C 53.957031 30.097656 54.625 31.386719 53.527344 31.300781 C 53.164062 31.257812 52.839844 31 52.472656 30.980469 C 52.066406 30.9375 51.65625 31.023438 51.292969 31.171875 C 50.992188 31.324219 50.753906 31.496094 50.691406 31.839844 C 50.625 32.207031 50.816406 32.765625 50.300781 32.914062 C 50.023438 33 50.066406 32.851562 49.894531 32.722656 C 49.722656 32.59375 49.507812 32.550781 49.3125 32.550781 C 48.839844 32.550781 48.429688 32.828125 48.128906 33.171875 C 47.785156 33.625 47.140625 35.582031 46.324219 34.957031 C 45.871094 34.613281 45.742188 34.097656 45.078125 34.226562 C 44.648438 34.3125 44.257812 34.570312 44.214844 35.042969 C 44.195312 35.28125 44.304688 35.515625 44.257812 35.753906 C 44.195312 36.03125 44.003906 36.246094 43.785156 36.417969 "/><path style=" stroke:none;fill-rule:nonzero;fill:#0661aa;fill-opacity:1;" d="M 23.765625 57.019531 C 23.402344 57.320312 22.972656 57.730469 22.476562 57.664062 C 22.023438 57.621094 21.746094 57.429688 21.292969 57.644531 C 20.21875 58.179688 19.660156 59.40625 18.457031 59.773438 C 17.894531 59.945312 17.25 59.988281 16.648438 60.007812 C 16.5 60.007812 16.304688 60.03125 16.15625 59.945312 C 16.003906 59.859375 15.917969 59.644531 15.746094 59.621094 C 15.488281 59.601562 15.53125 59.902344 15.574219 60.09375 C 15.640625 60.351562 15.8125 60.460938 16.046875 60.589844 C 16.5625 60.847656 17.078125 60.71875 17.636719 60.632812 C 18.757812 60.4375 19.488281 60.007812 20.328125 59.234375 C 20.714844 58.871094 21.144531 58.308594 21.636719 58.09375 C 21.980469 57.945312 22.414062 58.179688 22.777344 58.179688 C 23.335938 58.203125 23.765625 57.730469 24.175781 57.363281 C 24.582031 57 24.84375 56.65625 24.863281 56.117188 C 24.90625 55.492188 25.101562 55.171875 25.722656 54.957031 C 26.238281 54.785156 26.648438 55.492188 27.058594 55.75 C 27.636719 56.117188 28.261719 56.117188 28.90625 55.859375 C 29.421875 55.644531 30.023438 55.300781 30.089844 54.675781 C 30.109375 54.398438 30.023438 54.160156 29.917969 53.921875 C 29.875 53.816406 29.703125 53.578125 29.703125 53.449219 C 29.722656 53.148438 30.390625 53.019531 30.648438 53.019531 C 31.101562 53 31.59375 53.105469 31.765625 53.558594 C 31.980469 54.117188 32.519531 54.332031 33.097656 54.484375 C 33.703125 54.632812 34.390625 54.761719 34.992188 54.613281 C 35.507812 54.484375 35.960938 54.203125 36.496094 54.054688 C 37.65625 53.75 37.894531 52.546875 37.078125 51.707031 C 36.710938 51.34375 35.894531 50.847656 35.355469 51.085938 C 34.925781 51.257812 35.054688 52.160156 35.355469 51.921875 C 35.507812 51.816406 35.378906 51.621094 35.59375 51.578125 C 35.832031 51.515625 36.304688 51.773438 36.496094 51.902344 C 36.839844 52.140625 37.226562 52.804688 36.839844 53.148438 C 36.667969 53.320312 36.347656 53.34375 36.109375 53.429688 C 35.789062 53.535156 35.488281 53.730469 35.164062 53.859375 C 34.648438 54.074219 34.175781 54.054688 33.636719 53.921875 C 33.335938 53.835938 33.011719 53.773438 32.734375 53.601562 C 32.496094 53.449219 32.453125 53.234375 32.304688 53 C 32.023438 52.546875 31.550781 52.417969 31.054688 52.398438 C 30.496094 52.375 29.765625 52.398438 29.335938 52.828125 C 28.90625 53.257812 29.121094 53.664062 29.359375 54.160156 C 29.636719 54.742188 29.335938 54.976562 28.820312 55.234375 C 28.21875 55.535156 27.765625 55.558594 27.25 55.128906 C 26.714844 54.699219 26.28125 54.3125 25.550781 54.503906 C 25.035156 54.65625 24.453125 55.0625 24.367188 55.621094 C 24.328125 55.859375 24.390625 56.136719 24.328125 56.375 C 24.242188 56.65625 23.980469 56.847656 23.765625 57.019531 "/><g clip-rule="nonzero" clip-path="url(#4e37741b55)"><path style=" stroke:none;fill-rule:nonzero;fill:#0661aa;fill-opacity:1;" d="M 109.285156 77.253906 C 109.242188 77.296875 108.769531 77.320312 108.234375 77.320312 L 107.242188 77.320312 L 106.535156 76.652344 C 106.039062 76.179688 105.695312 75.707031 105.351562 74.996094 C 104.921875 74.117188 104.855469 73.902344 104.8125 72.996094 C 104.75 71.835938 104.941406 71.253906 105.628906 70.394531 C 106.039062 69.859375 106.0625 69.859375 106.621094 70.136719 C 106.941406 70.289062 107.027344 70.417969 107.027344 70.675781 C 107.027344 71.125 107.308594 71.621094 107.78125 72.03125 C 108.191406 72.351562 108.191406 72.375 108.0625 72.824219 C 107.738281 73.988281 108.148438 75.664062 109.007812 76.761719 C 109.199219 76.976562 109.328125 77.210938 109.285156 77.253906 Z M 103.804688 77.234375 C 102.234375 77.191406 101.09375 77.125 100.941406 77.039062 C 100.597656 76.867188 99.953125 75.640625 99.695312 74.675781 C 99.203125 72.78125 99.78125 70.933594 101.480469 68.996094 C 101.847656 68.589844 102.210938 68.222656 102.296875 68.179688 C 102.382812 68.136719 102.621094 68.265625 102.835938 68.417969 C 103.351562 68.847656 103.589844 68.761719 103.804688 68.09375 C 103.867188 67.902344 104.339844 67.792969 104.492188 67.964844 C 104.535156 68.007812 104.234375 68.394531 103.824219 68.824219 C 102.46875 70.308594 101.71875 71.859375 101.695312 73.277344 C 101.675781 73.878906 101.738281 74.160156 101.824219 74.203125 C 101.933594 74.246094 101.976562 74.074219 101.976562 73.621094 C 101.976562 72.460938 102.554688 70.976562 103.523438 69.773438 C 104.210938 68.890625 104.835938 68.265625 105.007812 68.265625 C 105.09375 68.265625 105.308594 68.546875 105.5 68.890625 L 105.847656 69.515625 L 105.4375 69.902344 C 105.222656 70.117188 104.878906 70.609375 104.683594 71.019531 C 103.824219 72.761719 104.277344 75.019531 105.800781 76.609375 L 106.425781 77.253906 Z M 95.933594 76.78125 C 87.675781 76.03125 79.957031 74.246094 74.386719 71.769531 C 72.816406 71.082031 72.363281 70.847656 70.578125 69.816406 L 69.632812 69.277344 L 70.515625 69.253906 C 74.320312 69.148438 79.441406 68.308594 85.246094 66.867188 C 87.890625 66.203125 90.558594 65.320312 94.945312 63.664062 C 101.824219 61.0625 106.535156 59.707031 110.554688 59.191406 C 112.082031 59 114.578125 59.042969 115.542969 59.300781 C 115.929688 59.40625 116.535156 59.621094 116.898438 59.816406 C 117.5 60.117188 117.566406 60.179688 117.757812 60.804688 C 117.996094 61.558594 118.253906 61.792969 119.050781 61.964844 C 120.46875 62.265625 120.554688 62.308594 120.789062 62.867188 C 120.941406 63.191406 121.15625 63.449219 121.371094 63.578125 C 122.125 64.007812 122.125 64.007812 121.867188 64.351562 C 121.542969 64.761719 121.628906 64.957031 122.273438 65.191406 C 124.101562 65.878906 124.617188 66.953125 123.691406 68.09375 C 123.414062 68.417969 123.414062 68.417969 122.984375 68.246094 C 121.800781 67.75 121.222656 68.503906 122.167969 69.34375 C 122.273438 69.449219 122.597656 69.664062 122.597656 69.816406 C 122.597656 69.945312 122.316406 70.117188 122.230469 70.203125 C 122.015625 70.394531 121.886719 70.589844 121.886719 70.867188 C 121.886719 71.105469 121.652344 70.996094 121.222656 70.804688 C 120.640625 70.566406 120.039062 70.589844 119.738281 70.824219 C 119.414062 71.0625 119.414062 71.449219 119.867188 72.246094 C 120.058594 72.589844 120.1875 72.953125 120.167969 73.039062 C 120.058594 73.339844 119.179688 73.46875 118.511719 73.320312 C 118.363281 73.277344 118.082031 73.234375 117.972656 73.125 C 117.867188 72.976562 117.910156 72.589844 117.910156 72.417969 C 117.953125 71.535156 117.84375 71.382812 117.308594 71.167969 C 116.75 70.953125 116.210938 70.976562 115.757812 71.234375 C 115.242188 71.554688 115.15625 71.964844 115.480469 72.609375 C 115.800781 73.253906 115.800781 73.425781 115.480469 73.597656 C 115.113281 73.792969 113.542969 73.683594 113.027344 73.40625 C 112.492188 73.125 112.46875 73.0625 112.535156 72.503906 C 112.578125 72.179688 112.148438 71.855469 111.867188 71.621094 C 111.523438 71.320312 111.371094 71.105469 111.371094 70.890625 C 111.371094 70.417969 111.050781 70.160156 110.46875 70.160156 C 109.800781 70.160156 109.5 70.460938 109.5 71.082031 C 109.5 71.664062 109.285156 71.855469 108.707031 71.769531 C 108.082031 71.664062 107.714844 71.253906 107.628906 70.523438 C 107.566406 69.945312 107.542969 69.921875 107.027344 69.644531 C 106.621094 69.429688 106.40625 69.210938 106.167969 68.804688 C 105.800781 68.117188 105.457031 67.773438 104.878906 67.535156 C 104.210938 67.257812 103.546875 67.234375 103.328125 67.644531 C 103.289062 67.707031 103.265625 67.945312 103.15625 67.945312 C 102.878906 67.921875 102.535156 67.34375 102.363281 67.105469 C 101.203125 65.515625 101.007812 65.515625 100.40625 65.429688 C 99.695312 65.320312 99.09375 65.515625 98.792969 65.964844 C 98.554688 66.308594 98.535156 66.695312 98.707031 67.664062 C 98.75 67.878906 98.683594 67.902344 98.277344 67.878906 C 97.609375 67.835938 97.160156 67.644531 97.160156 67.363281 C 97.160156 67.234375 97.007812 66.996094 96.859375 66.824219 C 96.601562 66.566406 96.492188 66.523438 95.976562 66.589844 C 95.007812 66.675781 94.492188 67.382812 94.726562 68.308594 C 94.902344 69.019531 94.773438 69.105469 93.910156 68.847656 C 92.964844 68.589844 92.664062 68.675781 92.253906 69.320312 C 92.0625 69.621094 91.71875 69.988281 91.460938 70.160156 C 91.222656 70.332031 90.75 70.695312 90.449219 70.996094 C 90.300781 71.125 90.085938 71.449219 89.890625 71.535156 C 89.652344 71.644531 89.117188 71.578125 88.859375 71.578125 C 88.039062 71.621094 87.738281 71.578125 87.417969 71.40625 C 87.03125 71.210938 87.007812 71.167969 87.050781 70.652344 C 87.09375 70.179688 87.050781 70.074219 86.773438 69.859375 C 86.085938 69.296875 84.902344 69.75 84.816406 70.589844 C 84.773438 71.039062 84.492188 71.125 83.589844 70.910156 C 83.03125 70.78125 82.921875 70.804688 82.34375 71.039062 C 81.71875 71.296875 81.675781 71.296875 81.203125 71.125 C 80.664062 70.910156 80.515625 70.953125 80.515625 71.277344 C 80.515625 71.902344 81.742188 72.136719 82.578125 71.644531 C 82.945312 71.425781 83.074219 71.40625 83.375 71.492188 C 83.847656 71.664062 84.707031 71.644531 85.007812 71.46875 C 85.351562 71.296875 85.4375 71.148438 85.4375 70.761719 C 85.4375 70.523438 85.523438 70.417969 85.738281 70.332031 C 86.234375 70.136719 86.40625 70.289062 86.320312 70.824219 C 86.257812 71.234375 86.277344 71.320312 86.558594 71.621094 C 87.007812 72.074219 87.675781 72.246094 88.988281 72.203125 C 89.265625 72.179688 89.824219 72.265625 90.085938 72.160156 C 90.363281 72.050781 90.792969 71.554688 91.03125 71.363281 C 92.46875 70.136719 92.535156 70.074219 92.773438 69.644531 C 92.964844 69.296875 93.007812 69.253906 93.351562 69.34375 C 95.09375 69.707031 95.546875 69.492188 95.289062 68.289062 C 95.179688 67.75 95.179688 67.707031 95.480469 67.449219 C 95.933594 67.039062 96.382812 67.125 96.511719 67.621094 C 96.578125 67.859375 96.726562 68.050781 96.878906 68.136719 L 97.160156 68.265625 L 96.75 68.976562 C 96.210938 69.945312 95.996094 70.890625 95.996094 72.179688 C 95.996094 73.234375 96.234375 74.375 96.46875 74.523438 C 96.6875 74.652344 96.6875 74.523438 96.511719 73.945312 C 96.40625 73.597656 96.339844 72.890625 96.339844 72.179688 C 96.339844 70.847656 96.554688 69.945312 97.09375 69.019531 L 97.417969 68.480469 L 98.234375 68.480469 C 99.394531 68.480469 99.589844 68.246094 99.222656 67.363281 C 98.988281 66.78125 99.074219 66.417969 99.546875 66.179688 C 100.125 65.878906 100.707031 66.117188 101.265625 66.867188 C 101.503906 67.210938 101.804688 67.558594 101.910156 67.644531 C 102.082031 67.792969 102.019531 67.878906 101.242188 68.695312 C 99.675781 70.308594 99.050781 71.554688 98.964844 73.320312 C 98.902344 74.460938 99.179688 75.621094 99.71875 76.546875 C 99.867188 76.824219 99.996094 77.082031 99.996094 77.125 C 99.976562 77.125 98.878906 77.0625 95.933594 76.78125 Z M 45.808594 40.269531 C 44.734375 42.417969 43.613281 45.773438 43.035156 48.761719 C 42.839844 49.6875 42.667969 50.460938 42.648438 50.503906 C 42.625 50.527344 42.433594 50.484375 42.21875 50.417969 C 41.980469 50.332031 41.765625 50.140625 41.613281 49.839844 C 41.484375 49.601562 41.292969 49.449219 41.226562 49.40625 C 41.164062 49.363281 40.777344 49.300781 40.367188 49.386719 C 39.960938 49.472656 39.570312 49.492188 39.550781 49.472656 C 39.464844 49.386719 39.957031 47.191406 40.347656 45.859375 C 40.539062 45.195312 40.90625 44.140625 41.140625 43.515625 C 41.894531 41.644531 41.765625 41.773438 42.476562 41.839844 C 43.226562 41.902344 44.410156 41.6875 44.691406 41.429688 C 44.992188 41.152344 44.96875 40.871094 44.496094 40.03125 C 44.066406 39.257812 44.066406 39.085938 44.476562 38.9375 C 44.96875 38.742188 45.464844 38.808594 45.851562 39.152344 L 46.214844 39.472656 Z M 39.464844 46.828125 C 39.3125 47.472656 39.292969 47.496094 39.011719 47.40625 C 38.390625 47.214844 37.765625 47.320312 36.992188 47.773438 C 36.410156 48.097656 36.109375 48.203125 35.765625 48.183594 C 35.035156 48.117188 35.140625 47.839844 36.089844 47.320312 C 37.183594 46.71875 37.292969 46.546875 37.207031 45.515625 C 37.097656 44.441406 37.164062 44.398438 38.777344 44.3125 C 39.464844 44.269531 40.089844 44.246094 40.152344 44.226562 C 40.21875 44.203125 40.128906 44.632812 39.960938 45.171875 C 39.789062 45.710938 39.570312 46.460938 39.464844 46.828125 Z M 40.195312 41.625 C 40.195312 41.539062 40.648438 41.28125 40.863281 41.28125 C 40.925781 41.28125 41.078125 41.34375 41.183594 41.429688 C 41.378906 41.582031 41.378906 41.601562 41.183594 42.011719 C 41.078125 42.246094 40.949219 42.441406 40.882812 42.441406 C 40.796875 42.441406 40.195312 41.753906 40.195312 41.625 Z M 134.359375 75.382812 C 132.488281 75.640625 128.101562 76.179688 126.640625 76.308594 C 122.941406 76.675781 114.015625 77.191406 111.585938 77.191406 L 110.554688 77.191406 L 110.101562 76.652344 C 108.984375 75.339844 108.511719 74.09375 108.726562 72.996094 C 108.8125 72.503906 108.878906 72.417969 109.15625 72.394531 C 109.585938 72.351562 109.886719 71.988281 110.015625 71.34375 C 110.101562 70.910156 110.1875 70.78125 110.40625 70.761719 C 110.683594 70.71875 110.707031 70.78125 110.835938 71.363281 C 110.878906 71.578125 111.09375 71.816406 111.4375 72.074219 C 111.84375 72.351562 111.953125 72.503906 111.910156 72.675781 C 111.867188 72.804688 111.929688 73.082031 111.996094 73.277344 C 112.234375 73.835938 113.050781 74.179688 114.230469 74.246094 C 115.308594 74.308594 115.867188 74.09375 116.167969 73.554688 C 116.339844 73.253906 116.316406 73.191406 116.058594 72.566406 C 115.78125 71.921875 115.78125 71.878906 115.996094 71.730469 C 116.273438 71.515625 116.75 71.535156 117.070312 71.75 C 117.285156 71.902344 117.308594 72.007812 117.265625 72.503906 C 117.15625 73.578125 117.738281 73.988281 119.265625 73.902344 C 120.015625 73.855469 120.359375 73.792969 120.640625 73.425781 C 120.855469 73.167969 120.597656 72.480469 120.402344 72.136719 C 120.210938 71.792969 120.058594 71.425781 120.058594 71.363281 C 120.058594 71.148438 120.683594 71.234375 121.351562 71.535156 C 121.695312 71.707031 122.058594 71.816406 122.144531 71.773438 C 122.230469 71.730469 122.296875 71.535156 122.296875 71.320312 C 122.296875 71.019531 122.402344 70.824219 122.769531 70.480469 C 123.328125 69.921875 123.351562 69.6875 122.875 69.234375 C 122.46875 68.824219 122.425781 68.738281 122.746094 68.890625 C 123.046875 69.039062 123.542969 69.039062 123.824219 68.890625 C 124.253906 68.652344 124.683594 67.730469 124.683594 67.019531 C 124.683594 66.09375 124.316406 65.535156 123.304688 65.019531 C 122.574219 64.652344 122.554688 64.609375 122.597656 64.265625 C 122.683594 63.773438 122.46875 63.40625 121.996094 63.214844 C 121.542969 63.019531 121.414062 62.867188 121.261719 62.394531 C 121.113281 61.945312 120.488281 61.578125 119.457031 61.40625 C 119.003906 61.320312 118.597656 61.191406 118.53125 61.128906 C 118.46875 61.0625 118.359375 60.78125 118.296875 60.503906 C 117.628906 57.988281 111.457031 57.730469 103.824219 59.921875 C 101.09375 60.71875 98.535156 61.578125 94.148438 63.214844 C 88.039062 65.492188 86.253906 66.03125 81.117188 67.128906 C 76.835938 68.03125 73.675781 68.480469 70.707031 68.609375 C 68.625 68.695312 68.753906 68.738281 67.441406 67.664062 C 63.847656 64.761719 61.613281 61.128906 60.925781 57.277344 C 60.195312 52.933594 61.742188 47.730469 64.558594 45.042969 C 65.226562 44.441406 66.042969 43.753906 66.148438 43.753906 C 66.171875 43.753906 66.214844 43.925781 66.214844 44.140625 C 66.234375 44.570312 66.558594 44.890625 67.460938 45.429688 C 67.785156 45.625 68.105469 45.925781 68.277344 46.246094 C 68.796875 47.148438 68.773438 47.191406 68.105469 47.539062 C 66.171875 48.484375 67.054688 51.171875 69.289062 51.171875 C 70 51.171875 70.257812 51.042969 70.902344 50.375 C 71.097656 50.160156 71.332031 49.988281 71.375 49.988281 C 71.546875 49.988281 72.019531 50.589844 72.730469 51.6875 C 73.417969 52.761719 74.019531 53.191406 75.007812 53.386719 C 75.828125 53.535156 76.472656 53.429688 76.859375 53.0625 C 77.140625 52.804688 77.160156 52.71875 77.09375 52.117188 C 77.050781 51.753906 77.007812 51.363281 76.945312 51.257812 C 76.835938 51 77.398438 50.699219 77.976562 50.699219 C 78.363281 50.699219 78.40625 50.742188 78.75 51.429688 C 79.160156 52.289062 79.417969 52.460938 80.40625 52.460938 C 81.03125 52.460938 81.246094 52.375 82.492188 51.753906 C 84.515625 50.71875 85.351562 49.925781 85.351562 48.957031 C 85.351562 48.761719 85.203125 48.269531 85.007812 47.859375 C 84.578125 46.933594 84.664062 46.804688 85.503906 47.085938 C 86.234375 47.320312 86.878906 47.34375 87.09375 47.148438 C 87.179688 47.0625 87.246094 46.847656 87.246094 46.632812 C 87.246094 46.398438 87.417969 46.011719 87.71875 45.558594 C 88.386719 44.589844 88.339844 43.945312 87.632812 42.894531 C 87.332031 42.441406 87.332031 42.441406 87.523438 41.902344 C 87.804688 41.128906 87.78125 40.980469 87.246094 40.140625 C 86.75 39.324219 86.75 39.152344 87.351562 39.023438 C 88.339844 38.808594 88.878906 37.042969 88.300781 35.839844 C 87.976562 35.195312 87.375 34.785156 85.910156 34.3125 C 84.191406 33.730469 84.128906 33.625 84.792969 32.699219 C 85.050781 32.355469 85.503906 31.539062 84.601562 30.570312 C 83.914062 29.820312 81.933594 28.9375 79.136719 27.96875 C 76.171875 26.957031 75.828125 26.765625 74.148438 26.765625 C 73.804688 26.765625 73.074219 26.808594 72.753906 26.65625 C 72.578125 26.570312 72.386719 26.269531 72.277344 26.121094 C 72.042969 25.820312 71.675781 25.519531 71.503906 25.433594 C 71.3125 25.34375 70.558594 25.21875 69.441406 25.21875 C 68.988281 25.21875 68.105469 25.257812 67.675781 25.152344 C 67.355469 25.066406 66.773438 24.742188 66.496094 24.59375 C 65.289062 23.96875 64.300781 23.839844 63.570312 24.011719 C 63.375 24.054688 62.753906 24.292969 62.214844 24.527344 C 60.925781 25.066406 60.066406 25.28125 58.882812 25.386719 C 58.042969 25.453125 57.851562 25.433594 57.074219 25.152344 C 55.441406 24.570312 53.9375 24.765625 50.992188 25.96875 C 48.128906 27.128906 45.785156 28.484375 43.140625 30.464844 C 40.453125 32.484375 37.722656 35.152344 31.894531 41.429688 C 27.144531 46.527344 22.390625 50.914062 13.898438 57.988281 C 7.746094 63.105469 4.433594 65.707031 1.769531 67.492188 C 0.414062 68.417969 0.00390625 68.804688 0.585938 68.609375 C 1.425781 68.375 4.003906 66.675781 6.734375 64.589844 C 12.863281 59.878906 18.84375 54.933594 24.003906 50.3125 C 25.980469 48.546875 30.496094 44.03125 33.980469 40.3125 C 40.324219 33.601562 42.734375 31.410156 46.496094 29 C 47.9375 28.078125 50.753906 26.65625 52.34375 26.054688 C 54.453125 25.257812 55.59375 25.152344 56.753906 25.648438 C 57.417969 25.925781 57.613281 25.96875 58.839844 25.949219 C 60.453125 25.925781 60.925781 25.839844 62.6875 25.128906 C 64.277344 24.507812 64.730469 24.507812 65.914062 25.085938 C 67.289062 25.796875 67.785156 25.90625 69.375 25.90625 C 71.054688 25.90625 71.503906 26.035156 71.890625 26.65625 C 72.042969 26.871094 72.300781 27.128906 72.449219 27.214844 C 72.621094 27.28125 73.460938 27.386719 74.320312 27.410156 C 75.871094 27.472656 75.933594 27.472656 77.71875 28.121094 C 81.136719 29.324219 82.835938 30.097656 83.867188 30.871094 C 84.492188 31.367188 84.535156 31.625 84.019531 32.378906 C 83.222656 33.539062 83.546875 34.292969 84.988281 34.828125 C 86.449219 35.367188 86.601562 35.429688 86.964844 35.644531 C 87.460938 35.945312 87.71875 36.378906 87.738281 36.914062 C 87.761719 37.582031 87.480469 38.011719 86.878906 38.3125 C 86.277344 38.59375 85.976562 39.085938 86.128906 39.582031 C 86.167969 39.753906 86.363281 40.140625 86.578125 40.484375 C 86.921875 41.066406 86.945312 41.109375 86.816406 41.601562 C 86.601562 42.398438 86.644531 42.675781 87.03125 43.324219 C 87.589844 44.246094 87.589844 44.527344 87.03125 45.28125 C 86.730469 45.6875 86.558594 46.03125 86.558594 46.246094 C 86.558594 46.632812 86.515625 46.65625 85.847656 46.417969 C 85.203125 46.203125 84.664062 46.203125 84.34375 46.441406 C 83.976562 46.699219 84 47.386719 84.386719 48.269531 C 84.6875 48.933594 84.6875 48.976562 84.492188 49.363281 C 84.257812 49.859375 83.609375 50.332031 82.300781 51 C 80.386719 51.96875 79.847656 51.96875 79.441406 51 C 79.289062 50.65625 79.03125 50.289062 78.878906 50.183594 C 78.472656 49.902344 77.527344 49.945312 76.902344 50.246094 C 76.234375 50.589844 76.105469 50.933594 76.320312 51.753906 C 76.472656 52.3125 76.472656 52.375 76.257812 52.527344 C 75.957031 52.761719 75.054688 52.65625 74.386719 52.3125 C 73.933594 52.074219 73.71875 51.859375 73.160156 50.914062 C 72.449219 49.753906 71.933594 49.277344 71.417969 49.277344 C 71.074219 49.277344 70.300781 49.753906 70.105469 50.097656 C 69.804688 50.675781 68.277344 50.417969 67.933594 49.753906 C 67.527344 48.957031 67.871094 48.117188 68.667969 47.925781 C 68.859375 47.882812 69.074219 47.796875 69.140625 47.730469 C 69.375 47.539062 69.3125 46.785156 68.988281 46.140625 C 68.667969 45.496094 68.300781 45.128906 67.375 44.570312 C 66.796875 44.226562 66.710938 44.03125 66.96875 43.515625 C 67.074219 43.300781 67.3125 43.152344 67.804688 42.980469 C 68.453125 42.761719 68.515625 42.699219 68.667969 42.269531 C 68.945312 41.429688 68.667969 40.226562 68.0625 39.539062 C 67.503906 38.914062 65.957031 38.632812 65.804688 38.808594 C 65.742188 38.871094 65.699219 39.109375 65.761719 39.429688 C 65.871094 39.859375 65.871094 40.011719 65.742188 40.160156 C 65.527344 40.398438 65.160156 40.398438 64.710938 40.117188 C 64.152344 39.796875 64.042969 39.515625 64.152344 38.65625 C 64.214844 38.074219 64.191406 37.859375 64.042969 37.625 C 63.828125 37.300781 63.097656 36.957031 62.582031 36.957031 C 62.171875 36.957031 61.503906 37.386719 61.269531 37.796875 C 61.097656 38.074219 61.117188 38.203125 61.3125 38.957031 C 61.503906 39.710938 61.503906 39.816406 61.332031 40.074219 C 61.03125 40.527344 60.257812 40.871094 59.71875 40.785156 C 59.71875 40.785156 59.417969 40.765625 59.332031 40.808594 C 59.117188 40.914062 58.839844 41.625 58.839844 41.625 C 58.601562 42.117188 58.257812 42.632812 58.109375 42.742188 C 57.828125 42.933594 57.742188 42.933594 57.3125 42.828125 C 57.03125 42.742188 56.6875 42.527344 56.515625 42.355469 L 56.195312 42.011719 L 56.453125 41.730469 C 56.773438 41.386719 56.773438 41.300781 56.34375 40.332031 C 56.023438 39.644531 56 39.496094 56.109375 39.238281 C 56.300781 38.808594 56.28125 38.117188 56.066406 37.796875 C 55.636719 37.195312 54.515625 36.980469 54.042969 37.429688 C 53.785156 37.667969 53.679688 38.160156 53.699219 38.785156 C 53.722656 39.085938 53.679688 39.152344 53.417969 39.171875 C 52.945312 39.238281 52.257812 38.980469 51.699219 38.460938 C 51.269531 38.097656 51.097656 37.96875 50.429688 37.925781 C 49.808594 37.902344 49.25 38.355469 49.355469 39.023438 C 49.421875 39.472656 49.398438 39.539062 49.164062 39.625 C 48.839844 39.730469 47.699219 39.582031 47.140625 39.34375 C 46.949219 39.257812 46.515625 38.980469 46.195312 38.679688 C 45.636719 38.203125 45.59375 38.183594 44.949219 38.226562 C 43.980469 38.292969 43.613281 38.59375 43.636719 39.28125 C 43.636719 39.625 43.742188 39.96875 43.957031 40.3125 C 44.128906 40.59375 44.257812 40.894531 44.238281 40.980469 C 44.171875 41.152344 43.527344 41.28125 42.753906 41.28125 C 42.410156 41.28125 42.023438 41.171875 41.65625 40.980469 C 40.992188 40.632812 40.496094 40.65625 39.9375 41.042969 C 39.464844 41.386719 39.484375 41.796875 40.003906 42.460938 C 40.476562 43.066406 40.496094 43.152344 40.175781 43.453125 C 39.980469 43.625 39.679688 43.6875 38.605469 43.730469 C 37.121094 43.796875 36.734375 44.03125 36.5625 44.527344 C 36.496094 44.71875 36.496094 45.066406 36.5625 45.558594 C 36.605469 45.882812 36.625 46.140625 36.582031 46.226562 C 36.539062 46.289062 36.175781 46.527344 35.789062 46.71875 C 34.820312 47.214844 34.539062 47.472656 34.539062 47.945312 C 34.539062 48.890625 35.894531 49.128906 37.183594 48.398438 C 37.851562 48.03125 38.496094 47.882812 38.667969 48.054688 C 38.710938 48.097656 38.605469 48.3125 38.453125 48.527344 C 38.089844 49.0625 38.109375 49.277344 38.476562 49.730469 C 38.839844 50.160156 39.3125 50.269531 40.175781 50.117188 C 40.582031 50.054688 40.839844 50.054688 40.863281 50.117188 C 41.011719 50.503906 41.570312 50.933594 42.28125 51.214844 C 43.570312 51.707031 43.527344 51.667969 43.269531 52.761719 C 42.992188 53.921875 42.710938 54.355469 42.109375 54.570312 C 41.699219 54.699219 41.550781 54.675781 40.863281 54.484375 C 39.957031 54.203125 39.699219 54.269531 39.421875 54.828125 C 39.078125 55.515625 39.207031 56.03125 40.003906 56.914062 C 40.605469 57.578125 40.648438 57.75 40.324219 58.136719 C 40.152344 58.355469 40.003906 58.417969 39.65625 58.375 C 39.335938 58.355469 39.121094 58.441406 38.777344 58.699219 C 38.539062 58.890625 38.175781 59.085938 37.960938 59.128906 C 37.636719 59.191406 37.527344 59.148438 37.140625 58.742188 C 36.90625 58.480469 36.5625 58.050781 36.390625 57.792969 C 36.175781 57.449219 35.9375 57.277344 35.59375 57.171875 C 34.839844 56.957031 34.367188 57.257812 33.679688 58.417969 C 33.078125 59.449219 32.605469 59.945312 32.175781 60.050781 C 31.765625 60.160156 30.925781 59.535156 30.691406 58.957031 C 30.605469 58.71875 30.433594 58.417969 30.324219 58.332031 C 29.917969 57.859375 28.390625 58.269531 27.660156 59.042969 C 27.359375 59.363281 27.316406 59.535156 27.25 60.265625 C 27.207031 60.785156 27.101562 61.257812 26.972656 61.449219 C 26.691406 61.878906 25.875 62.265625 25.488281 62.179688 C 24.453125 61.964844 24.433594 61.964844 23.808594 62.289062 C 23.464844 62.480469 22.992188 62.828125 22.734375 63.042969 C 22.347656 63.40625 22.28125 63.535156 22.28125 64.007812 C 22.28125 64.546875 22.261719 64.566406 21.789062 64.78125 C 21.230469 65.042969 20.84375 65.082031 20.5 64.890625 C 20.21875 64.742188 19.917969 64.09375 19.917969 63.6875 C 19.917969 63.234375 19.59375 63 19.144531 63.085938 C 18.800781 63.148438 18.734375 63.128906 18.414062 62.632812 C 18.027344 62.074219 17.507812 61.792969 17.078125 61.902344 C 16.605469 62.007812 16.175781 62.4375 16.113281 62.867188 C 16.027344 63.277344 16.027344 63.300781 15.574219 63.234375 C 15.1875 63.191406 15.121094 63.191406 15.121094 63.40625 C 15.121094 63.558594 15.273438 63.707031 15.53125 63.816406 C 16.304688 64.136719 16.628906 64.007812 16.691406 63.34375 C 16.734375 62.867188 16.992188 62.589844 17.378906 62.589844 C 17.488281 62.589844 17.789062 62.847656 18.003906 63.171875 C 18.371094 63.707031 18.476562 63.75 18.863281 63.75 C 19.292969 63.75 19.316406 63.773438 19.445312 64.308594 C 19.53125 64.652344 19.9375 65.664062 21.144531 65.621094 C 22.347656 65.558594 23.121094 64.867188 22.90625 64.074219 C 22.84375 63.835938 22.929688 63.730469 23.273438 63.429688 C 23.507812 63.234375 23.746094 63.105469 23.789062 63.128906 C 23.832031 63.148438 23.894531 63.601562 23.960938 64.160156 C 24.066406 65.386719 24.542969 67.515625 24.992188 68.824219 C 25.894531 71.382812 28.003906 74.609375 29.722656 76.03125 C 30.476562 76.652344 31.617188 77.277344 31.746094 77.125 C 31.789062 77.082031 31.722656 76.976562 31.617188 76.910156 C 29.59375 75.683594 27.9375 73.769531 26.453125 70.953125 C 25.574219 69.277344 24.691406 66.308594 24.453125 64.265625 C 24.410156 63.921875 24.347656 63.429688 24.324219 63.191406 C 24.261719 62.675781 24.476562 62.546875 24.949219 62.804688 C 25.617188 63.148438 26.390625 62.957031 27.207031 62.203125 C 27.488281 61.964844 27.660156 61.664062 27.679688 61.578125 C 27.765625 61.320312 27.832031 61.6875 28.023438 63.042969 C 28.390625 65.621094 29.207031 68.332031 30.304688 70.761719 C 30.753906 71.75 31.617188 73.148438 31.9375 73.40625 C 32.304688 73.707031 32.261719 73.449219 31.851562 72.78125 C 29.875 69.707031 28.453125 64.265625 28.21875 60.417969 C 28.195312 60.179688 28.152344 59.730469 28.28125 59.492188 C 28.347656 59.363281 28.605469 59.191406 28.734375 59.128906 C 29.464844 58.699219 29.746094 58.785156 30.023438 59.320312 C 30.304688 59.859375 30.992188 60.523438 31.507812 60.742188 L 31.875 60.890625 L 31.9375 62.265625 C 32.023438 63.921875 32.476562 66.136719 33.035156 67.816406 C 34.410156 71.859375 38.195312 76.996094 41.378906 79.0625 C 42.410156 79.726562 43.484375 80.242188 43.613281 80.117188 C 43.699219 80.027344 43.851562 80.136719 42.171875 79.039062 C 38.691406 76.761719 34.90625 71.730469 33.550781 67.515625 C 33.097656 66.074219 32.648438 63.964844 32.476562 62.308594 C 32.347656 61.0625 32.347656 60.957031 32.539062 60.847656 C 33.097656 60.527344 33.59375 59.964844 34.023438 59.171875 C 34.539062 58.222656 34.605469 58.222656 34.753906 59.148438 C 34.90625 60.09375 35.832031 63.171875 36.390625 64.609375 C 37.722656 68.007812 40.367188 72.566406 41.785156 73.945312 C 42.429688 74.566406 42.28125 74.136719 41.464844 73.019531 C 38.625 69.191406 36.238281 63.816406 35.164062 58.933594 C 34.96875 58.007812 34.96875 57.964844 35.140625 57.964844 C 35.378906 57.964844 35.742188 58.355469 36.023438 58.890625 C 36.324219 59.492188 37.078125 59.964844 37.722656 59.964844 C 38.023438 59.964844 38.410156 59.878906 38.605469 59.792969 C 38.796875 59.707031 38.949219 59.621094 38.949219 59.644531 C 38.96875 59.664062 39.097656 60.265625 39.25 61.019531 C 40.410156 66.78125 43.207031 72.160156 47.121094 76.222656 C 48.796875 77.941406 50.28125 79.167969 52.644531 80.71875 C 57.957031 84.222656 63.484375 86.738281 66.558594 87.0625 C 67.632812 87.167969 67.269531 86.976562 65.398438 86.414062 C 63.375 85.8125 62.105469 85.320312 60 84.285156 C 56.710938 82.695312 52.667969 80.179688 50.324219 78.308594 C 45.097656 74.09375 41.398438 68.050781 39.9375 61.257812 C 39.464844 59.0625 39.464844 59.234375 39.914062 59.214844 C 40.367188 59.191406 40.796875 58.871094 41.078125 58.269531 C 41.335938 57.707031 41.207031 57.34375 40.476562 56.546875 C 39.9375 55.96875 39.851562 55.816406 39.914062 55.535156 C 40.023438 55.128906 40 55.128906 40.476562 55.34375 C 40.710938 55.429688 41.207031 55.515625 41.59375 55.515625 L 42.28125 55.515625 L 42.34375 56.675781 C 42.539062 59.707031 43.613281 63 45.613281 66.609375 C 46.753906 68.675781 48.152344 70.609375 48.34375 70.417969 C 48.367188 70.394531 47.980469 69.75 47.484375 68.976562 C 45.785156 66.417969 44.152344 62.957031 43.484375 60.441406 C 42.839844 57.988281 42.5625 55.234375 42.949219 55.085938 C 43.398438 54.914062 44.066406 53.105469 44.066406 52.097656 C 44.066406 51.753906 43.507812 51.042969 43.140625 50.933594 C 42.882812 50.847656 43.636719 47.320312 44.496094 44.65625 C 44.925781 43.324219 45.765625 41.171875 46.171875 40.375 L 46.410156 39.925781 L 46.90625 40.117188 C 47.183594 40.226562 47.742188 40.332031 48.195312 40.375 L 48.96875 40.441406 L 48.386719 41.796875 C 47.59375 43.644531 46.644531 46.484375 46.195312 48.3125 C 45.25 52.3125 45.140625 55.601562 45.871094 59.257812 C 47.078125 65.234375 51.03125 71.601562 56.214844 75.878906 C 59.980469 78.976562 63.65625 80.890625 67.398438 81.664062 C 68.449219 81.878906 68.363281 81.878906 68.363281 81.664062 C 68.363281 81.578125 68.214844 81.449219 68.042969 81.425781 C 66.300781 81.039062 64.773438 80.523438 63.246094 79.792969 C 56.988281 76.824219 50.96875 70.675781 48.257812 64.417969 C 45.894531 59 45.527344 54.289062 46.949219 48.183594 C 47.59375 45.429688 49.164062 40.894531 49.699219 40.226562 C 49.828125 40.054688 49.914062 39.859375 49.914062 39.773438 C 49.914062 39.6875 49.808594 39.28125 49.894531 39.042969 C 50.128906 38.460938 50.730469 38.613281 51.398438 39.238281 C 51.699219 39.515625 52.066406 39.730469 52.324219 39.773438 L 52.730469 39.859375 L 52.34375 40.699219 C 51.808594 41.859375 51.054688 44.074219 50.710938 45.472656 C 50.34375 46.914062 50.128906 48.742188 50.28125 49.128906 C 50.429688 49.492188 50.453125 49.386719 50.6875 47.644531 C 50.96875 45.644531 51.722656 43.109375 52.730469 40.871094 C 53.097656 40.054688 53.183594 39.96875 53.550781 39.902344 C 54.109375 39.796875 54.34375 39.410156 54.238281 38.785156 C 54.085938 37.96875 54.667969 37.6875 55.3125 38.246094 C 55.632812 38.527344 55.632812 38.527344 55.484375 39.195312 C 55.332031 39.773438 55.355469 39.902344 55.527344 40.375 L 55.71875 40.914062 L 54.96875 42.484375 C 52.085938 48.441406 52.902344 53.363281 53.074219 54.375 C 53.503906 57.191406 54.152344 59.148438 55.546875 62.007812 C 58.066406 67.167969 62.152344 71.773438 67.484375 75.46875 C 72.257812 78.804688 78.601562 81.296875 85.351562 82.546875 C 88.621094 83.148438 93.546875 83.492188 97.371094 83.40625 C 99.566406 83.339844 100.125 83.296875 100.125 83.105469 C 100.125 83.0625 98.578125 83.019531 96.683594 83.019531 C 89.824219 82.996094 84.878906 82.265625 79.351562 80.503906 C 73.65625 78.652344 69.203125 76.246094 64.96875 72.695312 C 59.140625 67.816406 55.140625 61.644531 53.9375 55.214844 C 53.503906 53 53.570312 49.300781 53.9375 47.539062 C 54.238281 46.054688 54.667969 44.761719 55.203125 43.472656 L 55.613281 42.503906 L 56.109375 43 C 56.730469 43.625 57.417969 43.839844 58.109375 43.644531 C 58.582031 43.496094 59.097656 42.851562 59.398438 42.03125 C 59.503906 41.710938 59.589844 41.644531 59.933594 41.644531 C 60.730469 41.644531 61.675781 41.042969 61.957031 40.332031 C 62.0625 40.054688 62.0625 39.839844 61.890625 39.171875 C 61.675781 38.355469 61.675781 38.355469 61.933594 38.097656 C 62.257812 37.773438 62.816406 37.773438 63.226562 38.074219 C 63.503906 38.292969 63.546875 38.375 63.503906 38.828125 C 63.460938 39.300781 63.355469 39.429688 62.28125 40.570312 C 61.613281 41.257812 60.839844 42.117188 60.539062 42.503906 C 58.925781 44.613281 57.675781 47 57.203125 48.828125 C 56.539062 51.40625 56.558594 55.171875 57.226562 56.460938 C 57.503906 57.019531 57.527344 56.742188 57.3125 55.535156 C 56.945312 53.429688 57.203125 50.375 57.914062 48.203125 C 58.730469 45.796875 60.859375 42.546875 62.925781 40.570312 L 63.484375 40.03125 L 63.71875 40.355469 C 64.171875 40.980469 65.269531 41.324219 65.828125 41.023438 C 66.105469 40.871094 66.40625 40.3125 66.40625 39.96875 C 66.40625 39.667969 66.492188 39.667969 67.117188 39.925781 C 67.484375 40.074219 67.65625 40.226562 67.828125 40.613281 C 68.171875 41.34375 68.128906 41.453125 67.269531 41.925781 C 63.613281 43.945312 61.742188 46.160156 60.496094 49.859375 C 59.804688 51.925781 59.65625 52.847656 59.65625 54.957031 C 59.675781 58.441406 60.472656 61 62.496094 64.050781 C 63.589844 65.6875 65.871094 68.050781 67.632812 69.34375 C 74.429688 74.375 85.136719 77.492188 98.277344 78.265625 C 105.800781 78.695312 121.84375 77.941406 129.691406 76.804688 C 132.421875 76.394531 134.617188 75.921875 134.617188 75.730469 C 134.746094 75.382812 134.617188 75.363281 134.359375 75.382812 "/></g><path style=" stroke:none;fill-rule:nonzero;fill:#0661aa;fill-opacity:1;" d="M 98.640625 64.996094 C 98.988281 64.933594 99.289062 64.804688 99.566406 64.566406 C 99.867188 64.308594 100.125 63.859375 100.511719 63.707031 C 100.8125 63.601562 101.222656 63.6875 101.546875 63.707031 C 101.867188 63.730469 102.234375 63.75 102.554688 63.792969 C 103.027344 63.878906 103.371094 64.246094 103.890625 64.332031 C 104.8125 64.480469 105.457031 63.621094 106.105469 63.085938 C 106.382812 62.847656 107.09375 62.136719 107.542969 62.332031 C 107.867188 62.480469 107.910156 63.019531 108.167969 63.277344 C 108.46875 63.578125 108.964844 63.621094 109.371094 63.578125 C 109.695312 63.535156 110.039062 63.429688 110.253906 63.171875 C 110.46875 62.890625 110.363281 62.566406 110.664062 62.351562 C 110.941406 62.160156 111.5 62.050781 111.757812 62.308594 C 112.039062 62.566406 112.058594 62.890625 112.46875 63.042969 C 113.09375 63.257812 114.402344 63.128906 114.726562 62.4375 C 114.855469 62.160156 114.878906 61.707031 114.664062 61.449219 C 114.46875 61.234375 113.714844 61.085938 113.929688 61.558594 C 114.082031 61.859375 114.488281 61.878906 114.058594 62.203125 C 113.78125 62.394531 113.242188 62.546875 112.898438 62.480469 C 112.492188 62.394531 112.511719 62.074219 112.253906 61.835938 C 111.972656 61.601562 111.542969 61.558594 111.199219 61.601562 C 110.8125 61.644531 110.363281 61.730469 110.082031 62.007812 C 109.824219 62.246094 109.929688 62.632812 109.714844 62.847656 C 109.480469 63.042969 108.855469 62.976562 108.640625 62.78125 C 108.339844 62.546875 108.339844 62.117188 107.976562 61.878906 C 107.371094 61.515625 106.792969 61.835938 106.296875 62.203125 C 105.78125 62.566406 105.242188 62.933594 104.792969 63.386719 C 104.621094 63.558594 104.535156 63.6875 104.253906 63.6875 C 103.78125 63.707031 103.5 63.472656 103.113281 63.234375 C 102.726562 63.019531 102.253906 63.257812 101.804688 63.171875 C 101.308594 63.0625 100.855469 62.976562 100.363281 63.191406 C 99.890625 63.40625 99.589844 63.878906 99.136719 64.117188 C 98.640625 64.375 98.191406 64.308594 97.652344 64.332031 C 97.375 64.351562 97.222656 64.503906 97.417969 64.761719 C 97.652344 65.167969 98.320312 65.0625 98.640625 64.996094 "/><path style=" stroke:none;fill-rule:nonzero;fill:#0661aa;fill-opacity:1;" d="M 113.972656 68.523438 C 113.671875 68.050781 112.898438 68.394531 112.46875 68.050781 C 111.867188 67.578125 111.351562 66.632812 110.492188 66.632812 C 110.1875 66.609375 109.910156 66.761719 109.714844 66.953125 C 109.480469 67.214844 109.609375 67.578125 109.199219 67.535156 C 108.339844 67.429688 107.933594 66.71875 107.867188 65.921875 C 107.84375 65.664062 107.714844 65.449219 107.5 65.730469 C 107.308594 65.964844 107.414062 66.589844 107.457031 66.847656 C 107.628906 67.558594 108.191406 68.007812 108.898438 68.117188 C 109.222656 68.160156 109.671875 68.179688 109.929688 67.921875 C 110.125 67.730469 109.996094 67.382812 110.210938 67.234375 C 110.363281 67.128906 110.75 67.214844 110.898438 67.277344 C 111.199219 67.429688 111.457031 67.75 111.695312 67.988281 C 111.929688 68.222656 112.167969 68.546875 112.488281 68.695312 C 112.769531 68.824219 113.070312 68.761719 113.351562 68.847656 C 113.695312 68.933594 113.910156 69.210938 114.253906 69.296875 C 114.640625 69.382812 115.09375 69.296875 115.394531 69.019531 C 115.695312 68.738281 115.628906 68.4375 115.800781 68.074219 C 115.972656 67.707031 116.339844 67.835938 116.53125 68.09375 C 116.703125 68.332031 116.769531 68.566406 117.070312 68.675781 C 117.414062 68.804688 117.996094 68.738281 118.273438 68.480469 C 118.574219 68.179688 118.359375 67.964844 118.316406 67.621094 C 118.273438 67.257812 118.597656 66.996094 118.941406 66.890625 C 119.328125 66.78125 119.609375 66.953125 119.910156 67.210938 C 120.144531 67.40625 120.382812 67.773438 120.703125 67.578125 C 121.285156 67.234375 121.542969 66.351562 121.179688 65.816406 C 121.09375 65.664062 120.574219 65.128906 120.359375 65.277344 C 120.058594 65.515625 120.683594 65.902344 120.769531 66.117188 C 120.832031 66.246094 120.917969 66.503906 120.789062 66.609375 C 120.617188 66.78125 120.339844 66.546875 120.1875 66.460938 C 119.78125 66.265625 119.351562 66.222656 118.898438 66.265625 C 118.425781 66.332031 118.039062 66.566406 117.84375 67.019531 C 117.738281 67.277344 117.886719 68.074219 117.609375 68.179688 C 117.242188 68.332031 117.027344 67.644531 116.835938 67.472656 C 116.554688 67.191406 116.015625 67.148438 115.671875 67.320312 C 115.199219 67.578125 115.351562 67.988281 115.15625 68.375 C 114.898438 68.847656 114.230469 68.910156 113.972656 68.523438 "/></g></svg>