<svg xmlns="http://www.w3.org/2000/svg" xmlns:xlink="http://www.w3.org/1999/xlink" width="180" zoomAndPan="magnify" viewBox="0 0 135 161.249994" height="215" preserveAspectRatio="xMidYMid meet" version="1.0"><defs><g/><clipPath id="8feff556de"><path d="M 12.148438 23.917969 L 122.628906 23.917969 L 122.628906 75.949219 L 12.148438 75.949219 Z M 12.148438 23.917969 " clip-rule="nonzero"/></clipPath></defs><g fill="#0661aa" fill-opacity="1"><g transform="translate(39.751613, 101.775524)"><g><path d="M 6.078125 0.390625 C 4.410156 0.390625 3.109375 -0.0390625 2.171875 -0.90625 C 1.242188 -1.769531 0.78125 -2.96875 0.78125 -4.5 L 0.78125 -12.765625 L 3.859375 -12.765625 L 3.859375 -4.671875 C 3.859375 -3.941406 4.050781 -3.351562 4.4375 -2.90625 C 4.832031 -2.457031 5.378906 -2.234375 6.078125 -2.234375 C 6.765625 -2.234375 7.304688 -2.453125 7.703125 -2.890625 C 8.097656 -3.328125 8.296875 -3.921875 8.296875 -4.671875 L 8.296875 -12.765625 L 11.359375 -12.765625 L 11.359375 -4.5 C 11.359375 -2.96875 10.890625 -1.769531 9.953125 -0.90625 C 9.023438 -0.0390625 7.734375 0.390625 6.078125 0.390625 Z M 6.078125 0.390625 "/></g></g></g><g fill="#0661aa" fill-opacity="1"><g transform="translate(54.013247, 101.775524)"><g><path d="M 2.078125 -10.4375 C 1.597656 -10.4375 1.207031 -10.578125 0.90625 -10.859375 C 0.613281 -11.148438 0.46875 -11.523438 0.46875 -11.984375 C 0.46875 -12.453125 0.613281 -12.832031 0.90625 -13.125 C 1.207031 -13.414062 1.597656 -13.5625 2.078125 -13.5625 C 2.566406 -13.5625 2.957031 -13.414062 3.25 -13.125 C 3.550781 -12.832031 3.703125 -12.453125 3.703125 -11.984375 C 3.703125 -11.523438 3.550781 -11.148438 3.25 -10.859375 C 2.957031 -10.578125 2.566406 -10.4375 2.078125 -10.4375 Z M 0.34375 4.0625 C -0.382812 4.0625 -1.035156 3.960938 -1.609375 3.765625 L -1.296875 1.8125 C -0.984375 1.914062 -0.675781 1.96875 -0.375 1.96875 C -0.03125 1.96875 0.234375 1.859375 0.421875 1.640625 C 0.617188 1.429688 0.71875 1.140625 0.71875 0.765625 L 0.71875 -9.171875 L 3.453125 -9.171875 L 3.453125 1.0625 C 3.453125 2 3.175781 2.734375 2.625 3.265625 C 2.070312 3.796875 1.3125 4.0625 0.34375 4.0625 Z M 0.34375 4.0625 "/></g></g></g><g fill="#0661aa" fill-opacity="1"><g transform="translate(60.337819, 101.775524)"><g><path d="M 2.078125 -10.4375 C 1.597656 -10.4375 1.207031 -10.578125 0.90625 -10.859375 C 0.613281 -11.148438 0.46875 -11.523438 0.46875 -11.984375 C 0.46875 -12.453125 0.613281 -12.832031 0.90625 -13.125 C 1.207031 -13.414062 1.597656 -13.5625 2.078125 -13.5625 C 2.566406 -13.5625 2.957031 -13.414062 3.25 -13.125 C 3.550781 -12.832031 3.703125 -12.453125 3.703125 -11.984375 C 3.703125 -11.523438 3.550781 -11.148438 3.25 -10.859375 C 2.957031 -10.578125 2.566406 -10.4375 2.078125 -10.4375 Z M 0.34375 4.0625 C -0.382812 4.0625 -1.035156 3.960938 -1.609375 3.765625 L -1.296875 1.8125 C -0.984375 1.914062 -0.675781 1.96875 -0.375 1.96875 C -0.03125 1.96875 0.234375 1.859375 0.421875 1.640625 C 0.617188 1.429688 0.71875 1.140625 0.71875 0.765625 L 0.71875 -9.171875 L 3.453125 -9.171875 L 3.453125 1.0625 C 3.453125 2 3.175781 2.734375 2.625 3.265625 C 2.070312 3.796875 1.3125 4.0625 0.34375 4.0625 Z M 0.34375 4.0625 "/></g></g></g><g fill="#0661aa" fill-opacity="1"><g transform="translate(66.66239, 101.775524)"><g><path d="M 3.171875 0.21875 C 2.296875 0.21875 1.585938 -0.015625 1.046875 -0.484375 C 0.515625 -0.953125 0.25 -1.578125 0.25 -2.359375 C 0.25 -3.203125 0.566406 -3.878906 1.203125 -4.390625 C 1.847656 -4.910156 2.785156 -5.238281 4.015625 -5.375 L 5.4375 -5.53125 C 5.632812 -5.5625 5.796875 -5.632812 5.921875 -5.75 C 6.046875 -5.875 6.109375 -6.046875 6.109375 -6.265625 C 6.109375 -6.671875 5.984375 -6.984375 5.734375 -7.203125 C 5.484375 -7.421875 5.15625 -7.53125 4.75 -7.53125 C 4.28125 -7.53125 3.898438 -7.367188 3.609375 -7.046875 C 3.328125 -6.722656 3.175781 -6.316406 3.15625 -5.828125 L 0.5625 -6.203125 C 0.582031 -6.847656 0.769531 -7.414062 1.125 -7.90625 C 1.476562 -8.40625 1.960938 -8.796875 2.578125 -9.078125 C 3.191406 -9.359375 3.910156 -9.5 4.734375 -9.5 C 5.984375 -9.5 6.972656 -9.171875 7.703125 -8.515625 C 8.429688 -7.859375 8.796875 -6.96875 8.796875 -5.84375 L 8.796875 -2.296875 C 8.796875 -1.890625 8.945312 -1.6875 9.25 -1.6875 C 9.488281 -1.6875 9.710938 -1.804688 9.921875 -2.046875 L 10.515625 -0.578125 C 10.234375 -0.296875 9.890625 -0.09375 9.484375 0.03125 C 9.078125 0.164062 8.675781 0.234375 8.28125 0.234375 C 7.726562 0.234375 7.265625 0.09375 6.890625 -0.1875 C 6.515625 -0.46875 6.28125 -0.820312 6.1875 -1.25 L 6.140625 -1.484375 L 6.125 -1.484375 C 5.851562 -0.960938 5.457031 -0.546875 4.9375 -0.234375 C 4.425781 0.0664062 3.835938 0.21875 3.171875 0.21875 Z M 4.296875 -1.703125 C 4.816406 -1.703125 5.242188 -1.882812 5.578125 -2.25 C 5.910156 -2.613281 6.078125 -3.085938 6.078125 -3.671875 L 6.078125 -4.109375 L 4.734375 -3.953125 C 4.109375 -3.890625 3.660156 -3.742188 3.390625 -3.515625 C 3.128906 -3.285156 3 -3.015625 3 -2.703125 C 3 -2.410156 3.117188 -2.171875 3.359375 -1.984375 C 3.609375 -1.796875 3.921875 -1.703125 4.296875 -1.703125 Z M 4.296875 -1.703125 "/></g></g></g><g fill="#0661aa" fill-opacity="1"><g transform="translate(79.293603, 101.775524)"><g><path d="M 4 4.0625 C 3.132812 4.0625 2.328125 3.910156 1.578125 3.609375 C 0.828125 3.316406 0.21875 2.914062 -0.25 2.40625 L 0.828125 0.46875 C 1.171875 0.875 1.597656 1.195312 2.109375 1.4375 C 2.617188 1.6875 3.160156 1.8125 3.734375 1.8125 C 4.503906 1.8125 5.113281 1.585938 5.5625 1.140625 C 6.007812 0.703125 6.234375 0.101562 6.234375 -0.65625 L 6.234375 -1.453125 L 6.21875 -1.453125 C 5.957031 -0.898438 5.59375 -0.460938 5.125 -0.140625 C 4.65625 0.179688 4.140625 0.34375 3.578125 0.34375 C 2.660156 0.34375 1.9375 0.0390625 1.40625 -0.5625 C 0.875 -1.175781 0.609375 -2 0.609375 -3.03125 L 0.609375 -9.171875 L 3.34375 -9.171875 L 3.34375 -3.484375 C 3.34375 -3.003906 3.457031 -2.617188 3.6875 -2.328125 C 3.925781 -2.046875 4.25 -1.90625 4.65625 -1.90625 C 5.113281 -1.90625 5.484375 -2.0625 5.765625 -2.375 C 6.054688 -2.6875 6.203125 -3.101562 6.203125 -3.625 L 6.203125 -9.171875 L 8.921875 -9.171875 L 8.9375 -0.484375 C 8.9375 0.460938 8.738281 1.273438 8.34375 1.953125 C 7.945312 2.628906 7.375 3.148438 6.625 3.515625 C 5.882812 3.878906 5.007812 4.0625 4 4.0625 Z M 4 4.0625 "/></g></g></g><g fill="#0661aa" fill-opacity="1"><g transform="translate(91.011079, 101.775524)"><g><path d="M 2.109375 -10.4375 C 1.617188 -10.4375 1.226562 -10.578125 0.9375 -10.859375 C 0.644531 -11.148438 0.5 -11.523438 0.5 -11.984375 C 0.5 -12.460938 0.644531 -12.84375 0.9375 -13.125 C 1.226562 -13.414062 1.617188 -13.5625 2.109375 -13.5625 C 2.597656 -13.5625 2.988281 -13.414062 3.28125 -13.125 C 3.582031 -12.84375 3.734375 -12.460938 3.734375 -11.984375 C 3.734375 -11.523438 3.582031 -11.148438 3.28125 -10.859375 C 2.988281 -10.578125 2.597656 -10.4375 2.109375 -10.4375 Z M 0.734375 0 L 0.734375 -9.171875 L 3.484375 -9.171875 L 3.484375 0 Z M 0.734375 0 "/></g></g></g><g fill="#2d6d5e" fill-opacity="1"><g transform="translate(28.532324, 121.016446)"><g><path d="M 1.65625 0 L 0.8125 0 L 0.8125 -7.8125 L 3.875 -7.8125 L 3.875 -7.046875 L 1.65625 -7.046875 L 1.65625 -4.140625 L 3.75 -4.140625 L 3.75 -3.359375 L 1.65625 -3.359375 Z M 1.65625 0 "/></g></g></g><g fill="#2d6d5e" fill-opacity="1"><g transform="translate(34.189536, 121.016446)"><g><path d="M 4.359375 -2.9375 C 4.359375 -2.476562 4.316406 -2.0625 4.234375 -1.6875 C 4.160156 -1.3125 4.039062 -0.988281 3.875 -0.71875 C 3.71875 -0.457031 3.515625 -0.253906 3.265625 -0.109375 C 3.023438 0.0351562 2.734375 0.109375 2.390625 0.109375 C 2.078125 0.109375 1.796875 0.0351562 1.546875 -0.109375 C 1.304688 -0.253906 1.101562 -0.457031 0.9375 -0.71875 C 0.78125 -0.976562 0.660156 -1.296875 0.578125 -1.671875 C 0.503906 -2.054688 0.46875 -2.476562 0.46875 -2.9375 C 0.46875 -3.582031 0.535156 -4.128906 0.671875 -4.578125 C 0.804688 -5.035156 1.019531 -5.378906 1.3125 -5.609375 C 1.601562 -5.847656 1.96875 -5.96875 2.40625 -5.96875 C 2.820312 -5.96875 3.175781 -5.851562 3.46875 -5.625 C 3.757812 -5.394531 3.976562 -5.054688 4.125 -4.609375 C 4.28125 -4.160156 4.359375 -3.601562 4.359375 -2.9375 Z M 1.296875 -2.9375 C 1.296875 -2.425781 1.332031 -2 1.40625 -1.65625 C 1.488281 -1.3125 1.613281 -1.050781 1.78125 -0.875 C 1.945312 -0.695312 2.160156 -0.609375 2.421875 -0.609375 C 2.671875 -0.609375 2.875 -0.691406 3.03125 -0.859375 C 3.195312 -1.035156 3.316406 -1.296875 3.390625 -1.640625 C 3.472656 -1.984375 3.515625 -2.414062 3.515625 -2.9375 C 3.515625 -3.445312 3.472656 -3.875 3.390625 -4.21875 C 3.316406 -4.5625 3.195312 -4.816406 3.03125 -4.984375 C 2.875 -5.160156 2.664062 -5.25 2.40625 -5.25 C 2.019531 -5.25 1.738281 -5.054688 1.5625 -4.671875 C 1.382812 -4.285156 1.296875 -3.707031 1.296875 -2.9375 Z M 1.296875 -2.9375 "/></g></g></g><g fill="#2d6d5e" fill-opacity="1"><g transform="translate(40.541264, 121.016446)"><g><path d="M 2.671875 -5.96875 C 2.753906 -5.96875 2.835938 -5.957031 2.921875 -5.9375 C 3.003906 -5.925781 3.085938 -5.910156 3.171875 -5.890625 L 3.046875 -5.046875 C 2.984375 -5.066406 2.914062 -5.082031 2.84375 -5.09375 C 2.769531 -5.101562 2.691406 -5.109375 2.609375 -5.109375 C 2.453125 -5.109375 2.304688 -5.054688 2.171875 -4.953125 C 2.035156 -4.847656 1.921875 -4.703125 1.828125 -4.515625 C 1.734375 -4.328125 1.660156 -4.109375 1.609375 -3.859375 C 1.554688 -3.609375 1.53125 -3.34375 1.53125 -3.0625 L 1.53125 0 L 0.71875 0 L 0.71875 -5.859375 L 1.359375 -5.859375 L 1.46875 -4.828125 L 1.515625 -4.828125 C 1.597656 -5.046875 1.691406 -5.238281 1.796875 -5.40625 C 1.910156 -5.582031 2.039062 -5.71875 2.1875 -5.8125 C 2.332031 -5.914062 2.492188 -5.96875 2.671875 -5.96875 Z M 2.671875 -5.96875 "/></g></g></g><g fill="#2d6d5e" fill-opacity="1"><g transform="translate(45.354372, 121.016446)"><g/></g></g><g fill="#2d6d5e" fill-opacity="1"><g transform="translate(48.917351, 121.016446)"><g><path d="M 2.40625 0.109375 C 1.976562 0.109375 1.617188 0 1.328125 -0.21875 C 1.046875 -0.445312 0.832031 -0.785156 0.6875 -1.234375 C 0.539062 -1.679688 0.46875 -2.234375 0.46875 -2.890625 C 0.46875 -3.535156 0.539062 -4.085938 0.6875 -4.546875 C 0.832031 -5.003906 1.050781 -5.351562 1.34375 -5.59375 C 1.632812 -5.84375 2 -5.96875 2.4375 -5.96875 C 2.65625 -5.96875 2.851562 -5.941406 3.03125 -5.890625 C 3.207031 -5.847656 3.375 -5.785156 3.53125 -5.703125 L 3.265625 -5.03125 C 3.140625 -5.09375 3.007812 -5.140625 2.875 -5.171875 C 2.75 -5.210938 2.625 -5.234375 2.5 -5.234375 C 2.238281 -5.234375 2.019531 -5.144531 1.84375 -4.96875 C 1.675781 -4.789062 1.546875 -4.53125 1.453125 -4.1875 C 1.359375 -3.84375 1.3125 -3.414062 1.3125 -2.90625 C 1.3125 -2.394531 1.351562 -1.96875 1.4375 -1.625 C 1.53125 -1.289062 1.664062 -1.035156 1.84375 -0.859375 C 2.019531 -0.691406 2.238281 -0.609375 2.5 -0.609375 C 2.65625 -0.609375 2.8125 -0.628906 2.96875 -0.671875 C 3.132812 -0.722656 3.300781 -0.789062 3.46875 -0.875 L 3.46875 -0.1875 C 3.3125 -0.09375 3.132812 -0.0195312 2.9375 0.03125 C 2.75 0.0820312 2.570312 0.109375 2.40625 0.109375 Z M 2.40625 0.109375 "/></g></g></g><g fill="#2d6d5e" fill-opacity="1"><g transform="translate(54.205936, 121.016446)"><g><path d="M 2.28125 -5.96875 C 2.820312 -5.96875 3.207031 -5.796875 3.4375 -5.453125 C 3.675781 -5.109375 3.796875 -4.609375 3.796875 -3.953125 L 3.796875 0 L 3.171875 0 L 3.046875 -0.828125 L 3.015625 -0.828125 C 2.929688 -0.628906 2.820312 -0.457031 2.6875 -0.3125 C 2.5625 -0.175781 2.414062 -0.0703125 2.25 0 C 2.09375 0.0703125 1.90625 0.109375 1.6875 0.109375 C 1.382812 0.109375 1.132812 0.03125 0.9375 -0.125 C 0.75 -0.289062 0.609375 -0.503906 0.515625 -0.765625 C 0.421875 -1.023438 0.375 -1.304688 0.375 -1.609375 C 0.375 -2.191406 0.539062 -2.640625 0.875 -2.953125 C 1.21875 -3.273438 1.695312 -3.453125 2.3125 -3.484375 L 2.96875 -3.53125 L 2.96875 -3.9375 C 2.96875 -4.40625 2.90625 -4.742188 2.78125 -4.953125 C 2.65625 -5.171875 2.445312 -5.28125 2.15625 -5.28125 C 2 -5.28125 1.828125 -5.25 1.640625 -5.1875 C 1.460938 -5.132812 1.269531 -5.046875 1.0625 -4.921875 L 0.796875 -5.546875 C 1.015625 -5.691406 1.25 -5.796875 1.5 -5.859375 C 1.757812 -5.929688 2.019531 -5.96875 2.28125 -5.96875 Z M 2.984375 -2.921875 L 2.4375 -2.890625 C 2.03125 -2.867188 1.722656 -2.753906 1.515625 -2.546875 C 1.316406 -2.335938 1.21875 -2.035156 1.21875 -1.640625 C 1.21875 -1.265625 1.28125 -0.988281 1.40625 -0.8125 C 1.539062 -0.644531 1.722656 -0.5625 1.953125 -0.5625 C 2.285156 -0.5625 2.539062 -0.71875 2.71875 -1.03125 C 2.894531 -1.34375 2.984375 -1.773438 2.984375 -2.328125 Z M 2.984375 -2.921875 "/></g></g></g><g fill="#2d6d5e" fill-opacity="1"><g transform="translate(60.231775, 121.016446)"><g><path d="M 1.53125 0 L 0.71875 0 L 0.71875 -8.3125 L 1.53125 -8.3125 Z M 1.53125 0 "/></g></g></g><g fill="#2d6d5e" fill-opacity="1"><g transform="translate(64.008452, 121.016446)"><g><path d="M 5.3125 -5.96875 C 5.78125 -5.96875 6.125 -5.800781 6.34375 -5.46875 C 6.5625 -5.132812 6.671875 -4.628906 6.671875 -3.953125 L 6.671875 0 L 5.859375 0 L 5.859375 -3.8125 C 5.859375 -4.320312 5.789062 -4.6875 5.65625 -4.90625 C 5.53125 -5.132812 5.34375 -5.25 5.09375 -5.25 C 4.738281 -5.25 4.484375 -5.078125 4.328125 -4.734375 C 4.179688 -4.398438 4.109375 -3.921875 4.109375 -3.296875 L 4.109375 0 L 3.296875 0 L 3.296875 -3.8125 C 3.296875 -4.164062 3.265625 -4.445312 3.203125 -4.65625 C 3.148438 -4.863281 3.066406 -5.015625 2.953125 -5.109375 C 2.835938 -5.203125 2.695312 -5.25 2.53125 -5.25 C 2.257812 -5.25 2.050781 -5.15625 1.90625 -4.96875 C 1.769531 -4.789062 1.671875 -4.539062 1.609375 -4.21875 C 1.554688 -3.90625 1.53125 -3.546875 1.53125 -3.140625 L 1.53125 0 L 0.71875 0 L 0.71875 -5.859375 L 1.375 -5.859375 L 1.46875 -5.03125 L 1.515625 -5.03125 C 1.585938 -5.226562 1.679688 -5.394531 1.796875 -5.53125 C 1.921875 -5.675781 2.0625 -5.785156 2.21875 -5.859375 C 2.382812 -5.929688 2.566406 -5.96875 2.765625 -5.96875 C 3.109375 -5.96875 3.375 -5.875 3.5625 -5.6875 C 3.757812 -5.507812 3.890625 -5.28125 3.953125 -5 L 4.015625 -5 C 4.148438 -5.332031 4.316406 -5.578125 4.515625 -5.734375 C 4.722656 -5.890625 4.988281 -5.96875 5.3125 -5.96875 Z M 5.3125 -5.96875 "/></g></g></g><g fill="#2d6d5e" fill-opacity="1"><g transform="translate(72.913862, 121.016446)"><g><path d="M 1.765625 -1.234375 L 1.84375 -1.109375 C 1.769531 -0.816406 1.691406 -0.523438 1.609375 -0.234375 C 1.523438 0.0546875 1.4375 0.34375 1.34375 0.625 C 1.25 0.90625 1.144531 1.175781 1.03125 1.4375 L 0.390625 1.4375 C 0.472656 1.132812 0.546875 0.828125 0.609375 0.515625 C 0.679688 0.210938 0.738281 -0.0859375 0.78125 -0.390625 C 0.832031 -0.691406 0.867188 -0.972656 0.890625 -1.234375 Z M 1.765625 -1.234375 "/></g></g></g><g fill="#2d6d5e" fill-opacity="1"><g transform="translate(76.861496, 121.016446)"><g/></g></g><g fill="#2d6d5e" fill-opacity="1"><g transform="translate(80.424475, 121.016446)"><g><path d="M 2.5625 -5.171875 L 1.640625 -5.171875 L 1.640625 0 L 0.8125 0 L 0.8125 -5.171875 L 0.09375 -5.171875 L 0.09375 -5.609375 L 0.8125 -5.890625 L 0.8125 -6.28125 C 0.8125 -6.726562 0.847656 -7.101562 0.921875 -7.40625 C 1.003906 -7.71875 1.140625 -7.957031 1.328125 -8.125 C 1.523438 -8.289062 1.789062 -8.375 2.125 -8.375 C 2.28125 -8.375 2.421875 -8.359375 2.546875 -8.328125 C 2.679688 -8.296875 2.820312 -8.253906 2.96875 -8.203125 L 2.75 -7.53125 C 2.65625 -7.570312 2.5625 -7.597656 2.46875 -7.609375 C 2.382812 -7.628906 2.300781 -7.640625 2.21875 -7.640625 C 2 -7.640625 1.847656 -7.539062 1.765625 -7.34375 C 1.679688 -7.15625 1.640625 -6.8125 1.640625 -6.3125 L 1.640625 -5.859375 L 2.5625 -5.859375 Z M 2.5625 -5.171875 "/></g></g></g><g fill="#2d6d5e" fill-opacity="1"><g transform="translate(84.676628, 121.016446)"><g><path d="M 4.359375 -2.9375 C 4.359375 -2.476562 4.316406 -2.0625 4.234375 -1.6875 C 4.160156 -1.3125 4.039062 -0.988281 3.875 -0.71875 C 3.71875 -0.457031 3.515625 -0.253906 3.265625 -0.109375 C 3.023438 0.0351562 2.734375 0.109375 2.390625 0.109375 C 2.078125 0.109375 1.796875 0.0351562 1.546875 -0.109375 C 1.304688 -0.253906 1.101562 -0.457031 0.9375 -0.71875 C 0.78125 -0.976562 0.660156 -1.296875 0.578125 -1.671875 C 0.503906 -2.054688 0.46875 -2.476562 0.46875 -2.9375 C 0.46875 -3.582031 0.535156 -4.128906 0.671875 -4.578125 C 0.804688 -5.035156 1.019531 -5.378906 1.3125 -5.609375 C 1.601562 -5.847656 1.96875 -5.96875 2.40625 -5.96875 C 2.820312 -5.96875 3.175781 -5.851562 3.46875 -5.625 C 3.757812 -5.394531 3.976562 -5.054688 4.125 -4.609375 C 4.28125 -4.160156 4.359375 -3.601562 4.359375 -2.9375 Z M 1.296875 -2.9375 C 1.296875 -2.425781 1.332031 -2 1.40625 -1.65625 C 1.488281 -1.3125 1.613281 -1.050781 1.78125 -0.875 C 1.945312 -0.695312 2.160156 -0.609375 2.421875 -0.609375 C 2.671875 -0.609375 2.875 -0.691406 3.03125 -0.859375 C 3.195312 -1.035156 3.316406 -1.296875 3.390625 -1.640625 C 3.472656 -1.984375 3.515625 -2.414062 3.515625 -2.9375 C 3.515625 -3.445312 3.472656 -3.875 3.390625 -4.21875 C 3.316406 -4.5625 3.195312 -4.816406 3.03125 -4.984375 C 2.875 -5.160156 2.664062 -5.25 2.40625 -5.25 C 2.019531 -5.25 1.738281 -5.054688 1.5625 -4.671875 C 1.382812 -4.285156 1.296875 -3.707031 1.296875 -2.9375 Z M 1.296875 -2.9375 "/></g></g></g><g fill="#2d6d5e" fill-opacity="1"><g transform="translate(91.028356, 121.016446)"><g><path d="M 2.40625 0.109375 C 1.976562 0.109375 1.617188 0 1.328125 -0.21875 C 1.046875 -0.445312 0.832031 -0.785156 0.6875 -1.234375 C 0.539062 -1.679688 0.46875 -2.234375 0.46875 -2.890625 C 0.46875 -3.535156 0.539062 -4.085938 0.6875 -4.546875 C 0.832031 -5.003906 1.050781 -5.351562 1.34375 -5.59375 C 1.632812 -5.84375 2 -5.96875 2.4375 -5.96875 C 2.65625 -5.96875 2.851562 -5.941406 3.03125 -5.890625 C 3.207031 -5.847656 3.375 -5.785156 3.53125 -5.703125 L 3.265625 -5.03125 C 3.140625 -5.09375 3.007812 -5.140625 2.875 -5.171875 C 2.75 -5.210938 2.625 -5.234375 2.5 -5.234375 C 2.238281 -5.234375 2.019531 -5.144531 1.84375 -4.96875 C 1.675781 -4.789062 1.546875 -4.53125 1.453125 -4.1875 C 1.359375 -3.84375 1.3125 -3.414062 1.3125 -2.90625 C 1.3125 -2.394531 1.351562 -1.96875 1.4375 -1.625 C 1.53125 -1.289062 1.664062 -1.035156 1.84375 -0.859375 C 2.019531 -0.691406 2.238281 -0.609375 2.5 -0.609375 C 2.65625 -0.609375 2.8125 -0.628906 2.96875 -0.671875 C 3.132812 -0.722656 3.300781 -0.789062 3.46875 -0.875 L 3.46875 -0.1875 C 3.3125 -0.09375 3.132812 -0.0195312 2.9375 0.03125 C 2.75 0.0820312 2.570312 0.109375 2.40625 0.109375 Z M 2.40625 0.109375 "/></g></g></g><g fill="#2d6d5e" fill-opacity="1"><g transform="translate(96.316941, 121.016446)"><g><path d="M 4.21875 -5.859375 L 4.21875 0 L 3.5625 0 L 3.46875 -0.828125 L 3.40625 -0.828125 C 3.332031 -0.640625 3.226562 -0.472656 3.09375 -0.328125 C 2.96875 -0.191406 2.820312 -0.0820312 2.65625 0 C 2.5 0.0703125 2.316406 0.109375 2.109375 0.109375 C 1.773438 0.109375 1.503906 0.0234375 1.296875 -0.140625 C 1.085938 -0.316406 0.929688 -0.5625 0.828125 -0.875 C 0.734375 -1.195312 0.6875 -1.578125 0.6875 -2.015625 L 0.6875 -5.859375 L 1.515625 -5.859375 L 1.515625 -2.171875 C 1.515625 -1.640625 1.578125 -1.25 1.703125 -1 C 1.828125 -0.75 2.015625 -0.625 2.265625 -0.625 C 2.535156 -0.625 2.753906 -0.695312 2.921875 -0.84375 C 3.085938 -1 3.207031 -1.234375 3.28125 -1.546875 C 3.351562 -1.859375 3.390625 -2.25 3.390625 -2.71875 L 3.390625 -5.859375 Z M 4.21875 -5.859375 "/></g></g></g><g fill="#2d6d5e" fill-opacity="1"><g transform="translate(102.78086, 121.016446)"><g><path d="M 3.328125 -1.546875 C 3.328125 -1.191406 3.257812 -0.890625 3.125 -0.640625 C 3 -0.398438 2.8125 -0.210938 2.5625 -0.078125 C 2.320312 0.046875 2.03125 0.109375 1.6875 0.109375 C 1.414062 0.109375 1.164062 0.078125 0.9375 0.015625 C 0.71875 -0.046875 0.53125 -0.125 0.375 -0.21875 L 0.375 -1.078125 C 0.53125 -0.941406 0.722656 -0.832031 0.953125 -0.75 C 1.179688 -0.664062 1.414062 -0.625 1.65625 -0.625 C 1.925781 -0.625 2.132812 -0.703125 2.28125 -0.859375 C 2.4375 -1.015625 2.515625 -1.234375 2.515625 -1.515625 C 2.515625 -1.679688 2.484375 -1.828125 2.421875 -1.953125 C 2.359375 -2.078125 2.257812 -2.195312 2.125 -2.3125 C 1.988281 -2.425781 1.816406 -2.546875 1.609375 -2.671875 C 1.359375 -2.816406 1.140625 -2.96875 0.953125 -3.125 C 0.765625 -3.289062 0.617188 -3.476562 0.515625 -3.6875 C 0.421875 -3.894531 0.375 -4.144531 0.375 -4.4375 C 0.375 -4.894531 0.519531 -5.265625 0.8125 -5.546875 C 1.113281 -5.828125 1.503906 -5.96875 1.984375 -5.96875 C 2.234375 -5.96875 2.46875 -5.9375 2.6875 -5.875 C 2.90625 -5.8125 3.113281 -5.71875 3.3125 -5.59375 L 3 -4.9375 C 2.851562 -5.039062 2.691406 -5.117188 2.515625 -5.171875 C 2.347656 -5.234375 2.175781 -5.265625 2 -5.265625 C 1.738281 -5.265625 1.53125 -5.191406 1.375 -5.046875 C 1.226562 -4.898438 1.15625 -4.707031 1.15625 -4.46875 C 1.15625 -4.300781 1.1875 -4.15625 1.25 -4.03125 C 1.3125 -3.914062 1.410156 -3.800781 1.546875 -3.6875 C 1.679688 -3.582031 1.863281 -3.460938 2.09375 -3.328125 C 2.34375 -3.171875 2.554688 -3.015625 2.734375 -2.859375 C 2.921875 -2.703125 3.066406 -2.519531 3.171875 -2.3125 C 3.273438 -2.101562 3.328125 -1.847656 3.328125 -1.546875 Z M 3.328125 -1.546875 "/></g></g></g><g fill="#2d6d5e" fill-opacity="1"><g transform="translate(33.71136, 133.707417)"><g><path d="M 2.28125 -5.96875 C 2.820312 -5.96875 3.207031 -5.796875 3.4375 -5.453125 C 3.675781 -5.109375 3.796875 -4.609375 3.796875 -3.953125 L 3.796875 0 L 3.171875 0 L 3.046875 -0.828125 L 3.015625 -0.828125 C 2.929688 -0.628906 2.820312 -0.457031 2.6875 -0.3125 C 2.5625 -0.175781 2.414062 -0.0703125 2.25 0 C 2.09375 0.0703125 1.90625 0.109375 1.6875 0.109375 C 1.382812 0.109375 1.132812 0.03125 0.9375 -0.125 C 0.75 -0.289062 0.609375 -0.503906 0.515625 -0.765625 C 0.421875 -1.023438 0.375 -1.304688 0.375 -1.609375 C 0.375 -2.191406 0.539062 -2.640625 0.875 -2.953125 C 1.21875 -3.273438 1.695312 -3.453125 2.3125 -3.484375 L 2.96875 -3.53125 L 2.96875 -3.9375 C 2.96875 -4.40625 2.90625 -4.742188 2.78125 -4.953125 C 2.65625 -5.171875 2.445312 -5.28125 2.15625 -5.28125 C 2 -5.28125 1.828125 -5.25 1.640625 -5.1875 C 1.460938 -5.132812 1.269531 -5.046875 1.0625 -4.921875 L 0.796875 -5.546875 C 1.015625 -5.691406 1.25 -5.796875 1.5 -5.859375 C 1.757812 -5.929688 2.019531 -5.96875 2.28125 -5.96875 Z M 2.984375 -2.921875 L 2.4375 -2.890625 C 2.03125 -2.867188 1.722656 -2.753906 1.515625 -2.546875 C 1.316406 -2.335938 1.21875 -2.035156 1.21875 -1.640625 C 1.21875 -1.265625 1.28125 -0.988281 1.40625 -0.8125 C 1.539062 -0.644531 1.722656 -0.5625 1.953125 -0.5625 C 2.285156 -0.5625 2.539062 -0.71875 2.71875 -1.03125 C 2.894531 -1.34375 2.984375 -1.773438 2.984375 -2.328125 Z M 2.984375 -2.921875 "/></g></g></g><g fill="#2d6d5e" fill-opacity="1"><g transform="translate(39.7372, 133.707417)"><g><path d="M 2.828125 -5.96875 C 3.285156 -5.96875 3.632812 -5.804688 3.875 -5.484375 C 4.113281 -5.160156 4.234375 -4.664062 4.234375 -4 L 4.234375 0 L 3.40625 0 L 3.40625 -3.828125 C 3.40625 -4.304688 3.34375 -4.660156 3.21875 -4.890625 C 3.101562 -5.128906 2.914062 -5.25 2.65625 -5.25 C 2.269531 -5.25 1.984375 -5.078125 1.796875 -4.734375 C 1.617188 -4.390625 1.53125 -3.84375 1.53125 -3.09375 L 1.53125 0 L 0.71875 0 L 0.71875 -5.859375 L 1.375 -5.859375 L 1.46875 -5.015625 L 1.515625 -5.015625 C 1.597656 -5.210938 1.703125 -5.378906 1.828125 -5.515625 C 1.960938 -5.660156 2.113281 -5.769531 2.28125 -5.84375 C 2.445312 -5.925781 2.628906 -5.96875 2.828125 -5.96875 Z M 2.828125 -5.96875 "/></g></g></g><g fill="#2d6d5e" fill-opacity="1"><g transform="translate(46.201119, 133.707417)"><g><path d="M 2.171875 0.109375 C 1.609375 0.109375 1.179688 -0.144531 0.890625 -0.65625 C 0.609375 -1.175781 0.46875 -1.929688 0.46875 -2.921875 C 0.46875 -3.898438 0.613281 -4.648438 0.90625 -5.171875 C 1.195312 -5.703125 1.609375 -5.96875 2.140625 -5.96875 C 2.335938 -5.96875 2.519531 -5.929688 2.6875 -5.859375 C 2.851562 -5.785156 3 -5.679688 3.125 -5.546875 C 3.257812 -5.410156 3.375 -5.25 3.46875 -5.0625 L 3.515625 -5.0625 C 3.503906 -5.226562 3.492188 -5.375 3.484375 -5.5 C 3.484375 -5.632812 3.484375 -5.757812 3.484375 -5.875 L 3.484375 -8.3125 L 4.296875 -8.3125 L 4.296875 0 L 3.640625 0 L 3.53125 -0.796875 L 3.484375 -0.796875 C 3.378906 -0.609375 3.265625 -0.445312 3.140625 -0.3125 C 3.015625 -0.175781 2.875 -0.0703125 2.71875 0 C 2.5625 0.0703125 2.378906 0.109375 2.171875 0.109375 Z M 2.359375 -0.59375 C 2.722656 -0.59375 3 -0.765625 3.1875 -1.109375 C 3.382812 -1.453125 3.484375 -1.960938 3.484375 -2.640625 L 3.484375 -3.046875 C 3.484375 -3.785156 3.390625 -4.332031 3.203125 -4.6875 C 3.023438 -5.050781 2.738281 -5.234375 2.34375 -5.234375 C 1.988281 -5.234375 1.722656 -5.035156 1.546875 -4.640625 C 1.378906 -4.242188 1.296875 -3.671875 1.296875 -2.921875 C 1.296875 -2.148438 1.378906 -1.566406 1.546875 -1.171875 C 1.722656 -0.785156 1.992188 -0.59375 2.359375 -0.59375 Z M 2.359375 -0.59375 "/></g></g></g><g fill="#2d6d5e" fill-opacity="1"><g transform="translate(52.739832, 133.707417)"><g/></g></g><g fill="#2d6d5e" fill-opacity="1"><g transform="translate(56.302811, 133.707417)"><g><path d="M 2.828125 -5.96875 C 3.390625 -5.96875 3.816406 -5.710938 4.109375 -5.203125 C 4.398438 -4.703125 4.546875 -3.945312 4.546875 -2.9375 C 4.546875 -2.289062 4.476562 -1.738281 4.34375 -1.28125 C 4.21875 -0.832031 4.03125 -0.488281 3.78125 -0.25 C 3.53125 -0.0078125 3.226562 0.109375 2.875 0.109375 C 2.675781 0.109375 2.488281 0.0703125 2.3125 0 C 2.144531 -0.0820312 1.992188 -0.191406 1.859375 -0.328125 C 1.734375 -0.472656 1.625 -0.640625 1.53125 -0.828125 L 1.5 -0.828125 C 1.507812 -0.679688 1.515625 -0.539062 1.515625 -0.40625 C 1.523438 -0.28125 1.53125 -0.160156 1.53125 -0.046875 L 1.53125 2.609375 L 0.71875 2.609375 L 0.71875 -5.859375 L 1.390625 -5.859375 L 1.484375 -5 L 1.53125 -5 C 1.632812 -5.21875 1.75 -5.394531 1.875 -5.53125 C 2.007812 -5.675781 2.15625 -5.785156 2.3125 -5.859375 C 2.46875 -5.929688 2.640625 -5.96875 2.828125 -5.96875 Z M 2.65625 -5.265625 C 2.40625 -5.265625 2.195312 -5.1875 2.03125 -5.03125 C 1.875 -4.875 1.75 -4.632812 1.65625 -4.3125 C 1.570312 -4 1.53125 -3.601562 1.53125 -3.125 L 1.53125 -2.84375 C 1.53125 -2.34375 1.570312 -1.925781 1.65625 -1.59375 C 1.75 -1.257812 1.878906 -1.007812 2.046875 -0.84375 C 2.210938 -0.6875 2.421875 -0.609375 2.671875 -0.609375 C 2.898438 -0.609375 3.09375 -0.691406 3.25 -0.859375 C 3.40625 -1.023438 3.519531 -1.273438 3.59375 -1.609375 C 3.675781 -1.953125 3.71875 -2.394531 3.71875 -2.9375 C 3.71875 -3.707031 3.632812 -4.285156 3.46875 -4.671875 C 3.300781 -5.066406 3.03125 -5.265625 2.65625 -5.265625 Z M 2.65625 -5.265625 "/></g></g></g><g fill="#2d6d5e" fill-opacity="1"><g transform="translate(62.841524, 133.707417)"><g><path d="M 2.671875 -5.96875 C 2.753906 -5.96875 2.835938 -5.957031 2.921875 -5.9375 C 3.003906 -5.925781 3.085938 -5.910156 3.171875 -5.890625 L 3.046875 -5.046875 C 2.984375 -5.066406 2.914062 -5.082031 2.84375 -5.09375 C 2.769531 -5.101562 2.691406 -5.109375 2.609375 -5.109375 C 2.453125 -5.109375 2.304688 -5.054688 2.171875 -4.953125 C 2.035156 -4.847656 1.921875 -4.703125 1.828125 -4.515625 C 1.734375 -4.328125 1.660156 -4.109375 1.609375 -3.859375 C 1.554688 -3.609375 1.53125 -3.34375 1.53125 -3.0625 L 1.53125 0 L 0.71875 0 L 0.71875 -5.859375 L 1.359375 -5.859375 L 1.46875 -4.828125 L 1.515625 -4.828125 C 1.597656 -5.046875 1.691406 -5.238281 1.796875 -5.40625 C 1.910156 -5.582031 2.039062 -5.71875 2.1875 -5.8125 C 2.332031 -5.914062 2.492188 -5.96875 2.671875 -5.96875 Z M 2.671875 -5.96875 "/></g></g></g><g fill="#2d6d5e" fill-opacity="1"><g transform="translate(67.654632, 133.707417)"><g><path d="M 2.328125 -5.953125 C 2.722656 -5.953125 3.050781 -5.835938 3.3125 -5.609375 C 3.570312 -5.378906 3.765625 -5.066406 3.890625 -4.671875 C 4.015625 -4.285156 4.078125 -3.851562 4.078125 -3.375 L 4.078125 -2.78125 L 1.28125 -2.78125 C 1.289062 -2.050781 1.40625 -1.503906 1.625 -1.140625 C 1.84375 -0.773438 2.171875 -0.59375 2.609375 -0.59375 C 2.828125 -0.59375 3.035156 -0.625 3.234375 -0.6875 C 3.441406 -0.75 3.648438 -0.851562 3.859375 -1 L 3.859375 -0.265625 C 3.660156 -0.140625 3.453125 -0.046875 3.234375 0.015625 C 3.015625 0.078125 2.78125 0.109375 2.53125 0.109375 C 2.039062 0.109375 1.644531 -0.0195312 1.34375 -0.28125 C 1.039062 -0.539062 0.816406 -0.898438 0.671875 -1.359375 C 0.535156 -1.816406 0.46875 -2.332031 0.46875 -2.90625 C 0.46875 -3.550781 0.535156 -4.101562 0.671875 -4.5625 C 0.816406 -5.019531 1.023438 -5.363281 1.296875 -5.59375 C 1.578125 -5.832031 1.921875 -5.953125 2.328125 -5.953125 Z M 2.328125 -5.28125 C 2.015625 -5.28125 1.769531 -5.128906 1.59375 -4.828125 C 1.425781 -4.535156 1.328125 -4.070312 1.296875 -3.4375 L 3.3125 -3.4375 C 3.3125 -3.769531 3.273438 -4.078125 3.203125 -4.359375 C 3.140625 -4.640625 3.035156 -4.863281 2.890625 -5.03125 C 2.742188 -5.195312 2.554688 -5.28125 2.328125 -5.28125 Z M 2.328125 -5.28125 "/></g></g></g><g fill="#2d6d5e" fill-opacity="1"><g transform="translate(73.712526, 133.707417)"><g><path d="M 3.328125 -1.546875 C 3.328125 -1.191406 3.257812 -0.890625 3.125 -0.640625 C 3 -0.398438 2.8125 -0.210938 2.5625 -0.078125 C 2.320312 0.046875 2.03125 0.109375 1.6875 0.109375 C 1.414062 0.109375 1.164062 0.078125 0.9375 0.015625 C 0.71875 -0.046875 0.53125 -0.125 0.375 -0.21875 L 0.375 -1.078125 C 0.53125 -0.941406 0.722656 -0.832031 0.953125 -0.75 C 1.179688 -0.664062 1.414062 -0.625 1.65625 -0.625 C 1.925781 -0.625 2.132812 -0.703125 2.28125 -0.859375 C 2.4375 -1.015625 2.515625 -1.234375 2.515625 -1.515625 C 2.515625 -1.679688 2.484375 -1.828125 2.421875 -1.953125 C 2.359375 -2.078125 2.257812 -2.195312 2.125 -2.3125 C 1.988281 -2.425781 1.816406 -2.546875 1.609375 -2.671875 C 1.359375 -2.816406 1.140625 -2.96875 0.953125 -3.125 C 0.765625 -3.289062 0.617188 -3.476562 0.515625 -3.6875 C 0.421875 -3.894531 0.375 -4.144531 0.375 -4.4375 C 0.375 -4.894531 0.519531 -5.265625 0.8125 -5.546875 C 1.113281 -5.828125 1.503906 -5.96875 1.984375 -5.96875 C 2.234375 -5.96875 2.46875 -5.9375 2.6875 -5.875 C 2.90625 -5.8125 3.113281 -5.71875 3.3125 -5.59375 L 3 -4.9375 C 2.851562 -5.039062 2.691406 -5.117188 2.515625 -5.171875 C 2.347656 -5.234375 2.175781 -5.265625 2 -5.265625 C 1.738281 -5.265625 1.53125 -5.191406 1.375 -5.046875 C 1.226562 -4.898438 1.15625 -4.707031 1.15625 -4.46875 C 1.15625 -4.300781 1.1875 -4.15625 1.25 -4.03125 C 1.3125 -3.914062 1.410156 -3.800781 1.546875 -3.6875 C 1.679688 -3.582031 1.863281 -3.460938 2.09375 -3.328125 C 2.34375 -3.171875 2.554688 -3.015625 2.734375 -2.859375 C 2.921875 -2.703125 3.066406 -2.519531 3.171875 -2.3125 C 3.273438 -2.101562 3.328125 -1.847656 3.328125 -1.546875 Z M 3.328125 -1.546875 "/></g></g></g><g fill="#2d6d5e" fill-opacity="1"><g transform="translate(78.920974, 133.707417)"><g><path d="M 2.328125 -5.953125 C 2.722656 -5.953125 3.050781 -5.835938 3.3125 -5.609375 C 3.570312 -5.378906 3.765625 -5.066406 3.890625 -4.671875 C 4.015625 -4.285156 4.078125 -3.851562 4.078125 -3.375 L 4.078125 -2.78125 L 1.28125 -2.78125 C 1.289062 -2.050781 1.40625 -1.503906 1.625 -1.140625 C 1.84375 -0.773438 2.171875 -0.59375 2.609375 -0.59375 C 2.828125 -0.59375 3.035156 -0.625 3.234375 -0.6875 C 3.441406 -0.75 3.648438 -0.851562 3.859375 -1 L 3.859375 -0.265625 C 3.660156 -0.140625 3.453125 -0.046875 3.234375 0.015625 C 3.015625 0.078125 2.78125 0.109375 2.53125 0.109375 C 2.039062 0.109375 1.644531 -0.0195312 1.34375 -0.28125 C 1.039062 -0.539062 0.816406 -0.898438 0.671875 -1.359375 C 0.535156 -1.816406 0.46875 -2.332031 0.46875 -2.90625 C 0.46875 -3.550781 0.535156 -4.101562 0.671875 -4.5625 C 0.816406 -5.019531 1.023438 -5.363281 1.296875 -5.59375 C 1.578125 -5.832031 1.921875 -5.953125 2.328125 -5.953125 Z M 2.328125 -5.28125 C 2.015625 -5.28125 1.769531 -5.128906 1.59375 -4.828125 C 1.425781 -4.535156 1.328125 -4.070312 1.296875 -3.4375 L 3.3125 -3.4375 C 3.3125 -3.769531 3.273438 -4.078125 3.203125 -4.359375 C 3.140625 -4.640625 3.035156 -4.863281 2.890625 -5.03125 C 2.742188 -5.195312 2.554688 -5.28125 2.328125 -5.28125 Z M 2.328125 -5.28125 "/></g></g></g><g fill="#2d6d5e" fill-opacity="1"><g transform="translate(84.978869, 133.707417)"><g><path d="M 2.828125 -5.96875 C 3.285156 -5.96875 3.632812 -5.804688 3.875 -5.484375 C 4.113281 -5.160156 4.234375 -4.664062 4.234375 -4 L 4.234375 0 L 3.40625 0 L 3.40625 -3.828125 C 3.40625 -4.304688 3.34375 -4.660156 3.21875 -4.890625 C 3.101562 -5.128906 2.914062 -5.25 2.65625 -5.25 C 2.269531 -5.25 1.984375 -5.078125 1.796875 -4.734375 C 1.617188 -4.390625 1.53125 -3.84375 1.53125 -3.09375 L 1.53125 0 L 0.71875 0 L 0.71875 -5.859375 L 1.375 -5.859375 L 1.46875 -5.015625 L 1.515625 -5.015625 C 1.597656 -5.210938 1.703125 -5.378906 1.828125 -5.515625 C 1.960938 -5.660156 2.113281 -5.769531 2.28125 -5.84375 C 2.445312 -5.925781 2.628906 -5.96875 2.828125 -5.96875 Z M 2.828125 -5.96875 "/></g></g></g><g fill="#2d6d5e" fill-opacity="1"><g transform="translate(91.442787, 133.707417)"><g><path d="M 2.40625 0.109375 C 1.976562 0.109375 1.617188 0 1.328125 -0.21875 C 1.046875 -0.445312 0.832031 -0.785156 0.6875 -1.234375 C 0.539062 -1.679688 0.46875 -2.234375 0.46875 -2.890625 C 0.46875 -3.535156 0.539062 -4.085938 0.6875 -4.546875 C 0.832031 -5.003906 1.050781 -5.351562 1.34375 -5.59375 C 1.632812 -5.84375 2 -5.96875 2.4375 -5.96875 C 2.65625 -5.96875 2.851562 -5.941406 3.03125 -5.890625 C 3.207031 -5.847656 3.375 -5.785156 3.53125 -5.703125 L 3.265625 -5.03125 C 3.140625 -5.09375 3.007812 -5.140625 2.875 -5.171875 C 2.75 -5.210938 2.625 -5.234375 2.5 -5.234375 C 2.238281 -5.234375 2.019531 -5.144531 1.84375 -4.96875 C 1.675781 -4.789062 1.546875 -4.53125 1.453125 -4.1875 C 1.359375 -3.84375 1.3125 -3.414062 1.3125 -2.90625 C 1.3125 -2.394531 1.351562 -1.96875 1.4375 -1.625 C 1.53125 -1.289062 1.664062 -1.035156 1.84375 -0.859375 C 2.019531 -0.691406 2.238281 -0.609375 2.5 -0.609375 C 2.65625 -0.609375 2.8125 -0.628906 2.96875 -0.671875 C 3.132812 -0.722656 3.300781 -0.789062 3.46875 -0.875 L 3.46875 -0.1875 C 3.3125 -0.09375 3.132812 -0.0195312 2.9375 0.03125 C 2.75 0.0820312 2.570312 0.109375 2.40625 0.109375 Z M 2.40625 0.109375 "/></g></g></g><g fill="#2d6d5e" fill-opacity="1"><g transform="translate(96.731372, 133.707417)"><g><path d="M 2.328125 -5.953125 C 2.722656 -5.953125 3.050781 -5.835938 3.3125 -5.609375 C 3.570312 -5.378906 3.765625 -5.066406 3.890625 -4.671875 C 4.015625 -4.285156 4.078125 -3.851562 4.078125 -3.375 L 4.078125 -2.78125 L 1.28125 -2.78125 C 1.289062 -2.050781 1.40625 -1.503906 1.625 -1.140625 C 1.84375 -0.773438 2.171875 -0.59375 2.609375 -0.59375 C 2.828125 -0.59375 3.035156 -0.625 3.234375 -0.6875 C 3.441406 -0.75 3.648438 -0.851562 3.859375 -1 L 3.859375 -0.265625 C 3.660156 -0.140625 3.453125 -0.046875 3.234375 0.015625 C 3.015625 0.078125 2.78125 0.109375 2.53125 0.109375 C 2.039062 0.109375 1.644531 -0.0195312 1.34375 -0.28125 C 1.039062 -0.539062 0.816406 -0.898438 0.671875 -1.359375 C 0.535156 -1.816406 0.46875 -2.332031 0.46875 -2.90625 C 0.46875 -3.550781 0.535156 -4.101562 0.671875 -4.5625 C 0.816406 -5.019531 1.023438 -5.363281 1.296875 -5.59375 C 1.578125 -5.832031 1.921875 -5.953125 2.328125 -5.953125 Z M 2.328125 -5.28125 C 2.015625 -5.28125 1.769531 -5.128906 1.59375 -4.828125 C 1.425781 -4.535156 1.328125 -4.070312 1.296875 -3.4375 L 3.3125 -3.4375 C 3.3125 -3.769531 3.273438 -4.078125 3.203125 -4.359375 C 3.140625 -4.640625 3.035156 -4.863281 2.890625 -5.03125 C 2.742188 -5.195312 2.554688 -5.28125 2.328125 -5.28125 Z M 2.328125 -5.28125 "/></g></g></g><path fill="#0661aa" d="M 64.71875 31.5625 C 64.523438 31.402344 64.363281 31.332031 64.097656 31.367188 C 63.9375 31.382812 63.65625 31.488281 63.496094 31.4375 C 63.265625 31.367188 63.105469 30.78125 62.949219 30.570312 C 62.574219 30.074219 62.027344 29.949219 61.53125 30.375 C 61.300781 30.570312 61.191406 30.816406 61.121094 31.101562 C 61.070312 31.382812 61.070312 31.773438 60.785156 31.949219 C 60.554688 32.09375 60.21875 32.109375 59.96875 32.074219 C 59.792969 32.058594 59.351562 31.828125 59.28125 32.144531 C 59.226562 32.339844 59.5625 32.589844 59.742188 32.640625 C 60.023438 32.746094 60.394531 32.710938 60.695312 32.625 C 61.246094 32.480469 61.53125 32.109375 61.617188 31.542969 C 61.652344 31.277344 61.777344 30.570312 62.222656 30.726562 C 62.609375 30.871094 62.71875 31.5625 63 31.808594 C 63.371094 32.144531 64.027344 31.828125 64.453125 32.074219 C 64.738281 32.234375 64.933594 32.410156 65.269531 32.359375 C 65.621094 32.324219 66.046875 32.074219 66.191406 31.753906 C 66.3125 31.507812 66.207031 31.207031 66.277344 30.941406 C 66.367188 30.585938 66.472656 30.425781 66.347656 30.074219 C 66.3125 29.949219 66.226562 29.699219 66.261719 29.59375 C 66.277344 29.503906 66.402344 29.398438 66.492188 29.328125 C 67.039062 28.902344 67.359375 29.433594 67.855469 29.683594 C 68.15625 29.84375 68.652344 29.664062 68.917969 29.878906 C 69.042969 29.984375 69.078125 30.230469 69.148438 30.390625 C 69.273438 30.761719 69.378906 31.082031 69.308594 31.488281 C 69.183594 32.179688 69.433594 32.785156 70.160156 32.976562 C 70.601562 33.101562 71.347656 33.121094 71.71875 32.785156 C 71.914062 32.605469 71.859375 32.375 71.804688 32.128906 C 71.753906 31.878906 71.71875 31.738281 72.019531 31.84375 C 72.355469 31.949219 72.496094 32.214844 72.65625 32.515625 C 72.851562 32.871094 73.136719 33.050781 73.4375 33.316406 C 73.613281 33.492188 73.667969 33.722656 73.898438 33.882812 C 74.164062 34.042969 74.554688 34.058594 74.855469 34.003906 C 75.101562 33.953125 75.316406 33.792969 75.457031 33.597656 C 75.632812 33.351562 75.511719 33.101562 75.617188 32.835938 C 75.6875 32.640625 75.792969 32.695312 75.988281 32.765625 C 76.34375 32.890625 76.394531 32.976562 76.484375 33.316406 C 76.609375 33.847656 77.335938 33.777344 77.777344 33.738281 C 78.257812 33.703125 78.734375 33.5625 78.769531 33.011719 C 78.804688 32.710938 78.609375 31.878906 78.203125 31.828125 C 77.726562 31.792969 78.378906 32.695312 78.308594 32.960938 C 78.183594 33.402344 77.40625 33.332031 77.191406 33.03125 C 77.035156 32.800781 76.980469 32.605469 76.730469 32.445312 C 76.484375 32.269531 76.164062 32.164062 75.847656 32.164062 C 75.652344 32.164062 75.386719 32.199219 75.226562 32.324219 C 75.03125 32.5 75.066406 32.785156 75.03125 33.011719 C 74.976562 33.332031 74.765625 33.527344 74.429688 33.402344 C 74.144531 33.296875 74.058594 32.941406 73.808594 32.746094 C 73.257812 32.359375 73.082031 31.667969 72.445312 31.367188 C 71.984375 31.171875 71.238281 31.171875 71.238281 31.792969 C 71.238281 31.949219 71.363281 32.25 71.257812 32.375 C 71.152344 32.515625 70.742188 32.429688 70.601562 32.410156 C 70.40625 32.375 70.160156 32.324219 70.035156 32.128906 C 69.875 31.898438 70.015625 31.632812 70.070312 31.382812 C 70.175781 30.835938 69.910156 30.125 69.609375 29.664062 C 69.273438 29.152344 68.882812 29.273438 68.351562 29.132812 C 68.03125 29.0625 67.835938 28.796875 67.535156 28.671875 C 67.289062 28.566406 66.933594 28.53125 66.667969 28.601562 C 66.226562 28.691406 65.746094 29.203125 65.800781 29.683594 C 65.871094 30.179688 65.871094 30.640625 65.816406 31.136719 C 65.695312 31.84375 65.234375 31.984375 64.71875 31.5625 " fill-opacity="1" fill-rule="nonzero"/><path fill="#0661aa" d="M 80.082031 39.355469 C 79.726562 39.355469 79.335938 39.320312 79.054688 39.535156 C 78.699219 39.800781 78.804688 40.191406 78.769531 40.5625 C 78.734375 40.988281 78.433594 41.269531 78.203125 41.605469 C 77.902344 42.03125 77.707031 42.511719 77.421875 42.9375 C 77.191406 43.308594 76.996094 43.183594 76.625 43.078125 C 76.34375 42.988281 75.847656 42.898438 76.007812 42.527344 C 76.484375 41.394531 75.242188 40.917969 74.285156 40.988281 C 73.863281 41.023438 73.683594 41.21875 73.4375 41.554688 C 73.222656 41.871094 72.886719 41.925781 72.515625 41.820312 C 72.109375 41.695312 72.035156 41.339844 71.878906 40.96875 C 71.789062 40.773438 71.648438 40.5625 71.46875 40.4375 C 71.292969 40.3125 71.097656 40.3125 70.921875 40.191406 C 70.511719 39.871094 70.921875 39.570312 70.777344 39.160156 C 70.636719 38.773438 70.371094 38.664062 70.601562 38.203125 C 70.761719 37.867188 71.0625 37.621094 70.972656 37.210938 C 70.851562 36.753906 70.425781 36.398438 70.160156 36.042969 C 69.875 35.671875 69.714844 35.300781 69.714844 34.839844 C 69.714844 34.730469 69.785156 34.289062 69.664062 34.253906 C 69.503906 34.199219 69.398438 34.519531 69.378906 34.625 C 69.273438 35.015625 69.289062 35.511719 69.359375 35.902344 C 69.449219 36.363281 69.820312 36.628906 70.125 36.984375 C 70.460938 37.371094 70.195312 37.636719 69.980469 38.027344 C 69.875 38.222656 69.785156 38.46875 69.804688 38.703125 C 69.820312 38.929688 69.964844 39.089844 70.050781 39.304688 C 70.195312 39.730469 70 40.136719 70.335938 40.507812 C 70.636719 40.84375 71.117188 40.914062 71.363281 41.339844 C 71.59375 41.730469 71.769531 42.191406 72.25 42.367188 C 72.585938 42.492188 73.136719 42.492188 73.453125 42.332031 C 73.828125 42.15625 73.933594 41.640625 74.324219 41.570312 C 74.605469 41.519531 75.351562 41.605469 75.492188 41.925781 C 75.617188 42.261719 75.207031 42.617188 75.367188 42.988281 C 75.546875 43.414062 76.199219 43.589844 76.589844 43.679688 C 76.960938 43.769531 77.476562 43.839844 77.777344 43.554688 C 78.132812 43.203125 78.238281 42.597656 78.523438 42.210938 C 78.789062 41.820312 79.160156 41.5 79.320312 41.023438 C 79.425781 40.722656 79.210938 40.066406 79.480469 39.941406 C 79.585938 39.886719 79.832031 39.90625 79.9375 39.90625 C 80.277344 39.871094 80.613281 39.871094 80.929688 39.800781 C 81.195312 39.746094 81.425781 39.640625 81.535156 39.375 C 81.640625 39.089844 81.675781 38.628906 81.515625 38.382812 C 81.410156 38.207031 80.683594 37.585938 80.808594 38.152344 C 80.859375 38.453125 81.390625 38.71875 81.195312 39.089844 C 81.003906 39.410156 80.328125 39.355469 80.082031 39.355469 " fill-opacity="1" fill-rule="nonzero"/><path fill="#0661aa" d="M 47.957031 34.199219 C 47.566406 34.539062 47.070312 34.574219 46.609375 34.378906 C 46.273438 34.234375 46.417969 34.625 46.523438 34.714844 C 46.824219 35.015625 47.585938 34.980469 47.941406 34.785156 C 48.242188 34.625 48.4375 34.5 48.613281 34.199219 C 48.808594 33.863281 48.703125 33.527344 48.789062 33.171875 C 48.96875 32.429688 49.675781 33.527344 49.925781 33.617188 C 50.632812 33.882812 51.148438 33.191406 51.464844 32.675781 C 51.660156 32.359375 51.765625 31.914062 52.070312 31.683594 C 52.351562 31.453125 52.476562 31.613281 52.722656 31.773438 C 53.34375 32.214844 54.210938 31.523438 54.160156 30.851562 C 54.125 30.496094 54.210938 30.375 54.601562 30.285156 C 55.046875 30.195312 55.347656 30.480469 55.769531 30.53125 C 56.515625 30.621094 57.152344 30.230469 57.082031 29.453125 C 57.066406 29.1875 56.996094 29.042969 57.242188 28.886719 C 57.5625 28.707031 57.84375 28.65625 58.144531 28.886719 C 58.640625 29.257812 59.28125 29.984375 60.007812 29.578125 C 60.273438 29.417969 60.308594 29.097656 60.289062 28.8125 C 60.273438 28.441406 60.042969 28.316406 59.917969 28.742188 C 59.847656 28.992188 59.828125 29.203125 59.511719 29.117188 C 59.121094 29.027344 58.855469 28.621094 58.535156 28.40625 C 58.074219 28.070312 57.136719 28.195312 56.746094 28.582031 C 56.339844 28.992188 56.886719 30.054688 55.984375 29.984375 C 55.683594 29.949219 55.417969 29.734375 55.117188 29.71875 C 54.78125 29.683594 54.441406 29.753906 54.140625 29.878906 C 53.894531 30 53.699219 30.144531 53.644531 30.425781 C 53.59375 30.726562 53.75 31.1875 53.328125 31.3125 C 53.097656 31.382812 53.132812 31.257812 52.988281 31.152344 C 52.847656 31.046875 52.671875 31.011719 52.511719 31.011719 C 52.121094 31.011719 51.785156 31.242188 51.535156 31.523438 C 51.253906 31.898438 50.722656 33.507812 50.046875 32.996094 C 49.675781 32.710938 49.570312 32.289062 49.019531 32.394531 C 48.667969 32.464844 48.347656 32.675781 48.3125 33.066406 C 48.292969 33.261719 48.382812 33.457031 48.347656 33.652344 C 48.292969 33.882812 48.136719 34.058594 47.957031 34.199219 " fill-opacity="1" fill-rule="nonzero"/><path fill="#0661aa" d="M 31.460938 51.175781 C 31.160156 51.421875 30.804688 51.757812 30.398438 51.707031 C 30.027344 51.671875 29.796875 51.511719 29.425781 51.6875 C 28.539062 52.132812 28.078125 53.140625 27.085938 53.441406 C 26.625 53.585938 26.09375 53.621094 25.597656 53.636719 C 25.472656 53.636719 25.3125 53.65625 25.191406 53.585938 C 25.066406 53.511719 24.996094 53.335938 24.851562 53.320312 C 24.640625 53.300781 24.675781 53.550781 24.710938 53.707031 C 24.765625 53.921875 24.90625 54.011719 25.101562 54.117188 C 25.527344 54.328125 25.953125 54.222656 26.410156 54.152344 C 27.332031 53.992188 27.9375 53.636719 28.628906 53 C 28.945312 52.699219 29.300781 52.238281 29.707031 52.0625 C 29.992188 51.9375 30.347656 52.132812 30.648438 52.132812 C 31.109375 52.148438 31.460938 51.757812 31.796875 51.457031 C 32.136719 51.15625 32.347656 50.875 32.367188 50.429688 C 32.402344 49.917969 32.5625 49.652344 33.074219 49.472656 C 33.5 49.332031 33.835938 49.917969 34.171875 50.128906 C 34.652344 50.429688 35.164062 50.429688 35.695312 50.21875 C 36.121094 50.042969 36.617188 49.757812 36.671875 49.242188 C 36.6875 49.011719 36.617188 48.816406 36.53125 48.625 C 36.492188 48.535156 36.351562 48.339844 36.351562 48.234375 C 36.371094 47.984375 36.917969 47.878906 37.132812 47.878906 C 37.503906 47.863281 37.910156 47.949219 38.054688 48.320312 C 38.230469 48.78125 38.671875 48.960938 39.152344 49.085938 C 39.648438 49.207031 40.214844 49.3125 40.710938 49.191406 C 41.136719 49.085938 41.507812 48.855469 41.953125 48.730469 C 42.90625 48.480469 43.101562 47.488281 42.429688 46.796875 C 42.128906 46.496094 41.453125 46.089844 41.011719 46.285156 C 40.65625 46.425781 40.765625 47.171875 41.011719 46.976562 C 41.136719 46.886719 41.03125 46.726562 41.207031 46.691406 C 41.402344 46.640625 41.792969 46.851562 41.953125 46.957031 C 42.234375 47.152344 42.554688 47.703125 42.234375 47.984375 C 42.09375 48.128906 41.828125 48.144531 41.632812 48.214844 C 41.367188 48.304688 41.117188 48.464844 40.851562 48.570312 C 40.425781 48.746094 40.039062 48.730469 39.59375 48.625 C 39.347656 48.550781 39.082031 48.5 38.851562 48.359375 C 38.65625 48.234375 38.621094 48.054688 38.496094 47.863281 C 38.265625 47.488281 37.875 47.382812 37.46875 47.367188 C 37.007812 47.347656 36.40625 47.367188 36.050781 47.71875 C 35.695312 48.074219 35.875 48.410156 36.070312 48.816406 C 36.300781 49.296875 36.050781 49.492188 35.625 49.703125 C 35.128906 49.953125 34.757812 49.96875 34.332031 49.617188 C 33.890625 49.261719 33.535156 48.941406 32.933594 49.101562 C 32.507812 49.226562 32.027344 49.5625 31.957031 50.023438 C 31.921875 50.21875 31.976562 50.449219 31.921875 50.644531 C 31.851562 50.875 31.640625 51.03125 31.460938 51.175781 " fill-opacity="1" fill-rule="nonzero"/><g clip-path="url(#8feff556de)"><path fill="#0661aa" d="M 101.929688 67.847656 C 101.890625 67.882812 101.503906 67.902344 101.058594 67.902344 L 100.246094 67.902344 L 99.660156 67.351562 C 99.253906 66.960938 98.96875 66.570312 98.683594 65.988281 C 98.332031 65.261719 98.277344 65.082031 98.242188 64.339844 C 98.1875 63.382812 98.347656 62.90625 98.914062 62.195312 C 99.253906 61.753906 99.269531 61.753906 99.730469 61.984375 C 99.996094 62.105469 100.066406 62.214844 100.066406 62.425781 C 100.066406 62.796875 100.296875 63.207031 100.6875 63.542969 C 101.023438 63.808594 101.023438 63.824219 100.917969 64.199219 C 100.652344 65.15625 100.988281 66.535156 101.699219 67.441406 C 101.855469 67.617188 101.964844 67.8125 101.929688 67.847656 Z M 97.410156 67.828125 C 96.117188 67.792969 95.175781 67.742188 95.054688 67.671875 C 94.769531 67.527344 94.238281 66.519531 94.027344 65.722656 C 93.617188 64.164062 94.097656 62.636719 95.496094 61.042969 C 95.796875 60.707031 96.097656 60.40625 96.167969 60.371094 C 96.242188 60.335938 96.433594 60.441406 96.613281 60.566406 C 97.039062 60.921875 97.234375 60.847656 97.410156 60.300781 C 97.460938 60.140625 97.851562 60.050781 97.976562 60.191406 C 98.011719 60.230469 97.765625 60.546875 97.425781 60.902344 C 96.3125 62.125 95.691406 63.402344 95.671875 64.570312 C 95.65625 65.066406 95.707031 65.296875 95.78125 65.332031 C 95.867188 65.367188 95.902344 65.226562 95.902344 64.851562 C 95.902344 63.898438 96.382812 62.675781 97.179688 61.683594 C 97.746094 60.957031 98.261719 60.441406 98.402344 60.441406 C 98.472656 60.441406 98.648438 60.671875 98.808594 60.957031 L 99.09375 61.46875 L 98.757812 61.789062 C 98.578125 61.964844 98.296875 62.371094 98.136719 62.710938 C 97.425781 64.144531 97.800781 66.003906 99.058594 67.316406 L 99.570312 67.847656 Z M 90.925781 67.457031 C 84.121094 66.835938 77.761719 65.367188 73.171875 63.328125 C 71.878906 62.761719 71.503906 62.566406 70.035156 61.71875 L 69.253906 61.273438 L 69.980469 61.257812 C 73.117188 61.167969 77.335938 60.476562 82.117188 59.289062 C 84.296875 58.742188 86.496094 58.015625 90.109375 56.648438 C 95.78125 54.507812 99.660156 53.390625 102.972656 52.964844 C 104.230469 52.804688 106.285156 52.839844 107.085938 53.054688 C 107.402344 53.140625 107.898438 53.320312 108.199219 53.476562 C 108.695312 53.726562 108.75 53.78125 108.910156 54.292969 C 109.105469 54.914062 109.316406 55.109375 109.972656 55.25 C 111.140625 55.5 111.210938 55.535156 111.40625 55.996094 C 111.53125 56.261719 111.707031 56.472656 111.886719 56.578125 C 112.503906 56.933594 112.503906 56.933594 112.292969 57.21875 C 112.027344 57.554688 112.097656 57.714844 112.628906 57.90625 C 114.136719 58.476562 114.5625 59.359375 113.796875 60.300781 C 113.570312 60.566406 113.570312 60.566406 113.214844 60.425781 C 112.238281 60.015625 111.761719 60.636719 112.542969 61.328125 C 112.628906 61.417969 112.894531 61.59375 112.894531 61.71875 C 112.894531 61.824219 112.664062 61.964844 112.59375 62.035156 C 112.417969 62.195312 112.3125 62.355469 112.3125 62.585938 C 112.3125 62.78125 112.117188 62.691406 111.761719 62.53125 C 111.28125 62.335938 110.785156 62.355469 110.539062 62.550781 C 110.273438 62.746094 110.273438 63.0625 110.644531 63.71875 C 110.804688 64.003906 110.910156 64.304688 110.894531 64.375 C 110.804688 64.621094 110.078125 64.730469 109.527344 64.605469 C 109.40625 64.570312 109.175781 64.535156 109.085938 64.445312 C 108.996094 64.320312 109.03125 64.003906 109.03125 63.859375 C 109.070312 63.132812 108.980469 63.011719 108.535156 62.832031 C 108.074219 62.65625 107.632812 62.675781 107.261719 62.886719 C 106.835938 63.152344 106.765625 63.488281 107.03125 64.019531 C 107.296875 64.550781 107.296875 64.695312 107.03125 64.835938 C 106.730469 64.996094 105.4375 64.90625 105.011719 64.675781 C 104.566406 64.445312 104.550781 64.394531 104.601562 63.933594 C 104.640625 63.667969 104.285156 63.398438 104.054688 63.207031 C 103.769531 62.957031 103.644531 62.78125 103.644531 62.601562 C 103.644531 62.214844 103.382812 62 102.902344 62 C 102.351562 62 102.105469 62.25 102.105469 62.761719 C 102.105469 63.242188 101.929688 63.398438 101.449219 63.328125 C 100.9375 63.242188 100.632812 62.902344 100.5625 62.300781 C 100.511719 61.824219 100.492188 61.804688 100.066406 61.574219 C 99.730469 61.398438 99.554688 61.222656 99.359375 60.882812 C 99.058594 60.316406 98.773438 60.035156 98.296875 59.839844 C 97.746094 59.609375 97.195312 59.589844 97.019531 59.929688 C 96.984375 59.980469 96.964844 60.175781 96.878906 60.175781 C 96.648438 60.15625 96.363281 59.679688 96.222656 59.484375 C 95.265625 58.171875 95.105469 58.171875 94.609375 58.101562 C 94.027344 58.015625 93.53125 58.171875 93.28125 58.546875 C 93.085938 58.828125 93.070312 59.148438 93.210938 59.945312 C 93.246094 60.121094 93.191406 60.140625 92.855469 60.121094 C 92.308594 60.085938 91.933594 59.929688 91.933594 59.695312 C 91.933594 59.589844 91.8125 59.394531 91.6875 59.253906 C 91.472656 59.042969 91.386719 59.007812 90.960938 59.058594 C 90.164062 59.128906 89.738281 59.714844 89.933594 60.476562 C 90.074219 61.0625 89.96875 61.132812 89.257812 60.921875 C 88.480469 60.707031 88.230469 60.777344 87.894531 61.308594 C 87.734375 61.558594 87.453125 61.859375 87.238281 62 C 87.042969 62.140625 86.65625 62.445312 86.40625 62.691406 C 86.28125 62.796875 86.105469 63.0625 85.945312 63.132812 C 85.75 63.222656 85.308594 63.171875 85.09375 63.171875 C 84.421875 63.207031 84.175781 63.171875 83.910156 63.027344 C 83.589844 62.867188 83.570312 62.832031 83.605469 62.40625 C 83.640625 62.019531 83.605469 61.929688 83.375 61.753906 C 82.808594 61.292969 81.835938 61.664062 81.765625 62.355469 C 81.730469 62.726562 81.5 62.796875 80.753906 62.621094 C 80.292969 62.515625 80.203125 62.53125 79.726562 62.726562 C 79.210938 62.941406 79.175781 62.941406 78.789062 62.796875 C 78.34375 62.621094 78.222656 62.65625 78.222656 62.921875 C 78.222656 63.4375 79.230469 63.632812 79.921875 63.222656 C 80.222656 63.046875 80.328125 63.027344 80.578125 63.097656 C 80.96875 63.242188 81.675781 63.222656 81.921875 63.082031 C 82.207031 62.941406 82.277344 62.816406 82.277344 62.496094 C 82.277344 62.300781 82.347656 62.214844 82.527344 62.140625 C 82.933594 61.984375 83.074219 62.105469 83.003906 62.550781 C 82.953125 62.886719 82.96875 62.957031 83.199219 63.207031 C 83.570312 63.578125 84.121094 63.71875 85.203125 63.683594 C 85.433594 63.667969 85.894531 63.738281 86.105469 63.648438 C 86.335938 63.558594 86.691406 63.152344 86.886719 62.992188 C 88.070312 61.984375 88.125 61.929688 88.320312 61.574219 C 88.480469 61.292969 88.515625 61.257812 88.796875 61.328125 C 90.234375 61.628906 90.605469 61.453125 90.394531 60.460938 C 90.304688 60.015625 90.304688 59.980469 90.550781 59.769531 C 90.925781 59.429688 91.296875 59.503906 91.402344 59.910156 C 91.457031 60.105469 91.582031 60.265625 91.703125 60.335938 L 91.933594 60.441406 L 91.597656 61.027344 C 91.15625 61.824219 90.976562 62.601562 90.976562 63.667969 C 90.976562 64.535156 91.171875 65.472656 91.367188 65.597656 C 91.546875 65.703125 91.546875 65.597656 91.402344 65.117188 C 91.316406 64.835938 91.261719 64.25 91.261719 63.667969 C 91.261719 62.566406 91.4375 61.824219 91.882812 61.0625 L 92.148438 60.617188 L 92.820312 60.617188 C 93.777344 60.617188 93.9375 60.425781 93.636719 59.695312 C 93.441406 59.21875 93.511719 58.917969 93.902344 58.722656 C 94.378906 58.476562 94.859375 58.667969 95.320312 59.289062 C 95.515625 59.574219 95.761719 59.855469 95.851562 59.929688 C 95.992188 60.050781 95.9375 60.121094 95.300781 60.796875 C 94.007812 62.125 93.492188 63.152344 93.421875 64.605469 C 93.371094 65.542969 93.601562 66.5 94.042969 67.261719 C 94.167969 67.492188 94.273438 67.707031 94.273438 67.742188 C 94.253906 67.742188 93.351562 67.6875 90.925781 67.457031 Z M 49.625 37.371094 C 48.738281 39.144531 47.816406 41.910156 47.335938 44.371094 C 47.179688 45.132812 47.035156 45.769531 47.019531 45.804688 C 47 45.824219 46.839844 45.789062 46.664062 45.734375 C 46.46875 45.664062 46.292969 45.503906 46.167969 45.257812 C 46.0625 45.0625 45.902344 44.9375 45.847656 44.902344 C 45.796875 44.867188 45.476562 44.8125 45.140625 44.882812 C 44.804688 44.957031 44.484375 44.972656 44.46875 44.957031 C 44.394531 44.882812 44.804688 43.078125 45.121094 41.980469 C 45.28125 41.429688 45.582031 40.5625 45.777344 40.046875 C 46.398438 38.507812 46.292969 38.613281 46.875 38.664062 C 47.496094 38.71875 48.472656 38.542969 48.703125 38.328125 C 48.949219 38.097656 48.933594 37.867188 48.542969 37.175781 C 48.1875 36.539062 48.1875 36.398438 48.523438 36.273438 C 48.933594 36.113281 49.339844 36.167969 49.660156 36.449219 L 49.960938 36.714844 Z M 44.394531 42.777344 C 44.273438 43.308594 44.253906 43.324219 44.023438 43.253906 C 43.511719 43.09375 42.996094 43.183594 42.359375 43.554688 C 41.878906 43.820312 41.632812 43.910156 41.347656 43.890625 C 40.746094 43.839844 40.835938 43.609375 41.613281 43.183594 C 42.519531 42.6875 42.605469 42.546875 42.535156 41.695312 C 42.449219 40.808594 42.5 40.773438 43.828125 40.703125 C 44.394531 40.667969 44.910156 40.648438 44.964844 40.632812 C 45.015625 40.613281 44.945312 40.96875 44.804688 41.414062 C 44.664062 41.855469 44.484375 42.476562 44.394531 42.777344 Z M 45 38.488281 C 45 38.417969 45.371094 38.203125 45.546875 38.203125 C 45.601562 38.203125 45.726562 38.257812 45.8125 38.328125 C 45.972656 38.453125 45.972656 38.46875 45.8125 38.808594 C 45.726562 39.003906 45.617188 39.160156 45.566406 39.160156 C 45.496094 39.160156 45 38.59375 45 38.488281 Z M 122.585938 66.304688 C 121.046875 66.519531 117.429688 66.960938 116.226562 67.066406 C 113.179688 67.371094 105.824219 67.792969 103.824219 67.792969 L 102.972656 67.792969 L 102.601562 67.351562 C 101.679688 66.269531 101.289062 65.242188 101.46875 64.339844 C 101.539062 63.933594 101.589844 63.859375 101.820312 63.84375 C 102.175781 63.808594 102.425781 63.507812 102.53125 62.976562 C 102.601562 62.621094 102.671875 62.515625 102.847656 62.496094 C 103.078125 62.460938 103.097656 62.515625 103.203125 62.992188 C 103.238281 63.171875 103.417969 63.363281 103.699219 63.578125 C 104.035156 63.808594 104.125 63.933594 104.089844 64.074219 C 104.054688 64.179688 104.105469 64.410156 104.160156 64.570312 C 104.355469 65.03125 105.027344 65.3125 106.003906 65.367188 C 106.890625 65.421875 107.347656 65.242188 107.597656 64.800781 C 107.738281 64.550781 107.722656 64.5 107.507812 63.984375 C 107.277344 63.453125 107.277344 63.417969 107.457031 63.292969 C 107.6875 63.117188 108.074219 63.136719 108.34375 63.3125 C 108.519531 63.4375 108.535156 63.523438 108.5 63.933594 C 108.414062 64.816406 108.890625 65.15625 110.148438 65.082031 C 110.769531 65.046875 111.050781 64.996094 111.28125 64.695312 C 111.460938 64.480469 111.246094 63.914062 111.089844 63.632812 C 110.929688 63.347656 110.804688 63.046875 110.804688 62.992188 C 110.804688 62.816406 111.316406 62.886719 111.867188 63.136719 C 112.152344 63.277344 112.453125 63.363281 112.523438 63.328125 C 112.59375 63.292969 112.648438 63.136719 112.648438 62.957031 C 112.648438 62.710938 112.734375 62.550781 113.035156 62.265625 C 113.496094 61.804688 113.515625 61.609375 113.125 61.238281 C 112.789062 60.902344 112.753906 60.832031 113.019531 60.957031 C 113.265625 61.078125 113.675781 61.078125 113.90625 60.957031 C 114.257812 60.761719 114.613281 60 114.613281 59.414062 C 114.613281 58.652344 114.3125 58.191406 113.480469 57.765625 C 112.878906 57.464844 112.859375 57.429688 112.894531 57.144531 C 112.964844 56.738281 112.789062 56.4375 112.398438 56.277344 C 112.027344 56.117188 111.921875 55.996094 111.796875 55.605469 C 111.671875 55.230469 111.160156 54.929688 110.308594 54.789062 C 109.9375 54.71875 109.597656 54.613281 109.546875 54.558594 C 109.492188 54.507812 109.40625 54.273438 109.351562 54.046875 C 108.804688 51.972656 103.71875 51.757812 97.425781 53.566406 C 95.175781 54.222656 93.070312 54.929688 89.453125 56.277344 C 84.421875 58.15625 82.949219 58.597656 78.714844 59.503906 C 75.191406 60.246094 72.585938 60.617188 70.140625 60.726562 C 68.421875 60.796875 68.527344 60.832031 67.449219 59.945312 C 64.488281 57.554688 62.644531 54.558594 62.078125 51.386719 C 61.476562 47.808594 62.753906 43.519531 65.074219 41.304688 C 65.621094 40.808594 66.296875 40.242188 66.382812 40.242188 C 66.402344 40.242188 66.4375 40.382812 66.4375 40.5625 C 66.457031 40.917969 66.722656 41.179688 67.464844 41.625 C 67.730469 41.785156 67.996094 42.03125 68.136719 42.296875 C 68.5625 43.042969 68.546875 43.078125 67.996094 43.359375 C 66.402344 44.140625 67.128906 46.355469 68.972656 46.355469 C 69.554688 46.355469 69.769531 46.25 70.300781 45.699219 C 70.460938 45.523438 70.65625 45.382812 70.691406 45.382812 C 70.832031 45.382812 71.222656 45.878906 71.804688 46.78125 C 72.375 47.667969 72.871094 48.019531 73.683594 48.179688 C 74.359375 48.304688 74.890625 48.214844 75.207031 47.914062 C 75.4375 47.703125 75.457031 47.632812 75.402344 47.136719 C 75.367188 46.835938 75.332031 46.515625 75.277344 46.425781 C 75.191406 46.214844 75.652344 45.964844 76.128906 45.964844 C 76.449219 45.964844 76.484375 46 76.769531 46.566406 C 77.105469 47.277344 77.316406 47.417969 78.132812 47.417969 C 78.644531 47.417969 78.824219 47.347656 79.851562 46.835938 C 81.515625 45.984375 82.207031 45.328125 82.207031 44.53125 C 82.207031 44.371094 82.082031 43.964844 81.921875 43.628906 C 81.570312 42.863281 81.640625 42.757812 82.332031 42.988281 C 82.933594 43.183594 83.464844 43.203125 83.640625 43.042969 C 83.714844 42.972656 83.765625 42.792969 83.765625 42.617188 C 83.765625 42.421875 83.90625 42.101562 84.15625 41.730469 C 84.707031 40.933594 84.671875 40.402344 84.085938 39.535156 C 83.835938 39.160156 83.835938 39.160156 83.996094 38.71875 C 84.226562 38.082031 84.210938 37.957031 83.765625 37.265625 C 83.359375 36.59375 83.359375 36.449219 83.855469 36.34375 C 84.671875 36.167969 85.113281 34.714844 84.632812 33.722656 C 84.367188 33.191406 83.871094 32.855469 82.667969 32.464844 C 81.25 31.984375 81.195312 31.898438 81.746094 31.136719 C 81.960938 30.851562 82.332031 30.179688 81.585938 29.382812 C 81.019531 28.761719 79.390625 28.035156 77.085938 27.238281 C 74.640625 26.40625 74.359375 26.246094 72.976562 26.246094 C 72.691406 26.246094 72.089844 26.28125 71.824219 26.15625 C 71.683594 26.085938 71.523438 25.835938 71.433594 25.714844 C 71.238281 25.464844 70.9375 25.21875 70.796875 25.148438 C 70.636719 25.074219 70.015625 24.96875 69.09375 24.96875 C 68.722656 24.96875 67.996094 25.003906 67.640625 24.917969 C 67.378906 24.84375 66.898438 24.578125 66.667969 24.457031 C 65.675781 23.941406 64.859375 23.835938 64.257812 23.976562 C 64.097656 24.011719 63.585938 24.207031 63.140625 24.402344 C 62.078125 24.84375 61.371094 25.023438 60.394531 25.109375 C 59.703125 25.164062 59.546875 25.148438 58.90625 24.917969 C 57.5625 24.4375 56.320312 24.597656 53.894531 25.589844 C 51.535156 26.546875 49.605469 27.664062 47.425781 29.292969 C 45.210938 30.957031 42.960938 33.15625 38.160156 38.328125 C 34.242188 42.527344 30.328125 46.144531 23.328125 51.972656 C 18.261719 56.1875 15.53125 58.332031 13.335938 59.804688 C 12.21875 60.566406 11.882812 60.882812 12.363281 60.726562 C 13.050781 60.53125 15.179688 59.128906 17.429688 57.410156 C 22.480469 53.53125 27.402344 49.457031 31.65625 45.648438 C 33.285156 44.195312 37.007812 40.472656 39.878906 37.40625 C 45.105469 31.878906 47.089844 30.074219 50.191406 28.085938 C 51.378906 27.324219 53.699219 26.15625 55.007812 25.660156 C 56.746094 25.003906 57.683594 24.917969 58.640625 25.324219 C 59.191406 25.554688 59.351562 25.589844 60.359375 25.570312 C 61.6875 25.554688 62.078125 25.484375 63.53125 24.898438 C 64.84375 24.382812 65.214844 24.382812 66.191406 24.863281 C 67.324219 25.449219 67.730469 25.535156 69.042969 25.535156 C 70.425781 25.535156 70.796875 25.644531 71.117188 26.15625 C 71.238281 26.332031 71.453125 26.546875 71.574219 26.617188 C 71.71875 26.671875 72.410156 26.757812 73.117188 26.777344 C 74.394531 26.828125 74.445312 26.828125 75.917969 27.363281 C 78.734375 28.355469 80.132812 28.992188 80.984375 29.628906 C 81.5 30.035156 81.535156 30.25 81.109375 30.871094 C 80.453125 31.828125 80.71875 32.445312 81.90625 32.890625 C 83.109375 33.332031 83.234375 33.386719 83.535156 33.5625 C 83.945312 33.8125 84.15625 34.164062 84.175781 34.609375 C 84.191406 35.15625 83.960938 35.511719 83.464844 35.761719 C 82.96875 35.992188 82.722656 36.398438 82.84375 36.804688 C 82.878906 36.945312 83.039062 37.265625 83.21875 37.550781 C 83.5 38.027344 83.519531 38.0625 83.410156 38.472656 C 83.234375 39.125 83.269531 39.355469 83.589844 39.886719 C 84.050781 40.648438 84.050781 40.878906 83.589844 41.5 C 83.339844 41.835938 83.199219 42.121094 83.199219 42.296875 C 83.199219 42.617188 83.164062 42.632812 82.613281 42.441406 C 82.082031 42.261719 81.640625 42.261719 81.375 42.457031 C 81.074219 42.671875 81.089844 43.238281 81.410156 43.964844 C 81.65625 44.511719 81.65625 44.546875 81.5 44.867188 C 81.304688 45.273438 80.773438 45.664062 79.691406 46.214844 C 78.113281 47.011719 77.671875 47.011719 77.335938 46.214844 C 77.210938 45.929688 76.996094 45.628906 76.875 45.539062 C 76.539062 45.308594 75.757812 45.34375 75.242188 45.59375 C 74.695312 45.878906 74.589844 46.160156 74.765625 46.835938 C 74.890625 47.292969 74.890625 47.347656 74.710938 47.472656 C 74.464844 47.667969 73.71875 47.578125 73.171875 47.292969 C 72.800781 47.097656 72.621094 46.921875 72.160156 46.144531 C 71.574219 45.1875 71.152344 44.796875 70.726562 44.796875 C 70.441406 44.796875 69.804688 45.1875 69.644531 45.46875 C 69.398438 45.949219 68.140625 45.734375 67.855469 45.1875 C 67.519531 44.53125 67.800781 43.839844 68.457031 43.679688 C 68.617188 43.644531 68.792969 43.574219 68.847656 43.519531 C 69.042969 43.359375 68.988281 42.742188 68.722656 42.210938 C 68.457031 41.679688 68.15625 41.375 67.394531 40.917969 C 66.917969 40.632812 66.84375 40.472656 67.058594 40.046875 C 67.144531 39.871094 67.339844 39.746094 67.75 39.605469 C 68.28125 39.425781 68.332031 39.375 68.457031 39.019531 C 68.6875 38.328125 68.457031 37.335938 67.960938 36.769531 C 67.5 36.257812 66.226562 36.027344 66.101562 36.167969 C 66.046875 36.21875 66.011719 36.414062 66.066406 36.679688 C 66.15625 37.035156 66.15625 37.160156 66.046875 37.285156 C 65.871094 37.480469 65.570312 37.480469 65.199219 37.25 C 64.738281 36.984375 64.648438 36.753906 64.738281 36.042969 C 64.789062 35.566406 64.773438 35.386719 64.648438 35.191406 C 64.472656 34.925781 63.867188 34.644531 63.445312 34.644531 C 63.105469 34.644531 62.558594 34.996094 62.363281 35.335938 C 62.21875 35.566406 62.238281 35.671875 62.398438 36.292969 C 62.558594 36.910156 62.558594 37 62.414062 37.210938 C 62.167969 37.585938 61.53125 37.867188 61.085938 37.796875 C 61.085938 37.796875 60.839844 37.78125 60.769531 37.816406 C 60.589844 37.902344 60.359375 38.488281 60.359375 38.488281 C 60.164062 38.894531 59.882812 39.320312 59.757812 39.410156 C 59.527344 39.570312 59.457031 39.570312 59.101562 39.480469 C 58.871094 39.410156 58.589844 39.234375 58.445312 39.089844 L 58.179688 38.808594 L 58.394531 38.578125 C 58.660156 38.292969 58.660156 38.222656 58.304688 37.425781 C 58.039062 36.859375 58.023438 36.734375 58.109375 36.523438 C 58.269531 36.167969 58.25 35.601562 58.074219 35.335938 C 57.71875 34.839844 56.796875 34.660156 56.410156 35.035156 C 56.195312 35.226562 56.109375 35.636719 56.125 36.148438 C 56.144531 36.398438 56.109375 36.449219 55.894531 36.46875 C 55.503906 36.523438 54.9375 36.308594 54.476562 35.882812 C 54.125 35.582031 53.980469 35.476562 53.433594 35.441406 C 52.917969 35.421875 52.457031 35.796875 52.546875 36.34375 C 52.601562 36.714844 52.582031 36.769531 52.386719 36.839844 C 52.121094 36.929688 51.183594 36.804688 50.722656 36.609375 C 50.5625 36.539062 50.207031 36.308594 49.941406 36.0625 C 49.480469 35.671875 49.445312 35.652344 48.914062 35.6875 C 48.117188 35.742188 47.816406 35.992188 47.832031 36.558594 C 47.832031 36.839844 47.921875 37.125 48.097656 37.40625 C 48.242188 37.636719 48.347656 37.886719 48.328125 37.957031 C 48.277344 38.097656 47.746094 38.207031 47.105469 38.207031 C 46.824219 38.207031 46.503906 38.117188 46.203125 37.957031 C 45.652344 37.671875 45.246094 37.691406 44.785156 38.011719 C 44.394531 38.292969 44.414062 38.628906 44.839844 39.179688 C 45.230469 39.675781 45.246094 39.746094 44.980469 39.996094 C 44.820312 40.136719 44.574219 40.191406 43.6875 40.226562 C 42.464844 40.277344 42.144531 40.472656 42.003906 40.878906 C 41.949219 41.039062 41.949219 41.324219 42.003906 41.730469 C 42.039062 41.996094 42.058594 42.210938 42.023438 42.28125 C 41.988281 42.332031 41.683594 42.527344 41.367188 42.6875 C 40.570312 43.09375 40.339844 43.308594 40.339844 43.699219 C 40.339844 44.476562 41.453125 44.671875 42.519531 44.070312 C 43.066406 43.769531 43.597656 43.644531 43.742188 43.785156 C 43.777344 43.820312 43.6875 44 43.5625 44.175781 C 43.261719 44.621094 43.28125 44.796875 43.582031 45.167969 C 43.882812 45.523438 44.273438 45.609375 44.980469 45.488281 C 45.316406 45.433594 45.53125 45.433594 45.546875 45.488281 C 45.671875 45.804688 46.132812 46.160156 46.71875 46.390625 C 47.78125 46.796875 47.746094 46.761719 47.53125 47.667969 C 47.300781 48.625 47.070312 48.976562 46.574219 49.15625 C 46.238281 49.261719 46.113281 49.242188 45.546875 49.085938 C 44.804688 48.855469 44.589844 48.90625 44.359375 49.367188 C 44.078125 49.933594 44.183594 50.359375 44.839844 51.085938 C 45.335938 51.636719 45.371094 51.777344 45.105469 52.097656 C 44.964844 52.273438 44.839844 52.328125 44.554688 52.292969 C 44.289062 52.273438 44.113281 52.34375 43.828125 52.558594 C 43.632812 52.714844 43.332031 52.875 43.15625 52.910156 C 42.890625 52.964844 42.800781 52.929688 42.484375 52.59375 C 42.289062 52.378906 42.003906 52.023438 41.863281 51.8125 C 41.683594 51.527344 41.488281 51.386719 41.207031 51.300781 C 40.585938 51.121094 40.195312 51.371094 39.628906 52.328125 C 39.132812 53.175781 38.742188 53.585938 38.390625 53.671875 C 38.054688 53.761719 37.363281 53.246094 37.167969 52.769531 C 37.097656 52.574219 36.953125 52.328125 36.867188 52.257812 C 36.527344 51.867188 35.269531 52.203125 34.667969 52.839844 C 34.421875 53.105469 34.386719 53.246094 34.332031 53.851562 C 34.296875 54.277344 34.207031 54.664062 34.101562 54.824219 C 33.871094 55.179688 33.199219 55.5 32.878906 55.425781 C 32.027344 55.25 32.011719 55.25 31.496094 55.515625 C 31.214844 55.675781 30.824219 55.957031 30.609375 56.136719 C 30.292969 56.4375 30.238281 56.542969 30.238281 56.933594 C 30.238281 57.375 30.222656 57.394531 29.832031 57.570312 C 29.371094 57.785156 29.050781 57.820312 28.769531 57.660156 C 28.539062 57.535156 28.289062 57.003906 28.289062 56.667969 C 28.289062 56.296875 28.023438 56.101562 27.652344 56.171875 C 27.367188 56.226562 27.316406 56.207031 27.050781 55.800781 C 26.730469 55.339844 26.304688 55.109375 25.953125 55.195312 C 25.5625 55.285156 25.207031 55.640625 25.152344 55.996094 C 25.082031 56.332031 25.082031 56.347656 24.710938 56.296875 C 24.390625 56.261719 24.339844 56.261719 24.339844 56.4375 C 24.339844 56.5625 24.464844 56.683594 24.675781 56.773438 C 25.3125 57.039062 25.578125 56.933594 25.632812 56.382812 C 25.667969 55.996094 25.878906 55.765625 26.199219 55.765625 C 26.289062 55.765625 26.535156 55.976562 26.714844 56.242188 C 27.015625 56.683594 27.101562 56.722656 27.421875 56.722656 C 27.777344 56.722656 27.792969 56.738281 27.898438 57.179688 C 27.972656 57.464844 28.308594 58.296875 29.300781 58.261719 C 30.292969 58.210938 30.929688 57.640625 30.753906 56.984375 C 30.699219 56.792969 30.769531 56.703125 31.054688 56.453125 C 31.25 56.296875 31.445312 56.1875 31.480469 56.207031 C 31.515625 56.226562 31.566406 56.597656 31.621094 57.058594 C 31.710938 58.066406 32.101562 59.820312 32.472656 60.902344 C 33.214844 63.011719 34.953125 65.667969 36.371094 66.835938 C 36.988281 67.351562 37.929688 67.867188 38.035156 67.742188 C 38.070312 67.707031 38.015625 67.617188 37.929688 67.566406 C 36.261719 66.554688 34.898438 64.976562 33.675781 62.65625 C 32.949219 61.273438 32.222656 58.828125 32.027344 57.144531 C 31.992188 56.863281 31.941406 56.453125 31.921875 56.261719 C 31.871094 55.835938 32.046875 55.730469 32.4375 55.941406 C 32.984375 56.226562 33.625 56.066406 34.296875 55.445312 C 34.527344 55.25 34.667969 55.003906 34.6875 54.929688 C 34.757812 54.71875 34.808594 55.019531 34.96875 56.136719 C 35.269531 58.261719 35.945312 60.496094 36.847656 62.496094 C 37.21875 63.3125 37.929688 64.464844 38.195312 64.675781 C 38.496094 64.925781 38.460938 64.710938 38.125 64.164062 C 36.492188 61.628906 35.324219 57.144531 35.128906 53.972656 C 35.113281 53.78125 35.078125 53.40625 35.183594 53.210938 C 35.234375 53.105469 35.449219 52.964844 35.554688 52.910156 C 36.15625 52.558594 36.386719 52.628906 36.617188 53.070312 C 36.847656 53.515625 37.414062 54.0625 37.839844 54.238281 L 38.140625 54.363281 L 38.195312 55.5 C 38.265625 56.863281 38.636719 58.6875 39.097656 60.070312 C 40.230469 63.402344 43.351562 67.636719 45.972656 69.335938 C 46.824219 69.886719 47.710938 70.3125 47.816406 70.203125 C 47.886719 70.132812 48.011719 70.222656 46.628906 69.320312 C 43.757812 67.441406 40.640625 63.292969 39.523438 59.820312 C 39.152344 58.632812 38.78125 56.898438 38.636719 55.535156 C 38.53125 54.507812 38.53125 54.417969 38.691406 54.328125 C 39.152344 54.0625 39.558594 53.601562 39.914062 52.945312 C 40.339844 52.167969 40.390625 52.167969 40.515625 52.929688 C 40.640625 53.707031 41.402344 56.242188 41.863281 57.429688 C 42.960938 60.230469 45.140625 63.984375 46.308594 65.121094 C 46.839844 65.632812 46.71875 65.277344 46.042969 64.355469 C 43.703125 61.203125 41.738281 56.773438 40.851562 52.75 C 40.691406 51.988281 40.691406 51.953125 40.835938 51.953125 C 41.03125 51.953125 41.332031 52.273438 41.5625 52.714844 C 41.808594 53.210938 42.429688 53.601562 42.960938 53.601562 C 43.207031 53.601562 43.527344 53.53125 43.6875 53.460938 C 43.847656 53.390625 43.972656 53.320312 43.972656 53.335938 C 43.988281 53.355469 44.09375 53.851562 44.21875 54.46875 C 45.175781 59.21875 47.480469 63.648438 50.703125 66.996094 C 52.085938 68.414062 53.308594 69.425781 55.257812 70.699219 C 59.632812 73.589844 64.1875 75.660156 66.722656 75.925781 C 67.605469 76.015625 67.304688 75.855469 65.765625 75.394531 C 64.097656 74.898438 63.054688 74.492188 61.316406 73.640625 C 58.605469 72.332031 55.273438 70.257812 53.34375 68.714844 C 49.039062 65.242188 45.992188 60.265625 44.785156 54.664062 C 44.394531 52.859375 44.394531 53 44.769531 52.980469 C 45.140625 52.964844 45.496094 52.699219 45.726562 52.203125 C 45.9375 51.742188 45.832031 51.441406 45.230469 50.785156 C 44.785156 50.308594 44.714844 50.183594 44.769531 49.953125 C 44.855469 49.617188 44.839844 49.617188 45.230469 49.792969 C 45.421875 49.863281 45.832031 49.933594 46.148438 49.933594 L 46.71875 49.933594 L 46.769531 50.890625 C 46.929688 53.390625 47.816406 56.101562 49.464844 59.078125 C 50.402344 60.777344 51.554688 62.371094 51.714844 62.214844 C 51.730469 62.195312 51.414062 61.664062 51.003906 61.027344 C 49.605469 58.917969 48.257812 56.066406 47.710938 53.992188 C 47.179688 51.972656 46.949219 49.703125 47.265625 49.582031 C 47.636719 49.4375 48.1875 47.949219 48.1875 47.117188 C 48.1875 46.835938 47.726562 46.25 47.425781 46.160156 C 47.214844 46.089844 47.832031 43.183594 48.542969 40.988281 C 48.898438 39.886719 49.585938 38.117188 49.925781 37.460938 L 50.117188 37.089844 L 50.527344 37.25 C 50.757812 37.335938 51.21875 37.425781 51.589844 37.460938 L 52.226562 37.515625 L 51.75 38.628906 C 51.09375 40.152344 50.3125 42.492188 49.941406 44 C 49.164062 47.292969 49.074219 50.003906 49.675781 53.019531 C 50.667969 57.945312 53.929688 63.1875 58.199219 66.714844 C 61.300781 69.265625 64.328125 70.84375 67.414062 71.480469 C 68.28125 71.65625 68.210938 71.65625 68.210938 71.480469 C 68.210938 71.410156 68.085938 71.304688 67.945312 71.285156 C 66.507812 70.964844 65.25 70.539062 63.992188 69.9375 C 58.835938 67.492188 53.875 62.425781 51.644531 57.269531 C 49.695312 52.804688 49.394531 48.925781 50.5625 43.890625 C 51.09375 41.625 52.386719 37.886719 52.828125 37.335938 C 52.9375 37.195312 53.007812 37.035156 53.007812 36.964844 C 53.007812 36.894531 52.917969 36.558594 52.988281 36.363281 C 53.183594 35.882812 53.679688 36.007812 54.230469 36.523438 C 54.476562 36.753906 54.777344 36.929688 54.992188 36.964844 L 55.328125 37.035156 L 55.007812 37.726562 C 54.566406 38.683594 53.945312 40.507812 53.664062 41.660156 C 53.363281 42.847656 53.183594 44.351562 53.308594 44.671875 C 53.433594 44.972656 53.449219 44.886719 53.644531 43.449219 C 53.875 41.800781 54.496094 39.710938 55.328125 37.867188 C 55.628906 37.195312 55.699219 37.125 56 37.070312 C 56.460938 36.984375 56.65625 36.664062 56.570312 36.148438 C 56.445312 35.476562 56.921875 35.246094 57.453125 35.707031 C 57.71875 35.9375 57.71875 35.9375 57.597656 36.488281 C 57.472656 36.964844 57.488281 37.070312 57.632812 37.460938 L 57.789062 37.902344 L 57.171875 39.199219 C 54.796875 44.105469 55.46875 48.164062 55.613281 48.996094 C 55.964844 51.316406 56.496094 52.929688 57.648438 55.285156 C 59.722656 59.539062 63.089844 63.328125 67.484375 66.378906 C 71.417969 69.125 76.644531 71.179688 82.207031 72.207031 C 84.898438 72.703125 88.957031 72.988281 92.109375 72.914062 C 93.917969 72.863281 94.378906 72.828125 94.378906 72.667969 C 94.378906 72.632812 93.105469 72.597656 91.542969 72.597656 C 85.890625 72.578125 81.816406 71.976562 77.261719 70.523438 C 72.566406 69 68.902344 67.015625 65.410156 64.089844 C 60.609375 60.070312 57.3125 54.984375 56.320312 49.6875 C 55.964844 47.863281 56.019531 44.8125 56.320312 43.359375 C 56.570312 42.136719 56.921875 41.074219 57.367188 40.011719 L 57.703125 39.214844 L 58.109375 39.621094 C 58.625 40.136719 59.191406 40.3125 59.757812 40.152344 C 60.148438 40.03125 60.574219 39.5 60.820312 38.824219 C 60.910156 38.558594 60.980469 38.507812 61.265625 38.507812 C 61.917969 38.507812 62.699219 38.011719 62.929688 37.425781 C 63.019531 37.195312 63.019531 37.019531 62.875 36.46875 C 62.699219 35.796875 62.699219 35.796875 62.910156 35.582031 C 63.175781 35.316406 63.636719 35.316406 63.976562 35.566406 C 64.207031 35.742188 64.242188 35.8125 64.207031 36.183594 C 64.167969 36.574219 64.082031 36.679688 63.195312 37.621094 C 62.644531 38.1875 62.007812 38.894531 61.761719 39.214844 C 60.429688 40.953125 59.402344 42.917969 59.011719 44.425781 C 58.464844 46.550781 58.480469 49.652344 59.03125 50.714844 C 59.261719 51.175781 59.28125 50.945312 59.101562 49.953125 C 58.800781 48.214844 59.011719 45.699219 59.597656 43.910156 C 60.273438 41.925781 62.027344 39.25 63.726562 37.621094 L 64.1875 37.175781 L 64.382812 37.441406 C 64.753906 37.957031 65.65625 38.242188 66.117188 37.992188 C 66.347656 37.867188 66.597656 37.40625 66.597656 37.125 C 66.597656 36.875 66.667969 36.875 67.183594 37.089844 C 67.484375 37.214844 67.625 37.335938 67.765625 37.65625 C 68.050781 38.257812 68.015625 38.347656 67.304688 38.738281 C 64.292969 40.402344 62.753906 42.226562 61.722656 45.273438 C 61.15625 46.976562 61.035156 47.738281 61.035156 49.472656 C 61.050781 52.34375 61.707031 54.453125 63.371094 56.96875 C 64.277344 58.316406 66.15625 60.265625 67.605469 61.328125 C 73.207031 65.472656 82.03125 68.042969 92.855469 68.679688 C 99.058594 69.035156 112.277344 68.414062 118.742188 67.476562 C 120.992188 67.140625 122.800781 66.75 122.800781 66.589844 C 122.90625 66.304688 122.800781 66.289062 122.585938 66.304688 " fill-opacity="1" fill-rule="nonzero"/></g><path fill="#0661aa" d="M 93.15625 57.75 C 93.441406 57.695312 93.6875 57.589844 93.917969 57.394531 C 94.167969 57.179688 94.378906 56.808594 94.699219 56.683594 C 94.945312 56.597656 95.285156 56.667969 95.550781 56.683594 C 95.816406 56.703125 96.117188 56.722656 96.382812 56.757812 C 96.773438 56.828125 97.054688 57.128906 97.480469 57.199219 C 98.242188 57.324219 98.773438 56.613281 99.304688 56.171875 C 99.535156 55.976562 100.121094 55.390625 100.492188 55.550781 C 100.757812 55.675781 100.792969 56.117188 101.007812 56.332031 C 101.253906 56.578125 101.664062 56.613281 102 56.578125 C 102.265625 56.542969 102.546875 56.453125 102.726562 56.242188 C 102.902344 56.011719 102.8125 55.746094 103.0625 55.570312 C 103.292969 55.410156 103.753906 55.320312 103.964844 55.535156 C 104.195312 55.746094 104.214844 56.011719 104.550781 56.136719 C 105.0625 56.3125 106.144531 56.207031 106.410156 55.640625 C 106.515625 55.410156 106.535156 55.039062 106.355469 54.824219 C 106.199219 54.648438 105.578125 54.523438 105.753906 54.914062 C 105.878906 55.160156 106.214844 55.179688 105.859375 55.445312 C 105.632812 55.605469 105.1875 55.726562 104.90625 55.675781 C 104.566406 55.605469 104.585938 55.339844 104.375 55.144531 C 104.140625 54.949219 103.789062 54.914062 103.503906 54.949219 C 103.1875 54.984375 102.8125 55.054688 102.582031 55.285156 C 102.371094 55.480469 102.460938 55.800781 102.28125 55.976562 C 102.085938 56.136719 101.574219 56.082031 101.394531 55.921875 C 101.148438 55.726562 101.148438 55.375 100.847656 55.179688 C 100.351562 54.878906 99.871094 55.144531 99.464844 55.445312 C 99.039062 55.746094 98.597656 56.046875 98.222656 56.417969 C 98.082031 56.5625 98.011719 56.667969 97.78125 56.667969 C 97.390625 56.683594 97.160156 56.492188 96.84375 56.296875 C 96.523438 56.117188 96.132812 56.3125 95.761719 56.242188 C 95.355469 56.152344 94.980469 56.082031 94.574219 56.261719 C 94.183594 56.4375 93.9375 56.828125 93.566406 57.023438 C 93.15625 57.234375 92.785156 57.179688 92.34375 57.199219 C 92.113281 57.21875 91.988281 57.339844 92.148438 57.554688 C 92.34375 57.890625 92.890625 57.800781 93.15625 57.75 " fill-opacity="1" fill-rule="nonzero"/><path fill="#0661aa" d="M 105.789062 60.652344 C 105.542969 60.265625 104.90625 60.546875 104.550781 60.265625 C 104.054688 59.875 103.628906 59.09375 102.921875 59.09375 C 102.671875 59.078125 102.441406 59.199219 102.28125 59.359375 C 102.085938 59.574219 102.195312 59.875 101.855469 59.839844 C 101.148438 59.75 100.8125 59.164062 100.757812 58.511719 C 100.742188 58.296875 100.632812 58.121094 100.457031 58.351562 C 100.296875 58.546875 100.386719 59.058594 100.421875 59.273438 C 100.5625 59.855469 101.023438 60.230469 101.609375 60.316406 C 101.875 60.351562 102.246094 60.371094 102.460938 60.15625 C 102.617188 60 102.511719 59.714844 102.691406 59.589844 C 102.8125 59.503906 103.132812 59.574219 103.257812 59.625 C 103.503906 59.75 103.71875 60.015625 103.914062 60.210938 C 104.105469 60.40625 104.300781 60.671875 104.566406 60.796875 C 104.796875 60.902344 105.046875 60.847656 105.277344 60.921875 C 105.558594 60.992188 105.738281 61.222656 106.019531 61.292969 C 106.339844 61.363281 106.710938 61.292969 106.960938 61.0625 C 107.207031 60.832031 107.15625 60.582031 107.296875 60.28125 C 107.4375 59.980469 107.738281 60.085938 107.898438 60.300781 C 108.039062 60.496094 108.09375 60.691406 108.34375 60.777344 C 108.625 60.882812 109.105469 60.832031 109.335938 60.617188 C 109.582031 60.371094 109.40625 60.191406 109.371094 59.910156 C 109.335938 59.609375 109.601562 59.394531 109.882812 59.308594 C 110.203125 59.21875 110.433594 59.359375 110.679688 59.574219 C 110.875 59.734375 111.070312 60.035156 111.335938 59.875 C 111.816406 59.589844 112.027344 58.863281 111.726562 58.421875 C 111.65625 58.296875 111.230469 57.855469 111.050781 57.980469 C 110.804688 58.171875 111.316406 58.492188 111.390625 58.667969 C 111.441406 58.777344 111.511719 58.988281 111.40625 59.078125 C 111.265625 59.21875 111.035156 59.023438 110.910156 58.953125 C 110.574219 58.792969 110.21875 58.757812 109.847656 58.792969 C 109.457031 58.847656 109.140625 59.042969 108.980469 59.414062 C 108.890625 59.625 109.015625 60.28125 108.785156 60.371094 C 108.484375 60.496094 108.304688 59.929688 108.148438 59.785156 C 107.917969 59.554688 107.472656 59.519531 107.191406 59.660156 C 106.800781 59.875 106.925781 60.210938 106.765625 60.53125 C 106.550781 60.921875 106.003906 60.972656 105.789062 60.652344 " fill-opacity="1" fill-rule="nonzero"/></svg>