<svg xmlns="http://www.w3.org/2000/svg" xmlns:xlink="http://www.w3.org/1999/xlink" width="180" zoomAndPan="magnify" viewBox="0 0 135 161.249994" height="215" preserveAspectRatio="xMidYMid meet" version="1.0"><defs><g/><clipPath id="0258707a7f"><path d="M 12.148438 22.054688 L 122.628906 22.054688 L 122.628906 74.085938 L 12.148438 74.085938 Z M 12.148438 22.054688 " clip-rule="nonzero"/></clipPath></defs><g fill="#0661aa" fill-opacity="1"><g transform="translate(39.751613, 104.388371)"><g><path d="M 6.078125 0.390625 C 4.410156 0.390625 3.109375 -0.0390625 2.171875 -0.90625 C 1.242188 -1.769531 0.78125 -2.96875 0.78125 -4.5 L 0.78125 -12.765625 L 3.859375 -12.765625 L 3.859375 -4.671875 C 3.859375 -3.941406 4.050781 -3.351562 4.4375 -2.90625 C 4.832031 -2.457031 5.378906 -2.234375 6.078125 -2.234375 C 6.765625 -2.234375 7.304688 -2.453125 7.703125 -2.890625 C 8.097656 -3.328125 8.296875 -3.921875 8.296875 -4.671875 L 8.296875 -12.765625 L 11.359375 -12.765625 L 11.359375 -4.5 C 11.359375 -2.96875 10.890625 -1.769531 9.953125 -0.90625 C 9.023438 -0.0390625 7.734375 0.390625 6.078125 0.390625 Z M 6.078125 0.390625 "/></g></g></g><g fill="#0661aa" fill-opacity="1"><g transform="translate(54.013247, 104.388371)"><g><path d="M 2.078125 -10.4375 C 1.597656 -10.4375 1.207031 -10.578125 0.90625 -10.859375 C 0.613281 -11.148438 0.46875 -11.523438 0.46875 -11.984375 C 0.46875 -12.453125 0.613281 -12.832031 0.90625 -13.125 C 1.207031 -13.414062 1.597656 -13.5625 2.078125 -13.5625 C 2.566406 -13.5625 2.957031 -13.414062 3.25 -13.125 C 3.550781 -12.832031 3.703125 -12.453125 3.703125 -11.984375 C 3.703125 -11.523438 3.550781 -11.148438 3.25 -10.859375 C 2.957031 -10.578125 2.566406 -10.4375 2.078125 -10.4375 Z M 0.34375 4.0625 C -0.382812 4.0625 -1.035156 3.960938 -1.609375 3.765625 L -1.296875 1.8125 C -0.984375 1.914062 -0.675781 1.96875 -0.375 1.96875 C -0.03125 1.96875 0.234375 1.859375 0.421875 1.640625 C 0.617188 1.429688 0.71875 1.140625 0.71875 0.765625 L 0.71875 -9.171875 L 3.453125 -9.171875 L 3.453125 1.0625 C 3.453125 2 3.175781 2.734375 2.625 3.265625 C 2.070312 3.796875 1.3125 4.0625 0.34375 4.0625 Z M 0.34375 4.0625 "/></g></g></g><g fill="#0661aa" fill-opacity="1"><g transform="translate(60.337819, 104.388371)"><g><path d="M 2.078125 -10.4375 C 1.597656 -10.4375 1.207031 -10.578125 0.90625 -10.859375 C 0.613281 -11.148438 0.46875 -11.523438 0.46875 -11.984375 C 0.46875 -12.453125 0.613281 -12.832031 0.90625 -13.125 C 1.207031 -13.414062 1.597656 -13.5625 2.078125 -13.5625 C 2.566406 -13.5625 2.957031 -13.414062 3.25 -13.125 C 3.550781 -12.832031 3.703125 -12.453125 3.703125 -11.984375 C 3.703125 -11.523438 3.550781 -11.148438 3.25 -10.859375 C 2.957031 -10.578125 2.566406 -10.4375 2.078125 -10.4375 Z M 0.34375 4.0625 C -0.382812 4.0625 -1.035156 3.960938 -1.609375 3.765625 L -1.296875 1.8125 C -0.984375 1.914062 -0.675781 1.96875 -0.375 1.96875 C -0.03125 1.96875 0.234375 1.859375 0.421875 1.640625 C 0.617188 1.429688 0.71875 1.140625 0.71875 0.765625 L 0.71875 -9.171875 L 3.453125 -9.171875 L 3.453125 1.0625 C 3.453125 2 3.175781 2.734375 2.625 3.265625 C 2.070312 3.796875 1.3125 4.0625 0.34375 4.0625 Z M 0.34375 4.0625 "/></g></g></g><g fill="#0661aa" fill-opacity="1"><g transform="translate(66.66239, 104.388371)"><g><path d="M 3.171875 0.21875 C 2.296875 0.21875 1.585938 -0.015625 1.046875 -0.484375 C 0.515625 -0.953125 0.25 -1.578125 0.25 -2.359375 C 0.25 -3.203125 0.566406 -3.878906 1.203125 -4.390625 C 1.847656 -4.910156 2.785156 -5.238281 4.015625 -5.375 L 5.4375 -5.53125 C 5.632812 -5.5625 5.796875 -5.632812 5.921875 -5.75 C 6.046875 -5.875 6.109375 -6.046875 6.109375 -6.265625 C 6.109375 -6.671875 5.984375 -6.984375 5.734375 -7.203125 C 5.484375 -7.421875 5.15625 -7.53125 4.75 -7.53125 C 4.28125 -7.53125 3.898438 -7.367188 3.609375 -7.046875 C 3.328125 -6.722656 3.175781 -6.316406 3.15625 -5.828125 L 0.5625 -6.203125 C 0.582031 -6.847656 0.769531 -7.414062 1.125 -7.90625 C 1.476562 -8.40625 1.960938 -8.796875 2.578125 -9.078125 C 3.191406 -9.359375 3.910156 -9.5 4.734375 -9.5 C 5.984375 -9.5 6.972656 -9.171875 7.703125 -8.515625 C 8.429688 -7.859375 8.796875 -6.96875 8.796875 -5.84375 L 8.796875 -2.296875 C 8.796875 -1.890625 8.945312 -1.6875 9.25 -1.6875 C 9.488281 -1.6875 9.710938 -1.804688 9.921875 -2.046875 L 10.515625 -0.578125 C 10.234375 -0.296875 9.890625 -0.09375 9.484375 0.03125 C 9.078125 0.164062 8.675781 0.234375 8.28125 0.234375 C 7.726562 0.234375 7.265625 0.09375 6.890625 -0.1875 C 6.515625 -0.46875 6.28125 -0.820312 6.1875 -1.25 L 6.140625 -1.484375 L 6.125 -1.484375 C 5.851562 -0.960938 5.457031 -0.546875 4.9375 -0.234375 C 4.425781 0.0664062 3.835938 0.21875 3.171875 0.21875 Z M 4.296875 -1.703125 C 4.816406 -1.703125 5.242188 -1.882812 5.578125 -2.25 C 5.910156 -2.613281 6.078125 -3.085938 6.078125 -3.671875 L 6.078125 -4.109375 L 4.734375 -3.953125 C 4.109375 -3.890625 3.660156 -3.742188 3.390625 -3.515625 C 3.128906 -3.285156 3 -3.015625 3 -2.703125 C 3 -2.410156 3.117188 -2.171875 3.359375 -1.984375 C 3.609375 -1.796875 3.921875 -1.703125 4.296875 -1.703125 Z M 4.296875 -1.703125 "/></g></g></g><g fill="#0661aa" fill-opacity="1"><g transform="translate(79.293603, 104.388371)"><g><path d="M 4 4.0625 C 3.132812 4.0625 2.328125 3.910156 1.578125 3.609375 C 0.828125 3.316406 0.21875 2.914062 -0.25 2.40625 L 0.828125 0.46875 C 1.171875 0.875 1.597656 1.195312 2.109375 1.4375 C 2.617188 1.6875 3.160156 1.8125 3.734375 1.8125 C 4.503906 1.8125 5.113281 1.585938 5.5625 1.140625 C 6.007812 0.703125 6.234375 0.101562 6.234375 -0.65625 L 6.234375 -1.453125 L 6.21875 -1.453125 C 5.957031 -0.898438 5.59375 -0.460938 5.125 -0.140625 C 4.65625 0.179688 4.140625 0.34375 3.578125 0.34375 C 2.660156 0.34375 1.9375 0.0390625 1.40625 -0.5625 C 0.875 -1.175781 0.609375 -2 0.609375 -3.03125 L 0.609375 -9.171875 L 3.34375 -9.171875 L 3.34375 -3.484375 C 3.34375 -3.003906 3.457031 -2.617188 3.6875 -2.328125 C 3.925781 -2.046875 4.25 -1.90625 4.65625 -1.90625 C 5.113281 -1.90625 5.484375 -2.0625 5.765625 -2.375 C 6.054688 -2.6875 6.203125 -3.101562 6.203125 -3.625 L 6.203125 -9.171875 L 8.921875 -9.171875 L 8.9375 -0.484375 C 8.9375 0.460938 8.738281 1.273438 8.34375 1.953125 C 7.945312 2.628906 7.375 3.148438 6.625 3.515625 C 5.882812 3.878906 5.007812 4.0625 4 4.0625 Z M 4 4.0625 "/></g></g></g><g fill="#0661aa" fill-opacity="1"><g transform="translate(91.011079, 104.388371)"><g><path d="M 2.109375 -10.4375 C 1.617188 -10.4375 1.226562 -10.578125 0.9375 -10.859375 C 0.644531 -11.148438 0.5 -11.523438 0.5 -11.984375 C 0.5 -12.460938 0.644531 -12.84375 0.9375 -13.125 C 1.226562 -13.414062 1.617188 -13.5625 2.109375 -13.5625 C 2.597656 -13.5625 2.988281 -13.414062 3.28125 -13.125 C 3.582031 -12.84375 3.734375 -12.460938 3.734375 -11.984375 C 3.734375 -11.523438 3.582031 -11.148438 3.28125 -10.859375 C 2.988281 -10.578125 2.597656 -10.4375 2.109375 -10.4375 Z M 0.734375 0 L 0.734375 -9.171875 L 3.484375 -9.171875 L 3.484375 0 Z M 0.734375 0 "/></g></g></g><g fill="#2d6d5e" fill-opacity="1"><g transform="translate(20.180545, 123.629307)"><g><path d="M 2.203125 -7.8125 C 2.972656 -7.8125 3.539062 -7.625 3.90625 -7.25 C 4.269531 -6.882812 4.453125 -6.304688 4.453125 -5.515625 C 4.453125 -5.117188 4.40625 -4.765625 4.3125 -4.453125 C 4.21875 -4.148438 4.078125 -3.894531 3.890625 -3.6875 C 3.703125 -3.488281 3.460938 -3.335938 3.171875 -3.234375 C 2.890625 -3.128906 2.5625 -3.078125 2.1875 -3.078125 L 1.65625 -3.078125 L 1.65625 0 L 0.8125 0 L 0.8125 -7.8125 Z M 2.171875 -7.0625 L 1.65625 -7.0625 L 1.65625 -3.828125 L 2.109375 -3.828125 C 2.453125 -3.828125 2.734375 -3.882812 2.953125 -4 C 3.171875 -4.113281 3.328125 -4.289062 3.421875 -4.53125 C 3.523438 -4.78125 3.578125 -5.109375 3.578125 -5.515625 C 3.578125 -6.066406 3.460938 -6.460938 3.234375 -6.703125 C 3.003906 -6.941406 2.648438 -7.0625 2.171875 -7.0625 Z M 2.171875 -7.0625 "/></g></g></g><g fill="#2d6d5e" fill-opacity="1"><g transform="translate(26.500218, 123.629307)"><g><path d="M 2.28125 -5.96875 C 2.820312 -5.96875 3.207031 -5.796875 3.4375 -5.453125 C 3.675781 -5.109375 3.796875 -4.609375 3.796875 -3.953125 L 3.796875 0 L 3.171875 0 L 3.046875 -0.828125 L 3.015625 -0.828125 C 2.929688 -0.628906 2.820312 -0.457031 2.6875 -0.3125 C 2.5625 -0.175781 2.414062 -0.0703125 2.25 0 C 2.09375 0.0703125 1.90625 0.109375 1.6875 0.109375 C 1.382812 0.109375 1.132812 0.03125 0.9375 -0.125 C 0.75 -0.289062 0.609375 -0.503906 0.515625 -0.765625 C 0.421875 -1.023438 0.375 -1.304688 0.375 -1.609375 C 0.375 -2.191406 0.539062 -2.640625 0.875 -2.953125 C 1.21875 -3.273438 1.695312 -3.453125 2.3125 -3.484375 L 2.96875 -3.53125 L 2.96875 -3.9375 C 2.96875 -4.40625 2.90625 -4.742188 2.78125 -4.953125 C 2.65625 -5.171875 2.445312 -5.28125 2.15625 -5.28125 C 2 -5.28125 1.828125 -5.25 1.640625 -5.1875 C 1.460938 -5.132812 1.269531 -5.046875 1.0625 -4.921875 L 0.796875 -5.546875 C 1.015625 -5.691406 1.25 -5.796875 1.5 -5.859375 C 1.757812 -5.929688 2.019531 -5.96875 2.28125 -5.96875 Z M 2.984375 -2.921875 L 2.4375 -2.890625 C 2.03125 -2.867188 1.722656 -2.753906 1.515625 -2.546875 C 1.316406 -2.335938 1.21875 -2.035156 1.21875 -1.640625 C 1.21875 -1.265625 1.28125 -0.988281 1.40625 -0.8125 C 1.539062 -0.644531 1.722656 -0.5625 1.953125 -0.5625 C 2.285156 -0.5625 2.539062 -0.71875 2.71875 -1.03125 C 2.894531 -1.34375 2.984375 -1.773438 2.984375 -2.328125 Z M 2.984375 -2.921875 "/></g></g></g><g fill="#2d6d5e" fill-opacity="1"><g transform="translate(32.526058, 123.629307)"><g><path d="M 2.671875 -5.96875 C 2.753906 -5.96875 2.835938 -5.957031 2.921875 -5.9375 C 3.003906 -5.925781 3.085938 -5.910156 3.171875 -5.890625 L 3.046875 -5.046875 C 2.984375 -5.066406 2.914062 -5.082031 2.84375 -5.09375 C 2.769531 -5.101562 2.691406 -5.109375 2.609375 -5.109375 C 2.453125 -5.109375 2.304688 -5.054688 2.171875 -4.953125 C 2.035156 -4.847656 1.921875 -4.703125 1.828125 -4.515625 C 1.734375 -4.328125 1.660156 -4.109375 1.609375 -3.859375 C 1.554688 -3.609375 1.53125 -3.34375 1.53125 -3.0625 L 1.53125 0 L 0.71875 0 L 0.71875 -5.859375 L 1.359375 -5.859375 L 1.46875 -4.828125 L 1.515625 -4.828125 C 1.597656 -5.046875 1.691406 -5.238281 1.796875 -5.40625 C 1.910156 -5.582031 2.039062 -5.71875 2.1875 -5.8125 C 2.332031 -5.914062 2.492188 -5.96875 2.671875 -5.96875 Z M 2.671875 -5.96875 "/></g></g></g><g fill="#2d6d5e" fill-opacity="1"><g transform="translate(37.339166, 123.629307)"><g><path d="M 2.28125 -5.96875 C 2.820312 -5.96875 3.207031 -5.796875 3.4375 -5.453125 C 3.675781 -5.109375 3.796875 -4.609375 3.796875 -3.953125 L 3.796875 0 L 3.171875 0 L 3.046875 -0.828125 L 3.015625 -0.828125 C 2.929688 -0.628906 2.820312 -0.457031 2.6875 -0.3125 C 2.5625 -0.175781 2.414062 -0.0703125 2.25 0 C 2.09375 0.0703125 1.90625 0.109375 1.6875 0.109375 C 1.382812 0.109375 1.132812 0.03125 0.9375 -0.125 C 0.75 -0.289062 0.609375 -0.503906 0.515625 -0.765625 C 0.421875 -1.023438 0.375 -1.304688 0.375 -1.609375 C 0.375 -2.191406 0.539062 -2.640625 0.875 -2.953125 C 1.21875 -3.273438 1.695312 -3.453125 2.3125 -3.484375 L 2.96875 -3.53125 L 2.96875 -3.9375 C 2.96875 -4.40625 2.90625 -4.742188 2.78125 -4.953125 C 2.65625 -5.171875 2.445312 -5.28125 2.15625 -5.28125 C 2 -5.28125 1.828125 -5.25 1.640625 -5.1875 C 1.460938 -5.132812 1.269531 -5.046875 1.0625 -4.921875 L 0.796875 -5.546875 C 1.015625 -5.691406 1.25 -5.796875 1.5 -5.859375 C 1.757812 -5.929688 2.019531 -5.96875 2.28125 -5.96875 Z M 2.984375 -2.921875 L 2.4375 -2.890625 C 2.03125 -2.867188 1.722656 -2.753906 1.515625 -2.546875 C 1.316406 -2.335938 1.21875 -2.035156 1.21875 -1.640625 C 1.21875 -1.265625 1.28125 -0.988281 1.40625 -0.8125 C 1.539062 -0.644531 1.722656 -0.5625 1.953125 -0.5625 C 2.285156 -0.5625 2.539062 -0.71875 2.71875 -1.03125 C 2.894531 -1.34375 2.984375 -1.773438 2.984375 -2.328125 Z M 2.984375 -2.921875 "/></g></g></g><g fill="#2d6d5e" fill-opacity="1"><g transform="translate(43.365006, 123.629307)"><g/></g></g><g fill="#2d6d5e" fill-opacity="1"><g transform="translate(46.927985, 123.629307)"><g><path d="M 2.40625 0.109375 C 1.976562 0.109375 1.617188 0 1.328125 -0.21875 C 1.046875 -0.445312 0.832031 -0.785156 0.6875 -1.234375 C 0.539062 -1.679688 0.46875 -2.234375 0.46875 -2.890625 C 0.46875 -3.535156 0.539062 -4.085938 0.6875 -4.546875 C 0.832031 -5.003906 1.050781 -5.351562 1.34375 -5.59375 C 1.632812 -5.84375 2 -5.96875 2.4375 -5.96875 C 2.65625 -5.96875 2.851562 -5.941406 3.03125 -5.890625 C 3.207031 -5.847656 3.375 -5.785156 3.53125 -5.703125 L 3.265625 -5.03125 C 3.140625 -5.09375 3.007812 -5.140625 2.875 -5.171875 C 2.75 -5.210938 2.625 -5.234375 2.5 -5.234375 C 2.238281 -5.234375 2.019531 -5.144531 1.84375 -4.96875 C 1.675781 -4.789062 1.546875 -4.53125 1.453125 -4.1875 C 1.359375 -3.84375 1.3125 -3.414062 1.3125 -2.90625 C 1.3125 -2.394531 1.351562 -1.96875 1.4375 -1.625 C 1.53125 -1.289062 1.664062 -1.035156 1.84375 -0.859375 C 2.019531 -0.691406 2.238281 -0.609375 2.5 -0.609375 C 2.65625 -0.609375 2.8125 -0.628906 2.96875 -0.671875 C 3.132812 -0.722656 3.300781 -0.789062 3.46875 -0.875 L 3.46875 -0.1875 C 3.3125 -0.09375 3.132812 -0.0195312 2.9375 0.03125 C 2.75 0.0820312 2.570312 0.109375 2.40625 0.109375 Z M 2.40625 0.109375 "/></g></g></g><g fill="#2d6d5e" fill-opacity="1"><g transform="translate(52.21657, 123.629307)"><g><path d="M 2.28125 -5.96875 C 2.820312 -5.96875 3.207031 -5.796875 3.4375 -5.453125 C 3.675781 -5.109375 3.796875 -4.609375 3.796875 -3.953125 L 3.796875 0 L 3.171875 0 L 3.046875 -0.828125 L 3.015625 -0.828125 C 2.929688 -0.628906 2.820312 -0.457031 2.6875 -0.3125 C 2.5625 -0.175781 2.414062 -0.0703125 2.25 0 C 2.09375 0.0703125 1.90625 0.109375 1.6875 0.109375 C 1.382812 0.109375 1.132812 0.03125 0.9375 -0.125 C 0.75 -0.289062 0.609375 -0.503906 0.515625 -0.765625 C 0.421875 -1.023438 0.375 -1.304688 0.375 -1.609375 C 0.375 -2.191406 0.539062 -2.640625 0.875 -2.953125 C 1.21875 -3.273438 1.695312 -3.453125 2.3125 -3.484375 L 2.96875 -3.53125 L 2.96875 -3.9375 C 2.96875 -4.40625 2.90625 -4.742188 2.78125 -4.953125 C 2.65625 -5.171875 2.445312 -5.28125 2.15625 -5.28125 C 2 -5.28125 1.828125 -5.25 1.640625 -5.1875 C 1.460938 -5.132812 1.269531 -5.046875 1.0625 -4.921875 L 0.796875 -5.546875 C 1.015625 -5.691406 1.25 -5.796875 1.5 -5.859375 C 1.757812 -5.929688 2.019531 -5.96875 2.28125 -5.96875 Z M 2.984375 -2.921875 L 2.4375 -2.890625 C 2.03125 -2.867188 1.722656 -2.753906 1.515625 -2.546875 C 1.316406 -2.335938 1.21875 -2.035156 1.21875 -1.640625 C 1.21875 -1.265625 1.28125 -0.988281 1.40625 -0.8125 C 1.539062 -0.644531 1.722656 -0.5625 1.953125 -0.5625 C 2.285156 -0.5625 2.539062 -0.71875 2.71875 -1.03125 C 2.894531 -1.34375 2.984375 -1.773438 2.984375 -2.328125 Z M 2.984375 -2.921875 "/></g></g></g><g fill="#2d6d5e" fill-opacity="1"><g transform="translate(58.242409, 123.629307)"><g><path d="M 1.53125 0 L 0.71875 0 L 0.71875 -8.3125 L 1.53125 -8.3125 Z M 1.53125 0 "/></g></g></g><g fill="#2d6d5e" fill-opacity="1"><g transform="translate(62.019086, 123.629307)"><g><path d="M 5.3125 -5.96875 C 5.78125 -5.96875 6.125 -5.800781 6.34375 -5.46875 C 6.5625 -5.132812 6.671875 -4.628906 6.671875 -3.953125 L 6.671875 0 L 5.859375 0 L 5.859375 -3.8125 C 5.859375 -4.320312 5.789062 -4.6875 5.65625 -4.90625 C 5.53125 -5.132812 5.34375 -5.25 5.09375 -5.25 C 4.738281 -5.25 4.484375 -5.078125 4.328125 -4.734375 C 4.179688 -4.398438 4.109375 -3.921875 4.109375 -3.296875 L 4.109375 0 L 3.296875 0 L 3.296875 -3.8125 C 3.296875 -4.164062 3.265625 -4.445312 3.203125 -4.65625 C 3.148438 -4.863281 3.066406 -5.015625 2.953125 -5.109375 C 2.835938 -5.203125 2.695312 -5.25 2.53125 -5.25 C 2.257812 -5.25 2.050781 -5.15625 1.90625 -4.96875 C 1.769531 -4.789062 1.671875 -4.539062 1.609375 -4.21875 C 1.554688 -3.90625 1.53125 -3.546875 1.53125 -3.140625 L 1.53125 0 L 0.71875 0 L 0.71875 -5.859375 L 1.375 -5.859375 L 1.46875 -5.03125 L 1.515625 -5.03125 C 1.585938 -5.226562 1.679688 -5.394531 1.796875 -5.53125 C 1.921875 -5.675781 2.0625 -5.785156 2.21875 -5.859375 C 2.382812 -5.929688 2.566406 -5.96875 2.765625 -5.96875 C 3.109375 -5.96875 3.375 -5.875 3.5625 -5.6875 C 3.757812 -5.507812 3.890625 -5.28125 3.953125 -5 L 4.015625 -5 C 4.148438 -5.332031 4.316406 -5.578125 4.515625 -5.734375 C 4.722656 -5.890625 4.988281 -5.96875 5.3125 -5.96875 Z M 5.3125 -5.96875 "/></g></g></g><g fill="#2d6d5e" fill-opacity="1"><g transform="translate(70.924496, 123.629307)"><g><path d="M 2.28125 -5.96875 C 2.820312 -5.96875 3.207031 -5.796875 3.4375 -5.453125 C 3.675781 -5.109375 3.796875 -4.609375 3.796875 -3.953125 L 3.796875 0 L 3.171875 0 L 3.046875 -0.828125 L 3.015625 -0.828125 C 2.929688 -0.628906 2.820312 -0.457031 2.6875 -0.3125 C 2.5625 -0.175781 2.414062 -0.0703125 2.25 0 C 2.09375 0.0703125 1.90625 0.109375 1.6875 0.109375 C 1.382812 0.109375 1.132812 0.03125 0.9375 -0.125 C 0.75 -0.289062 0.609375 -0.503906 0.515625 -0.765625 C 0.421875 -1.023438 0.375 -1.304688 0.375 -1.609375 C 0.375 -2.191406 0.539062 -2.640625 0.875 -2.953125 C 1.21875 -3.273438 1.695312 -3.453125 2.3125 -3.484375 L 2.96875 -3.53125 L 2.96875 -3.9375 C 2.96875 -4.40625 2.90625 -4.742188 2.78125 -4.953125 C 2.65625 -5.171875 2.445312 -5.28125 2.15625 -5.28125 C 2 -5.28125 1.828125 -5.25 1.640625 -5.1875 C 1.460938 -5.132812 1.269531 -5.046875 1.0625 -4.921875 L 0.796875 -5.546875 C 1.015625 -5.691406 1.25 -5.796875 1.5 -5.859375 C 1.757812 -5.929688 2.019531 -5.96875 2.28125 -5.96875 Z M 2.984375 -2.921875 L 2.4375 -2.890625 C 2.03125 -2.867188 1.722656 -2.753906 1.515625 -2.546875 C 1.316406 -2.335938 1.21875 -2.035156 1.21875 -1.640625 C 1.21875 -1.265625 1.28125 -0.988281 1.40625 -0.8125 C 1.539062 -0.644531 1.722656 -0.5625 1.953125 -0.5625 C 2.285156 -0.5625 2.539062 -0.71875 2.71875 -1.03125 C 2.894531 -1.34375 2.984375 -1.773438 2.984375 -2.328125 Z M 2.984375 -2.921875 "/></g></g></g><g fill="#2d6d5e" fill-opacity="1"><g transform="translate(76.950335, 123.629307)"><g><path d="M 1.765625 -1.234375 L 1.84375 -1.109375 C 1.769531 -0.816406 1.691406 -0.523438 1.609375 -0.234375 C 1.523438 0.0546875 1.4375 0.34375 1.34375 0.625 C 1.25 0.90625 1.144531 1.175781 1.03125 1.4375 L 0.390625 1.4375 C 0.472656 1.132812 0.546875 0.828125 0.609375 0.515625 C 0.679688 0.210938 0.738281 -0.0859375 0.78125 -0.390625 C 0.832031 -0.691406 0.867188 -0.972656 0.890625 -1.234375 Z M 1.765625 -1.234375 "/></g></g></g><g fill="#2d6d5e" fill-opacity="1"><g transform="translate(80.89797, 123.629307)"><g/></g></g><g fill="#2d6d5e" fill-opacity="1"><g transform="translate(84.460949, 123.629307)"><g><path d="M 2.5625 -5.171875 L 1.640625 -5.171875 L 1.640625 0 L 0.8125 0 L 0.8125 -5.171875 L 0.09375 -5.171875 L 0.09375 -5.609375 L 0.8125 -5.890625 L 0.8125 -6.28125 C 0.8125 -6.726562 0.847656 -7.101562 0.921875 -7.40625 C 1.003906 -7.71875 1.140625 -7.957031 1.328125 -8.125 C 1.523438 -8.289062 1.789062 -8.375 2.125 -8.375 C 2.28125 -8.375 2.421875 -8.359375 2.546875 -8.328125 C 2.679688 -8.296875 2.820312 -8.253906 2.96875 -8.203125 L 2.75 -7.53125 C 2.65625 -7.570312 2.5625 -7.597656 2.46875 -7.609375 C 2.382812 -7.628906 2.300781 -7.640625 2.21875 -7.640625 C 2 -7.640625 1.847656 -7.539062 1.765625 -7.34375 C 1.679688 -7.15625 1.640625 -6.8125 1.640625 -6.3125 L 1.640625 -5.859375 L 2.5625 -5.859375 Z M 2.5625 -5.171875 "/></g></g></g><g fill="#2d6d5e" fill-opacity="1"><g transform="translate(88.713102, 123.629307)"><g><path d="M 4.359375 -2.9375 C 4.359375 -2.476562 4.316406 -2.0625 4.234375 -1.6875 C 4.160156 -1.3125 4.039062 -0.988281 3.875 -0.71875 C 3.71875 -0.457031 3.515625 -0.253906 3.265625 -0.109375 C 3.023438 0.0351562 2.734375 0.109375 2.390625 0.109375 C 2.078125 0.109375 1.796875 0.0351562 1.546875 -0.109375 C 1.304688 -0.253906 1.101562 -0.457031 0.9375 -0.71875 C 0.78125 -0.976562 0.660156 -1.296875 0.578125 -1.671875 C 0.503906 -2.054688 0.46875 -2.476562 0.46875 -2.9375 C 0.46875 -3.582031 0.535156 -4.128906 0.671875 -4.578125 C 0.804688 -5.035156 1.019531 -5.378906 1.3125 -5.609375 C 1.601562 -5.847656 1.96875 -5.96875 2.40625 -5.96875 C 2.820312 -5.96875 3.175781 -5.851562 3.46875 -5.625 C 3.757812 -5.394531 3.976562 -5.054688 4.125 -4.609375 C 4.28125 -4.160156 4.359375 -3.601562 4.359375 -2.9375 Z M 1.296875 -2.9375 C 1.296875 -2.425781 1.332031 -2 1.40625 -1.65625 C 1.488281 -1.3125 1.613281 -1.050781 1.78125 -0.875 C 1.945312 -0.695312 2.160156 -0.609375 2.421875 -0.609375 C 2.671875 -0.609375 2.875 -0.691406 3.03125 -0.859375 C 3.195312 -1.035156 3.316406 -1.296875 3.390625 -1.640625 C 3.472656 -1.984375 3.515625 -2.414062 3.515625 -2.9375 C 3.515625 -3.445312 3.472656 -3.875 3.390625 -4.21875 C 3.316406 -4.5625 3.195312 -4.816406 3.03125 -4.984375 C 2.875 -5.160156 2.664062 -5.25 2.40625 -5.25 C 2.019531 -5.25 1.738281 -5.054688 1.5625 -4.671875 C 1.382812 -4.285156 1.296875 -3.707031 1.296875 -2.9375 Z M 1.296875 -2.9375 "/></g></g></g><g fill="#2d6d5e" fill-opacity="1"><g transform="translate(95.06483, 123.629307)"><g><path d="M 2.40625 0.109375 C 1.976562 0.109375 1.617188 0 1.328125 -0.21875 C 1.046875 -0.445312 0.832031 -0.785156 0.6875 -1.234375 C 0.539062 -1.679688 0.46875 -2.234375 0.46875 -2.890625 C 0.46875 -3.535156 0.539062 -4.085938 0.6875 -4.546875 C 0.832031 -5.003906 1.050781 -5.351562 1.34375 -5.59375 C 1.632812 -5.84375 2 -5.96875 2.4375 -5.96875 C 2.65625 -5.96875 2.851562 -5.941406 3.03125 -5.890625 C 3.207031 -5.847656 3.375 -5.785156 3.53125 -5.703125 L 3.265625 -5.03125 C 3.140625 -5.09375 3.007812 -5.140625 2.875 -5.171875 C 2.75 -5.210938 2.625 -5.234375 2.5 -5.234375 C 2.238281 -5.234375 2.019531 -5.144531 1.84375 -4.96875 C 1.675781 -4.789062 1.546875 -4.53125 1.453125 -4.1875 C 1.359375 -3.84375 1.3125 -3.414062 1.3125 -2.90625 C 1.3125 -2.394531 1.351562 -1.96875 1.4375 -1.625 C 1.53125 -1.289062 1.664062 -1.035156 1.84375 -0.859375 C 2.019531 -0.691406 2.238281 -0.609375 2.5 -0.609375 C 2.65625 -0.609375 2.8125 -0.628906 2.96875 -0.671875 C 3.132812 -0.722656 3.300781 -0.789062 3.46875 -0.875 L 3.46875 -0.1875 C 3.3125 -0.09375 3.132812 -0.0195312 2.9375 0.03125 C 2.75 0.0820312 2.570312 0.109375 2.40625 0.109375 Z M 2.40625 0.109375 "/></g></g></g><g fill="#2d6d5e" fill-opacity="1"><g transform="translate(100.353414, 123.629307)"><g><path d="M 4.359375 -2.9375 C 4.359375 -2.476562 4.316406 -2.0625 4.234375 -1.6875 C 4.160156 -1.3125 4.039062 -0.988281 3.875 -0.71875 C 3.71875 -0.457031 3.515625 -0.253906 3.265625 -0.109375 C 3.023438 0.0351562 2.734375 0.109375 2.390625 0.109375 C 2.078125 0.109375 1.796875 0.0351562 1.546875 -0.109375 C 1.304688 -0.253906 1.101562 -0.457031 0.9375 -0.71875 C 0.78125 -0.976562 0.660156 -1.296875 0.578125 -1.671875 C 0.503906 -2.054688 0.46875 -2.476562 0.46875 -2.9375 C 0.46875 -3.582031 0.535156 -4.128906 0.671875 -4.578125 C 0.804688 -5.035156 1.019531 -5.378906 1.3125 -5.609375 C 1.601562 -5.847656 1.96875 -5.96875 2.40625 -5.96875 C 2.820312 -5.96875 3.175781 -5.851562 3.46875 -5.625 C 3.757812 -5.394531 3.976562 -5.054688 4.125 -4.609375 C 4.28125 -4.160156 4.359375 -3.601562 4.359375 -2.9375 Z M 1.296875 -2.9375 C 1.296875 -2.425781 1.332031 -2 1.40625 -1.65625 C 1.488281 -1.3125 1.613281 -1.050781 1.78125 -0.875 C 1.945312 -0.695312 2.160156 -0.609375 2.421875 -0.609375 C 2.671875 -0.609375 2.875 -0.691406 3.03125 -0.859375 C 3.195312 -1.035156 3.316406 -1.296875 3.390625 -1.640625 C 3.472656 -1.984375 3.515625 -2.414062 3.515625 -2.9375 C 3.515625 -3.445312 3.472656 -3.875 3.390625 -4.21875 C 3.316406 -4.5625 3.195312 -4.816406 3.03125 -4.984375 C 2.875 -5.160156 2.664062 -5.25 2.40625 -5.25 C 2.019531 -5.25 1.738281 -5.054688 1.5625 -4.671875 C 1.382812 -4.285156 1.296875 -3.707031 1.296875 -2.9375 Z M 1.296875 -2.9375 "/></g></g></g><g fill="#2d6d5e" fill-opacity="1"><g transform="translate(106.705142, 123.629307)"><g/></g></g><g fill="#2d6d5e" fill-opacity="1"><g transform="translate(110.268122, 123.629307)"><g><path d="M 2.328125 -5.953125 C 2.722656 -5.953125 3.050781 -5.835938 3.3125 -5.609375 C 3.570312 -5.378906 3.765625 -5.066406 3.890625 -4.671875 C 4.015625 -4.285156 4.078125 -3.851562 4.078125 -3.375 L 4.078125 -2.78125 L 1.28125 -2.78125 C 1.289062 -2.050781 1.40625 -1.503906 1.625 -1.140625 C 1.84375 -0.773438 2.171875 -0.59375 2.609375 -0.59375 C 2.828125 -0.59375 3.035156 -0.625 3.234375 -0.6875 C 3.441406 -0.75 3.648438 -0.851562 3.859375 -1 L 3.859375 -0.265625 C 3.660156 -0.140625 3.453125 -0.046875 3.234375 0.015625 C 3.015625 0.078125 2.78125 0.109375 2.53125 0.109375 C 2.039062 0.109375 1.644531 -0.0195312 1.34375 -0.28125 C 1.039062 -0.539062 0.816406 -0.898438 0.671875 -1.359375 C 0.535156 -1.816406 0.46875 -2.332031 0.46875 -2.90625 C 0.46875 -3.550781 0.535156 -4.101562 0.671875 -4.5625 C 0.816406 -5.019531 1.023438 -5.363281 1.296875 -5.59375 C 1.578125 -5.832031 1.921875 -5.953125 2.328125 -5.953125 Z M 2.328125 -5.28125 C 2.015625 -5.28125 1.769531 -5.128906 1.59375 -4.828125 C 1.425781 -4.535156 1.328125 -4.070312 1.296875 -3.4375 L 3.3125 -3.4375 C 3.3125 -3.769531 3.273438 -4.078125 3.203125 -4.359375 C 3.140625 -4.640625 3.035156 -4.863281 2.890625 -5.03125 C 2.742188 -5.195312 2.554688 -5.28125 2.328125 -5.28125 Z M 2.328125 -5.28125 "/></g></g></g><g fill="#2d6d5e" fill-opacity="1"><g transform="translate(45.025921, 136.320278)"><g><path d="M 2.828125 -5.96875 C 3.390625 -5.96875 3.816406 -5.710938 4.109375 -5.203125 C 4.398438 -4.703125 4.546875 -3.945312 4.546875 -2.9375 C 4.546875 -2.289062 4.476562 -1.738281 4.34375 -1.28125 C 4.21875 -0.832031 4.03125 -0.488281 3.78125 -0.25 C 3.53125 -0.0078125 3.226562 0.109375 2.875 0.109375 C 2.675781 0.109375 2.488281 0.0703125 2.3125 0 C 2.144531 -0.0820312 1.992188 -0.191406 1.859375 -0.328125 C 1.734375 -0.472656 1.625 -0.640625 1.53125 -0.828125 L 1.5 -0.828125 C 1.507812 -0.679688 1.515625 -0.539062 1.515625 -0.40625 C 1.523438 -0.28125 1.53125 -0.160156 1.53125 -0.046875 L 1.53125 2.609375 L 0.71875 2.609375 L 0.71875 -5.859375 L 1.390625 -5.859375 L 1.484375 -5 L 1.53125 -5 C 1.632812 -5.21875 1.75 -5.394531 1.875 -5.53125 C 2.007812 -5.675781 2.15625 -5.785156 2.3125 -5.859375 C 2.46875 -5.929688 2.640625 -5.96875 2.828125 -5.96875 Z M 2.65625 -5.265625 C 2.40625 -5.265625 2.195312 -5.1875 2.03125 -5.03125 C 1.875 -4.875 1.75 -4.632812 1.65625 -4.3125 C 1.570312 -4 1.53125 -3.601562 1.53125 -3.125 L 1.53125 -2.84375 C 1.53125 -2.34375 1.570312 -1.925781 1.65625 -1.59375 C 1.75 -1.257812 1.878906 -1.007812 2.046875 -0.84375 C 2.210938 -0.6875 2.421875 -0.609375 2.671875 -0.609375 C 2.898438 -0.609375 3.09375 -0.691406 3.25 -0.859375 C 3.40625 -1.023438 3.519531 -1.273438 3.59375 -1.609375 C 3.675781 -1.953125 3.71875 -2.394531 3.71875 -2.9375 C 3.71875 -3.707031 3.632812 -4.285156 3.46875 -4.671875 C 3.300781 -5.066406 3.03125 -5.265625 2.65625 -5.265625 Z M 2.65625 -5.265625 "/></g></g></g><g fill="#2d6d5e" fill-opacity="1"><g transform="translate(51.564634, 136.320278)"><g><path d="M 2.671875 -5.96875 C 2.753906 -5.96875 2.835938 -5.957031 2.921875 -5.9375 C 3.003906 -5.925781 3.085938 -5.910156 3.171875 -5.890625 L 3.046875 -5.046875 C 2.984375 -5.066406 2.914062 -5.082031 2.84375 -5.09375 C 2.769531 -5.101562 2.691406 -5.109375 2.609375 -5.109375 C 2.453125 -5.109375 2.304688 -5.054688 2.171875 -4.953125 C 2.035156 -4.847656 1.921875 -4.703125 1.828125 -4.515625 C 1.734375 -4.328125 1.660156 -4.109375 1.609375 -3.859375 C 1.554688 -3.609375 1.53125 -3.34375 1.53125 -3.0625 L 1.53125 0 L 0.71875 0 L 0.71875 -5.859375 L 1.359375 -5.859375 L 1.46875 -4.828125 L 1.515625 -4.828125 C 1.597656 -5.046875 1.691406 -5.238281 1.796875 -5.40625 C 1.910156 -5.582031 2.039062 -5.71875 2.1875 -5.8125 C 2.332031 -5.914062 2.492188 -5.96875 2.671875 -5.96875 Z M 2.671875 -5.96875 "/></g></g></g><g fill="#2d6d5e" fill-opacity="1"><g transform="translate(56.377742, 136.320278)"><g><path d="M 2.328125 -5.953125 C 2.722656 -5.953125 3.050781 -5.835938 3.3125 -5.609375 C 3.570312 -5.378906 3.765625 -5.066406 3.890625 -4.671875 C 4.015625 -4.285156 4.078125 -3.851562 4.078125 -3.375 L 4.078125 -2.78125 L 1.28125 -2.78125 C 1.289062 -2.050781 1.40625 -1.503906 1.625 -1.140625 C 1.84375 -0.773438 2.171875 -0.59375 2.609375 -0.59375 C 2.828125 -0.59375 3.035156 -0.625 3.234375 -0.6875 C 3.441406 -0.75 3.648438 -0.851562 3.859375 -1 L 3.859375 -0.265625 C 3.660156 -0.140625 3.453125 -0.046875 3.234375 0.015625 C 3.015625 0.078125 2.78125 0.109375 2.53125 0.109375 C 2.039062 0.109375 1.644531 -0.0195312 1.34375 -0.28125 C 1.039062 -0.539062 0.816406 -0.898438 0.671875 -1.359375 C 0.535156 -1.816406 0.46875 -2.332031 0.46875 -2.90625 C 0.46875 -3.550781 0.535156 -4.101562 0.671875 -4.5625 C 0.816406 -5.019531 1.023438 -5.363281 1.296875 -5.59375 C 1.578125 -5.832031 1.921875 -5.953125 2.328125 -5.953125 Z M 2.328125 -5.28125 C 2.015625 -5.28125 1.769531 -5.128906 1.59375 -4.828125 C 1.425781 -4.535156 1.328125 -4.070312 1.296875 -3.4375 L 3.3125 -3.4375 C 3.3125 -3.769531 3.273438 -4.078125 3.203125 -4.359375 C 3.140625 -4.640625 3.035156 -4.863281 2.890625 -5.03125 C 2.742188 -5.195312 2.554688 -5.28125 2.328125 -5.28125 Z M 2.328125 -5.28125 "/></g></g></g><g fill="#2d6d5e" fill-opacity="1"><g transform="translate(62.435636, 136.320278)"><g><path d="M 3.328125 -1.546875 C 3.328125 -1.191406 3.257812 -0.890625 3.125 -0.640625 C 3 -0.398438 2.8125 -0.210938 2.5625 -0.078125 C 2.320312 0.046875 2.03125 0.109375 1.6875 0.109375 C 1.414062 0.109375 1.164062 0.078125 0.9375 0.015625 C 0.71875 -0.046875 0.53125 -0.125 0.375 -0.21875 L 0.375 -1.078125 C 0.53125 -0.941406 0.722656 -0.832031 0.953125 -0.75 C 1.179688 -0.664062 1.414062 -0.625 1.65625 -0.625 C 1.925781 -0.625 2.132812 -0.703125 2.28125 -0.859375 C 2.4375 -1.015625 2.515625 -1.234375 2.515625 -1.515625 C 2.515625 -1.679688 2.484375 -1.828125 2.421875 -1.953125 C 2.359375 -2.078125 2.257812 -2.195312 2.125 -2.3125 C 1.988281 -2.425781 1.816406 -2.546875 1.609375 -2.671875 C 1.359375 -2.816406 1.140625 -2.96875 0.953125 -3.125 C 0.765625 -3.289062 0.617188 -3.476562 0.515625 -3.6875 C 0.421875 -3.894531 0.375 -4.144531 0.375 -4.4375 C 0.375 -4.894531 0.519531 -5.265625 0.8125 -5.546875 C 1.113281 -5.828125 1.503906 -5.96875 1.984375 -5.96875 C 2.234375 -5.96875 2.46875 -5.9375 2.6875 -5.875 C 2.90625 -5.8125 3.113281 -5.71875 3.3125 -5.59375 L 3 -4.9375 C 2.851562 -5.039062 2.691406 -5.117188 2.515625 -5.171875 C 2.347656 -5.234375 2.175781 -5.265625 2 -5.265625 C 1.738281 -5.265625 1.53125 -5.191406 1.375 -5.046875 C 1.226562 -4.898438 1.15625 -4.707031 1.15625 -4.46875 C 1.15625 -4.300781 1.1875 -4.15625 1.25 -4.03125 C 1.3125 -3.914062 1.410156 -3.800781 1.546875 -3.6875 C 1.679688 -3.582031 1.863281 -3.460938 2.09375 -3.328125 C 2.34375 -3.171875 2.554688 -3.015625 2.734375 -2.859375 C 2.921875 -2.703125 3.066406 -2.519531 3.171875 -2.3125 C 3.273438 -2.101562 3.328125 -1.847656 3.328125 -1.546875 Z M 3.328125 -1.546875 "/></g></g></g><g fill="#2d6d5e" fill-opacity="1"><g transform="translate(67.644084, 136.320278)"><g><path d="M 2.328125 -5.953125 C 2.722656 -5.953125 3.050781 -5.835938 3.3125 -5.609375 C 3.570312 -5.378906 3.765625 -5.066406 3.890625 -4.671875 C 4.015625 -4.285156 4.078125 -3.851562 4.078125 -3.375 L 4.078125 -2.78125 L 1.28125 -2.78125 C 1.289062 -2.050781 1.40625 -1.503906 1.625 -1.140625 C 1.84375 -0.773438 2.171875 -0.59375 2.609375 -0.59375 C 2.828125 -0.59375 3.035156 -0.625 3.234375 -0.6875 C 3.441406 -0.75 3.648438 -0.851562 3.859375 -1 L 3.859375 -0.265625 C 3.660156 -0.140625 3.453125 -0.046875 3.234375 0.015625 C 3.015625 0.078125 2.78125 0.109375 2.53125 0.109375 C 2.039062 0.109375 1.644531 -0.0195312 1.34375 -0.28125 C 1.039062 -0.539062 0.816406 -0.898438 0.671875 -1.359375 C 0.535156 -1.816406 0.46875 -2.332031 0.46875 -2.90625 C 0.46875 -3.550781 0.535156 -4.101562 0.671875 -4.5625 C 0.816406 -5.019531 1.023438 -5.363281 1.296875 -5.59375 C 1.578125 -5.832031 1.921875 -5.953125 2.328125 -5.953125 Z M 2.328125 -5.28125 C 2.015625 -5.28125 1.769531 -5.128906 1.59375 -4.828125 C 1.425781 -4.535156 1.328125 -4.070312 1.296875 -3.4375 L 3.3125 -3.4375 C 3.3125 -3.769531 3.273438 -4.078125 3.203125 -4.359375 C 3.140625 -4.640625 3.035156 -4.863281 2.890625 -5.03125 C 2.742188 -5.195312 2.554688 -5.28125 2.328125 -5.28125 Z M 2.328125 -5.28125 "/></g></g></g><g fill="#2d6d5e" fill-opacity="1"><g transform="translate(73.701978, 136.320278)"><g><path d="M 2.828125 -5.96875 C 3.285156 -5.96875 3.632812 -5.804688 3.875 -5.484375 C 4.113281 -5.160156 4.234375 -4.664062 4.234375 -4 L 4.234375 0 L 3.40625 0 L 3.40625 -3.828125 C 3.40625 -4.304688 3.34375 -4.660156 3.21875 -4.890625 C 3.101562 -5.128906 2.914062 -5.25 2.65625 -5.25 C 2.269531 -5.25 1.984375 -5.078125 1.796875 -4.734375 C 1.617188 -4.390625 1.53125 -3.84375 1.53125 -3.09375 L 1.53125 0 L 0.71875 0 L 0.71875 -5.859375 L 1.375 -5.859375 L 1.46875 -5.015625 L 1.515625 -5.015625 C 1.597656 -5.210938 1.703125 -5.378906 1.828125 -5.515625 C 1.960938 -5.660156 2.113281 -5.769531 2.28125 -5.84375 C 2.445312 -5.925781 2.628906 -5.96875 2.828125 -5.96875 Z M 2.828125 -5.96875 "/></g></g></g><g fill="#2d6d5e" fill-opacity="1"><g transform="translate(80.165897, 136.320278)"><g><path d="M 2.40625 0.109375 C 1.976562 0.109375 1.617188 0 1.328125 -0.21875 C 1.046875 -0.445312 0.832031 -0.785156 0.6875 -1.234375 C 0.539062 -1.679688 0.46875 -2.234375 0.46875 -2.890625 C 0.46875 -3.535156 0.539062 -4.085938 0.6875 -4.546875 C 0.832031 -5.003906 1.050781 -5.351562 1.34375 -5.59375 C 1.632812 -5.84375 2 -5.96875 2.4375 -5.96875 C 2.65625 -5.96875 2.851562 -5.941406 3.03125 -5.890625 C 3.207031 -5.847656 3.375 -5.785156 3.53125 -5.703125 L 3.265625 -5.03125 C 3.140625 -5.09375 3.007812 -5.140625 2.875 -5.171875 C 2.75 -5.210938 2.625 -5.234375 2.5 -5.234375 C 2.238281 -5.234375 2.019531 -5.144531 1.84375 -4.96875 C 1.675781 -4.789062 1.546875 -4.53125 1.453125 -4.1875 C 1.359375 -3.84375 1.3125 -3.414062 1.3125 -2.90625 C 1.3125 -2.394531 1.351562 -1.96875 1.4375 -1.625 C 1.53125 -1.289062 1.664062 -1.035156 1.84375 -0.859375 C 2.019531 -0.691406 2.238281 -0.609375 2.5 -0.609375 C 2.65625 -0.609375 2.8125 -0.628906 2.96875 -0.671875 C 3.132812 -0.722656 3.300781 -0.789062 3.46875 -0.875 L 3.46875 -0.1875 C 3.3125 -0.09375 3.132812 -0.0195312 2.9375 0.03125 C 2.75 0.0820312 2.570312 0.109375 2.40625 0.109375 Z M 3.3125 1.515625 C 3.3125 1.867188 3.195312 2.140625 2.96875 2.328125 C 2.738281 2.523438 2.425781 2.625 2.03125 2.625 C 1.90625 2.625 1.789062 2.617188 1.6875 2.609375 C 1.582031 2.597656 1.492188 2.582031 1.421875 2.5625 L 1.421875 2.015625 C 1.492188 2.035156 1.570312 2.050781 1.65625 2.0625 C 1.738281 2.070312 1.820312 2.078125 1.90625 2.078125 C 2.144531 2.078125 2.320312 2.023438 2.4375 1.921875 C 2.5625 1.816406 2.625 1.679688 2.625 1.515625 C 2.625 1.316406 2.546875 1.164062 2.390625 1.0625 C 2.234375 0.96875 2.023438 0.898438 1.765625 0.859375 L 2.140625 0 L 2.640625 0 L 2.40625 0.5625 C 2.601562 0.601562 2.769531 0.664062 2.90625 0.75 C 3.039062 0.832031 3.140625 0.9375 3.203125 1.0625 C 3.273438 1.195312 3.3125 1.347656 3.3125 1.515625 Z M 3.3125 1.515625 "/></g></g></g><g fill="#2d6d5e" fill-opacity="1"><g transform="translate(85.454482, 136.320278)"><g><path d="M 2.28125 -5.96875 C 2.820312 -5.96875 3.207031 -5.796875 3.4375 -5.453125 C 3.675781 -5.109375 3.796875 -4.609375 3.796875 -3.953125 L 3.796875 0 L 3.171875 0 L 3.046875 -0.828125 L 3.015625 -0.828125 C 2.929688 -0.628906 2.820312 -0.457031 2.6875 -0.3125 C 2.5625 -0.175781 2.414062 -0.0703125 2.25 0 C 2.09375 0.0703125 1.90625 0.109375 1.6875 0.109375 C 1.382812 0.109375 1.132812 0.03125 0.9375 -0.125 C 0.75 -0.289062 0.609375 -0.503906 0.515625 -0.765625 C 0.421875 -1.023438 0.375 -1.304688 0.375 -1.609375 C 0.375 -2.191406 0.539062 -2.640625 0.875 -2.953125 C 1.21875 -3.273438 1.695312 -3.453125 2.3125 -3.484375 L 2.96875 -3.53125 L 2.96875 -3.9375 C 2.96875 -4.40625 2.90625 -4.742188 2.78125 -4.953125 C 2.65625 -5.171875 2.445312 -5.28125 2.15625 -5.28125 C 2 -5.28125 1.828125 -5.25 1.640625 -5.1875 C 1.460938 -5.132812 1.269531 -5.046875 1.0625 -4.921875 L 0.796875 -5.546875 C 1.015625 -5.691406 1.25 -5.796875 1.5 -5.859375 C 1.757812 -5.929688 2.019531 -5.96875 2.28125 -5.96875 Z M 2.984375 -2.921875 L 2.4375 -2.890625 C 2.03125 -2.867188 1.722656 -2.753906 1.515625 -2.546875 C 1.316406 -2.335938 1.21875 -2.035156 1.21875 -1.640625 C 1.21875 -1.265625 1.28125 -0.988281 1.40625 -0.8125 C 1.539062 -0.644531 1.722656 -0.5625 1.953125 -0.5625 C 2.285156 -0.5625 2.539062 -0.71875 2.71875 -1.03125 C 2.894531 -1.34375 2.984375 -1.773438 2.984375 -2.328125 Z M 2.984375 -2.921875 "/></g></g></g><path fill="#0661aa" d="M 64.71875 29.695312 C 64.523438 29.535156 64.363281 29.464844 64.097656 29.5 C 63.9375 29.515625 63.65625 29.625 63.496094 29.570312 C 63.265625 29.5 63.105469 28.914062 62.949219 28.703125 C 62.574219 28.207031 62.027344 28.082031 61.53125 28.507812 C 61.300781 28.703125 61.191406 28.949219 61.121094 29.234375 C 61.070312 29.515625 61.070312 29.90625 60.785156 30.085938 C 60.554688 30.226562 60.21875 30.242188 59.96875 30.207031 C 59.792969 30.191406 59.351562 29.960938 59.28125 30.277344 C 59.226562 30.472656 59.5625 30.722656 59.742188 30.773438 C 60.023438 30.882812 60.394531 30.847656 60.695312 30.757812 C 61.246094 30.617188 61.53125 30.242188 61.617188 29.675781 C 61.652344 29.410156 61.777344 28.703125 62.222656 28.863281 C 62.609375 29.003906 62.71875 29.695312 63 29.941406 C 63.371094 30.277344 64.027344 29.960938 64.453125 30.207031 C 64.738281 30.367188 64.933594 30.542969 65.269531 30.492188 C 65.621094 30.457031 66.046875 30.207031 66.191406 29.890625 C 66.3125 29.640625 66.207031 29.339844 66.277344 29.074219 C 66.367188 28.71875 66.472656 28.558594 66.347656 28.207031 C 66.3125 28.082031 66.226562 27.832031 66.261719 27.726562 C 66.277344 27.640625 66.402344 27.53125 66.492188 27.460938 C 67.039062 27.035156 67.359375 27.566406 67.855469 27.816406 C 68.15625 27.976562 68.652344 27.796875 68.917969 28.011719 C 69.042969 28.117188 69.078125 28.367188 69.148438 28.523438 C 69.273438 28.898438 69.378906 29.214844 69.308594 29.625 C 69.183594 30.316406 69.433594 30.917969 70.160156 31.113281 C 70.601562 31.234375 71.347656 31.253906 71.71875 30.917969 C 71.914062 30.738281 71.859375 30.507812 71.804688 30.261719 C 71.753906 30.011719 71.71875 29.871094 72.019531 29.976562 C 72.355469 30.085938 72.496094 30.351562 72.65625 30.652344 C 72.851562 31.003906 73.136719 31.183594 73.4375 31.449219 C 73.613281 31.625 73.667969 31.855469 73.898438 32.015625 C 74.164062 32.175781 74.554688 32.191406 74.855469 32.140625 C 75.101562 32.085938 75.316406 31.925781 75.457031 31.730469 C 75.632812 31.484375 75.511719 31.234375 75.617188 30.96875 C 75.6875 30.773438 75.792969 30.828125 75.988281 30.898438 C 76.34375 31.023438 76.394531 31.113281 76.484375 31.449219 C 76.609375 31.980469 77.335938 31.910156 77.777344 31.875 C 78.257812 31.839844 78.734375 31.695312 78.769531 31.148438 C 78.804688 30.847656 78.609375 30.011719 78.203125 29.960938 C 77.726562 29.925781 78.378906 30.828125 78.308594 31.09375 C 78.183594 31.539062 77.40625 31.464844 77.191406 31.164062 C 77.035156 30.933594 76.980469 30.738281 76.730469 30.582031 C 76.484375 30.402344 76.164062 30.296875 75.847656 30.296875 C 75.652344 30.296875 75.386719 30.332031 75.226562 30.457031 C 75.03125 30.632812 75.066406 30.917969 75.03125 31.148438 C 74.976562 31.464844 74.765625 31.660156 74.429688 31.539062 C 74.144531 31.429688 74.058594 31.078125 73.808594 30.882812 C 73.257812 30.492188 73.082031 29.800781 72.445312 29.5 C 71.984375 29.304688 71.238281 29.304688 71.238281 29.925781 C 71.238281 30.085938 71.363281 30.386719 71.257812 30.507812 C 71.152344 30.652344 70.742188 30.5625 70.601562 30.542969 C 70.40625 30.507812 70.160156 30.457031 70.035156 30.261719 C 69.875 30.03125 70.015625 29.765625 70.070312 29.515625 C 70.175781 28.96875 69.910156 28.257812 69.609375 27.796875 C 69.273438 27.285156 68.882812 27.410156 68.351562 27.265625 C 68.03125 27.195312 67.835938 26.929688 67.535156 26.804688 C 67.289062 26.699219 66.933594 26.664062 66.667969 26.734375 C 66.226562 26.824219 65.746094 27.335938 65.800781 27.816406 C 65.871094 28.3125 65.871094 28.773438 65.816406 29.269531 C 65.695312 29.976562 65.234375 30.121094 64.71875 29.695312 " fill-opacity="1" fill-rule="nonzero"/><path fill="#0661aa" d="M 80.082031 37.492188 C 79.726562 37.492188 79.335938 37.453125 79.054688 37.667969 C 78.699219 37.933594 78.804688 38.324219 78.769531 38.695312 C 78.734375 39.121094 78.433594 39.402344 78.203125 39.742188 C 77.902344 40.164062 77.707031 40.644531 77.421875 41.070312 C 77.191406 41.441406 76.996094 41.316406 76.625 41.210938 C 76.34375 41.121094 75.847656 41.035156 76.007812 40.664062 C 76.484375 39.527344 75.242188 39.050781 74.285156 39.121094 C 73.863281 39.15625 73.683594 39.351562 73.4375 39.6875 C 73.222656 40.007812 72.886719 40.058594 72.515625 39.953125 C 72.109375 39.828125 72.035156 39.476562 71.878906 39.101562 C 71.789062 38.90625 71.648438 38.695312 71.46875 38.570312 C 71.292969 38.445312 71.097656 38.445312 70.921875 38.324219 C 70.511719 38.003906 70.921875 37.703125 70.777344 37.296875 C 70.636719 36.90625 70.371094 36.800781 70.601562 36.339844 C 70.761719 36.003906 71.0625 35.753906 70.972656 35.347656 C 70.851562 34.886719 70.425781 34.53125 70.160156 34.175781 C 69.875 33.804688 69.714844 33.433594 69.714844 32.972656 C 69.714844 32.867188 69.785156 32.421875 69.664062 32.386719 C 69.503906 32.335938 69.398438 32.652344 69.378906 32.757812 C 69.273438 33.148438 69.289062 33.644531 69.359375 34.035156 C 69.449219 34.496094 69.820312 34.761719 70.125 35.117188 C 70.460938 35.503906 70.195312 35.773438 69.980469 36.160156 C 69.875 36.355469 69.785156 36.605469 69.804688 36.835938 C 69.820312 37.066406 69.964844 37.222656 70.050781 37.4375 C 70.195312 37.863281 70 38.269531 70.335938 38.640625 C 70.636719 38.980469 71.117188 39.050781 71.363281 39.476562 C 71.59375 39.863281 71.769531 40.324219 72.25 40.503906 C 72.585938 40.625 73.136719 40.625 73.453125 40.46875 C 73.828125 40.289062 73.933594 39.777344 74.324219 39.707031 C 74.605469 39.652344 75.351562 39.742188 75.492188 40.058594 C 75.617188 40.394531 75.207031 40.75 75.367188 41.121094 C 75.546875 41.546875 76.199219 41.726562 76.589844 41.8125 C 76.960938 41.902344 77.476562 41.972656 77.777344 41.691406 C 78.132812 41.335938 78.238281 40.734375 78.523438 40.34375 C 78.789062 39.953125 79.160156 39.632812 79.320312 39.15625 C 79.425781 38.855469 79.210938 38.199219 79.480469 38.074219 C 79.585938 38.023438 79.832031 38.039062 79.9375 38.039062 C 80.277344 38.003906 80.613281 38.003906 80.929688 37.933594 C 81.195312 37.878906 81.425781 37.773438 81.535156 37.507812 C 81.640625 37.222656 81.675781 36.765625 81.515625 36.515625 C 81.410156 36.339844 80.683594 35.71875 80.808594 36.285156 C 80.859375 36.585938 81.390625 36.851562 81.195312 37.222656 C 81.003906 37.542969 80.328125 37.492188 80.082031 37.492188 " fill-opacity="1" fill-rule="nonzero"/><path fill="#0661aa" d="M 47.957031 32.335938 C 47.566406 32.671875 47.070312 32.707031 46.609375 32.511719 C 46.273438 32.371094 46.417969 32.757812 46.523438 32.847656 C 46.824219 33.148438 47.585938 33.113281 47.941406 32.917969 C 48.242188 32.757812 48.4375 32.636719 48.613281 32.335938 C 48.808594 31.996094 48.703125 31.660156 48.789062 31.304688 C 48.96875 30.5625 49.675781 31.660156 49.925781 31.75 C 50.632812 32.015625 51.148438 31.324219 51.464844 30.8125 C 51.660156 30.492188 51.765625 30.046875 52.070312 29.820312 C 52.351562 29.585938 52.476562 29.746094 52.722656 29.90625 C 53.34375 30.351562 54.210938 29.660156 54.160156 28.984375 C 54.125 28.632812 54.210938 28.507812 54.601562 28.417969 C 55.046875 28.328125 55.347656 28.613281 55.769531 28.667969 C 56.515625 28.753906 57.152344 28.367188 57.082031 27.585938 C 57.066406 27.320312 56.996094 27.179688 57.242188 27.019531 C 57.5625 26.839844 57.84375 26.789062 58.144531 27.019531 C 58.640625 27.390625 59.28125 28.117188 60.007812 27.710938 C 60.273438 27.550781 60.308594 27.230469 60.289062 26.949219 C 60.273438 26.574219 60.042969 26.453125 59.917969 26.878906 C 59.847656 27.125 59.828125 27.335938 59.511719 27.25 C 59.121094 27.160156 58.855469 26.753906 58.535156 26.539062 C 58.074219 26.203125 57.136719 26.328125 56.746094 26.71875 C 56.339844 27.125 56.886719 28.1875 55.984375 28.117188 C 55.683594 28.082031 55.417969 27.871094 55.117188 27.851562 C 54.78125 27.816406 54.441406 27.886719 54.140625 28.011719 C 53.894531 28.136719 53.699219 28.277344 53.644531 28.558594 C 53.59375 28.863281 53.75 29.324219 53.328125 29.445312 C 53.097656 29.515625 53.132812 29.394531 52.988281 29.285156 C 52.847656 29.179688 52.671875 29.144531 52.511719 29.144531 C 52.121094 29.144531 51.785156 29.375 51.535156 29.660156 C 51.253906 30.03125 50.722656 31.644531 50.046875 31.128906 C 49.675781 30.847656 49.570312 30.421875 49.019531 30.527344 C 48.667969 30.597656 48.347656 30.8125 48.3125 31.199219 C 48.292969 31.394531 48.382812 31.589844 48.347656 31.785156 C 48.292969 32.015625 48.136719 32.191406 47.957031 32.335938 " fill-opacity="1" fill-rule="nonzero"/><path fill="#0661aa" d="M 31.460938 49.308594 C 31.160156 49.554688 30.804688 49.894531 30.398438 49.839844 C 30.027344 49.804688 29.796875 49.644531 29.425781 49.820312 C 28.539062 50.265625 28.078125 51.273438 27.085938 51.578125 C 26.625 51.71875 26.09375 51.753906 25.597656 51.769531 C 25.472656 51.769531 25.3125 51.789062 25.191406 51.71875 C 25.066406 51.648438 24.996094 51.46875 24.851562 51.453125 C 24.640625 51.433594 24.675781 51.683594 24.710938 51.84375 C 24.765625 52.054688 24.90625 52.144531 25.101562 52.25 C 25.527344 52.460938 25.953125 52.355469 26.410156 52.285156 C 27.332031 52.125 27.9375 51.769531 28.628906 51.132812 C 28.945312 50.832031 29.300781 50.371094 29.707031 50.195312 C 29.992188 50.070312 30.347656 50.265625 30.648438 50.265625 C 31.109375 50.28125 31.460938 49.894531 31.796875 49.59375 C 32.136719 49.289062 32.347656 49.007812 32.367188 48.5625 C 32.402344 48.050781 32.5625 47.785156 33.074219 47.605469 C 33.5 47.464844 33.835938 48.050781 34.171875 48.261719 C 34.652344 48.5625 35.164062 48.5625 35.695312 48.351562 C 36.121094 48.175781 36.617188 47.890625 36.671875 47.378906 C 36.6875 47.148438 36.617188 46.953125 36.53125 46.757812 C 36.492188 46.667969 36.351562 46.472656 36.351562 46.367188 C 36.371094 46.121094 36.917969 46.011719 37.132812 46.011719 C 37.503906 45.996094 37.910156 46.082031 38.054688 46.457031 C 38.230469 46.917969 38.671875 47.09375 39.152344 47.21875 C 39.648438 47.339844 40.214844 47.449219 40.710938 47.324219 C 41.136719 47.21875 41.507812 46.988281 41.953125 46.863281 C 42.90625 46.617188 43.101562 45.625 42.429688 44.933594 C 42.128906 44.632812 41.453125 44.222656 41.011719 44.417969 C 40.65625 44.558594 40.765625 45.304688 41.011719 45.109375 C 41.136719 45.019531 41.03125 44.859375 41.207031 44.824219 C 41.402344 44.773438 41.792969 44.984375 41.953125 45.089844 C 42.234375 45.285156 42.554688 45.835938 42.234375 46.121094 C 42.09375 46.261719 41.828125 46.277344 41.632812 46.347656 C 41.367188 46.4375 41.117188 46.597656 40.851562 46.703125 C 40.425781 46.882812 40.039062 46.863281 39.59375 46.757812 C 39.347656 46.6875 39.082031 46.632812 38.851562 46.492188 C 38.65625 46.367188 38.621094 46.191406 38.496094 45.996094 C 38.265625 45.625 37.875 45.515625 37.46875 45.5 C 37.007812 45.480469 36.40625 45.5 36.050781 45.851562 C 35.695312 46.207031 35.875 46.542969 36.070312 46.953125 C 36.300781 47.429688 36.050781 47.625 35.625 47.839844 C 35.128906 48.085938 34.757812 48.105469 34.332031 47.75 C 33.890625 47.394531 33.535156 47.074219 32.933594 47.234375 C 32.507812 47.359375 32.027344 47.695312 31.957031 48.15625 C 31.921875 48.351562 31.976562 48.582031 31.921875 48.777344 C 31.851562 49.007812 31.640625 49.167969 31.460938 49.308594 " fill-opacity="1" fill-rule="nonzero"/><g clip-path="url(#0258707a7f)"><path fill="#0661aa" d="M 101.929688 65.980469 C 101.890625 66.015625 101.503906 66.035156 101.058594 66.035156 L 100.246094 66.035156 L 99.660156 65.484375 C 99.253906 65.09375 98.96875 64.707031 98.683594 64.121094 C 98.332031 63.394531 98.277344 63.21875 98.242188 62.472656 C 98.1875 61.515625 98.347656 61.039062 98.914062 60.328125 C 99.253906 59.886719 99.269531 59.886719 99.730469 60.117188 C 99.996094 60.242188 100.066406 60.347656 100.066406 60.558594 C 100.066406 60.933594 100.296875 61.339844 100.6875 61.675781 C 101.023438 61.941406 101.023438 61.960938 100.917969 62.332031 C 100.652344 63.289062 100.988281 64.671875 101.699219 65.574219 C 101.855469 65.75 101.964844 65.945312 101.929688 65.980469 Z M 97.410156 65.964844 C 96.117188 65.929688 95.175781 65.875 95.054688 65.804688 C 94.769531 65.664062 94.238281 64.652344 94.027344 63.855469 C 93.617188 62.296875 94.097656 60.773438 95.496094 59.179688 C 95.796875 58.839844 96.097656 58.539062 96.167969 58.503906 C 96.242188 58.46875 96.433594 58.574219 96.613281 58.699219 C 97.039062 59.054688 97.234375 58.984375 97.410156 58.433594 C 97.460938 58.273438 97.851562 58.1875 97.976562 58.328125 C 98.011719 58.363281 97.765625 58.683594 97.425781 59.035156 C 96.3125 60.257812 95.691406 61.535156 95.671875 62.703125 C 95.65625 63.199219 95.707031 63.429688 95.78125 63.464844 C 95.867188 63.5 95.902344 63.359375 95.902344 62.988281 C 95.902344 62.03125 96.382812 60.808594 97.179688 59.816406 C 97.746094 59.089844 98.261719 58.574219 98.402344 58.574219 C 98.472656 58.574219 98.648438 58.804688 98.808594 59.089844 L 99.09375 59.601562 L 98.757812 59.921875 C 98.578125 60.097656 98.296875 60.507812 98.136719 60.84375 C 97.425781 62.277344 97.800781 64.140625 99.058594 65.449219 L 99.570312 65.980469 Z M 90.925781 65.589844 C 84.121094 64.972656 77.761719 63.5 73.171875 61.464844 C 71.878906 60.894531 71.503906 60.703125 70.035156 59.851562 L 69.253906 59.40625 L 69.980469 59.390625 C 73.117188 59.300781 77.335938 58.609375 82.117188 57.421875 C 84.296875 56.875 86.496094 56.148438 90.109375 54.785156 C 95.78125 52.640625 99.660156 51.523438 102.972656 51.097656 C 104.230469 50.9375 106.285156 50.972656 107.085938 51.1875 C 107.402344 51.273438 107.898438 51.453125 108.199219 51.613281 C 108.695312 51.859375 108.75 51.914062 108.910156 52.425781 C 109.105469 53.046875 109.316406 53.242188 109.972656 53.382812 C 111.140625 53.632812 111.210938 53.667969 111.40625 54.128906 C 111.53125 54.394531 111.707031 54.605469 111.886719 54.710938 C 112.503906 55.066406 112.503906 55.066406 112.292969 55.351562 C 112.027344 55.6875 112.097656 55.847656 112.628906 56.042969 C 114.136719 56.609375 114.5625 57.496094 113.796875 58.433594 C 113.570312 58.699219 113.570312 58.699219 113.214844 58.558594 C 112.238281 58.148438 111.761719 58.769531 112.542969 59.460938 C 112.628906 59.550781 112.894531 59.726562 112.894531 59.851562 C 112.894531 59.957031 112.664062 60.097656 112.59375 60.167969 C 112.417969 60.328125 112.3125 60.488281 112.3125 60.71875 C 112.3125 60.914062 112.117188 60.824219 111.761719 60.664062 C 111.28125 60.472656 110.785156 60.488281 110.539062 60.683594 C 110.273438 60.878906 110.273438 61.199219 110.644531 61.851562 C 110.804688 62.136719 110.910156 62.4375 110.894531 62.507812 C 110.804688 62.757812 110.078125 62.863281 109.527344 62.738281 C 109.40625 62.703125 109.175781 62.667969 109.085938 62.578125 C 108.996094 62.457031 109.03125 62.136719 109.03125 61.996094 C 109.070312 61.269531 108.980469 61.144531 108.535156 60.96875 C 108.074219 60.789062 107.632812 60.808594 107.261719 61.019531 C 106.835938 61.285156 106.765625 61.621094 107.03125 62.152344 C 107.296875 62.6875 107.296875 62.828125 107.03125 62.96875 C 106.730469 63.128906 105.4375 63.039062 105.011719 62.808594 C 104.566406 62.578125 104.550781 62.527344 104.601562 62.066406 C 104.640625 61.800781 104.285156 61.535156 104.054688 61.339844 C 103.769531 61.089844 103.644531 60.914062 103.644531 60.738281 C 103.644531 60.347656 103.382812 60.132812 102.902344 60.132812 C 102.351562 60.132812 102.105469 60.382812 102.105469 60.894531 C 102.105469 61.375 101.929688 61.535156 101.449219 61.464844 C 100.9375 61.375 100.632812 61.039062 100.5625 60.4375 C 100.511719 59.957031 100.492188 59.9375 100.066406 59.710938 C 99.730469 59.53125 99.554688 59.355469 99.359375 59.019531 C 99.058594 58.449219 98.773438 58.167969 98.296875 57.972656 C 97.746094 57.742188 97.195312 57.722656 97.019531 58.0625 C 96.984375 58.113281 96.964844 58.308594 96.878906 58.308594 C 96.648438 58.292969 96.363281 57.8125 96.222656 57.617188 C 95.265625 56.308594 95.105469 56.308594 94.609375 56.234375 C 94.027344 56.148438 93.53125 56.308594 93.28125 56.679688 C 93.085938 56.964844 93.070312 57.28125 93.210938 58.078125 C 93.246094 58.257812 93.191406 58.273438 92.855469 58.257812 C 92.308594 58.222656 91.933594 58.0625 91.933594 57.832031 C 91.933594 57.722656 91.8125 57.53125 91.6875 57.386719 C 91.472656 57.175781 91.386719 57.140625 90.960938 57.191406 C 90.164062 57.265625 89.738281 57.847656 89.933594 58.609375 C 90.074219 59.195312 89.96875 59.265625 89.257812 59.054688 C 88.480469 58.839844 88.230469 58.910156 87.894531 59.441406 C 87.734375 59.691406 87.453125 59.992188 87.238281 60.132812 C 87.042969 60.277344 86.65625 60.578125 86.40625 60.824219 C 86.28125 60.933594 86.105469 61.199219 85.945312 61.269531 C 85.75 61.355469 85.308594 61.304688 85.09375 61.304688 C 84.421875 61.339844 84.175781 61.304688 83.910156 61.160156 C 83.589844 61.003906 83.570312 60.96875 83.605469 60.542969 C 83.640625 60.152344 83.605469 60.0625 83.375 59.886719 C 82.808594 59.425781 81.835938 59.796875 81.765625 60.488281 C 81.730469 60.859375 81.5 60.933594 80.753906 60.753906 C 80.292969 60.648438 80.203125 60.664062 79.726562 60.859375 C 79.210938 61.074219 79.175781 61.074219 78.789062 60.933594 C 78.34375 60.753906 78.222656 60.789062 78.222656 61.054688 C 78.222656 61.570312 79.230469 61.765625 79.921875 61.355469 C 80.222656 61.179688 80.328125 61.160156 80.578125 61.234375 C 80.96875 61.375 81.675781 61.355469 81.921875 61.214844 C 82.207031 61.074219 82.277344 60.949219 82.277344 60.628906 C 82.277344 60.433594 82.347656 60.347656 82.527344 60.277344 C 82.933594 60.117188 83.074219 60.242188 83.003906 60.683594 C 82.953125 61.019531 82.96875 61.089844 83.199219 61.339844 C 83.570312 61.710938 84.121094 61.851562 85.203125 61.816406 C 85.433594 61.800781 85.894531 61.871094 86.105469 61.78125 C 86.335938 61.695312 86.691406 61.285156 86.886719 61.125 C 88.070312 60.117188 88.125 60.0625 88.320312 59.710938 C 88.480469 59.425781 88.515625 59.390625 88.796875 59.460938 C 90.234375 59.761719 90.605469 59.585938 90.394531 58.59375 C 90.304688 58.148438 90.304688 58.113281 90.550781 57.902344 C 90.925781 57.566406 91.296875 57.636719 91.402344 58.042969 C 91.457031 58.238281 91.582031 58.398438 91.703125 58.46875 L 91.933594 58.574219 L 91.597656 59.160156 C 91.15625 59.957031 90.976562 60.738281 90.976562 61.800781 C 90.976562 62.667969 91.171875 63.605469 91.367188 63.730469 C 91.546875 63.835938 91.546875 63.730469 91.402344 63.253906 C 91.316406 62.96875 91.261719 62.382812 91.261719 61.800781 C 91.261719 60.703125 91.4375 59.957031 91.882812 59.195312 L 92.148438 58.753906 L 92.820312 58.753906 C 93.777344 58.753906 93.9375 58.558594 93.636719 57.832031 C 93.441406 57.351562 93.511719 57.050781 93.902344 56.855469 C 94.378906 56.609375 94.859375 56.804688 95.320312 57.421875 C 95.515625 57.707031 95.761719 57.992188 95.851562 58.0625 C 95.992188 58.183594 95.9375 58.257812 95.300781 58.929688 C 94.007812 60.257812 93.492188 61.285156 93.421875 62.738281 C 93.371094 63.679688 93.601562 64.636719 94.042969 65.398438 C 94.167969 65.628906 94.273438 65.839844 94.273438 65.875 C 94.253906 65.875 93.351562 65.820312 90.925781 65.589844 Z M 49.625 35.507812 C 48.738281 37.277344 47.816406 40.042969 47.335938 42.503906 C 47.179688 43.265625 47.035156 43.90625 47.019531 43.941406 C 47 43.957031 46.839844 43.921875 46.664062 43.867188 C 46.46875 43.796875 46.292969 43.636719 46.167969 43.390625 C 46.0625 43.195312 45.902344 43.070312 45.847656 43.035156 C 45.796875 43 45.476562 42.949219 45.140625 43.019531 C 44.804688 43.089844 44.484375 43.105469 44.46875 43.089844 C 44.394531 43.019531 44.804688 41.210938 45.121094 40.113281 C 45.28125 39.5625 45.582031 38.695312 45.777344 38.179688 C 46.398438 36.640625 46.292969 36.746094 46.875 36.800781 C 47.496094 36.851562 48.472656 36.675781 48.703125 36.460938 C 48.949219 36.230469 48.933594 36.003906 48.542969 35.3125 C 48.1875 34.671875 48.1875 34.53125 48.523438 34.40625 C 48.933594 34.25 49.339844 34.300781 49.660156 34.585938 L 49.960938 34.851562 Z M 44.394531 40.910156 C 44.273438 41.441406 44.253906 41.460938 44.023438 41.386719 C 43.511719 41.230469 42.996094 41.316406 42.359375 41.691406 C 41.878906 41.957031 41.632812 42.042969 41.347656 42.027344 C 40.746094 41.972656 40.835938 41.742188 41.613281 41.316406 C 42.519531 40.820312 42.605469 40.679688 42.535156 39.828125 C 42.449219 38.941406 42.5 38.90625 43.828125 38.835938 C 44.394531 38.800781 44.910156 38.785156 44.964844 38.765625 C 45.015625 38.75 44.945312 39.101562 44.804688 39.546875 C 44.664062 39.988281 44.484375 40.609375 44.394531 40.910156 Z M 45 36.621094 C 45 36.550781 45.371094 36.339844 45.546875 36.339844 C 45.601562 36.339844 45.726562 36.390625 45.8125 36.460938 C 45.972656 36.585938 45.972656 36.605469 45.8125 36.941406 C 45.726562 37.136719 45.617188 37.296875 45.566406 37.296875 C 45.496094 37.296875 45 36.726562 45 36.621094 Z M 122.585938 64.441406 C 121.046875 64.652344 117.429688 65.09375 116.226562 65.203125 C 113.179688 65.503906 105.824219 65.929688 103.824219 65.929688 L 102.972656 65.929688 L 102.601562 65.484375 C 101.679688 64.40625 101.289062 63.375 101.46875 62.472656 C 101.539062 62.066406 101.589844 61.996094 101.820312 61.976562 C 102.175781 61.941406 102.425781 61.640625 102.53125 61.109375 C 102.601562 60.753906 102.671875 60.648438 102.847656 60.628906 C 103.078125 60.59375 103.097656 60.648438 103.203125 61.125 C 103.238281 61.304688 103.417969 61.5 103.699219 61.710938 C 104.035156 61.941406 104.125 62.066406 104.089844 62.207031 C 104.054688 62.3125 104.105469 62.542969 104.160156 62.703125 C 104.355469 63.164062 105.027344 63.449219 106.003906 63.5 C 106.890625 63.554688 107.347656 63.375 107.597656 62.933594 C 107.738281 62.6875 107.722656 62.632812 107.507812 62.117188 C 107.277344 61.585938 107.277344 61.550781 107.457031 61.429688 C 107.6875 61.25 108.074219 61.269531 108.34375 61.445312 C 108.519531 61.570312 108.535156 61.65625 108.5 62.066406 C 108.414062 62.953125 108.890625 63.289062 110.148438 63.21875 C 110.769531 63.183594 111.050781 63.128906 111.28125 62.828125 C 111.460938 62.613281 111.246094 62.046875 111.089844 61.765625 C 110.929688 61.480469 110.804688 61.179688 110.804688 61.125 C 110.804688 60.949219 111.316406 61.019531 111.867188 61.269531 C 112.152344 61.410156 112.453125 61.5 112.523438 61.464844 C 112.59375 61.429688 112.648438 61.269531 112.648438 61.089844 C 112.648438 60.84375 112.734375 60.683594 113.035156 60.398438 C 113.496094 59.941406 113.515625 59.746094 113.125 59.371094 C 112.789062 59.035156 112.753906 58.964844 113.019531 59.089844 C 113.265625 59.214844 113.675781 59.214844 113.90625 59.089844 C 114.257812 58.894531 114.613281 58.132812 114.613281 57.546875 C 114.613281 56.785156 114.3125 56.324219 113.480469 55.898438 C 112.878906 55.597656 112.859375 55.5625 112.894531 55.28125 C 112.964844 54.871094 112.789062 54.570312 112.398438 54.410156 C 112.027344 54.253906 111.921875 54.128906 111.796875 53.738281 C 111.671875 53.367188 111.160156 53.066406 110.308594 52.921875 C 109.9375 52.851562 109.597656 52.746094 109.546875 52.691406 C 109.492188 52.640625 109.40625 52.410156 109.351562 52.179688 C 108.804688 50.105469 103.71875 49.894531 97.425781 51.699219 C 95.175781 52.355469 93.070312 53.066406 89.453125 54.410156 C 84.421875 56.289062 82.949219 56.734375 78.714844 57.636719 C 75.191406 58.378906 72.585938 58.753906 70.140625 58.859375 C 68.421875 58.929688 68.527344 58.964844 67.449219 58.078125 C 64.488281 55.6875 62.644531 52.691406 62.078125 49.519531 C 61.476562 45.941406 62.753906 41.652344 65.074219 39.4375 C 65.621094 38.941406 66.296875 38.375 66.382812 38.375 C 66.402344 38.375 66.4375 38.519531 66.4375 38.695312 C 66.457031 39.050781 66.722656 39.316406 67.464844 39.757812 C 67.730469 39.917969 67.996094 40.167969 68.136719 40.433594 C 68.5625 41.175781 68.546875 41.210938 67.996094 41.496094 C 66.402344 42.273438 67.128906 44.488281 68.972656 44.488281 C 69.554688 44.488281 69.769531 44.382812 70.300781 43.832031 C 70.460938 43.65625 70.65625 43.515625 70.691406 43.515625 C 70.832031 43.515625 71.222656 44.011719 71.804688 44.914062 C 72.375 45.800781 72.871094 46.15625 73.683594 46.3125 C 74.359375 46.4375 74.890625 46.347656 75.207031 46.046875 C 75.4375 45.835938 75.457031 45.765625 75.402344 45.269531 C 75.367188 44.96875 75.332031 44.648438 75.277344 44.558594 C 75.191406 44.347656 75.652344 44.097656 76.128906 44.097656 C 76.449219 44.097656 76.484375 44.136719 76.769531 44.703125 C 77.105469 45.410156 77.316406 45.550781 78.132812 45.550781 C 78.644531 45.550781 78.824219 45.480469 79.851562 44.96875 C 81.515625 44.117188 82.207031 43.460938 82.207031 42.664062 C 82.207031 42.503906 82.082031 42.097656 81.921875 41.761719 C 81.570312 41 81.640625 40.890625 82.332031 41.121094 C 82.933594 41.316406 83.464844 41.335938 83.640625 41.175781 C 83.714844 41.105469 83.765625 40.929688 83.765625 40.75 C 83.765625 40.554688 83.90625 40.238281 84.15625 39.863281 C 84.707031 39.066406 84.671875 38.535156 84.085938 37.667969 C 83.835938 37.296875 83.835938 37.296875 83.996094 36.851562 C 84.226562 36.214844 84.210938 36.089844 83.765625 35.398438 C 83.359375 34.726562 83.359375 34.585938 83.855469 34.476562 C 84.671875 34.300781 85.113281 32.847656 84.632812 31.855469 C 84.367188 31.324219 83.871094 30.988281 82.667969 30.597656 C 81.25 30.121094 81.195312 30.03125 81.746094 29.269531 C 81.960938 28.984375 82.332031 28.3125 81.585938 27.515625 C 81.019531 26.894531 79.390625 26.167969 77.085938 25.371094 C 74.640625 24.539062 74.359375 24.378906 72.976562 24.378906 C 72.691406 24.378906 72.089844 24.414062 71.824219 24.289062 C 71.683594 24.21875 71.523438 23.972656 71.433594 23.847656 C 71.238281 23.597656 70.9375 23.351562 70.796875 23.28125 C 70.636719 23.210938 70.015625 23.101562 69.09375 23.101562 C 68.722656 23.101562 67.996094 23.136719 67.640625 23.050781 C 67.378906 22.980469 66.898438 22.714844 66.667969 22.589844 C 65.675781 22.074219 64.859375 21.96875 64.257812 22.109375 C 64.097656 22.144531 63.585938 22.339844 63.140625 22.535156 C 62.078125 22.980469 61.371094 23.15625 60.394531 23.246094 C 59.703125 23.296875 59.546875 23.28125 58.90625 23.050781 C 57.5625 22.570312 56.320312 22.730469 53.894531 23.722656 C 51.535156 24.679688 49.605469 25.796875 47.425781 27.425781 C 45.210938 29.089844 42.960938 31.289062 38.160156 36.460938 C 34.242188 40.664062 30.328125 44.277344 23.328125 50.105469 C 18.261719 54.324219 15.53125 56.46875 13.335938 57.9375 C 12.21875 58.699219 11.882812 59.019531 12.363281 58.859375 C 13.050781 58.664062 15.179688 57.265625 17.429688 55.546875 C 22.480469 51.664062 27.402344 47.589844 31.65625 43.78125 C 33.285156 42.328125 37.007812 38.605469 39.878906 35.542969 C 45.105469 30.011719 47.089844 28.207031 50.191406 26.222656 C 51.378906 25.460938 53.699219 24.289062 55.007812 23.792969 C 56.746094 23.136719 57.683594 23.050781 58.640625 23.457031 C 59.191406 23.6875 59.351562 23.722656 60.359375 23.707031 C 61.6875 23.6875 62.078125 23.617188 63.53125 23.03125 C 64.84375 22.519531 65.214844 22.519531 66.191406 22.996094 C 67.324219 23.582031 67.730469 23.671875 69.042969 23.671875 C 70.425781 23.671875 70.796875 23.777344 71.117188 24.289062 C 71.238281 24.46875 71.453125 24.679688 71.574219 24.75 C 71.71875 24.804688 72.410156 24.894531 73.117188 24.910156 C 74.394531 24.964844 74.445312 24.964844 75.917969 25.496094 C 78.734375 26.488281 80.132812 27.125 80.984375 27.761719 C 81.5 28.171875 81.535156 28.382812 81.109375 29.003906 C 80.453125 29.960938 80.71875 30.582031 81.90625 31.023438 C 83.109375 31.464844 83.234375 31.519531 83.535156 31.695312 C 83.945312 31.945312 84.15625 32.300781 84.175781 32.742188 C 84.191406 33.292969 83.960938 33.644531 83.464844 33.894531 C 82.96875 34.125 82.722656 34.53125 82.84375 34.9375 C 82.878906 35.082031 83.039062 35.398438 83.21875 35.683594 C 83.5 36.160156 83.519531 36.195312 83.410156 36.605469 C 83.234375 37.261719 83.269531 37.492188 83.589844 38.023438 C 84.050781 38.785156 84.050781 39.015625 83.589844 39.632812 C 83.339844 39.972656 83.199219 40.253906 83.199219 40.433594 C 83.199219 40.75 83.164062 40.769531 82.613281 40.574219 C 82.082031 40.394531 81.640625 40.394531 81.375 40.589844 C 81.074219 40.804688 81.089844 41.371094 81.410156 42.097656 C 81.65625 42.644531 81.65625 42.683594 81.5 43 C 81.304688 43.410156 80.773438 43.796875 79.691406 44.347656 C 78.113281 45.144531 77.671875 45.144531 77.335938 44.347656 C 77.210938 44.0625 76.996094 43.761719 76.875 43.675781 C 76.539062 43.445312 75.757812 43.480469 75.242188 43.726562 C 74.695312 44.011719 74.589844 44.292969 74.765625 44.96875 C 74.890625 45.429688 74.890625 45.480469 74.710938 45.605469 C 74.464844 45.800781 73.71875 45.710938 73.171875 45.429688 C 72.800781 45.234375 72.621094 45.054688 72.160156 44.277344 C 71.574219 43.320312 71.152344 42.929688 70.726562 42.929688 C 70.441406 42.929688 69.804688 43.320312 69.644531 43.601562 C 69.398438 44.082031 68.140625 43.867188 67.855469 43.320312 C 67.519531 42.664062 67.800781 41.972656 68.457031 41.8125 C 68.617188 41.777344 68.792969 41.707031 68.847656 41.652344 C 69.042969 41.496094 68.988281 40.875 68.722656 40.34375 C 68.457031 39.8125 68.15625 39.511719 67.394531 39.050781 C 66.917969 38.765625 66.84375 38.605469 67.058594 38.179688 C 67.144531 38.003906 67.339844 37.878906 67.75 37.738281 C 68.28125 37.5625 68.332031 37.507812 68.457031 37.152344 C 68.6875 36.460938 68.457031 35.46875 67.960938 34.902344 C 67.5 34.390625 66.226562 34.160156 66.101562 34.300781 C 66.046875 34.355469 66.011719 34.550781 66.066406 34.816406 C 66.15625 35.167969 66.15625 35.292969 66.046875 35.417969 C 65.871094 35.613281 65.570312 35.613281 65.199219 35.382812 C 64.738281 35.117188 64.648438 34.886719 64.738281 34.175781 C 64.789062 33.699219 64.773438 33.519531 64.648438 33.328125 C 64.472656 33.0625 63.867188 32.777344 63.445312 32.777344 C 63.105469 32.777344 62.558594 33.132812 62.363281 33.46875 C 62.21875 33.699219 62.238281 33.804688 62.398438 34.425781 C 62.558594 35.046875 62.558594 35.132812 62.414062 35.347656 C 62.167969 35.71875 61.53125 36.003906 61.085938 35.929688 C 61.085938 35.929688 60.839844 35.914062 60.769531 35.949219 C 60.589844 36.039062 60.359375 36.621094 60.359375 36.621094 C 60.164062 37.03125 59.882812 37.457031 59.757812 37.542969 C 59.527344 37.703125 59.457031 37.703125 59.101562 37.613281 C 58.871094 37.542969 58.589844 37.367188 58.445312 37.226562 L 58.179688 36.941406 L 58.394531 36.710938 C 58.660156 36.425781 58.660156 36.355469 58.304688 35.558594 C 58.039062 34.992188 58.023438 34.867188 58.109375 34.65625 C 58.269531 34.300781 58.25 33.734375 58.074219 33.46875 C 57.71875 32.972656 56.796875 32.796875 56.410156 33.167969 C 56.195312 33.363281 56.109375 33.769531 56.125 34.285156 C 56.144531 34.53125 56.109375 34.585938 55.894531 34.601562 C 55.503906 34.65625 54.9375 34.441406 54.476562 34.015625 C 54.125 33.714844 53.980469 33.609375 53.433594 33.574219 C 52.917969 33.558594 52.457031 33.929688 52.546875 34.476562 C 52.601562 34.851562 52.582031 34.902344 52.386719 34.972656 C 52.121094 35.0625 51.183594 34.9375 50.722656 34.746094 C 50.5625 34.671875 50.207031 34.441406 49.941406 34.195312 C 49.480469 33.804688 49.445312 33.789062 48.914062 33.824219 C 48.117188 33.875 47.816406 34.125 47.832031 34.691406 C 47.832031 34.972656 47.921875 35.257812 48.097656 35.542969 C 48.242188 35.773438 48.347656 36.019531 48.328125 36.089844 C 48.277344 36.230469 47.746094 36.339844 47.105469 36.339844 C 46.824219 36.339844 46.503906 36.25 46.203125 36.089844 C 45.652344 35.808594 45.246094 35.824219 44.785156 36.144531 C 44.394531 36.425781 44.414062 36.765625 44.839844 37.3125 C 45.230469 37.808594 45.246094 37.878906 44.980469 38.128906 C 44.820312 38.269531 44.574219 38.324219 43.6875 38.359375 C 42.464844 38.410156 42.144531 38.605469 42.003906 39.015625 C 41.949219 39.175781 41.949219 39.457031 42.003906 39.863281 C 42.039062 40.128906 42.058594 40.34375 42.023438 40.414062 C 41.988281 40.46875 41.683594 40.664062 41.367188 40.820312 C 40.570312 41.230469 40.339844 41.441406 40.339844 41.832031 C 40.339844 42.609375 41.453125 42.804688 42.519531 42.203125 C 43.066406 41.902344 43.597656 41.777344 43.742188 41.921875 C 43.777344 41.957031 43.6875 42.132812 43.5625 42.308594 C 43.261719 42.753906 43.28125 42.929688 43.582031 43.300781 C 43.882812 43.65625 44.273438 43.746094 44.980469 43.621094 C 45.316406 43.566406 45.53125 43.566406 45.546875 43.621094 C 45.671875 43.941406 46.132812 44.292969 46.71875 44.523438 C 47.78125 44.933594 47.746094 44.898438 47.53125 45.800781 C 47.300781 46.757812 47.070312 47.113281 46.574219 47.289062 C 46.238281 47.394531 46.113281 47.378906 45.546875 47.21875 C 44.804688 46.988281 44.589844 47.039062 44.359375 47.5 C 44.078125 48.066406 44.183594 48.492188 44.839844 49.21875 C 45.335938 49.769531 45.371094 49.910156 45.105469 50.230469 C 44.964844 50.40625 44.839844 50.460938 44.554688 50.425781 C 44.289062 50.40625 44.113281 50.476562 43.828125 50.691406 C 43.632812 50.851562 43.332031 51.007812 43.15625 51.046875 C 42.890625 51.097656 42.800781 51.0625 42.484375 50.726562 C 42.289062 50.511719 42.003906 50.160156 41.863281 49.945312 C 41.683594 49.664062 41.488281 49.519531 41.207031 49.433594 C 40.585938 49.253906 40.195312 49.503906 39.628906 50.460938 C 39.132812 51.3125 38.742188 51.71875 38.390625 51.808594 C 38.054688 51.894531 37.363281 51.382812 37.167969 50.902344 C 37.097656 50.707031 36.953125 50.460938 36.867188 50.390625 C 36.527344 50 35.269531 50.335938 34.667969 50.972656 C 34.421875 51.238281 34.386719 51.382812 34.332031 51.984375 C 34.296875 52.410156 34.207031 52.800781 34.101562 52.957031 C 33.871094 53.3125 33.199219 53.632812 32.878906 53.5625 C 32.027344 53.382812 32.011719 53.382812 31.496094 53.648438 C 31.214844 53.808594 30.824219 54.09375 30.609375 54.269531 C 30.292969 54.570312 30.238281 54.675781 30.238281 55.066406 C 30.238281 55.511719 30.222656 55.527344 29.832031 55.703125 C 29.371094 55.917969 29.050781 55.953125 28.769531 55.792969 C 28.539062 55.667969 28.289062 55.136719 28.289062 54.800781 C 28.289062 54.429688 28.023438 54.234375 27.652344 54.304688 C 27.367188 54.359375 27.316406 54.339844 27.050781 53.933594 C 26.730469 53.472656 26.304688 53.242188 25.953125 53.332031 C 25.5625 53.417969 25.207031 53.773438 25.152344 54.128906 C 25.082031 54.464844 25.082031 54.480469 24.710938 54.429688 C 24.390625 54.394531 24.339844 54.394531 24.339844 54.570312 C 24.339844 54.695312 24.464844 54.820312 24.675781 54.90625 C 25.3125 55.171875 25.578125 55.066406 25.632812 54.519531 C 25.667969 54.128906 25.878906 53.898438 26.199219 53.898438 C 26.289062 53.898438 26.535156 54.109375 26.714844 54.375 C 27.015625 54.820312 27.101562 54.855469 27.421875 54.855469 C 27.777344 54.855469 27.792969 54.871094 27.898438 55.316406 C 27.972656 55.597656 28.308594 56.429688 29.300781 56.394531 C 30.292969 56.34375 30.929688 55.777344 30.753906 55.121094 C 30.699219 54.925781 30.769531 54.835938 31.054688 54.589844 C 31.25 54.429688 31.445312 54.324219 31.480469 54.339844 C 31.515625 54.359375 31.566406 54.730469 31.621094 55.191406 C 31.710938 56.199219 32.101562 57.953125 32.472656 59.035156 C 33.214844 61.144531 34.953125 63.800781 36.371094 64.972656 C 36.988281 65.484375 37.929688 66 38.035156 65.875 C 38.070312 65.839844 38.015625 65.75 37.929688 65.699219 C 36.261719 64.6875 34.898438 63.109375 33.675781 60.789062 C 32.949219 59.40625 32.222656 56.964844 32.027344 55.28125 C 31.992188 54.996094 31.941406 54.589844 31.921875 54.394531 C 31.871094 53.96875 32.046875 53.863281 32.4375 54.074219 C 32.984375 54.359375 33.625 54.199219 34.296875 53.578125 C 34.527344 53.382812 34.667969 53.136719 34.6875 53.066406 C 34.757812 52.851562 34.808594 53.152344 34.96875 54.269531 C 35.269531 56.394531 35.945312 58.628906 36.847656 60.628906 C 37.21875 61.445312 37.929688 62.597656 38.195312 62.808594 C 38.496094 63.058594 38.460938 62.84375 38.125 62.296875 C 36.492188 59.761719 35.324219 55.28125 35.128906 52.109375 C 35.113281 51.914062 35.078125 51.542969 35.183594 51.347656 C 35.234375 51.238281 35.449219 51.097656 35.554688 51.046875 C 36.15625 50.691406 36.386719 50.761719 36.617188 51.203125 C 36.847656 51.648438 37.414062 52.195312 37.839844 52.375 L 38.140625 52.496094 L 38.195312 53.632812 C 38.265625 54.996094 38.636719 56.820312 39.097656 58.203125 C 40.230469 61.535156 43.351562 65.769531 45.972656 67.46875 C 46.824219 68.019531 47.710938 68.445312 47.816406 68.339844 C 47.886719 68.265625 48.011719 68.355469 46.628906 67.453125 C 43.757812 65.574219 40.640625 61.429688 39.523438 57.953125 C 39.152344 56.769531 38.78125 55.03125 38.636719 53.667969 C 38.53125 52.640625 38.53125 52.550781 38.691406 52.460938 C 39.152344 52.195312 39.558594 51.734375 39.914062 51.082031 C 40.339844 50.300781 40.390625 50.300781 40.515625 51.0625 C 40.640625 51.84375 41.402344 54.375 41.863281 55.5625 C 42.960938 58.363281 45.140625 62.117188 46.308594 63.253906 C 46.839844 63.765625 46.71875 63.414062 46.042969 62.492188 C 43.703125 59.335938 41.738281 54.90625 40.851562 50.886719 C 40.691406 50.125 40.691406 50.089844 40.835938 50.089844 C 41.03125 50.089844 41.332031 50.40625 41.5625 50.851562 C 41.808594 51.347656 42.429688 51.734375 42.960938 51.734375 C 43.207031 51.734375 43.527344 51.664062 43.6875 51.59375 C 43.847656 51.523438 43.972656 51.453125 43.972656 51.46875 C 43.988281 51.488281 44.09375 51.984375 44.21875 52.605469 C 45.175781 57.351562 47.480469 61.78125 50.703125 65.132812 C 52.085938 66.546875 53.308594 67.558594 55.257812 68.835938 C 59.632812 71.722656 64.1875 73.796875 66.722656 74.0625 C 67.605469 74.148438 67.304688 73.992188 65.765625 73.53125 C 64.097656 73.035156 63.054688 72.625 61.316406 71.777344 C 58.605469 70.464844 55.273438 68.390625 53.34375 66.851562 C 49.039062 63.375 45.992188 58.398438 44.785156 52.800781 C 44.394531 50.992188 44.394531 51.132812 44.769531 51.117188 C 45.140625 51.097656 45.496094 50.832031 45.726562 50.335938 C 45.9375 49.875 45.832031 49.574219 45.230469 48.917969 C 44.785156 48.441406 44.714844 48.316406 44.769531 48.085938 C 44.855469 47.75 44.839844 47.75 45.230469 47.925781 C 45.421875 47.996094 45.832031 48.066406 46.148438 48.066406 L 46.71875 48.066406 L 46.769531 49.023438 C 46.929688 51.523438 47.816406 54.234375 49.464844 57.210938 C 50.402344 58.910156 51.554688 60.507812 51.714844 60.347656 C 51.730469 60.328125 51.414062 59.796875 51.003906 59.160156 C 49.605469 57.050781 48.257812 54.199219 47.710938 52.125 C 47.179688 50.105469 46.949219 47.839844 47.265625 47.714844 C 47.636719 47.570312 48.1875 46.082031 48.1875 45.25 C 48.1875 44.96875 47.726562 44.382812 47.425781 44.292969 C 47.214844 44.222656 47.832031 41.316406 48.542969 39.121094 C 48.898438 38.023438 49.585938 36.25 49.925781 35.59375 L 50.117188 35.222656 L 50.527344 35.382812 C 50.757812 35.46875 51.21875 35.558594 51.589844 35.59375 L 52.226562 35.648438 L 51.75 36.765625 C 51.09375 38.289062 50.3125 40.625 49.941406 42.132812 C 49.164062 45.429688 49.074219 48.140625 49.675781 51.152344 C 50.667969 56.078125 53.929688 61.320312 58.199219 64.847656 C 61.300781 67.398438 64.328125 68.976562 67.414062 69.613281 C 68.28125 69.789062 68.210938 69.789062 68.210938 69.613281 C 68.210938 69.542969 68.085938 69.4375 67.945312 69.417969 C 66.507812 69.101562 65.25 68.675781 63.992188 68.074219 C 58.835938 65.628906 53.875 60.558594 51.644531 55.402344 C 49.695312 50.9375 49.394531 47.058594 50.5625 42.027344 C 51.09375 39.757812 52.386719 36.019531 52.828125 35.46875 C 52.9375 35.328125 53.007812 35.167969 53.007812 35.097656 C 53.007812 35.027344 52.917969 34.691406 52.988281 34.496094 C 53.183594 34.015625 53.679688 34.140625 54.230469 34.65625 C 54.476562 34.886719 54.777344 35.0625 54.992188 35.097656 L 55.328125 35.167969 L 55.007812 35.859375 C 54.566406 36.816406 53.945312 38.640625 53.664062 39.792969 C 53.363281 40.980469 53.183594 42.488281 53.308594 42.804688 C 53.433594 43.105469 53.449219 43.019531 53.644531 41.582031 C 53.875 39.9375 54.496094 37.84375 55.328125 36.003906 C 55.628906 35.328125 55.699219 35.257812 56 35.203125 C 56.460938 35.117188 56.65625 34.796875 56.570312 34.285156 C 56.445312 33.609375 56.921875 33.378906 57.453125 33.839844 C 57.71875 34.070312 57.71875 34.070312 57.597656 34.621094 C 57.472656 35.097656 57.488281 35.203125 57.632812 35.59375 L 57.789062 36.039062 L 57.171875 37.332031 C 54.796875 42.238281 55.46875 46.296875 55.613281 47.128906 C 55.964844 49.449219 56.496094 51.0625 57.648438 53.417969 C 59.722656 57.671875 63.089844 61.464844 67.484375 64.511719 C 71.417969 67.257812 76.644531 69.3125 82.207031 70.339844 C 84.898438 70.835938 88.957031 71.121094 92.109375 71.050781 C 93.917969 70.996094 94.378906 70.960938 94.378906 70.800781 C 94.378906 70.765625 93.105469 70.730469 91.542969 70.730469 C 85.890625 70.710938 81.816406 70.109375 77.261719 68.65625 C 72.566406 67.132812 68.902344 65.148438 65.410156 62.226562 C 60.609375 58.203125 57.3125 53.117188 56.320312 47.820312 C 55.964844 45.996094 56.019531 42.949219 56.320312 41.496094 C 56.570312 40.273438 56.921875 39.210938 57.367188 38.144531 L 57.703125 37.347656 L 58.109375 37.757812 C 58.625 38.269531 59.191406 38.445312 59.757812 38.289062 C 60.148438 38.164062 60.574219 37.632812 60.820312 36.960938 C 60.910156 36.691406 60.980469 36.640625 61.265625 36.640625 C 61.917969 36.640625 62.699219 36.144531 62.929688 35.558594 C 63.019531 35.328125 63.019531 35.152344 62.875 34.601562 C 62.699219 33.929688 62.699219 33.929688 62.910156 33.714844 C 63.175781 33.449219 63.636719 33.449219 63.976562 33.699219 C 64.207031 33.875 64.242188 33.945312 64.207031 34.320312 C 64.167969 34.707031 64.082031 34.816406 63.195312 35.753906 C 62.644531 36.320312 62.007812 37.03125 61.761719 37.347656 C 60.429688 39.085938 59.402344 41.050781 59.011719 42.558594 C 58.464844 44.683594 58.480469 47.785156 59.03125 48.847656 C 59.261719 49.308594 59.28125 49.078125 59.101562 48.085938 C 58.800781 46.351562 59.011719 43.832031 59.597656 42.042969 C 60.273438 40.058594 62.027344 37.382812 63.726562 35.753906 L 64.1875 35.3125 L 64.382812 35.578125 C 64.753906 36.089844 65.65625 36.375 66.117188 36.125 C 66.347656 36.003906 66.597656 35.542969 66.597656 35.257812 C 66.597656 35.011719 66.667969 35.011719 67.183594 35.222656 C 67.484375 35.347656 67.625 35.46875 67.765625 35.789062 C 68.050781 36.390625 68.015625 36.480469 67.304688 36.871094 C 64.292969 38.535156 62.753906 40.359375 61.722656 43.410156 C 61.15625 45.109375 61.035156 45.871094 61.035156 47.609375 C 61.050781 50.476562 61.707031 52.585938 63.371094 55.101562 C 64.277344 56.449219 66.15625 58.398438 67.605469 59.460938 C 73.207031 63.609375 82.03125 66.175781 92.855469 66.816406 C 99.058594 67.167969 112.277344 66.546875 118.742188 65.609375 C 120.992188 65.273438 122.800781 64.882812 122.800781 64.722656 C 122.90625 64.441406 122.800781 64.421875 122.585938 64.441406 " fill-opacity="1" fill-rule="nonzero"/></g><path fill="#0661aa" d="M 93.15625 55.882812 C 93.441406 55.828125 93.6875 55.722656 93.917969 55.527344 C 94.167969 55.316406 94.378906 54.941406 94.699219 54.820312 C 94.945312 54.730469 95.285156 54.800781 95.550781 54.820312 C 95.816406 54.835938 96.117188 54.855469 96.382812 54.890625 C 96.773438 54.960938 97.054688 55.261719 97.480469 55.332031 C 98.242188 55.457031 98.773438 54.746094 99.304688 54.304688 C 99.535156 54.109375 100.121094 53.527344 100.492188 53.683594 C 100.757812 53.808594 100.792969 54.253906 101.007812 54.464844 C 101.253906 54.710938 101.664062 54.746094 102 54.710938 C 102.265625 54.675781 102.546875 54.589844 102.726562 54.375 C 102.902344 54.144531 102.8125 53.878906 103.0625 53.703125 C 103.292969 53.542969 103.753906 53.453125 103.964844 53.667969 C 104.195312 53.878906 104.214844 54.144531 104.550781 54.269531 C 105.0625 54.445312 106.144531 54.339844 106.410156 53.773438 C 106.515625 53.542969 106.535156 53.171875 106.355469 52.957031 C 106.199219 52.78125 105.578125 52.65625 105.753906 53.046875 C 105.878906 53.296875 106.214844 53.3125 105.859375 53.578125 C 105.632812 53.738281 105.1875 53.863281 104.90625 53.808594 C 104.566406 53.738281 104.585938 53.472656 104.375 53.277344 C 104.140625 53.082031 103.789062 53.046875 103.503906 53.082031 C 103.1875 53.117188 102.8125 53.1875 102.582031 53.417969 C 102.371094 53.613281 102.460938 53.933594 102.28125 54.109375 C 102.085938 54.269531 101.574219 54.214844 101.394531 54.058594 C 101.148438 53.863281 101.148438 53.507812 100.847656 53.3125 C 100.351562 53.011719 99.871094 53.277344 99.464844 53.578125 C 99.039062 53.878906 98.597656 54.179688 98.222656 54.554688 C 98.082031 54.695312 98.011719 54.800781 97.78125 54.800781 C 97.390625 54.820312 97.160156 54.625 96.84375 54.429688 C 96.523438 54.253906 96.132812 54.445312 95.761719 54.375 C 95.355469 54.289062 94.980469 54.214844 94.574219 54.394531 C 94.183594 54.570312 93.9375 54.960938 93.566406 55.15625 C 93.15625 55.367188 92.785156 55.316406 92.34375 55.332031 C 92.113281 55.351562 91.988281 55.476562 92.148438 55.6875 C 92.34375 56.023438 92.890625 55.933594 93.15625 55.882812 " fill-opacity="1" fill-rule="nonzero"/><path fill="#0661aa" d="M 105.789062 58.789062 C 105.542969 58.398438 104.90625 58.683594 104.550781 58.398438 C 104.054688 58.007812 103.628906 57.230469 102.921875 57.230469 C 102.671875 57.210938 102.441406 57.335938 102.28125 57.496094 C 102.085938 57.707031 102.195312 58.007812 101.855469 57.972656 C 101.148438 57.882812 100.8125 57.300781 100.757812 56.644531 C 100.742188 56.429688 100.632812 56.253906 100.457031 56.484375 C 100.296875 56.679688 100.386719 57.191406 100.421875 57.40625 C 100.5625 57.992188 101.023438 58.363281 101.609375 58.449219 C 101.875 58.488281 102.246094 58.503906 102.460938 58.292969 C 102.617188 58.132812 102.511719 57.847656 102.691406 57.726562 C 102.8125 57.636719 103.132812 57.707031 103.257812 57.761719 C 103.503906 57.882812 103.71875 58.148438 103.914062 58.34375 C 104.105469 58.539062 104.300781 58.804688 104.566406 58.929688 C 104.796875 59.035156 105.046875 58.984375 105.277344 59.054688 C 105.558594 59.125 105.738281 59.355469 106.019531 59.425781 C 106.339844 59.496094 106.710938 59.425781 106.960938 59.195312 C 107.207031 58.964844 107.15625 58.71875 107.296875 58.414062 C 107.4375 58.113281 107.738281 58.222656 107.898438 58.433594 C 108.039062 58.628906 108.09375 58.824219 108.34375 58.910156 C 108.625 59.019531 109.105469 58.964844 109.335938 58.753906 C 109.582031 58.503906 109.40625 58.328125 109.371094 58.042969 C 109.335938 57.742188 109.601562 57.53125 109.882812 57.441406 C 110.203125 57.351562 110.433594 57.496094 110.679688 57.707031 C 110.875 57.867188 111.070312 58.167969 111.335938 58.007812 C 111.816406 57.726562 112.027344 57 111.726562 56.554688 C 111.65625 56.429688 111.230469 55.988281 111.050781 56.113281 C 110.804688 56.308594 111.316406 56.625 111.390625 56.804688 C 111.441406 56.910156 111.511719 57.121094 111.40625 57.210938 C 111.265625 57.351562 111.035156 57.15625 110.910156 57.085938 C 110.574219 56.925781 110.21875 56.890625 109.847656 56.925781 C 109.457031 56.980469 109.140625 57.175781 108.980469 57.546875 C 108.890625 57.761719 109.015625 58.414062 108.785156 58.503906 C 108.484375 58.628906 108.304688 58.0625 108.148438 57.917969 C 107.917969 57.6875 107.472656 57.652344 107.191406 57.796875 C 106.800781 58.007812 106.925781 58.34375 106.765625 58.664062 C 106.550781 59.054688 106.003906 59.105469 105.789062 58.789062 " fill-opacity="1" fill-rule="nonzero"/></svg>