<svg xmlns="http://www.w3.org/2000/svg" xmlns:xlink="http://www.w3.org/1999/xlink" width="180" zoomAndPan="magnify" viewBox="0 0 135 161.249994" height="215" preserveAspectRatio="xMidYMid meet" version="1.2"><defs><clipPath id="9a2f2fe2c5"><path d="M 0.328125 23.921875 L 134.667969 23.921875 L 134.667969 87.070312 L 0.328125 87.070312 Z M 0.328125 23.921875 "/></clipPath></defs><g id="52d5dbdf4d"><g style="fill:#0661aa;fill-opacity:1;"><g transform="translate(36.630318, 104.858655)"><path style="stroke:none" d="M 6.75 0.4375 C 4.90625 0.4375 3.460938 -0.0390625 2.421875 -1 C 1.390625 -1.96875 0.875 -3.300781 0.875 -5 L 0.875 -14.171875 L 4.28125 -14.171875 L 4.28125 -5.203125 C 4.28125 -4.390625 4.5 -3.734375 4.9375 -3.234375 C 5.375 -2.734375 5.976562 -2.484375 6.75 -2.484375 C 7.519531 -2.484375 8.125 -2.722656 8.5625 -3.203125 C 9 -3.691406 9.21875 -4.359375 9.21875 -5.203125 L 9.21875 -14.171875 L 12.625 -14.171875 L 12.625 -5 C 12.625 -3.300781 12.101562 -1.96875 11.0625 -1 C 10.03125 -0.0390625 8.59375 0.4375 6.75 0.4375 Z M 6.75 0.4375 "/></g></g><g style="fill:#0661aa;fill-opacity:1;"><g transform="translate(52.471295, 104.858655)"><path style="stroke:none" d="M 2.3125 -11.578125 C 1.78125 -11.578125 1.347656 -11.738281 1.015625 -12.0625 C 0.679688 -12.382812 0.515625 -12.800781 0.515625 -13.3125 C 0.515625 -13.832031 0.679688 -14.253906 1.015625 -14.578125 C 1.347656 -14.898438 1.78125 -15.0625 2.3125 -15.0625 C 2.851562 -15.0625 3.289062 -14.898438 3.625 -14.578125 C 3.957031 -14.253906 4.125 -13.832031 4.125 -13.3125 C 4.125 -12.800781 3.957031 -12.382812 3.625 -12.0625 C 3.289062 -11.738281 2.851562 -11.578125 2.3125 -11.578125 Z M 0.375 4.515625 C -0.4375 4.515625 -1.160156 4.40625 -1.796875 4.1875 L -1.4375 2.015625 C -1.09375 2.128906 -0.753906 2.1875 -0.421875 2.1875 C -0.0351562 2.1875 0.257812 2.066406 0.46875 1.828125 C 0.6875 1.585938 0.796875 1.265625 0.796875 0.859375 L 0.796875 -10.1875 L 3.84375 -10.1875 L 3.84375 1.171875 C 3.84375 2.222656 3.53125 3.039062 2.90625 3.625 C 2.289062 4.21875 1.445312 4.515625 0.375 4.515625 Z M 0.375 4.515625 "/></g></g><g style="fill:#0661aa;fill-opacity:1;"><g transform="translate(59.496761, 104.858655)"><path style="stroke:none" d="M 2.3125 -11.578125 C 1.78125 -11.578125 1.347656 -11.738281 1.015625 -12.0625 C 0.679688 -12.382812 0.515625 -12.800781 0.515625 -13.3125 C 0.515625 -13.832031 0.679688 -14.253906 1.015625 -14.578125 C 1.347656 -14.898438 1.78125 -15.0625 2.3125 -15.0625 C 2.851562 -15.0625 3.289062 -14.898438 3.625 -14.578125 C 3.957031 -14.253906 4.125 -13.832031 4.125 -13.3125 C 4.125 -12.800781 3.957031 -12.382812 3.625 -12.0625 C 3.289062 -11.738281 2.851562 -11.578125 2.3125 -11.578125 Z M 0.375 4.515625 C -0.4375 4.515625 -1.160156 4.40625 -1.796875 4.1875 L -1.4375 2.015625 C -1.09375 2.128906 -0.753906 2.1875 -0.421875 2.1875 C -0.0351562 2.1875 0.257812 2.066406 0.46875 1.828125 C 0.6875 1.585938 0.796875 1.265625 0.796875 0.859375 L 0.796875 -10.1875 L 3.84375 -10.1875 L 3.84375 1.171875 C 3.84375 2.222656 3.53125 3.039062 2.90625 3.625 C 2.289062 4.21875 1.445312 4.515625 0.375 4.515625 Z M 0.375 4.515625 "/></g></g><g style="fill:#0661aa;fill-opacity:1;"><g transform="translate(66.522228, 104.858655)"><path style="stroke:none" d="M 3.515625 0.234375 C 2.546875 0.234375 1.765625 -0.0195312 1.171875 -0.53125 C 0.578125 -1.050781 0.28125 -1.75 0.28125 -2.625 C 0.28125 -3.550781 0.632812 -4.300781 1.34375 -4.875 C 2.050781 -5.457031 3.085938 -5.820312 4.453125 -5.96875 L 6.03125 -6.15625 C 6.257812 -6.175781 6.441406 -6.253906 6.578125 -6.390625 C 6.710938 -6.523438 6.78125 -6.71875 6.78125 -6.96875 C 6.78125 -7.414062 6.640625 -7.757812 6.359375 -8 C 6.085938 -8.238281 5.726562 -8.359375 5.28125 -8.359375 C 4.757812 -8.359375 4.335938 -8.175781 4.015625 -7.8125 C 3.703125 -7.457031 3.53125 -7.007812 3.5 -6.46875 L 0.609375 -6.890625 C 0.640625 -7.609375 0.847656 -8.238281 1.234375 -8.78125 C 1.628906 -9.332031 2.164062 -9.765625 2.84375 -10.078125 C 3.53125 -10.390625 4.332031 -10.546875 5.25 -10.546875 C 6.644531 -10.546875 7.75 -10.179688 8.5625 -9.453125 C 9.375 -8.722656 9.78125 -7.734375 9.78125 -6.484375 L 9.78125 -2.546875 C 9.78125 -2.097656 9.941406 -1.875 10.265625 -1.875 C 10.535156 -1.875 10.789062 -2.003906 11.03125 -2.265625 L 11.6875 -0.640625 C 11.363281 -0.328125 10.976562 -0.0976562 10.53125 0.046875 C 10.082031 0.191406 9.640625 0.265625 9.203125 0.265625 C 8.585938 0.265625 8.070312 0.109375 7.65625 -0.203125 C 7.238281 -0.515625 6.976562 -0.910156 6.875 -1.390625 L 6.828125 -1.65625 L 6.8125 -1.65625 C 6.5 -1.070312 6.054688 -0.609375 5.484375 -0.265625 C 4.921875 0.0664062 4.265625 0.234375 3.515625 0.234375 Z M 4.78125 -1.890625 C 5.351562 -1.890625 5.820312 -2.09375 6.1875 -2.5 C 6.5625 -2.90625 6.75 -3.429688 6.75 -4.078125 L 6.75 -4.5625 L 5.25 -4.40625 C 4.5625 -4.320312 4.066406 -4.148438 3.765625 -3.890625 C 3.472656 -3.640625 3.328125 -3.34375 3.328125 -3 C 3.328125 -2.675781 3.460938 -2.410156 3.734375 -2.203125 C 4.003906 -1.992188 4.351562 -1.890625 4.78125 -1.890625 Z M 4.78125 -1.890625 "/></g></g><g style="fill:#0661aa;fill-opacity:1;"><g transform="translate(80.552338, 104.858655)"><path style="stroke:none" d="M 4.4375 4.515625 C 3.476562 4.515625 2.582031 4.347656 1.75 4.015625 C 0.914062 3.679688 0.238281 3.234375 -0.28125 2.671875 L 0.921875 0.515625 C 1.304688 0.960938 1.78125 1.320312 2.34375 1.59375 C 2.90625 1.875 3.503906 2.015625 4.140625 2.015625 C 5.003906 2.015625 5.679688 1.765625 6.171875 1.265625 C 6.671875 0.773438 6.921875 0.109375 6.921875 -0.734375 L 6.921875 -1.609375 L 6.90625 -1.609375 C 6.613281 -1.003906 6.207031 -0.519531 5.6875 -0.15625 C 5.175781 0.195312 4.609375 0.375 3.984375 0.375 C 2.960938 0.375 2.15625 0.0351562 1.5625 -0.640625 C 0.96875 -1.316406 0.671875 -2.222656 0.671875 -3.359375 L 0.671875 -10.1875 L 3.71875 -10.1875 L 3.71875 -3.859375 C 3.71875 -3.328125 3.847656 -2.898438 4.109375 -2.578125 C 4.367188 -2.265625 4.722656 -2.109375 5.171875 -2.109375 C 5.679688 -2.109375 6.09375 -2.285156 6.40625 -2.640625 C 6.726562 -2.992188 6.890625 -3.453125 6.890625 -4.015625 L 6.890625 -10.1875 L 9.90625 -10.1875 L 9.9375 -0.53125 C 9.9375 0.507812 9.710938 1.40625 9.265625 2.15625 C 8.816406 2.914062 8.179688 3.5 7.359375 3.90625 C 6.535156 4.3125 5.5625 4.515625 4.4375 4.515625 Z M 4.4375 4.515625 "/></g></g><g style="fill:#0661aa;fill-opacity:1;"><g transform="translate(93.56758, 104.858655)"><path style="stroke:none" d="M 2.34375 -11.578125 C 1.800781 -11.578125 1.367188 -11.738281 1.046875 -12.0625 C 0.722656 -12.382812 0.5625 -12.800781 0.5625 -13.3125 C 0.5625 -13.84375 0.722656 -14.265625 1.046875 -14.578125 C 1.367188 -14.898438 1.800781 -15.0625 2.34375 -15.0625 C 2.894531 -15.0625 3.332031 -14.898438 3.65625 -14.578125 C 3.976562 -14.265625 4.140625 -13.84375 4.140625 -13.3125 C 4.140625 -12.800781 3.976562 -12.382812 3.65625 -12.0625 C 3.332031 -11.738281 2.894531 -11.578125 2.34375 -11.578125 Z M 0.8125 0 L 0.8125 -10.1875 L 3.859375 -10.1875 L 3.859375 0 Z M 0.8125 0 "/></g></g><g style="fill:#2d6d5e;fill-opacity:1;"><g transform="translate(15.51958, 121.013486)"><path style="stroke:none" d="M 2.140625 -7.8125 C 2.671875 -7.8125 3.101562 -7.726562 3.4375 -7.5625 C 3.78125 -7.40625 4.035156 -7.164062 4.203125 -6.84375 C 4.367188 -6.519531 4.453125 -6.113281 4.453125 -5.625 C 4.453125 -5.28125 4.410156 -4.96875 4.328125 -4.6875 C 4.242188 -4.414062 4.113281 -4.179688 3.9375 -3.984375 C 3.757812 -3.796875 3.523438 -3.640625 3.234375 -3.515625 L 4.828125 0 L 3.875 0 L 2.46875 -3.296875 L 1.65625 -3.296875 L 1.65625 0 L 0.8125 0 L 0.8125 -7.8125 Z M 2.140625 -7.03125 L 1.65625 -7.03125 L 1.65625 -4.015625 L 2.265625 -4.015625 C 2.691406 -4.015625 3.019531 -4.144531 3.25 -4.40625 C 3.476562 -4.664062 3.59375 -5.0625 3.59375 -5.59375 C 3.59375 -6.101562 3.472656 -6.46875 3.234375 -6.6875 C 3.003906 -6.914062 2.640625 -7.03125 2.140625 -7.03125 Z M 2.140625 -7.03125 "/></g></g><g style="fill:#2d6d5e;fill-opacity:1;"><g transform="translate(22.026239, 121.013486)"><path style="stroke:none" d="M 2.328125 -5.953125 C 2.722656 -5.953125 3.050781 -5.835938 3.3125 -5.609375 C 3.570312 -5.378906 3.765625 -5.066406 3.890625 -4.671875 C 4.015625 -4.285156 4.078125 -3.851562 4.078125 -3.375 L 4.078125 -2.78125 L 1.28125 -2.78125 C 1.289062 -2.050781 1.40625 -1.503906 1.625 -1.140625 C 1.84375 -0.773438 2.171875 -0.59375 2.609375 -0.59375 C 2.828125 -0.59375 3.035156 -0.625 3.234375 -0.6875 C 3.441406 -0.75 3.648438 -0.851562 3.859375 -1 L 3.859375 -0.265625 C 3.660156 -0.140625 3.453125 -0.046875 3.234375 0.015625 C 3.015625 0.078125 2.78125 0.109375 2.53125 0.109375 C 2.039062 0.109375 1.644531 -0.0195312 1.34375 -0.28125 C 1.039062 -0.539062 0.816406 -0.898438 0.671875 -1.359375 C 0.535156 -1.816406 0.46875 -2.332031 0.46875 -2.90625 C 0.46875 -3.550781 0.535156 -4.101562 0.671875 -4.5625 C 0.816406 -5.019531 1.023438 -5.363281 1.296875 -5.59375 C 1.578125 -5.832031 1.921875 -5.953125 2.328125 -5.953125 Z M 2.328125 -5.28125 C 2.015625 -5.28125 1.769531 -5.128906 1.59375 -4.828125 C 1.425781 -4.535156 1.328125 -4.070312 1.296875 -3.4375 L 3.3125 -3.4375 C 3.3125 -3.769531 3.273438 -4.078125 3.203125 -4.359375 C 3.140625 -4.640625 3.035156 -4.863281 2.890625 -5.03125 C 2.742188 -5.195312 2.554688 -5.28125 2.328125 -5.28125 Z M 2.328125 -5.28125 "/></g></g><g style="fill:#2d6d5e;fill-opacity:1;"><g transform="translate(28.084133, 121.013486)"><path style="stroke:none" d="M 3.328125 -1.546875 C 3.328125 -1.191406 3.257812 -0.890625 3.125 -0.640625 C 3 -0.398438 2.8125 -0.210938 2.5625 -0.078125 C 2.320312 0.046875 2.03125 0.109375 1.6875 0.109375 C 1.414062 0.109375 1.164062 0.078125 0.9375 0.015625 C 0.71875 -0.046875 0.53125 -0.125 0.375 -0.21875 L 0.375 -1.078125 C 0.53125 -0.941406 0.722656 -0.832031 0.953125 -0.75 C 1.179688 -0.664062 1.414062 -0.625 1.65625 -0.625 C 1.925781 -0.625 2.132812 -0.703125 2.28125 -0.859375 C 2.4375 -1.015625 2.515625 -1.234375 2.515625 -1.515625 C 2.515625 -1.679688 2.484375 -1.828125 2.421875 -1.953125 C 2.359375 -2.078125 2.257812 -2.195312 2.125 -2.3125 C 1.988281 -2.425781 1.816406 -2.546875 1.609375 -2.671875 C 1.359375 -2.816406 1.140625 -2.96875 0.953125 -3.125 C 0.765625 -3.289062 0.617188 -3.476562 0.515625 -3.6875 C 0.421875 -3.894531 0.375 -4.144531 0.375 -4.4375 C 0.375 -4.894531 0.519531 -5.265625 0.8125 -5.546875 C 1.113281 -5.828125 1.503906 -5.96875 1.984375 -5.96875 C 2.234375 -5.96875 2.46875 -5.9375 2.6875 -5.875 C 2.90625 -5.8125 3.113281 -5.71875 3.3125 -5.59375 L 3 -4.9375 C 2.851562 -5.039062 2.691406 -5.117188 2.515625 -5.171875 C 2.347656 -5.234375 2.175781 -5.265625 2 -5.265625 C 1.738281 -5.265625 1.53125 -5.191406 1.375 -5.046875 C 1.226562 -4.898438 1.15625 -4.707031 1.15625 -4.46875 C 1.15625 -4.300781 1.1875 -4.15625 1.25 -4.03125 C 1.3125 -3.914062 1.410156 -3.800781 1.546875 -3.6875 C 1.679688 -3.582031 1.863281 -3.460938 2.09375 -3.328125 C 2.34375 -3.171875 2.554688 -3.015625 2.734375 -2.859375 C 2.921875 -2.703125 3.066406 -2.519531 3.171875 -2.3125 C 3.273438 -2.101562 3.328125 -1.847656 3.328125 -1.546875 Z M 3.328125 -1.546875 "/></g></g><g style="fill:#2d6d5e;fill-opacity:1;"><g transform="translate(33.292581, 121.013486)"><path style="stroke:none" d="M 2.828125 -5.96875 C 3.390625 -5.96875 3.816406 -5.710938 4.109375 -5.203125 C 4.398438 -4.703125 4.546875 -3.945312 4.546875 -2.9375 C 4.546875 -2.289062 4.476562 -1.738281 4.34375 -1.28125 C 4.21875 -0.832031 4.03125 -0.488281 3.78125 -0.25 C 3.53125 -0.0078125 3.226562 0.109375 2.875 0.109375 C 2.675781 0.109375 2.488281 0.0703125 2.3125 0 C 2.144531 -0.0820312 1.992188 -0.191406 1.859375 -0.328125 C 1.734375 -0.472656 1.625 -0.640625 1.53125 -0.828125 L 1.5 -0.828125 C 1.507812 -0.679688 1.515625 -0.539062 1.515625 -0.40625 C 1.523438 -0.28125 1.53125 -0.160156 1.53125 -0.046875 L 1.53125 2.609375 L 0.71875 2.609375 L 0.71875 -5.859375 L 1.390625 -5.859375 L 1.484375 -5 L 1.53125 -5 C 1.632812 -5.21875 1.75 -5.394531 1.875 -5.53125 C 2.007812 -5.675781 2.15625 -5.785156 2.3125 -5.859375 C 2.46875 -5.929688 2.640625 -5.96875 2.828125 -5.96875 Z M 2.65625 -5.265625 C 2.40625 -5.265625 2.195312 -5.1875 2.03125 -5.03125 C 1.875 -4.875 1.75 -4.632812 1.65625 -4.3125 C 1.570312 -4 1.53125 -3.601562 1.53125 -3.125 L 1.53125 -2.84375 C 1.53125 -2.34375 1.570312 -1.925781 1.65625 -1.59375 C 1.75 -1.257812 1.878906 -1.007812 2.046875 -0.84375 C 2.210938 -0.6875 2.421875 -0.609375 2.671875 -0.609375 C 2.898438 -0.609375 3.09375 -0.691406 3.25 -0.859375 C 3.40625 -1.023438 3.519531 -1.273438 3.59375 -1.609375 C 3.675781 -1.953125 3.71875 -2.394531 3.71875 -2.9375 C 3.71875 -3.707031 3.632812 -4.285156 3.46875 -4.671875 C 3.300781 -5.066406 3.03125 -5.265625 2.65625 -5.265625 Z M 2.65625 -5.265625 "/></g></g><g style="fill:#2d6d5e;fill-opacity:1;"><g transform="translate(39.831294, 121.013486)"><path style="stroke:none" d="M 1.546875 -5.859375 L 1.546875 0 L 0.71875 0 L 0.71875 -5.859375 Z M 1.140625 -8.0625 C 1.316406 -8.0625 1.441406 -8.007812 1.515625 -7.90625 C 1.585938 -7.800781 1.625 -7.648438 1.625 -7.453125 C 1.625 -7.273438 1.582031 -7.128906 1.5 -7.015625 C 1.425781 -6.910156 1.304688 -6.859375 1.140625 -6.859375 C 0.992188 -6.859375 0.875 -6.910156 0.78125 -7.015625 C 0.695312 -7.128906 0.65625 -7.273438 0.65625 -7.453125 C 0.65625 -7.648438 0.695312 -7.800781 0.78125 -7.90625 C 0.863281 -8.007812 0.984375 -8.0625 1.140625 -8.0625 Z M 1.140625 -8.0625 "/></g></g><g style="fill:#2d6d5e;fill-opacity:1;"><g transform="translate(43.62934, 121.013486)"><path style="stroke:none" d="M 2.671875 -5.96875 C 2.753906 -5.96875 2.835938 -5.957031 2.921875 -5.9375 C 3.003906 -5.925781 3.085938 -5.910156 3.171875 -5.890625 L 3.046875 -5.046875 C 2.984375 -5.066406 2.914062 -5.082031 2.84375 -5.09375 C 2.769531 -5.101562 2.691406 -5.109375 2.609375 -5.109375 C 2.453125 -5.109375 2.304688 -5.054688 2.171875 -4.953125 C 2.035156 -4.847656 1.921875 -4.703125 1.828125 -4.515625 C 1.734375 -4.328125 1.660156 -4.109375 1.609375 -3.859375 C 1.554688 -3.609375 1.53125 -3.34375 1.53125 -3.0625 L 1.53125 0 L 0.71875 0 L 0.71875 -5.859375 L 1.359375 -5.859375 L 1.46875 -4.828125 L 1.515625 -4.828125 C 1.597656 -5.046875 1.691406 -5.238281 1.796875 -5.40625 C 1.910156 -5.582031 2.039062 -5.71875 2.1875 -5.8125 C 2.332031 -5.914062 2.492188 -5.96875 2.671875 -5.96875 Z M 2.671875 -5.96875 "/></g></g><g style="fill:#2d6d5e;fill-opacity:1;"><g transform="translate(48.442448, 121.013486)"><path style="stroke:none" d="M 2.28125 -5.96875 C 2.820312 -5.96875 3.207031 -5.796875 3.4375 -5.453125 C 3.675781 -5.109375 3.796875 -4.609375 3.796875 -3.953125 L 3.796875 0 L 3.171875 0 L 3.046875 -0.828125 L 3.015625 -0.828125 C 2.929688 -0.628906 2.820312 -0.457031 2.6875 -0.3125 C 2.5625 -0.175781 2.414062 -0.0703125 2.25 0 C 2.09375 0.0703125 1.90625 0.109375 1.6875 0.109375 C 1.382812 0.109375 1.132812 0.03125 0.9375 -0.125 C 0.75 -0.289062 0.609375 -0.503906 0.515625 -0.765625 C 0.421875 -1.023438 0.375 -1.304688 0.375 -1.609375 C 0.375 -2.191406 0.539062 -2.640625 0.875 -2.953125 C 1.21875 -3.273438 1.695312 -3.453125 2.3125 -3.484375 L 2.96875 -3.53125 L 2.96875 -3.9375 C 2.96875 -4.40625 2.90625 -4.742188 2.78125 -4.953125 C 2.65625 -5.171875 2.445312 -5.28125 2.15625 -5.28125 C 2 -5.28125 1.828125 -5.25 1.640625 -5.1875 C 1.460938 -5.132812 1.269531 -5.046875 1.0625 -4.921875 L 0.796875 -5.546875 C 1.015625 -5.691406 1.25 -5.796875 1.5 -5.859375 C 1.757812 -5.929688 2.019531 -5.96875 2.28125 -5.96875 Z M 2.984375 -2.921875 L 2.4375 -2.890625 C 2.03125 -2.867188 1.722656 -2.753906 1.515625 -2.546875 C 1.316406 -2.335938 1.21875 -2.035156 1.21875 -1.640625 C 1.21875 -1.265625 1.28125 -0.988281 1.40625 -0.8125 C 1.539062 -0.644531 1.722656 -0.5625 1.953125 -0.5625 C 2.285156 -0.5625 2.539062 -0.71875 2.71875 -1.03125 C 2.894531 -1.34375 2.984375 -1.773438 2.984375 -2.328125 Z M 2.984375 -2.921875 "/></g></g><g style="fill:#2d6d5e;fill-opacity:1;"><g transform="translate(54.468288, 121.013486)"><path style="stroke:none" d="M 2.40625 0.109375 C 1.976562 0.109375 1.617188 0 1.328125 -0.21875 C 1.046875 -0.445312 0.832031 -0.785156 0.6875 -1.234375 C 0.539062 -1.679688 0.46875 -2.234375 0.46875 -2.890625 C 0.46875 -3.535156 0.539062 -4.085938 0.6875 -4.546875 C 0.832031 -5.003906 1.050781 -5.351562 1.34375 -5.59375 C 1.632812 -5.84375 2 -5.96875 2.4375 -5.96875 C 2.65625 -5.96875 2.851562 -5.941406 3.03125 -5.890625 C 3.207031 -5.847656 3.375 -5.785156 3.53125 -5.703125 L 3.265625 -5.03125 C 3.140625 -5.09375 3.007812 -5.140625 2.875 -5.171875 C 2.75 -5.210938 2.625 -5.234375 2.5 -5.234375 C 2.238281 -5.234375 2.019531 -5.144531 1.84375 -4.96875 C 1.675781 -4.789062 1.546875 -4.53125 1.453125 -4.1875 C 1.359375 -3.84375 1.3125 -3.414062 1.3125 -2.90625 C 1.3125 -2.394531 1.351562 -1.96875 1.4375 -1.625 C 1.53125 -1.289062 1.664062 -1.035156 1.84375 -0.859375 C 2.019531 -0.691406 2.238281 -0.609375 2.5 -0.609375 C 2.65625 -0.609375 2.8125 -0.628906 2.96875 -0.671875 C 3.132812 -0.722656 3.300781 -0.789062 3.46875 -0.875 L 3.46875 -0.1875 C 3.3125 -0.09375 3.132812 -0.0195312 2.9375 0.03125 C 2.75 0.0820312 2.570312 0.109375 2.40625 0.109375 Z M 3.3125 1.515625 C 3.3125 1.867188 3.195312 2.140625 2.96875 2.328125 C 2.738281 2.523438 2.425781 2.625 2.03125 2.625 C 1.90625 2.625 1.789062 2.617188 1.6875 2.609375 C 1.582031 2.597656 1.492188 2.582031 1.421875 2.5625 L 1.421875 2.015625 C 1.492188 2.035156 1.570312 2.050781 1.65625 2.0625 C 1.738281 2.070312 1.820312 2.078125 1.90625 2.078125 C 2.144531 2.078125 2.320312 2.023438 2.4375 1.921875 C 2.5625 1.816406 2.625 1.679688 2.625 1.515625 C 2.625 1.316406 2.546875 1.164062 2.390625 1.0625 C 2.234375 0.96875 2.023438 0.898438 1.765625 0.859375 L 2.140625 0 L 2.640625 0 L 2.40625 0.5625 C 2.601562 0.601562 2.769531 0.664062 2.90625 0.75 C 3.039062 0.832031 3.140625 0.9375 3.203125 1.0625 C 3.273438 1.195312 3.3125 1.347656 3.3125 1.515625 Z M 3.3125 1.515625 "/></g></g><g style="fill:#2d6d5e;fill-opacity:1;"><g transform="translate(59.756872, 121.013486)"><path style="stroke:none" d="M 2.28125 -5.96875 C 2.820312 -5.96875 3.207031 -5.796875 3.4375 -5.453125 C 3.675781 -5.109375 3.796875 -4.609375 3.796875 -3.953125 L 3.796875 0 L 3.171875 0 L 3.046875 -0.828125 L 3.015625 -0.828125 C 2.929688 -0.628906 2.820312 -0.457031 2.6875 -0.3125 C 2.5625 -0.175781 2.414062 -0.0703125 2.25 0 C 2.09375 0.0703125 1.90625 0.109375 1.6875 0.109375 C 1.382812 0.109375 1.132812 0.03125 0.9375 -0.125 C 0.75 -0.289062 0.609375 -0.503906 0.515625 -0.765625 C 0.421875 -1.023438 0.375 -1.304688 0.375 -1.609375 C 0.375 -2.191406 0.539062 -2.640625 0.875 -2.953125 C 1.21875 -3.273438 1.695312 -3.453125 2.3125 -3.484375 L 2.96875 -3.53125 L 2.96875 -3.9375 C 2.96875 -4.40625 2.90625 -4.742188 2.78125 -4.953125 C 2.65625 -5.171875 2.445312 -5.28125 2.15625 -5.28125 C 2 -5.28125 1.828125 -5.25 1.640625 -5.1875 C 1.460938 -5.132812 1.269531 -5.046875 1.0625 -4.921875 L 0.796875 -5.546875 C 1.015625 -5.691406 1.25 -5.796875 1.5 -5.859375 C 1.757812 -5.929688 2.019531 -5.96875 2.28125 -5.96875 Z M 2.984375 -2.921875 L 2.4375 -2.890625 C 2.03125 -2.867188 1.722656 -2.753906 1.515625 -2.546875 C 1.316406 -2.335938 1.21875 -2.035156 1.21875 -1.640625 C 1.21875 -1.265625 1.28125 -0.988281 1.40625 -0.8125 C 1.539062 -0.644531 1.722656 -0.5625 1.953125 -0.5625 C 2.285156 -0.5625 2.539062 -0.71875 2.71875 -1.03125 C 2.894531 -1.34375 2.984375 -1.773438 2.984375 -2.328125 Z M 0.703125 -6.640625 C 0.722656 -6.804688 0.75 -6.96875 0.78125 -7.125 C 0.820312 -7.28125 0.878906 -7.414062 0.953125 -7.53125 C 1.023438 -7.65625 1.113281 -7.75 1.21875 -7.8125 C 1.320312 -7.882812 1.445312 -7.921875 1.59375 -7.921875 C 1.726562 -7.921875 1.851562 -7.890625 1.96875 -7.828125 C 2.09375 -7.765625 2.210938 -7.691406 2.328125 -7.609375 C 2.441406 -7.523438 2.550781 -7.453125 2.65625 -7.390625 C 2.769531 -7.328125 2.878906 -7.296875 2.984375 -7.296875 C 3.097656 -7.296875 3.179688 -7.351562 3.234375 -7.46875 C 3.296875 -7.582031 3.34375 -7.738281 3.375 -7.9375 L 3.890625 -7.9375 C 3.867188 -7.519531 3.773438 -7.195312 3.609375 -6.96875 C 3.453125 -6.75 3.253906 -6.640625 3.015625 -6.640625 C 2.878906 -6.640625 2.75 -6.671875 2.625 -6.734375 C 2.5 -6.804688 2.378906 -6.882812 2.265625 -6.96875 C 2.148438 -7.050781 2.039062 -7.125 1.9375 -7.1875 C 1.832031 -7.25 1.734375 -7.28125 1.640625 -7.28125 C 1.546875 -7.28125 1.457031 -7.222656 1.375 -7.109375 C 1.300781 -6.992188 1.25 -6.835938 1.21875 -6.640625 Z M 0.703125 -6.640625 "/></g></g><g style="fill:#2d6d5e;fill-opacity:1;"><g transform="translate(65.782712, 121.013486)"><path style="stroke:none" d="M 4.359375 -2.9375 C 4.359375 -2.476562 4.316406 -2.0625 4.234375 -1.6875 C 4.160156 -1.3125 4.039062 -0.988281 3.875 -0.71875 C 3.71875 -0.457031 3.515625 -0.253906 3.265625 -0.109375 C 3.023438 0.0351562 2.734375 0.109375 2.390625 0.109375 C 2.078125 0.109375 1.796875 0.0351562 1.546875 -0.109375 C 1.304688 -0.253906 1.101562 -0.457031 0.9375 -0.71875 C 0.78125 -0.976562 0.660156 -1.296875 0.578125 -1.671875 C 0.503906 -2.054688 0.46875 -2.476562 0.46875 -2.9375 C 0.46875 -3.582031 0.535156 -4.128906 0.671875 -4.578125 C 0.804688 -5.035156 1.019531 -5.378906 1.3125 -5.609375 C 1.601562 -5.847656 1.96875 -5.96875 2.40625 -5.96875 C 2.820312 -5.96875 3.175781 -5.851562 3.46875 -5.625 C 3.757812 -5.394531 3.976562 -5.054688 4.125 -4.609375 C 4.28125 -4.160156 4.359375 -3.601562 4.359375 -2.9375 Z M 1.296875 -2.9375 C 1.296875 -2.425781 1.332031 -2 1.40625 -1.65625 C 1.488281 -1.3125 1.613281 -1.050781 1.78125 -0.875 C 1.945312 -0.695312 2.160156 -0.609375 2.421875 -0.609375 C 2.671875 -0.609375 2.875 -0.691406 3.03125 -0.859375 C 3.195312 -1.035156 3.316406 -1.296875 3.390625 -1.640625 C 3.472656 -1.984375 3.515625 -2.414062 3.515625 -2.9375 C 3.515625 -3.445312 3.472656 -3.875 3.390625 -4.21875 C 3.316406 -4.5625 3.195312 -4.816406 3.03125 -4.984375 C 2.875 -5.160156 2.664062 -5.25 2.40625 -5.25 C 2.019531 -5.25 1.738281 -5.054688 1.5625 -4.671875 C 1.382812 -4.285156 1.296875 -3.707031 1.296875 -2.9375 Z M 1.296875 -2.9375 "/></g></g><g style="fill:#2d6d5e;fill-opacity:1;"><g transform="translate(72.13444, 121.013486)"><path style="stroke:none" d=""/></g></g><g style="fill:#2d6d5e;fill-opacity:1;"><g transform="translate(75.697419, 121.013486)"><path style="stroke:none" d="M 4.359375 -2.9375 C 4.359375 -2.476562 4.316406 -2.0625 4.234375 -1.6875 C 4.160156 -1.3125 4.039062 -0.988281 3.875 -0.71875 C 3.71875 -0.457031 3.515625 -0.253906 3.265625 -0.109375 C 3.023438 0.0351562 2.734375 0.109375 2.390625 0.109375 C 2.078125 0.109375 1.796875 0.0351562 1.546875 -0.109375 C 1.304688 -0.253906 1.101562 -0.457031 0.9375 -0.71875 C 0.78125 -0.976562 0.660156 -1.296875 0.578125 -1.671875 C 0.503906 -2.054688 0.46875 -2.476562 0.46875 -2.9375 C 0.46875 -3.582031 0.535156 -4.128906 0.671875 -4.578125 C 0.804688 -5.035156 1.019531 -5.378906 1.3125 -5.609375 C 1.601562 -5.847656 1.96875 -5.96875 2.40625 -5.96875 C 2.820312 -5.96875 3.175781 -5.851562 3.46875 -5.625 C 3.757812 -5.394531 3.976562 -5.054688 4.125 -4.609375 C 4.28125 -4.160156 4.359375 -3.601562 4.359375 -2.9375 Z M 1.296875 -2.9375 C 1.296875 -2.425781 1.332031 -2 1.40625 -1.65625 C 1.488281 -1.3125 1.613281 -1.050781 1.78125 -0.875 C 1.945312 -0.695312 2.160156 -0.609375 2.421875 -0.609375 C 2.671875 -0.609375 2.875 -0.691406 3.03125 -0.859375 C 3.195312 -1.035156 3.316406 -1.296875 3.390625 -1.640625 C 3.472656 -1.984375 3.515625 -2.414062 3.515625 -2.9375 C 3.515625 -3.445312 3.472656 -3.875 3.390625 -4.21875 C 3.316406 -4.5625 3.195312 -4.816406 3.03125 -4.984375 C 2.875 -5.160156 2.664062 -5.25 2.40625 -5.25 C 2.019531 -5.25 1.738281 -5.054688 1.5625 -4.671875 C 1.382812 -4.285156 1.296875 -3.707031 1.296875 -2.9375 Z M 1.296875 -2.9375 "/></g></g><g style="fill:#2d6d5e;fill-opacity:1;"><g transform="translate(82.049147, 121.013486)"><path style="stroke:none" d="M 2.40625 0.109375 C 1.976562 0.109375 1.617188 0 1.328125 -0.21875 C 1.046875 -0.445312 0.832031 -0.785156 0.6875 -1.234375 C 0.539062 -1.679688 0.46875 -2.234375 0.46875 -2.890625 C 0.46875 -3.535156 0.539062 -4.085938 0.6875 -4.546875 C 0.832031 -5.003906 1.050781 -5.351562 1.34375 -5.59375 C 1.632812 -5.84375 2 -5.96875 2.4375 -5.96875 C 2.65625 -5.96875 2.851562 -5.941406 3.03125 -5.890625 C 3.207031 -5.847656 3.375 -5.785156 3.53125 -5.703125 L 3.265625 -5.03125 C 3.140625 -5.09375 3.007812 -5.140625 2.875 -5.171875 C 2.75 -5.210938 2.625 -5.234375 2.5 -5.234375 C 2.238281 -5.234375 2.019531 -5.144531 1.84375 -4.96875 C 1.675781 -4.789062 1.546875 -4.53125 1.453125 -4.1875 C 1.359375 -3.84375 1.3125 -3.414062 1.3125 -2.90625 C 1.3125 -2.394531 1.351562 -1.96875 1.4375 -1.625 C 1.53125 -1.289062 1.664062 -1.035156 1.84375 -0.859375 C 2.019531 -0.691406 2.238281 -0.609375 2.5 -0.609375 C 2.65625 -0.609375 2.8125 -0.628906 2.96875 -0.671875 C 3.132812 -0.722656 3.300781 -0.789062 3.46875 -0.875 L 3.46875 -0.1875 C 3.3125 -0.09375 3.132812 -0.0195312 2.9375 0.03125 C 2.75 0.0820312 2.570312 0.109375 2.40625 0.109375 Z M 2.40625 0.109375 "/></g></g><g style="fill:#2d6d5e;fill-opacity:1;"><g transform="translate(87.337732, 121.013486)"><path style="stroke:none" d="M 2.328125 -5.953125 C 2.722656 -5.953125 3.050781 -5.835938 3.3125 -5.609375 C 3.570312 -5.378906 3.765625 -5.066406 3.890625 -4.671875 C 4.015625 -4.285156 4.078125 -3.851562 4.078125 -3.375 L 4.078125 -2.78125 L 1.28125 -2.78125 C 1.289062 -2.050781 1.40625 -1.503906 1.625 -1.140625 C 1.84375 -0.773438 2.171875 -0.59375 2.609375 -0.59375 C 2.828125 -0.59375 3.035156 -0.625 3.234375 -0.6875 C 3.441406 -0.75 3.648438 -0.851562 3.859375 -1 L 3.859375 -0.265625 C 3.660156 -0.140625 3.453125 -0.046875 3.234375 0.015625 C 3.015625 0.078125 2.78125 0.109375 2.53125 0.109375 C 2.039062 0.109375 1.644531 -0.0195312 1.34375 -0.28125 C 1.039062 -0.539062 0.816406 -0.898438 0.671875 -1.359375 C 0.535156 -1.816406 0.46875 -2.332031 0.46875 -2.90625 C 0.46875 -3.550781 0.535156 -4.101562 0.671875 -4.5625 C 0.816406 -5.019531 1.023438 -5.363281 1.296875 -5.59375 C 1.578125 -5.832031 1.921875 -5.953125 2.328125 -5.953125 Z M 2.328125 -5.28125 C 2.015625 -5.28125 1.769531 -5.128906 1.59375 -4.828125 C 1.425781 -4.535156 1.328125 -4.070312 1.296875 -3.4375 L 3.3125 -3.4375 C 3.3125 -3.769531 3.273438 -4.078125 3.203125 -4.359375 C 3.140625 -4.640625 3.035156 -4.863281 2.890625 -5.03125 C 2.742188 -5.195312 2.554688 -5.28125 2.328125 -5.28125 Z M 2.328125 -5.28125 "/></g></g><g style="fill:#2d6d5e;fill-opacity:1;"><g transform="translate(93.395626, 121.013486)"><path style="stroke:none" d="M 2.28125 -5.96875 C 2.820312 -5.96875 3.207031 -5.796875 3.4375 -5.453125 C 3.675781 -5.109375 3.796875 -4.609375 3.796875 -3.953125 L 3.796875 0 L 3.171875 0 L 3.046875 -0.828125 L 3.015625 -0.828125 C 2.929688 -0.628906 2.820312 -0.457031 2.6875 -0.3125 C 2.5625 -0.175781 2.414062 -0.0703125 2.25 0 C 2.09375 0.0703125 1.90625 0.109375 1.6875 0.109375 C 1.382812 0.109375 1.132812 0.03125 0.9375 -0.125 C 0.75 -0.289062 0.609375 -0.503906 0.515625 -0.765625 C 0.421875 -1.023438 0.375 -1.304688 0.375 -1.609375 C 0.375 -2.191406 0.539062 -2.640625 0.875 -2.953125 C 1.21875 -3.273438 1.695312 -3.453125 2.3125 -3.484375 L 2.96875 -3.53125 L 2.96875 -3.9375 C 2.96875 -4.40625 2.90625 -4.742188 2.78125 -4.953125 C 2.65625 -5.171875 2.445312 -5.28125 2.15625 -5.28125 C 2 -5.28125 1.828125 -5.25 1.640625 -5.1875 C 1.460938 -5.132812 1.269531 -5.046875 1.0625 -4.921875 L 0.796875 -5.546875 C 1.015625 -5.691406 1.25 -5.796875 1.5 -5.859375 C 1.757812 -5.929688 2.019531 -5.96875 2.28125 -5.96875 Z M 2.984375 -2.921875 L 2.4375 -2.890625 C 2.03125 -2.867188 1.722656 -2.753906 1.515625 -2.546875 C 1.316406 -2.335938 1.21875 -2.035156 1.21875 -1.640625 C 1.21875 -1.265625 1.28125 -0.988281 1.40625 -0.8125 C 1.539062 -0.644531 1.722656 -0.5625 1.953125 -0.5625 C 2.285156 -0.5625 2.539062 -0.71875 2.71875 -1.03125 C 2.894531 -1.34375 2.984375 -1.773438 2.984375 -2.328125 Z M 2.703125 -8.375 C 2.773438 -8.207031 2.867188 -8.023438 2.984375 -7.828125 C 3.097656 -7.640625 3.21875 -7.445312 3.34375 -7.25 C 3.476562 -7.0625 3.597656 -6.890625 3.703125 -6.734375 L 3.703125 -6.625 L 3.25 -6.625 C 3.09375 -6.769531 2.9375 -6.9375 2.78125 -7.125 C 2.625 -7.3125 2.46875 -7.503906 2.3125 -7.703125 C 2.144531 -7.503906 1.976562 -7.304688 1.8125 -7.109375 C 1.644531 -6.921875 1.492188 -6.757812 1.359375 -6.625 L 0.90625 -6.625 L 0.90625 -6.734375 C 1.03125 -6.898438 1.15625 -7.082031 1.28125 -7.28125 C 1.40625 -7.476562 1.519531 -7.671875 1.625 -7.859375 C 1.738281 -8.046875 1.832031 -8.21875 1.90625 -8.375 Z M 2.703125 -8.375 "/></g></g><g style="fill:#2d6d5e;fill-opacity:1;"><g transform="translate(99.421466, 121.013486)"><path style="stroke:none" d="M 2.828125 -5.96875 C 3.285156 -5.96875 3.632812 -5.804688 3.875 -5.484375 C 4.113281 -5.160156 4.234375 -4.664062 4.234375 -4 L 4.234375 0 L 3.40625 0 L 3.40625 -3.828125 C 3.40625 -4.304688 3.34375 -4.660156 3.21875 -4.890625 C 3.101562 -5.128906 2.914062 -5.25 2.65625 -5.25 C 2.269531 -5.25 1.984375 -5.078125 1.796875 -4.734375 C 1.617188 -4.390625 1.53125 -3.84375 1.53125 -3.09375 L 1.53125 0 L 0.71875 0 L 0.71875 -5.859375 L 1.375 -5.859375 L 1.46875 -5.015625 L 1.515625 -5.015625 C 1.597656 -5.210938 1.703125 -5.378906 1.828125 -5.515625 C 1.960938 -5.660156 2.113281 -5.769531 2.28125 -5.84375 C 2.445312 -5.925781 2.628906 -5.96875 2.828125 -5.96875 Z M 2.828125 -5.96875 "/></g></g><g style="fill:#2d6d5e;fill-opacity:1;"><g transform="translate(105.885385, 121.013486)"><path style="stroke:none" d="M 1.546875 -5.859375 L 1.546875 0 L 0.71875 0 L 0.71875 -5.859375 Z M 1.140625 -8.0625 C 1.316406 -8.0625 1.441406 -8.007812 1.515625 -7.90625 C 1.585938 -7.800781 1.625 -7.648438 1.625 -7.453125 C 1.625 -7.273438 1.582031 -7.128906 1.5 -7.015625 C 1.425781 -6.910156 1.304688 -6.859375 1.140625 -6.859375 C 0.992188 -6.859375 0.875 -6.910156 0.78125 -7.015625 C 0.695312 -7.128906 0.65625 -7.273438 0.65625 -7.453125 C 0.65625 -7.648438 0.695312 -7.800781 0.78125 -7.90625 C 0.863281 -8.007812 0.984375 -8.0625 1.140625 -8.0625 Z M 1.140625 -8.0625 "/></g></g><g style="fill:#2d6d5e;fill-opacity:1;"><g transform="translate(109.683431, 121.013486)"><path style="stroke:none" d="M 2.40625 0.109375 C 1.976562 0.109375 1.617188 0 1.328125 -0.21875 C 1.046875 -0.445312 0.832031 -0.785156 0.6875 -1.234375 C 0.539062 -1.679688 0.46875 -2.234375 0.46875 -2.890625 C 0.46875 -3.535156 0.539062 -4.085938 0.6875 -4.546875 C 0.832031 -5.003906 1.050781 -5.351562 1.34375 -5.59375 C 1.632812 -5.84375 2 -5.96875 2.4375 -5.96875 C 2.65625 -5.96875 2.851562 -5.941406 3.03125 -5.890625 C 3.207031 -5.847656 3.375 -5.785156 3.53125 -5.703125 L 3.265625 -5.03125 C 3.140625 -5.09375 3.007812 -5.140625 2.875 -5.171875 C 2.75 -5.210938 2.625 -5.234375 2.5 -5.234375 C 2.238281 -5.234375 2.019531 -5.144531 1.84375 -4.96875 C 1.675781 -4.789062 1.546875 -4.53125 1.453125 -4.1875 C 1.359375 -3.84375 1.3125 -3.414062 1.3125 -2.90625 C 1.3125 -2.394531 1.351562 -1.96875 1.4375 -1.625 C 1.53125 -1.289062 1.664062 -1.035156 1.84375 -0.859375 C 2.019531 -0.691406 2.238281 -0.609375 2.5 -0.609375 C 2.65625 -0.609375 2.8125 -0.628906 2.96875 -0.671875 C 3.132812 -0.722656 3.300781 -0.789062 3.46875 -0.875 L 3.46875 -0.1875 C 3.3125 -0.09375 3.132812 -0.0195312 2.9375 0.03125 C 2.75 0.0820312 2.570312 0.109375 2.40625 0.109375 Z M 2.40625 0.109375 "/></g></g><g style="fill:#2d6d5e;fill-opacity:1;"><g transform="translate(114.972015, 121.013486)"><path style="stroke:none" d="M 2.28125 -5.96875 C 2.820312 -5.96875 3.207031 -5.796875 3.4375 -5.453125 C 3.675781 -5.109375 3.796875 -4.609375 3.796875 -3.953125 L 3.796875 0 L 3.171875 0 L 3.046875 -0.828125 L 3.015625 -0.828125 C 2.929688 -0.628906 2.820312 -0.457031 2.6875 -0.3125 C 2.5625 -0.175781 2.414062 -0.0703125 2.25 0 C 2.09375 0.0703125 1.90625 0.109375 1.6875 0.109375 C 1.382812 0.109375 1.132812 0.03125 0.9375 -0.125 C 0.75 -0.289062 0.609375 -0.503906 0.515625 -0.765625 C 0.421875 -1.023438 0.375 -1.304688 0.375 -1.609375 C 0.375 -2.191406 0.539062 -2.640625 0.875 -2.953125 C 1.21875 -3.273438 1.695312 -3.453125 2.3125 -3.484375 L 2.96875 -3.53125 L 2.96875 -3.9375 C 2.96875 -4.40625 2.90625 -4.742188 2.78125 -4.953125 C 2.65625 -5.171875 2.445312 -5.28125 2.15625 -5.28125 C 2 -5.28125 1.828125 -5.25 1.640625 -5.1875 C 1.460938 -5.132812 1.269531 -5.046875 1.0625 -4.921875 L 0.796875 -5.546875 C 1.015625 -5.691406 1.25 -5.796875 1.5 -5.859375 C 1.757812 -5.929688 2.019531 -5.96875 2.28125 -5.96875 Z M 2.984375 -2.921875 L 2.4375 -2.890625 C 2.03125 -2.867188 1.722656 -2.753906 1.515625 -2.546875 C 1.316406 -2.335938 1.21875 -2.035156 1.21875 -1.640625 C 1.21875 -1.265625 1.28125 -0.988281 1.40625 -0.8125 C 1.539062 -0.644531 1.722656 -0.5625 1.953125 -0.5625 C 2.285156 -0.5625 2.539062 -0.71875 2.71875 -1.03125 C 2.894531 -1.34375 2.984375 -1.773438 2.984375 -2.328125 Z M 2.984375 -2.921875 "/></g></g><g style="fill:#2d6d5e;fill-opacity:1;"><g transform="translate(22.051698, 133.704457)"><path style="stroke:none" d="M 2.828125 -5.96875 C 3.390625 -5.96875 3.816406 -5.710938 4.109375 -5.203125 C 4.398438 -4.703125 4.546875 -3.945312 4.546875 -2.9375 C 4.546875 -2.289062 4.476562 -1.738281 4.34375 -1.28125 C 4.21875 -0.832031 4.03125 -0.488281 3.78125 -0.25 C 3.53125 -0.0078125 3.226562 0.109375 2.875 0.109375 C 2.675781 0.109375 2.488281 0.0703125 2.3125 0 C 2.144531 -0.0820312 1.992188 -0.191406 1.859375 -0.328125 C 1.734375 -0.472656 1.625 -0.640625 1.53125 -0.828125 L 1.5 -0.828125 C 1.507812 -0.679688 1.515625 -0.539062 1.515625 -0.40625 C 1.523438 -0.28125 1.53125 -0.160156 1.53125 -0.046875 L 1.53125 2.609375 L 0.71875 2.609375 L 0.71875 -5.859375 L 1.390625 -5.859375 L 1.484375 -5 L 1.53125 -5 C 1.632812 -5.21875 1.75 -5.394531 1.875 -5.53125 C 2.007812 -5.675781 2.15625 -5.785156 2.3125 -5.859375 C 2.46875 -5.929688 2.640625 -5.96875 2.828125 -5.96875 Z M 2.65625 -5.265625 C 2.40625 -5.265625 2.195312 -5.1875 2.03125 -5.03125 C 1.875 -4.875 1.75 -4.632812 1.65625 -4.3125 C 1.570312 -4 1.53125 -3.601562 1.53125 -3.125 L 1.53125 -2.84375 C 1.53125 -2.34375 1.570312 -1.925781 1.65625 -1.59375 C 1.75 -1.257812 1.878906 -1.007812 2.046875 -0.84375 C 2.210938 -0.6875 2.421875 -0.609375 2.671875 -0.609375 C 2.898438 -0.609375 3.09375 -0.691406 3.25 -0.859375 C 3.40625 -1.023438 3.519531 -1.273438 3.59375 -1.609375 C 3.675781 -1.953125 3.71875 -2.394531 3.71875 -2.9375 C 3.71875 -3.707031 3.632812 -4.285156 3.46875 -4.671875 C 3.300781 -5.066406 3.03125 -5.265625 2.65625 -5.265625 Z M 2.65625 -5.265625 "/></g></g><g style="fill:#2d6d5e;fill-opacity:1;"><g transform="translate(28.590411, 133.704457)"><path style="stroke:none" d="M 2.28125 -5.96875 C 2.820312 -5.96875 3.207031 -5.796875 3.4375 -5.453125 C 3.675781 -5.109375 3.796875 -4.609375 3.796875 -3.953125 L 3.796875 0 L 3.171875 0 L 3.046875 -0.828125 L 3.015625 -0.828125 C 2.929688 -0.628906 2.820312 -0.457031 2.6875 -0.3125 C 2.5625 -0.175781 2.414062 -0.0703125 2.25 0 C 2.09375 0.0703125 1.90625 0.109375 1.6875 0.109375 C 1.382812 0.109375 1.132812 0.03125 0.9375 -0.125 C 0.75 -0.289062 0.609375 -0.503906 0.515625 -0.765625 C 0.421875 -1.023438 0.375 -1.304688 0.375 -1.609375 C 0.375 -2.191406 0.539062 -2.640625 0.875 -2.953125 C 1.21875 -3.273438 1.695312 -3.453125 2.3125 -3.484375 L 2.96875 -3.53125 L 2.96875 -3.9375 C 2.96875 -4.40625 2.90625 -4.742188 2.78125 -4.953125 C 2.65625 -5.171875 2.445312 -5.28125 2.15625 -5.28125 C 2 -5.28125 1.828125 -5.25 1.640625 -5.1875 C 1.460938 -5.132812 1.269531 -5.046875 1.0625 -4.921875 L 0.796875 -5.546875 C 1.015625 -5.691406 1.25 -5.796875 1.5 -5.859375 C 1.757812 -5.929688 2.019531 -5.96875 2.28125 -5.96875 Z M 2.984375 -2.921875 L 2.4375 -2.890625 C 2.03125 -2.867188 1.722656 -2.753906 1.515625 -2.546875 C 1.316406 -2.335938 1.21875 -2.035156 1.21875 -1.640625 C 1.21875 -1.265625 1.28125 -0.988281 1.40625 -0.8125 C 1.539062 -0.644531 1.722656 -0.5625 1.953125 -0.5625 C 2.285156 -0.5625 2.539062 -0.71875 2.71875 -1.03125 C 2.894531 -1.34375 2.984375 -1.773438 2.984375 -2.328125 Z M 2.984375 -2.921875 "/></g></g><g style="fill:#2d6d5e;fill-opacity:1;"><g transform="translate(34.61625, 133.704457)"><path style="stroke:none" d="M 2.671875 -5.96875 C 2.753906 -5.96875 2.835938 -5.957031 2.921875 -5.9375 C 3.003906 -5.925781 3.085938 -5.910156 3.171875 -5.890625 L 3.046875 -5.046875 C 2.984375 -5.066406 2.914062 -5.082031 2.84375 -5.09375 C 2.769531 -5.101562 2.691406 -5.109375 2.609375 -5.109375 C 2.453125 -5.109375 2.304688 -5.054688 2.171875 -4.953125 C 2.035156 -4.847656 1.921875 -4.703125 1.828125 -4.515625 C 1.734375 -4.328125 1.660156 -4.109375 1.609375 -3.859375 C 1.554688 -3.609375 1.53125 -3.34375 1.53125 -3.0625 L 1.53125 0 L 0.71875 0 L 0.71875 -5.859375 L 1.359375 -5.859375 L 1.46875 -4.828125 L 1.515625 -4.828125 C 1.597656 -5.046875 1.691406 -5.238281 1.796875 -5.40625 C 1.910156 -5.582031 2.039062 -5.71875 2.1875 -5.8125 C 2.332031 -5.914062 2.492188 -5.96875 2.671875 -5.96875 Z M 2.671875 -5.96875 "/></g></g><g style="fill:#2d6d5e;fill-opacity:1;"><g transform="translate(39.429359, 133.704457)"><path style="stroke:none" d="M 2.28125 -5.96875 C 2.820312 -5.96875 3.207031 -5.796875 3.4375 -5.453125 C 3.675781 -5.109375 3.796875 -4.609375 3.796875 -3.953125 L 3.796875 0 L 3.171875 0 L 3.046875 -0.828125 L 3.015625 -0.828125 C 2.929688 -0.628906 2.820312 -0.457031 2.6875 -0.3125 C 2.5625 -0.175781 2.414062 -0.0703125 2.25 0 C 2.09375 0.0703125 1.90625 0.109375 1.6875 0.109375 C 1.382812 0.109375 1.132812 0.03125 0.9375 -0.125 C 0.75 -0.289062 0.609375 -0.503906 0.515625 -0.765625 C 0.421875 -1.023438 0.375 -1.304688 0.375 -1.609375 C 0.375 -2.191406 0.539062 -2.640625 0.875 -2.953125 C 1.21875 -3.273438 1.695312 -3.453125 2.3125 -3.484375 L 2.96875 -3.53125 L 2.96875 -3.9375 C 2.96875 -4.40625 2.90625 -4.742188 2.78125 -4.953125 C 2.65625 -5.171875 2.445312 -5.28125 2.15625 -5.28125 C 2 -5.28125 1.828125 -5.25 1.640625 -5.1875 C 1.460938 -5.132812 1.269531 -5.046875 1.0625 -4.921875 L 0.796875 -5.546875 C 1.015625 -5.691406 1.25 -5.796875 1.5 -5.859375 C 1.757812 -5.929688 2.019531 -5.96875 2.28125 -5.96875 Z M 2.984375 -2.921875 L 2.4375 -2.890625 C 2.03125 -2.867188 1.722656 -2.753906 1.515625 -2.546875 C 1.316406 -2.335938 1.21875 -2.035156 1.21875 -1.640625 C 1.21875 -1.265625 1.28125 -0.988281 1.40625 -0.8125 C 1.539062 -0.644531 1.722656 -0.5625 1.953125 -0.5625 C 2.285156 -0.5625 2.539062 -0.71875 2.71875 -1.03125 C 2.894531 -1.34375 2.984375 -1.773438 2.984375 -2.328125 Z M 2.984375 -2.921875 "/></g></g><g style="fill:#2d6d5e;fill-opacity:1;"><g transform="translate(45.455198, 133.704457)"><path style="stroke:none" d=""/></g></g><g style="fill:#2d6d5e;fill-opacity:1;"><g transform="translate(49.018178, 133.704457)"><path style="stroke:none" d="M 2.5625 -5.171875 L 1.640625 -5.171875 L 1.640625 0 L 0.8125 0 L 0.8125 -5.171875 L 0.09375 -5.171875 L 0.09375 -5.609375 L 0.8125 -5.890625 L 0.8125 -6.28125 C 0.8125 -6.726562 0.847656 -7.101562 0.921875 -7.40625 C 1.003906 -7.71875 1.140625 -7.957031 1.328125 -8.125 C 1.523438 -8.289062 1.789062 -8.375 2.125 -8.375 C 2.28125 -8.375 2.421875 -8.359375 2.546875 -8.328125 C 2.679688 -8.296875 2.820312 -8.253906 2.96875 -8.203125 L 2.75 -7.53125 C 2.65625 -7.570312 2.5625 -7.597656 2.46875 -7.609375 C 2.382812 -7.628906 2.300781 -7.640625 2.21875 -7.640625 C 2 -7.640625 1.847656 -7.539062 1.765625 -7.34375 C 1.679688 -7.15625 1.640625 -6.8125 1.640625 -6.3125 L 1.640625 -5.859375 L 2.5625 -5.859375 Z M 2.5625 -5.171875 "/></g></g><g style="fill:#2d6d5e;fill-opacity:1;"><g transform="translate(53.270331, 133.704457)"><path style="stroke:none" d="M 4.359375 -2.9375 C 4.359375 -2.476562 4.316406 -2.0625 4.234375 -1.6875 C 4.160156 -1.3125 4.039062 -0.988281 3.875 -0.71875 C 3.71875 -0.457031 3.515625 -0.253906 3.265625 -0.109375 C 3.023438 0.0351562 2.734375 0.109375 2.390625 0.109375 C 2.078125 0.109375 1.796875 0.0351562 1.546875 -0.109375 C 1.304688 -0.253906 1.101562 -0.457031 0.9375 -0.71875 C 0.78125 -0.976562 0.660156 -1.296875 0.578125 -1.671875 C 0.503906 -2.054688 0.46875 -2.476562 0.46875 -2.9375 C 0.46875 -3.582031 0.535156 -4.128906 0.671875 -4.578125 C 0.804688 -5.035156 1.019531 -5.378906 1.3125 -5.609375 C 1.601562 -5.847656 1.96875 -5.96875 2.40625 -5.96875 C 2.820312 -5.96875 3.175781 -5.851562 3.46875 -5.625 C 3.757812 -5.394531 3.976562 -5.054688 4.125 -4.609375 C 4.28125 -4.160156 4.359375 -3.601562 4.359375 -2.9375 Z M 1.296875 -2.9375 C 1.296875 -2.425781 1.332031 -2 1.40625 -1.65625 C 1.488281 -1.3125 1.613281 -1.050781 1.78125 -0.875 C 1.945312 -0.695312 2.160156 -0.609375 2.421875 -0.609375 C 2.671875 -0.609375 2.875 -0.691406 3.03125 -0.859375 C 3.195312 -1.035156 3.316406 -1.296875 3.390625 -1.640625 C 3.472656 -1.984375 3.515625 -2.414062 3.515625 -2.9375 C 3.515625 -3.445312 3.472656 -3.875 3.390625 -4.21875 C 3.316406 -4.5625 3.195312 -4.816406 3.03125 -4.984375 C 2.875 -5.160156 2.664062 -5.25 2.40625 -5.25 C 2.019531 -5.25 1.738281 -5.054688 1.5625 -4.671875 C 1.382812 -4.285156 1.296875 -3.707031 1.296875 -2.9375 Z M 1.296875 -2.9375 "/></g></g><g style="fill:#2d6d5e;fill-opacity:1;"><g transform="translate(59.622058, 133.704457)"><path style="stroke:none" d="M 2.40625 0.109375 C 1.976562 0.109375 1.617188 0 1.328125 -0.21875 C 1.046875 -0.445312 0.832031 -0.785156 0.6875 -1.234375 C 0.539062 -1.679688 0.46875 -2.234375 0.46875 -2.890625 C 0.46875 -3.535156 0.539062 -4.085938 0.6875 -4.546875 C 0.832031 -5.003906 1.050781 -5.351562 1.34375 -5.59375 C 1.632812 -5.84375 2 -5.96875 2.4375 -5.96875 C 2.65625 -5.96875 2.851562 -5.941406 3.03125 -5.890625 C 3.207031 -5.847656 3.375 -5.785156 3.53125 -5.703125 L 3.265625 -5.03125 C 3.140625 -5.09375 3.007812 -5.140625 2.875 -5.171875 C 2.75 -5.210938 2.625 -5.234375 2.5 -5.234375 C 2.238281 -5.234375 2.019531 -5.144531 1.84375 -4.96875 C 1.675781 -4.789062 1.546875 -4.53125 1.453125 -4.1875 C 1.359375 -3.84375 1.3125 -3.414062 1.3125 -2.90625 C 1.3125 -2.394531 1.351562 -1.96875 1.4375 -1.625 C 1.53125 -1.289062 1.664062 -1.035156 1.84375 -0.859375 C 2.019531 -0.691406 2.238281 -0.609375 2.5 -0.609375 C 2.65625 -0.609375 2.8125 -0.628906 2.96875 -0.671875 C 3.132812 -0.722656 3.300781 -0.789062 3.46875 -0.875 L 3.46875 -0.1875 C 3.3125 -0.09375 3.132812 -0.0195312 2.9375 0.03125 C 2.75 0.0820312 2.570312 0.109375 2.40625 0.109375 Z M 2.40625 0.109375 "/></g></g><g style="fill:#2d6d5e;fill-opacity:1;"><g transform="translate(64.910643, 133.704457)"><path style="stroke:none" d="M 4.359375 -2.9375 C 4.359375 -2.476562 4.316406 -2.0625 4.234375 -1.6875 C 4.160156 -1.3125 4.039062 -0.988281 3.875 -0.71875 C 3.71875 -0.457031 3.515625 -0.253906 3.265625 -0.109375 C 3.023438 0.0351562 2.734375 0.109375 2.390625 0.109375 C 2.078125 0.109375 1.796875 0.0351562 1.546875 -0.109375 C 1.304688 -0.253906 1.101562 -0.457031 0.9375 -0.71875 C 0.78125 -0.976562 0.660156 -1.296875 0.578125 -1.671875 C 0.503906 -2.054688 0.46875 -2.476562 0.46875 -2.9375 C 0.46875 -3.582031 0.535156 -4.128906 0.671875 -4.578125 C 0.804688 -5.035156 1.019531 -5.378906 1.3125 -5.609375 C 1.601562 -5.847656 1.96875 -5.96875 2.40625 -5.96875 C 2.820312 -5.96875 3.175781 -5.851562 3.46875 -5.625 C 3.757812 -5.394531 3.976562 -5.054688 4.125 -4.609375 C 4.28125 -4.160156 4.359375 -3.601562 4.359375 -2.9375 Z M 1.296875 -2.9375 C 1.296875 -2.425781 1.332031 -2 1.40625 -1.65625 C 1.488281 -1.3125 1.613281 -1.050781 1.78125 -0.875 C 1.945312 -0.695312 2.160156 -0.609375 2.421875 -0.609375 C 2.671875 -0.609375 2.875 -0.691406 3.03125 -0.859375 C 3.195312 -1.035156 3.316406 -1.296875 3.390625 -1.640625 C 3.472656 -1.984375 3.515625 -2.414062 3.515625 -2.9375 C 3.515625 -3.445312 3.472656 -3.875 3.390625 -4.21875 C 3.316406 -4.5625 3.195312 -4.816406 3.03125 -4.984375 C 2.875 -5.160156 2.664062 -5.25 2.40625 -5.25 C 2.019531 -5.25 1.738281 -5.054688 1.5625 -4.671875 C 1.382812 -4.285156 1.296875 -3.707031 1.296875 -2.9375 Z M 1.296875 -2.9375 "/></g></g><g style="fill:#2d6d5e;fill-opacity:1;"><g transform="translate(71.262371, 133.704457)"><path style="stroke:none" d=""/></g></g><g style="fill:#2d6d5e;fill-opacity:1;"><g transform="translate(74.82535, 133.704457)"><path style="stroke:none" d="M 2.328125 -5.953125 C 2.722656 -5.953125 3.050781 -5.835938 3.3125 -5.609375 C 3.570312 -5.378906 3.765625 -5.066406 3.890625 -4.671875 C 4.015625 -4.285156 4.078125 -3.851562 4.078125 -3.375 L 4.078125 -2.78125 L 1.28125 -2.78125 C 1.289062 -2.050781 1.40625 -1.503906 1.625 -1.140625 C 1.84375 -0.773438 2.171875 -0.59375 2.609375 -0.59375 C 2.828125 -0.59375 3.035156 -0.625 3.234375 -0.6875 C 3.441406 -0.75 3.648438 -0.851562 3.859375 -1 L 3.859375 -0.265625 C 3.660156 -0.140625 3.453125 -0.046875 3.234375 0.015625 C 3.015625 0.078125 2.78125 0.109375 2.53125 0.109375 C 2.039062 0.109375 1.644531 -0.0195312 1.34375 -0.28125 C 1.039062 -0.539062 0.816406 -0.898438 0.671875 -1.359375 C 0.535156 -1.816406 0.46875 -2.332031 0.46875 -2.90625 C 0.46875 -3.550781 0.535156 -4.101562 0.671875 -4.5625 C 0.816406 -5.019531 1.023438 -5.363281 1.296875 -5.59375 C 1.578125 -5.832031 1.921875 -5.953125 2.328125 -5.953125 Z M 2.328125 -5.28125 C 2.015625 -5.28125 1.769531 -5.128906 1.59375 -4.828125 C 1.425781 -4.535156 1.328125 -4.070312 1.296875 -3.4375 L 3.3125 -3.4375 C 3.3125 -3.769531 3.273438 -4.078125 3.203125 -4.359375 C 3.140625 -4.640625 3.035156 -4.863281 2.890625 -5.03125 C 2.742188 -5.195312 2.554688 -5.28125 2.328125 -5.28125 Z M 2.328125 -5.28125 "/></g></g><g style="fill:#2d6d5e;fill-opacity:1;"><g transform="translate(80.883244, 133.704457)"><path style="stroke:none" d=""/></g></g><g style="fill:#2d6d5e;fill-opacity:1;"><g transform="translate(84.446224, 133.704457)"><path style="stroke:none" d="M 2.40625 0.109375 C 1.976562 0.109375 1.617188 0 1.328125 -0.21875 C 1.046875 -0.445312 0.832031 -0.785156 0.6875 -1.234375 C 0.539062 -1.679688 0.46875 -2.234375 0.46875 -2.890625 C 0.46875 -3.535156 0.539062 -4.085938 0.6875 -4.546875 C 0.832031 -5.003906 1.050781 -5.351562 1.34375 -5.59375 C 1.632812 -5.84375 2 -5.96875 2.4375 -5.96875 C 2.65625 -5.96875 2.851562 -5.941406 3.03125 -5.890625 C 3.207031 -5.847656 3.375 -5.785156 3.53125 -5.703125 L 3.265625 -5.03125 C 3.140625 -5.09375 3.007812 -5.140625 2.875 -5.171875 C 2.75 -5.210938 2.625 -5.234375 2.5 -5.234375 C 2.238281 -5.234375 2.019531 -5.144531 1.84375 -4.96875 C 1.675781 -4.789062 1.546875 -4.53125 1.453125 -4.1875 C 1.359375 -3.84375 1.3125 -3.414062 1.3125 -2.90625 C 1.3125 -2.394531 1.351562 -1.96875 1.4375 -1.625 C 1.53125 -1.289062 1.664062 -1.035156 1.84375 -0.859375 C 2.019531 -0.691406 2.238281 -0.609375 2.5 -0.609375 C 2.65625 -0.609375 2.8125 -0.628906 2.96875 -0.671875 C 3.132812 -0.722656 3.300781 -0.789062 3.46875 -0.875 L 3.46875 -0.1875 C 3.3125 -0.09375 3.132812 -0.0195312 2.9375 0.03125 C 2.75 0.0820312 2.570312 0.109375 2.40625 0.109375 Z M 2.40625 0.109375 "/></g></g><g style="fill:#2d6d5e;fill-opacity:1;"><g transform="translate(89.734808, 133.704457)"><path style="stroke:none" d="M 2.28125 -5.96875 C 2.820312 -5.96875 3.207031 -5.796875 3.4375 -5.453125 C 3.675781 -5.109375 3.796875 -4.609375 3.796875 -3.953125 L 3.796875 0 L 3.171875 0 L 3.046875 -0.828125 L 3.015625 -0.828125 C 2.929688 -0.628906 2.820312 -0.457031 2.6875 -0.3125 C 2.5625 -0.175781 2.414062 -0.0703125 2.25 0 C 2.09375 0.0703125 1.90625 0.109375 1.6875 0.109375 C 1.382812 0.109375 1.132812 0.03125 0.9375 -0.125 C 0.75 -0.289062 0.609375 -0.503906 0.515625 -0.765625 C 0.421875 -1.023438 0.375 -1.304688 0.375 -1.609375 C 0.375 -2.191406 0.539062 -2.640625 0.875 -2.953125 C 1.21875 -3.273438 1.695312 -3.453125 2.3125 -3.484375 L 2.96875 -3.53125 L 2.96875 -3.9375 C 2.96875 -4.40625 2.90625 -4.742188 2.78125 -4.953125 C 2.65625 -5.171875 2.445312 -5.28125 2.15625 -5.28125 C 2 -5.28125 1.828125 -5.25 1.640625 -5.1875 C 1.460938 -5.132812 1.269531 -5.046875 1.0625 -4.921875 L 0.796875 -5.546875 C 1.015625 -5.691406 1.25 -5.796875 1.5 -5.859375 C 1.757812 -5.929688 2.019531 -5.96875 2.28125 -5.96875 Z M 2.984375 -2.921875 L 2.4375 -2.890625 C 2.03125 -2.867188 1.722656 -2.753906 1.515625 -2.546875 C 1.316406 -2.335938 1.21875 -2.035156 1.21875 -1.640625 C 1.21875 -1.265625 1.28125 -0.988281 1.40625 -0.8125 C 1.539062 -0.644531 1.722656 -0.5625 1.953125 -0.5625 C 2.285156 -0.5625 2.539062 -0.71875 2.71875 -1.03125 C 2.894531 -1.34375 2.984375 -1.773438 2.984375 -2.328125 Z M 2.984375 -2.921875 "/></g></g><g style="fill:#2d6d5e;fill-opacity:1;"><g transform="translate(95.760648, 133.704457)"><path style="stroke:none" d="M 1.53125 0 L 0.71875 0 L 0.71875 -8.3125 L 1.53125 -8.3125 Z M 1.53125 0 "/></g></g><g style="fill:#2d6d5e;fill-opacity:1;"><g transform="translate(99.537325, 133.704457)"><path style="stroke:none" d="M 5.3125 -5.96875 C 5.78125 -5.96875 6.125 -5.800781 6.34375 -5.46875 C 6.5625 -5.132812 6.671875 -4.628906 6.671875 -3.953125 L 6.671875 0 L 5.859375 0 L 5.859375 -3.8125 C 5.859375 -4.320312 5.789062 -4.6875 5.65625 -4.90625 C 5.53125 -5.132812 5.34375 -5.25 5.09375 -5.25 C 4.738281 -5.25 4.484375 -5.078125 4.328125 -4.734375 C 4.179688 -4.398438 4.109375 -3.921875 4.109375 -3.296875 L 4.109375 0 L 3.296875 0 L 3.296875 -3.8125 C 3.296875 -4.164062 3.265625 -4.445312 3.203125 -4.65625 C 3.148438 -4.863281 3.066406 -5.015625 2.953125 -5.109375 C 2.835938 -5.203125 2.695312 -5.25 2.53125 -5.25 C 2.257812 -5.25 2.050781 -5.15625 1.90625 -4.96875 C 1.769531 -4.789062 1.671875 -4.539062 1.609375 -4.21875 C 1.554688 -3.90625 1.53125 -3.546875 1.53125 -3.140625 L 1.53125 0 L 0.71875 0 L 0.71875 -5.859375 L 1.375 -5.859375 L 1.46875 -5.03125 L 1.515625 -5.03125 C 1.585938 -5.226562 1.679688 -5.394531 1.796875 -5.53125 C 1.921875 -5.675781 2.0625 -5.785156 2.21875 -5.859375 C 2.382812 -5.929688 2.566406 -5.96875 2.765625 -5.96875 C 3.109375 -5.96875 3.375 -5.875 3.5625 -5.6875 C 3.757812 -5.507812 3.890625 -5.28125 3.953125 -5 L 4.015625 -5 C 4.148438 -5.332031 4.316406 -5.578125 4.515625 -5.734375 C 4.722656 -5.890625 4.988281 -5.96875 5.3125 -5.96875 Z M 5.3125 -5.96875 "/></g></g><g style="fill:#2d6d5e;fill-opacity:1;"><g transform="translate(108.442734, 133.704457)"><path style="stroke:none" d="M 2.28125 -5.96875 C 2.820312 -5.96875 3.207031 -5.796875 3.4375 -5.453125 C 3.675781 -5.109375 3.796875 -4.609375 3.796875 -3.953125 L 3.796875 0 L 3.171875 0 L 3.046875 -0.828125 L 3.015625 -0.828125 C 2.929688 -0.628906 2.820312 -0.457031 2.6875 -0.3125 C 2.5625 -0.175781 2.414062 -0.0703125 2.25 0 C 2.09375 0.0703125 1.90625 0.109375 1.6875 0.109375 C 1.382812 0.109375 1.132812 0.03125 0.9375 -0.125 C 0.75 -0.289062 0.609375 -0.503906 0.515625 -0.765625 C 0.421875 -1.023438 0.375 -1.304688 0.375 -1.609375 C 0.375 -2.191406 0.539062 -2.640625 0.875 -2.953125 C 1.21875 -3.273438 1.695312 -3.453125 2.3125 -3.484375 L 2.96875 -3.53125 L 2.96875 -3.9375 C 2.96875 -4.40625 2.90625 -4.742188 2.78125 -4.953125 C 2.65625 -5.171875 2.445312 -5.28125 2.15625 -5.28125 C 2 -5.28125 1.828125 -5.25 1.640625 -5.1875 C 1.460938 -5.132812 1.269531 -5.046875 1.0625 -4.921875 L 0.796875 -5.546875 C 1.015625 -5.691406 1.25 -5.796875 1.5 -5.859375 C 1.757812 -5.929688 2.019531 -5.96875 2.28125 -5.96875 Z M 2.984375 -2.921875 L 2.4375 -2.890625 C 2.03125 -2.867188 1.722656 -2.753906 1.515625 -2.546875 C 1.316406 -2.335938 1.21875 -2.035156 1.21875 -1.640625 C 1.21875 -1.265625 1.28125 -0.988281 1.40625 -0.8125 C 1.539062 -0.644531 1.722656 -0.5625 1.953125 -0.5625 C 2.285156 -0.5625 2.539062 -0.71875 2.71875 -1.03125 C 2.894531 -1.34375 2.984375 -1.773438 2.984375 -2.328125 Z M 2.984375 -2.921875 "/></g></g><path style=" stroke:none;fill-rule:nonzero;fill:#0661aa;fill-opacity:1;" d="M 64.128906 33.195312 C 63.890625 33.003906 63.699219 32.917969 63.375 32.960938 C 63.183594 32.980469 62.839844 33.109375 62.644531 33.046875 C 62.367188 32.960938 62.171875 32.25 61.980469 31.992188 C 61.527344 31.390625 60.859375 31.238281 60.257812 31.753906 C 59.980469 31.992188 59.851562 32.292969 59.765625 32.636719 C 59.699219 32.980469 59.699219 33.453125 59.355469 33.667969 C 59.074219 33.839844 58.667969 33.863281 58.367188 33.820312 C 58.152344 33.796875 57.613281 33.519531 57.527344 33.90625 C 57.464844 34.140625 57.871094 34.441406 58.085938 34.507812 C 58.429688 34.636719 58.882812 34.59375 59.246094 34.484375 C 59.914062 34.3125 60.257812 33.863281 60.367188 33.175781 C 60.410156 32.851562 60.558594 31.992188 61.097656 32.183594 C 61.570312 32.355469 61.699219 33.195312 62.042969 33.496094 C 62.496094 33.90625 63.289062 33.519531 63.804688 33.820312 C 64.152344 34.011719 64.386719 34.226562 64.796875 34.164062 C 65.226562 34.121094 65.742188 33.820312 65.914062 33.433594 C 66.066406 33.132812 65.933594 32.765625 66.019531 32.441406 C 66.128906 32.011719 66.257812 31.820312 66.105469 31.390625 C 66.066406 31.238281 65.957031 30.9375 66 30.808594 C 66.019531 30.703125 66.171875 30.574219 66.277344 30.488281 C 66.945312 29.96875 67.332031 30.617188 67.933594 30.917969 C 68.300781 31.109375 68.902344 30.894531 69.226562 31.152344 C 69.375 31.28125 69.417969 31.582031 69.503906 31.777344 C 69.65625 32.230469 69.785156 32.617188 69.699219 33.109375 C 69.546875 33.949219 69.847656 34.679688 70.730469 34.917969 C 71.269531 35.066406 72.171875 35.089844 72.621094 34.679688 C 72.859375 34.464844 72.792969 34.183594 72.730469 33.882812 C 72.664062 33.582031 72.621094 33.410156 72.988281 33.539062 C 73.398438 33.667969 73.570312 33.992188 73.761719 34.355469 C 74 34.789062 74.34375 35.003906 74.707031 35.324219 C 74.921875 35.539062 74.988281 35.820312 75.265625 36.011719 C 75.589844 36.207031 76.0625 36.226562 76.429688 36.164062 C 76.730469 36.097656 76.988281 35.90625 77.160156 35.667969 C 77.375 35.367188 77.226562 35.066406 77.351562 34.742188 C 77.441406 34.507812 77.570312 34.570312 77.804688 34.65625 C 78.234375 34.808594 78.300781 34.917969 78.40625 35.324219 C 78.558594 35.96875 79.441406 35.882812 79.976562 35.839844 C 80.558594 35.796875 81.136719 35.625 81.179688 34.960938 C 81.222656 34.59375 80.988281 33.582031 80.492188 33.519531 C 79.914062 33.476562 80.707031 34.570312 80.621094 34.894531 C 80.472656 35.433594 79.527344 35.347656 79.265625 34.980469 C 79.074219 34.703125 79.007812 34.464844 78.707031 34.269531 C 78.40625 34.054688 78.019531 33.925781 77.632812 33.925781 C 77.398438 33.925781 77.074219 33.96875 76.878906 34.121094 C 76.644531 34.335938 76.6875 34.679688 76.644531 34.960938 C 76.578125 35.347656 76.320312 35.582031 75.914062 35.433594 C 75.570312 35.304688 75.460938 34.875 75.160156 34.636719 C 74.492188 34.164062 74.277344 33.324219 73.503906 32.960938 C 72.945312 32.722656 72.042969 32.722656 72.042969 33.476562 C 72.042969 33.667969 72.191406 34.035156 72.0625 34.183594 C 71.933594 34.355469 71.441406 34.25 71.269531 34.226562 C 71.03125 34.183594 70.730469 34.121094 70.578125 33.882812 C 70.386719 33.605469 70.558594 33.28125 70.625 32.980469 C 70.753906 32.316406 70.429688 31.453125 70.0625 30.894531 C 69.65625 30.273438 69.183594 30.421875 68.539062 30.25 C 68.148438 30.164062 67.914062 29.839844 67.546875 29.691406 C 67.246094 29.5625 66.816406 29.519531 66.496094 29.605469 C 65.957031 29.710938 65.375 30.335938 65.441406 30.917969 C 65.527344 31.519531 65.527344 32.078125 65.460938 32.679688 C 65.3125 33.539062 64.753906 33.710938 64.128906 33.195312 "/><path style=" stroke:none;fill-rule:nonzero;fill:#0661aa;fill-opacity:1;" d="M 82.773438 42.65625 C 82.34375 42.65625 81.871094 42.613281 81.527344 42.871094 C 81.09375 43.195312 81.222656 43.667969 81.179688 44.121094 C 81.136719 44.636719 80.773438 44.980469 80.492188 45.386719 C 80.128906 45.90625 79.890625 46.484375 79.546875 47 C 79.265625 47.453125 79.03125 47.300781 78.578125 47.171875 C 78.234375 47.066406 77.632812 46.957031 77.828125 46.507812 C 78.40625 45.128906 76.902344 44.550781 75.742188 44.636719 C 75.226562 44.679688 75.011719 44.914062 74.707031 45.324219 C 74.449219 45.710938 74.042969 45.777344 73.589844 45.644531 C 73.097656 45.496094 73.011719 45.066406 72.816406 44.613281 C 72.707031 44.378906 72.535156 44.121094 72.320312 43.96875 C 72.105469 43.820312 71.871094 43.820312 71.65625 43.667969 C 71.160156 43.28125 71.65625 42.914062 71.484375 42.421875 C 71.3125 41.949219 70.988281 41.820312 71.269531 41.257812 C 71.460938 40.851562 71.828125 40.550781 71.71875 40.054688 C 71.570312 39.496094 71.054688 39.066406 70.730469 38.636719 C 70.386719 38.183594 70.191406 37.734375 70.191406 37.175781 C 70.191406 37.046875 70.277344 36.507812 70.128906 36.464844 C 69.933594 36.398438 69.804688 36.789062 69.785156 36.917969 C 69.65625 37.390625 69.675781 37.992188 69.761719 38.464844 C 69.871094 39.023438 70.320312 39.347656 70.6875 39.777344 C 71.097656 40.25 70.773438 40.570312 70.515625 41.042969 C 70.386719 41.28125 70.277344 41.582031 70.300781 41.863281 C 70.320312 42.140625 70.492188 42.335938 70.601562 42.59375 C 70.773438 43.109375 70.535156 43.605469 70.945312 44.054688 C 71.3125 44.464844 71.890625 44.550781 72.191406 45.066406 C 72.472656 45.539062 72.6875 46.097656 73.269531 46.3125 C 73.675781 46.464844 74.34375 46.464844 74.730469 46.269531 C 75.179688 46.054688 75.3125 45.429688 75.785156 45.34375 C 76.128906 45.28125 77.03125 45.386719 77.203125 45.777344 C 77.351562 46.183594 76.859375 46.613281 77.050781 47.066406 C 77.265625 47.582031 78.0625 47.796875 78.535156 47.902344 C 78.988281 48.011719 79.613281 48.097656 79.976562 47.753906 C 80.40625 47.324219 80.535156 46.59375 80.878906 46.121094 C 81.203125 45.644531 81.652344 45.257812 81.847656 44.679688 C 81.976562 44.3125 81.71875 43.515625 82.042969 43.367188 C 82.171875 43.304688 82.472656 43.324219 82.601562 43.324219 C 83.007812 43.28125 83.417969 43.28125 83.804688 43.195312 C 84.128906 43.128906 84.40625 43 84.535156 42.679688 C 84.664062 42.335938 84.707031 41.777344 84.515625 41.476562 C 84.386719 41.261719 83.503906 40.507812 83.652344 41.195312 C 83.71875 41.5625 84.363281 41.882812 84.128906 42.335938 C 83.890625 42.722656 83.074219 42.65625 82.773438 42.65625 "/><path style=" stroke:none;fill-rule:nonzero;fill:#0661aa;fill-opacity:1;" d="M 43.785156 36.398438 C 43.3125 36.808594 42.710938 36.851562 42.152344 36.613281 C 41.742188 36.441406 41.917969 36.917969 42.042969 37.023438 C 42.410156 37.390625 43.335938 37.347656 43.765625 37.109375 C 44.128906 36.917969 44.367188 36.765625 44.582031 36.398438 C 44.820312 35.992188 44.691406 35.582031 44.796875 35.152344 C 45.011719 34.25 45.871094 35.582031 46.171875 35.691406 C 47.035156 36.011719 47.65625 35.175781 48.042969 34.550781 C 48.28125 34.164062 48.410156 33.625 48.777344 33.347656 C 49.121094 33.066406 49.269531 33.261719 49.570312 33.453125 C 50.324219 33.992188 51.378906 33.152344 51.3125 32.335938 C 51.269531 31.90625 51.378906 31.753906 51.851562 31.648438 C 52.386719 31.539062 52.753906 31.882812 53.269531 31.949219 C 54.171875 32.054688 54.945312 31.582031 54.859375 30.636719 C 54.839844 30.316406 54.753906 30.140625 55.054688 29.949219 C 55.441406 29.734375 55.785156 29.667969 56.152344 29.949219 C 56.753906 30.402344 57.527344 31.28125 58.410156 30.789062 C 58.730469 30.59375 58.773438 30.207031 58.753906 29.863281 C 58.730469 29.410156 58.453125 29.261719 58.300781 29.777344 C 58.214844 30.078125 58.195312 30.335938 57.808594 30.230469 C 57.332031 30.121094 57.011719 29.625 56.625 29.367188 C 56.066406 28.960938 54.925781 29.109375 54.453125 29.582031 C 53.957031 30.078125 54.625 31.367188 53.527344 31.28125 C 53.164062 31.238281 52.839844 30.980469 52.472656 30.960938 C 52.066406 30.917969 51.65625 31.003906 51.292969 31.152344 C 50.992188 31.304688 50.753906 31.476562 50.691406 31.820312 C 50.625 32.183594 50.816406 32.746094 50.300781 32.894531 C 50.023438 32.980469 50.066406 32.832031 49.894531 32.703125 C 49.722656 32.574219 49.507812 32.53125 49.3125 32.53125 C 48.839844 32.53125 48.429688 32.808594 48.128906 33.152344 C 47.785156 33.605469 47.140625 35.5625 46.324219 34.9375 C 45.871094 34.59375 45.742188 34.078125 45.078125 34.207031 C 44.648438 34.292969 44.257812 34.550781 44.214844 35.023438 C 44.195312 35.261719 44.304688 35.496094 44.257812 35.734375 C 44.195312 36.011719 44.003906 36.226562 43.785156 36.398438 "/><path style=" stroke:none;fill-rule:nonzero;fill:#0661aa;fill-opacity:1;" d="M 23.765625 57 C 23.402344 57.300781 22.972656 57.710938 22.476562 57.644531 C 22.023438 57.601562 21.746094 57.410156 21.292969 57.625 C 20.21875 58.160156 19.660156 59.386719 18.457031 59.753906 C 17.894531 59.925781 17.25 59.96875 16.648438 59.988281 C 16.5 59.988281 16.304688 60.011719 16.15625 59.925781 C 16.003906 59.839844 15.917969 59.625 15.746094 59.601562 C 15.488281 59.582031 15.53125 59.882812 15.574219 60.074219 C 15.640625 60.332031 15.8125 60.441406 16.046875 60.570312 C 16.5625 60.828125 17.078125 60.699219 17.636719 60.613281 C 18.757812 60.417969 19.488281 59.988281 20.328125 59.214844 C 20.714844 58.851562 21.144531 58.289062 21.636719 58.074219 C 21.980469 57.925781 22.414062 58.160156 22.777344 58.160156 C 23.335938 58.183594 23.765625 57.710938 24.175781 57.34375 C 24.582031 56.980469 24.84375 56.636719 24.863281 56.097656 C 24.90625 55.472656 25.101562 55.152344 25.722656 54.9375 C 26.238281 54.765625 26.648438 55.472656 27.058594 55.730469 C 27.636719 56.097656 28.261719 56.097656 28.90625 55.839844 C 29.421875 55.625 30.023438 55.28125 30.089844 54.65625 C 30.109375 54.378906 30.023438 54.140625 29.917969 53.902344 C 29.875 53.796875 29.703125 53.558594 29.703125 53.429688 C 29.722656 53.128906 30.390625 53 30.648438 53 C 31.101562 52.980469 31.59375 53.085938 31.765625 53.539062 C 31.980469 54.097656 32.519531 54.3125 33.097656 54.464844 C 33.703125 54.613281 34.390625 54.742188 34.992188 54.589844 C 35.507812 54.464844 35.960938 54.183594 36.496094 54.03125 C 37.65625 53.730469 37.894531 52.527344 37.078125 51.6875 C 36.710938 51.324219 35.894531 50.828125 35.355469 51.066406 C 34.925781 51.238281 35.054688 52.140625 35.355469 51.902344 C 35.507812 51.796875 35.378906 51.601562 35.59375 51.558594 C 35.832031 51.496094 36.304688 51.753906 36.496094 51.882812 C 36.839844 52.117188 37.226562 52.785156 36.839844 53.128906 C 36.667969 53.300781 36.347656 53.324219 36.109375 53.410156 C 35.789062 53.515625 35.488281 53.710938 35.164062 53.839844 C 34.648438 54.054688 34.175781 54.03125 33.636719 53.902344 C 33.335938 53.816406 33.011719 53.753906 32.734375 53.582031 C 32.496094 53.429688 32.453125 53.214844 32.304688 52.980469 C 32.023438 52.527344 31.550781 52.398438 31.054688 52.378906 C 30.496094 52.355469 29.765625 52.378906 29.335938 52.808594 C 28.90625 53.238281 29.121094 53.644531 29.359375 54.140625 C 29.636719 54.722656 29.335938 54.957031 28.820312 55.214844 C 28.21875 55.515625 27.765625 55.539062 27.25 55.109375 C 26.714844 54.679688 26.28125 54.289062 25.550781 54.484375 C 25.035156 54.636719 24.453125 55.042969 24.367188 55.601562 C 24.328125 55.839844 24.390625 56.117188 24.328125 56.355469 C 24.242188 56.636719 23.980469 56.828125 23.765625 57 "/><g clip-rule="nonzero" clip-path="url(#9a2f2fe2c5)"><path style=" stroke:none;fill-rule:nonzero;fill:#0661aa;fill-opacity:1;" d="M 109.285156 77.234375 C 109.242188 77.277344 108.769531 77.300781 108.234375 77.300781 L 107.242188 77.300781 L 106.535156 76.632812 C 106.039062 76.160156 105.695312 75.6875 105.351562 74.976562 C 104.921875 74.09375 104.855469 73.878906 104.8125 72.976562 C 104.75 71.816406 104.941406 71.234375 105.628906 70.375 C 106.039062 69.839844 106.0625 69.839844 106.621094 70.117188 C 106.941406 70.269531 107.027344 70.398438 107.027344 70.65625 C 107.027344 71.105469 107.308594 71.601562 107.78125 72.011719 C 108.191406 72.332031 108.191406 72.355469 108.0625 72.804688 C 107.738281 73.964844 108.148438 75.644531 109.007812 76.742188 C 109.199219 76.957031 109.328125 77.191406 109.285156 77.234375 Z M 103.804688 77.214844 C 102.234375 77.171875 101.09375 77.105469 100.941406 77.019531 C 100.597656 76.847656 99.953125 75.621094 99.695312 74.65625 C 99.203125 72.761719 99.78125 70.914062 101.480469 68.976562 C 101.847656 68.570312 102.210938 68.203125 102.296875 68.160156 C 102.382812 68.117188 102.621094 68.246094 102.835938 68.398438 C 103.351562 68.828125 103.589844 68.742188 103.804688 68.074219 C 103.867188 67.882812 104.339844 67.773438 104.492188 67.945312 C 104.535156 67.988281 104.234375 68.375 103.824219 68.804688 C 102.46875 70.289062 101.71875 71.839844 101.695312 73.257812 C 101.675781 73.859375 101.738281 74.140625 101.824219 74.179688 C 101.933594 74.226562 101.976562 74.050781 101.976562 73.601562 C 101.976562 72.441406 102.554688 70.957031 103.523438 69.753906 C 104.210938 68.871094 104.835938 68.246094 105.007812 68.246094 C 105.09375 68.246094 105.308594 68.527344 105.5 68.871094 L 105.847656 69.492188 L 105.4375 69.878906 C 105.222656 70.097656 104.878906 70.589844 104.683594 71 C 103.824219 72.742188 104.277344 75 105.800781 76.589844 L 106.425781 77.234375 Z M 95.933594 76.761719 C 87.675781 76.007812 79.957031 74.226562 74.386719 71.75 C 72.816406 71.0625 72.363281 70.828125 70.578125 69.792969 L 69.632812 69.257812 L 70.515625 69.234375 C 74.320312 69.128906 79.441406 68.289062 85.246094 66.847656 C 87.890625 66.183594 90.558594 65.300781 94.945312 63.644531 C 101.824219 61.042969 106.535156 59.6875 110.554688 59.171875 C 112.082031 58.980469 114.578125 59.023438 115.542969 59.28125 C 115.929688 59.386719 116.535156 59.601562 116.898438 59.796875 C 117.5 60.097656 117.566406 60.160156 117.757812 60.785156 C 117.996094 61.539062 118.253906 61.773438 119.050781 61.945312 C 120.46875 62.246094 120.554688 62.289062 120.789062 62.847656 C 120.941406 63.171875 121.15625 63.429688 121.371094 63.558594 C 122.125 63.988281 122.125 63.988281 121.867188 64.332031 C 121.542969 64.742188 121.628906 64.933594 122.273438 65.171875 C 124.101562 65.859375 124.617188 66.933594 123.691406 68.074219 C 123.414062 68.398438 123.414062 68.398438 122.984375 68.226562 C 121.800781 67.730469 121.222656 68.484375 122.167969 69.320312 C 122.273438 69.429688 122.597656 69.644531 122.597656 69.792969 C 122.597656 69.925781 122.316406 70.097656 122.230469 70.183594 C 122.015625 70.375 121.886719 70.570312 121.886719 70.847656 C 121.886719 71.085938 121.652344 70.976562 121.222656 70.785156 C 120.640625 70.546875 120.039062 70.570312 119.738281 70.804688 C 119.414062 71.042969 119.414062 71.429688 119.867188 72.226562 C 120.058594 72.570312 120.1875 72.933594 120.167969 73.019531 C 120.058594 73.320312 119.179688 73.449219 118.511719 73.300781 C 118.363281 73.257812 118.082031 73.214844 117.972656 73.105469 C 117.867188 72.957031 117.910156 72.570312 117.910156 72.398438 C 117.953125 71.515625 117.84375 71.363281 117.308594 71.148438 C 116.75 70.933594 116.210938 70.957031 115.757812 71.214844 C 115.242188 71.535156 115.15625 71.945312 115.480469 72.589844 C 115.800781 73.234375 115.800781 73.40625 115.480469 73.578125 C 115.113281 73.773438 113.542969 73.664062 113.027344 73.386719 C 112.492188 73.105469 112.46875 73.042969 112.535156 72.484375 C 112.578125 72.160156 112.148438 71.835938 111.867188 71.601562 C 111.523438 71.300781 111.371094 71.085938 111.371094 70.871094 C 111.371094 70.398438 111.050781 70.140625 110.46875 70.140625 C 109.800781 70.140625 109.5 70.441406 109.5 71.0625 C 109.5 71.644531 109.285156 71.835938 108.707031 71.75 C 108.082031 71.644531 107.714844 71.234375 107.628906 70.503906 C 107.566406 69.925781 107.542969 69.902344 107.027344 69.621094 C 106.621094 69.40625 106.40625 69.191406 106.167969 68.785156 C 105.800781 68.097656 105.457031 67.753906 104.878906 67.515625 C 104.210938 67.234375 103.546875 67.214844 103.328125 67.625 C 103.289062 67.6875 103.265625 67.925781 103.15625 67.925781 C 102.878906 67.902344 102.535156 67.320312 102.363281 67.085938 C 101.203125 65.492188 101.007812 65.492188 100.40625 65.40625 C 99.695312 65.300781 99.09375 65.492188 98.792969 65.945312 C 98.554688 66.289062 98.535156 66.675781 98.707031 67.644531 C 98.75 67.859375 98.683594 67.882812 98.277344 67.859375 C 97.609375 67.816406 97.160156 67.625 97.160156 67.34375 C 97.160156 67.214844 97.007812 66.976562 96.859375 66.804688 C 96.601562 66.546875 96.492188 66.503906 95.976562 66.570312 C 95.007812 66.65625 94.492188 67.363281 94.726562 68.289062 C 94.902344 69 94.773438 69.085938 93.910156 68.828125 C 92.964844 68.570312 92.664062 68.65625 92.253906 69.300781 C 92.0625 69.601562 91.71875 69.964844 91.460938 70.140625 C 91.222656 70.3125 90.75 70.675781 90.449219 70.976562 C 90.300781 71.105469 90.085938 71.429688 89.890625 71.515625 C 89.652344 71.621094 89.117188 71.558594 88.859375 71.558594 C 88.039062 71.601562 87.738281 71.558594 87.417969 71.386719 C 87.03125 71.191406 87.007812 71.148438 87.050781 70.632812 C 87.09375 70.160156 87.050781 70.054688 86.773438 69.839844 C 86.085938 69.277344 84.902344 69.730469 84.816406 70.570312 C 84.773438 71.019531 84.492188 71.105469 83.589844 70.890625 C 83.03125 70.761719 82.921875 70.785156 82.34375 71.019531 C 81.71875 71.277344 81.675781 71.277344 81.203125 71.105469 C 80.664062 70.890625 80.515625 70.933594 80.515625 71.257812 C 80.515625 71.878906 81.742188 72.117188 82.578125 71.621094 C 82.945312 71.40625 83.074219 71.386719 83.375 71.472656 C 83.847656 71.644531 84.707031 71.621094 85.007812 71.449219 C 85.351562 71.277344 85.4375 71.128906 85.4375 70.742188 C 85.4375 70.503906 85.523438 70.398438 85.738281 70.3125 C 86.234375 70.117188 86.40625 70.269531 86.320312 70.804688 C 86.257812 71.214844 86.277344 71.300781 86.558594 71.601562 C 87.007812 72.054688 87.675781 72.226562 88.988281 72.179688 C 89.265625 72.160156 89.824219 72.246094 90.085938 72.140625 C 90.363281 72.03125 90.792969 71.535156 91.03125 71.34375 C 92.46875 70.117188 92.535156 70.054688 92.773438 69.621094 C 92.964844 69.277344 93.007812 69.234375 93.351562 69.320312 C 95.09375 69.6875 95.546875 69.472656 95.289062 68.269531 C 95.179688 67.730469 95.179688 67.6875 95.480469 67.429688 C 95.933594 67.019531 96.382812 67.105469 96.511719 67.601562 C 96.578125 67.839844 96.726562 68.03125 96.878906 68.117188 L 97.160156 68.246094 L 96.75 68.957031 C 96.210938 69.925781 95.996094 70.871094 95.996094 72.160156 C 95.996094 73.214844 96.234375 74.351562 96.46875 74.503906 C 96.6875 74.632812 96.6875 74.503906 96.511719 73.921875 C 96.40625 73.578125 96.339844 72.871094 96.339844 72.160156 C 96.339844 70.828125 96.554688 69.925781 97.09375 69 L 97.417969 68.460938 L 98.234375 68.460938 C 99.394531 68.460938 99.589844 68.226562 99.222656 67.34375 C 98.988281 66.761719 99.074219 66.398438 99.546875 66.160156 C 100.125 65.859375 100.707031 66.097656 101.265625 66.847656 C 101.503906 67.191406 101.804688 67.539062 101.910156 67.625 C 102.082031 67.773438 102.019531 67.859375 101.242188 68.675781 C 99.675781 70.289062 99.050781 71.535156 98.964844 73.300781 C 98.902344 74.441406 99.179688 75.601562 99.71875 76.527344 C 99.867188 76.804688 99.996094 77.0625 99.996094 77.105469 C 99.976562 77.105469 98.878906 77.042969 95.933594 76.761719 Z M 45.808594 40.25 C 44.734375 42.398438 43.613281 45.753906 43.035156 48.742188 C 42.839844 49.667969 42.667969 50.441406 42.648438 50.484375 C 42.625 50.507812 42.433594 50.464844 42.21875 50.398438 C 41.980469 50.3125 41.765625 50.117188 41.613281 49.816406 C 41.484375 49.582031 41.292969 49.429688 41.226562 49.386719 C 41.164062 49.34375 40.777344 49.28125 40.367188 49.367188 C 39.960938 49.453125 39.570312 49.472656 39.550781 49.453125 C 39.464844 49.367188 39.957031 47.171875 40.347656 45.839844 C 40.539062 45.171875 40.90625 44.121094 41.140625 43.496094 C 41.894531 41.625 41.765625 41.753906 42.476562 41.820312 C 43.226562 41.882812 44.410156 41.667969 44.691406 41.410156 C 44.992188 41.128906 44.96875 40.851562 44.496094 40.011719 C 44.066406 39.238281 44.066406 39.066406 44.476562 38.917969 C 44.96875 38.722656 45.464844 38.785156 45.851562 39.128906 L 46.214844 39.453125 Z M 39.464844 46.808594 C 39.3125 47.453125 39.292969 47.472656 39.011719 47.386719 C 38.390625 47.195312 37.765625 47.300781 36.992188 47.753906 C 36.410156 48.078125 36.109375 48.183594 35.765625 48.164062 C 35.035156 48.097656 35.140625 47.816406 36.089844 47.300781 C 37.183594 46.699219 37.292969 46.527344 37.207031 45.496094 C 37.097656 44.421875 37.164062 44.378906 38.777344 44.292969 C 39.464844 44.25 40.089844 44.226562 40.152344 44.207031 C 40.21875 44.183594 40.128906 44.613281 39.960938 45.152344 C 39.789062 45.691406 39.570312 46.441406 39.464844 46.808594 Z M 40.195312 41.605469 C 40.195312 41.515625 40.648438 41.257812 40.863281 41.257812 C 40.925781 41.257812 41.078125 41.324219 41.183594 41.410156 C 41.378906 41.5625 41.378906 41.582031 41.183594 41.992188 C 41.078125 42.226562 40.949219 42.421875 40.882812 42.421875 C 40.796875 42.421875 40.195312 41.734375 40.195312 41.605469 Z M 134.359375 75.363281 C 132.488281 75.621094 128.101562 76.160156 126.640625 76.289062 C 122.941406 76.65625 114.015625 77.171875 111.585938 77.171875 L 110.554688 77.171875 L 110.101562 76.632812 C 108.984375 75.320312 108.511719 74.074219 108.726562 72.976562 C 108.8125 72.484375 108.878906 72.398438 109.15625 72.375 C 109.585938 72.332031 109.886719 71.964844 110.015625 71.320312 C 110.101562 70.890625 110.1875 70.761719 110.40625 70.742188 C 110.683594 70.699219 110.707031 70.761719 110.835938 71.34375 C 110.878906 71.558594 111.09375 71.792969 111.4375 72.054688 C 111.84375 72.332031 111.953125 72.484375 111.910156 72.65625 C 111.867188 72.785156 111.929688 73.0625 111.996094 73.257812 C 112.234375 73.816406 113.050781 74.160156 114.230469 74.226562 C 115.308594 74.289062 115.867188 74.074219 116.167969 73.535156 C 116.339844 73.234375 116.316406 73.171875 116.058594 72.546875 C 115.78125 71.902344 115.78125 71.859375 115.996094 71.707031 C 116.273438 71.492188 116.75 71.515625 117.070312 71.730469 C 117.285156 71.878906 117.308594 71.988281 117.265625 72.484375 C 117.15625 73.558594 117.738281 73.964844 119.265625 73.878906 C 120.015625 73.835938 120.359375 73.773438 120.640625 73.40625 C 120.855469 73.148438 120.597656 72.460938 120.402344 72.117188 C 120.210938 71.773438 120.058594 71.40625 120.058594 71.34375 C 120.058594 71.128906 120.683594 71.214844 121.351562 71.515625 C 121.695312 71.6875 122.058594 71.792969 122.144531 71.75 C 122.230469 71.707031 122.296875 71.515625 122.296875 71.300781 C 122.296875 71 122.402344 70.804688 122.769531 70.460938 C 123.328125 69.902344 123.351562 69.664062 122.875 69.214844 C 122.46875 68.804688 122.425781 68.71875 122.746094 68.871094 C 123.046875 69.019531 123.542969 69.019531 123.824219 68.871094 C 124.253906 68.632812 124.683594 67.710938 124.683594 67 C 124.683594 66.074219 124.316406 65.515625 123.304688 65 C 122.574219 64.632812 122.554688 64.589844 122.597656 64.246094 C 122.683594 63.753906 122.46875 63.386719 121.996094 63.191406 C 121.542969 63 121.414062 62.847656 121.261719 62.375 C 121.113281 61.925781 120.488281 61.558594 119.457031 61.386719 C 119.003906 61.300781 118.597656 61.171875 118.53125 61.109375 C 118.46875 61.042969 118.359375 60.761719 118.296875 60.484375 C 117.628906 57.96875 111.457031 57.710938 103.824219 59.902344 C 101.09375 60.699219 98.535156 61.558594 94.148438 63.191406 C 88.039062 65.472656 86.253906 66.011719 81.117188 67.105469 C 76.835938 68.011719 73.675781 68.460938 70.707031 68.589844 C 68.625 68.675781 68.753906 68.71875 67.441406 67.644531 C 63.847656 64.742188 61.613281 61.109375 60.925781 57.257812 C 60.195312 52.914062 61.742188 47.710938 64.558594 45.023438 C 65.226562 44.421875 66.042969 43.734375 66.148438 43.734375 C 66.171875 43.734375 66.214844 43.90625 66.214844 44.121094 C 66.234375 44.550781 66.558594 44.871094 67.460938 45.410156 C 67.785156 45.605469 68.105469 45.90625 68.277344 46.226562 C 68.796875 47.128906 68.773438 47.171875 68.105469 47.515625 C 66.171875 48.464844 67.054688 51.152344 69.289062 51.152344 C 70 51.152344 70.257812 51.023438 70.902344 50.355469 C 71.097656 50.140625 71.332031 49.96875 71.375 49.96875 C 71.546875 49.96875 72.019531 50.570312 72.730469 51.667969 C 73.417969 52.742188 74.019531 53.171875 75.007812 53.367188 C 75.828125 53.515625 76.472656 53.410156 76.859375 53.042969 C 77.140625 52.785156 77.160156 52.699219 77.09375 52.097656 C 77.050781 51.730469 77.007812 51.34375 76.945312 51.238281 C 76.835938 50.980469 77.398438 50.679688 77.976562 50.679688 C 78.363281 50.679688 78.40625 50.722656 78.75 51.410156 C 79.160156 52.269531 79.417969 52.441406 80.40625 52.441406 C 81.03125 52.441406 81.246094 52.355469 82.492188 51.730469 C 84.515625 50.699219 85.351562 49.902344 85.351562 48.9375 C 85.351562 48.742188 85.203125 48.25 85.007812 47.839844 C 84.578125 46.914062 84.664062 46.785156 85.503906 47.066406 C 86.234375 47.300781 86.878906 47.324219 87.09375 47.128906 C 87.179688 47.042969 87.246094 46.828125 87.246094 46.613281 C 87.246094 46.378906 87.417969 45.992188 87.71875 45.539062 C 88.386719 44.570312 88.339844 43.925781 87.632812 42.871094 C 87.332031 42.421875 87.332031 42.421875 87.523438 41.882812 C 87.804688 41.109375 87.78125 40.957031 87.246094 40.121094 C 86.75 39.304688 86.75 39.132812 87.351562 39.003906 C 88.339844 38.785156 88.878906 37.023438 88.300781 35.820312 C 87.976562 35.175781 87.375 34.765625 85.910156 34.292969 C 84.191406 33.710938 84.128906 33.605469 84.792969 32.679688 C 85.050781 32.335938 85.503906 31.519531 84.601562 30.550781 C 83.914062 29.796875 81.933594 28.917969 79.136719 27.949219 C 76.171875 26.9375 75.828125 26.746094 74.148438 26.746094 C 73.804688 26.746094 73.074219 26.789062 72.753906 26.636719 C 72.578125 26.550781 72.386719 26.25 72.277344 26.101562 C 72.042969 25.800781 71.675781 25.496094 71.503906 25.410156 C 71.3125 25.324219 70.558594 25.195312 69.441406 25.195312 C 68.988281 25.195312 68.105469 25.238281 67.675781 25.132812 C 67.355469 25.046875 66.773438 24.722656 66.496094 24.574219 C 65.289062 23.949219 64.300781 23.820312 63.570312 23.992188 C 63.375 24.035156 62.753906 24.273438 62.214844 24.507812 C 60.925781 25.046875 60.066406 25.261719 58.882812 25.367188 C 58.042969 25.433594 57.851562 25.410156 57.074219 25.132812 C 55.441406 24.550781 53.9375 24.746094 50.992188 25.949219 C 48.128906 27.109375 45.785156 28.464844 43.140625 30.445312 C 40.453125 32.464844 37.722656 35.132812 31.894531 41.410156 C 27.144531 46.507812 22.390625 50.894531 13.898438 57.96875 C 7.746094 63.085938 4.433594 65.6875 1.769531 67.472656 C 0.414062 68.398438 0.00390625 68.785156 0.585938 68.589844 C 1.425781 68.355469 4.003906 66.65625 6.734375 64.570312 C 12.863281 59.859375 18.84375 54.914062 24.003906 50.292969 C 25.980469 48.527344 30.496094 44.011719 33.980469 40.292969 C 40.324219 33.582031 42.734375 31.390625 46.496094 28.980469 C 47.9375 28.054688 50.753906 26.636719 52.34375 26.035156 C 54.453125 25.238281 55.59375 25.132812 56.753906 25.628906 C 57.417969 25.90625 57.613281 25.949219 58.839844 25.929688 C 60.453125 25.90625 60.925781 25.820312 62.6875 25.109375 C 64.277344 24.488281 64.730469 24.488281 65.914062 25.066406 C 67.289062 25.777344 67.785156 25.886719 69.375 25.886719 C 71.054688 25.886719 71.503906 26.015625 71.890625 26.636719 C 72.042969 26.851562 72.300781 27.109375 72.449219 27.195312 C 72.621094 27.261719 73.460938 27.367188 74.320312 27.390625 C 75.871094 27.453125 75.933594 27.453125 77.71875 28.101562 C 81.136719 29.304688 82.835938 30.078125 83.867188 30.851562 C 84.492188 31.347656 84.535156 31.605469 84.019531 32.355469 C 83.222656 33.519531 83.546875 34.269531 84.988281 34.808594 C 86.449219 35.347656 86.601562 35.410156 86.964844 35.625 C 87.460938 35.925781 87.71875 36.355469 87.738281 36.894531 C 87.761719 37.5625 87.480469 37.992188 86.878906 38.292969 C 86.277344 38.570312 85.976562 39.066406 86.128906 39.5625 C 86.167969 39.734375 86.363281 40.121094 86.578125 40.464844 C 86.921875 41.042969 86.945312 41.089844 86.816406 41.582031 C 86.601562 42.378906 86.644531 42.65625 87.03125 43.304688 C 87.589844 44.226562 87.589844 44.507812 87.03125 45.257812 C 86.730469 45.667969 86.558594 46.011719 86.558594 46.226562 C 86.558594 46.613281 86.515625 46.636719 85.847656 46.398438 C 85.203125 46.183594 84.664062 46.183594 84.34375 46.421875 C 83.976562 46.679688 84 47.367188 84.386719 48.25 C 84.6875 48.914062 84.6875 48.957031 84.492188 49.34375 C 84.257812 49.839844 83.609375 50.3125 82.300781 50.980469 C 80.386719 51.945312 79.847656 51.945312 79.441406 50.980469 C 79.289062 50.636719 79.03125 50.269531 78.878906 50.164062 C 78.472656 49.882812 77.527344 49.925781 76.902344 50.226562 C 76.234375 50.570312 76.105469 50.914062 76.320312 51.730469 C 76.472656 52.292969 76.472656 52.355469 76.257812 52.507812 C 75.957031 52.742188 75.054688 52.636719 74.386719 52.292969 C 73.933594 52.054688 73.71875 51.839844 73.160156 50.894531 C 72.449219 49.730469 71.933594 49.257812 71.417969 49.257812 C 71.074219 49.257812 70.300781 49.730469 70.105469 50.078125 C 69.804688 50.65625 68.277344 50.398438 67.933594 49.730469 C 67.527344 48.9375 67.871094 48.097656 68.667969 47.902344 C 68.859375 47.863281 69.074219 47.777344 69.140625 47.710938 C 69.375 47.515625 69.3125 46.765625 68.988281 46.121094 C 68.667969 45.476562 68.300781 45.109375 67.375 44.550781 C 66.796875 44.207031 66.710938 44.011719 66.96875 43.496094 C 67.074219 43.28125 67.3125 43.128906 67.804688 42.957031 C 68.453125 42.742188 68.515625 42.679688 68.667969 42.25 C 68.945312 41.410156 68.667969 40.207031 68.0625 39.519531 C 67.503906 38.894531 65.957031 38.613281 65.804688 38.785156 C 65.742188 38.851562 65.699219 39.089844 65.761719 39.410156 C 65.871094 39.839844 65.871094 39.992188 65.742188 40.140625 C 65.527344 40.378906 65.160156 40.378906 64.710938 40.097656 C 64.152344 39.777344 64.042969 39.496094 64.152344 38.636719 C 64.214844 38.054688 64.191406 37.839844 64.042969 37.605469 C 63.828125 37.28125 63.097656 36.9375 62.582031 36.9375 C 62.171875 36.9375 61.503906 37.367188 61.269531 37.777344 C 61.097656 38.054688 61.117188 38.183594 61.3125 38.9375 C 61.503906 39.691406 61.503906 39.796875 61.332031 40.054688 C 61.03125 40.507812 60.257812 40.851562 59.71875 40.765625 C 59.71875 40.765625 59.417969 40.742188 59.332031 40.785156 C 59.117188 40.894531 58.839844 41.605469 58.839844 41.605469 C 58.601562 42.097656 58.257812 42.613281 58.109375 42.722656 C 57.828125 42.914062 57.742188 42.914062 57.3125 42.808594 C 57.03125 42.722656 56.6875 42.507812 56.515625 42.335938 L 56.195312 41.992188 L 56.453125 41.710938 C 56.773438 41.367188 56.773438 41.28125 56.34375 40.3125 C 56.023438 39.625 56 39.476562 56.109375 39.21875 C 56.300781 38.785156 56.28125 38.097656 56.066406 37.777344 C 55.636719 37.175781 54.515625 36.960938 54.042969 37.410156 C 53.785156 37.648438 53.679688 38.140625 53.699219 38.765625 C 53.722656 39.066406 53.679688 39.132812 53.417969 39.152344 C 52.945312 39.21875 52.257812 38.957031 51.699219 38.441406 C 51.269531 38.078125 51.097656 37.949219 50.429688 37.90625 C 49.808594 37.882812 49.25 38.335938 49.355469 39.003906 C 49.421875 39.453125 49.398438 39.519531 49.164062 39.605469 C 48.839844 39.710938 47.699219 39.5625 47.140625 39.324219 C 46.949219 39.238281 46.515625 38.957031 46.195312 38.65625 C 45.636719 38.183594 45.59375 38.164062 44.949219 38.207031 C 43.980469 38.269531 43.613281 38.570312 43.636719 39.261719 C 43.636719 39.605469 43.742188 39.949219 43.957031 40.292969 C 44.128906 40.570312 44.257812 40.871094 44.238281 40.957031 C 44.171875 41.128906 43.527344 41.261719 42.753906 41.261719 C 42.410156 41.261719 42.023438 41.152344 41.65625 40.957031 C 40.992188 40.613281 40.496094 40.636719 39.9375 41.023438 C 39.464844 41.367188 39.484375 41.777344 40.003906 42.441406 C 40.476562 43.042969 40.496094 43.128906 40.175781 43.433594 C 39.980469 43.605469 39.679688 43.667969 38.605469 43.710938 C 37.121094 43.777344 36.734375 44.011719 36.5625 44.507812 C 36.496094 44.699219 36.496094 45.042969 36.5625 45.539062 C 36.605469 45.863281 36.625 46.121094 36.582031 46.207031 C 36.539062 46.269531 36.175781 46.507812 35.789062 46.699219 C 34.820312 47.195312 34.539062 47.453125 34.539062 47.925781 C 34.539062 48.871094 35.894531 49.109375 37.183594 48.378906 C 37.851562 48.011719 38.496094 47.863281 38.667969 48.035156 C 38.710938 48.078125 38.605469 48.292969 38.453125 48.507812 C 38.089844 49.042969 38.109375 49.257812 38.476562 49.710938 C 38.839844 50.140625 39.3125 50.25 40.175781 50.097656 C 40.582031 50.035156 40.839844 50.035156 40.863281 50.097656 C 41.011719 50.484375 41.570312 50.914062 42.28125 51.195312 C 43.570312 51.6875 43.527344 51.644531 43.269531 52.742188 C 42.992188 53.902344 42.710938 54.335938 42.109375 54.550781 C 41.699219 54.679688 41.550781 54.65625 40.863281 54.464844 C 39.957031 54.183594 39.699219 54.25 39.421875 54.808594 C 39.078125 55.496094 39.207031 56.011719 40.003906 56.894531 C 40.605469 57.558594 40.648438 57.730469 40.324219 58.117188 C 40.152344 58.332031 40.003906 58.398438 39.65625 58.355469 C 39.335938 58.332031 39.121094 58.417969 38.777344 58.679688 C 38.539062 58.871094 38.175781 59.066406 37.960938 59.109375 C 37.636719 59.171875 37.527344 59.128906 37.140625 58.722656 C 36.90625 58.460938 36.5625 58.03125 36.390625 57.773438 C 36.175781 57.429688 35.9375 57.257812 35.59375 57.152344 C 34.839844 56.9375 34.367188 57.238281 33.679688 58.398438 C 33.078125 59.429688 32.605469 59.925781 32.175781 60.03125 C 31.765625 60.140625 30.925781 59.515625 30.691406 58.9375 C 30.605469 58.699219 30.433594 58.398438 30.324219 58.3125 C 29.917969 57.839844 28.390625 58.246094 27.660156 59.023438 C 27.359375 59.34375 27.316406 59.515625 27.25 60.246094 C 27.207031 60.765625 27.101562 61.238281 26.972656 61.429688 C 26.691406 61.859375 25.875 62.246094 25.488281 62.160156 C 24.453125 61.945312 24.433594 61.945312 23.808594 62.269531 C 23.464844 62.460938 22.992188 62.804688 22.734375 63.019531 C 22.347656 63.386719 22.28125 63.515625 22.28125 63.988281 C 22.28125 64.527344 22.261719 64.546875 21.789062 64.761719 C 21.230469 65.019531 20.84375 65.0625 20.5 64.871094 C 20.21875 64.71875 19.917969 64.074219 19.917969 63.667969 C 19.917969 63.214844 19.59375 62.976562 19.144531 63.066406 C 18.800781 63.128906 18.734375 63.105469 18.414062 62.613281 C 18.027344 62.054688 17.507812 61.773438 17.078125 61.882812 C 16.605469 61.988281 16.175781 62.417969 16.113281 62.847656 C 16.027344 63.257812 16.027344 63.277344 15.574219 63.214844 C 15.1875 63.171875 15.121094 63.171875 15.121094 63.386719 C 15.121094 63.539062 15.273438 63.6875 15.53125 63.796875 C 16.304688 64.117188 16.628906 63.988281 16.691406 63.324219 C 16.734375 62.847656 16.992188 62.570312 17.378906 62.570312 C 17.488281 62.570312 17.789062 62.828125 18.003906 63.152344 C 18.371094 63.6875 18.476562 63.730469 18.863281 63.730469 C 19.292969 63.730469 19.316406 63.753906 19.445312 64.289062 C 19.53125 64.632812 19.9375 65.644531 21.144531 65.601562 C 22.347656 65.539062 23.121094 64.847656 22.90625 64.054688 C 22.84375 63.816406 22.929688 63.710938 23.273438 63.410156 C 23.507812 63.214844 23.746094 63.085938 23.789062 63.105469 C 23.832031 63.128906 23.894531 63.582031 23.960938 64.140625 C 24.066406 65.367188 24.542969 67.492188 24.992188 68.804688 C 25.894531 71.363281 28.003906 74.589844 29.722656 76.007812 C 30.476562 76.632812 31.617188 77.257812 31.746094 77.105469 C 31.789062 77.0625 31.722656 76.957031 31.617188 76.890625 C 29.59375 75.664062 27.9375 73.75 26.453125 70.933594 C 25.574219 69.257812 24.691406 66.289062 24.453125 64.246094 C 24.410156 63.902344 24.347656 63.410156 24.324219 63.171875 C 24.261719 62.65625 24.476562 62.527344 24.949219 62.785156 C 25.617188 63.128906 26.390625 62.933594 27.207031 62.183594 C 27.488281 61.945312 27.660156 61.644531 27.679688 61.558594 C 27.765625 61.300781 27.832031 61.667969 28.023438 63.019531 C 28.390625 65.601562 29.207031 68.3125 30.304688 70.742188 C 30.753906 71.730469 31.617188 73.128906 31.9375 73.386719 C 32.304688 73.6875 32.261719 73.429688 31.851562 72.761719 C 29.875 69.6875 28.453125 64.246094 28.21875 60.398438 C 28.195312 60.160156 28.152344 59.710938 28.28125 59.472656 C 28.347656 59.34375 28.605469 59.171875 28.734375 59.109375 C 29.464844 58.679688 29.746094 58.765625 30.023438 59.300781 C 30.304688 59.839844 30.992188 60.503906 31.507812 60.71875 L 31.875 60.871094 L 31.9375 62.246094 C 32.023438 63.902344 32.476562 66.117188 33.035156 67.796875 C 34.410156 71.839844 38.195312 76.976562 41.378906 79.042969 C 42.410156 79.707031 43.484375 80.222656 43.613281 80.09375 C 43.699219 80.007812 43.851562 80.117188 42.171875 79.019531 C 38.691406 76.742188 34.90625 71.707031 33.550781 67.492188 C 33.097656 66.054688 32.648438 63.945312 32.476562 62.289062 C 32.347656 61.042969 32.347656 60.9375 32.539062 60.828125 C 33.097656 60.503906 33.59375 59.945312 34.023438 59.152344 C 34.539062 58.203125 34.605469 58.203125 34.753906 59.128906 C 34.90625 60.074219 35.832031 63.152344 36.390625 64.589844 C 37.722656 67.988281 40.367188 72.546875 41.785156 73.925781 C 42.429688 74.546875 42.28125 74.117188 41.464844 73 C 38.625 69.171875 36.238281 63.796875 35.164062 58.914062 C 34.96875 57.988281 34.96875 57.945312 35.140625 57.945312 C 35.378906 57.945312 35.742188 58.332031 36.023438 58.871094 C 36.324219 59.472656 37.078125 59.945312 37.722656 59.945312 C 38.023438 59.945312 38.410156 59.859375 38.605469 59.773438 C 38.796875 59.6875 38.949219 59.601562 38.949219 59.625 C 38.96875 59.644531 39.097656 60.246094 39.25 61 C 40.410156 66.761719 43.207031 72.140625 47.121094 76.203125 C 48.796875 77.921875 50.28125 79.148438 52.644531 80.699219 C 57.957031 84.203125 63.484375 86.71875 66.558594 87.039062 C 67.632812 87.148438 67.269531 86.953125 65.398438 86.394531 C 63.375 85.792969 62.105469 85.300781 60 84.265625 C 56.710938 82.675781 52.667969 80.160156 50.324219 78.289062 C 45.097656 74.074219 41.398438 68.03125 39.9375 61.238281 C 39.464844 59.042969 39.464844 59.214844 39.914062 59.195312 C 40.367188 59.171875 40.796875 58.851562 41.078125 58.246094 C 41.335938 57.6875 41.207031 57.324219 40.476562 56.527344 C 39.9375 55.945312 39.851562 55.796875 39.914062 55.515625 C 40.023438 55.109375 40 55.109375 40.476562 55.324219 C 40.710938 55.410156 41.207031 55.496094 41.59375 55.496094 L 42.28125 55.496094 L 42.34375 56.65625 C 42.539062 59.6875 43.613281 62.976562 45.613281 66.589844 C 46.753906 68.65625 48.152344 70.589844 48.34375 70.398438 C 48.367188 70.375 47.980469 69.730469 47.484375 68.957031 C 45.785156 66.398438 44.152344 62.933594 43.484375 60.417969 C 42.839844 57.96875 42.5625 55.214844 42.949219 55.066406 C 43.398438 54.894531 44.066406 53.085938 44.066406 52.078125 C 44.066406 51.730469 43.507812 51.023438 43.140625 50.914062 C 42.882812 50.828125 43.636719 47.300781 44.496094 44.636719 C 44.925781 43.304688 45.765625 41.152344 46.171875 40.355469 L 46.410156 39.90625 L 46.90625 40.097656 C 47.183594 40.207031 47.742188 40.3125 48.195312 40.355469 L 48.96875 40.421875 L 48.386719 41.777344 C 47.59375 43.625 46.644531 46.464844 46.195312 48.292969 C 45.25 52.292969 45.140625 55.582031 45.871094 59.238281 C 47.078125 65.214844 51.03125 71.578125 56.214844 75.859375 C 59.980469 78.957031 63.65625 80.871094 67.398438 81.644531 C 68.449219 81.859375 68.363281 81.859375 68.363281 81.644531 C 68.363281 81.558594 68.214844 81.429688 68.042969 81.40625 C 66.300781 81.019531 64.773438 80.503906 63.246094 79.773438 C 56.988281 76.804688 50.96875 70.65625 48.257812 64.398438 C 45.894531 58.980469 45.527344 54.269531 46.949219 48.164062 C 47.59375 45.410156 49.164062 40.871094 49.699219 40.207031 C 49.828125 40.035156 49.914062 39.839844 49.914062 39.753906 C 49.914062 39.667969 49.808594 39.261719 49.894531 39.023438 C 50.128906 38.441406 50.730469 38.59375 51.398438 39.21875 C 51.699219 39.496094 52.066406 39.710938 52.324219 39.753906 L 52.730469 39.839844 L 52.34375 40.679688 C 51.808594 41.839844 51.054688 44.054688 50.710938 45.453125 C 50.34375 46.894531 50.128906 48.722656 50.28125 49.109375 C 50.429688 49.472656 50.453125 49.367188 50.6875 47.625 C 50.96875 45.625 51.722656 43.089844 52.730469 40.851562 C 53.097656 40.035156 53.183594 39.949219 53.550781 39.882812 C 54.109375 39.777344 54.34375 39.390625 54.238281 38.765625 C 54.085938 37.949219 54.667969 37.667969 55.3125 38.226562 C 55.632812 38.507812 55.632812 38.507812 55.484375 39.175781 C 55.332031 39.753906 55.355469 39.882812 55.527344 40.355469 L 55.71875 40.894531 L 54.96875 42.464844 C 52.085938 48.421875 52.902344 53.34375 53.074219 54.355469 C 53.503906 57.171875 54.152344 59.128906 55.546875 61.988281 C 58.066406 67.148438 62.152344 71.75 67.484375 75.449219 C 72.257812 78.785156 78.601562 81.277344 85.351562 82.527344 C 88.621094 83.128906 93.546875 83.472656 97.371094 83.386719 C 99.566406 83.320312 100.125 83.277344 100.125 83.085938 C 100.125 83.042969 98.578125 83 96.683594 83 C 89.824219 82.976562 84.878906 82.246094 79.351562 80.480469 C 73.65625 78.632812 69.203125 76.226562 64.96875 72.675781 C 59.140625 67.796875 55.140625 61.625 53.9375 55.195312 C 53.503906 52.980469 53.570312 49.28125 53.9375 47.515625 C 54.238281 46.035156 54.667969 44.742188 55.203125 43.453125 L 55.613281 42.484375 L 56.109375 42.980469 C 56.730469 43.605469 57.417969 43.820312 58.109375 43.625 C 58.582031 43.476562 59.097656 42.828125 59.398438 42.011719 C 59.503906 41.691406 59.589844 41.625 59.933594 41.625 C 60.730469 41.625 61.675781 41.023438 61.957031 40.3125 C 62.0625 40.035156 62.0625 39.820312 61.890625 39.152344 C 61.675781 38.335938 61.675781 38.335938 61.933594 38.078125 C 62.257812 37.753906 62.816406 37.753906 63.226562 38.054688 C 63.503906 38.269531 63.546875 38.355469 63.503906 38.808594 C 63.460938 39.28125 63.355469 39.410156 62.28125 40.550781 C 61.613281 41.238281 60.839844 42.097656 60.539062 42.484375 C 58.925781 44.59375 57.675781 46.980469 57.203125 48.808594 C 56.539062 51.386719 56.558594 55.152344 57.226562 56.441406 C 57.503906 57 57.527344 56.722656 57.3125 55.515625 C 56.945312 53.410156 57.203125 50.355469 57.914062 48.183594 C 58.730469 45.777344 60.859375 42.527344 62.925781 40.550781 L 63.484375 40.011719 L 63.71875 40.335938 C 64.171875 40.957031 65.269531 41.304688 65.828125 41.003906 C 66.105469 40.851562 66.40625 40.292969 66.40625 39.949219 C 66.40625 39.648438 66.492188 39.648438 67.117188 39.90625 C 67.484375 40.054688 67.65625 40.207031 67.828125 40.59375 C 68.171875 41.324219 68.128906 41.433594 67.269531 41.90625 C 63.613281 43.925781 61.742188 46.140625 60.496094 49.839844 C 59.804688 51.902344 59.65625 52.828125 59.65625 54.9375 C 59.675781 58.417969 60.472656 60.976562 62.496094 64.03125 C 63.589844 65.667969 65.871094 68.03125 67.632812 69.320312 C 74.429688 74.355469 85.136719 77.472656 98.277344 78.246094 C 105.800781 78.675781 121.84375 77.921875 129.691406 76.785156 C 132.421875 76.375 134.617188 75.902344 134.617188 75.707031 C 134.746094 75.363281 134.617188 75.34375 134.359375 75.363281 "/></g><path style=" stroke:none;fill-rule:nonzero;fill:#0661aa;fill-opacity:1;" d="M 98.640625 64.976562 C 98.988281 64.914062 99.289062 64.785156 99.566406 64.546875 C 99.867188 64.289062 100.125 63.839844 100.511719 63.6875 C 100.8125 63.582031 101.222656 63.667969 101.546875 63.6875 C 101.867188 63.710938 102.234375 63.730469 102.554688 63.773438 C 103.027344 63.859375 103.371094 64.226562 103.890625 64.3125 C 104.8125 64.460938 105.457031 63.601562 106.105469 63.066406 C 106.382812 62.828125 107.09375 62.117188 107.542969 62.3125 C 107.867188 62.460938 107.910156 63 108.167969 63.257812 C 108.46875 63.558594 108.964844 63.601562 109.371094 63.558594 C 109.695312 63.515625 110.039062 63.410156 110.253906 63.152344 C 110.46875 62.871094 110.363281 62.546875 110.664062 62.332031 C 110.941406 62.140625 111.5 62.03125 111.757812 62.289062 C 112.039062 62.546875 112.058594 62.871094 112.46875 63.019531 C 113.09375 63.238281 114.402344 63.105469 114.726562 62.417969 C 114.855469 62.140625 114.878906 61.6875 114.664062 61.429688 C 114.46875 61.214844 113.714844 61.066406 113.929688 61.539062 C 114.082031 61.839844 114.488281 61.859375 114.058594 62.183594 C 113.78125 62.375 113.242188 62.527344 112.898438 62.460938 C 112.492188 62.375 112.511719 62.054688 112.253906 61.816406 C 111.972656 61.582031 111.542969 61.539062 111.199219 61.582031 C 110.8125 61.625 110.363281 61.710938 110.082031 61.988281 C 109.824219 62.226562 109.929688 62.613281 109.714844 62.828125 C 109.480469 63.019531 108.855469 62.957031 108.640625 62.761719 C 108.339844 62.527344 108.339844 62.097656 107.976562 61.859375 C 107.371094 61.496094 106.792969 61.816406 106.296875 62.183594 C 105.78125 62.546875 105.242188 62.914062 104.792969 63.367188 C 104.621094 63.539062 104.535156 63.667969 104.253906 63.667969 C 103.78125 63.6875 103.5 63.453125 103.113281 63.214844 C 102.726562 63 102.253906 63.238281 101.804688 63.152344 C 101.308594 63.042969 100.855469 62.957031 100.363281 63.171875 C 99.890625 63.386719 99.589844 63.859375 99.136719 64.097656 C 98.640625 64.355469 98.191406 64.289062 97.652344 64.3125 C 97.375 64.332031 97.222656 64.484375 97.417969 64.742188 C 97.652344 65.148438 98.320312 65.042969 98.640625 64.976562 "/><path style=" stroke:none;fill-rule:nonzero;fill:#0661aa;fill-opacity:1;" d="M 113.972656 68.503906 C 113.671875 68.03125 112.898438 68.375 112.46875 68.03125 C 111.867188 67.558594 111.351562 66.613281 110.492188 66.613281 C 110.1875 66.589844 109.910156 66.742188 109.714844 66.933594 C 109.480469 67.191406 109.609375 67.558594 109.199219 67.515625 C 108.339844 67.40625 107.933594 66.699219 107.867188 65.902344 C 107.84375 65.644531 107.714844 65.429688 107.5 65.710938 C 107.308594 65.945312 107.414062 66.570312 107.457031 66.828125 C 107.628906 67.539062 108.191406 67.988281 108.898438 68.097656 C 109.222656 68.140625 109.671875 68.160156 109.929688 67.902344 C 110.125 67.710938 109.996094 67.363281 110.210938 67.214844 C 110.363281 67.105469 110.75 67.191406 110.898438 67.257812 C 111.199219 67.40625 111.457031 67.730469 111.695312 67.96875 C 111.929688 68.203125 112.167969 68.527344 112.488281 68.675781 C 112.769531 68.804688 113.070312 68.742188 113.351562 68.828125 C 113.695312 68.914062 113.910156 69.191406 114.253906 69.277344 C 114.640625 69.363281 115.09375 69.277344 115.394531 69 C 115.695312 68.71875 115.628906 68.417969 115.800781 68.054688 C 115.972656 67.6875 116.339844 67.816406 116.53125 68.074219 C 116.703125 68.3125 116.769531 68.546875 117.070312 68.65625 C 117.414062 68.785156 117.996094 68.71875 118.273438 68.460938 C 118.574219 68.160156 118.359375 67.945312 118.316406 67.601562 C 118.273438 67.234375 118.597656 66.976562 118.941406 66.871094 C 119.328125 66.761719 119.609375 66.933594 119.910156 67.191406 C 120.144531 67.386719 120.382812 67.753906 120.703125 67.558594 C 121.285156 67.214844 121.542969 66.332031 121.179688 65.796875 C 121.09375 65.644531 120.574219 65.105469 120.359375 65.257812 C 120.058594 65.492188 120.683594 65.882812 120.769531 66.097656 C 120.832031 66.226562 120.917969 66.484375 120.789062 66.589844 C 120.617188 66.761719 120.339844 66.527344 120.1875 66.441406 C 119.78125 66.246094 119.351562 66.203125 118.898438 66.246094 C 118.425781 66.3125 118.039062 66.546875 117.84375 67 C 117.738281 67.257812 117.886719 68.054688 117.609375 68.160156 C 117.242188 68.3125 117.027344 67.625 116.835938 67.453125 C 116.554688 67.171875 116.015625 67.128906 115.671875 67.300781 C 115.199219 67.558594 115.351562 67.96875 115.15625 68.355469 C 114.898438 68.828125 114.230469 68.890625 113.972656 68.503906 "/></g></svg>