<svg xmlns="http://www.w3.org/2000/svg" xmlns:xlink="http://www.w3.org/1999/xlink" width="180" zoomAndPan="magnify" viewBox="0 0 135 119.999999" height="160" preserveAspectRatio="xMidYMid meet" version="1.0"><defs><clipPath id="970190c3e8"><path d="M 32.625 0 L 102.375 0 L 102.375 120 L 32.625 120 Z M 32.625 0 " clip-rule="nonzero"/></clipPath></defs><rect x="-13.5" width="162" fill="#ffffff" y="-12" height="143.999998" fill-opacity="1"/><rect x="-13.5" width="162" fill="#ffffff" y="-12" height="143.999998" fill-opacity="1"/><g clip-path="url(#970190c3e8)"><path fill="#0661aa" d="M 48.742188 119.894531 L 50.207031 119.894531 C 51.277344 119.894531 52.140625 119.03125 52.140625 117.964844 L 52.140625 116.488281 C 52.140625 113.96875 51.105469 111.636719 49.332031 109.980469 L 63.167969 96.144531 C 63.4375 95.875 63.617188 95.53125 63.695312 95.15625 L 66.683594 80.207031 L 73.582031 89.867188 L 83.148438 118.574219 C 83.417969 119.371094 84.160156 119.894531 84.980469 119.894531 C 85.0625 119.894531 85.140625 119.890625 85.222656 119.878906 L 100.683594 117.949219 C 101.230469 117.882812 101.722656 117.578125 102.035156 117.125 C 102.347656 116.667969 102.453125 116.097656 102.316406 115.5625 L 101.792969 113.457031 C 100.867188 109.753906 97.824219 107.042969 94.144531 106.480469 L 86.753906 84.332031 L 79.1875 67.316406 L 79.1875 65.542969 L 80.898438 66.679688 C 81.925781 67.367188 83.125 67.730469 84.359375 67.730469 C 87.902344 67.730469 90.78125 64.847656 90.78125 61.304688 C 90.78125 58.535156 89.015625 56.085938 86.390625 55.210938 L 84.097656 54.445312 L 79.1875 49.539062 L 79.1875 46.476562 C 79.1875 41.65625 77.15625 37.167969 73.816406 33.96875 L 74.246094 30.976562 C 81.304688 30.53125 86.917969 24.664062 86.917969 17.492188 L 86.917969 13.628906 C 86.917969 6.171875 80.847656 0.105469 73.394531 0.105469 C 65.9375 0.105469 59.867188 6.171875 59.867188 13.628906 L 59.867188 17.492188 C 59.867188 20.648438 60.964844 23.550781 62.785156 25.855469 L 60.851562 30.289062 C 57.878906 32.144531 55.886719 35.371094 55.714844 38.941406 L 55.582031 41.257812 L 50.652344 47.171875 C 50.535156 47.3125 50.4375 47.472656 50.363281 47.644531 L 45.4375 59.136719 C 44.757812 60.726562 44.410156 62.414062 44.410156 64.144531 C 44.410156 67.1875 46.882812 69.660156 49.925781 69.660156 C 51.523438 69.660156 52.992188 68.980469 54.019531 67.828125 L 50.320312 88.1875 L 33.203125 111.007812 C 32.625 111.777344 32.703125 112.851562 33.382812 113.535156 C 37.484375 117.636719 42.941406 119.894531 48.742188 119.894531 Z M 98.039062 114.382812 L 86.316406 115.851562 L 85.101562 112.199219 L 92.890625 110.25 C 95.335938 110.332031 97.4375 112 98.039062 114.382812 Z M 81.6875 57.5 C 81.898438 57.714844 82.15625 57.871094 82.441406 57.96875 L 85.167969 58.878906 C 86.214844 59.226562 86.917969 60.199219 86.917969 61.304688 C 86.917969 62.714844 85.769531 63.863281 84.359375 63.863281 C 83.886719 63.863281 83.433594 63.726562 83.039062 63.464844 L 79.1875 60.898438 L 79.1875 55.003906 Z M 75.324219 46.476562 L 75.324219 65.796875 L 58.050781 65.796875 L 58.410156 59.507812 L 61.40625 53.515625 L 68.777344 47.617188 C 70.484375 46.25 71.460938 44.214844 71.460938 42.03125 C 71.460938 38.089844 68.253906 34.882812 64.246094 34.882812 C 62.914062 34.882812 61.652344 35.285156 60.546875 35.960938 C 61.296875 34.6875 62.425781 33.644531 63.816406 33.050781 L 65.578125 33.554688 C 71.316406 35.195312 75.324219 40.507812 75.324219 46.476562 Z M 61.722656 39.925781 C 62.34375 39.175781 63.265625 38.746094 64.308594 38.746094 C 66.121094 38.746094 67.597656 40.222656 67.597656 42.03125 C 67.597656 43.039062 67.148438 43.972656 66.363281 44.597656 L 63.230469 47.105469 L 59.144531 43.019531 Z M 66.640625 29.839844 L 65.417969 29.488281 L 65.777344 28.660156 C 67.152344 29.601562 68.710938 30.285156 70.382812 30.667969 L 70.285156 31.363281 C 69.148438 30.726562 67.929688 30.207031 66.640625 29.839844 Z M 73.394531 27.152344 C 72.199219 27.152344 71.066406 26.910156 70.011719 26.511719 L 73.007812 22.515625 C 73.257812 22.183594 73.394531 21.773438 73.394531 21.355469 L 73.394531 15.5625 L 83.054688 15.5625 L 83.054688 17.492188 C 83.054688 22.820312 78.71875 27.152344 73.394531 27.152344 Z M 63.730469 13.628906 C 63.730469 8.300781 68.066406 3.96875 73.394531 3.96875 C 78.058594 3.96875 81.960938 7.292969 82.859375 11.695312 L 71.460938 11.695312 C 70.390625 11.695312 69.527344 12.5625 69.527344 13.628906 L 69.527344 20.714844 L 66.722656 24.453125 C 64.886719 22.691406 63.730469 20.230469 63.730469 17.492188 Z M 51.402344 64.882812 C 51.121094 65.445312 50.554688 65.796875 49.925781 65.796875 C 49.015625 65.796875 48.273438 65.054688 48.273438 64.144531 C 48.273438 62.9375 48.515625 61.765625 48.988281 60.660156 L 53.804688 49.429688 L 56.660156 46 L 60.191406 49.535156 L 58.660156 50.765625 C 58.441406 50.9375 58.261719 51.160156 58.136719 51.40625 Z M 53.683594 90.140625 C 53.867188 89.898438 53.988281 89.621094 54.039062 89.328125 L 57.613281 69.660156 L 76 69.660156 L 83.152344 85.726562 L 90.222656 106.933594 L 83.871094 108.523438 L 77.15625 88.371094 C 77.097656 88.1875 77.011719 88.015625 76.894531 87.859375 L 67.234375 74.332031 C 66.789062 73.707031 66.015625 73.40625 65.257812 73.566406 C 64.503906 73.726562 63.921875 74.324219 63.769531 75.078125 L 60.019531 93.824219 L 45.960938 107.882812 L 41.902344 105.851562 Z M 39.542969 108.996094 L 45.476562 111.964844 C 47.0625 112.757812 48.09375 114.289062 48.253906 116.027344 C 44.222656 115.917969 40.417969 114.480469 37.347656 111.925781 Z M 39.542969 108.996094 " fill-opacity="1" fill-rule="nonzero"/></g><path fill="#0661aa" d="M 47.558594 77.25 L 48.992188 73.664062 C 43.863281 71.609375 40.546875 66.714844 40.546875 61.1875 L 40.546875 60 L 36.683594 60 L 36.683594 61.1875 C 36.683594 68.300781 40.949219 74.609375 47.558594 77.25 Z M 47.558594 77.25 " fill-opacity="1" fill-rule="nonzero"/><path fill="#0661aa" d="M 36.683594 52.269531 L 40.546875 52.269531 L 40.546875 56.136719 L 36.683594 56.136719 Z M 36.683594 52.269531 " fill-opacity="1" fill-rule="nonzero"/></svg>