<svg xmlns="http://www.w3.org/2000/svg" xmlns:xlink="http://www.w3.org/1999/xlink" width="180" zoomAndPan="magnify" viewBox="0 0 135.12 149.999995" height="215" preserveAspectRatio="xMidYMid meet" version="1.2"><defs><clipPath id="d90bd9ab67"><path d="M 40.238281 16.851562 L 91 16.851562 L 91 72.738281 L 40.238281 72.738281 Z M 40.238281 16.851562 "/></clipPath><clipPath id="5d92cace41"><path d="M 71 27 L 93.886719 27 L 93.886719 72 L 71 72 Z M 71 27 "/></clipPath></defs><g id="64c0d779ad"><g clip-rule="nonzero" clip-path="url(#d90bd9ab67)"><path style=" stroke:none;fill-rule:nonzero;fill:#0661aa;fill-opacity:1;" d="M 69.828125 16.960938 C 67.527344 17.222656 65.957031 17.554688 63.855469 18.230469 C 61.03125 19.148438 58.652344 20.515625 56.332031 22.566406 C 52.828125 25.664062 50.722656 29.457031 50.058594 33.867188 C 49.824219 35.394531 49.898438 37.949219 50.214844 39.695312 L 50.257812 39.949219 L 50.109375 39.730469 C 49.898438 39.429688 49.417969 38.191406 49.230469 37.453125 C 48.339844 33.960938 49.125 29.949219 51.511719 25.757812 C 51.78125 25.28125 52.054688 24.832031 52.113281 24.761719 C 52.179688 24.695312 52.183594 24.636719 52.140625 24.636719 C 52.035156 24.636719 50.6875 26.164062 50.171875 26.882812 C 48.109375 29.734375 46.753906 33.476562 46.472656 37.089844 C 46.34375 38.71875 46.523438 40.917969 46.914062 42.441406 C 47.820312 45.996094 50.070312 49.257812 52.925781 51.15625 C 57.558594 54.242188 63.414062 54.160156 68.386719 50.945312 C 70.292969 49.722656 72.1875 47.871094 73.390625 46.058594 C 73.578125 45.785156 73.738281 45.574219 73.753906 45.589844 C 73.796875 45.632812 73.414062 46.558594 73.128906 47.082031 C 71.949219 49.289062 69.757812 51.4375 66.984375 53.117188 C 64.6875 54.5 61.675781 55.625 58.5 56.269531 C 55.109375 56.960938 51.300781 57.042969 47.203125 56.519531 C 45.546875 56.3125 43.042969 55.769531 41.375 55.269531 C 40.984375 55.144531 40.644531 55.058594 40.628906 55.074219 C 40.582031 55.125 42.164062 55.941406 43.042969 56.316406 C 48.285156 58.570312 54.4375 58.960938 60.527344 57.433594 C 64.90625 56.332031 68.425781 54.464844 71.234375 51.75 C 74.367188 48.714844 76.039062 45.378906 76.378906 41.449219 C 76.546875 39.535156 76.128906 37.320312 75.28125 35.605469 C 74.585938 34.207031 73.425781 32.855469 72.234375 32.035156 C 71.472656 31.507812 70.3125 30.972656 69.453125 30.738281 C 68.808594 30.558594 68.628906 30.542969 67.441406 30.542969 C 66.007812 30.542969 65.464844 30.644531 64.160156 31.152344 C 61.613281 32.136719 59.832031 34.6875 59.792969 37.414062 L 59.789062 37.921875 L 59.640625 37.488281 C 59.433594 36.84375 59.382812 35.488281 59.546875 34.691406 C 59.976562 32.570312 61.4375 30.734375 63.53125 29.683594 C 65.628906 28.640625 68.367188 28.480469 70.648438 29.277344 C 71.464844 29.566406 72.617188 30.167969 73.363281 30.695312 C 74.152344 31.253906 75.433594 32.550781 76.035156 33.398438 C 78.046875 36.234375 78.71875 39.839844 77.9375 43.640625 C 77.597656 45.285156 77.125 46.625 76.386719 48.058594 C 74.433594 51.851562 71.125 54.980469 66.570312 57.332031 C 63.472656 58.933594 60.394531 59.929688 56.507812 60.574219 C 54.949219 60.835938 53.910156 60.921875 51.765625 60.960938 C 49.824219 60.996094 46.421875 60.902344 45.921875 60.792969 C 45.828125 60.777344 45.757812 60.785156 45.757812 60.820312 C 45.757812 61.015625 48.523438 61.589844 50.644531 61.828125 C 52.230469 62.007812 56.320312 62.007812 57.773438 61.828125 C 60.230469 61.515625 62.503906 60.996094 65.066406 60.140625 C 66.605469 59.632812 66.976562 59.488281 67.933594 59.070312 C 68.15625 58.96875 68.34375 58.902344 68.34375 58.917969 C 68.34375 58.96875 67.105469 59.773438 66.339844 60.226562 C 62.25 62.652344 56.472656 64.304688 50.78125 64.679688 C 49.566406 64.761719 44.539062 64.730469 43.296875 64.636719 L 42.824219 64.601562 L 43.257812 64.746094 C 44.476562 65.152344 46.945312 65.460938 49.375 65.519531 C 54.90625 65.648438 59.824219 64.621094 66.746094 61.894531 C 67.199219 61.710938 67.585938 61.574219 67.597656 61.582031 C 67.679688 61.667969 65.457031 63 64.136719 63.667969 C 60.53125 65.46875 55.488281 67.183594 50.0625 68.4375 C 47.050781 69.140625 45.113281 69.5 41.882812 69.964844 C 40.480469 70.167969 40.261719 70.21875 40.472656 70.269531 C 40.921875 70.390625 45.222656 70.355469 46.734375 70.21875 C 52.324219 69.726562 57.984375 68.445312 63.132812 66.503906 C 71.542969 63.347656 77.859375 58.265625 80.972656 52.148438 C 82.867188 48.425781 83.707031 44.761719 83.597656 40.671875 C 83.5625 39.136719 83.597656 39.082031 83.832031 40.296875 C 84.476562 43.613281 83.96875 47.617188 82.460938 51.171875 C 81.714844 52.929688 81.21875 53.835938 80.074219 55.550781 C 79.191406 56.859375 78.285156 57.933594 76.75 59.460938 C 74.40625 61.792969 72.09375 63.507812 68.816406 65.339844 C 64.824219 67.570312 59.699219 69.488281 54.660156 70.636719 C 53.886719 70.820312 52.925781 71.042969 52.527344 71.144531 L 51.800781 71.332031 L 53.105469 71.304688 C 55.074219 71.253906 58.011719 70.785156 60.257812 70.167969 C 63.523438 69.269531 65.664062 68.464844 68.164062 67.207031 C 71.855469 65.332031 74.113281 63.71875 77.664062 60.410156 C 78.234375 59.878906 78.71875 59.460938 78.734375 59.476562 C 78.792969 59.53125 77.894531 60.800781 77.34375 61.429688 C 76.496094 62.414062 74.824219 64.007812 73.703125 64.90625 C 72.480469 65.882812 71.5 66.5625 69.546875 67.792969 C 68.773438 68.285156 68.140625 68.699219 68.15625 68.707031 C 68.171875 68.71875 68.46875 68.625 68.824219 68.503906 C 71 67.742188 73.925781 65.902344 76.242188 63.824219 C 77.402344 62.789062 79.269531 60.878906 80.109375 59.867188 C 82.621094 56.824219 84.28125 53.71875 85.394531 49.933594 C 86.546875 46.050781 86.761719 42.757812 86.109375 39.371094 C 85.777344 37.660156 84.972656 35.4375 84.148438 33.953125 C 83.714844 33.171875 82.765625 31.78125 82.230469 31.152344 C 81.753906 30.59375 80.578125 29.4375 79.964844 28.921875 C 77.859375 27.148438 75.046875 26.027344 72.132812 25.789062 C 70.480469 25.652344 68.742188 25.839844 66.613281 26.382812 C 66.160156 26.496094 65.773438 26.578125 65.761719 26.570312 C 65.722656 26.527344 66.695312 25.898438 67.15625 25.664062 C 67.691406 25.398438 68.570312 25.113281 69.402344 24.957031 C 70.207031 24.789062 72.480469 24.773438 73.449219 24.914062 C 75.75 25.257812 78.003906 26.128906 80.074219 27.488281 C 83.496094 29.734375 85.878906 32.855469 87.167969 36.785156 C 87.964844 39.210938 88.21875 40.96875 88.160156 43.605469 C 88.117188 45.734375 87.90625 47.125 87.304688 49.339844 C 85.625 55.574219 82.15625 60.8125 76.707031 65.359375 C 73.722656 67.851562 71.328125 69.378906 67.011719 71.527344 C 65.949219 72.066406 65.085938 72.515625 65.101562 72.527344 C 65.167969 72.59375 66.851562 72.167969 67.859375 71.832031 C 73.863281 69.820312 80.238281 65.128906 84.375 59.683594 C 86.9375 56.3125 88.558594 52.960938 89.519531 49.035156 C 90.09375 46.695312 90.316406 44.667969 90.253906 42.484375 C 90.164062 39.585938 89.613281 36.988281 88.550781 34.527344 C 87.789062 32.761719 86.894531 31.363281 84.207031 27.75 C 84.039062 27.527344 84.070312 27.539062 84.460938 27.875 C 85.113281 28.429688 86.574219 29.972656 87.566406 31.136719 C 88.042969 31.695312 88.441406 32.152344 88.449219 32.144531 C 88.457031 32.128906 88.382812 31.863281 88.296875 31.535156 C 87.746094 29.601562 86.132812 27.386719 83.910156 25.542969 C 82.042969 23.992188 79.703125 22.835938 77.097656 22.167969 C 74.28125 21.457031 70.734375 21.457031 67.917969 22.167969 C 66.289062 22.589844 65.074219 23.042969 63.480469 23.839844 C 61.523438 24.824219 60.171875 25.75 58.816406 27.046875 C 56.132812 29.601562 54.753906 32.210938 54.4375 35.316406 C 54.023438 39.3125 56.03125 43.070312 59.390625 44.617188 C 60.105469 44.945312 60.988281 45.234375 61.566406 45.335938 C 61.808594 45.378906 62.015625 45.429688 62.03125 45.453125 C 62.109375 45.523438 61.277344 45.480469 60.546875 45.371094 C 59.003906 45.148438 57.78125 44.539062 56.042969 43.148438 L 55.507812 42.714844 L 55.753906 43.0625 C 56.210938 43.707031 57.136719 44.617188 57.730469 45.007812 C 59.34375 46.074219 60.972656 46.574219 62.878906 46.574219 C 65.222656 46.574219 67.171875 45.8125 68.570312 44.351562 C 69.175781 43.714844 69.5625 43.121094 69.828125 42.417969 C 70.054688 41.832031 70.054688 41.789062 69.851562 42.054688 C 69.625 42.359375 68.980469 43.027344 68.835938 43.105469 C 68.765625 43.148438 68.835938 42.933594 69.0625 42.496094 C 70.257812 40.144531 70.089844 37.949219 68.597656 36.460938 C 66.519531 34.382812 63.117188 35.265625 62.996094 37.90625 C 62.980469 38.3125 63.007812 38.566406 63.089844 38.785156 C 63.246094 39.195312 63.632812 39.730469 63.929688 39.949219 C 64.246094 40.1875 64.082031 40.179688 63.59375 39.941406 C 63.125 39.710938 62.742188 39.304688 62.496094 38.761719 C 62.242188 38.226562 62.191406 37.242188 62.371094 36.613281 C 62.675781 35.546875 63.429688 34.628906 64.371094 34.164062 C 66.398438 33.164062 68.777344 33.808594 70.496094 35.808594 C 71.285156 36.726562 71.835938 38.125 71.964844 39.523438 C 72.296875 43.199219 69.964844 46.617188 66.230469 47.941406 C 65.121094 48.324219 64.132812 48.484375 62.734375 48.484375 C 60.824219 48.484375 59.453125 48.160156 57.855469 47.328125 C 56.882812 46.828125 56.234375 46.347656 55.449219 45.558594 C 52.28125 42.351562 51.332031 36.914062 53.113281 32.21875 C 54.421875 28.769531 57.46875 25.214844 60.726562 23.328125 C 63.21875 21.878906 65.570312 21.105469 68.960938 20.605469 C 70.210938 20.421875 73.949219 20.417969 75.1875 20.605469 C 77.910156 21.011719 79.589844 21.488281 82.644531 22.710938 L 82.933594 22.828125 L 82.679688 22.609375 C 82.542969 22.488281 82.136719 22.195312 81.773438 21.980469 C 79.015625 20.257812 74.714844 19.242188 70.769531 19.375 C 69.53125 19.417969 67.851562 19.578125 66.953125 19.742188 C 66.664062 19.800781 66.484375 19.808594 66.511719 19.765625 C 66.601562 19.621094 67.910156 19.0625 68.664062 18.851562 C 70.082031 18.453125 70.8125 18.382812 73.304688 18.375 C 75.808594 18.375 76.582031 18.445312 78.699219 18.886719 C 82.136719 19.597656 85.488281 20.902344 88.890625 22.847656 C 89.332031 23.109375 89.703125 23.296875 89.703125 23.269531 C 89.703125 23.183594 88.78125 22.40625 88.101562 21.914062 C 84.675781 19.4375 80.226562 17.765625 75.324219 17.101562 C 74.027344 16.925781 70.863281 16.847656 69.828125 16.960938 Z M 73.960938 22.972656 C 76.035156 23.328125 78.21875 24.382812 79.785156 25.796875 L 80.109375 26.085938 L 79.277344 25.65625 C 76.9375 24.441406 75.054688 23.824219 72.328125 23.378906 C 71.710938 23.277344 71.015625 23.175781 70.785156 23.144531 C 70.554688 23.125 70.386719 23.082031 70.40625 23.058594 C 70.429688 23.035156 70.648438 22.980469 70.898438 22.929688 C 71.617188 22.789062 72.992188 22.804688 73.960938 22.972656 Z M 74.992188 28.820312 C 76.0625 29.300781 76.621094 29.617188 77.460938 30.246094 C 79.386719 31.679688 81.066406 33.910156 81.839844 36.0625 C 82.050781 36.664062 82.316406 37.898438 82.308594 38.261719 C 82.304688 38.5 82.304688 38.492188 82.15625 38.140625 C 81.863281 37.4375 80.675781 35.164062 80.210938 34.425781 C 78.945312 32.390625 76.96875 30.394531 74.839844 28.988281 C 74.40625 28.707031 74.085938 28.472656 74.128906 28.472656 C 74.179688 28.472656 74.5625 28.632812 74.992188 28.820312 Z M 57.671875 30.566406 C 57.210938 31.457031 56.542969 33.605469 56.398438 34.648438 C 56.289062 35.476562 56.3125 37.023438 56.433594 37.8125 C 56.644531 39.082031 57.320312 40.773438 58.042969 41.859375 C 58.214844 42.113281 58.347656 42.339844 58.332031 42.34375 C 58.316406 42.359375 58.128906 42.207031 57.90625 42.011719 C 56.253906 40.542969 55.320312 37.855469 55.59375 35.34375 C 55.746094 33.976562 56.160156 32.703125 56.839844 31.578125 C 57.320312 30.785156 57.96875 29.988281 57.671875 30.566406 Z M 68.773438 32.679688 C 70.855469 33.203125 72.628906 34.960938 73.40625 37.277344 C 73.976562 38.984375 74 41.128906 73.464844 42.699219 C 73.253906 43.308594 72.964844 43.953125 72.8125 44.148438 C 72.710938 44.277344 72.710938 44.257812 72.804688 43.902344 C 73.136719 42.621094 73.273438 40.347656 73.09375 39.226562 C 72.957031 38.414062 72.585938 37.25 72.261719 36.605469 C 71.777344 35.640625 70.71875 34.445312 69.71875 33.746094 C 69.214844 33.382812 68.128906 32.816406 67.527344 32.59375 L 67.148438 32.457031 L 67.6875 32.5 C 67.976562 32.519531 68.46875 32.601562 68.773438 32.679688 Z M 58.535156 38.972656 C 59.46875 40.816406 60.929688 42.113281 62.539062 42.527344 C 65.320312 43.234375 67.902344 41.40625 67.910156 38.695312 C 67.917969 38.101562 68.011719 38.21875 68.132812 38.964844 C 68.199219 39.363281 68.199219 39.625 68.132812 40.101562 C 68.019531 40.90625 67.84375 41.375 67.410156 41.992188 C 66.621094 43.113281 65.425781 43.675781 63.847656 43.683594 C 62.15625 43.683594 60.859375 43.097656 59.597656 41.757812 C 58.707031 40.8125 58.171875 39.644531 57.957031 38.175781 C 57.8125 37.226562 57.824219 37.175781 58.058594 37.847656 C 58.164062 38.167969 58.382812 38.675781 58.535156 38.972656 Z M 49.753906 44.140625 C 50.730469 45.625 52.445312 47.472656 53.757812 48.441406 C 54.597656 49.0625 56.007812 49.832031 56.890625 50.148438 C 59.195312 50.96875 61.632812 51.128906 65.015625 50.664062 L 65.339844 50.621094 L 64.949219 50.808594 C 62.117188 52.140625 58.460938 51.960938 55.203125 50.339844 C 54.089844 49.773438 53.148438 49.109375 52.207031 48.203125 C 50.910156 46.949219 50.101562 45.734375 49.476562 44.089844 C 49.222656 43.425781 49.179688 43.257812 49.324219 43.488281 C 49.375 43.570312 49.566406 43.859375 49.753906 44.140625 Z M 78.160156 50.316406 C 77.835938 51.230469 77.039062 52.785156 76.539062 53.488281 C 75.765625 54.589844 74.179688 56.296875 73.050781 57.253906 C 72.261719 57.917969 69.429688 59.707031 69.328125 59.597656 C 69.316406 59.582031 69.714844 59.242188 70.210938 58.84375 C 73.296875 56.390625 75.851562 53.648438 77.734375 50.75 C 77.988281 50.367188 78.207031 50.046875 78.226562 50.046875 C 78.242188 50.046875 78.210938 50.171875 78.160156 50.316406 Z M 78.160156 50.316406 "/></g><path style=" stroke:none;fill-rule:nonzero;fill:#0661aa;fill-opacity:1;" d="M 89.128906 26.207031 C 89.789062 26.882812 90.5 27.628906 90.699219 27.878906 C 90.910156 28.132812 91.078125 28.308594 91.078125 28.265625 C 91.078125 28.226562 90.96875 27.996094 90.832031 27.742188 C 90.257812 26.6875 89.492188 25.867188 88.550781 25.304688 C 88.269531 25.136719 88.015625 25 87.984375 25 C 87.957031 25 88.476562 25.542969 89.128906 26.207031 Z M 89.128906 26.207031 "/><g clip-rule="nonzero" clip-path="url(#5d92cace41)"><path style=" stroke:none;fill-rule:nonzero;fill:#0661aa;fill-opacity:1;" d="M 87.640625 28.003906 C 88.429688 29.242188 89.753906 31.832031 90.238281 33.085938 C 90.847656 34.640625 91.417969 36.871094 91.6875 38.6875 C 91.9375 40.390625 91.953125 43.097656 91.722656 45.160156 C 91.628906 46.007812 91.171875 48.28125 90.902344 49.214844 C 90.449219 50.816406 89.753906 52.691406 89.117188 54.023438 C 86.414062 59.675781 81.839844 64.804688 76.019531 68.707031 C 74.949219 69.414062 72.347656 70.957031 71.246094 71.523438 C 70.566406 71.871094 71.5 71.636719 72.871094 71.117188 C 74.554688 70.472656 76.222656 69.648438 78.15625 68.488281 C 83.070312 65.554688 87.242188 61.34375 90 56.527344 C 92.527344 52.121094 93.871094 46.449219 93.464844 41.976562 C 93.082031 37.769531 91.585938 33.347656 89.476562 30.203125 C 89.007812 29.496094 88.007812 28.234375 87.703125 27.96875 L 87.5 27.785156 Z M 87.640625 28.003906 "/></g><path style=" stroke:none;fill-rule:nonzero;fill:#0661aa;fill-opacity:1;" d="M 45.953125 49.628906 C 46.53125 50.390625 46.921875 50.832031 47.398438 51.28125 C 49.433594 53.191406 52.386719 54.457031 55.097656 54.574219 C 55.550781 54.59375 55.898438 54.59375 55.855469 54.574219 C 55.820312 54.558594 55.191406 54.378906 54.457031 54.175781 C 52.835938 53.734375 52.003906 53.429688 50.789062 52.835938 C 49.363281 52.148438 47.488281 50.886719 46.335938 49.851562 C 46.003906 49.554688 45.808594 49.441406 45.953125 49.628906 Z M 45.953125 49.628906 "/><g style="fill:#2d6d5e;fill-opacity:1;"><g transform="translate(49.420787, 130.960593)"><path style="stroke:none" d="M 3.359375 -4.078125 L 5.328125 -4.078125 L 5.328125 -0.265625 C 5.015625 -0.140625 4.6875 -0.046875 4.34375 0.015625 C 4.007812 0.078125 3.671875 0.109375 3.328125 0.109375 C 2.691406 0.109375 2.164062 -0.0625 1.75 -0.40625 C 1.34375 -0.757812 1.039062 -1.238281 0.84375 -1.84375 C 0.644531 -2.457031 0.546875 -3.148438 0.546875 -3.921875 C 0.546875 -4.691406 0.648438 -5.378906 0.859375 -5.984375 C 1.078125 -6.585938 1.40625 -7.054688 1.84375 -7.390625 C 2.28125 -7.734375 2.828125 -7.90625 3.484375 -7.90625 C 3.804688 -7.90625 4.113281 -7.863281 4.40625 -7.78125 C 4.707031 -7.695312 4.988281 -7.570312 5.25 -7.40625 L 4.9375 -6.6875 C 4.695312 -6.84375 4.457031 -6.957031 4.21875 -7.03125 C 3.976562 -7.101562 3.738281 -7.140625 3.5 -7.140625 C 3.050781 -7.140625 2.671875 -7.015625 2.359375 -6.765625 C 2.054688 -6.515625 1.828125 -6.144531 1.671875 -5.65625 C 1.515625 -5.175781 1.4375 -4.585938 1.4375 -3.890625 C 1.4375 -3.273438 1.503906 -2.722656 1.640625 -2.234375 C 1.773438 -1.753906 1.984375 -1.367188 2.265625 -1.078125 C 2.554688 -0.796875 2.929688 -0.65625 3.390625 -0.65625 C 3.597656 -0.65625 3.796875 -0.671875 3.984375 -0.703125 C 4.171875 -0.734375 4.34375 -0.78125 4.5 -0.84375 L 4.5 -3.328125 L 3.359375 -3.328125 Z M 3.359375 -4.078125 "/></g></g><g style="fill:#2d6d5e;fill-opacity:1;"><g transform="translate(56.869938, 130.960593)"><path style="stroke:none" d="M 4.203125 -5.859375 L 4.203125 0 L 3.546875 0 L 3.46875 -0.828125 L 3.40625 -0.828125 C 3.320312 -0.640625 3.21875 -0.472656 3.09375 -0.328125 C 2.96875 -0.191406 2.820312 -0.0820312 2.65625 0 C 2.5 0.0703125 2.316406 0.109375 2.109375 0.109375 C 1.765625 0.109375 1.488281 0.0234375 1.28125 -0.140625 C 1.070312 -0.316406 0.921875 -0.5625 0.828125 -0.875 C 0.734375 -1.195312 0.6875 -1.578125 0.6875 -2.015625 L 0.6875 -5.859375 L 1.515625 -5.859375 L 1.515625 -2.171875 C 1.515625 -1.640625 1.570312 -1.25 1.6875 -1 C 1.8125 -0.75 2.003906 -0.625 2.265625 -0.625 C 2.535156 -0.625 2.75 -0.695312 2.90625 -0.84375 C 3.070312 -1 3.191406 -1.226562 3.265625 -1.53125 C 3.347656 -1.84375 3.390625 -2.238281 3.390625 -2.71875 L 3.390625 -5.859375 Z M 4.203125 -5.859375 "/></g></g><g style="fill:#2d6d5e;fill-opacity:1;"><g transform="translate(63.321902, 130.960593)"><path style="stroke:none" d="M 1.546875 -5.859375 L 1.546875 0 L 0.71875 0 L 0.71875 -5.859375 Z M 1.140625 -8.046875 C 1.304688 -8.046875 1.425781 -7.992188 1.5 -7.890625 C 1.582031 -7.785156 1.625 -7.640625 1.625 -7.453125 C 1.625 -7.265625 1.582031 -7.117188 1.5 -7.015625 C 1.414062 -6.910156 1.296875 -6.859375 1.140625 -6.859375 C 0.992188 -6.859375 0.875 -6.910156 0.78125 -7.015625 C 0.695312 -7.117188 0.65625 -7.265625 0.65625 -7.453125 C 0.65625 -7.648438 0.695312 -7.796875 0.78125 -7.890625 C 0.863281 -7.992188 0.984375 -8.046875 1.140625 -8.046875 Z M 1.140625 -8.046875 "/></g></g><g style="fill:#2d6d5e;fill-opacity:1;"><g transform="translate(67.112924, 130.960593)"><path style="stroke:none" d="M 2.171875 0.109375 C 1.609375 0.109375 1.179688 -0.144531 0.890625 -0.65625 C 0.609375 -1.175781 0.46875 -1.925781 0.46875 -2.90625 C 0.46875 -3.882812 0.613281 -4.640625 0.90625 -5.171875 C 1.195312 -5.703125 1.609375 -5.96875 2.140625 -5.96875 C 2.328125 -5.96875 2.503906 -5.929688 2.671875 -5.859375 C 2.835938 -5.785156 2.988281 -5.679688 3.125 -5.546875 C 3.257812 -5.410156 3.375 -5.25 3.46875 -5.0625 L 3.5 -5.0625 C 3.5 -5.226562 3.492188 -5.375 3.484375 -5.5 C 3.484375 -5.632812 3.484375 -5.753906 3.484375 -5.859375 L 3.484375 -8.296875 L 4.296875 -8.296875 L 4.296875 0 L 3.640625 0 L 3.53125 -0.796875 L 3.484375 -0.796875 C 3.378906 -0.609375 3.265625 -0.445312 3.140625 -0.3125 C 3.015625 -0.175781 2.867188 -0.0703125 2.703125 0 C 2.546875 0.0703125 2.367188 0.109375 2.171875 0.109375 Z M 2.359375 -0.59375 C 2.722656 -0.59375 3 -0.765625 3.1875 -1.109375 C 3.382812 -1.453125 3.484375 -1.960938 3.484375 -2.640625 L 3.484375 -3.046875 C 3.484375 -3.785156 3.390625 -4.332031 3.203125 -4.6875 C 3.015625 -5.050781 2.726562 -5.234375 2.34375 -5.234375 C 1.988281 -5.234375 1.722656 -5.035156 1.546875 -4.640625 C 1.378906 -4.242188 1.296875 -3.664062 1.296875 -2.90625 C 1.296875 -2.144531 1.378906 -1.566406 1.546875 -1.171875 C 1.722656 -0.785156 1.992188 -0.59375 2.359375 -0.59375 Z M 2.359375 -0.59375 "/></g></g><g style="fill:#2d6d5e;fill-opacity:1;"><g transform="translate(73.639543, 130.960593)"><path style="stroke:none" d="M 2.328125 -5.953125 C 2.722656 -5.953125 3.050781 -5.835938 3.3125 -5.609375 C 3.570312 -5.378906 3.765625 -5.066406 3.890625 -4.671875 C 4.015625 -4.273438 4.078125 -3.835938 4.078125 -3.359375 L 4.078125 -2.78125 L 1.28125 -2.78125 C 1.289062 -2.050781 1.40625 -1.503906 1.625 -1.140625 C 1.84375 -0.773438 2.171875 -0.59375 2.609375 -0.59375 C 2.816406 -0.59375 3.019531 -0.625 3.21875 -0.6875 C 3.425781 -0.75 3.640625 -0.851562 3.859375 -1 L 3.859375 -0.265625 C 3.660156 -0.140625 3.445312 -0.046875 3.21875 0.015625 C 3 0.078125 2.765625 0.109375 2.515625 0.109375 C 2.035156 0.109375 1.644531 -0.0195312 1.34375 -0.28125 C 1.039062 -0.539062 0.816406 -0.894531 0.671875 -1.34375 C 0.535156 -1.800781 0.46875 -2.316406 0.46875 -2.890625 C 0.46875 -3.546875 0.535156 -4.101562 0.671875 -4.5625 C 0.816406 -5.019531 1.023438 -5.363281 1.296875 -5.59375 C 1.578125 -5.832031 1.921875 -5.953125 2.328125 -5.953125 Z M 2.328125 -5.28125 C 2.015625 -5.28125 1.769531 -5.128906 1.59375 -4.828125 C 1.425781 -4.523438 1.328125 -4.0625 1.296875 -3.4375 L 3.3125 -3.4375 C 3.3125 -3.769531 3.273438 -4.070312 3.203125 -4.34375 C 3.128906 -4.625 3.019531 -4.847656 2.875 -5.015625 C 2.738281 -5.191406 2.554688 -5.28125 2.328125 -5.28125 Z M 2.328125 -5.28125 "/></g></g><g style="fill:#2d6d5e;fill-opacity:1;"><g transform="translate(79.686234, 130.960593)"><path style="stroke:none" d="M 2.171875 0.109375 C 1.609375 0.109375 1.179688 -0.144531 0.890625 -0.65625 C 0.609375 -1.175781 0.46875 -1.925781 0.46875 -2.90625 C 0.46875 -3.882812 0.613281 -4.640625 0.90625 -5.171875 C 1.195312 -5.703125 1.609375 -5.96875 2.140625 -5.96875 C 2.328125 -5.96875 2.503906 -5.929688 2.671875 -5.859375 C 2.835938 -5.785156 2.988281 -5.679688 3.125 -5.546875 C 3.257812 -5.410156 3.375 -5.25 3.46875 -5.0625 L 3.5 -5.0625 C 3.5 -5.226562 3.492188 -5.375 3.484375 -5.5 C 3.484375 -5.632812 3.484375 -5.753906 3.484375 -5.859375 L 3.484375 -8.296875 L 4.296875 -8.296875 L 4.296875 0 L 3.640625 0 L 3.53125 -0.796875 L 3.484375 -0.796875 C 3.378906 -0.609375 3.265625 -0.445312 3.140625 -0.3125 C 3.015625 -0.175781 2.867188 -0.0703125 2.703125 0 C 2.546875 0.0703125 2.367188 0.109375 2.171875 0.109375 Z M 2.359375 -0.59375 C 2.722656 -0.59375 3 -0.765625 3.1875 -1.109375 C 3.382812 -1.453125 3.484375 -1.960938 3.484375 -2.640625 L 3.484375 -3.046875 C 3.484375 -3.785156 3.390625 -4.332031 3.203125 -4.6875 C 3.015625 -5.050781 2.726562 -5.234375 2.34375 -5.234375 C 1.988281 -5.234375 1.722656 -5.035156 1.546875 -4.640625 C 1.378906 -4.242188 1.296875 -3.664062 1.296875 -2.90625 C 1.296875 -2.144531 1.378906 -1.566406 1.546875 -1.171875 C 1.722656 -0.785156 1.992188 -0.59375 2.359375 -0.59375 Z M 2.359375 -0.59375 "/></g></g><g style="fill:#2d6d5e;fill-opacity:1;"><g transform="translate(24.784363, 143.628093)"><path style="stroke:none" d="M 1.53125 -8.296875 L 1.53125 -5.890625 C 1.53125 -5.734375 1.523438 -5.582031 1.515625 -5.4375 C 1.515625 -5.289062 1.503906 -5.15625 1.484375 -5.03125 L 1.53125 -5.03125 C 1.601562 -5.21875 1.703125 -5.378906 1.828125 -5.515625 C 1.953125 -5.660156 2.097656 -5.769531 2.265625 -5.84375 C 2.429688 -5.925781 2.613281 -5.96875 2.8125 -5.96875 C 3.132812 -5.96875 3.398438 -5.890625 3.609375 -5.734375 C 3.828125 -5.585938 3.984375 -5.363281 4.078125 -5.0625 C 4.179688 -4.769531 4.234375 -4.410156 4.234375 -3.984375 L 4.234375 0 L 3.40625 0 L 3.40625 -3.8125 C 3.40625 -4.320312 3.34375 -4.679688 3.21875 -4.890625 C 3.101562 -5.109375 2.910156 -5.21875 2.640625 -5.21875 C 2.390625 -5.21875 2.179688 -5.140625 2.015625 -4.984375 C 1.859375 -4.835938 1.738281 -4.601562 1.65625 -4.28125 C 1.570312 -3.96875 1.53125 -3.5625 1.53125 -3.0625 L 1.53125 0 L 0.71875 0 L 0.71875 -8.296875 Z M 1.53125 -8.296875 "/></g></g><g style="fill:#2d6d5e;fill-opacity:1;"><g transform="translate(31.236327, 143.628093)"><path style="stroke:none" d="M 0.0625 -5.859375 L 0.90625 -5.859375 L 1.734375 -2.4375 C 1.765625 -2.28125 1.796875 -2.128906 1.828125 -1.984375 C 1.859375 -1.847656 1.882812 -1.707031 1.90625 -1.5625 C 1.9375 -1.425781 1.960938 -1.285156 1.984375 -1.140625 L 2.03125 -1.140625 C 2.050781 -1.347656 2.082031 -1.554688 2.125 -1.765625 C 2.175781 -1.984375 2.226562 -2.207031 2.28125 -2.4375 L 3.09375 -5.859375 L 3.9375 -5.859375 L 2.1875 0.9375 C 2.082031 1.332031 1.960938 1.648438 1.828125 1.890625 C 1.691406 2.140625 1.53125 2.320312 1.34375 2.4375 C 1.15625 2.5625 0.929688 2.625 0.671875 2.625 C 0.585938 2.625 0.503906 2.613281 0.421875 2.59375 C 0.335938 2.582031 0.25 2.5625 0.15625 2.53125 L 0.15625 1.796875 C 0.21875 1.828125 0.285156 1.847656 0.359375 1.859375 C 0.429688 1.867188 0.503906 1.875 0.578125 1.875 C 0.703125 1.875 0.8125 1.835938 0.90625 1.765625 C 1.007812 1.703125 1.097656 1.585938 1.171875 1.421875 C 1.242188 1.265625 1.316406 1.050781 1.390625 0.78125 L 1.59375 -0.046875 Z M 0.0625 -5.859375 "/></g></g><g style="fill:#2d6d5e;fill-opacity:1;"><g transform="translate(36.74443, 143.628093)"><path style="stroke:none" d="M 2.828125 -5.96875 C 3.390625 -5.96875 3.816406 -5.710938 4.109375 -5.203125 C 4.398438 -4.703125 4.546875 -3.945312 4.546875 -2.9375 C 4.546875 -2.289062 4.476562 -1.738281 4.34375 -1.28125 C 4.21875 -0.832031 4.03125 -0.488281 3.78125 -0.25 C 3.53125 -0.0078125 3.226562 0.109375 2.875 0.109375 C 2.675781 0.109375 2.488281 0.0703125 2.3125 0 C 2.144531 -0.0820312 1.992188 -0.191406 1.859375 -0.328125 C 1.734375 -0.472656 1.625 -0.640625 1.53125 -0.828125 L 1.5 -0.828125 C 1.507812 -0.679688 1.515625 -0.539062 1.515625 -0.40625 C 1.523438 -0.28125 1.53125 -0.160156 1.53125 -0.046875 L 1.53125 2.609375 L 0.71875 2.609375 L 0.71875 -5.859375 L 1.375 -5.859375 L 1.484375 -5 L 1.53125 -5 C 1.632812 -5.21875 1.75 -5.394531 1.875 -5.53125 C 2 -5.675781 2.140625 -5.785156 2.296875 -5.859375 C 2.460938 -5.929688 2.640625 -5.96875 2.828125 -5.96875 Z M 2.65625 -5.25 C 2.40625 -5.25 2.195312 -5.171875 2.03125 -5.015625 C 1.863281 -4.859375 1.738281 -4.625 1.65625 -4.3125 C 1.570312 -4 1.53125 -3.601562 1.53125 -3.125 L 1.53125 -2.84375 C 1.53125 -2.332031 1.570312 -1.910156 1.65625 -1.578125 C 1.738281 -1.253906 1.863281 -1.007812 2.03125 -0.84375 C 2.207031 -0.6875 2.421875 -0.609375 2.671875 -0.609375 C 2.890625 -0.609375 3.078125 -0.691406 3.234375 -0.859375 C 3.390625 -1.023438 3.503906 -1.273438 3.578125 -1.609375 C 3.660156 -1.953125 3.703125 -2.390625 3.703125 -2.921875 C 3.703125 -3.691406 3.617188 -4.269531 3.453125 -4.65625 C 3.296875 -5.050781 3.03125 -5.25 2.65625 -5.25 Z M 2.65625 -5.25 "/></g></g><g style="fill:#2d6d5e;fill-opacity:1;"><g transform="translate(43.27105, 143.628093)"><path style="stroke:none" d="M 2.328125 -5.953125 C 2.722656 -5.953125 3.050781 -5.835938 3.3125 -5.609375 C 3.570312 -5.378906 3.765625 -5.066406 3.890625 -4.671875 C 4.015625 -4.273438 4.078125 -3.835938 4.078125 -3.359375 L 4.078125 -2.78125 L 1.28125 -2.78125 C 1.289062 -2.050781 1.40625 -1.503906 1.625 -1.140625 C 1.84375 -0.773438 2.171875 -0.59375 2.609375 -0.59375 C 2.816406 -0.59375 3.019531 -0.625 3.21875 -0.6875 C 3.425781 -0.75 3.640625 -0.851562 3.859375 -1 L 3.859375 -0.265625 C 3.660156 -0.140625 3.445312 -0.046875 3.21875 0.015625 C 3 0.078125 2.765625 0.109375 2.515625 0.109375 C 2.035156 0.109375 1.644531 -0.0195312 1.34375 -0.28125 C 1.039062 -0.539062 0.816406 -0.894531 0.671875 -1.34375 C 0.535156 -1.800781 0.46875 -2.316406 0.46875 -2.890625 C 0.46875 -3.546875 0.535156 -4.101562 0.671875 -4.5625 C 0.816406 -5.019531 1.023438 -5.363281 1.296875 -5.59375 C 1.578125 -5.832031 1.921875 -5.953125 2.328125 -5.953125 Z M 2.328125 -5.28125 C 2.015625 -5.28125 1.769531 -5.128906 1.59375 -4.828125 C 1.425781 -4.523438 1.328125 -4.0625 1.296875 -3.4375 L 3.3125 -3.4375 C 3.3125 -3.769531 3.273438 -4.070312 3.203125 -4.34375 C 3.128906 -4.625 3.019531 -4.847656 2.875 -5.015625 C 2.738281 -5.191406 2.554688 -5.28125 2.328125 -5.28125 Z M 2.328125 -5.28125 "/></g></g><g style="fill:#2d6d5e;fill-opacity:1;"><g transform="translate(49.31774, 143.628093)"><path style="stroke:none" d="M 2.671875 -5.953125 C 2.753906 -5.953125 2.835938 -5.945312 2.921875 -5.9375 C 3.003906 -5.925781 3.085938 -5.90625 3.171875 -5.875 L 3.046875 -5.03125 C 2.984375 -5.0625 2.914062 -5.082031 2.84375 -5.09375 C 2.769531 -5.101562 2.691406 -5.109375 2.609375 -5.109375 C 2.453125 -5.109375 2.304688 -5.054688 2.171875 -4.953125 C 2.035156 -4.847656 1.921875 -4.703125 1.828125 -4.515625 C 1.734375 -4.328125 1.660156 -4.109375 1.609375 -3.859375 C 1.554688 -3.609375 1.53125 -3.335938 1.53125 -3.046875 L 1.53125 0 L 0.71875 0 L 0.71875 -5.859375 L 1.359375 -5.859375 L 1.46875 -4.8125 L 1.515625 -4.8125 C 1.597656 -5.039062 1.691406 -5.238281 1.796875 -5.40625 C 1.910156 -5.570312 2.039062 -5.703125 2.1875 -5.796875 C 2.332031 -5.898438 2.492188 -5.953125 2.671875 -5.953125 Z M 2.671875 -5.953125 "/></g></g><g style="fill:#2d6d5e;fill-opacity:1;"><g transform="translate(54.121947, 143.628093)"><path style="stroke:none" d="M 1.515625 0 L 0.046875 -5.859375 L 0.890625 -5.859375 L 1.6875 -2.296875 C 1.738281 -2.085938 1.785156 -1.867188 1.828125 -1.640625 C 1.867188 -1.421875 1.90625 -1.1875 1.9375 -0.9375 L 1.984375 -0.9375 C 2.003906 -1.082031 2.03125 -1.25 2.0625 -1.4375 C 2.09375 -1.632812 2.140625 -1.851562 2.203125 -2.09375 L 3.0625 -5.859375 L 3.90625 -5.859375 L 2.421875 0 Z M 1.515625 0 "/></g></g><g style="fill:#2d6d5e;fill-opacity:1;"><g transform="translate(59.603387, 143.628093)"><path style="stroke:none" d="M 2.328125 -5.953125 C 2.722656 -5.953125 3.050781 -5.835938 3.3125 -5.609375 C 3.570312 -5.378906 3.765625 -5.066406 3.890625 -4.671875 C 4.015625 -4.273438 4.078125 -3.835938 4.078125 -3.359375 L 4.078125 -2.78125 L 1.28125 -2.78125 C 1.289062 -2.050781 1.40625 -1.503906 1.625 -1.140625 C 1.84375 -0.773438 2.171875 -0.59375 2.609375 -0.59375 C 2.816406 -0.59375 3.019531 -0.625 3.21875 -0.6875 C 3.425781 -0.75 3.640625 -0.851562 3.859375 -1 L 3.859375 -0.265625 C 3.660156 -0.140625 3.445312 -0.046875 3.21875 0.015625 C 3 0.078125 2.765625 0.109375 2.515625 0.109375 C 2.035156 0.109375 1.644531 -0.0195312 1.34375 -0.28125 C 1.039062 -0.539062 0.816406 -0.894531 0.671875 -1.34375 C 0.535156 -1.800781 0.46875 -2.316406 0.46875 -2.890625 C 0.46875 -3.546875 0.535156 -4.101562 0.671875 -4.5625 C 0.816406 -5.019531 1.023438 -5.363281 1.296875 -5.59375 C 1.578125 -5.832031 1.921875 -5.953125 2.328125 -5.953125 Z M 2.328125 -5.28125 C 2.015625 -5.28125 1.769531 -5.128906 1.59375 -4.828125 C 1.425781 -4.523438 1.328125 -4.0625 1.296875 -3.4375 L 3.3125 -3.4375 C 3.3125 -3.769531 3.273438 -4.070312 3.203125 -4.34375 C 3.128906 -4.625 3.019531 -4.847656 2.875 -5.015625 C 2.738281 -5.191406 2.554688 -5.28125 2.328125 -5.28125 Z M 2.328125 -5.28125 "/></g></g><g style="fill:#2d6d5e;fill-opacity:1;"><g transform="translate(65.650077, 143.628093)"><path style="stroke:none" d="M 2.828125 -5.96875 C 3.285156 -5.96875 3.632812 -5.800781 3.875 -5.46875 C 4.113281 -5.144531 4.234375 -4.648438 4.234375 -3.984375 L 4.234375 0 L 3.40625 0 L 3.40625 -3.828125 C 3.40625 -4.296875 3.34375 -4.644531 3.21875 -4.875 C 3.101562 -5.113281 2.910156 -5.234375 2.640625 -5.234375 C 2.253906 -5.234375 1.972656 -5.0625 1.796875 -4.71875 C 1.617188 -4.382812 1.53125 -3.835938 1.53125 -3.078125 L 1.53125 0 L 0.71875 0 L 0.71875 -5.859375 L 1.375 -5.859375 L 1.46875 -5 L 1.515625 -5 C 1.597656 -5.195312 1.703125 -5.367188 1.828125 -5.515625 C 1.953125 -5.660156 2.097656 -5.769531 2.265625 -5.84375 C 2.429688 -5.925781 2.617188 -5.96875 2.828125 -5.96875 Z M 2.828125 -5.96875 "/></g></g><g style="fill:#2d6d5e;fill-opacity:1;"><g transform="translate(72.102041, 143.628093)"><path style="stroke:none" d="M 2.09375 -0.625 C 2.175781 -0.625 2.257812 -0.628906 2.34375 -0.640625 C 2.4375 -0.660156 2.523438 -0.691406 2.609375 -0.734375 L 2.609375 -0.0625 C 2.503906 -0.0078125 2.382812 0.03125 2.25 0.0625 C 2.125 0.09375 1.984375 0.109375 1.828125 0.109375 C 1.578125 0.109375 1.367188 0.0507812 1.203125 -0.0625 C 1.046875 -0.175781 0.925781 -0.34375 0.84375 -0.5625 C 0.769531 -0.789062 0.734375 -1.078125 0.734375 -1.421875 L 0.734375 -5.171875 L 0.1875 -5.171875 L 0.1875 -5.609375 L 0.765625 -5.828125 L 0.984375 -7.1875 L 1.5625 -7.1875 L 1.5625 -5.859375 L 2.546875 -5.859375 L 2.546875 -5.171875 L 1.5625 -5.171875 L 1.5625 -1.515625 C 1.5625 -1.210938 1.597656 -0.988281 1.671875 -0.84375 C 1.742188 -0.695312 1.882812 -0.625 2.09375 -0.625 Z M 2.09375 -0.625 "/></g></g><g style="fill:#2d6d5e;fill-opacity:1;"><g transform="translate(76.399655, 143.628093)"><path style="stroke:none" d="M 1.546875 -5.859375 L 1.546875 0 L 0.71875 0 L 0.71875 -5.859375 Z M 1.140625 -8.046875 C 1.304688 -8.046875 1.425781 -7.992188 1.5 -7.890625 C 1.582031 -7.785156 1.625 -7.640625 1.625 -7.453125 C 1.625 -7.265625 1.582031 -7.117188 1.5 -7.015625 C 1.414062 -6.910156 1.296875 -6.859375 1.140625 -6.859375 C 0.992188 -6.859375 0.875 -6.910156 0.78125 -7.015625 C 0.695312 -7.117188 0.65625 -7.265625 0.65625 -7.453125 C 0.65625 -7.648438 0.695312 -7.796875 0.78125 -7.890625 C 0.863281 -7.992188 0.984375 -8.046875 1.140625 -8.046875 Z M 1.140625 -8.046875 "/></g></g><g style="fill:#2d6d5e;fill-opacity:1;"><g transform="translate(80.190677, 143.628093)"><path style="stroke:none" d="M 1.53125 0 L 0.71875 0 L 0.71875 -8.296875 L 1.53125 -8.296875 Z M 1.53125 0 "/></g></g><g style="fill:#2d6d5e;fill-opacity:1;"><g transform="translate(83.960369, 143.628093)"><path style="stroke:none" d="M 2.28125 -5.96875 C 2.820312 -5.96875 3.207031 -5.789062 3.4375 -5.4375 C 3.664062 -5.09375 3.78125 -4.597656 3.78125 -3.953125 L 3.78125 0 L 3.15625 0 L 3.046875 -0.828125 L 3.015625 -0.828125 C 2.921875 -0.628906 2.8125 -0.457031 2.6875 -0.3125 C 2.5625 -0.175781 2.414062 -0.0703125 2.25 0 C 2.082031 0.0703125 1.894531 0.109375 1.6875 0.109375 C 1.382812 0.109375 1.132812 0.03125 0.9375 -0.125 C 0.75 -0.289062 0.609375 -0.503906 0.515625 -0.765625 C 0.421875 -1.023438 0.375 -1.304688 0.375 -1.609375 C 0.375 -2.191406 0.539062 -2.640625 0.875 -2.953125 C 1.207031 -3.273438 1.679688 -3.453125 2.296875 -3.484375 L 2.96875 -3.53125 L 2.96875 -3.921875 C 2.96875 -4.390625 2.90625 -4.734375 2.78125 -4.953125 C 2.65625 -5.171875 2.445312 -5.28125 2.15625 -5.28125 C 2 -5.28125 1.828125 -5.25 1.640625 -5.1875 C 1.460938 -5.132812 1.269531 -5.046875 1.0625 -4.921875 L 0.796875 -5.546875 C 1.015625 -5.679688 1.25 -5.785156 1.5 -5.859375 C 1.75 -5.929688 2.007812 -5.96875 2.28125 -5.96875 Z M 2.984375 -2.921875 L 2.4375 -2.890625 C 2.019531 -2.859375 1.710938 -2.738281 1.515625 -2.53125 C 1.316406 -2.320312 1.21875 -2.019531 1.21875 -1.625 C 1.21875 -1.257812 1.28125 -0.988281 1.40625 -0.8125 C 1.539062 -0.644531 1.722656 -0.5625 1.953125 -0.5625 C 2.273438 -0.5625 2.523438 -0.71875 2.703125 -1.03125 C 2.890625 -1.34375 2.984375 -1.773438 2.984375 -2.328125 Z M 2.984375 -2.921875 "/></g></g><g style="fill:#2d6d5e;fill-opacity:1;"><g transform="translate(89.975064, 143.628093)"><path style="stroke:none" d="M 2.09375 -0.625 C 2.175781 -0.625 2.257812 -0.628906 2.34375 -0.640625 C 2.4375 -0.660156 2.523438 -0.691406 2.609375 -0.734375 L 2.609375 -0.0625 C 2.503906 -0.0078125 2.382812 0.03125 2.25 0.0625 C 2.125 0.09375 1.984375 0.109375 1.828125 0.109375 C 1.578125 0.109375 1.367188 0.0507812 1.203125 -0.0625 C 1.046875 -0.175781 0.925781 -0.34375 0.84375 -0.5625 C 0.769531 -0.789062 0.734375 -1.078125 0.734375 -1.421875 L 0.734375 -5.171875 L 0.1875 -5.171875 L 0.1875 -5.609375 L 0.765625 -5.828125 L 0.984375 -7.1875 L 1.5625 -7.1875 L 1.5625 -5.859375 L 2.546875 -5.859375 L 2.546875 -5.171875 L 1.5625 -5.171875 L 1.5625 -1.515625 C 1.5625 -1.210938 1.597656 -0.988281 1.671875 -0.84375 C 1.742188 -0.695312 1.882812 -0.625 2.09375 -0.625 Z M 2.09375 -0.625 "/></g></g><g style="fill:#2d6d5e;fill-opacity:1;"><g transform="translate(94.272678, 143.628093)"><path style="stroke:none" d="M 1.546875 -5.859375 L 1.546875 0 L 0.71875 0 L 0.71875 -5.859375 Z M 1.140625 -8.046875 C 1.304688 -8.046875 1.425781 -7.992188 1.5 -7.890625 C 1.582031 -7.785156 1.625 -7.640625 1.625 -7.453125 C 1.625 -7.265625 1.582031 -7.117188 1.5 -7.015625 C 1.414062 -6.910156 1.296875 -6.859375 1.140625 -6.859375 C 0.992188 -6.859375 0.875 -6.910156 0.78125 -7.015625 C 0.695312 -7.117188 0.65625 -7.265625 0.65625 -7.453125 C 0.65625 -7.648438 0.695312 -7.796875 0.78125 -7.890625 C 0.863281 -7.992188 0.984375 -8.046875 1.140625 -8.046875 Z M 1.140625 -8.046875 "/></g></g><g style="fill:#2d6d5e;fill-opacity:1;"><g transform="translate(98.0637, 143.628093)"><path style="stroke:none" d="M 4.34375 -2.9375 C 4.34375 -2.46875 4.300781 -2.046875 4.21875 -1.671875 C 4.144531 -1.304688 4.023438 -0.988281 3.859375 -0.71875 C 3.703125 -0.445312 3.5 -0.238281 3.25 -0.09375 C 3.007812 0.0390625 2.722656 0.109375 2.390625 0.109375 C 2.078125 0.109375 1.796875 0.0390625 1.546875 -0.09375 C 1.304688 -0.238281 1.101562 -0.441406 0.9375 -0.703125 C 0.78125 -0.972656 0.660156 -1.296875 0.578125 -1.671875 C 0.503906 -2.046875 0.46875 -2.46875 0.46875 -2.9375 C 0.46875 -3.582031 0.535156 -4.128906 0.671875 -4.578125 C 0.804688 -5.023438 1.019531 -5.367188 1.3125 -5.609375 C 1.601562 -5.847656 1.96875 -5.96875 2.40625 -5.96875 C 2.820312 -5.96875 3.171875 -5.851562 3.453125 -5.625 C 3.742188 -5.394531 3.960938 -5.050781 4.109375 -4.59375 C 4.265625 -4.144531 4.34375 -3.59375 4.34375 -2.9375 Z M 1.296875 -2.9375 C 1.296875 -2.425781 1.332031 -2 1.40625 -1.65625 C 1.488281 -1.3125 1.613281 -1.050781 1.78125 -0.875 C 1.945312 -0.695312 2.160156 -0.609375 2.421875 -0.609375 C 2.671875 -0.609375 2.875 -0.691406 3.03125 -0.859375 C 3.195312 -1.035156 3.316406 -1.296875 3.390625 -1.640625 C 3.472656 -1.984375 3.515625 -2.414062 3.515625 -2.9375 C 3.515625 -3.445312 3.472656 -3.867188 3.390625 -4.203125 C 3.316406 -4.546875 3.195312 -4.804688 3.03125 -4.984375 C 2.875 -5.160156 2.664062 -5.25 2.40625 -5.25 C 2.019531 -5.25 1.738281 -5.050781 1.5625 -4.65625 C 1.382812 -4.269531 1.296875 -3.695312 1.296875 -2.9375 Z M 1.296875 -2.9375 "/></g></g><g style="fill:#2d6d5e;fill-opacity:1;"><g transform="translate(104.40368, 143.628093)"><path style="stroke:none" d="M 2.828125 -5.96875 C 3.285156 -5.96875 3.632812 -5.800781 3.875 -5.46875 C 4.113281 -5.144531 4.234375 -4.648438 4.234375 -3.984375 L 4.234375 0 L 3.40625 0 L 3.40625 -3.828125 C 3.40625 -4.296875 3.34375 -4.644531 3.21875 -4.875 C 3.101562 -5.113281 2.910156 -5.234375 2.640625 -5.234375 C 2.253906 -5.234375 1.972656 -5.0625 1.796875 -4.71875 C 1.617188 -4.382812 1.53125 -3.835938 1.53125 -3.078125 L 1.53125 0 L 0.71875 0 L 0.71875 -5.859375 L 1.375 -5.859375 L 1.46875 -5 L 1.515625 -5 C 1.597656 -5.195312 1.703125 -5.367188 1.828125 -5.515625 C 1.953125 -5.660156 2.097656 -5.769531 2.265625 -5.84375 C 2.429688 -5.925781 2.617188 -5.96875 2.828125 -5.96875 Z M 2.828125 -5.96875 "/></g></g><g style="fill:#0661aa;fill-opacity:1;"><g transform="translate(26.332721, 89.540374)"><path style="stroke:none" d="M 7.75 0.4375 C 6.300781 0.4375 5.035156 0.125 3.953125 -0.5 C 2.878906 -1.125 2.046875 -2 1.453125 -3.125 C 0.859375 -4.25 0.5625 -5.5625 0.5625 -7.0625 C 0.5625 -8.59375 0.859375 -9.914062 1.453125 -11.03125 C 2.046875 -12.144531 2.878906 -13.015625 3.953125 -13.640625 C 5.035156 -14.265625 6.300781 -14.578125 7.75 -14.578125 C 9.195312 -14.578125 10.460938 -14.265625 11.546875 -13.640625 C 12.628906 -13.015625 13.46875 -12.144531 14.0625 -11.03125 C 14.65625 -9.914062 14.953125 -8.59375 14.953125 -7.0625 C 14.953125 -5.5625 14.65625 -4.25 14.0625 -3.125 C 13.46875 -2 12.628906 -1.125 11.546875 -0.5 C 10.460938 0.125 9.195312 0.4375 7.75 0.4375 Z M 7.75 -2.484375 C 8.914062 -2.484375 9.84375 -2.894531 10.53125 -3.71875 C 11.21875 -4.550781 11.5625 -5.664062 11.5625 -7.0625 C 11.5625 -8.46875 11.21875 -9.585938 10.53125 -10.421875 C 9.84375 -11.253906 8.914062 -11.671875 7.75 -11.671875 C 6.59375 -11.671875 5.671875 -11.253906 4.984375 -10.421875 C 4.296875 -9.585938 3.953125 -8.46875 3.953125 -7.0625 C 3.953125 -5.664062 4.296875 -4.550781 4.984375 -3.71875 C 5.671875 -2.894531 6.59375 -2.484375 7.75 -2.484375 Z M 7.75 -2.484375 "/></g></g><g style="fill:#0661aa;fill-opacity:1;"><g transform="translate(44.190258, 89.540374)"><path style="stroke:none" d="M 0.09375 0 L 3.390625 -5.28125 L 0.28125 -10.171875 L 3.609375 -10.171875 L 5.375 -6.9375 L 7.15625 -10.171875 L 10.5 -10.171875 L 7.375 -5.28125 L 10.671875 0 L 7.234375 0 L 5.375 -3.421875 L 3.515625 0 Z M 0.09375 0 "/></g></g><g style="fill:#0661aa;fill-opacity:1;"><g transform="translate(57.300597, 89.540374)"><path style="stroke:none" d="M 4.421875 4.515625 C 3.472656 4.515625 2.582031 4.347656 1.75 4.015625 C 0.914062 3.679688 0.238281 3.226562 -0.28125 2.65625 L 0.90625 0.515625 C 1.289062 0.960938 1.765625 1.320312 2.328125 1.59375 C 2.890625 1.863281 3.488281 2 4.125 2 C 4.988281 2 5.664062 1.753906 6.15625 1.265625 C 6.65625 0.773438 6.90625 0.109375 6.90625 -0.734375 L 6.90625 -1.609375 L 6.890625 -1.609375 C 6.597656 -0.992188 6.191406 -0.507812 5.671875 -0.15625 C 5.160156 0.195312 4.59375 0.375 3.96875 0.375 C 2.945312 0.375 2.140625 0.0390625 1.546875 -0.625 C 0.960938 -1.300781 0.671875 -2.210938 0.671875 -3.359375 L 0.671875 -10.171875 L 3.71875 -10.171875 L 3.71875 -3.859375 C 3.71875 -3.328125 3.84375 -2.898438 4.09375 -2.578125 C 4.351562 -2.265625 4.707031 -2.109375 5.15625 -2.109375 C 5.664062 -2.109375 6.078125 -2.28125 6.390625 -2.625 C 6.710938 -2.976562 6.875 -3.441406 6.875 -4.015625 L 6.875 -10.171875 L 9.890625 -10.171875 L 9.90625 -0.53125 C 9.90625 0.507812 9.679688 1.40625 9.234375 2.15625 C 8.796875 2.914062 8.164062 3.5 7.34375 3.90625 C 6.519531 4.3125 5.546875 4.515625 4.421875 4.515625 Z M 4.421875 4.515625 "/></g></g><g style="fill:#0661aa;fill-opacity:1;"><g transform="translate(70.291768, 89.540374)"><path style="stroke:none" d="M 4.828125 4.515625 C 3.835938 4.515625 2.898438 4.347656 2.015625 4.015625 C 1.128906 3.679688 0.425781 3.226562 -0.09375 2.65625 L 1.078125 0.484375 C 1.484375 0.941406 1.992188 1.3125 2.609375 1.59375 C 3.222656 1.882812 3.847656 2.03125 4.484375 2.03125 C 5.398438 2.03125 6.128906 1.773438 6.671875 1.265625 C 7.210938 0.753906 7.484375 0.0625 7.484375 -0.8125 L 7.484375 -1.828125 L 7.46875 -1.828125 C 7.175781 -1.253906 6.75 -0.796875 6.1875 -0.453125 C 5.632812 -0.109375 5.035156 0.0625 4.390625 0.0625 C 3.597656 0.0625 2.90625 -0.148438 2.3125 -0.578125 C 1.726562 -1.003906 1.269531 -1.601562 0.9375 -2.375 C 0.613281 -3.144531 0.453125 -4.054688 0.453125 -5.109375 C 0.453125 -6.203125 0.609375 -7.148438 0.921875 -7.953125 C 1.242188 -8.753906 1.695312 -9.375 2.28125 -9.8125 C 2.863281 -10.25 3.546875 -10.46875 4.328125 -10.46875 C 5.015625 -10.46875 5.640625 -10.28125 6.203125 -9.90625 C 6.773438 -9.539062 7.203125 -9.046875 7.484375 -8.421875 L 7.5 -8.421875 L 7.859375 -10.171875 L 10.53125 -10.171875 L 10.53125 -0.78125 C 10.53125 0.320312 10.296875 1.269531 9.828125 2.0625 C 9.367188 2.851562 8.710938 3.457031 7.859375 3.875 C 7.003906 4.300781 5.992188 4.515625 4.828125 4.515625 Z M 5.5625 -2.421875 C 6.1875 -2.421875 6.679688 -2.664062 7.046875 -3.15625 C 7.421875 -3.65625 7.609375 -4.320312 7.609375 -5.15625 C 7.609375 -6 7.421875 -6.671875 7.046875 -7.171875 C 6.679688 -7.671875 6.1875 -7.921875 5.5625 -7.921875 C 4.9375 -7.921875 4.4375 -7.671875 4.0625 -7.171875 C 3.6875 -6.679688 3.5 -6.007812 3.5 -5.15625 C 3.5 -4.3125 3.6875 -3.644531 4.0625 -3.15625 C 4.4375 -2.664062 4.9375 -2.421875 5.5625 -2.421875 Z M 5.5625 -2.421875 "/></g></g><g style="fill:#0661aa;fill-opacity:1;"><g transform="translate(83.918546, 89.540374)"><path style="stroke:none" d="M 5.9375 0.34375 C 4.84375 0.34375 3.875 0.117188 3.03125 -0.328125 C 2.195312 -0.785156 1.550781 -1.425781 1.09375 -2.25 C 0.644531 -3.082031 0.421875 -4.046875 0.421875 -5.140625 C 0.421875 -6.222656 0.628906 -7.164062 1.046875 -7.96875 C 1.460938 -8.769531 2.046875 -9.394531 2.796875 -9.84375 C 3.554688 -10.300781 4.445312 -10.53125 5.46875 -10.53125 C 6.445312 -10.53125 7.289062 -10.3125 8 -9.875 C 8.71875 -9.445312 9.273438 -8.84375 9.671875 -8.0625 C 10.078125 -7.289062 10.28125 -6.382812 10.28125 -5.34375 C 10.28125 -5.132812 10.269531 -4.929688 10.25 -4.734375 C 10.238281 -4.546875 10.210938 -4.382812 10.171875 -4.25 L 3.453125 -4.25 C 3.523438 -3.507812 3.785156 -2.921875 4.234375 -2.484375 C 4.679688 -2.054688 5.253906 -1.84375 5.953125 -1.84375 C 6.492188 -1.84375 6.972656 -1.972656 7.390625 -2.234375 C 7.804688 -2.503906 8.125 -2.875 8.34375 -3.34375 L 10.46875 -2.40625 C 10.175781 -1.550781 9.613281 -0.878906 8.78125 -0.390625 C 7.945312 0.0976562 7 0.34375 5.9375 0.34375 Z M 3.453125 -5.984375 L 7.265625 -5.984375 C 7.222656 -6.722656 7.039062 -7.296875 6.71875 -7.703125 C 6.40625 -8.117188 5.976562 -8.328125 5.4375 -8.328125 C 4.875 -8.328125 4.421875 -8.113281 4.078125 -7.6875 C 3.734375 -7.269531 3.523438 -6.703125 3.453125 -5.984375 Z M 3.453125 -5.984375 "/></g></g><g style="fill:#0661aa;fill-opacity:1;"><g transform="translate(97.10834, 89.540374)"><path style="stroke:none" d="M 6.9375 -10.421875 C 7.875 -10.421875 8.613281 -10.140625 9.15625 -9.578125 C 9.695312 -9.015625 9.96875 -8.234375 9.96875 -7.234375 L 9.96875 0 L 6.9375 0 L 6.9375 -6.453125 C 6.9375 -6.929688 6.816406 -7.300781 6.578125 -7.5625 C 6.335938 -7.832031 6.003906 -7.96875 5.578125 -7.96875 C 5.035156 -7.96875 4.597656 -7.789062 4.265625 -7.4375 C 3.929688 -7.082031 3.765625 -6.597656 3.765625 -5.984375 L 3.765625 0 L 0.75 0 L 0.75 -10.171875 L 3.25 -10.171875 L 3.671875 -8.4375 L 3.6875 -8.4375 C 4 -9.070312 4.4375 -9.5625 5 -9.90625 C 5.570312 -10.25 6.21875 -10.421875 6.9375 -10.421875 Z M 6.9375 -10.421875 "/></g></g><g style="fill:#0661aa;fill-opacity:1;"><g transform="translate(35.379272, 113.385079)"><path style="stroke:none" d="M 1 0 L 1 -14.140625 L 7.484375 -14.140625 C 8.972656 -14.140625 10.125 -13.8125 10.9375 -13.15625 C 11.75 -12.5 12.15625 -11.5625 12.15625 -10.34375 C 12.15625 -9.550781 11.945312 -8.882812 11.53125 -8.34375 C 11.113281 -7.800781 10.523438 -7.4375 9.765625 -7.25 L 9.765625 -7.234375 C 10.628906 -7.054688 11.289062 -6.679688 11.75 -6.109375 C 12.21875 -5.535156 12.453125 -4.796875 12.453125 -3.890625 C 12.453125 -2.660156 12.035156 -1.703125 11.203125 -1.015625 C 10.367188 -0.335938 9.179688 0 7.640625 0 Z M 4.390625 -8.28125 L 6.9375 -8.28125 C 7.53125 -8.28125 7.988281 -8.429688 8.3125 -8.734375 C 8.632812 -9.035156 8.796875 -9.453125 8.796875 -9.984375 C 8.796875 -10.523438 8.632812 -10.941406 8.3125 -11.234375 C 7.988281 -11.523438 7.535156 -11.671875 6.953125 -11.671875 L 4.390625 -11.671875 Z M 4.390625 -2.46875 L 6.96875 -2.46875 C 7.632812 -2.46875 8.148438 -2.617188 8.515625 -2.921875 C 8.878906 -3.234375 9.0625 -3.675781 9.0625 -4.25 C 9.0625 -4.84375 8.878906 -5.300781 8.515625 -5.625 C 8.148438 -5.945312 7.632812 -6.109375 6.96875 -6.109375 L 4.390625 -6.109375 Z M 4.390625 -2.46875 "/></g></g><g style="fill:#0661aa;fill-opacity:1;"><g transform="translate(50.654649, 113.385079)"><path style="stroke:none" d="M 5.578125 0.34375 C 4.535156 0.34375 3.625 0.117188 2.84375 -0.328125 C 2.070312 -0.773438 1.472656 -1.40625 1.046875 -2.21875 C 0.628906 -3.03125 0.421875 -3.984375 0.421875 -5.078125 C 0.421875 -6.191406 0.628906 -7.15625 1.046875 -7.96875 C 1.472656 -8.78125 2.070312 -9.410156 2.84375 -9.859375 C 3.625 -10.304688 4.535156 -10.53125 5.578125 -10.53125 C 6.628906 -10.53125 7.535156 -10.304688 8.296875 -9.859375 C 9.066406 -9.410156 9.660156 -8.78125 10.078125 -7.96875 C 10.503906 -7.15625 10.71875 -6.191406 10.71875 -5.078125 C 10.71875 -3.984375 10.503906 -3.03125 10.078125 -2.21875 C 9.660156 -1.40625 9.066406 -0.773438 8.296875 -0.328125 C 7.535156 0.117188 6.628906 0.34375 5.578125 0.34375 Z M 5.578125 -2.203125 C 6.242188 -2.203125 6.765625 -2.457031 7.140625 -2.96875 C 7.515625 -3.476562 7.703125 -4.179688 7.703125 -5.078125 C 7.703125 -5.984375 7.515625 -6.691406 7.140625 -7.203125 C 6.765625 -7.710938 6.242188 -7.96875 5.578125 -7.96875 C 4.921875 -7.96875 4.398438 -7.710938 4.015625 -7.203125 C 3.628906 -6.691406 3.4375 -5.984375 3.4375 -5.078125 C 3.4375 -4.179688 3.628906 -3.476562 4.015625 -2.96875 C 4.398438 -2.457031 4.921875 -2.203125 5.578125 -2.203125 Z M 5.578125 -2.203125 "/></g></g><g style="fill:#0661aa;fill-opacity:1;"><g transform="translate(64.162247, 113.385079)"><path style="stroke:none" d="M 5.578125 0.34375 C 4.535156 0.34375 3.625 0.117188 2.84375 -0.328125 C 2.070312 -0.773438 1.472656 -1.40625 1.046875 -2.21875 C 0.628906 -3.03125 0.421875 -3.984375 0.421875 -5.078125 C 0.421875 -6.191406 0.628906 -7.15625 1.046875 -7.96875 C 1.472656 -8.78125 2.070312 -9.410156 2.84375 -9.859375 C 3.625 -10.304688 4.535156 -10.53125 5.578125 -10.53125 C 6.628906 -10.53125 7.535156 -10.304688 8.296875 -9.859375 C 9.066406 -9.410156 9.660156 -8.78125 10.078125 -7.96875 C 10.503906 -7.15625 10.71875 -6.191406 10.71875 -5.078125 C 10.71875 -3.984375 10.503906 -3.03125 10.078125 -2.21875 C 9.660156 -1.40625 9.066406 -0.773438 8.296875 -0.328125 C 7.535156 0.117188 6.628906 0.34375 5.578125 0.34375 Z M 5.578125 -2.203125 C 6.242188 -2.203125 6.765625 -2.457031 7.140625 -2.96875 C 7.515625 -3.476562 7.703125 -4.179688 7.703125 -5.078125 C 7.703125 -5.984375 7.515625 -6.691406 7.140625 -7.203125 C 6.765625 -7.710938 6.242188 -7.96875 5.578125 -7.96875 C 4.921875 -7.96875 4.398438 -7.710938 4.015625 -7.203125 C 3.628906 -6.691406 3.4375 -5.984375 3.4375 -5.078125 C 3.4375 -4.179688 3.628906 -3.476562 4.015625 -2.96875 C 4.398438 -2.457031 4.921875 -2.203125 5.578125 -2.203125 Z M 5.578125 -2.203125 "/></g></g><g style="fill:#0661aa;fill-opacity:1;"><g transform="translate(77.669845, 113.385079)"><path style="stroke:none" d="M 4.921875 0.3125 C 4.085938 0.3125 3.328125 0.1875 2.640625 -0.0625 C 1.960938 -0.320312 1.414062 -0.707031 1 -1.21875 C 0.582031 -1.738281 0.351562 -2.382812 0.3125 -3.15625 L 3 -3.5 C 3.019531 -2.925781 3.21875 -2.476562 3.59375 -2.15625 C 3.976562 -1.84375 4.457031 -1.6875 5.03125 -1.6875 C 5.488281 -1.6875 5.875 -1.785156 6.1875 -1.984375 C 6.507812 -2.179688 6.671875 -2.441406 6.671875 -2.765625 C 6.671875 -3.066406 6.53125 -3.3125 6.25 -3.5 C 5.976562 -3.695312 5.53125 -3.867188 4.90625 -4.015625 L 3.578125 -4.34375 C 2.578125 -4.582031 1.851562 -4.929688 1.40625 -5.390625 C 0.96875 -5.859375 0.75 -6.476562 0.75 -7.25 C 0.75 -8.257812 1.125 -9.050781 1.875 -9.625 C 2.625 -10.195312 3.59375 -10.484375 4.78125 -10.484375 C 5.5 -10.484375 6.15625 -10.363281 6.75 -10.125 C 7.34375 -9.882812 7.828125 -9.535156 8.203125 -9.078125 C 8.585938 -8.628906 8.8125 -8.0625 8.875 -7.375 L 6.234375 -7.046875 C 6.210938 -7.523438 6.054688 -7.890625 5.765625 -8.140625 C 5.484375 -8.390625 5.125 -8.515625 4.6875 -8.515625 C 4.300781 -8.515625 3.984375 -8.414062 3.734375 -8.21875 C 3.492188 -8.03125 3.375 -7.800781 3.375 -7.53125 C 3.375 -7.25 3.5 -7.019531 3.75 -6.84375 C 4 -6.664062 4.40625 -6.492188 4.96875 -6.328125 L 6.328125 -6 C 7.398438 -5.726562 8.1875 -5.351562 8.6875 -4.875 C 9.195312 -4.40625 9.457031 -3.785156 9.46875 -3.015625 C 9.46875 -2.328125 9.269531 -1.734375 8.875 -1.234375 C 8.488281 -0.742188 7.953125 -0.363281 7.265625 -0.09375 C 6.585938 0.175781 5.804688 0.3125 4.921875 0.3125 Z M 4.921875 0.3125 "/></g></g><g style="fill:#0661aa;fill-opacity:1;"><g transform="translate(89.806909, 113.385079)"><path style="stroke:none" d="M 5.4375 0.3125 C 4.269531 0.3125 3.375 -0.00390625 2.75 -0.640625 C 2.125 -1.273438 1.8125 -2.132812 1.8125 -3.21875 L 1.78125 -7.859375 L 0.078125 -7.859375 L 0.078125 -10.171875 L 1.8125 -10.171875 L 1.8125 -12.875 L 4.828125 -13.546875 L 4.828125 -10.171875 L 8.296875 -10.171875 L 8.296875 -7.859375 L 4.828125 -7.859375 L 4.84375 -3.75 C 4.84375 -3.25 4.960938 -2.851562 5.203125 -2.5625 C 5.441406 -2.28125 5.757812 -2.140625 6.15625 -2.140625 C 6.90625 -2.140625 7.457031 -2.554688 7.8125 -3.390625 L 8.796875 -1.546875 C 8.484375 -0.953125 8.03125 -0.492188 7.4375 -0.171875 C 6.84375 0.148438 6.175781 0.3125 5.4375 0.3125 Z M 5.4375 0.3125 "/></g></g></g></svg>