<svg xmlns="http://www.w3.org/2000/svg" xmlns:xlink="http://www.w3.org/1999/xlink" width="180" zoomAndPan="magnify" viewBox="0 0 135 161.249994" height="215" preserveAspectRatio="xMidYMid meet" version="1.0"><defs><g/><clipPath id="93c510ecf9"><path d="M 44.289062 19.566406 L 90.574219 19.566406 L 90.574219 65.851562 L 44.289062 65.851562 Z M 44.289062 19.566406 " clip-rule="nonzero"/></clipPath></defs><g fill="#2d6d5e" fill-opacity="1"><g transform="translate(16.837668, 125.369474)"><g><path d="M 2.203125 -7.8125 C 2.972656 -7.8125 3.539062 -7.625 3.90625 -7.25 C 4.269531 -6.882812 4.453125 -6.304688 4.453125 -5.515625 C 4.453125 -5.117188 4.40625 -4.765625 4.3125 -4.453125 C 4.21875 -4.148438 4.078125 -3.894531 3.890625 -3.6875 C 3.703125 -3.488281 3.460938 -3.335938 3.171875 -3.234375 C 2.890625 -3.128906 2.5625 -3.078125 2.1875 -3.078125 L 1.65625 -3.078125 L 1.65625 0 L 0.8125 0 L 0.8125 -7.8125 Z M 2.171875 -7.0625 L 1.65625 -7.0625 L 1.65625 -3.828125 L 2.109375 -3.828125 C 2.453125 -3.828125 2.734375 -3.882812 2.953125 -4 C 3.171875 -4.113281 3.328125 -4.289062 3.421875 -4.53125 C 3.523438 -4.78125 3.578125 -5.109375 3.578125 -5.515625 C 3.578125 -6.066406 3.460938 -6.460938 3.234375 -6.703125 C 3.003906 -6.941406 2.648438 -7.0625 2.171875 -7.0625 Z M 2.171875 -7.0625 "/></g></g></g><g fill="#2d6d5e" fill-opacity="1"><g transform="translate(23.157342, 125.369474)"><g><path d="M 2.28125 -5.96875 C 2.820312 -5.96875 3.207031 -5.796875 3.4375 -5.453125 C 3.675781 -5.109375 3.796875 -4.609375 3.796875 -3.953125 L 3.796875 0 L 3.171875 0 L 3.046875 -0.828125 L 3.015625 -0.828125 C 2.929688 -0.628906 2.820312 -0.457031 2.6875 -0.3125 C 2.5625 -0.175781 2.414062 -0.0703125 2.25 0 C 2.09375 0.0703125 1.90625 0.109375 1.6875 0.109375 C 1.382812 0.109375 1.132812 0.03125 0.9375 -0.125 C 0.75 -0.289062 0.609375 -0.503906 0.515625 -0.765625 C 0.421875 -1.023438 0.375 -1.304688 0.375 -1.609375 C 0.375 -2.191406 0.539062 -2.640625 0.875 -2.953125 C 1.21875 -3.273438 1.695312 -3.453125 2.3125 -3.484375 L 2.96875 -3.53125 L 2.96875 -3.9375 C 2.96875 -4.40625 2.90625 -4.742188 2.78125 -4.953125 C 2.65625 -5.171875 2.445312 -5.28125 2.15625 -5.28125 C 2 -5.28125 1.828125 -5.25 1.640625 -5.1875 C 1.460938 -5.132812 1.269531 -5.046875 1.0625 -4.921875 L 0.796875 -5.546875 C 1.015625 -5.691406 1.25 -5.796875 1.5 -5.859375 C 1.757812 -5.929688 2.019531 -5.96875 2.28125 -5.96875 Z M 2.984375 -2.921875 L 2.4375 -2.890625 C 2.03125 -2.867188 1.722656 -2.753906 1.515625 -2.546875 C 1.316406 -2.335938 1.21875 -2.035156 1.21875 -1.640625 C 1.21875 -1.265625 1.28125 -0.988281 1.40625 -0.8125 C 1.539062 -0.644531 1.722656 -0.5625 1.953125 -0.5625 C 2.285156 -0.5625 2.539062 -0.71875 2.71875 -1.03125 C 2.894531 -1.34375 2.984375 -1.773438 2.984375 -2.328125 Z M 2.984375 -2.921875 "/></g></g></g><g fill="#2d6d5e" fill-opacity="1"><g transform="translate(29.183181, 125.369474)"><g><path d="M 2.671875 -5.96875 C 2.753906 -5.96875 2.835938 -5.957031 2.921875 -5.9375 C 3.003906 -5.925781 3.085938 -5.910156 3.171875 -5.890625 L 3.046875 -5.046875 C 2.984375 -5.066406 2.914062 -5.082031 2.84375 -5.09375 C 2.769531 -5.101562 2.691406 -5.109375 2.609375 -5.109375 C 2.453125 -5.109375 2.304688 -5.054688 2.171875 -4.953125 C 2.035156 -4.847656 1.921875 -4.703125 1.828125 -4.515625 C 1.734375 -4.328125 1.660156 -4.109375 1.609375 -3.859375 C 1.554688 -3.609375 1.53125 -3.34375 1.53125 -3.0625 L 1.53125 0 L 0.71875 0 L 0.71875 -5.859375 L 1.359375 -5.859375 L 1.46875 -4.828125 L 1.515625 -4.828125 C 1.597656 -5.046875 1.691406 -5.238281 1.796875 -5.40625 C 1.910156 -5.582031 2.039062 -5.71875 2.1875 -5.8125 C 2.332031 -5.914062 2.492188 -5.96875 2.671875 -5.96875 Z M 2.671875 -5.96875 "/></g></g></g><g fill="#2d6d5e" fill-opacity="1"><g transform="translate(33.996289, 125.369474)"><g><path d="M 2.28125 -5.96875 C 2.820312 -5.96875 3.207031 -5.796875 3.4375 -5.453125 C 3.675781 -5.109375 3.796875 -4.609375 3.796875 -3.953125 L 3.796875 0 L 3.171875 0 L 3.046875 -0.828125 L 3.015625 -0.828125 C 2.929688 -0.628906 2.820312 -0.457031 2.6875 -0.3125 C 2.5625 -0.175781 2.414062 -0.0703125 2.25 0 C 2.09375 0.0703125 1.90625 0.109375 1.6875 0.109375 C 1.382812 0.109375 1.132812 0.03125 0.9375 -0.125 C 0.75 -0.289062 0.609375 -0.503906 0.515625 -0.765625 C 0.421875 -1.023438 0.375 -1.304688 0.375 -1.609375 C 0.375 -2.191406 0.539062 -2.640625 0.875 -2.953125 C 1.21875 -3.273438 1.695312 -3.453125 2.3125 -3.484375 L 2.96875 -3.53125 L 2.96875 -3.9375 C 2.96875 -4.40625 2.90625 -4.742188 2.78125 -4.953125 C 2.65625 -5.171875 2.445312 -5.28125 2.15625 -5.28125 C 2 -5.28125 1.828125 -5.25 1.640625 -5.1875 C 1.460938 -5.132812 1.269531 -5.046875 1.0625 -4.921875 L 0.796875 -5.546875 C 1.015625 -5.691406 1.25 -5.796875 1.5 -5.859375 C 1.757812 -5.929688 2.019531 -5.96875 2.28125 -5.96875 Z M 2.984375 -2.921875 L 2.4375 -2.890625 C 2.03125 -2.867188 1.722656 -2.753906 1.515625 -2.546875 C 1.316406 -2.335938 1.21875 -2.035156 1.21875 -1.640625 C 1.21875 -1.265625 1.28125 -0.988281 1.40625 -0.8125 C 1.539062 -0.644531 1.722656 -0.5625 1.953125 -0.5625 C 2.285156 -0.5625 2.539062 -0.71875 2.71875 -1.03125 C 2.894531 -1.34375 2.984375 -1.773438 2.984375 -2.328125 Z M 2.984375 -2.921875 "/></g></g></g><g fill="#2d6d5e" fill-opacity="1"><g transform="translate(40.022129, 125.369474)"><g/></g></g><g fill="#2d6d5e" fill-opacity="1"><g transform="translate(43.585109, 125.369474)"><g><path d="M 5.3125 -5.96875 C 5.78125 -5.96875 6.125 -5.800781 6.34375 -5.46875 C 6.5625 -5.132812 6.671875 -4.628906 6.671875 -3.953125 L 6.671875 0 L 5.859375 0 L 5.859375 -3.8125 C 5.859375 -4.320312 5.789062 -4.6875 5.65625 -4.90625 C 5.53125 -5.132812 5.34375 -5.25 5.09375 -5.25 C 4.738281 -5.25 4.484375 -5.078125 4.328125 -4.734375 C 4.179688 -4.398438 4.109375 -3.921875 4.109375 -3.296875 L 4.109375 0 L 3.296875 0 L 3.296875 -3.8125 C 3.296875 -4.164062 3.265625 -4.445312 3.203125 -4.65625 C 3.148438 -4.863281 3.066406 -5.015625 2.953125 -5.109375 C 2.835938 -5.203125 2.695312 -5.25 2.53125 -5.25 C 2.257812 -5.25 2.050781 -5.15625 1.90625 -4.96875 C 1.769531 -4.789062 1.671875 -4.539062 1.609375 -4.21875 C 1.554688 -3.90625 1.53125 -3.546875 1.53125 -3.140625 L 1.53125 0 L 0.71875 0 L 0.71875 -5.859375 L 1.375 -5.859375 L 1.46875 -5.03125 L 1.515625 -5.03125 C 1.585938 -5.226562 1.679688 -5.394531 1.796875 -5.53125 C 1.921875 -5.675781 2.0625 -5.785156 2.21875 -5.859375 C 2.382812 -5.929688 2.566406 -5.96875 2.765625 -5.96875 C 3.109375 -5.96875 3.375 -5.875 3.5625 -5.6875 C 3.757812 -5.507812 3.890625 -5.28125 3.953125 -5 L 4.015625 -5 C 4.148438 -5.332031 4.316406 -5.578125 4.515625 -5.734375 C 4.722656 -5.890625 4.988281 -5.96875 5.3125 -5.96875 Z M 5.3125 -5.96875 "/></g></g></g><g fill="#2d6d5e" fill-opacity="1"><g transform="translate(52.490518, 125.369474)"><g><path d="M 2.28125 -5.96875 C 2.820312 -5.96875 3.207031 -5.796875 3.4375 -5.453125 C 3.675781 -5.109375 3.796875 -4.609375 3.796875 -3.953125 L 3.796875 0 L 3.171875 0 L 3.046875 -0.828125 L 3.015625 -0.828125 C 2.929688 -0.628906 2.820312 -0.457031 2.6875 -0.3125 C 2.5625 -0.175781 2.414062 -0.0703125 2.25 0 C 2.09375 0.0703125 1.90625 0.109375 1.6875 0.109375 C 1.382812 0.109375 1.132812 0.03125 0.9375 -0.125 C 0.75 -0.289062 0.609375 -0.503906 0.515625 -0.765625 C 0.421875 -1.023438 0.375 -1.304688 0.375 -1.609375 C 0.375 -2.191406 0.539062 -2.640625 0.875 -2.953125 C 1.21875 -3.273438 1.695312 -3.453125 2.3125 -3.484375 L 2.96875 -3.53125 L 2.96875 -3.9375 C 2.96875 -4.40625 2.90625 -4.742188 2.78125 -4.953125 C 2.65625 -5.171875 2.445312 -5.28125 2.15625 -5.28125 C 2 -5.28125 1.828125 -5.25 1.640625 -5.1875 C 1.460938 -5.132812 1.269531 -5.046875 1.0625 -4.921875 L 0.796875 -5.546875 C 1.015625 -5.691406 1.25 -5.796875 1.5 -5.859375 C 1.757812 -5.929688 2.019531 -5.96875 2.28125 -5.96875 Z M 2.984375 -2.921875 L 2.4375 -2.890625 C 2.03125 -2.867188 1.722656 -2.753906 1.515625 -2.546875 C 1.316406 -2.335938 1.21875 -2.035156 1.21875 -1.640625 C 1.21875 -1.265625 1.28125 -0.988281 1.40625 -0.8125 C 1.539062 -0.644531 1.722656 -0.5625 1.953125 -0.5625 C 2.285156 -0.5625 2.539062 -0.71875 2.71875 -1.03125 C 2.894531 -1.34375 2.984375 -1.773438 2.984375 -2.328125 Z M 2.984375 -2.921875 "/></g></g></g><g fill="#2d6d5e" fill-opacity="1"><g transform="translate(58.516358, 125.369474)"><g><path d="M 1.546875 -5.859375 L 1.546875 0 L 0.71875 0 L 0.71875 -5.859375 Z M 1.140625 -8.0625 C 1.316406 -8.0625 1.441406 -8.007812 1.515625 -7.90625 C 1.585938 -7.800781 1.625 -7.648438 1.625 -7.453125 C 1.625 -7.273438 1.582031 -7.128906 1.5 -7.015625 C 1.425781 -6.910156 1.304688 -6.859375 1.140625 -6.859375 C 0.992188 -6.859375 0.875 -6.910156 0.78125 -7.015625 C 0.695312 -7.128906 0.65625 -7.273438 0.65625 -7.453125 C 0.65625 -7.648438 0.695312 -7.800781 0.78125 -7.90625 C 0.863281 -8.007812 0.984375 -8.0625 1.140625 -8.0625 Z M 1.140625 -8.0625 "/></g></g></g><g fill="#2d6d5e" fill-opacity="1"><g transform="translate(62.314404, 125.369474)"><g><path d="M 3.328125 -1.546875 C 3.328125 -1.191406 3.257812 -0.890625 3.125 -0.640625 C 3 -0.398438 2.8125 -0.210938 2.5625 -0.078125 C 2.320312 0.046875 2.03125 0.109375 1.6875 0.109375 C 1.414062 0.109375 1.164062 0.078125 0.9375 0.015625 C 0.71875 -0.046875 0.53125 -0.125 0.375 -0.21875 L 0.375 -1.078125 C 0.53125 -0.941406 0.722656 -0.832031 0.953125 -0.75 C 1.179688 -0.664062 1.414062 -0.625 1.65625 -0.625 C 1.925781 -0.625 2.132812 -0.703125 2.28125 -0.859375 C 2.4375 -1.015625 2.515625 -1.234375 2.515625 -1.515625 C 2.515625 -1.679688 2.484375 -1.828125 2.421875 -1.953125 C 2.359375 -2.078125 2.257812 -2.195312 2.125 -2.3125 C 1.988281 -2.425781 1.816406 -2.546875 1.609375 -2.671875 C 1.359375 -2.816406 1.140625 -2.96875 0.953125 -3.125 C 0.765625 -3.289062 0.617188 -3.476562 0.515625 -3.6875 C 0.421875 -3.894531 0.375 -4.144531 0.375 -4.4375 C 0.375 -4.894531 0.519531 -5.265625 0.8125 -5.546875 C 1.113281 -5.828125 1.503906 -5.96875 1.984375 -5.96875 C 2.234375 -5.96875 2.46875 -5.9375 2.6875 -5.875 C 2.90625 -5.8125 3.113281 -5.71875 3.3125 -5.59375 L 3 -4.9375 C 2.851562 -5.039062 2.691406 -5.117188 2.515625 -5.171875 C 2.347656 -5.234375 2.175781 -5.265625 2 -5.265625 C 1.738281 -5.265625 1.53125 -5.191406 1.375 -5.046875 C 1.226562 -4.898438 1.15625 -4.707031 1.15625 -4.46875 C 1.15625 -4.300781 1.1875 -4.15625 1.25 -4.03125 C 1.3125 -3.914062 1.410156 -3.800781 1.546875 -3.6875 C 1.679688 -3.582031 1.863281 -3.460938 2.09375 -3.328125 C 2.34375 -3.171875 2.554688 -3.015625 2.734375 -2.859375 C 2.921875 -2.703125 3.066406 -2.519531 3.171875 -2.3125 C 3.273438 -2.101562 3.328125 -1.847656 3.328125 -1.546875 Z M 3.328125 -1.546875 "/></g></g></g><g fill="#2d6d5e" fill-opacity="1"><g transform="translate(67.522852, 125.369474)"><g/></g></g><g fill="#2d6d5e" fill-opacity="1"><g transform="translate(71.085831, 125.369474)"><g><path d="M 2.328125 -5.953125 C 2.722656 -5.953125 3.050781 -5.835938 3.3125 -5.609375 C 3.570312 -5.378906 3.765625 -5.066406 3.890625 -4.671875 C 4.015625 -4.285156 4.078125 -3.851562 4.078125 -3.375 L 4.078125 -2.78125 L 1.28125 -2.78125 C 1.289062 -2.050781 1.40625 -1.503906 1.625 -1.140625 C 1.84375 -0.773438 2.171875 -0.59375 2.609375 -0.59375 C 2.828125 -0.59375 3.035156 -0.625 3.234375 -0.6875 C 3.441406 -0.75 3.648438 -0.851562 3.859375 -1 L 3.859375 -0.265625 C 3.660156 -0.140625 3.453125 -0.046875 3.234375 0.015625 C 3.015625 0.078125 2.78125 0.109375 2.53125 0.109375 C 2.039062 0.109375 1.644531 -0.0195312 1.34375 -0.28125 C 1.039062 -0.539062 0.816406 -0.898438 0.671875 -1.359375 C 0.535156 -1.816406 0.46875 -2.332031 0.46875 -2.90625 C 0.46875 -3.550781 0.535156 -4.101562 0.671875 -4.5625 C 0.816406 -5.019531 1.023438 -5.363281 1.296875 -5.59375 C 1.578125 -5.832031 1.921875 -5.953125 2.328125 -5.953125 Z M 2.328125 -5.28125 C 2.015625 -5.28125 1.769531 -5.128906 1.59375 -4.828125 C 1.425781 -4.535156 1.328125 -4.070312 1.296875 -3.4375 L 3.3125 -3.4375 C 3.3125 -3.769531 3.273438 -4.078125 3.203125 -4.359375 C 3.140625 -4.640625 3.035156 -4.863281 2.890625 -5.03125 C 2.742188 -5.195312 2.554688 -5.28125 2.328125 -5.28125 Z M 2.328125 -5.28125 "/></g></g></g><g fill="#2d6d5e" fill-opacity="1"><g transform="translate(77.143726, 125.369474)"><g><path d="M 2.828125 -5.96875 C 3.285156 -5.96875 3.632812 -5.804688 3.875 -5.484375 C 4.113281 -5.160156 4.234375 -4.664062 4.234375 -4 L 4.234375 0 L 3.40625 0 L 3.40625 -3.828125 C 3.40625 -4.304688 3.34375 -4.660156 3.21875 -4.890625 C 3.101562 -5.128906 2.914062 -5.25 2.65625 -5.25 C 2.269531 -5.25 1.984375 -5.078125 1.796875 -4.734375 C 1.617188 -4.390625 1.53125 -3.84375 1.53125 -3.09375 L 1.53125 0 L 0.71875 0 L 0.71875 -5.859375 L 1.375 -5.859375 L 1.46875 -5.015625 L 1.515625 -5.015625 C 1.597656 -5.210938 1.703125 -5.378906 1.828125 -5.515625 C 1.960938 -5.660156 2.113281 -5.769531 2.28125 -5.84375 C 2.445312 -5.925781 2.628906 -5.96875 2.828125 -5.96875 Z M 2.828125 -5.96875 "/></g></g></g><g fill="#2d6d5e" fill-opacity="1"><g transform="translate(83.607645, 125.369474)"><g><path d="M 2.328125 -5.953125 C 2.722656 -5.953125 3.050781 -5.835938 3.3125 -5.609375 C 3.570312 -5.378906 3.765625 -5.066406 3.890625 -4.671875 C 4.015625 -4.285156 4.078125 -3.851562 4.078125 -3.375 L 4.078125 -2.78125 L 1.28125 -2.78125 C 1.289062 -2.050781 1.40625 -1.503906 1.625 -1.140625 C 1.84375 -0.773438 2.171875 -0.59375 2.609375 -0.59375 C 2.828125 -0.59375 3.035156 -0.625 3.234375 -0.6875 C 3.441406 -0.75 3.648438 -0.851562 3.859375 -1 L 3.859375 -0.265625 C 3.660156 -0.140625 3.453125 -0.046875 3.234375 0.015625 C 3.015625 0.078125 2.78125 0.109375 2.53125 0.109375 C 2.039062 0.109375 1.644531 -0.0195312 1.34375 -0.28125 C 1.039062 -0.539062 0.816406 -0.898438 0.671875 -1.359375 C 0.535156 -1.816406 0.46875 -2.332031 0.46875 -2.90625 C 0.46875 -3.550781 0.535156 -4.101562 0.671875 -4.5625 C 0.816406 -5.019531 1.023438 -5.363281 1.296875 -5.59375 C 1.578125 -5.832031 1.921875 -5.953125 2.328125 -5.953125 Z M 2.328125 -5.28125 C 2.015625 -5.28125 1.769531 -5.128906 1.59375 -4.828125 C 1.425781 -4.535156 1.328125 -4.070312 1.296875 -3.4375 L 3.3125 -3.4375 C 3.3125 -3.769531 3.273438 -4.078125 3.203125 -4.359375 C 3.140625 -4.640625 3.035156 -4.863281 2.890625 -5.03125 C 2.742188 -5.195312 2.554688 -5.28125 2.328125 -5.28125 Z M 2.328125 -5.28125 "/></g></g></g><g fill="#2d6d5e" fill-opacity="1"><g transform="translate(89.665539, 125.369474)"><g><path d="M 2.671875 -5.96875 C 2.753906 -5.96875 2.835938 -5.957031 2.921875 -5.9375 C 3.003906 -5.925781 3.085938 -5.910156 3.171875 -5.890625 L 3.046875 -5.046875 C 2.984375 -5.066406 2.914062 -5.082031 2.84375 -5.09375 C 2.769531 -5.101562 2.691406 -5.109375 2.609375 -5.109375 C 2.453125 -5.109375 2.304688 -5.054688 2.171875 -4.953125 C 2.035156 -4.847656 1.921875 -4.703125 1.828125 -4.515625 C 1.734375 -4.328125 1.660156 -4.109375 1.609375 -3.859375 C 1.554688 -3.609375 1.53125 -3.34375 1.53125 -3.0625 L 1.53125 0 L 0.71875 0 L 0.71875 -5.859375 L 1.359375 -5.859375 L 1.46875 -4.828125 L 1.515625 -4.828125 C 1.597656 -5.046875 1.691406 -5.238281 1.796875 -5.40625 C 1.910156 -5.582031 2.039062 -5.71875 2.1875 -5.8125 C 2.332031 -5.914062 2.492188 -5.96875 2.671875 -5.96875 Z M 2.671875 -5.96875 "/></g></g></g><g fill="#2d6d5e" fill-opacity="1"><g transform="translate(94.478647, 125.369474)"><g><path d="M 1.875 2.625 C 1.3125 2.625 0.867188 2.476562 0.546875 2.1875 C 0.234375 1.90625 0.078125 1.507812 0.078125 1 C 0.078125 0.601562 0.171875 0.273438 0.359375 0.015625 C 0.554688 -0.242188 0.804688 -0.414062 1.109375 -0.5 C 0.953125 -0.570312 0.828125 -0.675781 0.734375 -0.8125 C 0.640625 -0.957031 0.59375 -1.128906 0.59375 -1.328125 C 0.59375 -1.523438 0.640625 -1.703125 0.734375 -1.859375 C 0.828125 -2.023438 0.960938 -2.1875 1.140625 -2.34375 C 0.910156 -2.476562 0.726562 -2.691406 0.59375 -2.984375 C 0.46875 -3.285156 0.40625 -3.628906 0.40625 -4.015625 C 0.40625 -4.421875 0.46875 -4.765625 0.59375 -5.046875 C 0.726562 -5.335938 0.914062 -5.5625 1.15625 -5.71875 C 1.40625 -5.882812 1.703125 -5.96875 2.046875 -5.96875 C 2.148438 -5.96875 2.242188 -5.960938 2.328125 -5.953125 C 2.410156 -5.941406 2.484375 -5.925781 2.546875 -5.90625 C 2.609375 -5.894531 2.664062 -5.875 2.71875 -5.84375 L 4.171875 -5.84375 L 4.171875 -5.3125 L 3.375 -5.21875 C 3.476562 -5.0625 3.550781 -4.878906 3.59375 -4.671875 C 3.644531 -4.472656 3.671875 -4.265625 3.671875 -4.046875 C 3.671875 -3.453125 3.523438 -2.984375 3.234375 -2.640625 C 2.953125 -2.296875 2.550781 -2.125 2.03125 -2.125 C 1.875 -2.125 1.75 -2.140625 1.65625 -2.171875 C 1.550781 -2.078125 1.460938 -1.972656 1.390625 -1.859375 C 1.316406 -1.742188 1.28125 -1.601562 1.28125 -1.4375 C 1.28125 -1.332031 1.304688 -1.238281 1.359375 -1.15625 C 1.410156 -1.082031 1.476562 -1.023438 1.5625 -0.984375 C 1.65625 -0.941406 1.769531 -0.921875 1.90625 -0.921875 L 2.75 -0.921875 C 3.1875 -0.921875 3.523438 -0.796875 3.765625 -0.546875 C 4.003906 -0.296875 4.125 0.0859375 4.125 0.609375 C 4.125 1.242188 3.929688 1.738281 3.546875 2.09375 C 3.160156 2.445312 2.601562 2.625 1.875 2.625 Z M 1.9375 1.96875 C 2.25 1.96875 2.507812 1.921875 2.71875 1.828125 C 2.925781 1.734375 3.082031 1.585938 3.1875 1.390625 C 3.289062 1.203125 3.34375 0.96875 3.34375 0.6875 C 3.34375 0.457031 3.304688 0.28125 3.234375 0.15625 C 3.160156 0.03125 3.054688 -0.0507812 2.921875 -0.09375 C 2.785156 -0.144531 2.625 -0.171875 2.4375 -0.171875 L 1.734375 -0.171875 C 1.566406 -0.171875 1.414062 -0.132812 1.28125 -0.0625 C 1.15625 0.0078125 1.050781 0.125 0.96875 0.28125 C 0.894531 0.445312 0.859375 0.660156 0.859375 0.921875 C 0.859375 1.273438 0.953125 1.535156 1.140625 1.703125 C 1.335938 1.878906 1.601562 1.96875 1.9375 1.96875 Z M 2.046875 -2.734375 C 2.296875 -2.734375 2.488281 -2.84375 2.625 -3.0625 C 2.769531 -3.28125 2.84375 -3.601562 2.84375 -4.03125 C 2.84375 -4.476562 2.769531 -4.8125 2.625 -5.03125 C 2.476562 -5.257812 2.28125 -5.375 2.03125 -5.375 C 1.78125 -5.375 1.582031 -5.253906 1.4375 -5.015625 C 1.300781 -4.773438 1.234375 -4.441406 1.234375 -4.015625 C 1.234375 -3.609375 1.300781 -3.289062 1.4375 -3.0625 C 1.570312 -2.84375 1.773438 -2.734375 2.046875 -2.734375 Z M 2.046875 -2.734375 "/></g></g></g><g fill="#2d6d5e" fill-opacity="1"><g transform="translate(100.232023, 125.369474)"><g><path d="M 1.546875 -5.859375 L 1.546875 0 L 0.71875 0 L 0.71875 -5.859375 Z M 1.140625 -8.0625 C 1.316406 -8.0625 1.441406 -8.007812 1.515625 -7.90625 C 1.585938 -7.800781 1.625 -7.648438 1.625 -7.453125 C 1.625 -7.273438 1.582031 -7.128906 1.5 -7.015625 C 1.425781 -6.910156 1.304688 -6.859375 1.140625 -6.859375 C 0.992188 -6.859375 0.875 -6.910156 0.78125 -7.015625 C 0.695312 -7.128906 0.65625 -7.273438 0.65625 -7.453125 C 0.65625 -7.648438 0.695312 -7.800781 0.78125 -7.90625 C 0.863281 -8.007812 0.984375 -8.0625 1.140625 -8.0625 Z M 1.140625 -8.0625 "/></g></g></g><g fill="#2d6d5e" fill-opacity="1"><g transform="translate(104.030069, 125.369474)"><g><path d="M 2.28125 -5.96875 C 2.820312 -5.96875 3.207031 -5.796875 3.4375 -5.453125 C 3.675781 -5.109375 3.796875 -4.609375 3.796875 -3.953125 L 3.796875 0 L 3.171875 0 L 3.046875 -0.828125 L 3.015625 -0.828125 C 2.929688 -0.628906 2.820312 -0.457031 2.6875 -0.3125 C 2.5625 -0.175781 2.414062 -0.0703125 2.25 0 C 2.09375 0.0703125 1.90625 0.109375 1.6875 0.109375 C 1.382812 0.109375 1.132812 0.03125 0.9375 -0.125 C 0.75 -0.289062 0.609375 -0.503906 0.515625 -0.765625 C 0.421875 -1.023438 0.375 -1.304688 0.375 -1.609375 C 0.375 -2.191406 0.539062 -2.640625 0.875 -2.953125 C 1.21875 -3.273438 1.695312 -3.453125 2.3125 -3.484375 L 2.96875 -3.53125 L 2.96875 -3.9375 C 2.96875 -4.40625 2.90625 -4.742188 2.78125 -4.953125 C 2.65625 -5.171875 2.445312 -5.28125 2.15625 -5.28125 C 2 -5.28125 1.828125 -5.25 1.640625 -5.1875 C 1.460938 -5.132812 1.269531 -5.046875 1.0625 -4.921875 L 0.796875 -5.546875 C 1.015625 -5.691406 1.25 -5.796875 1.5 -5.859375 C 1.757812 -5.929688 2.019531 -5.96875 2.28125 -5.96875 Z M 2.984375 -2.921875 L 2.4375 -2.890625 C 2.03125 -2.867188 1.722656 -2.753906 1.515625 -2.546875 C 1.316406 -2.335938 1.21875 -2.035156 1.21875 -1.640625 C 1.21875 -1.265625 1.28125 -0.988281 1.40625 -0.8125 C 1.539062 -0.644531 1.722656 -0.5625 1.953125 -0.5625 C 2.285156 -0.5625 2.539062 -0.71875 2.71875 -1.03125 C 2.894531 -1.34375 2.984375 -1.773438 2.984375 -2.328125 Z M 2.984375 -2.921875 "/></g></g></g><g fill="#2d6d5e" fill-opacity="1"><g transform="translate(110.055909, 125.369474)"><g/></g></g><g fill="#2d6d5e" fill-opacity="1"><g transform="translate(113.618888, 125.369474)"><g><path d="M 2.328125 -5.953125 C 2.722656 -5.953125 3.050781 -5.835938 3.3125 -5.609375 C 3.570312 -5.378906 3.765625 -5.066406 3.890625 -4.671875 C 4.015625 -4.285156 4.078125 -3.851562 4.078125 -3.375 L 4.078125 -2.78125 L 1.28125 -2.78125 C 1.289062 -2.050781 1.40625 -1.503906 1.625 -1.140625 C 1.84375 -0.773438 2.171875 -0.59375 2.609375 -0.59375 C 2.828125 -0.59375 3.035156 -0.625 3.234375 -0.6875 C 3.441406 -0.75 3.648438 -0.851562 3.859375 -1 L 3.859375 -0.265625 C 3.660156 -0.140625 3.453125 -0.046875 3.234375 0.015625 C 3.015625 0.078125 2.78125 0.109375 2.53125 0.109375 C 2.039062 0.109375 1.644531 -0.0195312 1.34375 -0.28125 C 1.039062 -0.539062 0.816406 -0.898438 0.671875 -1.359375 C 0.535156 -1.816406 0.46875 -2.332031 0.46875 -2.90625 C 0.46875 -3.550781 0.535156 -4.101562 0.671875 -4.5625 C 0.816406 -5.019531 1.023438 -5.363281 1.296875 -5.59375 C 1.578125 -5.832031 1.921875 -5.953125 2.328125 -5.953125 Z M 2.328125 -5.28125 C 2.015625 -5.28125 1.769531 -5.128906 1.59375 -4.828125 C 1.425781 -4.535156 1.328125 -4.070312 1.296875 -3.4375 L 3.3125 -3.4375 C 3.3125 -3.769531 3.273438 -4.078125 3.203125 -4.359375 C 3.140625 -4.640625 3.035156 -4.863281 2.890625 -5.03125 C 2.742188 -5.195312 2.554688 -5.28125 2.328125 -5.28125 Z M 2.328125 -5.28125 "/></g></g></g><g fill="#2d6d5e" fill-opacity="1"><g transform="translate(49.87152, 138.060445)"><g><path d="M 2.40625 0.109375 C 1.976562 0.109375 1.617188 0 1.328125 -0.21875 C 1.046875 -0.445312 0.832031 -0.785156 0.6875 -1.234375 C 0.539062 -1.679688 0.46875 -2.234375 0.46875 -2.890625 C 0.46875 -3.535156 0.539062 -4.085938 0.6875 -4.546875 C 0.832031 -5.003906 1.050781 -5.351562 1.34375 -5.59375 C 1.632812 -5.84375 2 -5.96875 2.4375 -5.96875 C 2.65625 -5.96875 2.851562 -5.941406 3.03125 -5.890625 C 3.207031 -5.847656 3.375 -5.785156 3.53125 -5.703125 L 3.265625 -5.03125 C 3.140625 -5.09375 3.007812 -5.140625 2.875 -5.171875 C 2.75 -5.210938 2.625 -5.234375 2.5 -5.234375 C 2.238281 -5.234375 2.019531 -5.144531 1.84375 -4.96875 C 1.675781 -4.789062 1.546875 -4.53125 1.453125 -4.1875 C 1.359375 -3.84375 1.3125 -3.414062 1.3125 -2.90625 C 1.3125 -2.394531 1.351562 -1.96875 1.4375 -1.625 C 1.53125 -1.289062 1.664062 -1.035156 1.84375 -0.859375 C 2.019531 -0.691406 2.238281 -0.609375 2.5 -0.609375 C 2.65625 -0.609375 2.8125 -0.628906 2.96875 -0.671875 C 3.132812 -0.722656 3.300781 -0.789062 3.46875 -0.875 L 3.46875 -0.1875 C 3.3125 -0.09375 3.132812 -0.0195312 2.9375 0.03125 C 2.75 0.0820312 2.570312 0.109375 2.40625 0.109375 Z M 2.40625 0.109375 "/></g></g></g><g fill="#2d6d5e" fill-opacity="1"><g transform="translate(55.160104, 138.060445)"><g><path d="M 1.53125 0 L 0.71875 0 L 0.71875 -8.3125 L 1.53125 -8.3125 Z M 1.53125 0 "/></g></g></g><g fill="#2d6d5e" fill-opacity="1"><g transform="translate(58.936781, 138.060445)"><g><path d="M 2.28125 -5.96875 C 2.820312 -5.96875 3.207031 -5.796875 3.4375 -5.453125 C 3.675781 -5.109375 3.796875 -4.609375 3.796875 -3.953125 L 3.796875 0 L 3.171875 0 L 3.046875 -0.828125 L 3.015625 -0.828125 C 2.929688 -0.628906 2.820312 -0.457031 2.6875 -0.3125 C 2.5625 -0.175781 2.414062 -0.0703125 2.25 0 C 2.09375 0.0703125 1.90625 0.109375 1.6875 0.109375 C 1.382812 0.109375 1.132812 0.03125 0.9375 -0.125 C 0.75 -0.289062 0.609375 -0.503906 0.515625 -0.765625 C 0.421875 -1.023438 0.375 -1.304688 0.375 -1.609375 C 0.375 -2.191406 0.539062 -2.640625 0.875 -2.953125 C 1.21875 -3.273438 1.695312 -3.453125 2.3125 -3.484375 L 2.96875 -3.53125 L 2.96875 -3.9375 C 2.96875 -4.40625 2.90625 -4.742188 2.78125 -4.953125 C 2.65625 -5.171875 2.445312 -5.28125 2.15625 -5.28125 C 2 -5.28125 1.828125 -5.25 1.640625 -5.1875 C 1.460938 -5.132812 1.269531 -5.046875 1.0625 -4.921875 L 0.796875 -5.546875 C 1.015625 -5.691406 1.25 -5.796875 1.5 -5.859375 C 1.757812 -5.929688 2.019531 -5.96875 2.28125 -5.96875 Z M 2.984375 -2.921875 L 2.4375 -2.890625 C 2.03125 -2.867188 1.722656 -2.753906 1.515625 -2.546875 C 1.316406 -2.335938 1.21875 -2.035156 1.21875 -1.640625 C 1.21875 -1.265625 1.28125 -0.988281 1.40625 -0.8125 C 1.539062 -0.644531 1.722656 -0.5625 1.953125 -0.5625 C 2.285156 -0.5625 2.539062 -0.71875 2.71875 -1.03125 C 2.894531 -1.34375 2.984375 -1.773438 2.984375 -2.328125 Z M 2.984375 -2.921875 "/></g></g></g><g fill="#2d6d5e" fill-opacity="1"><g transform="translate(64.96262, 138.060445)"><g><path d="M 2.671875 -5.96875 C 2.753906 -5.96875 2.835938 -5.957031 2.921875 -5.9375 C 3.003906 -5.925781 3.085938 -5.910156 3.171875 -5.890625 L 3.046875 -5.046875 C 2.984375 -5.066406 2.914062 -5.082031 2.84375 -5.09375 C 2.769531 -5.101562 2.691406 -5.109375 2.609375 -5.109375 C 2.453125 -5.109375 2.304688 -5.054688 2.171875 -4.953125 C 2.035156 -4.847656 1.921875 -4.703125 1.828125 -4.515625 C 1.734375 -4.328125 1.660156 -4.109375 1.609375 -3.859375 C 1.554688 -3.609375 1.53125 -3.34375 1.53125 -3.0625 L 1.53125 0 L 0.71875 0 L 0.71875 -5.859375 L 1.359375 -5.859375 L 1.46875 -4.828125 L 1.515625 -4.828125 C 1.597656 -5.046875 1.691406 -5.238281 1.796875 -5.40625 C 1.910156 -5.582031 2.039062 -5.71875 2.1875 -5.8125 C 2.332031 -5.914062 2.492188 -5.96875 2.671875 -5.96875 Z M 2.671875 -5.96875 "/></g></g></g><g fill="#2d6d5e" fill-opacity="1"><g transform="translate(69.775729, 138.060445)"><g><path d="M 2.328125 -5.953125 C 2.722656 -5.953125 3.050781 -5.835938 3.3125 -5.609375 C 3.570312 -5.378906 3.765625 -5.066406 3.890625 -4.671875 C 4.015625 -4.285156 4.078125 -3.851562 4.078125 -3.375 L 4.078125 -2.78125 L 1.28125 -2.78125 C 1.289062 -2.050781 1.40625 -1.503906 1.625 -1.140625 C 1.84375 -0.773438 2.171875 -0.59375 2.609375 -0.59375 C 2.828125 -0.59375 3.035156 -0.625 3.234375 -0.6875 C 3.441406 -0.75 3.648438 -0.851562 3.859375 -1 L 3.859375 -0.265625 C 3.660156 -0.140625 3.453125 -0.046875 3.234375 0.015625 C 3.015625 0.078125 2.78125 0.109375 2.53125 0.109375 C 2.039062 0.109375 1.644531 -0.0195312 1.34375 -0.28125 C 1.039062 -0.539062 0.816406 -0.898438 0.671875 -1.359375 C 0.535156 -1.816406 0.46875 -2.332031 0.46875 -2.90625 C 0.46875 -3.550781 0.535156 -4.101562 0.671875 -4.5625 C 0.816406 -5.019531 1.023438 -5.363281 1.296875 -5.59375 C 1.578125 -5.832031 1.921875 -5.953125 2.328125 -5.953125 Z M 2.328125 -5.28125 C 2.015625 -5.28125 1.769531 -5.128906 1.59375 -4.828125 C 1.425781 -4.535156 1.328125 -4.070312 1.296875 -3.4375 L 3.3125 -3.4375 C 3.3125 -3.769531 3.273438 -4.078125 3.203125 -4.359375 C 3.140625 -4.640625 3.035156 -4.863281 2.890625 -5.03125 C 2.742188 -5.195312 2.554688 -5.28125 2.328125 -5.28125 Z M 2.328125 -5.28125 "/></g></g></g><g fill="#2d6d5e" fill-opacity="1"><g transform="translate(75.833623, 138.060445)"><g><path d="M 3.03125 0 L 0.28125 0 L 0.28125 -0.5625 L 2.0625 -5.15625 L 0.390625 -5.15625 L 0.390625 -5.859375 L 2.953125 -5.859375 L 2.953125 -5.265625 L 1.1875 -0.703125 L 3.03125 -0.703125 Z M 3.03125 0 "/></g></g></g><g fill="#2d6d5e" fill-opacity="1"><g transform="translate(80.630704, 138.060445)"><g><path d="M 2.28125 -5.96875 C 2.820312 -5.96875 3.207031 -5.796875 3.4375 -5.453125 C 3.675781 -5.109375 3.796875 -4.609375 3.796875 -3.953125 L 3.796875 0 L 3.171875 0 L 3.046875 -0.828125 L 3.015625 -0.828125 C 2.929688 -0.628906 2.820312 -0.457031 2.6875 -0.3125 C 2.5625 -0.175781 2.414062 -0.0703125 2.25 0 C 2.09375 0.0703125 1.90625 0.109375 1.6875 0.109375 C 1.382812 0.109375 1.132812 0.03125 0.9375 -0.125 C 0.75 -0.289062 0.609375 -0.503906 0.515625 -0.765625 C 0.421875 -1.023438 0.375 -1.304688 0.375 -1.609375 C 0.375 -2.191406 0.539062 -2.640625 0.875 -2.953125 C 1.21875 -3.273438 1.695312 -3.453125 2.3125 -3.484375 L 2.96875 -3.53125 L 2.96875 -3.9375 C 2.96875 -4.40625 2.90625 -4.742188 2.78125 -4.953125 C 2.65625 -5.171875 2.445312 -5.28125 2.15625 -5.28125 C 2 -5.28125 1.828125 -5.25 1.640625 -5.1875 C 1.460938 -5.132812 1.269531 -5.046875 1.0625 -4.921875 L 0.796875 -5.546875 C 1.015625 -5.691406 1.25 -5.796875 1.5 -5.859375 C 1.757812 -5.929688 2.019531 -5.96875 2.28125 -5.96875 Z M 2.984375 -2.921875 L 2.4375 -2.890625 C 2.03125 -2.867188 1.722656 -2.753906 1.515625 -2.546875 C 1.316406 -2.335938 1.21875 -2.035156 1.21875 -1.640625 C 1.21875 -1.265625 1.28125 -0.988281 1.40625 -0.8125 C 1.539062 -0.644531 1.722656 -0.5625 1.953125 -0.5625 C 2.285156 -0.5625 2.539062 -0.71875 2.71875 -1.03125 C 2.894531 -1.34375 2.984375 -1.773438 2.984375 -2.328125 Z M 2.984375 -2.921875 "/></g></g></g><g fill="#0661aa" fill-opacity="1"><g transform="translate(24.220337, 84.638864)"><g><path d="M 0.890625 0 L 0.890625 -12.765625 L 6.75 -12.765625 C 8.09375 -12.765625 9.128906 -12.46875 9.859375 -11.875 C 10.597656 -11.28125 10.96875 -10.4375 10.96875 -9.34375 C 10.96875 -8.625 10.78125 -8.019531 10.40625 -7.53125 C 10.03125 -7.039062 9.5 -6.710938 8.8125 -6.546875 L 8.8125 -6.53125 C 9.59375 -6.375 10.191406 -6.035156 10.609375 -5.515625 C 11.023438 -4.992188 11.234375 -4.328125 11.234375 -3.515625 C 11.234375 -2.398438 10.859375 -1.535156 10.109375 -0.921875 C 9.359375 -0.304688 8.289062 0 6.90625 0 Z M 3.953125 -7.46875 L 6.25 -7.46875 C 6.789062 -7.46875 7.207031 -7.601562 7.5 -7.875 C 7.789062 -8.15625 7.9375 -8.535156 7.9375 -9.015625 C 7.9375 -9.503906 7.789062 -9.878906 7.5 -10.140625 C 7.207031 -10.398438 6.796875 -10.53125 6.265625 -10.53125 L 3.953125 -10.53125 Z M 3.953125 -2.21875 L 6.296875 -2.21875 C 6.890625 -2.21875 7.347656 -2.359375 7.671875 -2.640625 C 8.003906 -2.921875 8.171875 -3.316406 8.171875 -3.828125 C 8.171875 -4.367188 8.003906 -4.785156 7.671875 -5.078125 C 7.347656 -5.367188 6.890625 -5.515625 6.296875 -5.515625 L 3.953125 -5.515625 Z M 3.953125 -2.21875 "/></g></g></g><g fill="#0661aa" fill-opacity="1"><g transform="translate(37.998214, 84.638864)"><g><path d="M 5.03125 0.296875 C 4.09375 0.296875 3.269531 0.0976562 2.5625 -0.296875 C 1.863281 -0.691406 1.320312 -1.253906 0.9375 -1.984375 C 0.5625 -2.722656 0.375 -3.59375 0.375 -4.59375 C 0.375 -5.59375 0.5625 -6.457031 0.9375 -7.1875 C 1.320312 -7.925781 1.863281 -8.492188 2.5625 -8.890625 C 3.269531 -9.296875 4.09375 -9.5 5.03125 -9.5 C 5.976562 -9.5 6.796875 -9.296875 7.484375 -8.890625 C 8.179688 -8.492188 8.71875 -7.925781 9.09375 -7.1875 C 9.476562 -6.457031 9.671875 -5.59375 9.671875 -4.59375 C 9.671875 -3.59375 9.476562 -2.722656 9.09375 -1.984375 C 8.71875 -1.253906 8.179688 -0.691406 7.484375 -0.296875 C 6.796875 0.0976562 5.976562 0.296875 5.03125 0.296875 Z M 5.03125 -1.984375 C 5.632812 -1.984375 6.101562 -2.210938 6.4375 -2.671875 C 6.78125 -3.140625 6.953125 -3.78125 6.953125 -4.59375 C 6.953125 -5.40625 6.78125 -6.039062 6.4375 -6.5 C 6.101562 -6.957031 5.632812 -7.1875 5.03125 -7.1875 C 4.4375 -7.1875 3.960938 -6.957031 3.609375 -6.5 C 3.265625 -6.039062 3.09375 -5.40625 3.09375 -4.59375 C 3.09375 -3.78125 3.265625 -3.140625 3.609375 -2.671875 C 3.960938 -2.210938 4.4375 -1.984375 5.03125 -1.984375 Z M 5.03125 -1.984375 "/></g></g></g><g fill="#0661aa" fill-opacity="1"><g transform="translate(50.199436, 84.638864)"><g><path d="M 5.03125 0.296875 C 4.09375 0.296875 3.269531 0.0976562 2.5625 -0.296875 C 1.863281 -0.691406 1.320312 -1.253906 0.9375 -1.984375 C 0.5625 -2.722656 0.375 -3.59375 0.375 -4.59375 C 0.375 -5.59375 0.5625 -6.457031 0.9375 -7.1875 C 1.320312 -7.925781 1.863281 -8.492188 2.5625 -8.890625 C 3.269531 -9.296875 4.09375 -9.5 5.03125 -9.5 C 5.976562 -9.5 6.796875 -9.296875 7.484375 -8.890625 C 8.179688 -8.492188 8.71875 -7.925781 9.09375 -7.1875 C 9.476562 -6.457031 9.671875 -5.59375 9.671875 -4.59375 C 9.671875 -3.59375 9.476562 -2.722656 9.09375 -1.984375 C 8.71875 -1.253906 8.179688 -0.691406 7.484375 -0.296875 C 6.796875 0.0976562 5.976562 0.296875 5.03125 0.296875 Z M 5.03125 -1.984375 C 5.632812 -1.984375 6.101562 -2.210938 6.4375 -2.671875 C 6.78125 -3.140625 6.953125 -3.78125 6.953125 -4.59375 C 6.953125 -5.40625 6.78125 -6.039062 6.4375 -6.5 C 6.101562 -6.957031 5.632812 -7.1875 5.03125 -7.1875 C 4.4375 -7.1875 3.960938 -6.957031 3.609375 -6.5 C 3.265625 -6.039062 3.09375 -5.40625 3.09375 -4.59375 C 3.09375 -3.78125 3.265625 -3.140625 3.609375 -2.671875 C 3.960938 -2.210938 4.4375 -1.984375 5.03125 -1.984375 Z M 5.03125 -1.984375 "/></g></g></g><g fill="#0661aa" fill-opacity="1"><g transform="translate(62.382739, 84.638864)"><g><path d="M 4.4375 0.28125 C 3.6875 0.28125 3.003906 0.164062 2.390625 -0.0625 C 1.773438 -0.289062 1.28125 -0.640625 0.90625 -1.109375 C 0.53125 -1.578125 0.320312 -2.15625 0.28125 -2.84375 L 2.703125 -3.15625 C 2.722656 -2.644531 2.90625 -2.242188 3.25 -1.953125 C 3.59375 -1.660156 4.019531 -1.515625 4.53125 -1.515625 C 4.945312 -1.515625 5.296875 -1.601562 5.578125 -1.78125 C 5.867188 -1.96875 6.015625 -2.203125 6.015625 -2.484375 C 6.015625 -2.765625 5.890625 -2.988281 5.640625 -3.15625 C 5.390625 -3.332031 4.984375 -3.488281 4.421875 -3.625 L 3.21875 -3.921875 C 2.320312 -4.140625 1.675781 -4.457031 1.28125 -4.875 C 0.882812 -5.289062 0.6875 -5.847656 0.6875 -6.546875 C 0.6875 -7.453125 1.019531 -8.164062 1.6875 -8.6875 C 2.363281 -9.207031 3.238281 -9.46875 4.3125 -9.46875 C 4.957031 -9.46875 5.550781 -9.359375 6.09375 -9.140625 C 6.632812 -8.921875 7.070312 -8.601562 7.40625 -8.1875 C 7.75 -7.78125 7.953125 -7.269531 8.015625 -6.65625 L 5.625 -6.359375 C 5.601562 -6.785156 5.460938 -7.113281 5.203125 -7.34375 C 4.953125 -7.570312 4.628906 -7.6875 4.234375 -7.6875 C 3.878906 -7.6875 3.59375 -7.597656 3.375 -7.421875 C 3.15625 -7.253906 3.046875 -7.046875 3.046875 -6.796875 C 3.046875 -6.546875 3.160156 -6.335938 3.390625 -6.171875 C 3.617188 -6.015625 3.984375 -5.863281 4.484375 -5.71875 L 5.71875 -5.40625 C 6.6875 -5.164062 7.394531 -4.832031 7.84375 -4.40625 C 8.300781 -3.976562 8.535156 -3.414062 8.546875 -2.71875 C 8.546875 -2.101562 8.367188 -1.570312 8.015625 -1.125 C 7.660156 -0.675781 7.175781 -0.328125 6.5625 -0.078125 C 5.945312 0.160156 5.238281 0.28125 4.4375 0.28125 Z M 4.4375 0.28125 "/></g></g></g><g fill="#0661aa" fill-opacity="1"><g transform="translate(73.06105, 84.638864)"><g><path d="M 4.90625 0.28125 C 3.851562 0.28125 3.039062 -0.00390625 2.46875 -0.578125 C 1.90625 -1.148438 1.625 -1.925781 1.625 -2.90625 L 1.609375 -7.09375 L 0.078125 -7.09375 L 0.078125 -9.171875 L 1.625 -9.171875 L 1.625 -11.609375 L 4.359375 -12.21875 L 4.359375 -9.171875 L 7.484375 -9.171875 L 7.484375 -7.09375 L 4.359375 -7.09375 L 4.375 -3.390625 C 4.375 -2.929688 4.476562 -2.570312 4.6875 -2.3125 C 4.90625 -2.0625 5.195312 -1.9375 5.5625 -1.9375 C 6.238281 -1.9375 6.734375 -2.3125 7.046875 -3.0625 L 7.9375 -1.390625 C 7.65625 -0.859375 7.25 -0.445312 6.71875 -0.15625 C 6.1875 0.132812 5.582031 0.28125 4.90625 0.28125 Z M 4.90625 0.28125 "/></g></g></g><g fill="#0661aa" fill-opacity="1"><g transform="translate(83.237696, 84.638864)"><g/></g></g><g fill="#0661aa" fill-opacity="1"><g transform="translate(88.684354, 84.638864)"><g><path d="M 4 0.25 C 3.269531 0.25 2.628906 0.0507812 2.078125 -0.34375 C 1.535156 -0.738281 1.113281 -1.300781 0.8125 -2.03125 C 0.519531 -2.757812 0.375 -3.613281 0.375 -4.59375 C 0.375 -5.582031 0.519531 -6.4375 0.8125 -7.15625 C 1.113281 -7.882812 1.535156 -8.441406 2.078125 -8.828125 C 2.628906 -9.222656 3.265625 -9.421875 3.984375 -9.421875 C 4.597656 -9.421875 5.144531 -9.265625 5.625 -8.953125 C 6.101562 -8.648438 6.472656 -8.203125 6.734375 -7.609375 L 6.75 -7.609375 L 6.75 -13.296875 L 9.5 -13.296875 L 9.5 0 L 7.171875 0 L 6.828125 -1.59375 L 6.8125 -1.59375 C 6.550781 -1 6.175781 -0.539062 5.6875 -0.21875 C 5.195312 0.09375 4.632812 0.25 4 0.25 Z M 5 -2.09375 C 5.5625 -2.09375 6.007812 -2.316406 6.34375 -2.765625 C 6.6875 -3.222656 6.859375 -3.832031 6.859375 -4.59375 C 6.859375 -5.34375 6.6875 -5.941406 6.34375 -6.390625 C 6.007812 -6.847656 5.5625 -7.078125 5 -7.078125 C 4.4375 -7.078125 3.984375 -6.847656 3.640625 -6.390625 C 3.296875 -5.941406 3.125 -5.34375 3.125 -4.59375 C 3.125 -3.832031 3.296875 -3.222656 3.640625 -2.765625 C 3.984375 -2.316406 4.4375 -2.09375 5 -2.09375 Z M 5 -2.09375 "/></g></g></g><g fill="#0661aa" fill-opacity="1"><g transform="translate(100.975156, 84.638864)"><g><path d="M 5.359375 0.296875 C 4.367188 0.296875 3.492188 0.0976562 2.734375 -0.296875 C 1.984375 -0.703125 1.398438 -1.28125 0.984375 -2.03125 C 0.578125 -2.78125 0.375 -3.648438 0.375 -4.640625 C 0.375 -5.617188 0.5625 -6.46875 0.9375 -7.1875 C 1.3125 -7.914062 1.835938 -8.484375 2.515625 -8.890625 C 3.203125 -9.296875 4.003906 -9.5 4.921875 -9.5 C 5.804688 -9.5 6.570312 -9.300781 7.21875 -8.90625 C 7.863281 -8.519531 8.367188 -7.976562 8.734375 -7.28125 C 9.097656 -6.582031 9.28125 -5.765625 9.28125 -4.828125 C 9.28125 -4.628906 9.269531 -4.441406 9.25 -4.265625 C 9.238281 -4.097656 9.210938 -3.953125 9.171875 -3.828125 L 3.125 -3.828125 C 3.175781 -3.160156 3.40625 -2.632812 3.8125 -2.25 C 4.21875 -1.863281 4.738281 -1.671875 5.375 -1.671875 C 5.863281 -1.671875 6.296875 -1.789062 6.671875 -2.03125 C 7.046875 -2.269531 7.332031 -2.597656 7.53125 -3.015625 L 9.4375 -2.171875 C 9.175781 -1.398438 8.671875 -0.796875 7.921875 -0.359375 C 7.171875 0.078125 6.316406 0.296875 5.359375 0.296875 Z M 3.125 -5.390625 L 6.5625 -5.390625 C 6.519531 -6.054688 6.351562 -6.578125 6.0625 -6.953125 C 5.78125 -7.328125 5.394531 -7.515625 4.90625 -7.515625 C 4.394531 -7.515625 3.984375 -7.320312 3.671875 -6.9375 C 3.359375 -6.5625 3.175781 -6.046875 3.125 -5.390625 Z M 3.125 -5.390625 "/></g></g></g><g fill="#0661aa" fill-opacity="1"><g transform="translate(24.232002, 106.288168)"><g><path d="M 6.984375 0.390625 C 5.679688 0.390625 4.539062 0.109375 3.5625 -0.453125 C 2.59375 -1.015625 1.835938 -1.800781 1.296875 -2.8125 C 0.765625 -3.832031 0.5 -5.019531 0.5 -6.375 C 0.5 -7.75 0.765625 -8.941406 1.296875 -9.953125 C 1.835938 -10.960938 2.59375 -11.75 3.5625 -12.3125 C 4.539062 -12.875 5.679688 -13.15625 6.984375 -13.15625 C 8.304688 -13.15625 9.453125 -12.875 10.421875 -12.3125 C 11.390625 -11.75 12.144531 -10.960938 12.6875 -9.953125 C 13.226562 -8.941406 13.5 -7.75 13.5 -6.375 C 13.5 -5.019531 13.226562 -3.832031 12.6875 -2.8125 C 12.144531 -1.800781 11.390625 -1.015625 10.421875 -0.453125 C 9.453125 0.109375 8.304688 0.390625 6.984375 0.390625 Z M 6.984375 -2.234375 C 8.035156 -2.234375 8.875 -2.609375 9.5 -3.359375 C 10.125 -4.109375 10.4375 -5.113281 10.4375 -6.375 C 10.4375 -7.644531 10.125 -8.65625 9.5 -9.40625 C 8.875 -10.15625 8.035156 -10.53125 6.984375 -10.53125 C 5.953125 -10.53125 5.125 -10.15625 4.5 -9.40625 C 3.875 -8.65625 3.5625 -7.644531 3.5625 -6.375 C 3.5625 -5.113281 3.875 -4.109375 4.5 -3.359375 C 5.125 -2.609375 5.953125 -2.234375 6.984375 -2.234375 Z M 6.984375 -2.234375 "/></g></g></g><g fill="#0661aa" fill-opacity="1"><g transform="translate(40.249461, 106.288168)"><g><path d="M 0.09375 0 L 3.0625 -4.765625 L 0.25 -9.171875 L 3.265625 -9.171875 L 4.859375 -6.25 L 6.453125 -9.171875 L 9.484375 -9.171875 L 6.65625 -4.765625 L 9.625 0 L 6.53125 0 L 4.859375 -3.078125 L 3.171875 0 Z M 0.09375 0 "/></g></g></g><g fill="#0661aa" fill-opacity="1"><g transform="translate(52.074435, 106.288168)"><g><path d="M 2.109375 -10.4375 C 1.617188 -10.4375 1.226562 -10.578125 0.9375 -10.859375 C 0.644531 -11.148438 0.5 -11.523438 0.5 -11.984375 C 0.5 -12.460938 0.644531 -12.84375 0.9375 -13.125 C 1.226562 -13.414062 1.617188 -13.5625 2.109375 -13.5625 C 2.597656 -13.5625 2.988281 -13.414062 3.28125 -13.125 C 3.582031 -12.84375 3.734375 -12.460938 3.734375 -11.984375 C 3.734375 -11.523438 3.582031 -11.148438 3.28125 -10.859375 C 2.988281 -10.578125 2.597656 -10.4375 2.109375 -10.4375 Z M 0.734375 0 L 0.734375 -9.171875 L 3.484375 -9.171875 L 3.484375 0 Z M 0.734375 0 "/></g></g></g><g fill="#0661aa" fill-opacity="1"><g transform="translate(58.416925, 106.288168)"><g><path d="M 4.359375 4.0625 C 3.460938 4.0625 2.613281 3.910156 1.8125 3.609375 C 1.019531 3.316406 0.382812 2.914062 -0.09375 2.40625 L 0.96875 0.4375 C 1.332031 0.851562 1.789062 1.1875 2.34375 1.4375 C 2.90625 1.695312 3.472656 1.828125 4.046875 1.828125 C 4.867188 1.828125 5.523438 1.597656 6.015625 1.140625 C 6.503906 0.679688 6.75 0.0546875 6.75 -0.734375 L 6.75 -1.65625 L 6.734375 -1.65625 C 6.472656 -1.132812 6.09375 -0.71875 5.59375 -0.40625 C 5.09375 -0.101562 4.546875 0.046875 3.953125 0.046875 C 3.242188 0.046875 2.625 -0.140625 2.09375 -0.515625 C 1.5625 -0.898438 1.144531 -1.441406 0.84375 -2.140625 C 0.550781 -2.835938 0.40625 -3.660156 0.40625 -4.609375 C 0.40625 -5.597656 0.546875 -6.453125 0.828125 -7.171875 C 1.117188 -7.898438 1.523438 -8.457031 2.046875 -8.84375 C 2.578125 -9.238281 3.195312 -9.4375 3.90625 -9.4375 C 4.53125 -9.4375 5.097656 -9.269531 5.609375 -8.9375 C 6.117188 -8.601562 6.5 -8.15625 6.75 -7.59375 L 6.78125 -7.59375 L 7.09375 -9.171875 L 9.5 -9.171875 L 9.5 -0.703125 C 9.5 0.285156 9.289062 1.140625 8.875 1.859375 C 8.457031 2.578125 7.863281 3.125 7.09375 3.5 C 6.320312 3.875 5.410156 4.0625 4.359375 4.0625 Z M 5.015625 -2.1875 C 5.578125 -2.1875 6.023438 -2.410156 6.359375 -2.859375 C 6.691406 -3.304688 6.859375 -3.90625 6.859375 -4.65625 C 6.859375 -5.40625 6.691406 -6.007812 6.359375 -6.46875 C 6.023438 -6.925781 5.578125 -7.15625 5.015625 -7.15625 C 4.453125 -7.15625 4 -6.929688 3.65625 -6.484375 C 3.320312 -6.035156 3.15625 -5.425781 3.15625 -4.65625 C 3.15625 -3.894531 3.320312 -3.289062 3.65625 -2.84375 C 4 -2.40625 4.453125 -2.1875 5.015625 -2.1875 Z M 5.015625 -2.1875 "/></g></g></g><g fill="#0661aa" fill-opacity="1"><g transform="translate(70.707726, 106.288168)"><g><path d="M 2.734375 -10.59375 L 2.21875 -11.0625 L 4.4375 -13.421875 L 5.40625 -13.421875 L 7.65625 -11.0625 L 7.140625 -10.59375 L 4.921875 -12.90625 Z M 5.359375 0.296875 C 4.367188 0.296875 3.492188 0.0976562 2.734375 -0.296875 C 1.984375 -0.703125 1.398438 -1.28125 0.984375 -2.03125 C 0.578125 -2.78125 0.375 -3.648438 0.375 -4.640625 C 0.375 -5.617188 0.5625 -6.46875 0.9375 -7.1875 C 1.3125 -7.914062 1.835938 -8.484375 2.515625 -8.890625 C 3.203125 -9.296875 4.003906 -9.5 4.921875 -9.5 C 5.804688 -9.5 6.570312 -9.300781 7.21875 -8.90625 C 7.863281 -8.519531 8.367188 -7.976562 8.734375 -7.28125 C 9.097656 -6.582031 9.28125 -5.765625 9.28125 -4.828125 C 9.28125 -4.628906 9.269531 -4.441406 9.25 -4.265625 C 9.238281 -4.097656 9.210938 -3.953125 9.171875 -3.828125 L 3.125 -3.828125 C 3.175781 -3.160156 3.40625 -2.632812 3.8125 -2.25 C 4.21875 -1.863281 4.738281 -1.671875 5.375 -1.671875 C 5.863281 -1.671875 6.296875 -1.789062 6.671875 -2.03125 C 7.046875 -2.269531 7.332031 -2.597656 7.53125 -3.015625 L 9.4375 -2.171875 C 9.175781 -1.398438 8.671875 -0.796875 7.921875 -0.359375 C 7.171875 0.078125 6.316406 0.296875 5.359375 0.296875 Z M 3.125 -5.390625 L 6.5625 -5.390625 C 6.519531 -6.054688 6.351562 -6.578125 6.0625 -6.953125 C 5.78125 -7.328125 5.394531 -7.515625 4.90625 -7.515625 C 4.394531 -7.515625 3.984375 -7.320312 3.671875 -6.9375 C 3.359375 -6.5625 3.175781 -6.046875 3.125 -5.390625 Z M 3.125 -5.390625 "/></g></g></g><g fill="#0661aa" fill-opacity="1"><g transform="translate(82.604361, 106.288168)"><g><path d="M 6.25 -9.40625 C 7.101562 -9.40625 7.773438 -9.148438 8.265625 -8.640625 C 8.753906 -8.140625 9 -7.4375 9 -6.53125 L 9 0 L 6.25 0 L 6.25 -5.828125 C 6.25 -6.253906 6.140625 -6.585938 5.921875 -6.828125 C 5.710938 -7.066406 5.414062 -7.1875 5.03125 -7.1875 C 4.539062 -7.1875 4.144531 -7.023438 3.84375 -6.703125 C 3.550781 -6.390625 3.40625 -5.953125 3.40625 -5.390625 L 3.40625 0 L 0.6875 0 L 0.6875 -9.171875 L 2.9375 -9.171875 L 3.3125 -7.609375 L 3.328125 -7.609375 C 3.609375 -8.191406 4.003906 -8.632812 4.515625 -8.9375 C 5.023438 -9.25 5.601562 -9.40625 6.25 -9.40625 Z M 6.25 -9.40625 "/></g></g></g><g fill="#0661aa" fill-opacity="1"><g transform="translate(94.339744, 106.288168)"><g><path d="M 2.109375 -10.4375 C 1.617188 -10.4375 1.226562 -10.578125 0.9375 -10.859375 C 0.644531 -11.148438 0.5 -11.523438 0.5 -11.984375 C 0.5 -12.460938 0.644531 -12.84375 0.9375 -13.125 C 1.226562 -13.414062 1.617188 -13.5625 2.109375 -13.5625 C 2.597656 -13.5625 2.988281 -13.414062 3.28125 -13.125 C 3.582031 -12.84375 3.734375 -12.460938 3.734375 -11.984375 C 3.734375 -11.523438 3.582031 -11.148438 3.28125 -10.859375 C 2.988281 -10.578125 2.597656 -10.4375 2.109375 -10.4375 Z M 0.734375 0 L 0.734375 -9.171875 L 3.484375 -9.171875 L 3.484375 0 Z M 0.734375 0 "/></g></g></g><g fill="#0661aa" fill-opacity="1"><g transform="translate(100.682233, 106.288168)"><g><path d="M 5.03125 0.296875 C 4.09375 0.296875 3.269531 0.0976562 2.5625 -0.296875 C 1.863281 -0.691406 1.320312 -1.253906 0.9375 -1.984375 C 0.5625 -2.722656 0.375 -3.59375 0.375 -4.59375 C 0.375 -5.59375 0.5625 -6.457031 0.9375 -7.1875 C 1.320312 -7.925781 1.863281 -8.492188 2.5625 -8.890625 C 3.269531 -9.296875 4.09375 -9.5 5.03125 -9.5 C 5.976562 -9.5 6.796875 -9.296875 7.484375 -8.890625 C 8.179688 -8.492188 8.71875 -7.925781 9.09375 -7.1875 C 9.476562 -6.457031 9.671875 -5.59375 9.671875 -4.59375 C 9.671875 -3.59375 9.476562 -2.722656 9.09375 -1.984375 C 8.71875 -1.253906 8.179688 -0.691406 7.484375 -0.296875 C 6.796875 0.0976562 5.976562 0.296875 5.03125 0.296875 Z M 5.03125 -1.984375 C 5.632812 -1.984375 6.101562 -2.210938 6.4375 -2.671875 C 6.78125 -3.140625 6.953125 -3.78125 6.953125 -4.59375 C 6.953125 -5.40625 6.78125 -6.039062 6.4375 -6.5 C 6.101562 -6.957031 5.632812 -7.1875 5.03125 -7.1875 C 4.4375 -7.1875 3.960938 -6.957031 3.609375 -6.5 C 3.265625 -6.039062 3.09375 -5.40625 3.09375 -4.59375 C 3.09375 -3.78125 3.265625 -3.140625 3.609375 -2.671875 C 3.960938 -2.210938 4.4375 -1.984375 5.03125 -1.984375 Z M 5.03125 -1.984375 "/></g></g></g><g clip-path="url(#93c510ecf9)"><path fill="#0661aa" d="M 85.558594 57.945312 C 86.097656 57.316406 86.589844 56.636719 87.0625 55.941406 C 88.695312 53.523438 89.761719 50.710938 90.214844 47.816406 C 90.699219 44.730469 90.484375 41.539062 89.511719 38.597656 C 88.925781 36.835938 88.054688 35.15625 86.894531 33.644531 C 86.359375 32.914062 85.746094 32.253906 85.125 31.625 C 81.792969 28.277344 77.15625 26.1875 72.480469 25.726562 C 67.558594 25.234375 62.28125 26.660156 58.421875 29.804688 C 55.621094 32.097656 53.691406 35.324219 52.78125 38.8125 C 52.746094 38.941406 52.511719 40.027344 52.511719 40.027344 C 52.4375 40.574219 52.347656 41.113281 52.328125 41.660156 C 51.789062 48.570312 55.609375 54.320312 61.882812 57.148438 C 68.984375 60.359375 75.8125 56.601562 78.707031 52.78125 C 81.40625 49.21875 81.609375 43.820312 79.316406 39.898438 C 76.394531 34.871094 67.976562 32.949219 63.855469 37.660156 C 61.722656 40.210938 61.40625 44.070312 63.058594 46.890625 C 64.339844 49.152344 67.054688 50.351562 69.320312 49.832031 C 69.691406 49.757812 70.035156 49.617188 70.339844 49.46875 C 70.878906 49.210938 71.378906 48.671875 71.546875 48.078125 C 71.769531 47.308594 71.554688 46.289062 70.746094 45.945312 C 70.535156 45.851562 70.273438 45.84375 70.070312 45.964844 C 70.023438 45.992188 69.976562 46.027344 69.96875 46.074219 C 69.960938 46.148438 70.015625 46.214844 70.070312 46.25 C 70.421875 46.539062 70.710938 46.75 70.765625 47.242188 C 70.851562 48.078125 70.136719 48.542969 69.421875 48.726562 C 68.6875 48.921875 67.910156 48.855469 67.175781 48.691406 C 66.183594 48.449219 65.304688 47.910156 64.609375 47.140625 C 62.417969 44.71875 62.546875 40.5 64.71875 38.070312 C 68.363281 34.136719 75.46875 35.777344 78.1875 40.046875 L 78.390625 40.398438 C 78.484375 40.582031 78.667969 40.953125 78.761719 41.140625 C 79.855469 43.859375 79.894531 46.945312 78.789062 49.671875 C 77.667969 52.425781 75.5625 54.394531 72.945312 55.691406 C 68.894531 57.714844 63.996094 56.917969 60.359375 54.402344 C 53.792969 49.449219 51.621094 39.230469 56.929688 32.929688 C 64.96875 23.359375 81.414062 26.253906 87.128906 37.78125 C 90.390625 44.71875 88.242188 52.890625 82.648438 57.796875 C 78.4375 61.535156 72.871094 63.734375 67.175781 63.707031 C 61.492188 63.640625 55.789062 61.292969 51.585938 57.417969 C 46.28125 52.519531 44.296875 44.933594 46.066406 37.976562 C 47.085938 33.960938 49.460938 30.351562 52.605469 27.664062 C 54.832031 25.714844 57.28125 24.277344 59.980469 23.109375 C 64.988281 21.226562 70.535156 21.234375 75.617188 21.476562 C 76.582031 21.550781 77.582031 21.605469 78.066406 21.53125 C 78.417969 21.476562 78.324219 21.226562 77.695312 20.96875 C 77.371094 20.835938 76.777344 20.640625 76.144531 20.464844 C 74.726562 20.066406 73.289062 19.882812 71.84375 19.78125 C 68.671875 19.566406 65.609375 19.9375 62.652344 20.6875 C 58.652344 21.738281 55.128906 23.851562 52.066406 26.699219 C 52.066406 26.699219 50.621094 28.054688 50.074219 28.65625 C 46.640625 32.421875 44.65625 37.308594 44.417969 42.550781 C 44.296875 44.691406 44.535156 46.75 45.085938 48.699219 C 47.429688 57.148438 55.40625 63.546875 63.792969 65.597656 C 64.21875 65.691406 64.652344 65.792969 65.097656 65.859375 C 65.542969 65.941406 66 65.988281 66.460938 66.035156 C 66.925781 66.070312 67.398438 66.109375 67.871094 66.109375 C 69.773438 66.15625 71.675781 65.933594 73.53125 65.46875 C 78.128906 64.316406 82.414062 61.675781 85.558594 57.945312 Z M 85.558594 57.945312 " fill-opacity="1" fill-rule="nonzero"/></g></svg>