<svg xmlns="http://www.w3.org/2000/svg" xmlns:xlink="http://www.w3.org/1999/xlink" width="180" zoomAndPan="magnify" viewBox="0 0 135 161.249994" height="215" preserveAspectRatio="xMidYMid meet" version="1.0"><defs><g/><clipPath id="8cb681b04d"><path d="M 31.53125 22.472656 L 103.199219 22.472656 L 103.199219 78.460938 L 31.53125 78.460938 Z M 31.53125 22.472656 " clip-rule="nonzero"/></clipPath></defs><g fill="#0661aa" fill-opacity="1"><g transform="translate(40.270683, 104.836213)"><g><path d="M 0.890625 0 L 0.890625 -12.765625 L 5.71875 -12.765625 C 7.789062 -12.765625 9.378906 -12.207031 10.484375 -11.09375 C 11.585938 -9.988281 12.140625 -8.414062 12.140625 -6.375 C 12.140625 -4.332031 11.585938 -2.757812 10.484375 -1.65625 C 9.378906 -0.550781 7.785156 0 5.703125 0 Z M 3.875 -2.453125 L 5.6875 -2.453125 C 6.78125 -2.453125 7.613281 -2.789062 8.1875 -3.46875 C 8.769531 -4.15625 9.0625 -5.125 9.0625 -6.375 C 9.0625 -7.632812 8.769531 -8.609375 8.1875 -9.296875 C 7.613281 -9.984375 6.78125 -10.328125 5.6875 -10.328125 L 3.875 -10.328125 Z M 3.875 -2.453125 "/></g></g></g><g fill="#0661aa" fill-opacity="1"><g transform="translate(55.016063, 104.836213)"><g><path d="M 2.109375 -10.4375 C 1.617188 -10.4375 1.226562 -10.578125 0.9375 -10.859375 C 0.644531 -11.148438 0.5 -11.523438 0.5 -11.984375 C 0.5 -12.460938 0.644531 -12.84375 0.9375 -13.125 C 1.226562 -13.414062 1.617188 -13.5625 2.109375 -13.5625 C 2.597656 -13.5625 2.988281 -13.414062 3.28125 -13.125 C 3.582031 -12.84375 3.734375 -12.460938 3.734375 -11.984375 C 3.734375 -11.523438 3.582031 -11.148438 3.28125 -10.859375 C 2.988281 -10.578125 2.597656 -10.4375 2.109375 -10.4375 Z M 0.734375 0 L 0.734375 -9.171875 L 3.484375 -9.171875 L 3.484375 0 Z M 0.734375 0 "/></g></g></g><g fill="#0661aa" fill-opacity="1"><g transform="translate(61.358553, 104.836213)"><g><path d="M 5.625 -9.421875 C 6.375 -9.421875 6.976562 -9.140625 7.4375 -8.578125 C 7.894531 -8.023438 8.144531 -7.234375 8.1875 -6.203125 L 5.875 -5.578125 C 5.863281 -6.171875 5.753906 -6.617188 5.546875 -6.921875 C 5.347656 -7.234375 5.082031 -7.390625 4.75 -7.390625 C 4.34375 -7.390625 4.015625 -7.1875 3.765625 -6.78125 C 3.523438 -6.375 3.40625 -5.8125 3.40625 -5.09375 L 3.40625 0 L 0.6875 0 L 0.6875 -9.171875 L 2.890625 -9.171875 L 3.265625 -7.59375 L 3.28125 -7.59375 C 3.476562 -8.164062 3.785156 -8.613281 4.203125 -8.9375 C 4.628906 -9.257812 5.101562 -9.421875 5.625 -9.421875 Z M 5.625 -9.421875 "/></g></g></g><g fill="#0661aa" fill-opacity="1"><g transform="translate(71.911447, 104.836213)"><g><path d="M 4.359375 4.0625 C 3.460938 4.0625 2.613281 3.910156 1.8125 3.609375 C 1.019531 3.316406 0.382812 2.914062 -0.09375 2.40625 L 0.96875 0.4375 C 1.332031 0.851562 1.789062 1.1875 2.34375 1.4375 C 2.90625 1.695312 3.472656 1.828125 4.046875 1.828125 C 4.867188 1.828125 5.523438 1.597656 6.015625 1.140625 C 6.503906 0.679688 6.75 0.0546875 6.75 -0.734375 L 6.75 -1.65625 L 6.734375 -1.65625 C 6.472656 -1.132812 6.09375 -0.71875 5.59375 -0.40625 C 5.09375 -0.101562 4.546875 0.046875 3.953125 0.046875 C 3.242188 0.046875 2.625 -0.140625 2.09375 -0.515625 C 1.5625 -0.898438 1.144531 -1.441406 0.84375 -2.140625 C 0.550781 -2.835938 0.40625 -3.660156 0.40625 -4.609375 C 0.40625 -5.597656 0.546875 -6.453125 0.828125 -7.171875 C 1.117188 -7.898438 1.523438 -8.457031 2.046875 -8.84375 C 2.578125 -9.238281 3.195312 -9.4375 3.90625 -9.4375 C 4.53125 -9.4375 5.097656 -9.269531 5.609375 -8.9375 C 6.117188 -8.601562 6.5 -8.15625 6.75 -7.59375 L 6.78125 -7.59375 L 7.09375 -9.171875 L 9.5 -9.171875 L 9.5 -0.703125 C 9.5 0.285156 9.289062 1.140625 8.875 1.859375 C 8.457031 2.578125 7.863281 3.125 7.09375 3.5 C 6.320312 3.875 5.410156 4.0625 4.359375 4.0625 Z M 5.015625 -2.1875 C 5.578125 -2.1875 6.023438 -2.410156 6.359375 -2.859375 C 6.691406 -3.304688 6.859375 -3.90625 6.859375 -4.65625 C 6.859375 -5.40625 6.691406 -6.007812 6.359375 -6.46875 C 6.023438 -6.925781 5.578125 -7.15625 5.015625 -7.15625 C 4.453125 -7.15625 4 -6.929688 3.65625 -6.484375 C 3.320312 -6.035156 3.15625 -5.425781 3.15625 -4.65625 C 3.15625 -3.894531 3.320312 -3.289062 3.65625 -2.84375 C 4 -2.40625 4.453125 -2.1875 5.015625 -2.1875 Z M 5.015625 -2.1875 "/></g></g></g><g fill="#0661aa" fill-opacity="1"><g transform="translate(84.202249, 104.836213)"><g><path d="M 3.171875 0.21875 C 2.296875 0.21875 1.585938 -0.015625 1.046875 -0.484375 C 0.515625 -0.953125 0.25 -1.578125 0.25 -2.359375 C 0.25 -3.203125 0.566406 -3.878906 1.203125 -4.390625 C 1.847656 -4.910156 2.785156 -5.238281 4.015625 -5.375 L 5.4375 -5.53125 C 5.632812 -5.5625 5.796875 -5.632812 5.921875 -5.75 C 6.046875 -5.875 6.109375 -6.046875 6.109375 -6.265625 C 6.109375 -6.671875 5.984375 -6.984375 5.734375 -7.203125 C 5.484375 -7.421875 5.15625 -7.53125 4.75 -7.53125 C 4.28125 -7.53125 3.898438 -7.367188 3.609375 -7.046875 C 3.328125 -6.722656 3.175781 -6.316406 3.15625 -5.828125 L 0.5625 -6.203125 C 0.582031 -6.847656 0.769531 -7.414062 1.125 -7.90625 C 1.476562 -8.40625 1.960938 -8.796875 2.578125 -9.078125 C 3.191406 -9.359375 3.910156 -9.5 4.734375 -9.5 C 5.984375 -9.5 6.972656 -9.171875 7.703125 -8.515625 C 8.429688 -7.859375 8.796875 -6.96875 8.796875 -5.84375 L 8.796875 -2.296875 C 8.796875 -1.890625 8.945312 -1.6875 9.25 -1.6875 C 9.488281 -1.6875 9.710938 -1.804688 9.921875 -2.046875 L 10.515625 -0.578125 C 10.234375 -0.296875 9.890625 -0.09375 9.484375 0.03125 C 9.078125 0.164062 8.675781 0.234375 8.28125 0.234375 C 7.726562 0.234375 7.265625 0.09375 6.890625 -0.1875 C 6.515625 -0.46875 6.28125 -0.820312 6.1875 -1.25 L 6.140625 -1.484375 L 6.125 -1.484375 C 5.851562 -0.960938 5.457031 -0.546875 4.9375 -0.234375 C 4.425781 0.0664062 3.835938 0.21875 3.171875 0.21875 Z M 4.296875 -1.703125 C 4.816406 -1.703125 5.242188 -1.882812 5.578125 -2.25 C 5.910156 -2.613281 6.078125 -3.085938 6.078125 -3.671875 L 6.078125 -4.109375 L 4.734375 -3.953125 C 4.109375 -3.890625 3.660156 -3.742188 3.390625 -3.515625 C 3.128906 -3.285156 3 -3.015625 3 -2.703125 C 3 -2.410156 3.117188 -2.171875 3.359375 -1.984375 C 3.609375 -1.796875 3.921875 -1.703125 4.296875 -1.703125 Z M 4.296875 -1.703125 "/></g></g></g><g fill="#2d6d5e" fill-opacity="1"><g transform="translate(21.710282, 122.46422)"><g><path d="M 7.734375 -7.8125 L 6.125 0 L 5.109375 0 L 4.09375 -5.109375 C 4.082031 -5.171875 4.066406 -5.25 4.046875 -5.34375 C 4.035156 -5.445312 4.019531 -5.554688 4 -5.671875 C 3.988281 -5.796875 3.972656 -5.929688 3.953125 -6.078125 C 3.929688 -6.234375 3.910156 -6.40625 3.890625 -6.59375 C 3.867188 -6.46875 3.851562 -6.34375 3.84375 -6.21875 C 3.832031 -6.101562 3.816406 -5.984375 3.796875 -5.859375 C 3.773438 -5.734375 3.753906 -5.609375 3.734375 -5.484375 C 3.722656 -5.359375 3.703125 -5.234375 3.671875 -5.109375 L 2.671875 0 L 1.671875 0 L 0.046875 -7.8125 L 0.90625 -7.8125 L 1.890625 -2.875 C 1.921875 -2.675781 1.953125 -2.488281 1.984375 -2.3125 C 2.015625 -2.132812 2.039062 -1.960938 2.0625 -1.796875 C 2.09375 -1.640625 2.117188 -1.488281 2.140625 -1.34375 C 2.160156 -1.207031 2.175781 -1.085938 2.1875 -0.984375 C 2.207031 -1.140625 2.226562 -1.296875 2.25 -1.453125 C 2.28125 -1.617188 2.304688 -1.78125 2.328125 -1.9375 C 2.359375 -2.101562 2.382812 -2.257812 2.40625 -2.40625 C 2.4375 -2.5625 2.46875 -2.707031 2.5 -2.84375 L 3.5 -7.8125 L 4.296875 -7.8125 L 5.28125 -2.859375 C 5.300781 -2.722656 5.328125 -2.582031 5.359375 -2.4375 C 5.390625 -2.289062 5.414062 -2.140625 5.4375 -1.984375 C 5.457031 -1.828125 5.476562 -1.664062 5.5 -1.5 C 5.53125 -1.332031 5.554688 -1.160156 5.578125 -0.984375 C 5.609375 -1.210938 5.640625 -1.4375 5.671875 -1.65625 C 5.703125 -1.875 5.734375 -2.082031 5.765625 -2.28125 C 5.804688 -2.488281 5.84375 -2.6875 5.875 -2.875 L 6.875 -7.8125 Z M 7.734375 -7.8125 "/></g></g></g><g fill="#2d6d5e" fill-opacity="1"><g transform="translate(31.027058, 122.46422)"><g><path d="M 1.53125 -8.3125 L 1.53125 -5.890625 C 1.53125 -5.734375 1.523438 -5.582031 1.515625 -5.4375 C 1.515625 -5.300781 1.503906 -5.164062 1.484375 -5.03125 L 1.53125 -5.03125 C 1.601562 -5.226562 1.703125 -5.394531 1.828125 -5.53125 C 1.960938 -5.664062 2.113281 -5.769531 2.28125 -5.84375 C 2.445312 -5.925781 2.625 -5.96875 2.8125 -5.96875 C 3.144531 -5.96875 3.414062 -5.890625 3.625 -5.734375 C 3.832031 -5.585938 3.984375 -5.367188 4.078125 -5.078125 C 4.179688 -4.785156 4.234375 -4.421875 4.234375 -3.984375 L 4.234375 0 L 3.40625 0 L 3.40625 -3.828125 C 3.40625 -4.328125 3.34375 -4.6875 3.21875 -4.90625 C 3.101562 -5.125 2.910156 -5.234375 2.640625 -5.234375 C 2.390625 -5.234375 2.179688 -5.15625 2.015625 -5 C 1.859375 -4.851562 1.738281 -4.617188 1.65625 -4.296875 C 1.570312 -3.972656 1.53125 -3.566406 1.53125 -3.078125 L 1.53125 0 L 0.71875 0 L 0.71875 -8.3125 Z M 1.53125 -8.3125 "/></g></g></g><g fill="#2d6d5e" fill-opacity="1"><g transform="translate(37.490977, 122.46422)"><g><path d="M 2.328125 -5.953125 C 2.722656 -5.953125 3.050781 -5.835938 3.3125 -5.609375 C 3.570312 -5.378906 3.765625 -5.066406 3.890625 -4.671875 C 4.015625 -4.285156 4.078125 -3.851562 4.078125 -3.375 L 4.078125 -2.78125 L 1.28125 -2.78125 C 1.289062 -2.050781 1.40625 -1.503906 1.625 -1.140625 C 1.84375 -0.773438 2.171875 -0.59375 2.609375 -0.59375 C 2.828125 -0.59375 3.035156 -0.625 3.234375 -0.6875 C 3.441406 -0.75 3.648438 -0.851562 3.859375 -1 L 3.859375 -0.265625 C 3.660156 -0.140625 3.453125 -0.046875 3.234375 0.015625 C 3.015625 0.078125 2.78125 0.109375 2.53125 0.109375 C 2.039062 0.109375 1.644531 -0.0195312 1.34375 -0.28125 C 1.039062 -0.539062 0.816406 -0.898438 0.671875 -1.359375 C 0.535156 -1.816406 0.46875 -2.332031 0.46875 -2.90625 C 0.46875 -3.550781 0.535156 -4.101562 0.671875 -4.5625 C 0.816406 -5.019531 1.023438 -5.363281 1.296875 -5.59375 C 1.578125 -5.832031 1.921875 -5.953125 2.328125 -5.953125 Z M 2.328125 -5.28125 C 2.015625 -5.28125 1.769531 -5.128906 1.59375 -4.828125 C 1.425781 -4.535156 1.328125 -4.070312 1.296875 -3.4375 L 3.3125 -3.4375 C 3.3125 -3.769531 3.273438 -4.078125 3.203125 -4.359375 C 3.140625 -4.640625 3.035156 -4.863281 2.890625 -5.03125 C 2.742188 -5.195312 2.554688 -5.28125 2.328125 -5.28125 Z M 2.328125 -5.28125 "/></g></g></g><g fill="#2d6d5e" fill-opacity="1"><g transform="translate(43.548871, 122.46422)"><g><path d="M 2.828125 -5.96875 C 3.285156 -5.96875 3.632812 -5.804688 3.875 -5.484375 C 4.113281 -5.160156 4.234375 -4.664062 4.234375 -4 L 4.234375 0 L 3.40625 0 L 3.40625 -3.828125 C 3.40625 -4.304688 3.34375 -4.660156 3.21875 -4.890625 C 3.101562 -5.128906 2.914062 -5.25 2.65625 -5.25 C 2.269531 -5.25 1.984375 -5.078125 1.796875 -4.734375 C 1.617188 -4.390625 1.53125 -3.84375 1.53125 -3.09375 L 1.53125 0 L 0.71875 0 L 0.71875 -5.859375 L 1.375 -5.859375 L 1.46875 -5.015625 L 1.515625 -5.015625 C 1.597656 -5.210938 1.703125 -5.378906 1.828125 -5.515625 C 1.960938 -5.660156 2.113281 -5.769531 2.28125 -5.84375 C 2.445312 -5.925781 2.628906 -5.96875 2.828125 -5.96875 Z M 2.828125 -5.96875 "/></g></g></g><g fill="#2d6d5e" fill-opacity="1"><g transform="translate(50.01279, 122.46422)"><g/></g></g><g fill="#2d6d5e" fill-opacity="1"><g transform="translate(53.57577, 122.46422)"><g><path d="M 0.0625 -5.859375 L 0.90625 -5.859375 L 1.734375 -2.4375 C 1.773438 -2.289062 1.804688 -2.144531 1.828125 -2 C 1.859375 -1.851562 1.882812 -1.707031 1.90625 -1.5625 C 1.9375 -1.425781 1.960938 -1.285156 1.984375 -1.140625 L 2.03125 -1.140625 C 2.0625 -1.347656 2.097656 -1.554688 2.140625 -1.765625 C 2.179688 -1.984375 2.226562 -2.207031 2.28125 -2.4375 L 3.09375 -5.859375 L 3.9375 -5.859375 L 2.1875 0.9375 C 2.09375 1.332031 1.972656 1.65625 1.828125 1.90625 C 1.691406 2.15625 1.53125 2.335938 1.34375 2.453125 C 1.15625 2.566406 0.929688 2.625 0.671875 2.625 C 0.585938 2.625 0.503906 2.613281 0.421875 2.59375 C 0.335938 2.582031 0.25 2.5625 0.15625 2.53125 L 0.15625 1.8125 C 0.21875 1.832031 0.285156 1.847656 0.359375 1.859375 C 0.429688 1.878906 0.503906 1.890625 0.578125 1.890625 C 0.710938 1.890625 0.828125 1.851562 0.921875 1.78125 C 1.015625 1.707031 1.097656 1.59375 1.171875 1.4375 C 1.242188 1.28125 1.316406 1.0625 1.390625 0.78125 L 1.609375 -0.046875 Z M 0.0625 -5.859375 "/></g></g></g><g fill="#2d6d5e" fill-opacity="1"><g transform="translate(59.094079, 122.46422)"><g><path d="M 4.359375 -2.9375 C 4.359375 -2.476562 4.316406 -2.0625 4.234375 -1.6875 C 4.160156 -1.3125 4.039062 -0.988281 3.875 -0.71875 C 3.71875 -0.457031 3.515625 -0.253906 3.265625 -0.109375 C 3.023438 0.0351562 2.734375 0.109375 2.390625 0.109375 C 2.078125 0.109375 1.796875 0.0351562 1.546875 -0.109375 C 1.304688 -0.253906 1.101562 -0.457031 0.9375 -0.71875 C 0.78125 -0.976562 0.660156 -1.296875 0.578125 -1.671875 C 0.503906 -2.054688 0.46875 -2.476562 0.46875 -2.9375 C 0.46875 -3.582031 0.535156 -4.128906 0.671875 -4.578125 C 0.804688 -5.035156 1.019531 -5.378906 1.3125 -5.609375 C 1.601562 -5.847656 1.96875 -5.96875 2.40625 -5.96875 C 2.820312 -5.96875 3.175781 -5.851562 3.46875 -5.625 C 3.757812 -5.394531 3.976562 -5.054688 4.125 -4.609375 C 4.28125 -4.160156 4.359375 -3.601562 4.359375 -2.9375 Z M 1.296875 -2.9375 C 1.296875 -2.425781 1.332031 -2 1.40625 -1.65625 C 1.488281 -1.3125 1.613281 -1.050781 1.78125 -0.875 C 1.945312 -0.695312 2.160156 -0.609375 2.421875 -0.609375 C 2.671875 -0.609375 2.875 -0.691406 3.03125 -0.859375 C 3.195312 -1.035156 3.316406 -1.296875 3.390625 -1.640625 C 3.472656 -1.984375 3.515625 -2.414062 3.515625 -2.9375 C 3.515625 -3.445312 3.472656 -3.875 3.390625 -4.21875 C 3.316406 -4.5625 3.195312 -4.816406 3.03125 -4.984375 C 2.875 -5.160156 2.664062 -5.25 2.40625 -5.25 C 2.019531 -5.25 1.738281 -5.054688 1.5625 -4.671875 C 1.382812 -4.285156 1.296875 -3.707031 1.296875 -2.9375 Z M 1.296875 -2.9375 "/></g></g></g><g fill="#2d6d5e" fill-opacity="1"><g transform="translate(65.445807, 122.46422)"><g><path d="M 4.21875 -5.859375 L 4.21875 0 L 3.5625 0 L 3.46875 -0.828125 L 3.40625 -0.828125 C 3.332031 -0.640625 3.226562 -0.472656 3.09375 -0.328125 C 2.96875 -0.191406 2.820312 -0.0820312 2.65625 0 C 2.5 0.0703125 2.316406 0.109375 2.109375 0.109375 C 1.773438 0.109375 1.503906 0.0234375 1.296875 -0.140625 C 1.085938 -0.316406 0.929688 -0.5625 0.828125 -0.875 C 0.734375 -1.195312 0.6875 -1.578125 0.6875 -2.015625 L 0.6875 -5.859375 L 1.515625 -5.859375 L 1.515625 -2.171875 C 1.515625 -1.640625 1.578125 -1.25 1.703125 -1 C 1.828125 -0.75 2.015625 -0.625 2.265625 -0.625 C 2.535156 -0.625 2.753906 -0.695312 2.921875 -0.84375 C 3.085938 -1 3.207031 -1.234375 3.28125 -1.546875 C 3.351562 -1.859375 3.390625 -2.25 3.390625 -2.71875 L 3.390625 -5.859375 Z M 4.21875 -5.859375 "/></g></g></g><g fill="#2d6d5e" fill-opacity="1"><g transform="translate(71.909726, 122.46422)"><g/></g></g><g fill="#2d6d5e" fill-opacity="1"><g transform="translate(75.472705, 122.46422)"><g><path d="M 2.828125 -5.96875 C 3.285156 -5.96875 3.632812 -5.804688 3.875 -5.484375 C 4.113281 -5.160156 4.234375 -4.664062 4.234375 -4 L 4.234375 0 L 3.40625 0 L 3.40625 -3.828125 C 3.40625 -4.304688 3.34375 -4.660156 3.21875 -4.890625 C 3.101562 -5.128906 2.914062 -5.25 2.65625 -5.25 C 2.269531 -5.25 1.984375 -5.078125 1.796875 -4.734375 C 1.617188 -4.390625 1.53125 -3.84375 1.53125 -3.09375 L 1.53125 0 L 0.71875 0 L 0.71875 -5.859375 L 1.375 -5.859375 L 1.46875 -5.015625 L 1.515625 -5.015625 C 1.597656 -5.210938 1.703125 -5.378906 1.828125 -5.515625 C 1.960938 -5.660156 2.113281 -5.769531 2.28125 -5.84375 C 2.445312 -5.925781 2.628906 -5.96875 2.828125 -5.96875 Z M 2.828125 -5.96875 "/></g></g></g><g fill="#2d6d5e" fill-opacity="1"><g transform="translate(81.936624, 122.46422)"><g><path d="M 2.328125 -5.953125 C 2.722656 -5.953125 3.050781 -5.835938 3.3125 -5.609375 C 3.570312 -5.378906 3.765625 -5.066406 3.890625 -4.671875 C 4.015625 -4.285156 4.078125 -3.851562 4.078125 -3.375 L 4.078125 -2.78125 L 1.28125 -2.78125 C 1.289062 -2.050781 1.40625 -1.503906 1.625 -1.140625 C 1.84375 -0.773438 2.171875 -0.59375 2.609375 -0.59375 C 2.828125 -0.59375 3.035156 -0.625 3.234375 -0.6875 C 3.441406 -0.75 3.648438 -0.851562 3.859375 -1 L 3.859375 -0.265625 C 3.660156 -0.140625 3.453125 -0.046875 3.234375 0.015625 C 3.015625 0.078125 2.78125 0.109375 2.53125 0.109375 C 2.039062 0.109375 1.644531 -0.0195312 1.34375 -0.28125 C 1.039062 -0.539062 0.816406 -0.898438 0.671875 -1.359375 C 0.535156 -1.816406 0.46875 -2.332031 0.46875 -2.90625 C 0.46875 -3.550781 0.535156 -4.101562 0.671875 -4.5625 C 0.816406 -5.019531 1.023438 -5.363281 1.296875 -5.59375 C 1.578125 -5.832031 1.921875 -5.953125 2.328125 -5.953125 Z M 2.328125 -5.28125 C 2.015625 -5.28125 1.769531 -5.128906 1.59375 -4.828125 C 1.425781 -4.535156 1.328125 -4.070312 1.296875 -3.4375 L 3.3125 -3.4375 C 3.3125 -3.769531 3.273438 -4.078125 3.203125 -4.359375 C 3.140625 -4.640625 3.035156 -4.863281 2.890625 -5.03125 C 2.742188 -5.195312 2.554688 -5.28125 2.328125 -5.28125 Z M 2.328125 -5.28125 "/></g></g></g><g fill="#2d6d5e" fill-opacity="1"><g transform="translate(87.994518, 122.46422)"><g><path d="M 2.328125 -5.953125 C 2.722656 -5.953125 3.050781 -5.835938 3.3125 -5.609375 C 3.570312 -5.378906 3.765625 -5.066406 3.890625 -4.671875 C 4.015625 -4.285156 4.078125 -3.851562 4.078125 -3.375 L 4.078125 -2.78125 L 1.28125 -2.78125 C 1.289062 -2.050781 1.40625 -1.503906 1.625 -1.140625 C 1.84375 -0.773438 2.171875 -0.59375 2.609375 -0.59375 C 2.828125 -0.59375 3.035156 -0.625 3.234375 -0.6875 C 3.441406 -0.75 3.648438 -0.851562 3.859375 -1 L 3.859375 -0.265625 C 3.660156 -0.140625 3.453125 -0.046875 3.234375 0.015625 C 3.015625 0.078125 2.78125 0.109375 2.53125 0.109375 C 2.039062 0.109375 1.644531 -0.0195312 1.34375 -0.28125 C 1.039062 -0.539062 0.816406 -0.898438 0.671875 -1.359375 C 0.535156 -1.816406 0.46875 -2.332031 0.46875 -2.90625 C 0.46875 -3.550781 0.535156 -4.101562 0.671875 -4.5625 C 0.816406 -5.019531 1.023438 -5.363281 1.296875 -5.59375 C 1.578125 -5.832031 1.921875 -5.953125 2.328125 -5.953125 Z M 2.328125 -5.28125 C 2.015625 -5.28125 1.769531 -5.128906 1.59375 -4.828125 C 1.425781 -4.535156 1.328125 -4.070312 1.296875 -3.4375 L 3.3125 -3.4375 C 3.3125 -3.769531 3.273438 -4.078125 3.203125 -4.359375 C 3.140625 -4.640625 3.035156 -4.863281 2.890625 -5.03125 C 2.742188 -5.195312 2.554688 -5.28125 2.328125 -5.28125 Z M 2.328125 -5.28125 "/></g></g></g><g fill="#2d6d5e" fill-opacity="1"><g transform="translate(94.052413, 122.46422)"><g><path d="M 2.171875 0.109375 C 1.609375 0.109375 1.179688 -0.144531 0.890625 -0.65625 C 0.609375 -1.175781 0.46875 -1.929688 0.46875 -2.921875 C 0.46875 -3.898438 0.613281 -4.648438 0.90625 -5.171875 C 1.195312 -5.703125 1.609375 -5.96875 2.140625 -5.96875 C 2.335938 -5.96875 2.519531 -5.929688 2.6875 -5.859375 C 2.851562 -5.785156 3 -5.679688 3.125 -5.546875 C 3.257812 -5.410156 3.375 -5.25 3.46875 -5.0625 L 3.515625 -5.0625 C 3.503906 -5.226562 3.492188 -5.375 3.484375 -5.5 C 3.484375 -5.632812 3.484375 -5.757812 3.484375 -5.875 L 3.484375 -8.3125 L 4.296875 -8.3125 L 4.296875 0 L 3.640625 0 L 3.53125 -0.796875 L 3.484375 -0.796875 C 3.378906 -0.609375 3.265625 -0.445312 3.140625 -0.3125 C 3.015625 -0.175781 2.875 -0.0703125 2.71875 0 C 2.5625 0.0703125 2.378906 0.109375 2.171875 0.109375 Z M 2.359375 -0.59375 C 2.722656 -0.59375 3 -0.765625 3.1875 -1.109375 C 3.382812 -1.453125 3.484375 -1.960938 3.484375 -2.640625 L 3.484375 -3.046875 C 3.484375 -3.785156 3.390625 -4.332031 3.203125 -4.6875 C 3.023438 -5.050781 2.738281 -5.234375 2.34375 -5.234375 C 1.988281 -5.234375 1.722656 -5.035156 1.546875 -4.640625 C 1.378906 -4.242188 1.296875 -3.671875 1.296875 -2.921875 C 1.296875 -2.148438 1.378906 -1.566406 1.546875 -1.171875 C 1.722656 -0.785156 1.992188 -0.59375 2.359375 -0.59375 Z M 2.359375 -0.59375 "/></g></g></g><g fill="#2d6d5e" fill-opacity="1"><g transform="translate(100.591126, 122.46422)"><g/></g></g><g fill="#2d6d5e" fill-opacity="1"><g transform="translate(104.154105, 122.46422)"><g><path d="M 2.09375 -0.625 C 2.1875 -0.625 2.273438 -0.628906 2.359375 -0.640625 C 2.453125 -0.660156 2.535156 -0.691406 2.609375 -0.734375 L 2.609375 -0.0625 C 2.503906 -0.0078125 2.382812 0.03125 2.25 0.0625 C 2.125 0.09375 1.984375 0.109375 1.828125 0.109375 C 1.578125 0.109375 1.367188 0.0507812 1.203125 -0.0625 C 1.046875 -0.175781 0.925781 -0.34375 0.84375 -0.5625 C 0.769531 -0.789062 0.734375 -1.078125 0.734375 -1.421875 L 0.734375 -5.171875 L 0.1875 -5.171875 L 0.1875 -5.625 L 0.78125 -5.84375 L 1 -7.1875 L 1.5625 -7.1875 L 1.5625 -5.859375 L 2.546875 -5.859375 L 2.546875 -5.171875 L 1.5625 -5.171875 L 1.5625 -1.515625 C 1.5625 -1.210938 1.597656 -0.988281 1.671875 -0.84375 C 1.742188 -0.695312 1.882812 -0.625 2.09375 -0.625 Z M 2.09375 -0.625 "/></g></g></g><g fill="#2d6d5e" fill-opacity="1"><g transform="translate(108.459682, 122.46422)"><g><path d="M 4.359375 -2.9375 C 4.359375 -2.476562 4.316406 -2.0625 4.234375 -1.6875 C 4.160156 -1.3125 4.039062 -0.988281 3.875 -0.71875 C 3.71875 -0.457031 3.515625 -0.253906 3.265625 -0.109375 C 3.023438 0.0351562 2.734375 0.109375 2.390625 0.109375 C 2.078125 0.109375 1.796875 0.0351562 1.546875 -0.109375 C 1.304688 -0.253906 1.101562 -0.457031 0.9375 -0.71875 C 0.78125 -0.976562 0.660156 -1.296875 0.578125 -1.671875 C 0.503906 -2.054688 0.46875 -2.476562 0.46875 -2.9375 C 0.46875 -3.582031 0.535156 -4.128906 0.671875 -4.578125 C 0.804688 -5.035156 1.019531 -5.378906 1.3125 -5.609375 C 1.601562 -5.847656 1.96875 -5.96875 2.40625 -5.96875 C 2.820312 -5.96875 3.175781 -5.851562 3.46875 -5.625 C 3.757812 -5.394531 3.976562 -5.054688 4.125 -4.609375 C 4.28125 -4.160156 4.359375 -3.601562 4.359375 -2.9375 Z M 1.296875 -2.9375 C 1.296875 -2.425781 1.332031 -2 1.40625 -1.65625 C 1.488281 -1.3125 1.613281 -1.050781 1.78125 -0.875 C 1.945312 -0.695312 2.160156 -0.609375 2.421875 -0.609375 C 2.671875 -0.609375 2.875 -0.691406 3.03125 -0.859375 C 3.195312 -1.035156 3.316406 -1.296875 3.390625 -1.640625 C 3.472656 -1.984375 3.515625 -2.414062 3.515625 -2.9375 C 3.515625 -3.445312 3.472656 -3.875 3.390625 -4.21875 C 3.316406 -4.5625 3.195312 -4.816406 3.03125 -4.984375 C 2.875 -5.160156 2.664062 -5.25 2.40625 -5.25 C 2.019531 -5.25 1.738281 -5.054688 1.5625 -4.671875 C 1.382812 -4.285156 1.296875 -3.707031 1.296875 -2.9375 Z M 1.296875 -2.9375 "/></g></g></g><g fill="#2d6d5e" fill-opacity="1"><g transform="translate(41.085009, 135.155191)"><g><path d="M 3.328125 -1.546875 C 3.328125 -1.191406 3.257812 -0.890625 3.125 -0.640625 C 3 -0.398438 2.8125 -0.210938 2.5625 -0.078125 C 2.320312 0.046875 2.03125 0.109375 1.6875 0.109375 C 1.414062 0.109375 1.164062 0.078125 0.9375 0.015625 C 0.71875 -0.046875 0.53125 -0.125 0.375 -0.21875 L 0.375 -1.078125 C 0.53125 -0.941406 0.722656 -0.832031 0.953125 -0.75 C 1.179688 -0.664062 1.414062 -0.625 1.65625 -0.625 C 1.925781 -0.625 2.132812 -0.703125 2.28125 -0.859375 C 2.4375 -1.015625 2.515625 -1.234375 2.515625 -1.515625 C 2.515625 -1.679688 2.484375 -1.828125 2.421875 -1.953125 C 2.359375 -2.078125 2.257812 -2.195312 2.125 -2.3125 C 1.988281 -2.425781 1.816406 -2.546875 1.609375 -2.671875 C 1.359375 -2.816406 1.140625 -2.96875 0.953125 -3.125 C 0.765625 -3.289062 0.617188 -3.476562 0.515625 -3.6875 C 0.421875 -3.894531 0.375 -4.144531 0.375 -4.4375 C 0.375 -4.894531 0.519531 -5.265625 0.8125 -5.546875 C 1.113281 -5.828125 1.503906 -5.96875 1.984375 -5.96875 C 2.234375 -5.96875 2.46875 -5.9375 2.6875 -5.875 C 2.90625 -5.8125 3.113281 -5.71875 3.3125 -5.59375 L 3 -4.9375 C 2.851562 -5.039062 2.691406 -5.117188 2.515625 -5.171875 C 2.347656 -5.234375 2.175781 -5.265625 2 -5.265625 C 1.738281 -5.265625 1.53125 -5.191406 1.375 -5.046875 C 1.226562 -4.898438 1.15625 -4.707031 1.15625 -4.46875 C 1.15625 -4.300781 1.1875 -4.15625 1.25 -4.03125 C 1.3125 -3.914062 1.410156 -3.800781 1.546875 -3.6875 C 1.679688 -3.582031 1.863281 -3.460938 2.09375 -3.328125 C 2.34375 -3.171875 2.554688 -3.015625 2.734375 -2.859375 C 2.921875 -2.703125 3.066406 -2.519531 3.171875 -2.3125 C 3.273438 -2.101562 3.328125 -1.847656 3.328125 -1.546875 Z M 3.328125 -1.546875 "/></g></g></g><g fill="#2d6d5e" fill-opacity="1"><g transform="translate(46.293457, 135.155191)"><g><path d="M 1.53125 0 L 0.71875 0 L 0.71875 -8.3125 L 1.53125 -8.3125 Z M 1.53125 0 "/></g></g></g><g fill="#2d6d5e" fill-opacity="1"><g transform="translate(50.070133, 135.155191)"><g><path d="M 4.359375 -2.9375 C 4.359375 -2.476562 4.316406 -2.0625 4.234375 -1.6875 C 4.160156 -1.3125 4.039062 -0.988281 3.875 -0.71875 C 3.71875 -0.457031 3.515625 -0.253906 3.265625 -0.109375 C 3.023438 0.0351562 2.734375 0.109375 2.390625 0.109375 C 2.078125 0.109375 1.796875 0.0351562 1.546875 -0.109375 C 1.304688 -0.253906 1.101562 -0.457031 0.9375 -0.71875 C 0.78125 -0.976562 0.660156 -1.296875 0.578125 -1.671875 C 0.503906 -2.054688 0.46875 -2.476562 0.46875 -2.9375 C 0.46875 -3.582031 0.535156 -4.128906 0.671875 -4.578125 C 0.804688 -5.035156 1.019531 -5.378906 1.3125 -5.609375 C 1.601562 -5.847656 1.96875 -5.96875 2.40625 -5.96875 C 2.820312 -5.96875 3.175781 -5.851562 3.46875 -5.625 C 3.757812 -5.394531 3.976562 -5.054688 4.125 -4.609375 C 4.28125 -4.160156 4.359375 -3.601562 4.359375 -2.9375 Z M 1.296875 -2.9375 C 1.296875 -2.425781 1.332031 -2 1.40625 -1.65625 C 1.488281 -1.3125 1.613281 -1.050781 1.78125 -0.875 C 1.945312 -0.695312 2.160156 -0.609375 2.421875 -0.609375 C 2.671875 -0.609375 2.875 -0.691406 3.03125 -0.859375 C 3.195312 -1.035156 3.316406 -1.296875 3.390625 -1.640625 C 3.472656 -1.984375 3.515625 -2.414062 3.515625 -2.9375 C 3.515625 -3.445312 3.472656 -3.875 3.390625 -4.21875 C 3.316406 -4.5625 3.195312 -4.816406 3.03125 -4.984375 C 2.875 -5.160156 2.664062 -5.25 2.40625 -5.25 C 2.019531 -5.25 1.738281 -5.054688 1.5625 -4.671875 C 1.382812 -4.285156 1.296875 -3.707031 1.296875 -2.9375 Z M 1.296875 -2.9375 "/></g></g></g><g fill="#2d6d5e" fill-opacity="1"><g transform="translate(56.421861, 135.155191)"><g><path d="M 4.171875 0 L 3.46875 -3.640625 C 3.445312 -3.734375 3.425781 -3.832031 3.40625 -3.9375 C 3.394531 -4.050781 3.378906 -4.160156 3.359375 -4.265625 C 3.347656 -4.367188 3.332031 -4.472656 3.3125 -4.578125 C 3.300781 -4.691406 3.289062 -4.796875 3.28125 -4.890625 L 3.25 -4.890625 C 3.226562 -4.785156 3.207031 -4.675781 3.1875 -4.5625 C 3.175781 -4.457031 3.160156 -4.351562 3.140625 -4.25 C 3.128906 -4.144531 3.113281 -4.039062 3.09375 -3.9375 C 3.082031 -3.832031 3.066406 -3.734375 3.046875 -3.640625 L 2.296875 0 L 1.359375 0 L 0.09375 -5.859375 L 0.921875 -5.859375 L 1.546875 -2.8125 C 1.578125 -2.613281 1.609375 -2.414062 1.640625 -2.21875 C 1.679688 -2.019531 1.71875 -1.816406 1.75 -1.609375 C 1.78125 -1.410156 1.8125 -1.210938 1.84375 -1.015625 L 1.875 -1.015625 C 1.894531 -1.140625 1.910156 -1.269531 1.921875 -1.40625 C 1.941406 -1.539062 1.960938 -1.679688 1.984375 -1.828125 C 2.015625 -1.984375 2.039062 -2.140625 2.0625 -2.296875 C 2.09375 -2.453125 2.128906 -2.613281 2.171875 -2.78125 L 2.796875 -5.859375 L 3.71875 -5.859375 L 4.34375 -2.765625 C 4.375 -2.628906 4.40625 -2.472656 4.4375 -2.296875 C 4.46875 -2.117188 4.5 -1.921875 4.53125 -1.703125 C 4.5625 -1.492188 4.597656 -1.265625 4.640625 -1.015625 L 4.671875 -1.015625 C 4.679688 -1.117188 4.691406 -1.234375 4.703125 -1.359375 C 4.722656 -1.484375 4.742188 -1.617188 4.765625 -1.765625 C 4.796875 -1.910156 4.828125 -2.070312 4.859375 -2.25 L 5.609375 -5.859375 L 6.40625 -5.859375 L 5.109375 0 Z M 4.171875 0 "/></g></g></g><g fill="#2d6d5e" fill-opacity="1"><g transform="translate(64.461797, 135.155191)"><g/></g></g><g fill="#2d6d5e" fill-opacity="1"><g transform="translate(68.024777, 135.155191)"><g><path d="M 2.171875 0.109375 C 1.609375 0.109375 1.179688 -0.144531 0.890625 -0.65625 C 0.609375 -1.175781 0.46875 -1.929688 0.46875 -2.921875 C 0.46875 -3.898438 0.613281 -4.648438 0.90625 -5.171875 C 1.195312 -5.703125 1.609375 -5.96875 2.140625 -5.96875 C 2.335938 -5.96875 2.519531 -5.929688 2.6875 -5.859375 C 2.851562 -5.785156 3 -5.679688 3.125 -5.546875 C 3.257812 -5.410156 3.375 -5.25 3.46875 -5.0625 L 3.515625 -5.0625 C 3.503906 -5.226562 3.492188 -5.375 3.484375 -5.5 C 3.484375 -5.632812 3.484375 -5.757812 3.484375 -5.875 L 3.484375 -8.3125 L 4.296875 -8.3125 L 4.296875 0 L 3.640625 0 L 3.53125 -0.796875 L 3.484375 -0.796875 C 3.378906 -0.609375 3.265625 -0.445312 3.140625 -0.3125 C 3.015625 -0.175781 2.875 -0.0703125 2.71875 0 C 2.5625 0.0703125 2.378906 0.109375 2.171875 0.109375 Z M 2.359375 -0.59375 C 2.722656 -0.59375 3 -0.765625 3.1875 -1.109375 C 3.382812 -1.453125 3.484375 -1.960938 3.484375 -2.640625 L 3.484375 -3.046875 C 3.484375 -3.785156 3.390625 -4.332031 3.203125 -4.6875 C 3.023438 -5.050781 2.738281 -5.234375 2.34375 -5.234375 C 1.988281 -5.234375 1.722656 -5.035156 1.546875 -4.640625 C 1.378906 -4.242188 1.296875 -3.671875 1.296875 -2.921875 C 1.296875 -2.148438 1.378906 -1.566406 1.546875 -1.171875 C 1.722656 -0.785156 1.992188 -0.59375 2.359375 -0.59375 Z M 2.359375 -0.59375 "/></g></g></g><g fill="#2d6d5e" fill-opacity="1"><g transform="translate(74.563489, 135.155191)"><g><path d="M 4.359375 -2.9375 C 4.359375 -2.476562 4.316406 -2.0625 4.234375 -1.6875 C 4.160156 -1.3125 4.039062 -0.988281 3.875 -0.71875 C 3.71875 -0.457031 3.515625 -0.253906 3.265625 -0.109375 C 3.023438 0.0351562 2.734375 0.109375 2.390625 0.109375 C 2.078125 0.109375 1.796875 0.0351562 1.546875 -0.109375 C 1.304688 -0.253906 1.101562 -0.457031 0.9375 -0.71875 C 0.78125 -0.976562 0.660156 -1.296875 0.578125 -1.671875 C 0.503906 -2.054688 0.46875 -2.476562 0.46875 -2.9375 C 0.46875 -3.582031 0.535156 -4.128906 0.671875 -4.578125 C 0.804688 -5.035156 1.019531 -5.378906 1.3125 -5.609375 C 1.601562 -5.847656 1.96875 -5.96875 2.40625 -5.96875 C 2.820312 -5.96875 3.175781 -5.851562 3.46875 -5.625 C 3.757812 -5.394531 3.976562 -5.054688 4.125 -4.609375 C 4.28125 -4.160156 4.359375 -3.601562 4.359375 -2.9375 Z M 1.296875 -2.9375 C 1.296875 -2.425781 1.332031 -2 1.40625 -1.65625 C 1.488281 -1.3125 1.613281 -1.050781 1.78125 -0.875 C 1.945312 -0.695312 2.160156 -0.609375 2.421875 -0.609375 C 2.671875 -0.609375 2.875 -0.691406 3.03125 -0.859375 C 3.195312 -1.035156 3.316406 -1.296875 3.390625 -1.640625 C 3.472656 -1.984375 3.515625 -2.414062 3.515625 -2.9375 C 3.515625 -3.445312 3.472656 -3.875 3.390625 -4.21875 C 3.316406 -4.5625 3.195312 -4.816406 3.03125 -4.984375 C 2.875 -5.160156 2.664062 -5.25 2.40625 -5.25 C 2.019531 -5.25 1.738281 -5.054688 1.5625 -4.671875 C 1.382812 -4.285156 1.296875 -3.707031 1.296875 -2.9375 Z M 1.296875 -2.9375 "/></g></g></g><g fill="#2d6d5e" fill-opacity="1"><g transform="translate(80.915217, 135.155191)"><g><path d="M 4.171875 0 L 3.46875 -3.640625 C 3.445312 -3.734375 3.425781 -3.832031 3.40625 -3.9375 C 3.394531 -4.050781 3.378906 -4.160156 3.359375 -4.265625 C 3.347656 -4.367188 3.332031 -4.472656 3.3125 -4.578125 C 3.300781 -4.691406 3.289062 -4.796875 3.28125 -4.890625 L 3.25 -4.890625 C 3.226562 -4.785156 3.207031 -4.675781 3.1875 -4.5625 C 3.175781 -4.457031 3.160156 -4.351562 3.140625 -4.25 C 3.128906 -4.144531 3.113281 -4.039062 3.09375 -3.9375 C 3.082031 -3.832031 3.066406 -3.734375 3.046875 -3.640625 L 2.296875 0 L 1.359375 0 L 0.09375 -5.859375 L 0.921875 -5.859375 L 1.546875 -2.8125 C 1.578125 -2.613281 1.609375 -2.414062 1.640625 -2.21875 C 1.679688 -2.019531 1.71875 -1.816406 1.75 -1.609375 C 1.78125 -1.410156 1.8125 -1.210938 1.84375 -1.015625 L 1.875 -1.015625 C 1.894531 -1.140625 1.910156 -1.269531 1.921875 -1.40625 C 1.941406 -1.539062 1.960938 -1.679688 1.984375 -1.828125 C 2.015625 -1.984375 2.039062 -2.140625 2.0625 -2.296875 C 2.09375 -2.453125 2.128906 -2.613281 2.171875 -2.78125 L 2.796875 -5.859375 L 3.71875 -5.859375 L 4.34375 -2.765625 C 4.375 -2.628906 4.40625 -2.472656 4.4375 -2.296875 C 4.46875 -2.117188 4.5 -1.921875 4.53125 -1.703125 C 4.5625 -1.492188 4.597656 -1.265625 4.640625 -1.015625 L 4.671875 -1.015625 C 4.679688 -1.117188 4.691406 -1.234375 4.703125 -1.359375 C 4.722656 -1.484375 4.742188 -1.617188 4.765625 -1.765625 C 4.796875 -1.910156 4.828125 -2.070312 4.859375 -2.25 L 5.609375 -5.859375 L 6.40625 -5.859375 L 5.109375 0 Z M 4.171875 0 "/></g></g></g><g fill="#2d6d5e" fill-opacity="1"><g transform="translate(88.955153, 135.155191)"><g><path d="M 2.828125 -5.96875 C 3.285156 -5.96875 3.632812 -5.804688 3.875 -5.484375 C 4.113281 -5.160156 4.234375 -4.664062 4.234375 -4 L 4.234375 0 L 3.40625 0 L 3.40625 -3.828125 C 3.40625 -4.304688 3.34375 -4.660156 3.21875 -4.890625 C 3.101562 -5.128906 2.914062 -5.25 2.65625 -5.25 C 2.269531 -5.25 1.984375 -5.078125 1.796875 -4.734375 C 1.617188 -4.390625 1.53125 -3.84375 1.53125 -3.09375 L 1.53125 0 L 0.71875 0 L 0.71875 -5.859375 L 1.375 -5.859375 L 1.46875 -5.015625 L 1.515625 -5.015625 C 1.597656 -5.210938 1.703125 -5.378906 1.828125 -5.515625 C 1.960938 -5.660156 2.113281 -5.769531 2.28125 -5.84375 C 2.445312 -5.925781 2.628906 -5.96875 2.828125 -5.96875 Z M 2.828125 -5.96875 "/></g></g></g><g clip-path="url(#8cb681b04d)"><path fill="#0661aa" d="M 101.402344 62.199219 C 100.980469 61.863281 100.496094 61.703125 99.957031 61.710938 C 99.570312 61.714844 99.195312 61.792969 98.839844 61.949219 L 98.246094 61.78125 L 95.578125 61.03125 C 95.296875 60.945312 92.703125 60.15625 91.359375 60.078125 C 87.195312 58.558594 84.6875 57.855469 83.378906 57.507812 C 83.242188 56.808594 83.035156 56.042969 82.800781 55.191406 C 82.273438 53.257812 81.617188 50.851562 81.359375 47.605469 C 80.945312 42.453125 76.640625 40.367188 74.355469 39.960938 C 71.71875 39.128906 70.089844 38.757812 67.496094 38.757812 C 64.90625 38.757812 63.277344 39.128906 60.636719 39.960938 C 58.351562 40.367188 54.050781 42.453125 53.636719 47.605469 C 53.378906 50.851562 52.722656 53.257812 52.195312 55.191406 C 51.960938 56.042969 51.753906 56.808594 51.617188 57.507812 C 50.304688 57.855469 47.800781 58.558594 43.636719 60.078125 C 42.289062 60.15625 39.695312 60.945312 39.390625 61.039062 L 36.75 61.78125 L 36.15625 61.949219 C 35.796875 61.792969 35.425781 61.714844 35.039062 61.710938 C 34.496094 61.703125 34.015625 61.863281 33.59375 62.199219 L 31.53125 63.964844 L 34.171875 63.964844 C 34.339844 64.058594 34.6875 64.398438 34.949219 64.652344 C 35.835938 65.515625 37.054688 66.699219 38.894531 66.929688 C 39.128906 66.960938 39.363281 66.972656 39.601562 66.972656 C 40.238281 66.96875 40.859375 66.871094 41.46875 66.683594 C 41.328125 66.953125 41.222656 67.238281 41.144531 67.535156 L 41.132812 67.65625 C 41.132812 70.273438 43.0625 73.929688 52.265625 76.476562 C 57.382812 77.890625 62.8125 78.378906 67.445312 78.378906 C 69.636719 78.386719 71.828125 78.269531 74.007812 78.027344 C 74.160156 78.070312 74.3125 78.109375 74.460938 78.15625 L 74.570312 78.191406 L 74.683594 78.171875 C 77.886719 77.695312 80.597656 77.121094 82.738281 76.472656 C 90.121094 74.234375 93.863281 71.265625 93.863281 67.65625 L 93.851562 67.535156 C 93.773438 67.238281 93.667969 66.953125 93.527344 66.683594 C 94.136719 66.875 94.757812 66.96875 95.394531 66.972656 C 95.628906 66.972656 95.867188 66.960938 96.101562 66.929688 C 97.9375 66.699219 99.15625 65.515625 100.046875 64.652344 C 100.308594 64.398438 100.65625 64.058594 100.824219 63.964844 L 103.464844 63.964844 Z M 74.082031 77 C 73.628906 77.054688 73.15625 77.105469 72.652344 77.148438 C 72.078125 77.199219 71.460938 77.238281 70.824219 77.269531 C 65.695312 77.542969 58.808594 77.242188 52.535156 75.507812 C 45.773438 73.636719 42.179688 70.945312 42.136719 67.71875 C 42.300781 67.113281 42.683594 66.464844 43.3125 65.894531 C 43.800781 65.460938 44.34375 65.121094 44.949219 64.875 C 46.402344 64.265625 48.421875 64.019531 51.085938 64.570312 C 51.84375 64.722656 53.980469 65.65625 56.753906 66.945312 C 57.050781 67.085938 57.355469 67.226562 57.667969 67.371094 C 60.117188 68.523438 62.96875 69.902344 65.78125 71.257812 L 66.476562 71.59375 L 67.0625 71.878906 L 67.648438 72.160156 C 69.558594 73.082031 71.460938 73.996094 73.273438 74.855469 C 73.671875 75.046875 74.0625 75.230469 74.453125 75.414062 C 75.292969 75.808594 76.109375 76.191406 76.886719 76.546875 C 75.957031 76.746094 75.023438 76.898438 74.082031 77 Z M 53.09375 64.21875 L 55.226562 64.21875 L 55.527344 63.863281 C 57.007812 62.128906 59.046875 58.644531 59.894531 54.820312 C 60.175781 56.167969 60.339844 57.527344 60.394531 58.902344 C 59.9375 60.933594 58.292969 64.140625 57.242188 66.0625 C 55.578125 65.289062 54.164062 64.65625 53.09375 64.21875 Z M 82.449219 75.511719 C 81.421875 75.824219 80.253906 76.117188 78.964844 76.390625 L 78.519531 76.191406 C 77.574219 75.761719 76.550781 75.289062 75.484375 74.789062 C 75.128906 74.621094 74.773438 74.453125 74.410156 74.28125 C 72.621094 73.4375 70.730469 72.53125 68.820312 71.609375 C 71.347656 70.421875 73.761719 69.242188 75.84375 68.226562 C 76.375 67.964844 76.886719 67.714844 77.386719 67.472656 C 77.699219 67.320312 77.996094 67.175781 78.292969 67.035156 C 81.042969 65.699219 83.128906 64.730469 83.910156 64.570312 C 86.574219 64.019531 88.59375 64.265625 90.046875 64.875 C 90.652344 65.121094 91.195312 65.460938 91.683594 65.894531 C 92.3125 66.464844 92.695312 67.113281 92.859375 67.71875 C 92.8125 70.808594 89.3125 73.429688 82.449219 75.511719 Z M 74.601562 58.902344 C 74.65625 57.527344 74.820312 56.167969 75.101562 54.820312 C 75.949219 58.644531 77.984375 62.128906 79.464844 63.863281 L 79.765625 64.21875 L 81.957031 64.21875 C 80.898438 64.671875 79.488281 65.335938 77.800781 66.152344 C 76.753906 64.242188 75.066406 60.964844 74.601562 58.902344 Z M 95.976562 65.933594 C 95.796875 65.957031 95.613281 65.964844 95.429688 65.96875 C 95.394531 65.96875 95.359375 65.96875 95.324219 65.964844 C 95.078125 65.960938 94.835938 65.9375 94.59375 65.898438 C 94.566406 65.894531 94.539062 65.894531 94.515625 65.886719 C 94.253906 65.839844 94 65.777344 93.746094 65.695312 C 93.699219 65.679688 93.648438 65.664062 93.597656 65.648438 C 93.34375 65.5625 93.085938 65.460938 92.820312 65.339844 C 92.773438 65.320312 92.726562 65.296875 92.679688 65.277344 C 92.523438 65.203125 92.363281 65.117188 92.203125 65.03125 C 91.707031 64.617188 91.164062 64.277344 90.570312 64.015625 C 89.902344 63.546875 89.324219 63.210938 87.984375 63.210938 L 80.230469 63.210938 C 78.410156 61.078125 75.710938 56.078125 75.710938 51.410156 C 75.835938 50.089844 77.234375 47.957031 77.234375 47.957031 C 76.242188 48.203125 73.828125 52.539062 73.589844 58.988281 C 74.042969 61.15625 75.800781 64.59375 76.898438 66.59375 C 76.417969 66.828125 75.917969 67.070312 75.402344 67.320312 C 73.121094 68.4375 70.441406 69.742188 67.652344 71.046875 L 66.21875 70.355469 C 63.28125 68.9375 60.515625 67.601562 58.15625 66.492188 C 59.253906 64.476562 60.960938 61.121094 61.402344 58.988281 C 61.167969 52.539062 58.753906 48.203125 57.757812 47.957031 C 57.757812 47.957031 59.160156 50.089844 59.285156 51.410156 C 59.285156 56.074219 56.585938 61.078125 54.765625 63.210938 L 47.011719 63.210938 C 45.664062 63.210938 45.085938 63.550781 44.414062 64.023438 C 43.828125 64.28125 43.289062 64.617188 42.796875 65.03125 C 42.636719 65.113281 42.472656 65.203125 42.3125 65.273438 C 42.269531 65.296875 42.21875 65.320312 42.175781 65.339844 C 41.910156 65.460938 41.652344 65.5625 41.394531 65.648438 C 41.347656 65.664062 41.296875 65.679688 41.25 65.695312 C 40.996094 65.777344 40.742188 65.839844 40.480469 65.886719 C 40.453125 65.894531 40.425781 65.894531 40.402344 65.898438 C 40.160156 65.9375 39.914062 65.960938 39.671875 65.964844 C 39.648438 65.964844 39.625 65.96875 39.601562 65.96875 C 39.40625 65.96875 39.210938 65.957031 39.019531 65.933594 C 36.5 65.617188 35.25 62.960938 34.246094 62.960938 C 34.246094 62.960938 34.261719 62.949219 34.292969 62.929688 C 34.335938 62.898438 34.382812 62.875 34.429688 62.851562 C 34.449219 62.839844 34.476562 62.832031 34.503906 62.820312 C 34.550781 62.800781 34.601562 62.785156 34.648438 62.769531 C 34.6875 62.761719 34.722656 62.753906 34.761719 62.746094 C 34.828125 62.734375 34.890625 62.726562 34.953125 62.726562 C 34.984375 62.722656 35.007812 62.714844 35.039062 62.714844 C 35.0625 62.714844 35.089844 62.722656 35.117188 62.722656 C 35.160156 62.726562 35.203125 62.730469 35.25 62.734375 C 35.324219 62.746094 35.398438 62.761719 35.472656 62.78125 C 35.523438 62.792969 35.570312 62.808594 35.621094 62.824219 C 35.714844 62.859375 35.808594 62.902344 35.898438 62.945312 C 35.945312 62.972656 35.992188 62.988281 36.042969 63.019531 C 36.207031 63.113281 36.359375 63.21875 36.507812 63.335938 C 36.6875 63.484375 36.875 63.617188 37.074219 63.738281 C 37.132812 63.777344 37.195312 63.804688 37.253906 63.839844 C 37.375 63.910156 37.5 63.972656 37.628906 64.027344 C 37.695312 64.054688 37.765625 64.078125 37.832031 64.105469 C 37.945312 64.144531 38.058594 64.175781 38.171875 64.203125 C 38.238281 64.222656 38.304688 64.234375 38.371094 64.246094 C 38.484375 64.265625 38.59375 64.277344 38.707031 64.28125 C 38.75 64.28125 38.792969 64.292969 38.832031 64.292969 C 39.054688 64.285156 39.273438 64.257812 39.488281 64.203125 C 39.527344 64.191406 39.570312 64.179688 39.609375 64.167969 C 39.8125 64.109375 40.003906 64.027344 40.1875 63.925781 C 40.511719 63.734375 40.8125 63.511719 41.089844 63.253906 C 41.089844 63.253906 40.960938 63.257812 40.757812 63.261719 C 40.671875 63.261719 40.566406 63.265625 40.453125 63.265625 L 40.367188 63.269531 C 40.242188 63.269531 40.113281 63.269531 39.972656 63.273438 C 39.84375 63.273438 39.707031 63.273438 39.570312 63.277344 L 39.457031 63.277344 C 39.421875 63.277344 39.386719 63.277344 39.351562 63.277344 C 39.25 63.277344 39.148438 63.277344 39.046875 63.273438 C 38.917969 63.273438 38.796875 63.269531 38.683594 63.269531 L 38.597656 63.265625 C 38.484375 63.261719 38.382812 63.257812 38.296875 63.253906 C 37.710938 63.210938 37.019531 62.746094 37.019531 62.746094 L 39.6875 62 C 39.6875 62 42.671875 61.082031 43.832031 61.078125 C 48.855469 59.238281 51.417969 58.597656 52.503906 58.316406 C 52.777344 56.089844 54.21875 52.945312 54.640625 47.683594 C 55.101562 41.886719 60.875 40.941406 60.875 40.941406 C 63.355469 40.15625 64.925781 39.761719 67.496094 39.761719 C 70.070312 39.761719 71.636719 40.15625 74.121094 40.941406 C 74.121094 40.941406 79.890625 41.886719 80.355469 47.683594 C 80.777344 52.945312 82.21875 56.089844 82.492188 58.316406 C 83.578125 58.597656 86.140625 59.238281 91.164062 61.078125 C 92.324219 61.082031 95.308594 62 95.308594 62 L 97.972656 62.75 C 97.972656 62.75 97.285156 63.214844 96.695312 63.253906 C 96.613281 63.261719 96.507812 63.265625 96.398438 63.269531 L 96.3125 63.269531 C 96.109375 63.273438 95.882812 63.277344 95.640625 63.277344 C 95.605469 63.277344 95.570312 63.277344 95.535156 63.277344 L 95.421875 63.277344 C 95.289062 63.277344 95.152344 63.277344 95.023438 63.273438 C 94.882812 63.273438 94.753906 63.269531 94.628906 63.269531 L 94.539062 63.269531 C 94.429688 63.265625 94.324219 63.265625 94.234375 63.261719 C 94.03125 63.257812 93.90625 63.253906 93.90625 63.253906 C 94.179688 63.511719 94.480469 63.738281 94.808594 63.925781 C 94.988281 64.027344 95.183594 64.109375 95.382812 64.167969 C 95.425781 64.179688 95.464844 64.195312 95.507812 64.203125 C 95.707031 64.257812 95.914062 64.285156 96.121094 64.289062 C 96.175781 64.289062 96.230469 64.289062 96.285156 64.28125 C 96.398438 64.277344 96.511719 64.265625 96.625 64.246094 C 96.6875 64.238281 96.753906 64.222656 96.820312 64.207031 C 96.9375 64.179688 97.050781 64.144531 97.164062 64.105469 C 97.230469 64.082031 97.296875 64.058594 97.367188 64.027344 C 97.492188 63.972656 97.621094 63.910156 97.742188 63.839844 C 97.800781 63.808594 97.859375 63.777344 97.921875 63.742188 C 98.121094 63.621094 98.308594 63.484375 98.488281 63.339844 C 98.632812 63.21875 98.789062 63.113281 98.953125 63.019531 C 99 62.988281 99.046875 62.972656 99.097656 62.949219 C 99.1875 62.902344 99.277344 62.859375 99.371094 62.824219 C 99.425781 62.808594 99.472656 62.796875 99.519531 62.78125 C 99.59375 62.761719 99.671875 62.746094 99.746094 62.734375 C 99.792969 62.730469 99.835938 62.726562 99.878906 62.722656 C 99.902344 62.722656 99.933594 62.714844 99.957031 62.714844 C 99.988281 62.714844 100.011719 62.722656 100.039062 62.726562 C 100.105469 62.730469 100.167969 62.734375 100.230469 62.746094 C 100.273438 62.753906 100.308594 62.761719 100.34375 62.773438 C 100.394531 62.785156 100.445312 62.800781 100.492188 62.824219 C 100.519531 62.832031 100.542969 62.84375 100.566406 62.851562 C 100.601562 62.871094 100.636719 62.886719 100.667969 62.910156 C 100.730469 62.949219 100.75 62.960938 100.75 62.960938 C 99.742188 62.960938 98.496094 65.617188 95.976562 65.933594 Z M 66.085938 36.539062 C 66.554688 36.636719 67.03125 36.6875 67.511719 36.6875 C 67.804688 36.6875 68.097656 36.667969 68.386719 36.628906 C 68.675781 36.59375 68.964844 36.539062 69.246094 36.464844 C 69.53125 36.390625 69.808594 36.300781 70.082031 36.191406 C 70.351562 36.082031 70.617188 35.957031 70.875 35.8125 C 71.128906 35.671875 71.375 35.515625 71.609375 35.339844 C 71.847656 35.167969 72.070312 34.980469 72.285156 34.777344 C 72.496094 34.574219 72.695312 34.363281 72.878906 34.132812 C 73.066406 33.90625 73.234375 33.667969 73.390625 33.421875 C 73.542969 33.171875 73.683594 32.914062 73.804688 32.648438 C 73.929688 32.382812 74.03125 32.109375 74.121094 31.832031 C 74.207031 31.550781 74.277344 31.265625 74.328125 30.980469 C 74.382812 30.691406 74.414062 30.398438 74.429688 30.109375 C 74.445312 29.816406 74.441406 29.523438 74.417969 29.230469 C 74.398438 28.9375 74.355469 28.648438 74.296875 28.363281 C 74.238281 28.074219 74.164062 27.792969 74.066406 27.515625 C 73.972656 27.238281 73.863281 26.96875 73.734375 26.707031 C 73.605469 26.441406 73.457031 26.1875 73.296875 25.945312 C 73.136719 25.699219 72.960938 25.464844 72.769531 25.242188 C 72.578125 25.019531 72.375 24.8125 72.160156 24.613281 C 71.941406 24.417969 71.714844 24.238281 71.472656 24.070312 C 71.234375 23.902344 70.984375 23.75 70.722656 23.613281 C 70.464844 23.476562 70.195312 23.359375 69.921875 23.257812 C 69.648438 23.15625 69.367188 23.070312 69.082031 23.003906 C 68.796875 22.9375 68.507812 22.886719 68.21875 22.859375 C 67.925781 22.828125 67.632812 22.816406 67.34375 22.824219 C 67.050781 22.832031 66.757812 22.855469 66.46875 22.898438 C 66.179688 22.945312 65.894531 23.003906 65.609375 23.085938 C 65.328125 23.164062 65.054688 23.261719 64.785156 23.378906 C 64.515625 23.492188 64.253906 23.625 64 23.773438 C 63.75 23.921875 63.507812 24.085938 63.273438 24.261719 C 63.042969 24.441406 62.824219 24.636719 62.613281 24.839844 C 62.40625 25.046875 62.214844 25.265625 62.035156 25.5 C 61.855469 25.730469 61.691406 25.972656 61.539062 26.222656 C 61.390625 26.476562 61.257812 26.734375 61.144531 27.003906 C 61.027344 27.273438 60.929688 27.550781 60.847656 27.832031 C 60.765625 28.113281 60.703125 28.398438 60.65625 28.6875 C 60.613281 28.976562 60.585938 29.265625 60.578125 29.558594 C 60.570312 29.851562 60.578125 30.144531 60.609375 30.4375 C 60.636719 30.726562 60.683594 31.015625 60.75 31.300781 C 60.816406 31.585938 60.898438 31.867188 61 32.140625 C 61.097656 32.417969 61.21875 32.683594 61.351562 32.945312 C 61.488281 33.203125 61.636719 33.457031 61.804688 33.695312 C 61.972656 33.9375 62.152344 34.167969 62.347656 34.382812 C 62.542969 34.601562 62.75 34.808594 62.972656 35 C 63.195312 35.191406 63.429688 35.367188 63.671875 35.527344 C 63.914062 35.691406 64.167969 35.835938 64.433594 35.96875 C 64.695312 36.097656 64.964844 36.210938 65.242188 36.304688 C 65.515625 36.402344 65.800781 36.480469 66.085938 36.539062 Z M 64.257812 24.820312 C 64.582031 24.609375 64.925781 24.429688 65.285156 24.285156 C 65.644531 24.140625 66.015625 24.03125 66.398438 23.957031 C 66.777344 23.886719 67.164062 23.851562 67.550781 23.855469 C 67.941406 23.859375 68.324219 23.902344 68.703125 23.980469 C 69.082031 24.058594 69.453125 24.175781 69.808594 24.328125 C 70.167969 24.480469 70.503906 24.664062 70.824219 24.882812 C 71.148438 25.101562 71.441406 25.347656 71.714844 25.625 C 71.988281 25.902344 72.230469 26.203125 72.441406 26.527344 C 72.65625 26.855469 72.832031 27.195312 72.980469 27.554688 C 73.125 27.914062 73.234375 28.285156 73.304688 28.667969 C 73.378906 29.050781 73.410156 29.433594 73.40625 29.820312 C 73.40625 30.210938 73.363281 30.59375 73.285156 30.972656 C 73.203125 31.355469 73.089844 31.722656 72.9375 32.078125 C 72.785156 32.4375 72.601562 32.777344 72.382812 33.097656 C 72.164062 33.417969 71.917969 33.714844 71.640625 33.988281 C 71.363281 34.257812 71.0625 34.5 70.738281 34.714844 C 70.414062 34.925781 70.070312 35.105469 69.710938 35.25 C 69.351562 35.394531 68.980469 35.503906 68.597656 35.574219 C 68.214844 35.648438 67.832031 35.683594 67.445312 35.679688 C 67.054688 35.675781 66.671875 35.632812 66.292969 35.554688 C 65.910156 35.476562 65.542969 35.359375 65.1875 35.207031 C 64.828125 35.054688 64.488281 34.871094 64.167969 34.652344 C 63.847656 34.433594 63.550781 34.183594 63.28125 33.910156 C 63.007812 33.632812 62.765625 33.332031 62.554688 33.003906 C 62.339844 32.679688 62.160156 32.339844 62.015625 31.980469 C 61.871094 31.617188 61.761719 31.25 61.691406 30.867188 C 61.617188 30.484375 61.582031 30.101562 61.585938 29.710938 C 61.589844 29.324219 61.632812 28.941406 61.710938 28.558594 C 61.789062 28.179688 61.90625 27.8125 62.058594 27.453125 C 62.207031 27.097656 62.394531 26.757812 62.613281 26.4375 C 62.832031 26.117188 63.078125 25.820312 63.355469 25.546875 C 63.632812 25.277344 63.933594 25.035156 64.257812 24.820312 Z M 64.257812 24.820312 " fill-opacity="1" fill-rule="nonzero"/></g></svg>