<svg xmlns="http://www.w3.org/2000/svg" xmlns:xlink="http://www.w3.org/1999/xlink" width="180" zoomAndPan="magnify" viewBox="0 0 135 161.249994" height="215" preserveAspectRatio="xMidYMid meet" version="1.0"><defs><g/><clipPath id="6811d5b676"><path d="M 31.53125 22 L 103.199219 22 L 103.199219 77.714844 L 31.53125 77.714844 Z M 31.53125 22 " clip-rule="nonzero"/></clipPath></defs><g fill="#0661aa" fill-opacity="1"><g transform="translate(40.270683, 100.357033)"><g><path d="M 0.890625 0 L 0.890625 -12.765625 L 5.71875 -12.765625 C 7.789062 -12.765625 9.378906 -12.207031 10.484375 -11.09375 C 11.585938 -9.988281 12.140625 -8.414062 12.140625 -6.375 C 12.140625 -4.332031 11.585938 -2.757812 10.484375 -1.65625 C 9.378906 -0.550781 7.785156 0 5.703125 0 Z M 3.875 -2.453125 L 5.6875 -2.453125 C 6.78125 -2.453125 7.613281 -2.789062 8.1875 -3.46875 C 8.769531 -4.15625 9.0625 -5.125 9.0625 -6.375 C 9.0625 -7.632812 8.769531 -8.609375 8.1875 -9.296875 C 7.613281 -9.984375 6.78125 -10.328125 5.6875 -10.328125 L 3.875 -10.328125 Z M 3.875 -2.453125 "/></g></g></g><g fill="#0661aa" fill-opacity="1"><g transform="translate(55.016063, 100.357033)"><g><path d="M 2.109375 -10.4375 C 1.617188 -10.4375 1.226562 -10.578125 0.9375 -10.859375 C 0.644531 -11.148438 0.5 -11.523438 0.5 -11.984375 C 0.5 -12.460938 0.644531 -12.84375 0.9375 -13.125 C 1.226562 -13.414062 1.617188 -13.5625 2.109375 -13.5625 C 2.597656 -13.5625 2.988281 -13.414062 3.28125 -13.125 C 3.582031 -12.84375 3.734375 -12.460938 3.734375 -11.984375 C 3.734375 -11.523438 3.582031 -11.148438 3.28125 -10.859375 C 2.988281 -10.578125 2.597656 -10.4375 2.109375 -10.4375 Z M 0.734375 0 L 0.734375 -9.171875 L 3.484375 -9.171875 L 3.484375 0 Z M 0.734375 0 "/></g></g></g><g fill="#0661aa" fill-opacity="1"><g transform="translate(61.358553, 100.357033)"><g><path d="M 5.625 -9.421875 C 6.375 -9.421875 6.976562 -9.140625 7.4375 -8.578125 C 7.894531 -8.023438 8.144531 -7.234375 8.1875 -6.203125 L 5.875 -5.578125 C 5.863281 -6.171875 5.753906 -6.617188 5.546875 -6.921875 C 5.347656 -7.234375 5.082031 -7.390625 4.75 -7.390625 C 4.34375 -7.390625 4.015625 -7.1875 3.765625 -6.78125 C 3.523438 -6.375 3.40625 -5.8125 3.40625 -5.09375 L 3.40625 0 L 0.6875 0 L 0.6875 -9.171875 L 2.890625 -9.171875 L 3.265625 -7.59375 L 3.28125 -7.59375 C 3.476562 -8.164062 3.785156 -8.613281 4.203125 -8.9375 C 4.628906 -9.257812 5.101562 -9.421875 5.625 -9.421875 Z M 5.625 -9.421875 "/></g></g></g><g fill="#0661aa" fill-opacity="1"><g transform="translate(71.911447, 100.357033)"><g><path d="M 4.359375 4.0625 C 3.460938 4.0625 2.613281 3.910156 1.8125 3.609375 C 1.019531 3.316406 0.382812 2.914062 -0.09375 2.40625 L 0.96875 0.4375 C 1.332031 0.851562 1.789062 1.1875 2.34375 1.4375 C 2.90625 1.695312 3.472656 1.828125 4.046875 1.828125 C 4.867188 1.828125 5.523438 1.597656 6.015625 1.140625 C 6.503906 0.679688 6.75 0.0546875 6.75 -0.734375 L 6.75 -1.65625 L 6.734375 -1.65625 C 6.472656 -1.132812 6.09375 -0.71875 5.59375 -0.40625 C 5.09375 -0.101562 4.546875 0.046875 3.953125 0.046875 C 3.242188 0.046875 2.625 -0.140625 2.09375 -0.515625 C 1.5625 -0.898438 1.144531 -1.441406 0.84375 -2.140625 C 0.550781 -2.835938 0.40625 -3.660156 0.40625 -4.609375 C 0.40625 -5.597656 0.546875 -6.453125 0.828125 -7.171875 C 1.117188 -7.898438 1.523438 -8.457031 2.046875 -8.84375 C 2.578125 -9.238281 3.195312 -9.4375 3.90625 -9.4375 C 4.53125 -9.4375 5.097656 -9.269531 5.609375 -8.9375 C 6.117188 -8.601562 6.5 -8.15625 6.75 -7.59375 L 6.78125 -7.59375 L 7.09375 -9.171875 L 9.5 -9.171875 L 9.5 -0.703125 C 9.5 0.285156 9.289062 1.140625 8.875 1.859375 C 8.457031 2.578125 7.863281 3.125 7.09375 3.5 C 6.320312 3.875 5.410156 4.0625 4.359375 4.0625 Z M 5.015625 -2.1875 C 5.578125 -2.1875 6.023438 -2.410156 6.359375 -2.859375 C 6.691406 -3.304688 6.859375 -3.90625 6.859375 -4.65625 C 6.859375 -5.40625 6.691406 -6.007812 6.359375 -6.46875 C 6.023438 -6.925781 5.578125 -7.15625 5.015625 -7.15625 C 4.453125 -7.15625 4 -6.929688 3.65625 -6.484375 C 3.320312 -6.035156 3.15625 -5.425781 3.15625 -4.65625 C 3.15625 -3.894531 3.320312 -3.289062 3.65625 -2.84375 C 4 -2.40625 4.453125 -2.1875 5.015625 -2.1875 Z M 5.015625 -2.1875 "/></g></g></g><g fill="#0661aa" fill-opacity="1"><g transform="translate(84.202249, 100.357033)"><g><path d="M 3.171875 0.21875 C 2.296875 0.21875 1.585938 -0.015625 1.046875 -0.484375 C 0.515625 -0.953125 0.25 -1.578125 0.25 -2.359375 C 0.25 -3.203125 0.566406 -3.878906 1.203125 -4.390625 C 1.847656 -4.910156 2.785156 -5.238281 4.015625 -5.375 L 5.4375 -5.53125 C 5.632812 -5.5625 5.796875 -5.632812 5.921875 -5.75 C 6.046875 -5.875 6.109375 -6.046875 6.109375 -6.265625 C 6.109375 -6.671875 5.984375 -6.984375 5.734375 -7.203125 C 5.484375 -7.421875 5.15625 -7.53125 4.75 -7.53125 C 4.28125 -7.53125 3.898438 -7.367188 3.609375 -7.046875 C 3.328125 -6.722656 3.175781 -6.316406 3.15625 -5.828125 L 0.5625 -6.203125 C 0.582031 -6.847656 0.769531 -7.414062 1.125 -7.90625 C 1.476562 -8.40625 1.960938 -8.796875 2.578125 -9.078125 C 3.191406 -9.359375 3.910156 -9.5 4.734375 -9.5 C 5.984375 -9.5 6.972656 -9.171875 7.703125 -8.515625 C 8.429688 -7.859375 8.796875 -6.96875 8.796875 -5.84375 L 8.796875 -2.296875 C 8.796875 -1.890625 8.945312 -1.6875 9.25 -1.6875 C 9.488281 -1.6875 9.710938 -1.804688 9.921875 -2.046875 L 10.515625 -0.578125 C 10.234375 -0.296875 9.890625 -0.09375 9.484375 0.03125 C 9.078125 0.164062 8.675781 0.234375 8.28125 0.234375 C 7.726562 0.234375 7.265625 0.09375 6.890625 -0.1875 C 6.515625 -0.46875 6.28125 -0.820312 6.1875 -1.25 L 6.140625 -1.484375 L 6.125 -1.484375 C 5.851562 -0.960938 5.457031 -0.546875 4.9375 -0.234375 C 4.425781 0.0664062 3.835938 0.21875 3.171875 0.21875 Z M 4.296875 -1.703125 C 4.816406 -1.703125 5.242188 -1.882812 5.578125 -2.25 C 5.910156 -2.613281 6.078125 -3.085938 6.078125 -3.671875 L 6.078125 -4.109375 L 4.734375 -3.953125 C 4.109375 -3.890625 3.660156 -3.742188 3.390625 -3.515625 C 3.128906 -3.285156 3 -3.015625 3 -2.703125 C 3 -2.410156 3.117188 -2.171875 3.359375 -1.984375 C 3.609375 -1.796875 3.921875 -1.703125 4.296875 -1.703125 Z M 4.296875 -1.703125 "/></g></g></g><g fill="#2d6d5e" fill-opacity="1"><g transform="translate(14.563091, 123.210755)"><g><path d="M 5.421875 -3.921875 C 5.421875 -3.242188 5.363281 -2.648438 5.25 -2.140625 C 5.144531 -1.628906 4.984375 -1.203125 4.765625 -0.859375 C 4.546875 -0.523438 4.28125 -0.28125 3.96875 -0.125 L 5.140625 1.859375 L 4.125 1.859375 L 3.171875 0.078125 C 3.140625 0.0859375 3.101562 0.09375 3.0625 0.09375 C 3.019531 0.101562 2.976562 0.109375 2.9375 0.109375 C 2.5 0.109375 2.128906 0.00390625 1.828125 -0.203125 C 1.523438 -0.421875 1.28125 -0.71875 1.09375 -1.09375 C 0.90625 -1.46875 0.765625 -1.894531 0.671875 -2.375 C 0.585938 -2.863281 0.546875 -3.378906 0.546875 -3.921875 C 0.546875 -4.816406 0.632812 -5.554688 0.8125 -6.140625 C 1 -6.734375 1.273438 -7.175781 1.640625 -7.46875 C 2.003906 -7.769531 2.457031 -7.921875 3 -7.921875 C 3.519531 -7.921875 3.957031 -7.769531 4.3125 -7.46875 C 4.675781 -7.175781 4.953125 -6.734375 5.140625 -6.140625 C 5.328125 -5.546875 5.421875 -4.804688 5.421875 -3.921875 Z M 1.4375 -3.921875 C 1.4375 -3.210938 1.492188 -2.613281 1.609375 -2.125 C 1.722656 -1.644531 1.894531 -1.28125 2.125 -1.03125 C 2.363281 -0.789062 2.648438 -0.671875 2.984375 -0.671875 C 3.328125 -0.671875 3.613281 -0.789062 3.84375 -1.03125 C 4.070312 -1.269531 4.242188 -1.628906 4.359375 -2.109375 C 4.472656 -2.585938 4.53125 -3.191406 4.53125 -3.921875 C 4.53125 -4.992188 4.398438 -5.796875 4.140625 -6.328125 C 3.890625 -6.867188 3.507812 -7.140625 3 -7.140625 C 2.644531 -7.140625 2.351562 -7.015625 2.125 -6.765625 C 1.894531 -6.523438 1.722656 -6.164062 1.609375 -5.6875 C 1.492188 -5.207031 1.4375 -4.617188 1.4375 -3.921875 Z M 1.4375 -3.921875 "/></g></g></g><g fill="#2d6d5e" fill-opacity="1"><g transform="translate(22.063441, 123.210755)"><g><path d="M 4.21875 -5.859375 L 4.21875 0 L 3.5625 0 L 3.46875 -0.828125 L 3.40625 -0.828125 C 3.332031 -0.640625 3.226562 -0.472656 3.09375 -0.328125 C 2.96875 -0.191406 2.820312 -0.0820312 2.65625 0 C 2.5 0.0703125 2.316406 0.109375 2.109375 0.109375 C 1.773438 0.109375 1.503906 0.0234375 1.296875 -0.140625 C 1.085938 -0.316406 0.929688 -0.5625 0.828125 -0.875 C 0.734375 -1.195312 0.6875 -1.578125 0.6875 -2.015625 L 0.6875 -5.859375 L 1.515625 -5.859375 L 1.515625 -2.171875 C 1.515625 -1.640625 1.578125 -1.25 1.703125 -1 C 1.828125 -0.75 2.015625 -0.625 2.265625 -0.625 C 2.535156 -0.625 2.753906 -0.695312 2.921875 -0.84375 C 3.085938 -1 3.207031 -1.234375 3.28125 -1.546875 C 3.351562 -1.859375 3.390625 -2.25 3.390625 -2.71875 L 3.390625 -5.859375 Z M 4.21875 -5.859375 "/></g></g></g><g fill="#2d6d5e" fill-opacity="1"><g transform="translate(28.52736, 123.210755)"><g><path d="M 2.28125 -5.96875 C 2.820312 -5.96875 3.207031 -5.796875 3.4375 -5.453125 C 3.675781 -5.109375 3.796875 -4.609375 3.796875 -3.953125 L 3.796875 0 L 3.171875 0 L 3.046875 -0.828125 L 3.015625 -0.828125 C 2.929688 -0.628906 2.820312 -0.457031 2.6875 -0.3125 C 2.5625 -0.175781 2.414062 -0.0703125 2.25 0 C 2.09375 0.0703125 1.90625 0.109375 1.6875 0.109375 C 1.382812 0.109375 1.132812 0.03125 0.9375 -0.125 C 0.75 -0.289062 0.609375 -0.503906 0.515625 -0.765625 C 0.421875 -1.023438 0.375 -1.304688 0.375 -1.609375 C 0.375 -2.191406 0.539062 -2.640625 0.875 -2.953125 C 1.21875 -3.273438 1.695312 -3.453125 2.3125 -3.484375 L 2.96875 -3.53125 L 2.96875 -3.9375 C 2.96875 -4.40625 2.90625 -4.742188 2.78125 -4.953125 C 2.65625 -5.171875 2.445312 -5.28125 2.15625 -5.28125 C 2 -5.28125 1.828125 -5.25 1.640625 -5.1875 C 1.460938 -5.132812 1.269531 -5.046875 1.0625 -4.921875 L 0.796875 -5.546875 C 1.015625 -5.691406 1.25 -5.796875 1.5 -5.859375 C 1.757812 -5.929688 2.019531 -5.96875 2.28125 -5.96875 Z M 2.984375 -2.921875 L 2.4375 -2.890625 C 2.03125 -2.867188 1.722656 -2.753906 1.515625 -2.546875 C 1.316406 -2.335938 1.21875 -2.035156 1.21875 -1.640625 C 1.21875 -1.265625 1.28125 -0.988281 1.40625 -0.8125 C 1.539062 -0.644531 1.722656 -0.5625 1.953125 -0.5625 C 2.285156 -0.5625 2.539062 -0.71875 2.71875 -1.03125 C 2.894531 -1.34375 2.984375 -1.773438 2.984375 -2.328125 Z M 2.984375 -2.921875 "/></g></g></g><g fill="#2d6d5e" fill-opacity="1"><g transform="translate(34.5532, 123.210755)"><g><path d="M 2.828125 -5.96875 C 3.285156 -5.96875 3.632812 -5.804688 3.875 -5.484375 C 4.113281 -5.160156 4.234375 -4.664062 4.234375 -4 L 4.234375 0 L 3.40625 0 L 3.40625 -3.828125 C 3.40625 -4.304688 3.34375 -4.660156 3.21875 -4.890625 C 3.101562 -5.128906 2.914062 -5.25 2.65625 -5.25 C 2.269531 -5.25 1.984375 -5.078125 1.796875 -4.734375 C 1.617188 -4.390625 1.53125 -3.84375 1.53125 -3.09375 L 1.53125 0 L 0.71875 0 L 0.71875 -5.859375 L 1.375 -5.859375 L 1.46875 -5.015625 L 1.515625 -5.015625 C 1.597656 -5.210938 1.703125 -5.378906 1.828125 -5.515625 C 1.960938 -5.660156 2.113281 -5.769531 2.28125 -5.84375 C 2.445312 -5.925781 2.628906 -5.96875 2.828125 -5.96875 Z M 2.828125 -5.96875 "/></g></g></g><g fill="#2d6d5e" fill-opacity="1"><g transform="translate(41.017119, 123.210755)"><g><path d="M 2.171875 0.109375 C 1.609375 0.109375 1.179688 -0.144531 0.890625 -0.65625 C 0.609375 -1.175781 0.46875 -1.929688 0.46875 -2.921875 C 0.46875 -3.898438 0.613281 -4.648438 0.90625 -5.171875 C 1.195312 -5.703125 1.609375 -5.96875 2.140625 -5.96875 C 2.335938 -5.96875 2.519531 -5.929688 2.6875 -5.859375 C 2.851562 -5.785156 3 -5.679688 3.125 -5.546875 C 3.257812 -5.410156 3.375 -5.25 3.46875 -5.0625 L 3.515625 -5.0625 C 3.503906 -5.226562 3.492188 -5.375 3.484375 -5.5 C 3.484375 -5.632812 3.484375 -5.757812 3.484375 -5.875 L 3.484375 -8.3125 L 4.296875 -8.3125 L 4.296875 0 L 3.640625 0 L 3.53125 -0.796875 L 3.484375 -0.796875 C 3.378906 -0.609375 3.265625 -0.445312 3.140625 -0.3125 C 3.015625 -0.175781 2.875 -0.0703125 2.71875 0 C 2.5625 0.0703125 2.378906 0.109375 2.171875 0.109375 Z M 2.359375 -0.59375 C 2.722656 -0.59375 3 -0.765625 3.1875 -1.109375 C 3.382812 -1.453125 3.484375 -1.960938 3.484375 -2.640625 L 3.484375 -3.046875 C 3.484375 -3.785156 3.390625 -4.332031 3.203125 -4.6875 C 3.023438 -5.050781 2.738281 -5.234375 2.34375 -5.234375 C 1.988281 -5.234375 1.722656 -5.035156 1.546875 -4.640625 C 1.378906 -4.242188 1.296875 -3.671875 1.296875 -2.921875 C 1.296875 -2.148438 1.378906 -1.566406 1.546875 -1.171875 C 1.722656 -0.785156 1.992188 -0.59375 2.359375 -0.59375 Z M 2.359375 -0.59375 "/></g></g></g><g fill="#2d6d5e" fill-opacity="1"><g transform="translate(47.555832, 123.210755)"><g><path d="M 4.359375 -2.9375 C 4.359375 -2.476562 4.316406 -2.0625 4.234375 -1.6875 C 4.160156 -1.3125 4.039062 -0.988281 3.875 -0.71875 C 3.71875 -0.457031 3.515625 -0.253906 3.265625 -0.109375 C 3.023438 0.0351562 2.734375 0.109375 2.390625 0.109375 C 2.078125 0.109375 1.796875 0.0351562 1.546875 -0.109375 C 1.304688 -0.253906 1.101562 -0.457031 0.9375 -0.71875 C 0.78125 -0.976562 0.660156 -1.296875 0.578125 -1.671875 C 0.503906 -2.054688 0.46875 -2.476562 0.46875 -2.9375 C 0.46875 -3.582031 0.535156 -4.128906 0.671875 -4.578125 C 0.804688 -5.035156 1.019531 -5.378906 1.3125 -5.609375 C 1.601562 -5.847656 1.96875 -5.96875 2.40625 -5.96875 C 2.820312 -5.96875 3.175781 -5.851562 3.46875 -5.625 C 3.757812 -5.394531 3.976562 -5.054688 4.125 -4.609375 C 4.28125 -4.160156 4.359375 -3.601562 4.359375 -2.9375 Z M 1.296875 -2.9375 C 1.296875 -2.425781 1.332031 -2 1.40625 -1.65625 C 1.488281 -1.3125 1.613281 -1.050781 1.78125 -0.875 C 1.945312 -0.695312 2.160156 -0.609375 2.421875 -0.609375 C 2.671875 -0.609375 2.875 -0.691406 3.03125 -0.859375 C 3.195312 -1.035156 3.316406 -1.296875 3.390625 -1.640625 C 3.472656 -1.984375 3.515625 -2.414062 3.515625 -2.9375 C 3.515625 -3.445312 3.472656 -3.875 3.390625 -4.21875 C 3.316406 -4.5625 3.195312 -4.816406 3.03125 -4.984375 C 2.875 -5.160156 2.664062 -5.25 2.40625 -5.25 C 2.019531 -5.25 1.738281 -5.054688 1.5625 -4.671875 C 1.382812 -4.285156 1.296875 -3.707031 1.296875 -2.9375 Z M 1.296875 -2.9375 "/></g></g></g><g fill="#2d6d5e" fill-opacity="1"><g transform="translate(53.90756, 123.210755)"><g/></g></g><g fill="#2d6d5e" fill-opacity="1"><g transform="translate(57.470539, 123.210755)"><g><path d="M 1.515625 0 L 0.046875 -5.859375 L 0.890625 -5.859375 L 1.6875 -2.296875 C 1.738281 -2.085938 1.785156 -1.867188 1.828125 -1.640625 C 1.867188 -1.421875 1.90625 -1.1875 1.9375 -0.9375 L 1.984375 -0.9375 C 2.003906 -1.082031 2.03125 -1.25 2.0625 -1.4375 C 2.101562 -1.632812 2.148438 -1.851562 2.203125 -2.09375 L 3.078125 -5.859375 L 3.921875 -5.859375 L 2.421875 0 Z M 1.515625 0 "/></g></g></g><g fill="#2d6d5e" fill-opacity="1"><g transform="translate(62.962136, 123.210755)"><g><path d="M 4.359375 -2.9375 C 4.359375 -2.476562 4.316406 -2.0625 4.234375 -1.6875 C 4.160156 -1.3125 4.039062 -0.988281 3.875 -0.71875 C 3.71875 -0.457031 3.515625 -0.253906 3.265625 -0.109375 C 3.023438 0.0351562 2.734375 0.109375 2.390625 0.109375 C 2.078125 0.109375 1.796875 0.0351562 1.546875 -0.109375 C 1.304688 -0.253906 1.101562 -0.457031 0.9375 -0.71875 C 0.78125 -0.976562 0.660156 -1.296875 0.578125 -1.671875 C 0.503906 -2.054688 0.46875 -2.476562 0.46875 -2.9375 C 0.46875 -3.582031 0.535156 -4.128906 0.671875 -4.578125 C 0.804688 -5.035156 1.019531 -5.378906 1.3125 -5.609375 C 1.601562 -5.847656 1.96875 -5.96875 2.40625 -5.96875 C 2.820312 -5.96875 3.175781 -5.851562 3.46875 -5.625 C 3.757812 -5.394531 3.976562 -5.054688 4.125 -4.609375 C 4.28125 -4.160156 4.359375 -3.601562 4.359375 -2.9375 Z M 1.296875 -2.9375 C 1.296875 -2.425781 1.332031 -2 1.40625 -1.65625 C 1.488281 -1.3125 1.613281 -1.050781 1.78125 -0.875 C 1.945312 -0.695312 2.160156 -0.609375 2.421875 -0.609375 C 2.671875 -0.609375 2.875 -0.691406 3.03125 -0.859375 C 3.195312 -1.035156 3.316406 -1.296875 3.390625 -1.640625 C 3.472656 -1.984375 3.515625 -2.414062 3.515625 -2.9375 C 3.515625 -3.445312 3.472656 -3.875 3.390625 -4.21875 C 3.316406 -4.5625 3.195312 -4.816406 3.03125 -4.984375 C 2.875 -5.160156 2.664062 -5.25 2.40625 -5.25 C 2.019531 -5.25 1.738281 -5.054688 1.5625 -4.671875 C 1.382812 -4.285156 1.296875 -3.707031 1.296875 -2.9375 Z M 1.296875 -2.9375 "/></g></g></g><g fill="#2d6d5e" fill-opacity="1"><g transform="translate(69.313864, 123.210755)"><g><path d="M 2.40625 0.109375 C 1.976562 0.109375 1.617188 0 1.328125 -0.21875 C 1.046875 -0.445312 0.832031 -0.785156 0.6875 -1.234375 C 0.539062 -1.679688 0.46875 -2.234375 0.46875 -2.890625 C 0.46875 -3.535156 0.539062 -4.085938 0.6875 -4.546875 C 0.832031 -5.003906 1.050781 -5.351562 1.34375 -5.59375 C 1.632812 -5.84375 2 -5.96875 2.4375 -5.96875 C 2.65625 -5.96875 2.851562 -5.941406 3.03125 -5.890625 C 3.207031 -5.847656 3.375 -5.785156 3.53125 -5.703125 L 3.265625 -5.03125 C 3.140625 -5.09375 3.007812 -5.140625 2.875 -5.171875 C 2.75 -5.210938 2.625 -5.234375 2.5 -5.234375 C 2.238281 -5.234375 2.019531 -5.144531 1.84375 -4.96875 C 1.675781 -4.789062 1.546875 -4.53125 1.453125 -4.1875 C 1.359375 -3.84375 1.3125 -3.414062 1.3125 -2.90625 C 1.3125 -2.394531 1.351562 -1.96875 1.4375 -1.625 C 1.53125 -1.289062 1.664062 -1.035156 1.84375 -0.859375 C 2.019531 -0.691406 2.238281 -0.609375 2.5 -0.609375 C 2.65625 -0.609375 2.8125 -0.628906 2.96875 -0.671875 C 3.132812 -0.722656 3.300781 -0.789062 3.46875 -0.875 L 3.46875 -0.1875 C 3.3125 -0.09375 3.132812 -0.0195312 2.9375 0.03125 C 2.75 0.0820312 2.570312 0.109375 2.40625 0.109375 Z M 2.40625 0.109375 "/></g></g></g><g fill="#2d6d5e" fill-opacity="1"><g transform="translate(74.602448, 123.210755)"><g><path d="M 2.328125 -5.953125 C 2.722656 -5.953125 3.050781 -5.835938 3.3125 -5.609375 C 3.570312 -5.378906 3.765625 -5.066406 3.890625 -4.671875 C 4.015625 -4.285156 4.078125 -3.851562 4.078125 -3.375 L 4.078125 -2.78125 L 1.28125 -2.78125 C 1.289062 -2.050781 1.40625 -1.503906 1.625 -1.140625 C 1.84375 -0.773438 2.171875 -0.59375 2.609375 -0.59375 C 2.828125 -0.59375 3.035156 -0.625 3.234375 -0.6875 C 3.441406 -0.75 3.648438 -0.851562 3.859375 -1 L 3.859375 -0.265625 C 3.660156 -0.140625 3.453125 -0.046875 3.234375 0.015625 C 3.015625 0.078125 2.78125 0.109375 2.53125 0.109375 C 2.039062 0.109375 1.644531 -0.0195312 1.34375 -0.28125 C 1.039062 -0.539062 0.816406 -0.898438 0.671875 -1.359375 C 0.535156 -1.816406 0.46875 -2.332031 0.46875 -2.90625 C 0.46875 -3.550781 0.535156 -4.101562 0.671875 -4.5625 C 0.816406 -5.019531 1.023438 -5.363281 1.296875 -5.59375 C 1.578125 -5.832031 1.921875 -5.953125 2.328125 -5.953125 Z M 2.328125 -5.28125 C 2.015625 -5.28125 1.769531 -5.128906 1.59375 -4.828125 C 1.425781 -4.535156 1.328125 -4.070312 1.296875 -3.4375 L 3.3125 -3.4375 C 3.3125 -3.769531 3.273438 -4.078125 3.203125 -4.359375 C 3.140625 -4.640625 3.035156 -4.863281 2.890625 -5.03125 C 2.742188 -5.195312 2.554688 -5.28125 2.328125 -5.28125 Z M 2.6875 -8.375 C 2.757812 -8.207031 2.851562 -8.023438 2.96875 -7.828125 C 3.082031 -7.640625 3.203125 -7.445312 3.328125 -7.25 C 3.460938 -7.0625 3.582031 -6.890625 3.6875 -6.734375 L 3.6875 -6.625 L 3.234375 -6.625 C 3.078125 -6.769531 2.921875 -6.9375 2.765625 -7.125 C 2.609375 -7.3125 2.453125 -7.503906 2.296875 -7.703125 C 2.128906 -7.503906 1.960938 -7.304688 1.796875 -7.109375 C 1.628906 -6.921875 1.476562 -6.757812 1.34375 -6.625 L 0.890625 -6.625 L 0.890625 -6.734375 C 1.015625 -6.898438 1.140625 -7.082031 1.265625 -7.28125 C 1.390625 -7.476562 1.503906 -7.671875 1.609375 -7.859375 C 1.722656 -8.046875 1.816406 -8.21875 1.890625 -8.375 Z M 2.6875 -8.375 "/></g></g></g><g fill="#2d6d5e" fill-opacity="1"><g transform="translate(80.660343, 123.210755)"><g/></g></g><g fill="#2d6d5e" fill-opacity="1"><g transform="translate(84.223322, 123.210755)"><g><path d="M 2.828125 -5.96875 C 3.390625 -5.96875 3.816406 -5.710938 4.109375 -5.203125 C 4.398438 -4.703125 4.546875 -3.945312 4.546875 -2.9375 C 4.546875 -2.289062 4.476562 -1.738281 4.34375 -1.28125 C 4.21875 -0.832031 4.03125 -0.488281 3.78125 -0.25 C 3.53125 -0.0078125 3.226562 0.109375 2.875 0.109375 C 2.675781 0.109375 2.488281 0.0703125 2.3125 0 C 2.144531 -0.0820312 1.992188 -0.191406 1.859375 -0.328125 C 1.734375 -0.472656 1.625 -0.640625 1.53125 -0.828125 L 1.5 -0.828125 C 1.507812 -0.679688 1.515625 -0.539062 1.515625 -0.40625 C 1.523438 -0.28125 1.53125 -0.160156 1.53125 -0.046875 L 1.53125 2.609375 L 0.71875 2.609375 L 0.71875 -5.859375 L 1.390625 -5.859375 L 1.484375 -5 L 1.53125 -5 C 1.632812 -5.21875 1.75 -5.394531 1.875 -5.53125 C 2.007812 -5.675781 2.15625 -5.785156 2.3125 -5.859375 C 2.46875 -5.929688 2.640625 -5.96875 2.828125 -5.96875 Z M 2.65625 -5.265625 C 2.40625 -5.265625 2.195312 -5.1875 2.03125 -5.03125 C 1.875 -4.875 1.75 -4.632812 1.65625 -4.3125 C 1.570312 -4 1.53125 -3.601562 1.53125 -3.125 L 1.53125 -2.84375 C 1.53125 -2.34375 1.570312 -1.925781 1.65625 -1.59375 C 1.75 -1.257812 1.878906 -1.007812 2.046875 -0.84375 C 2.210938 -0.6875 2.421875 -0.609375 2.671875 -0.609375 C 2.898438 -0.609375 3.09375 -0.691406 3.25 -0.859375 C 3.40625 -1.023438 3.519531 -1.273438 3.59375 -1.609375 C 3.675781 -1.953125 3.71875 -2.394531 3.71875 -2.9375 C 3.71875 -3.707031 3.632812 -4.285156 3.46875 -4.671875 C 3.300781 -5.066406 3.03125 -5.265625 2.65625 -5.265625 Z M 2.65625 -5.265625 "/></g></g></g><g fill="#2d6d5e" fill-opacity="1"><g transform="translate(90.762035, 123.210755)"><g><path d="M 2.671875 -5.96875 C 2.753906 -5.96875 2.835938 -5.957031 2.921875 -5.9375 C 3.003906 -5.925781 3.085938 -5.910156 3.171875 -5.890625 L 3.046875 -5.046875 C 2.984375 -5.066406 2.914062 -5.082031 2.84375 -5.09375 C 2.769531 -5.101562 2.691406 -5.109375 2.609375 -5.109375 C 2.453125 -5.109375 2.304688 -5.054688 2.171875 -4.953125 C 2.035156 -4.847656 1.921875 -4.703125 1.828125 -4.515625 C 1.734375 -4.328125 1.660156 -4.109375 1.609375 -3.859375 C 1.554688 -3.609375 1.53125 -3.34375 1.53125 -3.0625 L 1.53125 0 L 0.71875 0 L 0.71875 -5.859375 L 1.359375 -5.859375 L 1.46875 -4.828125 L 1.515625 -4.828125 C 1.597656 -5.046875 1.691406 -5.238281 1.796875 -5.40625 C 1.910156 -5.582031 2.039062 -5.71875 2.1875 -5.8125 C 2.332031 -5.914062 2.492188 -5.96875 2.671875 -5.96875 Z M 2.671875 -5.96875 "/></g></g></g><g fill="#2d6d5e" fill-opacity="1"><g transform="translate(95.575143, 123.210755)"><g><path d="M 2.328125 -5.953125 C 2.722656 -5.953125 3.050781 -5.835938 3.3125 -5.609375 C 3.570312 -5.378906 3.765625 -5.066406 3.890625 -4.671875 C 4.015625 -4.285156 4.078125 -3.851562 4.078125 -3.375 L 4.078125 -2.78125 L 1.28125 -2.78125 C 1.289062 -2.050781 1.40625 -1.503906 1.625 -1.140625 C 1.84375 -0.773438 2.171875 -0.59375 2.609375 -0.59375 C 2.828125 -0.59375 3.035156 -0.625 3.234375 -0.6875 C 3.441406 -0.75 3.648438 -0.851562 3.859375 -1 L 3.859375 -0.265625 C 3.660156 -0.140625 3.453125 -0.046875 3.234375 0.015625 C 3.015625 0.078125 2.78125 0.109375 2.53125 0.109375 C 2.039062 0.109375 1.644531 -0.0195312 1.34375 -0.28125 C 1.039062 -0.539062 0.816406 -0.898438 0.671875 -1.359375 C 0.535156 -1.816406 0.46875 -2.332031 0.46875 -2.90625 C 0.46875 -3.550781 0.535156 -4.101562 0.671875 -4.5625 C 0.816406 -5.019531 1.023438 -5.363281 1.296875 -5.59375 C 1.578125 -5.832031 1.921875 -5.953125 2.328125 -5.953125 Z M 2.328125 -5.28125 C 2.015625 -5.28125 1.769531 -5.128906 1.59375 -4.828125 C 1.425781 -4.535156 1.328125 -4.070312 1.296875 -3.4375 L 3.3125 -3.4375 C 3.3125 -3.769531 3.273438 -4.078125 3.203125 -4.359375 C 3.140625 -4.640625 3.035156 -4.863281 2.890625 -5.03125 C 2.742188 -5.195312 2.554688 -5.28125 2.328125 -5.28125 Z M 2.328125 -5.28125 "/></g></g></g><g fill="#2d6d5e" fill-opacity="1"><g transform="translate(101.633037, 123.210755)"><g><path d="M 2.40625 0.109375 C 1.976562 0.109375 1.617188 0 1.328125 -0.21875 C 1.046875 -0.445312 0.832031 -0.785156 0.6875 -1.234375 C 0.539062 -1.679688 0.46875 -2.234375 0.46875 -2.890625 C 0.46875 -3.535156 0.539062 -4.085938 0.6875 -4.546875 C 0.832031 -5.003906 1.050781 -5.351562 1.34375 -5.59375 C 1.632812 -5.84375 2 -5.96875 2.4375 -5.96875 C 2.65625 -5.96875 2.851562 -5.941406 3.03125 -5.890625 C 3.207031 -5.847656 3.375 -5.785156 3.53125 -5.703125 L 3.265625 -5.03125 C 3.140625 -5.09375 3.007812 -5.140625 2.875 -5.171875 C 2.75 -5.210938 2.625 -5.234375 2.5 -5.234375 C 2.238281 -5.234375 2.019531 -5.144531 1.84375 -4.96875 C 1.675781 -4.789062 1.546875 -4.53125 1.453125 -4.1875 C 1.359375 -3.84375 1.3125 -3.414062 1.3125 -2.90625 C 1.3125 -2.394531 1.351562 -1.96875 1.4375 -1.625 C 1.53125 -1.289062 1.664062 -1.035156 1.84375 -0.859375 C 2.019531 -0.691406 2.238281 -0.609375 2.5 -0.609375 C 2.65625 -0.609375 2.8125 -0.628906 2.96875 -0.671875 C 3.132812 -0.722656 3.300781 -0.789062 3.46875 -0.875 L 3.46875 -0.1875 C 3.3125 -0.09375 3.132812 -0.0195312 2.9375 0.03125 C 2.75 0.0820312 2.570312 0.109375 2.40625 0.109375 Z M 2.40625 0.109375 "/></g></g></g><g fill="#2d6d5e" fill-opacity="1"><g transform="translate(106.921622, 123.210755)"><g><path d="M 1.546875 -5.859375 L 1.546875 0 L 0.71875 0 L 0.71875 -5.859375 Z M 1.140625 -8.0625 C 1.316406 -8.0625 1.441406 -8.007812 1.515625 -7.90625 C 1.585938 -7.800781 1.625 -7.648438 1.625 -7.453125 C 1.625 -7.273438 1.582031 -7.128906 1.5 -7.015625 C 1.425781 -6.910156 1.304688 -6.859375 1.140625 -6.859375 C 0.992188 -6.859375 0.875 -6.910156 0.78125 -7.015625 C 0.695312 -7.128906 0.65625 -7.273438 0.65625 -7.453125 C 0.65625 -7.648438 0.695312 -7.800781 0.78125 -7.90625 C 0.863281 -8.007812 0.984375 -8.0625 1.140625 -8.0625 Z M 1.140625 -8.0625 "/></g></g></g><g fill="#2d6d5e" fill-opacity="1"><g transform="translate(110.719668, 123.210755)"><g><path d="M 3.328125 -1.546875 C 3.328125 -1.191406 3.257812 -0.890625 3.125 -0.640625 C 3 -0.398438 2.8125 -0.210938 2.5625 -0.078125 C 2.320312 0.046875 2.03125 0.109375 1.6875 0.109375 C 1.414062 0.109375 1.164062 0.078125 0.9375 0.015625 C 0.71875 -0.046875 0.53125 -0.125 0.375 -0.21875 L 0.375 -1.078125 C 0.53125 -0.941406 0.722656 -0.832031 0.953125 -0.75 C 1.179688 -0.664062 1.414062 -0.625 1.65625 -0.625 C 1.925781 -0.625 2.132812 -0.703125 2.28125 -0.859375 C 2.4375 -1.015625 2.515625 -1.234375 2.515625 -1.515625 C 2.515625 -1.679688 2.484375 -1.828125 2.421875 -1.953125 C 2.359375 -2.078125 2.257812 -2.195312 2.125 -2.3125 C 1.988281 -2.425781 1.816406 -2.546875 1.609375 -2.671875 C 1.359375 -2.816406 1.140625 -2.96875 0.953125 -3.125 C 0.765625 -3.289062 0.617188 -3.476562 0.515625 -3.6875 C 0.421875 -3.894531 0.375 -4.144531 0.375 -4.4375 C 0.375 -4.894531 0.519531 -5.265625 0.8125 -5.546875 C 1.113281 -5.828125 1.503906 -5.96875 1.984375 -5.96875 C 2.234375 -5.96875 2.46875 -5.9375 2.6875 -5.875 C 2.90625 -5.8125 3.113281 -5.71875 3.3125 -5.59375 L 3 -4.9375 C 2.851562 -5.039062 2.691406 -5.117188 2.515625 -5.171875 C 2.347656 -5.234375 2.175781 -5.265625 2 -5.265625 C 1.738281 -5.265625 1.53125 -5.191406 1.375 -5.046875 C 1.226562 -4.898438 1.15625 -4.707031 1.15625 -4.46875 C 1.15625 -4.300781 1.1875 -4.15625 1.25 -4.03125 C 1.3125 -3.914062 1.410156 -3.800781 1.546875 -3.6875 C 1.679688 -3.582031 1.863281 -3.460938 2.09375 -3.328125 C 2.34375 -3.171875 2.554688 -3.015625 2.734375 -2.859375 C 2.921875 -2.703125 3.066406 -2.519531 3.171875 -2.3125 C 3.273438 -2.101562 3.328125 -1.847656 3.328125 -1.546875 Z M 3.328125 -1.546875 "/></g></g></g><g fill="#2d6d5e" fill-opacity="1"><g transform="translate(115.928116, 123.210755)"><g><path d="M 2.28125 -5.96875 C 2.820312 -5.96875 3.207031 -5.796875 3.4375 -5.453125 C 3.675781 -5.109375 3.796875 -4.609375 3.796875 -3.953125 L 3.796875 0 L 3.171875 0 L 3.046875 -0.828125 L 3.015625 -0.828125 C 2.929688 -0.628906 2.820312 -0.457031 2.6875 -0.3125 C 2.5625 -0.175781 2.414062 -0.0703125 2.25 0 C 2.09375 0.0703125 1.90625 0.109375 1.6875 0.109375 C 1.382812 0.109375 1.132812 0.03125 0.9375 -0.125 C 0.75 -0.289062 0.609375 -0.503906 0.515625 -0.765625 C 0.421875 -1.023438 0.375 -1.304688 0.375 -1.609375 C 0.375 -2.191406 0.539062 -2.640625 0.875 -2.953125 C 1.21875 -3.273438 1.695312 -3.453125 2.3125 -3.484375 L 2.96875 -3.53125 L 2.96875 -3.9375 C 2.96875 -4.40625 2.90625 -4.742188 2.78125 -4.953125 C 2.65625 -5.171875 2.445312 -5.28125 2.15625 -5.28125 C 2 -5.28125 1.828125 -5.25 1.640625 -5.1875 C 1.460938 -5.132812 1.269531 -5.046875 1.0625 -4.921875 L 0.796875 -5.546875 C 1.015625 -5.691406 1.25 -5.796875 1.5 -5.859375 C 1.757812 -5.929688 2.019531 -5.96875 2.28125 -5.96875 Z M 2.984375 -2.921875 L 2.4375 -2.890625 C 2.03125 -2.867188 1.722656 -2.753906 1.515625 -2.546875 C 1.316406 -2.335938 1.21875 -2.035156 1.21875 -1.640625 C 1.21875 -1.265625 1.28125 -0.988281 1.40625 -0.8125 C 1.539062 -0.644531 1.722656 -0.5625 1.953125 -0.5625 C 2.285156 -0.5625 2.539062 -0.71875 2.71875 -1.03125 C 2.894531 -1.34375 2.984375 -1.773438 2.984375 -2.328125 Z M 2.984375 -2.921875 "/></g></g></g><g fill="#2d6d5e" fill-opacity="1"><g transform="translate(37.927076, 135.901726)"><g><path d="M 2.171875 0.109375 C 1.609375 0.109375 1.179688 -0.144531 0.890625 -0.65625 C 0.609375 -1.175781 0.46875 -1.929688 0.46875 -2.921875 C 0.46875 -3.898438 0.613281 -4.648438 0.90625 -5.171875 C 1.195312 -5.703125 1.609375 -5.96875 2.140625 -5.96875 C 2.335938 -5.96875 2.519531 -5.929688 2.6875 -5.859375 C 2.851562 -5.785156 3 -5.679688 3.125 -5.546875 C 3.257812 -5.410156 3.375 -5.25 3.46875 -5.0625 L 3.515625 -5.0625 C 3.503906 -5.226562 3.492188 -5.375 3.484375 -5.5 C 3.484375 -5.632812 3.484375 -5.757812 3.484375 -5.875 L 3.484375 -8.3125 L 4.296875 -8.3125 L 4.296875 0 L 3.640625 0 L 3.53125 -0.796875 L 3.484375 -0.796875 C 3.378906 -0.609375 3.265625 -0.445312 3.140625 -0.3125 C 3.015625 -0.175781 2.875 -0.0703125 2.71875 0 C 2.5625 0.0703125 2.378906 0.109375 2.171875 0.109375 Z M 2.359375 -0.59375 C 2.722656 -0.59375 3 -0.765625 3.1875 -1.109375 C 3.382812 -1.453125 3.484375 -1.960938 3.484375 -2.640625 L 3.484375 -3.046875 C 3.484375 -3.785156 3.390625 -4.332031 3.203125 -4.6875 C 3.023438 -5.050781 2.738281 -5.234375 2.34375 -5.234375 C 1.988281 -5.234375 1.722656 -5.035156 1.546875 -4.640625 C 1.378906 -4.242188 1.296875 -3.671875 1.296875 -2.921875 C 1.296875 -2.148438 1.378906 -1.566406 1.546875 -1.171875 C 1.722656 -0.785156 1.992188 -0.59375 2.359375 -0.59375 Z M 2.359375 -0.59375 "/></g></g></g><g fill="#2d6d5e" fill-opacity="1"><g transform="translate(44.465789, 135.901726)"><g><path d="M 2.328125 -5.953125 C 2.722656 -5.953125 3.050781 -5.835938 3.3125 -5.609375 C 3.570312 -5.378906 3.765625 -5.066406 3.890625 -4.671875 C 4.015625 -4.285156 4.078125 -3.851562 4.078125 -3.375 L 4.078125 -2.78125 L 1.28125 -2.78125 C 1.289062 -2.050781 1.40625 -1.503906 1.625 -1.140625 C 1.84375 -0.773438 2.171875 -0.59375 2.609375 -0.59375 C 2.828125 -0.59375 3.035156 -0.625 3.234375 -0.6875 C 3.441406 -0.75 3.648438 -0.851562 3.859375 -1 L 3.859375 -0.265625 C 3.660156 -0.140625 3.453125 -0.046875 3.234375 0.015625 C 3.015625 0.078125 2.78125 0.109375 2.53125 0.109375 C 2.039062 0.109375 1.644531 -0.0195312 1.34375 -0.28125 C 1.039062 -0.539062 0.816406 -0.898438 0.671875 -1.359375 C 0.535156 -1.816406 0.46875 -2.332031 0.46875 -2.90625 C 0.46875 -3.550781 0.535156 -4.101562 0.671875 -4.5625 C 0.816406 -5.019531 1.023438 -5.363281 1.296875 -5.59375 C 1.578125 -5.832031 1.921875 -5.953125 2.328125 -5.953125 Z M 2.328125 -5.28125 C 2.015625 -5.28125 1.769531 -5.128906 1.59375 -4.828125 C 1.425781 -4.535156 1.328125 -4.070312 1.296875 -3.4375 L 3.3125 -3.4375 C 3.3125 -3.769531 3.273438 -4.078125 3.203125 -4.359375 C 3.140625 -4.640625 3.035156 -4.863281 2.890625 -5.03125 C 2.742188 -5.195312 2.554688 -5.28125 2.328125 -5.28125 Z M 2.328125 -5.28125 "/></g></g></g><g fill="#2d6d5e" fill-opacity="1"><g transform="translate(50.523683, 135.901726)"><g><path d="M 3.328125 -1.546875 C 3.328125 -1.191406 3.257812 -0.890625 3.125 -0.640625 C 3 -0.398438 2.8125 -0.210938 2.5625 -0.078125 C 2.320312 0.046875 2.03125 0.109375 1.6875 0.109375 C 1.414062 0.109375 1.164062 0.078125 0.9375 0.015625 C 0.71875 -0.046875 0.53125 -0.125 0.375 -0.21875 L 0.375 -1.078125 C 0.53125 -0.941406 0.722656 -0.832031 0.953125 -0.75 C 1.179688 -0.664062 1.414062 -0.625 1.65625 -0.625 C 1.925781 -0.625 2.132812 -0.703125 2.28125 -0.859375 C 2.4375 -1.015625 2.515625 -1.234375 2.515625 -1.515625 C 2.515625 -1.679688 2.484375 -1.828125 2.421875 -1.953125 C 2.359375 -2.078125 2.257812 -2.195312 2.125 -2.3125 C 1.988281 -2.425781 1.816406 -2.546875 1.609375 -2.671875 C 1.359375 -2.816406 1.140625 -2.96875 0.953125 -3.125 C 0.765625 -3.289062 0.617188 -3.476562 0.515625 -3.6875 C 0.421875 -3.894531 0.375 -4.144531 0.375 -4.4375 C 0.375 -4.894531 0.519531 -5.265625 0.8125 -5.546875 C 1.113281 -5.828125 1.503906 -5.96875 1.984375 -5.96875 C 2.234375 -5.96875 2.46875 -5.9375 2.6875 -5.875 C 2.90625 -5.8125 3.113281 -5.71875 3.3125 -5.59375 L 3 -4.9375 C 2.851562 -5.039062 2.691406 -5.117188 2.515625 -5.171875 C 2.347656 -5.234375 2.175781 -5.265625 2 -5.265625 C 1.738281 -5.265625 1.53125 -5.191406 1.375 -5.046875 C 1.226562 -4.898438 1.15625 -4.707031 1.15625 -4.46875 C 1.15625 -4.300781 1.1875 -4.15625 1.25 -4.03125 C 1.3125 -3.914062 1.410156 -3.800781 1.546875 -3.6875 C 1.679688 -3.582031 1.863281 -3.460938 2.09375 -3.328125 C 2.34375 -3.171875 2.554688 -3.015625 2.734375 -2.859375 C 2.921875 -2.703125 3.066406 -2.519531 3.171875 -2.3125 C 3.273438 -2.101562 3.328125 -1.847656 3.328125 -1.546875 Z M 3.328125 -1.546875 "/></g></g></g><g fill="#2d6d5e" fill-opacity="1"><g transform="translate(55.732131, 135.901726)"><g><path d="M 2.28125 -5.96875 C 2.820312 -5.96875 3.207031 -5.796875 3.4375 -5.453125 C 3.675781 -5.109375 3.796875 -4.609375 3.796875 -3.953125 L 3.796875 0 L 3.171875 0 L 3.046875 -0.828125 L 3.015625 -0.828125 C 2.929688 -0.628906 2.820312 -0.457031 2.6875 -0.3125 C 2.5625 -0.175781 2.414062 -0.0703125 2.25 0 C 2.09375 0.0703125 1.90625 0.109375 1.6875 0.109375 C 1.382812 0.109375 1.132812 0.03125 0.9375 -0.125 C 0.75 -0.289062 0.609375 -0.503906 0.515625 -0.765625 C 0.421875 -1.023438 0.375 -1.304688 0.375 -1.609375 C 0.375 -2.191406 0.539062 -2.640625 0.875 -2.953125 C 1.21875 -3.273438 1.695312 -3.453125 2.3125 -3.484375 L 2.96875 -3.53125 L 2.96875 -3.9375 C 2.96875 -4.40625 2.90625 -4.742188 2.78125 -4.953125 C 2.65625 -5.171875 2.445312 -5.28125 2.15625 -5.28125 C 2 -5.28125 1.828125 -5.25 1.640625 -5.1875 C 1.460938 -5.132812 1.269531 -5.046875 1.0625 -4.921875 L 0.796875 -5.546875 C 1.015625 -5.691406 1.25 -5.796875 1.5 -5.859375 C 1.757812 -5.929688 2.019531 -5.96875 2.28125 -5.96875 Z M 2.984375 -2.921875 L 2.4375 -2.890625 C 2.03125 -2.867188 1.722656 -2.753906 1.515625 -2.546875 C 1.316406 -2.335938 1.21875 -2.035156 1.21875 -1.640625 C 1.21875 -1.265625 1.28125 -0.988281 1.40625 -0.8125 C 1.539062 -0.644531 1.722656 -0.5625 1.953125 -0.5625 C 2.285156 -0.5625 2.539062 -0.71875 2.71875 -1.03125 C 2.894531 -1.34375 2.984375 -1.773438 2.984375 -2.328125 Z M 2.984375 -2.921875 "/></g></g></g><g fill="#2d6d5e" fill-opacity="1"><g transform="translate(61.757971, 135.901726)"><g><path d="M 2.40625 0.109375 C 1.976562 0.109375 1.617188 0 1.328125 -0.21875 C 1.046875 -0.445312 0.832031 -0.785156 0.6875 -1.234375 C 0.539062 -1.679688 0.46875 -2.234375 0.46875 -2.890625 C 0.46875 -3.535156 0.539062 -4.085938 0.6875 -4.546875 C 0.832031 -5.003906 1.050781 -5.351562 1.34375 -5.59375 C 1.632812 -5.84375 2 -5.96875 2.4375 -5.96875 C 2.65625 -5.96875 2.851562 -5.941406 3.03125 -5.890625 C 3.207031 -5.847656 3.375 -5.785156 3.53125 -5.703125 L 3.265625 -5.03125 C 3.140625 -5.09375 3.007812 -5.140625 2.875 -5.171875 C 2.75 -5.210938 2.625 -5.234375 2.5 -5.234375 C 2.238281 -5.234375 2.019531 -5.144531 1.84375 -4.96875 C 1.675781 -4.789062 1.546875 -4.53125 1.453125 -4.1875 C 1.359375 -3.84375 1.3125 -3.414062 1.3125 -2.90625 C 1.3125 -2.394531 1.351562 -1.96875 1.4375 -1.625 C 1.53125 -1.289062 1.664062 -1.035156 1.84375 -0.859375 C 2.019531 -0.691406 2.238281 -0.609375 2.5 -0.609375 C 2.65625 -0.609375 2.8125 -0.628906 2.96875 -0.671875 C 3.132812 -0.722656 3.300781 -0.789062 3.46875 -0.875 L 3.46875 -0.1875 C 3.3125 -0.09375 3.132812 -0.0195312 2.9375 0.03125 C 2.75 0.0820312 2.570312 0.109375 2.40625 0.109375 Z M 2.40625 0.109375 "/></g></g></g><g fill="#2d6d5e" fill-opacity="1"><g transform="translate(67.046555, 135.901726)"><g><path d="M 2.328125 -5.953125 C 2.722656 -5.953125 3.050781 -5.835938 3.3125 -5.609375 C 3.570312 -5.378906 3.765625 -5.066406 3.890625 -4.671875 C 4.015625 -4.285156 4.078125 -3.851562 4.078125 -3.375 L 4.078125 -2.78125 L 1.28125 -2.78125 C 1.289062 -2.050781 1.40625 -1.503906 1.625 -1.140625 C 1.84375 -0.773438 2.171875 -0.59375 2.609375 -0.59375 C 2.828125 -0.59375 3.035156 -0.625 3.234375 -0.6875 C 3.441406 -0.75 3.648438 -0.851562 3.859375 -1 L 3.859375 -0.265625 C 3.660156 -0.140625 3.453125 -0.046875 3.234375 0.015625 C 3.015625 0.078125 2.78125 0.109375 2.53125 0.109375 C 2.039062 0.109375 1.644531 -0.0195312 1.34375 -0.28125 C 1.039062 -0.539062 0.816406 -0.898438 0.671875 -1.359375 C 0.535156 -1.816406 0.46875 -2.332031 0.46875 -2.90625 C 0.46875 -3.550781 0.535156 -4.101562 0.671875 -4.5625 C 0.816406 -5.019531 1.023438 -5.363281 1.296875 -5.59375 C 1.578125 -5.832031 1.921875 -5.953125 2.328125 -5.953125 Z M 2.328125 -5.28125 C 2.015625 -5.28125 1.769531 -5.128906 1.59375 -4.828125 C 1.425781 -4.535156 1.328125 -4.070312 1.296875 -3.4375 L 3.3125 -3.4375 C 3.3125 -3.769531 3.273438 -4.078125 3.203125 -4.359375 C 3.140625 -4.640625 3.035156 -4.863281 2.890625 -5.03125 C 2.742188 -5.195312 2.554688 -5.28125 2.328125 -5.28125 Z M 2.328125 -5.28125 "/></g></g></g><g fill="#2d6d5e" fill-opacity="1"><g transform="translate(73.104449, 135.901726)"><g><path d="M 1.53125 0 L 0.71875 0 L 0.71875 -8.3125 L 1.53125 -8.3125 Z M 1.53125 0 "/></g></g></g><g fill="#2d6d5e" fill-opacity="1"><g transform="translate(76.881126, 135.901726)"><g><path d="M 2.328125 -5.953125 C 2.722656 -5.953125 3.050781 -5.835938 3.3125 -5.609375 C 3.570312 -5.378906 3.765625 -5.066406 3.890625 -4.671875 C 4.015625 -4.285156 4.078125 -3.851562 4.078125 -3.375 L 4.078125 -2.78125 L 1.28125 -2.78125 C 1.289062 -2.050781 1.40625 -1.503906 1.625 -1.140625 C 1.84375 -0.773438 2.171875 -0.59375 2.609375 -0.59375 C 2.828125 -0.59375 3.035156 -0.625 3.234375 -0.6875 C 3.441406 -0.75 3.648438 -0.851562 3.859375 -1 L 3.859375 -0.265625 C 3.660156 -0.140625 3.453125 -0.046875 3.234375 0.015625 C 3.015625 0.078125 2.78125 0.109375 2.53125 0.109375 C 2.039062 0.109375 1.644531 -0.0195312 1.34375 -0.28125 C 1.039062 -0.539062 0.816406 -0.898438 0.671875 -1.359375 C 0.535156 -1.816406 0.46875 -2.332031 0.46875 -2.90625 C 0.46875 -3.550781 0.535156 -4.101562 0.671875 -4.5625 C 0.816406 -5.019531 1.023438 -5.363281 1.296875 -5.59375 C 1.578125 -5.832031 1.921875 -5.953125 2.328125 -5.953125 Z M 2.328125 -5.28125 C 2.015625 -5.28125 1.769531 -5.128906 1.59375 -4.828125 C 1.425781 -4.535156 1.328125 -4.070312 1.296875 -3.4375 L 3.3125 -3.4375 C 3.3125 -3.769531 3.273438 -4.078125 3.203125 -4.359375 C 3.140625 -4.640625 3.035156 -4.863281 2.890625 -5.03125 C 2.742188 -5.195312 2.554688 -5.28125 2.328125 -5.28125 Z M 2.328125 -5.28125 "/></g></g></g><g fill="#2d6d5e" fill-opacity="1"><g transform="translate(82.93902, 135.901726)"><g><path d="M 2.671875 -5.96875 C 2.753906 -5.96875 2.835938 -5.957031 2.921875 -5.9375 C 3.003906 -5.925781 3.085938 -5.910156 3.171875 -5.890625 L 3.046875 -5.046875 C 2.984375 -5.066406 2.914062 -5.082031 2.84375 -5.09375 C 2.769531 -5.101562 2.691406 -5.109375 2.609375 -5.109375 C 2.453125 -5.109375 2.304688 -5.054688 2.171875 -4.953125 C 2.035156 -4.847656 1.921875 -4.703125 1.828125 -4.515625 C 1.734375 -4.328125 1.660156 -4.109375 1.609375 -3.859375 C 1.554688 -3.609375 1.53125 -3.34375 1.53125 -3.0625 L 1.53125 0 L 0.71875 0 L 0.71875 -5.859375 L 1.359375 -5.859375 L 1.46875 -4.828125 L 1.515625 -4.828125 C 1.597656 -5.046875 1.691406 -5.238281 1.796875 -5.40625 C 1.910156 -5.582031 2.039062 -5.71875 2.1875 -5.8125 C 2.332031 -5.914062 2.492188 -5.96875 2.671875 -5.96875 Z M 2.671875 -5.96875 "/></g></g></g><g fill="#2d6d5e" fill-opacity="1"><g transform="translate(87.752128, 135.901726)"><g><path d="M 2.28125 -5.96875 C 2.820312 -5.96875 3.207031 -5.796875 3.4375 -5.453125 C 3.675781 -5.109375 3.796875 -4.609375 3.796875 -3.953125 L 3.796875 0 L 3.171875 0 L 3.046875 -0.828125 L 3.015625 -0.828125 C 2.929688 -0.628906 2.820312 -0.457031 2.6875 -0.3125 C 2.5625 -0.175781 2.414062 -0.0703125 2.25 0 C 2.09375 0.0703125 1.90625 0.109375 1.6875 0.109375 C 1.382812 0.109375 1.132812 0.03125 0.9375 -0.125 C 0.75 -0.289062 0.609375 -0.503906 0.515625 -0.765625 C 0.421875 -1.023438 0.375 -1.304688 0.375 -1.609375 C 0.375 -2.191406 0.539062 -2.640625 0.875 -2.953125 C 1.21875 -3.273438 1.695312 -3.453125 2.3125 -3.484375 L 2.96875 -3.53125 L 2.96875 -3.9375 C 2.96875 -4.40625 2.90625 -4.742188 2.78125 -4.953125 C 2.65625 -5.171875 2.445312 -5.28125 2.15625 -5.28125 C 2 -5.28125 1.828125 -5.25 1.640625 -5.1875 C 1.460938 -5.132812 1.269531 -5.046875 1.0625 -4.921875 L 0.796875 -5.546875 C 1.015625 -5.691406 1.25 -5.796875 1.5 -5.859375 C 1.757812 -5.929688 2.019531 -5.96875 2.28125 -5.96875 Z M 2.984375 -2.921875 L 2.4375 -2.890625 C 2.03125 -2.867188 1.722656 -2.753906 1.515625 -2.546875 C 1.316406 -2.335938 1.21875 -2.035156 1.21875 -1.640625 C 1.21875 -1.265625 1.28125 -0.988281 1.40625 -0.8125 C 1.539062 -0.644531 1.722656 -0.5625 1.953125 -0.5625 C 2.285156 -0.5625 2.539062 -0.71875 2.71875 -1.03125 C 2.894531 -1.34375 2.984375 -1.773438 2.984375 -2.328125 Z M 2.984375 -2.921875 "/></g></g></g><g fill="#2d6d5e" fill-opacity="1"><g transform="translate(93.777968, 135.901726)"><g><path d="M 2.671875 -5.96875 C 2.753906 -5.96875 2.835938 -5.957031 2.921875 -5.9375 C 3.003906 -5.925781 3.085938 -5.910156 3.171875 -5.890625 L 3.046875 -5.046875 C 2.984375 -5.066406 2.914062 -5.082031 2.84375 -5.09375 C 2.769531 -5.101562 2.691406 -5.109375 2.609375 -5.109375 C 2.453125 -5.109375 2.304688 -5.054688 2.171875 -4.953125 C 2.035156 -4.847656 1.921875 -4.703125 1.828125 -4.515625 C 1.734375 -4.328125 1.660156 -4.109375 1.609375 -3.859375 C 1.554688 -3.609375 1.53125 -3.34375 1.53125 -3.0625 L 1.53125 0 L 0.71875 0 L 0.71875 -5.859375 L 1.359375 -5.859375 L 1.46875 -4.828125 L 1.515625 -4.828125 C 1.597656 -5.046875 1.691406 -5.238281 1.796875 -5.40625 C 1.910156 -5.582031 2.039062 -5.71875 2.1875 -5.8125 C 2.332031 -5.914062 2.492188 -5.96875 2.671875 -5.96875 Z M 2.671875 -5.96875 "/></g></g></g><g clip-path="url(#6811d5b676)"><path fill="#0661aa" d="M 101.402344 61.453125 C 100.980469 61.117188 100.496094 60.957031 99.957031 60.964844 C 99.570312 60.96875 99.195312 61.046875 98.839844 61.203125 L 98.246094 61.035156 L 95.578125 60.285156 C 95.296875 60.199219 92.703125 59.410156 91.359375 59.332031 C 87.195312 57.8125 84.6875 57.109375 83.378906 56.761719 C 83.242188 56.058594 83.035156 55.296875 82.800781 54.445312 C 82.273438 52.511719 81.617188 50.105469 81.359375 46.859375 C 80.945312 41.707031 76.640625 39.617188 74.355469 39.214844 C 71.71875 38.382812 70.089844 38.011719 67.496094 38.011719 C 64.90625 38.011719 63.277344 38.382812 60.636719 39.214844 C 58.351562 39.617188 54.050781 41.707031 53.636719 46.859375 C 53.378906 50.105469 52.722656 52.511719 52.195312 54.445312 C 51.960938 55.296875 51.753906 56.058594 51.617188 56.761719 C 50.304688 57.109375 47.800781 57.8125 43.636719 59.332031 C 42.289062 59.410156 39.695312 60.199219 39.390625 60.292969 L 36.75 61.035156 L 36.15625 61.203125 C 35.796875 61.046875 35.425781 60.96875 35.039062 60.964844 C 34.496094 60.957031 34.015625 61.117188 33.59375 61.453125 L 31.53125 63.21875 L 34.171875 63.21875 C 34.339844 63.3125 34.6875 63.652344 34.949219 63.902344 C 35.835938 64.769531 37.054688 65.953125 38.894531 66.183594 C 39.128906 66.210938 39.363281 66.226562 39.601562 66.226562 C 40.238281 66.222656 40.859375 66.125 41.46875 65.9375 C 41.328125 66.207031 41.222656 66.492188 41.144531 66.789062 L 41.132812 66.910156 C 41.132812 69.527344 43.0625 73.183594 52.265625 75.730469 C 57.382812 77.144531 62.8125 77.632812 67.445312 77.632812 C 69.636719 77.640625 71.828125 77.523438 74.007812 77.277344 C 74.160156 77.324219 74.3125 77.363281 74.460938 77.410156 L 74.570312 77.445312 L 74.683594 77.425781 C 77.886719 76.949219 80.597656 76.375 82.738281 75.726562 C 90.121094 73.488281 93.863281 70.519531 93.863281 66.910156 L 93.851562 66.789062 C 93.773438 66.492188 93.667969 66.207031 93.527344 65.9375 C 94.136719 66.125 94.757812 66.222656 95.394531 66.226562 C 95.628906 66.226562 95.867188 66.210938 96.101562 66.183594 C 97.9375 65.953125 99.15625 64.769531 100.046875 63.90625 C 100.308594 63.652344 100.65625 63.3125 100.824219 63.21875 L 103.464844 63.21875 Z M 74.082031 76.253906 C 73.628906 76.308594 73.15625 76.359375 72.652344 76.402344 C 72.078125 76.453125 71.460938 76.492188 70.824219 76.523438 C 65.695312 76.796875 58.808594 76.496094 52.535156 74.761719 C 45.773438 72.890625 42.179688 70.199219 42.136719 66.972656 C 42.300781 66.367188 42.683594 65.71875 43.3125 65.148438 C 43.800781 64.714844 44.34375 64.375 44.949219 64.128906 C 46.402344 63.519531 48.421875 63.273438 51.085938 63.820312 C 51.84375 63.976562 53.980469 64.910156 56.753906 66.199219 C 57.050781 66.339844 57.355469 66.480469 57.667969 66.625 C 60.117188 67.777344 62.96875 69.15625 65.78125 70.511719 L 66.476562 70.847656 L 67.0625 71.132812 L 67.648438 71.414062 C 69.558594 72.335938 71.460938 73.25 73.273438 74.109375 C 73.671875 74.296875 74.0625 74.484375 74.453125 74.667969 C 75.292969 75.0625 76.109375 75.445312 76.886719 75.800781 C 75.957031 76 75.023438 76.152344 74.082031 76.253906 Z M 53.09375 63.472656 L 55.226562 63.472656 L 55.527344 63.117188 C 57.007812 61.382812 59.046875 57.898438 59.894531 54.074219 C 60.175781 55.421875 60.339844 56.78125 60.394531 58.15625 C 59.9375 60.1875 58.292969 63.394531 57.242188 65.316406 C 55.578125 64.542969 54.164062 63.90625 53.09375 63.472656 Z M 82.449219 74.765625 C 81.421875 75.078125 80.253906 75.371094 78.964844 75.644531 L 78.519531 75.445312 C 77.574219 75.015625 76.550781 74.542969 75.484375 74.042969 C 75.128906 73.875 74.773438 73.707031 74.410156 73.535156 C 72.621094 72.691406 70.730469 71.785156 68.820312 70.863281 C 71.347656 69.671875 73.761719 68.496094 75.84375 67.480469 C 76.375 67.21875 76.886719 66.96875 77.386719 66.726562 C 77.699219 66.574219 77.996094 66.429688 78.292969 66.285156 C 81.042969 64.953125 83.128906 63.984375 83.910156 63.820312 C 86.574219 63.273438 88.59375 63.519531 90.046875 64.128906 C 90.652344 64.375 91.195312 64.714844 91.683594 65.148438 C 92.3125 65.71875 92.695312 66.367188 92.859375 66.972656 C 92.8125 70.0625 89.3125 72.683594 82.449219 74.765625 Z M 74.601562 58.15625 C 74.65625 56.78125 74.820312 55.421875 75.101562 54.074219 C 75.949219 57.898438 77.984375 61.382812 79.464844 63.117188 L 79.765625 63.472656 L 81.957031 63.472656 C 80.898438 63.925781 79.488281 64.589844 77.800781 65.40625 C 76.753906 63.496094 75.066406 60.21875 74.601562 58.15625 Z M 95.976562 65.1875 C 95.796875 65.207031 95.613281 65.21875 95.429688 65.222656 C 95.394531 65.222656 95.359375 65.21875 95.324219 65.21875 C 95.078125 65.214844 94.835938 65.191406 94.59375 65.152344 C 94.566406 65.148438 94.539062 65.148438 94.515625 65.140625 C 94.253906 65.09375 94 65.03125 93.746094 64.949219 C 93.699219 64.933594 93.648438 64.917969 93.597656 64.902344 C 93.34375 64.816406 93.085938 64.714844 92.820312 64.59375 C 92.773438 64.574219 92.726562 64.550781 92.679688 64.527344 C 92.523438 64.457031 92.363281 64.371094 92.203125 64.285156 C 91.707031 63.867188 91.164062 63.53125 90.570312 63.269531 C 89.902344 62.800781 89.324219 62.464844 87.984375 62.464844 L 80.230469 62.464844 C 78.410156 60.332031 75.710938 55.328125 75.710938 50.664062 C 75.835938 49.34375 77.234375 47.210938 77.234375 47.210938 C 76.242188 47.457031 73.828125 51.792969 73.589844 58.242188 C 74.042969 60.410156 75.800781 63.84375 76.898438 65.847656 C 76.417969 66.082031 75.917969 66.324219 75.402344 66.574219 C 73.121094 67.691406 70.441406 68.996094 67.652344 70.300781 L 66.21875 69.609375 C 63.28125 68.191406 60.515625 66.851562 58.15625 65.746094 C 59.253906 63.730469 60.960938 60.375 61.402344 58.242188 C 61.167969 51.792969 58.753906 47.457031 57.757812 47.210938 C 57.757812 47.210938 59.160156 49.34375 59.285156 50.664062 C 59.285156 55.328125 56.585938 60.332031 54.765625 62.464844 L 47.011719 62.464844 C 45.664062 62.464844 45.085938 62.804688 44.414062 63.277344 C 43.828125 63.535156 43.289062 63.871094 42.796875 64.285156 C 42.636719 64.367188 42.472656 64.457031 42.3125 64.527344 C 42.269531 64.550781 42.21875 64.574219 42.175781 64.59375 C 41.910156 64.714844 41.652344 64.816406 41.394531 64.902344 C 41.347656 64.917969 41.296875 64.933594 41.25 64.949219 C 40.996094 65.027344 40.742188 65.09375 40.480469 65.140625 C 40.453125 65.144531 40.425781 65.148438 40.402344 65.152344 C 40.160156 65.191406 39.914062 65.214844 39.671875 65.214844 C 39.648438 65.214844 39.625 65.222656 39.601562 65.222656 C 39.40625 65.222656 39.210938 65.210938 39.019531 65.1875 C 36.5 64.871094 35.25 62.214844 34.246094 62.214844 C 34.246094 62.214844 34.261719 62.203125 34.292969 62.179688 C 34.335938 62.152344 34.382812 62.128906 34.429688 62.105469 C 34.449219 62.09375 34.476562 62.085938 34.503906 62.074219 C 34.550781 62.054688 34.601562 62.039062 34.648438 62.023438 C 34.6875 62.015625 34.722656 62.007812 34.761719 62 C 34.828125 61.988281 34.890625 61.980469 34.953125 61.980469 C 34.984375 61.976562 35.007812 61.96875 35.039062 61.96875 C 35.0625 61.96875 35.089844 61.976562 35.117188 61.976562 C 35.160156 61.976562 35.203125 61.984375 35.25 61.988281 C 35.324219 62 35.398438 62.015625 35.472656 62.035156 C 35.523438 62.046875 35.570312 62.058594 35.621094 62.078125 C 35.714844 62.113281 35.808594 62.152344 35.898438 62.199219 C 35.945312 62.222656 35.992188 62.242188 36.042969 62.269531 C 36.207031 62.363281 36.359375 62.472656 36.507812 62.589844 C 36.6875 62.738281 36.875 62.871094 37.074219 62.992188 C 37.132812 63.03125 37.195312 63.058594 37.253906 63.09375 C 37.375 63.160156 37.5 63.222656 37.628906 63.28125 C 37.695312 63.308594 37.765625 63.332031 37.832031 63.355469 C 37.945312 63.398438 38.058594 63.429688 38.171875 63.457031 C 38.238281 63.472656 38.304688 63.488281 38.371094 63.5 C 38.484375 63.519531 38.59375 63.527344 38.707031 63.535156 C 38.75 63.535156 38.792969 63.546875 38.832031 63.546875 C 39.054688 63.539062 39.273438 63.511719 39.488281 63.457031 C 39.527344 63.445312 39.570312 63.433594 39.609375 63.421875 C 39.8125 63.359375 40.003906 63.28125 40.1875 63.179688 C 40.511719 62.988281 40.8125 62.765625 41.089844 62.507812 C 41.089844 62.507812 40.960938 62.511719 40.757812 62.515625 C 40.671875 62.515625 40.566406 62.519531 40.453125 62.519531 L 40.367188 62.519531 C 40.242188 62.523438 40.113281 62.523438 39.972656 62.527344 C 39.84375 62.527344 39.707031 62.527344 39.570312 62.527344 L 39.457031 62.527344 C 39.421875 62.527344 39.386719 62.527344 39.351562 62.527344 C 39.25 62.527344 39.148438 62.527344 39.046875 62.527344 C 38.917969 62.527344 38.796875 62.523438 38.683594 62.523438 L 38.597656 62.519531 C 38.484375 62.515625 38.382812 62.511719 38.296875 62.507812 C 37.710938 62.464844 37.019531 62 37.019531 62 L 39.6875 61.253906 C 39.6875 61.253906 42.671875 60.335938 43.832031 60.332031 C 48.855469 58.488281 51.417969 57.851562 52.503906 57.570312 C 52.777344 55.34375 54.21875 52.199219 54.640625 46.9375 C 55.101562 41.140625 60.875 40.195312 60.875 40.195312 C 63.355469 39.410156 64.925781 39.015625 67.496094 39.015625 C 70.070312 39.015625 71.636719 39.410156 74.121094 40.195312 C 74.121094 40.195312 79.890625 41.140625 80.355469 46.9375 C 80.777344 52.199219 82.21875 55.34375 82.492188 57.570312 C 83.578125 57.851562 86.140625 58.488281 91.164062 60.332031 C 92.324219 60.335938 95.308594 61.253906 95.308594 61.253906 L 97.972656 62.003906 C 97.972656 62.003906 97.285156 62.46875 96.695312 62.507812 C 96.613281 62.515625 96.507812 62.519531 96.398438 62.519531 L 96.3125 62.523438 C 96.109375 62.527344 95.882812 62.53125 95.640625 62.53125 C 95.605469 62.53125 95.570312 62.53125 95.535156 62.53125 L 95.421875 62.53125 C 95.289062 62.53125 95.152344 62.53125 95.023438 62.527344 C 94.882812 62.527344 94.753906 62.523438 94.628906 62.523438 L 94.539062 62.519531 C 94.429688 62.519531 94.324219 62.519531 94.234375 62.515625 C 94.03125 62.511719 93.90625 62.507812 93.90625 62.507812 C 94.179688 62.765625 94.480469 62.988281 94.808594 63.179688 C 94.988281 63.28125 95.183594 63.363281 95.382812 63.421875 C 95.425781 63.433594 95.464844 63.449219 95.507812 63.457031 C 95.707031 63.511719 95.914062 63.539062 96.121094 63.542969 C 96.175781 63.542969 96.230469 63.542969 96.285156 63.535156 C 96.398438 63.53125 96.511719 63.519531 96.625 63.5 C 96.6875 63.492188 96.753906 63.476562 96.820312 63.460938 C 96.9375 63.433594 97.050781 63.398438 97.164062 63.359375 C 97.230469 63.335938 97.296875 63.3125 97.367188 63.28125 C 97.492188 63.226562 97.621094 63.164062 97.742188 63.09375 C 97.800781 63.0625 97.859375 63.03125 97.921875 62.996094 C 98.121094 62.871094 98.308594 62.738281 98.488281 62.59375 C 98.632812 62.472656 98.789062 62.367188 98.953125 62.273438 C 99 62.242188 99.046875 62.226562 99.097656 62.199219 C 99.1875 62.15625 99.277344 62.113281 99.371094 62.078125 C 99.425781 62.0625 99.472656 62.050781 99.519531 62.035156 C 99.59375 62.015625 99.671875 62 99.746094 61.988281 C 99.792969 61.984375 99.835938 61.980469 99.878906 61.976562 C 99.902344 61.976562 99.933594 61.96875 99.957031 61.96875 C 99.988281 61.96875 100.011719 61.976562 100.039062 61.980469 C 100.105469 61.980469 100.167969 61.988281 100.230469 62 C 100.273438 62.007812 100.308594 62.015625 100.34375 62.023438 C 100.394531 62.039062 100.445312 62.054688 100.492188 62.074219 C 100.519531 62.085938 100.542969 62.09375 100.566406 62.105469 C 100.601562 62.125 100.636719 62.140625 100.667969 62.164062 C 100.730469 62.203125 100.75 62.214844 100.75 62.214844 C 99.742188 62.214844 98.496094 64.871094 95.976562 65.1875 Z M 66.085938 35.792969 C 66.554688 35.890625 67.03125 35.941406 67.511719 35.941406 C 67.804688 35.941406 68.097656 35.921875 68.386719 35.882812 C 68.675781 35.847656 68.964844 35.792969 69.246094 35.71875 C 69.53125 35.644531 69.808594 35.554688 70.082031 35.445312 C 70.351562 35.335938 70.617188 35.210938 70.875 35.066406 C 71.128906 34.925781 71.375 34.765625 71.609375 34.59375 C 71.847656 34.421875 72.070312 34.234375 72.285156 34.03125 C 72.496094 33.828125 72.695312 33.613281 72.878906 33.386719 C 73.066406 33.160156 73.234375 32.921875 73.390625 32.675781 C 73.542969 32.425781 73.683594 32.167969 73.804688 31.902344 C 73.929688 31.636719 74.03125 31.363281 74.121094 31.085938 C 74.207031 30.804688 74.277344 30.519531 74.328125 30.234375 C 74.382812 29.945312 74.414062 29.652344 74.429688 29.359375 C 74.445312 29.070312 74.441406 28.777344 74.417969 28.484375 C 74.398438 28.191406 74.355469 27.902344 74.296875 27.617188 C 74.238281 27.328125 74.164062 27.046875 74.066406 26.769531 C 73.972656 26.492188 73.863281 26.222656 73.734375 25.960938 C 73.605469 25.695312 73.457031 25.441406 73.296875 25.199219 C 73.136719 24.953125 72.960938 24.71875 72.769531 24.496094 C 72.578125 24.273438 72.375 24.066406 72.160156 23.867188 C 71.941406 23.671875 71.714844 23.488281 71.472656 23.320312 C 71.234375 23.15625 70.984375 23.003906 70.722656 22.867188 C 70.464844 22.730469 70.195312 22.613281 69.921875 22.511719 C 69.648438 22.40625 69.367188 22.324219 69.082031 22.257812 C 68.796875 22.191406 68.507812 22.140625 68.21875 22.113281 C 67.925781 22.082031 67.632812 22.070312 67.34375 22.078125 C 67.050781 22.085938 66.757812 22.109375 66.46875 22.152344 C 66.179688 22.199219 65.894531 22.257812 65.609375 22.339844 C 65.328125 22.417969 65.054688 22.515625 64.785156 22.632812 C 64.515625 22.746094 64.253906 22.878906 64 23.027344 C 63.75 23.175781 63.507812 23.339844 63.273438 23.515625 C 63.042969 23.695312 62.824219 23.886719 62.613281 24.09375 C 62.40625 24.300781 62.214844 24.519531 62.035156 24.753906 C 61.855469 24.984375 61.691406 25.226562 61.539062 25.476562 C 61.390625 25.730469 61.257812 25.988281 61.144531 26.257812 C 61.027344 26.527344 60.929688 26.800781 60.847656 27.082031 C 60.765625 27.363281 60.703125 27.652344 60.65625 27.941406 C 60.613281 28.230469 60.585938 28.519531 60.578125 28.8125 C 60.570312 29.105469 60.578125 29.398438 60.609375 29.691406 C 60.636719 29.980469 60.683594 30.269531 60.75 30.554688 C 60.816406 30.839844 60.898438 31.121094 61 31.394531 C 61.097656 31.671875 61.21875 31.9375 61.351562 32.199219 C 61.488281 32.457031 61.636719 32.707031 61.804688 32.949219 C 61.972656 33.191406 62.152344 33.421875 62.347656 33.636719 C 62.542969 33.855469 62.75 34.0625 62.972656 34.253906 C 63.195312 34.445312 63.429688 34.621094 63.671875 34.78125 C 63.914062 34.945312 64.167969 35.089844 64.433594 35.21875 C 64.695312 35.351562 64.964844 35.464844 65.242188 35.558594 C 65.515625 35.65625 65.800781 35.734375 66.085938 35.792969 Z M 64.257812 24.074219 C 64.582031 23.863281 64.925781 23.683594 65.285156 23.539062 C 65.644531 23.394531 66.015625 23.285156 66.398438 23.210938 C 66.777344 23.140625 67.164062 23.105469 67.550781 23.109375 C 67.941406 23.113281 68.324219 23.15625 68.703125 23.234375 C 69.082031 23.3125 69.453125 23.429688 69.808594 23.582031 C 70.167969 23.734375 70.503906 23.917969 70.824219 24.136719 C 71.148438 24.355469 71.441406 24.601562 71.714844 24.878906 C 71.988281 25.15625 72.230469 25.457031 72.441406 25.78125 C 72.65625 26.105469 72.832031 26.449219 72.980469 26.808594 C 73.125 27.167969 73.234375 27.539062 73.304688 27.921875 C 73.378906 28.300781 73.410156 28.6875 73.40625 29.074219 C 73.40625 29.464844 73.363281 29.847656 73.285156 30.226562 C 73.203125 30.609375 73.089844 30.976562 72.9375 31.332031 C 72.785156 31.691406 72.601562 32.03125 72.382812 32.351562 C 72.164062 32.671875 71.917969 32.96875 71.640625 33.238281 C 71.363281 33.511719 71.0625 33.753906 70.738281 33.96875 C 70.414062 34.179688 70.070312 34.359375 69.710938 34.503906 C 69.351562 34.648438 68.980469 34.757812 68.597656 34.828125 C 68.214844 34.902344 67.832031 34.9375 67.445312 34.933594 C 67.054688 34.929688 66.671875 34.886719 66.292969 34.808594 C 65.910156 34.726562 65.542969 34.613281 65.1875 34.460938 C 64.828125 34.308594 64.488281 34.125 64.167969 33.90625 C 63.847656 33.6875 63.550781 33.4375 63.28125 33.160156 C 63.007812 32.886719 62.765625 32.582031 62.554688 32.257812 C 62.339844 31.933594 62.160156 31.59375 62.015625 31.230469 C 61.871094 30.871094 61.761719 30.5 61.691406 30.121094 C 61.617188 29.738281 61.582031 29.355469 61.585938 28.964844 C 61.589844 28.578125 61.632812 28.195312 61.710938 27.8125 C 61.789062 27.433594 61.90625 27.066406 62.058594 26.707031 C 62.207031 26.351562 62.394531 26.011719 62.613281 25.691406 C 62.832031 25.371094 63.078125 25.074219 63.355469 24.800781 C 63.632812 24.53125 63.933594 24.289062 64.257812 24.074219 Z M 64.257812 24.074219 " fill-opacity="1" fill-rule="nonzero"/></g></svg>