<svg xmlns="http://www.w3.org/2000/svg" xmlns:xlink="http://www.w3.org/1999/xlink" width="180" zoomAndPan="magnify" viewBox="0 0 135 161.249994" height="215" preserveAspectRatio="xMidYMid meet" version="1.2"><defs><clipPath id="dd10db4dc5"><path d="M 38.519531 29.566406 L 96.75 29.566406 L 96.75 74.359375 L 38.519531 74.359375 Z M 38.519531 29.566406 "/></clipPath></defs><g id="bebca61410"><g clip-rule="nonzero" clip-path="url(#dd10db4dc5)"><path style=" stroke:none;fill-rule:nonzero;fill:#0661aa;fill-opacity:1;" d="M 94.472656 61.386719 C 94.132812 61.117188 93.746094 60.988281 93.316406 60.996094 C 93.003906 60.996094 92.707031 61.058594 92.421875 61.183594 L 91.945312 61.050781 L 89.808594 60.453125 C 89.582031 60.382812 87.507812 59.75 86.429688 59.6875 C 83.09375 58.46875 81.085938 57.90625 80.039062 57.628906 C 79.929688 57.066406 79.761719 56.457031 79.578125 55.773438 C 79.152344 54.226562 78.628906 52.300781 78.421875 49.699219 C 78.089844 45.574219 74.644531 43.902344 72.8125 43.578125 C 70.703125 42.914062 69.398438 42.617188 67.320312 42.617188 C 65.246094 42.617188 63.941406 42.914062 61.828125 43.578125 C 60 43.902344 56.550781 45.574219 56.222656 49.699219 C 56.015625 52.300781 55.488281 54.226562 55.066406 55.773438 C 54.878906 56.457031 54.710938 57.066406 54.605469 57.628906 C 53.554688 57.90625 51.546875 58.46875 48.214844 59.6875 C 47.136719 59.75 45.058594 60.382812 44.816406 60.457031 L 42.699219 61.050781 L 42.222656 61.183594 C 41.9375 61.0625 41.640625 60.996094 41.328125 60.996094 C 40.894531 60.988281 40.511719 61.117188 40.171875 61.386719 L 38.519531 62.800781 L 40.632812 62.800781 C 40.769531 62.875 41.046875 63.148438 41.257812 63.347656 C 41.96875 64.042969 42.945312 64.992188 44.414062 65.175781 C 44.605469 65.199219 44.792969 65.210938 44.984375 65.210938 C 45.492188 65.207031 45.992188 65.128906 46.476562 64.976562 C 46.367188 65.195312 46.28125 65.421875 46.21875 65.660156 L 46.207031 65.753906 C 46.207031 67.851562 47.753906 70.777344 55.125 72.816406 C 59.21875 73.949219 63.570312 74.34375 67.277344 74.34375 C 69.035156 74.347656 70.789062 74.253906 72.535156 74.058594 C 72.65625 74.09375 72.777344 74.125 72.898438 74.164062 L 72.984375 74.191406 L 73.074219 74.175781 C 75.640625 73.792969 77.8125 73.335938 79.527344 72.816406 C 85.4375 71.023438 88.433594 68.648438 88.433594 65.753906 L 88.421875 65.660156 C 88.363281 65.421875 88.277344 65.195312 88.167969 64.976562 C 88.652344 65.128906 89.148438 65.207031 89.660156 65.210938 C 89.847656 65.210938 90.039062 65.199219 90.226562 65.175781 C 91.699219 64.992188 92.675781 64.042969 93.386719 63.347656 C 93.59375 63.148438 93.875 62.875 94.007812 62.800781 L 96.125 62.800781 Z M 72.59375 73.238281 C 72.230469 73.28125 71.851562 73.320312 71.449219 73.355469 C 70.988281 73.398438 70.496094 73.429688 69.984375 73.453125 C 65.878906 73.671875 60.363281 73.433594 55.339844 72.042969 C 49.925781 70.546875 47.046875 68.390625 47.011719 65.804688 C 47.144531 65.320312 47.453125 64.800781 47.953125 64.34375 C 48.34375 63.996094 48.78125 63.726562 49.265625 63.53125 C 50.429688 63.042969 52.046875 62.84375 54.179688 63.285156 C 54.785156 63.40625 56.496094 64.152344 58.71875 65.1875 C 58.957031 65.296875 59.199219 65.410156 59.449219 65.527344 C 61.410156 66.449219 63.695312 67.554688 65.949219 68.640625 L 66.503906 68.910156 L 67.441406 69.363281 C 68.96875 70.101562 70.496094 70.832031 71.945312 71.523438 C 72.265625 71.671875 72.578125 71.820312 72.890625 71.96875 C 73.5625 72.285156 74.214844 72.589844 74.839844 72.875 C 74.097656 73.035156 73.347656 73.15625 72.59375 73.238281 Z M 55.789062 63.003906 L 57.496094 63.003906 L 57.738281 62.71875 C 58.921875 61.328125 60.554688 58.539062 61.234375 55.476562 C 61.457031 56.554688 61.589844 57.644531 61.632812 58.746094 C 61.265625 60.371094 59.949219 62.941406 59.109375 64.480469 C 57.777344 63.859375 56.644531 63.351562 55.789062 63.003906 Z M 79.292969 72.046875 C 78.46875 72.296875 77.539062 72.53125 76.503906 72.75 L 76.148438 72.589844 C 75.390625 72.246094 74.570312 71.867188 73.714844 71.46875 C 73.433594 71.335938 73.148438 71.199219 72.855469 71.0625 C 71.425781 70.386719 69.910156 69.660156 68.378906 68.921875 C 70.402344 67.96875 72.335938 67.027344 74.003906 66.210938 C 74.429688 66.003906 74.839844 65.804688 75.238281 65.609375 C 75.488281 65.488281 75.726562 65.371094 75.964844 65.257812 C 78.167969 64.1875 79.835938 63.414062 80.460938 63.28125 C 82.597656 62.84375 84.214844 63.042969 85.378906 63.53125 C 85.863281 63.726562 86.300781 63.996094 86.691406 64.34375 C 87.191406 64.800781 87.5 65.320312 87.628906 65.804688 C 87.59375 68.28125 84.789062 70.378906 79.292969 72.046875 Z M 73.007812 58.746094 C 73.050781 57.644531 73.1875 56.554688 73.410156 55.476562 C 74.085938 58.539062 75.71875 61.328125 76.90625 62.71875 L 77.148438 63.003906 L 78.902344 63.003906 C 78.050781 63.363281 76.925781 63.898438 75.574219 64.554688 C 74.734375 63.023438 73.382812 60.398438 73.007812 58.746094 Z M 90.128906 64.375 C 89.980469 64.394531 89.835938 64.402344 89.6875 64.402344 C 89.660156 64.402344 89.632812 64.402344 89.605469 64.402344 C 89.40625 64.398438 89.214844 64.378906 89.019531 64.347656 C 89 64.34375 88.976562 64.34375 88.957031 64.339844 C 88.746094 64.300781 88.542969 64.25 88.339844 64.183594 C 88.300781 64.171875 88.261719 64.160156 88.222656 64.148438 C 88.019531 64.078125 87.8125 63.996094 87.601562 63.902344 C 87.5625 63.886719 87.523438 63.867188 87.488281 63.847656 C 87.363281 63.792969 87.234375 63.722656 87.105469 63.65625 C 86.707031 63.320312 86.273438 63.050781 85.796875 62.839844 C 85.261719 62.464844 84.800781 62.199219 83.726562 62.199219 L 77.519531 62.199219 C 76.058594 60.488281 73.898438 56.484375 73.898438 52.746094 C 74 51.691406 75.121094 49.980469 75.121094 49.980469 C 74.324219 50.175781 72.390625 53.652344 72.203125 58.816406 C 72.5625 60.550781 73.972656 63.300781 74.847656 64.90625 C 74.464844 65.089844 74.066406 65.285156 73.652344 65.488281 C 71.824219 66.378906 69.679688 67.425781 67.445312 68.472656 L 66.296875 67.917969 C 63.945312 66.78125 61.730469 65.710938 59.839844 64.824219 C 60.71875 63.210938 62.085938 60.523438 62.441406 58.816406 C 62.253906 53.652344 60.320312 50.175781 59.523438 49.980469 C 59.523438 49.980469 60.644531 51.691406 60.746094 52.746094 C 60.746094 56.484375 58.582031 60.488281 57.125 62.195312 L 50.917969 62.195312 C 49.839844 62.195312 49.375 62.46875 48.835938 62.847656 C 48.367188 63.054688 47.933594 63.320312 47.542969 63.652344 C 47.410156 63.71875 47.28125 63.789062 47.15625 63.847656 C 47.117188 63.867188 47.078125 63.886719 47.042969 63.902344 C 46.832031 63.996094 46.625 64.078125 46.417969 64.148438 C 46.378906 64.160156 46.339844 64.171875 46.300781 64.183594 C 46.101562 64.25 45.894531 64.300781 45.6875 64.339844 C 45.664062 64.34375 45.644531 64.34375 45.625 64.347656 C 45.429688 64.378906 45.234375 64.398438 45.039062 64.398438 C 45.019531 64.398438 45 64.40625 44.984375 64.40625 C 44.828125 64.402344 44.671875 64.394531 44.515625 64.375 C 42.496094 64.125 41.5 61.996094 40.695312 61.996094 C 40.695312 61.996094 40.707031 61.984375 40.730469 61.96875 C 40.765625 61.949219 40.800781 61.925781 40.839844 61.910156 C 40.859375 61.898438 40.878906 61.894531 40.898438 61.882812 C 40.9375 61.867188 40.976562 61.855469 41.019531 61.84375 C 41.046875 61.835938 41.074219 61.832031 41.109375 61.824219 C 41.160156 61.816406 41.210938 61.808594 41.261719 61.808594 C 41.285156 61.804688 41.304688 61.800781 41.328125 61.800781 C 41.347656 61.800781 41.371094 61.804688 41.390625 61.804688 C 41.425781 61.808594 41.460938 61.8125 41.496094 61.816406 C 41.558594 61.824219 41.617188 61.835938 41.675781 61.851562 C 41.714844 61.863281 41.753906 61.871094 41.796875 61.886719 C 41.871094 61.914062 41.945312 61.949219 42.015625 61.984375 C 42.054688 62.003906 42.09375 62.019531 42.132812 62.042969 C 42.261719 62.117188 42.386719 62.203125 42.503906 62.296875 C 42.648438 62.414062 42.800781 62.523438 42.957031 62.621094 C 43.007812 62.648438 43.054688 62.671875 43.101562 62.699219 C 43.199219 62.753906 43.300781 62.804688 43.402344 62.851562 C 43.457031 62.871094 43.511719 62.890625 43.566406 62.910156 C 43.65625 62.941406 43.746094 62.96875 43.839844 62.992188 C 43.890625 63.003906 43.945312 63.015625 43.996094 63.027344 C 44.085938 63.039062 44.175781 63.046875 44.265625 63.050781 C 44.300781 63.054688 44.332031 63.0625 44.367188 63.0625 C 44.542969 63.058594 44.71875 63.035156 44.890625 62.992188 C 44.925781 62.980469 44.957031 62.972656 44.988281 62.960938 C 45.152344 62.914062 45.304688 62.847656 45.453125 62.769531 C 45.710938 62.617188 45.953125 62.4375 46.175781 62.230469 C 46.175781 62.230469 46.070312 62.234375 45.910156 62.234375 C 45.839844 62.238281 45.753906 62.238281 45.664062 62.242188 L 45.59375 62.242188 C 45.496094 62.242188 45.390625 62.246094 45.28125 62.246094 C 45.175781 62.246094 45.066406 62.246094 44.957031 62.246094 L 44.867188 62.246094 C 44.839844 62.246094 44.8125 62.246094 44.78125 62.246094 C 44.699219 62.246094 44.617188 62.246094 44.539062 62.246094 C 44.433594 62.246094 44.339844 62.246094 44.246094 62.242188 L 44.179688 62.242188 C 44.089844 62.238281 44.003906 62.234375 43.9375 62.230469 C 43.46875 62.199219 42.914062 61.824219 42.914062 61.824219 L 45.050781 61.226562 C 45.050781 61.226562 47.441406 60.492188 48.371094 60.488281 C 52.390625 59.011719 54.445312 58.5 55.316406 58.277344 C 55.53125 56.496094 56.6875 53.976562 57.023438 49.761719 C 57.394531 45.121094 62.019531 44.363281 62.019531 44.363281 C 64.003906 43.734375 65.261719 43.421875 67.320312 43.421875 C 69.382812 43.421875 70.636719 43.734375 72.625 44.363281 C 72.625 44.363281 77.246094 45.121094 77.617188 49.761719 C 77.957031 53.976562 79.109375 56.496094 79.328125 58.277344 C 80.195312 58.5 82.25 59.011719 86.273438 60.488281 C 87.203125 60.492188 89.589844 61.226562 89.589844 61.226562 L 91.726562 61.824219 C 91.726562 61.824219 91.171875 62.199219 90.703125 62.230469 C 90.636719 62.234375 90.550781 62.238281 90.464844 62.242188 L 90.394531 62.242188 C 90.234375 62.246094 90.050781 62.25 89.859375 62.25 C 89.832031 62.25 89.800781 62.25 89.773438 62.25 L 89.683594 62.25 C 89.574219 62.25 89.464844 62.25 89.363281 62.246094 C 89.25 62.246094 89.148438 62.246094 89.046875 62.242188 L 88.976562 62.242188 C 88.886719 62.242188 88.804688 62.238281 88.734375 62.238281 C 88.570312 62.234375 88.46875 62.230469 88.46875 62.230469 C 88.6875 62.4375 88.929688 62.617188 89.191406 62.769531 C 89.335938 62.851562 89.492188 62.914062 89.652344 62.964844 C 89.683594 62.972656 89.71875 62.984375 89.75 62.992188 C 89.914062 63.035156 90.078125 63.054688 90.242188 63.058594 C 90.289062 63.0625 90.332031 63.058594 90.375 63.054688 C 90.464844 63.050781 90.554688 63.039062 90.644531 63.027344 C 90.695312 63.019531 90.75 63.003906 90.804688 62.992188 C 90.894531 62.972656 90.988281 62.945312 91.078125 62.910156 C 91.128906 62.894531 91.183594 62.875 91.238281 62.851562 C 91.34375 62.804688 91.441406 62.753906 91.539062 62.699219 C 91.589844 62.671875 91.636719 62.652344 91.683594 62.621094 C 91.84375 62.523438 91.992188 62.414062 92.136719 62.296875 C 92.253906 62.203125 92.378906 62.117188 92.507812 62.042969 C 92.550781 62.019531 92.585938 62.003906 92.625 61.984375 C 92.695312 61.949219 92.769531 61.914062 92.847656 61.886719 C 92.886719 61.875 92.925781 61.863281 92.964844 61.851562 C 93.023438 61.835938 93.085938 61.824219 93.144531 61.816406 C 93.183594 61.8125 93.214844 61.808594 93.25 61.804688 C 93.269531 61.804688 93.292969 61.800781 93.316406 61.800781 C 93.339844 61.800781 93.359375 61.804688 93.382812 61.808594 C 93.433594 61.808594 93.484375 61.816406 93.535156 61.824219 C 93.566406 61.832031 93.597656 61.835938 93.625 61.84375 C 93.664062 61.855469 93.703125 61.867188 93.742188 61.886719 C 93.765625 61.894531 93.785156 61.902344 93.800781 61.910156 C 93.832031 61.921875 93.859375 61.9375 93.882812 61.953125 C 93.933594 61.988281 93.949219 61.996094 93.949219 61.996094 C 93.144531 61.996094 92.144531 64.125 90.128906 64.375 Z M 66.191406 40.839844 C 66.566406 40.917969 66.949219 40.957031 67.332031 40.957031 C 67.566406 40.957031 67.800781 40.941406 68.035156 40.910156 C 68.265625 40.882812 68.496094 40.835938 68.722656 40.777344 C 68.949219 40.71875 69.171875 40.644531 69.390625 40.558594 C 69.609375 40.472656 69.820312 40.371094 70.023438 40.257812 C 70.230469 40.144531 70.425781 40.015625 70.617188 39.878906 C 70.804688 39.738281 70.984375 39.589844 71.152344 39.425781 C 71.324219 39.265625 71.484375 39.09375 71.632812 38.914062 C 71.78125 38.730469 71.914062 38.539062 72.039062 38.339844 C 72.164062 38.140625 72.273438 37.9375 72.371094 37.722656 C 72.46875 37.507812 72.554688 37.292969 72.625 37.066406 C 72.695312 36.84375 72.75 36.617188 72.792969 36.386719 C 72.832031 36.15625 72.859375 35.921875 72.871094 35.6875 C 72.882812 35.453125 72.882812 35.21875 72.863281 34.984375 C 72.847656 34.75 72.8125 34.519531 72.765625 34.289062 C 72.71875 34.058594 72.660156 33.835938 72.582031 33.613281 C 72.507812 33.390625 72.417969 33.175781 72.3125 32.964844 C 72.210938 32.753906 72.09375 32.550781 71.964844 32.355469 C 71.835938 32.15625 71.695312 31.96875 71.542969 31.792969 C 71.390625 31.613281 71.226562 31.445312 71.054688 31.289062 C 70.878906 31.132812 70.695312 30.984375 70.503906 30.851562 C 70.3125 30.71875 70.113281 30.597656 69.90625 30.488281 C 69.695312 30.378906 69.484375 30.28125 69.261719 30.203125 C 69.042969 30.121094 68.820312 30.050781 68.589844 30 C 68.363281 29.945312 68.132812 29.90625 67.898438 29.882812 C 67.664062 29.859375 67.429688 29.847656 67.195312 29.855469 C 66.960938 29.859375 66.730469 29.878906 66.496094 29.914062 C 66.265625 29.949219 66.035156 30 65.8125 30.066406 C 65.585938 30.128906 65.363281 30.207031 65.148438 30.300781 C 64.933594 30.390625 64.722656 30.496094 64.523438 30.613281 C 64.320312 30.734375 64.125 30.863281 63.941406 31.007812 C 63.753906 31.152344 63.578125 31.304688 63.410156 31.472656 C 63.246094 31.636719 63.089844 31.8125 62.945312 31.996094 C 62.800781 32.183594 62.671875 32.375 62.550781 32.578125 C 62.433594 32.777344 62.324219 32.988281 62.234375 33.203125 C 62.140625 33.417969 62.058594 33.636719 61.996094 33.863281 C 61.929688 34.089844 61.878906 34.316406 61.84375 34.550781 C 61.808594 34.78125 61.785156 35.015625 61.78125 35.25 C 61.773438 35.484375 61.78125 35.71875 61.804688 35.949219 C 61.828125 36.183594 61.863281 36.414062 61.917969 36.644531 C 61.96875 36.871094 62.035156 37.097656 62.117188 37.316406 C 62.199219 37.539062 62.292969 37.75 62.398438 37.960938 C 62.507812 38.167969 62.628906 38.367188 62.761719 38.5625 C 62.894531 38.753906 63.039062 38.9375 63.199219 39.113281 C 63.355469 39.285156 63.519531 39.449219 63.699219 39.605469 C 63.875 39.757812 64.0625 39.898438 64.257812 40.027344 C 64.453125 40.160156 64.65625 40.277344 64.867188 40.378906 C 65.078125 40.484375 65.292969 40.574219 65.515625 40.652344 C 65.734375 40.726562 65.960938 40.789062 66.191406 40.839844 Z M 64.726562 31.453125 C 64.988281 31.285156 65.261719 31.140625 65.550781 31.023438 C 65.835938 30.910156 66.132812 30.820312 66.441406 30.765625 C 66.746094 30.707031 67.054688 30.679688 67.363281 30.679688 C 67.675781 30.683594 67.984375 30.71875 68.285156 30.78125 C 68.589844 30.84375 68.886719 30.9375 69.171875 31.058594 C 69.457031 31.179688 69.730469 31.328125 69.988281 31.503906 C 70.242188 31.679688 70.480469 31.878906 70.699219 32.097656 C 70.917969 32.320312 71.109375 32.5625 71.28125 32.820312 C 71.449219 33.082031 71.59375 33.355469 71.710938 33.644531 C 71.828125 33.933594 71.914062 34.230469 71.972656 34.535156 C 72.03125 34.839844 72.058594 35.148438 72.054688 35.457031 C 72.050781 35.769531 72.019531 36.078125 71.957031 36.382812 C 71.890625 36.6875 71.800781 36.980469 71.679688 37.265625 C 71.554688 37.554688 71.40625 37.824219 71.234375 38.082031 C 71.058594 38.339844 70.859375 38.574219 70.636719 38.792969 C 70.417969 39.011719 70.175781 39.207031 69.914062 39.375 C 69.65625 39.546875 69.382812 39.6875 69.09375 39.804688 C 68.804688 39.921875 68.507812 40.007812 68.203125 40.066406 C 67.898438 40.125 67.589844 40.152344 67.277344 40.148438 C 66.96875 40.144531 66.660156 40.113281 66.355469 40.050781 C 66.050781 39.984375 65.757812 39.894531 65.46875 39.773438 C 65.183594 39.648438 64.914062 39.5 64.65625 39.328125 C 64.398438 39.152344 64.160156 38.953125 63.945312 38.730469 C 63.726562 38.507812 63.53125 38.269531 63.363281 38.007812 C 63.191406 37.75 63.046875 37.472656 62.933594 37.1875 C 62.816406 36.898438 62.726562 36.601562 62.671875 36.296875 C 62.613281 35.992188 62.585938 35.683594 62.589844 35.371094 C 62.589844 35.0625 62.625 34.753906 62.6875 34.449219 C 62.75 34.144531 62.84375 33.847656 62.964844 33.5625 C 63.085938 33.277344 63.234375 33.003906 63.410156 32.75 C 63.585938 32.492188 63.78125 32.253906 64.003906 32.035156 C 64.226562 31.820312 64.46875 31.625 64.726562 31.453125 Z M 64.726562 31.453125 "/></g><g style="fill:#0661aa;fill-opacity:1;"><g transform="translate(37.20771, 94.373817)"><path style="stroke:none" d="M 1 0 L 1 -14.171875 L 6.34375 -14.171875 C 8.65625 -14.171875 10.421875 -13.554688 11.640625 -12.328125 C 12.859375 -11.097656 13.46875 -9.351562 13.46875 -7.09375 C 13.46875 -4.820312 12.859375 -3.070312 11.640625 -1.84375 C 10.421875 -0.613281 8.648438 0 6.328125 0 Z M 4.296875 -2.734375 L 6.3125 -2.734375 C 7.53125 -2.734375 8.460938 -3.109375 9.109375 -3.859375 C 9.753906 -4.617188 10.078125 -5.695312 10.078125 -7.09375 C 10.078125 -8.476562 9.753906 -9.550781 9.109375 -10.3125 C 8.460938 -11.082031 7.53125 -11.46875 6.3125 -11.46875 L 4.296875 -11.46875 Z M 4.296875 -2.734375 "/></g></g><g style="fill:#0661aa;fill-opacity:1;"><g transform="translate(53.585972, 94.373817)"><path style="stroke:none" d="M 2.34375 -11.578125 C 1.800781 -11.578125 1.367188 -11.738281 1.046875 -12.0625 C 0.722656 -12.382812 0.5625 -12.800781 0.5625 -13.3125 C 0.5625 -13.84375 0.722656 -14.265625 1.046875 -14.578125 C 1.367188 -14.898438 1.800781 -15.0625 2.34375 -15.0625 C 2.894531 -15.0625 3.332031 -14.898438 3.65625 -14.578125 C 3.976562 -14.265625 4.140625 -13.84375 4.140625 -13.3125 C 4.140625 -12.800781 3.976562 -12.382812 3.65625 -12.0625 C 3.332031 -11.738281 2.894531 -11.578125 2.34375 -11.578125 Z M 0.8125 0 L 0.8125 -10.1875 L 3.859375 -10.1875 L 3.859375 0 Z M 0.8125 0 "/></g></g><g style="fill:#0661aa;fill-opacity:1;"><g transform="translate(60.631339, 94.373817)"><path style="stroke:none" d="M 6.25 -10.46875 C 7.082031 -10.46875 7.75 -10.15625 8.25 -9.53125 C 8.757812 -8.90625 9.039062 -8.023438 9.09375 -6.890625 L 6.53125 -6.1875 C 6.519531 -6.851562 6.398438 -7.351562 6.171875 -7.6875 C 5.941406 -8.03125 5.644531 -8.203125 5.28125 -8.203125 C 4.820312 -8.203125 4.457031 -7.972656 4.1875 -7.515625 C 3.914062 -7.066406 3.78125 -6.445312 3.78125 -5.65625 L 3.78125 0 L 0.75 0 L 0.75 -10.1875 L 3.203125 -10.1875 L 3.625 -8.4375 L 3.640625 -8.4375 C 3.867188 -9.070312 4.210938 -9.566406 4.671875 -9.921875 C 5.140625 -10.285156 5.664062 -10.46875 6.25 -10.46875 Z M 6.25 -10.46875 "/></g></g><g style="fill:#0661aa;fill-opacity:1;"><g transform="translate(72.353109, 94.373817)"><path style="stroke:none" d="M 4.84375 4.515625 C 3.84375 4.515625 2.898438 4.347656 2.015625 4.015625 C 1.140625 3.679688 0.4375 3.234375 -0.09375 2.671875 L 1.078125 0.484375 C 1.484375 0.941406 1.992188 1.3125 2.609375 1.59375 C 3.234375 1.882812 3.863281 2.03125 4.5 2.03125 C 5.414062 2.03125 6.144531 1.773438 6.6875 1.265625 C 7.226562 0.753906 7.5 0.0625 7.5 -0.8125 L 7.5 -1.828125 L 7.484375 -1.828125 C 7.191406 -1.253906 6.765625 -0.796875 6.203125 -0.453125 C 5.648438 -0.109375 5.050781 0.0625 4.40625 0.0625 C 3.601562 0.0625 2.90625 -0.148438 2.3125 -0.578125 C 1.726562 -1.003906 1.269531 -1.601562 0.9375 -2.375 C 0.613281 -3.15625 0.453125 -4.066406 0.453125 -5.109375 C 0.453125 -6.210938 0.609375 -7.164062 0.921875 -7.96875 C 1.242188 -8.769531 1.695312 -9.390625 2.28125 -9.828125 C 2.875 -10.265625 3.5625 -10.484375 4.34375 -10.484375 C 5.03125 -10.484375 5.660156 -10.296875 6.234375 -9.921875 C 6.804688 -9.554688 7.226562 -9.0625 7.5 -8.4375 L 7.53125 -8.4375 L 7.890625 -10.1875 L 10.546875 -10.1875 L 10.546875 -0.78125 C 10.546875 0.320312 10.3125 1.269531 9.84375 2.0625 C 9.382812 2.863281 8.726562 3.472656 7.875 3.890625 C 7.019531 4.304688 6.007812 4.515625 4.84375 4.515625 Z M 5.578125 -2.421875 C 6.203125 -2.421875 6.695312 -2.671875 7.0625 -3.171875 C 7.4375 -3.671875 7.625 -4.335938 7.625 -5.171875 C 7.625 -6.015625 7.4375 -6.6875 7.0625 -7.1875 C 6.695312 -7.6875 6.203125 -7.9375 5.578125 -7.9375 C 4.953125 -7.9375 4.445312 -7.6875 4.0625 -7.1875 C 3.6875 -6.695312 3.5 -6.023438 3.5 -5.171875 C 3.5 -4.328125 3.6875 -3.65625 4.0625 -3.15625 C 4.445312 -2.664062 4.953125 -2.421875 5.578125 -2.421875 Z M 5.578125 -2.421875 "/></g></g><g style="fill:#0661aa;fill-opacity:1;"><g transform="translate(86.005137, 94.373817)"><path style="stroke:none" d="M 3.515625 0.234375 C 2.546875 0.234375 1.765625 -0.0195312 1.171875 -0.53125 C 0.578125 -1.050781 0.28125 -1.75 0.28125 -2.625 C 0.28125 -3.550781 0.632812 -4.300781 1.34375 -4.875 C 2.050781 -5.457031 3.085938 -5.820312 4.453125 -5.96875 L 6.03125 -6.15625 C 6.257812 -6.175781 6.441406 -6.253906 6.578125 -6.390625 C 6.710938 -6.523438 6.78125 -6.71875 6.78125 -6.96875 C 6.78125 -7.414062 6.640625 -7.757812 6.359375 -8 C 6.085938 -8.238281 5.726562 -8.359375 5.28125 -8.359375 C 4.757812 -8.359375 4.335938 -8.175781 4.015625 -7.8125 C 3.703125 -7.457031 3.53125 -7.007812 3.5 -6.46875 L 0.609375 -6.890625 C 0.640625 -7.609375 0.847656 -8.238281 1.234375 -8.78125 C 1.628906 -9.332031 2.164062 -9.765625 2.84375 -10.078125 C 3.53125 -10.390625 4.332031 -10.546875 5.25 -10.546875 C 6.644531 -10.546875 7.75 -10.179688 8.5625 -9.453125 C 9.375 -8.722656 9.78125 -7.734375 9.78125 -6.484375 L 9.78125 -2.546875 C 9.78125 -2.097656 9.941406 -1.875 10.265625 -1.875 C 10.535156 -1.875 10.789062 -2.003906 11.03125 -2.265625 L 11.6875 -0.640625 C 11.363281 -0.328125 10.976562 -0.0976562 10.53125 0.046875 C 10.082031 0.191406 9.640625 0.265625 9.203125 0.265625 C 8.585938 0.265625 8.070312 0.109375 7.65625 -0.203125 C 7.238281 -0.515625 6.976562 -0.910156 6.875 -1.390625 L 6.828125 -1.65625 L 6.8125 -1.65625 C 6.5 -1.070312 6.054688 -0.609375 5.484375 -0.265625 C 4.921875 0.0664062 4.265625 0.234375 3.515625 0.234375 Z M 4.78125 -1.890625 C 5.351562 -1.890625 5.820312 -2.09375 6.1875 -2.5 C 6.5625 -2.90625 6.75 -3.429688 6.75 -4.078125 L 6.75 -4.5625 L 5.25 -4.40625 C 4.5625 -4.320312 4.066406 -4.148438 3.765625 -3.890625 C 3.472656 -3.640625 3.328125 -3.34375 3.328125 -3 C 3.328125 -2.675781 3.460938 -2.410156 3.734375 -2.203125 C 4.003906 -1.992188 4.351562 -1.890625 4.78125 -1.890625 Z M 4.78125 -1.890625 "/></g></g><g style="fill:#2d6d5e;fill-opacity:1;"><g transform="translate(16.592714, 109.035622)"><path style="stroke:none" d="M 2.140625 -7.8125 C 2.671875 -7.8125 3.101562 -7.726562 3.4375 -7.5625 C 3.78125 -7.40625 4.035156 -7.164062 4.203125 -6.84375 C 4.367188 -6.519531 4.453125 -6.113281 4.453125 -5.625 C 4.453125 -5.28125 4.410156 -4.96875 4.328125 -4.6875 C 4.242188 -4.414062 4.113281 -4.179688 3.9375 -3.984375 C 3.757812 -3.796875 3.523438 -3.640625 3.234375 -3.515625 L 4.828125 0 L 3.875 0 L 2.46875 -3.296875 L 1.65625 -3.296875 L 1.65625 0 L 0.8125 0 L 0.8125 -7.8125 Z M 2.140625 -7.03125 L 1.65625 -7.03125 L 1.65625 -4.015625 L 2.265625 -4.015625 C 2.691406 -4.015625 3.019531 -4.144531 3.25 -4.40625 C 3.476562 -4.664062 3.59375 -5.0625 3.59375 -5.59375 C 3.59375 -6.101562 3.472656 -6.46875 3.234375 -6.6875 C 3.003906 -6.914062 2.640625 -7.03125 2.140625 -7.03125 Z M 2.140625 -7.03125 "/></g></g><g style="fill:#2d6d5e;fill-opacity:1;"><g transform="translate(23.099372, 109.035622)"><path style="stroke:none" d="M 2.328125 -5.953125 C 2.722656 -5.953125 3.050781 -5.835938 3.3125 -5.609375 C 3.570312 -5.378906 3.765625 -5.066406 3.890625 -4.671875 C 4.015625 -4.285156 4.078125 -3.851562 4.078125 -3.375 L 4.078125 -2.78125 L 1.28125 -2.78125 C 1.289062 -2.050781 1.40625 -1.503906 1.625 -1.140625 C 1.84375 -0.773438 2.171875 -0.59375 2.609375 -0.59375 C 2.828125 -0.59375 3.035156 -0.625 3.234375 -0.6875 C 3.441406 -0.75 3.648438 -0.851562 3.859375 -1 L 3.859375 -0.265625 C 3.660156 -0.140625 3.453125 -0.046875 3.234375 0.015625 C 3.015625 0.078125 2.78125 0.109375 2.53125 0.109375 C 2.039062 0.109375 1.644531 -0.0195312 1.34375 -0.28125 C 1.039062 -0.539062 0.816406 -0.898438 0.671875 -1.359375 C 0.535156 -1.816406 0.46875 -2.332031 0.46875 -2.90625 C 0.46875 -3.550781 0.535156 -4.101562 0.671875 -4.5625 C 0.816406 -5.019531 1.023438 -5.363281 1.296875 -5.59375 C 1.578125 -5.832031 1.921875 -5.953125 2.328125 -5.953125 Z M 2.328125 -5.28125 C 2.015625 -5.28125 1.769531 -5.128906 1.59375 -4.828125 C 1.425781 -4.535156 1.328125 -4.070312 1.296875 -3.4375 L 3.3125 -3.4375 C 3.3125 -3.769531 3.273438 -4.078125 3.203125 -4.359375 C 3.140625 -4.640625 3.035156 -4.863281 2.890625 -5.03125 C 2.742188 -5.195312 2.554688 -5.28125 2.328125 -5.28125 Z M 2.328125 -5.28125 "/></g></g><g style="fill:#2d6d5e;fill-opacity:1;"><g transform="translate(29.157267, 109.035622)"><path style="stroke:none" d="M 3.328125 -1.546875 C 3.328125 -1.191406 3.257812 -0.890625 3.125 -0.640625 C 3 -0.398438 2.8125 -0.210938 2.5625 -0.078125 C 2.320312 0.046875 2.03125 0.109375 1.6875 0.109375 C 1.414062 0.109375 1.164062 0.078125 0.9375 0.015625 C 0.71875 -0.046875 0.53125 -0.125 0.375 -0.21875 L 0.375 -1.078125 C 0.53125 -0.941406 0.722656 -0.832031 0.953125 -0.75 C 1.179688 -0.664062 1.414062 -0.625 1.65625 -0.625 C 1.925781 -0.625 2.132812 -0.703125 2.28125 -0.859375 C 2.4375 -1.015625 2.515625 -1.234375 2.515625 -1.515625 C 2.515625 -1.679688 2.484375 -1.828125 2.421875 -1.953125 C 2.359375 -2.078125 2.257812 -2.195312 2.125 -2.3125 C 1.988281 -2.425781 1.816406 -2.546875 1.609375 -2.671875 C 1.359375 -2.816406 1.140625 -2.96875 0.953125 -3.125 C 0.765625 -3.289062 0.617188 -3.476562 0.515625 -3.6875 C 0.421875 -3.894531 0.375 -4.144531 0.375 -4.4375 C 0.375 -4.894531 0.519531 -5.265625 0.8125 -5.546875 C 1.113281 -5.828125 1.503906 -5.96875 1.984375 -5.96875 C 2.234375 -5.96875 2.46875 -5.9375 2.6875 -5.875 C 2.90625 -5.8125 3.113281 -5.71875 3.3125 -5.59375 L 3 -4.9375 C 2.851562 -5.039062 2.691406 -5.117188 2.515625 -5.171875 C 2.347656 -5.234375 2.175781 -5.265625 2 -5.265625 C 1.738281 -5.265625 1.53125 -5.191406 1.375 -5.046875 C 1.226562 -4.898438 1.15625 -4.707031 1.15625 -4.46875 C 1.15625 -4.300781 1.1875 -4.15625 1.25 -4.03125 C 1.3125 -3.914062 1.410156 -3.800781 1.546875 -3.6875 C 1.679688 -3.582031 1.863281 -3.460938 2.09375 -3.328125 C 2.34375 -3.171875 2.554688 -3.015625 2.734375 -2.859375 C 2.921875 -2.703125 3.066406 -2.519531 3.171875 -2.3125 C 3.273438 -2.101562 3.328125 -1.847656 3.328125 -1.546875 Z M 3.328125 -1.546875 "/></g></g><g style="fill:#2d6d5e;fill-opacity:1;"><g transform="translate(34.365714, 109.035622)"><path style="stroke:none" d="M 2.828125 -5.96875 C 3.390625 -5.96875 3.816406 -5.710938 4.109375 -5.203125 C 4.398438 -4.703125 4.546875 -3.945312 4.546875 -2.9375 C 4.546875 -2.289062 4.476562 -1.738281 4.34375 -1.28125 C 4.21875 -0.832031 4.03125 -0.488281 3.78125 -0.25 C 3.53125 -0.0078125 3.226562 0.109375 2.875 0.109375 C 2.675781 0.109375 2.488281 0.0703125 2.3125 0 C 2.144531 -0.0820312 1.992188 -0.191406 1.859375 -0.328125 C 1.734375 -0.472656 1.625 -0.640625 1.53125 -0.828125 L 1.5 -0.828125 C 1.507812 -0.679688 1.515625 -0.539062 1.515625 -0.40625 C 1.523438 -0.28125 1.53125 -0.160156 1.53125 -0.046875 L 1.53125 2.609375 L 0.71875 2.609375 L 0.71875 -5.859375 L 1.390625 -5.859375 L 1.484375 -5 L 1.53125 -5 C 1.632812 -5.21875 1.75 -5.394531 1.875 -5.53125 C 2.007812 -5.675781 2.15625 -5.785156 2.3125 -5.859375 C 2.46875 -5.929688 2.640625 -5.96875 2.828125 -5.96875 Z M 2.65625 -5.265625 C 2.40625 -5.265625 2.195312 -5.1875 2.03125 -5.03125 C 1.875 -4.875 1.75 -4.632812 1.65625 -4.3125 C 1.570312 -4 1.53125 -3.601562 1.53125 -3.125 L 1.53125 -2.84375 C 1.53125 -2.34375 1.570312 -1.925781 1.65625 -1.59375 C 1.75 -1.257812 1.878906 -1.007812 2.046875 -0.84375 C 2.210938 -0.6875 2.421875 -0.609375 2.671875 -0.609375 C 2.898438 -0.609375 3.09375 -0.691406 3.25 -0.859375 C 3.40625 -1.023438 3.519531 -1.273438 3.59375 -1.609375 C 3.675781 -1.953125 3.71875 -2.394531 3.71875 -2.9375 C 3.71875 -3.707031 3.632812 -4.285156 3.46875 -4.671875 C 3.300781 -5.066406 3.03125 -5.265625 2.65625 -5.265625 Z M 2.65625 -5.265625 "/></g></g><g style="fill:#2d6d5e;fill-opacity:1;"><g transform="translate(40.904427, 109.035622)"><path style="stroke:none" d="M 1.546875 -5.859375 L 1.546875 0 L 0.71875 0 L 0.71875 -5.859375 Z M 1.140625 -8.0625 C 1.316406 -8.0625 1.441406 -8.007812 1.515625 -7.90625 C 1.585938 -7.800781 1.625 -7.648438 1.625 -7.453125 C 1.625 -7.273438 1.582031 -7.128906 1.5 -7.015625 C 1.425781 -6.910156 1.304688 -6.859375 1.140625 -6.859375 C 0.992188 -6.859375 0.875 -6.910156 0.78125 -7.015625 C 0.695312 -7.128906 0.65625 -7.273438 0.65625 -7.453125 C 0.65625 -7.648438 0.695312 -7.800781 0.78125 -7.90625 C 0.863281 -8.007812 0.984375 -8.0625 1.140625 -8.0625 Z M 1.140625 -8.0625 "/></g></g><g style="fill:#2d6d5e;fill-opacity:1;"><g transform="translate(44.702474, 109.035622)"><path style="stroke:none" d="M 2.671875 -5.96875 C 2.753906 -5.96875 2.835938 -5.957031 2.921875 -5.9375 C 3.003906 -5.925781 3.085938 -5.910156 3.171875 -5.890625 L 3.046875 -5.046875 C 2.984375 -5.066406 2.914062 -5.082031 2.84375 -5.09375 C 2.769531 -5.101562 2.691406 -5.109375 2.609375 -5.109375 C 2.453125 -5.109375 2.304688 -5.054688 2.171875 -4.953125 C 2.035156 -4.847656 1.921875 -4.703125 1.828125 -4.515625 C 1.734375 -4.328125 1.660156 -4.109375 1.609375 -3.859375 C 1.554688 -3.609375 1.53125 -3.34375 1.53125 -3.0625 L 1.53125 0 L 0.71875 0 L 0.71875 -5.859375 L 1.359375 -5.859375 L 1.46875 -4.828125 L 1.515625 -4.828125 C 1.597656 -5.046875 1.691406 -5.238281 1.796875 -5.40625 C 1.910156 -5.582031 2.039062 -5.71875 2.1875 -5.8125 C 2.332031 -5.914062 2.492188 -5.96875 2.671875 -5.96875 Z M 2.671875 -5.96875 "/></g></g><g style="fill:#2d6d5e;fill-opacity:1;"><g transform="translate(49.515582, 109.035622)"><path style="stroke:none" d="M 2.328125 -5.953125 C 2.722656 -5.953125 3.050781 -5.835938 3.3125 -5.609375 C 3.570312 -5.378906 3.765625 -5.066406 3.890625 -4.671875 C 4.015625 -4.285156 4.078125 -3.851562 4.078125 -3.375 L 4.078125 -2.78125 L 1.28125 -2.78125 C 1.289062 -2.050781 1.40625 -1.503906 1.625 -1.140625 C 1.84375 -0.773438 2.171875 -0.59375 2.609375 -0.59375 C 2.828125 -0.59375 3.035156 -0.625 3.234375 -0.6875 C 3.441406 -0.75 3.648438 -0.851562 3.859375 -1 L 3.859375 -0.265625 C 3.660156 -0.140625 3.453125 -0.046875 3.234375 0.015625 C 3.015625 0.078125 2.78125 0.109375 2.53125 0.109375 C 2.039062 0.109375 1.644531 -0.0195312 1.34375 -0.28125 C 1.039062 -0.539062 0.816406 -0.898438 0.671875 -1.359375 C 0.535156 -1.816406 0.46875 -2.332031 0.46875 -2.90625 C 0.46875 -3.550781 0.535156 -4.101562 0.671875 -4.5625 C 0.816406 -5.019531 1.023438 -5.363281 1.296875 -5.59375 C 1.578125 -5.832031 1.921875 -5.953125 2.328125 -5.953125 Z M 2.328125 -5.28125 C 2.015625 -5.28125 1.769531 -5.128906 1.59375 -4.828125 C 1.425781 -4.535156 1.328125 -4.070312 1.296875 -3.4375 L 3.3125 -3.4375 C 3.3125 -3.769531 3.273438 -4.078125 3.203125 -4.359375 C 3.140625 -4.640625 3.035156 -4.863281 2.890625 -5.03125 C 2.742188 -5.195312 2.554688 -5.28125 2.328125 -5.28125 Z M 2.328125 -5.28125 "/></g></g><g style="fill:#2d6d5e;fill-opacity:1;"><g transform="translate(55.573476, 109.035622)"><path style="stroke:none" d=""/></g></g><g style="fill:#2d6d5e;fill-opacity:1;"><g transform="translate(59.136456, 109.035622)"><path style="stroke:none" d="M 2.828125 -5.96875 C 3.390625 -5.96875 3.816406 -5.710938 4.109375 -5.203125 C 4.398438 -4.703125 4.546875 -3.945312 4.546875 -2.9375 C 4.546875 -2.289062 4.476562 -1.738281 4.34375 -1.28125 C 4.21875 -0.832031 4.03125 -0.488281 3.78125 -0.25 C 3.53125 -0.0078125 3.226562 0.109375 2.875 0.109375 C 2.675781 0.109375 2.488281 0.0703125 2.3125 0 C 2.144531 -0.0820312 1.992188 -0.191406 1.859375 -0.328125 C 1.734375 -0.472656 1.625 -0.640625 1.53125 -0.828125 L 1.5 -0.828125 C 1.507812 -0.679688 1.515625 -0.539062 1.515625 -0.40625 C 1.523438 -0.28125 1.53125 -0.160156 1.53125 -0.046875 L 1.53125 2.609375 L 0.71875 2.609375 L 0.71875 -5.859375 L 1.390625 -5.859375 L 1.484375 -5 L 1.53125 -5 C 1.632812 -5.21875 1.75 -5.394531 1.875 -5.53125 C 2.007812 -5.675781 2.15625 -5.785156 2.3125 -5.859375 C 2.46875 -5.929688 2.640625 -5.96875 2.828125 -5.96875 Z M 2.65625 -5.265625 C 2.40625 -5.265625 2.195312 -5.1875 2.03125 -5.03125 C 1.875 -4.875 1.75 -4.632812 1.65625 -4.3125 C 1.570312 -4 1.53125 -3.601562 1.53125 -3.125 L 1.53125 -2.84375 C 1.53125 -2.34375 1.570312 -1.925781 1.65625 -1.59375 C 1.75 -1.257812 1.878906 -1.007812 2.046875 -0.84375 C 2.210938 -0.6875 2.421875 -0.609375 2.671875 -0.609375 C 2.898438 -0.609375 3.09375 -0.691406 3.25 -0.859375 C 3.40625 -1.023438 3.519531 -1.273438 3.59375 -1.609375 C 3.675781 -1.953125 3.71875 -2.394531 3.71875 -2.9375 C 3.71875 -3.707031 3.632812 -4.285156 3.46875 -4.671875 C 3.300781 -5.066406 3.03125 -5.265625 2.65625 -5.265625 Z M 2.65625 -5.265625 "/></g></g><g style="fill:#2d6d5e;fill-opacity:1;"><g transform="translate(65.675169, 109.035622)"><path style="stroke:none" d="M 4.359375 -2.9375 C 4.359375 -2.476562 4.316406 -2.0625 4.234375 -1.6875 C 4.160156 -1.3125 4.039062 -0.988281 3.875 -0.71875 C 3.71875 -0.457031 3.515625 -0.253906 3.265625 -0.109375 C 3.023438 0.0351562 2.734375 0.109375 2.390625 0.109375 C 2.078125 0.109375 1.796875 0.0351562 1.546875 -0.109375 C 1.304688 -0.253906 1.101562 -0.457031 0.9375 -0.71875 C 0.78125 -0.976562 0.660156 -1.296875 0.578125 -1.671875 C 0.503906 -2.054688 0.46875 -2.476562 0.46875 -2.9375 C 0.46875 -3.582031 0.535156 -4.128906 0.671875 -4.578125 C 0.804688 -5.035156 1.019531 -5.378906 1.3125 -5.609375 C 1.601562 -5.847656 1.96875 -5.96875 2.40625 -5.96875 C 2.820312 -5.96875 3.175781 -5.851562 3.46875 -5.625 C 3.757812 -5.394531 3.976562 -5.054688 4.125 -4.609375 C 4.28125 -4.160156 4.359375 -3.601562 4.359375 -2.9375 Z M 1.296875 -2.9375 C 1.296875 -2.425781 1.332031 -2 1.40625 -1.65625 C 1.488281 -1.3125 1.613281 -1.050781 1.78125 -0.875 C 1.945312 -0.695312 2.160156 -0.609375 2.421875 -0.609375 C 2.671875 -0.609375 2.875 -0.691406 3.03125 -0.859375 C 3.195312 -1.035156 3.316406 -1.296875 3.390625 -1.640625 C 3.472656 -1.984375 3.515625 -2.414062 3.515625 -2.9375 C 3.515625 -3.445312 3.472656 -3.875 3.390625 -4.21875 C 3.316406 -4.5625 3.195312 -4.816406 3.03125 -4.984375 C 2.875 -5.160156 2.664062 -5.25 2.40625 -5.25 C 2.019531 -5.25 1.738281 -5.054688 1.5625 -4.671875 C 1.382812 -4.285156 1.296875 -3.707031 1.296875 -2.9375 Z M 1.296875 -2.9375 "/></g></g><g style="fill:#2d6d5e;fill-opacity:1;"><g transform="translate(72.026897, 109.035622)"><path style="stroke:none" d="M 2.671875 -5.96875 C 2.753906 -5.96875 2.835938 -5.957031 2.921875 -5.9375 C 3.003906 -5.925781 3.085938 -5.910156 3.171875 -5.890625 L 3.046875 -5.046875 C 2.984375 -5.066406 2.914062 -5.082031 2.84375 -5.09375 C 2.769531 -5.101562 2.691406 -5.109375 2.609375 -5.109375 C 2.453125 -5.109375 2.304688 -5.054688 2.171875 -4.953125 C 2.035156 -4.847656 1.921875 -4.703125 1.828125 -4.515625 C 1.734375 -4.328125 1.660156 -4.109375 1.609375 -3.859375 C 1.554688 -3.609375 1.53125 -3.34375 1.53125 -3.0625 L 1.53125 0 L 0.71875 0 L 0.71875 -5.859375 L 1.359375 -5.859375 L 1.46875 -4.828125 L 1.515625 -4.828125 C 1.597656 -5.046875 1.691406 -5.238281 1.796875 -5.40625 C 1.910156 -5.582031 2.039062 -5.71875 2.1875 -5.8125 C 2.332031 -5.914062 2.492188 -5.96875 2.671875 -5.96875 Z M 2.671875 -5.96875 "/></g></g><g style="fill:#2d6d5e;fill-opacity:1;"><g transform="translate(76.840005, 109.035622)"><path style="stroke:none" d=""/></g></g><g style="fill:#2d6d5e;fill-opacity:1;"><g transform="translate(80.402984, 109.035622)"><path style="stroke:none" d="M 1.546875 -5.859375 L 1.546875 0 L 0.71875 0 L 0.71875 -5.859375 Z M 1.140625 -8.0625 C 1.316406 -8.0625 1.441406 -8.007812 1.515625 -7.90625 C 1.585938 -7.800781 1.625 -7.648438 1.625 -7.453125 C 1.625 -7.273438 1.582031 -7.128906 1.5 -7.015625 C 1.425781 -6.910156 1.304688 -6.859375 1.140625 -6.859375 C 0.992188 -6.859375 0.875 -6.910156 0.78125 -7.015625 C 0.695312 -7.128906 0.65625 -7.273438 0.65625 -7.453125 C 0.65625 -7.648438 0.695312 -7.800781 0.78125 -7.90625 C 0.863281 -8.007812 0.984375 -8.0625 1.140625 -8.0625 Z M 1.140625 -8.0625 "/></g></g><g style="fill:#2d6d5e;fill-opacity:1;"><g transform="translate(84.20103, 109.035622)"><path style="stroke:none" d="M 2.828125 -5.96875 C 3.285156 -5.96875 3.632812 -5.804688 3.875 -5.484375 C 4.113281 -5.160156 4.234375 -4.664062 4.234375 -4 L 4.234375 0 L 3.40625 0 L 3.40625 -3.828125 C 3.40625 -4.304688 3.34375 -4.660156 3.21875 -4.890625 C 3.101562 -5.128906 2.914062 -5.25 2.65625 -5.25 C 2.269531 -5.25 1.984375 -5.078125 1.796875 -4.734375 C 1.617188 -4.390625 1.53125 -3.84375 1.53125 -3.09375 L 1.53125 0 L 0.71875 0 L 0.71875 -5.859375 L 1.375 -5.859375 L 1.46875 -5.015625 L 1.515625 -5.015625 C 1.597656 -5.210938 1.703125 -5.378906 1.828125 -5.515625 C 1.960938 -5.660156 2.113281 -5.769531 2.28125 -5.84375 C 2.445312 -5.925781 2.628906 -5.96875 2.828125 -5.96875 Z M 2.828125 -5.96875 "/></g></g><g style="fill:#2d6d5e;fill-opacity:1;"><g transform="translate(90.664949, 109.035622)"><path style="stroke:none" d="M 2.09375 -0.625 C 2.1875 -0.625 2.273438 -0.628906 2.359375 -0.640625 C 2.453125 -0.660156 2.535156 -0.691406 2.609375 -0.734375 L 2.609375 -0.0625 C 2.503906 -0.0078125 2.382812 0.03125 2.25 0.0625 C 2.125 0.09375 1.984375 0.109375 1.828125 0.109375 C 1.578125 0.109375 1.367188 0.0507812 1.203125 -0.0625 C 1.046875 -0.175781 0.925781 -0.34375 0.84375 -0.5625 C 0.769531 -0.789062 0.734375 -1.078125 0.734375 -1.421875 L 0.734375 -5.171875 L 0.1875 -5.171875 L 0.1875 -5.625 L 0.78125 -5.84375 L 1 -7.1875 L 1.5625 -7.1875 L 1.5625 -5.859375 L 2.546875 -5.859375 L 2.546875 -5.171875 L 1.5625 -5.171875 L 1.5625 -1.515625 C 1.5625 -1.210938 1.597656 -0.988281 1.671875 -0.84375 C 1.742188 -0.695312 1.882812 -0.625 2.09375 -0.625 Z M 2.09375 -0.625 "/></g></g><g style="fill:#2d6d5e;fill-opacity:1;"><g transform="translate(94.970527, 109.035622)"><path style="stroke:none" d="M 2.328125 -5.953125 C 2.722656 -5.953125 3.050781 -5.835938 3.3125 -5.609375 C 3.570312 -5.378906 3.765625 -5.066406 3.890625 -4.671875 C 4.015625 -4.285156 4.078125 -3.851562 4.078125 -3.375 L 4.078125 -2.78125 L 1.28125 -2.78125 C 1.289062 -2.050781 1.40625 -1.503906 1.625 -1.140625 C 1.84375 -0.773438 2.171875 -0.59375 2.609375 -0.59375 C 2.828125 -0.59375 3.035156 -0.625 3.234375 -0.6875 C 3.441406 -0.75 3.648438 -0.851562 3.859375 -1 L 3.859375 -0.265625 C 3.660156 -0.140625 3.453125 -0.046875 3.234375 0.015625 C 3.015625 0.078125 2.78125 0.109375 2.53125 0.109375 C 2.039062 0.109375 1.644531 -0.0195312 1.34375 -0.28125 C 1.039062 -0.539062 0.816406 -0.898438 0.671875 -1.359375 C 0.535156 -1.816406 0.46875 -2.332031 0.46875 -2.90625 C 0.46875 -3.550781 0.535156 -4.101562 0.671875 -4.5625 C 0.816406 -5.019531 1.023438 -5.363281 1.296875 -5.59375 C 1.578125 -5.832031 1.921875 -5.953125 2.328125 -5.953125 Z M 2.328125 -5.28125 C 2.015625 -5.28125 1.769531 -5.128906 1.59375 -4.828125 C 1.425781 -4.535156 1.328125 -4.070312 1.296875 -3.4375 L 3.3125 -3.4375 C 3.3125 -3.769531 3.273438 -4.078125 3.203125 -4.359375 C 3.140625 -4.640625 3.035156 -4.863281 2.890625 -5.03125 C 2.742188 -5.195312 2.554688 -5.28125 2.328125 -5.28125 Z M 2.328125 -5.28125 "/></g></g><g style="fill:#2d6d5e;fill-opacity:1;"><g transform="translate(101.028421, 109.035622)"><path style="stroke:none" d="M 1.546875 -5.859375 L 1.546875 0 L 0.71875 0 L 0.71875 -5.859375 Z M 1.140625 -8.0625 C 1.316406 -8.0625 1.441406 -8.007812 1.515625 -7.90625 C 1.585938 -7.800781 1.625 -7.648438 1.625 -7.453125 C 1.625 -7.273438 1.582031 -7.128906 1.5 -7.015625 C 1.425781 -6.910156 1.304688 -6.859375 1.140625 -6.859375 C 0.992188 -6.859375 0.875 -6.910156 0.78125 -7.015625 C 0.695312 -7.128906 0.65625 -7.273438 0.65625 -7.453125 C 0.65625 -7.648438 0.695312 -7.800781 0.78125 -7.90625 C 0.863281 -8.007812 0.984375 -8.0625 1.140625 -8.0625 Z M 1.140625 -8.0625 "/></g></g><g style="fill:#2d6d5e;fill-opacity:1;"><g transform="translate(104.826467, 109.035622)"><path style="stroke:none" d="M 2.671875 -5.96875 C 2.753906 -5.96875 2.835938 -5.957031 2.921875 -5.9375 C 3.003906 -5.925781 3.085938 -5.910156 3.171875 -5.890625 L 3.046875 -5.046875 C 2.984375 -5.066406 2.914062 -5.082031 2.84375 -5.09375 C 2.769531 -5.101562 2.691406 -5.109375 2.609375 -5.109375 C 2.453125 -5.109375 2.304688 -5.054688 2.171875 -4.953125 C 2.035156 -4.847656 1.921875 -4.703125 1.828125 -4.515625 C 1.734375 -4.328125 1.660156 -4.109375 1.609375 -3.859375 C 1.554688 -3.609375 1.53125 -3.34375 1.53125 -3.0625 L 1.53125 0 L 0.71875 0 L 0.71875 -5.859375 L 1.359375 -5.859375 L 1.46875 -4.828125 L 1.515625 -4.828125 C 1.597656 -5.046875 1.691406 -5.238281 1.796875 -5.40625 C 1.910156 -5.582031 2.039062 -5.71875 2.1875 -5.8125 C 2.332031 -5.914062 2.492188 -5.96875 2.671875 -5.96875 Z M 2.671875 -5.96875 "/></g></g><g style="fill:#2d6d5e;fill-opacity:1;"><g transform="translate(109.639575, 109.035622)"><path style="stroke:none" d="M 4.359375 -2.9375 C 4.359375 -2.476562 4.316406 -2.0625 4.234375 -1.6875 C 4.160156 -1.3125 4.039062 -0.988281 3.875 -0.71875 C 3.71875 -0.457031 3.515625 -0.253906 3.265625 -0.109375 C 3.023438 0.0351562 2.734375 0.109375 2.390625 0.109375 C 2.078125 0.109375 1.796875 0.0351562 1.546875 -0.109375 C 1.304688 -0.253906 1.101562 -0.457031 0.9375 -0.71875 C 0.78125 -0.976562 0.660156 -1.296875 0.578125 -1.671875 C 0.503906 -2.054688 0.46875 -2.476562 0.46875 -2.9375 C 0.46875 -3.582031 0.535156 -4.128906 0.671875 -4.578125 C 0.804688 -5.035156 1.019531 -5.378906 1.3125 -5.609375 C 1.601562 -5.847656 1.96875 -5.96875 2.40625 -5.96875 C 2.820312 -5.96875 3.175781 -5.851562 3.46875 -5.625 C 3.757812 -5.394531 3.976562 -5.054688 4.125 -4.609375 C 4.28125 -4.160156 4.359375 -3.601562 4.359375 -2.9375 Z M 1.296875 -2.9375 C 1.296875 -2.425781 1.332031 -2 1.40625 -1.65625 C 1.488281 -1.3125 1.613281 -1.050781 1.78125 -0.875 C 1.945312 -0.695312 2.160156 -0.609375 2.421875 -0.609375 C 2.671875 -0.609375 2.875 -0.691406 3.03125 -0.859375 C 3.195312 -1.035156 3.316406 -1.296875 3.390625 -1.640625 C 3.472656 -1.984375 3.515625 -2.414062 3.515625 -2.9375 C 3.515625 -3.445312 3.472656 -3.875 3.390625 -4.21875 C 3.316406 -4.5625 3.195312 -4.816406 3.03125 -4.984375 C 2.875 -5.160156 2.664062 -5.25 2.40625 -5.25 C 2.019531 -5.25 1.738281 -5.054688 1.5625 -4.671875 C 1.382812 -4.285156 1.296875 -3.707031 1.296875 -2.9375 Z M 1.296875 -2.9375 "/></g></g><g style="fill:#2d6d5e;fill-opacity:1;"><g transform="translate(115.991303, 109.035622)"><path style="stroke:none" d="M 1.765625 -1.234375 L 1.84375 -1.109375 C 1.769531 -0.816406 1.691406 -0.523438 1.609375 -0.234375 C 1.523438 0.0546875 1.4375 0.34375 1.34375 0.625 C 1.25 0.90625 1.144531 1.175781 1.03125 1.4375 L 0.390625 1.4375 C 0.472656 1.132812 0.546875 0.828125 0.609375 0.515625 C 0.679688 0.210938 0.738281 -0.0859375 0.78125 -0.390625 C 0.832031 -0.691406 0.867188 -0.972656 0.890625 -1.234375 Z M 1.765625 -1.234375 "/></g></g><g style="fill:#2d6d5e;fill-opacity:1;"><g transform="translate(28.618809, 121.726593)"><path style="stroke:none" d="M 2.171875 0.109375 C 1.609375 0.109375 1.179688 -0.144531 0.890625 -0.65625 C 0.609375 -1.175781 0.46875 -1.929688 0.46875 -2.921875 C 0.46875 -3.898438 0.613281 -4.648438 0.90625 -5.171875 C 1.195312 -5.703125 1.609375 -5.96875 2.140625 -5.96875 C 2.335938 -5.96875 2.519531 -5.929688 2.6875 -5.859375 C 2.851562 -5.785156 3 -5.679688 3.125 -5.546875 C 3.257812 -5.410156 3.375 -5.25 3.46875 -5.0625 L 3.515625 -5.0625 C 3.503906 -5.226562 3.492188 -5.375 3.484375 -5.5 C 3.484375 -5.632812 3.484375 -5.757812 3.484375 -5.875 L 3.484375 -8.3125 L 4.296875 -8.3125 L 4.296875 0 L 3.640625 0 L 3.53125 -0.796875 L 3.484375 -0.796875 C 3.378906 -0.609375 3.265625 -0.445312 3.140625 -0.3125 C 3.015625 -0.175781 2.875 -0.0703125 2.71875 0 C 2.5625 0.0703125 2.378906 0.109375 2.171875 0.109375 Z M 2.359375 -0.59375 C 2.722656 -0.59375 3 -0.765625 3.1875 -1.109375 C 3.382812 -1.453125 3.484375 -1.960938 3.484375 -2.640625 L 3.484375 -3.046875 C 3.484375 -3.785156 3.390625 -4.332031 3.203125 -4.6875 C 3.023438 -5.050781 2.738281 -5.234375 2.34375 -5.234375 C 1.988281 -5.234375 1.722656 -5.035156 1.546875 -4.640625 C 1.378906 -4.242188 1.296875 -3.671875 1.296875 -2.921875 C 1.296875 -2.148438 1.378906 -1.566406 1.546875 -1.171875 C 1.722656 -0.785156 1.992188 -0.59375 2.359375 -0.59375 Z M 2.359375 -0.59375 "/></g></g><g style="fill:#2d6d5e;fill-opacity:1;"><g transform="translate(35.157522, 121.726593)"><path style="stroke:none" d="M 4.359375 -2.9375 C 4.359375 -2.476562 4.316406 -2.0625 4.234375 -1.6875 C 4.160156 -1.3125 4.039062 -0.988281 3.875 -0.71875 C 3.71875 -0.457031 3.515625 -0.253906 3.265625 -0.109375 C 3.023438 0.0351562 2.734375 0.109375 2.390625 0.109375 C 2.078125 0.109375 1.796875 0.0351562 1.546875 -0.109375 C 1.304688 -0.253906 1.101562 -0.457031 0.9375 -0.71875 C 0.78125 -0.976562 0.660156 -1.296875 0.578125 -1.671875 C 0.503906 -2.054688 0.46875 -2.476562 0.46875 -2.9375 C 0.46875 -3.582031 0.535156 -4.128906 0.671875 -4.578125 C 0.804688 -5.035156 1.019531 -5.378906 1.3125 -5.609375 C 1.601562 -5.847656 1.96875 -5.96875 2.40625 -5.96875 C 2.820312 -5.96875 3.175781 -5.851562 3.46875 -5.625 C 3.757812 -5.394531 3.976562 -5.054688 4.125 -4.609375 C 4.28125 -4.160156 4.359375 -3.601562 4.359375 -2.9375 Z M 1.296875 -2.9375 C 1.296875 -2.425781 1.332031 -2 1.40625 -1.65625 C 1.488281 -1.3125 1.613281 -1.050781 1.78125 -0.875 C 1.945312 -0.695312 2.160156 -0.609375 2.421875 -0.609375 C 2.671875 -0.609375 2.875 -0.691406 3.03125 -0.859375 C 3.195312 -1.035156 3.316406 -1.296875 3.390625 -1.640625 C 3.472656 -1.984375 3.515625 -2.414062 3.515625 -2.9375 C 3.515625 -3.445312 3.472656 -3.875 3.390625 -4.21875 C 3.316406 -4.5625 3.195312 -4.816406 3.03125 -4.984375 C 2.875 -5.160156 2.664062 -5.25 2.40625 -5.25 C 2.019531 -5.25 1.738281 -5.054688 1.5625 -4.671875 C 1.382812 -4.285156 1.296875 -3.707031 1.296875 -2.9375 Z M 1.296875 -2.9375 "/></g></g><g style="fill:#2d6d5e;fill-opacity:1;"><g transform="translate(41.50925, 121.726593)"><path style="stroke:none" d=""/></g></g><g style="fill:#2d6d5e;fill-opacity:1;"><g transform="translate(45.072229, 121.726593)"><path style="stroke:none" d="M 2.28125 -5.96875 C 2.820312 -5.96875 3.207031 -5.796875 3.4375 -5.453125 C 3.675781 -5.109375 3.796875 -4.609375 3.796875 -3.953125 L 3.796875 0 L 3.171875 0 L 3.046875 -0.828125 L 3.015625 -0.828125 C 2.929688 -0.628906 2.820312 -0.457031 2.6875 -0.3125 C 2.5625 -0.175781 2.414062 -0.0703125 2.25 0 C 2.09375 0.0703125 1.90625 0.109375 1.6875 0.109375 C 1.382812 0.109375 1.132812 0.03125 0.9375 -0.125 C 0.75 -0.289062 0.609375 -0.503906 0.515625 -0.765625 C 0.421875 -1.023438 0.375 -1.304688 0.375 -1.609375 C 0.375 -2.191406 0.539062 -2.640625 0.875 -2.953125 C 1.21875 -3.273438 1.695312 -3.453125 2.3125 -3.484375 L 2.96875 -3.53125 L 2.96875 -3.9375 C 2.96875 -4.40625 2.90625 -4.742188 2.78125 -4.953125 C 2.65625 -5.171875 2.445312 -5.28125 2.15625 -5.28125 C 2 -5.28125 1.828125 -5.25 1.640625 -5.1875 C 1.460938 -5.132812 1.269531 -5.046875 1.0625 -4.921875 L 0.796875 -5.546875 C 1.015625 -5.691406 1.25 -5.796875 1.5 -5.859375 C 1.757812 -5.929688 2.019531 -5.96875 2.28125 -5.96875 Z M 2.984375 -2.921875 L 2.4375 -2.890625 C 2.03125 -2.867188 1.722656 -2.753906 1.515625 -2.546875 C 1.316406 -2.335938 1.21875 -2.035156 1.21875 -1.640625 C 1.21875 -1.265625 1.28125 -0.988281 1.40625 -0.8125 C 1.539062 -0.644531 1.722656 -0.5625 1.953125 -0.5625 C 2.285156 -0.5625 2.539062 -0.71875 2.71875 -1.03125 C 2.894531 -1.34375 2.984375 -1.773438 2.984375 -2.328125 Z M 2.984375 -2.921875 "/></g></g><g style="fill:#2d6d5e;fill-opacity:1;"><g transform="translate(51.098069, 121.726593)"><path style="stroke:none" d="M 1.53125 -8.3125 L 1.53125 -5.859375 C 1.53125 -5.742188 1.523438 -5.613281 1.515625 -5.46875 C 1.515625 -5.332031 1.515625 -5.1875 1.515625 -5.03125 L 1.546875 -5.03125 C 1.691406 -5.34375 1.875 -5.570312 2.09375 -5.71875 C 2.3125 -5.875 2.5625 -5.953125 2.84375 -5.953125 C 3.40625 -5.953125 3.832031 -5.695312 4.125 -5.1875 C 4.414062 -4.675781 4.5625 -3.925781 4.5625 -2.9375 C 4.5625 -2.28125 4.492188 -1.722656 4.359375 -1.265625 C 4.234375 -0.816406 4.039062 -0.472656 3.78125 -0.234375 C 3.53125 -0.00390625 3.226562 0.109375 2.875 0.109375 C 2.582031 0.109375 2.328125 0.0351562 2.109375 -0.109375 C 1.890625 -0.253906 1.703125 -0.476562 1.546875 -0.78125 L 1.5 -0.78125 L 1.390625 0 L 0.71875 0 L 0.71875 -8.3125 Z M 2.671875 -5.234375 C 2.367188 -5.234375 2.132812 -5.140625 1.96875 -4.953125 C 1.8125 -4.765625 1.695312 -4.503906 1.625 -4.171875 C 1.5625 -3.835938 1.53125 -3.457031 1.53125 -3.03125 L 1.53125 -2.78125 C 1.53125 -2.039062 1.625 -1.492188 1.8125 -1.140625 C 2.007812 -0.785156 2.296875 -0.609375 2.671875 -0.609375 C 3.023438 -0.609375 3.285156 -0.796875 3.453125 -1.171875 C 3.628906 -1.554688 3.71875 -2.148438 3.71875 -2.953125 C 3.71875 -3.703125 3.632812 -4.269531 3.46875 -4.65625 C 3.300781 -5.039062 3.035156 -5.234375 2.671875 -5.234375 Z M 2.671875 -5.234375 "/></g></g><g style="fill:#2d6d5e;fill-opacity:1;"><g transform="translate(57.636782, 121.726593)"><path style="stroke:none" d="M 2.171875 0.109375 C 1.609375 0.109375 1.179688 -0.144531 0.890625 -0.65625 C 0.609375 -1.175781 0.46875 -1.929688 0.46875 -2.921875 C 0.46875 -3.898438 0.613281 -4.648438 0.90625 -5.171875 C 1.195312 -5.703125 1.609375 -5.96875 2.140625 -5.96875 C 2.335938 -5.96875 2.519531 -5.929688 2.6875 -5.859375 C 2.851562 -5.785156 3 -5.679688 3.125 -5.546875 C 3.257812 -5.410156 3.375 -5.25 3.46875 -5.0625 L 3.515625 -5.0625 C 3.503906 -5.226562 3.492188 -5.375 3.484375 -5.5 C 3.484375 -5.632812 3.484375 -5.757812 3.484375 -5.875 L 3.484375 -8.3125 L 4.296875 -8.3125 L 4.296875 0 L 3.640625 0 L 3.53125 -0.796875 L 3.484375 -0.796875 C 3.378906 -0.609375 3.265625 -0.445312 3.140625 -0.3125 C 3.015625 -0.175781 2.875 -0.0703125 2.71875 0 C 2.5625 0.0703125 2.378906 0.109375 2.171875 0.109375 Z M 2.359375 -0.59375 C 2.722656 -0.59375 3 -0.765625 3.1875 -1.109375 C 3.382812 -1.453125 3.484375 -1.960938 3.484375 -2.640625 L 3.484375 -3.046875 C 3.484375 -3.785156 3.390625 -4.332031 3.203125 -4.6875 C 3.023438 -5.050781 2.738281 -5.234375 2.34375 -5.234375 C 1.988281 -5.234375 1.722656 -5.035156 1.546875 -4.640625 C 1.378906 -4.242188 1.296875 -3.671875 1.296875 -2.921875 C 1.296875 -2.148438 1.378906 -1.566406 1.546875 -1.171875 C 1.722656 -0.785156 1.992188 -0.59375 2.359375 -0.59375 Z M 2.359375 -0.59375 "/></g></g><g style="fill:#2d6d5e;fill-opacity:1;"><g transform="translate(64.175495, 121.726593)"><path style="stroke:none" d="M 4.359375 -2.9375 C 4.359375 -2.476562 4.316406 -2.0625 4.234375 -1.6875 C 4.160156 -1.3125 4.039062 -0.988281 3.875 -0.71875 C 3.71875 -0.457031 3.515625 -0.253906 3.265625 -0.109375 C 3.023438 0.0351562 2.734375 0.109375 2.390625 0.109375 C 2.078125 0.109375 1.796875 0.0351562 1.546875 -0.109375 C 1.304688 -0.253906 1.101562 -0.457031 0.9375 -0.71875 C 0.78125 -0.976562 0.660156 -1.296875 0.578125 -1.671875 C 0.503906 -2.054688 0.46875 -2.476562 0.46875 -2.9375 C 0.46875 -3.582031 0.535156 -4.128906 0.671875 -4.578125 C 0.804688 -5.035156 1.019531 -5.378906 1.3125 -5.609375 C 1.601562 -5.847656 1.96875 -5.96875 2.40625 -5.96875 C 2.820312 -5.96875 3.175781 -5.851562 3.46875 -5.625 C 3.757812 -5.394531 3.976562 -5.054688 4.125 -4.609375 C 4.28125 -4.160156 4.359375 -3.601562 4.359375 -2.9375 Z M 1.296875 -2.9375 C 1.296875 -2.425781 1.332031 -2 1.40625 -1.65625 C 1.488281 -1.3125 1.613281 -1.050781 1.78125 -0.875 C 1.945312 -0.695312 2.160156 -0.609375 2.421875 -0.609375 C 2.671875 -0.609375 2.875 -0.691406 3.03125 -0.859375 C 3.195312 -1.035156 3.316406 -1.296875 3.390625 -1.640625 C 3.472656 -1.984375 3.515625 -2.414062 3.515625 -2.9375 C 3.515625 -3.445312 3.472656 -3.875 3.390625 -4.21875 C 3.316406 -4.5625 3.195312 -4.816406 3.03125 -4.984375 C 2.875 -5.160156 2.664062 -5.25 2.40625 -5.25 C 2.019531 -5.25 1.738281 -5.054688 1.5625 -4.671875 C 1.382812 -4.285156 1.296875 -3.707031 1.296875 -2.9375 Z M 2.796875 -8.375 C 2.867188 -8.207031 2.960938 -8.023438 3.078125 -7.828125 C 3.191406 -7.640625 3.3125 -7.445312 3.4375 -7.25 C 3.570312 -7.0625 3.691406 -6.890625 3.796875 -6.734375 L 3.796875 -6.625 L 3.34375 -6.625 C 3.1875 -6.769531 3.03125 -6.9375 2.875 -7.125 C 2.71875 -7.3125 2.5625 -7.503906 2.40625 -7.703125 C 2.238281 -7.503906 2.070312 -7.304688 1.90625 -7.109375 C 1.738281 -6.921875 1.585938 -6.757812 1.453125 -6.625 L 1 -6.625 L 1 -6.734375 C 1.125 -6.898438 1.25 -7.082031 1.375 -7.28125 C 1.5 -7.476562 1.613281 -7.671875 1.71875 -7.859375 C 1.832031 -8.046875 1.925781 -8.21875 2 -8.375 Z M 2.796875 -8.375 "/></g></g><g style="fill:#2d6d5e;fill-opacity:1;"><g transform="translate(70.527223, 121.726593)"><path style="stroke:none" d="M 5.3125 -5.96875 C 5.78125 -5.96875 6.125 -5.800781 6.34375 -5.46875 C 6.5625 -5.132812 6.671875 -4.628906 6.671875 -3.953125 L 6.671875 0 L 5.859375 0 L 5.859375 -3.8125 C 5.859375 -4.320312 5.789062 -4.6875 5.65625 -4.90625 C 5.53125 -5.132812 5.34375 -5.25 5.09375 -5.25 C 4.738281 -5.25 4.484375 -5.078125 4.328125 -4.734375 C 4.179688 -4.398438 4.109375 -3.921875 4.109375 -3.296875 L 4.109375 0 L 3.296875 0 L 3.296875 -3.8125 C 3.296875 -4.164062 3.265625 -4.445312 3.203125 -4.65625 C 3.148438 -4.863281 3.066406 -5.015625 2.953125 -5.109375 C 2.835938 -5.203125 2.695312 -5.25 2.53125 -5.25 C 2.257812 -5.25 2.050781 -5.15625 1.90625 -4.96875 C 1.769531 -4.789062 1.671875 -4.539062 1.609375 -4.21875 C 1.554688 -3.90625 1.53125 -3.546875 1.53125 -3.140625 L 1.53125 0 L 0.71875 0 L 0.71875 -5.859375 L 1.375 -5.859375 L 1.46875 -5.03125 L 1.515625 -5.03125 C 1.585938 -5.226562 1.679688 -5.394531 1.796875 -5.53125 C 1.921875 -5.675781 2.0625 -5.785156 2.21875 -5.859375 C 2.382812 -5.929688 2.566406 -5.96875 2.765625 -5.96875 C 3.109375 -5.96875 3.375 -5.875 3.5625 -5.6875 C 3.757812 -5.507812 3.890625 -5.28125 3.953125 -5 L 4.015625 -5 C 4.148438 -5.332031 4.316406 -5.578125 4.515625 -5.734375 C 4.722656 -5.890625 4.988281 -5.96875 5.3125 -5.96875 Z M 5.3125 -5.96875 "/></g></g><g style="fill:#2d6d5e;fill-opacity:1;"><g transform="translate(79.432632, 121.726593)"><path style="stroke:none" d="M 2.328125 -5.953125 C 2.722656 -5.953125 3.050781 -5.835938 3.3125 -5.609375 C 3.570312 -5.378906 3.765625 -5.066406 3.890625 -4.671875 C 4.015625 -4.285156 4.078125 -3.851562 4.078125 -3.375 L 4.078125 -2.78125 L 1.28125 -2.78125 C 1.289062 -2.050781 1.40625 -1.503906 1.625 -1.140625 C 1.84375 -0.773438 2.171875 -0.59375 2.609375 -0.59375 C 2.828125 -0.59375 3.035156 -0.625 3.234375 -0.6875 C 3.441406 -0.75 3.648438 -0.851562 3.859375 -1 L 3.859375 -0.265625 C 3.660156 -0.140625 3.453125 -0.046875 3.234375 0.015625 C 3.015625 0.078125 2.78125 0.109375 2.53125 0.109375 C 2.039062 0.109375 1.644531 -0.0195312 1.34375 -0.28125 C 1.039062 -0.539062 0.816406 -0.898438 0.671875 -1.359375 C 0.535156 -1.816406 0.46875 -2.332031 0.46875 -2.90625 C 0.46875 -3.550781 0.535156 -4.101562 0.671875 -4.5625 C 0.816406 -5.019531 1.023438 -5.363281 1.296875 -5.59375 C 1.578125 -5.832031 1.921875 -5.953125 2.328125 -5.953125 Z M 2.328125 -5.28125 C 2.015625 -5.28125 1.769531 -5.128906 1.59375 -4.828125 C 1.425781 -4.535156 1.328125 -4.070312 1.296875 -3.4375 L 3.3125 -3.4375 C 3.3125 -3.769531 3.273438 -4.078125 3.203125 -4.359375 C 3.140625 -4.640625 3.035156 -4.863281 2.890625 -5.03125 C 2.742188 -5.195312 2.554688 -5.28125 2.328125 -5.28125 Z M 2.328125 -5.28125 "/></g></g><g style="fill:#2d6d5e;fill-opacity:1;"><g transform="translate(85.490527, 121.726593)"><path style="stroke:none" d="M 2.828125 -5.96875 C 3.285156 -5.96875 3.632812 -5.804688 3.875 -5.484375 C 4.113281 -5.160156 4.234375 -4.664062 4.234375 -4 L 4.234375 0 L 3.40625 0 L 3.40625 -3.828125 C 3.40625 -4.304688 3.34375 -4.660156 3.21875 -4.890625 C 3.101562 -5.128906 2.914062 -5.25 2.65625 -5.25 C 2.269531 -5.25 1.984375 -5.078125 1.796875 -4.734375 C 1.617188 -4.390625 1.53125 -3.84375 1.53125 -3.09375 L 1.53125 0 L 0.71875 0 L 0.71875 -5.859375 L 1.375 -5.859375 L 1.46875 -5.015625 L 1.515625 -5.015625 C 1.597656 -5.210938 1.703125 -5.378906 1.828125 -5.515625 C 1.960938 -5.660156 2.113281 -5.769531 2.28125 -5.84375 C 2.445312 -5.925781 2.628906 -5.96875 2.828125 -5.96875 Z M 2.828125 -5.96875 "/></g></g><g style="fill:#2d6d5e;fill-opacity:1;"><g transform="translate(91.954445, 121.726593)"><path style="stroke:none" d=""/></g></g><g style="fill:#2d6d5e;fill-opacity:1;"><g transform="translate(95.517425, 121.726593)"><path style="stroke:none" d="M 2.28125 -5.96875 C 2.820312 -5.96875 3.207031 -5.796875 3.4375 -5.453125 C 3.675781 -5.109375 3.796875 -4.609375 3.796875 -3.953125 L 3.796875 0 L 3.171875 0 L 3.046875 -0.828125 L 3.015625 -0.828125 C 2.929688 -0.628906 2.820312 -0.457031 2.6875 -0.3125 C 2.5625 -0.175781 2.414062 -0.0703125 2.25 0 C 2.09375 0.0703125 1.90625 0.109375 1.6875 0.109375 C 1.382812 0.109375 1.132812 0.03125 0.9375 -0.125 C 0.75 -0.289062 0.609375 -0.503906 0.515625 -0.765625 C 0.421875 -1.023438 0.375 -1.304688 0.375 -1.609375 C 0.375 -2.191406 0.539062 -2.640625 0.875 -2.953125 C 1.21875 -3.273438 1.695312 -3.453125 2.3125 -3.484375 L 2.96875 -3.53125 L 2.96875 -3.9375 C 2.96875 -4.40625 2.90625 -4.742188 2.78125 -4.953125 C 2.65625 -5.171875 2.445312 -5.28125 2.15625 -5.28125 C 2 -5.28125 1.828125 -5.25 1.640625 -5.1875 C 1.460938 -5.132812 1.269531 -5.046875 1.0625 -4.921875 L 0.796875 -5.546875 C 1.015625 -5.691406 1.25 -5.796875 1.5 -5.859375 C 1.757812 -5.929688 2.019531 -5.96875 2.28125 -5.96875 Z M 2.984375 -2.921875 L 2.4375 -2.890625 C 2.03125 -2.867188 1.722656 -2.753906 1.515625 -2.546875 C 1.316406 -2.335938 1.21875 -2.035156 1.21875 -1.640625 C 1.21875 -1.265625 1.28125 -0.988281 1.40625 -0.8125 C 1.539062 -0.644531 1.722656 -0.5625 1.953125 -0.5625 C 2.285156 -0.5625 2.539062 -0.71875 2.71875 -1.03125 C 2.894531 -1.34375 2.984375 -1.773438 2.984375 -2.328125 Z M 2.984375 -2.921875 "/></g></g><g style="fill:#2d6d5e;fill-opacity:1;"><g transform="translate(101.543265, 121.726593)"><path style="stroke:none" d="M 4.359375 -2.9375 C 4.359375 -2.476562 4.316406 -2.0625 4.234375 -1.6875 C 4.160156 -1.3125 4.039062 -0.988281 3.875 -0.71875 C 3.71875 -0.457031 3.515625 -0.253906 3.265625 -0.109375 C 3.023438 0.0351562 2.734375 0.109375 2.390625 0.109375 C 2.078125 0.109375 1.796875 0.0351562 1.546875 -0.109375 C 1.304688 -0.253906 1.101562 -0.457031 0.9375 -0.71875 C 0.78125 -0.976562 0.660156 -1.296875 0.578125 -1.671875 C 0.503906 -2.054688 0.46875 -2.476562 0.46875 -2.9375 C 0.46875 -3.582031 0.535156 -4.128906 0.671875 -4.578125 C 0.804688 -5.035156 1.019531 -5.378906 1.3125 -5.609375 C 1.601562 -5.847656 1.96875 -5.96875 2.40625 -5.96875 C 2.820312 -5.96875 3.175781 -5.851562 3.46875 -5.625 C 3.757812 -5.394531 3.976562 -5.054688 4.125 -4.609375 C 4.28125 -4.160156 4.359375 -3.601562 4.359375 -2.9375 Z M 1.296875 -2.9375 C 1.296875 -2.425781 1.332031 -2 1.40625 -1.65625 C 1.488281 -1.3125 1.613281 -1.050781 1.78125 -0.875 C 1.945312 -0.695312 2.160156 -0.609375 2.421875 -0.609375 C 2.671875 -0.609375 2.875 -0.691406 3.03125 -0.859375 C 3.195312 -1.035156 3.316406 -1.296875 3.390625 -1.640625 C 3.472656 -1.984375 3.515625 -2.414062 3.515625 -2.9375 C 3.515625 -3.445312 3.472656 -3.875 3.390625 -4.21875 C 3.316406 -4.5625 3.195312 -4.816406 3.03125 -4.984375 C 2.875 -5.160156 2.664062 -5.25 2.40625 -5.25 C 2.019531 -5.25 1.738281 -5.054688 1.5625 -4.671875 C 1.382812 -4.285156 1.296875 -3.707031 1.296875 -2.9375 Z M 1.296875 -2.9375 "/></g></g><g style="fill:#2d6d5e;fill-opacity:1;"><g transform="translate(54.735614, 134.417564)"><path style="stroke:none" d="M 2.828125 -5.96875 C 3.390625 -5.96875 3.816406 -5.710938 4.109375 -5.203125 C 4.398438 -4.703125 4.546875 -3.945312 4.546875 -2.9375 C 4.546875 -2.289062 4.476562 -1.738281 4.34375 -1.28125 C 4.21875 -0.832031 4.03125 -0.488281 3.78125 -0.25 C 3.53125 -0.0078125 3.226562 0.109375 2.875 0.109375 C 2.675781 0.109375 2.488281 0.0703125 2.3125 0 C 2.144531 -0.0820312 1.992188 -0.191406 1.859375 -0.328125 C 1.734375 -0.472656 1.625 -0.640625 1.53125 -0.828125 L 1.5 -0.828125 C 1.507812 -0.679688 1.515625 -0.539062 1.515625 -0.40625 C 1.523438 -0.28125 1.53125 -0.160156 1.53125 -0.046875 L 1.53125 2.609375 L 0.71875 2.609375 L 0.71875 -5.859375 L 1.390625 -5.859375 L 1.484375 -5 L 1.53125 -5 C 1.632812 -5.21875 1.75 -5.394531 1.875 -5.53125 C 2.007812 -5.675781 2.15625 -5.785156 2.3125 -5.859375 C 2.46875 -5.929688 2.640625 -5.96875 2.828125 -5.96875 Z M 2.65625 -5.265625 C 2.40625 -5.265625 2.195312 -5.1875 2.03125 -5.03125 C 1.875 -4.875 1.75 -4.632812 1.65625 -4.3125 C 1.570312 -4 1.53125 -3.601562 1.53125 -3.125 L 1.53125 -2.84375 C 1.53125 -2.34375 1.570312 -1.925781 1.65625 -1.59375 C 1.75 -1.257812 1.878906 -1.007812 2.046875 -0.84375 C 2.210938 -0.6875 2.421875 -0.609375 2.671875 -0.609375 C 2.898438 -0.609375 3.09375 -0.691406 3.25 -0.859375 C 3.40625 -1.023438 3.519531 -1.273438 3.59375 -1.609375 C 3.675781 -1.953125 3.71875 -2.394531 3.71875 -2.9375 C 3.71875 -3.707031 3.632812 -4.285156 3.46875 -4.671875 C 3.300781 -5.066406 3.03125 -5.265625 2.65625 -5.265625 Z M 2.65625 -5.265625 "/></g></g><g style="fill:#2d6d5e;fill-opacity:1;"><g transform="translate(61.274327, 134.417564)"><path style="stroke:none" d="M 2.328125 -5.953125 C 2.722656 -5.953125 3.050781 -5.835938 3.3125 -5.609375 C 3.570312 -5.378906 3.765625 -5.066406 3.890625 -4.671875 C 4.015625 -4.285156 4.078125 -3.851562 4.078125 -3.375 L 4.078125 -2.78125 L 1.28125 -2.78125 C 1.289062 -2.050781 1.40625 -1.503906 1.625 -1.140625 C 1.84375 -0.773438 2.171875 -0.59375 2.609375 -0.59375 C 2.828125 -0.59375 3.035156 -0.625 3.234375 -0.6875 C 3.441406 -0.75 3.648438 -0.851562 3.859375 -1 L 3.859375 -0.265625 C 3.660156 -0.140625 3.453125 -0.046875 3.234375 0.015625 C 3.015625 0.078125 2.78125 0.109375 2.53125 0.109375 C 2.039062 0.109375 1.644531 -0.0195312 1.34375 -0.28125 C 1.039062 -0.539062 0.816406 -0.898438 0.671875 -1.359375 C 0.535156 -1.816406 0.46875 -2.332031 0.46875 -2.90625 C 0.46875 -3.550781 0.535156 -4.101562 0.671875 -4.5625 C 0.816406 -5.019531 1.023438 -5.363281 1.296875 -5.59375 C 1.578125 -5.832031 1.921875 -5.953125 2.328125 -5.953125 Z M 2.328125 -5.28125 C 2.015625 -5.28125 1.769531 -5.128906 1.59375 -4.828125 C 1.425781 -4.535156 1.328125 -4.070312 1.296875 -3.4375 L 3.3125 -3.4375 C 3.3125 -3.769531 3.273438 -4.078125 3.203125 -4.359375 C 3.140625 -4.640625 3.035156 -4.863281 2.890625 -5.03125 C 2.742188 -5.195312 2.554688 -5.28125 2.328125 -5.28125 Z M 2.328125 -5.28125 "/></g></g><g style="fill:#2d6d5e;fill-opacity:1;"><g transform="translate(67.332222, 134.417564)"><path style="stroke:none" d="M 1.546875 -5.859375 L 1.546875 0 L 0.71875 0 L 0.71875 -5.859375 Z M 1.140625 -8.0625 C 1.316406 -8.0625 1.441406 -8.007812 1.515625 -7.90625 C 1.585938 -7.800781 1.625 -7.648438 1.625 -7.453125 C 1.625 -7.273438 1.582031 -7.128906 1.5 -7.015625 C 1.425781 -6.910156 1.304688 -6.859375 1.140625 -6.859375 C 0.992188 -6.859375 0.875 -6.910156 0.78125 -7.015625 C 0.695312 -7.128906 0.65625 -7.273438 0.65625 -7.453125 C 0.65625 -7.648438 0.695312 -7.800781 0.78125 -7.90625 C 0.863281 -8.007812 0.984375 -8.0625 1.140625 -8.0625 Z M 1.140625 -8.0625 "/></g></g><g style="fill:#2d6d5e;fill-opacity:1;"><g transform="translate(71.130268, 134.417564)"><path style="stroke:none" d="M 2.09375 -0.625 C 2.1875 -0.625 2.273438 -0.628906 2.359375 -0.640625 C 2.453125 -0.660156 2.535156 -0.691406 2.609375 -0.734375 L 2.609375 -0.0625 C 2.503906 -0.0078125 2.382812 0.03125 2.25 0.0625 C 2.125 0.09375 1.984375 0.109375 1.828125 0.109375 C 1.578125 0.109375 1.367188 0.0507812 1.203125 -0.0625 C 1.046875 -0.175781 0.925781 -0.34375 0.84375 -0.5625 C 0.769531 -0.789062 0.734375 -1.078125 0.734375 -1.421875 L 0.734375 -5.171875 L 0.1875 -5.171875 L 0.1875 -5.625 L 0.78125 -5.84375 L 1 -7.1875 L 1.5625 -7.1875 L 1.5625 -5.859375 L 2.546875 -5.859375 L 2.546875 -5.171875 L 1.5625 -5.171875 L 1.5625 -1.515625 C 1.5625 -1.210938 1.597656 -0.988281 1.671875 -0.84375 C 1.742188 -0.695312 1.882812 -0.625 2.09375 -0.625 Z M 2.09375 -0.625 "/></g></g><g style="fill:#2d6d5e;fill-opacity:1;"><g transform="translate(75.435845, 134.417564)"><path style="stroke:none" d="M 4.359375 -2.9375 C 4.359375 -2.476562 4.316406 -2.0625 4.234375 -1.6875 C 4.160156 -1.3125 4.039062 -0.988281 3.875 -0.71875 C 3.71875 -0.457031 3.515625 -0.253906 3.265625 -0.109375 C 3.023438 0.0351562 2.734375 0.109375 2.390625 0.109375 C 2.078125 0.109375 1.796875 0.0351562 1.546875 -0.109375 C 1.304688 -0.253906 1.101562 -0.457031 0.9375 -0.71875 C 0.78125 -0.976562 0.660156 -1.296875 0.578125 -1.671875 C 0.503906 -2.054688 0.46875 -2.476562 0.46875 -2.9375 C 0.46875 -3.582031 0.535156 -4.128906 0.671875 -4.578125 C 0.804688 -5.035156 1.019531 -5.378906 1.3125 -5.609375 C 1.601562 -5.847656 1.96875 -5.96875 2.40625 -5.96875 C 2.820312 -5.96875 3.175781 -5.851562 3.46875 -5.625 C 3.757812 -5.394531 3.976562 -5.054688 4.125 -4.609375 C 4.28125 -4.160156 4.359375 -3.601562 4.359375 -2.9375 Z M 1.296875 -2.9375 C 1.296875 -2.425781 1.332031 -2 1.40625 -1.65625 C 1.488281 -1.3125 1.613281 -1.050781 1.78125 -0.875 C 1.945312 -0.695312 2.160156 -0.609375 2.421875 -0.609375 C 2.671875 -0.609375 2.875 -0.691406 3.03125 -0.859375 C 3.195312 -1.035156 3.316406 -1.296875 3.390625 -1.640625 C 3.472656 -1.984375 3.515625 -2.414062 3.515625 -2.9375 C 3.515625 -3.445312 3.472656 -3.875 3.390625 -4.21875 C 3.316406 -4.5625 3.195312 -4.816406 3.03125 -4.984375 C 2.875 -5.160156 2.664062 -5.25 2.40625 -5.25 C 2.019531 -5.25 1.738281 -5.054688 1.5625 -4.671875 C 1.382812 -4.285156 1.296875 -3.707031 1.296875 -2.9375 Z M 1.296875 -2.9375 "/></g></g></g></svg>