<svg xmlns="http://www.w3.org/2000/svg" xmlns:xlink="http://www.w3.org/1999/xlink" width="180" zoomAndPan="magnify" viewBox="0 0 135 119.999999" height="160" preserveAspectRatio="xMidYMid meet" version="1.0"><defs><clipPath id="ccc3e260fd"><path d="M 1.152344 18.867188 L 133.769531 18.867188 L 133.769531 101.125 L 1.152344 101.125 Z M 1.152344 18.867188 " clip-rule="nonzero"/></clipPath></defs><rect x="-13.5" width="162" fill="#ffffff" y="-12" height="143.999998" fill-opacity="1"/><rect x="-13.5" width="162" fill="#ffffff" y="-12" height="143.999998" fill-opacity="1"/><g clip-path="url(#ccc3e260fd)"><path fill="#0661aa" d="M 35.46875 79.699219 C 35.324219 79.445312 35.085938 79.292969 34.878906 79.117188 C 32.96875 77.484375 31.1875 75.734375 29.539062 73.835938 C 27.210938 71.164062 25.265625 68.238281 23.542969 65.160156 C 22.304688 62.949219 21.222656 60.652344 20.371094 58.257812 C 20.070312 57.410156 19.722656 56.578125 19.414062 55.734375 C 18.726562 53.847656 18.277344 51.898438 17.894531 49.9375 C 17.515625 47.996094 17.371094 46.027344 17.441406 44.050781 C 17.445312 43.9375 17.472656 43.828125 17.492188 43.699219 C 17.820312 43.667969 17.925781 43.941406 18.085938 44.105469 C 18.574219 44.613281 19.035156 45.144531 19.511719 45.664062 C 20.339844 46.566406 21.351562 47.238281 22.347656 47.925781 C 24.460938 49.382812 26.6875 50.648438 29.007812 51.746094 C 30.332031 52.375 31.625 53.066406 32.945312 53.695312 C 34.445312 54.40625 35.964844 55.078125 37.472656 55.769531 C 40.082031 56.960938 42.699219 58.144531 45.300781 59.359375 C 47.058594 60.183594 48.796875 61.058594 50.542969 61.910156 C 50.710938 61.992188 50.886719 62.058594 51.164062 62.175781 C 51.105469 61.953125 51.078125 61.820312 51.035156 61.699219 C 50.519531 60.261719 50.160156 58.789062 49.953125 57.277344 C 49.890625 56.800781 49.839844 56.324219 49.832031 55.847656 C 49.8125 54.609375 49.839844 53.367188 49.8125 52.128906 C 49.78125 50.589844 50.082031 49.101562 50.394531 47.613281 C 51.074219 44.382812 52.390625 41.40625 54.046875 38.566406 C 54.65625 37.519531 55.226562 36.453125 55.851562 35.414062 C 56.707031 33.992188 57.609375 32.59375 58.46875 31.175781 C 59.9375 28.765625 61.683594 26.550781 63.300781 24.246094 C 64.238281 22.910156 65.289062 21.652344 66.292969 20.359375 C 66.667969 19.875 67.042969 19.386719 67.441406 18.867188 C 67.554688 18.957031 67.652344 19.007812 67.714844 19.085938 C 68.820312 20.480469 69.933594 21.859375 71.011719 23.269531 C 71.898438 24.4375 72.730469 25.640625 73.601562 26.820312 C 75.054688 28.796875 76.347656 30.878906 77.671875 32.9375 C 78.460938 34.167969 79.164062 35.453125 79.898438 36.722656 C 80.585938 37.917969 81.300781 39.101562 81.929688 40.328125 C 83.273438 42.945312 84.285156 45.679688 84.824219 48.585938 C 85.207031 50.65625 85.191406 52.730469 85.203125 54.816406 C 85.210938 56.261719 85.046875 57.6875 84.734375 59.089844 C 84.542969 59.941406 84.25 60.765625 84.003906 61.601562 C 83.957031 61.757812 83.90625 61.90625 83.824219 62.167969 C 84.054688 62.089844 84.179688 62.058594 84.292969 62.003906 C 86.066406 61.136719 87.832031 60.261719 89.609375 59.410156 C 90.828125 58.828125 92.0625 58.273438 93.292969 57.714844 C 95.109375 56.886719 96.925781 56.054688 98.75 55.242188 C 101.632812 53.957031 104.449219 52.539062 107.265625 51.125 C 109.8125 49.847656 112.246094 48.363281 114.472656 46.582031 C 115.324219 45.902344 116.027344 45.039062 116.796875 44.253906 C 117.003906 44.042969 117.148438 43.757812 117.449219 43.652344 C 117.5 43.726562 117.558594 43.765625 117.5625 43.808594 C 117.578125 44.792969 117.636719 45.78125 117.503906 46.761719 C 117.421875 47.375 117.375 47.992188 117.296875 48.609375 C 116.996094 51.019531 116.386719 53.359375 115.609375 55.660156 C 114.855469 57.902344 113.957031 60.089844 112.957031 62.234375 C 111.171875 66.058594 108.921875 69.59375 106.289062 72.878906 C 104.988281 74.503906 103.574219 76.042969 102.007812 77.429688 C 101.335938 78.027344 100.660156 78.625 100 79.238281 C 99.839844 79.382812 99.609375 79.472656 99.546875 79.761719 C 99.726562 79.761719 99.890625 79.792969 100.039062 79.757812 C 102.273438 79.242188 104.550781 79.101562 106.828125 78.960938 C 110.078125 78.753906 113.304688 79.019531 116.527344 79.359375 C 117.675781 79.480469 118.828125 79.59375 119.964844 79.789062 C 122.820312 80.28125 125.671875 80.832031 128.453125 81.671875 C 130.09375 82.167969 131.691406 82.808594 133.308594 83.390625 C 133.488281 83.457031 133.652344 83.566406 133.800781 83.640625 C 133.890625 83.957031 133.695312 84.109375 133.539062 84.253906 C 132.894531 84.84375 132.261719 85.449219 131.578125 85.992188 C 130.039062 87.21875 128.507812 88.476562 126.894531 89.601562 C 125.1875 90.792969 123.390625 91.855469 121.628906 92.96875 C 120.03125 93.976562 118.335938 94.808594 116.652344 95.65625 C 114.992188 96.492188 113.25 97.144531 111.496094 97.757812 C 111.28125 97.832031 111.0625 97.890625 110.855469 97.980469 C 109.640625 98.507812 108.382812 98.914062 107.117188 99.289062 C 105.933594 99.644531 104.738281 99.972656 103.527344 100.222656 C 102.207031 100.496094 100.863281 100.675781 99.527344 100.871094 C 98.859375 100.96875 98.183594 101.015625 97.511719 101.085938 C 97.265625 101.109375 97.019531 101.140625 96.800781 101.054688 C 96.730469 100.839844 96.875 100.761719 96.960938 100.660156 C 97.246094 100.3125 97.574219 99.992188 97.8125 99.617188 C 98.800781 98.035156 98.859375 96.375 98.113281 94.691406 C 97.875 94.148438 97.449219 93.71875 96.960938 93.363281 C 96.785156 93.234375 96.613281 93.101562 96.378906 92.925781 C 96.542969 92.816406 96.644531 92.726562 96.761719 92.675781 C 98.453125 91.949219 99.601562 90.679688 100.359375 89.039062 C 100.863281 87.9375 100.933594 86.753906 100.863281 85.5625 C 100.859375 85.460938 100.71875 85.296875 100.621094 85.277344 C 100.519531 85.261719 100.34375 85.367188 100.292969 85.464844 C 100.164062 85.710938 100.089844 85.984375 100 86.25 C 99.824219 86.757812 99.648438 87.257812 99.179688 87.675781 C 99.074219 87.464844 98.988281 87.277344 98.886719 87.097656 C 98.621094 86.628906 98.214844 86.433594 97.683594 86.488281 C 97.273438 86.535156 96.875 86.691406 96.445312 86.53125 C 96.339844 86.488281 96.132812 86.632812 96.015625 86.738281 C 95.566406 87.125 95.125 87.519531 94.703125 87.933594 C 94.121094 88.507812 93.414062 88.816406 92.628906 88.992188 C 92.0625 89.125 91.5625 89.011719 91.113281 88.679688 C 90.839844 88.480469 90.578125 88.257812 90.339844 88.023438 C 88.964844 86.6875 87.589844 85.359375 86.46875 83.785156 C 85.464844 82.382812 84.210938 81.1875 82.945312 80.027344 C 82.28125 79.414062 81.910156 78.710938 81.757812 77.859375 C 81.472656 76.25 81.214844 74.640625 80.945312 73.027344 C 80.882812 72.640625 80.824219 72.25 80.785156 71.859375 C 80.65625 70.484375 80.550781 69.113281 80.40625 67.742188 C 80.324219 66.960938 80.242188 66.167969 80.058594 65.40625 C 79.835938 64.484375 79.269531 63.796875 78.34375 63.464844 C 77.679688 63.226562 77.019531 62.988281 76.351562 62.757812 C 74.910156 62.257812 73.550781 61.578125 72.210938 60.859375 C 71.558594 60.507812 71 60.019531 70.59375 59.398438 C 70.125 58.679688 69.941406 57.851562 69.941406 56.992188 C 69.941406 56.691406 70.09375 56.453125 70.304688 56.253906 C 70.507812 56.058594 70.714844 55.867188 70.929688 55.6875 C 72.800781 54.148438 73.835938 52.128906 74.273438 49.785156 C 74.625 47.886719 74.691406 45.972656 74.171875 44.089844 C 73.464844 41.527344 71.019531 39.550781 68.398438 39.152344 C 64.660156 38.585938 61.382812 41.324219 60.726562 44.535156 C 60.121094 47.46875 60.429688 50.320312 61.855469 52.988281 C 62.359375 53.933594 62.984375 54.808594 63.847656 55.484375 C 64.113281 55.691406 64.34375 55.945312 64.601562 56.160156 C 64.964844 56.453125 65.09375 56.824219 65.066406 57.277344 C 64.96875 58.90625 64.175781 60.101562 62.765625 60.878906 C 61.0625 61.820312 59.28125 62.59375 57.433594 63.207031 C 57.191406 63.285156 56.949219 63.359375 56.710938 63.445312 C 55.6875 63.816406 55.125 64.570312 54.902344 65.605469 C 54.683594 66.628906 54.613281 67.664062 54.535156 68.703125 C 54.304688 71.765625 53.859375 74.800781 53.265625 77.8125 C 53.210938 78.085938 53.113281 78.355469 53.039062 78.625 C 52.917969 79.074219 52.671875 79.433594 52.335938 79.753906 C 51.621094 80.433594 50.910156 81.117188 50.234375 81.839844 C 49.585938 82.539062 48.953125 83.261719 48.371094 84.019531 C 47.765625 84.800781 47.164062 85.578125 46.449219 86.261719 C 45.617188 87.0625 44.75 87.828125 43.941406 88.652344 C 43.453125 89.148438 42.898438 89.191406 42.3125 89.03125 C 41.519531 88.8125 40.777344 88.476562 40.183594 87.871094 C 39.8125 87.488281 39.410156 87.132812 39.011719 86.777344 C 38.789062 86.582031 38.539062 86.496094 38.230469 86.597656 C 38.085938 86.644531 37.902344 86.617188 37.75 86.582031 C 36.832031 86.371094 36.527344 86.503906 36.042969 87.359375 C 36.003906 87.429688 35.945312 87.488281 35.875 87.574219 C 35.535156 87.492188 35.386719 87.210938 35.261719 86.941406 C 35.128906 86.667969 35.046875 86.363281 34.949219 86.070312 C 34.886719 85.882812 34.835938 85.691406 34.757812 85.511719 C 34.6875 85.351562 34.5625 85.222656 34.367188 85.265625 C 34.179688 85.308594 34.105469 85.46875 34.085938 85.644531 C 34.070312 85.8125 34.066406 85.984375 34.074219 86.152344 C 34.128906 87.832031 34.605469 89.363281 35.65625 90.699219 C 36.261719 91.464844 37.015625 92.039062 37.867188 92.496094 C 38.089844 92.617188 38.320312 92.71875 38.613281 92.863281 C 38.46875 93.003906 38.375 93.128906 38.253906 93.210938 C 37 94.046875 36.472656 95.25 36.410156 96.726562 C 36.34375 98.234375 36.929688 99.460938 37.917969 100.542969 C 38.011719 100.648438 38.113281 100.746094 38.207031 100.847656 C 38.222656 100.871094 38.230469 100.898438 38.242188 100.929688 C 38.15625 101.203125 37.921875 101.117188 37.75 101.097656 C 36.519531 100.972656 35.285156 100.847656 34.054688 100.6875 C 32.773438 100.515625 31.496094 100.28125 30.25 99.925781 C 28.199219 99.335938 26.117188 98.84375 24.148438 97.980469 C 23.816406 97.835938 23.457031 97.753906 23.113281 97.621094 C 21.828125 97.121094 20.53125 96.644531 19.269531 96.089844 C 18.242188 95.636719 17.25 95.09375 16.25 94.578125 C 14.023438 93.425781 11.902344 92.089844 9.796875 90.734375 C 6.96875 88.914062 4.355469 86.824219 1.839844 84.597656 C 1.570312 84.363281 1.25 84.15625 1.152344 83.765625 C 1.320312 83.449219 1.65625 83.402344 1.929688 83.296875 C 4.269531 82.402344 6.621094 81.523438 9.082031 81.007812 C 11.148438 80.578125 13.214844 80.136719 15.289062 79.753906 C 16.339844 79.5625 17.410156 79.480469 18.472656 79.359375 C 20.996094 79.074219 23.523438 78.847656 26.0625 78.894531 C 29.019531 78.945312 31.976562 79.101562 34.878906 79.738281 C 35.015625 79.769531 35.15625 79.78125 35.296875 79.789062 C 35.339844 79.789062 35.386719 79.742188 35.46875 79.699219 Z M 48.140625 75.707031 C 48.140625 75.753906 48.136719 75.796875 48.136719 75.84375 C 48.167969 75.832031 48.195312 75.820312 48.226562 75.808594 C 48.191406 75.78125 48.15625 75.75 48.121094 75.722656 C 48.121094 75.636719 48.148438 75.542969 48.121094 75.472656 C 47.542969 74.007812 46.96875 72.542969 46.113281 71.203125 C 44.683594 68.949219 42.929688 66.976562 40.886719 65.265625 C 37.714844 62.601562 34.21875 60.480469 30.363281 58.949219 C 30.132812 58.855469 29.910156 58.75 29.539062 58.746094 C 29.804688 58.933594 29.976562 59.0625 30.15625 59.183594 C 31.277344 59.9375 32.410156 60.675781 33.515625 61.453125 C 35.519531 62.859375 37.449219 64.367188 39.359375 65.902344 C 41.015625 67.230469 42.523438 68.714844 43.902344 70.3125 C 45.058594 71.652344 46.0625 73.125 47.128906 74.539062 C 47.382812 74.878906 47.613281 75.230469 47.871094 75.566406 C 47.929688 75.636719 48.046875 75.660156 48.140625 75.707031 Z M 105.039062 58.945312 C 105.023438 58.894531 105.003906 58.847656 104.984375 58.796875 C 104.78125 58.859375 104.566406 58.90625 104.367188 58.988281 C 100.792969 60.4375 97.507812 62.375 94.511719 64.800781 C 92.816406 66.171875 91.300781 67.707031 89.957031 69.429688 C 88.539062 71.25 87.53125 73.28125 86.722656 75.425781 C 86.6875 75.523438 86.695312 75.636719 86.664062 75.890625 C 87.140625 75.40625 87.414062 74.957031 87.714844 74.527344 C 88.8125 72.957031 89.925781 71.394531 91.21875 69.980469 C 92.71875 68.335938 94.328125 66.800781 96.082031 65.414062 C 98.402344 63.578125 100.753906 61.792969 103.210938 60.144531 C 103.816406 59.738281 104.429688 59.34375 105.039062 58.945312 " fill-opacity="1" fill-rule="evenodd"/></g><path fill="#0661aa" d="M 58.359375 75.089844 C 58.53125 75.40625 58.648438 75.589844 58.738281 75.785156 C 59.449219 77.386719 59.960938 79.054688 60.222656 80.789062 C 60.433594 82.195312 60.347656 83.59375 59.867188 84.953125 C 59.640625 85.589844 59.457031 86.238281 59.21875 86.871094 C 59.0625 87.292969 58.878906 87.707031 58.648438 88.09375 C 57.917969 89.328125 57.160156 90.550781 56.414062 91.773438 C 56.355469 91.871094 56.285156 91.960938 56.226562 92.054688 C 56.089844 92.265625 55.902344 92.355469 55.652344 92.324219 C 55.371094 92.292969 55.089844 92.269531 54.8125 92.238281 C 53.496094 92.097656 52.183594 91.949219 50.859375 91.933594 C 49.988281 91.925781 49.113281 91.835938 48.242188 91.863281 C 46.980469 91.902344 45.714844 92.003906 44.453125 92.097656 C 44.179688 92.117188 43.910156 92.164062 43.660156 92.117188 C 43.582031 91.929688 43.699219 91.863281 43.78125 91.804688 C 44.058594 91.609375 44.332031 91.410156 44.625 91.246094 C 46.007812 90.480469 47.304688 89.589844 48.613281 88.707031 C 49.21875 88.300781 49.84375 87.917969 50.484375 87.5625 C 51.695312 86.890625 52.800781 86.085938 53.863281 85.191406 C 55.09375 84.152344 55.871094 82.867188 56.332031 81.347656 C 56.917969 79.410156 57.535156 77.480469 58.144531 75.546875 C 58.175781 75.441406 58.234375 75.347656 58.359375 75.089844 " fill-opacity="1" fill-rule="evenodd"/><path fill="#0661aa" d="M 76.679688 75.085938 C 76.824219 75.5 76.921875 75.757812 77.003906 76.019531 C 77.355469 77.113281 77.703125 78.214844 78.050781 79.3125 C 78.269531 80.007812 78.503906 80.703125 78.691406 81.410156 C 79.101562 82.957031 79.929688 84.230469 81.164062 85.242188 C 82.230469 86.117188 83.363281 86.894531 84.558594 87.589844 C 85.871094 88.355469 87.121094 89.222656 88.398438 90.039062 C 88.898438 90.355469 89.410156 90.648438 89.910156 90.960938 C 90.363281 91.242188 90.8125 91.535156 91.257812 91.828125 C 91.324219 91.867188 91.363281 91.945312 91.414062 92.007812 C 91.304688 92.222656 91.113281 92.144531 90.96875 92.132812 C 89.988281 92.070312 89.007812 91.988281 88.027344 91.914062 C 86.84375 91.820312 85.664062 91.820312 84.484375 91.914062 C 83.363281 92 82.242188 92.0625 81.121094 92.144531 C 80.617188 92.179688 80.109375 92.210938 79.613281 92.300781 C 79.15625 92.382812 78.863281 92.253906 78.636719 91.855469 C 78.257812 91.195312 77.84375 90.558594 77.449219 89.910156 C 77.34375 89.742188 77.261719 89.5625 77.144531 89.402344 C 75.980469 87.769531 75.390625 85.894531 74.871094 83.988281 C 74.605469 83.023438 74.613281 82.027344 74.746094 81.054688 C 75.003906 79.121094 75.582031 77.269531 76.398438 75.496094 C 76.445312 75.398438 76.519531 75.316406 76.679688 75.085938 " fill-opacity="1" fill-rule="evenodd"/><path fill="#0661aa" d="M 96.367188 89.902344 C 96.042969 89.925781 95.789062 89.667969 95.84375 89.414062 C 95.988281 88.738281 96.339844 88.179688 96.917969 87.789062 C 97.085938 87.671875 97.316406 87.6875 97.460938 87.84375 C 97.5625 87.949219 97.671875 88.148438 97.640625 88.273438 C 97.503906 88.851562 97.230469 89.367188 96.746094 89.738281 C 96.621094 89.835938 96.449219 89.871094 96.367188 89.902344 " fill-opacity="1" fill-rule="evenodd"/><path fill="#0661aa" d="M 38.675781 89.945312 C 38.480469 89.835938 38.253906 89.765625 38.105469 89.617188 C 37.769531 89.277344 37.523438 88.875 37.390625 88.410156 C 37.320312 88.152344 37.386719 87.941406 37.574219 87.824219 C 37.761719 87.703125 37.996094 87.707031 38.191406 87.859375 C 38.644531 88.214844 38.925781 88.691406 39.113281 89.226562 C 39.183594 89.421875 39.132812 89.617188 38.980469 89.765625 C 38.910156 89.835938 38.800781 89.875 38.675781 89.945312 " fill-opacity="1" fill-rule="evenodd"/><path fill="#0661aa" d="M 48.121094 75.722656 C 48.15625 75.75 48.191406 75.78125 48.226562 75.808594 C 48.195312 75.820312 48.167969 75.832031 48.136719 75.84375 C 48.136719 75.796875 48.140625 75.753906 48.140625 75.707031 C 48.140625 75.707031 48.121094 75.722656 48.121094 75.722656 " fill-opacity="1" fill-rule="evenodd"/></svg>